<?xml version="1.0" encoding="UTF-8" standalone="no"?>
<svg
   version="1.2"
   width="64.119087mm"
   height="18.09502mm"
   viewBox="0 0 36.4868 10.297066"
   id="svg240"
   sodipodi:docname="00f320148f788d6b73a700ed656738ee.svg"
   xmlns:inkscape="http://www.inkscape.org/namespaces/inkscape"
   xmlns:sodipodi="http://sodipodi.sourceforge.net/DTD/sodipodi-0.dtd"
   xmlns:xlink="http://www.w3.org/1999/xlink"
   xmlns="http://www.w3.org/2000/svg"
   xmlns:svg="http://www.w3.org/2000/svg">
  <defs
     id="defs244" />
  <sodipodi:namedview
     id="namedview242"
     pagecolor="#ffffff"
     bordercolor="#000000"
     borderopacity="0.25"
     inkscape:showpageshadow="2"
     inkscape:pageopacity="0.0"
     inkscape:pagecheckerboard="0"
     inkscape:deskcolor="#d1d1d1"
     inkscape:document-units="mm" />
  <style
     type="text/css"
     id="style2"><![CDATA[
tspan { white-space: pre; }
]]></style>
  <!-- Page: 1/1 -->
  <g
     transform="translate(36.306768,4.3440812)"
     id="g6">
    <rect
       x="0"
       y="-1.7"
       width="0.1802"
       height="3.4000001"
       ry="0.0000"
       fill="currentColor"
       id="rect4" />
  </g>
  <g
     transform="translate(-2.318687e-4,6.0440812)"
     id="g10">
    <line
       stroke-linejoin="round"
       stroke-linecap="round"
       stroke-width="0.0949"
       stroke="currentColor"
       x1="0.047400001"
       y1="0"
       x2="36.4398"
       y2="0"
       id="line8" />
  </g>
  <g
     transform="translate(-2.318687e-4,5.1940812)"
     id="g14">
    <line
       stroke-linejoin="round"
       stroke-linecap="round"
       stroke-width="0.0949"
       stroke="currentColor"
       x1="0.047400001"
       y1="0"
       x2="36.4398"
       y2="0"
       id="line12" />
  </g>
  <g
     transform="translate(-2.318687e-4,4.3440812)"
     id="g18">
    <line
       stroke-linejoin="round"
       stroke-linecap="round"
       stroke-width="0.0949"
       stroke="currentColor"
       x1="0.047400001"
       y1="0"
       x2="36.4398"
       y2="0"
       id="line16" />
  </g>
  <g
     transform="translate(-2.318687e-4,3.4940812)"
     id="g22">
    <line
       stroke-linejoin="round"
       stroke-linecap="round"
       stroke-width="0.0949"
       stroke="currentColor"
       x1="0.047400001"
       y1="0"
       x2="36.4398"
       y2="0"
       id="line20" />
  </g>
  <g
     transform="translate(-2.318687e-4,2.6440812)"
     id="g26">
    <line
       stroke-linejoin="round"
       stroke-linecap="round"
       stroke-width="0.0949"
       stroke="currentColor"
       x1="0.047400001"
       y1="0"
       x2="36.4398"
       y2="0"
       id="line24" />
  </g>
  <a
     style="color:inherit"
     xlink:href="textedit:///Users/tomsegarra/Documents/dev/dummies/lilypond_files/00f320148f788d6b73a700ed656738ee.ly:20:12:13"
     id="a40"
     transform="translate(-2.2764319,-3.2762188)">
    <g
       transform="translate(11.9546,4.9225)"
       id="g32">
      <text
         font-family="sans-serif"
         font-size="2.224px"
         text-anchor="start"
         fill="currentColor"
         id="text30"><tspan
           id="tspan28">G</tspan></text>
    </g>
    <g
       transform="translate(13.6959,4.9225)"
       id="g38">
      <text
         font-family="sans-serif"
         font-size="2.224px"
         text-anchor="start"
         fill="currentColor"
         id="text36"><tspan
           id="tspan34">m</tspan></text>
    </g>
  </a>
  <g
     color="#000000"
     id="g48"
     transform="translate(-2.2764319,-3.2762188)">
    <a
       style="color:inherit"
       xlink:href="textedit:///Users/tomsegarra/Documents/dev/dummies/lilypond_files/00f320148f788d6b73a700ed656738ee.ly:26:4:5"
       id="a46">
      <g
         transform="translate(11.9546,5.9203)"
         id="g44">
        <path
           transform="scale(0.0034,-0.0034)"
           d="m 215,137 c 67,0 111,-37 111,-92 0,-90 -111,-182 -215,-182 -67,0 -111,37 -111,92 0,90 111,182 215,182 z"
           fill="currentColor"
           id="path42" />
      </g>
    </a>
  </g>
  <g
     transform="translate(0.79976813,5.1940812)"
     id="g52">
    <path
       transform="scale(0.0034,-0.0034)"
       d="m 646,2 c 0,-113 -74,-213 -180,-247 3,-34 5,-68 5,-102 0,-20 -1,-40 -2,-60 -7,-121 -91,-228 -209,-228 -108,0 -196,87 -196,196 0,58 53,104 112,104 54,0 95,-48 95,-104 0,-52 -43,-95 -95,-95 -10,0 -20,2 -29,6 26,-38 68,-63 116,-63 h 3 c 93,2 153,92 159,190 1,19 2,37 2,56 0,30 -2,60 -4,90 -5,-1 -43,-8 -88,-8 -194,0 -333,180 -333,375 0,177 130,307 246,442 -31,98 -53,170 -53,347 0,115 55,223 148,290 7,5 16,4 22,-1 68,-80 134,-243 134,-357 0,-143 -85,-255 -178,-364 21,-68 40,-137 57,-206 1,0 5,1 11,1 C 545,264 646,135 646,2 Z M 462,-202 c 66,24 111,88 111,162 0,89 -65,178 -170,190 28,-135 50,-272 59,-352 z M 75,26 c 0,-145 141,-245 263,-245 1,0 46,0 81,6 -7,65 -27,206 -61,363 -79,-8 -124,-61 -124,-119 0,-43 25,-89 80,-121 5,-5 7,-11 7,-16 0,-12 -10,-23 -22,-23 -16,0 -127,63 -127,188 0,89 58,175 161,198 -14,58 -29,116 -46,173 C 181,308 75,186 75,26 Z M 406,1042 C 307,995 244,894 244,785 c 0,-49 13,-111 38,-191 79,97 144,199 144,324 0,33 0,63 -20,124 z"
       fill="currentColor"
       id="path50" />
  </g>
  <a
     style="color:inherit"
     xlink:href="textedit:///Users/tomsegarra/Documents/dev/dummies/lilypond_files/00f320148f788d6b73a700ed656738ee.ly:23:1:9"
     id="a58"
     transform="translate(-2.2764319,-3.2762188)">
    <g
       transform="translate(6.6864,7.6203)"
       id="g56">
      <path
         transform="scale(0.0034,-0.0034)"
         d="m 29,39 -2,-64 v -11 c 0,-22 2,-43 5,-65 44,38 91,80 91,138 0,33 -13,66 -42,66 C 50,103 30,72 29,39 Z m -57,415 c 9,5 18,8 28,8 10,0 19,-3 28,-8 L 21,111 c 25,23 58,36 92,36 51,0 87,-49 87,-103 0,-79 -84,-117 -144,-169 -16,-14 -25,-41 -47,-41 -14,0 -25,13 -25,27 z"
         fill="currentColor"
         id="path54" />
    </g>
  </a>
  <g
     transform="translate(6.2399681,4.3440812)"
     id="g62">
    <path
       transform="scale(0.0034,-0.0034)"
       d="m 358,29 c -30,0 -74,23 -74,73 0,38 27,76 71,76 4,0 7,0 11,-1 -27,36 -69,59 -116,59 -106,0 -113,-74 -113,-188 0,-15 1,-31 1,-48 0,-17 -1,-33 -1,-48 0,-114 7,-188 113,-188 79,0 136,70 155,150 2,7 7,10 13,10 7,0 14,-5 14,-13 0,-21 -50,-175 -182,-175 C 191,-264 0,-244 0,0 0,63 18,264 250,264 365,264 424,155 424,99 424,60 394,29 358,29 Z"
       fill="currentColor"
       id="path60" />
  </g>
  <a
     style="color:inherit"
     xlink:href="textedit:///Users/tomsegarra/Documents/dev/dummies/lilypond_files/00f320148f788d6b73a700ed656738ee.ly:31:15:16"
     id="a70"
     transform="translate(-2.2764319,-3.2762188)">
    <g
       transform="translate(11.5181,13.1203)"
       id="g68">
      <text
         font-family="serif"
         font-size="2.0989px"
         text-anchor="start"
         fill="currentColor"
         id="text66"><tspan
           id="tspan64">ga</tspan></text>
    </g>
  </a>
  <g
     color="#000000"
     id="g76"
     transform="translate(-2.2764319,-3.2762188)">
    <g
       transform="translate(12.0162,7.6203)"
       id="g74">
      <rect
         x="-0.061700001"
         y="-1.5475"
         width="0.1233"
         height="2.5613999"
         ry="0.039999999"
         fill="currentColor"
         id="rect72" />
    </g>
  </g>
  <g
     color="#ff0000"
     id="g84"
     transform="translate(-2.2764319,-3.2762188)">
    <a
       style="color:inherit"
       xlink:href="textedit:///Users/tomsegarra/Documents/dev/dummies/lilypond_files/00f320148f788d6b73a700ed656738ee.ly:29:8:9"
       id="a82">
      <g
         transform="translate(36.4773,6.7703)"
         id="g80">
        <path
           transform="scale(0.0034,-0.0034)"
           d="m 215,137 c 67,0 111,-37 111,-92 0,-90 -111,-182 -215,-182 -67,0 -111,37 -111,92 0,90 111,182 215,182 z"
           fill="currentColor"
           id="path78" />
      </g>
    </a>
  </g>
  <a
     style="color:inherit"
     xlink:href="textedit:///Users/tomsegarra/Documents/dev/dummies/lilypond_files/00f320148f788d6b73a700ed656738ee.ly:31:52:53"
     id="a92"
     transform="translate(-2.2764319,-3.2762188)">
    <g
       transform="translate(35.9384,13.1203)"
       id="g90">
      <text
         font-family="serif"
         font-size="2.0989px"
         text-anchor="start"
         fill="currentColor"
         id="text88"><tspan
           id="tspan86">tar</tspan></text>
    </g>
  </a>
  <g
     color="#ff0000"
     id="g98"
     transform="translate(-2.2764319,-3.2762188)">
    <g
       transform="translate(36.539,7.6203)"
       id="g96">
      <rect
         x="-0.061700001"
         y="-0.69749999"
         width="0.1233"
         height="3.0910001"
         ry="0.039999999"
         fill="currentColor"
         id="rect94" />
    </g>
  </g>
  <g
     transform="translate(9.6781681,5.3506812)"
     id="g102">
    <polygon
       stroke-linejoin="round"
       stroke-linecap="round"
       stroke-width="0.08"
       fill="currentColor"
       stroke="currentColor"
       points="0.04,0.164 0.04,-0.164 11.7531,1.2229 11.7531,1.5509 "
       id="polygon100" />
  </g>
  <g
     color="#000000"
     id="g110"
     transform="translate(-2.2764319,-3.2762188)">
    <a
       style="color:inherit"
       xlink:href="textedit:///Users/tomsegarra/Documents/dev/dummies/lilypond_files/00f320148f788d6b73a700ed656738ee.ly:26:9:10"
       id="a108">
      <g
         transform="translate(14.6666,5.9203)"
         id="g106">
        <path
           transform="scale(0.0034,-0.0034)"
           d="m 215,137 c 67,0 111,-37 111,-92 0,-90 -111,-182 -215,-182 -67,0 -111,37 -111,92 0,90 111,182 215,182 z"
           fill="currentColor"
           id="path104" />
      </g>
    </a>
  </g>
  <a
     style="color:inherit"
     xlink:href="textedit:///Users/tomsegarra/Documents/dev/dummies/lilypond_files/00f320148f788d6b73a700ed656738ee.ly:31:21:22"
     id="a118"
     transform="translate(-2.2764319,-3.2762188)">
    <g
       transform="translate(13.5984,13.1203)"
       id="g116">
      <text
         font-family="serif"
         font-size="2.0989px"
         text-anchor="start"
         fill="currentColor"
         id="text114"><tspan
           id="tspan112">ther</tspan></text>
    </g>
  </a>
  <g
     color="#000000"
     id="g124"
     transform="translate(-2.2764319,-3.2762188)">
    <g
       transform="translate(14.7282,7.6203)"
       id="g122">
      <rect
         x="-0.061700001"
         y="-1.5475"
         width="0.1233"
         height="2.8803"
         ry="0.039999999"
         fill="currentColor"
         id="rect120" />
    </g>
  </g>
  <g
     color="#000000"
     id="g132"
     transform="translate(-2.2764319,-3.2762188)">
    <a
       style="color:inherit"
       xlink:href="textedit:///Users/tomsegarra/Documents/dev/dummies/lilypond_files/00f320148f788d6b73a700ed656738ee.ly:26:11:12"
       id="a130">
      <g
         transform="translate(19.1967,6.7703)"
         id="g128">
        <path
           transform="scale(0.0034,-0.0034)"
           d="m 215,137 c 67,0 111,-37 111,-92 0,-90 -111,-182 -215,-182 -67,0 -111,37 -111,92 0,90 111,182 215,182 z"
           fill="currentColor"
           id="path126" />
      </g>
    </a>
  </g>
  <a
     style="color:inherit"
     xlink:href="textedit:///Users/tomsegarra/Documents/dev/dummies/lilypond_files/00f320148f788d6b73a700ed656738ee.ly:31:26:27"
     id="a140"
     transform="translate(-2.2764319,-3.2762188)">
    <g
       transform="translate(17.2921,13.1203)"
       id="g138">
      <text
         font-family="serif"
         font-size="2.0989px"
         text-anchor="start"
         fill="currentColor"
         id="text136"><tspan
           id="tspan134">round</tspan></text>
    </g>
  </a>
  <g
     color="#000000"
     id="g146"
     transform="translate(-2.2764319,-3.2762188)">
    <g
       transform="translate(19.2583,7.6203)"
       id="g144">
      <rect
         x="-0.061700001"
         y="-0.69749999"
         width="0.1233"
         height="2.563"
         ry="0.039999999"
         fill="currentColor"
         id="rect142" />
    </g>
  </g>
  <g
     color="#000000"
     id="g154"
     transform="translate(-2.2764319,-3.2762188)">
    <a
       style="color:inherit"
       xlink:href="textedit:///Users/tomsegarra/Documents/dev/dummies/lilypond_files/00f320148f788d6b73a700ed656738ee.ly:26:13:14"
       id="a152">
      <g
         transform="translate(23.6244,8.0453)"
         id="g150">
        <path
           transform="scale(0.0034,-0.0034)"
           d="m 215,137 c 67,0 111,-37 111,-92 0,-90 -111,-182 -215,-182 -67,0 -111,37 -111,92 0,90 111,182 215,182 z"
           fill="currentColor"
           id="path148" />
      </g>
    </a>
  </g>
  <a
     style="color:inherit"
     xlink:href="textedit:///Users/tomsegarra/Documents/dev/dummies/lilypond_files/00f320148f788d6b73a700ed656738ee.ly:31:32:33"
     id="a162"
     transform="translate(-2.2764319,-3.2762188)">
    <g
       transform="translate(22.6587,13.1203)"
       id="g160">
      <text
         font-family="serif"
         font-size="2.0989px"
         text-anchor="start"
         fill="currentColor"
         id="text158"><tspan
           id="tspan156">and</tspan></text>
    </g>
  </a>
  <g
     color="#000000"
     id="g168"
     transform="translate(-2.2764319,-3.2762188)">
    <g
       transform="translate(23.686,7.6203)"
       id="g166">
      <rect
         x="-0.061700001"
         y="0.57749999"
         width="0.1233"
         height="1.8087"
         ry="0.039999999"
         fill="currentColor"
         id="rect164" />
    </g>
  </g>
  <g
     transform="translate(25.075668,6.7374812)"
     id="g172">
    <polygon
       stroke-linejoin="round"
       stroke-linecap="round"
       stroke-width="0.08"
       fill="currentColor"
       stroke="currentColor"
       points="0.04,0.164 0.04,-0.164 9.2085,-0.164 9.2085,0.164 "
       id="polygon170" />
  </g>
  <g
     color="#000000"
     id="g180"
     transform="translate(-2.2764319,-3.2762188)">
    <a
       style="color:inherit"
       xlink:href="textedit:///Users/tomsegarra/Documents/dev/dummies/lilypond_files/00f320148f788d6b73a700ed656738ee.ly:26:15:16"
       id="a178">
      <g
         transform="translate(27.3521,7.1953)"
         id="g176">
        <path
           transform="scale(0.0034,-0.0034)"
           d="m 215,137 c 67,0 111,-37 111,-92 0,-90 -111,-182 -215,-182 -67,0 -111,37 -111,92 0,90 111,182 215,182 z"
           fill="currentColor"
           id="path174" />
      </g>
    </a>
  </g>
  <a
     style="color:inherit"
     xlink:href="textedit:///Users/tomsegarra/Documents/dev/dummies/lilypond_files/00f320148f788d6b73a700ed656738ee.ly:31:36:37"
     id="a188"
     transform="translate(-2.2764319,-3.2762188)">
    <g
       transform="translate(26.1474,13.1203)"
       id="g186">
      <text
         font-family="serif"
         font-size="2.0989px"
         text-anchor="start"
         fill="currentColor"
         id="text184"><tspan
           id="tspan182">sing</tspan></text>
    </g>
  </a>
  <g
     color="#000000"
     id="g194"
     transform="translate(-2.2764319,-3.2762188)">
    <g
       transform="translate(27.4138,7.6203)"
       id="g192">
      <rect
         x="-0.061700001"
         y="-0.27250001"
         width="0.1233"
         height="2.6659999"
         ry="0.039999999"
         fill="currentColor"
         id="rect190" />
    </g>
  </g>
  <g
     color="#ff0000"
     id="g202"
     transform="translate(-2.2764319,-3.2762188)">
    <a
       style="color:inherit"
       xlink:href="textedit:///Users/tomsegarra/Documents/dev/dummies/lilypond_files/00f320148f788d6b73a700ed656738ee.ly:29:4:5"
       id="a200">
      <g
         transform="translate(30.8409,7.1953)"
         id="g198">
        <path
           transform="scale(0.0034,-0.0034)"
           d="m 215,137 c 67,0 111,-37 111,-92 0,-90 -111,-182 -215,-182 -67,0 -111,37 -111,92 0,90 111,182 215,182 z"
           fill="currentColor"
           id="path196" />
      </g>
    </a>
  </g>
  <a
     style="color:inherit"
     xlink:href="textedit:///Users/tomsegarra/Documents/dev/dummies/lilypond_files/00f320148f788d6b73a700ed656738ee.ly:31:41:42"
     id="a210"
     transform="translate(-2.2764319,-3.2762188)">
    <g
       transform="translate(30.1142,13.1203)"
       id="g208">
      <text
         font-family="serif"
         font-size="2.0989px"
         text-anchor="start"
         fill="currentColor"
         id="text206"><tspan
           id="tspan204">the</tspan></text>
    </g>
  </a>
  <g
     color="#ff0000"
     id="g216"
     transform="translate(-2.2764319,-3.2762188)">
    <g
       transform="translate(30.9025,7.6203)"
       id="g214">
      <rect
         x="-0.061700001"
         y="-0.27250001"
         width="0.1233"
         height="2.6659999"
         ry="0.039999999"
         fill="currentColor"
         id="rect212" />
    </g>
  </g>
  <g
     color="#ff0000"
     id="g224"
     transform="translate(-2.2764319,-3.2762188)">
    <a
       style="color:inherit"
       xlink:href="textedit:///Users/tomsegarra/Documents/dev/dummies/lilypond_files/00f320148f788d6b73a700ed656738ee.ly:29:6:7"
       id="a222">
      <g
         transform="translate(33.9199,8.0453)"
         id="g220">
        <path
           transform="scale(0.0034,-0.0034)"
           d="m 215,137 c 67,0 111,-37 111,-92 0,-90 -111,-182 -215,-182 -67,0 -111,37 -111,92 0,90 111,182 215,182 z"
           fill="currentColor"
           id="path218" />
      </g>
    </a>
  </g>
  <a
     style="color:inherit"
     xlink:href="textedit:///Users/tomsegarra/Documents/dev/dummies/lilypond_files/00f320148f788d6b73a700ed656738ee.ly:31:45:46"
     id="a232"
     transform="translate(-2.2764319,-3.2762188)">
    <g
       transform="translate(33.125,13.1203)"
       id="g230">
      <text
         font-family="serif"
         font-size="2.0989px"
         text-anchor="start"
         fill="currentColor"
         id="text228"><tspan
           id="tspan226">gui</tspan></text>
    </g>
  </a>
  <g
     color="#ff0000"
     id="g238"
     transform="translate(-2.2764319,-3.2762188)">
    <g
       transform="translate(33.9816,7.6203)"
       id="g236">
      <rect
         x="-0.061700001"
         y="0.57749999"
         width="0.1233"
         height="1.816"
         ry="0.039999999"
         fill="currentColor"
         id="rect234" />
    </g>
  </g>
</svg>
