<svg xmlns="http://www.w3.org/2000/svg" xmlns:xlink="http://www.w3.org/1999/xlink" version="1.2" width="72.12mm" height="297.00mm" viewBox="0 0 41.0397 169.0094">
<style type="text/css">
<![CDATA[
tspan { white-space: pre; }
]]>
</style>
<!-- Page: 1/1 -->
<g transform="translate(38.5832, 7.6203)">
<rect x="0.0000" y="-1.7000" width="0.1802" height="3.4000" ry="0.0000" fill="currentColor"/>
</g>
<g transform="translate(2.2762, 9.3203)">
<line stroke-linejoin="round" stroke-linecap="round" stroke-width="0.0949" stroke="currentColor" x1="0.0474" y1="0" x2="36.4398" y2="0"/>
</g>
<g transform="translate(2.2762, 8.4703)">
<line stroke-linejoin="round" stroke-linecap="round" stroke-width="0.0949" stroke="currentColor" x1="0.0474" y1="0" x2="36.4398" y2="0"/>
</g>
<g transform="translate(2.2762, 7.6203)">
<line stroke-linejoin="round" stroke-linecap="round" stroke-width="0.0949" stroke="currentColor" x1="0.0474" y1="0" x2="36.4398" y2="0"/>
</g>
<g transform="translate(2.2762, 6.7703)">
<line stroke-linejoin="round" stroke-linecap="round" stroke-width="0.0949" stroke="currentColor" x1="0.0474" y1="0" x2="36.4398" y2="0"/>
</g>
<g transform="translate(2.2762, 5.9203)">
<line stroke-linejoin="round" stroke-linecap="round" stroke-width="0.0949" stroke="currentColor" x1="0.0474" y1="0" x2="36.4398" y2="0"/>
</g>
<a style="color:inherit;" xlink:href="textedit:///Users/tomsegarra/Documents/dev/dummies/lilypond_files/00f320148f788d6b73a700ed656738ee.ly:20:12:13">
<g transform="translate(11.9546, 4.9225)">
<text font-family="sans-serif" font-size="2.2240" text-anchor="start" fill="currentColor">
<tspan>G</tspan>
</text>
</g>
<g transform="translate(13.6959, 4.9225)">
<text font-family="sans-serif" font-size="2.2240" text-anchor="start" fill="currentColor">
<tspan>m</tspan>
</text>
</g>
</a>
<g color="black">
<a style="color:inherit;" xlink:href="textedit:///Users/tomsegarra/Documents/dev/dummies/lilypond_files/00f320148f788d6b73a700ed656738ee.ly:26:4:5">
<g transform="translate(11.9546, 5.9203)">
<path transform="scale(0.0034, -0.0034)" d="M215 137c67 0 111 -37 111 -92c0 -90 -111 -182 -215 -182c-67 0 -111 37 -111 92c0 90 111 182 215 182z" fill="currentColor"/>
</g>
</a>
</g>
<g transform="translate(3.0762, 8.4703)">
<path transform="scale(0.0034, -0.0034)" d="M646 2c0 -113 -74 -213 -180 -247c3 -34 5 -68 5 -102c0 -20 -1 -40 -2 -60c-7 -121 -91 -228 -209 -228c-108 0 -196 87 -196 196c0 58 53 104 112 104c54 0 95 -48 95 -104c0 -52 -43 -95 -95 -95c-10 0 -20 2 -29 6c26 -38 68 -63 116 -63h3c93 2 153 92 159 190
c1 19 2 37 2 56c0 30 -2 60 -4 90c-5 -1 -43 -8 -88 -8c-194 0 -333 180 -333 375c0 177 130 307 246 442c-31 98 -53 170 -53 347c0 115 55 223 148 290c7 5 16 4 22 -1c68 -80 134 -243 134 -357c0 -143 -85 -255 -178 -364c21 -68 40 -137 57 -206c1 0 5 1 11 1
c156 0 257 -129 257 -262zM462 -202c66 24 111 88 111 162c0 89 -65 178 -170 190c28 -135 50 -272 59 -352zM75 26c0 -145 141 -245 263 -245c1 0 46 0 81 6c-7 65 -27 206 -61 363c-79 -8 -124 -61 -124 -119c0 -43 25 -89 80 -121c5 -5 7 -11 7 -16
c0 -12 -10 -23 -22 -23c-16 0 -127 63 -127 188c0 89 58 175 161 198c-14 58 -29 116 -46 173c-106 -122 -212 -244 -212 -404zM406 1042c-99 -47 -162 -148 -162 -257c0 -49 13 -111 38 -191c79 97 144 199 144 324c0 33 0 63 -20 124z" fill="currentColor"/>
</g>
<a style="color:inherit;" xlink:href="textedit:///Users/tomsegarra/Documents/dev/dummies/lilypond_files/00f320148f788d6b73a700ed656738ee.ly:23:1:9">
<g transform="translate(6.6864, 7.6203)">
<path transform="scale(0.0034, -0.0034)" d="M29 39l-2 -64v-11c0 -22 2 -43 5 -65c44 38 91 80 91 138c0 33 -13 66 -42 66c-31 0 -51 -31 -52 -64zM-28 454c9 5 18 8 28 8s19 -3 28 -8l-7 -343c25 23 58 36 92 36c51 0 87 -49 87 -103c0 -79 -84 -117 -144 -169c-16 -14 -25 -41 -47 -41c-14 0 -25 13 -25 27z" fill="currentColor"/>
</g>
</a>
<g transform="translate(8.5164, 7.6203)">
<path transform="scale(0.0034, -0.0034)" d="M358 29c-30 0 -74 23 -74 73c0 38 27 76 71 76c4 0 7 0 11 -1c-27 36 -69 59 -116 59c-106 0 -113 -74 -113 -188c0 -15 1 -31 1 -48s-1 -33 -1 -48c0 -114 7 -188 113 -188c79 0 136 70 155 150c2 7 7 10 13 10c7 0 14 -5 14 -13c0 -21 -50 -175 -182 -175
c-59 0 -250 20 -250 264c0 63 18 264 250 264c115 0 174 -109 174 -165c0 -39 -30 -70 -66 -70z" fill="currentColor"/>
</g>
<a style="color:inherit;" xlink:href="textedit:///Users/tomsegarra/Documents/dev/dummies/lilypond_files/00f320148f788d6b73a700ed656738ee.ly:31:15:16">
<g transform="translate(11.5181, 13.1203)">
<text font-family="serif" font-size="2.0989" text-anchor="start" fill="currentColor">
<tspan>ga</tspan>
</text>
</g>
</a>
<g color="black">
<g transform="translate(12.0162, 7.6203)">
<rect x="-0.0617" y="-1.5475" width="0.1233" height="2.5614" ry="0.0400" fill="currentColor"/>
</g>
</g>
<g color="red">
<a style="color:inherit;" xlink:href="textedit:///Users/tomsegarra/Documents/dev/dummies/lilypond_files/00f320148f788d6b73a700ed656738ee.ly:29:8:9">
<g transform="translate(36.4773, 6.7703)">
<path transform="scale(0.0034, -0.0034)" d="M215 137c67 0 111 -37 111 -92c0 -90 -111 -182 -215 -182c-67 0 -111 37 -111 92c0 90 111 182 215 182z" fill="currentColor"/>
</g>
</a>
</g>
<a style="color:inherit;" xlink:href="textedit:///Users/tomsegarra/Documents/dev/dummies/lilypond_files/00f320148f788d6b73a700ed656738ee.ly:31:52:53">
<g transform="translate(35.9384, 13.1203)">
<text font-family="serif" font-size="2.0989" text-anchor="start" fill="currentColor">
<tspan>tar</tspan>
</text>
</g>
</a>
<g color="red">
<g transform="translate(36.5390, 7.6203)">
<rect x="-0.0617" y="-0.6975" width="0.1233" height="3.0910" ry="0.0400" fill="currentColor"/>
</g>
</g>
<g transform="translate(11.9546, 8.6269)">
<polygon stroke-linejoin="round" stroke-linecap="round" stroke-width="0.0800" fill="currentColor" stroke="currentColor" points="11.7531 1.2229 11.7531 1.5509 0.0400 0.1640 0.0400 -0.1640"/>
</g>
<g color="black">
<a style="color:inherit;" xlink:href="textedit:///Users/tomsegarra/Documents/dev/dummies/lilypond_files/00f320148f788d6b73a700ed656738ee.ly:26:9:10">
<g transform="translate(14.6666, 5.9203)">
<path transform="scale(0.0034, -0.0034)" d="M215 137c67 0 111 -37 111 -92c0 -90 -111 -182 -215 -182c-67 0 -111 37 -111 92c0 90 111 182 215 182z" fill="currentColor"/>
</g>
</a>
</g>
<a style="color:inherit;" xlink:href="textedit:///Users/tomsegarra/Documents/dev/dummies/lilypond_files/00f320148f788d6b73a700ed656738ee.ly:31:21:22">
<g transform="translate(13.5984, 13.1203)">
<text font-family="serif" font-size="2.0989" text-anchor="start" fill="currentColor">
<tspan>ther</tspan>
</text>
</g>
</a>
<g color="black">
<g transform="translate(14.7282, 7.6203)">
<rect x="-0.0617" y="-1.5475" width="0.1233" height="2.8803" ry="0.0400" fill="currentColor"/>
</g>
</g>
<g color="black">
<a style="color:inherit;" xlink:href="textedit:///Users/tomsegarra/Documents/dev/dummies/lilypond_files/00f320148f788d6b73a700ed656738ee.ly:26:11:12">
<g transform="translate(19.1967, 6.7703)">
<path transform="scale(0.0034, -0.0034)" d="M215 137c67 0 111 -37 111 -92c0 -90 -111 -182 -215 -182c-67 0 -111 37 -111 92c0 90 111 182 215 182z" fill="currentColor"/>
</g>
</a>
</g>
<a style="color:inherit;" xlink:href="textedit:///Users/tomsegarra/Documents/dev/dummies/lilypond_files/00f320148f788d6b73a700ed656738ee.ly:31:26:27">
<g transform="translate(17.2921, 13.1203)">
<text font-family="serif" font-size="2.0989" text-anchor="start" fill="currentColor">
<tspan>round</tspan>
</text>
</g>
</a>
<g color="black">
<g transform="translate(19.2583, 7.6203)">
<rect x="-0.0617" y="-0.6975" width="0.1233" height="2.5630" ry="0.0400" fill="currentColor"/>
</g>
</g>
<g color="black">
<a style="color:inherit;" xlink:href="textedit:///Users/tomsegarra/Documents/dev/dummies/lilypond_files/00f320148f788d6b73a700ed656738ee.ly:26:13:14">
<g transform="translate(23.6244, 8.0453)">
<path transform="scale(0.0034, -0.0034)" d="M215 137c67 0 111 -37 111 -92c0 -90 -111 -182 -215 -182c-67 0 -111 37 -111 92c0 90 111 182 215 182z" fill="currentColor"/>
</g>
</a>
</g>
<a style="color:inherit;" xlink:href="textedit:///Users/tomsegarra/Documents/dev/dummies/lilypond_files/00f320148f788d6b73a700ed656738ee.ly:31:32:33">
<g transform="translate(22.6587, 13.1203)">
<text font-family="serif" font-size="2.0989" text-anchor="start" fill="currentColor">
<tspan>and</tspan>
</text>
</g>
</a>
<g color="black">
<g transform="translate(23.6860, 7.6203)">
<rect x="-0.0617" y="0.5775" width="0.1233" height="1.8087" ry="0.0400" fill="currentColor"/>
</g>
</g>
<g transform="translate(27.3521, 10.0137)">
<polygon stroke-linejoin="round" stroke-linecap="round" stroke-width="0.0800" fill="currentColor" stroke="currentColor" points="9.2085 -0.1640 9.2085 0.1640 0.0400 0.1640 0.0400 -0.1640"/>
</g>
<g color="black">
<a style="color:inherit;" xlink:href="textedit:///Users/tomsegarra/Documents/dev/dummies/lilypond_files/00f320148f788d6b73a700ed656738ee.ly:26:15:16">
<g transform="translate(27.3521, 7.1953)">
<path transform="scale(0.0034, -0.0034)" d="M215 137c67 0 111 -37 111 -92c0 -90 -111 -182 -215 -182c-67 0 -111 37 -111 92c0 90 111 182 215 182z" fill="currentColor"/>
</g>
</a>
</g>
<a style="color:inherit;" xlink:href="textedit:///Users/tomsegarra/Documents/dev/dummies/lilypond_files/00f320148f788d6b73a700ed656738ee.ly:31:36:37">
<g transform="translate(26.1474, 13.1203)">
<text font-family="serif" font-size="2.0989" text-anchor="start" fill="currentColor">
<tspan>sing</tspan>
</text>
</g>
</a>
<g color="black">
<g transform="translate(27.4138, 7.6203)">
<rect x="-0.0617" y="-0.2725" width="0.1233" height="2.6660" ry="0.0400" fill="currentColor"/>
</g>
</g>
<g color="red">
<a style="color:inherit;" xlink:href="textedit:///Users/tomsegarra/Documents/dev/dummies/lilypond_files/00f320148f788d6b73a700ed656738ee.ly:29:4:5">
<g transform="translate(30.8409, 7.1953)">
<path transform="scale(0.0034, -0.0034)" d="M215 137c67 0 111 -37 111 -92c0 -90 -111 -182 -215 -182c-67 0 -111 37 -111 92c0 90 111 182 215 182z" fill="currentColor"/>
</g>
</a>
</g>
<a style="color:inherit;" xlink:href="textedit:///Users/tomsegarra/Documents/dev/dummies/lilypond_files/00f320148f788d6b73a700ed656738ee.ly:31:41:42">
<g transform="translate(30.1142, 13.1203)">
<text font-family="serif" font-size="2.0989" text-anchor="start" fill="currentColor">
<tspan>the</tspan>
</text>
</g>
</a>
<g color="red">
<g transform="translate(30.9025, 7.6203)">
<rect x="-0.0617" y="-0.2725" width="0.1233" height="2.6660" ry="0.0400" fill="currentColor"/>
</g>
</g>
<g color="red">
<a style="color:inherit;" xlink:href="textedit:///Users/tomsegarra/Documents/dev/dummies/lilypond_files/00f320148f788d6b73a700ed656738ee.ly:29:6:7">
<g transform="translate(33.9199, 8.0453)">
<path transform="scale(0.0034, -0.0034)" d="M215 137c67 0 111 -37 111 -92c0 -90 -111 -182 -215 -182c-67 0 -111 37 -111 92c0 90 111 182 215 182z" fill="currentColor"/>
</g>
</a>
</g>
<a style="color:inherit;" xlink:href="textedit:///Users/tomsegarra/Documents/dev/dummies/lilypond_files/00f320148f788d6b73a700ed656738ee.ly:31:45:46">
<g transform="translate(33.1250, 13.1203)">
<text font-family="serif" font-size="2.0989" text-anchor="start" fill="currentColor">
<tspan>gui</tspan>
</text>
</g>
</a>
<g color="red">
<g transform="translate(33.9816, 7.6203)">
<rect x="-0.0617" y="0.5775" width="0.1233" height="1.8160" ry="0.0400" fill="currentColor"/>
</g>
</g>
</svg>
