<?xml version="1.0" encoding="UTF-8" standalone="no"?>
<svg
   version="1.2"
   width="153.67929mm"
   height="13.648194mm"
   viewBox="0 0 87.451486 7.7665762"
   id="svg414"
   sodipodi:docname="084a4336b576986a181c3415ed32b574.svg"
   xmlns:inkscape="http://www.inkscape.org/namespaces/inkscape"
   xmlns:sodipodi="http://sodipodi.sourceforge.net/DTD/sodipodi-0.dtd"
   xmlns:xlink="http://www.w3.org/1999/xlink"
   xmlns="http://www.w3.org/2000/svg"
   xmlns:svg="http://www.w3.org/2000/svg">
  <defs
     id="defs418" />
  <sodipodi:namedview
     id="namedview416"
     pagecolor="#ffffff"
     bordercolor="#000000"
     borderopacity="0.25"
     inkscape:showpageshadow="2"
     inkscape:pageopacity="0.0"
     inkscape:pagecheckerboard="0"
     inkscape:deskcolor="#d1d1d1"
     inkscape:document-units="mm" />
  <style
     type="text/css"
     id="style2"><![CDATA[
tspan { white-space: pre; }
]]></style>
  <!-- Page: 1/1 -->
  <g
     transform="translate(-2.2209806e-4,4.9105767)"
     id="g6">
    <line
       stroke-linejoin="round"
       stroke-linecap="round"
       stroke-width="0.0949"
       stroke="currentColor"
       x1="0.047400001"
       y1="0"
       x2="87.404503"
       y2="0"
       id="line4" />
  </g>
  <g
     transform="translate(-2.2209806e-4,4.0605767)"
     id="g10">
    <line
       stroke-linejoin="round"
       stroke-linecap="round"
       stroke-width="0.0949"
       stroke="currentColor"
       x1="0.047400001"
       y1="0"
       x2="87.404503"
       y2="0"
       id="line8" />
  </g>
  <g
     transform="translate(-2.2209806e-4,3.2105767)"
     id="g14">
    <line
       stroke-linejoin="round"
       stroke-linecap="round"
       stroke-width="0.0949"
       stroke="currentColor"
       x1="0.047400001"
       y1="0"
       x2="87.404503"
       y2="0"
       id="line12" />
  </g>
  <g
     transform="translate(-2.2209806e-4,2.3605767)"
     id="g18">
    <line
       stroke-linejoin="round"
       stroke-linecap="round"
       stroke-width="0.0949"
       stroke="currentColor"
       x1="0.047400001"
       y1="0"
       x2="87.404503"
       y2="0"
       id="line16" />
  </g>
  <g
     transform="translate(-2.2209806e-4,1.5105767)"
     id="g22">
    <line
       stroke-linejoin="round"
       stroke-linecap="round"
       stroke-width="0.0949"
       stroke="currentColor"
       x1="0.047400001"
       y1="0"
       x2="87.404503"
       y2="0"
       id="line20" />
  </g>
  <g
     transform="translate(87.271478,3.2105767)"
     id="g26">
    <rect
       x="0"
       y="-1.7"
       width="0.1802"
       height="3.4000001"
       ry="0.0000"
       fill="currentColor"
       id="rect24" />
  </g>
  <g
     transform="translate(75.101078,3.2105767)"
     id="g30">
    <rect
       x="0"
       y="-1.7"
       width="0.1802"
       height="3.4000001"
       ry="0.0000"
       fill="currentColor"
       id="rect28" />
  </g>
  <g
     transform="translate(62.024378,3.2105767)"
     id="g34">
    <rect
       x="0"
       y="-1.7"
       width="0.1802"
       height="3.4000001"
       ry="0.0000"
       fill="currentColor"
       id="rect32" />
  </g>
  <g
     transform="translate(48.876178,3.2105767)"
     id="g38">
    <rect
       x="0"
       y="-1.7"
       width="0.1802"
       height="3.4000001"
       ry="0.0000"
       fill="currentColor"
       id="rect36" />
  </g>
  <g
     transform="translate(35.870778,3.2105767)"
     id="g42">
    <rect
       x="0"
       y="-1.7"
       width="0.1802"
       height="3.4000001"
       ry="0.0000"
       fill="currentColor"
       id="rect40" />
  </g>
  <g
     transform="translate(28.492578,3.2105767)"
     id="g46">
    <rect
       x="0"
       y="-1.7"
       width="0.1802"
       height="3.4000001"
       ry="0.0000"
       fill="currentColor"
       id="rect44" />
  </g>
  <g
     transform="translate(21.114278,3.2105767)"
     id="g50">
    <rect
       x="0"
       y="-1.7"
       width="0.1802"
       height="3.4000001"
       ry="0.0000"
       fill="currentColor"
       id="rect48" />
  </g>
  <g
     transform="translate(13.735978,3.2105767)"
     id="g54">
    <rect
       x="0"
       y="-1.7"
       width="0.1802"
       height="3.4000001"
       ry="0.0000"
       fill="currentColor"
       id="rect52" />
  </g>
  <a
     style="color:inherit"
     xlink:href="textedit:///Users/tomsegarra/Documents/dev/dummies/lilypond_files/084a4336b576986a181c3415ed32b574.ly:20:1:9"
     id="a56"
     transform="translate(-2.2764221,-3.2761233)" />
  <g
     transform="translate(4.9997779,3.2105767)"
     id="g60">
    <path
       transform="scale(0.0034,-0.0034)"
       d="m 358,29 c -30,0 -74,23 -74,73 0,38 27,76 71,76 4,0 7,0 11,-1 -27,36 -69,59 -116,59 -106,0 -113,-74 -113,-188 0,-15 1,-31 1,-48 0,-17 -1,-33 -1,-48 0,-114 7,-188 113,-188 79,0 136,70 155,150 2,7 7,10 13,10 7,0 14,-5 14,-13 0,-21 -50,-175 -182,-175 C 191,-264 0,-244 0,0 0,63 18,264 250,264 365,264 424,155 424,99 424,60 394,29 358,29 Z"
       fill="currentColor"
       id="path58" />
  </g>
  <a
     style="color:inherit"
     xlink:href="textedit:///Users/tomsegarra/Documents/dev/dummies/lilypond_files/084a4336b576986a181c3415ed32b574.ly:21:12:13"
     id="a72"
     transform="translate(-2.2764221,-3.2761233)">
    <g
       transform="translate(10.7144,10.7451)"
       id="g66">
      <text
         font-family="sans-serif"
         font-size="2.224px"
         text-anchor="start"
         fill="currentColor"
         id="text64"><tspan
           id="tspan62">B</tspan></text>
    </g>
    <g
       transform="translate(12.4623,10.4451)"
       id="g70">
      <path
         transform="scale(0.0036,-0.0036)"
         d="m 29,39 -2,-64 v -11 c 0,-22 2,-43 5,-65 44,38 91,80 91,138 0,33 -13,66 -42,66 C 50,103 30,72 29,39 Z m -57,415 c 9,5 18,8 28,8 10,0 19,-3 28,-8 L 21,111 c 25,23 58,36 92,36 51,0 87,-49 87,-103 0,-79 -84,-117 -144,-169 -16,-14 -25,-41 -47,-41 -14,0 -25,13 -25,27 z"
         fill="currentColor"
         id="path68" />
    </g>
  </a>
  <g
     transform="translate(42.457478,5.0670767)"
     id="g76">
    <polygon
       stroke-linejoin="round"
       stroke-linecap="round"
       stroke-width="0.08"
       fill="currentColor"
       stroke="currentColor"
       points="0.04,0.164 0.04,-0.164 1.9907,-0.4771 1.9907,-0.1491 "
       id="polygon74" />
  </g>
  <g
     transform="translate(55.605678,5.0670767)"
     id="g80">
    <polygon
       stroke-linejoin="round"
       stroke-linecap="round"
       stroke-width="0.08"
       fill="currentColor"
       stroke="currentColor"
       points="0.04,0.164 0.04,-0.164 1.9907,-0.4771 1.9907,-0.1491 "
       id="polygon78" />
  </g>
  <a
     style="color:inherit"
     xlink:href="textedit:///Users/tomsegarra/Documents/dev/dummies/lilypond_files/084a4336b576986a181c3415ed32b574.ly:21:15:16"
     id="a88"
     transform="translate(-2.2764221,-3.2761233)">
    <g
       transform="translate(18.0927,10.7451)"
       id="g86">
      <text
         font-family="sans-serif"
         font-size="2.224px"
         text-anchor="start"
         fill="currentColor"
         id="text84"><tspan
           id="tspan82">C</tspan></text>
    </g>
  </a>
  <g
     transform="translate(0.7997779,4.0605767)"
     id="g92">
    <path
       transform="scale(0.0034,-0.0034)"
       d="m 646,2 c 0,-113 -74,-213 -180,-247 3,-34 5,-68 5,-102 0,-20 -1,-40 -2,-60 -7,-121 -91,-228 -209,-228 -108,0 -196,87 -196,196 0,58 53,104 112,104 54,0 95,-48 95,-104 0,-52 -43,-95 -95,-95 -10,0 -20,2 -29,6 26,-38 68,-63 116,-63 h 3 c 93,2 153,92 159,190 1,19 2,37 2,56 0,30 -2,60 -4,90 -5,-1 -43,-8 -88,-8 -194,0 -333,180 -333,375 0,177 130,307 246,442 -31,98 -53,170 -53,347 0,115 55,223 148,290 7,5 16,4 22,-1 68,-80 134,-243 134,-357 0,-143 -85,-255 -178,-364 21,-68 40,-137 57,-206 1,0 5,1 11,1 C 545,264 646,135 646,2 Z M 462,-202 c 66,24 111,88 111,162 0,89 -65,178 -170,190 28,-135 50,-272 59,-352 z M 75,26 c 0,-145 141,-245 263,-245 1,0 46,0 81,6 -7,65 -27,206 -61,363 -79,-8 -124,-61 -124,-119 0,-43 25,-89 80,-121 5,-5 7,-11 7,-16 0,-12 -10,-23 -22,-23 -16,0 -127,63 -127,188 0,89 58,175 161,198 -14,58 -29,116 -46,173 C 181,308 75,186 75,26 Z M 406,1042 C 307,995 244,894 244,785 c 0,-49 13,-111 38,-191 79,97 144,199 144,324 0,33 0,63 -20,124 z"
       fill="currentColor"
       id="path90" />
  </g>
  <g
     transform="translate(68.682378,5.0670767)"
     id="g96">
    <polygon
       stroke-linejoin="round"
       stroke-linecap="round"
       stroke-width="0.08"
       fill="currentColor"
       stroke="currentColor"
       points="0.04,0.164 0.04,-0.164 1.9907,-0.4771 1.9907,-0.1491 "
       id="polygon94" />
  </g>
  <a
     style="color:inherit"
     xlink:href="textedit:///Users/tomsegarra/Documents/dev/dummies/lilypond_files/084a4336b576986a181c3415ed32b574.ly:21:18:19"
     id="a104"
     transform="translate(-2.2764221,-3.2761233)">
    <g
       transform="translate(25.4709,10.7451)"
       id="g102">
      <text
         font-family="sans-serif"
         font-size="2.224px"
         text-anchor="start"
         fill="currentColor"
         id="text100"><tspan
           id="tspan98">D</tspan></text>
    </g>
  </a>
  <a
     style="color:inherit"
     xlink:href="textedit:///Users/tomsegarra/Documents/dev/dummies/lilypond_files/084a4336b576986a181c3415ed32b574.ly:21:21:22"
     id="a116"
     transform="translate(-2.2764221,-3.2761233)">
    <g
       transform="translate(32.8492,10.7451)"
       id="g110">
      <text
         font-family="sans-serif"
         font-size="2.224px"
         text-anchor="start"
         fill="currentColor"
         id="text108"><tspan
           id="tspan106">E</tspan></text>
    </g>
    <g
       transform="translate(34.4606,10.4451)"
       id="g114">
      <path
         transform="scale(0.0036,-0.0036)"
         d="m 29,39 -2,-64 v -11 c 0,-22 2,-43 5,-65 44,38 91,80 91,138 0,33 -13,66 -42,66 C 50,103 30,72 29,39 Z m -57,415 c 9,5 18,8 28,8 10,0 19,-3 28,-8 L 21,111 c 25,23 58,36 92,36 51,0 87,-49 87,-103 0,-79 -84,-117 -144,-169 -16,-14 -25,-41 -47,-41 -14,0 -25,13 -25,27 z"
         fill="currentColor"
         id="path112" />
    </g>
  </a>
  <g
     color="#ff0000"
     id="g124"
     transform="translate(-2.2764221,-3.2761233)">
    <a
       style="color:inherit"
       xlink:href="textedit:///Users/tomsegarra/Documents/dev/dummies/lilypond_files/084a4336b576986a181c3415ed32b574.ly:24:4:5"
       id="a122">
      <g
         transform="translate(39.2275,6.9117)"
         id="g120">
        <path
           transform="scale(0.0034,-0.0034)"
           d="m 215,137 c 67,0 111,-37 111,-92 0,-90 -111,-182 -215,-182 -67,0 -111,37 -111,92 0,90 111,182 215,182 z"
           fill="currentColor"
           id="path118" />
      </g>
    </a>
  </g>
  <g
     transform="translate(38.437478,3.6355767)"
     id="g128">
    <path
       transform="scale(0.0034,-0.0034)"
       d="M 0,0 C 0,31 25,56 56,56 87,56 111,31 111,0 111,-31 87,-56 56,-56 25,-56 0,-31 0,0 Z"
       fill="currentColor"
       id="path126" />
  </g>
  <g
     color="#ff0000"
     id="g134"
     transform="translate(-2.2764221,-3.2761233)">
    <g
       transform="translate(40.2732,6.4867)"
       id="g132">
      <rect
         x="-0.061700001"
         y="-2.55"
         width="0.1233"
         height="2.8225"
         ry="0.039999999"
         fill="currentColor"
         id="rect130" />
    </g>
  </g>
  <g
     color="#ff0000"
     id="g142"
     transform="translate(-2.2764221,-3.2761233)">
    <a
       style="color:inherit"
       xlink:href="textedit:///Users/tomsegarra/Documents/dev/dummies/lilypond_files/084a4336b576986a181c3415ed32b574.ly:24:9:10"
       id="a140">
      <g
         transform="translate(42.8265,6.0617)"
         id="g138">
        <path
           transform="scale(0.0034,-0.0034)"
           d="m 215,137 c 67,0 111,-37 111,-92 0,-90 -111,-182 -215,-182 -67,0 -111,37 -111,92 0,90 111,182 215,182 z"
           fill="currentColor"
           id="path136" />
      </g>
    </a>
  </g>
  <g
     color="#ff0000"
     id="g148"
     transform="translate(-2.2764221,-3.2761233)">
    <g
       transform="translate(42.8881,6.4867)"
       id="g146">
      <rect
         x="-0.061700001"
         y="-0.27250001"
         width="0.1233"
         height="2.8225"
         ry="0.039999999"
         fill="currentColor"
         id="rect144" />
    </g>
  </g>
  <g
     color="#ff0000"
     id="g154"
     transform="translate(-2.2764221,-3.2761233)">
    <g
       transform="translate(42.9498,8.9967)"
       id="g152">
      <path
         transform="scale(0.0034,-0.0034)"
         d="M 0,0 H -18 V 250 H 0 Z m 0,0 v 250 c 96,59 222,149 222,259 0,57 -15,111 -40,162 -3,17 10,29 24,29 8,0 16,-5 21,-13 25,-56 40,-116 40,-178 C 267,306 0,203 0,0 Z"
         fill="currentColor"
         id="path150" />
    </g>
  </g>
  <g
     color="#ff0000"
     id="g162"
     transform="translate(-2.2764221,-3.2761233)">
    <a
       style="color:inherit"
       xlink:href="textedit:///Users/tomsegarra/Documents/dev/dummies/lilypond_files/084a4336b576986a181c3415ed32b574.ly:24:12:13"
       id="a160">
      <g
         transform="translate(44.7339,5.6367)"
         id="g158">
        <path
           transform="scale(0.0034,-0.0034)"
           d="m 215,137 c 67,0 111,-37 111,-92 0,-90 -111,-182 -215,-182 -67,0 -111,37 -111,92 0,90 111,182 215,182 z"
           fill="currentColor"
           id="path156" />
      </g>
    </a>
  </g>
  <g
     color="#ff0000"
     id="g168"
     transform="translate(-2.2764221,-3.2761233)">
    <g
       transform="translate(44.7955,6.4867)"
       id="g166">
      <rect
         x="-0.061700001"
         y="-0.69749999"
         width="0.1233"
         height="2.5446"
         ry="0.039999999"
         fill="currentColor"
         id="rect164" />
    </g>
  </g>
  <g
     color="#ff0000"
     id="g176"
     transform="translate(-2.2764221,-3.2761233)">
    <a
       style="color:inherit"
       xlink:href="textedit:///Users/tomsegarra/Documents/dev/dummies/lilypond_files/084a4336b576986a181c3415ed32b574.ly:24:14:15"
       id="a174">
      <g
         transform="translate(46.6412,5.2117)"
         id="g172">
        <path
           transform="scale(0.0034,-0.0034)"
           d="m 215,137 c 67,0 111,-37 111,-92 0,-90 -111,-182 -215,-182 -67,0 -111,37 -111,92 0,90 111,182 215,182 z"
           fill="currentColor"
           id="path170" />
      </g>
    </a>
  </g>
  <g
     color="#ff0000"
     id="g182"
     transform="translate(-2.2764221,-3.2761233)">
    <g
       transform="translate(46.7029,6.4867)"
       id="g180">
      <rect
         x="-0.061700001"
         y="-1.1224999"
         width="0.1233"
         height="2.6754999"
         ry="0.039999999"
         fill="currentColor"
         id="rect178" />
    </g>
  </g>
  <g
     color="#ff0000"
     id="g190"
     transform="translate(-2.2764221,-3.2761233)">
    <a
       style="color:inherit"
       xlink:href="textedit:///Users/tomsegarra/Documents/dev/dummies/lilypond_files/084a4336b576986a181c3415ed32b574.ly:24:18:19"
       id="a188">
      <g
         transform="translate(48.5486,5.6367)"
         id="g186">
        <path
           transform="scale(0.0034,-0.0034)"
           d="m 215,137 c 67,0 111,-37 111,-92 0,-90 -111,-182 -215,-182 -67,0 -111,37 -111,92 0,90 111,182 215,182 z"
           fill="currentColor"
           id="path184" />
      </g>
    </a>
  </g>
  <g
     color="#ff0000"
     id="g196"
     transform="translate(-2.2764221,-3.2761233)">
    <g
       transform="translate(48.6103,6.4867)"
       id="g194">
      <rect
         x="-0.061700001"
         y="-0.69749999"
         width="0.1233"
         height="2.8225"
         ry="0.039999999"
         fill="currentColor"
         id="rect192" />
    </g>
  </g>
  <g
     color="#000000"
     id="g204"
     transform="translate(-2.2764221,-3.2761233)">
    <a
       style="color:inherit"
       xlink:href="textedit:///Users/tomsegarra/Documents/dev/dummies/lilypond_files/084a4336b576986a181c3415ed32b574.ly:27:4:5"
       id="a202">
      <g
         transform="translate(52.2328,7.7617)"
         id="g200">
        <path
           transform="scale(0.0034,-0.0034)"
           d="m 215,137 c 67,0 111,-37 111,-92 0,-90 -111,-182 -215,-182 -67,0 -111,37 -111,92 0,90 111,182 215,182 z"
           fill="currentColor"
           id="path198" />
      </g>
    </a>
  </g>
  <g
     transform="translate(51.442878,4.4855767)"
     id="g208">
    <path
       transform="scale(0.0034,-0.0034)"
       d="M 0,0 C 0,31 25,56 56,56 87,56 111,31 111,0 111,-31 87,-56 56,-56 25,-56 0,-31 0,0 Z"
       fill="currentColor"
       id="path206" />
  </g>
  <g
     color="#000000"
     id="g214"
     transform="translate(-2.2764221,-3.2761233)">
    <g
       transform="translate(53.2785,6.4867)"
       id="g212">
      <rect
         x="-0.061700001"
         y="-1.7"
         width="0.1233"
         height="2.8225"
         ry="0.039999999"
         fill="currentColor"
         id="rect210" />
    </g>
  </g>
  <g
     color="#000000"
     id="g222"
     transform="translate(-2.2764221,-3.2761233)">
    <a
       style="color:inherit"
       xlink:href="textedit:///Users/tomsegarra/Documents/dev/dummies/lilypond_files/084a4336b576986a181c3415ed32b574.ly:27:9:10"
       id="a220">
      <g
         transform="translate(55.9747,6.0617)"
         id="g218">
        <path
           transform="scale(0.0034,-0.0034)"
           d="m 215,137 c 67,0 111,-37 111,-92 0,-90 -111,-182 -215,-182 -67,0 -111,37 -111,92 0,90 111,182 215,182 z"
           fill="currentColor"
           id="path216" />
      </g>
    </a>
  </g>
  <g
     color="#000000"
     id="g228"
     transform="translate(-2.2764221,-3.2761233)">
    <g
       transform="translate(56.0363,6.4867)"
       id="g226">
      <rect
         x="-0.061700001"
         y="-0.27250001"
         width="0.1233"
         height="2.8225"
         ry="0.039999999"
         fill="currentColor"
         id="rect224" />
    </g>
  </g>
  <g
     color="#000000"
     id="g234"
     transform="translate(-2.2764221,-3.2761233)">
    <g
       transform="translate(56.098,8.9967)"
       id="g232">
      <path
         transform="scale(0.0034,-0.0034)"
         d="M 0,0 H -18 V 250 H 0 Z m 0,0 v 250 c 96,59 222,149 222,259 0,57 -15,111 -40,162 -3,17 10,29 24,29 8,0 16,-5 21,-13 25,-56 40,-116 40,-178 C 267,306 0,203 0,0 Z"
         fill="currentColor"
         id="path230" />
    </g>
  </g>
  <g
     color="#000000"
     id="g240"
     transform="translate(-2.2764221,-3.2761233)">
    <g
       transform="translate(87.0413,6.4867)"
       id="g238">
      <rect
         x="-0.061700001"
         y="-1.1224999"
         width="0.1233"
         height="2.8225"
         ry="0.039999999"
         fill="currentColor"
         id="rect236" />
    </g>
  </g>
  <g
     color="#000000"
     id="g248"
     transform="translate(-2.2764221,-3.2761233)">
    <a
       style="color:inherit"
       xlink:href="textedit:///Users/tomsegarra/Documents/dev/dummies/lilypond_files/084a4336b576986a181c3415ed32b574.ly:27:13:14"
       id="a246">
      <g
         transform="translate(57.8821,5.6367)"
         id="g244">
        <path
           transform="scale(0.0034,-0.0034)"
           d="m 215,137 c 67,0 111,-37 111,-92 0,-90 -111,-182 -215,-182 -67,0 -111,37 -111,92 0,90 111,182 215,182 z"
           fill="currentColor"
           id="path242" />
      </g>
    </a>
  </g>
  <g
     color="#000000"
     id="g254"
     transform="translate(-2.2764221,-3.2761233)">
    <g
       transform="translate(57.9437,6.4867)"
       id="g252">
      <rect
         x="-0.061700001"
         y="-0.69749999"
         width="0.1233"
         height="2.5446"
         ry="0.039999999"
         fill="currentColor"
         id="rect250" />
    </g>
  </g>
  <g
     color="#000000"
     id="g262"
     transform="translate(-2.2764221,-3.2761233)">
    <a
       style="color:inherit"
       xlink:href="textedit:///Users/tomsegarra/Documents/dev/dummies/lilypond_files/084a4336b576986a181c3415ed32b574.ly:33:12:13"
       id="a260">
      <g
         transform="translate(86.9796,5.2117)"
         id="g258">
        <path
           transform="scale(0.0034,-0.0034)"
           d="m 215,137 c 67,0 111,-37 111,-92 0,-90 -111,-182 -215,-182 -67,0 -111,37 -111,92 0,90 111,182 215,182 z"
           fill="currentColor"
           id="path256" />
      </g>
    </a>
  </g>
  <g
     color="#000000"
     id="g270"
     transform="translate(-2.2764221,-3.2761233)">
    <a
       style="color:inherit"
       xlink:href="textedit:///Users/tomsegarra/Documents/dev/dummies/lilypond_files/084a4336b576986a181c3415ed32b574.ly:27:15:16"
       id="a268">
      <g
         transform="translate(59.7894,5.2117)"
         id="g266">
        <path
           transform="scale(0.0034,-0.0034)"
           d="m 215,137 c 67,0 111,-37 111,-92 0,-90 -111,-182 -215,-182 -67,0 -111,37 -111,92 0,90 111,182 215,182 z"
           fill="currentColor"
           id="path264" />
      </g>
    </a>
  </g>
  <g
     color="#000000"
     id="g276"
     transform="translate(-2.2764221,-3.2761233)">
    <g
       transform="translate(59.8511,6.4867)"
       id="g274">
      <rect
         x="-0.061700001"
         y="-1.1224999"
         width="0.1233"
         height="2.6754999"
         ry="0.039999999"
         fill="currentColor"
         id="rect272" />
    </g>
  </g>
  <g
     color="#000000"
     id="g284"
     transform="translate(-2.2764221,-3.2761233)">
    <a
       style="color:inherit"
       xlink:href="textedit:///Users/tomsegarra/Documents/dev/dummies/lilypond_files/084a4336b576986a181c3415ed32b574.ly:27:19:20"
       id="a282">
      <g
         transform="translate(61.6968,5.6367)"
         id="g280">
        <path
           transform="scale(0.0034,-0.0034)"
           d="m 215,137 c 67,0 111,-37 111,-92 0,-90 -111,-182 -215,-182 -67,0 -111,37 -111,92 0,90 111,182 215,182 z"
           fill="currentColor"
           id="path278" />
      </g>
    </a>
  </g>
  <g
     color="#000000"
     id="g290"
     transform="translate(-2.2764221,-3.2761233)">
    <g
       transform="translate(61.7585,6.4867)"
       id="g288">
      <rect
         x="-0.061700001"
         y="-0.69749999"
         width="0.1233"
         height="2.8225"
         ry="0.039999999"
         fill="currentColor"
         id="rect286" />
    </g>
  </g>
  <g
     color="#000000"
     id="g298"
     transform="translate(-2.2764221,-3.2761233)">
    <a
       style="color:inherit"
       xlink:href="textedit:///Users/tomsegarra/Documents/dev/dummies/lilypond_files/084a4336b576986a181c3415ed32b574.ly:27:24:25"
       id="a296">
      <g
         transform="translate(65.381,7.3367)"
         id="g294">
        <path
           transform="scale(0.0034,-0.0034)"
           d="m 215,137 c 67,0 111,-37 111,-92 0,-90 -111,-182 -215,-182 -67,0 -111,37 -111,92 0,90 111,182 215,182 z"
           fill="currentColor"
           id="path292" />
      </g>
    </a>
  </g>
  <g
     transform="translate(64.591078,3.6355767)"
     id="g302">
    <path
       transform="scale(0.0034,-0.0034)"
       d="M 0,0 C 0,31 25,56 56,56 87,56 111,31 111,0 111,-31 87,-56 56,-56 25,-56 0,-31 0,0 Z"
       fill="currentColor"
       id="path300" />
  </g>
  <g
     color="#000000"
     id="g308"
     transform="translate(-2.2764221,-3.2761233)">
    <g
       transform="translate(66.4267,6.4867)"
       id="g306">
      <rect
         x="-0.061700001"
         y="-2.125"
         width="0.1233"
         height="2.8225"
         ry="0.039999999"
         fill="currentColor"
         id="rect304" />
    </g>
  </g>
  <g
     color="#000000"
     id="g314"
     transform="translate(-2.2764221,-3.2761233)">
    <g
       transform="translate(84.2359,6.4867)"
       id="g312">
      <rect
         x="-0.061700001"
         y="-0.69749999"
         width="0.1233"
         height="2.8225"
         ry="0.039999999"
         fill="currentColor"
         id="rect310" />
    </g>
  </g>
  <g
     color="#ff0000"
     id="g322"
     transform="translate(-2.2764221,-3.2761233)">
    <a
       style="color:inherit"
       xlink:href="textedit:///Users/tomsegarra/Documents/dev/dummies/lilypond_files/084a4336b576986a181c3415ed32b574.ly:30:4:5"
       id="a320">
      <g
         transform="translate(69.0514,6.0617)"
         id="g318">
        <path
           transform="scale(0.0034,-0.0034)"
           d="m 215,137 c 67,0 111,-37 111,-92 0,-90 -111,-182 -215,-182 -67,0 -111,37 -111,92 0,90 111,182 215,182 z"
           fill="currentColor"
           id="path316" />
      </g>
    </a>
  </g>
  <g
     color="#ff0000"
     id="g328"
     transform="translate(-2.2764221,-3.2761233)">
    <g
       transform="translate(69.1131,6.4867)"
       id="g326">
      <rect
         x="-0.061700001"
         y="-0.27250001"
         width="0.1233"
         height="2.8225"
         ry="0.039999999"
         fill="currentColor"
         id="rect324" />
    </g>
  </g>
  <g
     color="#ff0000"
     id="g334"
     transform="translate(-2.2764221,-3.2761233)">
    <g
       transform="translate(69.1747,8.9967)"
       id="g332">
      <path
         transform="scale(0.0034,-0.0034)"
         d="M 0,0 H -18 V 250 H 0 Z m 0,0 v 250 c 96,59 222,149 222,259 0,57 -15,111 -40,162 -3,17 10,29 24,29 8,0 16,-5 21,-13 25,-56 40,-116 40,-178 C 267,306 0,203 0,0 Z"
         fill="currentColor"
         id="path330" />
    </g>
  </g>
  <g
     color="#000000"
     id="g342"
     transform="translate(-2.2764221,-3.2761233)">
    <a
       style="color:inherit"
       xlink:href="textedit:///Users/tomsegarra/Documents/dev/dummies/lilypond_files/084a4336b576986a181c3415ed32b574.ly:33:10:11"
       id="a340">
      <g
         transform="translate(84.1742,5.6367)"
         id="g338">
        <path
           transform="scale(0.0034,-0.0034)"
           d="m 215,137 c 67,0 111,-37 111,-92 0,-90 -111,-182 -215,-182 -67,0 -111,37 -111,92 0,90 111,182 215,182 z"
           fill="currentColor"
           id="path336" />
      </g>
    </a>
  </g>
  <g
     color="#ff0000"
     id="g350"
     transform="translate(-2.2764221,-3.2761233)">
    <a
       style="color:inherit"
       xlink:href="textedit:///Users/tomsegarra/Documents/dev/dummies/lilypond_files/084a4336b576986a181c3415ed32b574.ly:30:7:8"
       id="a348">
      <g
         transform="translate(70.9588,5.6367)"
         id="g346">
        <path
           transform="scale(0.0034,-0.0034)"
           d="m 215,137 c 67,0 111,-37 111,-92 0,-90 -111,-182 -215,-182 -67,0 -111,37 -111,92 0,90 111,182 215,182 z"
           fill="currentColor"
           id="path344" />
      </g>
    </a>
  </g>
  <g
     color="#ff0000"
     id="g356"
     transform="translate(-2.2764221,-3.2761233)">
    <g
       transform="translate(71.0205,6.4867)"
       id="g354">
      <rect
         x="-0.061700001"
         y="-0.69749999"
         width="0.1233"
         height="2.5446"
         ry="0.039999999"
         fill="currentColor"
         id="rect352" />
    </g>
  </g>
  <g
     color="#ff0000"
     id="g364"
     transform="translate(-2.2764221,-3.2761233)">
    <a
       style="color:inherit"
       xlink:href="textedit:///Users/tomsegarra/Documents/dev/dummies/lilypond_files/084a4336b576986a181c3415ed32b574.ly:30:9:10"
       id="a362">
      <g
         transform="translate(72.8662,5.2117)"
         id="g360">
        <path
           transform="scale(0.0034,-0.0034)"
           d="m 215,137 c 67,0 111,-37 111,-92 0,-90 -111,-182 -215,-182 -67,0 -111,37 -111,92 0,90 111,182 215,182 z"
           fill="currentColor"
           id="path358" />
      </g>
    </a>
  </g>
  <g
     color="#ff0000"
     id="g370"
     transform="translate(-2.2764221,-3.2761233)">
    <g
       transform="translate(72.9279,6.4867)"
       id="g368">
      <rect
         x="-0.061700001"
         y="-1.1224999"
         width="0.1233"
         height="2.6754999"
         ry="0.039999999"
         fill="currentColor"
         id="rect366" />
    </g>
  </g>
  <g
     color="#ff0000"
     id="g378"
     transform="translate(-2.2764221,-3.2761233)">
    <a
       style="color:inherit"
       xlink:href="textedit:///Users/tomsegarra/Documents/dev/dummies/lilypond_files/084a4336b576986a181c3415ed32b574.ly:30:13:14"
       id="a376">
      <g
         transform="translate(74.7736,5.6367)"
         id="g374">
        <path
           transform="scale(0.0034,-0.0034)"
           d="m 215,137 c 67,0 111,-37 111,-92 0,-90 -111,-182 -215,-182 -67,0 -111,37 -111,92 0,90 111,182 215,182 z"
           fill="currentColor"
           id="path372" />
      </g>
    </a>
  </g>
  <g
     color="#ff0000"
     id="g384"
     transform="translate(-2.2764221,-3.2761233)">
    <g
       transform="translate(74.8352,6.4867)"
       id="g382">
      <rect
         x="-0.061700001"
         y="-0.69749999"
         width="0.1233"
         height="2.8225"
         ry="0.039999999"
         fill="currentColor"
         id="rect380" />
    </g>
  </g>
  <g
     color="#000000"
     id="g390"
     transform="translate(-2.2764221,-3.2761233)">
    <g
       transform="translate(81.4304,6.4867)"
       id="g388">
      <rect
         x="-0.061700001"
         y="-0.27250001"
         width="0.1233"
         height="2.8225"
         ry="0.039999999"
         fill="currentColor"
         id="rect386" />
    </g>
  </g>
  <g
     color="#000000"
     id="g398"
     transform="translate(-2.2764221,-3.2761233)">
    <a
       style="color:inherit"
       xlink:href="textedit:///Users/tomsegarra/Documents/dev/dummies/lilypond_files/084a4336b576986a181c3415ed32b574.ly:33:4:5"
       id="a396">
      <g
         transform="translate(78.5633,6.4867)"
         id="g394">
        <path
           transform="scale(0.0034,-0.0034)"
           d="m 215,137 c 67,0 111,-37 111,-92 0,-90 -111,-182 -215,-182 -67,0 -111,37 -111,92 0,90 111,182 215,182 z"
           fill="currentColor"
           id="path392" />
      </g>
    </a>
  </g>
  <g
     color="#000000"
     id="g404"
     transform="translate(-2.2764221,-3.2761233)">
    <g
       transform="translate(78.625,6.4867)"
       id="g402">
      <rect
         x="-0.061700001"
         y="0.1525"
         width="0.1233"
         height="2.6809001"
         ry="0.039999999"
         fill="currentColor"
         id="rect400" />
    </g>
  </g>
  <g
     color="#000000"
     id="g412"
     transform="translate(-2.2764221,-3.2761233)">
    <a
       style="color:inherit"
       xlink:href="textedit:///Users/tomsegarra/Documents/dev/dummies/lilypond_files/084a4336b576986a181c3415ed32b574.ly:33:8:9"
       id="a410">
      <g
         transform="translate(81.3688,6.0617)"
         id="g408">
        <path
           transform="scale(0.0034,-0.0034)"
           d="m 215,137 c 67,0 111,-37 111,-92 0,-90 -111,-182 -215,-182 -67,0 -111,37 -111,92 0,90 111,182 215,182 z"
           fill="currentColor"
           id="path406" />
      </g>
    </a>
  </g>
</svg>
