<svg xmlns="http://www.w3.org/2000/svg" xmlns:xlink="http://www.w3.org/1999/xlink" version="1.2" width="130.43mm" height="297.00mm" viewBox="0 0 74.2198 169.0094">
<style type="text/css">
<![CDATA[
tspan { white-space: pre; }
]]>
</style>
<!-- Page: 1/1 -->
<g transform="translate(71.7634, 9.4165)">
<rect x="0.0000" y="-1.7000" width="0.1802" height="3.4000" ry="0.0000" fill="currentColor"/>
</g>
<g transform="translate(2.2762, 6.8665)">
<rect x="44.9113" y="-0.0899" width="1.6611" height="0.1799" ry="0.0899" fill="currentColor"/>
</g>
<g transform="translate(2.2762, 6.8665)">
<rect x="42.0123" y="-0.0899" width="1.6611" height="0.1799" ry="0.0899" fill="currentColor"/>
</g>
<g transform="translate(2.2762, 6.8665)">
<rect x="39.4892" y="-0.0899" width="1.6611" height="0.1799" ry="0.0899" fill="currentColor"/>
</g>
<g transform="translate(2.2762, 6.8665)">
<rect x="36.6303" y="-0.0899" width="1.6611" height="0.1799" ry="0.0899" fill="currentColor"/>
</g>
<g transform="translate(2.2762, 6.8665)">
<rect x="33.7715" y="-0.0899" width="1.6611" height="0.1799" ry="0.0899" fill="currentColor"/>
</g>
<g transform="translate(2.2762, 6.8665)">
<rect x="31.4641" y="-0.0899" width="1.6611" height="0.1799" ry="0.0899" fill="currentColor"/>
</g>
<g transform="translate(2.2762, 6.8665)">
<rect x="29.1567" y="-0.0899" width="1.6611" height="0.1799" ry="0.0899" fill="currentColor"/>
</g>
<g transform="translate(2.2762, 6.8665)">
<rect x="26.8493" y="-0.0899" width="1.6611" height="0.1799" ry="0.0899" fill="currentColor"/>
</g>
<g transform="translate(2.2762, 6.8665)">
<rect x="23.8215" y="-0.0899" width="1.6611" height="0.1799" ry="0.0899" fill="currentColor"/>
</g>
<g transform="translate(2.2762, 6.8665)">
<rect x="20.7424" y="-0.0899" width="1.6611" height="0.1799" ry="0.0899" fill="currentColor"/>
</g>
<g transform="translate(2.2762, 6.8665)">
<rect x="17.3647" y="-0.0899" width="1.6611" height="0.1799" ry="0.0899" fill="currentColor"/>
</g>
<g transform="translate(2.2762, 11.1165)">
<line stroke-linejoin="round" stroke-linecap="round" stroke-width="0.0949" stroke="currentColor" x1="0.0474" y1="0" x2="69.6200" y2="0"/>
</g>
<g transform="translate(2.2762, 10.2665)">
<line stroke-linejoin="round" stroke-linecap="round" stroke-width="0.0949" stroke="currentColor" x1="0.0474" y1="0" x2="69.6200" y2="0"/>
</g>
<g transform="translate(2.2762, 9.4165)">
<line stroke-linejoin="round" stroke-linecap="round" stroke-width="0.0949" stroke="currentColor" x1="0.0474" y1="0" x2="69.6200" y2="0"/>
</g>
<g transform="translate(2.2762, 8.5665)">
<line stroke-linejoin="round" stroke-linecap="round" stroke-width="0.0949" stroke="currentColor" x1="0.0474" y1="0" x2="69.6200" y2="0"/>
</g>
<g transform="translate(2.2762, 7.7165)">
<line stroke-linejoin="round" stroke-linecap="round" stroke-width="0.0949" stroke="currentColor" x1="0.0474" y1="0" x2="69.6200" y2="0"/>
</g>
<g transform="translate(46.1727, 9.4165)">
<rect x="0.0000" y="-1.7000" width="0.1802" height="3.4000" ry="0.0000" fill="currentColor"/>
</g>
<g transform="translate(18.0384, 9.4165)">
<rect x="0.0000" y="-1.7000" width="0.1802" height="3.4000" ry="0.0000" fill="currentColor"/>
</g>
<a style="color:inherit;" xlink:href="textedit:///Users/tomsegarra/Documents/dev/dummies/lilypond_files/146a68fce73a4c462677c890934a29e0.ly:20:12:13">
<g transform="translate(13.9694, 5.3859)">
<text font-family="sans-serif" font-size="2.2240" text-anchor="start" fill="currentColor">
<tspan>N.C.</tspan>
</text>
</g>
</a>
<a style="color:inherit;" xlink:href="textedit:///Users/tomsegarra/Documents/dev/dummies/lilypond_files/146a68fce73a4c462677c890934a29e0.ly:24:15:16">
<g transform="translate(13.9694, 7.2915)">
<path transform="scale(0.0034, -0.0034)" d="M215 137c67 0 111 -37 111 -92c0 -90 -111 -182 -215 -182c-67 0 -111 37 -111 92c0 90 111 182 215 182z" fill="currentColor"/>
</g>
</a>
<g transform="translate(3.0762, 10.2665)">
<path transform="scale(0.0034, -0.0034)" d="M646 2c0 -113 -74 -213 -180 -247c3 -34 5 -68 5 -102c0 -20 -1 -40 -2 -60c-7 -121 -91 -228 -209 -228c-108 0 -196 87 -196 196c0 58 53 104 112 104c54 0 95 -48 95 -104c0 -52 -43 -95 -95 -95c-10 0 -20 2 -29 6c26 -38 68 -63 116 -63h3c93 2 153 92 159 190
c1 19 2 37 2 56c0 30 -2 60 -4 90c-5 -1 -43 -8 -88 -8c-194 0 -333 180 -333 375c0 177 130 307 246 442c-31 98 -53 170 -53 347c0 115 55 223 148 290c7 5 16 4 22 -1c68 -80 134 -243 134 -357c0 -143 -85 -255 -178 -364c21 -68 40 -137 57 -206c1 0 5 1 11 1
c156 0 257 -129 257 -262zM462 -202c66 24 111 88 111 162c0 89 -65 178 -170 190c28 -135 50 -272 59 -352zM75 26c0 -145 141 -245 263 -245c1 0 46 0 81 6c-7 65 -27 206 -61 363c-79 -8 -124 -61 -124 -119c0 -43 25 -89 80 -121c5 -5 7 -11 7 -16
c0 -12 -10 -23 -22 -23c-16 0 -127 63 -127 188c0 89 58 175 161 198c-14 58 -29 116 -46 173c-106 -122 -212 -244 -212 -404zM406 1042c-99 -47 -162 -148 -162 -257c0 -49 13 -111 38 -191c79 97 144 199 144 324c0 33 0 63 -20 124z" fill="currentColor"/>
</g>
<a style="color:inherit;" xlink:href="textedit:///Users/tomsegarra/Documents/dev/dummies/lilypond_files/146a68fce73a4c462677c890934a29e0.ly:23:1:9">
<g transform="translate(6.5762, 7.7165)">
<path transform="scale(0.0034, -0.0034)" d="M217 -311c0 -11 -8 -19 -19 -19s-20 8 -20 19v142l-81 -30v-156c0 -11 -9 -20 -20 -20s-19 9 -19 20v142l-28 -11c-3 -1 -5 -1 -8 -1c-12 0 -22 10 -22 23v57c0 9 6 18 15 21l43 16v157l-28 -10c-3 -1 -5 -1 -8 -1c-12 0 -22 9 -22 22v57c0 9 6 18 15 21l43 16v157
c0 11 8 19 19 19s20 -8 20 -19v-142l81 30v156c0 11 9 20 20 20s19 -9 19 -20v-142l28 11c3 1 5 1 8 1c12 0 22 -10 22 -23v-57c0 -9 -6 -18 -15 -21l-43 -16v-157l28 10c3 1 5 1 8 1c12 0 22 -9 22 -22v-57c0 -9 -6 -18 -15 -21l-43 -16v-157zM97 64v-158l81 30v158z" fill="currentColor"/>
</g>
<g transform="translate(7.5112, 8.9915)">
<path transform="scale(0.0034, -0.0034)" d="M217 -311c0 -11 -8 -19 -19 -19s-20 8 -20 19v142l-81 -30v-156c0 -11 -9 -20 -20 -20s-19 9 -19 20v142l-28 -11c-3 -1 -5 -1 -8 -1c-12 0 -22 10 -22 23v57c0 9 6 18 15 21l43 16v157l-28 -10c-3 -1 -5 -1 -8 -1c-12 0 -22 9 -22 22v57c0 9 6 18 15 21l43 16v157
c0 11 8 19 19 19s20 -8 20 -19v-142l81 30v156c0 11 9 20 20 20s19 -9 19 -20v-142l28 11c3 1 5 1 8 1c12 0 22 -10 22 -23v-57c0 -9 -6 -18 -15 -21l-43 -16v-157l28 10c3 1 5 1 8 1c12 0 22 -9 22 -22v-57c0 -9 -6 -18 -15 -21l-43 -16v-157zM97 64v-158l81 30v158z" fill="currentColor"/>
</g>
<g transform="translate(8.4462, 7.2915)">
<path transform="scale(0.0034, -0.0034)" d="M217 -311c0 -11 -8 -19 -19 -19s-20 8 -20 19v142l-81 -30v-156c0 -11 -9 -20 -20 -20s-19 9 -19 20v142l-28 -11c-3 -1 -5 -1 -8 -1c-12 0 -22 10 -22 23v57c0 9 6 18 15 21l43 16v157l-28 -10c-3 -1 -5 -1 -8 -1c-12 0 -22 9 -22 22v57c0 9 6 18 15 21l43 16v157
c0 11 8 19 19 19s20 -8 20 -19v-142l81 30v156c0 11 9 20 20 20s19 -9 19 -20v-142l28 11c3 1 5 1 8 1c12 0 22 -10 22 -23v-57c0 -9 -6 -18 -15 -21l-43 -16v-157l28 10c3 1 5 1 8 1c12 0 22 -9 22 -22v-57c0 -9 -6 -18 -15 -21l-43 -16v-157zM97 64v-158l81 30v158z" fill="currentColor"/>
</g>
</a>
<g transform="translate(10.5312, 9.4165)">
<path transform="scale(0.0034, -0.0034)" d="M358 29c-30 0 -74 23 -74 73c0 38 27 76 71 76c4 0 7 0 11 -1c-27 36 -69 59 -116 59c-106 0 -113 -74 -113 -188c0 -15 1 -31 1 -48s-1 -33 -1 -48c0 -114 7 -188 113 -188c79 0 136 70 155 150c2 7 7 10 13 10c7 0 14 -5 14 -13c0 -21 -50 -175 -182 -175
c-59 0 -250 20 -250 264c0 63 18 264 250 264c115 0 174 -109 174 -165c0 -39 -30 -70 -66 -70z" fill="currentColor"/>
</g>
<a style="color:inherit;" xlink:href="textedit:///Users/tomsegarra/Documents/dev/dummies/lilypond_files/146a68fce73a4c462677c890934a29e0.ly:31:15:16">
<g transform="translate(13.5329, 14.9165)">
<text font-family="serif" font-size="2.0989" text-anchor="start" fill="currentColor">
<tspan>he</tspan>
</text>
</g>
</a>
<g transform="translate(14.0311, 9.4165)">
<rect x="-0.0617" y="-1.9725" width="0.1233" height="2.8225" ry="0.0400" fill="currentColor"/>
</g>
<g transform="translate(14.0927, 10.2265)">
<path transform="scale(0.0034, -0.0034)" d="M0 0h-18v250h18v-250zM0 0v250c96 59 222 149 222 259c0 57 -15 111 -40 162c-3 17 10 29 24 29c8 0 16 -5 21 -13c25 -56 40 -116 40 -178c0 -203 -267 -306 -267 -509z" fill="currentColor"/>
</g>
<a style="color:inherit;" xlink:href="textedit:///Users/tomsegarra/Documents/dev/dummies/lilypond_files/146a68fce73a4c462677c890934a29e0.ly:20:15:16">
<g transform="translate(19.9178, 5.3859)">
<text font-family="sans-serif" font-size="2.2240" text-anchor="start" fill="currentColor">
<tspan>A</tspan>
</text>
</g>
</a>
<a style="color:inherit;" xlink:href="textedit:///Users/tomsegarra/Documents/dev/dummies/lilypond_files/146a68fce73a4c462677c890934a29e0.ly:25:4:5">
<g transform="translate(19.9178, 6.8665)">
<path transform="scale(0.0034, -0.0034)" d="M215 137c67 0 111 -37 111 -92c0 -90 -111 -182 -215 -182c-67 0 -111 37 -111 92c0 90 111 182 215 182z" fill="currentColor"/>
</g>
</a>
<a style="color:inherit;" xlink:href="textedit:///Users/tomsegarra/Documents/dev/dummies/lilypond_files/146a68fce73a4c462677c890934a29e0.ly:31:18:19">
<g transform="translate(18.4741, 14.9165)">
<text font-family="serif" font-size="2.0989" text-anchor="start" fill="currentColor">
<tspan>shou</tspan>
</text>
</g>
</a>
<g transform="translate(19.9794, 9.4165)">
<rect x="-0.0617" y="-2.3975" width="0.1233" height="2.3975" ry="0.0400" fill="currentColor"/>
</g>
<g transform="translate(25.3362, 8.7231)">
<polygon stroke-linejoin="round" stroke-linecap="round" stroke-width="0.0800" fill="currentColor" stroke="currentColor" points="1.1217 -0.1640 1.1217 0.1640 0.0400 0.1640 0.0400 -0.1640"/>
</g>
<g transform="translate(19.9178, 8.7231)">
<polygon stroke-linejoin="round" stroke-linecap="round" stroke-width="0.0800" fill="currentColor" stroke="currentColor" points="1.1217 -0.1640 1.1217 0.1640 0.0400 0.1640 0.0400 -0.1640"/>
</g>
<g transform="translate(19.9178, 9.4165)">
<polygon stroke-linejoin="round" stroke-linecap="round" stroke-width="0.0800" fill="currentColor" stroke="currentColor" points="6.5401 -0.1640 6.5401 0.1640 0.0400 0.1640 0.0400 -0.1640"/>
</g>
<a style="color:inherit;" xlink:href="textedit:///Users/tomsegarra/Documents/dev/dummies/lilypond_files/146a68fce73a4c462677c890934a29e0.ly:25:41:42">
<g transform="translate(44.5653, 6.8665)">
<path transform="scale(0.0034, -0.0034)" d="M215 137c67 0 111 -37 111 -92c0 -90 -111 -182 -215 -182c-67 0 -111 37 -111 92c0 90 111 182 215 182z" fill="currentColor"/>
</g>
</a>
<a style="color:inherit;" xlink:href="textedit:///Users/tomsegarra/Documents/dev/dummies/lilypond_files/146a68fce73a4c462677c890934a29e0.ly:31:52:53">
<g transform="translate(44.5653, 14.9165)">
<text font-family="serif" font-size="2.0989" text-anchor="start" fill="currentColor">
<tspan>he</tspan>
</text>
</g>
</a>
<g transform="translate(44.6270, 9.4165)">
<rect x="-0.0617" y="-2.3975" width="0.1233" height="2.3958" ry="0.0400" fill="currentColor"/>
</g>
<a style="color:inherit;" xlink:href="textedit:///Users/tomsegarra/Documents/dev/dummies/lilypond_files/146a68fce73a4c462677c890934a29e0.ly:25:22:23">
<g transform="translate(31.7097, 9.4165)">
<path stroke-width="0.0759" stroke-linejoin="round" stroke-linecap="round" stroke="currentColor" fill="currentColor" d="M0.7537 -3.2250C1.2242 -3.7812 2.1905 -3.7812 2.6611 -3.2250L2.6611 -3.2250C2.1905 -3.6674 1.2242 -3.6674 0.7537 -3.2250z"/>
</g>
</a>
<a style="color:inherit;" xlink:href="textedit:///Users/tomsegarra/Documents/dev/dummies/lilypond_files/146a68fce73a4c462677c890934a29e0.ly:20:18:19">
<g transform="translate(47.4644, 5.3859)">
<text font-family="sans-serif" font-size="2.2240" text-anchor="start" fill="currentColor">
<tspan>D</tspan>
</text>
</g>
<g transform="translate(49.1715, 4.1967)">
<polygon stroke-linejoin="round" stroke-linecap="round" stroke-width="0.1000" fill="none" stroke="currentColor" points="0.0000 -0.0000 1.0703 -0.0000 0.5351 -0.9204"/>
</g>
</a>
<a style="color:inherit;" xlink:href="textedit:///Users/tomsegarra/Documents/dev/dummies/lilypond_files/146a68fce73a4c462677c890934a29e0.ly:26:4:5">
<g transform="translate(47.4644, 6.8665)">
<path transform="scale(0.0034, -0.0034)" d="M215 137c67 0 111 -37 111 -92c0 -90 -111 -182 -215 -182c-67 0 -111 37 -111 92c0 90 111 182 215 182z" fill="currentColor"/>
</g>
</a>
<g transform="translate(47.5260, 9.4165)">
<rect x="-0.0617" y="-2.3975" width="0.1233" height="2.5604" ry="0.0400" fill="currentColor"/>
</g>
<a style="color:inherit;" xlink:href="textedit:///Users/tomsegarra/Documents/dev/dummies/lilypond_files/146a68fce73a4c462677c890934a29e0.ly:26:7:8">
<g transform="translate(49.7718, 7.2915)">
<path transform="scale(0.0034, -0.0034)" d="M215 137c67 0 111 -37 111 -92c0 -90 -111 -182 -215 -182c-67 0 -111 37 -111 92c0 90 111 182 215 182z" fill="currentColor"/>
</g>
</a>
<a style="color:inherit;" xlink:href="textedit:///Users/tomsegarra/Documents/dev/dummies/lilypond_files/146a68fce73a4c462677c890934a29e0.ly:31:55:56">
<g transform="translate(49.7718, 14.9165)">
<text font-family="serif" font-size="2.0989" text-anchor="start" fill="currentColor">
<tspan>stum</tspan>
</text>
</g>
</a>
<g transform="translate(49.8334, 9.4165)">
<rect x="-0.0617" y="-1.9725" width="0.1233" height="2.3709" ry="0.0400" fill="currentColor"/>
</g>
<g transform="translate(29.4024, 9.4165)">
<polygon stroke-linejoin="round" stroke-linecap="round" stroke-width="0.0800" fill="currentColor" stroke="currentColor" points="2.3907 -0.1640 2.3907 0.1640 0.0400 0.1640 0.0400 -0.1640"/>
</g>
<a style="color:inherit;" xlink:href="textedit:///Users/tomsegarra/Documents/dev/dummies/lilypond_files/146a68fce73a4c462677c890934a29e0.ly:26:14:15">
<g transform="translate(52.0791, 7.2915)">
<path transform="scale(0.0034, -0.0034)" d="M215 137c67 0 111 -37 111 -92c0 -90 -111 -182 -215 -182c-67 0 -111 37 -111 92c0 90 111 182 215 182z" fill="currentColor"/>
</g>
</a>
<g transform="translate(52.1408, 9.4165)">
<rect x="-0.0617" y="-1.9725" width="0.1233" height="2.6063" ry="0.0400" fill="currentColor"/>
</g>
<a style="color:inherit;" xlink:href="textedit:///Users/tomsegarra/Documents/dev/dummies/lilypond_files/146a68fce73a4c462677c890934a29e0.ly:26:16:17">
<g transform="translate(54.1365, 8.1415)">
<path transform="scale(0.0034, -0.0034)" d="M215 137c67 0 111 -37 111 -92c0 -90 -111 -182 -215 -182c-67 0 -111 37 -111 92c0 90 111 182 215 182z" fill="currentColor"/>
</g>
</a>
<a style="color:inherit;" xlink:href="textedit:///Users/tomsegarra/Documents/dev/dummies/lilypond_files/146a68fce73a4c462677c890934a29e0.ly:31:63:64">
<g transform="translate(54.1365, 14.9165)">
<text font-family="serif" font-size="2.0989" text-anchor="start" fill="currentColor">
<tspan>bled</tspan>
</text>
</g>
</a>
<g transform="translate(54.1982, 9.4165)">
<rect x="-0.0617" y="-1.1225" width="0.1233" height="1.9663" ry="0.0400" fill="currentColor"/>
</g>
<a style="color:inherit;" xlink:href="textedit:///Users/tomsegarra/Documents/dev/dummies/lilypond_files/146a68fce73a4c462677c890934a29e0.ly:25:30:31">
<g transform="translate(36.3245, 9.4165)">
<path stroke-width="0.0759" stroke-linejoin="round" stroke-linecap="round" stroke="currentColor" fill="currentColor" d="M0.7537 -3.8250C1.3216 -4.4612 2.6446 -4.4612 3.2126 -3.8250L3.2126 -3.8250C2.6446 -4.3474 1.3216 -4.3474 0.7537 -3.8250z"/>
</g>
</a>
<a style="color:inherit;" xlink:href="textedit:///Users/tomsegarra/Documents/dev/dummies/lilypond_files/146a68fce73a4c462677c890934a29e0.ly:26:22:23">
<g transform="translate(57.5332, 8.1415)">
<path transform="scale(0.0034, -0.0034)" d="M215 137c67 0 111 -37 111 -92c0 -90 -111 -182 -215 -182c-67 0 -111 37 -111 92c0 90 111 182 215 182z" fill="currentColor"/>
</g>
</a>
<g transform="translate(57.5948, 9.4165)">
<rect x="-0.0617" y="-1.1225" width="0.1233" height="2.6660" ry="0.0400" fill="currentColor"/>
</g>
<g color="red">
<a style="color:inherit;" xlink:href="textedit:///Users/tomsegarra/Documents/dev/dummies/lilypond_files/146a68fce73a4c462677c890934a29e0.ly:29:4:5">
<g transform="translate(60.9298, 8.1415)">
<path transform="scale(0.0034, -0.0034)" d="M215 137c67 0 111 -37 111 -92c0 -90 -111 -182 -215 -182c-67 0 -111 37 -111 92c0 90 111 182 215 182z" fill="currentColor"/>
</g>
</a>
</g>
<a style="color:inherit;" xlink:href="textedit:///Users/tomsegarra/Documents/dev/dummies/lilypond_files/146a68fce73a4c462677c890934a29e0.ly:31:68:69">
<g transform="translate(58.2057, 14.9165)">
<text font-family="serif" font-size="2.0989" text-anchor="start" fill="currentColor">
<tspan>through</tspan>
</text>
</g>
</a>
<g color="red">
<g transform="translate(60.9914, 9.4165)">
<rect x="-0.0617" y="-1.1225" width="0.1233" height="2.6660" ry="0.0400" fill="currentColor"/>
</g>
</g>
<g color="red">
<a style="color:inherit;" xlink:href="textedit:///Users/tomsegarra/Documents/dev/dummies/lilypond_files/146a68fce73a4c462677c890934a29e0.ly:29:6:7">
<g transform="translate(65.9379, 8.9915)">
<path transform="scale(0.0034, -0.0034)" d="M215 137c67 0 111 -37 111 -92c0 -90 -111 -182 -215 -182c-67 0 -111 37 -111 92c0 90 111 182 215 182z" fill="currentColor"/>
</g>
</a>
</g>
<a style="color:inherit;" xlink:href="textedit:///Users/tomsegarra/Documents/dev/dummies/lilypond_files/146a68fce73a4c462677c890934a29e0.ly:31:76:77">
<g transform="translate(65.2112, 14.9165)">
<text font-family="serif" font-size="2.0989" text-anchor="start" fill="currentColor">
<tspan>the</tspan>
</text>
</g>
</a>
<g color="red">
<g transform="translate(65.9996, 9.4165)">
<rect x="-0.0617" y="-0.2725" width="0.1233" height="1.8160" ry="0.0400" fill="currentColor"/>
</g>
</g>
<g transform="translate(34.0171, 9.5731)">
<polygon stroke-linejoin="round" stroke-linecap="round" stroke-width="0.0800" fill="currentColor" stroke="currentColor" points="2.3907 -0.3206 2.3907 0.0074 0.0400 0.1640 0.0400 -0.1640"/>
</g>
<g color="red">
<a style="color:inherit;" xlink:href="textedit:///Users/tomsegarra/Documents/dev/dummies/lilypond_files/146a68fce73a4c462677c890934a29e0.ly:29:8:9">
<g transform="translate(69.5291, 7.7165)">
<path transform="scale(0.0034, -0.0034)" d="M215 137c67 0 111 -37 111 -92c0 -90 -111 -182 -215 -182c-67 0 -111 37 -111 92c0 90 111 182 215 182z" fill="currentColor"/>
</g>
</a>
</g>
<a style="color:inherit;" xlink:href="textedit:///Users/tomsegarra/Documents/dev/dummies/lilypond_files/146a68fce73a4c462677c890934a29e0.ly:31:80:81">
<g transform="translate(68.2220, 14.9165)">
<text font-family="serif" font-size="2.0989" text-anchor="start" fill="currentColor">
<tspan>yard</tspan>
</text>
</g>
</a>
<g color="red">
<g transform="translate(69.5908, 9.4165)">
<rect x="-0.0617" y="-1.5475" width="0.1233" height="3.0910" ry="0.0400" fill="currentColor"/>
</g>
</g>
<a style="color:inherit;" xlink:href="textedit:///Users/tomsegarra/Documents/dev/dummies/lilypond_files/146a68fce73a4c462677c890934a29e0.ly:25:42:43">
<g transform="translate(44.5653, 9.4165)">
<path stroke-width="0.0759" stroke-linejoin="round" stroke-linecap="round" stroke="currentColor" fill="currentColor" d="M0.7537 -3.2250C1.3282 -3.8662 2.6782 -3.8662 3.2527 -3.2250L3.2527 -3.2250C2.6782 -3.7524 1.3282 -3.7524 0.7537 -3.2250z"/>
</g>
</a>
<a style="color:inherit;" xlink:href="textedit:///Users/tomsegarra/Documents/dev/dummies/lilypond_files/146a68fce73a4c462677c890934a29e0.ly:25:8:9">
<g transform="translate(23.2955, 6.8665)">
<path transform="scale(0.0034, -0.0034)" d="M215 137c67 0 111 -37 111 -92c0 -90 -111 -182 -215 -182c-67 0 -111 37 -111 92c0 90 111 182 215 182z" fill="currentColor"/>
</g>
</a>
<a style="color:inherit;" xlink:href="textedit:///Users/tomsegarra/Documents/dev/dummies/lilypond_files/146a68fce73a4c462677c890934a29e0.ly:31:26:27">
<g transform="translate(22.5688, 14.9165)">
<text font-family="serif" font-size="2.0989" text-anchor="start" fill="currentColor">
<tspan>ted</tspan>
</text>
</g>
</a>
<g transform="translate(23.3572, 9.4165)">
<rect x="-0.0617" y="-2.3975" width="0.1233" height="2.3975" ry="0.0400" fill="currentColor"/>
</g>
<a style="color:inherit;" xlink:href="textedit:///Users/tomsegarra/Documents/dev/dummies/lilypond_files/146a68fce73a4c462677c890934a29e0.ly:25:11:12">
<g transform="translate(26.3745, 6.8665)">
<path transform="scale(0.0034, -0.0034)" d="M215 137c67 0 111 -37 111 -92c0 -90 -111 -182 -215 -182c-67 0 -111 37 -111 92c0 90 111 182 215 182z" fill="currentColor"/>
</g>
</a>
<a style="color:inherit;" xlink:href="textedit:///Users/tomsegarra/Documents/dev/dummies/lilypond_files/146a68fce73a4c462677c890934a29e0.ly:31:30:31">
<g transform="translate(25.5796, 14.9165)">
<text font-family="serif" font-size="2.0989" text-anchor="start" fill="currentColor">
<tspan>out</tspan>
</text>
</g>
</a>
<g transform="translate(26.4362, 9.4165)">
<rect x="-0.0617" y="-2.3975" width="0.1233" height="2.3975" ry="0.0400" fill="currentColor"/>
</g>
<g transform="translate(42.0423, 8.6478)">
<polygon stroke-linejoin="round" stroke-linecap="round" stroke-width="0.0800" fill="currentColor" stroke="currentColor" points="2.6064 -0.0887 2.6064 0.2393 0.0400 0.1640 0.0400 -0.1640"/>
</g>
<g transform="translate(39.1834, 9.2599)">
<polygon stroke-linejoin="round" stroke-linecap="round" stroke-width="0.0800" fill="currentColor" stroke="currentColor" points="5.4653 -0.0074 5.4653 0.3206 0.0400 0.1640 0.0400 -0.1640"/>
</g>
<a style="color:inherit;" xlink:href="textedit:///Users/tomsegarra/Documents/dev/dummies/lilypond_files/146a68fce73a4c462677c890934a29e0.ly:25:18:19">
<g transform="translate(29.4024, 6.8665)">
<path transform="scale(0.0034, -0.0034)" d="M215 137c67 0 111 -37 111 -92c0 -90 -111 -182 -215 -182c-67 0 -111 37 -111 92c0 90 111 182 215 182z" fill="currentColor"/>
</g>
</a>
<a style="color:inherit;" xlink:href="textedit:///Users/tomsegarra/Documents/dev/dummies/lilypond_files/146a68fce73a4c462677c890934a29e0.ly:31:34:35">
<g transform="translate(28.7269, 14.9165)">
<text font-family="serif" font-size="2.0989" text-anchor="start" fill="currentColor">
<tspan>his</tspan>
</text>
</g>
</a>
<g transform="translate(29.4640, 9.4165)">
<rect x="-0.0617" y="-2.3975" width="0.1233" height="2.3975" ry="0.0400" fill="currentColor"/>
</g>
<a style="color:inherit;" xlink:href="textedit:///Users/tomsegarra/Documents/dev/dummies/lilypond_files/146a68fce73a4c462677c890934a29e0.ly:25:21:22">
<g transform="translate(31.7097, 6.8665)">
<path transform="scale(0.0034, -0.0034)" d="M215 137c67 0 111 -37 111 -92c0 -90 -111 -182 -215 -182c-67 0 -111 37 -111 92c0 90 111 182 215 182z" fill="currentColor"/>
</g>
</a>
<a style="color:inherit;" xlink:href="textedit:///Users/tomsegarra/Documents/dev/dummies/lilypond_files/146a68fce73a4c462677c890934a29e0.ly:31:38:39">
<g transform="translate(31.7097, 14.9165)">
<text font-family="serif" font-size="2.0989" text-anchor="start" fill="currentColor">
<tspan>last</tspan>
</text>
</g>
</a>
<g transform="translate(31.7714, 9.4165)">
<rect x="-0.0617" y="-2.3975" width="0.1233" height="2.3975" ry="0.0400" fill="currentColor"/>
</g>
<a style="color:inherit;" xlink:href="textedit:///Users/tomsegarra/Documents/dev/dummies/lilypond_files/146a68fce73a4c462677c890934a29e0.ly:25:27:28">
<g transform="translate(34.0171, 6.8665)">
<path transform="scale(0.0034, -0.0034)" d="M215 137c67 0 111 -37 111 -92c0 -90 -111 -182 -215 -182c-67 0 -111 37 -111 92c0 90 111 182 215 182z" fill="currentColor"/>
</g>
</a>
<g transform="translate(34.0788, 9.4165)">
<rect x="-0.0617" y="-2.3975" width="0.1233" height="2.5501" ry="0.0400" fill="currentColor"/>
</g>
<a style="color:inherit;" xlink:href="textedit:///Users/tomsegarra/Documents/dev/dummies/lilypond_files/146a68fce73a4c462677c890934a29e0.ly:26:9:10">
<g transform="translate(49.7718, 9.4165)">
<path stroke-width="0.0759" stroke-linejoin="round" stroke-linecap="round" stroke="currentColor" fill="currentColor" d="M0.7537 -2.9750C1.2242 -3.5312 2.1905 -3.5312 2.6611 -2.9750L2.6611 -2.9750C2.1905 -3.4174 1.2242 -3.4174 0.7537 -2.9750z"/>
</g>
</a>
<a style="color:inherit;" xlink:href="textedit:///Users/tomsegarra/Documents/dev/dummies/lilypond_files/146a68fce73a4c462677c890934a29e0.ly:25:29:30">
<g transform="translate(36.3245, 6.4415)">
<path transform="scale(0.0034, -0.0034)" d="M215 137c67 0 111 -37 111 -92c0 -90 -111 -182 -215 -182c-67 0 -111 37 -111 92c0 90 111 182 215 182z" fill="currentColor"/>
</g>
</a>
<a style="color:inherit;" xlink:href="textedit:///Users/tomsegarra/Documents/dev/dummies/lilypond_files/146a68fce73a4c462677c890934a29e0.ly:31:43:44">
<g transform="translate(36.3245, 14.9165)">
<text font-family="serif" font-size="2.0989" text-anchor="start" fill="currentColor">
<tspan>word</tspan>
</text>
</g>
</a>
<g transform="translate(36.3862, 9.4165)">
<rect x="-0.0617" y="-2.8225" width="0.1233" height="2.8265" ry="0.0400" fill="currentColor"/>
</g>
<a style="color:inherit;" xlink:href="textedit:///Users/tomsegarra/Documents/dev/dummies/lilypond_files/146a68fce73a4c462677c890934a29e0.ly:25:34:35">
<g transform="translate(39.1834, 6.4415)">
<path transform="scale(0.0034, -0.0034)" d="M215 137c67 0 111 -37 111 -92c0 -90 -111 -182 -215 -182c-67 0 -111 37 -111 92c0 90 111 182 215 182z" fill="currentColor"/>
</g>
</a>
<g transform="translate(39.2450, 9.4165)">
<rect x="-0.0617" y="-2.8225" width="0.1233" height="2.6677" ry="0.0400" fill="currentColor"/>
</g>
<a style="color:inherit;" xlink:href="textedit:///Users/tomsegarra/Documents/dev/dummies/lilypond_files/146a68fce73a4c462677c890934a29e0.ly:26:17:18">
<g transform="translate(54.1365, 9.4165)">
<path stroke-width="0.0759" stroke-linejoin="round" stroke-linecap="round" stroke="currentColor" fill="currentColor" d="M0.7537 -2.1250C1.4054 -2.8204 3.0986 -2.8204 3.7503 -2.1250L3.7503 -2.1250C3.0986 -2.7066 1.4054 -2.7066 0.7537 -2.1250z"/>
</g>
</a>
<a style="color:inherit;" xlink:href="textedit:///Users/tomsegarra/Documents/dev/dummies/lilypond_files/146a68fce73a4c462677c890934a29e0.ly:25:37:38">
<g transform="translate(42.0423, 6.4415)">
<path transform="scale(0.0034, -0.0034)" d="M215 137c67 0 111 -37 111 -92c0 -90 -111 -182 -215 -182c-67 0 -111 37 -111 92c0 90 111 182 215 182z" fill="currentColor"/>
</g>
</a>
<a style="color:inherit;" xlink:href="textedit:///Users/tomsegarra/Documents/dev/dummies/lilypond_files/146a68fce73a4c462677c890934a29e0.ly:31:48:49">
<g transform="translate(41.0766, 14.9165)">
<text font-family="serif" font-size="2.0989" text-anchor="start" fill="currentColor">
<tspan>and</tspan>
</text>
</g>
</a>
<g transform="translate(42.1039, 9.4165)">
<rect x="-0.0617" y="-2.8225" width="0.1233" height="2.7490" ry="0.0400" fill="currentColor"/>
</g>
<g transform="translate(57.5332, 10.9599)">
<polygon stroke-linejoin="round" stroke-linecap="round" stroke-width="0.0800" fill="currentColor" stroke="currentColor" points="12.0793 -0.1640 12.0793 0.1640 0.0400 0.1640 0.0400 -0.1640"/>
</g>
<g transform="translate(47.4644, 9.5731)">
<polygon stroke-linejoin="round" stroke-linecap="round" stroke-width="0.0800" fill="currentColor" stroke="currentColor" points="6.7555 0.5294 6.7555 0.8574 0.0400 0.1640 0.0400 -0.1640"/>
</g>
</svg>
