<?xml version="1.0" encoding="UTF-8" standalone="no"?>
<svg
   version="1.2"
   width="146.08846mm"
   height="10.206926mm"
   viewBox="0 0 83.133759 5.8083047"
   id="svg410"
   sodipodi:docname="18434049a17db0b3ccf47414a629292d.svg"
   xmlns:inkscape="http://www.inkscape.org/namespaces/inkscape"
   xmlns:sodipodi="http://sodipodi.sourceforge.net/DTD/sodipodi-0.dtd"
   xmlns:xlink="http://www.w3.org/1999/xlink"
   xmlns="http://www.w3.org/2000/svg"
   xmlns:svg="http://www.w3.org/2000/svg">
  <defs
     id="defs414" />
  <sodipodi:namedview
     id="namedview412"
     pagecolor="#ffffff"
     bordercolor="#000000"
     borderopacity="0.25"
     inkscape:showpageshadow="2"
     inkscape:pageopacity="0.0"
     inkscape:pagecheckerboard="0"
     inkscape:deskcolor="#d1d1d1"
     inkscape:document-units="mm" />
  <style
     type="text/css"
     id="style2"><![CDATA[
tspan { white-space: pre; }
]]></style>
  <!-- Page: 1/1 -->
  <g
     transform="translate(70.758913,2.9736157)"
     id="g6">
    <rect
       x="0"
       y="-1.7"
       width="0.1802"
       height="3.4000001"
       ry="0.0000"
       fill="currentColor"
       id="rect4" />
  </g>
  <g
     transform="translate(82.953513,2.9736157)"
     id="g10">
    <rect
       x="0"
       y="-1.7"
       width="0.1802"
       height="3.4000001"
       ry="0.0000"
       fill="currentColor"
       id="rect8" />
  </g>
  <g
     transform="translate(57.717913,2.9736157)"
     id="g14">
    <rect
       x="0"
       y="-1.7"
       width="0.1802"
       height="3.4000001"
       ry="0.0000"
       fill="currentColor"
       id="rect12" />
  </g>
  <g
     transform="translate(44.605413,2.9736157)"
     id="g18">
    <rect
       x="0"
       y="-1.7"
       width="0.1802"
       height="3.4000001"
       ry="0.0000"
       fill="currentColor"
       id="rect16" />
  </g>
  <g
     transform="translate(22.475013,4.6736157)"
     id="g22">
    <line
       stroke-linejoin="round"
       stroke-linecap="round"
       stroke-width="0.0949"
       stroke="currentColor"
       x1="0.047400001"
       y1="0"
       x2="60.611301"
       y2="0"
       id="line20" />
  </g>
  <g
     transform="translate(22.475013,3.8236157)"
     id="g26">
    <line
       stroke-linejoin="round"
       stroke-linecap="round"
       stroke-width="0.0949"
       stroke="currentColor"
       x1="0.047400001"
       y1="0"
       x2="60.611301"
       y2="0"
       id="line24" />
  </g>
  <g
     transform="translate(22.475013,2.9736157)"
     id="g30">
    <line
       stroke-linejoin="round"
       stroke-linecap="round"
       stroke-width="0.0949"
       stroke="currentColor"
       x1="0.047400001"
       y1="0"
       x2="60.611301"
       y2="0"
       id="line28" />
  </g>
  <g
     transform="translate(22.475013,2.1236157)"
     id="g34">
    <line
       stroke-linejoin="round"
       stroke-linecap="round"
       stroke-width="0.0949"
       stroke="currentColor"
       x1="0.047400001"
       y1="0"
       x2="60.611301"
       y2="0"
       id="line32" />
  </g>
  <g
     transform="translate(22.475013,1.2736157)"
     id="g38">
    <line
       stroke-linejoin="round"
       stroke-linecap="round"
       stroke-width="0.0949"
       stroke="currentColor"
       x1="0.047400001"
       y1="0"
       x2="60.611301"
       y2="0"
       id="line36" />
  </g>
  <g
     transform="translate(24.919213,2.9736157)"
     id="g42">
    <rect
       x="0"
       y="-1.7"
       width="0.1802"
       height="3.4000001"
       ry="0.0000"
       fill="currentColor"
       id="rect40" />
  </g>
  <g
     transform="translate(51.334913,3.9802157)"
     id="g46">
    <polygon
       stroke-linejoin="round"
       stroke-linecap="round"
       stroke-width="0.08"
       fill="currentColor"
       stroke="currentColor"
       points="0.04,0.164 0.04,-0.164 1.9907,-0.3206 1.9907,0.0074 "
       id="polygon44" />
  </g>
  <g
     transform="translate(64.375913,3.9802157)"
     id="g50">
    <polygon
       stroke-linejoin="round"
       stroke-linecap="round"
       stroke-width="0.08"
       fill="currentColor"
       stroke="currentColor"
       points="0.04,0.164 0.04,-0.164 1.9907,-0.3206 1.9907,0.0074 "
       id="polygon48" />
  </g>
  <a
     style="color:inherit"
     xlink:href="textedit:///Users/tomsegarra/Documents/dev/dummies/lilypond_files/18434049a17db0b3ccf47414a629292d.ly:19:21:22"
     id="a62"
     transform="translate(-2.9933875,-3.2775843)">
    <g
       transform="translate(20.1704,5.2872)"
       id="g56">
      <text
         font-family="sans-serif"
         font-size="2.224px"
         text-anchor="start"
         fill="currentColor"
         id="text54"><tspan
           id="tspan52">E</tspan></text>
    </g>
    <g
       transform="translate(21.7817,4.9872)"
       id="g60">
      <path
         transform="scale(0.0036,-0.0036)"
         d="m 29,39 -2,-64 v -11 c 0,-22 2,-43 5,-65 44,38 91,80 91,138 0,33 -13,66 -42,66 C 50,103 30,72 29,39 Z m -57,415 c 9,5 18,8 28,8 10,0 19,-3 28,-8 L 21,111 c 25,23 58,36 92,36 51,0 87,-49 87,-103 0,-79 -84,-117 -144,-169 -16,-14 -25,-41 -47,-41 -14,0 -25,13 -25,27 z"
         fill="currentColor"
         id="path58" />
    </g>
  </a>
  <g
     color="#ff0000"
     id="g70"
     transform="translate(-2.9933875,-3.2775843)">
    <a
       style="color:inherit"
       xlink:href="textedit:///Users/tomsegarra/Documents/dev/dummies/lilypond_files/18434049a17db0b3ccf47414a629292d.ly:25:4:5"
       id="a68">
      <g
         transform="translate(35.551,6.2512)"
         id="g66">
        <path
           transform="scale(0.0034,-0.0034)"
           d="m 215,137 c 67,0 111,-37 111,-92 0,-90 -111,-182 -215,-182 -67,0 -111,37 -111,92 0,90 111,182 215,182 z"
           fill="currentColor"
           id="path64" />
      </g>
    </a>
  </g>
  <g
     transform="translate(22.475013,3.8236157)"
     id="g74">
    <path
       transform="scale(0.0034,-0.0034)"
       d="m 208,-469 c 37,0 129,18 129,195 0,22 0,44 -2,66 -3,-1 -34,-5 -67,-5 C 113,-213 2,-68 2,90 c 0,144 99,253 189,367 -31,96 -43,143 -43,289 0,92 41,179 113,237 7,6 17,6 23,0 55,-66 108,-201 108,-295 0,-114 -62,-207 -133,-297 18,-59 34,-118 48,-178 2,0 3,1 5,1 126,0 207,-105 207,-213 0,-92 -60,-170 -141,-198 2,-26 3,-53 3,-79 0,-17 -1,-33 -2,-50 -6,-100 -77,-187 -174,-187 -88,0 -158,72 -158,161 0,46 42,83 90,83 43,0 76,-38 76,-83 0,-42 -34,-76 -76,-76 h -9 c 19,-25 47,-41 80,-41 z m 166,315 c 43,18 80,65 80,124 0,67 -48,134 -125,146 16,-76 36,-186 45,-270 z M 64,17 c 0,-115 115,-186 207,-186 1,0 34,0 60,4 -6,51 -21,160 -47,282 -59,-7 -93,-48 -93,-92 0,-34 20,-69 63,-93 5,-5 7,-11 7,-16 0,-12 -10,-23 -22,-23 -15,0 -105,52 -105,153 0,72 47,142 129,162 -11,47 -24,94 -38,141 C 144,248 64,146 64,17 Z M 317,857 C 241,814 195,734 195,647 c 0,-35 11,-82 30,-146 58,79 105,161 105,260 0,24 0,48 -13,96 z"
       fill="currentColor"
       id="path72" />
  </g>
  <a
     style="color:inherit"
     xlink:href="textedit:///Users/tomsegarra/Documents/dev/dummies/lilypond_files/18434049a17db0b3ccf47414a629292d.ly:22:1:9"
     id="a84"
     transform="translate(-2.9933875,-3.2775843)">
    <g
       transform="translate(29.0928,4.5512)"
       id="g78">
      <path
         transform="scale(0.0034,-0.0034)"
         d="m 217,-311 c 0,-11 -8,-19 -19,-19 -11,0 -20,8 -20,19 v 142 l -81,-30 v -156 c 0,-11 -9,-20 -20,-20 -11,0 -19,9 -19,20 v 142 l -28,-11 c -3,-1 -5,-1 -8,-1 -12,0 -22,10 -22,23 v 57 c 0,9 6,18 15,21 l 43,16 V 49 L 30,39 C 27,38 25,38 22,38 10,38 0,47 0,60 v 57 c 0,9 6,18 15,21 l 43,16 v 157 c 0,11 8,19 19,19 11,0 20,-8 20,-19 V 169 l 81,30 v 156 c 0,11 9,20 20,20 11,0 19,-9 19,-20 V 213 l 28,11 c 3,1 5,1 8,1 12,0 22,-10 22,-23 v -57 c 0,-9 -6,-18 -15,-21 L 217,108 V -49 l 28,10 c 3,1 5,1 8,1 12,0 22,-9 22,-22 v -57 c 0,-9 -6,-18 -15,-21 l -43,-16 z M 97,64 V -94 l 81,30 V 94 Z"
         fill="currentColor"
         id="path76" />
    </g>
    <g
       transform="translate(30.0279,5.8262)"
       id="g82">
      <path
         transform="scale(0.0034,-0.0034)"
         d="m 217,-311 c 0,-11 -8,-19 -19,-19 -11,0 -20,8 -20,19 v 142 l -81,-30 v -156 c 0,-11 -9,-20 -20,-20 -11,0 -19,9 -19,20 v 142 l -28,-11 c -3,-1 -5,-1 -8,-1 -12,0 -22,10 -22,23 v 57 c 0,9 6,18 15,21 l 43,16 V 49 L 30,39 C 27,38 25,38 22,38 10,38 0,47 0,60 v 57 c 0,9 6,18 15,21 l 43,16 v 157 c 0,11 8,19 19,19 11,0 20,-8 20,-19 V 169 l 81,30 v 156 c 0,11 9,20 20,20 11,0 19,-9 19,-20 V 213 l 28,11 c 3,1 5,1 8,1 12,0 22,-10 22,-23 v -57 c 0,-9 -6,-18 -15,-21 L 217,108 V -49 l 28,10 c 3,1 5,1 8,1 12,0 22,-9 22,-22 v -57 c 0,-9 -6,-18 -15,-21 l -43,-16 z M 97,64 V -94 l 81,30 V 94 Z"
         fill="currentColor"
         id="path80" />
    </g>
  </a>
  <g
     transform="translate(29.119513,2.9736157)"
     id="g88">
    <path
       transform="scale(0.0034,-0.0034)"
       d="m 358,29 c -30,0 -74,23 -74,73 0,38 27,76 71,76 4,0 7,0 11,-1 -27,36 -69,59 -116,59 -106,0 -113,-74 -113,-188 0,-15 1,-31 1,-48 0,-17 -1,-33 -1,-48 0,-114 7,-188 113,-188 79,0 136,70 155,150 2,7 7,10 13,10 7,0 14,-5 14,-13 0,-21 -50,-175 -182,-175 C 191,-264 0,-244 0,0 0,63 18,264 250,264 365,264 424,155 424,99 424,60 394,29 358,29 Z"
       fill="currentColor"
       id="path86" />
  </g>
  <g
     transform="translate(34.044113,2.5486157)"
     id="g92">
    <path
       transform="scale(0.0034,-0.0034)"
       d="M 0,0 C 0,31 25,56 56,56 87,56 111,31 111,0 111,-31 87,-56 56,-56 25,-56 0,-31 0,0 Z"
       fill="currentColor"
       id="path90" />
  </g>
  <g
     color="#ff0000"
     id="g98"
     transform="translate(-2.9933875,-3.2775843)">
    <g
       transform="translate(35.6127,6.2512)"
       id="g96">
      <rect
         x="-0.061700001"
         y="0.1525"
         width="0.1233"
         height="2.6809001"
         ry="0.039999999"
         fill="currentColor"
         id="rect94" />
    </g>
  </g>
  <g
     color="#000000"
     id="g104"
     transform="translate(-2.9933875,-3.2775843)">
    <g
       transform="translate(83.4404,6.2512)"
       id="g102">
      <rect
         x="-0.061700001"
         y="-1.5475"
         width="0.1233"
         height="2.8225"
         ry="0.039999999"
         fill="currentColor"
         id="rect100" />
    </g>
  </g>
  <g
     color="#ff0000"
     id="g112"
     transform="translate(-2.9933875,-3.2775843)">
    <a
       style="color:inherit"
       xlink:href="textedit:///Users/tomsegarra/Documents/dev/dummies/lilypond_files/18434049a17db0b3ccf47414a629292d.ly:25:9:10"
       id="a110">
      <g
         transform="translate(39.3084,5.4012)"
         id="g108">
        <path
           transform="scale(0.0034,-0.0034)"
           d="m 215,137 c 67,0 111,-37 111,-92 0,-90 -111,-182 -215,-182 -67,0 -111,37 -111,92 0,90 111,182 215,182 z"
           fill="currentColor"
           id="path106" />
      </g>
    </a>
  </g>
  <g
     color="#ff0000"
     id="g118"
     transform="translate(-2.9933875,-3.2775843)">
    <g
       transform="translate(39.3701,6.2512)"
       id="g116">
      <rect
         x="-0.061700001"
         y="-0.69749999"
         width="0.1233"
         height="2.8225"
         ry="0.039999999"
         fill="currentColor"
         id="rect114" />
    </g>
  </g>
  <g
     color="#ff0000"
     id="g124"
     transform="translate(-2.9933875,-3.2775843)">
    <g
       transform="translate(39.4317,8.3362)"
       id="g122">
      <path
         transform="scale(0.0034,-0.0034)"
         d="M 0,0 H -18 V 250 H 0 Z m 0,0 v 250 c 96,59 222,149 222,259 0,57 -15,111 -40,162 -3,17 10,29 24,29 8,0 16,-5 21,-13 25,-56 40,-116 40,-178 C 267,306 0,203 0,0 Z"
         fill="currentColor"
         id="path120" />
    </g>
  </g>
  <a
     style="color:inherit"
     xlink:href="textedit:///Users/tomsegarra/Documents/dev/dummies/lilypond_files/18434049a17db0b3ccf47414a629292d.ly:19:12:13"
     id="a136"
     transform="translate(-2.9933875,-3.2775843)">
    <g
       transform="translate(2.7762,5.2872)"
       id="g130">
      <text
         font-family="sans-serif"
         font-size="2.224px"
         text-anchor="start"
         fill="currentColor"
         id="text128"><tspan
           id="tspan126">B</tspan></text>
    </g>
    <g
       transform="translate(4.5242,4.9872)"
       id="g134">
      <path
         transform="scale(0.0036,-0.0036)"
         d="m 29,39 -2,-64 v -11 c 0,-22 2,-43 5,-65 44,38 91,80 91,138 0,33 -13,66 -42,66 C 50,103 30,72 29,39 Z m -57,415 c 9,5 18,8 28,8 10,0 19,-3 28,-8 L 21,111 c 25,23 58,36 92,36 51,0 87,-49 87,-103 0,-79 -84,-117 -144,-169 -16,-14 -25,-41 -47,-41 -14,0 -25,13 -25,27 z"
         fill="currentColor"
         id="path132" />
    </g>
  </a>
  <g
     color="#000000"
     id="g144"
     transform="translate(-2.9933875,-3.2775843)">
    <a
       style="color:inherit"
       xlink:href="textedit:///Users/tomsegarra/Documents/dev/dummies/lilypond_files/18434049a17db0b3ccf47414a629292d.ly:34:12:13"
       id="a142">
      <g
         transform="translate(83.3787,4.5512)"
         id="g140">
        <path
           transform="scale(0.0034,-0.0034)"
           d="m 215,137 c 67,0 111,-37 111,-92 0,-90 -111,-182 -215,-182 -67,0 -111,37 -111,92 0,90 111,182 215,182 z"
           fill="currentColor"
           id="path138" />
      </g>
    </a>
  </g>
  <g
     color="#ff0000"
     id="g152"
     transform="translate(-2.9933875,-3.2775843)">
    <a
       style="color:inherit"
       xlink:href="textedit:///Users/tomsegarra/Documents/dev/dummies/lilypond_files/18434049a17db0b3ccf47414a629292d.ly:25:12:13"
       id="a150">
      <g
         transform="translate(41.2158,4.9762)"
         id="g148">
        <path
           transform="scale(0.0034,-0.0034)"
           d="m 215,137 c 67,0 111,-37 111,-92 0,-90 -111,-182 -215,-182 -67,0 -111,37 -111,92 0,90 111,182 215,182 z"
           fill="currentColor"
           id="path146" />
      </g>
    </a>
  </g>
  <g
     color="#ff0000"
     id="g158"
     transform="translate(-2.9933875,-3.2775843)">
    <g
       transform="translate(41.2774,6.2512)"
       id="g156">
      <rect
         x="-0.061700001"
         y="-1.1224999"
         width="0.1233"
         height="2.1243999"
         ry="0.039999999"
         fill="currentColor"
         id="rect154" />
    </g>
  </g>
  <g
     color="#ff0000"
     id="g166"
     transform="translate(-2.9933875,-3.2775843)">
    <a
       style="color:inherit"
       xlink:href="textedit:///Users/tomsegarra/Documents/dev/dummies/lilypond_files/18434049a17db0b3ccf47414a629292d.ly:25:14:15"
       id="a164">
      <g
         transform="translate(43.1232,4.5512)"
         id="g162">
        <path
           transform="scale(0.0034,-0.0034)"
           d="m 215,137 c 67,0 111,-37 111,-92 0,-90 -111,-182 -215,-182 -67,0 -111,37 -111,92 0,90 111,182 215,182 z"
           fill="currentColor"
           id="path160" />
      </g>
    </a>
  </g>
  <g
     color="#ff0000"
     id="g172"
     transform="translate(-2.9933875,-3.2775843)">
    <g
       transform="translate(43.1848,6.2512)"
       id="g170">
      <rect
         x="-0.061700001"
         y="-1.5475"
         width="0.1233"
         height="2.4022999"
         ry="0.039999999"
         fill="currentColor"
         id="rect168" />
    </g>
  </g>
  <g
     color="#ff0000"
     id="g180"
     transform="translate(-2.9933875,-3.2775843)">
    <a
       style="color:inherit"
       xlink:href="textedit:///Users/tomsegarra/Documents/dev/dummies/lilypond_files/18434049a17db0b3ccf47414a629292d.ly:25:18:19"
       id="a178">
      <g
         transform="translate(45.0306,4.9762)"
         id="g176">
        <path
           transform="scale(0.0034,-0.0034)"
           d="m 215,137 c 67,0 111,-37 111,-92 0,-90 -111,-182 -215,-182 -67,0 -111,37 -111,92 0,90 111,182 215,182 z"
           fill="currentColor"
           id="path174" />
      </g>
    </a>
  </g>
  <g
     color="#ff0000"
     id="g186"
     transform="translate(-2.9933875,-3.2775843)">
    <g
       transform="translate(45.0922,6.2512)"
       id="g184">
      <rect
         x="-0.061700001"
         y="-1.1224999"
         width="0.1233"
         height="2.8225"
         ry="0.039999999"
         fill="currentColor"
         id="rect182" />
    </g>
  </g>
  <g
     color="#000000"
     id="g192"
     transform="translate(-2.9933875,-3.2775843)">
    <g
       transform="translate(80.6349,6.2512)"
       id="g190">
      <rect
         x="-0.061700001"
         y="-1.1224999"
         width="0.1233"
         height="2.8225"
         ry="0.039999999"
         fill="currentColor"
         id="rect188" />
    </g>
  </g>
  <g
     color="#000000"
     id="g200"
     transform="translate(-2.9933875,-3.2775843)">
    <a
       style="color:inherit"
       xlink:href="textedit:///Users/tomsegarra/Documents/dev/dummies/lilypond_files/18434049a17db0b3ccf47414a629292d.ly:34:10:11"
       id="a198">
      <g
         transform="translate(80.5733,4.9762)"
         id="g196">
        <path
           transform="scale(0.0034,-0.0034)"
           d="m 215,137 c 67,0 111,-37 111,-92 0,-90 -111,-182 -215,-182 -67,0 -111,37 -111,92 0,90 111,182 215,182 z"
           fill="currentColor"
           id="path194" />
      </g>
    </a>
  </g>
  <g
     color="#000000"
     id="g208"
     transform="translate(-2.9933875,-3.2775843)">
    <a
       style="color:inherit"
       xlink:href="textedit:///Users/tomsegarra/Documents/dev/dummies/lilypond_files/18434049a17db0b3ccf47414a629292d.ly:28:4:5"
       id="a206">
      <g
         transform="translate(48.679,7.1012)"
         id="g204">
        <path
           transform="scale(0.0034,-0.0034)"
           d="m 215,137 c 67,0 111,-37 111,-92 0,-90 -111,-182 -215,-182 -67,0 -111,37 -111,92 0,90 111,182 215,182 z"
           fill="currentColor"
           id="path202" />
      </g>
    </a>
  </g>
  <g
     transform="translate(47.172113,3.3986157)"
     id="g212">
    <path
       transform="scale(0.0034,-0.0034)"
       d="M 0,0 C 0,31 25,56 56,56 87,56 111,31 111,0 111,-31 87,-56 56,-56 25,-56 0,-31 0,0 Z"
       fill="currentColor"
       id="path210" />
  </g>
  <g
     color="#000000"
     id="g218"
     transform="translate(-2.9933875,-3.2775843)">
    <g
       transform="translate(49.7248,6.2512)"
       id="g216">
      <rect
         x="-0.061700001"
         y="-2.125"
         width="0.1233"
         height="2.8225"
         ry="0.039999999"
         fill="currentColor"
         id="rect214" />
    </g>
  </g>
  <a
     style="color:inherit"
     xlink:href="textedit:///Users/tomsegarra/Documents/dev/dummies/lilypond_files/18434049a17db0b3ccf47414a629292d.ly:19:15:16"
     id="a226"
     transform="translate(-2.9933875,-3.2775843)">
    <g
       transform="translate(8.5743,5.2872)"
       id="g224">
      <text
         font-family="sans-serif"
         font-size="2.224px"
         text-anchor="start"
         fill="currentColor"
         id="text222"><tspan
           id="tspan220">C</tspan></text>
    </g>
  </a>
  <g
     color="#000000"
     id="g234"
     transform="translate(-2.9933875,-3.2775843)">
    <a
       style="color:inherit"
       xlink:href="textedit:///Users/tomsegarra/Documents/dev/dummies/lilypond_files/18434049a17db0b3ccf47414a629292d.ly:28:9:10"
       id="a232">
      <g
         transform="translate(52.4209,5.4012)"
         id="g230">
        <path
           transform="scale(0.0034,-0.0034)"
           d="m 215,137 c 67,0 111,-37 111,-92 0,-90 -111,-182 -215,-182 -67,0 -111,37 -111,92 0,90 111,182 215,182 z"
           fill="currentColor"
           id="path228" />
      </g>
    </a>
  </g>
  <g
     color="#000000"
     id="g240"
     transform="translate(-2.9933875,-3.2775843)">
    <g
       transform="translate(52.4825,6.2512)"
       id="g238">
      <rect
         x="-0.061700001"
         y="-0.69749999"
         width="0.1233"
         height="2.8225"
         ry="0.039999999"
         fill="currentColor"
         id="rect236" />
    </g>
  </g>
  <g
     color="#000000"
     id="g246"
     transform="translate(-2.9933875,-3.2775843)">
    <g
       transform="translate(52.5442,8.3362)"
       id="g244">
      <path
         transform="scale(0.0034,-0.0034)"
         d="M 0,0 H -18 V 250 H 0 Z m 0,0 v 250 c 96,59 222,149 222,259 0,57 -15,111 -40,162 -3,17 10,29 24,29 8,0 16,-5 21,-13 25,-56 40,-116 40,-178 C 267,306 0,203 0,0 Z"
         fill="currentColor"
         id="path242" />
    </g>
  </g>
  <g
     color="#000000"
     id="g254"
     transform="translate(-2.9933875,-3.2775843)">
    <a
       style="color:inherit"
       xlink:href="textedit:///Users/tomsegarra/Documents/dev/dummies/lilypond_files/18434049a17db0b3ccf47414a629292d.ly:28:13:14"
       id="a252">
      <g
         transform="translate(54.3283,4.9762)"
         id="g250">
        <path
           transform="scale(0.0034,-0.0034)"
           d="m 215,137 c 67,0 111,-37 111,-92 0,-90 -111,-182 -215,-182 -67,0 -111,37 -111,92 0,90 111,182 215,182 z"
           fill="currentColor"
           id="path248" />
      </g>
    </a>
  </g>
  <g
     color="#000000"
     id="g260"
     transform="translate(-2.9933875,-3.2775843)">
    <g
       transform="translate(54.3899,6.2512)"
       id="g258">
      <rect
         x="-0.061700001"
         y="-1.1224999"
         width="0.1233"
         height="2.1243999"
         ry="0.039999999"
         fill="currentColor"
         id="rect256" />
    </g>
  </g>
  <g
     color="#000000"
     id="g268"
     transform="translate(-2.9933875,-3.2775843)">
    <a
       style="color:inherit"
       xlink:href="textedit:///Users/tomsegarra/Documents/dev/dummies/lilypond_files/18434049a17db0b3ccf47414a629292d.ly:28:15:16"
       id="a266">
      <g
         transform="translate(56.2357,4.5512)"
         id="g264">
        <path
           transform="scale(0.0034,-0.0034)"
           d="m 215,137 c 67,0 111,-37 111,-92 0,-90 -111,-182 -215,-182 -67,0 -111,37 -111,92 0,90 111,182 215,182 z"
           fill="currentColor"
           id="path262" />
      </g>
    </a>
  </g>
  <g
     color="#000000"
     id="g274"
     transform="translate(-2.9933875,-3.2775843)">
    <g
       transform="translate(56.2973,6.2512)"
       id="g272">
      <rect
         x="-0.061700001"
         y="-1.5475"
         width="0.1233"
         height="2.4022999"
         ry="0.039999999"
         fill="currentColor"
         id="rect270" />
    </g>
  </g>
  <g
     transform="translate(38.222413,3.9802157)"
     id="g278">
    <polygon
       stroke-linejoin="round"
       stroke-linecap="round"
       stroke-width="0.08"
       fill="currentColor"
       stroke="currentColor"
       points="0.04,0.164 0.04,-0.164 1.9907,-0.3206 1.9907,0.0074 "
       id="polygon276" />
  </g>
  <g
     color="#000000"
     id="g286"
     transform="translate(-2.9933875,-3.2775843)">
    <a
       style="color:inherit"
       xlink:href="textedit:///Users/tomsegarra/Documents/dev/dummies/lilypond_files/18434049a17db0b3ccf47414a629292d.ly:28:19:20"
       id="a284">
      <g
         transform="translate(58.143,4.9762)"
         id="g282">
        <path
           transform="scale(0.0034,-0.0034)"
           d="m 215,137 c 67,0 111,-37 111,-92 0,-90 -111,-182 -215,-182 -67,0 -111,37 -111,92 0,90 111,182 215,182 z"
           fill="currentColor"
           id="path280" />
      </g>
    </a>
  </g>
  <g
     color="#000000"
     id="g292"
     transform="translate(-2.9933875,-3.2775843)">
    <g
       transform="translate(58.2047,6.2512)"
       id="g290">
      <rect
         x="-0.061700001"
         y="-1.1224999"
         width="0.1233"
         height="2.8225"
         ry="0.039999999"
         fill="currentColor"
         id="rect288" />
    </g>
  </g>
  <g
     color="#000000"
     id="g298"
     transform="translate(-2.9933875,-3.2775843)">
    <g
       transform="translate(77.8295,6.2512)"
       id="g296">
      <rect
         x="-0.061700001"
         y="-0.69749999"
         width="0.1233"
         height="2.8225"
         ry="0.039999999"
         fill="currentColor"
         id="rect294" />
    </g>
  </g>
  <g
     color="#000000"
     id="g306"
     transform="translate(-2.9933875,-3.2775843)">
    <a
       style="color:inherit"
       xlink:href="textedit:///Users/tomsegarra/Documents/dev/dummies/lilypond_files/18434049a17db0b3ccf47414a629292d.ly:28:24:25"
       id="a304">
      <g
         transform="translate(61.7915,6.6762)"
         id="g302">
        <path
           transform="scale(0.0034,-0.0034)"
           d="m 215,137 c 67,0 111,-37 111,-92 0,-90 -111,-182 -215,-182 -67,0 -111,37 -111,92 0,90 111,182 215,182 z"
           fill="currentColor"
           id="path300" />
      </g>
    </a>
  </g>
  <g
     transform="translate(60.284613,3.3986157)"
     id="g310">
    <path
       transform="scale(0.0034,-0.0034)"
       d="M 0,0 C 0,31 25,56 56,56 87,56 111,31 111,0 111,-31 87,-56 56,-56 25,-56 0,-31 0,0 Z"
       fill="currentColor"
       id="path308" />
  </g>
  <g
     color="#000000"
     id="g316"
     transform="translate(-2.9933875,-3.2775843)">
    <g
       transform="translate(62.8372,6.2512)"
       id="g314">
      <rect
         x="-0.061700001"
         y="-2.55"
         width="0.1233"
         height="2.8225"
         ry="0.039999999"
         fill="currentColor"
         id="rect312" />
    </g>
  </g>
  <g
     color="#000000"
     id="g324"
     transform="translate(-2.9933875,-3.2775843)">
    <a
       style="color:inherit"
       xlink:href="textedit:///Users/tomsegarra/Documents/dev/dummies/lilypond_files/18434049a17db0b3ccf47414a629292d.ly:34:8:9"
       id="a322">
      <g
         transform="translate(77.7678,5.4012)"
         id="g320">
        <path
           transform="scale(0.0034,-0.0034)"
           d="m 215,137 c 67,0 111,-37 111,-92 0,-90 -111,-182 -215,-182 -67,0 -111,37 -111,92 0,90 111,182 215,182 z"
           fill="currentColor"
           id="path318" />
      </g>
    </a>
  </g>
  <g
     color="#ff0000"
     id="g332"
     transform="translate(-2.9933875,-3.2775843)">
    <a
       style="color:inherit"
       xlink:href="textedit:///Users/tomsegarra/Documents/dev/dummies/lilypond_files/18434049a17db0b3ccf47414a629292d.ly:31:4:5"
       id="a330">
      <g
         transform="translate(65.4619,5.4012)"
         id="g328">
        <path
           transform="scale(0.0034,-0.0034)"
           d="m 215,137 c 67,0 111,-37 111,-92 0,-90 -111,-182 -215,-182 -67,0 -111,37 -111,92 0,90 111,182 215,182 z"
           fill="currentColor"
           id="path326" />
      </g>
    </a>
  </g>
  <g
     color="#ff0000"
     id="g338"
     transform="translate(-2.9933875,-3.2775843)">
    <g
       transform="translate(65.5236,6.2512)"
       id="g336">
      <rect
         x="-0.061700001"
         y="-0.69749999"
         width="0.1233"
         height="2.8225"
         ry="0.039999999"
         fill="currentColor"
         id="rect334" />
    </g>
  </g>
  <g
     color="#ff0000"
     id="g344"
     transform="translate(-2.9933875,-3.2775843)">
    <g
       transform="translate(65.5852,8.3362)"
       id="g342">
      <path
         transform="scale(0.0034,-0.0034)"
         d="M 0,0 H -18 V 250 H 0 Z m 0,0 v 250 c 96,59 222,149 222,259 0,57 -15,111 -40,162 -3,17 10,29 24,29 8,0 16,-5 21,-13 25,-56 40,-116 40,-178 C 267,306 0,203 0,0 Z"
         fill="currentColor"
         id="path340" />
    </g>
  </g>
  <g
     color="#ff0000"
     id="g352"
     transform="translate(-2.9933875,-3.2775843)">
    <a
       style="color:inherit"
       xlink:href="textedit:///Users/tomsegarra/Documents/dev/dummies/lilypond_files/18434049a17db0b3ccf47414a629292d.ly:31:7:8"
       id="a350">
      <g
         transform="translate(67.3693,4.9762)"
         id="g348">
        <path
           transform="scale(0.0034,-0.0034)"
           d="m 215,137 c 67,0 111,-37 111,-92 0,-90 -111,-182 -215,-182 -67,0 -111,37 -111,92 0,90 111,182 215,182 z"
           fill="currentColor"
           id="path346" />
      </g>
    </a>
  </g>
  <g
     color="#ff0000"
     id="g358"
     transform="translate(-2.9933875,-3.2775843)">
    <g
       transform="translate(67.431,6.2512)"
       id="g356">
      <rect
         x="-0.061700001"
         y="-1.1224999"
         width="0.1233"
         height="2.1243999"
         ry="0.039999999"
         fill="currentColor"
         id="rect354" />
    </g>
  </g>
  <g
     color="#ff0000"
     id="g366"
     transform="translate(-2.9933875,-3.2775843)">
    <a
       style="color:inherit"
       xlink:href="textedit:///Users/tomsegarra/Documents/dev/dummies/lilypond_files/18434049a17db0b3ccf47414a629292d.ly:31:9:10"
       id="a364">
      <g
         transform="translate(69.2767,4.5512)"
         id="g362">
        <path
           transform="scale(0.0034,-0.0034)"
           d="m 215,137 c 67,0 111,-37 111,-92 0,-90 -111,-182 -215,-182 -67,0 -111,37 -111,92 0,90 111,182 215,182 z"
           fill="currentColor"
           id="path360" />
      </g>
    </a>
  </g>
  <g
     color="#ff0000"
     id="g372"
     transform="translate(-2.9933875,-3.2775843)">
    <g
       transform="translate(69.3384,6.2512)"
       id="g370">
      <rect
         x="-0.061700001"
         y="-1.5475"
         width="0.1233"
         height="2.4022999"
         ry="0.039999999"
         fill="currentColor"
         id="rect368" />
    </g>
  </g>
  <a
     style="color:inherit"
     xlink:href="textedit:///Users/tomsegarra/Documents/dev/dummies/lilypond_files/18434049a17db0b3ccf47414a629292d.ly:19:18:19"
     id="a380"
     transform="translate(-2.9933875,-3.2775843)">
    <g
       transform="translate(14.3723,5.2872)"
       id="g378">
      <text
         font-family="sans-serif"
         font-size="2.224px"
         text-anchor="start"
         fill="currentColor"
         id="text376"><tspan
           id="tspan374">D</tspan></text>
    </g>
  </a>
  <g
     color="#ff0000"
     id="g388"
     transform="translate(-2.9933875,-3.2775843)">
    <a
       style="color:inherit"
       xlink:href="textedit:///Users/tomsegarra/Documents/dev/dummies/lilypond_files/18434049a17db0b3ccf47414a629292d.ly:31:13:14"
       id="a386">
      <g
         transform="translate(71.1841,4.9762)"
         id="g384">
        <path
           transform="scale(0.0034,-0.0034)"
           d="m 215,137 c 67,0 111,-37 111,-92 0,-90 -111,-182 -215,-182 -67,0 -111,37 -111,92 0,90 111,182 215,182 z"
           fill="currentColor"
           id="path382" />
      </g>
    </a>
  </g>
  <g
     color="#ff0000"
     id="g394"
     transform="translate(-2.9933875,-3.2775843)">
    <g
       transform="translate(71.2457,6.2512)"
       id="g392">
      <rect
         x="-0.061700001"
         y="-1.1224999"
         width="0.1233"
         height="2.8225"
         ry="0.039999999"
         fill="currentColor"
         id="rect390" />
    </g>
  </g>
  <g
     color="#000000"
     id="g402"
     transform="translate(-2.9933875,-3.2775843)">
    <a
       style="color:inherit"
       xlink:href="textedit:///Users/tomsegarra/Documents/dev/dummies/lilypond_files/18434049a17db0b3ccf47414a629292d.ly:34:4:5"
       id="a400">
      <g
         transform="translate(74.9624,5.8262)"
         id="g398">
        <path
           transform="scale(0.0034,-0.0034)"
           d="m 215,137 c 67,0 111,-37 111,-92 0,-90 -111,-182 -215,-182 -67,0 -111,37 -111,92 0,90 111,182 215,182 z"
           fill="currentColor"
           id="path396" />
      </g>
    </a>
  </g>
  <g
     color="#000000"
     id="g408"
     transform="translate(-2.9933875,-3.2775843)">
    <g
       transform="translate(75.0241,6.2512)"
       id="g406">
      <rect
         x="-0.061700001"
         y="-0.27250001"
         width="0.1233"
         height="2.8225"
         ry="0.039999999"
         fill="currentColor"
         id="rect404" />
    </g>
  </g>
</svg>
