<svg xmlns="http://www.w3.org/2000/svg" xmlns:xlink="http://www.w3.org/1999/xlink" version="1.2" width="67.40mm" height="297.00mm" viewBox="0 0 38.3554 169.0094">
<style type="text/css">
<![CDATA[
tspan { white-space: pre; }
]]>
</style>
<!-- Page: 1/1 -->
<g transform="translate(2.2762, 8.0762)">
<line stroke-linejoin="round" stroke-linecap="round" stroke-width="0.0931" stroke="currentColor" x1="0.0466" y1="0" x2="33.7564" y2="0"/>
</g>
<g transform="translate(2.2762, 7.2762)">
<line stroke-linejoin="round" stroke-linecap="round" stroke-width="0.0931" stroke="currentColor" x1="0.0466" y1="0" x2="33.7564" y2="0"/>
</g>
<g transform="translate(2.2762, 6.4762)">
<line stroke-linejoin="round" stroke-linecap="round" stroke-width="0.0931" stroke="currentColor" x1="0.0466" y1="0" x2="33.7564" y2="0"/>
</g>
<g transform="translate(2.2762, 5.6762)">
<line stroke-linejoin="round" stroke-linecap="round" stroke-width="0.0931" stroke="currentColor" x1="0.0466" y1="0" x2="33.7564" y2="0"/>
</g>
<g transform="translate(2.2762, 4.8762)">
<line stroke-linejoin="round" stroke-linecap="round" stroke-width="0.0931" stroke="currentColor" x1="0.0466" y1="0" x2="33.7564" y2="0"/>
</g>
<g transform="translate(35.9022, 6.4762)">
<rect x="0.0000" y="-1.6000" width="0.1770" height="3.2000" ry="0.0000" fill="currentColor"/>
</g>
<g transform="translate(19.7126, 6.4762)">
<rect x="0.0000" y="-1.6000" width="0.1770" height="3.2000" ry="0.0000" fill="currentColor"/>
</g>
<a style="color:inherit;" xlink:href="textedit:///Users/tomsegarra/Downloads/dummies/lilypond_files/39f4b9343d62554d7b9098725bd2a238.ly:22:1:9">
<g transform="translate(13.7126, 5.6762)">
<path transform="scale(0.0032, -0.0032)" d="M362 -156h-349c-7 0 -13 5 -13 12v131c0 7 6 13 13 13h349c7 0 13 -6 13 -13v-131c0 -7 -6 -12 -13 -12z" fill="currentColor"/>
</g>
</a>
<g transform="translate(3.0762, 7.2762)">
<path transform="scale(0.0032, -0.0032)" d="M647 2c0 -114 -75 -214 -180 -248c3 -33 4 -66 4 -99c0 -21 0 -41 -1 -62c-7 -122 -92 -229 -211 -229c-108 0 -196 88 -196 197c0 58 54 103 113 103c54 0 95 -47 95 -103c0 -52 -43 -95 -95 -95c-9 0 -18 1 -27 4c25 -37 66 -61 113 -61c93 0 156 91 162 191
c1 19 2 38 2 57c0 29 -1 58 -3 87c-5 -1 -44 -8 -88 -8c-194 0 -333 181 -333 376c0 177 129 308 244 443c-34 103 -55 171 -55 347c0 114 54 221 147 288c8 6 18 5 25 -1c68 -79 135 -242 135 -356c0 -142 -84 -255 -176 -364c21 -68 40 -136 57 -205c1 0 5 1 10 1
c157 0 258 -129 258 -263zM463 -201c64 24 110 88 110 161c0 88 -64 175 -167 188c28 -133 49 -269 57 -349zM77 25c0 -144 141 -243 261 -243c1 0 46 -1 81 5c-7 66 -27 208 -60 362c-79 -8 -124 -60 -124 -118c0 -43 25 -88 80 -120c5 -5 7 -11 7 -17
c0 -12 -10 -23 -23 -23c-16 0 -128 62 -128 188c0 89 60 177 163 200c-14 57 -30 113 -47 169c-105 -122 -210 -243 -210 -403zM403 1038c-99 -46 -161 -145 -161 -254c0 -39 10 -95 39 -188c78 97 142 199 142 324c0 33 0 61 -20 118z" fill="currentColor"/>
</g>
<a style="color:inherit;" xlink:href="textedit:///Users/tomsegarra/Downloads/dummies/lilypond_files/39f4b9343d62554d7b9098725bd2a238.ly:21:1:9">
<g transform="translate(6.5762, 4.8762)">
<path transform="scale(0.0032, -0.0032)" d="M198 -329c-12 0 -21 9 -21 21v138l-79 -30v-154c0 -12 -9 -21 -21 -21s-21 9 -21 21v138l-22 -8c-3 -1 -6 -2 -9 -2c-13 0 -25 11 -25 25v54c0 10 6 20 16 24l40 15v155l-22 -9c-3 -1 -6 -1 -9 -1c-13 0 -25 11 -25 25v54c0 10 6 19 16 23l40 15v154c0 12 9 21 21 21
s21 -9 21 -21v-138l79 30v154c0 12 9 21 21 21s21 -9 21 -21v-138l22 8c3 1 6 2 9 2c13 0 25 -11 25 -25v-54c0 -10 -6 -20 -16 -24l-40 -15v-155l22 9c3 1 6 1 9 1c13 0 25 -11 25 -25v-54c0 -10 -6 -19 -16 -23l-40 -15v-154c0 -12 -9 -21 -21 -21zM98 62v-154l79 30v154z
" fill="currentColor"/>
</g>
<g transform="translate(7.4562, 6.0762)">
<path transform="scale(0.0032, -0.0032)" d="M198 -329c-12 0 -21 9 -21 21v138l-79 -30v-154c0 -12 -9 -21 -21 -21s-21 9 -21 21v138l-22 -8c-3 -1 -6 -2 -9 -2c-13 0 -25 11 -25 25v54c0 10 6 20 16 24l40 15v155l-22 -9c-3 -1 -6 -1 -9 -1c-13 0 -25 11 -25 25v54c0 10 6 19 16 23l40 15v154c0 12 9 21 21 21
s21 -9 21 -21v-138l79 30v154c0 12 9 21 21 21s21 -9 21 -21v-138l22 8c3 1 6 2 9 2c13 0 25 -11 25 -25v-54c0 -10 -6 -20 -16 -24l-40 -15v-155l22 9c3 1 6 1 9 1c13 0 25 -11 25 -25v-54c0 -10 -6 -19 -16 -23l-40 -15v-154c0 -12 -9 -21 -21 -21zM98 62v-154l79 30v154z
" fill="currentColor"/>
</g>
<g transform="translate(8.3362, 4.4762)">
<path transform="scale(0.0032, -0.0032)" d="M198 -329c-12 0 -21 9 -21 21v138l-79 -30v-154c0 -12 -9 -21 -21 -21s-21 9 -21 21v138l-22 -8c-3 -1 -6 -2 -9 -2c-13 0 -25 11 -25 25v54c0 10 6 20 16 24l40 15v155l-22 -9c-3 -1 -6 -1 -9 -1c-13 0 -25 11 -25 25v54c0 10 6 19 16 23l40 15v154c0 12 9 21 21 21
s21 -9 21 -21v-138l79 30v154c0 12 9 21 21 21s21 -9 21 -21v-138l22 8c3 1 6 2 9 2c13 0 25 -11 25 -25v-54c0 -10 -6 -20 -16 -24l-40 -15v-155l22 9c3 1 6 1 9 1c13 0 25 -11 25 -25v-54c0 -10 -6 -19 -16 -23l-40 -15v-154c0 -12 -9 -21 -21 -21zM98 62v-154l79 30v154z
" fill="currentColor"/>
</g>
</a>
<g transform="translate(10.3662, 6.4762)">
<path transform="scale(0.0032, -0.0032)" d="M250 265c114 0 172 -112 172 -166c0 -38 -30 -69 -66 -69c-30 0 -72 23 -72 72c0 37 26 75 70 75c3 0 6 -1 9 -1c-26 36 -67 59 -113 59c-107 0 -113 -74 -113 -189c0 -15 1 -30 1 -46s-1 -31 -1 -46c0 -115 6 -189 113 -189c78 0 133 70 151 149c2 8 8 11 14 11
c7 0 15 -5 15 -14c0 -21 -49 -176 -180 -176c-145 0 -250 88 -250 265c0 63 18 265 250 265z" fill="currentColor"/>
</g>
<a style="color:inherit;" xlink:href="textedit:///Users/tomsegarra/Downloads/dummies/lilypond_files/39f4b9343d62554d7b9098725bd2a238.ly:25:14:22">
<g transform="translate(31.0920, 11.9762)">
<rect x="0.0000" y="-0.5411" width="0.6600" height="0.1211" ry="0.0373" fill="currentColor"/>
</g>
</a>
<g transform="translate(28.7334, 3.9308)">
<polygon stroke-linejoin="round" stroke-linecap="round" stroke-width="0.0800" fill="currentColor" stroke="currentColor" points="2.3218 0.1389 2.3218 0.4429 0.0400 0.1520 0.0400 -0.1520"/>
</g>
<a style="color:inherit;" xlink:href="textedit:///Users/tomsegarra/Downloads/dummies/lilypond_files/39f4b9343d62554d7b9098725bd2a238.ly:22:4:12">
<g transform="translate(20.7895, 6.4762)">
<path transform="scale(0.0032, -0.0032)" d="M-9 78c0 59 124 84 124 182c0 25 -9 50 -26 70l-31 37c-3 4 -4 8 -4 12c0 10 9 18 19 18c5 0 9 -1 13 -6l149 -178c7 -9 11 -17 11 -26c0 -59 -124 -84 -124 -182c0 -25 9 -51 26 -71l79 -94c3 -4 4 -8 4 -12c0 -10 -9 -18 -19 -18c-11 0 -38 40 -102 40
c-23 0 -55 -4 -55 -65c0 -33 11 -73 27 -92c8 -9 -6 -20 -14 -11c-44 53 -92 145 -92 199c0 41 26 43 46 43c30 0 69 -9 106 -23l-126 151c-7 9 -11 17 -11 26z" fill="currentColor"/>
</g>
</a>
<a style="color:inherit;" xlink:href="textedit:///Users/tomsegarra/Downloads/dummies/lilypond_files/39f4b9343d62554d7b9098725bd2a238.ly:22:14:22">
<g transform="translate(27.8139, 6.4762)">
<path transform="scale(0.0032, -0.0032)" d="M212 138c68 0 113 -38 113 -95c0 -90 -109 -181 -212 -181c-68 0 -113 38 -113 95c0 90 109 181 212 181z" fill="currentColor"/>
</g>
</a>
<a style="color:inherit;" xlink:href="textedit:///Users/tomsegarra/Downloads/dummies/lilypond_files/39f4b9343d62554d7b9098725bd2a238.ly:25:7:15">
<g transform="translate(27.0709, 11.9762)">
<text font-family="serif" font-size="1.9756" text-anchor="start" fill="currentColor">
<tspan>tell</tspan>
</text>
</g>
</a>
<g transform="translate(28.7940, 6.4762)">
<rect x="-0.0605" y="-2.5380" width="0.1211" height="2.4009" ry="0.0400" fill="currentColor"/>
</g>
<g transform="translate(24.0101, 6.4762)">
<rect x="-0.0605" y="-0.2629" width="0.1211" height="2.6629" ry="0.0400" fill="currentColor"/>
</g>
<a style="color:inherit;" xlink:href="textedit:///Users/tomsegarra/Downloads/dummies/lilypond_files/39f4b9343d62554d7b9098725bd2a238.ly:22:17:25">
<g transform="translate(30.0545, 6.8762)">
<path transform="scale(0.0032, -0.0032)" d="M212 138c68 0 113 -38 113 -95c0 -90 -109 -181 -212 -181c-68 0 -113 38 -113 95c0 90 109 181 212 181z" fill="currentColor"/>
</g>
</a>
<a style="color:inherit;" xlink:href="textedit:///Users/tomsegarra/Downloads/dummies/lilypond_files/39f4b9343d62554d7b9098725bd2a238.ly:25:12:20">
<g transform="translate(30.1310, 11.9762)">
<text font-family="serif" font-size="1.9756" text-anchor="start" fill="currentColor">
<tspan>a</tspan>
</text>
</g>
</a>
<g transform="translate(31.0346, 6.4762)">
<rect x="-0.0605" y="-2.2620" width="0.1211" height="2.5250" ry="0.0400" fill="currentColor"/>
</g>
<a style="color:inherit;" xlink:href="textedit:///Users/tomsegarra/Downloads/dummies/lilypond_files/39f4b9343d62554d7b9098725bd2a238.ly:25:1:9">
<g transform="translate(22.3188, 11.9762)">
<text font-family="serif" font-size="1.9756" text-anchor="start" fill="currentColor">
<tspan>Don't</tspan>
</text>
</g>
</a>
<a style="color:inherit;" xlink:href="textedit:///Users/tomsegarra/Downloads/dummies/lilypond_files/39f4b9343d62554d7b9098725bd2a238.ly:22:19:27">
<g transform="translate(32.2952, 6.8762)">
<path transform="scale(0.0032, -0.0032)" d="M212 138c68 0 113 -38 113 -95c0 -90 -109 -181 -212 -181c-68 0 -113 38 -113 95c0 90 109 181 212 181z" fill="currentColor"/>
</g>
</a>
<a style="color:inherit;" xlink:href="textedit:///Users/tomsegarra/Downloads/dummies/lilypond_files/39f4b9343d62554d7b9098725bd2a238.ly:25:17:25">
<g transform="translate(31.8254, 11.9762)">
<text font-family="serif" font-size="1.9756" text-anchor="start" fill="currentColor">
<tspan>ny</tspan>
</text>
</g>
</a>
<g transform="translate(33.2753, 6.4762)">
<rect x="-0.0605" y="-2.4000" width="0.1211" height="2.6629" ry="0.0400" fill="currentColor"/>
</g>
<a style="color:inherit;" xlink:href="textedit:///Users/tomsegarra/Downloads/dummies/lilypond_files/39f4b9343d62554d7b9098725bd2a238.ly:22:7:15">
<g transform="translate(23.9495, 6.0762)">
<path transform="scale(0.0032, -0.0032)" d="M212 138c68 0 113 -38 113 -95c0 -90 -109 -181 -212 -181c-68 0 -113 38 -113 95c0 90 109 181 212 181z" fill="currentColor"/>
</g>
</a>
</svg>
