<?xml version="1.0" encoding="UTF-8" standalone="no"?>
<svg
   version="1.2"
   width="103.51192mm"
   height="16.428785mm"
   viewBox="0 0 58.903139 9.348886"
   id="svg346"
   sodipodi:docname="3a00ad4973cf4f44e05dd01ecb2c2c9f.svg"
   xmlns:inkscape="http://www.inkscape.org/namespaces/inkscape"
   xmlns:sodipodi="http://sodipodi.sourceforge.net/DTD/sodipodi-0.dtd"
   xmlns:xlink="http://www.w3.org/1999/xlink"
   xmlns="http://www.w3.org/2000/svg"
   xmlns:svg="http://www.w3.org/2000/svg">
  <defs
     id="defs350" />
  <sodipodi:namedview
     id="namedview348"
     pagecolor="#ffffff"
     bordercolor="#000000"
     borderopacity="0.25"
     inkscape:showpageshadow="2"
     inkscape:pageopacity="0.0"
     inkscape:pagecheckerboard="0"
     inkscape:deskcolor="#d1d1d1"
     inkscape:document-units="mm" />
  <style
     type="text/css"
     id="style2"><![CDATA[
tspan { white-space: pre; }
]]></style>
  <g
     transform="translate(-4.1355332e-4,5.1)"
     id="g6">
    <line
       stroke-linejoin="round"
       stroke-linecap="round"
       stroke-width="0.0949"
       stroke="currentColor"
       x1="0.047400001"
       y1="0"
       x2="58.856499"
       y2="0"
       id="line4" />
  </g>
  <g
     transform="translate(-4.1355332e-4,4.25)"
     id="g10">
    <line
       stroke-linejoin="round"
       stroke-linecap="round"
       stroke-width="0.0949"
       stroke="currentColor"
       x1="0.047400001"
       y1="0"
       x2="58.856499"
       y2="0"
       id="line8" />
  </g>
  <g
     transform="translate(-4.1355332e-4,3.4)"
     id="g14">
    <line
       stroke-linejoin="round"
       stroke-linecap="round"
       stroke-width="0.0949"
       stroke="currentColor"
       x1="0.047400001"
       y1="0"
       x2="58.856499"
       y2="0"
       id="line12" />
  </g>
  <g
     transform="translate(-4.1355332e-4,2.55)"
     id="g18">
    <line
       stroke-linejoin="round"
       stroke-linecap="round"
       stroke-width="0.0949"
       stroke="currentColor"
       x1="0.047400001"
       y1="0"
       x2="58.856499"
       y2="0"
       id="line16" />
  </g>
  <g
     transform="translate(-4.1355332e-4,1.7)"
     id="g22">
    <line
       stroke-linejoin="round"
       stroke-linecap="round"
       stroke-width="0.0949"
       stroke="currentColor"
       x1="0.047400001"
       y1="0"
       x2="58.856499"
       y2="0"
       id="line20" />
  </g>
  <g
     transform="translate(55.773286,3.4)"
     id="g26">
    <rect
       x="0"
       y="-1.7"
       width="0.1802"
       height="3.4000001"
       ry="0.0000"
       fill="currentColor"
       id="rect24" />
  </g>
  <g
     transform="translate(34.426186,3.4)"
     id="g30">
    <rect
       x="0"
       y="-1.7"
       width="0.1802"
       height="3.4000001"
       ry="0.0000"
       fill="currentColor"
       id="rect28" />
  </g>
  <g
     transform="translate(47.888286,4.9434)"
     id="g34">
    <polygon
       stroke-linejoin="round"
       stroke-linecap="round"
       stroke-width="0.08"
       fill="currentColor"
       stroke="currentColor"
       points="0.04,0.164 0.04,-0.164 2.3907,-0.164 2.3907,0.164 "
       id="polygon32" />
  </g>
  <a
     style="color:inherit"
     xlink:href="textedit:///Users/tomsegarra/Downloads/dummies/lilypond_files/3a00ad4973cf4f44e05dd01ecb2c2c9f.ly:21:23:24"
     id="a40"
     transform="translate(-2.2766136,-3.2762)">
    <g
       transform="translate(52.4723,6.6762)"
       id="g38">
      <path
         stroke-width="0.0759"
         stroke-linejoin="round"
         stroke-linecap="round"
         stroke="currentColor"
         fill="currentColor"
         d="m 0.5537,-2.1663 c 0.6106,-0.5869 1.6967,-0.5869 2.3074,0 v 0 c -0.6107,-0.4731 -1.6968,-0.4731 -2.3074,0 z"
         id="path36" />
    </g>
  </a>
  <a
     style="color:inherit"
     xlink:href="textedit:///Users/tomsegarra/Downloads/dummies/lilypond_files/3a00ad4973cf4f44e05dd01ecb2c2c9f.ly:20:4:5"
     id="a46"
     transform="translate(-2.2766136,-3.2762)">
    <g
       transform="translate(14.9044,6.6762)"
       id="g44">
      <path
         transform="scale(0.0034,-0.0034)"
         d="m 70,205 c 80,0 46,-97 90,-97 15,0 52,45 59,59 6,13 26,13 31,0 L 129,-250 c -9,-7 -19,-11 -30,-11 -11,0 -21,4 -30,11 L 187,76 C 154,64 119,54 84,54 37,54 -3,88 -3,133 c 0,40 33,72 73,72 z"
         fill="currentColor"
         id="path42" />
    </g>
  </a>
  <g
     transform="translate(0.79958645,4.25)"
     id="g50">
    <path
       transform="scale(0.0034,-0.0034)"
       d="m 646,2 c 0,-113 -74,-213 -180,-247 3,-34 5,-68 5,-102 0,-20 -1,-40 -2,-60 -7,-121 -91,-228 -209,-228 -108,0 -196,87 -196,196 0,58 53,104 112,104 54,0 95,-48 95,-104 0,-52 -43,-95 -95,-95 -10,0 -20,2 -29,6 26,-38 68,-63 116,-63 h 3 c 93,2 153,92 159,190 1,19 2,37 2,56 0,30 -2,60 -4,90 -5,-1 -43,-8 -88,-8 -194,0 -333,180 -333,375 0,177 130,307 246,442 -31,98 -53,170 -53,347 0,115 55,223 148,290 7,5 16,4 22,-1 68,-80 134,-243 134,-357 0,-143 -85,-255 -178,-364 21,-68 40,-137 57,-206 1,0 5,1 11,1 C 545,264 646,135 646,2 Z M 462,-202 c 66,24 111,88 111,162 0,89 -65,178 -170,190 28,-135 50,-272 59,-352 z M 75,26 c 0,-145 141,-245 263,-245 1,0 46,0 81,6 -7,65 -27,206 -61,363 -79,-8 -124,-61 -124,-119 0,-43 25,-89 80,-121 5,-5 7,-11 7,-16 0,-12 -10,-23 -22,-23 -16,0 -127,63 -127,188 0,89 58,175 161,198 -14,58 -29,116 -46,173 C 181,308 75,186 75,26 Z M 406,1042 C 307,995 244,894 244,785 c 0,-49 13,-111 38,-191 79,97 144,199 144,324 0,33 0,63 -20,124 z"
       fill="currentColor"
       id="path48" />
  </g>
  <a
     style="color:inherit"
     xlink:href="textedit:///Users/tomsegarra/Downloads/dummies/lilypond_files/3a00ad4973cf4f44e05dd01ecb2c2c9f.ly:19:4:5"
     id="a68"
     transform="translate(-2.2766136,-3.2762)">
    <g
       transform="translate(6.5762,4.9762)"
       id="g54">
      <path
         transform="scale(0.0034,-0.0034)"
         d="m 0,117 c 0,9 6,18 15,21 l 43,16 v 157 c 0,11 8,19 19,19 11,0 20,-8 20,-19 V 169 l 81,30 v 156 c 0,11 9,20 20,20 11,0 19,-9 19,-20 V 213 l 28,11 c 3,1 5,1 8,1 12,0 22,-10 22,-23 v -57 c 0,-9 -6,-18 -15,-21 L 217,108 V -49 l 28,10 c 3,1 5,1 8,1 12,0 22,-9 22,-22 v -57 c 0,-9 -6,-18 -15,-21 l -43,-16 v -157 c 0,-11 -8,-19 -19,-19 -11,0 -20,8 -20,19 v 142 l -81,-30 v -156 c 0,-11 -9,-20 -20,-20 -11,0 -19,9 -19,20 v 142 l -28,-11 c -3,-1 -5,-1 -8,-1 -12,0 -22,10 -22,23 v 57 c 0,9 6,18 15,21 l 43,16 V 49 L 30,39 C 27,38 25,38 22,38 10,38 0,47 0,60 Z M 178,94 97,64 V -94 l 81,30 z"
         fill="currentColor"
         id="path52" />
    </g>
    <g
       transform="translate(7.5112,6.2512)"
       id="g58">
      <path
         transform="scale(0.0034,-0.0034)"
         d="m 0,117 c 0,9 6,18 15,21 l 43,16 v 157 c 0,11 8,19 19,19 11,0 20,-8 20,-19 V 169 l 81,30 v 156 c 0,11 9,20 20,20 11,0 19,-9 19,-20 V 213 l 28,11 c 3,1 5,1 8,1 12,0 22,-10 22,-23 v -57 c 0,-9 -6,-18 -15,-21 L 217,108 V -49 l 28,10 c 3,1 5,1 8,1 12,0 22,-9 22,-22 v -57 c 0,-9 -6,-18 -15,-21 l -43,-16 v -157 c 0,-11 -8,-19 -19,-19 -11,0 -20,8 -20,19 v 142 l -81,-30 v -156 c 0,-11 -9,-20 -20,-20 -11,0 -19,9 -19,20 v 142 l -28,-11 c -3,-1 -5,-1 -8,-1 -12,0 -22,10 -22,23 v 57 c 0,9 6,18 15,21 l 43,16 V 49 L 30,39 C 27,38 25,38 22,38 10,38 0,47 0,60 Z M 178,94 97,64 V -94 l 81,30 z"
         fill="currentColor"
         id="path56" />
    </g>
    <g
       transform="translate(8.4462,4.5512)"
       id="g62">
      <path
         transform="scale(0.0034,-0.0034)"
         d="m 0,117 c 0,9 6,18 15,21 l 43,16 v 157 c 0,11 8,19 19,19 11,0 20,-8 20,-19 V 169 l 81,30 v 156 c 0,11 9,20 20,20 11,0 19,-9 19,-20 V 213 l 28,11 c 3,1 5,1 8,1 12,0 22,-10 22,-23 v -57 c 0,-9 -6,-18 -15,-21 L 217,108 V -49 l 28,10 c 3,1 5,1 8,1 12,0 22,-9 22,-22 v -57 c 0,-9 -6,-18 -15,-21 l -43,-16 v -157 c 0,-11 -8,-19 -19,-19 -11,0 -20,8 -20,19 v 142 l -81,-30 v -156 c 0,-11 -9,-20 -20,-20 -11,0 -19,9 -19,20 v 142 l -28,-11 c -3,-1 -5,-1 -8,-1 -12,0 -22,10 -22,23 v 57 c 0,9 6,18 15,21 l 43,16 V 49 L 30,39 C 27,38 25,38 22,38 10,38 0,47 0,60 Z M 178,94 97,64 V -94 l 81,30 z"
         fill="currentColor"
         id="path60" />
    </g>
    <g
       transform="translate(9.3812,5.8262)"
       id="g66">
      <path
         transform="scale(0.0034,-0.0034)"
         d="m 0,117 c 0,9 6,18 15,21 l 43,16 v 157 c 0,11 8,19 19,19 11,0 20,-8 20,-19 V 169 l 81,30 v 156 c 0,11 9,20 20,20 11,0 19,-9 19,-20 V 213 l 28,11 c 3,1 5,1 8,1 12,0 22,-10 22,-23 v -57 c 0,-9 -6,-18 -15,-21 L 217,108 V -49 l 28,10 c 3,1 5,1 8,1 12,0 22,-9 22,-22 v -57 c 0,-9 -6,-18 -15,-21 l -43,-16 v -157 c 0,-11 -8,-19 -19,-19 -11,0 -20,8 -20,19 v 142 l -81,-30 v -156 c 0,-11 -9,-20 -20,-20 -11,0 -19,9 -19,20 v 142 l -28,-11 c -3,-1 -5,-1 -8,-1 -12,0 -22,10 -22,23 v 57 c 0,9 6,18 15,21 l 43,16 V 49 L 30,39 C 27,38 25,38 22,38 10,38 0,47 0,60 Z M 178,94 97,64 V -94 l 81,30 z"
         fill="currentColor"
         id="path64" />
    </g>
  </a>
  <g
     transform="translate(9.1896864,3.4)"
     id="g72">
    <path
       transform="scale(0.0034,-0.0034)"
       d="m 358,29 c -30,0 -74,23 -74,73 0,38 27,76 71,76 4,0 7,0 11,-1 -27,36 -69,59 -116,59 -106,0 -113,-74 -113,-188 0,-15 1,-31 1,-48 0,-17 -1,-33 -1,-48 0,-114 7,-188 113,-188 79,0 136,70 155,150 2,7 7,10 13,10 7,0 14,-5 14,-13 0,-21 -50,-175 -182,-175 C 191,-264 0,-244 0,0 0,63 18,264 250,264 365,264 424,155 424,99 424,60 394,29 358,29 Z"
       fill="currentColor"
       id="path70" />
  </g>
  <g
     transform="translate(35.636286,5.2566)"
     id="g76">
    <polygon
       stroke-linejoin="round"
       stroke-linecap="round"
       stroke-width="0.08"
       fill="currentColor"
       stroke="currentColor"
       points="0.04,0.164 0.04,-0.164 10.0279,-0.164 10.0279,0.164 "
       id="polygon74" />
  </g>
  <a
     style="color:inherit"
     xlink:href="textedit:///Users/tomsegarra/Downloads/dummies/lilypond_files/3a00ad4973cf4f44e05dd01ecb2c2c9f.ly:20:7:8"
     id="a82"
     transform="translate(-2.2766136,-3.2762)">
    <g
       transform="translate(16.9544,4.5512)"
       id="g80">
      <path
         transform="scale(0.0034,-0.0034)"
         d="m 215,137 c 67,0 111,-37 111,-92 0,-90 -111,-182 -215,-182 -67,0 -111,37 -111,92 0,90 111,182 215,182 z"
         fill="currentColor"
         id="path78" />
    </g>
  </a>
  <a
     style="color:inherit"
     xlink:href="textedit:///Users/tomsegarra/Downloads/dummies/lilypond_files/3a00ad4973cf4f44e05dd01ecb2c2c9f.ly:24:1:9"
     id="a90"
     transform="translate(-2.2766136,-3.2762)">
    <g
       transform="translate(15.1181,12.1762)"
       id="g88">
      <text
         font-family="serif"
         font-size="2.0989px"
         text-anchor="start"
         fill="currentColor"
         id="text86"><tspan
           id="tspan84">Some</tspan></text>
    </g>
  </a>
  <g
     transform="translate(14.739486,3.4)"
     id="g94">
    <rect
       x="-0.061700001"
       y="-1.9725"
       width="0.1233"
       height="2.6659999"
       ry="0.039999999"
       fill="currentColor"
       id="rect92" />
  </g>
  <a
     style="color:inherit"
     xlink:href="textedit:///Users/tomsegarra/Downloads/dummies/lilypond_files/3a00ad4973cf4f44e05dd01ecb2c2c9f.ly:24:51:59"
     id="a100"
     transform="translate(-2.2766136,-3.2762)">
    <g
       transform="translate(51.4567,12.1762)"
       id="g98">
      <rect
         x="0"
         y="-0.54329997"
         width="0.66000003"
         height="0.1233"
         ry="0.037900001"
         fill="currentColor"
         id="rect96" />
    </g>
  </a>
  <a
     style="color:inherit"
     xlink:href="textedit:///Users/tomsegarra/Downloads/dummies/lilypond_files/3a00ad4973cf4f44e05dd01ecb2c2c9f.ly:20:14:15"
     id="a106"
     transform="translate(-2.2766136,-3.2762)">
    <g
       transform="translate(21.715,4.5512)"
       id="g104">
      <path
         transform="scale(0.0034,-0.0034)"
         d="m 215,137 c 67,0 111,-37 111,-92 0,-90 -111,-182 -215,-182 -67,0 -111,37 -111,92 0,90 111,182 215,182 z"
         fill="currentColor"
         id="path102" />
    </g>
  </a>
  <a
     style="color:inherit"
     xlink:href="textedit:///Users/tomsegarra/Downloads/dummies/lilypond_files/3a00ad4973cf4f44e05dd01ecb2c2c9f.ly:24:9:17"
     id="a114"
     transform="translate(-2.2766136,-3.2762)">
    <g
       transform="translate(19.9981,12.1762)"
       id="g112">
      <text
         font-family="serif"
         font-size="2.0989px"
         text-anchor="start"
         fill="currentColor"
         id="text110"><tspan
           id="tspan108">times</tspan></text>
    </g>
  </a>
  <g
     transform="translate(19.499986,3.4)"
     id="g118">
    <rect
       x="-0.061700001"
       y="-1.9725"
       width="0.1233"
       height="2.6659999"
       ry="0.039999999"
       fill="currentColor"
       id="rect116" />
  </g>
  <a
     style="color:inherit"
     xlink:href="textedit:///Users/tomsegarra/Downloads/dummies/lilypond_files/3a00ad4973cf4f44e05dd01ecb2c2c9f.ly:21:17:18"
     id="a124"
     transform="translate(-2.2766136,-3.2762)">
    <g
       transform="translate(47.8575,6.6762)"
       id="g122">
      <path
         stroke-width="0.0759"
         stroke-linejoin="round"
         stroke-linecap="round"
         stroke="currentColor"
         fill="currentColor"
         d="m 0.6206,-2.5913 c 0.7164,-0.4725 1.8062,-0.2718 2.3073,0.425 v 0 C 2.4062,-2.7511 1.3164,-2.9518 0.6206,-2.5913 Z"
         id="path120" />
    </g>
  </a>
  <a
     style="color:inherit"
     xlink:href="textedit:///Users/tomsegarra/Downloads/dummies/lilypond_files/3a00ad4973cf4f44e05dd01ecb2c2c9f.ly:20:18:19"
     id="a130"
     transform="translate(-2.2766136,-3.2762)">
    <g
       transform="translate(24.7769,4.5512)"
       id="g128">
      <path
         transform="scale(0.0034,-0.0034)"
         d="m 215,137 c 67,0 111,-37 111,-92 0,-90 -111,-182 -215,-182 -67,0 -111,37 -111,92 0,90 111,182 215,182 z"
         fill="currentColor"
         id="path126" />
    </g>
  </a>
  <a
     style="color:inherit"
     xlink:href="textedit:///Users/tomsegarra/Downloads/dummies/lilypond_files/3a00ad4973cf4f44e05dd01ecb2c2c9f.ly:24:15:23"
     id="a138"
     transform="translate(-2.2766136,-3.2762)">
    <g
       transform="translate(24.9892,12.1762)"
       id="g136">
      <text
         font-family="serif"
         font-size="2.0989px"
         text-anchor="start"
         fill="currentColor"
         id="text134"><tspan
           id="tspan132">I</tspan></text>
    </g>
  </a>
  <g
     transform="translate(22.561986,3.4)"
     id="g142">
    <rect
       x="-0.061700001"
       y="-1.9725"
       width="0.1233"
       height="2.6659999"
       ry="0.039999999"
       fill="currentColor"
       id="rect140" />
  </g>
  <a
     style="color:inherit"
     xlink:href="textedit:///Users/tomsegarra/Downloads/dummies/lilypond_files/3a00ad4973cf4f44e05dd01ecb2c2c9f.ly:20:22:23"
     id="a148"
     transform="translate(-2.2766136,-3.2762)">
    <g
       transform="translate(27.0843,4.9762)"
       id="g146">
      <path
         transform="scale(0.0034,-0.0034)"
         d="m 215,137 c 67,0 111,-37 111,-92 0,-90 -111,-182 -215,-182 -67,0 -111,37 -111,92 0,90 111,182 215,182 z"
         fill="currentColor"
         id="path144" />
    </g>
  </a>
  <a
     style="color:inherit"
     xlink:href="textedit:///Users/tomsegarra/Downloads/dummies/lilypond_files/3a00ad4973cf4f44e05dd01ecb2c2c9f.ly:24:17:25"
     id="a156"
     transform="translate(-2.2766136,-3.2762)">
    <g
       transform="translate(26.8356,12.1762)"
       id="g154">
      <text
         font-family="serif"
         font-size="2.0989px"
         text-anchor="start"
         fill="currentColor"
         id="text152"><tspan
           id="tspan150">fe</tspan></text>
    </g>
  </a>
  <g
     transform="translate(24.869386,3.4)"
     id="g160">
    <rect
       x="-0.061700001"
       y="-1.5475"
       width="0.1233"
       height="3.0978999"
       ry="0.039999999"
       fill="currentColor"
       id="rect158" />
  </g>
  <a
     style="color:inherit"
     xlink:href="textedit:///Users/tomsegarra/Downloads/dummies/lilypond_files/3a00ad4973cf4f44e05dd01ecb2c2c9f.ly:20:26:27"
     id="a166"
     transform="translate(-2.2766136,-3.2762)">
    <g
       transform="translate(29.3917,5.4012)"
       id="g164">
      <path
         transform="scale(0.0034,-0.0034)"
         d="m 215,137 c 67,0 111,-37 111,-92 0,-90 -111,-182 -215,-182 -67,0 -111,37 -111,92 0,90 111,182 215,182 z"
         fill="currentColor"
         id="path162" />
    </g>
  </a>
  <a
     style="color:inherit"
     xlink:href="textedit:///Users/tomsegarra/Downloads/dummies/lilypond_files/3a00ad4973cf4f44e05dd01ecb2c2c9f.ly:24:23:31"
     id="a174"
     transform="translate(-2.2766136,-3.2762)">
    <g
       transform="translate(29.1942,12.1762)"
       id="g172">
      <text
         font-family="serif"
         font-size="2.0989px"
         text-anchor="start"
         fill="currentColor"
         id="text170"><tspan
           id="tspan168">el</tspan></text>
    </g>
  </a>
  <g
     transform="translate(27.176786,3.4)"
     id="g178">
    <rect
       x="-0.061700001"
       y="-1.1224999"
       width="0.1233"
       height="2.9322"
       ry="0.039999999"
       fill="currentColor"
       id="rect176" />
  </g>
  <a
     style="color:inherit"
     xlink:href="textedit:///Users/tomsegarra/Downloads/dummies/lilypond_files/3a00ad4973cf4f44e05dd01ecb2c2c9f.ly:20:28:29"
     id="a184"
     transform="translate(-2.2766136,-3.2762)">
    <g
       transform="translate(32.1635,5.4012)"
       id="g182">
      <path
         transform="scale(0.0034,-0.0034)"
         d="m 215,137 c 67,0 111,-37 111,-92 0,-90 -111,-182 -215,-182 -67,0 -111,37 -111,92 0,90 111,182 215,182 z"
         fill="currentColor"
         id="path180" />
    </g>
  </a>
  <a
     style="color:inherit"
     xlink:href="textedit:///Users/tomsegarra/Downloads/dummies/lilypond_files/3a00ad4973cf4f44e05dd01ecb2c2c9f.ly:24:26:34"
     id="a192"
     transform="translate(-2.2766136,-3.2762)">
    <g
       transform="translate(31.1466,12.1762)"
       id="g190">
      <text
         font-family="serif"
         font-size="2.0989px"
         text-anchor="start"
         fill="currentColor"
         id="text188"><tspan
           id="tspan186">like</tspan></text>
    </g>
  </a>
  <g
     transform="translate(29.948486,3.4)"
     id="g196">
    <rect
       x="-0.061700001"
       y="-1.1224999"
       width="0.1233"
       height="3.2435999"
       ry="0.039999999"
       fill="currentColor"
       id="rect194" />
  </g>
  <g
     transform="translate(24.807686,4.9434)"
     id="g200">
    <polygon
       stroke-linejoin="round"
       stroke-linecap="round"
       stroke-width="0.08"
       fill="currentColor"
       stroke="currentColor"
       points="0.04,0.164 0.04,-0.164 7.5245,0.686 7.5245,1.014 "
       id="polygon198" />
  </g>
  <a
     style="color:inherit"
     xlink:href="textedit:///Users/tomsegarra/Downloads/dummies/lilypond_files/3a00ad4973cf4f44e05dd01ecb2c2c9f.ly:20:30:31"
     id="a206"
     transform="translate(-2.2766136,-3.2762)">
    <g
       transform="translate(34.5255,6.6762)"
       id="g204">
      <path
         transform="scale(0.0034,-0.0034)"
         d="m 215,137 c 67,0 111,-37 111,-92 0,-90 -111,-182 -215,-182 -67,0 -111,37 -111,92 0,90 111,182 215,182 z"
         fill="currentColor"
         id="path202" />
    </g>
  </a>
  <a
     style="color:inherit"
     xlink:href="textedit:///Users/tomsegarra/Downloads/dummies/lilypond_files/3a00ad4973cf4f44e05dd01ecb2c2c9f.ly:24:31:39"
     id="a214"
     transform="translate(-2.2766136,-3.2762)">
    <g
       transform="translate(34.7377,12.1762)"
       id="g212">
      <text
         font-family="serif"
         font-size="2.0989px"
         text-anchor="start"
         fill="currentColor"
         id="text210"><tspan
           id="tspan208">I</tspan></text>
    </g>
  </a>
  <g
     transform="translate(32.310486,3.4)"
     id="g218">
    <rect
       x="-0.061700001"
       y="0.1525"
       width="0.1233"
       height="2.234"
       ry="0.039999999"
       fill="currentColor"
       id="rect216" />
  </g>
  <a
     style="color:inherit"
     xlink:href="textedit:///Users/tomsegarra/Downloads/dummies/lilypond_files/3a00ad4973cf4f44e05dd01ecb2c2c9f.ly:21:4:5"
     id="a224"
     transform="translate(-2.2766136,-3.2762)">
    <g
       transform="translate(37.9129,6.2512)"
       id="g222">
      <path
         transform="scale(0.0034,-0.0034)"
         d="m 215,137 c 67,0 111,-37 111,-92 0,-90 -111,-182 -215,-182 -67,0 -111,37 -111,92 0,90 111,182 215,182 z"
         fill="currentColor"
         id="path220" />
    </g>
  </a>
  <a
     style="color:inherit"
     xlink:href="textedit:///Users/tomsegarra/Downloads/dummies/lilypond_files/3a00ad4973cf4f44e05dd01ecb2c2c9f.ly:24:33:41"
     id="a232"
     transform="translate(-2.2766136,-3.2762)">
    <g
       transform="translate(36.4009,12.1762)"
       id="g230">
      <text
         font-family="serif"
         font-size="2.0989px"
         text-anchor="start"
         fill="currentColor"
         id="text228"><tspan
           id="tspan226">don't</tspan></text>
    </g>
  </a>
  <g
     transform="translate(35.697986,3.4)"
     id="g236">
    <rect
       x="-0.061700001"
       y="-0.27250001"
       width="0.1233"
       height="2.1291001"
       ry="0.039999999"
       fill="currentColor"
       id="rect234" />
  </g>
  <a
     style="color:inherit"
     xlink:href="textedit:///Users/tomsegarra/Downloads/dummies/lilypond_files/3a00ad4973cf4f44e05dd01ecb2c2c9f.ly:21:8:9"
     id="a242"
     transform="translate(-2.2766136,-3.2762)">
    <g
       transform="translate(42.4089,5.4012)"
       id="g240">
      <path
         transform="scale(0.0034,-0.0034)"
         d="m 215,137 c 67,0 111,-37 111,-92 0,-90 -111,-182 -215,-182 -67,0 -111,37 -111,92 0,90 111,182 215,182 z"
         fill="currentColor"
         id="path238" />
    </g>
  </a>
  <a
     style="color:inherit"
     xlink:href="textedit:///Users/tomsegarra/Downloads/dummies/lilypond_files/3a00ad4973cf4f44e05dd01ecb2c2c9f.ly:24:39:47"
     id="a250"
     transform="translate(-2.2766136,-3.2762)">
    <g
       transform="translate(40.9823,12.1762)"
       id="g248">
      <text
         font-family="serif"
         font-size="2.0989px"
         text-anchor="start"
         fill="currentColor"
         id="text246"><tspan
           id="tspan244">have</tspan></text>
    </g>
  </a>
  <g
     transform="translate(40.193886,3.4)"
     id="g254">
    <rect
       x="-0.061700001"
       y="-1.1224999"
       width="0.1233"
       height="2.9791"
       ry="0.039999999"
       fill="currentColor"
       id="rect252" />
  </g>
  <g
     transform="translate(14.677786,4.0934)"
     id="g258">
    <polygon
       stroke-linejoin="round"
       stroke-linecap="round"
       stroke-width="0.08"
       fill="currentColor"
       stroke="currentColor"
       points="0.04,0.164 0.04,-0.164 7.9058,-0.164 7.9058,0.164 "
       id="polygon256" />
  </g>
  <a
     style="color:inherit"
     xlink:href="textedit:///Users/tomsegarra/Downloads/dummies/lilypond_files/3a00ad4973cf4f44e05dd01ecb2c2c9f.ly:21:10:11"
     id="a264"
     transform="translate(-2.2766136,-3.2762)">
    <g
       transform="translate(45.3001,6.2512)"
       id="g262">
      <path
         transform="scale(0.0034,-0.0034)"
         d="m 215,137 c 67,0 111,-37 111,-92 0,-90 -111,-182 -215,-182 -67,0 -111,37 -111,92 0,90 111,182 215,182 z"
         fill="currentColor"
         id="path260" />
    </g>
  </a>
  <a
     style="color:inherit"
     xlink:href="textedit:///Users/tomsegarra/Downloads/dummies/lilypond_files/3a00ad4973cf4f44e05dd01ecb2c2c9f.ly:24:44:52"
     id="a272"
     transform="translate(-2.2766136,-3.2762)">
    <g
       transform="translate(45.3929,12.1762)"
       id="g270">
      <text
         font-family="serif"
         font-size="2.0989px"
         text-anchor="start"
         fill="currentColor"
         id="text268"><tspan
           id="tspan266">a</tspan></text>
    </g>
  </a>
  <g
     transform="translate(43.085186,3.4)"
     id="g276">
    <rect
       x="-0.061700001"
       y="-0.27250001"
       width="0.1233"
       height="2.1291001"
       ry="0.039999999"
       fill="currentColor"
       id="rect274" />
  </g>
  <a
     style="color:inherit"
     xlink:href="textedit:///Users/tomsegarra/Downloads/dummies/lilypond_files/3a00ad4973cf4f44e05dd01ecb2c2c9f.ly:24:20:28"
     id="a282"
     transform="translate(-2.2766136,-3.2762)">
    <g
       transform="translate(28.5104,12.1762)"
       id="g280">
      <rect
         x="0"
         y="-0.54329997"
         width="0.61390001"
         height="0.1233"
         ry="0.037900001"
         fill="currentColor"
         id="rect278" />
    </g>
  </a>
  <a
     style="color:inherit"
     xlink:href="textedit:///Users/tomsegarra/Downloads/dummies/lilypond_files/3a00ad4973cf4f44e05dd01ecb2c2c9f.ly:21:14:15"
     id="a288"
     transform="translate(-2.2766136,-3.2762)">
    <g
       transform="translate(47.8575,4.9762)"
       id="g286">
      <path
         transform="scale(0.0034,-0.0034)"
         d="m 215,137 c 67,0 111,-37 111,-92 0,-90 -111,-182 -215,-182 -67,0 -111,37 -111,92 0,90 111,182 215,182 z"
         fill="currentColor"
         id="path284" />
    </g>
  </a>
  <a
     style="color:inherit"
     xlink:href="textedit:///Users/tomsegarra/Downloads/dummies/lilypond_files/3a00ad4973cf4f44e05dd01ecb2c2c9f.ly:24:46:54"
     id="a296"
     transform="translate(-2.2766136,-3.2762)">
    <g
       transform="translate(47.8575,12.1762)"
       id="g294">
      <text
         font-family="serif"
         font-size="2.0989px"
         text-anchor="start"
         fill="currentColor"
         id="text292"><tspan
           id="tspan290">part</tspan></text>
    </g>
  </a>
  <g
     transform="translate(45.642586,3.4)"
     id="g300">
    <rect
       x="-0.061700001"
       y="-1.5475"
       width="0.1233"
       height="3.4040999"
       ry="0.039999999"
       fill="currentColor"
       id="rect298" />
  </g>
  <a
     style="color:inherit"
     xlink:href="textedit:///Users/tomsegarra/Downloads/dummies/lilypond_files/3a00ad4973cf4f44e05dd01ecb2c2c9f.ly:21:19:20"
     id="a306"
     transform="translate(-2.2766136,-3.2762)">
    <g
       transform="translate(50.1649,5.4012)"
       id="g304">
      <path
         transform="scale(0.0034,-0.0034)"
         d="m 215,137 c 67,0 111,-37 111,-92 0,-90 -111,-182 -215,-182 -67,0 -111,37 -111,92 0,90 111,182 215,182 z"
         fill="currentColor"
         id="path302" />
    </g>
  </a>
  <g
     transform="translate(47.949986,3.4)"
     id="g310">
    <rect
       x="-0.061700001"
       y="-1.1224999"
       width="0.1233"
       height="2.6659999"
       ry="0.039999999"
       fill="currentColor"
       id="rect308" />
  </g>
  <a
     style="color:inherit"
     xlink:href="textedit:///Users/tomsegarra/Downloads/dummies/lilypond_files/3a00ad4973cf4f44e05dd01ecb2c2c9f.ly:21:22:23"
     id="a316"
     transform="translate(-2.2766136,-3.2762)">
    <g
       transform="translate(52.4723,5.4012)"
       id="g314">
      <path
         transform="scale(0.0034,-0.0034)"
         d="m 215,137 c 67,0 111,-37 111,-92 0,-90 -111,-182 -215,-182 -67,0 -111,37 -111,92 0,90 111,182 215,182 z"
         fill="currentColor"
         id="path312" />
    </g>
  </a>
  <a
     style="color:inherit"
     xlink:href="textedit:///Users/tomsegarra/Downloads/dummies/lilypond_files/3a00ad4973cf4f44e05dd01ecb2c2c9f.ly:24:54:62"
     id="a324"
     transform="translate(-2.2766136,-3.2762)">
    <g
       transform="translate(52.4723,12.1762)"
       id="g322">
      <text
         font-family="serif"
         font-size="2.0989px"
         text-anchor="start"
         fill="currentColor"
         id="text320"><tspan
           id="tspan318">ner</tspan></text>
    </g>
  </a>
  <g
     transform="translate(50.257286,3.4)"
     id="g328">
    <rect
       x="-0.061700001"
       y="-1.1224999"
       width="0.1233"
       height="2.6659999"
       ry="0.039999999"
       fill="currentColor"
       id="rect326" />
  </g>
  <a
     style="color:inherit"
     xlink:href="textedit:///Users/tomsegarra/Downloads/dummies/lilypond_files/3a00ad4973cf4f44e05dd01ecb2c2c9f.ly:21:25:26"
     id="a334"
     transform="translate(-2.2766136,-3.2762)">
    <g
       transform="translate(54.7797,5.4012)"
       id="g332">
      <path
         transform="scale(0.0034,-0.0034)"
         d="m 215,137 c 67,0 111,-37 111,-92 0,-90 -111,-182 -215,-182 -67,0 -111,37 -111,92 0,90 111,182 215,182 z"
         fill="currentColor"
         id="path330" />
    </g>
  </a>
  <g
     transform="translate(52.564686,3.4)"
     id="g338">
    <rect
       x="-0.061700001"
       y="-1.1224999"
       width="0.1233"
       height="2.8225"
       ry="0.039999999"
       fill="currentColor"
       id="rect336" />
  </g>
  <a
     style="color:inherit"
     xlink:href="textedit:///Users/tomsegarra/Downloads/dummies/lilypond_files/3a00ad4973cf4f44e05dd01ecb2c2c9f.ly:21:29:30"
     id="a344"
     transform="translate(-2.2766136,-3.2762)">
    <g
       transform="translate(59.1301,6.6762)"
       id="g342">
      <path
         transform="scale(0.0034,-0.0034)"
         d="m 70,205 c 80,0 46,-97 90,-97 15,0 52,45 59,59 6,13 26,13 31,0 L 129,-250 c -9,-7 -19,-11 -30,-11 -11,0 -21,4 -30,11 L 187,76 C 154,64 119,54 84,54 37,54 -3,88 -3,133 c 0,40 33,72 73,72 z"
         fill="currentColor"
         id="path340" />
    </g>
  </a>
</svg>
