<svg xmlns="http://www.w3.org/2000/svg" xmlns:xlink="http://www.w3.org/1999/xlink" version="1.2" width="111.43mm" height="297.00mm" viewBox="0.0000 -0.0000 63.4089 169.0094">
<style type="text/css">
<![CDATA[
tspan { white-space: pre; }
]]>
</style>
<g transform="translate(2.2762, 8.3762)">
<line stroke-linejoin="round" stroke-linecap="round" stroke-width="0.0949" stroke="currentColor" x1="0.0474" y1="0" x2="58.8565" y2="0"/>
</g>
<g transform="translate(2.2762, 7.5262)">
<line stroke-linejoin="round" stroke-linecap="round" stroke-width="0.0949" stroke="currentColor" x1="0.0474" y1="0" x2="58.8565" y2="0"/>
</g>
<g transform="translate(2.2762, 6.6762)">
<line stroke-linejoin="round" stroke-linecap="round" stroke-width="0.0949" stroke="currentColor" x1="0.0474" y1="0" x2="58.8565" y2="0"/>
</g>
<g transform="translate(2.2762, 5.8262)">
<line stroke-linejoin="round" stroke-linecap="round" stroke-width="0.0949" stroke="currentColor" x1="0.0474" y1="0" x2="58.8565" y2="0"/>
</g>
<g transform="translate(2.2762, 4.9762)">
<line stroke-linejoin="round" stroke-linecap="round" stroke-width="0.0949" stroke="currentColor" x1="0.0474" y1="0" x2="58.8565" y2="0"/>
</g>
<g transform="translate(58.0499, 6.6762)">
<rect x="0.0000" y="-1.7000" width="0.1802" height="3.4000" ry="0.0000" fill="currentColor"/>
</g>
<g transform="translate(36.7028, 6.6762)">
<rect x="0.0000" y="-1.7000" width="0.1802" height="3.4000" ry="0.0000" fill="currentColor"/>
</g>
<g transform="translate(50.1649, 8.2196)">
<polygon stroke-linejoin="round" stroke-linecap="round" stroke-width="0.0800" fill="currentColor" stroke="currentColor" points="2.3907 -0.1640 2.3907 0.1640 0.0400 0.1640 0.0400 -0.1640"/>
</g>
<a style="color:inherit;" xlink:href="textedit:///Users/tomsegarra/Downloads/dummies/lilypond_files/3a00ad4973cf4f44e05dd01ecb2c2c9f.ly:21:23:24">
<g transform="translate(52.4723, 6.6762)">
<path stroke-width="0.0759" stroke-linejoin="round" stroke-linecap="round" stroke="currentColor" fill="currentColor" d="M0.5537 -2.1663C1.1643 -2.7532 2.2504 -2.7532 2.8611 -2.1663L2.8611 -2.1663C2.2504 -2.6394 1.1643 -2.6394 0.5537 -2.1663z"/>
</g>
</a>
<a style="color:inherit;" xlink:href="textedit:///Users/tomsegarra/Downloads/dummies/lilypond_files/3a00ad4973cf4f44e05dd01ecb2c2c9f.ly:20:4:5">
<g transform="translate(14.9044, 6.6762)">
<path transform="scale(0.0034, -0.0034)" d="M70 205c80 0 46 -97 90 -97c15 0 52 45 59 59c6 13 26 13 31 0l-121 -417c-9 -7 -19 -11 -30 -11s-21 4 -30 11l118 326c-33 -12 -68 -22 -103 -22c-47 0 -87 34 -87 79c0 40 33 72 73 72z" fill="currentColor"/>
</g>
</a>
<g transform="translate(3.0762, 7.5262)">
<path transform="scale(0.0034, -0.0034)" d="M646 2c0 -113 -74 -213 -180 -247c3 -34 5 -68 5 -102c0 -20 -1 -40 -2 -60c-7 -121 -91 -228 -209 -228c-108 0 -196 87 -196 196c0 58 53 104 112 104c54 0 95 -48 95 -104c0 -52 -43 -95 -95 -95c-10 0 -20 2 -29 6c26 -38 68 -63 116 -63h3c93 2 153 92 159 190
c1 19 2 37 2 56c0 30 -2 60 -4 90c-5 -1 -43 -8 -88 -8c-194 0 -333 180 -333 375c0 177 130 307 246 442c-31 98 -53 170 -53 347c0 115 55 223 148 290c7 5 16 4 22 -1c68 -80 134 -243 134 -357c0 -143 -85 -255 -178 -364c21 -68 40 -137 57 -206c1 0 5 1 11 1
c156 0 257 -129 257 -262zM462 -202c66 24 111 88 111 162c0 89 -65 178 -170 190c28 -135 50 -272 59 -352zM75 26c0 -145 141 -245 263 -245c1 0 46 0 81 6c-7 65 -27 206 -61 363c-79 -8 -124 -61 -124 -119c0 -43 25 -89 80 -121c5 -5 7 -11 7 -16
c0 -12 -10 -23 -22 -23c-16 0 -127 63 -127 188c0 89 58 175 161 198c-14 58 -29 116 -46 173c-106 -122 -212 -244 -212 -404zM406 1042c-99 -47 -162 -148 -162 -257c0 -49 13 -111 38 -191c79 97 144 199 144 324c0 33 0 63 -20 124z" fill="currentColor"/>
</g>
<a style="color:inherit;" xlink:href="textedit:///Users/tomsegarra/Downloads/dummies/lilypond_files/3a00ad4973cf4f44e05dd01ecb2c2c9f.ly:19:4:5">
<g transform="translate(6.5762, 4.9762)">
<path transform="scale(0.0034, -0.0034)" d="M0 117c0 9 6 18 15 21l43 16v157c0 11 8 19 19 19s20 -8 20 -19v-142l81 30v156c0 11 9 20 20 20s19 -9 19 -20v-142l28 11c3 1 5 1 8 1c12 0 22 -10 22 -23v-57c0 -9 -6 -18 -15 -21l-43 -16v-157l28 10c3 1 5 1 8 1c12 0 22 -9 22 -22v-57c0 -9 -6 -18 -15 -21l-43 -16
v-157c0 -11 -8 -19 -19 -19s-20 8 -20 19v142l-81 -30v-156c0 -11 -9 -20 -20 -20s-19 9 -19 20v142l-28 -11c-3 -1 -5 -1 -8 -1c-12 0 -22 10 -22 23v57c0 9 6 18 15 21l43 16v157l-28 -10c-3 -1 -5 -1 -8 -1c-12 0 -22 9 -22 22v57zM178 94l-81 -30v-158l81 30v158z" fill="currentColor"/>
</g>
<g transform="translate(7.5112, 6.2512)">
<path transform="scale(0.0034, -0.0034)" d="M0 117c0 9 6 18 15 21l43 16v157c0 11 8 19 19 19s20 -8 20 -19v-142l81 30v156c0 11 9 20 20 20s19 -9 19 -20v-142l28 11c3 1 5 1 8 1c12 0 22 -10 22 -23v-57c0 -9 -6 -18 -15 -21l-43 -16v-157l28 10c3 1 5 1 8 1c12 0 22 -9 22 -22v-57c0 -9 -6 -18 -15 -21l-43 -16
v-157c0 -11 -8 -19 -19 -19s-20 8 -20 19v142l-81 -30v-156c0 -11 -9 -20 -20 -20s-19 9 -19 20v142l-28 -11c-3 -1 -5 -1 -8 -1c-12 0 -22 10 -22 23v57c0 9 6 18 15 21l43 16v157l-28 -10c-3 -1 -5 -1 -8 -1c-12 0 -22 9 -22 22v57zM178 94l-81 -30v-158l81 30v158z" fill="currentColor"/>
</g>
<g transform="translate(8.4462, 4.5512)">
<path transform="scale(0.0034, -0.0034)" d="M0 117c0 9 6 18 15 21l43 16v157c0 11 8 19 19 19s20 -8 20 -19v-142l81 30v156c0 11 9 20 20 20s19 -9 19 -20v-142l28 11c3 1 5 1 8 1c12 0 22 -10 22 -23v-57c0 -9 -6 -18 -15 -21l-43 -16v-157l28 10c3 1 5 1 8 1c12 0 22 -9 22 -22v-57c0 -9 -6 -18 -15 -21l-43 -16
v-157c0 -11 -8 -19 -19 -19s-20 8 -20 19v142l-81 -30v-156c0 -11 -9 -20 -20 -20s-19 9 -19 20v142l-28 -11c-3 -1 -5 -1 -8 -1c-12 0 -22 10 -22 23v57c0 9 6 18 15 21l43 16v157l-28 -10c-3 -1 -5 -1 -8 -1c-12 0 -22 9 -22 22v57zM178 94l-81 -30v-158l81 30v158z" fill="currentColor"/>
</g>
<g transform="translate(9.3812, 5.8262)">
<path transform="scale(0.0034, -0.0034)" d="M0 117c0 9 6 18 15 21l43 16v157c0 11 8 19 19 19s20 -8 20 -19v-142l81 30v156c0 11 9 20 20 20s19 -9 19 -20v-142l28 11c3 1 5 1 8 1c12 0 22 -10 22 -23v-57c0 -9 -6 -18 -15 -21l-43 -16v-157l28 10c3 1 5 1 8 1c12 0 22 -9 22 -22v-57c0 -9 -6 -18 -15 -21l-43 -16
v-157c0 -11 -8 -19 -19 -19s-20 8 -20 19v142l-81 -30v-156c0 -11 -9 -20 -20 -20s-19 9 -19 20v142l-28 -11c-3 -1 -5 -1 -8 -1c-12 0 -22 10 -22 23v57c0 9 6 18 15 21l43 16v157l-28 -10c-3 -1 -5 -1 -8 -1c-12 0 -22 9 -22 22v57zM178 94l-81 -30v-158l81 30v158z" fill="currentColor"/>
</g>
</a>
<g transform="translate(11.4663, 6.6762)">
<path transform="scale(0.0034, -0.0034)" d="M358 29c-30 0 -74 23 -74 73c0 38 27 76 71 76c4 0 7 0 11 -1c-27 36 -69 59 -116 59c-106 0 -113 -74 -113 -188c0 -15 1 -31 1 -48s-1 -33 -1 -48c0 -114 7 -188 113 -188c79 0 136 70 155 150c2 7 7 10 13 10c7 0 14 -5 14 -13c0 -21 -50 -175 -182 -175
c-59 0 -250 20 -250 264c0 63 18 264 250 264c115 0 174 -109 174 -165c0 -39 -30 -70 -66 -70z" fill="currentColor"/>
</g>
<g transform="translate(37.9129, 8.5328)">
<polygon stroke-linejoin="round" stroke-linecap="round" stroke-width="0.0800" fill="currentColor" stroke="currentColor" points="10.0279 -0.1640 10.0279 0.1640 0.0400 0.1640 0.0400 -0.1640"/>
</g>
<a style="color:inherit;" xlink:href="textedit:///Users/tomsegarra/Downloads/dummies/lilypond_files/3a00ad4973cf4f44e05dd01ecb2c2c9f.ly:20:7:8">
<g transform="translate(16.9544, 4.5512)">
<path transform="scale(0.0034, -0.0034)" d="M215 137c67 0 111 -37 111 -92c0 -90 -111 -182 -215 -182c-67 0 -111 37 -111 92c0 90 111 182 215 182z" fill="currentColor"/>
</g>
</a>
<a style="color:inherit;" xlink:href="textedit:///Users/tomsegarra/Downloads/dummies/lilypond_files/3a00ad4973cf4f44e05dd01ecb2c2c9f.ly:24:1:9">
<g transform="translate(15.1181, 12.1762)">
<text font-family="serif" font-size="2.0989" text-anchor="start" fill="currentColor">
<tspan>Some</tspan>
</text>
</g>
</a>
<g transform="translate(17.0161, 6.6762)">
<rect x="-0.0617" y="-1.9725" width="0.1233" height="2.6660" ry="0.0400" fill="currentColor"/>
</g>
<a style="color:inherit;" xlink:href="textedit:///Users/tomsegarra/Downloads/dummies/lilypond_files/3a00ad4973cf4f44e05dd01ecb2c2c9f.ly:24:51:59">
<g transform="translate(51.4567, 12.1762)">
<rect x="0.0000" y="-0.5433" width="0.6600" height="0.1233" ry="0.0379" fill="currentColor"/>
</g>
</a>
<a style="color:inherit;" xlink:href="textedit:///Users/tomsegarra/Downloads/dummies/lilypond_files/3a00ad4973cf4f44e05dd01ecb2c2c9f.ly:20:14:15">
<g transform="translate(21.7150, 4.5512)">
<path transform="scale(0.0034, -0.0034)" d="M215 137c67 0 111 -37 111 -92c0 -90 -111 -182 -215 -182c-67 0 -111 37 -111 92c0 90 111 182 215 182z" fill="currentColor"/>
</g>
</a>
<a style="color:inherit;" xlink:href="textedit:///Users/tomsegarra/Downloads/dummies/lilypond_files/3a00ad4973cf4f44e05dd01ecb2c2c9f.ly:24:9:17">
<g transform="translate(19.9981, 12.1762)">
<text font-family="serif" font-size="2.0989" text-anchor="start" fill="currentColor">
<tspan>times</tspan>
</text>
</g>
</a>
<g transform="translate(21.7766, 6.6762)">
<rect x="-0.0617" y="-1.9725" width="0.1233" height="2.6660" ry="0.0400" fill="currentColor"/>
</g>
<a style="color:inherit;" xlink:href="textedit:///Users/tomsegarra/Downloads/dummies/lilypond_files/3a00ad4973cf4f44e05dd01ecb2c2c9f.ly:21:17:18">
<g transform="translate(47.8575, 6.6762)">
<path stroke-width="0.0759" stroke-linejoin="round" stroke-linecap="round" stroke="currentColor" fill="currentColor" d="M0.6206 -2.5913C1.3370 -3.0638 2.4268 -2.8631 2.9279 -2.1663L2.9279 -2.1663C2.4062 -2.7511 1.3164 -2.9518 0.6206 -2.5913z"/>
</g>
</a>
<a style="color:inherit;" xlink:href="textedit:///Users/tomsegarra/Downloads/dummies/lilypond_files/3a00ad4973cf4f44e05dd01ecb2c2c9f.ly:20:18:19">
<g transform="translate(24.7769, 4.5512)">
<path transform="scale(0.0034, -0.0034)" d="M215 137c67 0 111 -37 111 -92c0 -90 -111 -182 -215 -182c-67 0 -111 37 -111 92c0 90 111 182 215 182z" fill="currentColor"/>
</g>
</a>
<a style="color:inherit;" xlink:href="textedit:///Users/tomsegarra/Downloads/dummies/lilypond_files/3a00ad4973cf4f44e05dd01ecb2c2c9f.ly:24:15:23">
<g transform="translate(24.9892, 12.1762)">
<text font-family="serif" font-size="2.0989" text-anchor="start" fill="currentColor">
<tspan>I</tspan>
</text>
</g>
</a>
<g transform="translate(24.8386, 6.6762)">
<rect x="-0.0617" y="-1.9725" width="0.1233" height="2.6660" ry="0.0400" fill="currentColor"/>
</g>
<a style="color:inherit;" xlink:href="textedit:///Users/tomsegarra/Downloads/dummies/lilypond_files/3a00ad4973cf4f44e05dd01ecb2c2c9f.ly:20:22:23">
<g transform="translate(27.0843, 4.9762)">
<path transform="scale(0.0034, -0.0034)" d="M215 137c67 0 111 -37 111 -92c0 -90 -111 -182 -215 -182c-67 0 -111 37 -111 92c0 90 111 182 215 182z" fill="currentColor"/>
</g>
</a>
<a style="color:inherit;" xlink:href="textedit:///Users/tomsegarra/Downloads/dummies/lilypond_files/3a00ad4973cf4f44e05dd01ecb2c2c9f.ly:24:17:25">
<g transform="translate(26.8356, 12.1762)">
<text font-family="serif" font-size="2.0989" text-anchor="start" fill="currentColor">
<tspan>fe</tspan>
</text>
</g>
</a>
<g transform="translate(27.1460, 6.6762)">
<rect x="-0.0617" y="-1.5475" width="0.1233" height="3.0979" ry="0.0400" fill="currentColor"/>
</g>
<a style="color:inherit;" xlink:href="textedit:///Users/tomsegarra/Downloads/dummies/lilypond_files/3a00ad4973cf4f44e05dd01ecb2c2c9f.ly:20:26:27">
<g transform="translate(29.3917, 5.4012)">
<path transform="scale(0.0034, -0.0034)" d="M215 137c67 0 111 -37 111 -92c0 -90 -111 -182 -215 -182c-67 0 -111 37 -111 92c0 90 111 182 215 182z" fill="currentColor"/>
</g>
</a>
<a style="color:inherit;" xlink:href="textedit:///Users/tomsegarra/Downloads/dummies/lilypond_files/3a00ad4973cf4f44e05dd01ecb2c2c9f.ly:24:23:31">
<g transform="translate(29.1942, 12.1762)">
<text font-family="serif" font-size="2.0989" text-anchor="start" fill="currentColor">
<tspan>el</tspan>
</text>
</g>
</a>
<g transform="translate(29.4534, 6.6762)">
<rect x="-0.0617" y="-1.1225" width="0.1233" height="2.9322" ry="0.0400" fill="currentColor"/>
</g>
<a style="color:inherit;" xlink:href="textedit:///Users/tomsegarra/Downloads/dummies/lilypond_files/3a00ad4973cf4f44e05dd01ecb2c2c9f.ly:20:28:29">
<g transform="translate(32.1635, 5.4012)">
<path transform="scale(0.0034, -0.0034)" d="M215 137c67 0 111 -37 111 -92c0 -90 -111 -182 -215 -182c-67 0 -111 37 -111 92c0 90 111 182 215 182z" fill="currentColor"/>
</g>
</a>
<a style="color:inherit;" xlink:href="textedit:///Users/tomsegarra/Downloads/dummies/lilypond_files/3a00ad4973cf4f44e05dd01ecb2c2c9f.ly:24:26:34">
<g transform="translate(31.1466, 12.1762)">
<text font-family="serif" font-size="2.0989" text-anchor="start" fill="currentColor">
<tspan>like</tspan>
</text>
</g>
</a>
<g transform="translate(32.2251, 6.6762)">
<rect x="-0.0617" y="-1.1225" width="0.1233" height="3.2436" ry="0.0400" fill="currentColor"/>
</g>
<g transform="translate(27.0843, 8.2196)">
<polygon stroke-linejoin="round" stroke-linecap="round" stroke-width="0.0800" fill="currentColor" stroke="currentColor" points="7.5245 0.6860 7.5245 1.0140 0.0400 0.1640 0.0400 -0.1640"/>
</g>
<a style="color:inherit;" xlink:href="textedit:///Users/tomsegarra/Downloads/dummies/lilypond_files/3a00ad4973cf4f44e05dd01ecb2c2c9f.ly:20:30:31">
<g transform="translate(34.5255, 6.6762)">
<path transform="scale(0.0034, -0.0034)" d="M215 137c67 0 111 -37 111 -92c0 -90 -111 -182 -215 -182c-67 0 -111 37 -111 92c0 90 111 182 215 182z" fill="currentColor"/>
</g>
</a>
<a style="color:inherit;" xlink:href="textedit:///Users/tomsegarra/Downloads/dummies/lilypond_files/3a00ad4973cf4f44e05dd01ecb2c2c9f.ly:24:31:39">
<g transform="translate(34.7377, 12.1762)">
<text font-family="serif" font-size="2.0989" text-anchor="start" fill="currentColor">
<tspan>I</tspan>
</text>
</g>
</a>
<g transform="translate(34.5871, 6.6762)">
<rect x="-0.0617" y="0.1525" width="0.1233" height="2.2340" ry="0.0400" fill="currentColor"/>
</g>
<a style="color:inherit;" xlink:href="textedit:///Users/tomsegarra/Downloads/dummies/lilypond_files/3a00ad4973cf4f44e05dd01ecb2c2c9f.ly:21:4:5">
<g transform="translate(37.9129, 6.2512)">
<path transform="scale(0.0034, -0.0034)" d="M215 137c67 0 111 -37 111 -92c0 -90 -111 -182 -215 -182c-67 0 -111 37 -111 92c0 90 111 182 215 182z" fill="currentColor"/>
</g>
</a>
<a style="color:inherit;" xlink:href="textedit:///Users/tomsegarra/Downloads/dummies/lilypond_files/3a00ad4973cf4f44e05dd01ecb2c2c9f.ly:24:33:41">
<g transform="translate(36.4009, 12.1762)">
<text font-family="serif" font-size="2.0989" text-anchor="start" fill="currentColor">
<tspan>don't</tspan>
</text>
</g>
</a>
<g transform="translate(37.9746, 6.6762)">
<rect x="-0.0617" y="-0.2725" width="0.1233" height="2.1291" ry="0.0400" fill="currentColor"/>
</g>
<a style="color:inherit;" xlink:href="textedit:///Users/tomsegarra/Downloads/dummies/lilypond_files/3a00ad4973cf4f44e05dd01ecb2c2c9f.ly:21:8:9">
<g transform="translate(42.4089, 5.4012)">
<path transform="scale(0.0034, -0.0034)" d="M215 137c67 0 111 -37 111 -92c0 -90 -111 -182 -215 -182c-67 0 -111 37 -111 92c0 90 111 182 215 182z" fill="currentColor"/>
</g>
</a>
<a style="color:inherit;" xlink:href="textedit:///Users/tomsegarra/Downloads/dummies/lilypond_files/3a00ad4973cf4f44e05dd01ecb2c2c9f.ly:24:39:47">
<g transform="translate(40.9823, 12.1762)">
<text font-family="serif" font-size="2.0989" text-anchor="start" fill="currentColor">
<tspan>have</tspan>
</text>
</g>
</a>
<g transform="translate(42.4705, 6.6762)">
<rect x="-0.0617" y="-1.1225" width="0.1233" height="2.9791" ry="0.0400" fill="currentColor"/>
</g>
<g transform="translate(16.9544, 7.3696)">
<polygon stroke-linejoin="round" stroke-linecap="round" stroke-width="0.0800" fill="currentColor" stroke="currentColor" points="7.9058 -0.1640 7.9058 0.1640 0.0400 0.1640 0.0400 -0.1640"/>
</g>
<a style="color:inherit;" xlink:href="textedit:///Users/tomsegarra/Downloads/dummies/lilypond_files/3a00ad4973cf4f44e05dd01ecb2c2c9f.ly:21:10:11">
<g transform="translate(45.3001, 6.2512)">
<path transform="scale(0.0034, -0.0034)" d="M215 137c67 0 111 -37 111 -92c0 -90 -111 -182 -215 -182c-67 0 -111 37 -111 92c0 90 111 182 215 182z" fill="currentColor"/>
</g>
</a>
<a style="color:inherit;" xlink:href="textedit:///Users/tomsegarra/Downloads/dummies/lilypond_files/3a00ad4973cf4f44e05dd01ecb2c2c9f.ly:24:44:52">
<g transform="translate(45.3929, 12.1762)">
<text font-family="serif" font-size="2.0989" text-anchor="start" fill="currentColor">
<tspan>a</tspan>
</text>
</g>
</a>
<g transform="translate(45.3618, 6.6762)">
<rect x="-0.0617" y="-0.2725" width="0.1233" height="2.1291" ry="0.0400" fill="currentColor"/>
</g>
<a style="color:inherit;" xlink:href="textedit:///Users/tomsegarra/Downloads/dummies/lilypond_files/3a00ad4973cf4f44e05dd01ecb2c2c9f.ly:24:20:28">
<g transform="translate(28.5104, 12.1762)">
<rect x="0.0000" y="-0.5433" width="0.6139" height="0.1233" ry="0.0379" fill="currentColor"/>
</g>
</a>
<a style="color:inherit;" xlink:href="textedit:///Users/tomsegarra/Downloads/dummies/lilypond_files/3a00ad4973cf4f44e05dd01ecb2c2c9f.ly:21:14:15">
<g transform="translate(47.8575, 4.9762)">
<path transform="scale(0.0034, -0.0034)" d="M215 137c67 0 111 -37 111 -92c0 -90 -111 -182 -215 -182c-67 0 -111 37 -111 92c0 90 111 182 215 182z" fill="currentColor"/>
</g>
</a>
<a style="color:inherit;" xlink:href="textedit:///Users/tomsegarra/Downloads/dummies/lilypond_files/3a00ad4973cf4f44e05dd01ecb2c2c9f.ly:24:46:54">
<g transform="translate(47.8575, 12.1762)">
<text font-family="serif" font-size="2.0989" text-anchor="start" fill="currentColor">
<tspan>part</tspan>
</text>
</g>
</a>
<g transform="translate(47.9192, 6.6762)">
<rect x="-0.0617" y="-1.5475" width="0.1233" height="3.4041" ry="0.0400" fill="currentColor"/>
</g>
<a style="color:inherit;" xlink:href="textedit:///Users/tomsegarra/Downloads/dummies/lilypond_files/3a00ad4973cf4f44e05dd01ecb2c2c9f.ly:21:19:20">
<g transform="translate(50.1649, 5.4012)">
<path transform="scale(0.0034, -0.0034)" d="M215 137c67 0 111 -37 111 -92c0 -90 -111 -182 -215 -182c-67 0 -111 37 -111 92c0 90 111 182 215 182z" fill="currentColor"/>
</g>
</a>
<g transform="translate(50.2266, 6.6762)">
<rect x="-0.0617" y="-1.1225" width="0.1233" height="2.6660" ry="0.0400" fill="currentColor"/>
</g>
<a style="color:inherit;" xlink:href="textedit:///Users/tomsegarra/Downloads/dummies/lilypond_files/3a00ad4973cf4f44e05dd01ecb2c2c9f.ly:21:22:23">
<g transform="translate(52.4723, 5.4012)">
<path transform="scale(0.0034, -0.0034)" d="M215 137c67 0 111 -37 111 -92c0 -90 -111 -182 -215 -182c-67 0 -111 37 -111 92c0 90 111 182 215 182z" fill="currentColor"/>
</g>
</a>
<a style="color:inherit;" xlink:href="textedit:///Users/tomsegarra/Downloads/dummies/lilypond_files/3a00ad4973cf4f44e05dd01ecb2c2c9f.ly:24:54:62">
<g transform="translate(52.4723, 12.1762)">
<text font-family="serif" font-size="2.0989" text-anchor="start" fill="currentColor">
<tspan>ner</tspan>
</text>
</g>
</a>
<g transform="translate(52.5339, 6.6762)">
<rect x="-0.0617" y="-1.1225" width="0.1233" height="2.6660" ry="0.0400" fill="currentColor"/>
</g>
<a style="color:inherit;" xlink:href="textedit:///Users/tomsegarra/Downloads/dummies/lilypond_files/3a00ad4973cf4f44e05dd01ecb2c2c9f.ly:21:25:26">
<g transform="translate(54.7797, 5.4012)">
<path transform="scale(0.0034, -0.0034)" d="M215 137c67 0 111 -37 111 -92c0 -90 -111 -182 -215 -182c-67 0 -111 37 -111 92c0 90 111 182 215 182z" fill="currentColor"/>
</g>
</a>
<g transform="translate(54.8413, 6.6762)">
<rect x="-0.0617" y="-1.1225" width="0.1233" height="2.8225" ry="0.0400" fill="currentColor"/>
</g>
<a style="color:inherit;" xlink:href="textedit:///Users/tomsegarra/Downloads/dummies/lilypond_files/3a00ad4973cf4f44e05dd01ecb2c2c9f.ly:21:29:30">
<g transform="translate(59.1301, 6.6762)">
<path transform="scale(0.0034, -0.0034)" d="M70 205c80 0 46 -97 90 -97c15 0 52 45 59 59c6 13 26 13 31 0l-121 -417c-9 -7 -19 -11 -30 -11s-21 4 -30 11l118 326c-33 -12 -68 -22 -103 -22c-47 0 -87 34 -87 79c0 40 33 72 73 72z" fill="currentColor"/>
</g>
</a>
</svg>
