<?xml version="1.0" encoding="UTF-8" standalone="no"?>
<svg
   version="1.2"
   width="89.90361mm"
   height="19.776003mm"
   viewBox="0 0 51.161698 11.253638"
   id="svg378"
   sodipodi:docname="3e5beba623d0689ee0a04e068446d2ab.svg"
   xmlns:inkscape="http://www.inkscape.org/namespaces/inkscape"
   xmlns:sodipodi="http://sodipodi.sourceforge.net/DTD/sodipodi-0.dtd"
   xmlns:xlink="http://www.w3.org/1999/xlink"
   xmlns="http://www.w3.org/2000/svg"
   xmlns:svg="http://www.w3.org/2000/svg">
  <defs
     id="defs382" />
  <sodipodi:namedview
     id="namedview380"
     pagecolor="#ffffff"
     bordercolor="#000000"
     borderopacity="0.25"
     inkscape:showpageshadow="2"
     inkscape:pageopacity="0.0"
     inkscape:pagecheckerboard="0"
     inkscape:deskcolor="#d1d1d1"
     inkscape:document-units="mm" />
  <style
     type="text/css"
     id="style2"><![CDATA[
tspan { white-space: pre; }
]]></style>
  <!-- Page: 1/1 -->
  <g
     transform="translate(34.70665,5.298392)"
     id="g6">
    <rect
       x="0"
       y="-1.7"
       width="0.1802"
       height="3.4000001"
       ry="0.0000"
       fill="currentColor"
       id="rect4" />
  </g>
  <g
     transform="translate(4.9997121e-5,6.998392)"
     id="g10">
    <line
       stroke-linejoin="round"
       stroke-linecap="round"
       stroke-width="0.0949"
       stroke="currentColor"
       x1="0.047400001"
       y1="0"
       x2="51.114201"
       y2="0"
       id="line8" />
  </g>
  <g
     transform="translate(4.9997121e-5,6.148392)"
     id="g14">
    <line
       stroke-linejoin="round"
       stroke-linecap="round"
       stroke-width="0.0949"
       stroke="currentColor"
       x1="0.047400001"
       y1="0"
       x2="51.114201"
       y2="0"
       id="line12" />
  </g>
  <g
     transform="translate(4.9997121e-5,5.298392)"
     id="g18">
    <line
       stroke-linejoin="round"
       stroke-linecap="round"
       stroke-width="0.0949"
       stroke="currentColor"
       x1="0.047400001"
       y1="0"
       x2="51.114201"
       y2="0"
       id="line16" />
  </g>
  <g
     transform="translate(4.9997121e-5,4.448392)"
     id="g22">
    <line
       stroke-linejoin="round"
       stroke-linecap="round"
       stroke-width="0.0949"
       stroke="currentColor"
       x1="0.047400001"
       y1="0"
       x2="51.114201"
       y2="0"
       id="line20" />
  </g>
  <g
     transform="translate(4.9997121e-5,3.598392)"
     id="g26">
    <line
       stroke-linejoin="round"
       stroke-linecap="round"
       stroke-width="0.0949"
       stroke="currentColor"
       x1="0.047400001"
       y1="0"
       x2="51.114201"
       y2="0"
       id="line24" />
  </g>
  <a
     style="color:inherit"
     xlink:href="textedit:///Users/tomsegarra/Documents/dev/dummies/lilypond_files/3e5beba623d0689ee0a04e068446d2ab.ly:20:12:13"
     id="a38"
     transform="translate(-2.27615,-3.326608)">
    <g
       transform="translate(15.1154,5.2872)"
       id="g32">
      <text
         font-family="sans-serif"
         font-size="2.224px"
         text-anchor="start"
         fill="currentColor"
         id="text30"><tspan
           id="tspan28">D</tspan></text>
    </g>
    <g
       transform="translate(17.0341,4.9872)"
       id="g36">
      <path
         transform="scale(0.0036,-0.0036)"
         d="m 29,39 -2,-64 v -11 c 0,-22 2,-43 5,-65 44,38 91,80 91,138 0,33 -13,66 -42,66 C 50,103 30,72 29,39 Z m -57,415 c 9,5 18,8 28,8 10,0 19,-3 28,-8 L 21,111 c 25,23 58,36 92,36 51,0 87,-49 87,-103 0,-79 -84,-117 -144,-169 -16,-14 -25,-41 -47,-41 -14,0 -25,13 -25,27 z"
         fill="currentColor"
         id="path34" />
    </g>
  </a>
  <a
     style="color:inherit"
     xlink:href="textedit:///Users/tomsegarra/Documents/dev/dummies/lilypond_files/3e5beba623d0689ee0a04e068446d2ab.ly:26:4:5"
     id="a44"
     transform="translate(-2.27615,-3.326608)">
    <g
       transform="translate(15.1154,8.625)"
       id="g42">
      <path
         transform="scale(0.0034,-0.0034)"
         d="m 70,205 c 80,0 46,-97 90,-97 15,0 52,45 59,59 6,13 26,13 31,0 L 129,-250 c -9,-7 -19,-11 -30,-11 -11,0 -21,4 -30,11 L 187,76 C 154,64 119,54 84,54 37,54 -3,88 -3,133 c 0,40 33,72 73,72 z"
         fill="currentColor"
         id="path40" />
    </g>
  </a>
  <g
     transform="translate(0.80005,6.148392)"
     id="g48">
    <path
       transform="scale(0.0034,-0.0034)"
       d="m 646,2 c 0,-113 -74,-213 -180,-247 3,-34 5,-68 5,-102 0,-20 -1,-40 -2,-60 -7,-121 -91,-228 -209,-228 -108,0 -196,87 -196,196 0,58 53,104 112,104 54,0 95,-48 95,-104 0,-52 -43,-95 -95,-95 -10,0 -20,2 -29,6 26,-38 68,-63 116,-63 h 3 c 93,2 153,92 159,190 1,19 2,37 2,56 0,30 -2,60 -4,90 -5,-1 -43,-8 -88,-8 -194,0 -333,180 -333,375 0,177 130,307 246,442 -31,98 -53,170 -53,347 0,115 55,223 148,290 7,5 16,4 22,-1 68,-80 134,-243 134,-357 0,-143 -85,-255 -178,-364 21,-68 40,-137 57,-206 1,0 5,1 11,1 C 545,264 646,135 646,2 Z M 462,-202 c 66,24 111,88 111,162 0,89 -65,178 -170,190 28,-135 50,-272 59,-352 z M 75,26 c 0,-145 141,-245 263,-245 1,0 46,0 81,6 -7,65 -27,206 -61,363 -79,-8 -124,-61 -124,-119 0,-43 25,-89 80,-121 5,-5 7,-11 7,-16 0,-12 -10,-23 -22,-23 -16,0 -127,63 -127,188 0,89 58,175 161,198 -14,58 -29,116 -46,173 C 181,308 75,186 75,26 Z M 406,1042 C 307,995 244,894 244,785 c 0,-49 13,-111 38,-191 79,97 144,199 144,324 0,33 0,63 -20,124 z"
       fill="currentColor"
       id="path46" />
  </g>
  <a
     style="color:inherit"
     xlink:href="textedit:///Users/tomsegarra/Documents/dev/dummies/lilypond_files/3e5beba623d0689ee0a04e068446d2ab.ly:23:1:9"
     id="a70"
     transform="translate(-2.27615,-3.326608)">
    <g
       transform="translate(6.6864,8.625)"
       id="g52">
      <path
         transform="scale(0.0034,-0.0034)"
         d="m 29,39 -2,-64 v -11 c 0,-22 2,-43 5,-65 44,38 91,80 91,138 0,33 -13,66 -42,66 C 50,103 30,72 29,39 Z m -57,415 c 9,5 18,8 28,8 10,0 19,-3 28,-8 L 21,111 c 25,23 58,36 92,36 51,0 87,-49 87,-103 0,-79 -84,-117 -144,-169 -16,-14 -25,-41 -47,-41 -14,0 -25,13 -25,27 z"
         fill="currentColor"
         id="path50" />
    </g>
    <g
       transform="translate(7.4766,7.35)"
       id="g56">
      <path
         transform="scale(0.0034,-0.0034)"
         d="m 29,39 -2,-64 v -11 c 0,-22 2,-43 5,-65 44,38 91,80 91,138 0,33 -13,66 -42,66 C 50,103 30,72 29,39 Z m -57,415 c 9,5 18,8 28,8 10,0 19,-3 28,-8 L 21,111 c 25,23 58,36 92,36 51,0 87,-49 87,-103 0,-79 -84,-117 -144,-169 -16,-14 -25,-41 -47,-41 -14,0 -25,13 -25,27 z"
         fill="currentColor"
         id="path54" />
    </g>
    <g
       transform="translate(8.2668,9.05)"
       id="g60">
      <path
         transform="scale(0.0034,-0.0034)"
         d="m 29,39 -2,-64 v -11 c 0,-22 2,-43 5,-65 44,38 91,80 91,138 0,33 -13,66 -42,66 C 50,103 30,72 29,39 Z m -57,415 c 9,5 18,8 28,8 10,0 19,-3 28,-8 L 21,111 c 25,23 58,36 92,36 51,0 87,-49 87,-103 0,-79 -84,-117 -144,-169 -16,-14 -25,-41 -47,-41 -14,0 -25,13 -25,27 z"
         fill="currentColor"
         id="path58" />
    </g>
    <g
       transform="translate(9.057,7.775)"
       id="g64">
      <path
         transform="scale(0.0034,-0.0034)"
         d="m 29,39 -2,-64 v -11 c 0,-22 2,-43 5,-65 44,38 91,80 91,138 0,33 -13,66 -42,66 C 50,103 30,72 29,39 Z m -57,415 c 9,5 18,8 28,8 10,0 19,-3 28,-8 L 21,111 c 25,23 58,36 92,36 51,0 87,-49 87,-103 0,-79 -84,-117 -144,-169 -16,-14 -25,-41 -47,-41 -14,0 -25,13 -25,27 z"
         fill="currentColor"
         id="path62" />
    </g>
    <g
       transform="translate(9.8472,9.475)"
       id="g68">
      <path
         transform="scale(0.0034,-0.0034)"
         d="m 29,39 -2,-64 v -11 c 0,-22 2,-43 5,-65 44,38 91,80 91,138 0,33 -13,66 -42,66 C 50,103 30,72 29,39 Z m -57,415 c 9,5 18,8 28,8 10,0 19,-3 28,-8 L 21,111 c 25,23 58,36 92,36 51,0 87,-49 87,-103 0,-79 -84,-117 -144,-169 -16,-14 -25,-41 -47,-41 -14,0 -25,13 -25,27 z"
         fill="currentColor"
         id="path66" />
    </g>
  </a>
  <g
     transform="translate(9.40115,5.298392)"
     id="g74">
    <path
       transform="scale(0.0034,-0.0034)"
       d="m 358,29 c -30,0 -74,23 -74,73 0,38 27,76 71,76 4,0 7,0 11,-1 -27,36 -69,59 -116,59 -106,0 -113,-74 -113,-188 0,-15 1,-31 1,-48 0,-17 -1,-33 -1,-48 0,-114 7,-188 113,-188 79,0 136,70 155,150 2,7 7,10 13,10 7,0 14,-5 14,-13 0,-21 -50,-175 -182,-175 C 191,-264 0,-244 0,0 0,63 18,264 250,264 365,264 424,155 424,99 424,60 394,29 358,29 Z"
       fill="currentColor"
       id="path72" />
  </g>
  <a
     style="color:inherit"
     xlink:href="textedit:///Users/tomsegarra/Documents/dev/dummies/lilypond_files/3e5beba623d0689ee0a04e068446d2ab.ly:20:19:20"
     id="a86"
     transform="translate(-2.27615,-3.326608)">
    <g
       transform="translate(38.063,5.2872)"
       id="g80">
      <text
         font-family="sans-serif"
         font-size="2.224px"
         text-anchor="start"
         fill="currentColor"
         id="text78"><tspan
           id="tspan76">A</tspan></text>
    </g>
    <g
       transform="translate(39.8109,4.9872)"
       id="g84">
      <path
         transform="scale(0.0036,-0.0036)"
         d="m 29,39 -2,-64 v -11 c 0,-22 2,-43 5,-65 44,38 91,80 91,138 0,33 -13,66 -42,66 C 50,103 30,72 29,39 Z m -57,415 c 9,5 18,8 28,8 10,0 19,-3 28,-8 L 21,111 c 25,23 58,36 92,36 51,0 87,-49 87,-103 0,-79 -84,-117 -144,-169 -16,-14 -25,-41 -47,-41 -14,0 -25,13 -25,27 z"
         fill="currentColor"
         id="path82" />
    </g>
  </a>
  <g
     color="#000000"
     id="g94"
     transform="translate(-2.27615,-3.326608)">
    <a
       style="color:inherit"
       xlink:href="textedit:///Users/tomsegarra/Documents/dev/dummies/lilypond_files/3e5beba623d0689ee0a04e068446d2ab.ly:26:23:24"
       id="a92">
      <g
         transform="translate(38.063,8.625)"
         id="g90">
        <path
           transform="scale(0.0034,-0.0034)"
           d="m 215,137 c 67,0 111,-37 111,-92 0,-90 -111,-182 -215,-182 -67,0 -111,37 -111,92 0,90 111,182 215,182 z"
           fill="currentColor"
           id="path88" />
      </g>
    </a>
  </g>
  <a
     style="color:inherit"
     xlink:href="textedit:///Users/tomsegarra/Documents/dev/dummies/lilypond_files/3e5beba623d0689ee0a04e068446d2ab.ly:31:45:46"
     id="a102"
     transform="translate(-2.27615,-3.326608)">
    <g
       transform="translate(37.507,14.125)"
       id="g100">
      <text
         font-family="serif"
         font-size="2.0989px"
         text-anchor="start"
         fill="currentColor"
         id="text98"><tspan
           id="tspan96">jin</tspan></text>
    </g>
  </a>
  <g
     color="#000000"
     id="g108"
     transform="translate(-2.27615,-3.326608)">
    <g
       transform="translate(39.1087,8.625)"
       id="g106">
      <rect
         x="-0.061700001"
         y="-2.3901999"
         width="0.1233"
         height="2.2377999"
         ry="0.039999999"
         fill="currentColor"
         id="rect104" />
    </g>
  </g>
  <g
     transform="translate(14.88925,6.998392)"
     id="g112">
    <polygon
       stroke-linejoin="round"
       stroke-linecap="round"
       stroke-width="0.08"
       fill="currentColor"
       stroke="currentColor"
       points="0.04,0.164 0.04,-0.164 6.4804,-0.0074 6.4804,0.3206 "
       id="polygon110" />
  </g>
  <g
     color="#000000"
     id="g120"
     transform="translate(-2.27615,-3.326608)">
    <a
       style="color:inherit"
       xlink:href="textedit:///Users/tomsegarra/Documents/dev/dummies/lilypond_files/3e5beba623d0689ee0a04e068446d2ab.ly:26:25:26"
       id="a118">
      <g
         transform="translate(40.9628,9.05)"
         id="g116">
        <path
           transform="scale(0.0034,-0.0034)"
           d="m 215,137 c 67,0 111,-37 111,-92 0,-90 -111,-182 -215,-182 -67,0 -111,37 -111,92 0,90 111,182 215,182 z"
           fill="currentColor"
           id="path114" />
      </g>
    </a>
  </g>
  <a
     style="color:inherit"
     xlink:href="textedit:///Users/tomsegarra/Documents/dev/dummies/lilypond_files/3e5beba623d0689ee0a04e068446d2ab.ly:31:52:53"
     id="a128"
     transform="translate(-2.27615,-3.326608)">
    <g
       transform="translate(39.8264,14.125)"
       id="g126">
      <text
         font-family="serif"
         font-size="2.0989px"
         text-anchor="start"
         fill="currentColor"
         id="text124"><tspan
           id="tspan122">gles</tspan></text>
    </g>
  </a>
  <g
     color="#000000"
     id="g134"
     transform="translate(-2.27615,-3.326608)">
    <g
       transform="translate(42.0085,8.625)"
       id="g132">
      <rect
         x="-0.061700001"
         y="-2.2388999"
         width="0.1233"
         height="2.5114999"
         ry="0.039999999"
         fill="currentColor"
         id="rect130" />
    </g>
  </g>
  <g
     color="#ff0000"
     id="g142"
     transform="translate(-2.27615,-3.326608)">
    <a
       style="color:inherit"
       xlink:href="textedit:///Users/tomsegarra/Documents/dev/dummies/lilypond_files/3e5beba623d0689ee0a04e068446d2ab.ly:29:4:5"
       id="a140">
      <g
         transform="translate(45.0319,9.05)"
         id="g138">
        <path
           transform="scale(0.0034,-0.0034)"
           d="m 215,137 c 67,0 111,-37 111,-92 0,-90 -111,-182 -215,-182 -67,0 -111,37 -111,92 0,90 111,182 215,182 z"
           fill="currentColor"
           id="path136" />
      </g>
    </a>
  </g>
  <a
     style="color:inherit"
     xlink:href="textedit:///Users/tomsegarra/Documents/dev/dummies/lilypond_files/3e5beba623d0689ee0a04e068446d2ab.ly:31:57:58"
     id="a150"
     transform="translate(-2.27615,-3.326608)">
    <g
       transform="translate(43.6565,14.125)"
       id="g148">
      <text
         font-family="serif"
         font-size="2.0989px"
         text-anchor="start"
         fill="currentColor"
         id="text146"><tspan
           id="tspan144">used</tspan></text>
    </g>
  </a>
  <g
     color="#ff0000"
     id="g156"
     transform="translate(-2.27615,-3.326608)">
    <g
       transform="translate(46.0777,8.625)"
       id="g154">
      <rect
         x="-0.061700001"
         y="-2.0267"
         width="0.1233"
         height="2.2992001"
         ry="0.039999999"
         fill="currentColor"
         id="rect152" />
    </g>
  </g>
  <g
     transform="translate(24.28855,7.691792)"
     id="g160">
    <polygon
       stroke-linejoin="round"
       stroke-linecap="round"
       stroke-width="0.08"
       fill="currentColor"
       stroke="currentColor"
       points="0.04,0.164 0.04,-0.164 3.8366,0.1491 3.8366,0.4771 "
       id="polygon158" />
  </g>
  <g
     color="#ff0000"
     id="g168"
     transform="translate(-2.27615,-3.326608)">
    <a
       style="color:inherit"
       xlink:href="textedit:///Users/tomsegarra/Documents/dev/dummies/lilypond_files/3e5beba623d0689ee0a04e068446d2ab.ly:29:6:7"
       id="a166">
      <g
         transform="translate(48.2305,9.9)"
         id="g164">
        <path
           transform="scale(0.0034,-0.0034)"
           d="m 215,137 c 67,0 111,-37 111,-92 0,-90 -111,-182 -215,-182 -67,0 -111,37 -111,92 0,90 111,182 215,182 z"
           fill="currentColor"
           id="path162" />
      </g>
    </a>
  </g>
  <a
     style="color:inherit"
     xlink:href="textedit:///Users/tomsegarra/Documents/dev/dummies/lilypond_files/3e5beba623d0689ee0a04e068446d2ab.ly:31:62:63"
     id="a176"
     transform="translate(-2.27615,-3.326608)">
    <g
       transform="translate(47.9647,14.125)"
       id="g174">
      <text
         font-family="serif"
         font-size="2.0989px"
         text-anchor="start"
         fill="currentColor"
         id="text172"><tspan
           id="tspan170">to</tspan></text>
    </g>
  </a>
  <g
     color="#ff0000"
     id="g182"
     transform="translate(-2.27615,-3.326608)">
    <g
       transform="translate(49.2762,8.625)"
       id="g180">
      <rect
         x="-0.061700001"
         y="-1.8598"
         width="0.1233"
         height="2.9823"
         ry="0.039999999"
         fill="currentColor"
         id="rect178" />
    </g>
  </g>
  <g
     color="#ff0000"
     id="g190"
     transform="translate(-2.27615,-3.326608)">
    <a
       style="color:inherit"
       xlink:href="textedit:///Users/tomsegarra/Documents/dev/dummies/lilypond_files/3e5beba623d0689ee0a04e068446d2ab.ly:29:8:9"
       id="a188">
      <g
         transform="translate(51.1305,8.625)"
         id="g186">
        <path
           transform="scale(0.0034,-0.0034)"
           d="m 215,137 c 67,0 111,-37 111,-92 0,-90 -111,-182 -215,-182 -67,0 -111,37 -111,92 0,90 111,182 215,182 z"
           fill="currentColor"
           id="path184" />
      </g>
    </a>
  </g>
  <a
     style="color:inherit"
     xlink:href="textedit:///Users/tomsegarra/Documents/dev/dummies/lilypond_files/3e5beba623d0689ee0a04e068446d2ab.ly:31:65:66"
     id="a198"
     transform="translate(-2.27615,-3.326608)">
    <g
       transform="translate(50.6257,14.125)"
       id="g196">
      <text
         font-family="serif"
         font-size="2.0989px"
         text-anchor="start"
         fill="currentColor"
         id="text194"><tspan
           id="tspan192">go</tspan></text>
    </g>
  </a>
  <g
     color="#ff0000"
     id="g204"
     transform="translate(-2.27615,-3.326608)">
    <g
       transform="translate(51.1921,8.625)"
       id="g202">
      <rect
         x="-0.061700001"
         y="0.1525"
         width="0.1233"
         height="2.7163"
         ry="0.039999999"
         fill="currentColor"
         id="rect200" />
    </g>
  </g>
  <g
     color="#ff0000"
     id="g210"
     transform="translate(-2.27615,-3.326608)">
    <g
       transform="translate(51.2538,11.4538)"
       id="g208">
      <path
         transform="scale(0.0034,-0.0034)"
         d="M 0,0 H -18 V 250 H 0 Z m 0,0 v 250 c 96,59 222,149 222,259 0,57 -15,111 -40,162 -3,17 10,29 24,29 8,0 16,-5 21,-13 25,-56 40,-116 40,-178 C 267,306 0,203 0,0 Z"
         fill="currentColor"
         id="path206" />
    </g>
  </g>
  <g
     color="#000000"
     id="g218"
     transform="translate(-2.27615,-3.326608)">
    <a
       style="color:inherit"
       xlink:href="textedit:///Users/tomsegarra/Documents/dev/dummies/lilypond_files/3e5beba623d0689ee0a04e068446d2ab.ly:26:7:8"
       id="a216">
      <g
         transform="translate(17.1654,7.775)"
         id="g214">
        <path
           transform="scale(0.0034,-0.0034)"
           d="m 215,137 c 67,0 111,-37 111,-92 0,-90 -111,-182 -215,-182 -67,0 -111,37 -111,92 0,90 111,182 215,182 z"
           fill="currentColor"
           id="path212" />
      </g>
    </a>
  </g>
  <a
     style="color:inherit"
     xlink:href="textedit:///Users/tomsegarra/Documents/dev/dummies/lilypond_files/3e5beba623d0689ee0a04e068446d2ab.ly:31:15:16"
     id="a226"
     transform="translate(-2.27615,-3.326608)">
    <g
       transform="translate(16.1997,14.125)"
       id="g224">
      <text
         font-family="serif"
         font-size="2.0989px"
         text-anchor="start"
         fill="currentColor"
         id="text222"><tspan
           id="tspan220">and</tspan></text>
    </g>
  </a>
  <g
     color="#000000"
     id="g232"
     transform="translate(-2.27615,-3.326608)">
    <g
       transform="translate(17.2271,8.625)"
       id="g230">
      <rect
         x="-0.061700001"
         y="-0.69749999"
         width="0.1233"
         height="2.3989999"
         ry="0.039999999"
         fill="currentColor"
         id="rect228" />
    </g>
  </g>
  <g
     color="#000000"
     id="g240"
     transform="translate(-2.27615,-3.326608)">
    <a
       style="color:inherit"
       xlink:href="textedit:///Users/tomsegarra/Documents/dev/dummies/lilypond_files/3e5beba623d0689ee0a04e068446d2ab.ly:26:11:12"
       id="a238">
      <g
         transform="translate(20.7225,7.775)"
         id="g236">
        <path
           transform="scale(0.0034,-0.0034)"
           d="m 215,137 c 67,0 111,-37 111,-92 0,-90 -111,-182 -215,-182 -67,0 -111,37 -111,92 0,90 111,182 215,182 z"
           fill="currentColor"
           id="path234" />
      </g>
    </a>
  </g>
  <a
     style="color:inherit"
     xlink:href="textedit:///Users/tomsegarra/Documents/dev/dummies/lilypond_files/3e5beba623d0689ee0a04e068446d2ab.ly:31:19:20"
     id="a248"
     transform="translate(-2.27615,-3.326608)">
    <g
       transform="translate(19.6885,14.125)"
       id="g246">
      <text
         font-family="serif"
         font-size="2.0989px"
         text-anchor="start"
         fill="currentColor"
         id="text244"><tspan
           id="tspan242">you</tspan></text>
    </g>
  </a>
  <g
     color="#000000"
     id="g254"
     transform="translate(-2.27615,-3.326608)">
    <g
       transform="translate(20.7841,8.625)"
       id="g252">
      <rect
         x="-0.061700001"
         y="-0.69749999"
         width="0.1233"
         height="2.4844"
         ry="0.039999999"
         fill="currentColor"
         id="rect250" />
    </g>
  </g>
  <g
     transform="translate(36.77095,2.904992)"
     id="g258">
    <polygon
       stroke-linejoin="round"
       stroke-linecap="round"
       stroke-width="0.08"
       fill="currentColor"
       stroke="currentColor"
       points="0.04,0.164 0.04,-0.164 10.2508,0.3729 10.2508,0.7009 "
       id="polygon256" />
  </g>
  <g
     color="#000000"
     id="g266"
     transform="translate(-2.27615,-3.326608)">
    <a
       style="color:inherit"
       xlink:href="textedit:///Users/tomsegarra/Documents/dev/dummies/lilypond_files/3e5beba623d0689ee0a04e068446d2ab.ly:26:13:14"
       id="a264">
      <g
         transform="translate(23.5625,8.2)"
         id="g262">
        <path
           transform="scale(0.0034,-0.0034)"
           d="m 215,137 c 67,0 111,-37 111,-92 0,-90 -111,-182 -215,-182 -67,0 -111,37 -111,92 0,90 111,182 215,182 z"
           fill="currentColor"
           id="path260" />
      </g>
    </a>
  </g>
  <a
     style="color:inherit"
     xlink:href="textedit:///Users/tomsegarra/Documents/dev/dummies/lilypond_files/3e5beba623d0689ee0a04e068446d2ab.ly:31:23:24"
     id="a274"
     transform="translate(-2.27615,-3.326608)">
    <g
       transform="translate(23.3138,14.125)"
       id="g272">
      <text
         font-family="serif"
         font-size="2.0989px"
         text-anchor="start"
         fill="currentColor"
         id="text270"><tspan
           id="tspan268">re</tspan></text>
    </g>
  </a>
  <g
     color="#000000"
     id="g280"
     transform="translate(-2.27615,-3.326608)">
    <g
       transform="translate(23.6241,8.625)"
       id="g278">
      <rect
         x="-0.061700001"
         y="-0.27250001"
         width="0.1233"
         height="2.1276"
         ry="0.039999999"
         fill="currentColor"
         id="rect276" />
    </g>
  </g>
  <g
     color="#000000"
     id="g286"
     transform="translate(-2.27615,-3.326608)">
    <g
       transform="translate(34.7987,11.4538)"
       id="g284">
      <path
         transform="scale(0.0034,-0.0034)"
         d="M 0,0 H -18 V 250 H 0 Z m 0,0 v 250 c 96,59 222,149 222,259 0,57 -15,111 -40,162 -3,17 10,29 24,29 8,0 16,-5 21,-13 25,-56 40,-116 40,-178 C 267,306 0,203 0,0 Z"
         fill="currentColor"
         id="path282" />
    </g>
  </g>
  <a
     style="color:inherit"
     xlink:href="textedit:///Users/tomsegarra/Documents/dev/dummies/lilypond_files/3e5beba623d0689ee0a04e068446d2ab.ly:20:15:16"
     id="a304"
     transform="translate(-2.27615,-3.326608)">
    <g
       transform="translate(26.5647,5.2872)"
       id="g292">
      <text
         font-family="sans-serif"
         font-size="2.224px"
         text-anchor="start"
         fill="currentColor"
         id="text290"><tspan
           id="tspan288">E</tspan></text>
    </g>
    <g
       transform="translate(28.176,4.9872)"
       id="g296">
      <path
         transform="scale(0.0036,-0.0036)"
         d="m 29,39 -2,-64 v -11 c 0,-22 2,-43 5,-65 44,38 91,80 91,138 0,33 -13,66 -42,66 C 50,103 30,72 29,39 Z m -57,415 c 9,5 18,8 28,8 10,0 19,-3 28,-8 L 21,111 c 25,23 58,36 92,36 51,0 87,-49 87,-103 0,-79 -84,-117 -144,-169 -16,-14 -25,-41 -47,-41 -14,0 -25,13 -25,27 z"
         fill="currentColor"
         id="path294" />
    </g>
    <g
       transform="translate(28.8965,5.2872)"
       id="g302">
      <text
         font-family="sans-serif"
         font-size="2.224px"
         text-anchor="start"
         fill="currentColor"
         id="text300"><tspan
           id="tspan298">m</tspan></text>
    </g>
  </a>
  <g
     color="#000000"
     id="g312"
     transform="translate(-2.27615,-3.326608)">
    <a
       style="color:inherit"
       xlink:href="textedit:///Users/tomsegarra/Documents/dev/dummies/lilypond_files/3e5beba623d0689ee0a04e068446d2ab.ly:26:15:16"
       id="a310">
      <g
         transform="translate(26.5647,8.2)"
         id="g308">
        <path
           transform="scale(0.0034,-0.0034)"
           d="m 215,137 c 67,0 111,-37 111,-92 0,-90 -111,-182 -215,-182 -67,0 -111,37 -111,92 0,90 111,182 215,182 z"
           fill="currentColor"
           id="path306" />
      </g>
    </a>
  </g>
  <a
     style="color:inherit"
     xlink:href="textedit:///Users/tomsegarra/Documents/dev/dummies/lilypond_files/3e5beba623d0689ee0a04e068446d2ab.ly:31:29:30"
     id="a320"
     transform="translate(-2.27615,-3.326608)">
    <g
       transform="translate(25.0185,14.125)"
       id="g318">
      <text
         font-family="serif"
         font-size="2.0989px"
         text-anchor="start"
         fill="currentColor"
         id="text316"><tspan
           id="tspan314">mem</tspan></text>
    </g>
  </a>
  <g
     color="#000000"
     id="g326"
     transform="translate(-2.27615,-3.326608)">
    <g
       transform="translate(26.6263,8.625)"
       id="g324">
      <rect
         x="-0.061700001"
         y="-0.27250001"
         width="0.1233"
         height="2.671"
         ry="0.039999999"
         fill="currentColor"
         id="rect322" />
    </g>
  </g>
  <g
     color="#000000"
     id="g334"
     transform="translate(-2.27615,-3.326608)">
    <a
       style="color:inherit"
       xlink:href="textedit:///Users/tomsegarra/Documents/dev/dummies/lilypond_files/3e5beba623d0689ee0a04e068446d2ab.ly:26:17:18"
       id="a332">
      <g
         transform="translate(30.318,8.625)"
         id="g330">
        <path
           transform="scale(0.0034,-0.0034)"
           d="m 215,137 c 67,0 111,-37 111,-92 0,-90 -111,-182 -215,-182 -67,0 -111,37 -111,92 0,90 111,182 215,182 z"
           fill="currentColor"
           id="path328" />
      </g>
    </a>
  </g>
  <a
     style="color:inherit"
     xlink:href="textedit:///Users/tomsegarra/Documents/dev/dummies/lilypond_files/3e5beba623d0689ee0a04e068446d2ab.ly:31:36:37"
     id="a342"
     transform="translate(-2.27615,-3.326608)">
    <g
       transform="translate(29.3182,14.125)"
       id="g340">
      <text
         font-family="serif"
         font-size="2.0989px"
         text-anchor="start"
         fill="currentColor"
         id="text338"><tspan
           id="tspan336">ber,</tspan></text>
    </g>
  </a>
  <g
     color="#000000"
     id="g348"
     transform="translate(-2.27615,-3.326608)">
    <g
       transform="translate(30.3797,8.625)"
       id="g346">
      <rect
         x="-0.061700001"
         y="0.1525"
         width="0.1233"
         height="2.5490999"
         ry="0.039999999"
         fill="currentColor"
         id="rect344" />
    </g>
  </g>
  <g
     color="#000000"
     id="g354"
     transform="translate(-2.27615,-3.326608)">
    <g
       transform="translate(34.737,8.625)"
       id="g352">
      <rect
         x="-0.061700001"
         y="0.1525"
         width="0.1233"
         height="2.7163"
         ry="0.039999999"
         fill="currentColor"
         id="rect350" />
    </g>
  </g>
  <a
     style="color:inherit"
     xlink:href="textedit:///Users/tomsegarra/Documents/dev/dummies/lilypond_files/3e5beba623d0689ee0a04e068446d2ab.ly:26:19:20"
     id="a360"
     transform="translate(-2.27615,-3.326608)">
    <g
       transform="translate(32.6254,8.625)"
       id="g358">
      <path
         transform="scale(0.0034,-0.0034)"
         d="m 70,205 c 80,0 46,-97 90,-97 15,0 52,45 59,59 6,13 26,13 31,0 L 129,-250 c -9,-7 -19,-11 -30,-11 -11,0 -21,4 -30,11 L 187,76 C 154,64 119,54 84,54 37,54 -3,88 -3,133 c 0,40 33,72 73,72 z"
         fill="currentColor"
         id="path356" />
    </g>
  </a>
  <a
     style="color:inherit"
     xlink:href="textedit:///Users/tomsegarra/Documents/dev/dummies/lilypond_files/3e5beba623d0689ee0a04e068446d2ab.ly:31:41:42"
     id="a368"
     transform="translate(-2.27615,-3.326608)">
    <g
       transform="translate(33.9487,14.125)"
       id="g366">
      <text
         font-family="serif"
         font-size="2.0989px"
         text-anchor="start"
         fill="currentColor"
         id="text364"><tspan
           id="tspan362">the</tspan></text>
    </g>
  </a>
  <g
     color="#000000"
     id="g376"
     transform="translate(-2.27615,-3.326608)">
    <a
       style="color:inherit"
       xlink:href="textedit:///Users/tomsegarra/Documents/dev/dummies/lilypond_files/3e5beba623d0689ee0a04e068446d2ab.ly:26:21:22"
       id="a374">
      <g
         transform="translate(34.6754,8.625)"
         id="g372">
        <path
           transform="scale(0.0034,-0.0034)"
           d="m 215,137 c 67,0 111,-37 111,-92 0,-90 -111,-182 -215,-182 -67,0 -111,37 -111,92 0,90 111,182 215,182 z"
           fill="currentColor"
           id="path370" />
      </g>
    </a>
  </g>
</svg>
