<?xml version="1.0" encoding="UTF-8" standalone="no"?>
<svg
   version="1.2"
   width="101.06342mm"
   height="16.42869mm"
   viewBox="0 0 57.510998 9.3488318"
   id="svg330"
   sodipodi:docname="40c39546eb29c823b81e9673a5c408e2.svg"
   xmlns:inkscape="http://www.inkscape.org/namespaces/inkscape"
   xmlns:sodipodi="http://sodipodi.sourceforge.net/DTD/sodipodi-0.dtd"
   xmlns:xlink="http://www.w3.org/1999/xlink"
   xmlns="http://www.w3.org/2000/svg"
   xmlns:svg="http://www.w3.org/2000/svg">
  <defs
     id="defs334" />
  <sodipodi:namedview
     id="namedview332"
     pagecolor="#ffffff"
     bordercolor="#000000"
     borderopacity="0.25"
     inkscape:showpageshadow="2"
     inkscape:pageopacity="0.0"
     inkscape:pagecheckerboard="0"
     inkscape:deskcolor="#d1d1d1"
     inkscape:document-units="mm" />
  <style
     type="text/css"
     id="style2"><![CDATA[
tspan { white-space: pre; }
]]></style>
  <g
     transform="translate(4.9997121e-5,5.0995089)"
     id="g6">
    <line
       stroke-linejoin="round"
       stroke-linecap="round"
       stroke-width="0.0949"
       stroke="currentColor"
       x1="0.047400001"
       y1="0"
       x2="57.463501"
       y2="0"
       id="line4" />
  </g>
  <g
     transform="translate(4.9997121e-5,4.2495089)"
     id="g10">
    <line
       stroke-linejoin="round"
       stroke-linecap="round"
       stroke-width="0.0949"
       stroke="currentColor"
       x1="0.047400001"
       y1="0"
       x2="57.463501"
       y2="0"
       id="line8" />
  </g>
  <g
     transform="translate(4.9997121e-5,3.3995089)"
     id="g14">
    <line
       stroke-linejoin="round"
       stroke-linecap="round"
       stroke-width="0.0949"
       stroke="currentColor"
       x1="0.047400001"
       y1="0"
       x2="57.463501"
       y2="0"
       id="line12" />
  </g>
  <g
     transform="translate(4.9997121e-5,2.5495089)"
     id="g18">
    <line
       stroke-linejoin="round"
       stroke-linecap="round"
       stroke-width="0.0949"
       stroke="currentColor"
       x1="0.047400001"
       y1="0"
       x2="57.463501"
       y2="0"
       id="line16" />
  </g>
  <g
     transform="translate(4.9997121e-5,1.6995089)"
     id="g22">
    <line
       stroke-linejoin="round"
       stroke-linecap="round"
       stroke-width="0.0949"
       stroke="currentColor"
       x1="0.047400001"
       y1="0"
       x2="57.463501"
       y2="0"
       id="line20" />
  </g>
  <g
     transform="translate(55.11105,3.3995089)"
     id="g26">
    <rect
       x="0"
       y="-1.7"
       width="0.1802"
       height="3.4000001"
       ry="0.0000"
       fill="currentColor"
       id="rect24" />
  </g>
  <g
     transform="translate(34.42665,3.3995089)"
     id="g30">
    <rect
       x="0"
       y="-1.7"
       width="0.1802"
       height="3.4000001"
       ry="0.0000"
       fill="currentColor"
       id="rect28" />
  </g>
  <g
     transform="translate(35.63675,5.2561089)"
     id="g34">
    <polygon
       stroke-linejoin="round"
       stroke-linecap="round"
       stroke-width="0.08"
       fill="currentColor"
       stroke="currentColor"
       points="0.04,0.164 0.04,-0.164 10.0279,-0.164 10.0279,0.164 "
       id="polygon32" />
  </g>
  <a
     style="color:inherit"
     xlink:href="textedit:///Users/tomsegarra/Downloads/dummies/lilypond_files/40c39546eb29c823b81e9673a5c408e2.ly:24:51:59"
     id="a40"
     transform="translate(-2.27615,-3.2766911)">
    <g
       transform="translate(51.1711,12.1762)"
       id="g38">
      <rect
         x="0"
         y="-0.54329997"
         width="0.4533"
         height="0.1233"
         ry="0.037900001"
         fill="currentColor"
         id="rect36" />
    </g>
  </a>
  <a
     style="color:inherit"
     xlink:href="textedit:///Users/tomsegarra/Downloads/dummies/lilypond_files/40c39546eb29c823b81e9673a5c408e2.ly:20:4:5"
     id="a46"
     transform="translate(-2.27615,-3.2766911)">
    <g
       transform="translate(14.9044,6.6762)"
       id="g44">
      <path
         transform="scale(0.0034,-0.0034)"
         d="m 70,205 c 80,0 46,-97 90,-97 15,0 52,45 59,59 6,13 26,13 31,0 L 129,-250 c -9,-7 -19,-11 -30,-11 -11,0 -21,4 -30,11 L 187,76 C 154,64 119,54 84,54 37,54 -3,88 -3,133 c 0,40 33,72 73,72 z"
         fill="currentColor"
         id="path42" />
    </g>
  </a>
  <g
     transform="translate(0.80005,4.2495089)"
     id="g50">
    <path
       transform="scale(0.0034,-0.0034)"
       d="m 646,2 c 0,-113 -74,-213 -180,-247 3,-34 5,-68 5,-102 0,-20 -1,-40 -2,-60 -7,-121 -91,-228 -209,-228 -108,0 -196,87 -196,196 0,58 53,104 112,104 54,0 95,-48 95,-104 0,-52 -43,-95 -95,-95 -10,0 -20,2 -29,6 26,-38 68,-63 116,-63 h 3 c 93,2 153,92 159,190 1,19 2,37 2,56 0,30 -2,60 -4,90 -5,-1 -43,-8 -88,-8 -194,0 -333,180 -333,375 0,177 130,307 246,442 -31,98 -53,170 -53,347 0,115 55,223 148,290 7,5 16,4 22,-1 68,-80 134,-243 134,-357 0,-143 -85,-255 -178,-364 21,-68 40,-137 57,-206 1,0 5,1 11,1 C 545,264 646,135 646,2 Z M 462,-202 c 66,24 111,88 111,162 0,89 -65,178 -170,190 28,-135 50,-272 59,-352 z M 75,26 c 0,-145 141,-245 263,-245 1,0 46,0 81,6 -7,65 -27,206 -61,363 -79,-8 -124,-61 -124,-119 0,-43 25,-89 80,-121 5,-5 7,-11 7,-16 0,-12 -10,-23 -22,-23 -16,0 -127,63 -127,188 0,89 58,175 161,198 -14,58 -29,116 -46,173 C 181,308 75,186 75,26 Z M 406,1042 C 307,995 244,894 244,785 c 0,-49 13,-111 38,-191 79,97 144,199 144,324 0,33 0,63 -20,124 z"
       fill="currentColor"
       id="path48" />
  </g>
  <a
     style="color:inherit"
     xlink:href="textedit:///Users/tomsegarra/Downloads/dummies/lilypond_files/40c39546eb29c823b81e9673a5c408e2.ly:19:4:5"
     id="a68"
     transform="translate(-2.27615,-3.2766911)">
    <g
       transform="translate(6.5762,4.9762)"
       id="g54">
      <path
         transform="scale(0.0034,-0.0034)"
         d="m 0,117 c 0,9 6,18 15,21 l 43,16 v 157 c 0,11 8,19 19,19 11,0 20,-8 20,-19 V 169 l 81,30 v 156 c 0,11 9,20 20,20 11,0 19,-9 19,-20 V 213 l 28,11 c 3,1 5,1 8,1 12,0 22,-10 22,-23 v -57 c 0,-9 -6,-18 -15,-21 L 217,108 V -49 l 28,10 c 3,1 5,1 8,1 12,0 22,-9 22,-22 v -57 c 0,-9 -6,-18 -15,-21 l -43,-16 v -157 c 0,-11 -8,-19 -19,-19 -11,0 -20,8 -20,19 v 142 l -81,-30 v -156 c 0,-11 -9,-20 -20,-20 -11,0 -19,9 -19,20 v 142 l -28,-11 c -3,-1 -5,-1 -8,-1 -12,0 -22,10 -22,23 v 57 c 0,9 6,18 15,21 l 43,16 V 49 L 30,39 C 27,38 25,38 22,38 10,38 0,47 0,60 Z M 178,94 97,64 V -94 l 81,30 z"
         fill="currentColor"
         id="path52" />
    </g>
    <g
       transform="translate(7.5112,6.2512)"
       id="g58">
      <path
         transform="scale(0.0034,-0.0034)"
         d="m 0,117 c 0,9 6,18 15,21 l 43,16 v 157 c 0,11 8,19 19,19 11,0 20,-8 20,-19 V 169 l 81,30 v 156 c 0,11 9,20 20,20 11,0 19,-9 19,-20 V 213 l 28,11 c 3,1 5,1 8,1 12,0 22,-10 22,-23 v -57 c 0,-9 -6,-18 -15,-21 L 217,108 V -49 l 28,10 c 3,1 5,1 8,1 12,0 22,-9 22,-22 v -57 c 0,-9 -6,-18 -15,-21 l -43,-16 v -157 c 0,-11 -8,-19 -19,-19 -11,0 -20,8 -20,19 v 142 l -81,-30 v -156 c 0,-11 -9,-20 -20,-20 -11,0 -19,9 -19,20 v 142 l -28,-11 c -3,-1 -5,-1 -8,-1 -12,0 -22,10 -22,23 v 57 c 0,9 6,18 15,21 l 43,16 V 49 L 30,39 C 27,38 25,38 22,38 10,38 0,47 0,60 Z M 178,94 97,64 V -94 l 81,30 z"
         fill="currentColor"
         id="path56" />
    </g>
    <g
       transform="translate(8.4462,4.5512)"
       id="g62">
      <path
         transform="scale(0.0034,-0.0034)"
         d="m 0,117 c 0,9 6,18 15,21 l 43,16 v 157 c 0,11 8,19 19,19 11,0 20,-8 20,-19 V 169 l 81,30 v 156 c 0,11 9,20 20,20 11,0 19,-9 19,-20 V 213 l 28,11 c 3,1 5,1 8,1 12,0 22,-10 22,-23 v -57 c 0,-9 -6,-18 -15,-21 L 217,108 V -49 l 28,10 c 3,1 5,1 8,1 12,0 22,-9 22,-22 v -57 c 0,-9 -6,-18 -15,-21 l -43,-16 v -157 c 0,-11 -8,-19 -19,-19 -11,0 -20,8 -20,19 v 142 l -81,-30 v -156 c 0,-11 -9,-20 -20,-20 -11,0 -19,9 -19,20 v 142 l -28,-11 c -3,-1 -5,-1 -8,-1 -12,0 -22,10 -22,23 v 57 c 0,9 6,18 15,21 l 43,16 V 49 L 30,39 C 27,38 25,38 22,38 10,38 0,47 0,60 Z M 178,94 97,64 V -94 l 81,30 z"
         fill="currentColor"
         id="path60" />
    </g>
    <g
       transform="translate(9.3812,5.8262)"
       id="g66">
      <path
         transform="scale(0.0034,-0.0034)"
         d="m 0,117 c 0,9 6,18 15,21 l 43,16 v 157 c 0,11 8,19 19,19 11,0 20,-8 20,-19 V 169 l 81,30 v 156 c 0,11 9,20 20,20 11,0 19,-9 19,-20 V 213 l 28,11 c 3,1 5,1 8,1 12,0 22,-10 22,-23 v -57 c 0,-9 -6,-18 -15,-21 L 217,108 V -49 l 28,10 c 3,1 5,1 8,1 12,0 22,-9 22,-22 v -57 c 0,-9 -6,-18 -15,-21 l -43,-16 v -157 c 0,-11 -8,-19 -19,-19 -11,0 -20,8 -20,19 v 142 l -81,-30 v -156 c 0,-11 -9,-20 -20,-20 -11,0 -19,9 -19,20 v 142 l -28,-11 c -3,-1 -5,-1 -8,-1 -12,0 -22,10 -22,23 v 57 c 0,9 6,18 15,21 l 43,16 V 49 L 30,39 C 27,38 25,38 22,38 10,38 0,47 0,60 Z M 178,94 97,64 V -94 l 81,30 z"
         fill="currentColor"
         id="path64" />
    </g>
  </a>
  <g
     transform="translate(9.19015,3.3995089)"
     id="g72">
    <path
       transform="scale(0.0034,-0.0034)"
       d="m 358,29 c -30,0 -74,23 -74,73 0,38 27,76 71,76 4,0 7,0 11,-1 -27,36 -69,59 -116,59 -106,0 -113,-74 -113,-188 0,-15 1,-31 1,-48 0,-17 -1,-33 -1,-48 0,-114 7,-188 113,-188 79,0 136,70 155,150 2,7 7,10 13,10 7,0 14,-5 14,-13 0,-21 -50,-175 -182,-175 C 191,-264 0,-244 0,0 0,63 18,264 250,264 365,264 424,155 424,99 424,60 394,29 358,29 Z"
       fill="currentColor"
       id="path70" />
  </g>
  <a
     style="color:inherit"
     xlink:href="textedit:///Users/tomsegarra/Downloads/dummies/lilypond_files/40c39546eb29c823b81e9673a5c408e2.ly:21:17:18"
     id="a78"
     transform="translate(-2.27615,-3.2766911)">
    <g
       transform="translate(47.8575,6.6762)"
       id="g76">
      <path
         stroke-width="0.0759"
         stroke-linejoin="round"
         stroke-linecap="round"
         stroke="currentColor"
         fill="currentColor"
         d="m 0.6206,-2.5913 c 0.7164,-0.4725 1.8062,-0.2718 2.3073,0.425 v 0 C 2.4062,-2.7511 1.3164,-2.9518 0.6206,-2.5913 Z"
         id="path74" />
    </g>
  </a>
  <a
     style="color:inherit"
     xlink:href="textedit:///Users/tomsegarra/Downloads/dummies/lilypond_files/40c39546eb29c823b81e9673a5c408e2.ly:20:7:8"
     id="a84"
     transform="translate(-2.27615,-3.2766911)">
    <g
       transform="translate(16.9544,4.5512)"
       id="g82">
      <path
         transform="scale(0.0034,-0.0034)"
         d="m 215,137 c 67,0 111,-37 111,-92 0,-90 -111,-182 -215,-182 -67,0 -111,37 -111,92 0,90 111,182 215,182 z"
         fill="currentColor"
         id="path80" />
    </g>
  </a>
  <a
     style="color:inherit"
     xlink:href="textedit:///Users/tomsegarra/Downloads/dummies/lilypond_files/40c39546eb29c823b81e9673a5c408e2.ly:24:1:9"
     id="a92"
     transform="translate(-2.27615,-3.2766911)">
    <g
       transform="translate(15.1181,12.1762)"
       id="g90">
      <text
         font-family="serif"
         font-size="2.0989px"
         text-anchor="start"
         fill="currentColor"
         id="text88"><tspan
           id="tspan86">Some</tspan></text>
    </g>
  </a>
  <g
     transform="translate(14.73995,3.3995089)"
     id="g96">
    <rect
       x="-0.061700001"
       y="-1.9725"
       width="0.1233"
       height="2.6659999"
       ry="0.039999999"
       fill="currentColor"
       id="rect94" />
  </g>
  <a
     style="color:inherit"
     xlink:href="textedit:///Users/tomsegarra/Downloads/dummies/lilypond_files/40c39546eb29c823b81e9673a5c408e2.ly:20:14:15"
     id="a102"
     transform="translate(-2.27615,-3.2766911)">
    <g
       transform="translate(21.715,4.5512)"
       id="g100">
      <path
         transform="scale(0.0034,-0.0034)"
         d="m 215,137 c 67,0 111,-37 111,-92 0,-90 -111,-182 -215,-182 -67,0 -111,37 -111,92 0,90 111,182 215,182 z"
         fill="currentColor"
         id="path98" />
    </g>
  </a>
  <a
     style="color:inherit"
     xlink:href="textedit:///Users/tomsegarra/Downloads/dummies/lilypond_files/40c39546eb29c823b81e9673a5c408e2.ly:24:9:17"
     id="a110"
     transform="translate(-2.27615,-3.2766911)">
    <g
       transform="translate(19.9981,12.1762)"
       id="g108">
      <text
         font-family="serif"
         font-size="2.0989px"
         text-anchor="start"
         fill="currentColor"
         id="text106"><tspan
           id="tspan104">times</tspan></text>
    </g>
  </a>
  <g
     transform="translate(19.50045,3.3995089)"
     id="g114">
    <rect
       x="-0.061700001"
       y="-1.9725"
       width="0.1233"
       height="2.6659999"
       ry="0.039999999"
       fill="currentColor"
       id="rect112" />
  </g>
  <a
     style="color:inherit"
     xlink:href="textedit:///Users/tomsegarra/Downloads/dummies/lilypond_files/40c39546eb29c823b81e9673a5c408e2.ly:20:18:19"
     id="a120"
     transform="translate(-2.27615,-3.2766911)">
    <g
       transform="translate(24.7769,4.5512)"
       id="g118">
      <path
         transform="scale(0.0034,-0.0034)"
         d="m 215,137 c 67,0 111,-37 111,-92 0,-90 -111,-182 -215,-182 -67,0 -111,37 -111,92 0,90 111,182 215,182 z"
         fill="currentColor"
         id="path116" />
    </g>
  </a>
  <a
     style="color:inherit"
     xlink:href="textedit:///Users/tomsegarra/Downloads/dummies/lilypond_files/40c39546eb29c823b81e9673a5c408e2.ly:24:15:23"
     id="a128"
     transform="translate(-2.27615,-3.2766911)">
    <g
       transform="translate(24.9892,12.1762)"
       id="g126">
      <text
         font-family="serif"
         font-size="2.0989px"
         text-anchor="start"
         fill="currentColor"
         id="text124"><tspan
           id="tspan122">I</tspan></text>
    </g>
  </a>
  <g
     transform="translate(22.56245,3.3995089)"
     id="g132">
    <rect
       x="-0.061700001"
       y="-1.9725"
       width="0.1233"
       height="2.6659999"
       ry="0.039999999"
       fill="currentColor"
       id="rect130" />
  </g>
  <a
     style="color:inherit"
     xlink:href="textedit:///Users/tomsegarra/Downloads/dummies/lilypond_files/40c39546eb29c823b81e9673a5c408e2.ly:20:22:23"
     id="a138"
     transform="translate(-2.27615,-3.2766911)">
    <g
       transform="translate(27.0843,4.9762)"
       id="g136">
      <path
         transform="scale(0.0034,-0.0034)"
         d="m 215,137 c 67,0 111,-37 111,-92 0,-90 -111,-182 -215,-182 -67,0 -111,37 -111,92 0,90 111,182 215,182 z"
         fill="currentColor"
         id="path134" />
    </g>
  </a>
  <a
     style="color:inherit"
     xlink:href="textedit:///Users/tomsegarra/Downloads/dummies/lilypond_files/40c39546eb29c823b81e9673a5c408e2.ly:24:17:25"
     id="a146"
     transform="translate(-2.27615,-3.2766911)">
    <g
       transform="translate(26.8356,12.1762)"
       id="g144">
      <text
         font-family="serif"
         font-size="2.0989px"
         text-anchor="start"
         fill="currentColor"
         id="text142"><tspan
           id="tspan140">fe</tspan></text>
    </g>
  </a>
  <g
     transform="translate(24.86985,3.3995089)"
     id="g150">
    <rect
       x="-0.061700001"
       y="-1.5475"
       width="0.1233"
       height="3.0978999"
       ry="0.039999999"
       fill="currentColor"
       id="rect148" />
  </g>
  <g
     transform="translate(24.80815,4.9429089)"
     id="g154">
    <polygon
       stroke-linejoin="round"
       stroke-linecap="round"
       stroke-width="0.08"
       fill="currentColor"
       stroke="currentColor"
       points="0.04,0.164 0.04,-0.164 7.5245,0.686 7.5245,1.014 "
       id="polygon152" />
  </g>
  <a
     style="color:inherit"
     xlink:href="textedit:///Users/tomsegarra/Downloads/dummies/lilypond_files/40c39546eb29c823b81e9673a5c408e2.ly:20:26:27"
     id="a160"
     transform="translate(-2.27615,-3.2766911)">
    <g
       transform="translate(29.3917,5.4012)"
       id="g158">
      <path
         transform="scale(0.0034,-0.0034)"
         d="m 215,137 c 67,0 111,-37 111,-92 0,-90 -111,-182 -215,-182 -67,0 -111,37 -111,92 0,90 111,182 215,182 z"
         fill="currentColor"
         id="path156" />
    </g>
  </a>
  <a
     style="color:inherit"
     xlink:href="textedit:///Users/tomsegarra/Downloads/dummies/lilypond_files/40c39546eb29c823b81e9673a5c408e2.ly:24:23:31"
     id="a168"
     transform="translate(-2.27615,-3.2766911)">
    <g
       transform="translate(29.1942,12.1762)"
       id="g166">
      <text
         font-family="serif"
         font-size="2.0989px"
         text-anchor="start"
         fill="currentColor"
         id="text164"><tspan
           id="tspan162">el</tspan></text>
    </g>
  </a>
  <g
     transform="translate(27.17725,3.3995089)"
     id="g172">
    <rect
       x="-0.061700001"
       y="-1.1224999"
       width="0.1233"
       height="2.9322"
       ry="0.039999999"
       fill="currentColor"
       id="rect170" />
  </g>
  <a
     style="color:inherit"
     xlink:href="textedit:///Users/tomsegarra/Downloads/dummies/lilypond_files/40c39546eb29c823b81e9673a5c408e2.ly:20:28:29"
     id="a178"
     transform="translate(-2.27615,-3.2766911)">
    <g
       transform="translate(32.1635,5.4012)"
       id="g176">
      <path
         transform="scale(0.0034,-0.0034)"
         d="m 215,137 c 67,0 111,-37 111,-92 0,-90 -111,-182 -215,-182 -67,0 -111,37 -111,92 0,90 111,182 215,182 z"
         fill="currentColor"
         id="path174" />
    </g>
  </a>
  <a
     style="color:inherit"
     xlink:href="textedit:///Users/tomsegarra/Downloads/dummies/lilypond_files/40c39546eb29c823b81e9673a5c408e2.ly:24:26:34"
     id="a186"
     transform="translate(-2.27615,-3.2766911)">
    <g
       transform="translate(31.1466,12.1762)"
       id="g184">
      <text
         font-family="serif"
         font-size="2.0989px"
         text-anchor="start"
         fill="currentColor"
         id="text182"><tspan
           id="tspan180">like</tspan></text>
    </g>
  </a>
  <g
     transform="translate(29.94895,3.3995089)"
     id="g190">
    <rect
       x="-0.061700001"
       y="-1.1224999"
       width="0.1233"
       height="3.2435999"
       ry="0.039999999"
       fill="currentColor"
       id="rect188" />
  </g>
  <a
     style="color:inherit"
     xlink:href="textedit:///Users/tomsegarra/Downloads/dummies/lilypond_files/40c39546eb29c823b81e9673a5c408e2.ly:20:30:31"
     id="a196"
     transform="translate(-2.27615,-3.2766911)">
    <g
       transform="translate(34.5255,6.6762)"
       id="g194">
      <path
         transform="scale(0.0034,-0.0034)"
         d="m 215,137 c 67,0 111,-37 111,-92 0,-90 -111,-182 -215,-182 -67,0 -111,37 -111,92 0,90 111,182 215,182 z"
         fill="currentColor"
         id="path192" />
    </g>
  </a>
  <a
     style="color:inherit"
     xlink:href="textedit:///Users/tomsegarra/Downloads/dummies/lilypond_files/40c39546eb29c823b81e9673a5c408e2.ly:24:31:39"
     id="a204"
     transform="translate(-2.27615,-3.2766911)">
    <g
       transform="translate(34.7377,12.1762)"
       id="g202">
      <text
         font-family="serif"
         font-size="2.0989px"
         text-anchor="start"
         fill="currentColor"
         id="text200"><tspan
           id="tspan198">I</tspan></text>
    </g>
  </a>
  <g
     transform="translate(32.31095,3.3995089)"
     id="g208">
    <rect
       x="-0.061700001"
       y="0.1525"
       width="0.1233"
       height="2.234"
       ry="0.039999999"
       fill="currentColor"
       id="rect206" />
  </g>
  <g
     transform="translate(14.67825,4.0929089)"
     id="g212">
    <polygon
       stroke-linejoin="round"
       stroke-linecap="round"
       stroke-width="0.08"
       fill="currentColor"
       stroke="currentColor"
       points="0.04,0.164 0.04,-0.164 7.9058,-0.164 7.9058,0.164 "
       id="polygon210" />
  </g>
  <a
     style="color:inherit"
     xlink:href="textedit:///Users/tomsegarra/Downloads/dummies/lilypond_files/40c39546eb29c823b81e9673a5c408e2.ly:21:4:5"
     id="a218"
     transform="translate(-2.27615,-3.2766911)">
    <g
       transform="translate(37.9129,6.2512)"
       id="g216">
      <path
         transform="scale(0.0034,-0.0034)"
         d="m 215,137 c 67,0 111,-37 111,-92 0,-90 -111,-182 -215,-182 -67,0 -111,37 -111,92 0,90 111,182 215,182 z"
         fill="currentColor"
         id="path214" />
    </g>
  </a>
  <a
     style="color:inherit"
     xlink:href="textedit:///Users/tomsegarra/Downloads/dummies/lilypond_files/40c39546eb29c823b81e9673a5c408e2.ly:24:33:41"
     id="a226"
     transform="translate(-2.27615,-3.2766911)">
    <g
       transform="translate(36.4009,12.1762)"
       id="g224">
      <text
         font-family="serif"
         font-size="2.0989px"
         text-anchor="start"
         fill="currentColor"
         id="text222"><tspan
           id="tspan220">don't</tspan></text>
    </g>
  </a>
  <g
     transform="translate(35.69845,3.3995089)"
     id="g230">
    <rect
       x="-0.061700001"
       y="-0.27250001"
       width="0.1233"
       height="2.1291001"
       ry="0.039999999"
       fill="currentColor"
       id="rect228" />
  </g>
  <a
     style="color:inherit"
     xlink:href="textedit:///Users/tomsegarra/Downloads/dummies/lilypond_files/40c39546eb29c823b81e9673a5c408e2.ly:24:20:28"
     id="a236"
     transform="translate(-2.27615,-3.2766911)">
    <g
       transform="translate(28.5104,12.1762)"
       id="g234">
      <rect
         x="0"
         y="-0.54329997"
         width="0.61390001"
         height="0.1233"
         ry="0.037900001"
         fill="currentColor"
         id="rect232" />
    </g>
  </a>
  <a
     style="color:inherit"
     xlink:href="textedit:///Users/tomsegarra/Downloads/dummies/lilypond_files/40c39546eb29c823b81e9673a5c408e2.ly:21:8:9"
     id="a242"
     transform="translate(-2.27615,-3.2766911)">
    <g
       transform="translate(42.4089,5.4012)"
       id="g240">
      <path
         transform="scale(0.0034,-0.0034)"
         d="m 215,137 c 67,0 111,-37 111,-92 0,-90 -111,-182 -215,-182 -67,0 -111,37 -111,92 0,90 111,182 215,182 z"
         fill="currentColor"
         id="path238" />
    </g>
  </a>
  <a
     style="color:inherit"
     xlink:href="textedit:///Users/tomsegarra/Downloads/dummies/lilypond_files/40c39546eb29c823b81e9673a5c408e2.ly:24:39:47"
     id="a250"
     transform="translate(-2.27615,-3.2766911)">
    <g
       transform="translate(40.9823,12.1762)"
       id="g248">
      <text
         font-family="serif"
         font-size="2.0989px"
         text-anchor="start"
         fill="currentColor"
         id="text246"><tspan
           id="tspan244">have</tspan></text>
    </g>
  </a>
  <g
     transform="translate(40.19435,3.3995089)"
     id="g254">
    <rect
       x="-0.061700001"
       y="-1.1224999"
       width="0.1233"
       height="2.9791"
       ry="0.039999999"
       fill="currentColor"
       id="rect252" />
  </g>
  <a
     style="color:inherit"
     xlink:href="textedit:///Users/tomsegarra/Downloads/dummies/lilypond_files/40c39546eb29c823b81e9673a5c408e2.ly:21:10:11"
     id="a260"
     transform="translate(-2.27615,-3.2766911)">
    <g
       transform="translate(45.3001,6.2512)"
       id="g258">
      <path
         transform="scale(0.0034,-0.0034)"
         d="m 215,137 c 67,0 111,-37 111,-92 0,-90 -111,-182 -215,-182 -67,0 -111,37 -111,92 0,90 111,182 215,182 z"
         fill="currentColor"
         id="path256" />
    </g>
  </a>
  <a
     style="color:inherit"
     xlink:href="textedit:///Users/tomsegarra/Downloads/dummies/lilypond_files/40c39546eb29c823b81e9673a5c408e2.ly:24:44:52"
     id="a268"
     transform="translate(-2.27615,-3.2766911)">
    <g
       transform="translate(45.3929,12.1762)"
       id="g266">
      <text
         font-family="serif"
         font-size="2.0989px"
         text-anchor="start"
         fill="currentColor"
         id="text264"><tspan
           id="tspan262">a</tspan></text>
    </g>
  </a>
  <g
     transform="translate(43.08565,3.3995089)"
     id="g272">
    <rect
       x="-0.061700001"
       y="-0.27250001"
       width="0.1233"
       height="2.1291001"
       ry="0.039999999"
       fill="currentColor"
       id="rect270" />
  </g>
  <a
     style="color:inherit"
     xlink:href="textedit:///Users/tomsegarra/Downloads/dummies/lilypond_files/40c39546eb29c823b81e9673a5c408e2.ly:21:14:15"
     id="a278"
     transform="translate(-2.27615,-3.2766911)">
    <g
       transform="translate(47.8575,4.9762)"
       id="g276">
      <path
         transform="scale(0.0034,-0.0034)"
         d="m 215,137 c 67,0 111,-37 111,-92 0,-90 -111,-182 -215,-182 -67,0 -111,37 -111,92 0,90 111,182 215,182 z"
         fill="currentColor"
         id="path274" />
    </g>
  </a>
  <a
     style="color:inherit"
     xlink:href="textedit:///Users/tomsegarra/Downloads/dummies/lilypond_files/40c39546eb29c823b81e9673a5c408e2.ly:24:46:54"
     id="a286"
     transform="translate(-2.27615,-3.2766911)">
    <g
       transform="translate(47.8575,12.1762)"
       id="g284">
      <text
         font-family="serif"
         font-size="2.0989px"
         text-anchor="start"
         fill="currentColor"
         id="text282"><tspan
           id="tspan280">part</tspan></text>
    </g>
  </a>
  <g
     transform="translate(45.64305,3.3995089)"
     id="g290">
    <rect
       x="-0.061700001"
       y="-1.5475"
       width="0.1233"
       height="3.4040999"
       ry="0.039999999"
       fill="currentColor"
       id="rect288" />
  </g>
  <a
     style="color:inherit"
     xlink:href="textedit:///Users/tomsegarra/Downloads/dummies/lilypond_files/40c39546eb29c823b81e9673a5c408e2.ly:21:19:20"
     id="a296"
     transform="translate(-2.27615,-3.2766911)">
    <g
       transform="translate(50.1649,5.4012)"
       id="g294">
      <path
         transform="scale(0.0034,-0.0034)"
         d="m 215,137 c 67,0 111,-37 111,-92 0,-90 -111,-182 -215,-182 -67,0 -111,37 -111,92 0,90 111,182 215,182 z"
         fill="currentColor"
         id="path292" />
    </g>
  </a>
  <g
     transform="translate(47.95045,3.3995089)"
     id="g300">
    <rect
       x="-0.061700001"
       y="-1.1224999"
       width="0.1233"
       height="2.8225"
       ry="0.039999999"
       fill="currentColor"
       id="rect298" />
  </g>
  <g
     transform="translate(48.01205,5.0595089)"
     id="g304">
    <path
       transform="scale(0.0034,-0.0034)"
       d="M 0,0 H -18 V 250 H 0 Z m 0,0 v 250 c 96,59 222,149 222,259 0,57 -15,111 -40,162 -3,17 10,29 24,29 8,0 16,-5 21,-13 25,-56 40,-116 40,-178 C 267,306 0,203 0,0 Z"
       fill="currentColor"
       id="path302" />
  </g>
  <a
     style="color:inherit"
     xlink:href="textedit:///Users/tomsegarra/Downloads/dummies/lilypond_files/40c39546eb29c823b81e9673a5c408e2.ly:21:22:23"
     id="a310"
     transform="translate(-2.27615,-3.2766911)">
    <g
       transform="translate(52.4723,5.4012)"
       id="g308">
      <path
         transform="scale(0.0034,-0.0034)"
         d="m 215,137 c 67,0 111,-37 111,-92 0,-90 -111,-182 -215,-182 -67,0 -111,37 -111,92 0,90 111,182 215,182 z"
         fill="currentColor"
         id="path306" />
    </g>
  </a>
  <a
     style="color:inherit"
     xlink:href="textedit:///Users/tomsegarra/Downloads/dummies/lilypond_files/40c39546eb29c823b81e9673a5c408e2.ly:24:54:62"
     id="a318"
     transform="translate(-2.27615,-3.2766911)">
    <g
       transform="translate(51.6944,12.1762)"
       id="g316">
      <text
         font-family="serif"
         font-size="2.0989px"
         text-anchor="start"
         fill="currentColor"
         id="text314"><tspan
           id="tspan312">ner</tspan></text>
    </g>
  </a>
  <g
     transform="translate(50.25775,3.3995089)"
     id="g322">
    <rect
       x="-0.061700001"
       y="-1.1224999"
       width="0.1233"
       height="2.8225"
       ry="0.039999999"
       fill="currentColor"
       id="rect320" />
  </g>
  <a
     style="color:inherit"
     xlink:href="textedit:///Users/tomsegarra/Downloads/dummies/lilypond_files/40c39546eb29c823b81e9673a5c408e2.ly:21:25:26"
     id="a328"
     transform="translate(-2.27615,-3.2766911)">
    <g
       transform="translate(55.9797,6.6762)"
       id="g326">
      <path
         transform="scale(0.0034,-0.0034)"
         d="m -8,78 c 0,59 125,83 125,182 0,25 -9,49 -26,69 l -33,40 c -3,4 -4,7 -4,11 0,9 9,17 18,17 4,0 8,-2 12,-6 L 234,212 c 7,-9 11,-18 11,-26 0,-59 -125,-83 -125,-182 0,-25 8,-49 25,-69 l 82,-97 c 3,-4 4,-7 4,-11 0,-9 -8,-17 -17,-17 -10,0 -42,42 -106,42 -19,0 -54,-1 -54,-66 0,-34 10,-73 27,-93 7,-9 -5,-20 -12,-11 -45,53 -93,147 -93,201 0,42 27,42 43,42 31,0 74,-11 113,-27 L 3,52 C -4,61 -8,70 -8,78 Z"
         fill="currentColor"
         id="path324" />
    </g>
  </a>
</svg>
