<?xml version="1.0" encoding="UTF-8" standalone="no"?>
<svg
   version="1.2"
   width="146.69025mm"
   height="12.435188mm"
   viewBox="0 0 83.475653 7.0763088"
   id="svg476"
   sodipodi:docname="5904dd68d43fdc1683fc54e085f424ad.svg"
   xmlns:inkscape="http://www.inkscape.org/namespaces/inkscape"
   xmlns:sodipodi="http://sodipodi.sourceforge.net/DTD/sodipodi-0.dtd"
   xmlns:xlink="http://www.w3.org/1999/xlink"
   xmlns="http://www.w3.org/2000/svg"
   xmlns:svg="http://www.w3.org/2000/svg">
  <defs
     id="defs480" />
  <sodipodi:namedview
     id="namedview478"
     pagecolor="#ffffff"
     bordercolor="#000000"
     borderopacity="0.25"
     inkscape:showpageshadow="2"
     inkscape:pageopacity="0.0"
     inkscape:pagecheckerboard="0"
     inkscape:deskcolor="#d1d1d1"
     inkscape:document-units="mm" />
  <style
     type="text/css"
     id="style2"><![CDATA[
tspan { white-space: pre; }
]]></style>
  <!-- Page: 1/1 -->
  <g
     transform="translate(4.9997121e-5,5.7597696)"
     id="g6">
    <rect
       x="77.503601"
       y="-0.089900002"
       width="1.6611"
       height="0.17990001"
       ry="0.089900002"
       fill="currentColor"
       id="rect4" />
  </g>
  <g
     transform="translate(4.9997121e-5,6.6097696)"
     id="g10">
    <rect
       x="77.503601"
       y="-0.089900002"
       width="1.6611"
       height="0.17990001"
       ry="0.089900002"
       fill="currentColor"
       id="rect8" />
  </g>
  <g
     transform="translate(4.9997121e-5,5.7597696)"
     id="g14">
    <rect
       x="75.196198"
       y="-0.089900002"
       width="1.6611"
       height="0.17990001"
       ry="0.089900002"
       fill="currentColor"
       id="rect12" />
  </g>
  <g
     transform="translate(4.9997121e-5,6.6097696)"
     id="g18">
    <rect
       x="75.196198"
       y="-0.089900002"
       width="1.6611"
       height="0.17990001"
       ry="0.089900002"
       fill="currentColor"
       id="rect16" />
  </g>
  <g
     transform="translate(4.9997121e-5,5.7597696)"
     id="g22">
    <rect
       x="72.888802"
       y="-0.089900002"
       width="1.6611"
       height="0.17990001"
       ry="0.089900002"
       fill="currentColor"
       id="rect20" />
  </g>
  <g
     transform="translate(4.9997121e-5,6.6097696)"
     id="g26">
    <rect
       x="72.888802"
       y="-0.089900002"
       width="1.6611"
       height="0.17990001"
       ry="0.089900002"
       fill="currentColor"
       id="rect24" />
  </g>
  <g
     transform="translate(4.9997121e-5,5.7597696)"
     id="g30">
    <rect
       x="68.531502"
       y="-0.089900002"
       width="1.6611"
       height="0.17990001"
       ry="0.089900002"
       fill="currentColor"
       id="rect28" />
  </g>
  <g
     transform="translate(4.9997121e-5,6.6097696)"
     id="g34">
    <rect
       x="68.531502"
       y="-0.089900002"
       width="1.6611"
       height="0.17990001"
       ry="0.089900002"
       fill="currentColor"
       id="rect32" />
  </g>
  <g
     transform="translate(4.9997121e-5,5.7597696)"
     id="g38">
    <rect
       x="66.224098"
       y="-0.089900002"
       width="1.6611"
       height="0.17990001"
       ry="0.089900002"
       fill="currentColor"
       id="rect36" />
  </g>
  <g
     transform="translate(4.9997121e-5,6.6097696)"
     id="g42">
    <rect
       x="66.224098"
       y="-0.089900002"
       width="1.6611"
       height="0.17990001"
       ry="0.089900002"
       fill="currentColor"
       id="rect40" />
  </g>
  <g
     transform="translate(4.9997121e-5,5.7597696)"
     id="g46">
    <rect
       x="53.369701"
       y="-0.089900002"
       width="1.6611"
       height="0.17990001"
       ry="0.089900002"
       fill="currentColor"
       id="rect44" />
  </g>
  <g
     transform="translate(4.9997121e-5,5.7597696)"
     id="g50">
    <rect
       x="49.012402"
       y="-0.089900002"
       width="1.6611"
       height="0.17990001"
       ry="0.089900002"
       fill="currentColor"
       id="rect48" />
  </g>
  <g
     transform="translate(4.9997121e-5,5.7597696)"
     id="g54">
    <rect
       x="46.705002"
       y="-0.089900002"
       width="1.6611"
       height="0.17990001"
       ry="0.089900002"
       fill="currentColor"
       id="rect52" />
  </g>
  <g
     transform="translate(4.9997121e-5,5.7597696)"
     id="g58">
    <rect
       x="43.317402"
       y="-0.089900002"
       width="1.6611"
       height="0.17990001"
       ry="0.089900002"
       fill="currentColor"
       id="rect56" />
  </g>
  <g
     transform="translate(4.9997121e-5,5.7597696)"
     id="g62">
    <rect
       x="38.959999"
       y="-0.089900002"
       width="1.6611"
       height="0.17990001"
       ry="0.089900002"
       fill="currentColor"
       id="rect60" />
  </g>
  <g
     transform="translate(4.9997121e-5,5.7597696)"
     id="g66">
    <rect
       x="36.652599"
       y="-0.089900002"
       width="1.6611"
       height="0.17990001"
       ry="0.089900002"
       fill="currentColor"
       id="rect64" />
  </g>
  <g
     transform="translate(4.9997121e-5,5.7597696)"
     id="g70">
    <rect
       x="34.3452"
       y="-0.089900002"
       width="1.6611"
       height="0.17990001"
       ry="0.089900002"
       fill="currentColor"
       id="rect68" />
  </g>
  <g
     transform="translate(4.9997121e-5,5.7597696)"
     id="g74">
    <rect
       x="29.987801"
       y="-0.089900002"
       width="1.6611"
       height="0.17990001"
       ry="0.089900002"
       fill="currentColor"
       id="rect72" />
  </g>
  <g
     transform="translate(4.9997121e-5,5.7597696)"
     id="g78">
    <rect
       x="27.680401"
       y="-0.089900002"
       width="1.6611"
       height="0.17990001"
       ry="0.089900002"
       fill="currentColor"
       id="rect76" />
  </g>
  <g
     transform="translate(4.9997121e-5,5.7597696)"
     id="g82">
    <rect
       x="14.8261"
       y="-0.089900002"
       width="1.6611"
       height="0.17990001"
       ry="0.089900002"
       fill="currentColor"
       id="rect80" />
  </g>
  <g
     transform="translate(4.9997121e-5,5.7597696)"
     id="g86">
    <rect
       x="10.4687"
       y="-0.089900002"
       width="1.6611"
       height="0.17990001"
       ry="0.089900002"
       fill="currentColor"
       id="rect84" />
  </g>
  <g
     transform="translate(4.9997121e-5,5.7597696)"
     id="g90">
    <rect
       x="8.1612997"
       y="-0.089900002"
       width="1.6611"
       height="0.17990001"
       ry="0.089900002"
       fill="currentColor"
       id="rect88" />
  </g>
  <g
     transform="translate(4.9997121e-5,4.9097696)"
     id="g94">
    <line
       stroke-linejoin="round"
       stroke-linecap="round"
       stroke-width="0.0949"
       stroke="currentColor"
       x1="0.047400001"
       y1="0"
       x2="83.428101"
       y2="0"
       id="line92" />
  </g>
  <g
     transform="translate(4.9997121e-5,4.0597696)"
     id="g98">
    <line
       stroke-linejoin="round"
       stroke-linecap="round"
       stroke-width="0.0949"
       stroke="currentColor"
       x1="0.047400001"
       y1="0"
       x2="83.428101"
       y2="0"
       id="line96" />
  </g>
  <g
     transform="translate(4.9997121e-5,3.2097696)"
     id="g102">
    <line
       stroke-linejoin="round"
       stroke-linecap="round"
       stroke-width="0.0949"
       stroke="currentColor"
       x1="0.047400001"
       y1="0"
       x2="83.428101"
       y2="0"
       id="line100" />
  </g>
  <g
     transform="translate(4.9997121e-5,2.3597696)"
     id="g106">
    <line
       stroke-linejoin="round"
       stroke-linecap="round"
       stroke-width="0.0949"
       stroke="currentColor"
       x1="0.047400001"
       y1="0"
       x2="83.428101"
       y2="0"
       id="line104" />
  </g>
  <g
     transform="translate(4.9997121e-5,1.5097696)"
     id="g110">
    <line
       stroke-linejoin="round"
       stroke-linecap="round"
       stroke-width="0.0949"
       stroke="currentColor"
       x1="0.047400001"
       y1="0"
       x2="83.428101"
       y2="0"
       id="line108" />
  </g>
  <g
     transform="translate(26.87715,3.2097696)"
     id="g114">
    <rect
       x="0"
       y="-1.7"
       width="0.1802"
       height="3.4000001"
       ry="0.0000"
       fill="currentColor"
       id="rect112" />
  </g>
  <g
     transform="translate(83.29545,3.2097696)"
     id="g118">
    <rect
       x="0"
       y="-1.7"
       width="0.1802"
       height="3.4000001"
       ry="0.0000"
       fill="currentColor"
       id="rect116" />
  </g>
  <g
     transform="translate(65.42075,3.2097696)"
     id="g122">
    <rect
       x="0"
       y="-1.7"
       width="0.1802"
       height="3.4000001"
       ry="0.0000"
       fill="currentColor"
       id="rect120" />
  </g>
  <g
     transform="translate(45.90165,3.2097696)"
     id="g126">
    <rect
       x="0"
       y="-1.7"
       width="0.1802"
       height="3.4000001"
       ry="0.0000"
       fill="currentColor"
       id="rect124" />
  </g>
  <a
     style="color:inherit"
     xlink:href="textedit:///Users/tomsegarra/Documents/dev/dummies/lilypond_files/5904dd68d43fdc1683fc54e085f424ad.ly:21:4:5"
     id="a132"
     transform="translate(-2.27615,-3.2769304)">
    <g
       transform="translate(10.7144,9.0367)"
       id="g130">
      <path
         transform="scale(0.0034,-0.0034)"
         d="m 215,137 c 67,0 111,-37 111,-92 0,-90 -111,-182 -215,-182 -67,0 -111,37 -111,92 0,90 111,182 215,182 z"
         fill="currentColor"
         id="path128" />
    </g>
  </a>
  <g
     transform="translate(0.80005,4.0597696)"
     id="g136">
    <path
       transform="scale(0.0034,-0.0034)"
       d="m 646,2 c 0,-113 -74,-213 -180,-247 3,-34 5,-68 5,-102 0,-20 -1,-40 -2,-60 -7,-121 -91,-228 -209,-228 -108,0 -196,87 -196,196 0,58 53,104 112,104 54,0 95,-48 95,-104 0,-52 -43,-95 -95,-95 -10,0 -20,2 -29,6 26,-38 68,-63 116,-63 h 3 c 93,2 153,92 159,190 1,19 2,37 2,56 0,30 -2,60 -4,90 -5,-1 -43,-8 -88,-8 -194,0 -333,180 -333,375 0,177 130,307 246,442 -31,98 -53,170 -53,347 0,115 55,223 148,290 7,5 16,4 22,-1 68,-80 134,-243 134,-357 0,-143 -85,-255 -178,-364 21,-68 40,-137 57,-206 1,0 5,1 11,1 C 545,264 646,135 646,2 Z M 462,-202 c 66,24 111,88 111,162 0,89 -65,178 -170,190 28,-135 50,-272 59,-352 z M 75,26 c 0,-145 141,-245 263,-245 1,0 46,0 81,6 -7,65 -27,206 -61,363 -79,-8 -124,-61 -124,-119 0,-43 25,-89 80,-121 5,-5 7,-11 7,-16 0,-12 -10,-23 -22,-23 -16,0 -127,63 -127,188 0,89 58,175 161,198 -14,58 -29,116 -46,173 C 181,308 75,186 75,26 Z M 406,1042 C 307,995 244,894 244,785 c 0,-49 13,-111 38,-191 79,97 144,199 144,324 0,33 0,63 -20,124 z"
       fill="currentColor"
       id="path134" />
  </g>
  <a
     style="color:inherit"
     xlink:href="textedit:///Users/tomsegarra/Documents/dev/dummies/lilypond_files/5904dd68d43fdc1683fc54e085f424ad.ly:20:1:9"
     id="a138"
     transform="translate(-2.27615,-3.2769304)" />
  <g
     transform="translate(5.00005,3.2097696)"
     id="g142">
    <path
       transform="scale(0.0034,-0.0034)"
       d="m 358,29 c -30,0 -74,23 -74,73 0,38 27,76 71,76 4,0 7,0 11,-1 -27,36 -69,59 -116,59 -106,0 -113,-74 -113,-188 0,-15 1,-31 1,-48 0,-17 -1,-33 -1,-48 0,-114 7,-188 113,-188 79,0 136,70 155,150 2,7 7,10 13,10 7,0 14,-5 14,-13 0,-21 -50,-175 -182,-175 C 191,-264 0,-244 0,0 0,63 18,264 250,264 365,264 424,155 424,99 424,60 394,29 358,29 Z"
       fill="currentColor"
       id="path140" />
  </g>
  <g
     transform="translate(9.48395,3.2097696)"
     id="g146">
    <rect
       x="-0.061700001"
       y="0"
       width="0.1233"
       height="2.3975"
       ry="0.039999999"
       fill="currentColor"
       id="rect144" />
  </g>
  <g
     transform="translate(18.39445,2.3597696)"
     id="g150">
    <polygon
       stroke-linejoin="round"
       stroke-linecap="round"
       stroke-width="0.08"
       fill="currentColor"
       stroke="currentColor"
       points="0.04,0.164 0.04,-0.164 7.0055,-0.164 7.0055,0.164 "
       id="polygon148" />
  </g>
  <a
     style="color:inherit"
     xlink:href="textedit:///Users/tomsegarra/Documents/dev/dummies/lilypond_files/5904dd68d43fdc1683fc54e085f424ad.ly:21:48:49"
     id="a156"
     transform="translate(-2.27615,-3.2769304)">
    <g
       transform="translate(43.8204,6.4867)"
       id="g154">
      <path
         transform="scale(0.0034,-0.0034)"
         d="m 70,205 c 80,0 46,-97 90,-97 15,0 52,45 59,59 6,13 26,13 31,0 L 129,-250 c -9,-7 -19,-11 -30,-11 -11,0 -21,4 -30,11 L 187,76 C 154,64 119,54 84,54 37,54 -3,88 -3,133 c 0,40 33,72 73,72 z"
         fill="currentColor"
         id="path152" />
    </g>
  </a>
  <g
     transform="translate(28.94145,3.2097696)"
     id="g160">
    <polygon
       stroke-linejoin="round"
       stroke-linecap="round"
       stroke-width="0.08"
       fill="currentColor"
       stroke="currentColor"
       points="0.04,0.164 0.04,-0.164 2.3907,-0.164 2.3907,0.164 "
       id="polygon158" />
  </g>
  <a
     style="color:inherit"
     xlink:href="textedit:///Users/tomsegarra/Documents/dev/dummies/lilypond_files/5904dd68d43fdc1683fc54e085f424ad.ly:21:50:51"
     id="a166"
     transform="translate(-2.27615,-3.2769304)">
    <g
       transform="translate(45.8704,9.4617)"
       id="g164">
      <path
         transform="scale(0.0034,-0.0034)"
         d="m 215,137 c 67,0 111,-37 111,-92 0,-90 -111,-182 -215,-182 -67,0 -111,37 -111,92 0,90 111,182 215,182 z"
         fill="currentColor"
         id="path162" />
    </g>
  </a>
  <g
     transform="translate(44.63995,3.2097696)"
     id="g170">
    <rect
       x="-0.061700001"
       y="0"
       width="0.1233"
       height="2.8225"
       ry="0.039999999"
       fill="currentColor"
       id="rect168" />
  </g>
  <g
     transform="translate(44.70165,3.2497696)"
     id="g174">
    <path
       transform="scale(0.0034,-0.0034)"
       d="m 0,0 c 0,-197 207,-335 207,-532 0,-71 -15,-141 -41,-207 -5,-8 -13,-12 -21,-12 -14,0 -27,11 -24,28 26,60 42,125 42,191 0,103 -93,207 -163,282 H -18 V 0 Z"
       fill="currentColor"
       id="path172" />
  </g>
  <g
     transform="translate(37.91355,3.2097696)"
     id="g178">
    <polygon
       stroke-linejoin="round"
       stroke-linecap="round"
       stroke-width="0.08"
       fill="currentColor"
       stroke="currentColor"
       points="0.04,0.164 0.04,-0.164 2.3907,-0.164 2.3907,0.164 "
       id="polygon176" />
  </g>
  <g
     transform="translate(47.96595,3.2097696)"
     id="g182">
    <polygon
       stroke-linejoin="round"
       stroke-linecap="round"
       stroke-width="0.08"
       fill="currentColor"
       stroke="currentColor"
       points="0.04,0.164 0.04,-0.164 2.3907,-0.164 2.3907,0.164 "
       id="polygon180" />
  </g>
  <a
     style="color:inherit"
     xlink:href="textedit:///Users/tomsegarra/Documents/dev/dummies/lilypond_files/5904dd68d43fdc1683fc54e085f424ad.ly:21:55:56"
     id="a188"
     transform="translate(-2.27615,-3.2769304)">
    <g
       transform="translate(49.258,9.0367)"
       id="g186">
      <path
         transform="scale(0.0034,-0.0034)"
         d="m 215,137 c 67,0 111,-37 111,-92 0,-90 -111,-182 -215,-182 -67,0 -111,37 -111,92 0,90 111,182 215,182 z"
         fill="currentColor"
         id="path184" />
    </g>
  </a>
  <g
     transform="translate(48.02765,3.2097696)"
     id="g192">
    <rect
       x="-0.061700001"
       y="0"
       width="0.1233"
       height="2.3975"
       ry="0.039999999"
       fill="currentColor"
       id="rect190" />
  </g>
  <g
     transform="translate(56.93815,2.3597696)"
     id="g196">
    <polygon
       stroke-linejoin="round"
       stroke-linecap="round"
       stroke-width="0.08"
       fill="currentColor"
       stroke="currentColor"
       points="0.04,0.164 0.04,-0.164 7.0055,-0.164 7.0055,0.164 "
       id="polygon194" />
  </g>
  <a
     style="color:inherit"
     xlink:href="textedit:///Users/tomsegarra/Documents/dev/dummies/lilypond_files/5904dd68d43fdc1683fc54e085f424ad.ly:21:59:60"
     id="a202"
     transform="translate(-2.27615,-3.2769304)">
    <g
       transform="translate(51.5654,9.0367)"
       id="g200">
      <path
         transform="scale(0.0034,-0.0034)"
         d="m 215,137 c 67,0 111,-37 111,-92 0,-90 -111,-182 -215,-182 -67,0 -111,37 -111,92 0,90 111,182 215,182 z"
         fill="currentColor"
         id="path198" />
    </g>
  </a>
  <g
     transform="translate(50.33495,3.2097696)"
     id="g206">
    <rect
       x="-0.061700001"
       y="0"
       width="0.1233"
       height="2.3975"
       ry="0.039999999"
       fill="currentColor"
       id="rect204" />
  </g>
  <g
     transform="translate(67.48505,3.2097696)"
     id="g210">
    <polygon
       stroke-linejoin="round"
       stroke-linecap="round"
       stroke-width="0.08"
       fill="currentColor"
       stroke="currentColor"
       points="0.04,0.164 0.04,-0.164 2.3907,-0.164 2.3907,0.164 "
       id="polygon208" />
  </g>
  <a
     style="color:inherit"
     xlink:href="textedit:///Users/tomsegarra/Documents/dev/dummies/lilypond_files/5904dd68d43fdc1683fc54e085f424ad.ly:21:63:64"
     id="a216"
     transform="translate(-2.27615,-3.2769304)">
    <g
       transform="translate(53.8728,6.4867)"
       id="g214">
      <path
         transform="scale(0.0034,-0.0034)"
         d="m 70,205 c 80,0 46,-97 90,-97 15,0 52,45 59,59 6,13 26,13 31,0 L 129,-250 c -9,-7 -19,-11 -30,-11 -11,0 -21,4 -30,11 L 187,76 C 154,64 119,54 84,54 37,54 -3,88 -3,133 c 0,40 33,72 73,72 z"
         fill="currentColor"
         id="path212" />
    </g>
  </a>
  <g
     transform="translate(76.45725,3.2097696)"
     id="g220">
    <polygon
       stroke-linejoin="round"
       stroke-linecap="round"
       stroke-width="0.08"
       fill="currentColor"
       stroke="currentColor"
       points="0.04,0.164 0.04,-0.164 2.3907,-0.164 2.3907,0.164 "
       id="polygon218" />
  </g>
  <a
     style="color:inherit"
     xlink:href="textedit:///Users/tomsegarra/Documents/dev/dummies/lilypond_files/5904dd68d43fdc1683fc54e085f424ad.ly:21:65:66"
     id="a226"
     transform="translate(-2.27615,-3.2769304)">
    <g
       transform="translate(55.9228,9.0367)"
       id="g224">
      <path
         transform="scale(0.0034,-0.0034)"
         d="m 215,137 c 67,0 111,-37 111,-92 0,-90 -111,-182 -215,-182 -67,0 -111,37 -111,92 0,90 111,182 215,182 z"
         fill="currentColor"
         id="path222" />
    </g>
  </a>
  <g
     transform="translate(54.69235,3.2097696)"
     id="g230">
    <rect
       x="-0.061700001"
       y="-0.42500001"
       width="0.1233"
       height="2.8225"
       ry="0.039999999"
       fill="currentColor"
       id="rect228" />
  </g>
  <g
     transform="translate(54.75405,2.8247696)"
     id="g234">
    <path
       transform="scale(0.0034,-0.0034)"
       d="m 0,0 c 0,-197 207,-335 207,-532 0,-71 -15,-141 -41,-207 -5,-8 -13,-12 -21,-12 -14,0 -27,11 -24,28 26,60 42,125 42,191 0,103 -93,207 -163,282 H -18 V 0 Z"
       fill="currentColor"
       id="path232" />
  </g>
  <a
     style="color:inherit"
     xlink:href="textedit:///Users/tomsegarra/Documents/dev/dummies/lilypond_files/5904dd68d43fdc1683fc54e085f424ad.ly:21:69:70"
     id="a240"
     transform="translate(-2.27615,-3.2769304)">
    <g
       transform="translate(58.2302,8.6117)"
       id="g238">
      <path
         transform="scale(0.0034,-0.0034)"
         d="m 215,137 c 67,0 111,-37 111,-92 0,-90 -111,-182 -215,-182 -67,0 -111,37 -111,92 0,90 111,182 215,182 z"
         fill="currentColor"
         id="path236" />
    </g>
  </a>
  <g
     transform="translate(56.99975,3.2097696)"
     id="g244">
    <rect
       x="-0.061700001"
       y="-0.85000002"
       width="0.1233"
       height="2.8225"
       ry="0.039999999"
       fill="currentColor"
       id="rect242" />
  </g>
  <g
     transform="translate(40.28265,3.2097696)"
     id="g248">
    <rect
       x="-0.061700001"
       y="0"
       width="0.1233"
       height="2.8225"
       ry="0.039999999"
       fill="currentColor"
       id="rect246" />
  </g>
  <a
     style="color:inherit"
     xlink:href="textedit:///Users/tomsegarra/Documents/dev/dummies/lilypond_files/5904dd68d43fdc1683fc54e085f424ad.ly:21:73:74"
     id="a254"
     transform="translate(-2.27615,-3.2769304)">
    <g
       transform="translate(60.5376,8.1867)"
       id="g252">
      <path
         transform="scale(0.0034,-0.0034)"
         d="m 215,137 c 67,0 111,-37 111,-92 0,-90 -111,-182 -215,-182 -67,0 -111,37 -111,92 0,90 111,182 215,182 z"
         fill="currentColor"
         id="path250" />
    </g>
  </a>
  <g
     transform="translate(59.30715,3.2097696)"
     id="g258">
    <rect
       x="-0.061700001"
       y="-0.85000002"
       width="0.1233"
       height="2.3975"
       ry="0.039999999"
       fill="currentColor"
       id="rect256" />
  </g>
  <a
     style="color:inherit"
     xlink:href="textedit:///Users/tomsegarra/Documents/dev/dummies/lilypond_files/5904dd68d43fdc1683fc54e085f424ad.ly:21:46:47"
     id="a264"
     transform="translate(-2.27615,-3.2769304)">
    <g
       transform="translate(41.513,9.4617)"
       id="g262">
      <path
         transform="scale(0.0034,-0.0034)"
         d="m 215,137 c 67,0 111,-37 111,-92 0,-90 -111,-182 -215,-182 -67,0 -111,37 -111,92 0,90 111,182 215,182 z"
         fill="currentColor"
         id="path260" />
    </g>
  </a>
  <a
     style="color:inherit"
     xlink:href="textedit:///Users/tomsegarra/Documents/dev/dummies/lilypond_files/5904dd68d43fdc1683fc54e085f424ad.ly:21:75:76"
     id="a270"
     transform="translate(-2.27615,-3.2769304)">
    <g
       transform="translate(62.845,8.6117)"
       id="g268">
      <path
         transform="scale(0.0034,-0.0034)"
         d="m 215,137 c 67,0 111,-37 111,-92 0,-90 -111,-182 -215,-182 -67,0 -111,37 -111,92 0,90 111,182 215,182 z"
         fill="currentColor"
         id="path266" />
    </g>
  </a>
  <g
     transform="translate(61.61455,3.2097696)"
     id="g274">
    <rect
       x="-0.061700001"
       y="-0.85000002"
       width="0.1233"
       height="2.8225"
       ry="0.039999999"
       fill="currentColor"
       id="rect272" />
  </g>
  <a
     style="color:inherit"
     xlink:href="textedit:///Users/tomsegarra/Documents/dev/dummies/lilypond_files/5904dd68d43fdc1683fc54e085f424ad.ly:21:79:80"
     id="a280"
     transform="translate(-2.27615,-3.2769304)">
    <g
       transform="translate(65.1523,8.1867)"
       id="g278">
      <path
         transform="scale(0.0034,-0.0034)"
         d="m 215,137 c 67,0 111,-37 111,-92 0,-90 -111,-182 -215,-182 -67,0 -111,37 -111,92 0,90 111,182 215,182 z"
         fill="currentColor"
         id="path276" />
    </g>
  </a>
  <g
     transform="translate(63.92195,3.2097696)"
     id="g284">
    <rect
       x="-0.061700001"
       y="-0.85000002"
       width="0.1233"
       height="2.3975"
       ry="0.039999999"
       fill="currentColor"
       id="rect282" />
  </g>
  <a
     style="color:inherit"
     xlink:href="textedit:///Users/tomsegarra/Documents/dev/dummies/lilypond_files/5904dd68d43fdc1683fc54e085f424ad.ly:21:85:86"
     id="a290"
     transform="translate(-2.27615,-3.2769304)">
    <g
       transform="translate(68.7771,9.8867)"
       id="g288">
      <path
         transform="scale(0.0034,-0.0034)"
         d="m 215,137 c 67,0 111,-37 111,-92 0,-90 -111,-182 -215,-182 -67,0 -111,37 -111,92 0,90 111,182 215,182 z"
         fill="currentColor"
         id="path286" />
    </g>
  </a>
  <g
     transform="translate(67.54675,3.2097696)"
     id="g294">
    <rect
       x="-0.061700001"
       y="0"
       width="0.1233"
       height="3.2474999"
       ry="0.039999999"
       fill="currentColor"
       id="rect292" />
  </g>
  <a
     style="color:inherit"
     xlink:href="textedit:///Users/tomsegarra/Documents/dev/dummies/lilypond_files/5904dd68d43fdc1683fc54e085f424ad.ly:21:88:89"
     id="a300"
     transform="translate(-2.27615,-3.2769304)">
    <g
       transform="translate(71.0845,9.8867)"
       id="g298">
      <path
         transform="scale(0.0034,-0.0034)"
         d="m 215,137 c 67,0 111,-37 111,-92 0,-90 -111,-182 -215,-182 -67,0 -111,37 -111,92 0,90 111,182 215,182 z"
         fill="currentColor"
         id="path296" />
    </g>
  </a>
  <g
     transform="translate(69.85415,3.2097696)"
     id="g304">
    <rect
       x="-0.061700001"
       y="0"
       width="0.1233"
       height="3.2474999"
       ry="0.039999999"
       fill="currentColor"
       id="rect302" />
  </g>
  <g
     transform="translate(37.97525,3.2097696)"
     id="g308">
    <rect
       x="-0.061700001"
       y="0"
       width="0.1233"
       height="2.8225"
       ry="0.039999999"
       fill="currentColor"
       id="rect306" />
  </g>
  <a
     style="color:inherit"
     xlink:href="textedit:///Users/tomsegarra/Documents/dev/dummies/lilypond_files/5904dd68d43fdc1683fc54e085f424ad.ly:21:90:91"
     id="a314"
     transform="translate(-2.27615,-3.2769304)">
    <g
       transform="translate(73.3919,6.4867)"
       id="g312">
      <path
         transform="scale(0.0034,-0.0034)"
         d="m 70,205 c 80,0 46,-97 90,-97 15,0 52,45 59,59 6,13 26,13 31,0 L 129,-250 c -9,-7 -19,-11 -30,-11 -11,0 -21,4 -30,11 L 187,76 C 154,64 119,54 84,54 37,54 -3,88 -3,133 c 0,40 33,72 73,72 z"
         fill="currentColor"
         id="path310" />
    </g>
  </a>
  <a
     style="color:inherit"
     xlink:href="textedit:///Users/tomsegarra/Documents/dev/dummies/lilypond_files/5904dd68d43fdc1683fc54e085f424ad.ly:21:44:45"
     id="a320"
     transform="translate(-2.27615,-3.2769304)">
    <g
       transform="translate(39.2057,9.4617)"
       id="g318">
      <path
         transform="scale(0.0034,-0.0034)"
         d="m 215,137 c 67,0 111,-37 111,-92 0,-90 -111,-182 -215,-182 -67,0 -111,37 -111,92 0,90 111,182 215,182 z"
         fill="currentColor"
         id="path316" />
    </g>
  </a>
  <a
     style="color:inherit"
     xlink:href="textedit:///Users/tomsegarra/Documents/dev/dummies/lilypond_files/5904dd68d43fdc1683fc54e085f424ad.ly:21:92:93"
     id="a326"
     transform="translate(-2.27615,-3.2769304)">
    <g
       transform="translate(75.4419,9.8867)"
       id="g324">
      <path
         transform="scale(0.0034,-0.0034)"
         d="m 215,137 c 67,0 111,-37 111,-92 0,-90 -111,-182 -215,-182 -67,0 -111,37 -111,92 0,90 111,182 215,182 z"
         fill="currentColor"
         id="path322" />
    </g>
  </a>
  <g
     transform="translate(74.21145,3.2097696)"
     id="g330">
    <rect
       x="-0.061700001"
       y="0"
       width="0.1233"
       height="3.2474999"
       ry="0.039999999"
       fill="currentColor"
       id="rect328" />
  </g>
  <g
     transform="translate(74.27315,3.2497696)"
     id="g334">
    <path
       transform="scale(0.0034,-0.0034)"
       d="m 0,0 c 0,-197 207,-335 207,-532 0,-71 -15,-141 -41,-207 -5,-8 -13,-12 -21,-12 -14,0 -27,11 -24,28 26,60 42,125 42,191 0,103 -93,207 -163,282 H -18 V 0 Z"
       fill="currentColor"
       id="path332" />
  </g>
  <g
     transform="translate(9.42235,3.2097696)"
     id="g338">
    <polygon
       stroke-linejoin="round"
       stroke-linecap="round"
       stroke-width="0.08"
       fill="currentColor"
       stroke="currentColor"
       points="0.04,0.164 0.04,-0.164 2.3907,-0.164 2.3907,0.164 "
       id="polygon336" />
  </g>
  <a
     style="color:inherit"
     xlink:href="textedit:///Users/tomsegarra/Documents/dev/dummies/lilypond_files/5904dd68d43fdc1683fc54e085f424ad.ly:21:94:95"
     id="a344"
     transform="translate(-2.27615,-3.2769304)">
    <g
       transform="translate(77.7493,9.8867)"
       id="g342">
      <path
         transform="scale(0.0034,-0.0034)"
         d="m 215,137 c 67,0 111,-37 111,-92 0,-90 -111,-182 -215,-182 -67,0 -111,37 -111,92 0,90 111,182 215,182 z"
         fill="currentColor"
         id="path340" />
    </g>
  </a>
  <g
     transform="translate(76.51885,3.2097696)"
     id="g348">
    <rect
       x="-0.061700001"
       y="0"
       width="0.1233"
       height="3.2474999"
       ry="0.039999999"
       fill="currentColor"
       id="rect346" />
  </g>
  <g
     transform="translate(35.72955,3.2497696)"
     id="g352">
    <path
       transform="scale(0.0034,-0.0034)"
       d="m 0,0 c 0,-197 207,-335 207,-532 0,-71 -15,-141 -41,-207 -5,-8 -13,-12 -21,-12 -14,0 -27,11 -24,28 26,60 42,125 42,191 0,103 -93,207 -163,282 H -18 V 0 Z"
       fill="currentColor"
       id="path350" />
  </g>
  <a
     style="color:inherit"
     xlink:href="textedit:///Users/tomsegarra/Documents/dev/dummies/lilypond_files/5904dd68d43fdc1683fc54e085f424ad.ly:21:96:97"
     id="a358"
     transform="translate(-2.27615,-3.2769304)">
    <g
       transform="translate(80.0567,9.8867)"
       id="g356">
      <path
         transform="scale(0.0034,-0.0034)"
         d="m 215,137 c 67,0 111,-37 111,-92 0,-90 -111,-182 -215,-182 -67,0 -111,37 -111,92 0,90 111,182 215,182 z"
         fill="currentColor"
         id="path354" />
    </g>
  </a>
  <g
     transform="translate(78.82625,3.2097696)"
     id="g362">
    <rect
       x="-0.061700001"
       y="0"
       width="0.1233"
       height="3.2474999"
       ry="0.039999999"
       fill="currentColor"
       id="rect360" />
  </g>
  <a
     style="color:inherit"
     xlink:href="textedit:///Users/tomsegarra/Documents/dev/dummies/lilypond_files/5904dd68d43fdc1683fc54e085f424ad.ly:21:98:99"
     id="a368"
     transform="translate(-2.27615,-3.2769304)">
    <g
       transform="translate(82.3641,6.4867)"
       id="g366">
      <path
         transform="scale(0.0034,-0.0034)"
         d="m -8,78 c 0,59 125,83 125,182 0,25 -9,49 -26,69 l -33,40 c -3,4 -4,7 -4,11 0,9 9,17 18,17 4,0 8,-2 12,-6 L 234,212 c 7,-9 11,-18 11,-26 0,-59 -125,-83 -125,-182 0,-25 8,-49 25,-69 l 82,-97 c 3,-4 4,-7 4,-11 0,-9 -8,-17 -17,-17 -10,0 -42,42 -106,42 -19,0 -54,-1 -54,-66 0,-34 10,-73 27,-93 7,-9 -5,-20 -12,-11 -45,53 -93,147 -93,201 0,42 27,42 43,42 31,0 74,-11 113,-27 L 3,52 C -4,61 -8,70 -8,78 Z"
         fill="currentColor"
         id="path364" />
    </g>
  </a>
  <g
     transform="translate(35.66785,3.2097696)"
     id="g372">
    <rect
       x="-0.061700001"
       y="0"
       width="0.1233"
       height="2.8225"
       ry="0.039999999"
       fill="currentColor"
       id="rect370" />
  </g>
  <a
     style="color:inherit"
     xlink:href="textedit:///Users/tomsegarra/Documents/dev/dummies/lilypond_files/5904dd68d43fdc1683fc54e085f424ad.ly:21:42:43"
     id="a378"
     transform="translate(-2.27615,-3.2769304)">
    <g
       transform="translate(36.8983,9.4617)"
       id="g376">
      <path
         transform="scale(0.0034,-0.0034)"
         d="m 215,137 c 67,0 111,-37 111,-92 0,-90 -111,-182 -215,-182 -67,0 -111,37 -111,92 0,90 111,182 215,182 z"
         fill="currentColor"
         id="path374" />
    </g>
  </a>
  <a
     style="color:inherit"
     xlink:href="textedit:///Users/tomsegarra/Documents/dev/dummies/lilypond_files/5904dd68d43fdc1683fc54e085f424ad.ly:21:10:11"
     id="a384"
     transform="translate(-2.27615,-3.2769304)">
    <g
       transform="translate(13.0218,9.0367)"
       id="g382">
      <path
         transform="scale(0.0034,-0.0034)"
         d="m 215,137 c 67,0 111,-37 111,-92 0,-90 -111,-182 -215,-182 -67,0 -111,37 -111,92 0,90 111,182 215,182 z"
         fill="currentColor"
         id="path380" />
    </g>
  </a>
  <g
     transform="translate(11.79135,3.2097696)"
     id="g388">
    <rect
       x="-0.061700001"
       y="0"
       width="0.1233"
       height="2.3975"
       ry="0.039999999"
       fill="currentColor"
       id="rect386" />
  </g>
  <a
     style="color:inherit"
     xlink:href="textedit:///Users/tomsegarra/Documents/dev/dummies/lilypond_files/5904dd68d43fdc1683fc54e085f424ad.ly:21:14:15"
     id="a394"
     transform="translate(-2.27615,-3.2769304)">
    <g
       transform="translate(15.3292,6.4867)"
       id="g392">
      <path
         transform="scale(0.0034,-0.0034)"
         d="m 70,205 c 80,0 46,-97 90,-97 15,0 52,45 59,59 6,13 26,13 31,0 L 129,-250 c -9,-7 -19,-11 -30,-11 -11,0 -21,4 -30,11 L 187,76 C 154,64 119,54 84,54 37,54 -3,88 -3,133 c 0,40 33,72 73,72 z"
         fill="currentColor"
         id="path390" />
    </g>
  </a>
  <a
     style="color:inherit"
     xlink:href="textedit:///Users/tomsegarra/Documents/dev/dummies/lilypond_files/5904dd68d43fdc1683fc54e085f424ad.ly:21:16:17"
     id="a400"
     transform="translate(-2.27615,-3.2769304)">
    <g
       transform="translate(17.3792,9.0367)"
       id="g398">
      <path
         transform="scale(0.0034,-0.0034)"
         d="m 215,137 c 67,0 111,-37 111,-92 0,-90 -111,-182 -215,-182 -67,0 -111,37 -111,92 0,90 111,182 215,182 z"
         fill="currentColor"
         id="path396" />
    </g>
  </a>
  <g
     transform="translate(16.14875,3.2097696)"
     id="g404">
    <rect
       x="-0.061700001"
       y="-0.42500001"
       width="0.1233"
       height="2.8225"
       ry="0.039999999"
       fill="currentColor"
       id="rect402" />
  </g>
  <g
     transform="translate(16.21035,2.8247696)"
     id="g408">
    <path
       transform="scale(0.0034,-0.0034)"
       d="m 0,0 c 0,-197 207,-335 207,-532 0,-71 -15,-141 -41,-207 -5,-8 -13,-12 -21,-12 -14,0 -27,11 -24,28 26,60 42,125 42,191 0,103 -93,207 -163,282 H -18 V 0 Z"
       fill="currentColor"
       id="path406" />
  </g>
  <a
     style="color:inherit"
     xlink:href="textedit:///Users/tomsegarra/Documents/dev/dummies/lilypond_files/5904dd68d43fdc1683fc54e085f424ad.ly:21:20:21"
     id="a414"
     transform="translate(-2.27615,-3.2769304)">
    <g
       transform="translate(19.6865,8.6117)"
       id="g412">
      <path
         transform="scale(0.0034,-0.0034)"
         d="m 215,137 c 67,0 111,-37 111,-92 0,-90 -111,-182 -215,-182 -67,0 -111,37 -111,92 0,90 111,182 215,182 z"
         fill="currentColor"
         id="path410" />
    </g>
  </a>
  <g
     transform="translate(18.45615,3.2097696)"
     id="g418">
    <rect
       x="-0.061700001"
       y="-0.85000002"
       width="0.1233"
       height="2.8225"
       ry="0.039999999"
       fill="currentColor"
       id="rect416" />
  </g>
  <a
     style="color:inherit"
     xlink:href="textedit:///Users/tomsegarra/Documents/dev/dummies/lilypond_files/5904dd68d43fdc1683fc54e085f424ad.ly:21:40:41"
     id="a424"
     transform="translate(-2.27615,-3.2769304)">
    <g
       transform="translate(34.8483,6.4867)"
       id="g422">
      <path
         transform="scale(0.0034,-0.0034)"
         d="m 70,205 c 80,0 46,-97 90,-97 15,0 52,45 59,59 6,13 26,13 31,0 L 129,-250 c -9,-7 -19,-11 -30,-11 -11,0 -21,4 -30,11 L 187,76 C 154,64 119,54 84,54 37,54 -3,88 -3,133 c 0,40 33,72 73,72 z"
         fill="currentColor"
         id="path420" />
    </g>
  </a>
  <a
     style="color:inherit"
     xlink:href="textedit:///Users/tomsegarra/Documents/dev/dummies/lilypond_files/5904dd68d43fdc1683fc54e085f424ad.ly:21:24:25"
     id="a430"
     transform="translate(-2.27615,-3.2769304)">
    <g
       transform="translate(21.9939,8.1867)"
       id="g428">
      <path
         transform="scale(0.0034,-0.0034)"
         d="m 215,137 c 67,0 111,-37 111,-92 0,-90 -111,-182 -215,-182 -67,0 -111,37 -111,92 0,90 111,182 215,182 z"
         fill="currentColor"
         id="path426" />
    </g>
  </a>
  <g
     transform="translate(20.76355,3.2097696)"
     id="g434">
    <rect
       x="-0.061700001"
       y="-0.85000002"
       width="0.1233"
       height="2.3975"
       ry="0.039999999"
       fill="currentColor"
       id="rect432" />
  </g>
  <a
     style="color:inherit"
     xlink:href="textedit:///Users/tomsegarra/Documents/dev/dummies/lilypond_files/5904dd68d43fdc1683fc54e085f424ad.ly:21:26:27"
     id="a440"
     transform="translate(-2.27615,-3.2769304)">
    <g
       transform="translate(24.3013,8.6117)"
       id="g438">
      <path
         transform="scale(0.0034,-0.0034)"
         d="m 215,137 c 67,0 111,-37 111,-92 0,-90 -111,-182 -215,-182 -67,0 -111,37 -111,92 0,90 111,182 215,182 z"
         fill="currentColor"
         id="path436" />
    </g>
  </a>
  <g
     transform="translate(23.07085,3.2097696)"
     id="g444">
    <rect
       x="-0.061700001"
       y="-0.85000002"
       width="0.1233"
       height="2.8225"
       ry="0.039999999"
       fill="currentColor"
       id="rect442" />
  </g>
  <a
     style="color:inherit"
     xlink:href="textedit:///Users/tomsegarra/Documents/dev/dummies/lilypond_files/5904dd68d43fdc1683fc54e085f424ad.ly:21:30:31"
     id="a450"
     transform="translate(-2.27615,-3.2769304)">
    <g
       transform="translate(26.6087,8.1867)"
       id="g448">
      <path
         transform="scale(0.0034,-0.0034)"
         d="m 215,137 c 67,0 111,-37 111,-92 0,-90 -111,-182 -215,-182 -67,0 -111,37 -111,92 0,90 111,182 215,182 z"
         fill="currentColor"
         id="path446" />
    </g>
  </a>
  <g
     transform="translate(25.37825,3.2097696)"
     id="g454">
    <rect
       x="-0.061700001"
       y="-0.85000002"
       width="0.1233"
       height="2.3975"
       ry="0.039999999"
       fill="currentColor"
       id="rect452" />
  </g>
  <a
     style="color:inherit"
     xlink:href="textedit:///Users/tomsegarra/Documents/dev/dummies/lilypond_files/5904dd68d43fdc1683fc54e085f424ad.ly:21:36:37"
     id="a460"
     transform="translate(-2.27615,-3.2769304)">
    <g
       transform="translate(30.2335,9.4617)"
       id="g458">
      <path
         transform="scale(0.0034,-0.0034)"
         d="m 215,137 c 67,0 111,-37 111,-92 0,-90 -111,-182 -215,-182 -67,0 -111,37 -111,92 0,90 111,182 215,182 z"
         fill="currentColor"
         id="path456" />
    </g>
  </a>
  <g
     transform="translate(29.00305,3.2097696)"
     id="g464">
    <rect
       x="-0.061700001"
       y="0"
       width="0.1233"
       height="2.8225"
       ry="0.039999999"
       fill="currentColor"
       id="rect462" />
  </g>
  <g
     transform="translate(31.31045,3.2097696)"
     id="g468">
    <rect
       x="-0.061700001"
       y="0"
       width="0.1233"
       height="2.8225"
       ry="0.039999999"
       fill="currentColor"
       id="rect466" />
  </g>
  <a
     style="color:inherit"
     xlink:href="textedit:///Users/tomsegarra/Documents/dev/dummies/lilypond_files/5904dd68d43fdc1683fc54e085f424ad.ly:21:38:39"
     id="a474"
     transform="translate(-2.27615,-3.2769304)">
    <g
       transform="translate(32.5409,9.4617)"
       id="g472">
      <path
         transform="scale(0.0034,-0.0034)"
         d="m 215,137 c 67,0 111,-37 111,-92 0,-90 -111,-182 -215,-182 -67,0 -111,37 -111,92 0,90 111,182 215,182 z"
         fill="currentColor"
         id="path470" />
    </g>
  </a>
</svg>
