<svg xmlns="http://www.w3.org/2000/svg" xmlns:xlink="http://www.w3.org/1999/xlink" version="1.2" width="154.69mm" height="297.00mm" viewBox="0 0 88.0280 169.0094">
<style type="text/css">
<![CDATA[
tspan { white-space: pre; }
]]>
</style>
<!-- Page: 1/1 -->
<g transform="translate(2.2762, 9.0367)">
<rect x="77.5036" y="-0.0899" width="1.6611" height="0.1799" ry="0.0899" fill="currentColor"/>
</g>
<g transform="translate(2.2762, 9.8867)">
<rect x="77.5036" y="-0.0899" width="1.6611" height="0.1799" ry="0.0899" fill="currentColor"/>
</g>
<g transform="translate(2.2762, 9.0367)">
<rect x="75.1962" y="-0.0899" width="1.6611" height="0.1799" ry="0.0899" fill="currentColor"/>
</g>
<g transform="translate(2.2762, 9.8867)">
<rect x="75.1962" y="-0.0899" width="1.6611" height="0.1799" ry="0.0899" fill="currentColor"/>
</g>
<g transform="translate(2.2762, 9.0367)">
<rect x="72.8888" y="-0.0899" width="1.6611" height="0.1799" ry="0.0899" fill="currentColor"/>
</g>
<g transform="translate(2.2762, 9.8867)">
<rect x="72.8888" y="-0.0899" width="1.6611" height="0.1799" ry="0.0899" fill="currentColor"/>
</g>
<g transform="translate(2.2762, 9.0367)">
<rect x="68.5315" y="-0.0899" width="1.6611" height="0.1799" ry="0.0899" fill="currentColor"/>
</g>
<g transform="translate(2.2762, 9.8867)">
<rect x="68.5315" y="-0.0899" width="1.6611" height="0.1799" ry="0.0899" fill="currentColor"/>
</g>
<g transform="translate(2.2762, 9.0367)">
<rect x="66.2241" y="-0.0899" width="1.6611" height="0.1799" ry="0.0899" fill="currentColor"/>
</g>
<g transform="translate(2.2762, 9.8867)">
<rect x="66.2241" y="-0.0899" width="1.6611" height="0.1799" ry="0.0899" fill="currentColor"/>
</g>
<g transform="translate(2.2762, 9.0367)">
<rect x="53.3697" y="-0.0899" width="1.6611" height="0.1799" ry="0.0899" fill="currentColor"/>
</g>
<g transform="translate(2.2762, 9.0367)">
<rect x="49.0124" y="-0.0899" width="1.6611" height="0.1799" ry="0.0899" fill="currentColor"/>
</g>
<g transform="translate(2.2762, 9.0367)">
<rect x="46.7050" y="-0.0899" width="1.6611" height="0.1799" ry="0.0899" fill="currentColor"/>
</g>
<g transform="translate(2.2762, 9.0367)">
<rect x="43.3174" y="-0.0899" width="1.6611" height="0.1799" ry="0.0899" fill="currentColor"/>
</g>
<g transform="translate(2.2762, 9.0367)">
<rect x="38.9600" y="-0.0899" width="1.6611" height="0.1799" ry="0.0899" fill="currentColor"/>
</g>
<g transform="translate(2.2762, 9.0367)">
<rect x="36.6526" y="-0.0899" width="1.6611" height="0.1799" ry="0.0899" fill="currentColor"/>
</g>
<g transform="translate(2.2762, 9.0367)">
<rect x="34.3452" y="-0.0899" width="1.6611" height="0.1799" ry="0.0899" fill="currentColor"/>
</g>
<g transform="translate(2.2762, 9.0367)">
<rect x="29.9878" y="-0.0899" width="1.6611" height="0.1799" ry="0.0899" fill="currentColor"/>
</g>
<g transform="translate(2.2762, 9.0367)">
<rect x="27.6804" y="-0.0899" width="1.6611" height="0.1799" ry="0.0899" fill="currentColor"/>
</g>
<g transform="translate(2.2762, 9.0367)">
<rect x="14.8261" y="-0.0899" width="1.6611" height="0.1799" ry="0.0899" fill="currentColor"/>
</g>
<g transform="translate(2.2762, 9.0367)">
<rect x="10.4687" y="-0.0899" width="1.6611" height="0.1799" ry="0.0899" fill="currentColor"/>
</g>
<g transform="translate(2.2762, 9.0367)">
<rect x="8.1613" y="-0.0899" width="1.6611" height="0.1799" ry="0.0899" fill="currentColor"/>
</g>
<g transform="translate(2.2762, 8.1867)">
<line stroke-linejoin="round" stroke-linecap="round" stroke-width="0.0949" stroke="currentColor" x1="0.0474" y1="0" x2="83.4281" y2="0"/>
</g>
<g transform="translate(2.2762, 7.3367)">
<line stroke-linejoin="round" stroke-linecap="round" stroke-width="0.0949" stroke="currentColor" x1="0.0474" y1="0" x2="83.4281" y2="0"/>
</g>
<g transform="translate(2.2762, 6.4867)">
<line stroke-linejoin="round" stroke-linecap="round" stroke-width="0.0949" stroke="currentColor" x1="0.0474" y1="0" x2="83.4281" y2="0"/>
</g>
<g transform="translate(2.2762, 5.6367)">
<line stroke-linejoin="round" stroke-linecap="round" stroke-width="0.0949" stroke="currentColor" x1="0.0474" y1="0" x2="83.4281" y2="0"/>
</g>
<g transform="translate(2.2762, 4.7867)">
<line stroke-linejoin="round" stroke-linecap="round" stroke-width="0.0949" stroke="currentColor" x1="0.0474" y1="0" x2="83.4281" y2="0"/>
</g>
<g transform="translate(29.1533, 6.4867)">
<rect x="0.0000" y="-1.7000" width="0.1802" height="3.4000" ry="0.0000" fill="currentColor"/>
</g>
<g transform="translate(85.5716, 6.4867)">
<rect x="0.0000" y="-1.7000" width="0.1802" height="3.4000" ry="0.0000" fill="currentColor"/>
</g>
<g transform="translate(67.6969, 6.4867)">
<rect x="0.0000" y="-1.7000" width="0.1802" height="3.4000" ry="0.0000" fill="currentColor"/>
</g>
<g transform="translate(48.1778, 6.4867)">
<rect x="0.0000" y="-1.7000" width="0.1802" height="3.4000" ry="0.0000" fill="currentColor"/>
</g>
<a style="color:inherit;" xlink:href="textedit:///Users/tomsegarra/Documents/dev/dummies/lilypond_files/5904dd68d43fdc1683fc54e085f424ad.ly:21:4:5">
<g transform="translate(10.7144, 9.0367)">
<path transform="scale(0.0034, -0.0034)" d="M215 137c67 0 111 -37 111 -92c0 -90 -111 -182 -215 -182c-67 0 -111 37 -111 92c0 90 111 182 215 182z" fill="currentColor"/>
</g>
</a>
<g transform="translate(3.0762, 7.3367)">
<path transform="scale(0.0034, -0.0034)" d="M646 2c0 -113 -74 -213 -180 -247c3 -34 5 -68 5 -102c0 -20 -1 -40 -2 -60c-7 -121 -91 -228 -209 -228c-108 0 -196 87 -196 196c0 58 53 104 112 104c54 0 95 -48 95 -104c0 -52 -43 -95 -95 -95c-10 0 -20 2 -29 6c26 -38 68 -63 116 -63h3c93 2 153 92 159 190
c1 19 2 37 2 56c0 30 -2 60 -4 90c-5 -1 -43 -8 -88 -8c-194 0 -333 180 -333 375c0 177 130 307 246 442c-31 98 -53 170 -53 347c0 115 55 223 148 290c7 5 16 4 22 -1c68 -80 134 -243 134 -357c0 -143 -85 -255 -178 -364c21 -68 40 -137 57 -206c1 0 5 1 11 1
c156 0 257 -129 257 -262zM462 -202c66 24 111 88 111 162c0 89 -65 178 -170 190c28 -135 50 -272 59 -352zM75 26c0 -145 141 -245 263 -245c1 0 46 0 81 6c-7 65 -27 206 -61 363c-79 -8 -124 -61 -124 -119c0 -43 25 -89 80 -121c5 -5 7 -11 7 -16
c0 -12 -10 -23 -22 -23c-16 0 -127 63 -127 188c0 89 58 175 161 198c-14 58 -29 116 -46 173c-106 -122 -212 -244 -212 -404zM406 1042c-99 -47 -162 -148 -162 -257c0 -49 13 -111 38 -191c79 97 144 199 144 324c0 33 0 63 -20 124z" fill="currentColor"/>
</g>
<a style="color:inherit;" xlink:href="textedit:///Users/tomsegarra/Documents/dev/dummies/lilypond_files/5904dd68d43fdc1683fc54e085f424ad.ly:20:1:9">
</a>
<g transform="translate(7.2762, 6.4867)">
<path transform="scale(0.0034, -0.0034)" d="M358 29c-30 0 -74 23 -74 73c0 38 27 76 71 76c4 0 7 0 11 -1c-27 36 -69 59 -116 59c-106 0 -113 -74 -113 -188c0 -15 1 -31 1 -48s-1 -33 -1 -48c0 -114 7 -188 113 -188c79 0 136 70 155 150c2 7 7 10 13 10c7 0 14 -5 14 -13c0 -21 -50 -175 -182 -175
c-59 0 -250 20 -250 264c0 63 18 264 250 264c115 0 174 -109 174 -165c0 -39 -30 -70 -66 -70z" fill="currentColor"/>
</g>
<g transform="translate(11.7601, 6.4867)">
<rect x="-0.0617" y="-0.0000" width="0.1233" height="2.3975" ry="0.0400" fill="currentColor"/>
</g>
<g transform="translate(20.6706, 5.6367)">
<polygon stroke-linejoin="round" stroke-linecap="round" stroke-width="0.0800" fill="currentColor" stroke="currentColor" points="7.0055 -0.1640 7.0055 0.1640 0.0400 0.1640 0.0400 -0.1640"/>
</g>
<a style="color:inherit;" xlink:href="textedit:///Users/tomsegarra/Documents/dev/dummies/lilypond_files/5904dd68d43fdc1683fc54e085f424ad.ly:21:48:49">
<g transform="translate(43.8204, 6.4867)">
<path transform="scale(0.0034, -0.0034)" d="M70 205c80 0 46 -97 90 -97c15 0 52 45 59 59c6 13 26 13 31 0l-121 -417c-9 -7 -19 -11 -30 -11s-21 4 -30 11l118 326c-33 -12 -68 -22 -103 -22c-47 0 -87 34 -87 79c0 40 33 72 73 72z" fill="currentColor"/>
</g>
</a>
<g transform="translate(31.2176, 6.4867)">
<polygon stroke-linejoin="round" stroke-linecap="round" stroke-width="0.0800" fill="currentColor" stroke="currentColor" points="2.3907 -0.1640 2.3907 0.1640 0.0400 0.1640 0.0400 -0.1640"/>
</g>
<a style="color:inherit;" xlink:href="textedit:///Users/tomsegarra/Documents/dev/dummies/lilypond_files/5904dd68d43fdc1683fc54e085f424ad.ly:21:50:51">
<g transform="translate(45.8704, 9.4617)">
<path transform="scale(0.0034, -0.0034)" d="M215 137c67 0 111 -37 111 -92c0 -90 -111 -182 -215 -182c-67 0 -111 37 -111 92c0 90 111 182 215 182z" fill="currentColor"/>
</g>
</a>
<g transform="translate(46.9161, 6.4867)">
<rect x="-0.0617" y="-0.0000" width="0.1233" height="2.8225" ry="0.0400" fill="currentColor"/>
</g>
<g transform="translate(46.9778, 6.5267)">
<path transform="scale(0.0034, -0.0034)" d="M0 0c0 -197 207 -335 207 -532c0 -71 -15 -141 -41 -207c-5 -8 -13 -12 -21 -12c-14 0 -27 11 -24 28c26 60 42 125 42 191c0 103 -93 207 -163 282h-18v250h18z" fill="currentColor"/>
</g>
<g transform="translate(40.1897, 6.4867)">
<polygon stroke-linejoin="round" stroke-linecap="round" stroke-width="0.0800" fill="currentColor" stroke="currentColor" points="2.3907 -0.1640 2.3907 0.1640 0.0400 0.1640 0.0400 -0.1640"/>
</g>
<g transform="translate(50.2421, 6.4867)">
<polygon stroke-linejoin="round" stroke-linecap="round" stroke-width="0.0800" fill="currentColor" stroke="currentColor" points="2.3907 -0.1640 2.3907 0.1640 0.0400 0.1640 0.0400 -0.1640"/>
</g>
<a style="color:inherit;" xlink:href="textedit:///Users/tomsegarra/Documents/dev/dummies/lilypond_files/5904dd68d43fdc1683fc54e085f424ad.ly:21:55:56">
<g transform="translate(49.2580, 9.0367)">
<path transform="scale(0.0034, -0.0034)" d="M215 137c67 0 111 -37 111 -92c0 -90 -111 -182 -215 -182c-67 0 -111 37 -111 92c0 90 111 182 215 182z" fill="currentColor"/>
</g>
</a>
<g transform="translate(50.3038, 6.4867)">
<rect x="-0.0617" y="-0.0000" width="0.1233" height="2.3975" ry="0.0400" fill="currentColor"/>
</g>
<g transform="translate(59.2143, 5.6367)">
<polygon stroke-linejoin="round" stroke-linecap="round" stroke-width="0.0800" fill="currentColor" stroke="currentColor" points="7.0055 -0.1640 7.0055 0.1640 0.0400 0.1640 0.0400 -0.1640"/>
</g>
<a style="color:inherit;" xlink:href="textedit:///Users/tomsegarra/Documents/dev/dummies/lilypond_files/5904dd68d43fdc1683fc54e085f424ad.ly:21:59:60">
<g transform="translate(51.5654, 9.0367)">
<path transform="scale(0.0034, -0.0034)" d="M215 137c67 0 111 -37 111 -92c0 -90 -111 -182 -215 -182c-67 0 -111 37 -111 92c0 90 111 182 215 182z" fill="currentColor"/>
</g>
</a>
<g transform="translate(52.6111, 6.4867)">
<rect x="-0.0617" y="-0.0000" width="0.1233" height="2.3975" ry="0.0400" fill="currentColor"/>
</g>
<g transform="translate(69.7612, 6.4867)">
<polygon stroke-linejoin="round" stroke-linecap="round" stroke-width="0.0800" fill="currentColor" stroke="currentColor" points="2.3907 -0.1640 2.3907 0.1640 0.0400 0.1640 0.0400 -0.1640"/>
</g>
<a style="color:inherit;" xlink:href="textedit:///Users/tomsegarra/Documents/dev/dummies/lilypond_files/5904dd68d43fdc1683fc54e085f424ad.ly:21:63:64">
<g transform="translate(53.8728, 6.4867)">
<path transform="scale(0.0034, -0.0034)" d="M70 205c80 0 46 -97 90 -97c15 0 52 45 59 59c6 13 26 13 31 0l-121 -417c-9 -7 -19 -11 -30 -11s-21 4 -30 11l118 326c-33 -12 -68 -22 -103 -22c-47 0 -87 34 -87 79c0 40 33 72 73 72z" fill="currentColor"/>
</g>
</a>
<g transform="translate(78.7334, 6.4867)">
<polygon stroke-linejoin="round" stroke-linecap="round" stroke-width="0.0800" fill="currentColor" stroke="currentColor" points="2.3907 -0.1640 2.3907 0.1640 0.0400 0.1640 0.0400 -0.1640"/>
</g>
<a style="color:inherit;" xlink:href="textedit:///Users/tomsegarra/Documents/dev/dummies/lilypond_files/5904dd68d43fdc1683fc54e085f424ad.ly:21:65:66">
<g transform="translate(55.9228, 9.0367)">
<path transform="scale(0.0034, -0.0034)" d="M215 137c67 0 111 -37 111 -92c0 -90 -111 -182 -215 -182c-67 0 -111 37 -111 92c0 90 111 182 215 182z" fill="currentColor"/>
</g>
</a>
<g transform="translate(56.9685, 6.4867)">
<rect x="-0.0617" y="-0.4250" width="0.1233" height="2.8225" ry="0.0400" fill="currentColor"/>
</g>
<g transform="translate(57.0302, 6.1017)">
<path transform="scale(0.0034, -0.0034)" d="M0 0c0 -197 207 -335 207 -532c0 -71 -15 -141 -41 -207c-5 -8 -13 -12 -21 -12c-14 0 -27 11 -24 28c26 60 42 125 42 191c0 103 -93 207 -163 282h-18v250h18z" fill="currentColor"/>
</g>
<a style="color:inherit;" xlink:href="textedit:///Users/tomsegarra/Documents/dev/dummies/lilypond_files/5904dd68d43fdc1683fc54e085f424ad.ly:21:69:70">
<g transform="translate(58.2302, 8.6117)">
<path transform="scale(0.0034, -0.0034)" d="M215 137c67 0 111 -37 111 -92c0 -90 -111 -182 -215 -182c-67 0 -111 37 -111 92c0 90 111 182 215 182z" fill="currentColor"/>
</g>
</a>
<g transform="translate(59.2759, 6.4867)">
<rect x="-0.0617" y="-0.8500" width="0.1233" height="2.8225" ry="0.0400" fill="currentColor"/>
</g>
<g transform="translate(42.5588, 6.4867)">
<rect x="-0.0617" y="-0.0000" width="0.1233" height="2.8225" ry="0.0400" fill="currentColor"/>
</g>
<a style="color:inherit;" xlink:href="textedit:///Users/tomsegarra/Documents/dev/dummies/lilypond_files/5904dd68d43fdc1683fc54e085f424ad.ly:21:73:74">
<g transform="translate(60.5376, 8.1867)">
<path transform="scale(0.0034, -0.0034)" d="M215 137c67 0 111 -37 111 -92c0 -90 -111 -182 -215 -182c-67 0 -111 37 -111 92c0 90 111 182 215 182z" fill="currentColor"/>
</g>
</a>
<g transform="translate(61.5833, 6.4867)">
<rect x="-0.0617" y="-0.8500" width="0.1233" height="2.3975" ry="0.0400" fill="currentColor"/>
</g>
<a style="color:inherit;" xlink:href="textedit:///Users/tomsegarra/Documents/dev/dummies/lilypond_files/5904dd68d43fdc1683fc54e085f424ad.ly:21:46:47">
<g transform="translate(41.5130, 9.4617)">
<path transform="scale(0.0034, -0.0034)" d="M215 137c67 0 111 -37 111 -92c0 -90 -111 -182 -215 -182c-67 0 -111 37 -111 92c0 90 111 182 215 182z" fill="currentColor"/>
</g>
</a>
<a style="color:inherit;" xlink:href="textedit:///Users/tomsegarra/Documents/dev/dummies/lilypond_files/5904dd68d43fdc1683fc54e085f424ad.ly:21:75:76">
<g transform="translate(62.8450, 8.6117)">
<path transform="scale(0.0034, -0.0034)" d="M215 137c67 0 111 -37 111 -92c0 -90 -111 -182 -215 -182c-67 0 -111 37 -111 92c0 90 111 182 215 182z" fill="currentColor"/>
</g>
</a>
<g transform="translate(63.8907, 6.4867)">
<rect x="-0.0617" y="-0.8500" width="0.1233" height="2.8225" ry="0.0400" fill="currentColor"/>
</g>
<a style="color:inherit;" xlink:href="textedit:///Users/tomsegarra/Documents/dev/dummies/lilypond_files/5904dd68d43fdc1683fc54e085f424ad.ly:21:79:80">
<g transform="translate(65.1523, 8.1867)">
<path transform="scale(0.0034, -0.0034)" d="M215 137c67 0 111 -37 111 -92c0 -90 -111 -182 -215 -182c-67 0 -111 37 -111 92c0 90 111 182 215 182z" fill="currentColor"/>
</g>
</a>
<g transform="translate(66.1981, 6.4867)">
<rect x="-0.0617" y="-0.8500" width="0.1233" height="2.3975" ry="0.0400" fill="currentColor"/>
</g>
<a style="color:inherit;" xlink:href="textedit:///Users/tomsegarra/Documents/dev/dummies/lilypond_files/5904dd68d43fdc1683fc54e085f424ad.ly:21:85:86">
<g transform="translate(68.7771, 9.8867)">
<path transform="scale(0.0034, -0.0034)" d="M215 137c67 0 111 -37 111 -92c0 -90 -111 -182 -215 -182c-67 0 -111 37 -111 92c0 90 111 182 215 182z" fill="currentColor"/>
</g>
</a>
<g transform="translate(69.8229, 6.4867)">
<rect x="-0.0617" y="0.0000" width="0.1233" height="3.2475" ry="0.0400" fill="currentColor"/>
</g>
<a style="color:inherit;" xlink:href="textedit:///Users/tomsegarra/Documents/dev/dummies/lilypond_files/5904dd68d43fdc1683fc54e085f424ad.ly:21:88:89">
<g transform="translate(71.0845, 9.8867)">
<path transform="scale(0.0034, -0.0034)" d="M215 137c67 0 111 -37 111 -92c0 -90 -111 -182 -215 -182c-67 0 -111 37 -111 92c0 90 111 182 215 182z" fill="currentColor"/>
</g>
</a>
<g transform="translate(72.1303, 6.4867)">
<rect x="-0.0617" y="0.0000" width="0.1233" height="3.2475" ry="0.0400" fill="currentColor"/>
</g>
<g transform="translate(40.2514, 6.4867)">
<rect x="-0.0617" y="-0.0000" width="0.1233" height="2.8225" ry="0.0400" fill="currentColor"/>
</g>
<a style="color:inherit;" xlink:href="textedit:///Users/tomsegarra/Documents/dev/dummies/lilypond_files/5904dd68d43fdc1683fc54e085f424ad.ly:21:90:91">
<g transform="translate(73.3919, 6.4867)">
<path transform="scale(0.0034, -0.0034)" d="M70 205c80 0 46 -97 90 -97c15 0 52 45 59 59c6 13 26 13 31 0l-121 -417c-9 -7 -19 -11 -30 -11s-21 4 -30 11l118 326c-33 -12 -68 -22 -103 -22c-47 0 -87 34 -87 79c0 40 33 72 73 72z" fill="currentColor"/>
</g>
</a>
<a style="color:inherit;" xlink:href="textedit:///Users/tomsegarra/Documents/dev/dummies/lilypond_files/5904dd68d43fdc1683fc54e085f424ad.ly:21:44:45">
<g transform="translate(39.2057, 9.4617)">
<path transform="scale(0.0034, -0.0034)" d="M215 137c67 0 111 -37 111 -92c0 -90 -111 -182 -215 -182c-67 0 -111 37 -111 92c0 90 111 182 215 182z" fill="currentColor"/>
</g>
</a>
<a style="color:inherit;" xlink:href="textedit:///Users/tomsegarra/Documents/dev/dummies/lilypond_files/5904dd68d43fdc1683fc54e085f424ad.ly:21:92:93">
<g transform="translate(75.4419, 9.8867)">
<path transform="scale(0.0034, -0.0034)" d="M215 137c67 0 111 -37 111 -92c0 -90 -111 -182 -215 -182c-67 0 -111 37 -111 92c0 90 111 182 215 182z" fill="currentColor"/>
</g>
</a>
<g transform="translate(76.4876, 6.4867)">
<rect x="-0.0617" y="-0.0000" width="0.1233" height="3.2475" ry="0.0400" fill="currentColor"/>
</g>
<g transform="translate(76.5493, 6.5267)">
<path transform="scale(0.0034, -0.0034)" d="M0 0c0 -197 207 -335 207 -532c0 -71 -15 -141 -41 -207c-5 -8 -13 -12 -21 -12c-14 0 -27 11 -24 28c26 60 42 125 42 191c0 103 -93 207 -163 282h-18v250h18z" fill="currentColor"/>
</g>
<g transform="translate(11.6985, 6.4867)">
<polygon stroke-linejoin="round" stroke-linecap="round" stroke-width="0.0800" fill="currentColor" stroke="currentColor" points="2.3907 -0.1640 2.3907 0.1640 0.0400 0.1640 0.0400 -0.1640"/>
</g>
<a style="color:inherit;" xlink:href="textedit:///Users/tomsegarra/Documents/dev/dummies/lilypond_files/5904dd68d43fdc1683fc54e085f424ad.ly:21:94:95">
<g transform="translate(77.7493, 9.8867)">
<path transform="scale(0.0034, -0.0034)" d="M215 137c67 0 111 -37 111 -92c0 -90 -111 -182 -215 -182c-67 0 -111 37 -111 92c0 90 111 182 215 182z" fill="currentColor"/>
</g>
</a>
<g transform="translate(78.7950, 6.4867)">
<rect x="-0.0617" y="0.0000" width="0.1233" height="3.2475" ry="0.0400" fill="currentColor"/>
</g>
<g transform="translate(38.0057, 6.5267)">
<path transform="scale(0.0034, -0.0034)" d="M0 0c0 -197 207 -335 207 -532c0 -71 -15 -141 -41 -207c-5 -8 -13 -12 -21 -12c-14 0 -27 11 -24 28c26 60 42 125 42 191c0 103 -93 207 -163 282h-18v250h18z" fill="currentColor"/>
</g>
<a style="color:inherit;" xlink:href="textedit:///Users/tomsegarra/Documents/dev/dummies/lilypond_files/5904dd68d43fdc1683fc54e085f424ad.ly:21:96:97">
<g transform="translate(80.0567, 9.8867)">
<path transform="scale(0.0034, -0.0034)" d="M215 137c67 0 111 -37 111 -92c0 -90 -111 -182 -215 -182c-67 0 -111 37 -111 92c0 90 111 182 215 182z" fill="currentColor"/>
</g>
</a>
<g transform="translate(81.1024, 6.4867)">
<rect x="-0.0617" y="0.0000" width="0.1233" height="3.2475" ry="0.0400" fill="currentColor"/>
</g>
<a style="color:inherit;" xlink:href="textedit:///Users/tomsegarra/Documents/dev/dummies/lilypond_files/5904dd68d43fdc1683fc54e085f424ad.ly:21:98:99">
<g transform="translate(82.3641, 6.4867)">
<path transform="scale(0.0034, -0.0034)" d="M-8 78c0 59 125 83 125 182c0 25 -9 49 -26 69l-33 40c-3 4 -4 7 -4 11c0 9 9 17 18 17c4 0 8 -2 12 -6l150 -179c7 -9 11 -18 11 -26c0 -59 -125 -83 -125 -182c0 -25 8 -49 25 -69l82 -97c3 -4 4 -7 4 -11c0 -9 -8 -17 -17 -17c-10 0 -42 42 -106 42
c-19 0 -54 -1 -54 -66c0 -34 10 -73 27 -93c7 -9 -5 -20 -12 -11c-45 53 -93 147 -93 201c0 42 27 42 43 42c31 0 74 -11 113 -27l-129 154c-7 9 -11 18 -11 26z" fill="currentColor"/>
</g>
</a>
<g transform="translate(37.9440, 6.4867)">
<rect x="-0.0617" y="-0.0000" width="0.1233" height="2.8225" ry="0.0400" fill="currentColor"/>
</g>
<a style="color:inherit;" xlink:href="textedit:///Users/tomsegarra/Documents/dev/dummies/lilypond_files/5904dd68d43fdc1683fc54e085f424ad.ly:21:42:43">
<g transform="translate(36.8983, 9.4617)">
<path transform="scale(0.0034, -0.0034)" d="M215 137c67 0 111 -37 111 -92c0 -90 -111 -182 -215 -182c-67 0 -111 37 -111 92c0 90 111 182 215 182z" fill="currentColor"/>
</g>
</a>
<a style="color:inherit;" xlink:href="textedit:///Users/tomsegarra/Documents/dev/dummies/lilypond_files/5904dd68d43fdc1683fc54e085f424ad.ly:21:10:11">
<g transform="translate(13.0218, 9.0367)">
<path transform="scale(0.0034, -0.0034)" d="M215 137c67 0 111 -37 111 -92c0 -90 -111 -182 -215 -182c-67 0 -111 37 -111 92c0 90 111 182 215 182z" fill="currentColor"/>
</g>
</a>
<g transform="translate(14.0675, 6.4867)">
<rect x="-0.0617" y="-0.0000" width="0.1233" height="2.3975" ry="0.0400" fill="currentColor"/>
</g>
<a style="color:inherit;" xlink:href="textedit:///Users/tomsegarra/Documents/dev/dummies/lilypond_files/5904dd68d43fdc1683fc54e085f424ad.ly:21:14:15">
<g transform="translate(15.3292, 6.4867)">
<path transform="scale(0.0034, -0.0034)" d="M70 205c80 0 46 -97 90 -97c15 0 52 45 59 59c6 13 26 13 31 0l-121 -417c-9 -7 -19 -11 -30 -11s-21 4 -30 11l118 326c-33 -12 -68 -22 -103 -22c-47 0 -87 34 -87 79c0 40 33 72 73 72z" fill="currentColor"/>
</g>
</a>
<a style="color:inherit;" xlink:href="textedit:///Users/tomsegarra/Documents/dev/dummies/lilypond_files/5904dd68d43fdc1683fc54e085f424ad.ly:21:16:17">
<g transform="translate(17.3792, 9.0367)">
<path transform="scale(0.0034, -0.0034)" d="M215 137c67 0 111 -37 111 -92c0 -90 -111 -182 -215 -182c-67 0 -111 37 -111 92c0 90 111 182 215 182z" fill="currentColor"/>
</g>
</a>
<g transform="translate(18.4249, 6.4867)">
<rect x="-0.0617" y="-0.4250" width="0.1233" height="2.8225" ry="0.0400" fill="currentColor"/>
</g>
<g transform="translate(18.4865, 6.1017)">
<path transform="scale(0.0034, -0.0034)" d="M0 0c0 -197 207 -335 207 -532c0 -71 -15 -141 -41 -207c-5 -8 -13 -12 -21 -12c-14 0 -27 11 -24 28c26 60 42 125 42 191c0 103 -93 207 -163 282h-18v250h18z" fill="currentColor"/>
</g>
<a style="color:inherit;" xlink:href="textedit:///Users/tomsegarra/Documents/dev/dummies/lilypond_files/5904dd68d43fdc1683fc54e085f424ad.ly:21:20:21">
<g transform="translate(19.6865, 8.6117)">
<path transform="scale(0.0034, -0.0034)" d="M215 137c67 0 111 -37 111 -92c0 -90 -111 -182 -215 -182c-67 0 -111 37 -111 92c0 90 111 182 215 182z" fill="currentColor"/>
</g>
</a>
<g transform="translate(20.7323, 6.4867)">
<rect x="-0.0617" y="-0.8500" width="0.1233" height="2.8225" ry="0.0400" fill="currentColor"/>
</g>
<a style="color:inherit;" xlink:href="textedit:///Users/tomsegarra/Documents/dev/dummies/lilypond_files/5904dd68d43fdc1683fc54e085f424ad.ly:21:40:41">
<g transform="translate(34.8483, 6.4867)">
<path transform="scale(0.0034, -0.0034)" d="M70 205c80 0 46 -97 90 -97c15 0 52 45 59 59c6 13 26 13 31 0l-121 -417c-9 -7 -19 -11 -30 -11s-21 4 -30 11l118 326c-33 -12 -68 -22 -103 -22c-47 0 -87 34 -87 79c0 40 33 72 73 72z" fill="currentColor"/>
</g>
</a>
<a style="color:inherit;" xlink:href="textedit:///Users/tomsegarra/Documents/dev/dummies/lilypond_files/5904dd68d43fdc1683fc54e085f424ad.ly:21:24:25">
<g transform="translate(21.9939, 8.1867)">
<path transform="scale(0.0034, -0.0034)" d="M215 137c67 0 111 -37 111 -92c0 -90 -111 -182 -215 -182c-67 0 -111 37 -111 92c0 90 111 182 215 182z" fill="currentColor"/>
</g>
</a>
<g transform="translate(23.0397, 6.4867)">
<rect x="-0.0617" y="-0.8500" width="0.1233" height="2.3975" ry="0.0400" fill="currentColor"/>
</g>
<a style="color:inherit;" xlink:href="textedit:///Users/tomsegarra/Documents/dev/dummies/lilypond_files/5904dd68d43fdc1683fc54e085f424ad.ly:21:26:27">
<g transform="translate(24.3013, 8.6117)">
<path transform="scale(0.0034, -0.0034)" d="M215 137c67 0 111 -37 111 -92c0 -90 -111 -182 -215 -182c-67 0 -111 37 -111 92c0 90 111 182 215 182z" fill="currentColor"/>
</g>
</a>
<g transform="translate(25.3470, 6.4867)">
<rect x="-0.0617" y="-0.8500" width="0.1233" height="2.8225" ry="0.0400" fill="currentColor"/>
</g>
<a style="color:inherit;" xlink:href="textedit:///Users/tomsegarra/Documents/dev/dummies/lilypond_files/5904dd68d43fdc1683fc54e085f424ad.ly:21:30:31">
<g transform="translate(26.6087, 8.1867)">
<path transform="scale(0.0034, -0.0034)" d="M215 137c67 0 111 -37 111 -92c0 -90 -111 -182 -215 -182c-67 0 -111 37 -111 92c0 90 111 182 215 182z" fill="currentColor"/>
</g>
</a>
<g transform="translate(27.6544, 6.4867)">
<rect x="-0.0617" y="-0.8500" width="0.1233" height="2.3975" ry="0.0400" fill="currentColor"/>
</g>
<a style="color:inherit;" xlink:href="textedit:///Users/tomsegarra/Documents/dev/dummies/lilypond_files/5904dd68d43fdc1683fc54e085f424ad.ly:21:36:37">
<g transform="translate(30.2335, 9.4617)">
<path transform="scale(0.0034, -0.0034)" d="M215 137c67 0 111 -37 111 -92c0 -90 -111 -182 -215 -182c-67 0 -111 37 -111 92c0 90 111 182 215 182z" fill="currentColor"/>
</g>
</a>
<g transform="translate(31.2792, 6.4867)">
<rect x="-0.0617" y="-0.0000" width="0.1233" height="2.8225" ry="0.0400" fill="currentColor"/>
</g>
<g transform="translate(33.5866, 6.4867)">
<rect x="-0.0617" y="-0.0000" width="0.1233" height="2.8225" ry="0.0400" fill="currentColor"/>
</g>
<a style="color:inherit;" xlink:href="textedit:///Users/tomsegarra/Documents/dev/dummies/lilypond_files/5904dd68d43fdc1683fc54e085f424ad.ly:21:38:39">
<g transform="translate(32.5409, 9.4617)">
<path transform="scale(0.0034, -0.0034)" d="M215 137c67 0 111 -37 111 -92c0 -90 -111 -182 -215 -182c-67 0 -111 37 -111 92c0 90 111 182 215 182z" fill="currentColor"/>
</g>
</a>
</svg>
