<?xml version="1.0" encoding="UTF-8" standalone="no"?>
<svg
   version="1.2"
   width="122.23037mm"
   height="13.53998mm"
   viewBox="0 0 69.558403 7.7049962"
   id="svg398"
   sodipodi:docname="5b00250dd40ef304a6cb8148dff28b0d.svg"
   xmlns:inkscape="http://www.inkscape.org/namespaces/inkscape"
   xmlns:sodipodi="http://sodipodi.sourceforge.net/DTD/sodipodi-0.dtd"
   xmlns:xlink="http://www.w3.org/1999/xlink"
   xmlns="http://www.w3.org/2000/svg"
   xmlns:svg="http://www.w3.org/2000/svg">
  <defs
     id="defs402" />
  <sodipodi:namedview
     id="namedview400"
     pagecolor="#ffffff"
     bordercolor="#000000"
     borderopacity="0.25"
     inkscape:showpageshadow="2"
     inkscape:pageopacity="0.0"
     inkscape:pagecheckerboard="0"
     inkscape:deskcolor="#d1d1d1"
     inkscape:document-units="mm" />
  <style
     type="text/css"
     id="style2"><![CDATA[
tspan { white-space: pre; }
]]></style>
  <!-- Page: 1/1 -->
  <g
     transform="translate(54.40005,4.6931573)"
     id="g6">
    <rect
       x="0"
       y="-1.7"
       width="0.1802"
       height="3.4000001"
       ry="0.0000"
       fill="currentColor"
       id="rect4" />
  </g>
  <g
     transform="translate(4.9997121e-5,6.3931573)"
     id="g10">
    <line
       stroke-linejoin="round"
       stroke-linecap="round"
       stroke-width="0.0949"
       stroke="currentColor"
       x1="0.047400001"
       y1="0"
       x2="69.510902"
       y2="0"
       id="line8" />
  </g>
  <g
     transform="translate(4.9997121e-5,5.5431573)"
     id="g14">
    <line
       stroke-linejoin="round"
       stroke-linecap="round"
       stroke-width="0.0949"
       stroke="currentColor"
       x1="0.047400001"
       y1="0"
       x2="69.510902"
       y2="0"
       id="line12" />
  </g>
  <g
     transform="translate(4.9997121e-5,4.6931573)"
     id="g18">
    <line
       stroke-linejoin="round"
       stroke-linecap="round"
       stroke-width="0.0949"
       stroke="currentColor"
       x1="0.047400001"
       y1="0"
       x2="69.510902"
       y2="0"
       id="line16" />
  </g>
  <g
     transform="translate(4.9997121e-5,3.8431573)"
     id="g22">
    <line
       stroke-linejoin="round"
       stroke-linecap="round"
       stroke-width="0.0949"
       stroke="currentColor"
       x1="0.047400001"
       y1="0"
       x2="69.510902"
       y2="0"
       id="line20" />
  </g>
  <g
     transform="translate(4.9997121e-5,2.9931573)"
     id="g26">
    <line
       stroke-linejoin="round"
       stroke-linecap="round"
       stroke-width="0.0949"
       stroke="currentColor"
       x1="0.047400001"
       y1="0"
       x2="69.510902"
       y2="0"
       id="line24" />
  </g>
  <g
     transform="translate(69.37815,4.6931573)"
     id="g30">
    <rect
       x="0"
       y="-1.7"
       width="0.1802"
       height="3.4000001"
       ry="0.0000"
       fill="currentColor"
       id="rect28" />
  </g>
  <g
     transform="translate(38.71935,4.6931573)"
     id="g34">
    <rect
       x="0"
       y="-1.7"
       width="0.1802"
       height="3.4000001"
       ry="0.0000"
       fill="currentColor"
       id="rect32" />
  </g>
  <g
     transform="translate(22.96725,4.6931573)"
     id="g38">
    <rect
       x="0"
       y="-1.7"
       width="0.1802"
       height="3.4000001"
       ry="0.0000"
       fill="currentColor"
       id="rect36" />
  </g>
  <g
     color="#000000"
     id="g44"
     transform="translate(-2.27615,-3.2793427)">
    <g
       transform="translate(33.0748,9.8291)"
       id="g42">
      <polygon
         stroke-linejoin="round"
         stroke-linecap="round"
         stroke-width="0.08"
         fill="currentColor"
         stroke="currentColor"
         points="0.04,0.164 0.04,-0.164 2.3907,-0.4771 2.3907,-0.1491 "
         id="polygon40" />
    </g>
  </g>
  <g
     color="#ff0000"
     id="g52"
     transform="translate(-2.27615,-3.2793427)">
    <a
       style="color:inherit"
       xlink:href="textedit:///Users/tomsegarra/Documents/dev/dummies/lilypond_files/5b00250dd40ef304a6cb8148dff28b0d.ly:27:4:5"
       id="a50">
      <g
         transform="translate(15.0153,7.5475)"
         id="g48">
        <path
           transform="scale(0.0034,-0.0034)"
           d="m 215,137 c 67,0 111,-37 111,-92 0,-90 -111,-182 -215,-182 -67,0 -111,37 -111,92 0,90 111,182 215,182 z"
           fill="currentColor"
           id="path46" />
      </g>
    </a>
  </g>
  <g
     color="#ff0000"
     id="g58"
     transform="translate(-2.27615,-3.2793427)">
    <g
       transform="translate(15.077,7.9725)"
       id="g56">
      <rect
         x="-0.061700001"
         y="-0.27250001"
         width="0.1233"
         height="2.8225"
         ry="0.039999999"
         fill="currentColor"
         id="rect54" />
    </g>
  </g>
  <g
     color="#ff0000"
     id="g64"
     transform="translate(-2.27615,-3.2793427)">
    <g
       transform="translate(15.1386,10.4825)"
       id="g62">
      <path
         transform="scale(0.0034,-0.0034)"
         d="M 0,0 H -18 V 250 H 0 Z m 0,0 v 250 c 96,59 222,149 222,259 0,57 -15,111 -40,162 -3,17 10,29 24,29 8,0 16,-5 21,-13 25,-56 40,-116 40,-178 C 267,306 0,203 0,0 Z"
         fill="currentColor"
         id="path60" />
    </g>
  </g>
  <a
     style="color:inherit"
     xlink:href="textedit:///Users/tomsegarra/Documents/dev/dummies/lilypond_files/5b00250dd40ef304a6cb8148dff28b0d.ly:19:12:13"
     id="a78"
     transform="translate(-2.27615,-3.2793427)">
    <g
       transform="translate(10.7144,4.9225)"
       id="g70">
      <text
         font-family="sans-serif"
         font-size="2.224px"
         text-anchor="start"
         fill="currentColor"
         id="text68"><tspan
           id="tspan66">A</tspan></text>
    </g>
    <g
       transform="translate(12.2508,4.9225)"
       id="g76">
      <text
         font-family="sans-serif"
         font-size="2.224px"
         text-anchor="start"
         fill="currentColor"
         id="text74"><tspan
           id="tspan72">m</tspan></text>
    </g>
  </a>
  <g
     color="#ff0000"
     id="g84"
     transform="translate(-2.27615,-3.2793427)">
    <g
       transform="translate(48.7555,9.8291)"
       id="g82">
      <polygon
         stroke-linejoin="round"
         stroke-linecap="round"
         stroke-width="0.08"
         fill="currentColor"
         stroke="currentColor"
         points="0.04,0.164 0.04,-0.164 2.3907,-0.4771 2.3907,-0.1491 "
         id="polygon80" />
    </g>
  </g>
  <g
     color="#ff0000"
     id="g92"
     transform="translate(-2.27615,-3.2793427)">
    <a
       style="color:inherit"
       xlink:href="textedit:///Users/tomsegarra/Documents/dev/dummies/lilypond_files/5b00250dd40ef304a6cb8148dff28b0d.ly:27:7:8"
       id="a90">
      <g
         transform="translate(17.3227,7.1225)"
         id="g88">
        <path
           transform="scale(0.0034,-0.0034)"
           d="m 215,137 c 67,0 111,-37 111,-92 0,-90 -111,-182 -215,-182 -67,0 -111,37 -111,92 0,90 111,182 215,182 z"
           fill="currentColor"
           id="path86" />
      </g>
    </a>
  </g>
  <g
     color="#ff0000"
     id="g98"
     transform="translate(-2.27615,-3.2793427)">
    <g
       transform="translate(17.3844,7.9725)"
       id="g96">
      <rect
         x="-0.061700001"
         y="-0.69749999"
         width="0.1233"
         height="2.5462"
         ry="0.039999999"
         fill="currentColor"
         id="rect94" />
    </g>
  </g>
  <a
     style="color:inherit"
     xlink:href="textedit:///Users/tomsegarra/Documents/dev/dummies/lilypond_files/5b00250dd40ef304a6cb8148dff28b0d.ly:23:4:5"
     id="a104"
     transform="translate(-2.27615,-3.2793427)">
    <g
       transform="translate(10.7144,8.3975)"
       id="g102">
      <path
         transform="scale(0.0034,-0.0034)"
         d="m 215,137 c 67,0 111,-37 111,-92 0,-90 -111,-182 -215,-182 -67,0 -111,37 -111,92 0,90 111,182 215,182 z"
         fill="currentColor"
         id="path100" />
    </g>
  </a>
  <g
     color="#ff0000"
     id="g112"
     transform="translate(-2.27615,-3.2793427)">
    <a
       style="color:inherit"
       xlink:href="textedit:///Users/tomsegarra/Documents/dev/dummies/lilypond_files/5b00250dd40ef304a6cb8148dff28b0d.ly:27:9:10"
       id="a110">
      <g
         transform="translate(19.6301,6.6975)"
         id="g108">
        <path
           transform="scale(0.0034,-0.0034)"
           d="m 215,137 c 67,0 111,-37 111,-92 0,-90 -111,-182 -215,-182 -67,0 -111,37 -111,92 0,90 111,182 215,182 z"
           fill="currentColor"
           id="path106" />
      </g>
    </a>
  </g>
  <g
     color="#ff0000"
     id="g118"
     transform="translate(-2.27615,-3.2793427)">
    <g
       transform="translate(19.6918,7.9725)"
       id="g116">
      <rect
         x="-0.061700001"
         y="-1.1224999"
         width="0.1233"
         height="2.6738999"
         ry="0.039999999"
         fill="currentColor"
         id="rect114" />
    </g>
  </g>
  <g
     transform="translate(0.80005,5.5431573)"
     id="g122">
    <path
       transform="scale(0.0034,-0.0034)"
       d="m 646,2 c 0,-113 -74,-213 -180,-247 3,-34 5,-68 5,-102 0,-20 -1,-40 -2,-60 -7,-121 -91,-228 -209,-228 -108,0 -196,87 -196,196 0,58 53,104 112,104 54,0 95,-48 95,-104 0,-52 -43,-95 -95,-95 -10,0 -20,2 -29,6 26,-38 68,-63 116,-63 h 3 c 93,2 153,92 159,190 1,19 2,37 2,56 0,30 -2,60 -4,90 -5,-1 -43,-8 -88,-8 -194,0 -333,180 -333,375 0,177 130,307 246,442 -31,98 -53,170 -53,347 0,115 55,223 148,290 7,5 16,4 22,-1 68,-80 134,-243 134,-357 0,-143 -85,-255 -178,-364 21,-68 40,-137 57,-206 1,0 5,1 11,1 C 545,264 646,135 646,2 Z M 462,-202 c 66,24 111,88 111,162 0,89 -65,178 -170,190 28,-135 50,-272 59,-352 z M 75,26 c 0,-145 141,-245 263,-245 1,0 46,0 81,6 -7,65 -27,206 -61,363 -79,-8 -124,-61 -124,-119 0,-43 25,-89 80,-121 5,-5 7,-11 7,-16 0,-12 -10,-23 -22,-23 -16,0 -127,63 -127,188 0,89 58,175 161,198 -14,58 -29,116 -46,173 C 181,308 75,186 75,26 Z M 406,1042 C 307,995 244,894 244,785 c 0,-49 13,-111 38,-191 79,97 144,199 144,324 0,33 0,63 -20,124 z"
       fill="currentColor"
       id="path120" />
  </g>
  <g
     color="#ff0000"
     id="g130"
     transform="translate(-2.27615,-3.2793427)">
    <a
       style="color:inherit"
       xlink:href="textedit:///Users/tomsegarra/Documents/dev/dummies/lilypond_files/5b00250dd40ef304a6cb8148dff28b0d.ly:27:13:14"
       id="a128">
      <g
         transform="translate(21.9375,7.1225)"
         id="g126">
        <path
           transform="scale(0.0034,-0.0034)"
           d="m 215,137 c 67,0 111,-37 111,-92 0,-90 -111,-182 -215,-182 -67,0 -111,37 -111,92 0,90 111,182 215,182 z"
           fill="currentColor"
           id="path124" />
      </g>
    </a>
  </g>
  <g
     color="#ff0000"
     id="g136"
     transform="translate(-2.27615,-3.2793427)">
    <g
       transform="translate(21.9991,7.9725)"
       id="g134">
      <rect
         x="-0.061700001"
         y="-0.69749999"
         width="0.1233"
         height="2.8225"
         ry="0.039999999"
         fill="currentColor"
         id="rect132" />
    </g>
  </g>
  <g
     color="#000000"
     id="g142"
     transform="translate(-2.27615,-3.2793427)">
    <g
       transform="translate(68.4458,7.9725)"
       id="g140">
      <rect
         x="-0.061700001"
         y="-1.1224999"
         width="0.1233"
         height="2.8225"
         ry="0.039999999"
         fill="currentColor"
         id="rect138" />
    </g>
  </g>
  <a
     style="color:inherit"
     xlink:href="textedit:///Users/tomsegarra/Documents/dev/dummies/lilypond_files/5b00250dd40ef304a6cb8148dff28b0d.ly:19:17:18"
     id="a150"
     transform="translate(-2.27615,-3.2793427)">
    <g
       transform="translate(26.3236,4.9225)"
       id="g148">
      <text
         font-family="sans-serif"
         font-size="2.224px"
         text-anchor="start"
         fill="currentColor"
         id="text146"><tspan
           id="tspan144">F</tspan></text>
    </g>
  </a>
  <g
     color="#000000"
     id="g158"
     transform="translate(-2.27615,-3.2793427)">
    <a
       style="color:inherit"
       xlink:href="textedit:///Users/tomsegarra/Documents/dev/dummies/lilypond_files/5b00250dd40ef304a6cb8148dff28b0d.ly:31:4:5"
       id="a156">
      <g
         transform="translate(26.3236,9.2475)"
         id="g154">
        <path
           transform="scale(0.0034,-0.0034)"
           d="m 215,137 c 67,0 111,-37 111,-92 0,-90 -111,-182 -215,-182 -67,0 -111,37 -111,92 0,90 111,182 215,182 z"
           fill="currentColor"
           id="path152" />
      </g>
    </a>
  </g>
  <g
     transform="translate(25.53395,5.9681573)"
     id="g162">
    <path
       transform="scale(0.0034,-0.0034)"
       d="M 0,0 C 0,31 25,56 56,56 87,56 111,31 111,0 111,-31 87,-56 56,-56 25,-56 0,-31 0,0 Z"
       fill="currentColor"
       id="path160" />
  </g>
  <g
     color="#000000"
     id="g168"
     transform="translate(-2.27615,-3.2793427)">
    <g
       transform="translate(27.3694,7.9725)"
       id="g166">
      <rect
         x="-0.061700001"
         y="-1.7"
         width="0.1233"
         height="2.8225"
         ry="0.039999999"
         fill="currentColor"
         id="rect164" />
    </g>
  </g>
  <a
     style="color:inherit"
     xlink:href="textedit:///Users/tomsegarra/Documents/dev/dummies/lilypond_files/5b00250dd40ef304a6cb8148dff28b0d.ly:22:1:9"
     id="a170"
     transform="translate(-2.27615,-3.2793427)" />
  <g
     color="#000000"
     id="g178"
     transform="translate(-2.27615,-3.2793427)">
    <a
       style="color:inherit"
       xlink:href="textedit:///Users/tomsegarra/Documents/dev/dummies/lilypond_files/5b00250dd40ef304a6cb8148dff28b0d.ly:39:12:13"
       id="a176">
      <g
         transform="translate(68.3841,6.6975)"
         id="g174">
        <path
           transform="scale(0.0034,-0.0034)"
           d="m 215,137 c 67,0 111,-37 111,-92 0,-90 -111,-182 -215,-182 -67,0 -111,37 -111,92 0,90 111,182 215,182 z"
           fill="currentColor"
           id="path172" />
      </g>
    </a>
  </g>
  <g
     color="#000000"
     id="g186"
     transform="translate(-2.27615,-3.2793427)">
    <a
       style="color:inherit"
       xlink:href="textedit:///Users/tomsegarra/Documents/dev/dummies/lilypond_files/5b00250dd40ef304a6cb8148dff28b0d.ly:31:9:10"
       id="a184">
      <g
         transform="translate(30.7674,7.5475)"
         id="g182">
        <path
           transform="scale(0.0034,-0.0034)"
           d="m 215,137 c 67,0 111,-37 111,-92 0,-90 -111,-182 -215,-182 -67,0 -111,37 -111,92 0,90 111,182 215,182 z"
           fill="currentColor"
           id="path180" />
      </g>
    </a>
  </g>
  <g
     color="#000000"
     id="g192"
     transform="translate(-2.27615,-3.2793427)">
    <g
       transform="translate(30.8291,7.9725)"
       id="g190">
      <rect
         x="-0.061700001"
         y="-0.27250001"
         width="0.1233"
         height="2.8225"
         ry="0.039999999"
         fill="currentColor"
         id="rect188" />
    </g>
  </g>
  <g
     color="#000000"
     id="g198"
     transform="translate(-2.27615,-3.2793427)">
    <g
       transform="translate(30.8908,10.4825)"
       id="g196">
      <path
         transform="scale(0.0034,-0.0034)"
         d="M 0,0 H -18 V 250 H 0 Z m 0,0 v 250 c 96,59 222,149 222,259 0,57 -15,111 -40,162 -3,17 10,29 24,29 8,0 16,-5 21,-13 25,-56 40,-116 40,-178 C 267,306 0,203 0,0 Z"
         fill="currentColor"
         id="path194" />
    </g>
  </g>
  <g
     transform="translate(5.00005,4.6931573)"
     id="g202">
    <path
       transform="scale(0.0034,-0.0034)"
       d="m 358,29 c -30,0 -74,23 -74,73 0,38 27,76 71,76 4,0 7,0 11,-1 -27,36 -69,59 -116,59 -106,0 -113,-74 -113,-188 0,-15 1,-31 1,-48 0,-17 -1,-33 -1,-48 0,-114 7,-188 113,-188 79,0 136,70 155,150 2,7 7,10 13,10 7,0 14,-5 14,-13 0,-21 -50,-175 -182,-175 C 191,-264 0,-244 0,0 0,63 18,264 250,264 365,264 424,155 424,99 424,60 394,29 358,29 Z"
       fill="currentColor"
       id="path200" />
  </g>
  <g
     color="#000000"
     id="g210"
     transform="translate(-2.27615,-3.2793427)">
    <a
       style="color:inherit"
       xlink:href="textedit:///Users/tomsegarra/Documents/dev/dummies/lilypond_files/5b00250dd40ef304a6cb8148dff28b0d.ly:31:13:14"
       id="a208">
      <g
         transform="translate(33.0748,7.1225)"
         id="g206">
        <path
           transform="scale(0.0034,-0.0034)"
           d="m 215,137 c 67,0 111,-37 111,-92 0,-90 -111,-182 -215,-182 -67,0 -111,37 -111,92 0,90 111,182 215,182 z"
           fill="currentColor"
           id="path204" />
      </g>
    </a>
  </g>
  <g
     color="#000000"
     id="g216"
     transform="translate(-2.27615,-3.2793427)">
    <g
       transform="translate(33.1365,7.9725)"
       id="g214">
      <rect
         x="-0.061700001"
         y="-0.69749999"
         width="0.1233"
         height="2.5462"
         ry="0.039999999"
         fill="currentColor"
         id="rect212" />
    </g>
  </g>
  <g
     transform="translate(9.92475,5.1181573)"
     id="g220">
    <path
       transform="scale(0.0034,-0.0034)"
       d="M 0,0 C 0,31 25,56 56,56 87,56 111,31 111,0 111,-31 87,-56 56,-56 25,-56 0,-31 0,0 Z"
       fill="currentColor"
       id="path218" />
  </g>
  <g
     color="#000000"
     id="g228"
     transform="translate(-2.27615,-3.2793427)">
    <a
       style="color:inherit"
       xlink:href="textedit:///Users/tomsegarra/Documents/dev/dummies/lilypond_files/5b00250dd40ef304a6cb8148dff28b0d.ly:31:15:16"
       id="a226">
      <g
         transform="translate(35.3822,6.6975)"
         id="g224">
        <path
           transform="scale(0.0034,-0.0034)"
           d="m 215,137 c 67,0 111,-37 111,-92 0,-90 -111,-182 -215,-182 -67,0 -111,37 -111,92 0,90 111,182 215,182 z"
           fill="currentColor"
           id="path222" />
      </g>
    </a>
  </g>
  <g
     color="#000000"
     id="g234"
     transform="translate(-2.27615,-3.2793427)">
    <g
       transform="translate(35.4439,7.9725)"
       id="g232">
      <rect
         x="-0.061700001"
         y="-1.1224999"
         width="0.1233"
         height="2.6738999"
         ry="0.039999999"
         fill="currentColor"
         id="rect230" />
    </g>
  </g>
  <g
     transform="translate(9.48395,4.6931573)"
     id="g238">
    <rect
       x="-0.061700001"
       y="-2.55"
       width="0.1233"
       height="2.8225"
       ry="0.039999999"
       fill="currentColor"
       id="rect236" />
  </g>
  <g
     color="#000000"
     id="g246"
     transform="translate(-2.27615,-3.2793427)">
    <a
       style="color:inherit"
       xlink:href="textedit:///Users/tomsegarra/Documents/dev/dummies/lilypond_files/5b00250dd40ef304a6cb8148dff28b0d.ly:31:19:20"
       id="a244">
      <g
         transform="translate(37.6896,7.1225)"
         id="g242">
        <path
           transform="scale(0.0034,-0.0034)"
           d="m 215,137 c 67,0 111,-37 111,-92 0,-90 -111,-182 -215,-182 -67,0 -111,37 -111,92 0,90 111,182 215,182 z"
           fill="currentColor"
           id="path240" />
      </g>
    </a>
  </g>
  <g
     color="#000000"
     id="g252"
     transform="translate(-2.27615,-3.2793427)">
    <g
       transform="translate(37.7512,7.9725)"
       id="g250">
      <rect
         x="-0.061700001"
         y="-0.69749999"
         width="0.1233"
         height="2.8225"
         ry="0.039999999"
         fill="currentColor"
         id="rect248" />
    </g>
  </g>
  <g
     color="#000000"
     id="g258"
     transform="translate(-2.27615,-3.2793427)">
    <g
       transform="translate(64.9384,7.9725)"
       id="g256">
      <rect
         x="-0.061700001"
         y="-0.69749999"
         width="0.1233"
         height="2.8225"
         ry="0.039999999"
         fill="currentColor"
         id="rect254" />
    </g>
  </g>
  <g
     color="#000000"
     id="g266"
     transform="translate(-2.27615,-3.2793427)">
    <a
       style="color:inherit"
       xlink:href="textedit:///Users/tomsegarra/Documents/dev/dummies/lilypond_files/5b00250dd40ef304a6cb8148dff28b0d.ly:39:10:11"
       id="a264">
      <g
         transform="translate(64.8767,7.1225)"
         id="g262">
        <path
           transform="scale(0.0034,-0.0034)"
           d="m 215,137 c 67,0 111,-37 111,-92 0,-90 -111,-182 -215,-182 -67,0 -111,37 -111,92 0,90 111,182 215,182 z"
           fill="currentColor"
           id="path260" />
      </g>
    </a>
  </g>
  <a
     style="color:inherit"
     xlink:href="textedit:///Users/tomsegarra/Documents/dev/dummies/lilypond_files/5b00250dd40ef304a6cb8148dff28b0d.ly:19:19:20"
     id="a274"
     transform="translate(-2.27615,-3.2793427)">
    <g
       transform="translate(42.0757,4.9225)"
       id="g272">
      <text
         font-family="sans-serif"
         font-size="2.224px"
         text-anchor="start"
         fill="currentColor"
         id="text270"><tspan
           id="tspan268">C</tspan></text>
    </g>
  </a>
  <g
     color="#000000"
     id="g282"
     transform="translate(-2.27615,-3.2793427)">
    <a
       style="color:inherit"
       xlink:href="textedit:///Users/tomsegarra/Documents/dev/dummies/lilypond_files/5b00250dd40ef304a6cb8148dff28b0d.ly:31:24:25"
       id="a280">
      <g
         transform="translate(42.0757,8.8225)"
         id="g278">
        <path
           transform="scale(0.0034,-0.0034)"
           d="m 215,137 c 67,0 111,-37 111,-92 0,-90 -111,-182 -215,-182 -67,0 -111,37 -111,92 0,90 111,182 215,182 z"
           fill="currentColor"
           id="path276" />
      </g>
    </a>
  </g>
  <g
     transform="translate(41.28605,5.1181573)"
     id="g286">
    <path
       transform="scale(0.0034,-0.0034)"
       d="M 0,0 C 0,31 25,56 56,56 87,56 111,31 111,0 111,-31 87,-56 56,-56 25,-56 0,-31 0,0 Z"
       fill="currentColor"
       id="path284" />
  </g>
  <g
     color="#000000"
     id="g292"
     transform="translate(-2.27615,-3.2793427)">
    <g
       transform="translate(43.1215,7.9725)"
       id="g290">
      <rect
         x="-0.061700001"
         y="-2.125"
         width="0.1233"
         height="2.8225"
         ry="0.039999999"
         fill="currentColor"
         id="rect288" />
    </g>
  </g>
  <g
     color="#ff0000"
     id="g298"
     transform="translate(-2.27615,-3.2793427)">
    <g
       transform="translate(17.3227,9.8291)"
       id="g296">
      <polygon
         stroke-linejoin="round"
         stroke-linecap="round"
         stroke-width="0.08"
         fill="currentColor"
         stroke="currentColor"
         points="0.04,0.164 0.04,-0.164 2.3907,-0.4771 2.3907,-0.1491 "
         id="polygon294" />
    </g>
  </g>
  <g
     color="#ff0000"
     id="g306"
     transform="translate(-2.27615,-3.2793427)">
    <a
       style="color:inherit"
       xlink:href="textedit:///Users/tomsegarra/Documents/dev/dummies/lilypond_files/5b00250dd40ef304a6cb8148dff28b0d.ly:35:4:5"
       id="a304">
      <g
         transform="translate(46.4481,7.5475)"
         id="g302">
        <path
           transform="scale(0.0034,-0.0034)"
           d="m 215,137 c 67,0 111,-37 111,-92 0,-90 -111,-182 -215,-182 -67,0 -111,37 -111,92 0,90 111,182 215,182 z"
           fill="currentColor"
           id="path300" />
      </g>
    </a>
  </g>
  <g
     color="#ff0000"
     id="g312"
     transform="translate(-2.27615,-3.2793427)">
    <g
       transform="translate(46.5098,7.9725)"
       id="g310">
      <rect
         x="-0.061700001"
         y="-0.27250001"
         width="0.1233"
         height="2.8225"
         ry="0.039999999"
         fill="currentColor"
         id="rect308" />
    </g>
  </g>
  <g
     color="#ff0000"
     id="g318"
     transform="translate(-2.27615,-3.2793427)">
    <g
       transform="translate(46.5714,10.4825)"
       id="g316">
      <path
         transform="scale(0.0034,-0.0034)"
         d="M 0,0 H -18 V 250 H 0 Z m 0,0 v 250 c 96,59 222,149 222,259 0,57 -15,111 -40,162 -3,17 10,29 24,29 8,0 16,-5 21,-13 25,-56 40,-116 40,-178 C 267,306 0,203 0,0 Z"
         fill="currentColor"
         id="path314" />
    </g>
  </g>
  <g
     color="#ff0000"
     id="g326"
     transform="translate(-2.27615,-3.2793427)">
    <a
       style="color:inherit"
       xlink:href="textedit:///Users/tomsegarra/Documents/dev/dummies/lilypond_files/5b00250dd40ef304a6cb8148dff28b0d.ly:35:7:8"
       id="a324">
      <g
         transform="translate(48.7555,7.1225)"
         id="g322">
        <path
           transform="scale(0.0034,-0.0034)"
           d="m 215,137 c 67,0 111,-37 111,-92 0,-90 -111,-182 -215,-182 -67,0 -111,37 -111,92 0,90 111,182 215,182 z"
           fill="currentColor"
           id="path320" />
      </g>
    </a>
  </g>
  <g
     color="#ff0000"
     id="g332"
     transform="translate(-2.27615,-3.2793427)">
    <g
       transform="translate(48.8172,7.9725)"
       id="g330">
      <rect
         x="-0.061700001"
         y="-0.69749999"
         width="0.1233"
         height="2.5462"
         ry="0.039999999"
         fill="currentColor"
         id="rect328" />
    </g>
  </g>
  <g
     color="#000000"
     id="g338"
     transform="translate(-2.27615,-3.2793427)">
    <g
       transform="translate(61.431,7.9725)"
       id="g336">
      <rect
         x="-0.061700001"
         y="-0.27250001"
         width="0.1233"
         height="2.8225"
         ry="0.039999999"
         fill="currentColor"
         id="rect334" />
    </g>
  </g>
  <g
     color="#000000"
     id="g346"
     transform="translate(-2.27615,-3.2793427)">
    <a
       style="color:inherit"
       xlink:href="textedit:///Users/tomsegarra/Documents/dev/dummies/lilypond_files/5b00250dd40ef304a6cb8148dff28b0d.ly:39:8:9"
       id="a344">
      <g
         transform="translate(61.3694,7.5475)"
         id="g342">
        <path
           transform="scale(0.0034,-0.0034)"
           d="m 215,137 c 67,0 111,-37 111,-92 0,-90 -111,-182 -215,-182 -67,0 -111,37 -111,92 0,90 111,182 215,182 z"
           fill="currentColor"
           id="path340" />
      </g>
    </a>
  </g>
  <g
     color="#ff0000"
     id="g354"
     transform="translate(-2.27615,-3.2793427)">
    <a
       style="color:inherit"
       xlink:href="textedit:///Users/tomsegarra/Documents/dev/dummies/lilypond_files/5b00250dd40ef304a6cb8148dff28b0d.ly:35:9:10"
       id="a352">
      <g
         transform="translate(51.0629,6.6975)"
         id="g350">
        <path
           transform="scale(0.0034,-0.0034)"
           d="m 215,137 c 67,0 111,-37 111,-92 0,-90 -111,-182 -215,-182 -67,0 -111,37 -111,92 0,90 111,182 215,182 z"
           fill="currentColor"
           id="path348" />
      </g>
    </a>
  </g>
  <g
     color="#ff0000"
     id="g360"
     transform="translate(-2.27615,-3.2793427)">
    <g
       transform="translate(51.1245,7.9725)"
       id="g358">
      <rect
         x="-0.061700001"
         y="-1.1224999"
         width="0.1233"
         height="2.6738999"
         ry="0.039999999"
         fill="currentColor"
         id="rect356" />
    </g>
  </g>
  <g
     color="#ff0000"
     id="g368"
     transform="translate(-2.27615,-3.2793427)">
    <a
       style="color:inherit"
       xlink:href="textedit:///Users/tomsegarra/Documents/dev/dummies/lilypond_files/5b00250dd40ef304a6cb8148dff28b0d.ly:35:13:14"
       id="a366">
      <g
         transform="translate(53.3703,7.1225)"
         id="g364">
        <path
           transform="scale(0.0034,-0.0034)"
           d="m 215,137 c 67,0 111,-37 111,-92 0,-90 -111,-182 -215,-182 -67,0 -111,37 -111,92 0,90 111,182 215,182 z"
           fill="currentColor"
           id="path362" />
      </g>
    </a>
  </g>
  <g
     color="#ff0000"
     id="g374"
     transform="translate(-2.27615,-3.2793427)">
    <g
       transform="translate(53.4319,7.9725)"
       id="g372">
      <rect
         x="-0.061700001"
         y="-0.69749999"
         width="0.1233"
         height="2.8225"
         ry="0.039999999"
         fill="currentColor"
         id="rect370" />
    </g>
  </g>
  <a
     style="color:inherit"
     xlink:href="textedit:///Users/tomsegarra/Documents/dev/dummies/lilypond_files/5b00250dd40ef304a6cb8148dff28b0d.ly:19:21:22"
     id="a382"
     transform="translate(-2.27615,-3.2793427)">
    <g
       transform="translate(57.862,4.9225)"
       id="g380">
      <text
         font-family="sans-serif"
         font-size="2.224px"
         text-anchor="start"
         fill="currentColor"
         id="text378"><tspan
           id="tspan376">G</tspan></text>
    </g>
  </a>
  <g
     color="#000000"
     id="g390"
     transform="translate(-2.27615,-3.2793427)">
    <a
       style="color:inherit"
       xlink:href="textedit:///Users/tomsegarra/Documents/dev/dummies/lilypond_files/5b00250dd40ef304a6cb8148dff28b0d.ly:39:4:5"
       id="a388">
      <g
         transform="translate(57.862,7.9725)"
         id="g386">
        <path
           transform="scale(0.0034,-0.0034)"
           d="m 215,137 c 67,0 111,-37 111,-92 0,-90 -111,-182 -215,-182 -67,0 -111,37 -111,92 0,90 111,182 215,182 z"
           fill="currentColor"
           id="path384" />
      </g>
    </a>
  </g>
  <g
     color="#000000"
     id="g396"
     transform="translate(-2.27615,-3.2793427)">
    <g
       transform="translate(57.9236,7.9725)"
       id="g394">
      <rect
         x="-0.061700001"
         y="0.1525"
         width="0.1233"
         height="2.6809001"
         ry="0.039999999"
         fill="currentColor"
         id="rect392" />
    </g>
  </g>
</svg>
