<?xml version="1.0" encoding="UTF-8" standalone="no"?>
<svg
   version="1.2"
   width="117.14601mm"
   height="21.734224mm"
   viewBox="0 0 66.660432 12.367974"
   id="svg430"
   sodipodi:docname="5ccc866e48dfa067248af36c3bbe3bc6.svg"
   xmlns:inkscape="http://www.inkscape.org/namespaces/inkscape"
   xmlns:sodipodi="http://sodipodi.sourceforge.net/DTD/sodipodi-0.dtd"
   xmlns:xlink="http://www.w3.org/1999/xlink"
   xmlns="http://www.w3.org/2000/svg"
   xmlns:svg="http://www.w3.org/2000/svg">
  <defs
     id="defs434" />
  <sodipodi:namedview
     id="namedview432"
     pagecolor="#ffffff"
     bordercolor="#000000"
     borderopacity="0.25"
     inkscape:showpageshadow="2"
     inkscape:pageopacity="0.0"
     inkscape:pagecheckerboard="0"
     inkscape:deskcolor="#d1d1d1"
     inkscape:document-units="mm" />
  <style
     type="text/css"
     id="style2"><![CDATA[
tspan { white-space: pre; }
]]></style>
  <!-- Page: 1/1 -->
  <g
     transform="translate(-0.00118129,1.6416)"
     id="g6">
    <rect
       x="62.927601"
       y="-0.086599998"
       width="1.561"
       height="0.17309999"
       ry="0.086599998"
       fill="currentColor"
       id="rect4" />
  </g>
  <g
     transform="translate(-0.00118129,2.4416)"
     id="g10">
    <rect
       x="62.927601"
       y="-0.086599998"
       width="1.561"
       height="0.17309999"
       ry="0.086599998"
       fill="currentColor"
       id="rect8" />
  </g>
  <g
     transform="translate(-0.00118129,3.2416)"
     id="g14">
    <rect
       x="62.927601"
       y="-0.086599998"
       width="1.561"
       height="0.17309999"
       ry="0.086599998"
       fill="currentColor"
       id="rect12" />
  </g>
  <g
     transform="translate(-0.00118129,4.0416)"
     id="g18">
    <rect
       x="62.927601"
       y="-0.086599998"
       width="1.561"
       height="0.17309999"
       ry="0.086599998"
       fill="currentColor"
       id="rect16" />
  </g>
  <g
     transform="translate(-0.00118129,1.6416)"
     id="g22">
    <rect
       x="60.686901"
       y="-0.086599998"
       width="1.561"
       height="0.17309999"
       ry="0.086599998"
       fill="currentColor"
       id="rect20" />
  </g>
  <g
     transform="translate(-0.00118129,2.4416)"
     id="g26">
    <rect
       x="60.686901"
       y="-0.086599998"
       width="1.561"
       height="0.17309999"
       ry="0.086599998"
       fill="currentColor"
       id="rect24" />
  </g>
  <g
     transform="translate(-0.00118129,3.2416)"
     id="g30">
    <rect
       x="60.686901"
       y="-0.086599998"
       width="1.561"
       height="0.17309999"
       ry="0.086599998"
       fill="currentColor"
       id="rect28" />
  </g>
  <g
     transform="translate(-0.00118129,4.0416)"
     id="g34">
    <rect
       x="60.686901"
       y="-0.086599998"
       width="1.561"
       height="0.17309999"
       ry="0.086599998"
       fill="currentColor"
       id="rect32" />
  </g>
  <g
     transform="translate(-0.00118129,0.8416)"
     id="g38">
    <rect
       x="58.446201"
       y="-0.086599998"
       width="1.561"
       height="0.17309999"
       ry="0.086599998"
       fill="currentColor"
       id="rect36" />
  </g>
  <g
     transform="translate(-0.00118129,1.6416)"
     id="g42">
    <rect
       x="58.446201"
       y="-0.086599998"
       width="1.561"
       height="0.17309999"
       ry="0.086599998"
       fill="currentColor"
       id="rect40" />
  </g>
  <g
     transform="translate(-0.00118129,2.4416)"
     id="g46">
    <rect
       x="58.446201"
       y="-0.086599998"
       width="1.561"
       height="0.17309999"
       ry="0.086599998"
       fill="currentColor"
       id="rect44" />
  </g>
  <g
     transform="translate(-0.00118129,3.2416)"
     id="g50">
    <rect
       x="58.446201"
       y="-0.086599998"
       width="1.561"
       height="0.17309999"
       ry="0.086599998"
       fill="currentColor"
       id="rect48" />
  </g>
  <g
     transform="translate(-0.00118129,4.0416)"
     id="g54">
    <rect
       x="58.446201"
       y="-0.086599998"
       width="1.561"
       height="0.17309999"
       ry="0.086599998"
       fill="currentColor"
       id="rect52" />
  </g>
  <g
     transform="translate(-0.00118129,0.8416)"
     id="g58">
    <rect
       x="54.581902"
       y="-0.086599998"
       width="1.561"
       height="0.17309999"
       ry="0.086599998"
       fill="currentColor"
       id="rect56" />
  </g>
  <g
     transform="translate(-0.00118129,1.6416)"
     id="g62">
    <rect
       x="54.581902"
       y="-0.086599998"
       width="1.561"
       height="0.17309999"
       ry="0.086599998"
       fill="currentColor"
       id="rect60" />
  </g>
  <g
     transform="translate(-0.00118129,2.4416)"
     id="g66">
    <rect
       x="54.581902"
       y="-0.086599998"
       width="1.561"
       height="0.17309999"
       ry="0.086599998"
       fill="currentColor"
       id="rect64" />
  </g>
  <g
     transform="translate(-0.00118129,3.2416)"
     id="g70">
    <rect
       x="54.581902"
       y="-0.086599998"
       width="1.561"
       height="0.17309999"
       ry="0.086599998"
       fill="currentColor"
       id="rect68" />
  </g>
  <g
     transform="translate(-0.00118129,4.0416)"
     id="g74">
    <rect
       x="54.581902"
       y="-0.086599998"
       width="1.561"
       height="0.17309999"
       ry="0.086599998"
       fill="currentColor"
       id="rect72" />
  </g>
  <g
     transform="translate(-0.00118129,8.0416)"
     id="g78">
    <line
       stroke-linejoin="round"
       stroke-linecap="round"
       stroke-width="0.0931"
       stroke="currentColor"
       x1="0.046599999"
       y1="0"
       x2="66.615997"
       y2="0"
       id="line76" />
  </g>
  <g
     transform="translate(-0.00118129,7.2416)"
     id="g82">
    <line
       stroke-linejoin="round"
       stroke-linecap="round"
       stroke-width="0.0931"
       stroke="currentColor"
       x1="0.046599999"
       y1="0"
       x2="66.615997"
       y2="0"
       id="line80" />
  </g>
  <g
     transform="translate(-0.00118129,6.4416)"
     id="g86">
    <line
       stroke-linejoin="round"
       stroke-linecap="round"
       stroke-width="0.0931"
       stroke="currentColor"
       x1="0.046599999"
       y1="0"
       x2="66.615997"
       y2="0"
       id="line84" />
  </g>
  <g
     transform="translate(-0.00118129,5.6416)"
     id="g90">
    <line
       stroke-linejoin="round"
       stroke-linecap="round"
       stroke-width="0.0931"
       stroke="currentColor"
       x1="0.046599999"
       y1="0"
       x2="66.615997"
       y2="0"
       id="line88" />
  </g>
  <g
     transform="translate(-0.00118129,4.8416)"
     id="g94">
    <line
       stroke-linejoin="round"
       stroke-linecap="round"
       stroke-width="0.0931"
       stroke="currentColor"
       x1="0.046599999"
       y1="0"
       x2="66.615997"
       y2="0"
       id="line92" />
  </g>
  <g
     transform="translate(25.368219,6.4416)"
     id="g98">
    <rect
       x="0"
       y="-1.6"
       width="0.177"
       height="3.2"
       ry="0.0000"
       fill="currentColor"
       id="rect96" />
  </g>
  <g
     transform="translate(66.484419,6.4416)"
     id="g102">
    <rect
       x="0"
       y="-1.6"
       width="0.177"
       height="3.2"
       ry="0.0000"
       fill="currentColor"
       id="rect100" />
  </g>
  <g
     transform="translate(50.603919,6.4416)"
     id="g106">
    <rect
       x="0"
       y="-1.6"
       width="0.177"
       height="3.2"
       ry="0.0000"
       fill="currentColor"
       id="rect104" />
  </g>
  <g
     transform="translate(42.527019,6.4416)"
     id="g110">
    <rect
       x="0"
       y="-1.6"
       width="0.177"
       height="3.2"
       ry="0.0000"
       fill="currentColor"
       id="rect108" />
  </g>
  <a
     style="color:inherit"
     xlink:href="textedit:///Users/tomsegarra/Documents/dev/dummies/lilypond_files/5ccc866e48dfa067248af36c3bbe3bc6.ly:22:25:33"
     id="a116"
     transform="translate(-2.2773813,-3.2768)">
    <g
       transform="translate(35.5739,8.9184)"
       id="g114">
      <path
         transform="scale(0.0032,-0.0032)"
         d="m 212,138 c 68,0 113,-38 113,-95 0,-90 -109,-181 -212,-181 -68,0 -113,38 -113,95 0,90 109,181 212,181 z"
         fill="currentColor"
         id="path112" />
    </g>
  </a>
  <a
     style="color:inherit"
     xlink:href="textedit:///Users/tomsegarra/Documents/dev/dummies/lilypond_files/5ccc866e48dfa067248af36c3bbe3bc6.ly:22:1:9"
     id="a122"
     transform="translate(-2.2773813,-3.2768)">
    <g
       transform="translate(13.7126,8.5184)"
       id="g120">
      <path
         transform="scale(0.0032,-0.0032)"
         d="m 212,138 c 68,0 113,-38 113,-95 0,-90 -109,-181 -212,-181 -68,0 -113,38 -113,95 0,90 109,181 212,181 z"
         fill="currentColor"
         id="path118" />
    </g>
  </a>
  <g
     transform="translate(0.79881871,7.2416)"
     id="g126">
    <path
       transform="scale(0.0032,-0.0032)"
       d="m 647,2 c 0,-114 -75,-214 -180,-248 3,-33 4,-66 4,-99 0,-21 0,-41 -1,-62 -7,-122 -92,-229 -211,-229 -108,0 -196,88 -196,197 0,58 54,103 113,103 54,0 95,-47 95,-103 0,-52 -43,-95 -95,-95 -9,0 -18,1 -27,4 25,-37 66,-61 113,-61 93,0 156,91 162,191 1,19 2,38 2,57 0,29 -1,58 -3,87 -5,-1 -44,-8 -88,-8 -194,0 -333,181 -333,376 0,177 129,308 244,443 -34,103 -55,171 -55,347 0,114 54,221 147,288 8,6 18,5 25,-1 68,-79 135,-242 135,-356 0,-142 -84,-255 -176,-364 21,-68 40,-136 57,-205 1,0 5,1 10,1 C 546,265 647,136 647,2 Z M 463,-201 c 64,24 110,88 110,161 0,88 -64,175 -167,188 28,-133 49,-269 57,-349 z M 77,25 c 0,-144 141,-243 261,-243 1,0 46,-1 81,5 -7,66 -27,208 -60,362 -79,-8 -124,-60 -124,-118 0,-43 25,-88 80,-120 5,-5 7,-11 7,-17 0,-12 -10,-23 -23,-23 -16,0 -128,62 -128,188 0,89 60,177 163,200 -14,57 -30,113 -47,169 C 182,306 77,185 77,25 Z M 403,1038 C 304,992 242,893 242,784 c 0,-39 10,-95 39,-188 78,97 142,199 142,324 0,33 0,61 -20,118 z"
       fill="currentColor"
       id="path124" />
  </g>
  <a
     style="color:inherit"
     xlink:href="textedit:///Users/tomsegarra/Documents/dev/dummies/lilypond_files/5ccc866e48dfa067248af36c3bbe3bc6.ly:21:1:9"
     id="a140"
     transform="translate(-2.2773813,-3.2768)">
    <g
       transform="translate(6.5762,8.1184)"
       id="g130">
      <path
         transform="scale(0.0032,-0.0032)"
         d="m 198,-329 c -12,0 -21,9 -21,21 v 138 l -79,-30 v -154 c 0,-12 -9,-21 -21,-21 -12,0 -21,9 -21,21 v 138 l -22,-8 c -3,-1 -6,-2 -9,-2 -13,0 -25,11 -25,25 v 54 c 0,10 6,20 16,24 l 40,15 V 47 L 34,38 C 31,37 28,37 25,37 12,37 0,48 0,62 v 54 c 0,10 6,19 16,23 l 40,15 v 154 c 0,12 9,21 21,21 12,0 21,-9 21,-21 V 170 l 79,30 v 154 c 0,12 9,21 21,21 12,0 21,-9 21,-21 V 216 l 22,8 c 3,1 6,2 9,2 13,0 25,-11 25,-25 v -54 c 0,-10 -6,-20 -16,-24 L 219,108 V -47 l 22,9 c 3,1 6,1 9,1 13,0 25,-11 25,-25 v -54 c 0,-10 -6,-19 -16,-23 l -40,-15 v -154 c 0,-12 -9,-21 -21,-21 z M 98,62 V -92 l 79,30 V 92 Z"
         fill="currentColor"
         id="path128" />
    </g>
    <g
       transform="translate(7.4562,9.3184)"
       id="g134">
      <path
         transform="scale(0.0032,-0.0032)"
         d="m 198,-329 c -12,0 -21,9 -21,21 v 138 l -79,-30 v -154 c 0,-12 -9,-21 -21,-21 -12,0 -21,9 -21,21 v 138 l -22,-8 c -3,-1 -6,-2 -9,-2 -13,0 -25,11 -25,25 v 54 c 0,10 6,20 16,24 l 40,15 V 47 L 34,38 C 31,37 28,37 25,37 12,37 0,48 0,62 v 54 c 0,10 6,19 16,23 l 40,15 v 154 c 0,12 9,21 21,21 12,0 21,-9 21,-21 V 170 l 79,30 v 154 c 0,12 9,21 21,21 12,0 21,-9 21,-21 V 216 l 22,8 c 3,1 6,2 9,2 13,0 25,-11 25,-25 v -54 c 0,-10 -6,-20 -16,-24 L 219,108 V -47 l 22,9 c 3,1 6,1 9,1 13,0 25,-11 25,-25 v -54 c 0,-10 -6,-19 -16,-23 l -40,-15 v -154 c 0,-12 -9,-21 -21,-21 z M 98,62 V -92 l 79,30 V 92 Z"
         fill="currentColor"
         id="path132" />
    </g>
    <g
       transform="translate(8.3362,7.7184)"
       id="g138">
      <path
         transform="scale(0.0032,-0.0032)"
         d="m 198,-329 c -12,0 -21,9 -21,21 v 138 l -79,-30 v -154 c 0,-12 -9,-21 -21,-21 -12,0 -21,9 -21,21 v 138 l -22,-8 c -3,-1 -6,-2 -9,-2 -13,0 -25,11 -25,25 v 54 c 0,10 6,20 16,24 l 40,15 V 47 L 34,38 C 31,37 28,37 25,37 12,37 0,48 0,62 v 54 c 0,10 6,19 16,23 l 40,15 v 154 c 0,12 9,21 21,21 12,0 21,-9 21,-21 V 170 l 79,30 v 154 c 0,12 9,21 21,21 12,0 21,-9 21,-21 V 216 l 22,8 c 3,1 6,2 9,2 13,0 25,-11 25,-25 v -54 c 0,-10 -6,-20 -16,-24 L 219,108 V -47 l 22,9 c 3,1 6,1 9,1 13,0 25,-11 25,-25 v -54 c 0,-10 -6,-19 -16,-23 l -40,-15 v -154 c 0,-12 -9,-21 -21,-21 z M 98,62 V -92 l 79,30 V 92 Z"
         fill="currentColor"
         id="path136" />
    </g>
  </a>
  <g
     transform="translate(8.0888187,6.4416)"
     id="g144">
    <path
       transform="scale(0.0032,-0.0032)"
       d="m 250,265 c 114,0 172,-112 172,-166 0,-38 -30,-69 -66,-69 -30,0 -72,23 -72,72 0,37 26,75 70,75 3,0 6,-1 9,-1 -26,36 -67,59 -113,59 -107,0 -113,-74 -113,-189 0,-15 1,-30 1,-46 0,-16 -1,-31 -1,-46 0,-115 6,-189 113,-189 78,0 133,70 151,149 2,8 8,11 14,11 7,0 15,-5 15,-14 0,-21 -49,-176 -180,-176 C 105,-265 0,-177 0,0 0,63 18,265 250,265 Z"
       fill="currentColor"
       id="path142" />
  </g>
  <a
     style="color:inherit"
     xlink:href="textedit:///Users/tomsegarra/Documents/dev/dummies/lilypond_files/5ccc866e48dfa067248af36c3bbe3bc6.ly:25:4:5"
     id="a152"
     transform="translate(-2.2773813,-3.2768)">
    <g
       transform="translate(13.1915,15.2184)"
       id="g150">
      <text
         font-family="serif"
         font-size="1.9756px"
         text-anchor="start"
         fill="currentColor"
         id="text148"><tspan
           id="tspan146">I'll</tspan></text>
    </g>
  </a>
  <g
     transform="translate(11.495719,6.4416)"
     id="g156">
    <rect
       x="-0.0605"
       y="-1.0628999"
       width="0.1211"
       height="2.6629"
       ry="0.039999999"
       fill="currentColor"
       id="rect154" />
  </g>
  <a
     style="color:inherit"
     xlink:href="textedit:///Users/tomsegarra/Documents/dev/dummies/lilypond_files/5ccc866e48dfa067248af36c3bbe3bc6.ly:22:21:29"
     id="a162"
     transform="translate(-2.2773813,-3.2768)">
    <g
       transform="translate(33.3332,9.3184)"
       id="g160">
      <path
         transform="scale(0.0032,-0.0032)"
         d="m 212,138 c 68,0 113,-38 113,-95 0,-90 -109,-181 -212,-181 -68,0 -113,38 -113,95 0,90 109,181 212,181 z"
         fill="currentColor"
         id="path158" />
    </g>
  </a>
  <a
     style="color:inherit"
     xlink:href="textedit:///Users/tomsegarra/Documents/dev/dummies/lilypond_files/5ccc866e48dfa067248af36c3bbe3bc6.ly:25:31:32"
     id="a170"
     transform="translate(-2.2773813,-3.2768)">
    <g
       transform="translate(33.0341,15.2184)"
       id="g168">
      <text
         font-family="serif"
         font-size="1.9756px"
         text-anchor="start"
         fill="currentColor"
         id="text166"><tspan
           id="tspan164">lit</tspan></text>
    </g>
  </a>
  <g
     transform="translate(31.116419,6.4416)"
     id="g174">
    <rect
       x="-0.0605"
       y="-0.26289999"
       width="0.1211"
       height="2.0084"
       ry="0.039999999"
       fill="currentColor"
       id="rect172" />
  </g>
  <a
     style="color:inherit"
     xlink:href="textedit:///Users/tomsegarra/Documents/dev/dummies/lilypond_files/5ccc866e48dfa067248af36c3bbe3bc6.ly:25:38:39"
     id="a182"
     transform="translate(-2.2773813,-3.2768)">
    <g
       transform="translate(35.1041,15.2184)"
       id="g180">
      <text
         font-family="serif"
         font-size="1.9756px"
         text-anchor="start"
         fill="currentColor"
         id="text178"><tspan
           id="tspan176">tle</tspan></text>
    </g>
  </a>
  <g
     transform="translate(33.357119,6.4416)"
     id="g186">
    <rect
       x="-0.0605"
       y="-0.66289997"
       width="0.1211"
       height="2.4084001"
       ry="0.039999999"
       fill="currentColor"
       id="rect184" />
  </g>
  <a
     style="color:inherit"
     xlink:href="textedit:///Users/tomsegarra/Documents/dev/dummies/lilypond_files/5ccc866e48dfa067248af36c3bbe3bc6.ly:25:25:26"
     id="a192"
     transform="translate(-2.2773813,-3.2768)">
    <g
       transform="translate(30.5048,15.2184)"
       id="g190">
      <rect
         x="0"
         y="-0.54110003"
         width="0.30000001"
         height="0.1211"
         ry="0.037300002"
         fill="currentColor"
         id="rect188" />
    </g>
  </a>
  <a
     style="color:inherit"
     xlink:href="textedit:///Users/tomsegarra/Documents/dev/dummies/lilypond_files/5ccc866e48dfa067248af36c3bbe3bc6.ly:22:27:35"
     id="a198"
     transform="translate(-2.2773813,-3.2768)">
    <g
       transform="translate(37.8506,9.3184)"
       id="g196">
      <path
         transform="scale(0.0032,-0.0032)"
         d="m 212,138 c 68,0 113,-38 113,-95 0,-90 -109,-181 -212,-181 -68,0 -113,38 -113,95 0,90 109,181 212,181 z"
         fill="currentColor"
         id="path194" />
    </g>
  </a>
  <a
     style="color:inherit"
     xlink:href="textedit:///Users/tomsegarra/Documents/dev/dummies/lilypond_files/5ccc866e48dfa067248af36c3bbe3bc6.ly:25:42:43"
     id="a206"
     transform="translate(-2.2773813,-3.2768)">
    <g
       transform="translate(37.5344,15.2184)"
       id="g204">
      <text
         font-family="serif"
         font-size="1.9756px"
         text-anchor="start"
         fill="currentColor"
         id="text202"><tspan
           id="tspan200">se</tspan></text>
    </g>
  </a>
  <g
     transform="translate(35.633719,6.4416)"
     id="g210">
    <rect
       x="-0.0605"
       y="-0.26289999"
       width="0.1211"
       height="2.6629"
       ry="0.039999999"
       fill="currentColor"
       id="rect208" />
  </g>
  <a
     style="color:inherit"
     xlink:href="textedit:///Users/tomsegarra/Documents/dev/dummies/lilypond_files/5ccc866e48dfa067248af36c3bbe3bc6.ly:22:32:40"
     id="a216"
     transform="translate(-2.2773813,-3.2768)">
    <g
       transform="translate(41.1973,10.1184)"
       id="g214">
      <path
         transform="scale(0.0032,-0.0032)"
         d="m 212,138 c 68,0 113,-38 113,-95 0,-90 -109,-181 -212,-181 -68,0 -113,38 -113,95 0,90 109,181 212,181 z"
         fill="currentColor"
         id="path212" />
    </g>
  </a>
  <a
     style="color:inherit"
     xlink:href="textedit:///Users/tomsegarra/Documents/dev/dummies/lilypond_files/5ccc866e48dfa067248af36c3bbe3bc6.ly:25:48:49"
     id="a224"
     transform="translate(-2.2773813,-3.2768)">
    <g
       transform="translate(40.2325,15.2184)"
       id="g222">
      <text
         font-family="serif"
         font-size="1.9756px"
         text-anchor="start"
         fill="currentColor"
         id="text220"><tspan
           id="tspan218">cret</tspan></text>
    </g>
  </a>
  <g
     transform="translate(39.900119,6.4416)"
     id="g228">
    <rect
       x="-0.0605"
       y="-2.4000001"
       width="0.1211"
       height="2.6629"
       ry="0.039999999"
       fill="currentColor"
       id="rect226" />
  </g>
  <a
     style="color:inherit"
     xlink:href="textedit:///Users/tomsegarra/Documents/dev/dummies/lilypond_files/5ccc866e48dfa067248af36c3bbe3bc6.ly:25:35:36"
     id="a234"
     transform="translate(-2.2773813,-3.2768)">
    <g
       transform="translate(34.7386,15.2184)"
       id="g232">
      <rect
         x="0"
         y="-0.54110003"
         width="0.30000001"
         height="0.1211"
         ry="0.037300002"
         fill="currentColor"
         id="rect230" />
    </g>
  </a>
  <a
     style="color:inherit"
     xlink:href="textedit:///Users/tomsegarra/Documents/dev/dummies/lilypond_files/5ccc866e48dfa067248af36c3bbe3bc6.ly:22:34:42"
     id="a240"
     transform="translate(-2.2773813,-3.2768)">
    <g
       transform="translate(46.8813,8.9184)"
       id="g238">
      <path
         transform="scale(0.0032,-0.0032)"
         d="M 362,-156 H 13 c -7,0 -13,5 -13,12 V -13 C 0,-6 6,0 13,0 h 349 c 7,0 13,-6 13,-13 v -131 c 0,-7 -6,-12 -13,-12 z"
         fill="currentColor"
         id="path236" />
    </g>
  </a>
  <a
     style="color:inherit"
     xlink:href="textedit:///Users/tomsegarra/Documents/dev/dummies/lilypond_files/5ccc866e48dfa067248af36c3bbe3bc6.ly:25:45:46"
     id="a246"
     transform="translate(-2.2773813,-3.2768)">
    <g
       transform="translate(39.3899,15.2184)"
       id="g244">
      <rect
         x="0"
         y="-0.54110003"
         width="0.66000003"
         height="0.1211"
         ry="0.037300002"
         fill="currentColor"
         id="rect242" />
    </g>
  </a>
  <g
     transform="translate(26.574519,8.187)"
     id="g250">
    <polygon
       stroke-linejoin="round"
       stroke-linecap="round"
       stroke-width="0.08"
       fill="currentColor"
       stroke="currentColor"
       points="0.04,0.152 0.04,-0.152 6.8031,-0.152 6.8031,0.152 "
       id="polygon248" />
  </g>
  <a
     style="color:inherit"
     xlink:href="textedit:///Users/tomsegarra/Documents/dev/dummies/lilypond_files/5ccc866e48dfa067248af36c3bbe3bc6.ly:22:37:45"
     id="a256"
     transform="translate(-2.2773813,-3.2768)">
    <g
       transform="translate(53.9583,9.7184)"
       id="g254">
      <path
         transform="scale(0.0032,-0.0032)"
         d="m -9,78 c 0,59 124,84 124,182 0,25 -9,50 -26,70 l -31,37 c -3,4 -4,8 -4,12 0,10 9,18 19,18 5,0 9,-1 13,-6 L 235,213 c 7,-9 11,-17 11,-26 0,-59 -124,-84 -124,-182 0,-25 9,-51 26,-71 l 79,-94 c 3,-4 4,-8 4,-12 0,-10 -9,-18 -19,-18 -11,0 -38,40 -102,40 -23,0 -55,-4 -55,-65 0,-33 11,-73 27,-92 8,-9 -6,-20 -14,-11 -44,53 -92,145 -92,199 0,41 26,43 46,43 30,0 69,-9 106,-23 L 2,52 C -5,61 -9,69 -9,78 Z"
         fill="currentColor"
         id="path252" />
    </g>
  </a>
  <a
     style="color:inherit"
     xlink:href="textedit:///Users/tomsegarra/Documents/dev/dummies/lilypond_files/5ccc866e48dfa067248af36c3bbe3bc6.ly:22:40:48"
     id="a262"
     transform="translate(-2.2773813,-3.2768)">
    <g
       transform="translate(57.1183,3.7184)"
       id="g260">
      <path
         transform="scale(0.0032,-0.0032)"
         d="m 212,138 c 68,0 113,-38 113,-95 0,-90 -109,-181 -212,-181 -68,0 -113,38 -113,95 0,90 109,181 212,181 z"
         fill="currentColor"
         id="path258" />
    </g>
  </a>
  <a
     style="color:inherit"
     xlink:href="textedit:///Users/tomsegarra/Documents/dev/dummies/lilypond_files/5ccc866e48dfa067248af36c3bbe3bc6.ly:25:53:54"
     id="a270"
     transform="translate(-2.2773813,-3.2768)">
    <g
       transform="translate(55.4876,15.2184)"
       id="g268">
      <text
         font-family="serif"
         font-size="1.9756px"
         text-anchor="start"
         fill="currentColor"
         id="text266"><tspan
           id="tspan264">Don't</tspan></text>
    </g>
  </a>
  <g
     transform="translate(54.901419,6.4416)"
     id="g274">
    <rect
       x="-0.0605"
       y="-5.8628998"
       width="0.1211"
       height="5.8628998"
       ry="0.039999999"
       fill="currentColor"
       id="rect272" />
  </g>
  <a
     style="color:inherit"
     xlink:href="textedit:///Users/tomsegarra/Documents/dev/dummies/lilypond_files/5ccc866e48dfa067248af36c3bbe3bc6.ly:22:47:55"
     id="a280"
     transform="translate(-2.2773813,-3.2768)">
    <g
       transform="translate(60.9826,4.1184)"
       id="g278">
      <path
         transform="scale(0.0032,-0.0032)"
         d="m 212,138 c 68,0 113,-38 113,-95 0,-90 -109,-181 -212,-181 -68,0 -113,38 -113,95 0,90 109,181 212,181 z"
         fill="currentColor"
         id="path276" />
    </g>
  </a>
  <a
     style="color:inherit"
     xlink:href="textedit:///Users/tomsegarra/Documents/dev/dummies/lilypond_files/5ccc866e48dfa067248af36c3bbe3bc6.ly:25:59:60"
     id="a288"
     transform="translate(-2.2773813,-3.2768)">
    <g
       transform="translate(60.2397,15.2184)"
       id="g286">
      <text
         font-family="serif"
         font-size="1.9756px"
         text-anchor="start"
         fill="currentColor"
         id="text284"><tspan
           id="tspan282">tell</tspan></text>
    </g>
  </a>
  <g
     transform="translate(58.765819,6.4416)"
     id="g292">
    <rect
       x="-0.0605"
       y="-5.4629002"
       width="0.1211"
       height="5.4667001"
       ry="0.039999999"
       fill="currentColor"
       id="rect290" />
  </g>
  <a
     style="color:inherit"
     xlink:href="textedit:///Users/tomsegarra/Documents/dev/dummies/lilypond_files/5ccc866e48dfa067248af36c3bbe3bc6.ly:22:50:58"
     id="a298"
     transform="translate(-2.2773813,-3.2768)">
    <g
       transform="translate(63.2233,4.5184)"
       id="g296">
      <path
         transform="scale(0.0032,-0.0032)"
         d="m 212,138 c 68,0 113,-38 113,-95 0,-90 -109,-181 -212,-181 -68,0 -113,38 -113,95 0,90 109,181 212,181 z"
         fill="currentColor"
         id="path294" />
    </g>
  </a>
  <a
     style="color:inherit"
     xlink:href="textedit:///Users/tomsegarra/Documents/dev/dummies/lilypond_files/5ccc866e48dfa067248af36c3bbe3bc6.ly:25:64:65"
     id="a306"
     transform="translate(-2.2773813,-3.2768)">
    <g
       transform="translate(63.2998,15.2184)"
       id="g304">
      <text
         font-family="serif"
         font-size="1.9756px"
         text-anchor="start"
         fill="currentColor"
         id="text302"><tspan
           id="tspan300">a</tspan></text>
    </g>
  </a>
  <g
     transform="translate(61.006419,6.4416)"
     id="g310">
    <rect
       x="-0.0605"
       y="-5.0629001"
       width="0.1211"
       height="5.2045999"
       ry="0.039999999"
       fill="currentColor"
       id="rect308" />
  </g>
  <a
     style="color:inherit"
     xlink:href="textedit:///Users/tomsegarra/Documents/dev/dummies/lilypond_files/5ccc866e48dfa067248af36c3bbe3bc6.ly:25:66:67"
     id="a316"
     transform="translate(-2.2773813,-3.2768)">
    <g
       transform="translate(64.2608,15.2184)"
       id="g314">
      <rect
         x="0"
         y="-0.54110003"
         width="0.66000003"
         height="0.1211"
         ry="0.037300002"
         fill="currentColor"
         id="rect312" />
    </g>
  </a>
  <a
     style="color:inherit"
     xlink:href="textedit:///Users/tomsegarra/Documents/dev/dummies/lilypond_files/5ccc866e48dfa067248af36c3bbe3bc6.ly:22:52:60"
     id="a322"
     transform="translate(-2.2773813,-3.2768)">
    <g
       transform="translate(65.464,4.5184)"
       id="g320">
      <path
         transform="scale(0.0032,-0.0032)"
         d="m 212,138 c 68,0 113,-38 113,-95 0,-90 -109,-181 -212,-181 -68,0 -113,38 -113,95 0,90 109,181 212,181 z"
         fill="currentColor"
         id="path318" />
    </g>
  </a>
  <a
     style="color:inherit"
     xlink:href="textedit:///Users/tomsegarra/Documents/dev/dummies/lilypond_files/5ccc866e48dfa067248af36c3bbe3bc6.ly:25:69:70"
     id="a330"
     transform="translate(-2.2773813,-3.2768)">
    <g
       transform="translate(64.9941,15.2184)"
       id="g328">
      <text
         font-family="serif"
         font-size="1.9756px"
         text-anchor="start"
         fill="currentColor"
         id="text326"><tspan
           id="tspan324">ny</tspan></text>
    </g>
  </a>
  <g
     transform="translate(63.247119,6.4416)"
     id="g334">
    <rect
       x="-0.0605"
       y="-5.0629001"
       width="0.1211"
       height="5.0629001"
       ry="0.039999999"
       fill="currentColor"
       id="rect332" />
  </g>
  <g
     transform="translate(58.705219,6.4416)"
     id="g338">
    <polygon
       stroke-linejoin="round"
       stroke-linecap="round"
       stroke-width="0.08"
       fill="currentColor"
       stroke="currentColor"
       points="0.04,0.152 0.04,-0.152 2.3218,-0.0066 2.3218,0.2974 "
       id="polygon336" />
  </g>
  <a
     style="color:inherit"
     xlink:href="textedit:///Users/tomsegarra/Documents/dev/dummies/lilypond_files/5ccc866e48dfa067248af36c3bbe3bc6.ly:22:6:14"
     id="a344"
     transform="translate(-2.2773813,-3.2768)">
    <g
       transform="translate(17.1532,8.9184)"
       id="g342">
      <path
         transform="scale(0.0032,-0.0032)"
         d="m 212,138 c 68,0 113,-38 113,-95 0,-90 -109,-181 -212,-181 -68,0 -113,38 -113,95 0,90 109,181 212,181 z"
         fill="currentColor"
         id="path340" />
    </g>
  </a>
  <a
     style="color:inherit"
     xlink:href="textedit:///Users/tomsegarra/Documents/dev/dummies/lilypond_files/5ccc866e48dfa067248af36c3bbe3bc6.ly:25:9:10"
     id="a352"
     transform="translate(-2.2773813,-3.2768)">
    <g
       transform="translate(15.7957,15.2184)"
       id="g350">
      <text
         font-family="serif"
         font-size="1.9756px"
         text-anchor="start"
         fill="currentColor"
         id="text348"><tspan
           id="tspan346">keep</tspan></text>
    </g>
  </a>
  <g
     transform="translate(14.936419,6.4416)"
     id="g356">
    <rect
       x="-0.0605"
       y="-0.66289997"
       width="0.1211"
       height="2.6629"
       ry="0.039999999"
       fill="currentColor"
       id="rect354" />
  </g>
  <a
     style="color:inherit"
     xlink:href="textedit:///Users/tomsegarra/Documents/dev/dummies/lilypond_files/5ccc866e48dfa067248af36c3bbe3bc6.ly:22:8:16"
     id="a362"
     transform="translate(-2.2773813,-3.2768)">
    <g
       transform="translate(20.9663,9.3184)"
       id="g360">
      <path
         transform="scale(0.0032,-0.0032)"
         d="m 212,138 c 68,0 113,-38 113,-95 0,-90 -109,-181 -212,-181 -68,0 -113,38 -113,95 0,90 109,181 212,181 z"
         fill="currentColor"
         id="path358" />
    </g>
  </a>
  <a
     style="color:inherit"
     xlink:href="textedit:///Users/tomsegarra/Documents/dev/dummies/lilypond_files/5ccc866e48dfa067248af36c3bbe3bc6.ly:25:14:15"
     id="a370"
     transform="translate(-2.2773813,-3.2768)">
    <g
       transform="translate(20.0014,15.2184)"
       id="g368">
      <text
         font-family="serif"
         font-size="1.9756px"
         text-anchor="start"
         fill="currentColor"
         id="text366"><tspan
           id="tspan364">you</tspan></text>
    </g>
  </a>
  <g
     transform="translate(18.749519,6.4416)"
     id="g374">
    <rect
       x="-0.0605"
       y="-0.26289999"
       width="0.1211"
       height="2.6629"
       ry="0.039999999"
       fill="currentColor"
       id="rect372" />
  </g>
  <a
     style="color:inherit"
     xlink:href="textedit:///Users/tomsegarra/Documents/dev/dummies/lilypond_files/5ccc866e48dfa067248af36c3bbe3bc6.ly:22:12:20"
     id="a380"
     transform="translate(-2.2773813,-3.2768)">
    <g
       transform="translate(24.407,8.9184)"
       id="g378">
      <path
         transform="scale(0.0032,-0.0032)"
         d="m 212,138 c 68,0 113,-38 113,-95 0,-90 -109,-181 -212,-181 -68,0 -113,38 -113,95 0,90 109,181 212,181 z"
         fill="currentColor"
         id="path376" />
    </g>
  </a>
  <a
     style="color:inherit"
     xlink:href="textedit:///Users/tomsegarra/Documents/dev/dummies/lilypond_files/5ccc866e48dfa067248af36c3bbe3bc6.ly:25:18:19"
     id="a388"
     transform="translate(-2.2773813,-3.2768)">
    <g
       transform="translate(23.664,15.2184)"
       id="g386">
      <text
         font-family="serif"
         font-size="1.9756px"
         text-anchor="start"
         fill="currentColor"
         id="text384"><tspan
           id="tspan382">my</tspan></text>
    </g>
  </a>
  <g
     transform="translate(22.190119,6.4416)"
     id="g392">
    <rect
       x="-0.0605"
       y="-0.66289997"
       width="0.1211"
       height="2.6629"
       ry="0.039999999"
       fill="currentColor"
       id="rect390" />
  </g>
  <g
     transform="translate(28.875719,6.4416)"
     id="g396">
    <rect
       x="-0.0605"
       y="-0.66289997"
       width="0.1211"
       height="2.4084001"
       ry="0.039999999"
       fill="currentColor"
       id="rect394" />
  </g>
  <a
     style="color:inherit"
     xlink:href="textedit:///Users/tomsegarra/Documents/dev/dummies/lilypond_files/5ccc866e48dfa067248af36c3bbe3bc6.ly:25:28:29"
     id="a404"
     transform="translate(-2.2773813,-3.2768)">
    <g
       transform="translate(30.8447,15.2184)"
       id="g402">
      <text
         font-family="serif"
         font-size="1.9756px"
         text-anchor="start"
         fill="currentColor"
         id="text400"><tspan
           id="tspan398">ty</tspan></text>
    </g>
  </a>
  <a
     style="color:inherit"
     xlink:href="textedit:///Users/tomsegarra/Documents/dev/dummies/lilypond_files/5ccc866e48dfa067248af36c3bbe3bc6.ly:22:14:22"
     id="a410"
     transform="translate(-2.2773813,-3.2768)">
    <g
       transform="translate(28.8519,9.3184)"
       id="g408">
      <path
         transform="scale(0.0032,-0.0032)"
         d="m 212,138 c 68,0 113,-38 113,-95 0,-90 -109,-181 -212,-181 -68,0 -113,38 -113,95 0,90 109,181 212,181 z"
         fill="currentColor"
         id="path406" />
    </g>
  </a>
  <a
     style="color:inherit"
     xlink:href="textedit:///Users/tomsegarra/Documents/dev/dummies/lilypond_files/5ccc866e48dfa067248af36c3bbe3bc6.ly:25:21:22"
     id="a418"
     transform="translate(-2.2773813,-3.2768)">
    <g
       transform="translate(28.2797,15.2184)"
       id="g416">
      <text
         font-family="serif"
         font-size="1.9756px"
         text-anchor="start"
         fill="currentColor"
         id="text414"><tspan
           id="tspan412">dir</tspan></text>
    </g>
  </a>
  <g
     transform="translate(26.635119,6.4416)"
     id="g422">
    <rect
       x="-0.0605"
       y="-0.26289999"
       width="0.1211"
       height="2.0084"
       ry="0.039999999"
       fill="currentColor"
       id="rect420" />
  </g>
  <a
     style="color:inherit"
     xlink:href="textedit:///Users/tomsegarra/Documents/dev/dummies/lilypond_files/5ccc866e48dfa067248af36c3bbe3bc6.ly:22:19:27"
     id="a428"
     transform="translate(-2.2773813,-3.2768)">
    <g
       transform="translate(31.0926,8.9184)"
       id="g426">
      <path
         transform="scale(0.0032,-0.0032)"
         d="m 212,138 c 68,0 113,-38 113,-95 0,-90 -109,-181 -212,-181 -68,0 -113,38 -113,95 0,90 109,181 212,181 z"
         fill="currentColor"
         id="path424" />
    </g>
  </a>
</svg>
