<?xml version="1.0" encoding="UTF-8" standalone="no"?>
<svg
   version="1.2"
   width="137.53342mm"
   height="21.013321mm"
   viewBox="0 0 78.264506 11.95774"
   id="svg630"
   sodipodi:docname="5eb49cf08a048d5404b5203c413a3acb.svg"
   xmlns:inkscape="http://www.inkscape.org/namespaces/inkscape"
   xmlns:sodipodi="http://sodipodi.sourceforge.net/DTD/sodipodi-0.dtd"
   xmlns:xlink="http://www.w3.org/1999/xlink"
   xmlns="http://www.w3.org/2000/svg"
   xmlns:svg="http://www.w3.org/2000/svg">
  <defs
     id="defs634" />
  <sodipodi:namedview
     id="namedview632"
     pagecolor="#ffffff"
     bordercolor="#000000"
     borderopacity="0.25"
     inkscape:showpageshadow="2"
     inkscape:pageopacity="0.0"
     inkscape:pagecheckerboard="0"
     inkscape:deskcolor="#d1d1d1"
     inkscape:document-units="mm" />
  <style
     type="text/css"
     id="style2"><![CDATA[
tspan { white-space: pre; }
]]></style>
  <!-- Page: 1/1 -->
  <g
     transform="translate(4.9997121e-5,2.1483777)"
     id="g6">
    <rect
       x="74.480202"
       y="-0.089900002"
       width="1.6611"
       height="0.17990001"
       ry="0.089900002"
       fill="currentColor"
       id="rect4" />
  </g>
  <g
     transform="translate(4.9997121e-5,2.9983777)"
     id="g10">
    <rect
       x="74.480202"
       y="-0.089900002"
       width="1.6611"
       height="0.17990001"
       ry="0.089900002"
       fill="currentColor"
       id="rect8" />
  </g>
  <g
     transform="translate(4.9997121e-5,3.8483777)"
     id="g14">
    <rect
       x="74.480202"
       y="-0.089900002"
       width="1.6611"
       height="0.17990001"
       ry="0.089900002"
       fill="currentColor"
       id="rect12" />
  </g>
  <g
     transform="translate(4.9997121e-5,4.6983777)"
     id="g18">
    <rect
       x="74.480202"
       y="-0.089900002"
       width="1.6611"
       height="0.17990001"
       ry="0.089900002"
       fill="currentColor"
       id="rect16" />
  </g>
  <g
     transform="translate(4.9997121e-5,5.5483777)"
     id="g22">
    <rect
       x="74.480202"
       y="-0.089900002"
       width="1.6611"
       height="0.17990001"
       ry="0.089900002"
       fill="currentColor"
       id="rect20" />
  </g>
  <g
     transform="translate(4.9997121e-5,6.3983777)"
     id="g26">
    <rect
       x="74.480202"
       y="-0.089900002"
       width="1.6611"
       height="0.17990001"
       ry="0.089900002"
       fill="currentColor"
       id="rect24" />
  </g>
  <g
     transform="translate(4.9997121e-5,1.2983777)"
     id="g30">
    <rect
       x="70.010597"
       y="-0.089900002"
       width="1.5717"
       height="0.17990001"
       ry="0.089900002"
       fill="currentColor"
       id="rect28" />
  </g>
  <g
     transform="translate(4.9997121e-5,2.1483777)"
     id="g34">
    <rect
       x="69.921204"
       y="-0.089900002"
       width="1.6611"
       height="0.17990001"
       ry="0.089900002"
       fill="currentColor"
       id="rect32" />
  </g>
  <g
     transform="translate(4.9997121e-5,2.9983777)"
     id="g38">
    <rect
       x="69.921204"
       y="-0.089900002"
       width="1.6611"
       height="0.17990001"
       ry="0.089900002"
       fill="currentColor"
       id="rect36" />
  </g>
  <g
     transform="translate(4.9997121e-5,3.8483777)"
     id="g42">
    <rect
       x="69.921204"
       y="-0.089900002"
       width="1.6611"
       height="0.17990001"
       ry="0.089900002"
       fill="currentColor"
       id="rect40" />
  </g>
  <g
     transform="translate(4.9997121e-5,4.6983777)"
     id="g46">
    <rect
       x="69.921204"
       y="-0.089900002"
       width="1.6611"
       height="0.17990001"
       ry="0.089900002"
       fill="currentColor"
       id="rect44" />
  </g>
  <g
     transform="translate(4.9997121e-5,5.5483777)"
     id="g50">
    <rect
       x="69.921204"
       y="-0.089900002"
       width="1.6611"
       height="0.17990001"
       ry="0.089900002"
       fill="currentColor"
       id="rect48" />
  </g>
  <g
     transform="translate(4.9997121e-5,6.3983777)"
     id="g54">
    <rect
       x="69.921204"
       y="-0.089900002"
       width="1.6611"
       height="0.17990001"
       ry="0.089900002"
       fill="currentColor"
       id="rect52" />
  </g>
  <g
     transform="translate(4.9997121e-5,2.1483777)"
     id="g58">
    <rect
       x="66.413803"
       y="-0.089900002"
       width="1.6611"
       height="0.17990001"
       ry="0.089900002"
       fill="currentColor"
       id="rect56" />
  </g>
  <g
     transform="translate(4.9997121e-5,2.9983777)"
     id="g62">
    <rect
       x="66.413803"
       y="-0.089900002"
       width="1.6611"
       height="0.17990001"
       ry="0.089900002"
       fill="currentColor"
       id="rect60" />
  </g>
  <g
     transform="translate(4.9997121e-5,3.8483777)"
     id="g66">
    <rect
       x="66.413803"
       y="-0.089900002"
       width="1.6611"
       height="0.17990001"
       ry="0.089900002"
       fill="currentColor"
       id="rect64" />
  </g>
  <g
     transform="translate(4.9997121e-5,4.6983777)"
     id="g70">
    <rect
       x="66.413803"
       y="-0.089900002"
       width="1.6611"
       height="0.17990001"
       ry="0.089900002"
       fill="currentColor"
       id="rect68" />
  </g>
  <g
     transform="translate(4.9997121e-5,5.5483777)"
     id="g74">
    <rect
       x="66.413803"
       y="-0.089900002"
       width="1.6611"
       height="0.17990001"
       ry="0.089900002"
       fill="currentColor"
       id="rect72" />
  </g>
  <g
     transform="translate(4.9997121e-5,6.3983777)"
     id="g78">
    <rect
       x="66.413803"
       y="-0.089900002"
       width="1.6611"
       height="0.17990001"
       ry="0.089900002"
       fill="currentColor"
       id="rect76" />
  </g>
  <g
     transform="translate(4.9997121e-5,2.1483777)"
     id="g82">
    <rect
       x="62.906399"
       y="-0.089900002"
       width="1.6611"
       height="0.17990001"
       ry="0.089900002"
       fill="currentColor"
       id="rect80" />
  </g>
  <g
     transform="translate(4.9997121e-5,2.9983777)"
     id="g86">
    <rect
       x="62.906399"
       y="-0.089900002"
       width="1.6611"
       height="0.17990001"
       ry="0.089900002"
       fill="currentColor"
       id="rect84" />
  </g>
  <g
     transform="translate(4.9997121e-5,3.8483777)"
     id="g90">
    <rect
       x="62.906399"
       y="-0.089900002"
       width="1.6611"
       height="0.17990001"
       ry="0.089900002"
       fill="currentColor"
       id="rect88" />
  </g>
  <g
     transform="translate(4.9997121e-5,4.6983777)"
     id="g94">
    <rect
       x="62.906399"
       y="-0.089900002"
       width="1.6611"
       height="0.17990001"
       ry="0.089900002"
       fill="currentColor"
       id="rect92" />
  </g>
  <g
     transform="translate(4.9997121e-5,5.5483777)"
     id="g98">
    <rect
       x="62.906399"
       y="-0.089900002"
       width="1.6611"
       height="0.17990001"
       ry="0.089900002"
       fill="currentColor"
       id="rect96" />
  </g>
  <g
     transform="translate(4.9997121e-5,6.3983777)"
     id="g102">
    <rect
       x="62.906399"
       y="-0.089900002"
       width="1.6611"
       height="0.17990001"
       ry="0.089900002"
       fill="currentColor"
       id="rect100" />
  </g>
  <g
     transform="translate(4.9997121e-5,2.9983777)"
     id="g106">
    <rect
       x="59.4884"
       y="-0.089900002"
       width="1.5717"
       height="0.17990001"
       ry="0.089900002"
       fill="currentColor"
       id="rect104" />
  </g>
  <g
     transform="translate(4.9997121e-5,3.8483777)"
     id="g110">
    <rect
       x="59.398998"
       y="-0.089900002"
       width="1.6611"
       height="0.17990001"
       ry="0.089900002"
       fill="currentColor"
       id="rect108" />
  </g>
  <g
     transform="translate(4.9997121e-5,4.6983777)"
     id="g114">
    <rect
       x="59.398998"
       y="-0.089900002"
       width="1.6611"
       height="0.17990001"
       ry="0.089900002"
       fill="currentColor"
       id="rect112" />
  </g>
  <g
     transform="translate(4.9997121e-5,5.5483777)"
     id="g118">
    <rect
       x="59.398998"
       y="-0.089900002"
       width="1.6611"
       height="0.17990001"
       ry="0.089900002"
       fill="currentColor"
       id="rect116" />
  </g>
  <g
     transform="translate(4.9997121e-5,6.3983777)"
     id="g122">
    <rect
       x="59.398998"
       y="-0.089900002"
       width="1.6611"
       height="0.17990001"
       ry="0.089900002"
       fill="currentColor"
       id="rect120" />
  </g>
  <g
     transform="translate(4.9997121e-5,2.1483777)"
     id="g126">
    <rect
       x="54.84"
       y="-0.089900002"
       width="1.6611"
       height="0.17990001"
       ry="0.089900002"
       fill="currentColor"
       id="rect124" />
  </g>
  <g
     transform="translate(4.9997121e-5,2.9983777)"
     id="g130">
    <rect
       x="54.84"
       y="-0.089900002"
       width="1.6611"
       height="0.17990001"
       ry="0.089900002"
       fill="currentColor"
       id="rect128" />
  </g>
  <g
     transform="translate(4.9997121e-5,3.8483777)"
     id="g134">
    <rect
       x="54.84"
       y="-0.089900002"
       width="1.6611"
       height="0.17990001"
       ry="0.089900002"
       fill="currentColor"
       id="rect132" />
  </g>
  <g
     transform="translate(4.9997121e-5,4.6983777)"
     id="g138">
    <rect
       x="54.84"
       y="-0.089900002"
       width="1.6611"
       height="0.17990001"
       ry="0.089900002"
       fill="currentColor"
       id="rect136" />
  </g>
  <g
     transform="translate(4.9997121e-5,5.5483777)"
     id="g142">
    <rect
       x="54.84"
       y="-0.089900002"
       width="1.6611"
       height="0.17990001"
       ry="0.089900002"
       fill="currentColor"
       id="rect140" />
  </g>
  <g
     transform="translate(4.9997121e-5,6.3983777)"
     id="g146">
    <rect
       x="54.84"
       y="-0.089900002"
       width="1.6611"
       height="0.17990001"
       ry="0.089900002"
       fill="currentColor"
       id="rect144" />
  </g>
  <g
     transform="translate(4.9997121e-5,1.2983777)"
     id="g150">
    <rect
       x="52.622002"
       y="-0.089900002"
       width="1.5717"
       height="0.17990001"
       ry="0.089900002"
       fill="currentColor"
       id="rect148" />
  </g>
  <g
     transform="translate(4.9997121e-5,2.1483777)"
     id="g154">
    <rect
       x="52.5326"
       y="-0.089900002"
       width="1.6611"
       height="0.17990001"
       ry="0.089900002"
       fill="currentColor"
       id="rect152" />
  </g>
  <g
     transform="translate(4.9997121e-5,2.9983777)"
     id="g158">
    <rect
       x="52.5326"
       y="-0.089900002"
       width="1.6611"
       height="0.17990001"
       ry="0.089900002"
       fill="currentColor"
       id="rect156" />
  </g>
  <g
     transform="translate(4.9997121e-5,3.8483777)"
     id="g162">
    <rect
       x="52.5326"
       y="-0.089900002"
       width="1.6611"
       height="0.17990001"
       ry="0.089900002"
       fill="currentColor"
       id="rect160" />
  </g>
  <g
     transform="translate(4.9997121e-5,4.6983777)"
     id="g166">
    <rect
       x="52.5326"
       y="-0.089900002"
       width="1.6611"
       height="0.17990001"
       ry="0.089900002"
       fill="currentColor"
       id="rect164" />
  </g>
  <g
     transform="translate(4.9997121e-5,5.5483777)"
     id="g170">
    <rect
       x="52.5326"
       y="-0.089900002"
       width="1.6611"
       height="0.17990001"
       ry="0.089900002"
       fill="currentColor"
       id="rect168" />
  </g>
  <g
     transform="translate(4.9997121e-5,6.3983777)"
     id="g174">
    <rect
       x="52.5326"
       y="-0.089900002"
       width="1.6611"
       height="0.17990001"
       ry="0.089900002"
       fill="currentColor"
       id="rect172" />
  </g>
  <g
     transform="translate(4.9997121e-5,2.1483777)"
     id="g178">
    <rect
       x="49.883598"
       y="-0.089900002"
       width="1.6611"
       height="0.17990001"
       ry="0.089900002"
       fill="currentColor"
       id="rect176" />
  </g>
  <g
     transform="translate(4.9997121e-5,2.9983777)"
     id="g182">
    <rect
       x="49.883598"
       y="-0.089900002"
       width="1.6611"
       height="0.17990001"
       ry="0.089900002"
       fill="currentColor"
       id="rect180" />
  </g>
  <g
     transform="translate(4.9997121e-5,3.8483777)"
     id="g186">
    <rect
       x="49.883598"
       y="-0.089900002"
       width="1.6611"
       height="0.17990001"
       ry="0.089900002"
       fill="currentColor"
       id="rect184" />
  </g>
  <g
     transform="translate(4.9997121e-5,4.6983777)"
     id="g190">
    <rect
       x="49.883598"
       y="-0.089900002"
       width="1.6611"
       height="0.17990001"
       ry="0.089900002"
       fill="currentColor"
       id="rect188" />
  </g>
  <g
     transform="translate(4.9997121e-5,5.5483777)"
     id="g194">
    <rect
       x="49.883598"
       y="-0.089900002"
       width="1.6611"
       height="0.17990001"
       ry="0.089900002"
       fill="currentColor"
       id="rect192" />
  </g>
  <g
     transform="translate(4.9997121e-5,6.3983777)"
     id="g198">
    <rect
       x="49.883598"
       y="-0.089900002"
       width="1.6611"
       height="0.17990001"
       ry="0.089900002"
       fill="currentColor"
       id="rect196" />
  </g>
  <g
     transform="translate(4.9997121e-5,2.1483777)"
     id="g202">
    <rect
       x="47.576199"
       y="-0.089900002"
       width="1.6611"
       height="0.17990001"
       ry="0.089900002"
       fill="currentColor"
       id="rect200" />
  </g>
  <g
     transform="translate(4.9997121e-5,2.9983777)"
     id="g206">
    <rect
       x="47.576199"
       y="-0.089900002"
       width="1.6611"
       height="0.17990001"
       ry="0.089900002"
       fill="currentColor"
       id="rect204" />
  </g>
  <g
     transform="translate(4.9997121e-5,3.8483777)"
     id="g210">
    <rect
       x="47.576199"
       y="-0.089900002"
       width="1.6611"
       height="0.17990001"
       ry="0.089900002"
       fill="currentColor"
       id="rect208" />
  </g>
  <g
     transform="translate(4.9997121e-5,4.6983777)"
     id="g214">
    <rect
       x="47.576199"
       y="-0.089900002"
       width="1.6611"
       height="0.17990001"
       ry="0.089900002"
       fill="currentColor"
       id="rect212" />
  </g>
  <g
     transform="translate(4.9997121e-5,5.5483777)"
     id="g218">
    <rect
       x="47.576199"
       y="-0.089900002"
       width="1.6611"
       height="0.17990001"
       ry="0.089900002"
       fill="currentColor"
       id="rect216" />
  </g>
  <g
     transform="translate(4.9997121e-5,6.3983777)"
     id="g222">
    <rect
       x="47.576199"
       y="-0.089900002"
       width="1.6611"
       height="0.17990001"
       ry="0.089900002"
       fill="currentColor"
       id="rect220" />
  </g>
  <g
     transform="translate(4.9997121e-5,6.3983777)"
     id="g226">
    <rect
       x="43.116901"
       y="-0.089900002"
       width="1.6611"
       height="0.17990001"
       ry="0.089900002"
       fill="currentColor"
       id="rect224" />
  </g>
  <g
     transform="translate(4.9997121e-5,4.6983777)"
     id="g230">
    <rect
       x="38.5336"
       y="-0.089900002"
       width="1.6611"
       height="0.17990001"
       ry="0.089900002"
       fill="currentColor"
       id="rect228" />
  </g>
  <g
     transform="translate(4.9997121e-5,5.5483777)"
     id="g234">
    <rect
       x="38.5336"
       y="-0.089900002"
       width="1.6611"
       height="0.17990001"
       ry="0.089900002"
       fill="currentColor"
       id="rect232" />
  </g>
  <g
     transform="translate(4.9997121e-5,6.3983777)"
     id="g238">
    <rect
       x="38.5336"
       y="-0.089900002"
       width="1.6611"
       height="0.17990001"
       ry="0.089900002"
       fill="currentColor"
       id="rect236" />
  </g>
  <g
     transform="translate(4.9997121e-5,4.6983777)"
     id="g242">
    <rect
       x="36.315601"
       y="-0.089900002"
       width="1.5717"
       height="0.17990001"
       ry="0.089900002"
       fill="currentColor"
       id="rect240" />
  </g>
  <g
     transform="translate(4.9997121e-5,5.5483777)"
     id="g246">
    <rect
       x="36.2262"
       y="-0.089900002"
       width="1.6611"
       height="0.17990001"
       ry="0.089900002"
       fill="currentColor"
       id="rect244" />
  </g>
  <g
     transform="translate(4.9997121e-5,6.3983777)"
     id="g250">
    <rect
       x="36.2262"
       y="-0.089900002"
       width="1.6611"
       height="0.17990001"
       ry="0.089900002"
       fill="currentColor"
       id="rect248" />
  </g>
  <g
     transform="translate(4.9997121e-5,4.6983777)"
     id="g254">
    <rect
       x="33.577202"
       y="-0.089900002"
       width="1.6611"
       height="0.17990001"
       ry="0.089900002"
       fill="currentColor"
       id="rect252" />
  </g>
  <g
     transform="translate(4.9997121e-5,5.5483777)"
     id="g258">
    <rect
       x="33.577202"
       y="-0.089900002"
       width="1.6611"
       height="0.17990001"
       ry="0.089900002"
       fill="currentColor"
       id="rect256" />
  </g>
  <g
     transform="translate(4.9997121e-5,6.3983777)"
     id="g262">
    <rect
       x="33.577202"
       y="-0.089900002"
       width="1.6611"
       height="0.17990001"
       ry="0.089900002"
       fill="currentColor"
       id="rect260" />
  </g>
  <g
     transform="translate(4.9997121e-5,5.5483777)"
     id="g266">
    <rect
       x="31.2698"
       y="-0.089900002"
       width="1.6611"
       height="0.17990001"
       ry="0.089900002"
       fill="currentColor"
       id="rect264" />
  </g>
  <g
     transform="translate(4.9997121e-5,6.3983777)"
     id="g270">
    <rect
       x="31.2698"
       y="-0.089900002"
       width="1.6611"
       height="0.17990001"
       ry="0.089900002"
       fill="currentColor"
       id="rect268" />
  </g>
  <g
     transform="translate(4.9997121e-5,4.6983777)"
     id="g274">
    <rect
       x="22.204399"
       y="-0.089900002"
       width="1.6611"
       height="0.17990001"
       ry="0.089900002"
       fill="currentColor"
       id="rect272" />
  </g>
  <g
     transform="translate(4.9997121e-5,5.5483777)"
     id="g278">
    <rect
       x="22.204399"
       y="-0.089900002"
       width="1.6611"
       height="0.17990001"
       ry="0.089900002"
       fill="currentColor"
       id="rect276" />
  </g>
  <g
     transform="translate(4.9997121e-5,6.3983777)"
     id="g282">
    <rect
       x="22.204399"
       y="-0.089900002"
       width="1.6611"
       height="0.17990001"
       ry="0.089900002"
       fill="currentColor"
       id="rect280" />
  </g>
  <g
     transform="translate(4.9997121e-5,4.6983777)"
     id="g286">
    <rect
       x="19.986401"
       y="-0.089900002"
       width="1.5717"
       height="0.17990001"
       ry="0.089900002"
       fill="currentColor"
       id="rect284" />
  </g>
  <g
     transform="translate(4.9997121e-5,5.5483777)"
     id="g290">
    <rect
       x="19.896999"
       y="-0.089900002"
       width="1.6611"
       height="0.17990001"
       ry="0.089900002"
       fill="currentColor"
       id="rect288" />
  </g>
  <g
     transform="translate(4.9997121e-5,6.3983777)"
     id="g294">
    <rect
       x="19.896999"
       y="-0.089900002"
       width="1.6611"
       height="0.17990001"
       ry="0.089900002"
       fill="currentColor"
       id="rect292" />
  </g>
  <g
     transform="translate(4.9997121e-5,4.6983777)"
     id="g298">
    <rect
       x="17.2481"
       y="-0.089900002"
       width="1.6611"
       height="0.17990001"
       ry="0.089900002"
       fill="currentColor"
       id="rect296" />
  </g>
  <g
     transform="translate(4.9997121e-5,5.5483777)"
     id="g302">
    <rect
       x="17.2481"
       y="-0.089900002"
       width="1.6611"
       height="0.17990001"
       ry="0.089900002"
       fill="currentColor"
       id="rect300" />
  </g>
  <g
     transform="translate(4.9997121e-5,6.3983777)"
     id="g306">
    <rect
       x="17.2481"
       y="-0.089900002"
       width="1.6611"
       height="0.17990001"
       ry="0.089900002"
       fill="currentColor"
       id="rect304" />
  </g>
  <g
     transform="translate(4.9997121e-5,5.5483777)"
     id="g310">
    <rect
       x="14.9407"
       y="-0.089900002"
       width="1.6611"
       height="0.17990001"
       ry="0.089900002"
       fill="currentColor"
       id="rect308" />
  </g>
  <g
     transform="translate(4.9997121e-5,6.3983777)"
     id="g314">
    <rect
       x="14.9407"
       y="-0.089900002"
       width="1.6611"
       height="0.17990001"
       ry="0.089900002"
       fill="currentColor"
       id="rect312" />
  </g>
  <g
     transform="translate(4.9997121e-5,6.3983777)"
     id="g318">
    <rect
       x="10.4813"
       y="-0.089900002"
       width="1.6611"
       height="0.17990001"
       ry="0.089900002"
       fill="currentColor"
       id="rect316" />
  </g>
  <g
     transform="translate(4.9997121e-5,10.648378)"
     id="g322">
    <line
       stroke-linejoin="round"
       stroke-linecap="round"
       stroke-width="0.0949"
       stroke="currentColor"
       x1="0.047400001"
       y1="0"
       x2="78.217003"
       y2="0"
       id="line320" />
  </g>
  <g
     transform="translate(4.9997121e-5,9.7983777)"
     id="g326">
    <line
       stroke-linejoin="round"
       stroke-linecap="round"
       stroke-width="0.0949"
       stroke="currentColor"
       x1="0.047400001"
       y1="0"
       x2="78.217003"
       y2="0"
       id="line324" />
  </g>
  <g
     transform="translate(4.9997121e-5,8.9483777)"
     id="g330">
    <line
       stroke-linejoin="round"
       stroke-linecap="round"
       stroke-width="0.0949"
       stroke="currentColor"
       x1="0.047400001"
       y1="0"
       x2="78.217003"
       y2="0"
       id="line328" />
  </g>
  <g
     transform="translate(4.9997121e-5,8.0983777)"
     id="g334">
    <line
       stroke-linejoin="round"
       stroke-linecap="round"
       stroke-width="0.0949"
       stroke="currentColor"
       x1="0.047400001"
       y1="0"
       x2="78.217003"
       y2="0"
       id="line332" />
  </g>
  <g
     transform="translate(4.9997121e-5,7.2483777)"
     id="g338">
    <line
       stroke-linejoin="round"
       stroke-linecap="round"
       stroke-width="0.0949"
       stroke="currentColor"
       x1="0.047400001"
       y1="0"
       x2="78.217003"
       y2="0"
       id="line336" />
  </g>
  <g
     transform="translate(73.56265,8.9483777)"
     id="g342">
    <rect
       x="0"
       y="-1.7"
       width="0.1802"
       height="3.4000001"
       ry="0.0000"
       fill="currentColor"
       id="rect340" />
  </g>
  <g
     transform="translate(58.48145,8.9483777)"
     id="g346">
    <rect
       x="0"
       y="-1.7"
       width="0.1802"
       height="3.4000001"
       ry="0.0000"
       fill="currentColor"
       id="rect344" />
  </g>
  <g
     transform="translate(42.17505,8.9483777)"
     id="g350">
    <rect
       x="0"
       y="-1.7"
       width="0.1802"
       height="3.4000001"
       ry="0.0000"
       fill="currentColor"
       id="rect348" />
  </g>
  <g
     transform="translate(25.84585,8.9483777)"
     id="g354">
    <rect
       x="0"
       y="-1.7"
       width="0.1802"
       height="3.4000001"
       ry="0.0000"
       fill="currentColor"
       id="rect352" />
  </g>
  <g
     transform="translate(17.52495,9.1049777)"
     id="g358">
    <polygon
       stroke-linejoin="round"
       stroke-linecap="round"
       stroke-width="0.08"
       fill="currentColor"
       stroke="currentColor"
       points="0.04,0.164 0.04,-0.164 2.7323,-0.3206 2.7323,0.0074 "
       id="polygon356" />
  </g>
  <g
     transform="translate(33.85415,9.1049777)"
     id="g362">
    <polygon
       stroke-linejoin="round"
       stroke-linecap="round"
       stroke-width="0.08"
       fill="currentColor"
       stroke="currentColor"
       points="0.04,0.164 0.04,-0.164 2.7323,-0.3206 2.7323,0.0074 "
       id="polygon360" />
  </g>
  <g
     transform="translate(0.80005,9.7983777)"
     id="g366">
    <path
       transform="scale(0.0034,-0.0034)"
       d="m 646,2 c 0,-113 -74,-213 -180,-247 3,-34 5,-68 5,-102 0,-20 -1,-40 -2,-60 -7,-121 -91,-228 -209,-228 -108,0 -196,87 -196,196 0,58 53,104 112,104 54,0 95,-48 95,-104 0,-52 -43,-95 -95,-95 -10,0 -20,2 -29,6 26,-38 68,-63 116,-63 h 3 c 93,2 153,92 159,190 1,19 2,37 2,56 0,30 -2,60 -4,90 -5,-1 -43,-8 -88,-8 -194,0 -333,180 -333,375 0,177 130,307 246,442 -31,98 -53,170 -53,347 0,115 55,223 148,290 7,5 16,4 22,-1 68,-80 134,-243 134,-357 0,-143 -85,-255 -178,-364 21,-68 40,-137 57,-206 1,0 5,1 11,1 C 545,264 646,135 646,2 Z M 462,-202 c 66,24 111,88 111,162 0,89 -65,178 -170,190 28,-135 50,-272 59,-352 z M 75,26 c 0,-145 141,-245 263,-245 1,0 46,0 81,6 -7,65 -27,206 -61,363 -79,-8 -124,-61 -124,-119 0,-43 25,-89 80,-121 5,-5 7,-11 7,-16 0,-12 -10,-23 -22,-23 -16,0 -127,63 -127,188 0,89 58,175 161,198 -14,58 -29,116 -46,173 C 181,308 75,186 75,26 Z M 406,1042 C 307,995 244,894 244,785 c 0,-49 13,-111 38,-191 79,97 144,199 144,324 0,33 0,63 -20,124 z"
       fill="currentColor"
       id="path364" />
  </g>
  <g
     transform="translate(50.16055,9.1049777)"
     id="g370">
    <polygon
       stroke-linejoin="round"
       stroke-linecap="round"
       stroke-width="0.08"
       fill="currentColor"
       stroke="currentColor"
       points="0.04,0.164 0.04,-0.164 2.7323,-0.3206 2.7323,0.0074 "
       id="polygon368" />
  </g>
  <a
     style="color:inherit"
     xlink:href="textedit:///Users/tomsegarra/Documents/dev/dummies/lilypond_files/5eb49cf08a048d5404b5203c413a3acb.ly:19:1:9"
     id="a380"
     transform="translate(-2.27615,-3.2766223)">
    <g
       transform="translate(6.5762,10.525)"
       id="g374">
      <path
         transform="scale(0.0034,-0.0034)"
         d="m 217,-311 c 0,-11 -8,-19 -19,-19 -11,0 -20,8 -20,19 v 142 l -81,-30 v -156 c 0,-11 -9,-20 -20,-20 -11,0 -19,9 -19,20 v 142 l -28,-11 c -3,-1 -5,-1 -8,-1 -12,0 -22,10 -22,23 v 57 c 0,9 6,18 15,21 l 43,16 V 49 L 30,39 C 27,38 25,38 22,38 10,38 0,47 0,60 v 57 c 0,9 6,18 15,21 l 43,16 v 157 c 0,11 8,19 19,19 11,0 20,-8 20,-19 V 169 l 81,30 v 156 c 0,11 9,20 20,20 11,0 19,-9 19,-20 V 213 l 28,11 c 3,1 5,1 8,1 12,0 22,-10 22,-23 v -57 c 0,-9 -6,-18 -15,-21 L 217,108 V -49 l 28,10 c 3,1 5,1 8,1 12,0 22,-9 22,-22 v -57 c 0,-9 -6,-18 -15,-21 l -43,-16 z M 97,64 V -94 l 81,30 V 94 Z"
         fill="currentColor"
         id="path372" />
    </g>
    <g
       transform="translate(7.5112,11.8)"
       id="g378">
      <path
         transform="scale(0.0034,-0.0034)"
         d="m 217,-311 c 0,-11 -8,-19 -19,-19 -11,0 -20,8 -20,19 v 142 l -81,-30 v -156 c 0,-11 -9,-20 -20,-20 -11,0 -19,9 -19,20 v 142 l -28,-11 c -3,-1 -5,-1 -8,-1 -12,0 -22,10 -22,23 v 57 c 0,9 6,18 15,21 l 43,16 V 49 L 30,39 C 27,38 25,38 22,38 10,38 0,47 0,60 v 57 c 0,9 6,18 15,21 l 43,16 v 157 c 0,11 8,19 19,19 11,0 20,-8 20,-19 V 169 l 81,30 v 156 c 0,11 9,20 20,20 11,0 19,-9 19,-20 V 213 l 28,11 c 3,1 5,1 8,1 12,0 22,-10 22,-23 v -57 c 0,-9 -6,-18 -15,-21 L 217,108 V -49 l 28,10 c 3,1 5,1 8,1 12,0 22,-9 22,-22 v -57 c 0,-9 -6,-18 -15,-21 l -43,-16 z M 97,64 V -94 l 81,30 V 94 Z"
         fill="currentColor"
         id="path376" />
    </g>
  </a>
  <g
     transform="translate(7.32005,8.9483777)"
     id="g384">
    <path
       transform="scale(0.0034,-0.0034)"
       d="m 358,29 c -30,0 -74,23 -74,73 0,38 27,76 71,76 4,0 7,0 11,-1 -27,36 -69,59 -116,59 -106,0 -113,-74 -113,-188 0,-15 1,-31 1,-48 0,-17 -1,-33 -1,-48 0,-114 7,-188 113,-188 79,0 136,70 155,150 2,7 7,10 13,10 7,0 14,-5 14,-13 0,-21 -50,-175 -182,-175 C 191,-264 0,-244 0,0 0,63 18,264 250,264 365,264 424,155 424,99 424,60 394,29 358,29 Z"
       fill="currentColor"
       id="path382" />
  </g>
  <a
     style="color:inherit"
     xlink:href="textedit:///Users/tomsegarra/Documents/dev/dummies/lilypond_files/5eb49cf08a048d5404b5203c413a3acb.ly:20:10:11"
     id="a390"
     transform="translate(-2.27615,-3.2766223)">
    <g
       transform="translate(17.4937,8.4)"
       id="g388">
      <path
         transform="scale(0.0034,-0.0034)"
         d="m 215,137 c 67,0 111,-37 111,-92 0,-90 -111,-182 -215,-182 -67,0 -111,37 -111,92 0,90 111,182 215,182 z"
         fill="currentColor"
         id="path386" />
    </g>
  </a>
  <g
     transform="translate(15.27925,8.9483777)"
     id="g394">
    <rect
       x="-0.061700001"
       y="-3.6724999"
       width="0.1233"
       height="3.6724999"
       ry="0.039999999"
       fill="currentColor"
       id="rect392" />
  </g>
  <g
     transform="translate(15.34085,8.9083777)"
     id="g398">
    <path
       transform="scale(0.0034,-0.0034)"
       d="M 0,0 H -18 V 250 H 0 Z m 0,0 v 250 c 96,59 222,149 222,259 0,57 -15,111 -40,162 -3,17 10,29 24,29 8,0 16,-5 21,-13 25,-56 40,-116 40,-178 C 267,306 0,203 0,0 Z"
       fill="currentColor"
       id="path396" />
  </g>
  <a
     style="color:inherit"
     xlink:href="textedit:///Users/tomsegarra/Documents/dev/dummies/lilypond_files/5eb49cf08a048d5404b5203c413a3acb.ly:20:4:5"
     id="a404"
     transform="translate(-2.27615,-3.2766223)">
    <g
       transform="translate(13.0344,9.25)"
       id="g402">
      <path
         transform="scale(0.0034,-0.0034)"
         d="m 215,137 c 67,0 111,-37 111,-92 0,-90 -111,-182 -215,-182 -67,0 -111,37 -111,92 0,90 111,182 215,182 z"
         fill="currentColor"
         id="path400" />
    </g>
  </a>
  <a
     style="color:inherit"
     xlink:href="textedit:///Users/tomsegarra/Documents/dev/dummies/lilypond_files/5eb49cf08a048d5404b5203c413a3acb.ly:20:13:14"
     id="a410"
     transform="translate(-2.27615,-3.2766223)">
    <g
       transform="translate(19.8011,7.975)"
       id="g408">
      <path
         transform="scale(0.0034,-0.0034)"
         d="m 215,137 c 67,0 111,-37 111,-92 0,-90 -111,-182 -215,-182 -67,0 -111,37 -111,92 0,90 111,182 215,182 z"
         fill="currentColor"
         id="path406" />
    </g>
  </a>
  <g
     transform="translate(17.58665,8.9483777)"
     id="g414">
    <rect
       x="-0.061700001"
       y="-4.0974998"
       width="0.1233"
       height="4.2505999"
       ry="0.039999999"
       fill="currentColor"
       id="rect412" />
  </g>
  <a
     style="color:inherit"
     xlink:href="textedit:///Users/tomsegarra/Documents/dev/dummies/lilypond_files/5eb49cf08a048d5404b5203c413a3acb.ly:20:15:16"
     id="a420"
     transform="translate(-2.27615,-3.2766223)">
    <g
       transform="translate(22.4501,7.55)"
       id="g418">
      <path
         transform="scale(0.0034,-0.0034)"
         d="m 215,137 c 67,0 111,-37 111,-92 0,-90 -111,-182 -215,-182 -67,0 -111,37 -111,92 0,90 111,182 215,182 z"
         fill="currentColor"
         id="path416" />
    </g>
  </a>
  <g
     transform="translate(20.23565,8.9483777)"
     id="g424">
    <rect
       x="-0.061700001"
       y="-4.5225"
       width="0.1233"
       height="4.526"
       ry="0.039999999"
       fill="currentColor"
       id="rect422" />
  </g>
  <g
     transform="translate(19.23235,4.2733777)"
     id="g428">
    <path
       transform="scale(0.0034,-0.0034)"
       d="m -8,375 c 8,5 17,7 26,7 9,0 18,-2 26,-7 l -3,-187 104,21 h 4 c 10,0 18,-8 18,-18 l 7,-566 c -8,-5 -16,-7 -25,-7 -9,0 -18,2 -26,7 l 2,187 -103,-21 h -4 c -10,0 -18,8 -18,18 z M 130,111 40,93 l -3,-204 90,18 z"
       fill="currentColor"
       id="path426" />
  </g>
  <a
     style="color:inherit"
     xlink:href="textedit:///Users/tomsegarra/Documents/dev/dummies/lilypond_files/5eb49cf08a048d5404b5203c413a3acb.ly:20:17:18"
     id="a434"
     transform="translate(-2.27615,-3.2766223)">
    <g
       transform="translate(24.7575,7.975)"
       id="g432">
      <path
         transform="scale(0.0034,-0.0034)"
         d="m 215,137 c 67,0 111,-37 111,-92 0,-90 -111,-182 -215,-182 -67,0 -111,37 -111,92 0,90 111,182 215,182 z"
         fill="currentColor"
         id="path430" />
    </g>
  </a>
  <g
     transform="translate(22.54295,8.9483777)"
     id="g438">
    <rect
       x="-0.061700001"
       y="-4.0974998"
       width="0.1233"
       height="4.0974998"
       ry="0.039999999"
       fill="currentColor"
       id="rect436" />
  </g>
  <a
     style="color:inherit"
     xlink:href="textedit:///Users/tomsegarra/Documents/dev/dummies/lilypond_files/5eb49cf08a048d5404b5203c413a3acb.ly:20:23:24"
     id="a444"
     transform="translate(-2.27615,-3.2766223)">
    <g
       transform="translate(29.3635,10.1)"
       id="g442">
      <path
         transform="scale(0.0034,-0.0034)"
         d="m 215,137 c 67,0 111,-37 111,-92 0,-90 -111,-182 -215,-182 -67,0 -111,37 -111,92 0,90 111,182 215,182 z"
         fill="currentColor"
         id="path440" />
    </g>
  </a>
  <g
     transform="translate(28.57385,6.8233777)"
     id="g448">
    <path
       transform="scale(0.0034,-0.0034)"
       d="M 0,0 C 0,31 25,56 56,56 87,56 111,31 111,0 111,-31 87,-56 56,-56 25,-56 0,-31 0,0 Z"
       fill="currentColor"
       id="path446" />
  </g>
  <g
     transform="translate(27.14905,8.9483777)"
     id="g452">
    <rect
       x="-0.061700001"
       y="-1.9725"
       width="0.1233"
       height="2.8225"
       ry="0.039999999"
       fill="currentColor"
       id="rect450" />
  </g>
  <a
     style="color:inherit"
     xlink:href="textedit:///Users/tomsegarra/Documents/dev/dummies/lilypond_files/5eb49cf08a048d5404b5203c413a3acb.ly:20:28:29"
     id="a458"
     transform="translate(-2.27615,-3.2766223)">
    <g
       transform="translate(33.8229,8.4)"
       id="g456">
      <path
         transform="scale(0.0034,-0.0034)"
         d="m 215,137 c 67,0 111,-37 111,-92 0,-90 -111,-182 -215,-182 -67,0 -111,37 -111,92 0,90 111,182 215,182 z"
         fill="currentColor"
         id="path454" />
    </g>
  </a>
  <g
     transform="translate(31.60835,8.9483777)"
     id="g462">
    <rect
       x="-0.061700001"
       y="-3.6724999"
       width="0.1233"
       height="3.6724999"
       ry="0.039999999"
       fill="currentColor"
       id="rect460" />
  </g>
  <g
     transform="translate(31.67005,8.9083777)"
     id="g466">
    <path
       transform="scale(0.0034,-0.0034)"
       d="M 0,0 H -18 V 250 H 0 Z m 0,0 v 250 c 96,59 222,149 222,259 0,57 -15,111 -40,162 -3,17 10,29 24,29 8,0 16,-5 21,-13 25,-56 40,-116 40,-178 C 267,306 0,203 0,0 Z"
       fill="currentColor"
       id="path464" />
  </g>
  <g
     transform="translate(12.24475,5.9733777)"
     id="g470">
    <path
       transform="scale(0.0034,-0.0034)"
       d="M 0,0 C 0,31 25,56 56,56 87,56 111,31 111,0 111,-31 87,-56 56,-56 25,-56 0,-31 0,0 Z"
       fill="currentColor"
       id="path468" />
  </g>
  <a
     style="color:inherit"
     xlink:href="textedit:///Users/tomsegarra/Documents/dev/dummies/lilypond_files/5eb49cf08a048d5404b5203c413a3acb.ly:20:32:33"
     id="a476"
     transform="translate(-2.27615,-3.2766223)">
    <g
       transform="translate(36.1303,7.975)"
       id="g474">
      <path
         transform="scale(0.0034,-0.0034)"
         d="m 215,137 c 67,0 111,-37 111,-92 0,-90 -111,-182 -215,-182 -67,0 -111,37 -111,92 0,90 111,182 215,182 z"
         fill="currentColor"
         id="path472" />
    </g>
  </a>
  <g
     transform="translate(33.91575,8.9483777)"
     id="g480">
    <rect
       x="-0.061700001"
       y="-4.0974998"
       width="0.1233"
       height="4.2505999"
       ry="0.039999999"
       fill="currentColor"
       id="rect478" />
  </g>
  <g
     transform="translate(10.81995,8.9483777)"
     id="g484">
    <rect
       x="-0.061700001"
       y="-2.8225"
       width="0.1233"
       height="2.8225"
       ry="0.039999999"
       fill="currentColor"
       id="rect482" />
  </g>
  <a
     style="color:inherit"
     xlink:href="textedit:///Users/tomsegarra/Documents/dev/dummies/lilypond_files/5eb49cf08a048d5404b5203c413a3acb.ly:20:34:35"
     id="a490"
     transform="translate(-2.27615,-3.2766223)">
    <g
       transform="translate(38.7792,7.55)"
       id="g488">
      <path
         transform="scale(0.0034,-0.0034)"
         d="m 215,137 c 67,0 111,-37 111,-92 0,-90 -111,-182 -215,-182 -67,0 -111,37 -111,92 0,90 111,182 215,182 z"
         fill="currentColor"
         id="path486" />
    </g>
  </a>
  <g
     transform="translate(36.56475,8.9483777)"
     id="g494">
    <rect
       x="-0.061700001"
       y="-4.5225"
       width="0.1233"
       height="4.526"
       ry="0.039999999"
       fill="currentColor"
       id="rect492" />
  </g>
  <g
     transform="translate(35.56145,4.2733777)"
     id="g498">
    <path
       transform="scale(0.0034,-0.0034)"
       d="m -8,375 c 8,5 17,7 26,7 9,0 18,-2 26,-7 l -3,-187 104,21 h 4 c 10,0 18,-8 18,-18 l 7,-566 c -8,-5 -16,-7 -25,-7 -9,0 -18,2 -26,7 l 2,187 -103,-21 h -4 c -10,0 -18,8 -18,18 z M 130,111 40,93 l -3,-204 90,18 z"
       fill="currentColor"
       id="path496" />
  </g>
  <a
     style="color:inherit"
     xlink:href="textedit:///Users/tomsegarra/Documents/dev/dummies/lilypond_files/5eb49cf08a048d5404b5203c413a3acb.ly:20:36:37"
     id="a504"
     transform="translate(-2.27615,-3.2766223)">
    <g
       transform="translate(41.0866,7.975)"
       id="g502">
      <path
         transform="scale(0.0034,-0.0034)"
         d="m 215,137 c 67,0 111,-37 111,-92 0,-90 -111,-182 -215,-182 -67,0 -111,37 -111,92 0,90 111,182 215,182 z"
         fill="currentColor"
         id="path500" />
    </g>
  </a>
  <g
     transform="translate(38.87215,8.9483777)"
     id="g508">
    <rect
       x="-0.061700001"
       y="-4.0974998"
       width="0.1233"
       height="4.0974998"
       ry="0.039999999"
       fill="currentColor"
       id="rect506" />
  </g>
  <g
     transform="translate(74.81875,8.9483777)"
     id="g512">
    <rect
       x="-0.061700001"
       y="-7.0725002"
       width="0.1233"
       height="7.0725002"
       ry="0.039999999"
       fill="currentColor"
       id="rect510" />
  </g>
  <a
     style="color:inherit"
     xlink:href="textedit:///Users/tomsegarra/Documents/dev/dummies/lilypond_files/5eb49cf08a048d5404b5203c413a3acb.ly:20:41:42"
     id="a518"
     transform="translate(-2.27615,-3.2766223)">
    <g
       transform="translate(45.67,9.675)"
       id="g516">
      <path
         transform="scale(0.0034,-0.0034)"
         d="m 215,137 c 67,0 111,-37 111,-92 0,-90 -111,-182 -215,-182 -67,0 -111,37 -111,92 0,90 111,182 215,182 z"
         fill="currentColor"
         id="path514" />
    </g>
  </a>
  <g
     transform="translate(44.88025,5.9733777)"
     id="g522">
    <path
       transform="scale(0.0034,-0.0034)"
       d="M 0,0 C 0,31 25,56 56,56 87,56 111,31 111,0 111,-31 87,-56 56,-56 25,-56 0,-31 0,0 Z"
       fill="currentColor"
       id="path520" />
  </g>
  <g
     transform="translate(43.45545,8.9483777)"
     id="g526">
    <rect
       x="-0.061700001"
       y="-2.3975"
       width="0.1233"
       height="2.8225"
       ry="0.039999999"
       fill="currentColor"
       id="rect524" />
  </g>
  <a
     style="color:inherit"
     xlink:href="textedit:///Users/tomsegarra/Documents/dev/dummies/lilypond_files/5eb49cf08a048d5404b5203c413a3acb.ly:20:46:47"
     id="a532"
     transform="translate(-2.27615,-3.2766223)">
    <g
       transform="translate(50.1293,5.425)"
       id="g530">
      <path
         transform="scale(0.0034,-0.0034)"
         d="m 215,137 c 67,0 111,-37 111,-92 0,-90 -111,-182 -215,-182 -67,0 -111,37 -111,92 0,90 111,182 215,182 z"
         fill="currentColor"
         id="path528" />
    </g>
  </a>
  <g
     transform="translate(47.91485,8.9483777)"
     id="g536">
    <rect
       x="-0.061700001"
       y="-6.6475"
       width="0.1233"
       height="6.6475"
       ry="0.039999999"
       fill="currentColor"
       id="rect534" />
  </g>
  <g
     transform="translate(47.97645,8.9083777)"
     id="g540">
    <path
       transform="scale(0.0034,-0.0034)"
       d="M 0,0 H -18 V 250 H 0 Z m 0,0 v 250 c 96,59 222,149 222,259 0,57 -15,111 -40,162 -3,17 10,29 24,29 8,0 16,-5 21,-13 25,-56 40,-116 40,-178 C 267,306 0,203 0,0 Z"
       fill="currentColor"
       id="path538" />
  </g>
  <a
     style="color:inherit"
     xlink:href="textedit:///Users/tomsegarra/Documents/dev/dummies/lilypond_files/5eb49cf08a048d5404b5203c413a3acb.ly:20:67:68"
     id="a546"
     transform="translate(-2.27615,-3.2766223)">
    <g
       transform="translate(77.0333,5)"
       id="g544">
      <path
         transform="scale(0.0034,-0.0034)"
         d="m 215,137 c 67,0 111,-37 111,-92 0,-90 -111,-182 -215,-182 -67,0 -111,37 -111,92 0,90 111,182 215,182 z"
         fill="currentColor"
         id="path542" />
    </g>
  </a>
  <a
     style="color:inherit"
     xlink:href="textedit:///Users/tomsegarra/Documents/dev/dummies/lilypond_files/5eb49cf08a048d5404b5203c413a3acb.ly:20:50:51"
     id="a552"
     transform="translate(-2.27615,-3.2766223)">
    <g
       transform="translate(52.4367,5)"
       id="g550">
      <path
         transform="scale(0.0034,-0.0034)"
         d="m 215,137 c 67,0 111,-37 111,-92 0,-90 -111,-182 -215,-182 -67,0 -111,37 -111,92 0,90 111,182 215,182 z"
         fill="currentColor"
         id="path548" />
    </g>
  </a>
  <g
     transform="translate(50.22215,8.9483777)"
     id="g556">
    <rect
       x="-0.061700001"
       y="-7.0725002"
       width="0.1233"
       height="7.2255998"
       ry="0.039999999"
       fill="currentColor"
       id="rect554" />
  </g>
  <a
     style="color:inherit"
     xlink:href="textedit:///Users/tomsegarra/Documents/dev/dummies/lilypond_files/5eb49cf08a048d5404b5203c413a3acb.ly:20:52:53"
     id="a562"
     transform="translate(-2.27615,-3.2766223)">
    <g
       transform="translate(55.0857,4.575)"
       id="g560">
      <path
         transform="scale(0.0034,-0.0034)"
         d="m 215,137 c 67,0 111,-37 111,-92 0,-90 -111,-182 -215,-182 -67,0 -111,37 -111,92 0,90 111,182 215,182 z"
         fill="currentColor"
         id="path558" />
    </g>
  </a>
  <g
     transform="translate(52.87115,8.9483777)"
     id="g566">
    <rect
       x="-0.061700001"
       y="-7.4974999"
       width="0.1233"
       height="7.5009999"
       ry="0.039999999"
       fill="currentColor"
       id="rect564" />
  </g>
  <g
     transform="translate(51.86795,1.2983777)"
     id="g570">
    <path
       transform="scale(0.0034,-0.0034)"
       d="m -8,375 c 8,5 17,7 26,7 9,0 18,-2 26,-7 l -3,-187 104,21 h 4 c 10,0 18,-8 18,-18 l 7,-566 c -8,-5 -16,-7 -25,-7 -9,0 -18,2 -26,7 l 2,187 -103,-21 h -4 c -10,0 -18,8 -18,18 z M 130,111 40,93 l -3,-204 90,18 z"
       fill="currentColor"
       id="path568" />
  </g>
  <g
     transform="translate(69.25645,1.2983777)"
     id="g574">
    <path
       transform="scale(0.0034,-0.0034)"
       d="m -8,375 c 8,5 17,7 26,7 9,0 18,-2 26,-7 l -3,-187 104,21 h 4 c 10,0 18,-8 18,-18 l 7,-566 c -8,-5 -16,-7 -25,-7 -9,0 -18,2 -26,7 l 2,187 -103,-21 h -4 c -10,0 -18,8 -18,18 z M 130,111 40,93 l -3,-204 90,18 z"
       fill="currentColor"
       id="path572" />
  </g>
  <a
     style="color:inherit"
     xlink:href="textedit:///Users/tomsegarra/Documents/dev/dummies/lilypond_files/5eb49cf08a048d5404b5203c413a3acb.ly:20:54:55"
     id="a580"
     transform="translate(-2.27615,-3.2766223)">
    <g
       transform="translate(57.3931,5)"
       id="g578">
      <path
         transform="scale(0.0034,-0.0034)"
         d="m 215,137 c 67,0 111,-37 111,-92 0,-90 -111,-182 -215,-182 -67,0 -111,37 -111,92 0,90 111,182 215,182 z"
         fill="currentColor"
         id="path576" />
    </g>
  </a>
  <g
     transform="translate(55.17855,8.9483777)"
     id="g584">
    <rect
       x="-0.061700001"
       y="-7.0725002"
       width="0.1233"
       height="7.0725002"
       ry="0.039999999"
       fill="currentColor"
       id="rect582" />
  </g>
  <a
     style="color:inherit"
     xlink:href="textedit:///Users/tomsegarra/Documents/dev/dummies/lilypond_files/5eb49cf08a048d5404b5203c413a3acb.ly:20:59:60"
     id="a590"
     transform="translate(-2.27615,-3.2766223)">
    <g
       transform="translate(61.9521,5.85)"
       id="g588">
      <path
         transform="scale(0.0034,-0.0034)"
         d="m 215,137 c 67,0 111,-37 111,-92 0,-90 -111,-182 -215,-182 -67,0 -111,37 -111,92 0,90 111,182 215,182 z"
         fill="currentColor"
         id="path586" />
    </g>
  </a>
  <g
     transform="translate(59.73765,8.9483777)"
     id="g594">
    <rect
       x="-0.061700001"
       y="-6.2224998"
       width="0.1233"
       height="6.2224998"
       ry="0.039999999"
       fill="currentColor"
       id="rect592" />
  </g>
  <g
     transform="translate(58.73435,2.5733777)"
     id="g598">
    <path
       transform="scale(0.0034,-0.0034)"
       d="m -8,375 c 8,5 17,7 26,7 9,0 18,-2 26,-7 l -3,-187 104,21 h 4 c 10,0 18,-8 18,-18 l 7,-566 c -8,-5 -16,-7 -25,-7 -9,0 -18,2 -26,7 l 2,187 -103,-21 h -4 c -10,0 -18,8 -18,18 z M 130,111 40,93 l -3,-204 90,18 z"
       fill="currentColor"
       id="path596" />
  </g>
  <a
     style="color:inherit"
     xlink:href="textedit:///Users/tomsegarra/Documents/dev/dummies/lilypond_files/5eb49cf08a048d5404b5203c413a3acb.ly:20:61:62"
     id="a604"
     transform="translate(-2.27615,-3.2766223)">
    <g
       transform="translate(65.4595,5.425)"
       id="g602">
      <path
         transform="scale(0.0034,-0.0034)"
         d="m 215,137 c 67,0 111,-37 111,-92 0,-90 -111,-182 -215,-182 -67,0 -111,37 -111,92 0,90 111,182 215,182 z"
         fill="currentColor"
         id="path600" />
    </g>
  </a>
  <g
     transform="translate(63.24495,8.9483777)"
     id="g608">
    <rect
       x="-0.061700001"
       y="-6.6475"
       width="0.1233"
       height="6.6475"
       ry="0.039999999"
       fill="currentColor"
       id="rect606" />
  </g>
  <g
     transform="translate(70.25975,8.9483777)"
     id="g612">
    <rect
       x="-0.061700001"
       y="-7.4974999"
       width="0.1233"
       height="7.4974999"
       ry="0.039999999"
       fill="currentColor"
       id="rect610" />
  </g>
  <a
     style="color:inherit"
     xlink:href="textedit:///Users/tomsegarra/Documents/dev/dummies/lilypond_files/5eb49cf08a048d5404b5203c413a3acb.ly:20:63:64"
     id="a618"
     transform="translate(-2.27615,-3.2766223)">
    <g
       transform="translate(68.9669,5)"
       id="g616">
      <path
         transform="scale(0.0034,-0.0034)"
         d="m 215,137 c 67,0 111,-37 111,-92 0,-90 -111,-182 -215,-182 -67,0 -111,37 -111,92 0,90 111,182 215,182 z"
         fill="currentColor"
         id="path614" />
    </g>
  </a>
  <g
     transform="translate(66.75235,8.9483777)"
     id="g622">
    <rect
       x="-0.061700001"
       y="-7.0725002"
       width="0.1233"
       height="7.0725002"
       ry="0.039999999"
       fill="currentColor"
       id="rect620" />
  </g>
  <a
     style="color:inherit"
     xlink:href="textedit:///Users/tomsegarra/Documents/dev/dummies/lilypond_files/5eb49cf08a048d5404b5203c413a3acb.ly:20:65:66"
     id="a628"
     transform="translate(-2.27615,-3.2766223)">
    <g
       transform="translate(72.4742,4.575)"
       id="g626">
      <path
         transform="scale(0.0034,-0.0034)"
         d="m 215,137 c 67,0 111,-37 111,-92 0,-90 -111,-182 -215,-182 -67,0 -111,37 -111,92 0,90 111,182 215,182 z"
         fill="currentColor"
         id="path624" />
    </g>
  </a>
</svg>
