<?xml version="1.0" encoding="UTF-8" standalone="no"?>
<svg
   version="1.2"
   width="158.27028mm"
   height="11.861426mm"
   viewBox="0 0 90.0668 6.7498066"
   id="svg470"
   sodipodi:docname="6ec08279b38182de042b804fc729b824.svg"
   xmlns:inkscape="http://www.inkscape.org/namespaces/inkscape"
   xmlns:sodipodi="http://sodipodi.sourceforge.net/DTD/sodipodi-0.dtd"
   xmlns:xlink="http://www.w3.org/1999/xlink"
   xmlns="http://www.w3.org/2000/svg"
   xmlns:svg="http://www.w3.org/2000/svg">
  <defs
     id="defs474" />
  <sodipodi:namedview
     id="namedview472"
     pagecolor="#ffffff"
     bordercolor="#000000"
     borderopacity="0.25"
     inkscape:showpageshadow="2"
     inkscape:pageopacity="0.0"
     inkscape:pagecheckerboard="0"
     inkscape:deskcolor="#d1d1d1"
     inkscape:document-units="mm" />
  <style
     type="text/css"
     id="style2"><![CDATA[
tspan { white-space: pre; }
]]></style>
  <!-- Page: 1/1 -->
  <g
     transform="translate(4.9997121e-5,5.758447)"
     id="g6">
    <rect
       x="16.297001"
       y="-0.089900002"
       width="2.4807"
       height="0.17990001"
       ry="0.089900002"
       fill="currentColor"
       id="rect4" />
  </g>
  <g
     transform="translate(4.9997121e-5,5.758447)"
     id="g10">
    <rect
       x="8.7033997"
       y="-0.089900002"
       width="2.2421999"
       height="0.17990001"
       ry="0.089900002"
       fill="currentColor"
       id="rect8" />
  </g>
  <g
     transform="translate(4.9997121e-5,4.908447)"
     id="g14">
    <line
       stroke-linejoin="round"
       stroke-linecap="round"
       stroke-width="0.0949"
       stroke="currentColor"
       x1="0.047400001"
       y1="0"
       x2="90.019302"
       y2="0"
       id="line12" />
  </g>
  <g
     transform="translate(4.9997121e-5,4.058447)"
     id="g18">
    <line
       stroke-linejoin="round"
       stroke-linecap="round"
       stroke-width="0.0949"
       stroke="currentColor"
       x1="0.047400001"
       y1="0"
       x2="90.019302"
       y2="0"
       id="line16" />
  </g>
  <g
     transform="translate(4.9997121e-5,3.208447)"
     id="g22">
    <line
       stroke-linejoin="round"
       stroke-linecap="round"
       stroke-width="0.0949"
       stroke="currentColor"
       x1="0.047400001"
       y1="0"
       x2="90.019302"
       y2="0"
       id="line20" />
  </g>
  <g
     transform="translate(4.9997121e-5,2.358447)"
     id="g26">
    <line
       stroke-linejoin="round"
       stroke-linecap="round"
       stroke-width="0.0949"
       stroke="currentColor"
       x1="0.047400001"
       y1="0"
       x2="90.019302"
       y2="0"
       id="line24" />
  </g>
  <g
     transform="translate(4.9997121e-5,1.508447)"
     id="g30">
    <line
       stroke-linejoin="round"
       stroke-linecap="round"
       stroke-width="0.0949"
       stroke="currentColor"
       x1="0.047400001"
       y1="0"
       x2="90.019302"
       y2="0"
       id="line28" />
  </g>
  <g
     transform="translate(89.88655,3.208447)"
     id="g34">
    <rect
       x="0"
       y="-1.7"
       width="0.1802"
       height="3.4000001"
       ry="0.0000"
       fill="currentColor"
       id="rect32" />
  </g>
  <g
     transform="translate(77.71625,3.208447)"
     id="g38">
    <rect
       x="0"
       y="-1.7"
       width="0.1802"
       height="3.4000001"
       ry="0.0000"
       fill="currentColor"
       id="rect36" />
  </g>
  <g
     transform="translate(64.63945,3.208447)"
     id="g42">
    <rect
       x="0"
       y="-1.7"
       width="0.1802"
       height="3.4000001"
       ry="0.0000"
       fill="currentColor"
       id="rect40" />
  </g>
  <g
     transform="translate(51.49125,3.208447)"
     id="g46">
    <rect
       x="0"
       y="-1.7"
       width="0.1802"
       height="3.4000001"
       ry="0.0000"
       fill="currentColor"
       id="rect44" />
  </g>
  <g
     transform="translate(38.48595,3.208447)"
     id="g50">
    <rect
       x="0"
       y="-1.7"
       width="0.1802"
       height="3.4000001"
       ry="0.0000"
       fill="currentColor"
       id="rect48" />
  </g>
  <g
     transform="translate(30.29445,3.208447)"
     id="g54">
    <rect
       x="0"
       y="-1.7"
       width="0.1802"
       height="3.4000001"
       ry="0.0000"
       fill="currentColor"
       id="rect52" />
  </g>
  <g
     transform="translate(22.46235,3.208447)"
     id="g58">
    <rect
       x="0"
       y="-1.7"
       width="0.1802"
       height="3.4000001"
       ry="0.0000"
       fill="currentColor"
       id="rect56" />
  </g>
  <g
     transform="translate(14.63025,3.208447)"
     id="g62">
    <rect
       x="0"
       y="-1.7"
       width="0.1802"
       height="3.4000001"
       ry="0.0000"
       fill="currentColor"
       id="rect60" />
  </g>
  <a
     style="color:inherit"
     xlink:href="textedit:///Users/tomsegarra/Documents/dev/dummies/lilypond_files/6ec08279b38182de042b804fc729b824.ly:21:15:16"
     id="a68"
     transform="translate(-2.27615,-3.278253)">
    <g
       transform="translate(11.1546,7.7617)"
       id="g66">
      <path
         transform="scale(0.0034,-0.0034)"
         d="m 211,111 c -20,0 -68,-8 -68,-88 0,-100 89,-134 132,-134 20,0 68,8 68,88 0,100 -89,134 -132,134 z m 32,26 C 386,137 486,72 486,0 486,-72 386,-137 243,-137 100,-137 0,-72 0,0 0,72 100,137 243,137 Z"
         fill="currentColor"
         id="path64" />
    </g>
  </a>
  <g
     transform="translate(0.80005,4.058447)"
     id="g72">
    <path
       transform="scale(0.0034,-0.0034)"
       d="m 646,2 c 0,-113 -74,-213 -180,-247 3,-34 5,-68 5,-102 0,-20 -1,-40 -2,-60 -7,-121 -91,-228 -209,-228 -108,0 -196,87 -196,196 0,58 53,104 112,104 54,0 95,-48 95,-104 0,-52 -43,-95 -95,-95 -10,0 -20,2 -29,6 26,-38 68,-63 116,-63 h 3 c 93,2 153,92 159,190 1,19 2,37 2,56 0,30 -2,60 -4,90 -5,-1 -43,-8 -88,-8 -194,0 -333,180 -333,375 0,177 130,307 246,442 -31,98 -53,170 -53,347 0,115 55,223 148,290 7,5 16,4 22,-1 68,-80 134,-243 134,-357 0,-143 -85,-255 -178,-364 21,-68 40,-137 57,-206 1,0 5,1 11,1 C 545,264 646,135 646,2 Z M 462,-202 c 66,24 111,88 111,162 0,89 -65,178 -170,190 28,-135 50,-272 59,-352 z M 75,26 c 0,-145 141,-245 263,-245 1,0 46,0 81,6 -7,65 -27,206 -61,363 -79,-8 -124,-61 -124,-119 0,-43 25,-89 80,-121 5,-5 7,-11 7,-16 0,-12 -10,-23 -22,-23 -16,0 -127,63 -127,188 0,89 58,175 161,198 -14,58 -29,116 -46,173 C 181,308 75,186 75,26 Z M 406,1042 C 307,995 244,894 244,785 c 0,-49 13,-111 38,-191 79,97 144,199 144,324 0,33 0,63 -20,124 z"
       fill="currentColor"
       id="path70" />
  </g>
  <a
     style="color:inherit"
     xlink:href="textedit:///Users/tomsegarra/Documents/dev/dummies/lilypond_files/6ec08279b38182de042b804fc729b824.ly:20:1:9"
     id="a74"
     transform="translate(-2.27615,-3.278253)" />
  <g
     transform="translate(5.00005,3.208447)"
     id="g78">
    <path
       transform="scale(0.0034,-0.0034)"
       d="m 358,29 c -30,0 -74,23 -74,73 0,38 27,76 71,76 4,0 7,0 11,-1 -27,36 -69,59 -116,59 -106,0 -113,-74 -113,-188 0,-15 1,-31 1,-48 0,-17 -1,-33 -1,-48 0,-114 7,-188 113,-188 79,0 136,70 155,150 2,7 7,10 13,10 7,0 14,-5 14,-13 0,-21 -50,-175 -182,-175 C 191,-264 0,-244 0,0 0,63 18,264 250,264 365,264 424,155 424,99 424,60 394,29 358,29 Z"
       fill="currentColor"
       id="path76" />
  </g>
  <g
     transform="translate(7.84845,6.183447)"
     id="g82">
    <path
       transform="scale(0.0034,-0.0034)"
       d="m 29,39 -2,-64 v -11 c 0,-22 2,-43 5,-65 44,38 91,80 91,138 0,33 -13,66 -42,66 C 50,103 30,72 29,39 Z m -57,415 c 9,5 18,8 28,8 10,0 19,-3 28,-8 L 21,111 c 25,23 58,36 92,36 51,0 87,-49 87,-103 0,-79 -84,-117 -144,-169 -16,-14 -25,-41 -47,-41 -14,0 -25,13 -25,27 z"
       fill="currentColor"
       id="path80" />
  </g>
  <g
     transform="translate(45.07255,5.064947)"
     id="g86">
    <polygon
       stroke-linejoin="round"
       stroke-linecap="round"
       stroke-width="0.08"
       fill="currentColor"
       stroke="currentColor"
       points="0.04,0.164 0.04,-0.164 1.9907,-0.4771 1.9907,-0.1491 "
       id="polygon84" />
  </g>
  <g
     transform="translate(58.22075,5.064947)"
     id="g90">
    <polygon
       stroke-linejoin="round"
       stroke-linecap="round"
       stroke-width="0.08"
       fill="currentColor"
       stroke="currentColor"
       points="0.04,0.164 0.04,-0.164 1.9907,-0.4771 1.9907,-0.1491 "
       id="polygon88" />
  </g>
  <a
     style="color:inherit"
     xlink:href="textedit:///Users/tomsegarra/Documents/dev/dummies/lilypond_files/6ec08279b38182de042b804fc729b824.ly:21:18:19"
     id="a96"
     transform="translate(-2.27615,-3.278253)">
    <g
       transform="translate(18.9867,9.0367)"
       id="g94">
      <path
         transform="scale(0.0034,-0.0034)"
         d="m 211,111 c -20,0 -68,-8 -68,-88 0,-100 89,-134 132,-134 20,0 68,8 68,88 0,100 -89,134 -132,134 z m 32,26 C 386,137 486,72 486,0 486,-72 386,-137 243,-137 100,-137 0,-72 0,0 0,72 100,137 243,137 Z"
         fill="currentColor"
         id="path92" />
    </g>
  </a>
  <a
     style="color:inherit"
     xlink:href="textedit:///Users/tomsegarra/Documents/dev/dummies/lilypond_files/6ec08279b38182de042b804fc729b824.ly:21:18:19"
     id="a102"
     transform="translate(-2.27615,-3.278253)">
    <g
       transform="translate(18.9867,8.1867)"
       id="g100">
      <path
         transform="scale(0.0034,-0.0034)"
         d="m 211,111 c -20,0 -68,-8 -68,-88 0,-100 89,-134 132,-134 20,0 68,8 68,88 0,100 -89,134 -132,134 z m 32,26 C 386,137 486,72 486,0 486,-72 386,-137 243,-137 100,-137 0,-72 0,0 0,72 100,137 243,137 Z"
         fill="currentColor"
         id="path98" />
    </g>
  </a>
  <a
     style="color:inherit"
     xlink:href="textedit:///Users/tomsegarra/Documents/dev/dummies/lilypond_files/6ec08279b38182de042b804fc729b824.ly:21:18:19"
     id="a108"
     transform="translate(-2.27615,-3.278253)">
    <g
       transform="translate(18.9867,7.3367)"
       id="g106">
      <path
         transform="scale(0.0034,-0.0034)"
         d="m 211,111 c -20,0 -68,-8 -68,-88 0,-100 89,-134 132,-134 20,0 68,8 68,88 0,100 -89,134 -132,134 z m 32,26 C 386,137 486,72 486,0 486,-72 386,-137 243,-137 100,-137 0,-72 0,0 0,72 100,137 243,137 Z"
         fill="currentColor"
         id="path104" />
    </g>
  </a>
  <a
     style="color:inherit"
     xlink:href="textedit:///Users/tomsegarra/Documents/dev/dummies/lilypond_files/6ec08279b38182de042b804fc729b824.ly:21:15:16"
     id="a114"
     transform="translate(-2.27615,-3.278253)">
    <g
       transform="translate(11.1546,8.6117)"
       id="g112">
      <path
         transform="scale(0.0034,-0.0034)"
         d="m 211,111 c -20,0 -68,-8 -68,-88 0,-100 89,-134 132,-134 20,0 68,8 68,88 0,100 -89,134 -132,134 z m 32,26 C 386,137 486,72 486,0 486,-72 386,-137 243,-137 100,-137 0,-72 0,0 0,72 100,137 243,137 Z"
         fill="currentColor"
         id="path110" />
    </g>
  </a>
  <g
     transform="translate(71.29755,5.064947)"
     id="g118">
    <polygon
       stroke-linejoin="round"
       stroke-linecap="round"
       stroke-width="0.08"
       fill="currentColor"
       stroke="currentColor"
       points="0.04,0.164 0.04,-0.164 1.9907,-0.4771 1.9907,-0.1491 "
       id="polygon116" />
  </g>
  <a
     style="color:inherit"
     xlink:href="textedit:///Users/tomsegarra/Documents/dev/dummies/lilypond_files/6ec08279b38182de042b804fc729b824.ly:21:21:22"
     id="a124"
     transform="translate(-2.27615,-3.278253)">
    <g
       transform="translate(26.8187,8.6117)"
       id="g122">
      <path
         transform="scale(0.0034,-0.0034)"
         d="m 211,111 c -20,0 -68,-8 -68,-88 0,-100 89,-134 132,-134 20,0 68,8 68,88 0,100 -89,134 -132,134 z m 32,26 C 386,137 486,72 486,0 486,-72 386,-137 243,-137 100,-137 0,-72 0,0 0,72 100,137 243,137 Z"
         fill="currentColor"
         id="path120" />
    </g>
  </a>
  <a
     style="color:inherit"
     xlink:href="textedit:///Users/tomsegarra/Documents/dev/dummies/lilypond_files/6ec08279b38182de042b804fc729b824.ly:21:21:22"
     id="a130"
     transform="translate(-2.27615,-3.278253)">
    <g
       transform="translate(26.8187,7.7617)"
       id="g128">
      <path
         transform="scale(0.0034,-0.0034)"
         d="m 211,111 c -20,0 -68,-8 -68,-88 0,-100 89,-134 132,-134 20,0 68,8 68,88 0,100 -89,134 -132,134 z m 32,26 C 386,137 486,72 486,0 486,-72 386,-137 243,-137 100,-137 0,-72 0,0 0,72 100,137 243,137 Z"
         fill="currentColor"
         id="path126" />
    </g>
  </a>
  <a
     style="color:inherit"
     xlink:href="textedit:///Users/tomsegarra/Documents/dev/dummies/lilypond_files/6ec08279b38182de042b804fc729b824.ly:21:21:22"
     id="a136"
     transform="translate(-2.27615,-3.278253)">
    <g
       transform="translate(26.8187,6.9117)"
       id="g134">
      <path
         transform="scale(0.0034,-0.0034)"
         d="m 211,111 c -20,0 -68,-8 -68,-88 0,-100 89,-134 132,-134 20,0 68,8 68,88 0,100 -89,134 -132,134 z m 32,26 C 386,137 486,72 486,0 486,-72 386,-137 243,-137 100,-137 0,-72 0,0 0,72 100,137 243,137 Z"
         fill="currentColor"
         id="path132" />
    </g>
  </a>
  <a
     style="color:inherit"
     xlink:href="textedit:///Users/tomsegarra/Documents/dev/dummies/lilypond_files/6ec08279b38182de042b804fc729b824.ly:21:15:16"
     id="a142"
     transform="translate(-2.27615,-3.278253)">
    <g
       transform="translate(11.1546,9.4617)"
       id="g140">
      <path
         transform="scale(0.0034,-0.0034)"
         d="m 211,111 c -20,0 -68,-8 -68,-88 0,-100 89,-134 132,-134 20,0 68,8 68,88 0,100 -89,134 -132,134 z m 32,26 C 386,137 486,72 486,0 486,-72 386,-137 243,-137 100,-137 0,-72 0,0 0,72 100,137 243,137 Z"
         fill="currentColor"
         id="path138" />
    </g>
  </a>
  <g
     transform="translate(23.25755,4.483447)"
     id="g146">
    <path
       transform="scale(0.0034,-0.0034)"
       d="m 217,-311 c 0,-11 -8,-19 -19,-19 -11,0 -20,8 -20,19 v 142 l -81,-30 v -156 c 0,-11 -9,-20 -20,-20 -11,0 -19,9 -19,20 v 142 l -28,-11 c -3,-1 -5,-1 -8,-1 -12,0 -22,10 -22,23 v 57 c 0,9 6,18 15,21 l 43,16 V 49 L 30,39 C 27,38 25,38 22,38 10,38 0,47 0,60 v 57 c 0,9 6,18 15,21 l 43,16 v 157 c 0,11 8,19 19,19 11,0 20,-8 20,-19 V 169 l 81,30 v 156 c 0,11 9,20 20,20 11,0 19,-9 19,-20 V 213 l 28,11 c 3,1 5,1 8,1 12,0 22,-10 22,-23 v -57 c 0,-9 -6,-18 -15,-21 L 217,108 V -49 l 28,10 c 3,1 5,1 8,1 12,0 22,-9 22,-22 v -57 c 0,-9 -6,-18 -15,-21 l -43,-16 z M 97,64 V -94 l 81,30 V 94 Z"
       fill="currentColor"
       id="path144" />
  </g>
  <a
     style="color:inherit"
     xlink:href="textedit:///Users/tomsegarra/Documents/dev/dummies/lilypond_files/6ec08279b38182de042b804fc729b824.ly:21:24:25"
     id="a152"
     transform="translate(-2.27615,-3.278253)">
    <g
       transform="translate(35.0103,8.1867)"
       id="g150">
      <path
         transform="scale(0.0034,-0.0034)"
         d="m 211,111 c -20,0 -68,-8 -68,-88 0,-100 89,-134 132,-134 20,0 68,8 68,88 0,100 -89,134 -132,134 z m 32,26 C 386,137 486,72 486,0 486,-72 386,-137 243,-137 100,-137 0,-72 0,0 0,72 100,137 243,137 Z"
         fill="currentColor"
         id="path148" />
    </g>
  </a>
  <a
     style="color:inherit"
     xlink:href="textedit:///Users/tomsegarra/Documents/dev/dummies/lilypond_files/6ec08279b38182de042b804fc729b824.ly:21:24:25"
     id="a158"
     transform="translate(-2.27615,-3.278253)">
    <g
       transform="translate(35.0103,7.3367)"
       id="g156">
      <path
         transform="scale(0.0034,-0.0034)"
         d="m 211,111 c -20,0 -68,-8 -68,-88 0,-100 89,-134 132,-134 20,0 68,8 68,88 0,100 -89,134 -132,134 z m 32,26 C 386,137 486,72 486,0 486,-72 386,-137 243,-137 100,-137 0,-72 0,0 0,72 100,137 243,137 Z"
         fill="currentColor"
         id="path154" />
    </g>
  </a>
  <a
     style="color:inherit"
     xlink:href="textedit:///Users/tomsegarra/Documents/dev/dummies/lilypond_files/6ec08279b38182de042b804fc729b824.ly:21:24:25"
     id="a164"
     transform="translate(-2.27615,-3.278253)">
    <g
       transform="translate(35.0103,6.4867)"
       id="g162">
      <path
         transform="scale(0.0034,-0.0034)"
         d="m 211,111 c -20,0 -68,-8 -68,-88 0,-100 89,-134 132,-134 20,0 68,8 68,88 0,100 -89,134 -132,134 z m 32,26 C 386,137 486,72 486,0 486,-72 386,-137 243,-137 100,-137 0,-72 0,0 0,72 100,137 243,137 Z"
         fill="currentColor"
         id="path160" />
    </g>
  </a>
  <g
     transform="translate(31.18485,4.908447)"
     id="g168">
    <path
       transform="scale(0.0034,-0.0034)"
       d="m 29,39 -2,-64 v -11 c 0,-22 2,-43 5,-65 44,38 91,80 91,138 0,33 -13,66 -42,66 C 50,103 30,72 29,39 Z m -57,415 c 9,5 18,8 28,8 10,0 19,-3 28,-8 L 21,111 c 25,23 58,36 92,36 51,0 87,-49 87,-103 0,-79 -84,-117 -144,-169 -16,-14 -25,-41 -47,-41 -14,0 -25,13 -25,27 z"
       fill="currentColor"
       id="path166" />
  </g>
  <g
     transform="translate(31.70415,3.208447)"
     id="g172">
    <path
       transform="scale(0.0034,-0.0034)"
       d="m 29,39 -2,-64 v -11 c 0,-22 2,-43 5,-65 44,38 91,80 91,138 0,33 -13,66 -42,66 C 50,103 30,72 29,39 Z m -57,415 c 9,5 18,8 28,8 10,0 19,-3 28,-8 L 21,111 c 25,23 58,36 92,36 51,0 87,-49 87,-103 0,-79 -84,-117 -144,-169 -16,-14 -25,-41 -47,-41 -14,0 -25,13 -25,27 z"
       fill="currentColor"
       id="path170" />
  </g>
  <g
     color="#ff0000"
     id="g180"
     transform="translate(-2.27615,-3.278253)">
    <a
       style="color:inherit"
       xlink:href="textedit:///Users/tomsegarra/Documents/dev/dummies/lilypond_files/6ec08279b38182de042b804fc729b824.ly:24:4:5"
       id="a178">
      <g
         transform="translate(41.8423,6.9117)"
         id="g176">
        <path
           transform="scale(0.0034,-0.0034)"
           d="m 215,137 c 67,0 111,-37 111,-92 0,-90 -111,-182 -215,-182 -67,0 -111,37 -111,92 0,90 111,182 215,182 z"
           fill="currentColor"
           id="path174" />
      </g>
    </a>
  </g>
  <g
     transform="translate(41.05265,3.633447)"
     id="g184">
    <path
       transform="scale(0.0034,-0.0034)"
       d="M 0,0 C 0,31 25,56 56,56 87,56 111,31 111,0 111,-31 87,-56 56,-56 25,-56 0,-31 0,0 Z"
       fill="currentColor"
       id="path182" />
  </g>
  <g
     color="#ff0000"
     id="g190"
     transform="translate(-2.27615,-3.278253)">
    <g
       transform="translate(42.8881,6.4867)"
       id="g188">
      <rect
         x="-0.061700001"
         y="-2.55"
         width="0.1233"
         height="2.8225"
         ry="0.039999999"
         fill="currentColor"
         id="rect186" />
    </g>
  </g>
  <g
     color="#ff0000"
     id="g198"
     transform="translate(-2.27615,-3.278253)">
    <a
       style="color:inherit"
       xlink:href="textedit:///Users/tomsegarra/Documents/dev/dummies/lilypond_files/6ec08279b38182de042b804fc729b824.ly:24:18:19"
       id="a196">
      <g
         transform="translate(51.1635,5.6367)"
         id="g194">
        <path
           transform="scale(0.0034,-0.0034)"
           d="m 215,137 c 67,0 111,-37 111,-92 0,-90 -111,-182 -215,-182 -67,0 -111,37 -111,92 0,90 111,182 215,182 z"
           fill="currentColor"
           id="path192" />
      </g>
    </a>
  </g>
  <g
     color="#ff0000"
     id="g206"
     transform="translate(-2.27615,-3.278253)">
    <a
       style="color:inherit"
       xlink:href="textedit:///Users/tomsegarra/Documents/dev/dummies/lilypond_files/6ec08279b38182de042b804fc729b824.ly:24:9:10"
       id="a204">
      <g
         transform="translate(45.4413,6.0617)"
         id="g202">
        <path
           transform="scale(0.0034,-0.0034)"
           d="m 215,137 c 67,0 111,-37 111,-92 0,-90 -111,-182 -215,-182 -67,0 -111,37 -111,92 0,90 111,182 215,182 z"
           fill="currentColor"
           id="path200" />
      </g>
    </a>
  </g>
  <g
     color="#ff0000"
     id="g212"
     transform="translate(-2.27615,-3.278253)">
    <g
       transform="translate(45.503,6.4867)"
       id="g210">
      <rect
         x="-0.061700001"
         y="-0.27250001"
         width="0.1233"
         height="2.8225"
         ry="0.039999999"
         fill="currentColor"
         id="rect208" />
    </g>
  </g>
  <g
     color="#ff0000"
     id="g218"
     transform="translate(-2.27615,-3.278253)">
    <g
       transform="translate(45.5646,8.9967)"
       id="g216">
      <path
         transform="scale(0.0034,-0.0034)"
         d="M 0,0 H -18 V 250 H 0 Z m 0,0 v 250 c 96,59 222,149 222,259 0,57 -15,111 -40,162 -3,17 10,29 24,29 8,0 16,-5 21,-13 25,-56 40,-116 40,-178 C 267,306 0,203 0,0 Z"
         fill="currentColor"
         id="path214" />
    </g>
  </g>
  <g
     color="#ff0000"
     id="g226"
     transform="translate(-2.27615,-3.278253)">
    <a
       style="color:inherit"
       xlink:href="textedit:///Users/tomsegarra/Documents/dev/dummies/lilypond_files/6ec08279b38182de042b804fc729b824.ly:24:12:13"
       id="a224">
      <g
         transform="translate(47.3487,5.6367)"
         id="g222">
        <path
           transform="scale(0.0034,-0.0034)"
           d="m 215,137 c 67,0 111,-37 111,-92 0,-90 -111,-182 -215,-182 -67,0 -111,37 -111,92 0,90 111,182 215,182 z"
           fill="currentColor"
           id="path220" />
      </g>
    </a>
  </g>
  <g
     color="#ff0000"
     id="g232"
     transform="translate(-2.27615,-3.278253)">
    <g
       transform="translate(47.4104,6.4867)"
       id="g230">
      <rect
         x="-0.061700001"
         y="-0.69749999"
         width="0.1233"
         height="2.5446"
         ry="0.039999999"
         fill="currentColor"
         id="rect228" />
    </g>
  </g>
  <g
     color="#ff0000"
     id="g240"
     transform="translate(-2.27615,-3.278253)">
    <a
       style="color:inherit"
       xlink:href="textedit:///Users/tomsegarra/Documents/dev/dummies/lilypond_files/6ec08279b38182de042b804fc729b824.ly:24:14:15"
       id="a238">
      <g
         transform="translate(49.2561,5.2117)"
         id="g236">
        <path
           transform="scale(0.0034,-0.0034)"
           d="m 215,137 c 67,0 111,-37 111,-92 0,-90 -111,-182 -215,-182 -67,0 -111,37 -111,92 0,90 111,182 215,182 z"
           fill="currentColor"
           id="path234" />
      </g>
    </a>
  </g>
  <g
     color="#ff0000"
     id="g246"
     transform="translate(-2.27615,-3.278253)">
    <g
       transform="translate(49.3177,6.4867)"
       id="g244">
      <rect
         x="-0.061700001"
         y="-1.1224999"
         width="0.1233"
         height="2.6754999"
         ry="0.039999999"
         fill="currentColor"
         id="rect242" />
    </g>
  </g>
  <g
     color="#ff0000"
     id="g252"
     transform="translate(-2.27615,-3.278253)">
    <g
       transform="translate(51.2251,6.4867)"
       id="g250">
      <rect
         x="-0.061700001"
         y="-0.69749999"
         width="0.1233"
         height="2.8225"
         ry="0.039999999"
         fill="currentColor"
         id="rect248" />
    </g>
  </g>
  <g
     color="#000000"
     id="g260"
     transform="translate(-2.27615,-3.278253)">
    <a
       style="color:inherit"
       xlink:href="textedit:///Users/tomsegarra/Documents/dev/dummies/lilypond_files/6ec08279b38182de042b804fc729b824.ly:27:4:5"
       id="a258">
      <g
         transform="translate(54.8477,7.7617)"
         id="g256">
        <path
           transform="scale(0.0034,-0.0034)"
           d="m 215,137 c 67,0 111,-37 111,-92 0,-90 -111,-182 -215,-182 -67,0 -111,37 -111,92 0,90 111,182 215,182 z"
           fill="currentColor"
           id="path254" />
      </g>
    </a>
  </g>
  <g
     transform="translate(54.05795,4.483447)"
     id="g264">
    <path
       transform="scale(0.0034,-0.0034)"
       d="M 0,0 C 0,31 25,56 56,56 87,56 111,31 111,0 111,-31 87,-56 56,-56 25,-56 0,-31 0,0 Z"
       fill="currentColor"
       id="path262" />
  </g>
  <g
     color="#000000"
     id="g270"
     transform="translate(-2.27615,-3.278253)">
    <g
       transform="translate(55.8934,6.4867)"
       id="g268">
      <rect
         x="-0.061700001"
         y="-1.7"
         width="0.1233"
         height="2.8225"
         ry="0.039999999"
         fill="currentColor"
         id="rect266" />
    </g>
  </g>
  <g
     color="#000000"
     id="g278"
     transform="translate(-2.27615,-3.278253)">
    <a
       style="color:inherit"
       xlink:href="textedit:///Users/tomsegarra/Documents/dev/dummies/lilypond_files/6ec08279b38182de042b804fc729b824.ly:27:9:10"
       id="a276">
      <g
         transform="translate(58.5895,6.0617)"
         id="g274">
        <path
           transform="scale(0.0034,-0.0034)"
           d="m 215,137 c 67,0 111,-37 111,-92 0,-90 -111,-182 -215,-182 -67,0 -111,37 -111,92 0,90 111,182 215,182 z"
           fill="currentColor"
           id="path272" />
      </g>
    </a>
  </g>
  <g
     color="#000000"
     id="g284"
     transform="translate(-2.27615,-3.278253)">
    <g
       transform="translate(58.6512,6.4867)"
       id="g282">
      <rect
         x="-0.061700001"
         y="-0.27250001"
         width="0.1233"
         height="2.8225"
         ry="0.039999999"
         fill="currentColor"
         id="rect280" />
    </g>
  </g>
  <g
     color="#000000"
     id="g290"
     transform="translate(-2.27615,-3.278253)">
    <g
       transform="translate(58.7128,8.9967)"
       id="g288">
      <path
         transform="scale(0.0034,-0.0034)"
         d="M 0,0 H -18 V 250 H 0 Z m 0,0 v 250 c 96,59 222,149 222,259 0,57 -15,111 -40,162 -3,17 10,29 24,29 8,0 16,-5 21,-13 25,-56 40,-116 40,-178 C 267,306 0,203 0,0 Z"
         fill="currentColor"
         id="path286" />
    </g>
  </g>
  <g
     color="#000000"
     id="g296"
     transform="translate(-2.27615,-3.278253)">
    <g
       transform="translate(89.6561,6.4867)"
       id="g294">
      <rect
         x="-0.061700001"
         y="-1.1224999"
         width="0.1233"
         height="2.8225"
         ry="0.039999999"
         fill="currentColor"
         id="rect292" />
    </g>
  </g>
  <g
     color="#000000"
     id="g304"
     transform="translate(-2.27615,-3.278253)">
    <a
       style="color:inherit"
       xlink:href="textedit:///Users/tomsegarra/Documents/dev/dummies/lilypond_files/6ec08279b38182de042b804fc729b824.ly:27:13:14"
       id="a302">
      <g
         transform="translate(60.4969,5.6367)"
         id="g300">
        <path
           transform="scale(0.0034,-0.0034)"
           d="m 215,137 c 67,0 111,-37 111,-92 0,-90 -111,-182 -215,-182 -67,0 -111,37 -111,92 0,90 111,182 215,182 z"
           fill="currentColor"
           id="path298" />
      </g>
    </a>
  </g>
  <g
     color="#000000"
     id="g310"
     transform="translate(-2.27615,-3.278253)">
    <g
       transform="translate(60.5586,6.4867)"
       id="g308">
      <rect
         x="-0.061700001"
         y="-0.69749999"
         width="0.1233"
         height="2.5446"
         ry="0.039999999"
         fill="currentColor"
         id="rect306" />
    </g>
  </g>
  <g
     color="#000000"
     id="g318"
     transform="translate(-2.27615,-3.278253)">
    <a
       style="color:inherit"
       xlink:href="textedit:///Users/tomsegarra/Documents/dev/dummies/lilypond_files/6ec08279b38182de042b804fc729b824.ly:33:12:13"
       id="a316">
      <g
         transform="translate(89.5945,5.2117)"
         id="g314">
        <path
           transform="scale(0.0034,-0.0034)"
           d="m 215,137 c 67,0 111,-37 111,-92 0,-90 -111,-182 -215,-182 -67,0 -111,37 -111,92 0,90 111,182 215,182 z"
           fill="currentColor"
           id="path312" />
      </g>
    </a>
  </g>
  <g
     color="#000000"
     id="g326"
     transform="translate(-2.27615,-3.278253)">
    <a
       style="color:inherit"
       xlink:href="textedit:///Users/tomsegarra/Documents/dev/dummies/lilypond_files/6ec08279b38182de042b804fc729b824.ly:27:15:16"
       id="a324">
      <g
         transform="translate(62.4043,5.2117)"
         id="g322">
        <path
           transform="scale(0.0034,-0.0034)"
           d="m 215,137 c 67,0 111,-37 111,-92 0,-90 -111,-182 -215,-182 -67,0 -111,37 -111,92 0,90 111,182 215,182 z"
           fill="currentColor"
           id="path320" />
      </g>
    </a>
  </g>
  <g
     color="#000000"
     id="g332"
     transform="translate(-2.27615,-3.278253)">
    <g
       transform="translate(62.4659,6.4867)"
       id="g330">
      <rect
         x="-0.061700001"
         y="-1.1224999"
         width="0.1233"
         height="2.6754999"
         ry="0.039999999"
         fill="currentColor"
         id="rect328" />
    </g>
  </g>
  <g
     color="#000000"
     id="g340"
     transform="translate(-2.27615,-3.278253)">
    <a
       style="color:inherit"
       xlink:href="textedit:///Users/tomsegarra/Documents/dev/dummies/lilypond_files/6ec08279b38182de042b804fc729b824.ly:27:19:20"
       id="a338">
      <g
         transform="translate(64.3117,5.6367)"
         id="g336">
        <path
           transform="scale(0.0034,-0.0034)"
           d="m 215,137 c 67,0 111,-37 111,-92 0,-90 -111,-182 -215,-182 -67,0 -111,37 -111,92 0,90 111,182 215,182 z"
           fill="currentColor"
           id="path334" />
      </g>
    </a>
  </g>
  <g
     color="#000000"
     id="g346"
     transform="translate(-2.27615,-3.278253)">
    <g
       transform="translate(64.3733,6.4867)"
       id="g344">
      <rect
         x="-0.061700001"
         y="-0.69749999"
         width="0.1233"
         height="2.8225"
         ry="0.039999999"
         fill="currentColor"
         id="rect342" />
    </g>
  </g>
  <g
     color="#000000"
     id="g354"
     transform="translate(-2.27615,-3.278253)">
    <a
       style="color:inherit"
       xlink:href="textedit:///Users/tomsegarra/Documents/dev/dummies/lilypond_files/6ec08279b38182de042b804fc729b824.ly:27:24:25"
       id="a352">
      <g
         transform="translate(67.9959,7.3367)"
         id="g350">
        <path
           transform="scale(0.0034,-0.0034)"
           d="m 215,137 c 67,0 111,-37 111,-92 0,-90 -111,-182 -215,-182 -67,0 -111,37 -111,92 0,90 111,182 215,182 z"
           fill="currentColor"
           id="path348" />
      </g>
    </a>
  </g>
  <g
     transform="translate(67.20615,3.633447)"
     id="g358">
    <path
       transform="scale(0.0034,-0.0034)"
       d="M 0,0 C 0,31 25,56 56,56 87,56 111,31 111,0 111,-31 87,-56 56,-56 25,-56 0,-31 0,0 Z"
       fill="currentColor"
       id="path356" />
  </g>
  <g
     color="#000000"
     id="g364"
     transform="translate(-2.27615,-3.278253)">
    <g
       transform="translate(69.0416,6.4867)"
       id="g362">
      <rect
         x="-0.061700001"
         y="-2.125"
         width="0.1233"
         height="2.8225"
         ry="0.039999999"
         fill="currentColor"
         id="rect360" />
    </g>
  </g>
  <g
     color="#000000"
     id="g370"
     transform="translate(-2.27615,-3.278253)">
    <g
       transform="translate(86.8507,6.4867)"
       id="g368">
      <rect
         x="-0.061700001"
         y="-0.69749999"
         width="0.1233"
         height="2.8225"
         ry="0.039999999"
         fill="currentColor"
         id="rect366" />
    </g>
  </g>
  <g
     color="#ff0000"
     id="g378"
     transform="translate(-2.27615,-3.278253)">
    <a
       style="color:inherit"
       xlink:href="textedit:///Users/tomsegarra/Documents/dev/dummies/lilypond_files/6ec08279b38182de042b804fc729b824.ly:30:4:5"
       id="a376">
      <g
         transform="translate(71.6663,6.0617)"
         id="g374">
        <path
           transform="scale(0.0034,-0.0034)"
           d="m 215,137 c 67,0 111,-37 111,-92 0,-90 -111,-182 -215,-182 -67,0 -111,37 -111,92 0,90 111,182 215,182 z"
           fill="currentColor"
           id="path372" />
      </g>
    </a>
  </g>
  <g
     color="#ff0000"
     id="g384"
     transform="translate(-2.27615,-3.278253)">
    <g
       transform="translate(71.7279,6.4867)"
       id="g382">
      <rect
         x="-0.061700001"
         y="-0.27250001"
         width="0.1233"
         height="2.8225"
         ry="0.039999999"
         fill="currentColor"
         id="rect380" />
    </g>
  </g>
  <g
     color="#ff0000"
     id="g390"
     transform="translate(-2.27615,-3.278253)">
    <g
       transform="translate(71.7896,8.9967)"
       id="g388">
      <path
         transform="scale(0.0034,-0.0034)"
         d="M 0,0 H -18 V 250 H 0 Z m 0,0 v 250 c 96,59 222,149 222,259 0,57 -15,111 -40,162 -3,17 10,29 24,29 8,0 16,-5 21,-13 25,-56 40,-116 40,-178 C 267,306 0,203 0,0 Z"
         fill="currentColor"
         id="path386" />
    </g>
  </g>
  <g
     color="#000000"
     id="g398"
     transform="translate(-2.27615,-3.278253)">
    <a
       style="color:inherit"
       xlink:href="textedit:///Users/tomsegarra/Documents/dev/dummies/lilypond_files/6ec08279b38182de042b804fc729b824.ly:33:10:11"
       id="a396">
      <g
         transform="translate(86.7891,5.6367)"
         id="g394">
        <path
           transform="scale(0.0034,-0.0034)"
           d="m 215,137 c 67,0 111,-37 111,-92 0,-90 -111,-182 -215,-182 -67,0 -111,37 -111,92 0,90 111,182 215,182 z"
           fill="currentColor"
           id="path392" />
      </g>
    </a>
  </g>
  <g
     color="#ff0000"
     id="g406"
     transform="translate(-2.27615,-3.278253)">
    <a
       style="color:inherit"
       xlink:href="textedit:///Users/tomsegarra/Documents/dev/dummies/lilypond_files/6ec08279b38182de042b804fc729b824.ly:30:7:8"
       id="a404">
      <g
         transform="translate(73.5737,5.6367)"
         id="g402">
        <path
           transform="scale(0.0034,-0.0034)"
           d="m 215,137 c 67,0 111,-37 111,-92 0,-90 -111,-182 -215,-182 -67,0 -111,37 -111,92 0,90 111,182 215,182 z"
           fill="currentColor"
           id="path400" />
      </g>
    </a>
  </g>
  <g
     color="#ff0000"
     id="g412"
     transform="translate(-2.27615,-3.278253)">
    <g
       transform="translate(73.6353,6.4867)"
       id="g410">
      <rect
         x="-0.061700001"
         y="-0.69749999"
         width="0.1233"
         height="2.5446"
         ry="0.039999999"
         fill="currentColor"
         id="rect408" />
    </g>
  </g>
  <g
     color="#ff0000"
     id="g420"
     transform="translate(-2.27615,-3.278253)">
    <a
       style="color:inherit"
       xlink:href="textedit:///Users/tomsegarra/Documents/dev/dummies/lilypond_files/6ec08279b38182de042b804fc729b824.ly:30:9:10"
       id="a418">
      <g
         transform="translate(75.481,5.2117)"
         id="g416">
        <path
           transform="scale(0.0034,-0.0034)"
           d="m 215,137 c 67,0 111,-37 111,-92 0,-90 -111,-182 -215,-182 -67,0 -111,37 -111,92 0,90 111,182 215,182 z"
           fill="currentColor"
           id="path414" />
      </g>
    </a>
  </g>
  <g
     color="#ff0000"
     id="g426"
     transform="translate(-2.27615,-3.278253)">
    <g
       transform="translate(75.5427,6.4867)"
       id="g424">
      <rect
         x="-0.061700001"
         y="-1.1224999"
         width="0.1233"
         height="2.6754999"
         ry="0.039999999"
         fill="currentColor"
         id="rect422" />
    </g>
  </g>
  <g
     color="#ff0000"
     id="g434"
     transform="translate(-2.27615,-3.278253)">
    <a
       style="color:inherit"
       xlink:href="textedit:///Users/tomsegarra/Documents/dev/dummies/lilypond_files/6ec08279b38182de042b804fc729b824.ly:30:13:14"
       id="a432">
      <g
         transform="translate(77.3884,5.6367)"
         id="g430">
        <path
           transform="scale(0.0034,-0.0034)"
           d="m 215,137 c 67,0 111,-37 111,-92 0,-90 -111,-182 -215,-182 -67,0 -111,37 -111,92 0,90 111,182 215,182 z"
           fill="currentColor"
           id="path428" />
      </g>
    </a>
  </g>
  <g
     color="#ff0000"
     id="g440"
     transform="translate(-2.27615,-3.278253)">
    <g
       transform="translate(77.4501,6.4867)"
       id="g438">
      <rect
         x="-0.061700001"
         y="-0.69749999"
         width="0.1233"
         height="2.8225"
         ry="0.039999999"
         fill="currentColor"
         id="rect436" />
    </g>
  </g>
  <g
     color="#000000"
     id="g446"
     transform="translate(-2.27615,-3.278253)">
    <g
       transform="translate(84.0453,6.4867)"
       id="g444">
      <rect
         x="-0.061700001"
         y="-0.27250001"
         width="0.1233"
         height="2.8225"
         ry="0.039999999"
         fill="currentColor"
         id="rect442" />
    </g>
  </g>
  <g
     color="#000000"
     id="g454"
     transform="translate(-2.27615,-3.278253)">
    <a
       style="color:inherit"
       xlink:href="textedit:///Users/tomsegarra/Documents/dev/dummies/lilypond_files/6ec08279b38182de042b804fc729b824.ly:33:4:5"
       id="a452">
      <g
         transform="translate(81.1782,6.4867)"
         id="g450">
        <path
           transform="scale(0.0034,-0.0034)"
           d="m 215,137 c 67,0 111,-37 111,-92 0,-90 -111,-182 -215,-182 -67,0 -111,37 -111,92 0,90 111,182 215,182 z"
           fill="currentColor"
           id="path448" />
      </g>
    </a>
  </g>
  <g
     color="#000000"
     id="g460"
     transform="translate(-2.27615,-3.278253)">
    <g
       transform="translate(81.2398,6.4867)"
       id="g458">
      <rect
         x="-0.061700001"
         y="0.1525"
         width="0.1233"
         height="2.6809001"
         ry="0.039999999"
         fill="currentColor"
         id="rect456" />
    </g>
  </g>
  <g
     color="#000000"
     id="g468"
     transform="translate(-2.27615,-3.278253)">
    <a
       style="color:inherit"
       xlink:href="textedit:///Users/tomsegarra/Documents/dev/dummies/lilypond_files/6ec08279b38182de042b804fc729b824.ly:33:8:9"
       id="a466">
      <g
         transform="translate(83.9836,6.0617)"
         id="g464">
        <path
           transform="scale(0.0034,-0.0034)"
           d="m 215,137 c 67,0 111,-37 111,-92 0,-90 -111,-182 -215,-182 -67,0 -111,37 -111,92 0,90 111,182 215,182 z"
           fill="currentColor"
           id="path462" />
      </g>
    </a>
  </g>
</svg>
