<?xml version="1.0" encoding="UTF-8" standalone="no"?>
<svg
   version="1.2"
   width="129.51851mm"
   height="10.206965mm"
   viewBox="0 0 73.704112 5.808327"
   id="svg410"
   sodipodi:docname="77f67d303b50d3a0533dc263782f2f0f.svg"
   xmlns:inkscape="http://www.inkscape.org/namespaces/inkscape"
   xmlns:sodipodi="http://sodipodi.sourceforge.net/DTD/sodipodi-0.dtd"
   xmlns:xlink="http://www.w3.org/1999/xlink"
   xmlns="http://www.w3.org/2000/svg"
   xmlns:svg="http://www.w3.org/2000/svg">
  <defs
     id="defs414" />
  <sodipodi:namedview
     id="namedview412"
     pagecolor="#ffffff"
     bordercolor="#000000"
     borderopacity="0.25"
     inkscape:showpageshadow="2"
     inkscape:pageopacity="0.0"
     inkscape:pagecheckerboard="0"
     inkscape:deskcolor="#d1d1d1"
     inkscape:document-units="mm" />
  <style
     type="text/css"
     id="style2"><![CDATA[
tspan { white-space: pre; }
]]></style>
  <!-- Page: 1/1 -->
  <g
     transform="translate(73.523913,2.9739394)"
     id="g6">
    <rect
       x="0"
       y="-1.7"
       width="0.1802"
       height="3.4000001"
       ry="0.0000"
       fill="currentColor"
       id="rect4" />
  </g>
  <g
     transform="translate(61.329313,2.9739394)"
     id="g10">
    <rect
       x="0"
       y="-1.7"
       width="0.1802"
       height="3.4000001"
       ry="0.0000"
       fill="currentColor"
       id="rect8" />
  </g>
  <g
     transform="translate(48.288213,2.9739394)"
     id="g14">
    <rect
       x="0"
       y="-1.7"
       width="0.1802"
       height="3.4000001"
       ry="0.0000"
       fill="currentColor"
       id="rect12" />
  </g>
  <g
     transform="translate(35.175713,2.9739394)"
     id="g18">
    <rect
       x="0"
       y="-1.7"
       width="0.1802"
       height="3.4000001"
       ry="0.0000"
       fill="currentColor"
       id="rect16" />
  </g>
  <g
     transform="translate(13.045313,4.6739394)"
     id="g22">
    <line
       stroke-linejoin="round"
       stroke-linecap="round"
       stroke-width="0.0949"
       stroke="currentColor"
       x1="0.047400001"
       y1="0"
       x2="60.611301"
       y2="0"
       id="line20" />
  </g>
  <g
     transform="translate(13.045313,3.8239394)"
     id="g26">
    <line
       stroke-linejoin="round"
       stroke-linecap="round"
       stroke-width="0.0949"
       stroke="currentColor"
       x1="0.047400001"
       y1="0"
       x2="60.611301"
       y2="0"
       id="line24" />
  </g>
  <g
     transform="translate(13.045313,2.9739394)"
     id="g30">
    <line
       stroke-linejoin="round"
       stroke-linecap="round"
       stroke-width="0.0949"
       stroke="currentColor"
       x1="0.047400001"
       y1="0"
       x2="60.611301"
       y2="0"
       id="line28" />
  </g>
  <g
     transform="translate(13.045313,2.1239394)"
     id="g34">
    <line
       stroke-linejoin="round"
       stroke-linecap="round"
       stroke-width="0.0949"
       stroke="currentColor"
       x1="0.047400001"
       y1="0"
       x2="60.611301"
       y2="0"
       id="line32" />
  </g>
  <g
     transform="translate(13.045313,1.2739394)"
     id="g38">
    <line
       stroke-linejoin="round"
       stroke-linecap="round"
       stroke-width="0.0949"
       stroke="currentColor"
       x1="0.047400001"
       y1="0"
       x2="60.611301"
       y2="0"
       id="line36" />
  </g>
  <g
     transform="translate(15.489513,2.9739394)"
     id="g42">
    <rect
       x="0"
       y="-1.7"
       width="0.1802"
       height="3.4000001"
       ry="0.0000"
       fill="currentColor"
       id="rect40" />
  </g>
  <a
     style="color:inherit"
     xlink:href="textedit:///Users/tomsegarra/Documents/dev/dummies/lilypond_files/77f67d303b50d3a0533dc263782f2f0f.ly:19:12:13"
     id="a54"
     transform="translate(-2.9933875,-3.2772606)">
    <g
       transform="translate(2.7762,5.2872)"
       id="g48">
      <text
         font-family="sans-serif"
         font-size="2.224px"
         text-anchor="start"
         fill="currentColor"
         id="text46"><tspan
           id="tspan44">B</tspan></text>
    </g>
    <g
       transform="translate(4.5242,4.9872)"
       id="g52">
      <path
         transform="scale(0.0036,-0.0036)"
         d="m 29,39 -2,-64 v -11 c 0,-22 2,-43 5,-65 44,38 91,80 91,138 0,33 -13,66 -42,66 C 50,103 30,72 29,39 Z m -57,415 c 9,5 18,8 28,8 10,0 19,-3 28,-8 L 21,111 c 25,23 58,36 92,36 51,0 87,-49 87,-103 0,-79 -84,-117 -144,-169 -16,-14 -25,-41 -47,-41 -14,0 -25,13 -25,27 z"
         fill="currentColor"
         id="path50" />
    </g>
  </a>
  <g
     transform="translate(41.905213,3.9805394)"
     id="g58">
    <polygon
       stroke-linejoin="round"
       stroke-linecap="round"
       stroke-width="0.08"
       fill="currentColor"
       stroke="currentColor"
       points="0.04,0.164 0.04,-0.164 1.9907,-0.3206 1.9907,0.0074 "
       id="polygon56" />
  </g>
  <g
     transform="translate(54.946213,3.9805394)"
     id="g62">
    <polygon
       stroke-linejoin="round"
       stroke-linecap="round"
       stroke-width="0.08"
       fill="currentColor"
       stroke="currentColor"
       points="0.04,0.164 0.04,-0.164 1.9907,-0.3206 1.9907,0.0074 "
       id="polygon60" />
  </g>
  <a
     style="color:inherit"
     xlink:href="textedit:///Users/tomsegarra/Documents/dev/dummies/lilypond_files/77f67d303b50d3a0533dc263782f2f0f.ly:19:14:15"
     id="a70"
     transform="translate(-2.9933875,-3.2772606)">
    <g
       transform="translate(6.3446,5.2872)"
       id="g68">
      <text
         font-family="sans-serif"
         font-size="2.224px"
         text-anchor="start"
         fill="currentColor"
         id="text66"><tspan
           id="tspan64">C</tspan></text>
    </g>
  </a>
  <g
     color="#ff0000"
     id="g76"
     transform="translate(-2.9933875,-3.2772606)">
    <g
       transform="translate(33.7552,6.2512)"
       id="g74">
      <rect
         x="-0.061700001"
         y="-1.5475"
         width="0.1233"
         height="2.4022999"
         ry="0.039999999"
         fill="currentColor"
         id="rect72" />
    </g>
  </g>
  <g
     color="#ff0000"
     id="g84"
     transform="translate(-2.9933875,-3.2772606)">
    <a
       style="color:inherit"
       xlink:href="textedit:///Users/tomsegarra/Documents/dev/dummies/lilypond_files/77f67d303b50d3a0533dc263782f2f0f.ly:25:14:15"
       id="a82">
      <g
         transform="translate(33.6935,4.5512)"
         id="g80">
        <path
           transform="scale(0.0034,-0.0034)"
           d="m 215,137 c 67,0 111,-37 111,-92 0,-90 -111,-182 -215,-182 -67,0 -111,37 -111,92 0,90 111,182 215,182 z"
           fill="currentColor"
           id="path78" />
      </g>
    </a>
  </g>
  <a
     style="color:inherit"
     xlink:href="textedit:///Users/tomsegarra/Documents/dev/dummies/lilypond_files/77f67d303b50d3a0533dc263782f2f0f.ly:19:16:17"
     id="a92"
     transform="translate(-2.9933875,-3.2772606)">
    <g
       transform="translate(9.7426,5.2872)"
       id="g90">
      <text
         font-family="sans-serif"
         font-size="2.224px"
         text-anchor="start"
         fill="currentColor"
         id="text88"><tspan
           id="tspan86">D</tspan></text>
    </g>
  </a>
  <a
     style="color:inherit"
     xlink:href="textedit:///Users/tomsegarra/Documents/dev/dummies/lilypond_files/77f67d303b50d3a0533dc263782f2f0f.ly:19:18:19"
     id="a104"
     transform="translate(-2.9933875,-3.2772606)">
    <g
       transform="translate(13.1407,5.2872)"
       id="g98">
      <text
         font-family="sans-serif"
         font-size="2.224px"
         text-anchor="start"
         fill="currentColor"
         id="text96"><tspan
           id="tspan94">E</tspan></text>
    </g>
    <g
       transform="translate(14.752,4.9872)"
       id="g102">
      <path
         transform="scale(0.0036,-0.0036)"
         d="m 29,39 -2,-64 v -11 c 0,-22 2,-43 5,-65 44,38 91,80 91,138 0,33 -13,66 -42,66 C 50,103 30,72 29,39 Z m -57,415 c 9,5 18,8 28,8 10,0 19,-3 28,-8 L 21,111 c 25,23 58,36 92,36 51,0 87,-49 87,-103 0,-79 -84,-117 -144,-169 -16,-14 -25,-41 -47,-41 -14,0 -25,13 -25,27 z"
         fill="currentColor"
         id="path100" />
    </g>
  </a>
  <g
     color="#ff0000"
     id="g112"
     transform="translate(-2.9933875,-3.2772606)">
    <a
       style="color:inherit"
       xlink:href="textedit:///Users/tomsegarra/Documents/dev/dummies/lilypond_files/77f67d303b50d3a0533dc263782f2f0f.ly:25:4:5"
       id="a110">
      <g
         transform="translate(26.1213,6.2512)"
         id="g108">
        <path
           transform="scale(0.0034,-0.0034)"
           d="m 215,137 c 67,0 111,-37 111,-92 0,-90 -111,-182 -215,-182 -67,0 -111,37 -111,92 0,90 111,182 215,182 z"
           fill="currentColor"
           id="path106" />
      </g>
    </a>
  </g>
  <g
     transform="translate(13.045313,3.8239394)"
     id="g116">
    <path
       transform="scale(0.0034,-0.0034)"
       d="m 208,-469 c 37,0 129,18 129,195 0,22 0,44 -2,66 -3,-1 -34,-5 -67,-5 C 113,-213 2,-68 2,90 c 0,144 99,253 189,367 -31,96 -43,143 -43,289 0,92 41,179 113,237 7,6 17,6 23,0 55,-66 108,-201 108,-295 0,-114 -62,-207 -133,-297 18,-59 34,-118 48,-178 2,0 3,1 5,1 126,0 207,-105 207,-213 0,-92 -60,-170 -141,-198 2,-26 3,-53 3,-79 0,-17 -1,-33 -2,-50 -6,-100 -77,-187 -174,-187 -88,0 -158,72 -158,161 0,46 42,83 90,83 43,0 76,-38 76,-83 0,-42 -34,-76 -76,-76 h -9 c 19,-25 47,-41 80,-41 z m 166,315 c 43,18 80,65 80,124 0,67 -48,134 -125,146 16,-76 36,-186 45,-270 z M 64,17 c 0,-115 115,-186 207,-186 1,0 34,0 60,4 -6,51 -21,160 -47,282 -59,-7 -93,-48 -93,-92 0,-34 20,-69 63,-93 5,-5 7,-11 7,-16 0,-12 -10,-23 -22,-23 -15,0 -105,52 -105,153 0,72 47,142 129,162 -11,47 -24,94 -38,141 C 144,248 64,146 64,17 Z M 317,857 C 241,814 195,734 195,647 c 0,-35 11,-82 30,-146 58,79 105,161 105,260 0,24 0,48 -13,96 z"
       fill="currentColor"
       id="path114" />
  </g>
  <a
     style="color:inherit"
     xlink:href="textedit:///Users/tomsegarra/Documents/dev/dummies/lilypond_files/77f67d303b50d3a0533dc263782f2f0f.ly:22:1:9"
     id="a126"
     transform="translate(-2.9933875,-3.2772606)">
    <g
       transform="translate(19.6632,4.5512)"
       id="g120">
      <path
         transform="scale(0.0034,-0.0034)"
         d="m 217,-311 c 0,-11 -8,-19 -19,-19 -11,0 -20,8 -20,19 v 142 l -81,-30 v -156 c 0,-11 -9,-20 -20,-20 -11,0 -19,9 -19,20 v 142 l -28,-11 c -3,-1 -5,-1 -8,-1 -12,0 -22,10 -22,23 v 57 c 0,9 6,18 15,21 l 43,16 V 49 L 30,39 C 27,38 25,38 22,38 10,38 0,47 0,60 v 57 c 0,9 6,18 15,21 l 43,16 v 157 c 0,11 8,19 19,19 11,0 20,-8 20,-19 V 169 l 81,30 v 156 c 0,11 9,20 20,20 11,0 19,-9 19,-20 V 213 l 28,11 c 3,1 5,1 8,1 12,0 22,-10 22,-23 v -57 c 0,-9 -6,-18 -15,-21 L 217,108 V -49 l 28,10 c 3,1 5,1 8,1 12,0 22,-9 22,-22 v -57 c 0,-9 -6,-18 -15,-21 l -43,-16 z M 97,64 V -94 l 81,30 V 94 Z"
         fill="currentColor"
         id="path118" />
    </g>
    <g
       transform="translate(20.5982,5.8262)"
       id="g124">
      <path
         transform="scale(0.0034,-0.0034)"
         d="m 217,-311 c 0,-11 -8,-19 -19,-19 -11,0 -20,8 -20,19 v 142 l -81,-30 v -156 c 0,-11 -9,-20 -20,-20 -11,0 -19,9 -19,20 v 142 l -28,-11 c -3,-1 -5,-1 -8,-1 -12,0 -22,10 -22,23 v 57 c 0,9 6,18 15,21 l 43,16 V 49 L 30,39 C 27,38 25,38 22,38 10,38 0,47 0,60 v 57 c 0,9 6,18 15,21 l 43,16 v 157 c 0,11 8,19 19,19 11,0 20,-8 20,-19 V 169 l 81,30 v 156 c 0,11 9,20 20,20 11,0 19,-9 19,-20 V 213 l 28,11 c 3,1 5,1 8,1 12,0 22,-10 22,-23 v -57 c 0,-9 -6,-18 -15,-21 L 217,108 V -49 l 28,10 c 3,1 5,1 8,1 12,0 22,-9 22,-22 v -57 c 0,-9 -6,-18 -15,-21 l -43,-16 z M 97,64 V -94 l 81,30 V 94 Z"
         fill="currentColor"
         id="path122" />
    </g>
  </a>
  <g
     transform="translate(19.689813,2.9739394)"
     id="g130">
    <path
       transform="scale(0.0034,-0.0034)"
       d="m 358,29 c -30,0 -74,23 -74,73 0,38 27,76 71,76 4,0 7,0 11,-1 -27,36 -69,59 -116,59 -106,0 -113,-74 -113,-188 0,-15 1,-31 1,-48 0,-17 -1,-33 -1,-48 0,-114 7,-188 113,-188 79,0 136,70 155,150 2,7 7,10 13,10 7,0 14,-5 14,-13 0,-21 -50,-175 -182,-175 C 191,-264 0,-244 0,0 0,63 18,264 250,264 365,264 424,155 424,99 424,60 394,29 358,29 Z"
       fill="currentColor"
       id="path128" />
  </g>
  <g
     transform="translate(24.614413,2.5489394)"
     id="g134">
    <path
       transform="scale(0.0034,-0.0034)"
       d="M 0,0 C 0,31 25,56 56,56 87,56 111,31 111,0 111,-31 87,-56 56,-56 25,-56 0,-31 0,0 Z"
       fill="currentColor"
       id="path132" />
  </g>
  <g
     color="#ff0000"
     id="g140"
     transform="translate(-2.9933875,-3.2772606)">
    <g
       transform="translate(26.183,6.2512)"
       id="g138">
      <rect
         x="-0.061700001"
         y="0.1525"
         width="0.1233"
         height="2.6809001"
         ry="0.039999999"
         fill="currentColor"
         id="rect136" />
    </g>
  </g>
  <g
     color="#ff0000"
     id="g146"
     transform="translate(-2.9933875,-3.2772606)">
    <g
       transform="translate(31.8478,6.2512)"
       id="g144">
      <rect
         x="-0.061700001"
         y="-1.1224999"
         width="0.1233"
         height="2.1243999"
         ry="0.039999999"
         fill="currentColor"
         id="rect142" />
    </g>
  </g>
  <g
     color="#ff0000"
     id="g154"
     transform="translate(-2.9933875,-3.2772606)">
    <a
       style="color:inherit"
       xlink:href="textedit:///Users/tomsegarra/Documents/dev/dummies/lilypond_files/77f67d303b50d3a0533dc263782f2f0f.ly:25:18:19"
       id="a152">
      <g
         transform="translate(35.6009,4.9762)"
         id="g150">
        <path
           transform="scale(0.0034,-0.0034)"
           d="m 215,137 c 67,0 111,-37 111,-92 0,-90 -111,-182 -215,-182 -67,0 -111,37 -111,92 0,90 111,182 215,182 z"
           fill="currentColor"
           id="path148" />
      </g>
    </a>
  </g>
  <g
     color="#ff0000"
     id="g160"
     transform="translate(-2.9933875,-3.2772606)">
    <g
       transform="translate(35.6625,6.2512)"
       id="g158">
      <rect
         x="-0.061700001"
         y="-1.1224999"
         width="0.1233"
         height="2.8225"
         ry="0.039999999"
         fill="currentColor"
         id="rect156" />
    </g>
  </g>
  <g
     color="#ff0000"
     id="g168"
     transform="translate(-2.9933875,-3.2772606)">
    <a
       style="color:inherit"
       xlink:href="textedit:///Users/tomsegarra/Documents/dev/dummies/lilypond_files/77f67d303b50d3a0533dc263782f2f0f.ly:25:12:13"
       id="a166">
      <g
         transform="translate(31.7861,4.9762)"
         id="g164">
        <path
           transform="scale(0.0034,-0.0034)"
           d="m 215,137 c 67,0 111,-37 111,-92 0,-90 -111,-182 -215,-182 -67,0 -111,37 -111,92 0,90 111,182 215,182 z"
           fill="currentColor"
           id="path162" />
      </g>
    </a>
  </g>
  <g
     color="#000000"
     id="g176"
     transform="translate(-2.9933875,-3.2772606)">
    <a
       style="color:inherit"
       xlink:href="textedit:///Users/tomsegarra/Documents/dev/dummies/lilypond_files/77f67d303b50d3a0533dc263782f2f0f.ly:28:4:5"
       id="a174">
      <g
         transform="translate(39.2494,7.1012)"
         id="g172">
        <path
           transform="scale(0.0034,-0.0034)"
           d="m 215,137 c 67,0 111,-37 111,-92 0,-90 -111,-182 -215,-182 -67,0 -111,37 -111,92 0,90 111,182 215,182 z"
           fill="currentColor"
           id="path170" />
      </g>
    </a>
  </g>
  <g
     transform="translate(37.742413,3.3989394)"
     id="g180">
    <path
       transform="scale(0.0034,-0.0034)"
       d="M 0,0 C 0,31 25,56 56,56 87,56 111,31 111,0 111,-31 87,-56 56,-56 25,-56 0,-31 0,0 Z"
       fill="currentColor"
       id="path178" />
  </g>
  <g
     color="#000000"
     id="g186"
     transform="translate(-2.9933875,-3.2772606)">
    <g
       transform="translate(40.2951,6.2512)"
       id="g184">
      <rect
         x="-0.061700001"
         y="-2.125"
         width="0.1233"
         height="2.8225"
         ry="0.039999999"
         fill="currentColor"
         id="rect182" />
    </g>
  </g>
  <g
     color="#000000"
     id="g194"
     transform="translate(-2.9933875,-3.2772606)">
    <a
       style="color:inherit"
       xlink:href="textedit:///Users/tomsegarra/Documents/dev/dummies/lilypond_files/77f67d303b50d3a0533dc263782f2f0f.ly:28:9:10"
       id="a192">
      <g
         transform="translate(42.9912,5.4012)"
         id="g190">
        <path
           transform="scale(0.0034,-0.0034)"
           d="m 215,137 c 67,0 111,-37 111,-92 0,-90 -111,-182 -215,-182 -67,0 -111,37 -111,92 0,90 111,182 215,182 z"
           fill="currentColor"
           id="path188" />
      </g>
    </a>
  </g>
  <g
     color="#000000"
     id="g200"
     transform="translate(-2.9933875,-3.2772606)">
    <g
       transform="translate(43.0529,6.2512)"
       id="g198">
      <rect
         x="-0.061700001"
         y="-0.69749999"
         width="0.1233"
         height="2.8225"
         ry="0.039999999"
         fill="currentColor"
         id="rect196" />
    </g>
  </g>
  <g
     color="#000000"
     id="g206"
     transform="translate(-2.9933875,-3.2772606)">
    <g
       transform="translate(43.1145,8.3362)"
       id="g204">
      <path
         transform="scale(0.0034,-0.0034)"
         d="M 0,0 H -18 V 250 H 0 Z m 0,0 v 250 c 96,59 222,149 222,259 0,57 -15,111 -40,162 -3,17 10,29 24,29 8,0 16,-5 21,-13 25,-56 40,-116 40,-178 C 267,306 0,203 0,0 Z"
         fill="currentColor"
         id="path202" />
    </g>
  </g>
  <g
     color="#ff0000"
     id="g212"
     transform="translate(-2.9933875,-3.2772606)">
    <g
       transform="translate(30.002,8.3362)"
       id="g210">
      <path
         transform="scale(0.0034,-0.0034)"
         d="M 0,0 H -18 V 250 H 0 Z m 0,0 v 250 c 96,59 222,149 222,259 0,57 -15,111 -40,162 -3,17 10,29 24,29 8,0 16,-5 21,-13 25,-56 40,-116 40,-178 C 267,306 0,203 0,0 Z"
         fill="currentColor"
         id="path208" />
    </g>
  </g>
  <g
     color="#000000"
     id="g220"
     transform="translate(-2.9933875,-3.2772606)">
    <a
       style="color:inherit"
       xlink:href="textedit:///Users/tomsegarra/Documents/dev/dummies/lilypond_files/77f67d303b50d3a0533dc263782f2f0f.ly:28:13:14"
       id="a218">
      <g
         transform="translate(44.8986,4.9762)"
         id="g216">
        <path
           transform="scale(0.0034,-0.0034)"
           d="m 215,137 c 67,0 111,-37 111,-92 0,-90 -111,-182 -215,-182 -67,0 -111,37 -111,92 0,90 111,182 215,182 z"
           fill="currentColor"
           id="path214" />
      </g>
    </a>
  </g>
  <g
     color="#000000"
     id="g226"
     transform="translate(-2.9933875,-3.2772606)">
    <g
       transform="translate(44.9602,6.2512)"
       id="g224">
      <rect
         x="-0.061700001"
         y="-1.1224999"
         width="0.1233"
         height="2.1243999"
         ry="0.039999999"
         fill="currentColor"
         id="rect222" />
    </g>
  </g>
  <g
     color="#000000"
     id="g234"
     transform="translate(-2.9933875,-3.2772606)">
    <a
       style="color:inherit"
       xlink:href="textedit:///Users/tomsegarra/Documents/dev/dummies/lilypond_files/77f67d303b50d3a0533dc263782f2f0f.ly:28:15:16"
       id="a232">
      <g
         transform="translate(46.806,4.5512)"
         id="g230">
        <path
           transform="scale(0.0034,-0.0034)"
           d="m 215,137 c 67,0 111,-37 111,-92 0,-90 -111,-182 -215,-182 -67,0 -111,37 -111,92 0,90 111,182 215,182 z"
           fill="currentColor"
           id="path228" />
      </g>
    </a>
  </g>
  <g
     color="#000000"
     id="g240"
     transform="translate(-2.9933875,-3.2772606)">
    <g
       transform="translate(46.8676,6.2512)"
       id="g238">
      <rect
         x="-0.061700001"
         y="-1.5475"
         width="0.1233"
         height="2.4022999"
         ry="0.039999999"
         fill="currentColor"
         id="rect236" />
    </g>
  </g>
  <g
     color="#ff0000"
     id="g246"
     transform="translate(-2.9933875,-3.2772606)">
    <g
       transform="translate(29.9404,6.2512)"
       id="g244">
      <rect
         x="-0.061700001"
         y="-0.69749999"
         width="0.1233"
         height="2.8225"
         ry="0.039999999"
         fill="currentColor"
         id="rect242" />
    </g>
  </g>
  <g
     color="#000000"
     id="g254"
     transform="translate(-2.9933875,-3.2772606)">
    <a
       style="color:inherit"
       xlink:href="textedit:///Users/tomsegarra/Documents/dev/dummies/lilypond_files/77f67d303b50d3a0533dc263782f2f0f.ly:28:19:20"
       id="a252">
      <g
         transform="translate(48.7134,4.9762)"
         id="g250">
        <path
           transform="scale(0.0034,-0.0034)"
           d="m 215,137 c 67,0 111,-37 111,-92 0,-90 -111,-182 -215,-182 -67,0 -111,37 -111,92 0,90 111,182 215,182 z"
           fill="currentColor"
           id="path248" />
      </g>
    </a>
  </g>
  <g
     color="#000000"
     id="g260"
     transform="translate(-2.9933875,-3.2772606)">
    <g
       transform="translate(48.775,6.2512)"
       id="g258">
      <rect
         x="-0.061700001"
         y="-1.1224999"
         width="0.1233"
         height="2.8225"
         ry="0.039999999"
         fill="currentColor"
         id="rect256" />
    </g>
  </g>
  <g
     color="#ff0000"
     id="g268"
     transform="translate(-2.9933875,-3.2772606)">
    <a
       style="color:inherit"
       xlink:href="textedit:///Users/tomsegarra/Documents/dev/dummies/lilypond_files/77f67d303b50d3a0533dc263782f2f0f.ly:25:9:10"
       id="a266">
      <g
         transform="translate(29.8787,5.4012)"
         id="g264">
        <path
           transform="scale(0.0034,-0.0034)"
           d="m 215,137 c 67,0 111,-37 111,-92 0,-90 -111,-182 -215,-182 -67,0 -111,37 -111,92 0,90 111,182 215,182 z"
           fill="currentColor"
           id="path262" />
      </g>
    </a>
  </g>
  <g
     color="#000000"
     id="g276"
     transform="translate(-2.9933875,-3.2772606)">
    <a
       style="color:inherit"
       xlink:href="textedit:///Users/tomsegarra/Documents/dev/dummies/lilypond_files/77f67d303b50d3a0533dc263782f2f0f.ly:28:24:25"
       id="a274">
      <g
         transform="translate(52.3618,6.6762)"
         id="g272">
        <path
           transform="scale(0.0034,-0.0034)"
           d="m 215,137 c 67,0 111,-37 111,-92 0,-90 -111,-182 -215,-182 -67,0 -111,37 -111,92 0,90 111,182 215,182 z"
           fill="currentColor"
           id="path270" />
      </g>
    </a>
  </g>
  <g
     transform="translate(50.854913,3.3989394)"
     id="g280">
    <path
       transform="scale(0.0034,-0.0034)"
       d="M 0,0 C 0,31 25,56 56,56 87,56 111,31 111,0 111,-31 87,-56 56,-56 25,-56 0,-31 0,0 Z"
       fill="currentColor"
       id="path278" />
  </g>
  <g
     color="#000000"
     id="g286"
     transform="translate(-2.9933875,-3.2772606)">
    <g
       transform="translate(53.4076,6.2512)"
       id="g284">
      <rect
         x="-0.061700001"
         y="-2.55"
         width="0.1233"
         height="2.8225"
         ry="0.039999999"
         fill="currentColor"
         id="rect282" />
    </g>
  </g>
  <g
     transform="translate(28.792713,3.9805394)"
     id="g290">
    <polygon
       stroke-linejoin="round"
       stroke-linecap="round"
       stroke-width="0.08"
       fill="currentColor"
       stroke="currentColor"
       points="0.04,0.164 0.04,-0.164 1.9907,-0.3206 1.9907,0.0074 "
       id="polygon288" />
  </g>
  <g
     color="#ff0000"
     id="g298"
     transform="translate(-2.9933875,-3.2772606)">
    <a
       style="color:inherit"
       xlink:href="textedit:///Users/tomsegarra/Documents/dev/dummies/lilypond_files/77f67d303b50d3a0533dc263782f2f0f.ly:31:4:5"
       id="a296">
      <g
         transform="translate(56.0323,5.4012)"
         id="g294">
        <path
           transform="scale(0.0034,-0.0034)"
           d="m 215,137 c 67,0 111,-37 111,-92 0,-90 -111,-182 -215,-182 -67,0 -111,37 -111,92 0,90 111,182 215,182 z"
           fill="currentColor"
           id="path292" />
      </g>
    </a>
  </g>
  <g
     color="#ff0000"
     id="g304"
     transform="translate(-2.9933875,-3.2772606)">
    <g
       transform="translate(56.0939,6.2512)"
       id="g302">
      <rect
         x="-0.061700001"
         y="-0.69749999"
         width="0.1233"
         height="2.8225"
         ry="0.039999999"
         fill="currentColor"
         id="rect300" />
    </g>
  </g>
  <g
     color="#ff0000"
     id="g310"
     transform="translate(-2.9933875,-3.2772606)">
    <g
       transform="translate(56.1556,8.3362)"
       id="g308">
      <path
         transform="scale(0.0034,-0.0034)"
         d="M 0,0 H -18 V 250 H 0 Z m 0,0 v 250 c 96,59 222,149 222,259 0,57 -15,111 -40,162 -3,17 10,29 24,29 8,0 16,-5 21,-13 25,-56 40,-116 40,-178 C 267,306 0,203 0,0 Z"
         fill="currentColor"
         id="path306" />
    </g>
  </g>
  <g
     color="#ff0000"
     id="g318"
     transform="translate(-2.9933875,-3.2772606)">
    <a
       style="color:inherit"
       xlink:href="textedit:///Users/tomsegarra/Documents/dev/dummies/lilypond_files/77f67d303b50d3a0533dc263782f2f0f.ly:31:7:8"
       id="a316">
      <g
         transform="translate(57.9396,4.9762)"
         id="g314">
        <path
           transform="scale(0.0034,-0.0034)"
           d="m 215,137 c 67,0 111,-37 111,-92 0,-90 -111,-182 -215,-182 -67,0 -111,37 -111,92 0,90 111,182 215,182 z"
           fill="currentColor"
           id="path312" />
      </g>
    </a>
  </g>
  <g
     color="#ff0000"
     id="g324"
     transform="translate(-2.9933875,-3.2772606)">
    <g
       transform="translate(58.0013,6.2512)"
       id="g322">
      <rect
         x="-0.061700001"
         y="-1.1224999"
         width="0.1233"
         height="2.1243999"
         ry="0.039999999"
         fill="currentColor"
         id="rect320" />
    </g>
  </g>
  <g
     color="#ff0000"
     id="g332"
     transform="translate(-2.9933875,-3.2772606)">
    <a
       style="color:inherit"
       xlink:href="textedit:///Users/tomsegarra/Documents/dev/dummies/lilypond_files/77f67d303b50d3a0533dc263782f2f0f.ly:31:9:10"
       id="a330">
      <g
         transform="translate(59.847,4.5512)"
         id="g328">
        <path
           transform="scale(0.0034,-0.0034)"
           d="m 215,137 c 67,0 111,-37 111,-92 0,-90 -111,-182 -215,-182 -67,0 -111,37 -111,92 0,90 111,182 215,182 z"
           fill="currentColor"
           id="path326" />
      </g>
    </a>
  </g>
  <g
     color="#ff0000"
     id="g338"
     transform="translate(-2.9933875,-3.2772606)">
    <g
       transform="translate(59.9087,6.2512)"
       id="g336">
      <rect
         x="-0.061700001"
         y="-1.5475"
         width="0.1233"
         height="2.4022999"
         ry="0.039999999"
         fill="currentColor"
         id="rect334" />
    </g>
  </g>
  <g
     color="#ff0000"
     id="g346"
     transform="translate(-2.9933875,-3.2772606)">
    <a
       style="color:inherit"
       xlink:href="textedit:///Users/tomsegarra/Documents/dev/dummies/lilypond_files/77f67d303b50d3a0533dc263782f2f0f.ly:31:13:14"
       id="a344">
      <g
         transform="translate(61.7544,4.9762)"
         id="g342">
        <path
           transform="scale(0.0034,-0.0034)"
           d="m 215,137 c 67,0 111,-37 111,-92 0,-90 -111,-182 -215,-182 -67,0 -111,37 -111,92 0,90 111,182 215,182 z"
           fill="currentColor"
           id="path340" />
      </g>
    </a>
  </g>
  <g
     color="#ff0000"
     id="g352"
     transform="translate(-2.9933875,-3.2772606)">
    <g
       transform="translate(61.8161,6.2512)"
       id="g350">
      <rect
         x="-0.061700001"
         y="-1.1224999"
         width="0.1233"
         height="2.8225"
         ry="0.039999999"
         fill="currentColor"
         id="rect348" />
    </g>
  </g>
  <g
     color="#000000"
     id="g360"
     transform="translate(-2.9933875,-3.2772606)">
    <a
       style="color:inherit"
       xlink:href="textedit:///Users/tomsegarra/Documents/dev/dummies/lilypond_files/77f67d303b50d3a0533dc263782f2f0f.ly:34:4:5"
       id="a358">
      <g
         transform="translate(65.5327,5.8262)"
         id="g356">
        <path
           transform="scale(0.0034,-0.0034)"
           d="m 215,137 c 67,0 111,-37 111,-92 0,-90 -111,-182 -215,-182 -67,0 -111,37 -111,92 0,90 111,182 215,182 z"
           fill="currentColor"
           id="path354" />
      </g>
    </a>
  </g>
  <g
     color="#000000"
     id="g366"
     transform="translate(-2.9933875,-3.2772606)">
    <g
       transform="translate(65.5944,6.2512)"
       id="g364">
      <rect
         x="-0.061700001"
         y="-0.27250001"
         width="0.1233"
         height="2.8225"
         ry="0.039999999"
         fill="currentColor"
         id="rect362" />
    </g>
  </g>
  <g
     color="#000000"
     id="g374"
     transform="translate(-2.9933875,-3.2772606)">
    <a
       style="color:inherit"
       xlink:href="textedit:///Users/tomsegarra/Documents/dev/dummies/lilypond_files/77f67d303b50d3a0533dc263782f2f0f.ly:34:8:9"
       id="a372">
      <g
         transform="translate(68.3382,5.4012)"
         id="g370">
        <path
           transform="scale(0.0034,-0.0034)"
           d="m 215,137 c 67,0 111,-37 111,-92 0,-90 -111,-182 -215,-182 -67,0 -111,37 -111,92 0,90 111,182 215,182 z"
           fill="currentColor"
           id="path368" />
      </g>
    </a>
  </g>
  <g
     color="#000000"
     id="g380"
     transform="translate(-2.9933875,-3.2772606)">
    <g
       transform="translate(68.3998,6.2512)"
       id="g378">
      <rect
         x="-0.061700001"
         y="-0.69749999"
         width="0.1233"
         height="2.8225"
         ry="0.039999999"
         fill="currentColor"
         id="rect376" />
    </g>
  </g>
  <g
     color="#000000"
     id="g388"
     transform="translate(-2.9933875,-3.2772606)">
    <a
       style="color:inherit"
       xlink:href="textedit:///Users/tomsegarra/Documents/dev/dummies/lilypond_files/77f67d303b50d3a0533dc263782f2f0f.ly:34:10:11"
       id="a386">
      <g
         transform="translate(71.1436,4.9762)"
         id="g384">
        <path
           transform="scale(0.0034,-0.0034)"
           d="m 215,137 c 67,0 111,-37 111,-92 0,-90 -111,-182 -215,-182 -67,0 -111,37 -111,92 0,90 111,182 215,182 z"
           fill="currentColor"
           id="path382" />
      </g>
    </a>
  </g>
  <g
     color="#000000"
     id="g394"
     transform="translate(-2.9933875,-3.2772606)">
    <g
       transform="translate(71.2053,6.2512)"
       id="g392">
      <rect
         x="-0.061700001"
         y="-1.1224999"
         width="0.1233"
         height="2.8225"
         ry="0.039999999"
         fill="currentColor"
         id="rect390" />
    </g>
  </g>
  <g
     color="#000000"
     id="g402"
     transform="translate(-2.9933875,-3.2772606)">
    <a
       style="color:inherit"
       xlink:href="textedit:///Users/tomsegarra/Documents/dev/dummies/lilypond_files/77f67d303b50d3a0533dc263782f2f0f.ly:34:12:13"
       id="a400">
      <g
         transform="translate(73.949,4.5512)"
         id="g398">
        <path
           transform="scale(0.0034,-0.0034)"
           d="m 215,137 c 67,0 111,-37 111,-92 0,-90 -111,-182 -215,-182 -67,0 -111,37 -111,92 0,90 111,182 215,182 z"
           fill="currentColor"
           id="path396" />
      </g>
    </a>
  </g>
  <g
     color="#000000"
     id="g408"
     transform="translate(-2.9933875,-3.2772606)">
    <g
       transform="translate(74.0107,6.2512)"
       id="g406">
      <rect
         x="-0.061700001"
         y="-1.5475"
         width="0.1233"
         height="2.8225"
         ry="0.039999999"
         fill="currentColor"
         id="rect404" />
    </g>
  </g>
</svg>
