<svg xmlns="http://www.w3.org/2000/svg" xmlns:xlink="http://www.w3.org/1999/xlink" version="1.2" width="87.12mm" height="297.00mm" viewBox="0 0 49.5734 169.0094">
<style type="text/css">
<![CDATA[
tspan { white-space: pre; }
]]>
</style>
<!-- Page: 1/1 -->
<g transform="translate(31.2330, 6.4867)">
<rect x="0.0000" y="-1.7000" width="0.1802" height="3.4000" ry="0.0000" fill="currentColor"/>
</g>
<g transform="translate(2.2762, 8.1867)">
<line stroke-linejoin="round" stroke-linecap="round" stroke-width="0.0949" stroke="currentColor" x1="0.0474" y1="0" x2="45.0210" y2="0"/>
</g>
<g transform="translate(2.2762, 7.3367)">
<line stroke-linejoin="round" stroke-linecap="round" stroke-width="0.0949" stroke="currentColor" x1="0.0474" y1="0" x2="45.0210" y2="0"/>
</g>
<g transform="translate(2.2762, 6.4867)">
<line stroke-linejoin="round" stroke-linecap="round" stroke-width="0.0949" stroke="currentColor" x1="0.0474" y1="0" x2="45.0210" y2="0"/>
</g>
<g transform="translate(2.2762, 5.6367)">
<line stroke-linejoin="round" stroke-linecap="round" stroke-width="0.0949" stroke="currentColor" x1="0.0474" y1="0" x2="45.0210" y2="0"/>
</g>
<g transform="translate(2.2762, 4.7867)">
<line stroke-linejoin="round" stroke-linecap="round" stroke-width="0.0949" stroke="currentColor" x1="0.0474" y1="0" x2="45.0210" y2="0"/>
</g>
<a style="color:inherit;" xlink:href="textedit:///Users/tomsegarra/Documents/dev/dummies/lilypond_files/7e97e7d5437b11a3cc589532382eec3a.ly:24:4:5">
<g transform="translate(13.0344, 6.4867)">
<path transform="scale(0.0034, -0.0034)" d="M70 205c80 0 46 -97 90 -97c15 0 52 45 59 59c6 13 26 13 31 0l-121 -417c-9 -7 -19 -11 -30 -11s-21 4 -30 11l118 326c-33 -12 -68 -22 -103 -22c-47 0 -87 34 -87 79c0 40 33 72 73 72z" fill="currentColor"/>
</g>
</a>
<g transform="translate(3.0762, 7.3367)">
<path transform="scale(0.0034, -0.0034)" d="M646 2c0 -113 -74 -213 -180 -247c3 -34 5 -68 5 -102c0 -20 -1 -40 -2 -60c-7 -121 -91 -228 -209 -228c-108 0 -196 87 -196 196c0 58 53 104 112 104c54 0 95 -48 95 -104c0 -52 -43 -95 -95 -95c-10 0 -20 2 -29 6c26 -38 68 -63 116 -63h3c93 2 153 92 159 190
c1 19 2 37 2 56c0 30 -2 60 -4 90c-5 -1 -43 -8 -88 -8c-194 0 -333 180 -333 375c0 177 130 307 246 442c-31 98 -53 170 -53 347c0 115 55 223 148 290c7 5 16 4 22 -1c68 -80 134 -243 134 -357c0 -143 -85 -255 -178 -364c21 -68 40 -137 57 -206c1 0 5 1 11 1
c156 0 257 -129 257 -262zM462 -202c66 24 111 88 111 162c0 89 -65 178 -170 190c28 -135 50 -272 59 -352zM75 26c0 -145 141 -245 263 -245c1 0 46 0 81 6c-7 65 -27 206 -61 363c-79 -8 -124 -61 -124 -119c0 -43 25 -89 80 -121c5 -5 7 -11 7 -16
c0 -12 -10 -23 -22 -23c-16 0 -127 63 -127 188c0 89 58 175 161 198c-14 58 -29 116 -46 173c-106 -122 -212 -244 -212 -404zM406 1042c-99 -47 -162 -148 -162 -257c0 -49 13 -111 38 -191c79 97 144 199 144 324c0 33 0 63 -20 124z" fill="currentColor"/>
</g>
<a style="color:inherit;" xlink:href="textedit:///Users/tomsegarra/Documents/dev/dummies/lilypond_files/7e97e7d5437b11a3cc589532382eec3a.ly:23:1:9">
<g transform="translate(6.5762, 4.7867)">
<path transform="scale(0.0034, -0.0034)" d="M217 -311c0 -11 -8 -19 -19 -19s-20 8 -20 19v142l-81 -30v-156c0 -11 -9 -20 -20 -20s-19 9 -19 20v142l-28 -11c-3 -1 -5 -1 -8 -1c-12 0 -22 10 -22 23v57c0 9 6 18 15 21l43 16v157l-28 -10c-3 -1 -5 -1 -8 -1c-12 0 -22 9 -22 22v57c0 9 6 18 15 21l43 16v157
c0 11 8 19 19 19s20 -8 20 -19v-142l81 30v156c0 11 9 20 20 20s19 -9 19 -20v-142l28 11c3 1 5 1 8 1c12 0 22 -10 22 -23v-57c0 -9 -6 -18 -15 -21l-43 -16v-157l28 10c3 1 5 1 8 1c12 0 22 -9 22 -22v-57c0 -9 -6 -18 -15 -21l-43 -16v-157zM97 64v-158l81 30v158z" fill="currentColor"/>
</g>
<g transform="translate(7.5112, 6.0617)">
<path transform="scale(0.0034, -0.0034)" d="M217 -311c0 -11 -8 -19 -19 -19s-20 8 -20 19v142l-81 -30v-156c0 -11 -9 -20 -20 -20s-19 9 -19 20v142l-28 -11c-3 -1 -5 -1 -8 -1c-12 0 -22 10 -22 23v57c0 9 6 18 15 21l43 16v157l-28 -10c-3 -1 -5 -1 -8 -1c-12 0 -22 9 -22 22v57c0 9 6 18 15 21l43 16v157
c0 11 8 19 19 19s20 -8 20 -19v-142l81 30v156c0 11 9 20 20 20s19 -9 19 -20v-142l28 11c3 1 5 1 8 1c12 0 22 -10 22 -23v-57c0 -9 -6 -18 -15 -21l-43 -16v-157l28 10c3 1 5 1 8 1c12 0 22 -9 22 -22v-57c0 -9 -6 -18 -15 -21l-43 -16v-157zM97 64v-158l81 30v158z" fill="currentColor"/>
</g>
</a>
<g transform="translate(9.5962, 6.4867)">
<path transform="scale(0.0034, -0.0034)" d="M358 29c-30 0 -74 23 -74 73c0 38 27 76 71 76c4 0 7 0 11 -1c-27 36 -69 59 -116 59c-106 0 -113 -74 -113 -188c0 -15 1 -31 1 -48s-1 -33 -1 -48c0 -114 7 -188 113 -188c79 0 136 70 155 150c2 7 7 10 13 10c7 0 14 -5 14 -13c0 -21 -50 -175 -182 -175
c-59 0 -250 20 -250 264c0 63 18 264 250 264c115 0 174 -109 174 -165c0 -39 -30 -70 -66 -70z" fill="currentColor"/>
</g>
<a style="color:inherit;" xlink:href="textedit:///Users/tomsegarra/Documents/dev/dummies/lilypond_files/7e97e7d5437b11a3cc589532382eec3a.ly:25:4:5">
<g transform="translate(32.3133, 6.4867)">
<path transform="scale(0.0034, -0.0034)" d="M215 137c67 0 111 -37 111 -92c0 -90 -111 -182 -215 -182c-67 0 -111 37 -111 92c0 90 111 182 215 182z" fill="currentColor"/>
</g>
</a>
<a style="color:inherit;" xlink:href="textedit:///Users/tomsegarra/Documents/dev/dummies/lilypond_files/7e97e7d5437b11a3cc589532382eec3a.ly:30:45:46">
<g transform="translate(31.4842, 11.9867)">
<text font-family="serif" font-size="2.0989" text-anchor="start" fill="currentColor">
<tspan>felt</tspan>
</text>
</g>
</a>
<g transform="translate(33.3590, 6.4867)">
<rect x="-0.0617" y="-2.5486" width="0.1233" height="2.3962" ry="0.0400" fill="currentColor"/>
</g>
<a style="color:inherit;" xlink:href="textedit:///Users/tomsegarra/Documents/dev/dummies/lilypond_files/7e97e7d5437b11a3cc589532382eec3a.ly:25:6:7">
<g transform="translate(34.6998, 6.9117)">
<path transform="scale(0.0034, -0.0034)" d="M215 137c67 0 111 -37 111 -92c0 -90 -111 -182 -215 -182c-67 0 -111 37 -111 92c0 90 111 182 215 182z" fill="currentColor"/>
</g>
</a>
<a style="color:inherit;" xlink:href="textedit:///Users/tomsegarra/Documents/dev/dummies/lilypond_files/7e97e7d5437b11a3cc589532382eec3a.ly:30:50:51">
<g transform="translate(34.6998, 11.9867)">
<text font-family="serif" font-size="2.0989" text-anchor="start" fill="currentColor">
<tspan>like</tspan>
</text>
</g>
</a>
<g transform="translate(35.7455, 6.4867)">
<rect x="-0.0617" y="-2.4962" width="0.1233" height="2.7687" ry="0.0400" fill="currentColor"/>
</g>
<a style="color:inherit;" xlink:href="textedit:///Users/tomsegarra/Documents/dev/dummies/lilypond_files/7e97e7d5437b11a3cc589532382eec3a.ly:25:9:10">
<g transform="translate(37.0072, 6.9117)">
<path transform="scale(0.0034, -0.0034)" d="M215 137c67 0 111 -37 111 -92c0 -90 -111 -182 -215 -182c-67 0 -111 37 -111 92c0 90 111 182 215 182z" fill="currentColor"/>
</g>
</a>
<g transform="translate(38.0529, 6.4867)">
<rect x="-0.0617" y="-2.4455" width="0.1233" height="2.7180" ry="0.0400" fill="currentColor"/>
</g>
<g transform="translate(15.0844, 8.1867)">
<polygon stroke-linejoin="round" stroke-linecap="round" stroke-width="0.0800" fill="currentColor" stroke="currentColor" points="4.6981 -0.1640 4.6981 0.1640 0.0400 0.1640 0.0400 -0.1640"/>
</g>
<g color="red">
<a style="color:inherit;" xlink:href="textedit:///Users/tomsegarra/Documents/dev/dummies/lilypond_files/7e97e7d5437b11a3cc589532382eec3a.ly:28:4:5">
<g transform="translate(39.3145, 6.9117)">
<path transform="scale(0.0034, -0.0034)" d="M215 137c67 0 111 -37 111 -92c0 -90 -111 -182 -215 -182c-67 0 -111 37 -111 92c0 90 111 182 215 182z" fill="currentColor"/>
</g>
</a>
</g>
<a style="color:inherit;" xlink:href="textedit:///Users/tomsegarra/Documents/dev/dummies/lilypond_files/7e97e7d5437b11a3cc589532382eec3a.ly:30:55:56">
<g transform="translate(38.3489, 11.9867)">
<text font-family="serif" font-size="2.0989" text-anchor="start" fill="currentColor">
<tspan>this</tspan>
</text>
</g>
</a>
<g color="red">
<g transform="translate(40.3603, 6.4867)">
<rect x="-0.0617" y="-2.3948" width="0.1233" height="2.6673" ry="0.0400" fill="currentColor"/>
</g>
</g>
<g color="red">
<a style="color:inherit;" xlink:href="textedit:///Users/tomsegarra/Documents/dev/dummies/lilypond_files/7e97e7d5437b11a3cc589532382eec3a.ly:28:6:7">
<g transform="translate(42.2741, 7.7617)">
<path transform="scale(0.0034, -0.0034)" d="M215 137c67 0 111 -37 111 -92c0 -90 -111 -182 -215 -182c-67 0 -111 37 -111 92c0 90 111 182 215 182z" fill="currentColor"/>
</g>
</a>
</g>
<a style="color:inherit;" xlink:href="textedit:///Users/tomsegarra/Documents/dev/dummies/lilypond_files/7e97e7d5437b11a3cc589532382eec3a.ly:30:60:61">
<g transform="translate(41.8376, 11.9867)">
<text font-family="serif" font-size="2.0989" text-anchor="start" fill="currentColor">
<tspan>be</tspan>
</text>
</g>
</a>
<g color="red">
<g transform="translate(43.3198, 6.4867)">
<rect x="-0.0617" y="-1.7000" width="0.1233" height="2.8225" ry="0.0400" fill="currentColor"/>
</g>
</g>
<g color="red">
<g transform="translate(43.3815, 4.8267)">
<path transform="scale(0.0034, -0.0034)" d="M0 0c0 -197 207 -335 207 -532c0 -71 -15 -141 -41 -207c-5 -8 -13 -12 -21 -12c-14 0 -27 11 -24 28c26 60 42 125 42 191c0 103 -93 207 -163 282h-18v250h18z" fill="currentColor"/>
</g>
</g>
<g color="red">
<a style="color:inherit;" xlink:href="textedit:///Users/tomsegarra/Documents/dev/dummies/lilypond_files/7e97e7d5437b11a3cc589532382eec3a.ly:28:8:9">
<g transform="translate(45.0373, 6.4867)">
<path transform="scale(0.0034, -0.0034)" d="M215 137c67 0 111 -37 111 -92c0 -90 -111 -182 -215 -182c-67 0 -111 37 -111 92c0 90 111 182 215 182z" fill="currentColor"/>
</g>
</a>
</g>
<a style="color:inherit;" xlink:href="textedit:///Users/tomsegarra/Documents/dev/dummies/lilypond_files/7e97e7d5437b11a3cc589532382eec3a.ly:30:66:67">
<g transform="translate(43.9179, 11.9867)">
<text font-family="serif" font-size="2.0989" text-anchor="start" fill="currentColor">
<tspan>fore</tspan>
</text>
</g>
</a>
<g color="red">
<g transform="translate(45.0989, 6.4867)">
<rect x="-0.0617" y="0.1525" width="0.1233" height="2.7163" ry="0.0400" fill="currentColor"/>
</g>
</g>
<g color="red">
<g transform="translate(45.1606, 9.3154)">
<path transform="scale(0.0034, -0.0034)" d="M0 0h-18v250h18v-250zM0 0v250c96 59 222 149 222 259c0 57 -15 111 -40 162c-3 17 10 29 24 29c8 0 16 -5 21 -13c25 -56 40 -116 40 -178c0 -203 -267 -306 -267 -509z" fill="currentColor"/>
</g>
</g>
<g transform="translate(26.6340, 8.8801)">
<polygon stroke-linejoin="round" stroke-linecap="round" stroke-width="0.0800" fill="currentColor" stroke="currentColor" points="2.5051 0.1491 2.5051 0.4771 0.0400 0.1640 0.0400 -0.1640"/>
</g>
<a style="color:inherit;" xlink:href="textedit:///Users/tomsegarra/Documents/dev/dummies/lilypond_files/7e97e7d5437b11a3cc589532382eec3a.ly:24:7:8">
<g transform="translate(15.0844, 5.6367)">
<path transform="scale(0.0034, -0.0034)" d="M215 137c67 0 111 -37 111 -92c0 -90 -111 -182 -215 -182c-67 0 -111 37 -111 92c0 90 111 182 215 182z" fill="currentColor"/>
</g>
</a>
<a style="color:inherit;" xlink:href="textedit:///Users/tomsegarra/Documents/dev/dummies/lilypond_files/7e97e7d5437b11a3cc589532382eec3a.ly:30:15:16">
<g transform="translate(14.4772, 11.9867)">
<text font-family="serif" font-size="2.0989" text-anchor="start" fill="currentColor">
<tspan>Be</tspan>
</text>
</g>
</a>
<g transform="translate(15.1461, 6.4867)">
<rect x="-0.0617" y="-0.6975" width="0.1233" height="2.3975" ry="0.0400" fill="currentColor"/>
</g>
<a style="color:inherit;" xlink:href="textedit:///Users/tomsegarra/Documents/dev/dummies/lilypond_files/7e97e7d5437b11a3cc589532382eec3a.ly:25:7:8">
<g transform="translate(34.6998, 6.4867)">
<path stroke-width="0.0759" stroke-linejoin="round" stroke-linecap="round" stroke="currentColor" fill="currentColor" d="M0.7537 1.0413C1.2242 1.5974 2.1905 1.5974 2.6611 1.0413L2.6611 1.0413C2.1905 1.4836 1.2242 1.4836 0.7537 1.0413z"/>
</g>
</a>
<a style="color:inherit;" xlink:href="textedit:///Users/tomsegarra/Documents/dev/dummies/lilypond_files/7e97e7d5437b11a3cc589532382eec3a.ly:24:12:13">
<g transform="translate(17.3918, 5.6367)">
<path transform="scale(0.0034, -0.0034)" d="M215 137c67 0 111 -37 111 -92c0 -90 -111 -182 -215 -182c-67 0 -111 37 -111 92c0 90 111 182 215 182z" fill="currentColor"/>
</g>
</a>
<a style="color:inherit;" xlink:href="textedit:///Users/tomsegarra/Documents/dev/dummies/lilypond_files/7e97e7d5437b11a3cc589532382eec3a.ly:30:21:22">
<g transform="translate(16.9382, 11.9867)">
<text font-family="serif" font-size="2.0989" text-anchor="start" fill="currentColor">
<tspan>in'</tspan>
</text>
</g>
</a>
<g transform="translate(17.4534, 6.4867)">
<rect x="-0.0617" y="-0.6975" width="0.1233" height="2.3975" ry="0.0400" fill="currentColor"/>
</g>
<a style="color:inherit;" xlink:href="textedit:///Users/tomsegarra/Documents/dev/dummies/lilypond_files/7e97e7d5437b11a3cc589532382eec3a.ly:24:14:15">
<g transform="translate(19.6992, 5.6367)">
<path transform="scale(0.0034, -0.0034)" d="M215 137c67 0 111 -37 111 -92c0 -90 -111 -182 -215 -182c-67 0 -111 37 -111 92c0 90 111 182 215 182z" fill="currentColor"/>
</g>
</a>
<a style="color:inherit;" xlink:href="textedit:///Users/tomsegarra/Documents/dev/dummies/lilypond_files/7e97e7d5437b11a3cc589532382eec3a.ly:30:25:26">
<g transform="translate(19.7919, 11.9867)">
<text font-family="serif" font-size="2.0989" text-anchor="start" fill="currentColor">
<tspan>a</tspan>
</text>
</g>
</a>
<g transform="translate(19.7608, 6.4867)">
<rect x="-0.0617" y="-0.6975" width="0.1233" height="2.3975" ry="0.0400" fill="currentColor"/>
</g>
<a style="color:inherit;" xlink:href="textedit:///Users/tomsegarra/Documents/dev/dummies/lilypond_files/7e97e7d5437b11a3cc589532382eec3a.ly:24:17:18">
<g transform="translate(22.4623, 5.6367)">
<path transform="scale(0.0034, -0.0034)" d="M215 137c67 0 111 -37 111 -92c0 -90 -111 -182 -215 -182c-67 0 -111 37 -111 92c0 90 111 182 215 182z" fill="currentColor"/>
</g>
</a>
<a style="color:inherit;" xlink:href="textedit:///Users/tomsegarra/Documents/dev/dummies/lilypond_files/7e97e7d5437b11a3cc589532382eec3a.ly:30:30:31">
<g transform="translate(20.8138, 11.9867)">
<text font-family="serif" font-size="2.0989" text-anchor="start" fill="currentColor">
<tspan>wake</tspan>
</text>
</g>
</a>
<g transform="translate(22.5240, 6.4867)">
<rect x="-0.0617" y="-0.6975" width="0.1233" height="2.8225" ry="0.0400" fill="currentColor"/>
</g>
<a style="color:inherit;" xlink:href="textedit:///Users/tomsegarra/Documents/dev/dummies/lilypond_files/7e97e7d5437b11a3cc589532382eec3a.ly:24:21:22">
<g transform="translate(26.6340, 6.0617)">
<path transform="scale(0.0034, -0.0034)" d="M215 137c67 0 111 -37 111 -92c0 -90 -111 -182 -215 -182c-67 0 -111 37 -111 92c0 90 111 182 215 182z" fill="currentColor"/>
</g>
</a>
<a style="color:inherit;" xlink:href="textedit:///Users/tomsegarra/Documents/dev/dummies/lilypond_files/7e97e7d5437b11a3cc589532382eec3a.ly:30:35:36">
<g transform="translate(25.6683, 11.9867)">
<text font-family="serif" font-size="2.0989" text-anchor="start" fill="currentColor">
<tspan>nev</tspan>
</text>
</g>
</a>
<g transform="translate(26.6956, 6.4867)">
<rect x="-0.0617" y="-0.2725" width="0.1233" height="2.6736" ry="0.0400" fill="currentColor"/>
</g>
<a style="color:inherit;" xlink:href="textedit:///Users/tomsegarra/Documents/dev/dummies/lilypond_files/7e97e7d5437b11a3cc589532382eec3a.ly:24:24:25">
<g transform="translate(29.0557, 6.4867)">
<path transform="scale(0.0034, -0.0034)" d="M215 137c67 0 111 -37 111 -92c0 -90 -111 -182 -215 -182c-67 0 -111 37 -111 92c0 90 111 182 215 182z" fill="currentColor"/>
</g>
</a>
<a style="color:inherit;" xlink:href="textedit:///Users/tomsegarra/Documents/dev/dummies/lilypond_files/7e97e7d5437b11a3cc589532382eec3a.ly:30:42:43">
<g transform="translate(28.8070, 11.9867)">
<text font-family="serif" font-size="2.0989" text-anchor="start" fill="currentColor">
<tspan>er</tspan>
</text>
</g>
</a>
<g transform="translate(29.1174, 6.4867)">
<rect x="-0.0617" y="0.1525" width="0.1233" height="2.5465" ry="0.0400" fill="currentColor"/>
</g>
<g transform="translate(33.2973, 3.9367)">
<polygon stroke-linejoin="round" stroke-linecap="round" stroke-width="0.0800" fill="currentColor" stroke="currentColor" points="7.0846 -0.0074 7.0846 0.3206 0.0400 0.1640 0.0400 -0.1640"/>
</g>
</svg>
