<svg xmlns="http://www.w3.org/2000/svg" xmlns:xlink="http://www.w3.org/1999/xlink" version="1.2" width="124.69mm" height="297.00mm" viewBox="0 0 70.9578 169.0094">
<style type="text/css">
<![CDATA[
tspan { white-space: pre; }
]]>
</style>
<!-- Page: 1/1 -->
<g transform="translate(21.1245, 6.4867)">
<rect x="0.0000" y="-1.7000" width="0.1802" height="3.4000" ry="0.0000" fill="currentColor"/>
</g>
<g transform="translate(2.2762, 9.0367)">
<rect x="61.0980" y="-0.0899" width="1.6611" height="0.1799" ry="0.0899" fill="currentColor"/>
</g>
<g transform="translate(2.2762, 9.8867)">
<rect x="61.0980" y="-0.0899" width="1.6611" height="0.1799" ry="0.0899" fill="currentColor"/>
</g>
<g transform="translate(2.2762, 10.7367)">
<rect x="61.0980" y="-0.0899" width="1.6611" height="0.1799" ry="0.0899" fill="currentColor"/>
</g>
<g transform="translate(2.2762, 11.5867)">
<rect x="61.0980" y="-0.0899" width="1.6611" height="0.1799" ry="0.0899" fill="currentColor"/>
</g>
<g transform="translate(2.2762, 12.4367)">
<rect x="61.0980" y="-0.0899" width="1.6611" height="0.1799" ry="0.0899" fill="currentColor"/>
</g>
<g transform="translate(2.2762, 9.0367)">
<rect x="57.5906" y="-0.0899" width="1.6611" height="0.1799" ry="0.0899" fill="currentColor"/>
</g>
<g transform="translate(2.2762, 9.8867)">
<rect x="57.5906" y="-0.0899" width="1.6611" height="0.1799" ry="0.0899" fill="currentColor"/>
</g>
<g transform="translate(2.2762, 10.7367)">
<rect x="57.5906" y="-0.0899" width="1.6611" height="0.1799" ry="0.0899" fill="currentColor"/>
</g>
<g transform="translate(2.2762, 11.5867)">
<rect x="57.5906" y="-0.0899" width="1.6611" height="0.1799" ry="0.0899" fill="currentColor"/>
</g>
<g transform="translate(2.2762, 12.4367)">
<rect x="57.5906" y="-0.0899" width="1.6611" height="0.1799" ry="0.0899" fill="currentColor"/>
</g>
<g transform="translate(2.2762, 13.2867)">
<rect x="57.5906" y="-0.0899" width="1.6611" height="0.1799" ry="0.0899" fill="currentColor"/>
</g>
<g transform="translate(2.2762, 9.0367)">
<rect x="53.9824" y="-0.0899" width="1.6611" height="0.1799" ry="0.0899" fill="currentColor"/>
</g>
<g transform="translate(2.2762, 9.8867)">
<rect x="53.9824" y="-0.0899" width="1.6611" height="0.1799" ry="0.0899" fill="currentColor"/>
</g>
<g transform="translate(2.2762, 10.7367)">
<rect x="53.9824" y="-0.0899" width="1.6611" height="0.1799" ry="0.0899" fill="currentColor"/>
</g>
<g transform="translate(2.2762, 11.5867)">
<rect x="53.9824" y="-0.0899" width="1.6611" height="0.1799" ry="0.0899" fill="currentColor"/>
</g>
<g transform="translate(2.2762, 12.4367)">
<rect x="53.9824" y="-0.0899" width="1.6611" height="0.1799" ry="0.0899" fill="currentColor"/>
</g>
<g transform="translate(2.2762, 9.0367)">
<rect x="49.9132" y="-0.0899" width="1.6611" height="0.1799" ry="0.0899" fill="currentColor"/>
</g>
<g transform="translate(2.2762, 9.8867)">
<rect x="49.9132" y="-0.0899" width="1.6611" height="0.1799" ry="0.0899" fill="currentColor"/>
</g>
<g transform="translate(2.2762, 10.7367)">
<rect x="49.9132" y="-0.0899" width="1.6611" height="0.1799" ry="0.0899" fill="currentColor"/>
</g>
<g transform="translate(2.2762, 11.5867)">
<rect x="49.9132" y="-0.0899" width="1.6611" height="0.1799" ry="0.0899" fill="currentColor"/>
</g>
<g transform="translate(2.2762, 12.4367)">
<rect x="49.9132" y="-0.0899" width="1.6611" height="0.1799" ry="0.0899" fill="currentColor"/>
</g>
<g transform="translate(2.2762, 9.0367)">
<rect x="45.1611" y="-0.0899" width="1.6611" height="0.1799" ry="0.0899" fill="currentColor"/>
</g>
<g transform="translate(2.2762, 9.8867)">
<rect x="45.1611" y="-0.0899" width="1.6611" height="0.1799" ry="0.0899" fill="currentColor"/>
</g>
<g transform="translate(2.2762, 10.7367)">
<rect x="45.1611" y="-0.0899" width="1.6611" height="0.1799" ry="0.0899" fill="currentColor"/>
</g>
<g transform="translate(2.2762, 11.5867)">
<rect x="45.1611" y="-0.0899" width="1.6611" height="0.1799" ry="0.0899" fill="currentColor"/>
</g>
<g transform="translate(2.2762, 12.4367)">
<rect x="45.1611" y="-0.0899" width="1.6611" height="0.1799" ry="0.0899" fill="currentColor"/>
</g>
<g transform="translate(2.2762, 9.0367)">
<rect x="40.4307" y="-0.0899" width="1.6611" height="0.1799" ry="0.0899" fill="currentColor"/>
</g>
<g transform="translate(2.2762, 9.8867)">
<rect x="40.4307" y="-0.0899" width="1.6611" height="0.1799" ry="0.0899" fill="currentColor"/>
</g>
<g transform="translate(2.2762, 10.7367)">
<rect x="40.4307" y="-0.0899" width="1.6611" height="0.1799" ry="0.0899" fill="currentColor"/>
</g>
<g transform="translate(2.2762, 11.5867)">
<rect x="40.4307" y="-0.0899" width="1.6611" height="0.1799" ry="0.0899" fill="currentColor"/>
</g>
<g transform="translate(2.2762, 12.4367)">
<rect x="40.4307" y="-0.0899" width="1.6611" height="0.1799" ry="0.0899" fill="currentColor"/>
</g>
<g transform="translate(2.2762, 9.0367)">
<rect x="38.1233" y="-0.0899" width="1.6611" height="0.1799" ry="0.0899" fill="currentColor"/>
</g>
<g transform="translate(2.2762, 9.8867)">
<rect x="38.1233" y="-0.0899" width="1.6611" height="0.1799" ry="0.0899" fill="currentColor"/>
</g>
<g transform="translate(2.2762, 10.7367)">
<rect x="38.1233" y="-0.0899" width="1.6611" height="0.1799" ry="0.0899" fill="currentColor"/>
</g>
<g transform="translate(2.2762, 11.5867)">
<rect x="38.1233" y="-0.0899" width="1.6611" height="0.1799" ry="0.0899" fill="currentColor"/>
</g>
<g transform="translate(2.2762, 12.4367)">
<rect x="38.1233" y="-0.0899" width="1.6611" height="0.1799" ry="0.0899" fill="currentColor"/>
</g>
<g transform="translate(2.2762, 9.0367)">
<rect x="36.0659" y="-0.0899" width="1.6611" height="0.1799" ry="0.0899" fill="currentColor"/>
</g>
<g transform="translate(2.2762, 9.8867)">
<rect x="36.0659" y="-0.0899" width="1.6611" height="0.1799" ry="0.0899" fill="currentColor"/>
</g>
<g transform="translate(2.2762, 10.7367)">
<rect x="36.0659" y="-0.0899" width="1.6611" height="0.1799" ry="0.0899" fill="currentColor"/>
</g>
<g transform="translate(2.2762, 11.5867)">
<rect x="36.0659" y="-0.0899" width="1.6611" height="0.1799" ry="0.0899" fill="currentColor"/>
</g>
<g transform="translate(2.2762, 9.0367)">
<rect x="33.7585" y="-0.0899" width="1.6611" height="0.1799" ry="0.0899" fill="currentColor"/>
</g>
<g transform="translate(2.2762, 9.8867)">
<rect x="33.7585" y="-0.0899" width="1.6611" height="0.1799" ry="0.0899" fill="currentColor"/>
</g>
<g transform="translate(2.2762, 10.7367)">
<rect x="33.7585" y="-0.0899" width="1.6611" height="0.1799" ry="0.0899" fill="currentColor"/>
</g>
<g transform="translate(2.2762, 11.5867)">
<rect x="33.7585" y="-0.0899" width="1.6611" height="0.1799" ry="0.0899" fill="currentColor"/>
</g>
<g transform="translate(2.2762, 9.0367)">
<rect x="31.4511" y="-0.0899" width="1.6611" height="0.1799" ry="0.0899" fill="currentColor"/>
</g>
<g transform="translate(2.2762, 9.8867)">
<rect x="31.4511" y="-0.0899" width="1.6611" height="0.1799" ry="0.0899" fill="currentColor"/>
</g>
<g transform="translate(2.2762, 10.7367)">
<rect x="31.4511" y="-0.0899" width="1.6611" height="0.1799" ry="0.0899" fill="currentColor"/>
</g>
<g transform="translate(2.2762, 11.5867)">
<rect x="31.4511" y="-0.0899" width="1.6611" height="0.1799" ry="0.0899" fill="currentColor"/>
</g>
<g transform="translate(2.2762, 9.0367)">
<rect x="27.2112" y="-0.0899" width="1.6611" height="0.1799" ry="0.0899" fill="currentColor"/>
</g>
<g transform="translate(2.2762, 9.8867)">
<rect x="27.2112" y="-0.0899" width="1.6611" height="0.1799" ry="0.0899" fill="currentColor"/>
</g>
<g transform="translate(2.2762, 10.7367)">
<rect x="27.2112" y="-0.0899" width="1.6611" height="0.1799" ry="0.0899" fill="currentColor"/>
</g>
<g transform="translate(2.2762, 11.5867)">
<rect x="27.2112" y="-0.0899" width="1.6611" height="0.1799" ry="0.0899" fill="currentColor"/>
</g>
<g transform="translate(2.2762, 9.0367)">
<rect x="23.1591" y="-0.0899" width="1.6611" height="0.1799" ry="0.0899" fill="currentColor"/>
</g>
<g transform="translate(2.2762, 9.8867)">
<rect x="23.1591" y="-0.0899" width="1.6611" height="0.1799" ry="0.0899" fill="currentColor"/>
</g>
<g transform="translate(2.2762, 10.7367)">
<rect x="23.1591" y="-0.0899" width="1.6611" height="0.1799" ry="0.0899" fill="currentColor"/>
</g>
<g transform="translate(2.2762, 11.5867)">
<rect x="23.1591" y="-0.0899" width="1.6611" height="0.1799" ry="0.0899" fill="currentColor"/>
</g>
<g transform="translate(2.2762, 9.0367)">
<rect x="19.6517" y="-0.0899" width="1.6611" height="0.1799" ry="0.0899" fill="currentColor"/>
</g>
<g transform="translate(2.2762, 9.8867)">
<rect x="19.6517" y="-0.0899" width="1.6611" height="0.1799" ry="0.0899" fill="currentColor"/>
</g>
<g transform="translate(2.2762, 10.7367)">
<rect x="19.6517" y="-0.0899" width="1.6611" height="0.1799" ry="0.0899" fill="currentColor"/>
</g>
<g transform="translate(2.2762, 9.0367)">
<rect x="16.1212" y="-0.0899" width="1.6611" height="0.1799" ry="0.0899" fill="currentColor"/>
</g>
<g transform="translate(2.2762, 9.8867)">
<rect x="16.1212" y="-0.0899" width="1.6611" height="0.1799" ry="0.0899" fill="currentColor"/>
</g>
<g transform="translate(2.2762, 10.7367)">
<rect x="16.1212" y="-0.0899" width="1.6611" height="0.1799" ry="0.0899" fill="currentColor"/>
</g>
<g transform="translate(2.2762, 9.0367)">
<rect x="13.8139" y="-0.0899" width="1.6611" height="0.1799" ry="0.0899" fill="currentColor"/>
</g>
<g transform="translate(2.2762, 9.8867)">
<rect x="13.8139" y="-0.0899" width="1.6611" height="0.1799" ry="0.0899" fill="currentColor"/>
</g>
<g transform="translate(2.2762, 10.7367)">
<rect x="13.8139" y="-0.0899" width="1.6611" height="0.1799" ry="0.0899" fill="currentColor"/>
</g>
<g transform="translate(2.2762, 9.0367)">
<rect x="10.3065" y="-0.0899" width="1.6611" height="0.1799" ry="0.0899" fill="currentColor"/>
</g>
<g transform="translate(2.2762, 9.8867)">
<rect x="10.3065" y="-0.0899" width="1.6611" height="0.1799" ry="0.0899" fill="currentColor"/>
</g>
<g transform="translate(2.2762, 10.7367)">
<rect x="10.3065" y="-0.0899" width="1.6611" height="0.1799" ry="0.0899" fill="currentColor"/>
</g>
<g transform="translate(2.2762, 11.5867)">
<rect x="10.3065" y="-0.0899" width="1.6611" height="0.1799" ry="0.0899" fill="currentColor"/>
</g>
<g transform="translate(2.2762, 8.1867)">
<line stroke-linejoin="round" stroke-linecap="round" stroke-width="0.0949" stroke="currentColor" x1="0.0474" y1="0" x2="66.3579" y2="0"/>
</g>
<g transform="translate(2.2762, 7.3367)">
<line stroke-linejoin="round" stroke-linecap="round" stroke-width="0.0949" stroke="currentColor" x1="0.0474" y1="0" x2="66.3579" y2="0"/>
</g>
<g transform="translate(2.2762, 6.4867)">
<line stroke-linejoin="round" stroke-linecap="round" stroke-width="0.0949" stroke="currentColor" x1="0.0474" y1="0" x2="66.3579" y2="0"/>
</g>
<g transform="translate(2.2762, 5.6367)">
<line stroke-linejoin="round" stroke-linecap="round" stroke-width="0.0949" stroke="currentColor" x1="0.0474" y1="0" x2="66.3579" y2="0"/>
</g>
<g transform="translate(2.2762, 4.7867)">
<line stroke-linejoin="round" stroke-linecap="round" stroke-width="0.0949" stroke="currentColor" x1="0.0474" y1="0" x2="66.3579" y2="0"/>
</g>
<g transform="translate(68.5013, 6.4867)">
<rect x="0.0000" y="-1.7000" width="0.1802" height="3.4000" ry="0.0000" fill="currentColor"/>
</g>
<g transform="translate(46.6340, 6.4867)">
<rect x="0.0000" y="-1.7000" width="0.1802" height="3.4000" ry="0.0000" fill="currentColor"/>
</g>
<a style="color:inherit;" xlink:href="textedit:///Users/tomsegarra/Documents/dev/dummies/lilypond_files/8e58d8ebd7c376cfe11455c11a9e8565.ly:33:20:21">
<g transform="translate(17.8686, 15.6444)">
<rect x="0.0000" y="-0.5433" width="0.6600" height="0.1233" ry="0.0379" fill="currentColor"/>
</g>
</a>
<a style="color:inherit;" xlink:href="textedit:///Users/tomsegarra/Documents/dev/dummies/lilypond_files/8e58d8ebd7c376cfe11455c11a9e8565.ly:25:16:17">
<g transform="translate(12.8595, 11.5867)">
<path transform="scale(0.0034, -0.0034)" d="M215 137c67 0 111 -37 111 -92c0 -90 -111 -182 -215 -182c-67 0 -111 37 -111 92c0 90 111 182 215 182z" fill="currentColor"/>
</g>
</a>
<g transform="translate(3.0762, 7.3367)">
<path transform="scale(0.0034, -0.0034)" d="M646 2c0 -113 -74 -213 -180 -247c3 -34 5 -68 5 -102c0 -20 -1 -40 -2 -60c-7 -121 -91 -228 -209 -228c-108 0 -196 87 -196 196c0 58 53 104 112 104c54 0 95 -48 95 -104c0 -52 -43 -95 -95 -95c-10 0 -20 2 -29 6c26 -38 68 -63 116 -63h3c93 2 153 92 159 190
c1 19 2 37 2 56c0 30 -2 60 -4 90c-5 -1 -43 -8 -88 -8c-194 0 -333 180 -333 375c0 177 130 307 246 442c-31 98 -53 170 -53 347c0 115 55 223 148 290c7 5 16 4 22 -1c68 -80 134 -243 134 -357c0 -143 -85 -255 -178 -364c21 -68 40 -137 57 -206c1 0 5 1 11 1
c156 0 257 -129 257 -262zM462 -202c66 24 111 88 111 162c0 89 -65 178 -170 190c28 -135 50 -272 59 -352zM75 26c0 -145 141 -245 263 -245c1 0 46 0 81 6c-7 65 -27 206 -61 363c-79 -8 -124 -61 -124 -119c0 -43 25 -89 80 -121c5 -5 7 -11 7 -16
c0 -12 -10 -23 -22 -23c-16 0 -127 63 -127 188c0 89 58 175 161 198c-14 58 -29 116 -46 173c-106 -122 -212 -244 -212 -404zM406 1042c-99 -47 -162 -148 -162 -257c0 -49 13 -111 38 -191c79 97 144 199 144 324c0 33 0 63 -20 124z" fill="currentColor"/>
</g>
<a style="color:inherit;" xlink:href="textedit:///Users/tomsegarra/Documents/dev/dummies/lilypond_files/8e58d8ebd7c376cfe11455c11a9e8565.ly:24:1:9">
<g transform="translate(6.5762, 4.7867)">
<path transform="scale(0.0034, -0.0034)" d="M217 -311c0 -11 -8 -19 -19 -19s-20 8 -20 19v142l-81 -30v-156c0 -11 -9 -20 -20 -20s-19 9 -19 20v142l-28 -11c-3 -1 -5 -1 -8 -1c-12 0 -22 10 -22 23v57c0 9 6 18 15 21l43 16v157l-28 -10c-3 -1 -5 -1 -8 -1c-12 0 -22 9 -22 22v57c0 9 6 18 15 21l43 16v157
c0 11 8 19 19 19s20 -8 20 -19v-142l81 30v156c0 11 9 20 20 20s19 -9 19 -20v-142l28 11c3 1 5 1 8 1c12 0 22 -10 22 -23v-57c0 -9 -6 -18 -15 -21l-43 -16v-157l28 10c3 1 5 1 8 1c12 0 22 -9 22 -22v-57c0 -9 -6 -18 -15 -21l-43 -16v-157zM97 64v-158l81 30v158z" fill="currentColor"/>
</g>
<g transform="translate(7.5112, 6.0617)">
<path transform="scale(0.0034, -0.0034)" d="M217 -311c0 -11 -8 -19 -19 -19s-20 8 -20 19v142l-81 -30v-156c0 -11 -9 -20 -20 -20s-19 9 -19 20v142l-28 -11c-3 -1 -5 -1 -8 -1c-12 0 -22 10 -22 23v57c0 9 6 18 15 21l43 16v157l-28 -10c-3 -1 -5 -1 -8 -1c-12 0 -22 9 -22 22v57c0 9 6 18 15 21l43 16v157
c0 11 8 19 19 19s20 -8 20 -19v-142l81 30v156c0 11 9 20 20 20s19 -9 19 -20v-142l28 11c3 1 5 1 8 1c12 0 22 -10 22 -23v-57c0 -9 -6 -18 -15 -21l-43 -16v-157l28 10c3 1 5 1 8 1c12 0 22 -9 22 -22v-57c0 -9 -6 -18 -15 -21l-43 -16v-157zM97 64v-158l81 30v158z" fill="currentColor"/>
</g>
</a>
<g transform="translate(9.6474, 6.4867)">
<path transform="scale(0.0034, -0.0034)" d="M172 256c-49 0 -52 -40 -52 -94v-22v-21c0 -54 3 -94 52 -94c56 0 59 50 59 115s-3 116 -59 116zM120 267c17 7 34 14 52 14c102 0 171 -46 171 -141s-69 -140 -171 -140c-112 0 -172 124 -172 250c0 129 74 250 192 250c71 0 139 -40 139 -105c0 -36 -29 -65 -65 -65
s-65 29 -65 65c0 23 39 26 39 49c0 21 -24 31 -48 31c-64 0 -74 -62 -74 -134c0 -24 2 -49 2 -74z" fill="currentColor"/>
</g>
<g transform="translate(9.5962, 8.1866)">
<path transform="scale(0.0034, -0.0034)" d="M261 290c26 29 47 61 47 100c0 54 -57 85 -116 85c-46 0 -73 -35 -73 -69c0 -20 9 -40 29 -51zM293 272c30 -17 82 -58 82 -127c0 -74 -66 -145 -190 -145c-95 0 -185 53 -185 140c0 50 38 85 75 120c-40 28 -59 68 -59 106c0 68 60 134 176 134c81 0 163 -38 163 -110
c0 -47 -29 -84 -62 -118zM107 241c-32 -29 -61 -59 -61 -101c0 -69 66 -115 139 -115c54 0 85 41 85 81c0 24 -11 47 -35 61z" fill="currentColor"/>
</g>
<a style="color:inherit;" xlink:href="textedit:///Users/tomsegarra/Documents/dev/dummies/lilypond_files/8e58d8ebd7c376cfe11455c11a9e8565.ly:33:15:16">
<g transform="translate(13.0718, 15.6444)">
<text font-family="serif" font-size="2.0989" text-anchor="start" fill="currentColor">
<tspan>I</tspan>
</text>
</g>
</a>
<g transform="translate(13.9053, 6.4867)">
<rect x="-0.0617" y="0.0000" width="0.1233" height="4.9475" ry="0.0400" fill="currentColor"/>
</g>
<a style="color:inherit;" xlink:href="textedit:///Users/tomsegarra/Documents/dev/dummies/lilypond_files/8e58d8ebd7c376cfe11455c11a9e8565.ly:33:27:28">
<g transform="translate(23.5741, 15.6444)">
<rect x="0.0000" y="-0.5433" width="0.6600" height="0.1233" ry="0.0379" fill="currentColor"/>
</g>
</a>
<a style="color:inherit;" xlink:href="textedit:///Users/tomsegarra/Documents/dev/dummies/lilypond_files/8e58d8ebd7c376cfe11455c11a9e8565.ly:26:27:28">
<g transform="translate(38.6190, 12.0117)">
<path transform="scale(0.0034, -0.0034)" d="M215 137c67 0 111 -37 111 -92c0 -90 -111 -182 -215 -182c-67 0 -111 37 -111 92c0 90 111 182 215 182z" fill="currentColor"/>
</g>
</a>
<g transform="translate(39.6647, 6.4867)">
<rect x="-0.0617" y="0.0000" width="0.1233" height="5.3725" ry="0.0400" fill="currentColor"/>
</g>
<a style="color:inherit;" xlink:href="textedit:///Users/tomsegarra/Documents/dev/dummies/lilypond_files/8e58d8ebd7c376cfe11455c11a9e8565.ly:25:26:27">
<g transform="translate(18.6743, 6.4867)">
<path stroke-width="0.0759" stroke-linejoin="round" stroke-linecap="round" stroke="currentColor" fill="currentColor" d="M1.3074 5.1000C1.7994 5.6749 2.8384 5.6749 3.3305 5.1000L3.3305 5.1000C2.8384 5.5611 1.7994 5.5611 1.3074 5.1000z"/>
</g>
</a>
<a style="color:inherit;" xlink:href="textedit:///Users/tomsegarra/Documents/dev/dummies/lilypond_files/8e58d8ebd7c376cfe11455c11a9e8565.ly:26:29:30">
<g transform="translate(40.6763, 12.4367)">
<path transform="scale(0.0034, -0.0034)" d="M215 137c67 0 111 -37 111 -92c0 -90 -111 -182 -215 -182c-67 0 -111 37 -111 92c0 90 111 182 215 182z" fill="currentColor"/>
</g>
</a>
<a style="color:inherit;" xlink:href="textedit:///Users/tomsegarra/Documents/dev/dummies/lilypond_files/8e58d8ebd7c376cfe11455c11a9e8565.ly:33:52:53">
<g transform="translate(40.6763, 15.6444)">
<text font-family="serif" font-size="2.0989" text-anchor="start" fill="currentColor">
<tspan>y</tspan>
</text>
</g>
</a>
<g transform="translate(41.7221, 6.4867)">
<rect x="-0.0617" y="-0.0000" width="0.1233" height="5.7975" ry="0.0400" fill="currentColor"/>
</g>
<g transform="translate(13.8436, 6.4867)">
<polygon stroke-linejoin="round" stroke-linecap="round" stroke-width="0.0800" fill="currentColor" stroke="currentColor" points="5.8981 -0.1640 5.8981 0.1640 0.0400 0.1640 0.0400 -0.1640"/>
</g>
<g transform="translate(17.3510, 7.1801)">
<polygon stroke-linejoin="round" stroke-linecap="round" stroke-width="0.0800" fill="currentColor" stroke="currentColor" points="2.3907 -0.1640 2.3907 0.1640 0.0400 0.1640 0.0400 -0.1640"/>
</g>
<a style="color:inherit;" xlink:href="textedit:///Users/tomsegarra/Documents/dev/dummies/lilypond_files/8e58d8ebd7c376cfe11455c11a9e8565.ly:26:34:35">
<g transform="translate(42.9837, 12.4367)">
<path transform="scale(0.0034, -0.0034)" d="M215 137c67 0 111 -37 111 -92c0 -90 -111 -182 -215 -182c-67 0 -111 37 -111 92c0 90 111 182 215 182z" fill="currentColor"/>
</g>
</a>
<g transform="translate(44.0295, 6.4867)">
<rect x="-0.0617" y="-0.0000" width="0.1233" height="5.7975" ry="0.0400" fill="currentColor"/>
</g>
<a style="color:inherit;" xlink:href="textedit:///Users/tomsegarra/Documents/dev/dummies/lilypond_files/8e58d8ebd7c376cfe11455c11a9e8565.ly:27:4:5">
<g transform="translate(47.7142, 12.4367)">
<path transform="scale(0.0034, -0.0034)" d="M215 137c67 0 111 -37 111 -92c0 -90 -111 -182 -215 -182c-67 0 -111 37 -111 92c0 90 111 182 215 182z" fill="currentColor"/>
</g>
</a>
<a style="color:inherit;" xlink:href="textedit:///Users/tomsegarra/Documents/dev/dummies/lilypond_files/8e58d8ebd7c376cfe11455c11a9e8565.ly:33:54:55">
<g transform="translate(45.2462, 15.6444)">
<text font-family="serif" font-size="2.0989" text-anchor="start" fill="currentColor">
<tspan>thrilled</tspan>
</text>
</g>
</a>
<g transform="translate(48.7599, 6.4867)">
<rect x="-0.0617" y="-0.0000" width="0.1233" height="5.7975" ry="0.0400" fill="currentColor"/>
</g>
<a style="color:inherit;" xlink:href="textedit:///Users/tomsegarra/Documents/dev/dummies/lilypond_files/8e58d8ebd7c376cfe11455c11a9e8565.ly:27:9:10">
<g transform="translate(52.4663, 12.8617)">
<path transform="scale(0.0034, -0.0034)" d="M215 137c67 0 111 -37 111 -92c0 -90 -111 -182 -215 -182c-67 0 -111 37 -111 92c0 90 111 182 215 182z" fill="currentColor"/>
</g>
</a>
<a style="color:inherit;" xlink:href="textedit:///Users/tomsegarra/Documents/dev/dummies/lilypond_files/8e58d8ebd7c376cfe11455c11a9e8565.ly:33:63:64">
<g transform="translate(51.7396, 15.6444)">
<text font-family="serif" font-size="2.0989" text-anchor="start" fill="currentColor">
<tspan>me</tspan>
</text>
</g>
</a>
<g transform="translate(53.5120, 6.4867)">
<rect x="-0.0617" y="-0.0000" width="0.1233" height="6.2225" ry="0.0400" fill="currentColor"/>
</g>
<g color="red">
<a style="color:inherit;" xlink:href="textedit:///Users/tomsegarra/Documents/dev/dummies/lilypond_files/8e58d8ebd7c376cfe11455c11a9e8565.ly:31:4:5">
<g transform="translate(56.5354, 12.8617)">
<path transform="scale(0.0034, -0.0034)" d="M215 137c67 0 111 -37 111 -92c0 -90 -111 -182 -215 -182c-67 0 -111 37 -111 92c0 90 111 182 215 182z" fill="currentColor"/>
</g>
</a>
</g>
<a style="color:inherit;" xlink:href="textedit:///Users/tomsegarra/Documents/dev/dummies/lilypond_files/8e58d8ebd7c376cfe11455c11a9e8565.ly:33:66:67">
<g transform="translate(54.7503, 15.6444)">
<text font-family="serif" font-size="2.0989" text-anchor="start" fill="currentColor">
<tspan>much</tspan>
</text>
</g>
</a>
<g color="red">
<g transform="translate(57.5812, 6.4867)">
<rect x="-0.0617" y="-0.0000" width="0.1233" height="6.2225" ry="0.0400" fill="currentColor"/>
</g>
</g>
<g transform="translate(23.1888, 6.4867)">
<polygon stroke-linejoin="round" stroke-linecap="round" stroke-width="0.0800" fill="currentColor" stroke="currentColor" points="7.6428 -0.1640 7.6428 0.1640 0.0400 0.1640 0.0400 -0.1640"/>
</g>
<g color="red">
<a style="color:inherit;" xlink:href="textedit:///Users/tomsegarra/Documents/dev/dummies/lilypond_files/8e58d8ebd7c376cfe11455c11a9e8565.ly:31:7:8">
<g transform="translate(60.1437, 13.7117)">
<path transform="scale(0.0034, -0.0034)" d="M215 137c67 0 111 -37 111 -92c0 -90 -111 -182 -215 -182c-67 0 -111 37 -111 92c0 90 111 182 215 182z" fill="currentColor"/>
</g>
</a>
</g>
<a style="color:inherit;" xlink:href="textedit:///Users/tomsegarra/Documents/dev/dummies/lilypond_files/8e58d8ebd7c376cfe11455c11a9e8565.ly:33:71:72">
<g transform="translate(59.8780, 15.6444)">
<text font-family="serif" font-size="2.0989" text-anchor="start" fill="currentColor">
<tspan>m</tspan>
</text>
</g>
</a>
<g color="red">
<g transform="translate(61.1894, 6.4867)">
<rect x="-0.0617" y="-0.0000" width="0.1233" height="7.0725" ry="0.0400" fill="currentColor"/>
</g>
</g>
<g color="red">
<g transform="translate(61.2511, 6.5267)">
<path transform="scale(0.0034, -0.0034)" d="M0 0c0 -197 207 -335 207 -532c0 -71 -15 -141 -41 -207c-5 -8 -13 -12 -21 -12c-14 0 -27 11 -24 28c26 60 42 125 42 191c0 103 -93 207 -163 282h-18v250h18z" fill="currentColor"/>
</g>
</g>
<a style="color:inherit;" xlink:href="textedit:///Users/tomsegarra/Documents/dev/dummies/lilypond_files/8e58d8ebd7c376cfe11455c11a9e8565.ly:33:49:50">
<g transform="translate(38.9663, 15.6444)">
<rect x="0.0000" y="-0.5433" width="0.6600" height="0.1233" ry="0.0379" fill="currentColor"/>
</g>
</a>
<g color="red">
<a style="color:inherit;" xlink:href="textedit:///Users/tomsegarra/Documents/dev/dummies/lilypond_files/8e58d8ebd7c376cfe11455c11a9e8565.ly:31:9:10">
<g transform="translate(63.6511, 12.4367)">
<path transform="scale(0.0034, -0.0034)" d="M215 137c67 0 111 -37 111 -92c0 -90 -111 -182 -215 -182c-67 0 -111 37 -111 92c0 90 111 182 215 182z" fill="currentColor"/>
</g>
</a>
</g>
<a style="color:inherit;" xlink:href="textedit:///Users/tomsegarra/Documents/dev/dummies/lilypond_files/8e58d8ebd7c376cfe11455c11a9e8565.ly:33:76:77">
<g transform="translate(62.8732, 15.6444)">
<text font-family="serif" font-size="2.0989" text-anchor="start" fill="currentColor">
<tspan>ore</tspan>
</text>
</g>
</a>
<g color="red">
<g transform="translate(64.6968, 6.4867)">
<rect x="-0.0617" y="-0.0000" width="0.1233" height="5.7975" ry="0.0400" fill="currentColor"/>
</g>
</g>
<a style="color:inherit;" xlink:href="textedit:///Users/tomsegarra/Documents/dev/dummies/lilypond_files/8e58d8ebd7c376cfe11455c11a9e8565.ly:26:23:24">
<g transform="translate(36.3116, 6.4867)">
<path stroke-width="0.0759" stroke-linejoin="round" stroke-linecap="round" stroke="currentColor" fill="currentColor" d="M0.7537 6.3750C1.2242 6.9312 2.1905 6.9312 2.6611 6.3750L2.6611 6.3750C2.1905 6.8174 1.2242 6.8174 0.7537 6.3750z"/>
</g>
</a>
<a style="color:inherit;" xlink:href="textedit:///Users/tomsegarra/Documents/dev/dummies/lilypond_files/8e58d8ebd7c376cfe11455c11a9e8565.ly:26:30:31">
<g transform="translate(40.6763, 6.4867)">
<path stroke-width="0.0759" stroke-linejoin="round" stroke-linecap="round" stroke="currentColor" fill="currentColor" d="M0.7537 6.6250C1.2242 7.1812 2.1905 7.1812 2.6611 6.6250L2.6611 6.6250C2.1905 7.0674 1.2242 7.0674 0.7537 6.6250z"/>
</g>
</a>
<a style="color:inherit;" xlink:href="textedit:///Users/tomsegarra/Documents/dev/dummies/lilypond_files/8e58d8ebd7c376cfe11455c11a9e8565.ly:25:21:22">
<g transform="translate(16.3669, 11.1617)">
<path transform="scale(0.0034, -0.0034)" d="M215 137c67 0 111 -37 111 -92c0 -90 -111 -182 -215 -182c-67 0 -111 37 -111 92c0 90 111 182 215 182z" fill="currentColor"/>
</g>
</a>
<a style="color:inherit;" xlink:href="textedit:///Users/tomsegarra/Documents/dev/dummies/lilypond_files/8e58d8ebd7c376cfe11455c11a9e8565.ly:33:17:18">
<g transform="translate(16.1182, 15.6444)">
<text font-family="serif" font-size="2.0989" text-anchor="start" fill="currentColor">
<tspan>re</tspan>
</text>
</g>
</a>
<g transform="translate(17.4126, 6.4867)">
<rect x="-0.0617" y="0.0000" width="0.1233" height="4.5225" ry="0.0400" fill="currentColor"/>
</g>
<a style="color:inherit;" xlink:href="textedit:///Users/tomsegarra/Documents/dev/dummies/lilypond_files/8e58d8ebd7c376cfe11455c11a9e8565.ly:25:25:26">
<g transform="translate(18.6743, 11.1617)">
<path transform="scale(0.0034, -0.0034)" d="M215 137c67 0 111 -37 111 -92c0 -90 -111 -182 -215 -182c-67 0 -111 37 -111 92c0 90 111 182 215 182z" fill="currentColor"/>
</g>
</a>
<a style="color:inherit;" xlink:href="textedit:///Users/tomsegarra/Documents/dev/dummies/lilypond_files/8e58d8ebd7c376cfe11455c11a9e8565.ly:33:23:24">
<g transform="translate(18.6743, 15.6444)">
<text font-family="serif" font-size="2.0989" text-anchor="start" fill="currentColor">
<tspan>mem</tspan>
</text>
</g>
</a>
<g transform="translate(19.7200, 6.4867)">
<rect x="-0.0617" y="0.0000" width="0.1233" height="4.5225" ry="0.0400" fill="currentColor"/>
</g>
<g transform="translate(34.9883, 6.4867)">
<polygon stroke-linejoin="round" stroke-linecap="round" stroke-width="0.0800" fill="currentColor" stroke="currentColor" points="9.0629 -0.1640 9.0629 0.1640 0.0400 0.1640 0.0400 -0.1640"/>
</g>
<g transform="translate(34.9883, 7.1801)">
<polygon stroke-linejoin="round" stroke-linecap="round" stroke-width="0.0800" fill="currentColor" stroke="currentColor" points="6.7555 -0.1640 6.7555 0.1640 0.0400 0.1640 0.0400 -0.1640"/>
</g>
<a style="color:inherit;" xlink:href="textedit:///Users/tomsegarra/Documents/dev/dummies/lilypond_files/8e58d8ebd7c376cfe11455c11a9e8565.ly:26:4:5">
<g transform="translate(22.2048, 11.1617)">
<path transform="scale(0.0034, -0.0034)" d="M215 137c67 0 111 -37 111 -92c0 -90 -111 -182 -215 -182c-67 0 -111 37 -111 92c0 90 111 182 215 182z" fill="currentColor"/>
</g>
</a>
<g transform="translate(23.2505, 6.4867)">
<rect x="-0.0617" y="0.0000" width="0.1233" height="4.5225" ry="0.0400" fill="currentColor"/>
</g>
<a style="color:inherit;" xlink:href="textedit:///Users/tomsegarra/Documents/dev/dummies/lilypond_files/8e58d8ebd7c376cfe11455c11a9e8565.ly:26:9:10">
<g transform="translate(25.7122, 11.5867)">
<path transform="scale(0.0034, -0.0034)" d="M215 137c67 0 111 -37 111 -92c0 -90 -111 -182 -215 -182c-67 0 -111 37 -111 92c0 90 111 182 215 182z" fill="currentColor"/>
</g>
</a>
<a style="color:inherit;" xlink:href="textedit:///Users/tomsegarra/Documents/dev/dummies/lilypond_files/8e58d8ebd7c376cfe11455c11a9e8565.ly:33:30:31">
<g transform="translate(24.9343, 15.6444)">
<text font-family="serif" font-size="2.0989" text-anchor="start" fill="currentColor">
<tspan>ber</tspan>
</text>
</g>
</a>
<g transform="translate(26.7579, 6.4867)">
<rect x="-0.0617" y="0.0000" width="0.1233" height="4.9475" ry="0.0400" fill="currentColor"/>
</g>
<a style="color:inherit;" xlink:href="textedit:///Users/tomsegarra/Documents/dev/dummies/lilypond_files/8e58d8ebd7c376cfe11455c11a9e8565.ly:26:13:14">
<g transform="translate(29.7643, 11.5867)">
<path transform="scale(0.0034, -0.0034)" d="M215 137c67 0 111 -37 111 -92c0 -90 -111 -182 -215 -182c-67 0 -111 37 -111 92c0 90 111 182 215 182z" fill="currentColor"/>
</g>
</a>
<a style="color:inherit;" xlink:href="textedit:///Users/tomsegarra/Documents/dev/dummies/lilypond_files/8e58d8ebd7c376cfe11455c11a9e8565.ly:33:34:35">
<g transform="translate(28.0474, 15.6444)">
<text font-family="serif" font-size="2.0989" text-anchor="start" fill="currentColor">
<tspan>when</tspan>
</text>
</g>
</a>
<g transform="translate(30.8100, 6.4867)">
<rect x="-0.0617" y="0.0000" width="0.1233" height="4.9475" ry="0.0400" fill="currentColor"/>
</g>
<a style="color:inherit;" xlink:href="textedit:///Users/tomsegarra/Documents/dev/dummies/lilypond_files/8e58d8ebd7c376cfe11455c11a9e8565.ly:26:18:19">
<g transform="translate(34.0042, 11.5867)">
<path transform="scale(0.0034, -0.0034)" d="M215 137c67 0 111 -37 111 -92c0 -90 -111 -182 -215 -182c-67 0 -111 37 -111 92c0 90 111 182 215 182z" fill="currentColor"/>
</g>
</a>
<a style="color:inherit;" xlink:href="textedit:///Users/tomsegarra/Documents/dev/dummies/lilypond_files/8e58d8ebd7c376cfe11455c11a9e8565.ly:33:39:40">
<g transform="translate(33.0385, 15.6444)">
<text font-family="serif" font-size="2.0989" text-anchor="start" fill="currentColor">
<tspan>mis</tspan>
</text>
</g>
</a>
<g transform="translate(35.0499, 6.4867)">
<rect x="-0.0617" y="0.0000" width="0.1233" height="4.9475" ry="0.0400" fill="currentColor"/>
</g>
<a style="color:inherit;" xlink:href="textedit:///Users/tomsegarra/Documents/dev/dummies/lilypond_files/8e58d8ebd7c376cfe11455c11a9e8565.ly:26:22:23">
<g transform="translate(36.3116, 12.0117)">
<path transform="scale(0.0034, -0.0034)" d="M215 137c67 0 111 -37 111 -92c0 -90 -111 -182 -215 -182c-67 0 -111 37 -111 92c0 90 111 182 215 182z" fill="currentColor"/>
</g>
</a>
<a style="color:inherit;" xlink:href="textedit:///Users/tomsegarra/Documents/dev/dummies/lilypond_files/8e58d8ebd7c376cfe11455c11a9e8565.ly:33:46:47">
<g transform="translate(36.3116, 15.6444)">
<text font-family="serif" font-size="2.0989" text-anchor="start" fill="currentColor">
<tspan>er</tspan>
</text>
</g>
</a>
<g transform="translate(37.3573, 6.4867)">
<rect x="-0.0617" y="0.0000" width="0.1233" height="5.3725" ry="0.0400" fill="currentColor"/>
</g>
<g transform="translate(48.6983, 6.4867)">
<polygon stroke-linejoin="round" stroke-linecap="round" stroke-width="0.0800" fill="currentColor" stroke="currentColor" points="8.9046 -0.1640 8.9046 0.1640 0.0400 0.1640 0.0400 -0.1640"/>
</g>
<a style="color:inherit;" xlink:href="textedit:///Users/tomsegarra/Documents/dev/dummies/lilypond_files/8e58d8ebd7c376cfe11455c11a9e8565.ly:33:73:74">
<g transform="translate(61.8650, 15.6444)">
<rect x="0.0000" y="-0.5433" width="0.6600" height="0.1233" ry="0.0379" fill="currentColor"/>
</g>
</a>
</svg>
