<?xml version="1.0" encoding="UTF-8" standalone="no"?>
<svg
   version="1.2"
   width="97.066681mm"
   height="20.739494mm"
   viewBox="0 0 55.234424 11.801917"
   id="svg358"
   sodipodi:docname="929f5bb996f00e3c99fbb00fbbc24382.svg"
   xmlns:inkscape="http://www.inkscape.org/namespaces/inkscape"
   xmlns:sodipodi="http://sodipodi.sourceforge.net/DTD/sodipodi-0.dtd"
   xmlns:xlink="http://www.w3.org/1999/xlink"
   xmlns="http://www.w3.org/2000/svg"
   xmlns:svg="http://www.w3.org/2000/svg">
  <defs
     id="defs362" />
  <sodipodi:namedview
     id="namedview360"
     pagecolor="#ffffff"
     bordercolor="#000000"
     borderopacity="0.25"
     inkscape:showpageshadow="2"
     inkscape:pageopacity="0.0"
     inkscape:pagecheckerboard="0"
     inkscape:deskcolor="#d1d1d1"
     inkscape:document-units="mm" />
  <style
     type="text/css"
     id="style2"><![CDATA[
tspan { white-space: pre; }
]]></style>
  <!-- Page: 1/1 -->
  <g
     transform="translate(55.055033,5.8489328)"
     id="g6">
    <rect
       x="0"
       y="-1.7"
       width="0.1802"
       height="3.4000001"
       ry="0.0000"
       fill="currentColor"
       id="rect4" />
  </g>
  <g
     transform="translate(-9.6670145e-4,3.2989328)"
     id="g10">
    <rect
       x="16.202499"
       y="-0.089900002"
       width="1.6611"
       height="0.17990001"
       ry="0.089900002"
       fill="currentColor"
       id="rect8" />
  </g>
  <g
     transform="translate(-9.6670145e-4,3.2989328)"
     id="g14">
    <rect
       x="11.4163"
       y="-0.089900002"
       width="1.6611"
       height="0.17990001"
       ry="0.089900002"
       fill="currentColor"
       id="rect12" />
  </g>
  <g
     transform="translate(-9.6670145e-4,7.5489328)"
     id="g18">
    <line
       stroke-linejoin="round"
       stroke-linecap="round"
       stroke-width="0.0949"
       stroke="currentColor"
       x1="0.047400001"
       y1="0"
       x2="55.188801"
       y2="0"
       id="line16" />
  </g>
  <g
     transform="translate(-9.6670145e-4,6.6989328)"
     id="g22">
    <line
       stroke-linejoin="round"
       stroke-linecap="round"
       stroke-width="0.0949"
       stroke="currentColor"
       x1="0.047400001"
       y1="0"
       x2="55.188801"
       y2="0"
       id="line20" />
  </g>
  <g
     transform="translate(-9.6670145e-4,5.8489328)"
     id="g26">
    <line
       stroke-linejoin="round"
       stroke-linecap="round"
       stroke-width="0.0949"
       stroke="currentColor"
       x1="0.047400001"
       y1="0"
       x2="55.188801"
       y2="0"
       id="line24" />
  </g>
  <g
     transform="translate(-9.6670145e-4,4.9989328)"
     id="g30">
    <line
       stroke-linejoin="round"
       stroke-linecap="round"
       stroke-width="0.0949"
       stroke="currentColor"
       x1="0.047400001"
       y1="0"
       x2="55.188801"
       y2="0"
       id="line28" />
  </g>
  <g
     transform="translate(-9.6670145e-4,4.1489328)"
     id="g34">
    <line
       stroke-linejoin="round"
       stroke-linecap="round"
       stroke-width="0.0949"
       stroke="currentColor"
       x1="0.047400001"
       y1="0"
       x2="55.188801"
       y2="0"
       id="line32" />
  </g>
  <g
     transform="translate(25.010133,5.8489328)"
     id="g38">
    <rect
       x="0"
       y="-1.7"
       width="0.1802"
       height="3.4000001"
       ry="0.0000"
       fill="currentColor"
       id="rect36" />
  </g>
  <a
     style="color:inherit"
     xlink:href="textedit:///Users/tomsegarra/Documents/dev/dummies/lilypond_files/929f5bb996f00e3c99fbb00fbbc24382.ly:24:24:25"
     id="a44"
     transform="translate(-2.2771667,-3.2762672)">
    <g
       transform="translate(18.7556,6.5752)"
       id="g42">
      <path
         transform="scale(0.0034,-0.0034)"
         d="m 215,137 c 67,0 111,-37 111,-92 0,-90 -111,-182 -215,-182 -67,0 -111,37 -111,92 0,90 111,182 215,182 z"
         fill="currentColor"
         id="path40" />
    </g>
  </a>
  <a
     style="color:inherit"
     xlink:href="textedit:///Users/tomsegarra/Documents/dev/dummies/lilypond_files/929f5bb996f00e3c99fbb00fbbc24382.ly:31:22:23"
     id="a52"
     transform="translate(-2.2771667,-3.2762672)">
    <g
       transform="translate(17.4997,14.6252)"
       id="g50">
      <text
         font-family="serif"
         font-size="2.0989px"
         text-anchor="start"
         fill="currentColor"
         id="text48"><tspan
           id="tspan46">pick</tspan></text>
    </g>
  </a>
  <g
     transform="translate(16.540133,5.8489328)"
     id="g56">
    <rect
       x="-0.061700001"
       y="-2.3975"
       width="0.1233"
       height="3.0924001"
       ry="0.039999999"
       fill="currentColor"
       id="rect54" />
  </g>
  <a
     style="color:inherit"
     xlink:href="textedit:///Users/tomsegarra/Documents/dev/dummies/lilypond_files/929f5bb996f00e3c99fbb00fbbc24382.ly:20:12:13"
     id="a70"
     transform="translate(-2.2771667,-3.2762672)">
    <g
       transform="translate(13.9694,5.6089)"
       id="g62">
      <text
         font-family="sans-serif"
         font-size="2.224px"
         text-anchor="start"
         fill="currentColor"
         id="text60"><tspan
           id="tspan58">E</tspan></text>
    </g>
    <g
       transform="translate(15.3693,4.4197)"
       id="g68">
      <text
         font-family="sans-serif"
         font-size="1.5727px"
         text-anchor="start"
         fill="currentColor"
         id="text66"><tspan
           id="tspan64">7</tspan></text>
    </g>
  </a>
  <a
     style="color:inherit"
     xlink:href="textedit:///Users/tomsegarra/Documents/dev/dummies/lilypond_files/929f5bb996f00e3c99fbb00fbbc24382.ly:24:26:27"
     id="a76"
     transform="translate(-2.2771667,-3.2762672)">
    <g
       transform="translate(22.6029,7.0002)"
       id="g74">
      <path
         transform="scale(0.0034,-0.0034)"
         d="m 215,137 c 67,0 111,-37 111,-92 0,-90 -111,-182 -215,-182 -67,0 -111,37 -111,92 0,90 111,182 215,182 z"
         fill="currentColor"
         id="path72" />
    </g>
  </a>
  <a
     style="color:inherit"
     xlink:href="textedit:///Users/tomsegarra/Documents/dev/dummies/lilypond_files/929f5bb996f00e3c99fbb00fbbc24382.ly:31:27:28"
     id="a84"
     transform="translate(-2.2771667,-3.2762672)">
    <g
       transform="translate(21.5689,14.6252)"
       id="g82">
      <text
         font-family="serif"
         font-size="2.0989px"
         text-anchor="start"
         fill="currentColor"
         id="text80"><tspan
           id="tspan78">you</tspan></text>
    </g>
  </a>
  <g
     transform="translate(20.387333,5.8489328)"
     id="g88">
    <rect
       x="-0.061700001"
       y="-1.9725"
       width="0.1233"
       height="2.7592001"
       ry="0.039999999"
       fill="currentColor"
       id="rect86" />
  </g>
  <a
     style="color:inherit"
     xlink:href="textedit:///Users/tomsegarra/Documents/dev/dummies/lilypond_files/929f5bb996f00e3c99fbb00fbbc24382.ly:24:17:18"
     id="a94"
     transform="translate(-2.2771667,-3.2762672)">
    <g
       transform="translate(13.9694,6.5752)"
       id="g92">
      <path
         transform="scale(0.0034,-0.0034)"
         d="m 215,137 c 67,0 111,-37 111,-92 0,-90 -111,-182 -215,-182 -67,0 -111,37 -111,92 0,90 111,182 215,182 z"
         fill="currentColor"
         id="path90" />
    </g>
  </a>
  <a
     style="color:inherit"
     xlink:href="textedit:///Users/tomsegarra/Documents/dev/dummies/lilypond_files/929f5bb996f00e3c99fbb00fbbc24382.ly:24:31:32"
     id="a100"
     transform="translate(-2.2771667,-3.2762672)">
    <g
       transform="translate(25.1942,9.1252)"
       id="g98">
      <path
         stroke-width="0.0759"
         stroke-linejoin="round"
         stroke-linecap="round"
         stroke="currentColor"
         fill="currentColor"
         d="m 0.7537,-2.975 c 0.6461,-0.6917 2.3128,-0.6917 2.9589,0 v 0 c -0.6461,-0.5779 -2.3128,-0.5779 -2.9589,0 z"
         id="path96" />
    </g>
  </a>
  <a
     style="color:inherit"
     xlink:href="textedit:///Users/tomsegarra/Documents/dev/dummies/lilypond_files/929f5bb996f00e3c99fbb00fbbc24382.ly:24:30:31"
     id="a106"
     transform="translate(-2.2771667,-3.2762672)">
    <g
       transform="translate(25.1942,7.0002)"
       id="g104">
      <path
         transform="scale(0.0034,-0.0034)"
         d="m 215,137 c 67,0 111,-37 111,-92 0,-90 -111,-182 -215,-182 -67,0 -111,37 -111,92 0,90 111,182 215,182 z"
         fill="currentColor"
         id="path102" />
    </g>
  </a>
  <a
     style="color:inherit"
     xlink:href="textedit:///Users/tomsegarra/Documents/dev/dummies/lilypond_files/929f5bb996f00e3c99fbb00fbbc24382.ly:31:31:32"
     id="a114"
     transform="translate(-2.2771667,-3.2762672)">
    <g
       transform="translate(25.1942,14.6252)"
       id="g112">
      <text
         font-family="serif"
         font-size="2.0989px"
         text-anchor="start"
         fill="currentColor"
         id="text110"><tspan
           id="tspan108">up</tspan></text>
    </g>
  </a>
  <g
     transform="translate(22.978733,5.8489328)"
     id="g118">
    <rect
       x="-0.061700001"
       y="-1.9725"
       width="0.1233"
       height="2.8211"
       ry="0.039999999"
       fill="currentColor"
       id="rect116" />
  </g>
  <g
     transform="translate(20.325733,5.9407328)"
     id="g122">
    <polygon
       stroke-linejoin="round"
       stroke-linecap="round"
       stroke-width="0.08"
       fill="currentColor"
       stroke="currentColor"
       points="0.04,0.164 0.04,-0.164 2.6747,-0.0992 2.6747,0.2288 "
       id="polygon120" />
  </g>
  <g
     transform="translate(16.478433,6.5423328)"
     id="g126">
    <polygon
       stroke-linejoin="round"
       stroke-linecap="round"
       stroke-width="0.08"
       fill="currentColor"
       stroke="currentColor"
       points="0.04,0.164 0.04,-0.164 6.5219,-0.0074 6.5219,0.3206 "
       id="polygon124" />
  </g>
  <a
     style="color:inherit"
     xlink:href="textedit:///Users/tomsegarra/Documents/dev/dummies/lilypond_files/929f5bb996f00e3c99fbb00fbbc24382.ly:25:4:5"
     id="a132"
     transform="translate(-2.2771667,-3.2762672)">
    <g
       transform="translate(28.5531,7.0002)"
       id="g130">
      <path
         transform="scale(0.0034,-0.0034)"
         d="m 215,137 c 67,0 111,-37 111,-92 0,-90 -111,-182 -215,-182 -67,0 -111,37 -111,92 0,90 111,182 215,182 z"
         fill="currentColor"
         id="path128" />
    </g>
  </a>
  <g
     transform="translate(26.337633,5.8489328)"
     id="g136">
    <rect
       x="-0.061700001"
       y="-1.9725"
       width="0.1233"
       height="2.6675"
       ry="0.039999999"
       fill="currentColor"
       id="rect134" />
  </g>
  <g
     transform="translate(0.7990333,6.6989328)"
     id="g140">
    <path
       transform="scale(0.0034,-0.0034)"
       d="m 646,2 c 0,-113 -74,-213 -180,-247 3,-34 5,-68 5,-102 0,-20 -1,-40 -2,-60 -7,-121 -91,-228 -209,-228 -108,0 -196,87 -196,196 0,58 53,104 112,104 54,0 95,-48 95,-104 0,-52 -43,-95 -95,-95 -10,0 -20,2 -29,6 26,-38 68,-63 116,-63 h 3 c 93,2 153,92 159,190 1,19 2,37 2,56 0,30 -2,60 -4,90 -5,-1 -43,-8 -88,-8 -194,0 -333,180 -333,375 0,177 130,307 246,442 -31,98 -53,170 -53,347 0,115 55,223 148,290 7,5 16,4 22,-1 68,-80 134,-243 134,-357 0,-143 -85,-255 -178,-364 21,-68 40,-137 57,-206 1,0 5,1 11,1 C 545,264 646,135 646,2 Z M 462,-202 c 66,24 111,88 111,162 0,89 -65,178 -170,190 28,-135 50,-272 59,-352 z M 75,26 c 0,-145 141,-245 263,-245 1,0 46,0 81,6 -7,65 -27,206 -61,363 -79,-8 -124,-61 -124,-119 0,-43 25,-89 80,-121 5,-5 7,-11 7,-16 0,-12 -10,-23 -22,-23 -16,0 -127,63 -127,188 0,89 58,175 161,198 -14,58 -29,116 -46,173 C 181,308 75,186 75,26 Z M 406,1042 C 307,995 244,894 244,785 c 0,-49 13,-111 38,-191 79,97 144,199 144,324 0,33 0,63 -20,124 z"
       fill="currentColor"
       id="path138" />
  </g>
  <a
     style="color:inherit"
     xlink:href="textedit:///Users/tomsegarra/Documents/dev/dummies/lilypond_files/929f5bb996f00e3c99fbb00fbbc24382.ly:25:7:8"
     id="a146"
     transform="translate(-2.2771667,-3.2762672)">
    <g
       transform="translate(32.0605,7.4252)"
       id="g144">
      <path
         transform="scale(0.0034,-0.0034)"
         d="m 215,137 c 67,0 111,-37 111,-92 0,-90 -111,-182 -215,-182 -67,0 -111,37 -111,92 0,90 111,182 215,182 z"
         fill="currentColor"
         id="path142" />
    </g>
  </a>
  <a
     style="color:inherit"
     xlink:href="textedit:///Users/tomsegarra/Documents/dev/dummies/lilypond_files/929f5bb996f00e3c99fbb00fbbc24382.ly:31:34:35"
     id="a154"
     transform="translate(-2.2771667,-3.2762672)">
    <g
       transform="translate(31.0948,14.6252)"
       id="g152">
      <text
         font-family="serif"
         font-size="2.0989px"
         text-anchor="start"
         fill="currentColor"
         id="text150"><tspan
           id="tspan148">and</tspan></text>
    </g>
  </a>
  <g
     transform="translate(29.845033,5.8489328)"
     id="g158">
    <rect
       x="-0.061700001"
       y="-1.5475"
       width="0.1233"
       height="2.3318"
       ry="0.039999999"
       fill="currentColor"
       id="rect156" />
  </g>
  <a
     style="color:inherit"
     xlink:href="textedit:///Users/tomsegarra/Documents/dev/dummies/lilypond_files/929f5bb996f00e3c99fbb00fbbc24382.ly:23:1:9"
     id="a172"
     transform="translate(-2.2771667,-3.2762672)">
    <g
       transform="translate(6.5762,7.4252)"
       id="g162">
      <path
         transform="scale(0.0034,-0.0034)"
         d="m 217,-311 c 0,-11 -8,-19 -19,-19 -11,0 -20,8 -20,19 v 142 l -81,-30 v -156 c 0,-11 -9,-20 -20,-20 -11,0 -19,9 -19,20 v 142 l -28,-11 c -3,-1 -5,-1 -8,-1 -12,0 -22,10 -22,23 v 57 c 0,9 6,18 15,21 l 43,16 V 49 L 30,39 C 27,38 25,38 22,38 10,38 0,47 0,60 v 57 c 0,9 6,18 15,21 l 43,16 v 157 c 0,11 8,19 19,19 11,0 20,-8 20,-19 V 169 l 81,30 v 156 c 0,11 9,20 20,20 11,0 19,-9 19,-20 V 213 l 28,11 c 3,1 5,1 8,1 12,0 22,-10 22,-23 v -57 c 0,-9 -6,-18 -15,-21 L 217,108 V -49 l 28,10 c 3,1 5,1 8,1 12,0 22,-9 22,-22 v -57 c 0,-9 -6,-18 -15,-21 l -43,-16 z M 97,64 V -94 l 81,30 V 94 Z"
         fill="currentColor"
         id="path160" />
    </g>
    <g
       transform="translate(7.5112,8.7002)"
       id="g166">
      <path
         transform="scale(0.0034,-0.0034)"
         d="m 217,-311 c 0,-11 -8,-19 -19,-19 -11,0 -20,8 -20,19 v 142 l -81,-30 v -156 c 0,-11 -9,-20 -20,-20 -11,0 -19,9 -19,20 v 142 l -28,-11 c -3,-1 -5,-1 -8,-1 -12,0 -22,10 -22,23 v 57 c 0,9 6,18 15,21 l 43,16 V 49 L 30,39 C 27,38 25,38 22,38 10,38 0,47 0,60 v 57 c 0,9 6,18 15,21 l 43,16 v 157 c 0,11 8,19 19,19 11,0 20,-8 20,-19 V 169 l 81,30 v 156 c 0,11 9,20 20,20 11,0 19,-9 19,-20 V 213 l 28,11 c 3,1 5,1 8,1 12,0 22,-10 22,-23 v -57 c 0,-9 -6,-18 -15,-21 L 217,108 V -49 l 28,10 c 3,1 5,1 8,1 12,0 22,-9 22,-22 v -57 c 0,-9 -6,-18 -15,-21 l -43,-16 z M 97,64 V -94 l 81,30 V 94 Z"
         fill="currentColor"
         id="path164" />
    </g>
    <g
       transform="translate(8.4462,7.0002)"
       id="g170">
      <path
         transform="scale(0.0034,-0.0034)"
         d="m 217,-311 c 0,-11 -8,-19 -19,-19 -11,0 -20,8 -20,19 v 142 l -81,-30 v -156 c 0,-11 -9,-20 -20,-20 -11,0 -19,9 -19,20 v 142 l -28,-11 c -3,-1 -5,-1 -8,-1 -12,0 -22,10 -22,23 v 57 c 0,9 6,18 15,21 l 43,16 V 49 L 30,39 C 27,38 25,38 22,38 10,38 0,47 0,60 v 57 c 0,9 6,18 15,21 l 43,16 v 157 c 0,11 8,19 19,19 11,0 20,-8 20,-19 V 169 l 81,30 v 156 c 0,11 9,20 20,20 11,0 19,-9 19,-20 V 213 l 28,11 c 3,1 5,1 8,1 12,0 22,-10 22,-23 v -57 c 0,-9 -6,-18 -15,-21 L 217,108 V -49 l 28,10 c 3,1 5,1 8,1 12,0 22,-9 22,-22 v -57 c 0,-9 -6,-18 -15,-21 l -43,-16 z M 97,64 V -94 l 81,30 V 94 Z"
         fill="currentColor"
         id="path168" />
    </g>
  </a>
  <a
     style="color:inherit"
     xlink:href="textedit:///Users/tomsegarra/Documents/dev/dummies/lilypond_files/929f5bb996f00e3c99fbb00fbbc24382.ly:25:12:13"
     id="a178"
     transform="translate(-2.2771667,-3.2762672)">
    <g
       transform="translate(34.5836,9.1252)"
       id="g176">
      <path
         stroke-width="0.0759"
         stroke-linejoin="round"
         stroke-linecap="round"
         stroke="currentColor"
         fill="currentColor"
         d="m 0.7537,-2.375 c 0.4953,-0.5777 1.5453,-0.5777 2.0406,0 v 0 c -0.4953,-0.4638 -1.5453,-0.4638 -2.0406,0 z"
         id="path174" />
    </g>
  </a>
  <a
     style="color:inherit"
     xlink:href="textedit:///Users/tomsegarra/Documents/dev/dummies/lilypond_files/929f5bb996f00e3c99fbb00fbbc24382.ly:25:11:12"
     id="a184"
     transform="translate(-2.2771667,-3.2762672)">
    <g
       transform="translate(34.5836,7.4252)"
       id="g182">
      <path
         transform="scale(0.0034,-0.0034)"
         d="m 215,137 c 67,0 111,-37 111,-92 0,-90 -111,-182 -215,-182 -67,0 -111,37 -111,92 0,90 111,182 215,182 z"
         fill="currentColor"
         id="path180" />
    </g>
  </a>
  <a
     style="color:inherit"
     xlink:href="textedit:///Users/tomsegarra/Documents/dev/dummies/lilypond_files/929f5bb996f00e3c99fbb00fbbc24382.ly:31:38:39"
     id="a192"
     transform="translate(-2.2771667,-3.2762672)">
    <g
       transform="translate(34.5836,14.6252)"
       id="g190">
      <text
         font-family="serif"
         font-size="2.0989px"
         text-anchor="start"
         fill="currentColor"
         id="text188"><tspan
           id="tspan186">you</tspan></text>
    </g>
  </a>
  <g
     transform="translate(32.368033,5.8489328)"
     id="g196">
    <rect
       x="-0.061700001"
       y="-1.5475"
       width="0.1233"
       height="2.3959999"
       ry="0.039999999"
       fill="currentColor"
       id="rect194" />
  </g>
  <g
     transform="translate(8.2540333,5.8489328)"
     id="g200">
    <path
       transform="scale(0.0034,-0.0034)"
       d="m 358,29 c -30,0 -74,23 -74,73 0,38 27,76 71,76 4,0 7,0 11,-1 -27,36 -69,59 -116,59 -106,0 -113,-74 -113,-188 0,-15 1,-31 1,-48 0,-17 -1,-33 -1,-48 0,-114 7,-188 113,-188 79,0 136,70 155,150 2,7 7,10 13,10 7,0 14,-5 14,-13 0,-21 -50,-175 -182,-175 C 191,-264 0,-244 0,0 0,63 18,264 250,264 365,264 424,155 424,99 424,60 394,29 358,29 Z"
       fill="currentColor"
       id="path198" />
  </g>
  <g
     transform="translate(29.783333,5.9381328)"
     id="g204">
    <polygon
       stroke-linejoin="round"
       stroke-linecap="round"
       stroke-width="0.08"
       fill="currentColor"
       stroke="currentColor"
       points="0.04,0.164 0.04,-0.164 2.6064,-0.0967 2.6064,0.2313 "
       id="polygon202" />
  </g>
  <g
     transform="translate(26.275933,6.5423328)"
     id="g208">
    <polygon
       stroke-linejoin="round"
       stroke-linecap="round"
       stroke-width="0.08"
       fill="currentColor"
       stroke="currentColor"
       points="0.04,0.164 0.04,-0.164 6.1138,-0.0074 6.1138,0.3206 "
       id="polygon206" />
  </g>
  <a
     style="color:inherit"
     xlink:href="textedit:///Users/tomsegarra/Documents/dev/dummies/lilypond_files/929f5bb996f00e3c99fbb00fbbc24382.ly:25:17:18"
     id="a214"
     transform="translate(-2.2771667,-3.2762672)">
    <g
       transform="translate(37.0242,7.4252)"
       id="g212">
      <path
         transform="scale(0.0034,-0.0034)"
         d="m 215,137 c 67,0 111,-37 111,-92 0,-90 -111,-182 -215,-182 -67,0 -111,37 -111,92 0,90 111,182 215,182 z"
         fill="currentColor"
         id="path210" />
    </g>
  </a>
  <g
     transform="translate(34.808633,5.8489328)"
     id="g218">
    <rect
       x="-0.061700001"
       y="-1.5475"
       width="0.1233"
       height="3.0925"
       ry="0.039999999"
       fill="currentColor"
       id="rect216" />
  </g>
  <a
     style="color:inherit"
     xlink:href="textedit:///Users/tomsegarra/Documents/dev/dummies/lilypond_files/929f5bb996f00e3c99fbb00fbbc24382.ly:31:15:16"
     id="a226"
     transform="translate(-2.2771667,-3.2762672)">
    <g
       transform="translate(11.9965,14.6252)"
       id="g224">
      <text
         font-family="serif"
         font-size="2.0989px"
         text-anchor="start"
         fill="currentColor"
         id="text222"><tspan
           id="tspan220">they'd</tspan></text>
    </g>
  </a>
  <a
     style="color:inherit"
     xlink:href="textedit:///Users/tomsegarra/Documents/dev/dummies/lilypond_files/929f5bb996f00e3c99fbb00fbbc24382.ly:25:19:20"
     id="a232"
     transform="translate(-2.2771667,-3.2762672)">
    <g
       transform="translate(39.4648,7.8502)"
       id="g230">
      <path
         transform="scale(0.0034,-0.0034)"
         d="m 215,137 c 67,0 111,-37 111,-92 0,-90 -111,-182 -215,-182 -67,0 -111,37 -111,92 0,90 111,182 215,182 z"
         fill="currentColor"
         id="path228" />
    </g>
  </a>
  <a
     style="color:inherit"
     xlink:href="textedit:///Users/tomsegarra/Documents/dev/dummies/lilypond_files/929f5bb996f00e3c99fbb00fbbc24382.ly:31:42:43"
     id="a240"
     transform="translate(-2.2771667,-3.2762672)">
    <g
       transform="translate(38.2089,14.6252)"
       id="g238">
      <text
         font-family="serif"
         font-size="2.0989px"
         text-anchor="start"
         fill="currentColor"
         id="text236"><tspan
           id="tspan234">kept</tspan></text>
    </g>
  </a>
  <g
     transform="translate(37.249333,5.8489328)"
     id="g244">
    <rect
       x="-0.061700001"
       y="-1.1224999"
       width="0.1233"
       height="2.7291"
       ry="0.039999999"
       fill="currentColor"
       id="rect242" />
  </g>
  <g
     transform="translate(11.753933,5.8489328)"
     id="g248">
    <rect
       x="-0.061700001"
       y="-2.3975"
       width="0.1233"
       height="2.8225"
       ry="0.039999999"
       fill="currentColor"
       id="rect246" />
  </g>
  <g
     color="#ff0000"
     id="g256"
     transform="translate(-2.2771667,-3.2762672)">
    <a
       style="color:inherit"
       xlink:href="textedit:///Users/tomsegarra/Documents/dev/dummies/lilypond_files/929f5bb996f00e3c99fbb00fbbc24382.ly:29:4:5"
       id="a254">
      <g
         transform="translate(43.1072,7.8502)"
         id="g252">
        <path
           transform="scale(0.0034,-0.0034)"
           d="m 215,137 c 67,0 111,-37 111,-92 0,-90 -111,-182 -215,-182 -67,0 -111,37 -111,92 0,90 111,182 215,182 z"
           fill="currentColor"
           id="path250" />
      </g>
    </a>
  </g>
  <a
     style="color:inherit"
     xlink:href="textedit:///Users/tomsegarra/Documents/dev/dummies/lilypond_files/929f5bb996f00e3c99fbb00fbbc24382.ly:31:47:48"
     id="a264"
     transform="translate(-2.2771667,-3.2762672)">
    <g
       transform="translate(42.2781,14.6252)"
       id="g262">
      <text
         font-family="serif"
         font-size="2.0989px"
         text-anchor="start"
         fill="currentColor"
         id="text260"><tspan
           id="tspan258">fall</tspan></text>
    </g>
  </a>
  <g
     color="#ff0000"
     id="g270"
     transform="translate(-2.2771667,-3.2762672)">
    <g
       transform="translate(43.1689,9.1252)"
       id="g268">
      <rect
         x="-0.061700001"
         y="-1.1224999"
         width="0.1233"
         height="2.8210001"
         ry="0.039999999"
         fill="currentColor"
         id="rect266" />
    </g>
  </g>
  <g
     color="#ff0000"
     id="g278"
     transform="translate(-2.2771667,-3.2762672)">
    <a
       style="color:inherit"
       xlink:href="textedit:///Users/tomsegarra/Documents/dev/dummies/lilypond_files/929f5bb996f00e3c99fbb00fbbc24382.ly:29:11:12"
       id="a276">
      <g
         transform="translate(45.5972,8.7002)"
         id="g274">
        <path
           transform="scale(0.0034,-0.0034)"
           d="m 215,137 c 67,0 111,-37 111,-92 0,-90 -111,-182 -215,-182 -67,0 -111,37 -111,92 0,90 111,182 215,182 z"
           fill="currentColor"
           id="path272" />
      </g>
    </a>
  </g>
  <a
     style="color:inherit"
     xlink:href="textedit:///Users/tomsegarra/Documents/dev/dummies/lilypond_files/929f5bb996f00e3c99fbb00fbbc24382.ly:31:55:56"
     id="a286"
     transform="translate(-2.2771667,-3.2762672)">
    <g
       transform="translate(45.1437,14.6252)"
       id="g284">
      <text
         font-family="serif"
         font-size="2.0989px"
         text-anchor="start"
         fill="currentColor"
         id="text282"><tspan
           id="tspan280">in'</tspan></text>
    </g>
  </a>
  <g
     color="#ff0000"
     id="g292"
     transform="translate(-2.2771667,-3.2762672)">
    <g
       transform="translate(45.6589,9.1252)"
       id="g290">
      <rect
         x="-0.061700001"
         y="-0.27250001"
         width="0.1233"
         height="1.9615"
         ry="0.039999999"
         fill="currentColor"
         id="rect288" />
    </g>
  </g>
  <g
     transform="translate(11.815533,6.2339328)"
     id="g296">
    <path
       transform="scale(0.0034,-0.0034)"
       d="M 0,0 H -18 V 250 H 0 Z m 0,0 v 250 c 96,59 222,149 222,259 0,57 -15,111 -40,162 -3,17 10,29 24,29 8,0 16,-5 21,-13 25,-56 40,-116 40,-178 C 267,306 0,203 0,0 Z"
       fill="currentColor"
       id="path294" />
  </g>
  <g
     transform="translate(39.791733,6.8262328)"
     id="g300">
    <polygon
       stroke-linejoin="round"
       stroke-linecap="round"
       stroke-width="0.08"
       fill="currentColor"
       stroke="currentColor"
       points="0.04,0.164 0.04,-0.164 1.1217,-0.1347 1.1217,0.1933 "
       id="polygon298" />
  </g>
  <g
     transform="translate(34.747033,6.6989328)"
     id="g304">
    <polygon
       stroke-linejoin="round"
       stroke-linecap="round"
       stroke-width="0.08"
       fill="currentColor"
       stroke="currentColor"
       points="0.04,0.164 0.04,-0.164 1.1217,-0.1347 1.1217,0.1933 "
       id="polygon302" />
  </g>
  <g
     transform="translate(34.747033,7.3923328)"
     id="g308">
    <polygon
       stroke-linejoin="round"
       stroke-linecap="round"
       stroke-width="0.08"
       fill="currentColor"
       stroke="currentColor"
       points="0.04,0.164 0.04,-0.164 6.1663,-0.0074 6.1663,0.3206 "
       id="polygon306" />
  </g>
  <g
     color="#ff0000"
     id="g316"
     transform="translate(-2.2771667,-3.2762672)">
    <a
       style="color:inherit"
       xlink:href="textedit:///Users/tomsegarra/Documents/dev/dummies/lilypond_files/929f5bb996f00e3c99fbb00fbbc24382.ly:29:14:15"
       id="a314">
      <g
         transform="translate(49.3546,7.4252)"
         id="g312">
        <path
           transform="scale(0.0034,-0.0034)"
           d="m 215,137 c 67,0 111,-37 111,-92 0,-90 -111,-182 -215,-182 -67,0 -111,37 -111,92 0,90 111,182 215,182 z"
           fill="currentColor"
           id="path310" />
      </g>
    </a>
  </g>
  <a
     style="color:inherit"
     xlink:href="textedit:///Users/tomsegarra/Documents/dev/dummies/lilypond_files/929f5bb996f00e3c99fbb00fbbc24382.ly:31:59:60"
     id="a324"
     transform="translate(-2.2771667,-3.2762672)">
    <g
       transform="translate(49.3546,14.6252)"
       id="g322">
      <text
         font-family="serif"
         font-size="2.0989px"
         text-anchor="start"
         fill="currentColor"
         id="text320"><tspan
           id="tspan318">down</tspan></text>
    </g>
  </a>
  <g
     color="#ff0000"
     id="g330"
     transform="translate(-2.2771667,-3.2762672)">
    <g
       transform="translate(49.4163,9.1252)"
       id="g328">
      <rect
         x="-0.061700001"
         y="-1.5475"
         width="0.1233"
         height="2.5651"
         ry="0.039999999"
         fill="currentColor"
         id="rect326" />
    </g>
  </g>
  <g
     color="#ff0000"
     id="g338"
     transform="translate(-2.2771667,-3.2762672)">
    <a
       style="color:inherit"
       xlink:href="textedit:///Users/tomsegarra/Documents/dev/dummies/lilypond_files/929f5bb996f00e3c99fbb00fbbc24382.ly:29:20:21"
       id="a336">
      <g
         transform="translate(52.862,7.4252)"
         id="g334">
        <path
           transform="scale(0.0034,-0.0034)"
           d="m 215,137 c 67,0 111,-37 111,-92 0,-90 -111,-182 -215,-182 -67,0 -111,37 -111,92 0,90 111,182 215,182 z"
           fill="currentColor"
           id="path332" />
      </g>
    </a>
  </g>
  <g
     color="#ff0000"
     id="g344"
     transform="translate(-2.2771667,-3.2762672)">
    <g
       transform="translate(52.9237,9.1252)"
       id="g342">
      <rect
         x="-0.061700001"
         y="-1.5475"
         width="0.1233"
         height="2.8225"
         ry="0.039999999"
         fill="currentColor"
         id="rect340" />
    </g>
  </g>
  <g
     color="#ff0000"
     id="g350"
     transform="translate(-2.2771667,-3.2762672)">
    <g
       transform="translate(45.5972,10.8252)"
       id="g348">
      <polygon
         stroke-linejoin="round"
         stroke-linecap="round"
         stroke-width="0.08"
         fill="currentColor"
         stroke="currentColor"
         points="0.04,0.164 0.04,-0.164 3.8407,-0.8574 3.8407,-0.5294 "
         id="polygon346" />
    </g>
  </g>
  <a
     style="color:inherit"
     xlink:href="textedit:///Users/tomsegarra/Documents/dev/dummies/lilypond_files/929f5bb996f00e3c99fbb00fbbc24382.ly:29:16:17"
     id="a356"
     transform="translate(-2.2771667,-3.2762672)">
    <g
       transform="translate(49.3546,9.1252)"
       id="g354">
      <path
         stroke-width="0.0759"
         stroke-linejoin="round"
         stroke-linecap="round"
         stroke="currentColor"
         fill="currentColor"
         d="m 0.7537,-2.375 c 0.6677,-0.7058 2.4397,-0.7058 3.1074,0 v 0 c -0.6677,-0.592 -2.4397,-0.592 -3.1074,0 z"
         id="path352" />
    </g>
  </a>
</svg>
