<svg xmlns="http://www.w3.org/2000/svg" xmlns:xlink="http://www.w3.org/1999/xlink" version="1.2" width="174.45mm" height="297.00mm" viewBox="0 0 99.2739 169.0094">
<style type="text/css">
<![CDATA[
tspan { white-space: pre; }
]]>
</style>
<!-- Page: 1/1 -->
<a style="color:inherit;" xlink:href="textedit:///Users/tomsegarra/Documents/dev/dummies/lilypond_files/b03e2ee4ea1ee474b5372f2c961ee9f6.ly:20:9:10">
<g transform="translate(9.2762, 5.2270)">
<text font-family="sans-serif" font-size="2.2240" text-anchor="start" fill="currentColor">
<tspan>F</tspan>
</text>
</g>
</a>
<a style="color:inherit;" xlink:href="textedit:///Users/tomsegarra/Documents/dev/dummies/lilypond_files/b03e2ee4ea1ee474b5372f2c961ee9f6.ly:20:4:5">
<g transform="translate(2.7762, 5.2270)">
<text font-family="sans-serif" font-size="2.2240" text-anchor="start" fill="currentColor">
<tspan>A</tspan>
</text>
</g>
<g transform="translate(4.3127, 5.2270)">
<text font-family="sans-serif" font-size="2.2240" text-anchor="start" fill="currentColor">
<tspan>m</tspan>
</text>
</g>
</a>
<a style="color:inherit;" xlink:href="textedit:///Users/tomsegarra/Documents/dev/dummies/lilypond_files/b03e2ee4ea1ee474b5372f2c961ee9f6.ly:20:11:12">
<g transform="translate(15.7762, 5.2270)">
<text font-family="sans-serif" font-size="2.2240" text-anchor="start" fill="currentColor">
<tspan>C</tspan>
</text>
</g>
</a>
<a style="color:inherit;" xlink:href="textedit:///Users/tomsegarra/Documents/dev/dummies/lilypond_files/b03e2ee4ea1ee474b5372f2c961ee9f6.ly:20:13:14">
<g transform="translate(22.2762, 5.2270)">
<text font-family="sans-serif" font-size="2.2240" text-anchor="start" fill="currentColor">
<tspan>G</tspan>
</text>
</g>
</a>
<a style="color:inherit;" xlink:href="textedit:///Users/tomsegarra/Documents/dev/dummies/lilypond_files/b03e2ee4ea1ee474b5372f2c961ee9f6.ly:26:4:5">
<g transform="translate(28.7762, 5.2270)">
<text font-family="sans-serif" font-size="2.2240" text-anchor="start" fill="currentColor">
<tspan>B</tspan>
</text>
</g>
</a>
<a style="color:inherit;" xlink:href="textedit:///Users/tomsegarra/Documents/dev/dummies/lilypond_files/b03e2ee4ea1ee474b5372f2c961ee9f6.ly:35:12:13">
<g transform="translate(95.2438, 5.2270)">
<text font-family="sans-serif" font-size="2.2240" text-anchor="start" fill="currentColor">
<tspan>F</tspan>
</text>
</g>
<g transform="translate(96.5071, 4.6270)">
<path transform="scale(0.0036, -0.0036)" d="M217 -311c0 -11 -8 -19 -19 -19s-20 8 -20 19v142l-81 -30v-156c0 -11 -9 -20 -20 -20s-19 9 -19 20v142l-28 -11c-3 -1 -5 -1 -8 -1c-12 0 -22 10 -22 23v57c0 9 6 18 15 21l43 16v157l-28 -10c-3 -1 -5 -1 -8 -1c-12 0 -22 9 -22 22v57c0 9 6 18 15 21l43 16v157
c0 11 8 19 19 19s20 -8 20 -19v-142l81 30v156c0 11 9 20 20 20s19 -9 19 -20v-142l28 11c3 1 5 1 8 1c12 0 22 -10 22 -23v-57c0 -9 -6 -18 -15 -21l-43 -16v-157l28 10c3 1 5 1 8 1c12 0 22 -9 22 -22v-57c0 -9 -6 -18 -15 -21l-43 -16v-157zM97 64v-158l81 30v158z" fill="currentColor"/>
</g>
</a>
<a style="color:inherit;" xlink:href="textedit:///Users/tomsegarra/Documents/dev/dummies/lilypond_files/b03e2ee4ea1ee474b5372f2c961ee9f6.ly:35:10:11">
<g transform="translate(91.1438, 5.2270)">
<text font-family="sans-serif" font-size="2.2240" text-anchor="start" fill="currentColor">
<tspan>E</tspan>
</text>
</g>
</a>
<a style="color:inherit;" xlink:href="textedit:///Users/tomsegarra/Documents/dev/dummies/lilypond_files/b03e2ee4ea1ee474b5372f2c961ee9f6.ly:26:9:10">
<g transform="translate(33.5782, 5.2270)">
<text font-family="sans-serif" font-size="2.2240" text-anchor="start" fill="currentColor">
<tspan>D</tspan>
</text>
</g>
</a>
<a style="color:inherit;" xlink:href="textedit:///Users/tomsegarra/Documents/dev/dummies/lilypond_files/b03e2ee4ea1ee474b5372f2c961ee9f6.ly:35:8:9">
<g transform="translate(87.0438, 5.2270)">
<text font-family="sans-serif" font-size="2.2240" text-anchor="start" fill="currentColor">
<tspan>D</tspan>
</text>
</g>
</a>
<a style="color:inherit;" xlink:href="textedit:///Users/tomsegarra/Documents/dev/dummies/lilypond_files/b03e2ee4ea1ee474b5372f2c961ee9f6.ly:26:12:13">
<g transform="translate(36.4782, 5.2270)">
<text font-family="sans-serif" font-size="2.2240" text-anchor="start" fill="currentColor">
<tspan>E</tspan>
</text>
</g>
</a>
<a style="color:inherit;" xlink:href="textedit:///Users/tomsegarra/Documents/dev/dummies/lilypond_files/b03e2ee4ea1ee474b5372f2c961ee9f6.ly:26:14:15">
<g transform="translate(39.3782, 5.2270)">
<text font-family="sans-serif" font-size="2.2240" text-anchor="start" fill="currentColor">
<tspan>F</tspan>
</text>
</g>
<g transform="translate(40.6415, 4.6270)">
<path transform="scale(0.0036, -0.0036)" d="M217 -311c0 -11 -8 -19 -19 -19s-20 8 -20 19v142l-81 -30v-156c0 -11 -9 -20 -20 -20s-19 9 -19 20v142l-28 -11c-3 -1 -5 -1 -8 -1c-12 0 -22 10 -22 23v57c0 9 6 18 15 21l43 16v157l-28 -10c-3 -1 -5 -1 -8 -1c-12 0 -22 9 -22 22v57c0 9 6 18 15 21l43 16v157
c0 11 8 19 19 19s20 -8 20 -19v-142l81 30v156c0 11 9 20 20 20s19 -9 19 -20v-142l28 11c3 1 5 1 8 1c12 0 22 -10 22 -23v-57c0 -9 -6 -18 -15 -21l-43 -16v-157l28 10c3 1 5 1 8 1c12 0 22 -9 22 -22v-57c0 -9 -6 -18 -15 -21l-43 -16v-157zM97 64v-158l81 30v158z" fill="currentColor"/>
</g>
</a>
<a style="color:inherit;" xlink:href="textedit:///Users/tomsegarra/Documents/dev/dummies/lilypond_files/b03e2ee4ea1ee474b5372f2c961ee9f6.ly:35:4:5">
<g transform="translate(82.9438, 5.2270)">
<text font-family="sans-serif" font-size="2.2240" text-anchor="start" fill="currentColor">
<tspan>C</tspan>
</text>
</g>
<g transform="translate(84.4803, 4.6270)">
<path transform="scale(0.0036, -0.0036)" d="M217 -311c0 -11 -8 -19 -19 -19s-20 8 -20 19v142l-81 -30v-156c0 -11 -9 -20 -20 -20s-19 9 -19 20v142l-28 -11c-3 -1 -5 -1 -8 -1c-12 0 -22 10 -22 23v57c0 9 6 18 15 21l43 16v157l-28 -10c-3 -1 -5 -1 -8 -1c-12 0 -22 9 -22 22v57c0 9 6 18 15 21l43 16v157
c0 11 8 19 19 19s20 -8 20 -19v-142l81 30v156c0 11 9 20 20 20s19 -9 19 -20v-142l28 11c3 1 5 1 8 1c12 0 22 -10 22 -23v-57c0 -9 -6 -18 -15 -21l-43 -16v-157l28 10c3 1 5 1 8 1c12 0 22 -9 22 -22v-57c0 -9 -6 -18 -15 -21l-43 -16v-157zM97 64v-158l81 30v158z" fill="currentColor"/>
</g>
</a>
<a style="color:inherit;" xlink:href="textedit:///Users/tomsegarra/Documents/dev/dummies/lilypond_files/b03e2ee4ea1ee474b5372f2c961ee9f6.ly:26:18:19">
<g transform="translate(42.7321, 5.2270)">
<text font-family="sans-serif" font-size="2.2240" text-anchor="start" fill="currentColor">
<tspan>E</tspan>
</text>
</g>
</a>
<a style="color:inherit;" xlink:href="textedit:///Users/tomsegarra/Documents/dev/dummies/lilypond_files/b03e2ee4ea1ee474b5372f2c961ee9f6.ly:32:13:14">
<g transform="translate(78.8438, 5.2270)">
<text font-family="sans-serif" font-size="2.2240" text-anchor="start" fill="currentColor">
<tspan>E</tspan>
</text>
</g>
</a>
<a style="color:inherit;" xlink:href="textedit:///Users/tomsegarra/Documents/dev/dummies/lilypond_files/b03e2ee4ea1ee474b5372f2c961ee9f6.ly:32:9:10">
<g transform="translate(75.4899, 5.2270)">
<text font-family="sans-serif" font-size="2.2240" text-anchor="start" fill="currentColor">
<tspan>F</tspan>
</text>
</g>
<g transform="translate(76.7532, 4.6270)">
<path transform="scale(0.0036, -0.0036)" d="M217 -311c0 -11 -8 -19 -19 -19s-20 8 -20 19v142l-81 -30v-156c0 -11 -9 -20 -20 -20s-19 9 -19 20v142l-28 -11c-3 -1 -5 -1 -8 -1c-12 0 -22 10 -22 23v57c0 9 6 18 15 21l43 16v157l-28 -10c-3 -1 -5 -1 -8 -1c-12 0 -22 9 -22 22v57c0 9 6 18 15 21l43 16v157
c0 11 8 19 19 19s20 -8 20 -19v-142l81 30v156c0 11 9 20 20 20s19 -9 19 -20v-142l28 11c3 1 5 1 8 1c12 0 22 -10 22 -23v-57c0 -9 -6 -18 -15 -21l-43 -16v-157l28 10c3 1 5 1 8 1c12 0 22 -9 22 -22v-57c0 -9 -6 -18 -15 -21l-43 -16v-157zM97 64v-158l81 30v158z" fill="currentColor"/>
</g>
</a>
<a style="color:inherit;" xlink:href="textedit:///Users/tomsegarra/Documents/dev/dummies/lilypond_files/b03e2ee4ea1ee474b5372f2c961ee9f6.ly:29:4:5">
<g transform="translate(46.8321, 5.2270)">
<text font-family="sans-serif" font-size="2.2240" text-anchor="start" fill="currentColor">
<tspan>G</tspan>
</text>
</g>
</a>
<a style="color:inherit;" xlink:href="textedit:///Users/tomsegarra/Documents/dev/dummies/lilypond_files/b03e2ee4ea1ee474b5372f2c961ee9f6.ly:32:7:8">
<g transform="translate(72.5899, 5.2270)">
<text font-family="sans-serif" font-size="2.2240" text-anchor="start" fill="currentColor">
<tspan>E</tspan>
</text>
</g>
</a>
<a style="color:inherit;" xlink:href="textedit:///Users/tomsegarra/Documents/dev/dummies/lilypond_files/b03e2ee4ea1ee474b5372f2c961ee9f6.ly:32:4:5">
<g transform="translate(69.6899, 5.2270)">
<text font-family="sans-serif" font-size="2.2240" text-anchor="start" fill="currentColor">
<tspan>D</tspan>
</text>
</g>
</a>
<a style="color:inherit;" xlink:href="textedit:///Users/tomsegarra/Documents/dev/dummies/lilypond_files/b03e2ee4ea1ee474b5372f2c961ee9f6.ly:29:9:10">
<g transform="translate(51.6340, 5.2270)">
<text font-family="sans-serif" font-size="2.2240" text-anchor="start" fill="currentColor">
<tspan>D</tspan>
</text>
</g>
</a>
<a style="color:inherit;" xlink:href="textedit:///Users/tomsegarra/Documents/dev/dummies/lilypond_files/b03e2ee4ea1ee474b5372f2c961ee9f6.ly:29:13:14">
<g transform="translate(54.5340, 5.2270)">
<text font-family="sans-serif" font-size="2.2240" text-anchor="start" fill="currentColor">
<tspan>E</tspan>
</text>
</g>
</a>
<a style="color:inherit;" xlink:href="textedit:///Users/tomsegarra/Documents/dev/dummies/lilypond_files/b03e2ee4ea1ee474b5372f2c961ee9f6.ly:29:15:16">
<g transform="translate(57.4340, 5.2270)">
<text font-family="sans-serif" font-size="2.2240" text-anchor="start" fill="currentColor">
<tspan>F</tspan>
</text>
</g>
<g transform="translate(58.6973, 4.6270)">
<path transform="scale(0.0036, -0.0036)" d="M217 -311c0 -11 -8 -19 -19 -19s-20 8 -20 19v142l-81 -30v-156c0 -11 -9 -20 -20 -20s-19 9 -19 20v142l-28 -11c-3 -1 -5 -1 -8 -1c-12 0 -22 10 -22 23v57c0 9 6 18 15 21l43 16v157l-28 -10c-3 -1 -5 -1 -8 -1c-12 0 -22 9 -22 22v57c0 9 6 18 15 21l43 16v157
c0 11 8 19 19 19s20 -8 20 -19v-142l81 30v156c0 11 9 20 20 20s19 -9 19 -20v-142l28 11c3 1 5 1 8 1c12 0 22 -10 22 -23v-57c0 -9 -6 -18 -15 -21l-43 -16v-157l28 10c3 1 5 1 8 1c12 0 22 -9 22 -22v-57c0 -9 -6 -18 -15 -21l-43 -16v-157zM97 64v-158l81 30v158z" fill="currentColor"/>
</g>
</a>
<a style="color:inherit;" xlink:href="textedit:///Users/tomsegarra/Documents/dev/dummies/lilypond_files/b03e2ee4ea1ee474b5372f2c961ee9f6.ly:29:24:25">
<g transform="translate(64.8879, 5.2270)">
<text font-family="sans-serif" font-size="2.2240" text-anchor="start" fill="currentColor">
<tspan>A</tspan>
</text>
</g>
</a>
<a style="color:inherit;" xlink:href="textedit:///Users/tomsegarra/Documents/dev/dummies/lilypond_files/b03e2ee4ea1ee474b5372f2c961ee9f6.ly:29:19:20">
<g transform="translate(60.7879, 5.2270)">
<text font-family="sans-serif" font-size="2.2240" text-anchor="start" fill="currentColor">
<tspan>E</tspan>
</text>
</g>
</a>
</svg>
