<svg xmlns="http://www.w3.org/2000/svg" xmlns:xlink="http://www.w3.org/1999/xlink" version="1.2" width="78.89mm" height="297.00mm" viewBox="0 0 44.8914 169.0094">
<style type="text/css">
<![CDATA[
tspan { white-space: pre; }
]]>
</style>
<!-- Page: 1/1 -->
<g transform="translate(2.2762, 8.1867)">
<line stroke-linejoin="round" stroke-linecap="round" stroke-width="0.0949" stroke="currentColor" x1="0.0474" y1="0" x2="40.3390" y2="0"/>
</g>
<g transform="translate(2.2762, 7.3367)">
<line stroke-linejoin="round" stroke-linecap="round" stroke-width="0.0949" stroke="currentColor" x1="0.0474" y1="0" x2="40.3390" y2="0"/>
</g>
<g transform="translate(2.2762, 6.4867)">
<line stroke-linejoin="round" stroke-linecap="round" stroke-width="0.0949" stroke="currentColor" x1="0.0474" y1="0" x2="40.3390" y2="0"/>
</g>
<g transform="translate(2.2762, 5.6367)">
<line stroke-linejoin="round" stroke-linecap="round" stroke-width="0.0949" stroke="currentColor" x1="0.0474" y1="0" x2="40.3390" y2="0"/>
</g>
<g transform="translate(2.2762, 4.7867)">
<line stroke-linejoin="round" stroke-linecap="round" stroke-width="0.0949" stroke="currentColor" x1="0.0474" y1="0" x2="40.3390" y2="0"/>
</g>
<g transform="translate(38.0750, 6.4867)">
<rect x="0.0000" y="-1.7000" width="0.1802" height="3.4000" ry="0.0000" fill="currentColor"/>
</g>
<a style="color:inherit;" xlink:href="textedit:///Users/tomsegarra/Documents/dev/dummies/lilypond_files/b1a283bdeafb15578afff3d42b663135.ly:23:16:17">
<g transform="translate(22.9381, 11.9867)">
<text font-family="serif" font-size="2.0989" text-anchor="start" fill="currentColor">
<tspan>that</tspan>
</text>
</g>
</a>
<a style="color:inherit;" xlink:href="textedit:///Users/tomsegarra/Documents/dev/dummies/lilypond_files/b1a283bdeafb15578afff3d42b663135.ly:20:4:5">
<g transform="translate(14.3252, 6.0617)">
<path transform="scale(0.0034, -0.0034)" d="M215 137c67 0 111 -37 111 -92c0 -90 -111 -182 -215 -182c-67 0 -111 37 -111 92c0 90 111 182 215 182z" fill="currentColor"/>
</g>
</a>
<g transform="translate(3.0762, 7.3367)">
<path transform="scale(0.0034, -0.0034)" d="M646 2c0 -113 -74 -213 -180 -247c3 -34 5 -68 5 -102c0 -20 -1 -40 -2 -60c-7 -121 -91 -228 -209 -228c-108 0 -196 87 -196 196c0 58 53 104 112 104c54 0 95 -48 95 -104c0 -52 -43 -95 -95 -95c-10 0 -20 2 -29 6c26 -38 68 -63 116 -63h3c93 2 153 92 159 190
c1 19 2 37 2 56c0 30 -2 60 -4 90c-5 -1 -43 -8 -88 -8c-194 0 -333 180 -333 375c0 177 130 307 246 442c-31 98 -53 170 -53 347c0 115 55 223 148 290c7 5 16 4 22 -1c68 -80 134 -243 134 -357c0 -143 -85 -255 -178 -364c21 -68 40 -137 57 -206c1 0 5 1 11 1
c156 0 257 -129 257 -262zM462 -202c66 24 111 88 111 162c0 89 -65 178 -170 190c28 -135 50 -272 59 -352zM75 26c0 -145 141 -245 263 -245c1 0 46 0 81 6c-7 65 -27 206 -61 363c-79 -8 -124 -61 -124 -119c0 -43 25 -89 80 -121c5 -5 7 -11 7 -16
c0 -12 -10 -23 -22 -23c-16 0 -127 63 -127 188c0 89 58 175 161 198c-14 58 -29 116 -46 173c-106 -122 -212 -244 -212 -404zM406 1042c-99 -47 -162 -148 -162 -257c0 -49 13 -111 38 -191c79 97 144 199 144 324c0 33 0 63 -20 124z" fill="currentColor"/>
</g>
<a style="color:inherit;" xlink:href="textedit:///Users/tomsegarra/Documents/dev/dummies/lilypond_files/b1a283bdeafb15578afff3d42b663135.ly:19:6:7">
<g transform="translate(6.6864, 6.4867)">
<path transform="scale(0.0034, -0.0034)" d="M29 39l-2 -64v-11c0 -22 2 -43 5 -65c44 38 91 80 91 138c0 33 -13 66 -42 66c-31 0 -51 -31 -52 -64zM-28 454c9 5 18 8 28 8s19 -3 28 -8l-7 -343c25 23 58 36 92 36c51 0 87 -49 87 -103c0 -79 -84 -117 -144 -169c-16 -14 -25 -41 -47 -41c-14 0 -25 13 -25 27z" fill="currentColor"/>
</g>
<g transform="translate(7.4766, 5.2117)">
<path transform="scale(0.0034, -0.0034)" d="M29 39l-2 -64v-11c0 -22 2 -43 5 -65c44 38 91 80 91 138c0 33 -13 66 -42 66c-31 0 -51 -31 -52 -64zM-28 454c9 5 18 8 28 8s19 -3 28 -8l-7 -343c25 23 58 36 92 36c51 0 87 -49 87 -103c0 -79 -84 -117 -144 -169c-16 -14 -25 -41 -47 -41c-14 0 -25 13 -25 27z" fill="currentColor"/>
</g>
<g transform="translate(8.2668, 6.9117)">
<path transform="scale(0.0034, -0.0034)" d="M29 39l-2 -64v-11c0 -22 2 -43 5 -65c44 38 91 80 91 138c0 33 -13 66 -42 66c-31 0 -51 -31 -52 -64zM-28 454c9 5 18 8 28 8s19 -3 28 -8l-7 -343c25 23 58 36 92 36c51 0 87 -49 87 -103c0 -79 -84 -117 -144 -169c-16 -14 -25 -41 -47 -41c-14 0 -25 13 -25 27z" fill="currentColor"/>
</g>
<g transform="translate(9.0570, 5.6367)">
<path transform="scale(0.0034, -0.0034)" d="M29 39l-2 -64v-11c0 -22 2 -43 5 -65c44 38 91 80 91 138c0 33 -13 66 -42 66c-31 0 -51 -31 -52 -64zM-28 454c9 5 18 8 28 8s19 -3 28 -8l-7 -343c25 23 58 36 92 36c51 0 87 -49 87 -103c0 -79 -84 -117 -144 -169c-16 -14 -25 -41 -47 -41c-14 0 -25 13 -25 27z" fill="currentColor"/>
</g>
</a>
<g transform="translate(10.8870, 6.4867)">
<path transform="scale(0.0034, -0.0034)" d="M358 29c-30 0 -74 23 -74 73c0 38 27 76 71 76c4 0 7 0 11 -1c-27 36 -69 59 -116 59c-106 0 -113 -74 -113 -188c0 -15 1 -31 1 -48s-1 -33 -1 -48c0 -114 7 -188 113 -188c79 0 136 70 155 150c2 7 7 10 13 10c7 0 14 -5 14 -13c0 -21 -50 -175 -182 -175
c-59 0 -250 20 -250 264c0 63 18 264 250 264c115 0 174 -109 174 -165c0 -39 -30 -70 -66 -70z" fill="currentColor"/>
</g>
<a style="color:inherit;" xlink:href="textedit:///Users/tomsegarra/Documents/dev/dummies/lilypond_files/b1a283bdeafb15578afff3d42b663135.ly:23:4:5">
<g transform="translate(12.8132, 11.9867)">
<text font-family="serif" font-size="2.0989" text-anchor="start" fill="currentColor">
<tspan>God,</tspan>
</text>
</g>
</a>
<g transform="translate(14.3869, 6.4867)">
<rect x="-0.0617" y="-0.2725" width="0.1233" height="2.6660" ry="0.0400" fill="currentColor"/>
</g>
<a style="color:inherit;" xlink:href="textedit:///Users/tomsegarra/Documents/dev/dummies/lilypond_files/b1a283bdeafb15578afff3d42b663135.ly:20:17:18">
<g transform="translate(29.4472, 6.4867)">
<path transform="scale(0.0034, -0.0034)" d="M215 137c67 0 111 -37 111 -92c0 -90 -111 -182 -215 -182c-67 0 -111 37 -111 92c0 90 111 182 215 182z" fill="currentColor"/>
</g>
</a>
<a style="color:inherit;" xlink:href="textedit:///Users/tomsegarra/Documents/dev/dummies/lilypond_files/b1a283bdeafb15578afff3d42b663135.ly:23:23:24">
<g transform="translate(27.6621, 11.9867)">
<text font-family="serif" font-size="2.0989" text-anchor="start" fill="currentColor">
<tspan>could</tspan>
</text>
</g>
</a>
<g transform="translate(30.4930, 6.4867)">
<rect x="-0.0617" y="-2.2113" width="0.1233" height="2.0588" ry="0.0400" fill="currentColor"/>
</g>
<a style="color:inherit;" xlink:href="textedit:///Users/tomsegarra/Documents/dev/dummies/lilypond_files/b1a283bdeafb15578afff3d42b663135.ly:20:21:22">
<g transform="translate(33.2945, 6.9117)">
<path transform="scale(0.0034, -0.0034)" d="M215 137c67 0 111 -37 111 -92c0 -90 -111 -182 -215 -182c-67 0 -111 37 -111 92c0 90 111 182 215 182z" fill="currentColor"/>
</g>
</a>
<a style="color:inherit;" xlink:href="textedit:///Users/tomsegarra/Documents/dev/dummies/lilypond_files/b1a283bdeafb15578afff3d42b663135.ly:23:29:30">
<g transform="translate(32.7897, 11.9867)">
<text font-family="serif" font-size="2.0989" text-anchor="start" fill="currentColor">
<tspan>do</tspan>
</text>
</g>
</a>
<g transform="translate(34.3402, 6.4867)">
<rect x="-0.0617" y="-1.9918" width="0.1233" height="2.2643" ry="0.0400" fill="currentColor"/>
</g>
<a style="color:inherit;" xlink:href="textedit:///Users/tomsegarra/Documents/dev/dummies/lilypond_files/b1a283bdeafb15578afff3d42b663135.ly:20:25:26">
<g transform="translate(35.6019, 6.9117)">
<path transform="scale(0.0034, -0.0034)" d="M215 137c67 0 111 -37 111 -92c0 -90 -111 -182 -215 -182c-67 0 -111 37 -111 92c0 90 111 182 215 182z" fill="currentColor"/>
</g>
</a>
<a style="color:inherit;" xlink:href="textedit:///Users/tomsegarra/Documents/dev/dummies/lilypond_files/b1a283bdeafb15578afff3d42b663135.ly:23:32:33">
<g transform="translate(35.6019, 11.9867)">
<text font-family="serif" font-size="2.0989" text-anchor="start" fill="currentColor">
<tspan>that</tspan>
</text>
</g>
</a>
<g transform="translate(36.6476, 6.4867)">
<rect x="-0.0617" y="-1.8601" width="0.1233" height="2.1326" ry="0.0400" fill="currentColor"/>
</g>
<g transform="translate(14.3252, 8.8801)">
<polygon stroke-linejoin="round" stroke-linecap="round" stroke-width="0.0800" fill="currentColor" stroke="currentColor" points="9.7131 -0.1640 9.7131 0.1640 0.0400 0.1640 0.0400 -0.1640"/>
</g>
<a style="color:inherit;" xlink:href="textedit:///Users/tomsegarra/Documents/dev/dummies/lilypond_files/b1a283bdeafb15578afff3d42b663135.ly:20:30:31">
<g transform="translate(39.1553, 7.7617)">
<path transform="scale(0.0034, -0.0034)" d="M215 137c67 0 111 -37 111 -92c0 -90 -111 -182 -215 -182c-67 0 -111 37 -111 92c0 90 111 182 215 182z" fill="currentColor"/>
</g>
</a>
<g transform="translate(40.2010, 6.4867)">
<rect x="-0.0617" y="-1.7000" width="0.1233" height="2.8225" ry="0.0400" fill="currentColor"/>
</g>
<a style="color:inherit;" xlink:href="textedit:///Users/tomsegarra/Documents/dev/dummies/lilypond_files/b1a283bdeafb15578afff3d42b663135.ly:20:28:29">
<g transform="translate(35.6019, 6.4867)">
<path stroke-width="0.0759" stroke-linejoin="round" stroke-linecap="round" stroke="currentColor" fill="currentColor" d="M0.4678 1.3163C1.1293 2.3131 2.9803 2.7559 4.0212 2.1663L4.0212 2.1663C3.0067 2.6452 1.1558 2.2024 0.4678 1.3163z"/>
</g>
</a>
<a style="color:inherit;" xlink:href="textedit:///Users/tomsegarra/Documents/dev/dummies/lilypond_files/b1a283bdeafb15578afff3d42b663135.ly:20:9:10">
<g transform="translate(17.1823, 6.0617)">
<path transform="scale(0.0034, -0.0034)" d="M215 137c67 0 111 -37 111 -92c0 -90 -111 -182 -215 -182c-67 0 -111 37 -111 92c0 90 111 182 215 182z" fill="currentColor"/>
</g>
</a>
<a style="color:inherit;" xlink:href="textedit:///Users/tomsegarra/Documents/dev/dummies/lilypond_files/b1a283bdeafb15578afff3d42b663135.ly:23:9:10">
<g transform="translate(17.3946, 11.9867)">
<text font-family="serif" font-size="2.0989" text-anchor="start" fill="currentColor">
<tspan>I</tspan>
</text>
</g>
</a>
<g transform="translate(17.2440, 6.4867)">
<rect x="-0.0617" y="-0.2725" width="0.1233" height="2.6660" ry="0.0400" fill="currentColor"/>
</g>
<g transform="translate(27.3011, 4.0932)">
<polygon stroke-linejoin="round" stroke-linecap="round" stroke-width="0.0800" fill="currentColor" stroke="currentColor" points="9.3682 0.3729 9.3682 0.7009 0.0400 0.1640 0.0400 -0.1640"/>
</g>
<a style="color:inherit;" xlink:href="textedit:///Users/tomsegarra/Documents/dev/dummies/lilypond_files/b1a283bdeafb15578afff3d42b663135.ly:20:11:12">
<g transform="translate(19.9541, 6.0617)">
<path transform="scale(0.0034, -0.0034)" d="M215 137c67 0 111 -37 111 -92c0 -90 -111 -182 -215 -182c-67 0 -111 37 -111 92c0 90 111 182 215 182z" fill="currentColor"/>
</g>
</a>
<a style="color:inherit;" xlink:href="textedit:///Users/tomsegarra/Documents/dev/dummies/lilypond_files/b1a283bdeafb15578afff3d42b663135.ly:23:11:12">
<g transform="translate(18.5274, 11.9867)">
<text font-family="serif" font-size="2.0989" text-anchor="start" fill="currentColor">
<tspan>wish</tspan>
</text>
</g>
</a>
<g transform="translate(20.0157, 6.4867)">
<rect x="-0.0617" y="-0.2725" width="0.1233" height="2.6660" ry="0.0400" fill="currentColor"/>
</g>
<a style="color:inherit;" xlink:href="textedit:///Users/tomsegarra/Documents/dev/dummies/lilypond_files/b1a283bdeafb15578afff3d42b663135.ly:20:13:14">
<g transform="translate(23.9550, 6.0617)">
<path transform="scale(0.0034, -0.0034)" d="M215 137c67 0 111 -37 111 -92c0 -90 -111 -182 -215 -182c-67 0 -111 37 -111 92c0 90 111 182 215 182z" fill="currentColor"/>
</g>
</a>
<g transform="translate(24.0166, 6.4867)">
<rect x="-0.0617" y="-0.2725" width="0.1233" height="2.6660" ry="0.0400" fill="currentColor"/>
</g>
<g transform="translate(27.3627, 6.4867)">
<rect x="-0.0617" y="-2.3899" width="0.1233" height="1.8125" ry="0.0400" fill="currentColor"/>
</g>
<a style="color:inherit;" xlink:href="textedit:///Users/tomsegarra/Documents/dev/dummies/lilypond_files/b1a283bdeafb15578afff3d42b663135.ly:20:15:16">
<g transform="translate(26.3170, 6.0617)">
<path transform="scale(0.0034, -0.0034)" d="M215 137c67 0 111 -37 111 -92c0 -90 -111 -182 -215 -182c-67 0 -111 37 -111 92c0 90 111 182 215 182z" fill="currentColor"/>
</g>
</a>
<a style="color:inherit;" xlink:href="textedit:///Users/tomsegarra/Documents/dev/dummies/lilypond_files/b1a283bdeafb15578afff3d42b663135.ly:23:21:22">
<g transform="translate(26.5292, 11.9867)">
<text font-family="serif" font-size="2.0989" text-anchor="start" fill="currentColor">
<tspan>I</tspan>
</text>
</g>
</a>
</svg>
