<?xml version="1.0" encoding="UTF-8" standalone="no"?>
<svg
   version="1.2"
   width="144.44893mm"
   height="19.754002mm"
   viewBox="0 0 82.197223 11.241118"
   id="svg442"
   sodipodi:docname="b1c26c25a9a253b1aab7d80595595fd0.svg"
   xmlns:inkscape="http://www.inkscape.org/namespaces/inkscape"
   xmlns:sodipodi="http://sodipodi.sourceforge.net/DTD/sodipodi-0.dtd"
   xmlns:xlink="http://www.w3.org/1999/xlink"
   xmlns="http://www.w3.org/2000/svg"
   xmlns:svg="http://www.w3.org/2000/svg">
  <defs
     id="defs446" />
  <sodipodi:namedview
     id="namedview444"
     pagecolor="#ffffff"
     bordercolor="#000000"
     borderopacity="0.25"
     inkscape:showpageshadow="2"
     inkscape:pageopacity="0.0"
     inkscape:pagecheckerboard="0"
     inkscape:deskcolor="#d1d1d1"
     inkscape:document-units="mm" />
  <style
     type="text/css"
     id="style2"><![CDATA[
tspan { white-space: pre; }
]]></style>
  <!-- Page: 1/1 -->
  <g
     transform="translate(18.46719,5.2881328)"
     id="g6">
    <rect
       x="0"
       y="-1.7"
       width="0.1802"
       height="3.4000001"
       ry="0.0000"
       fill="currentColor"
       id="rect4" />
  </g>
  <g
     transform="translate(-0.00110973,6.9881328)"
     id="g10">
    <line
       stroke-linejoin="round"
       stroke-linecap="round"
       stroke-width="0.0949"
       stroke="currentColor"
       x1="0.047400001"
       y1="0"
       x2="65.860497"
       y2="0"
       id="line8" />
  </g>
  <g
     transform="translate(-0.00110973,6.1381328)"
     id="g14">
    <line
       stroke-linejoin="round"
       stroke-linecap="round"
       stroke-width="0.0949"
       stroke="currentColor"
       x1="0.047400001"
       y1="0"
       x2="65.860497"
       y2="0"
       id="line12" />
  </g>
  <g
     transform="translate(-0.00110973,5.2881328)"
     id="g18">
    <line
       stroke-linejoin="round"
       stroke-linecap="round"
       stroke-width="0.0949"
       stroke="currentColor"
       x1="0.047400001"
       y1="0"
       x2="65.860497"
       y2="0"
       id="line16" />
  </g>
  <g
     transform="translate(-0.00110973,4.4381328)"
     id="g22">
    <line
       stroke-linejoin="round"
       stroke-linecap="round"
       stroke-width="0.0949"
       stroke="currentColor"
       x1="0.047400001"
       y1="0"
       x2="65.860497"
       y2="0"
       id="line20" />
  </g>
  <g
     transform="translate(-0.00110973,3.5881328)"
     id="g26">
    <line
       stroke-linejoin="round"
       stroke-linecap="round"
       stroke-width="0.0949"
       stroke="currentColor"
       x1="0.047400001"
       y1="0"
       x2="65.860497"
       y2="0"
       id="line24" />
  </g>
  <g
     transform="translate(65.72659,5.2881328)"
     id="g30">
    <rect
       x="0"
       y="-1.7"
       width="0.1802"
       height="3.4000001"
       ry="0.0000"
       fill="currentColor"
       id="rect28" />
  </g>
  <g
     transform="translate(44.13219,5.2881328)"
     id="g34">
    <rect
       x="0"
       y="-1.7"
       width="0.1802"
       height="3.4000001"
       ry="0.0000"
       fill="currentColor"
       id="rect32" />
  </g>
  <a
     style="color:inherit"
     xlink:href="textedit:///Users/tomsegarra/Documents/dev/dummies/lilypond_files/b1c26c25a9a253b1aab7d80595595fd0.ly:33:20:21"
     id="a40"
     transform="translate(-2.2773097,-3.2762672)">
    <g
       transform="translate(17.8686,14.0644)"
       id="g38">
      <rect
         x="0"
         y="-0.54329997"
         width="0.66000003"
         height="0.1233"
         ry="0.037900001"
         fill="currentColor"
         id="rect36" />
    </g>
  </a>
  <a
     style="color:inherit"
     xlink:href="textedit:///Users/tomsegarra/Documents/dev/dummies/lilypond_files/b1c26c25a9a253b1aab7d80595595fd0.ly:21:12:13"
     id="a48"
     transform="translate(-2.2773097,-3.2762672)">
    <g
       transform="translate(12.8595,5.6089)"
       id="g46">
      <text
         font-family="sans-serif"
         font-size="2.224px"
         text-anchor="start"
         fill="currentColor"
         id="text44"><tspan
           id="tspan42">N.C.</tspan></text>
    </g>
  </a>
  <a
     style="color:inherit"
     xlink:href="textedit:///Users/tomsegarra/Documents/dev/dummies/lilypond_files/b1c26c25a9a253b1aab7d80595595fd0.ly:25:16:17"
     id="a54"
     transform="translate(-2.2773097,-3.2762672)">
    <g
       transform="translate(12.8595,7.7144)"
       id="g52">
      <path
         transform="scale(0.0034,-0.0034)"
         d="m 215,137 c 67,0 111,-37 111,-92 0,-90 -111,-182 -215,-182 -67,0 -111,37 -111,92 0,90 111,182 215,182 z"
         fill="currentColor"
         id="path50" />
    </g>
  </a>
  <g
     transform="translate(0.79889027,6.1381328)"
     id="g58">
    <path
       transform="scale(0.0034,-0.0034)"
       d="m 646,2 c 0,-113 -74,-213 -180,-247 3,-34 5,-68 5,-102 0,-20 -1,-40 -2,-60 -7,-121 -91,-228 -209,-228 -108,0 -196,87 -196,196 0,58 53,104 112,104 54,0 95,-48 95,-104 0,-52 -43,-95 -95,-95 -10,0 -20,2 -29,6 26,-38 68,-63 116,-63 h 3 c 93,2 153,92 159,190 1,19 2,37 2,56 0,30 -2,60 -4,90 -5,-1 -43,-8 -88,-8 -194,0 -333,180 -333,375 0,177 130,307 246,442 -31,98 -53,170 -53,347 0,115 55,223 148,290 7,5 16,4 22,-1 68,-80 134,-243 134,-357 0,-143 -85,-255 -178,-364 21,-68 40,-137 57,-206 1,0 5,1 11,1 C 545,264 646,135 646,2 Z M 462,-202 c 66,24 111,88 111,162 0,89 -65,178 -170,190 28,-135 50,-272 59,-352 z M 75,26 c 0,-145 141,-245 263,-245 1,0 46,0 81,6 -7,65 -27,206 -61,363 -79,-8 -124,-61 -124,-119 0,-43 25,-89 80,-121 5,-5 7,-11 7,-16 0,-12 -10,-23 -22,-23 -16,0 -127,63 -127,188 0,89 58,175 161,198 -14,58 -29,116 -46,173 C 181,308 75,186 75,26 Z M 406,1042 C 307,995 244,894 244,785 c 0,-49 13,-111 38,-191 79,97 144,199 144,324 0,33 0,63 -20,124 z"
       fill="currentColor"
       id="path56" />
  </g>
  <a
     style="color:inherit"
     xlink:href="textedit:///Users/tomsegarra/Documents/dev/dummies/lilypond_files/b1c26c25a9a253b1aab7d80595595fd0.ly:24:1:9"
     id="a68"
     transform="translate(-2.2773097,-3.2762672)">
    <g
       transform="translate(6.5762,6.8644)"
       id="g62">
      <path
         transform="scale(0.0034,-0.0034)"
         d="m 217,-311 c 0,-11 -8,-19 -19,-19 -11,0 -20,8 -20,19 v 142 l -81,-30 v -156 c 0,-11 -9,-20 -20,-20 -11,0 -19,9 -19,20 v 142 l -28,-11 c -3,-1 -5,-1 -8,-1 -12,0 -22,10 -22,23 v 57 c 0,9 6,18 15,21 l 43,16 V 49 L 30,39 C 27,38 25,38 22,38 10,38 0,47 0,60 v 57 c 0,9 6,18 15,21 l 43,16 v 157 c 0,11 8,19 19,19 11,0 20,-8 20,-19 V 169 l 81,30 v 156 c 0,11 9,20 20,20 11,0 19,-9 19,-20 V 213 l 28,11 c 3,1 5,1 8,1 12,0 22,-10 22,-23 v -57 c 0,-9 -6,-18 -15,-21 L 217,108 V -49 l 28,10 c 3,1 5,1 8,1 12,0 22,-9 22,-22 v -57 c 0,-9 -6,-18 -15,-21 l -43,-16 z M 97,64 V -94 l 81,30 V 94 Z"
         fill="currentColor"
         id="path60" />
    </g>
    <g
       transform="translate(7.5112,8.1394)"
       id="g66">
      <path
         transform="scale(0.0034,-0.0034)"
         d="m 217,-311 c 0,-11 -8,-19 -19,-19 -11,0 -20,8 -20,19 v 142 l -81,-30 v -156 c 0,-11 -9,-20 -20,-20 -11,0 -19,9 -19,20 v 142 l -28,-11 c -3,-1 -5,-1 -8,-1 -12,0 -22,10 -22,23 v 57 c 0,9 6,18 15,21 l 43,16 V 49 L 30,39 C 27,38 25,38 22,38 10,38 0,47 0,60 v 57 c 0,9 6,18 15,21 l 43,16 v 157 c 0,11 8,19 19,19 11,0 20,-8 20,-19 V 169 l 81,30 v 156 c 0,11 9,20 20,20 11,0 19,-9 19,-20 V 213 l 28,11 c 3,1 5,1 8,1 12,0 22,-10 22,-23 v -57 c 0,-9 -6,-18 -15,-21 L 217,108 V -49 l 28,10 c 3,1 5,1 8,1 12,0 22,-9 22,-22 v -57 c 0,-9 -6,-18 -15,-21 l -43,-16 z M 97,64 V -94 l 81,30 V 94 Z"
         fill="currentColor"
         id="path64" />
    </g>
  </a>
  <g
     transform="translate(7.3700903,5.2881328)"
     id="g72">
    <path
       transform="scale(0.0034,-0.0034)"
       d="m 172,256 c -49,0 -52,-40 -52,-94 v -22 -21 c 0,-54 3,-94 52,-94 56,0 59,50 59,115 0,65 -3,116 -59,116 z m -52,11 c 17,7 34,14 52,14 102,0 171,-46 171,-141 C 343,45 274,0 172,0 60,0 0,124 0,250 c 0,129 74,250 192,250 71,0 139,-40 139,-105 0,-36 -29,-65 -65,-65 -36,0 -65,29 -65,65 0,23 39,26 39,49 0,21 -24,31 -48,31 -64,0 -74,-62 -74,-134 0,-24 2,-49 2,-74 z"
       fill="currentColor"
       id="path70" />
  </g>
  <g
     transform="translate(7.3188903,6.9880328)"
     id="g76">
    <path
       transform="scale(0.0034,-0.0034)"
       d="m 261,290 c 26,29 47,61 47,100 0,54 -57,85 -116,85 -46,0 -73,-35 -73,-69 0,-20 9,-40 29,-51 z m 32,-18 C 323,255 375,214 375,145 375,71 309,0 185,0 90,0 0,53 0,140 c 0,50 38,85 75,120 -40,28 -59,68 -59,106 0,68 60,134 176,134 81,0 163,-38 163,-110 0,-47 -29,-84 -62,-118 z M 107,241 C 75,212 46,182 46,140 46,71 112,25 185,25 c 54,0 85,41 85,81 0,24 -11,47 -35,61 z"
       fill="currentColor"
       id="path74" />
  </g>
  <a
     style="color:inherit"
     xlink:href="textedit:///Users/tomsegarra/Documents/dev/dummies/lilypond_files/b1c26c25a9a253b1aab7d80595595fd0.ly:33:15:16"
     id="a84"
     transform="translate(-2.2773097,-3.2762672)">
    <g
       transform="translate(13.0718,14.0644)"
       id="g82">
      <text
         font-family="serif"
         font-size="2.0989px"
         text-anchor="start"
         fill="currentColor"
         id="text80"><tspan
           id="tspan78">I</tspan></text>
    </g>
  </a>
  <g
     transform="translate(10.64389,5.2881328)"
     id="g88">
    <rect
       x="-0.061700001"
       y="-0.69749999"
       width="0.1233"
       height="2.5509"
       ry="0.039999999"
       fill="currentColor"
       id="rect86" />
  </g>
  <a
     style="color:inherit"
     xlink:href="textedit:///Users/tomsegarra/Documents/dev/dummies/lilypond_files/b1c26c25a9a253b1aab7d80595595fd0.ly:33:27:28"
     id="a94"
     transform="translate(-2.2773097,-3.2762672)">
    <g
       transform="translate(23.4733,14.0644)"
       id="g92">
      <rect
         x="0"
         y="-0.54329997"
         width="0.66000003"
         height="0.1233"
         ry="0.037900001"
         fill="currentColor"
         id="rect90" />
    </g>
  </a>
  <a
     style="color:inherit"
     xlink:href="textedit:///Users/tomsegarra/Documents/dev/dummies/lilypond_files/b1c26c25a9a253b1aab7d80595595fd0.ly:26:13:14"
     id="a100"
     transform="translate(-2.2773097,-3.2762672)">
    <g
       transform="translate(29.5627,7.7144)"
       id="g98">
      <path
         transform="scale(0.0034,-0.0034)"
         d="m 215,137 c 67,0 111,-37 111,-92 0,-90 -111,-182 -215,-182 -67,0 -111,37 -111,92 0,90 111,182 215,182 z"
         fill="currentColor"
         id="path96" />
    </g>
  </a>
  <a
     style="color:inherit"
     xlink:href="textedit:///Users/tomsegarra/Documents/dev/dummies/lilypond_files/b1c26c25a9a253b1aab7d80595595fd0.ly:33:34:35"
     id="a108"
     transform="translate(-2.2773097,-3.2762672)">
    <g
       transform="translate(27.8458,14.0644)"
       id="g106">
      <text
         font-family="serif"
         font-size="2.0989px"
         text-anchor="start"
         fill="currentColor"
         id="text104"><tspan
           id="tspan102">when</tspan></text>
    </g>
  </a>
  <g
     transform="translate(27.34699,5.2881328)"
     id="g112">
    <rect
       x="-0.061700001"
       y="-0.69749999"
       width="0.1233"
       height="2.3963001"
       ry="0.039999999"
       fill="currentColor"
       id="rect110" />
  </g>
  <a
     style="color:inherit"
     xlink:href="textedit:///Users/tomsegarra/Documents/dev/dummies/lilypond_files/b1c26c25a9a253b1aab7d80595595fd0.ly:25:28:29"
     id="a118"
     transform="translate(-2.2773097,-3.2762672)">
    <g
       transform="translate(18.6743,8.5644)"
       id="g116">
      <path
         stroke-width="0.0759"
         stroke-linejoin="round"
         stroke-linecap="round"
         stroke="currentColor"
         fill="currentColor"
         d="m 0.7537,-2.125 c 0.6417,-0.6888 2.2872,-0.6888 2.9288,0 v 0 c -0.6416,-0.5749 -2.2871,-0.5749 -2.9288,0 z"
         id="path114" />
    </g>
  </a>
  <a
     style="color:inherit"
     xlink:href="textedit:///Users/tomsegarra/Documents/dev/dummies/lilypond_files/b1c26c25a9a253b1aab7d80595595fd0.ly:26:18:19"
     id="a124"
     transform="translate(-2.2773097,-3.2762672)">
    <g
       transform="translate(33.8026,7.7144)"
       id="g122">
      <path
         transform="scale(0.0034,-0.0034)"
         d="m 215,137 c 67,0 111,-37 111,-92 0,-90 -111,-182 -215,-182 -67,0 -111,37 -111,92 0,90 111,182 215,182 z"
         fill="currentColor"
         id="path120" />
    </g>
  </a>
  <a
     style="color:inherit"
     xlink:href="textedit:///Users/tomsegarra/Documents/dev/dummies/lilypond_files/b1c26c25a9a253b1aab7d80595595fd0.ly:33:39:40"
     id="a132"
     transform="translate(-2.2773097,-3.2762672)">
    <g
       transform="translate(32.8369,14.0644)"
       id="g130">
      <text
         font-family="serif"
         font-size="2.0989px"
         text-anchor="start"
         fill="currentColor"
         id="text128"><tspan
           id="tspan126">mis</tspan></text>
    </g>
  </a>
  <g
     transform="translate(31.58689,5.2881328)"
     id="g136">
    <rect
       x="-0.061700001"
       y="-0.69749999"
       width="0.1233"
       height="3.2502999"
       ry="0.039999999"
       fill="currentColor"
       id="rect134" />
  </g>
  <g
     transform="translate(14.08959,6.2662328)"
     id="g140">
    <polygon
       stroke-linejoin="round"
       stroke-linecap="round"
       stroke-width="0.08"
       fill="currentColor"
       stroke="currentColor"
       points="0.04,0.164 0.04,-0.164 2.3907,-0.2922 2.3907,0.0358 "
       id="polygon138" />
  </g>
  <g
     transform="translate(10.58219,7.1446328)"
     id="g144">
    <polygon
       stroke-linejoin="round"
       stroke-linecap="round"
       stroke-width="0.08"
       fill="currentColor"
       stroke="currentColor"
       points="0.04,0.164 0.04,-0.164 5.8981,-0.4771 5.8981,-0.1491 "
       id="polygon142" />
  </g>
  <a
     style="color:inherit"
     xlink:href="textedit:///Users/tomsegarra/Documents/dev/dummies/lilypond_files/b1c26c25a9a253b1aab7d80595595fd0.ly:26:22:23"
     id="a150"
     transform="translate(-2.2773097,-3.2762672)">
    <g
       transform="translate(36.11,8.1394)"
       id="g148">
      <path
         transform="scale(0.0034,-0.0034)"
         d="m 215,137 c 67,0 111,-37 111,-92 0,-90 -111,-182 -215,-182 -67,0 -111,37 -111,92 0,90 111,182 215,182 z"
         fill="currentColor"
         id="path146" />
    </g>
  </a>
  <a
     style="color:inherit"
     xlink:href="textedit:///Users/tomsegarra/Documents/dev/dummies/lilypond_files/b1c26c25a9a253b1aab7d80595595fd0.ly:33:46:47"
     id="a158"
     transform="translate(-2.2773097,-3.2762672)">
    <g
       transform="translate(36.11,14.0644)"
       id="g156">
      <text
         font-family="serif"
         font-size="2.0989px"
         text-anchor="start"
         fill="currentColor"
         id="text154"><tspan
           id="tspan152">er</tspan></text>
    </g>
  </a>
  <g
     transform="translate(33.89429,5.2881328)"
     id="g162">
    <rect
       x="-0.061700001"
       y="-0.27250001"
       width="0.1233"
       height="2.9302001"
       ry="0.039999999"
       fill="currentColor"
       id="rect160" />
  </g>
  <a
     style="color:inherit"
     xlink:href="textedit:///Users/tomsegarra/Documents/dev/dummies/lilypond_files/b1c26c25a9a253b1aab7d80595595fd0.ly:26:27:28"
     id="a168"
     transform="translate(-2.2773097,-3.2762672)">
    <g
       transform="translate(38.4173,8.1394)"
       id="g166">
      <path
         transform="scale(0.0034,-0.0034)"
         d="m 215,137 c 67,0 111,-37 111,-92 0,-90 -111,-182 -215,-182 -67,0 -111,37 -111,92 0,90 111,182 215,182 z"
         fill="currentColor"
         id="path164" />
    </g>
  </a>
  <g
     transform="translate(36.20169,5.2881328)"
     id="g172">
    <rect
       x="-0.061700001"
       y="-0.27250001"
       width="0.1233"
       height="3.0350001"
       ry="0.039999999"
       fill="currentColor"
       id="rect170" />
  </g>
  <a
     style="color:inherit"
     xlink:href="textedit:///Users/tomsegarra/Documents/dev/dummies/lilypond_files/b1c26c25a9a253b1aab7d80595595fd0.ly:26:29:30"
     id="a178"
     transform="translate(-2.2773097,-3.2762672)">
    <g
       transform="translate(40.7247,8.5644)"
       id="g176">
      <path
         transform="scale(0.0034,-0.0034)"
         d="m 215,137 c 67,0 111,-37 111,-92 0,-90 -111,-182 -215,-182 -67,0 -111,37 -111,92 0,90 111,182 215,182 z"
         fill="currentColor"
         id="path174" />
    </g>
  </a>
  <a
     style="color:inherit"
     xlink:href="textedit:///Users/tomsegarra/Documents/dev/dummies/lilypond_files/b1c26c25a9a253b1aab7d80595595fd0.ly:33:52:53"
     id="a186"
     transform="translate(-2.2773097,-3.2762672)">
    <g
       transform="translate(40.7247,14.0644)"
       id="g184">
      <text
         font-family="serif"
         font-size="2.0989px"
         text-anchor="start"
         fill="currentColor"
         id="text182"><tspan
           id="tspan180">y</tspan></text>
    </g>
  </a>
  <g
     transform="translate(38.50909,5.2881328)"
     id="g190">
    <rect
       x="-0.061700001"
       y="0.1525"
       width="0.1233"
       height="2.7149"
       ry="0.039999999"
       fill="currentColor"
       id="rect188" />
  </g>
  <a
     style="color:inherit"
     xlink:href="textedit:///Users/tomsegarra/Documents/dev/dummies/lilypond_files/b1c26c25a9a253b1aab7d80595595fd0.ly:26:34:35"
     id="a196"
     transform="translate(-2.2773097,-3.2762672)">
    <g
       transform="translate(43.0321,8.5644)"
       id="g194">
      <path
         transform="scale(0.0034,-0.0034)"
         d="m 215,137 c 67,0 111,-37 111,-92 0,-90 -111,-182 -215,-182 -67,0 -111,37 -111,92 0,90 111,182 215,182 z"
         fill="currentColor"
         id="path192" />
    </g>
  </a>
  <g
     transform="translate(40.81649,5.2881328)"
     id="g200">
    <rect
       x="-0.061700001"
       y="0.1525"
       width="0.1233"
       height="2.8197"
       ry="0.039999999"
       fill="currentColor"
       id="rect198" />
  </g>
  <g
     transform="translate(19.72589,6.8315328)"
     id="g204">
    <polygon
       stroke-linejoin="round"
       stroke-linecap="round"
       stroke-width="0.08"
       fill="currentColor"
       stroke="currentColor"
       points="0.04,0.164 0.04,-0.164 7.6428,-0.0074 7.6428,0.3206 "
       id="polygon202" />
  </g>
  <a
     style="color:inherit"
     xlink:href="textedit:///Users/tomsegarra/Documents/dev/dummies/lilypond_files/b1c26c25a9a253b1aab7d80595595fd0.ly:27:4:5"
     id="a210"
     transform="translate(-2.2773097,-3.2762672)">
    <g
       transform="translate(47.4897,8.5644)"
       id="g208">
      <path
         transform="scale(0.0034,-0.0034)"
         d="m 215,137 c 67,0 111,-37 111,-92 0,-90 -111,-182 -215,-182 -67,0 -111,37 -111,92 0,90 111,182 215,182 z"
         fill="currentColor"
         id="path206" />
    </g>
  </a>
  <a
     style="color:inherit"
     xlink:href="textedit:///Users/tomsegarra/Documents/dev/dummies/lilypond_files/b1c26c25a9a253b1aab7d80595595fd0.ly:33:54:55"
     id="a218"
     transform="translate(-2.2773097,-3.2762672)">
    <g
       transform="translate(45.0217,14.0644)"
       id="g216">
      <text
         font-family="serif"
         font-size="2.0989px"
         text-anchor="start"
         fill="currentColor"
         id="text214"><tspan
           id="tspan212">thrilled</tspan></text>
    </g>
  </a>
  <g
     transform="translate(46.25809,5.2881328)"
     id="g222">
    <rect
       x="-0.061700001"
       y="-2.7044001"
       width="0.1233"
       height="2.552"
       ry="0.039999999"
       fill="currentColor"
       id="rect220" />
  </g>
  <a
     style="color:inherit"
     xlink:href="textedit:///Users/tomsegarra/Documents/dev/dummies/lilypond_files/b1c26c25a9a253b1aab7d80595595fd0.ly:33:49:50"
     id="a228"
     transform="translate(-2.2773097,-3.2762672)">
    <g
       transform="translate(38.8897,14.0644)"
       id="g226">
      <rect
         x="0"
         y="-0.54329997"
         width="0.66000003"
         height="0.1233"
         ry="0.037900001"
         fill="currentColor"
         id="rect224" />
    </g>
  </a>
  <a
     style="color:inherit"
     xlink:href="textedit:///Users/tomsegarra/Documents/dev/dummies/lilypond_files/b1c26c25a9a253b1aab7d80595595fd0.ly:27:9:10"
     id="a234"
     transform="translate(-2.2773097,-3.2762672)">
    <g
       transform="translate(52.2417,8.9894)"
       id="g232">
      <path
         transform="scale(0.0034,-0.0034)"
         d="m 215,137 c 67,0 111,-37 111,-92 0,-90 -111,-182 -215,-182 -67,0 -111,37 -111,92 0,90 111,182 215,182 z"
         fill="currentColor"
         id="path230" />
    </g>
  </a>
  <a
     style="color:inherit"
     xlink:href="textedit:///Users/tomsegarra/Documents/dev/dummies/lilypond_files/b1c26c25a9a253b1aab7d80595595fd0.ly:33:63:64"
     id="a242"
     transform="translate(-2.2773097,-3.2762672)">
    <g
       transform="translate(51.5151,14.0644)"
       id="g240">
      <text
         font-family="serif"
         font-size="2.0989px"
         text-anchor="start"
         fill="currentColor"
         id="text238"><tspan
           id="tspan236">me</tspan></text>
    </g>
  </a>
  <g
     transform="translate(51.01019,5.2881328)"
     id="g246">
    <rect
       x="-0.061700001"
       y="-2.5380001"
       width="0.1233"
       height="2.8106"
       ry="0.039999999"
       fill="currentColor"
       id="rect244" />
  </g>
  <a
     style="color:inherit"
     xlink:href="textedit:///Users/tomsegarra/Documents/dev/dummies/lilypond_files/b1c26c25a9a253b1aab7d80595595fd0.ly:26:23:24"
     id="a252"
     transform="translate(-2.2773097,-3.2762672)">
    <g
       transform="translate(36.11,8.5644)"
       id="g250">
      <path
         stroke-width="0.0759"
         stroke-linejoin="round"
         stroke-linecap="round"
         stroke="currentColor"
         fill="currentColor"
         d="m 0.7537,-1.0413 c 0.4705,-0.5561 1.4368,-0.5561 1.9074,0 v 0 c -0.4706,-0.4423 -1.4369,-0.4423 -1.9074,0 z"
         id="path248" />
    </g>
  </a>
  <g
     color="#ff0000"
     id="g260"
     transform="translate(-2.2773097,-3.2762672)">
    <a
       style="color:inherit"
       xlink:href="textedit:///Users/tomsegarra/Documents/dev/dummies/lilypond_files/b1c26c25a9a253b1aab7d80595595fd0.ly:31:4:5"
       id="a258">
      <g
         transform="translate(56.3109,8.9894)"
         id="g256">
        <path
           transform="scale(0.0034,-0.0034)"
           d="m 215,137 c 67,0 111,-37 111,-92 0,-90 -111,-182 -215,-182 -67,0 -111,37 -111,92 0,90 111,182 215,182 z"
           fill="currentColor"
           id="path254" />
      </g>
    </a>
  </g>
  <a
     style="color:inherit"
     xlink:href="textedit:///Users/tomsegarra/Documents/dev/dummies/lilypond_files/b1c26c25a9a253b1aab7d80595595fd0.ly:33:66:67"
     id="a268"
     transform="translate(-2.2773097,-3.2762672)">
    <g
       transform="translate(54.5258,14.0644)"
       id="g266">
      <text
         font-family="serif"
         font-size="2.0989px"
         text-anchor="start"
         fill="currentColor"
         id="text264"><tspan
           id="tspan262">much</tspan></text>
    </g>
  </a>
  <g
     color="#ff0000"
     id="g274"
     transform="translate(-2.2773097,-3.2762672)">
    <g
       transform="translate(57.3567,8.5644)"
       id="g272">
      <rect
         x="-0.061700001"
         y="-2.3956001"
         width="0.1233"
         height="2.6681001"
         ry="0.039999999"
         fill="currentColor"
         id="rect270" />
    </g>
  </g>
  <g
     color="#ff0000"
     id="g282"
     transform="translate(-2.2773097,-3.2762672)">
    <a
       style="color:inherit"
       xlink:href="textedit:///Users/tomsegarra/Documents/dev/dummies/lilypond_files/b1c26c25a9a253b1aab7d80595595fd0.ly:31:7:8"
       id="a280">
      <g
         transform="translate(59.9192,9.8394)"
         id="g278">
        <path
           transform="scale(0.0034,-0.0034)"
           d="m 215,137 c 67,0 111,-37 111,-92 0,-90 -111,-182 -215,-182 -67,0 -111,37 -111,92 0,90 111,182 215,182 z"
           fill="currentColor"
           id="path276" />
      </g>
    </a>
  </g>
  <a
     style="color:inherit"
     xlink:href="textedit:///Users/tomsegarra/Documents/dev/dummies/lilypond_files/b1c26c25a9a253b1aab7d80595595fd0.ly:33:71:72"
     id="a290"
     transform="translate(-2.2773097,-3.2762672)">
    <g
       transform="translate(59.6534,14.0644)"
       id="g288">
      <text
         font-family="serif"
         font-size="2.0989px"
         text-anchor="start"
         fill="currentColor"
         id="text286"><tspan
           id="tspan284">m</tspan></text>
    </g>
  </a>
  <g
     color="#ff0000"
     id="g296"
     transform="translate(-2.2773097,-3.2762672)">
    <g
       transform="translate(60.9649,8.5644)"
       id="g294">
      <rect
         x="-0.061700001"
         y="-1.7"
         width="0.1233"
         height="2.8225"
         ry="0.039999999"
         fill="currentColor"
         id="rect292" />
    </g>
  </g>
  <g
     color="#ff0000"
     id="g302"
     transform="translate(-2.2773097,-3.2762672)">
    <g
       transform="translate(61.0266,6.9044)"
       id="g300">
      <path
         transform="scale(0.0034,-0.0034)"
         d="m 0,0 c 0,-197 207,-335 207,-532 0,-71 -15,-141 -41,-207 -5,-8 -13,-12 -21,-12 -14,0 -27,11 -24,28 26,60 42,125 42,191 0,103 -93,207 -163,282 H -18 V 0 Z"
         fill="currentColor"
         id="path298" />
    </g>
  </g>
  <a
     style="color:inherit"
     xlink:href="textedit:///Users/tomsegarra/Documents/dev/dummies/lilypond_files/b1c26c25a9a253b1aab7d80595595fd0.ly:26:30:31"
     id="a308"
     transform="translate(-2.2773097,-3.2762672)">
    <g
       transform="translate(40.7247,8.5644)"
       id="g306">
      <path
         stroke-width="0.0759"
         stroke-linejoin="round"
         stroke-linecap="round"
         stroke="currentColor"
         fill="currentColor"
         d="m 0.7537,-1.0413 c 0.4705,-0.5561 1.4368,-0.5561 1.9074,0 v 0 c -0.4706,-0.4423 -1.4369,-0.4423 -1.9074,0 z"
         id="path304" />
    </g>
  </a>
  <g
     color="#ff0000"
     id="g316"
     transform="translate(-2.2773097,-3.2762672)">
    <a
       style="color:inherit"
       xlink:href="textedit:///Users/tomsegarra/Documents/dev/dummies/lilypond_files/b1c26c25a9a253b1aab7d80595595fd0.ly:31:9:10"
       id="a314">
      <g
         transform="translate(63.4266,8.5644)"
         id="g312">
        <path
           transform="scale(0.0034,-0.0034)"
           d="m 215,137 c 67,0 111,-37 111,-92 0,-90 -111,-182 -215,-182 -67,0 -111,37 -111,92 0,90 111,182 215,182 z"
           fill="currentColor"
           id="path310" />
      </g>
    </a>
  </g>
  <a
     style="color:inherit"
     xlink:href="textedit:///Users/tomsegarra/Documents/dev/dummies/lilypond_files/b1c26c25a9a253b1aab7d80595595fd0.ly:33:76:77"
     id="a324"
     transform="translate(-2.2773097,-3.2762672)">
    <g
       transform="translate(62.6487,14.0644)"
       id="g322">
      <text
         font-family="serif"
         font-size="2.0989px"
         text-anchor="start"
         fill="currentColor"
         id="text320"><tspan
           id="tspan318">ore</tspan></text>
    </g>
  </a>
  <g
     color="#ff0000"
     id="g330"
     transform="translate(-2.2773097,-3.2762672)">
    <g
       transform="translate(63.4882,8.5644)"
       id="g328">
      <rect
         x="-0.061700001"
         y="0.1525"
         width="0.1233"
         height="2.6809001"
         ry="0.039999999"
         fill="currentColor"
         id="rect326" />
    </g>
  </g>
  <g
     transform="translate(31.52529,7.1446328)"
     id="g334">
    <polygon
       stroke-linejoin="round"
       stroke-linecap="round"
       stroke-width="0.08"
       fill="currentColor"
       stroke="currentColor"
       points="0.04,0.164 0.04,-0.164 7.0055,0.1562 7.0055,0.4842 "
       id="polygon332" />
  </g>
  <g
     transform="translate(31.52529,7.8381328)"
     id="g338">
    <polygon
       stroke-linejoin="round"
       stroke-linecap="round"
       stroke-width="0.08"
       fill="currentColor"
       stroke="currentColor"
       points="0.04,0.164 0.04,-0.164 9.3129,0.261 9.3129,0.589 "
       id="polygon336" />
  </g>
  <a
     style="color:inherit"
     xlink:href="textedit:///Users/tomsegarra/Documents/dev/dummies/lilypond_files/b1c26c25a9a253b1aab7d80595595fd0.ly:21:21:22"
     id="a358"
     transform="translate(-2.2773097,-3.2762672)">
    <g
       transform="translate(80.0239,5.6089)"
       id="g344">
      <text
         font-family="sans-serif"
         font-size="2.224px"
         text-anchor="start"
         fill="currentColor"
         id="text342"><tspan
           id="tspan340">E</tspan></text>
    </g>
    <g
       transform="translate(81.4238,5.6089)"
       id="g350">
      <text
         font-family="sans-serif"
         font-size="2.224px"
         text-anchor="start"
         fill="currentColor"
         id="text348"><tspan
           id="tspan346">m</tspan></text>
    </g>
    <g
       transform="translate(83.5748,4.4197)"
       id="g356">
      <text
         font-family="sans-serif"
         font-size="1.5727px"
         text-anchor="start"
         fill="currentColor"
         id="text354"><tspan
           id="tspan352">7</tspan></text>
    </g>
  </a>
  <a
     style="color:inherit"
     xlink:href="textedit:///Users/tomsegarra/Documents/dev/dummies/lilypond_files/b1c26c25a9a253b1aab7d80595595fd0.ly:25:23:24"
     id="a364"
     transform="translate(-2.2773097,-3.2762672)">
    <g
       transform="translate(16.3669,7.2894)"
       id="g362">
      <path
         transform="scale(0.0034,-0.0034)"
         d="m 215,137 c 67,0 111,-37 111,-92 0,-90 -111,-182 -215,-182 -67,0 -111,37 -111,92 0,90 111,182 215,182 z"
         fill="currentColor"
         id="path360" />
    </g>
  </a>
  <a
     style="color:inherit"
     xlink:href="textedit:///Users/tomsegarra/Documents/dev/dummies/lilypond_files/b1c26c25a9a253b1aab7d80595595fd0.ly:33:17:18"
     id="a372"
     transform="translate(-2.2773097,-3.2762672)">
    <g
       transform="translate(16.1182,14.0644)"
       id="g370">
      <text
         font-family="serif"
         font-size="2.0989px"
         text-anchor="start"
         fill="currentColor"
         id="text368"><tspan
           id="tspan366">re</tspan></text>
    </g>
  </a>
  <g
     transform="translate(14.15129,5.2881328)"
     id="g376">
    <rect
       x="-0.061700001"
       y="-1.1224999"
       width="0.1233"
       height="2.7909"
       ry="0.039999999"
       fill="currentColor"
       id="rect374" />
  </g>
  <a
     style="color:inherit"
     xlink:href="textedit:///Users/tomsegarra/Documents/dev/dummies/lilypond_files/b1c26c25a9a253b1aab7d80595595fd0.ly:33:73:74"
     id="a382"
     transform="translate(-2.2773097,-3.2762672)">
    <g
       transform="translate(61.6405,14.0644)"
       id="g380">
      <rect
         x="0"
         y="-0.54329997"
         width="0.66000003"
         height="0.1233"
         ry="0.037900001"
         fill="currentColor"
         id="rect378" />
    </g>
  </a>
  <a
     style="color:inherit"
     xlink:href="textedit:///Users/tomsegarra/Documents/dev/dummies/lilypond_files/b1c26c25a9a253b1aab7d80595595fd0.ly:25:27:28"
     id="a388"
     transform="translate(-2.2773097,-3.2762672)">
    <g
       transform="translate(18.6743,7.2894)"
       id="g386">
      <path
         transform="scale(0.0034,-0.0034)"
         d="m 215,137 c 67,0 111,-37 111,-92 0,-90 -111,-182 -215,-182 -67,0 -111,37 -111,92 0,90 111,182 215,182 z"
         fill="currentColor"
         id="path384" />
    </g>
  </a>
  <a
     style="color:inherit"
     xlink:href="textedit:///Users/tomsegarra/Documents/dev/dummies/lilypond_files/b1c26c25a9a253b1aab7d80595595fd0.ly:33:23:24"
     id="a396"
     transform="translate(-2.2773097,-3.2762672)">
    <g
       transform="translate(18.6743,14.0644)"
       id="g394">
      <text
         font-family="serif"
         font-size="2.0989px"
         text-anchor="start"
         fill="currentColor"
         id="text392"><tspan
           id="tspan390">mem</tspan></text>
    </g>
  </a>
  <g
     transform="translate(16.45869,5.2881328)"
     id="g400">
    <rect
       x="-0.061700001"
       y="-1.1224999"
       width="0.1233"
       height="2.6691999"
       ry="0.039999999"
       fill="currentColor"
       id="rect398" />
  </g>
  <g
     transform="translate(46.19639,2.5815328)"
     id="g404">
    <polygon
       stroke-linejoin="round"
       stroke-linecap="round"
       stroke-width="0.08"
       fill="currentColor"
       stroke="currentColor"
       points="0.04,0.164 0.04,-0.164 8.9046,0.1491 8.9046,0.4771 "
       id="polygon402" />
  </g>
  <a
     style="color:inherit"
     xlink:href="textedit:///Users/tomsegarra/Documents/dev/dummies/lilypond_files/b1c26c25a9a253b1aab7d80595595fd0.ly:21:15:16"
     id="a412"
     transform="translate(-2.2773097,-3.2762672)">
    <g
       transform="translate(22.0032,5.6089)"
       id="g410">
      <text
         font-family="sans-serif"
         font-size="2.224px"
         text-anchor="start"
         fill="currentColor"
         id="text408"><tspan
           id="tspan406">G</tspan></text>
    </g>
  </a>
  <a
     style="color:inherit"
     xlink:href="textedit:///Users/tomsegarra/Documents/dev/dummies/lilypond_files/b1c26c25a9a253b1aab7d80595595fd0.ly:26:4:5"
     id="a418"
     transform="translate(-2.2773097,-3.2762672)">
    <g
       transform="translate(22.0032,7.2894)"
       id="g416">
      <path
         transform="scale(0.0034,-0.0034)"
         d="m 215,137 c 67,0 111,-37 111,-92 0,-90 -111,-182 -215,-182 -67,0 -111,37 -111,92 0,90 111,182 215,182 z"
         fill="currentColor"
         id="path414" />
    </g>
  </a>
  <g
     transform="translate(19.78749,5.2881328)"
     id="g422">
    <rect
       x="-0.061700001"
       y="-1.1224999"
       width="0.1233"
       height="2.6672001"
       ry="0.039999999"
       fill="currentColor"
       id="rect420" />
  </g>
  <a
     style="color:inherit"
     xlink:href="textedit:///Users/tomsegarra/Documents/dev/dummies/lilypond_files/b1c26c25a9a253b1aab7d80595595fd0.ly:26:9:10"
     id="a428"
     transform="translate(-2.2773097,-3.2762672)">
    <g
       transform="translate(25.5105,7.7144)"
       id="g426">
      <path
         transform="scale(0.0034,-0.0034)"
         d="m 215,137 c 67,0 111,-37 111,-92 0,-90 -111,-182 -215,-182 -67,0 -111,37 -111,92 0,90 111,182 215,182 z"
         fill="currentColor"
         id="path424" />
    </g>
  </a>
  <a
     style="color:inherit"
     xlink:href="textedit:///Users/tomsegarra/Documents/dev/dummies/lilypond_files/b1c26c25a9a253b1aab7d80595595fd0.ly:33:30:31"
     id="a436"
     transform="translate(-2.2773097,-3.2762672)">
    <g
       transform="translate(24.7326,14.0644)"
       id="g434">
      <text
         font-family="serif"
         font-size="2.0989px"
         text-anchor="start"
         fill="currentColor"
         id="text432"><tspan
           id="tspan430">ber</tspan></text>
    </g>
  </a>
  <g
     transform="translate(23.29489,5.2881328)"
     id="g440">
    <rect
       x="-0.061700001"
       y="-0.69749999"
       width="0.1233"
       height="2.3137"
       ry="0.039999999"
       fill="currentColor"
       id="rect438" />
  </g>
</svg>
