<?xml version="1.0" encoding="UTF-8" standalone="no"?>
<svg
   version="1.2"
   width="145.43808mm"
   height="10.929654mm"
   viewBox="0 0 82.761223 6.2195767"
   id="svg498"
   sodipodi:docname="b589f42c667b24d7f6ccb29260304c44.svg"
   xmlns:inkscape="http://www.inkscape.org/namespaces/inkscape"
   xmlns:sodipodi="http://sodipodi.sourceforge.net/DTD/sodipodi-0.dtd"
   xmlns:xlink="http://www.w3.org/1999/xlink"
   xmlns="http://www.w3.org/2000/svg"
   xmlns:svg="http://www.w3.org/2000/svg">
  <defs
     id="defs502" />
  <sodipodi:namedview
     id="namedview500"
     pagecolor="#ffffff"
     bordercolor="#000000"
     borderopacity="0.25"
     inkscape:showpageshadow="2"
     inkscape:pageopacity="0.0"
     inkscape:pagecheckerboard="0"
     inkscape:deskcolor="#d1d1d1"
     inkscape:document-units="mm" />
  <style
     type="text/css"
     id="style2"><![CDATA[
tspan { white-space: pre; }
]]></style>
  <!-- Page: 1/1 -->
  <g
     transform="translate(-5.1886443e-4,4.9105767)"
     id="g6">
    <line
       stroke-linejoin="round"
       stroke-linecap="round"
       stroke-width="0.0949"
       stroke="currentColor"
       x1="0.047400001"
       y1="0"
       x2="82.714798"
       y2="0"
       id="line4" />
  </g>
  <g
     transform="translate(-5.1886443e-4,4.0605767)"
     id="g10">
    <line
       stroke-linejoin="round"
       stroke-linecap="round"
       stroke-width="0.0949"
       stroke="currentColor"
       x1="0.047400001"
       y1="0"
       x2="82.714798"
       y2="0"
       id="line8" />
  </g>
  <g
     transform="translate(-5.1886443e-4,3.2105767)"
     id="g14">
    <line
       stroke-linejoin="round"
       stroke-linecap="round"
       stroke-width="0.0949"
       stroke="currentColor"
       x1="0.047400001"
       y1="0"
       x2="82.714798"
       y2="0"
       id="line12" />
  </g>
  <g
     transform="translate(-5.1886443e-4,2.3605767)"
     id="g18">
    <line
       stroke-linejoin="round"
       stroke-linecap="round"
       stroke-width="0.0949"
       stroke="currentColor"
       x1="0.047400001"
       y1="0"
       x2="82.714798"
       y2="0"
       id="line16" />
  </g>
  <g
     transform="translate(-5.1886443e-4,1.5105767)"
     id="g22">
    <line
       stroke-linejoin="round"
       stroke-linecap="round"
       stroke-width="0.0949"
       stroke="currentColor"
       x1="0.047400001"
       y1="0"
       x2="82.714798"
       y2="0"
       id="line20" />
  </g>
  <g
     transform="translate(26.402181,3.2105767)"
     id="g26">
    <rect
       x="0"
       y="-1.7"
       width="0.1802"
       height="3.4000001"
       ry="0.0000"
       fill="currentColor"
       id="rect24" />
  </g>
  <g
     transform="translate(82.581481,3.2105767)"
     id="g30">
    <rect
       x="0"
       y="-1.7"
       width="0.1802"
       height="3.4000001"
       ry="0.0000"
       fill="currentColor"
       id="rect28" />
  </g>
  <g
     transform="translate(64.706881,3.2105767)"
     id="g34">
    <rect
       x="0"
       y="-1.7"
       width="0.1802"
       height="3.4000001"
       ry="0.0000"
       fill="currentColor"
       id="rect32" />
  </g>
  <g
     transform="translate(45.532281,3.2105767)"
     id="g38">
    <rect
       x="0"
       y="-1.7"
       width="0.1802"
       height="3.4000001"
       ry="0.0000"
       fill="currentColor"
       id="rect36" />
  </g>
  <g
     color="#ff0000"
     id="g46"
     transform="translate(-2.2767189,-3.2761233)">
    <a
       style="color:inherit"
       xlink:href="textedit:///Users/tomsegarra/Documents/dev/dummies/lilypond_files/b589f42c667b24d7f6ccb29260304c44.ly:23:4:5"
       id="a44">
      <g
         transform="translate(10.7144,6.0617)"
         id="g42">
        <path
           transform="scale(0.0034,-0.0034)"
           d="m 215,137 c 67,0 111,-37 111,-92 0,-90 -111,-182 -215,-182 -67,0 -111,37 -111,92 0,90 111,182 215,182 z"
           fill="currentColor"
           id="path40" />
      </g>
    </a>
  </g>
  <g
     transform="translate(0.79948114,4.0605767)"
     id="g50">
    <path
       transform="scale(0.0034,-0.0034)"
       d="m 646,2 c 0,-113 -74,-213 -180,-247 3,-34 5,-68 5,-102 0,-20 -1,-40 -2,-60 -7,-121 -91,-228 -209,-228 -108,0 -196,87 -196,196 0,58 53,104 112,104 54,0 95,-48 95,-104 0,-52 -43,-95 -95,-95 -10,0 -20,2 -29,6 26,-38 68,-63 116,-63 h 3 c 93,2 153,92 159,190 1,19 2,37 2,56 0,30 -2,60 -4,90 -5,-1 -43,-8 -88,-8 -194,0 -333,180 -333,375 0,177 130,307 246,442 -31,98 -53,170 -53,347 0,115 55,223 148,290 7,5 16,4 22,-1 68,-80 134,-243 134,-357 0,-143 -85,-255 -178,-364 21,-68 40,-137 57,-206 1,0 5,1 11,1 C 545,264 646,135 646,2 Z M 462,-202 c 66,24 111,88 111,162 0,89 -65,178 -170,190 28,-135 50,-272 59,-352 z M 75,26 c 0,-145 141,-245 263,-245 1,0 46,0 81,6 -7,65 -27,206 -61,363 -79,-8 -124,-61 -124,-119 0,-43 25,-89 80,-121 5,-5 7,-11 7,-16 0,-12 -10,-23 -22,-23 -16,0 -127,63 -127,188 0,89 58,175 161,198 -14,58 -29,116 -46,173 C 181,308 75,186 75,26 Z M 406,1042 C 307,995 244,894 244,785 c 0,-49 13,-111 38,-191 79,97 144,199 144,324 0,33 0,63 -20,124 z"
       fill="currentColor"
       id="path48" />
  </g>
  <a
     style="color:inherit"
     xlink:href="textedit:///Users/tomsegarra/Documents/dev/dummies/lilypond_files/b589f42c667b24d7f6ccb29260304c44.ly:20:1:9"
     id="a52"
     transform="translate(-2.2767189,-3.2761233)" />
  <g
     transform="translate(4.9994811,3.2105767)"
     id="g56">
    <path
       transform="scale(0.0034,-0.0034)"
       d="m 358,29 c -30,0 -74,23 -74,73 0,38 27,76 71,76 4,0 7,0 11,-1 -27,36 -69,59 -116,59 -106,0 -113,-74 -113,-188 0,-15 1,-31 1,-48 0,-17 -1,-33 -1,-48 0,-114 7,-188 113,-188 79,0 136,70 155,150 2,7 7,10 13,10 7,0 14,-5 14,-13 0,-21 -50,-175 -182,-175 C 191,-264 0,-244 0,0 0,63 18,264 250,264 365,264 424,155 424,99 424,60 394,29 358,29 Z"
       fill="currentColor"
       id="path54" />
  </g>
  <g
     color="#ff0000"
     id="g62"
     transform="translate(-2.2767189,-3.2761233)">
    <g
       transform="translate(10.776,6.4867)"
       id="g60">
      <rect
         x="-0.061700001"
         y="-0.27250001"
         width="0.1233"
         height="2.6659999"
         ry="0.039999999"
         fill="currentColor"
         id="rect58" />
    </g>
  </g>
  <g
     transform="translate(17.409781,4.9105767)"
     id="g66">
    <polygon
       stroke-linejoin="round"
       stroke-linecap="round"
       stroke-width="0.08"
       fill="currentColor"
       stroke="currentColor"
       points="0.04,0.164 0.04,-0.164 7.0055,-0.164 7.0055,0.164 "
       id="polygon64" />
  </g>
  <a
     style="color:inherit"
     xlink:href="textedit:///Users/tomsegarra/Documents/dev/dummies/lilypond_files/b589f42c667b24d7f6ccb29260304c44.ly:32:22:23"
     id="a72"
     transform="translate(-2.2767189,-3.2761233)">
    <g
       transform="translate(43.4516,6.4867)"
       id="g70">
      <path
         transform="scale(0.0034,-0.0034)"
         d="m 70,205 c 80,0 46,-97 90,-97 15,0 52,45 59,59 6,13 26,13 31,0 L 129,-250 c -9,-7 -19,-11 -30,-11 -11,0 -21,4 -30,11 L 187,76 C 154,64 119,54 84,54 37,54 -3,88 -3,133 c 0,40 33,72 73,72 z"
         fill="currentColor"
         id="path68" />
    </g>
  </a>
  <g
     transform="translate(27.587981,5.7605767)"
     id="g76">
    <polygon
       stroke-linejoin="round"
       stroke-linecap="round"
       stroke-width="0.08"
       fill="currentColor"
       stroke="currentColor"
       points="0.04,0.164 0.04,-0.164 2.3907,-0.164 2.3907,0.164 "
       id="polygon74" />
  </g>
  <g
     color="#000000"
     id="g84"
     transform="translate(-2.2767189,-3.2761233)">
    <a
       style="color:inherit"
       xlink:href="textedit:///Users/tomsegarra/Documents/dev/dummies/lilypond_files/b589f42c667b24d7f6ccb29260304c44.ly:32:24:25"
       id="a82">
      <g
         transform="translate(45.5016,6.4867)"
         id="g80">
        <path
           transform="scale(0.0034,-0.0034)"
           d="m 215,137 c 67,0 111,-37 111,-92 0,-90 -111,-182 -215,-182 -67,0 -111,37 -111,92 0,90 111,182 215,182 z"
           fill="currentColor"
           id="path78" />
      </g>
    </a>
  </g>
  <g
     color="#000000"
     id="g90"
     transform="translate(-2.2767189,-3.2761233)">
    <g
       transform="translate(45.5633,6.4867)"
       id="g88">
      <rect
         x="-0.061700001"
         y="0.1525"
         width="0.1233"
         height="2.7163"
         ry="0.039999999"
         fill="currentColor"
         id="rect86" />
    </g>
  </g>
  <g
     color="#000000"
     id="g96"
     transform="translate(-2.2767189,-3.2761233)">
    <g
       transform="translate(45.6249,9.3154)"
       id="g94">
      <path
         transform="scale(0.0034,-0.0034)"
         d="M 0,0 H -18 V 250 H 0 Z m 0,0 v 250 c 96,59 222,149 222,259 0,57 -15,111 -40,162 -3,17 10,29 24,29 8,0 16,-5 21,-13 25,-56 40,-116 40,-178 C 267,306 0,203 0,0 Z"
         fill="currentColor"
         id="path92" />
    </g>
  </g>
  <g
     transform="translate(36.560081,5.7605767)"
     id="g100">
    <polygon
       stroke-linejoin="round"
       stroke-linecap="round"
       stroke-width="0.08"
       fill="currentColor"
       stroke="currentColor"
       points="0.04,0.164 0.04,-0.164 2.3907,-0.164 2.3907,0.164 "
       id="polygon98" />
  </g>
  <g
     transform="translate(46.742381,5.6039767)"
     id="g104">
    <polygon
       stroke-linejoin="round"
       stroke-linecap="round"
       stroke-width="0.08"
       fill="currentColor"
       stroke="currentColor"
       points="0.04,0.164 0.04,-0.164 2.3907,-0.164 2.3907,0.164 "
       id="polygon102" />
  </g>
  <g
     color="#000000"
     id="g112"
     transform="translate(-2.2767189,-3.2761233)">
    <a
       style="color:inherit"
       xlink:href="textedit:///Users/tomsegarra/Documents/dev/dummies/lilypond_files/b589f42c667b24d7f6ccb29260304c44.ly:32:29:30"
       id="a110">
      <g
         transform="translate(49.0191,6.0617)"
         id="g108">
        <path
           transform="scale(0.0034,-0.0034)"
           d="m 215,137 c 67,0 111,-37 111,-92 0,-90 -111,-182 -215,-182 -67,0 -111,37 -111,92 0,90 111,182 215,182 z"
           fill="currentColor"
           id="path106" />
      </g>
    </a>
  </g>
  <g
     color="#000000"
     id="g118"
     transform="translate(-2.2767189,-3.2761233)">
    <g
       transform="translate(49.0807,6.4867)"
       id="g116">
      <rect
         x="-0.061700001"
         y="-0.27250001"
         width="0.1233"
         height="2.6659999"
         ry="0.039999999"
         fill="currentColor"
         id="rect114" />
    </g>
  </g>
  <g
     transform="translate(55.714481,4.9105767)"
     id="g122">
    <polygon
       stroke-linejoin="round"
       stroke-linecap="round"
       stroke-width="0.08"
       fill="currentColor"
       stroke="currentColor"
       points="0.04,0.164 0.04,-0.164 7.0055,-0.164 7.0055,0.164 "
       id="polygon120" />
  </g>
  <g
     color="#000000"
     id="g130"
     transform="translate(-2.2767189,-3.2761233)">
    <a
       style="color:inherit"
       xlink:href="textedit:///Users/tomsegarra/Documents/dev/dummies/lilypond_files/b589f42c667b24d7f6ccb29260304c44.ly:32:33:34"
       id="a128">
      <g
         transform="translate(51.3265,6.0617)"
         id="g126">
        <path
           transform="scale(0.0034,-0.0034)"
           d="m 215,137 c 67,0 111,-37 111,-92 0,-90 -111,-182 -215,-182 -67,0 -111,37 -111,92 0,90 111,182 215,182 z"
           fill="currentColor"
           id="path124" />
      </g>
    </a>
  </g>
  <g
     color="#000000"
     id="g136"
     transform="translate(-2.2767189,-3.2761233)">
    <g
       transform="translate(51.3881,6.4867)"
       id="g134">
      <rect
         x="-0.061700001"
         y="-0.27250001"
         width="0.1233"
         height="2.6659999"
         ry="0.039999999"
         fill="currentColor"
         id="rect132" />
    </g>
  </g>
  <g
     transform="translate(66.771181,0.81707666)"
     id="g140">
    <polygon
       stroke-linejoin="round"
       stroke-linecap="round"
       stroke-width="0.08"
       fill="currentColor"
       stroke="currentColor"
       points="0.04,0.164 0.04,-0.164 2.3907,-0.164 2.3907,0.164 "
       id="polygon138" />
  </g>
  <a
     style="color:inherit"
     xlink:href="textedit:///Users/tomsegarra/Documents/dev/dummies/lilypond_files/b589f42c667b24d7f6ccb29260304c44.ly:32:37:38"
     id="a146"
     transform="translate(-2.2767189,-3.2761233)">
    <g
       transform="translate(53.6339,6.4867)"
       id="g144">
      <path
         transform="scale(0.0034,-0.0034)"
         d="m 70,205 c 80,0 46,-97 90,-97 15,0 52,45 59,59 6,13 26,13 31,0 L 129,-250 c -9,-7 -19,-11 -30,-11 -11,0 -21,4 -30,11 L 187,76 C 154,64 119,54 84,54 37,54 -3,88 -3,133 c 0,40 33,72 73,72 z"
         fill="currentColor"
         id="path142" />
    </g>
  </a>
  <g
     transform="translate(75.743381,0.81707666)"
     id="g150">
    <polygon
       stroke-linejoin="round"
       stroke-linecap="round"
       stroke-width="0.08"
       fill="currentColor"
       stroke="currentColor"
       points="0.04,0.164 0.04,-0.164 2.3907,-0.164 2.3907,0.164 "
       id="polygon148" />
  </g>
  <g
     color="#ff0000"
     id="g158"
     transform="translate(-2.2767189,-3.2761233)">
    <a
       style="color:inherit"
       xlink:href="textedit:///Users/tomsegarra/Documents/dev/dummies/lilypond_files/b589f42c667b24d7f6ccb29260304c44.ly:35:4:5"
       id="a156">
      <g
         transform="translate(55.6839,6.0617)"
         id="g154">
        <path
           transform="scale(0.0034,-0.0034)"
           d="m 215,137 c 67,0 111,-37 111,-92 0,-90 -111,-182 -215,-182 -67,0 -111,37 -111,92 0,90 111,182 215,182 z"
           fill="currentColor"
           id="path152" />
      </g>
    </a>
  </g>
  <g
     color="#ff0000"
     id="g164"
     transform="translate(-2.2767189,-3.2761233)">
    <g
       transform="translate(55.7455,6.4867)"
       id="g162">
      <rect
         x="-0.061700001"
         y="-0.27250001"
         width="0.1233"
         height="2.8225"
         ry="0.039999999"
         fill="currentColor"
         id="rect160" />
    </g>
  </g>
  <g
     color="#ff0000"
     id="g170"
     transform="translate(-2.2767189,-3.2761233)">
    <g
       transform="translate(55.8072,8.9967)"
       id="g168">
      <path
         transform="scale(0.0034,-0.0034)"
         d="M 0,0 H -18 V 250 H 0 Z m 0,0 v 250 c 96,59 222,149 222,259 0,57 -15,111 -40,162 -3,17 10,29 24,29 8,0 16,-5 21,-13 25,-56 40,-116 40,-178 C 267,306 0,203 0,0 Z"
         fill="currentColor"
         id="path166" />
    </g>
  </g>
  <g
     color="#ff0000"
     id="g178"
     transform="translate(-2.2767189,-3.2761233)">
    <a
       style="color:inherit"
       xlink:href="textedit:///Users/tomsegarra/Documents/dev/dummies/lilypond_files/b589f42c667b24d7f6ccb29260304c44.ly:35:8:9"
       id="a176">
      <g
         transform="translate(57.9912,5.6367)"
         id="g174">
        <path
           transform="scale(0.0034,-0.0034)"
           d="m 215,137 c 67,0 111,-37 111,-92 0,-90 -111,-182 -215,-182 -67,0 -111,37 -111,92 0,90 111,182 215,182 z"
           fill="currentColor"
           id="path172" />
      </g>
    </a>
  </g>
  <g
     color="#ff0000"
     id="g184"
     transform="translate(-2.2767189,-3.2761233)">
    <g
       transform="translate(58.0529,6.4867)"
       id="g182">
      <rect
         x="-0.061700001"
         y="-0.69749999"
         width="0.1233"
         height="2.3975"
         ry="0.039999999"
         fill="currentColor"
         id="rect180" />
    </g>
  </g>
  <g
     color="#000000"
     id="g190"
     transform="translate(-2.2767189,-3.2761233)">
    <g
       transform="translate(41.2059,6.4867)"
       id="g188">
      <rect
         x="-0.061700001"
         y="0.1525"
         width="0.1233"
         height="2.3975"
         ry="0.039999999"
         fill="currentColor"
         id="rect186" />
    </g>
  </g>
  <g
     color="#ff0000"
     id="g198"
     transform="translate(-2.2767189,-3.2761233)">
    <a
       style="color:inherit"
       xlink:href="textedit:///Users/tomsegarra/Documents/dev/dummies/lilypond_files/b589f42c667b24d7f6ccb29260304c44.ly:35:12:13"
       id="a196">
      <g
         transform="translate(60.2986,5.2117)"
         id="g194">
        <path
           transform="scale(0.0034,-0.0034)"
           d="m 215,137 c 67,0 111,-37 111,-92 0,-90 -111,-182 -215,-182 -67,0 -111,37 -111,92 0,90 111,182 215,182 z"
           fill="currentColor"
           id="path192" />
      </g>
    </a>
  </g>
  <g
     color="#ff0000"
     id="g204"
     transform="translate(-2.2767189,-3.2761233)">
    <g
       transform="translate(60.3603,6.4867)"
       id="g202">
      <rect
         x="-0.061700001"
         y="-1.1224999"
         width="0.1233"
         height="2.8225"
         ry="0.039999999"
         fill="currentColor"
         id="rect200" />
    </g>
  </g>
  <g
     color="#000000"
     id="g212"
     transform="translate(-2.2767189,-3.2761233)">
    <a
       style="color:inherit"
       xlink:href="textedit:///Users/tomsegarra/Documents/dev/dummies/lilypond_files/b589f42c667b24d7f6ccb29260304c44.ly:32:20:21"
       id="a210">
      <g
         transform="translate(41.1442,6.4867)"
         id="g208">
        <path
           transform="scale(0.0034,-0.0034)"
           d="m 215,137 c 67,0 111,-37 111,-92 0,-90 -111,-182 -215,-182 -67,0 -111,37 -111,92 0,90 111,182 215,182 z"
           fill="currentColor"
           id="path206" />
      </g>
    </a>
  </g>
  <g
     color="#ff0000"
     id="g220"
     transform="translate(-2.2767189,-3.2761233)">
    <a
       style="color:inherit"
       xlink:href="textedit:///Users/tomsegarra/Documents/dev/dummies/lilypond_files/b589f42c667b24d7f6ccb29260304c44.ly:35:14:15"
       id="a218">
      <g
         transform="translate(62.606,5.6367)"
         id="g216">
        <path
           transform="scale(0.0034,-0.0034)"
           d="m 215,137 c 67,0 111,-37 111,-92 0,-90 -111,-182 -215,-182 -67,0 -111,37 -111,92 0,90 111,182 215,182 z"
           fill="currentColor"
           id="path214" />
      </g>
    </a>
  </g>
  <g
     color="#ff0000"
     id="g226"
     transform="translate(-2.2767189,-3.2761233)">
    <g
       transform="translate(62.6677,6.4867)"
       id="g224">
      <rect
         x="-0.061700001"
         y="-0.69749999"
         width="0.1233"
         height="2.3975"
         ry="0.039999999"
         fill="currentColor"
         id="rect222" />
    </g>
  </g>
  <g
     color="#000000"
     id="g234"
     transform="translate(-2.2767189,-3.2761233)">
    <a
       style="color:inherit"
       xlink:href="textedit:///Users/tomsegarra/Documents/dev/dummies/lilypond_files/b589f42c667b24d7f6ccb29260304c44.ly:38:4:5"
       id="a232">
      <g
         transform="translate(64.9134,5.2117)"
         id="g230">
        <path
           transform="scale(0.0034,-0.0034)"
           d="m 215,137 c 67,0 111,-37 111,-92 0,-90 -111,-182 -215,-182 -67,0 -111,37 -111,92 0,90 111,182 215,182 z"
           fill="currentColor"
           id="path228" />
      </g>
    </a>
  </g>
  <g
     color="#000000"
     id="g240"
     transform="translate(-2.2767189,-3.2761233)">
    <g
       transform="translate(64.9751,6.4867)"
       id="g238">
      <rect
         x="-0.061700001"
         y="-1.1224999"
         width="0.1233"
         height="2.8225"
         ry="0.039999999"
         fill="currentColor"
         id="rect236" />
    </g>
  </g>
  <g
     color="#000000"
     id="g248"
     transform="translate(-2.2767189,-3.2761233)">
    <a
       style="color:inherit"
       xlink:href="textedit:///Users/tomsegarra/Documents/dev/dummies/lilypond_files/b589f42c667b24d7f6ccb29260304c44.ly:38:10:11"
       id="a246">
      <g
         transform="translate(68.0638,6.9117)"
         id="g244">
        <path
           transform="scale(0.0034,-0.0034)"
           d="m 215,137 c 67,0 111,-37 111,-92 0,-90 -111,-182 -215,-182 -67,0 -111,37 -111,92 0,90 111,182 215,182 z"
           fill="currentColor"
           id="path242" />
      </g>
    </a>
  </g>
  <g
     color="#000000"
     id="g254"
     transform="translate(-2.2767189,-3.2761233)">
    <g
       transform="translate(69.1096,6.4867)"
       id="g252">
      <rect
         x="-0.061700001"
         y="-2.3934"
         width="0.1233"
         height="2.6659999"
         ry="0.039999999"
         fill="currentColor"
         id="rect250" />
    </g>
  </g>
  <g
     color="#000000"
     id="g262"
     transform="translate(-2.2767189,-3.2761233)">
    <a
       style="color:inherit"
       xlink:href="textedit:///Users/tomsegarra/Documents/dev/dummies/lilypond_files/b589f42c667b24d7f6ccb29260304c44.ly:38:13:14"
       id="a260">
      <g
         transform="translate(70.3712,6.9117)"
         id="g258">
        <path
           transform="scale(0.0034,-0.0034)"
           d="m 215,137 c 67,0 111,-37 111,-92 0,-90 -111,-182 -215,-182 -67,0 -111,37 -111,92 0,90 111,182 215,182 z"
           fill="currentColor"
           id="path256" />
      </g>
    </a>
  </g>
  <g
     color="#000000"
     id="g268"
     transform="translate(-2.2767189,-3.2761233)">
    <g
       transform="translate(71.4169,6.4867)"
       id="g266">
      <rect
         x="-0.061700001"
         y="-2.3934"
         width="0.1233"
         height="2.6659999"
         ry="0.039999999"
         fill="currentColor"
         id="rect264" />
    </g>
  </g>
  <g
     color="#000000"
     id="g274"
     transform="translate(-2.2767189,-3.2761233)">
    <g
       transform="translate(38.8985,6.4867)"
       id="g272">
      <rect
         x="-0.061700001"
         y="0.1525"
         width="0.1233"
         height="2.3975"
         ry="0.039999999"
         fill="currentColor"
         id="rect270" />
    </g>
  </g>
  <a
     style="color:inherit"
     xlink:href="textedit:///Users/tomsegarra/Documents/dev/dummies/lilypond_files/b589f42c667b24d7f6ccb29260304c44.ly:38:15:16"
     id="a280"
     transform="translate(-2.2767189,-3.2761233)">
    <g
       transform="translate(72.6786,6.4867)"
       id="g278">
      <path
         transform="scale(0.0034,-0.0034)"
         d="m 70,205 c 80,0 46,-97 90,-97 15,0 52,45 59,59 6,13 26,13 31,0 L 129,-250 c -9,-7 -19,-11 -30,-11 -11,0 -21,4 -30,11 L 187,76 C 154,64 119,54 84,54 37,54 -3,88 -3,133 c 0,40 33,72 73,72 z"
         fill="currentColor"
         id="path276" />
    </g>
  </a>
  <g
     color="#000000"
     id="g288"
     transform="translate(-2.2767189,-3.2761233)">
    <a
       style="color:inherit"
       xlink:href="textedit:///Users/tomsegarra/Documents/dev/dummies/lilypond_files/b589f42c667b24d7f6ccb29260304c44.ly:32:18:19"
       id="a286">
      <g
         transform="translate(38.8368,6.4867)"
         id="g284">
        <path
           transform="scale(0.0034,-0.0034)"
           d="m 215,137 c 67,0 111,-37 111,-92 0,-90 -111,-182 -215,-182 -67,0 -111,37 -111,92 0,90 111,182 215,182 z"
           fill="currentColor"
           id="path282" />
      </g>
    </a>
  </g>
  <g
     color="#000000"
     id="g296"
     transform="translate(-2.2767189,-3.2761233)">
    <a
       style="color:inherit"
       xlink:href="textedit:///Users/tomsegarra/Documents/dev/dummies/lilypond_files/b589f42c667b24d7f6ccb29260304c44.ly:38:17:18"
       id="a294">
      <g
         transform="translate(74.7286,6.9117)"
         id="g292">
        <path
           transform="scale(0.0034,-0.0034)"
           d="m 215,137 c 67,0 111,-37 111,-92 0,-90 -111,-182 -215,-182 -67,0 -111,37 -111,92 0,90 111,182 215,182 z"
           fill="currentColor"
           id="path290" />
      </g>
    </a>
  </g>
  <g
     color="#000000"
     id="g302"
     transform="translate(-2.2767189,-3.2761233)">
    <g
       transform="translate(75.7743,6.4867)"
       id="g300">
      <rect
         x="-0.061700001"
         y="-2.55"
         width="0.1233"
         height="2.8225"
         ry="0.039999999"
         fill="currentColor"
         id="rect298" />
    </g>
  </g>
  <g
     color="#000000"
     id="g308"
     transform="translate(-2.2767189,-3.2761233)">
    <g
       transform="translate(75.836,3.9767)"
       id="g306">
      <path
         transform="scale(0.0034,-0.0034)"
         d="m 0,0 c 0,-197 207,-335 207,-532 0,-71 -15,-141 -41,-207 -5,-8 -13,-12 -21,-12 -14,0 -27,11 -24,28 26,60 42,125 42,191 0,103 -93,207 -163,282 H -18 V 0 Z"
         fill="currentColor"
         id="path304" />
    </g>
  </g>
  <g
     transform="translate(8.4376811,5.6039767)"
     id="g312">
    <polygon
       stroke-linejoin="round"
       stroke-linecap="round"
       stroke-width="0.08"
       fill="currentColor"
       stroke="currentColor"
       points="0.04,0.164 0.04,-0.164 2.3907,-0.164 2.3907,0.164 "
       id="polygon310" />
  </g>
  <g
     color="#000000"
     id="g320"
     transform="translate(-2.2767189,-3.2761233)">
    <a
       style="color:inherit"
       xlink:href="textedit:///Users/tomsegarra/Documents/dev/dummies/lilypond_files/b589f42c667b24d7f6ccb29260304c44.ly:38:19:20"
       id="a318">
      <g
         transform="translate(77.036,6.9117)"
         id="g316">
        <path
           transform="scale(0.0034,-0.0034)"
           d="m 215,137 c 67,0 111,-37 111,-92 0,-90 -111,-182 -215,-182 -67,0 -111,37 -111,92 0,90 111,182 215,182 z"
           fill="currentColor"
           id="path314" />
      </g>
    </a>
  </g>
  <g
     color="#000000"
     id="g326"
     transform="translate(-2.2767189,-3.2761233)">
    <g
       transform="translate(78.0817,6.4867)"
       id="g324">
      <rect
         x="-0.061700001"
         y="-2.3934"
         width="0.1233"
         height="2.6659999"
         ry="0.039999999"
         fill="currentColor"
         id="rect322" />
    </g>
  </g>
  <g
     color="#000000"
     id="g332"
     transform="translate(-2.2767189,-3.2761233)">
    <g
       transform="translate(36.6528,9.3154)"
       id="g330">
      <path
         transform="scale(0.0034,-0.0034)"
         d="M 0,0 H -18 V 250 H 0 Z m 0,0 v 250 c 96,59 222,149 222,259 0,57 -15,111 -40,162 -3,17 10,29 24,29 8,0 16,-5 21,-13 25,-56 40,-116 40,-178 C 267,306 0,203 0,0 Z"
         fill="currentColor"
         id="path328" />
    </g>
  </g>
  <g
     color="#000000"
     id="g340"
     transform="translate(-2.2767189,-3.2761233)">
    <a
       style="color:inherit"
       xlink:href="textedit:///Users/tomsegarra/Documents/dev/dummies/lilypond_files/b589f42c667b24d7f6ccb29260304c44.ly:38:21:22"
       id="a338">
      <g
         transform="translate(79.3434,6.9117)"
         id="g336">
        <path
           transform="scale(0.0034,-0.0034)"
           d="m 215,137 c 67,0 111,-37 111,-92 0,-90 -111,-182 -215,-182 -67,0 -111,37 -111,92 0,90 111,182 215,182 z"
           fill="currentColor"
           id="path334" />
      </g>
    </a>
  </g>
  <g
     color="#000000"
     id="g346"
     transform="translate(-2.2767189,-3.2761233)">
    <g
       transform="translate(80.3891,6.4867)"
       id="g344">
      <rect
         x="-0.061700001"
         y="-2.3934"
         width="0.1233"
         height="2.6659999"
         ry="0.039999999"
         fill="currentColor"
         id="rect342" />
    </g>
  </g>
  <a
     style="color:inherit"
     xlink:href="textedit:///Users/tomsegarra/Documents/dev/dummies/lilypond_files/b589f42c667b24d7f6ccb29260304c44.ly:38:23:24"
     id="a352"
     transform="translate(-2.2767189,-3.2761233)">
    <g
       transform="translate(81.6508,6.4867)"
       id="g350">
      <path
         transform="scale(0.0034,-0.0034)"
         d="m -8,78 c 0,59 125,83 125,182 0,25 -9,49 -26,69 l -33,40 c -3,4 -4,7 -4,11 0,9 9,17 18,17 4,0 8,-2 12,-6 L 234,212 c 7,-9 11,-18 11,-26 0,-59 -125,-83 -125,-182 0,-25 8,-49 25,-69 l 82,-97 c 3,-4 4,-7 4,-11 0,-9 -8,-17 -17,-17 -10,0 -42,42 -106,42 -19,0 -54,-1 -54,-66 0,-34 10,-73 27,-93 7,-9 -5,-20 -12,-11 -45,53 -93,147 -93,201 0,42 27,42 43,42 31,0 74,-11 113,-27 L 3,52 C -4,61 -8,70 -8,78 Z"
         fill="currentColor"
         id="path348" />
    </g>
  </a>
  <g
     color="#000000"
     id="g358"
     transform="translate(-2.2767189,-3.2761233)">
    <g
       transform="translate(36.5911,6.4867)"
       id="g356">
      <rect
         x="-0.061700001"
         y="0.1525"
         width="0.1233"
         height="2.7163"
         ry="0.039999999"
         fill="currentColor"
         id="rect354" />
    </g>
  </g>
  <g
     color="#000000"
     id="g366"
     transform="translate(-2.2767189,-3.2761233)">
    <a
       style="color:inherit"
       xlink:href="textedit:///Users/tomsegarra/Documents/dev/dummies/lilypond_files/b589f42c667b24d7f6ccb29260304c44.ly:32:16:17"
       id="a364">
      <g
         transform="translate(36.5295,6.4867)"
         id="g362">
        <path
           transform="scale(0.0034,-0.0034)"
           d="m 215,137 c 67,0 111,-37 111,-92 0,-90 -111,-182 -215,-182 -67,0 -111,37 -111,92 0,90 111,182 215,182 z"
           fill="currentColor"
           id="path360" />
      </g>
    </a>
  </g>
  <g
     color="#000000"
     id="g374"
     transform="translate(-2.2767189,-3.2761233)">
    <a
       style="color:inherit"
       xlink:href="textedit:///Users/tomsegarra/Documents/dev/dummies/lilypond_files/b589f42c667b24d7f6ccb29260304c44.ly:26:4:5"
       id="a372">
      <g
         transform="translate(13.0218,6.0617)"
         id="g370">
        <path
           transform="scale(0.0034,-0.0034)"
           d="m 215,137 c 67,0 111,-37 111,-92 0,-90 -111,-182 -215,-182 -67,0 -111,37 -111,92 0,90 111,182 215,182 z"
           fill="currentColor"
           id="path368" />
      </g>
    </a>
  </g>
  <g
     color="#000000"
     id="g380"
     transform="translate(-2.2767189,-3.2761233)">
    <g
       transform="translate(13.0834,6.4867)"
       id="g378">
      <rect
         x="-0.061700001"
         y="-0.27250001"
         width="0.1233"
         height="2.6659999"
         ry="0.039999999"
         fill="currentColor"
         id="rect376" />
    </g>
  </g>
  <a
     style="color:inherit"
     xlink:href="textedit:///Users/tomsegarra/Documents/dev/dummies/lilypond_files/b589f42c667b24d7f6ccb29260304c44.ly:26:8:9"
     id="a386"
     transform="translate(-2.2767189,-3.2761233)">
    <g
       transform="translate(15.3292,6.4867)"
       id="g384">
      <path
         transform="scale(0.0034,-0.0034)"
         d="m 70,205 c 80,0 46,-97 90,-97 15,0 52,45 59,59 6,13 26,13 31,0 L 129,-250 c -9,-7 -19,-11 -30,-11 -11,0 -21,4 -30,11 L 187,76 C 154,64 119,54 84,54 37,54 -3,88 -3,133 c 0,40 33,72 73,72 z"
         fill="currentColor"
         id="path382" />
    </g>
  </a>
  <g
     color="#ff0000"
     id="g394"
     transform="translate(-2.2767189,-3.2761233)">
    <a
       style="color:inherit"
       xlink:href="textedit:///Users/tomsegarra/Documents/dev/dummies/lilypond_files/b589f42c667b24d7f6ccb29260304c44.ly:29:4:5"
       id="a392">
      <g
         transform="translate(17.3792,6.0617)"
         id="g390">
        <path
           transform="scale(0.0034,-0.0034)"
           d="m 215,137 c 67,0 111,-37 111,-92 0,-90 -111,-182 -215,-182 -67,0 -111,37 -111,92 0,90 111,182 215,182 z"
           fill="currentColor"
           id="path388" />
      </g>
    </a>
  </g>
  <g
     color="#ff0000"
     id="g400"
     transform="translate(-2.2767189,-3.2761233)">
    <g
       transform="translate(17.4408,6.4867)"
       id="g398">
      <rect
         x="-0.061700001"
         y="-0.27250001"
         width="0.1233"
         height="2.8225"
         ry="0.039999999"
         fill="currentColor"
         id="rect396" />
    </g>
  </g>
  <g
     color="#ff0000"
     id="g406"
     transform="translate(-2.2767189,-3.2761233)">
    <g
       transform="translate(17.5025,8.9967)"
       id="g404">
      <path
         transform="scale(0.0034,-0.0034)"
         d="M 0,0 H -18 V 250 H 0 Z m 0,0 v 250 c 96,59 222,149 222,259 0,57 -15,111 -40,162 -3,17 10,29 24,29 8,0 16,-5 21,-13 25,-56 40,-116 40,-178 C 267,306 0,203 0,0 Z"
         fill="currentColor"
         id="path402" />
    </g>
  </g>
  <g
     color="#ff0000"
     id="g414"
     transform="translate(-2.2767189,-3.2761233)">
    <a
       style="color:inherit"
       xlink:href="textedit:///Users/tomsegarra/Documents/dev/dummies/lilypond_files/b589f42c667b24d7f6ccb29260304c44.ly:29:8:9"
       id="a412">
      <g
         transform="translate(19.6865,5.6367)"
         id="g410">
        <path
           transform="scale(0.0034,-0.0034)"
           d="m 215,137 c 67,0 111,-37 111,-92 0,-90 -111,-182 -215,-182 -67,0 -111,37 -111,92 0,90 111,182 215,182 z"
           fill="currentColor"
           id="path408" />
      </g>
    </a>
  </g>
  <g
     color="#ff0000"
     id="g420"
     transform="translate(-2.2767189,-3.2761233)">
    <g
       transform="translate(19.7482,6.4867)"
       id="g418">
      <rect
         x="-0.061700001"
         y="-0.69749999"
         width="0.1233"
         height="2.3975"
         ry="0.039999999"
         fill="currentColor"
         id="rect416" />
    </g>
  </g>
  <a
     style="color:inherit"
     xlink:href="textedit:///Users/tomsegarra/Documents/dev/dummies/lilypond_files/b589f42c667b24d7f6ccb29260304c44.ly:32:14:15"
     id="a426"
     transform="translate(-2.2767189,-3.2761233)">
    <g
       transform="translate(34.4795,6.4867)"
       id="g424">
      <path
         transform="scale(0.0034,-0.0034)"
         d="m 70,205 c 80,0 46,-97 90,-97 15,0 52,45 59,59 6,13 26,13 31,0 L 129,-250 c -9,-7 -19,-11 -30,-11 -11,0 -21,4 -30,11 L 187,76 C 154,64 119,54 84,54 37,54 -3,88 -3,133 c 0,40 33,72 73,72 z"
         fill="currentColor"
         id="path422" />
    </g>
  </a>
  <g
     color="#ff0000"
     id="g434"
     transform="translate(-2.2767189,-3.2761233)">
    <a
       style="color:inherit"
       xlink:href="textedit:///Users/tomsegarra/Documents/dev/dummies/lilypond_files/b589f42c667b24d7f6ccb29260304c44.ly:29:12:13"
       id="a432">
      <g
         transform="translate(21.9939,5.2117)"
         id="g430">
        <path
           transform="scale(0.0034,-0.0034)"
           d="m 215,137 c 67,0 111,-37 111,-92 0,-90 -111,-182 -215,-182 -67,0 -111,37 -111,92 0,90 111,182 215,182 z"
           fill="currentColor"
           id="path428" />
      </g>
    </a>
  </g>
  <g
     color="#ff0000"
     id="g440"
     transform="translate(-2.2767189,-3.2761233)">
    <g
       transform="translate(22.0556,6.4867)"
       id="g438">
      <rect
         x="-0.061700001"
         y="-1.1224999"
         width="0.1233"
         height="2.8225"
         ry="0.039999999"
         fill="currentColor"
         id="rect436" />
    </g>
  </g>
  <g
     color="#ff0000"
     id="g448"
     transform="translate(-2.2767189,-3.2761233)">
    <a
       style="color:inherit"
       xlink:href="textedit:///Users/tomsegarra/Documents/dev/dummies/lilypond_files/b589f42c667b24d7f6ccb29260304c44.ly:29:14:15"
       id="a446">
      <g
         transform="translate(24.3013,5.6367)"
         id="g444">
        <path
           transform="scale(0.0034,-0.0034)"
           d="m 215,137 c 67,0 111,-37 111,-92 0,-90 -111,-182 -215,-182 -67,0 -111,37 -111,92 0,90 111,182 215,182 z"
           fill="currentColor"
           id="path442" />
      </g>
    </a>
  </g>
  <g
     color="#ff0000"
     id="g454"
     transform="translate(-2.2767189,-3.2761233)">
    <g
       transform="translate(24.363,6.4867)"
       id="g452">
      <rect
         x="-0.061700001"
         y="-0.69749999"
         width="0.1233"
         height="2.3975"
         ry="0.039999999"
         fill="currentColor"
         id="rect450" />
    </g>
  </g>
  <g
     color="#000000"
     id="g462"
     transform="translate(-2.2767189,-3.2761233)">
    <a
       style="color:inherit"
       xlink:href="textedit:///Users/tomsegarra/Documents/dev/dummies/lilypond_files/b589f42c667b24d7f6ccb29260304c44.ly:32:4:5"
       id="a460">
      <g
         transform="translate(26.6087,5.2117)"
         id="g458">
        <path
           transform="scale(0.0034,-0.0034)"
           d="m 215,137 c 67,0 111,-37 111,-92 0,-90 -111,-182 -215,-182 -67,0 -111,37 -111,92 0,90 111,182 215,182 z"
           fill="currentColor"
           id="path456" />
      </g>
    </a>
  </g>
  <g
     color="#000000"
     id="g468"
     transform="translate(-2.2767189,-3.2761233)">
    <g
       transform="translate(26.6704,6.4867)"
       id="g466">
      <rect
         x="-0.061700001"
         y="-1.1224999"
         width="0.1233"
         height="2.8225"
         ry="0.039999999"
         fill="currentColor"
         id="rect464" />
    </g>
  </g>
  <g
     color="#000000"
     id="g476"
     transform="translate(-2.2767189,-3.2761233)">
    <a
       style="color:inherit"
       xlink:href="textedit:///Users/tomsegarra/Documents/dev/dummies/lilypond_files/b589f42c667b24d7f6ccb29260304c44.ly:32:10:11"
       id="a474">
      <g
         transform="translate(29.8647,6.4867)"
         id="g472">
        <path
           transform="scale(0.0034,-0.0034)"
           d="m 215,137 c 67,0 111,-37 111,-92 0,-90 -111,-182 -215,-182 -67,0 -111,37 -111,92 0,90 111,182 215,182 z"
           fill="currentColor"
           id="path470" />
      </g>
    </a>
  </g>
  <g
     color="#000000"
     id="g482"
     transform="translate(-2.2767189,-3.2761233)">
    <g
       transform="translate(29.9264,6.4867)"
       id="g480">
      <rect
         x="-0.061700001"
         y="0.1525"
         width="0.1233"
         height="2.3975"
         ry="0.039999999"
         fill="currentColor"
         id="rect478" />
    </g>
  </g>
  <g
     color="#000000"
     id="g488"
     transform="translate(-2.2767189,-3.2761233)">
    <g
       transform="translate(32.2337,6.4867)"
       id="g486">
      <rect
         x="-0.061700001"
         y="0.1525"
         width="0.1233"
         height="2.3975"
         ry="0.039999999"
         fill="currentColor"
         id="rect484" />
    </g>
  </g>
  <g
     color="#000000"
     id="g496"
     transform="translate(-2.2767189,-3.2761233)">
    <a
       style="color:inherit"
       xlink:href="textedit:///Users/tomsegarra/Documents/dev/dummies/lilypond_files/b589f42c667b24d7f6ccb29260304c44.ly:32:12:13"
       id="a494">
      <g
         transform="translate(32.1721,6.4867)"
         id="g492">
        <path
           transform="scale(0.0034,-0.0034)"
           d="m 215,137 c 67,0 111,-37 111,-92 0,-90 -111,-182 -215,-182 -67,0 -111,37 -111,92 0,90 111,182 215,182 z"
           fill="currentColor"
           id="path490" />
      </g>
    </a>
  </g>
</svg>
