<?xml version="1.0" encoding="UTF-8" standalone="no"?>
<svg
   version="1.2"
   width="11.203017mm"
   height="10.289601mm"
   viewBox="0 0 6.3759502 5.8553513"
   id="svg32"
   sodipodi:docname="c211f49accd408a769576c34fd23685d.svg"
   xmlns:inkscape="http://www.inkscape.org/namespaces/inkscape"
   xmlns:sodipodi="http://sodipodi.sourceforge.net/DTD/sodipodi-0.dtd"
   xmlns="http://www.w3.org/2000/svg"
   xmlns:svg="http://www.w3.org/2000/svg">
  <defs
     id="defs36" />
  <sodipodi:namedview
     id="namedview34"
     pagecolor="#ffffff"
     bordercolor="#000000"
     borderopacity="0.25"
     inkscape:showpageshadow="2"
     inkscape:pageopacity="0.0"
     inkscape:pagecheckerboard="0"
     inkscape:deskcolor="#d1d1d1"
     inkscape:document-units="mm" />
  <style
     type="text/css"
     id="style2"><![CDATA[
tspan { white-space: pre; }
]]></style>
  <!-- Page: 1/1 -->
  <g
     transform="translate(-5.0000846e-5,4.610103)"
     id="g6">
    <line
       stroke-linejoin="round"
       stroke-linecap="round"
       stroke-width="0.0931"
       stroke="currentColor"
       x1="0.046599999"
       y1="0"
       x2="5.0734"
       y2="0"
       id="line4" />
  </g>
  <g
     transform="translate(-5.0000846e-5,3.810103)"
     id="g10">
    <line
       stroke-linejoin="round"
       stroke-linecap="round"
       stroke-width="0.0931"
       stroke="currentColor"
       x1="0.046599999"
       y1="0"
       x2="5.0734"
       y2="0"
       id="line8" />
  </g>
  <g
     transform="translate(-5.0000846e-5,3.010103)"
     id="g14">
    <line
       stroke-linejoin="round"
       stroke-linecap="round"
       stroke-width="0.0931"
       stroke="currentColor"
       x1="0.046599999"
       y1="0"
       x2="5.0734"
       y2="0"
       id="line12" />
  </g>
  <g
     transform="translate(-5.0000846e-5,2.210103)"
     id="g18">
    <line
       stroke-linejoin="round"
       stroke-linecap="round"
       stroke-width="0.0931"
       stroke="currentColor"
       x1="0.046599999"
       y1="0"
       x2="5.0734"
       y2="0"
       id="line16" />
  </g>
  <g
     transform="translate(-5.0000846e-5,1.410103)"
     id="g22">
    <line
       stroke-linejoin="round"
       stroke-linecap="round"
       stroke-width="0.0931"
       stroke="currentColor"
       x1="0.046599999"
       y1="0"
       x2="5.0734"
       y2="0"
       id="line20" />
  </g>
  <g
     transform="translate(0.79995,3.810103)"
     id="g26">
    <path
       transform="scale(0.0032,-0.0032)"
       d="m 647,2 c 0,-114 -75,-214 -180,-248 3,-33 4,-66 4,-99 0,-21 0,-41 -1,-62 -7,-122 -92,-229 -211,-229 -108,0 -196,88 -196,197 0,58 54,103 113,103 54,0 95,-47 95,-103 0,-52 -43,-95 -95,-95 -9,0 -18,1 -27,4 25,-37 66,-61 113,-61 93,0 156,91 162,191 1,19 2,38 2,57 0,29 -1,58 -3,87 -5,-1 -44,-8 -88,-8 -194,0 -333,181 -333,376 0,177 129,308 244,443 -34,103 -55,171 -55,347 0,114 54,221 147,288 8,6 18,5 25,-1 68,-79 135,-242 135,-356 0,-142 -84,-255 -176,-364 21,-68 40,-136 57,-205 1,0 5,1 10,1 C 546,265 647,136 647,2 Z M 463,-201 c 64,24 110,88 110,161 0,88 -64,175 -167,188 28,-133 49,-269 57,-349 z M 77,25 c 0,-144 141,-243 261,-243 1,0 46,-1 81,5 -7,66 -27,208 -60,362 -79,-8 -124,-60 -124,-118 0,-43 25,-88 80,-120 5,-5 7,-11 7,-17 0,-12 -10,-23 -23,-23 -16,0 -128,62 -128,188 0,89 60,177 163,200 -14,57 -30,113 -47,169 C 182,306 77,185 77,25 Z M 403,1038 C 304,992 242,893 242,784 c 0,-39 10,-95 39,-188 78,97 142,199 142,324 0,33 0,61 -20,118 z"
       fill="currentColor"
       id="path24" />
  </g>
  <g
     transform="translate(4.99995,3.010103)"
     id="g30">
    <path
       transform="scale(0.0032,-0.0032)"
       d="m 250,265 c 114,0 172,-112 172,-166 0,-38 -30,-69 -66,-69 -30,0 -72,23 -72,72 0,37 26,75 70,75 3,0 6,-1 9,-1 -26,36 -67,59 -113,59 -107,0 -113,-74 -113,-189 0,-15 1,-30 1,-46 0,-16 -1,-31 -1,-46 0,-115 6,-189 113,-189 78,0 133,70 151,149 2,8 8,11 14,11 7,0 15,-5 15,-14 0,-21 -49,-176 -180,-176 C 105,-265 0,-177 0,0 0,63 18,265 250,265 Z"
       fill="currentColor"
       id="path28" />
  </g>
</svg>
