<?xml version="1.0" encoding="UTF-8" standalone="no"?>
<svg
   version="1.2"
   width="63.330395mm"
   height="20.91614mm"
   viewBox="0 0 36.039903 11.902438"
   id="svg242"
   sodipodi:docname="c28018733d623eebedb165e78463de2c.svg"
   xmlns:inkscape="http://www.inkscape.org/namespaces/inkscape"
   xmlns:sodipodi="http://sodipodi.sourceforge.net/DTD/sodipodi-0.dtd"
   xmlns:xlink="http://www.w3.org/1999/xlink"
   xmlns="http://www.w3.org/2000/svg"
   xmlns:svg="http://www.w3.org/2000/svg">
  <defs
     id="defs246" />
  <sodipodi:namedview
     id="namedview244"
     pagecolor="#ffffff"
     bordercolor="#000000"
     borderopacity="0.25"
     inkscape:showpageshadow="2"
     inkscape:pageopacity="0.0"
     inkscape:pagecheckerboard="0"
     inkscape:deskcolor="#d1d1d1"
     inkscape:document-units="mm" />
  <style
     type="text/css"
     id="style2"><![CDATA[
tspan { white-space: pre; }
]]></style>
  <!-- Page: 1/1 -->
  <g
     transform="translate(35.85965,5.9466142)"
     id="g6">
    <rect
       x="0"
       y="-1.7"
       width="0.1802"
       height="3.4000001"
       ry="0.0000"
       fill="currentColor"
       id="rect4" />
  </g>
  <g
     transform="translate(4.9997121e-5,7.6466142)"
     id="g10">
    <line
       stroke-linejoin="round"
       stroke-linecap="round"
       stroke-width="0.0949"
       stroke="currentColor"
       x1="0.047400001"
       y1="0"
       x2="35.992401"
       y2="0"
       id="line8" />
  </g>
  <g
     transform="translate(4.9997121e-5,6.7966142)"
     id="g14">
    <line
       stroke-linejoin="round"
       stroke-linecap="round"
       stroke-width="0.0949"
       stroke="currentColor"
       x1="0.047400001"
       y1="0"
       x2="35.992401"
       y2="0"
       id="line12" />
  </g>
  <g
     transform="translate(4.9997121e-5,5.9466142)"
     id="g18">
    <line
       stroke-linejoin="round"
       stroke-linecap="round"
       stroke-width="0.0949"
       stroke="currentColor"
       x1="0.047400001"
       y1="0"
       x2="35.992401"
       y2="0"
       id="line16" />
  </g>
  <g
     transform="translate(4.9997121e-5,5.0966142)"
     id="g22">
    <line
       stroke-linejoin="round"
       stroke-linecap="round"
       stroke-width="0.0949"
       stroke="currentColor"
       x1="0.047400001"
       y1="0"
       x2="35.992401"
       y2="0"
       id="line20" />
  </g>
  <g
     transform="translate(4.9997121e-5,4.2466142)"
     id="g26">
    <line
       stroke-linejoin="round"
       stroke-linecap="round"
       stroke-width="0.0949"
       stroke="currentColor"
       x1="0.047400001"
       y1="0"
       x2="35.992401"
       y2="0"
       id="line24" />
  </g>
  <g
     transform="translate(17.52385,5.9466142)"
     id="g30">
    <rect
       x="0"
       y="-1.7"
       width="0.1802"
       height="3.4000001"
       ry="0.0000"
       fill="currentColor"
       id="rect28" />
  </g>
  <a
     style="color:inherit"
     xlink:href="textedit:///Users/tomsegarra/Documents/dev/dummies/lilypond_files/c28018733d623eebedb165e78463de2c.ly:24:23:24"
     id="a36"
     transform="translate(-2.27615,-3.2794858)">
    <g
       transform="translate(12.0994,9.2261)"
       id="g34">
      <path
         stroke-width="0.0759"
         stroke-linejoin="round"
         stroke-linecap="round"
         stroke="currentColor"
         fill="currentColor"
         d="m 0.7537,-2.975 c 0.4705,-0.5562 1.4368,-0.5562 1.9074,0 v 0 c -0.4706,-0.4424 -1.4369,-0.4424 -1.9074,0 z"
         id="path32" />
    </g>
  </a>
  <a
     style="color:inherit"
     xlink:href="textedit:///Users/tomsegarra/Documents/dev/dummies/lilypond_files/c28018733d623eebedb165e78463de2c.ly:20:12:13"
     id="a56"
     transform="translate(-2.27615,-3.2794858)">
    <g
       transform="translate(12.0994,4.9659)"
       id="g42">
      <text
         font-family="sans-serif"
         font-size="2.224px"
         text-anchor="start"
         fill="currentColor"
         id="text40"><tspan
           id="tspan38">C</tspan></text>
    </g>
    <g
       transform="translate(13.6358,4.9659)"
       id="g48">
      <text
         font-family="sans-serif"
         font-size="2.224px"
         text-anchor="start"
         fill="currentColor"
         id="text46"><tspan
           id="tspan44">/</tspan></text>
    </g>
    <g
       transform="translate(14.6601,4.9659)"
       id="g54">
      <text
         font-family="sans-serif"
         font-size="2.224px"
         text-anchor="start"
         fill="currentColor"
         id="text52"><tspan
           id="tspan50">D</tspan></text>
    </g>
  </a>
  <a
     style="color:inherit"
     xlink:href="textedit:///Users/tomsegarra/Documents/dev/dummies/lilypond_files/c28018733d623eebedb165e78463de2c.ly:24:19:20"
     id="a62"
     transform="translate(-2.27615,-3.2794858)">
    <g
       transform="translate(12.0994,7.1011)"
       id="g60">
      <path
         transform="scale(0.0034,-0.0034)"
         d="m 215,137 c 67,0 111,-37 111,-92 0,-90 -111,-182 -215,-182 -67,0 -111,37 -111,92 0,90 111,182 215,182 z"
         fill="currentColor"
         id="path58" />
    </g>
  </a>
  <g
     transform="translate(0.80005,6.7966142)"
     id="g66">
    <path
       transform="scale(0.0034,-0.0034)"
       d="m 646,2 c 0,-113 -74,-213 -180,-247 3,-34 5,-68 5,-102 0,-20 -1,-40 -2,-60 -7,-121 -91,-228 -209,-228 -108,0 -196,87 -196,196 0,58 53,104 112,104 54,0 95,-48 95,-104 0,-52 -43,-95 -95,-95 -10,0 -20,2 -29,6 26,-38 68,-63 116,-63 h 3 c 93,2 153,92 159,190 1,19 2,37 2,56 0,30 -2,60 -4,90 -5,-1 -43,-8 -88,-8 -194,0 -333,180 -333,375 0,177 130,307 246,442 -31,98 -53,170 -53,347 0,115 55,223 148,290 7,5 16,4 22,-1 68,-80 134,-243 134,-357 0,-143 -85,-255 -178,-364 21,-68 40,-137 57,-206 1,0 5,1 11,1 C 545,264 646,135 646,2 Z M 462,-202 c 66,24 111,88 111,162 0,89 -65,178 -170,190 28,-135 50,-272 59,-352 z M 75,26 c 0,-145 141,-245 263,-245 1,0 46,0 81,6 -7,65 -27,206 -61,363 -79,-8 -124,-61 -124,-119 0,-43 25,-89 80,-121 5,-5 7,-11 7,-16 0,-12 -10,-23 -22,-23 -16,0 -127,63 -127,188 0,89 58,175 161,198 -14,58 -29,116 -46,173 C 181,308 75,186 75,26 Z M 406,1042 C 307,995 244,894 244,785 c 0,-49 13,-111 38,-191 79,97 144,199 144,324 0,33 0,63 -20,124 z"
       fill="currentColor"
       id="path64" />
  </g>
  <a
     style="color:inherit"
     xlink:href="textedit:///Users/tomsegarra/Documents/dev/dummies/lilypond_files/c28018733d623eebedb165e78463de2c.ly:23:1:9"
     id="a72"
     transform="translate(-2.27615,-3.2794858)">
    <g
       transform="translate(6.5762,7.5261)"
       id="g70">
      <path
         transform="scale(0.0034,-0.0034)"
         d="m 217,-311 c 0,-11 -8,-19 -19,-19 -11,0 -20,8 -20,19 v 142 l -81,-30 v -156 c 0,-11 -9,-20 -20,-20 -11,0 -19,9 -19,20 v 142 l -28,-11 c -3,-1 -5,-1 -8,-1 -12,0 -22,10 -22,23 v 57 c 0,9 6,18 15,21 l 43,16 V 49 L 30,39 C 27,38 25,38 22,38 10,38 0,47 0,60 v 57 c 0,9 6,18 15,21 l 43,16 v 157 c 0,11 8,19 19,19 11,0 20,-8 20,-19 V 169 l 81,30 v 156 c 0,11 9,20 20,20 11,0 19,-9 19,-20 V 213 l 28,11 c 3,1 5,1 8,1 12,0 22,-10 22,-23 v -57 c 0,-9 -6,-18 -15,-21 L 217,108 V -49 l 28,10 c 3,1 5,1 8,1 12,0 22,-9 22,-22 v -57 c 0,-9 -6,-18 -15,-21 l -43,-16 z M 97,64 V -94 l 81,30 V 94 Z"
         fill="currentColor"
         id="path68" />
    </g>
  </a>
  <g
     transform="translate(6.38505,5.9466142)"
     id="g76">
    <path
       transform="scale(0.0034,-0.0034)"
       d="m 358,29 c -30,0 -74,23 -74,73 0,38 27,76 71,76 4,0 7,0 11,-1 -27,36 -69,59 -116,59 -106,0 -113,-74 -113,-188 0,-15 1,-31 1,-48 0,-17 -1,-33 -1,-48 0,-114 7,-188 113,-188 79,0 136,70 155,150 2,7 7,10 13,10 7,0 14,-5 14,-13 0,-21 -50,-175 -182,-175 C 191,-264 0,-244 0,0 0,63 18,264 250,264 365,264 424,155 424,99 424,60 394,29 358,29 Z"
       fill="currentColor"
       id="path74" />
  </g>
  <a
     style="color:inherit"
     xlink:href="textedit:///Users/tomsegarra/Documents/dev/dummies/lilypond_files/c28018733d623eebedb165e78463de2c.ly:31:15:16"
     id="a84"
     transform="translate(-2.27615,-3.2794858)">
    <g
       transform="translate(12.0994,14.7261)"
       id="g82">
      <text
         font-family="serif"
         font-size="2.0989px"
         text-anchor="start"
         fill="currentColor"
         id="text80"><tspan
           id="tspan78">hey</tspan></text>
    </g>
  </a>
  <g
     transform="translate(9.88485,5.9466142)"
     id="g88">
    <rect
       x="-0.061700001"
       y="-1.9725"
       width="0.1233"
       height="2.6758001"
       ry="0.039999999"
       fill="currentColor"
       id="rect86" />
  </g>
  <a
     style="color:inherit"
     xlink:href="textedit:///Users/tomsegarra/Documents/dev/dummies/lilypond_files/c28018733d623eebedb165e78463de2c.ly:31:31:32"
     id="a96"
     transform="translate(-2.27615,-3.2794858)">
    <g
       transform="translate(24.027,14.7261)"
       id="g94">
      <text
         font-family="serif"
         font-size="2.0989px"
         text-anchor="start"
         fill="currentColor"
         id="text92"><tspan
           id="tspan90">where</tspan></text>
    </g>
  </a>
  <g
     color="#ff0000"
     id="g102"
     transform="translate(-2.27615,-3.2794858)">
    <g
       transform="translate(26.0787,9.2261)"
       id="g100">
      <rect
         x="-0.061700001"
         y="-0.69749999"
         width="0.1233"
         height="2.8225"
         ry="0.039999999"
         fill="currentColor"
         id="rect98" />
    </g>
  </g>
  <g
     color="#ff0000"
     id="g108"
     transform="translate(-2.27615,-3.2794858)">
    <g
       transform="translate(26.1403,11.3111)"
       id="g106">
      <path
         transform="scale(0.0034,-0.0034)"
         d="M 0,0 H -18 V 250 H 0 Z m 0,0 v 250 c 96,59 222,149 222,259 0,57 -15,111 -40,162 -3,17 10,29 24,29 8,0 16,-5 21,-13 25,-56 40,-116 40,-178 C 267,306 0,203 0,0 Z"
         fill="currentColor"
         id="path104" />
    </g>
  </g>
  <g
     color="#ff0000"
     id="g116"
     transform="translate(-2.27615,-3.2794858)">
    <a
       style="color:inherit"
       xlink:href="textedit:///Users/tomsegarra/Documents/dev/dummies/lilypond_files/c28018733d623eebedb165e78463de2c.ly:29:7:8"
       id="a114">
      <g
         transform="translate(30.0009,9.2261)"
         id="g112">
        <path
           transform="scale(0.0034,-0.0034)"
           d="m 215,137 c 67,0 111,-37 111,-92 0,-90 -111,-182 -215,-182 -67,0 -111,37 -111,92 0,90 111,182 215,182 z"
           fill="currentColor"
           id="path110" />
      </g>
    </a>
  </g>
  <a
     style="color:inherit"
     xlink:href="textedit:///Users/tomsegarra/Documents/dev/dummies/lilypond_files/c28018733d623eebedb165e78463de2c.ly:31:37:38"
     id="a124"
     transform="translate(-2.27615,-3.2794858)">
    <g
       transform="translate(29.5644,14.7261)"
       id="g122">
      <text
         font-family="serif"
         font-size="2.0989px"
         text-anchor="start"
         fill="currentColor"
         id="text120"><tspan
           id="tspan118">ya</tspan></text>
    </g>
  </a>
  <g
     color="#ff0000"
     id="g130"
     transform="translate(-2.27615,-3.2794858)">
    <g
       transform="translate(30.0625,9.2261)"
       id="g128">
      <rect
         x="-0.061700001"
         y="0.1525"
         width="0.1233"
         height="2.3815999"
         ry="0.039999999"
         fill="currentColor"
         id="rect126" />
    </g>
  </g>
  <g
     color="#ff0000"
     id="g138"
     transform="translate(-2.27615,-3.2794858)">
    <a
       style="color:inherit"
       xlink:href="textedit:///Users/tomsegarra/Documents/dev/dummies/lilypond_files/c28018733d623eebedb165e78463de2c.ly:29:10:11"
       id="a136">
      <g
         transform="translate(32.5582,7.9511)"
         id="g134">
        <path
           transform="scale(0.0034,-0.0034)"
           d="m 215,137 c 67,0 111,-37 111,-92 0,-90 -111,-182 -215,-182 -67,0 -111,37 -111,92 0,90 111,182 215,182 z"
           fill="currentColor"
           id="path132" />
      </g>
    </a>
  </g>
  <a
     style="color:inherit"
     xlink:href="textedit:///Users/tomsegarra/Documents/dev/dummies/lilypond_files/c28018733d623eebedb165e78463de2c.ly:31:40:41"
     id="a146"
     transform="translate(-2.27615,-3.2794858)">
    <g
       transform="translate(32.5582,14.7261)"
       id="g144">
      <text
         font-family="serif"
         font-size="2.0989px"
         text-anchor="start"
         fill="currentColor"
         id="text142"><tspan
           id="tspan140">been?</tspan></text>
    </g>
  </a>
  <g
     color="#ff0000"
     id="g152"
     transform="translate(-2.27615,-3.2794858)">
    <g
       transform="translate(32.6199,9.2261)"
       id="g150">
      <rect
         x="-0.061700001"
         y="-1.1224999"
         width="0.1233"
         height="2.9951"
         ry="0.039999999"
         fill="currentColor"
         id="rect148" />
    </g>
  </g>
  <g
     color="#ff0000"
     id="g160"
     transform="translate(-2.27615,-3.2794858)">
    <a
       style="color:inherit"
       xlink:href="textedit:///Users/tomsegarra/Documents/dev/dummies/lilypond_files/c28018733d623eebedb165e78463de2c.ly:29:14:15"
       id="a158">
      <g
         transform="translate(34.8656,7.9511)"
         id="g156">
        <path
           transform="scale(0.0034,-0.0034)"
           d="m 215,137 c 67,0 111,-37 111,-92 0,-90 -111,-182 -215,-182 -67,0 -111,37 -111,92 0,90 111,182 215,182 z"
           fill="currentColor"
           id="path154" />
      </g>
    </a>
  </g>
  <g
     color="#ff0000"
     id="g166"
     transform="translate(-2.27615,-3.2794858)">
    <g
       transform="translate(34.9273,9.2261)"
       id="g164">
      <rect
         x="-0.061700001"
         y="-1.1224999"
         width="0.1233"
         height="2.8225"
         ry="0.039999999"
         fill="currentColor"
         id="rect162" />
    </g>
  </g>
  <g
     transform="translate(9.82325,6.6401142)"
     id="g170">
    <polygon
       stroke-linejoin="round"
       stroke-linecap="round"
       stroke-width="0.08"
       fill="currentColor"
       stroke="currentColor"
       points="0.04,0.164 0.04,-0.164 5.2907,0.686 5.2907,1.014 "
       id="polygon168" />
  </g>
  <a
     style="color:inherit"
     xlink:href="textedit:///Users/tomsegarra/Documents/dev/dummies/lilypond_files/c28018733d623eebedb165e78463de2c.ly:24:27:28"
     id="a176"
     transform="translate(-2.27615,-3.2794858)">
    <g
       transform="translate(14.4068,7.1011)"
       id="g174">
      <path
         transform="scale(0.0034,-0.0034)"
         d="m 215,137 c 67,0 111,-37 111,-92 0,-90 -111,-182 -215,-182 -67,0 -111,37 -111,92 0,90 111,182 215,182 z"
         fill="currentColor"
         id="path172" />
    </g>
  </a>
  <g
     transform="translate(12.19225,5.9466142)"
     id="g180">
    <rect
       x="-0.061700001"
       y="-1.9725"
       width="0.1233"
       height="3.0437"
       ry="0.039999999"
       fill="currentColor"
       id="rect178" />
  </g>
  <a
     style="color:inherit"
     xlink:href="textedit:///Users/tomsegarra/Documents/dev/dummies/lilypond_files/c28018733d623eebedb165e78463de2c.ly:29:12:13"
     id="a186"
     transform="translate(-2.27615,-3.2794858)">
    <g
       transform="translate(32.5582,9.2261)"
       id="g184">
      <path
         stroke-width="0.0759"
         stroke-linejoin="round"
         stroke-linecap="round"
         stroke="currentColor"
         fill="currentColor"
         d="m 0.7537,-2.125 c 0.4705,-0.5562 1.4368,-0.5562 1.9074,0 v 0 c -0.4706,-0.4424 -1.4369,-0.4424 -1.9074,0 z"
         id="path182" />
    </g>
  </a>
  <a
     style="color:inherit"
     xlink:href="textedit:///Users/tomsegarra/Documents/dev/dummies/lilypond_files/c28018733d623eebedb165e78463de2c.ly:24:29:30"
     id="a192"
     transform="translate(-2.27615,-3.2794858)">
    <g
       transform="translate(17.3068,8.3761)"
       id="g190">
      <path
         transform="scale(0.0034,-0.0034)"
         d="m 215,137 c 67,0 111,-37 111,-92 0,-90 -111,-182 -215,-182 -67,0 -111,37 -111,92 0,90 111,182 215,182 z"
         fill="currentColor"
         id="path188" />
    </g>
  </a>
  <a
     style="color:inherit"
     xlink:href="textedit:///Users/tomsegarra/Documents/dev/dummies/lilypond_files/c28018733d623eebedb165e78463de2c.ly:31:19:20"
     id="a200"
     transform="translate(-2.27615,-3.2794858)">
    <g
       transform="translate(15.9314,14.7261)"
       id="g198">
      <text
         font-family="serif"
         font-size="2.0989px"
         text-anchor="start"
         fill="currentColor"
         id="text196"><tspan
           id="tspan194">Sum</tspan></text>
    </g>
  </a>
  <g
     transform="translate(15.09225,5.9466142)"
     id="g204">
    <rect
       x="-0.061700001"
       y="-0.69749999"
       width="0.1233"
       height="2.2311001"
       ry="0.039999999"
       fill="currentColor"
       id="rect202" />
  </g>
  <g
     color="#ff0000"
     id="g210"
     transform="translate(-2.27615,-3.2794858)">
    <g
       transform="translate(30.0009,11.7761)"
       id="g208">
      <polygon
         stroke-linejoin="round"
         stroke-linecap="round"
         stroke-width="0.08"
         fill="currentColor"
         stroke="currentColor"
         points="0.04,0.164 0.04,-0.164 2.6407,-0.8574 2.6407,-0.5294 "
         id="polygon206" />
    </g>
  </g>
  <a
     style="color:inherit"
     xlink:href="textedit:///Users/tomsegarra/Documents/dev/dummies/lilypond_files/c28018733d623eebedb165e78463de2c.ly:25:4:5"
     id="a216"
     transform="translate(-2.27615,-3.2794858)">
    <g
       transform="translate(21.1796,8.3761)"
       id="g214">
      <path
         transform="scale(0.0034,-0.0034)"
         d="m 215,137 c 67,0 111,-37 111,-92 0,-90 -111,-182 -215,-182 -67,0 -111,37 -111,92 0,90 111,182 215,182 z"
         fill="currentColor"
         id="path212" />
    </g>
  </a>
  <a
     style="color:inherit"
     xlink:href="textedit:///Users/tomsegarra/Documents/dev/dummies/lilypond_files/c28018733d623eebedb165e78463de2c.ly:31:26:27"
     id="a224"
     transform="translate(-2.27615,-3.2794858)">
    <g
       transform="translate(19.8896,14.7261)"
       id="g222">
      <text
         font-family="serif"
         font-size="2.0989px"
         text-anchor="start"
         fill="currentColor"
         id="text220"><tspan
           id="tspan218">mer,</tspan></text>
    </g>
  </a>
  <g
     transform="translate(20.38995,4.6716142)"
     id="g228">
    <path
       transform="scale(0.0034,-0.0034)"
       d="M 0,0 C 0,31 25,56 56,56 87,56 111,31 111,0 111,-31 87,-56 56,-56 25,-56 0,-31 0,0 Z"
       fill="currentColor"
       id="path226" />
  </g>
  <g
     transform="translate(18.96515,5.9466142)"
     id="g232">
    <rect
       x="-0.061700001"
       y="-0.69749999"
       width="0.1233"
       height="2.8225"
       ry="0.039999999"
       fill="currentColor"
       id="rect230" />
  </g>
  <g
     color="#ff0000"
     id="g240"
     transform="translate(-2.27615,-3.2794858)">
    <a
       style="color:inherit"
       xlink:href="textedit:///Users/tomsegarra/Documents/dev/dummies/lilypond_files/c28018733d623eebedb165e78463de2c.ly:29:4:5"
       id="a238">
      <g
         transform="translate(26.017,8.3761)"
         id="g236">
        <path
           transform="scale(0.0034,-0.0034)"
           d="m 215,137 c 67,0 111,-37 111,-92 0,-90 -111,-182 -215,-182 -67,0 -111,37 -111,92 0,90 111,182 215,182 z"
           fill="currentColor"
           id="path234" />
      </g>
    </a>
  </g>
</svg>
