<?xml version="1.0" encoding="UTF-8" standalone="no"?>
<svg
   version="1.2"
   width="130.33006mm"
   height="16.095911mm"
   viewBox="0 0 74.163132 9.1594622"
   id="svg436"
   sodipodi:docname="c29df8fa9a2f6f8fa6131570a155d56c.svg"
   xmlns:inkscape="http://www.inkscape.org/namespaces/inkscape"
   xmlns:sodipodi="http://sodipodi.sourceforge.net/DTD/sodipodi-0.dtd"
   xmlns:xlink="http://www.w3.org/1999/xlink"
   xmlns="http://www.w3.org/2000/svg"
   xmlns:svg="http://www.w3.org/2000/svg">
  <defs
     id="defs440" />
  <sodipodi:namedview
     id="namedview438"
     pagecolor="#ffffff"
     bordercolor="#000000"
     borderopacity="0.25"
     inkscape:showpageshadow="2"
     inkscape:pageopacity="0.0"
     inkscape:pagecheckerboard="0"
     inkscape:deskcolor="#d1d1d1"
     inkscape:document-units="mm" />
  <style
     type="text/css"
     id="style2"><![CDATA[
tspan { white-space: pre; }
]]></style>
  <!-- Page: 1/1 -->
  <g
     transform="translate(-9.4532472e-4,5.7605767)"
     id="g6">
    <rect
       x="43.6866"
       y="-0.089900002"
       width="1.6611"
       height="0.17990001"
       ry="0.089900002"
       fill="currentColor"
       id="rect4" />
  </g>
  <g
     transform="translate(-9.4532472e-4,5.7605767)"
     id="g10">
    <rect
       x="40.8978"
       y="-0.089900002"
       width="1.6611"
       height="0.17990001"
       ry="0.089900002"
       fill="currentColor"
       id="rect8" />
  </g>
  <g
     transform="translate(-9.4532472e-4,5.7605767)"
     id="g14">
    <rect
       x="37.989498"
       y="-0.089900002"
       width="1.6611"
       height="0.17990001"
       ry="0.089900002"
       fill="currentColor"
       id="rect12" />
  </g>
  <g
     transform="translate(-9.4532472e-4,4.9105767)"
     id="g18">
    <line
       stroke-linejoin="round"
       stroke-linecap="round"
       stroke-width="0.0949"
       stroke="currentColor"
       x1="0.047400001"
       y1="0"
       x2="74.1175"
       y2="0"
       id="line16" />
  </g>
  <g
     transform="translate(-9.4532472e-4,4.0605767)"
     id="g22">
    <line
       stroke-linejoin="round"
       stroke-linecap="round"
       stroke-width="0.0949"
       stroke="currentColor"
       x1="0.047400001"
       y1="0"
       x2="74.1175"
       y2="0"
       id="line20" />
  </g>
  <g
     transform="translate(-9.4532472e-4,3.2105767)"
     id="g26">
    <line
       stroke-linejoin="round"
       stroke-linecap="round"
       stroke-width="0.0949"
       stroke="currentColor"
       x1="0.047400001"
       y1="0"
       x2="74.1175"
       y2="0"
       id="line24" />
  </g>
  <g
     transform="translate(-9.4532472e-4,2.3605767)"
     id="g30">
    <line
       stroke-linejoin="round"
       stroke-linecap="round"
       stroke-width="0.0949"
       stroke="currentColor"
       x1="0.047400001"
       y1="0"
       x2="74.1175"
       y2="0"
       id="line28" />
  </g>
  <g
     transform="translate(-9.4532472e-4,1.5105767)"
     id="g34">
    <line
       stroke-linejoin="round"
       stroke-linecap="round"
       stroke-width="0.0949"
       stroke="currentColor"
       x1="0.047400001"
       y1="0"
       x2="74.1175"
       y2="0"
       id="line32" />
  </g>
  <g
     transform="translate(28.618455,3.2105767)"
     id="g38">
    <rect
       x="0"
       y="-1.7"
       width="0.1802"
       height="3.4000001"
       ry="0.0000"
       fill="currentColor"
       id="rect36" />
  </g>
  <g
     transform="translate(69.446555,3.2105767)"
     id="g42">
    <rect
       x="0"
       y="-1.7"
       width="0.1802"
       height="3.4000001"
       ry="0.0000"
       fill="currentColor"
       id="rect40" />
  </g>
  <g
     transform="translate(46.640455,3.2105767)"
     id="g46">
    <rect
       x="0"
       y="-1.7"
       width="0.1802"
       height="3.4000001"
       ry="0.0000"
       fill="currentColor"
       id="rect44" />
  </g>
  <g
     transform="translate(33.051755,3.2105767)"
     id="g50">
    <rect
       x="-0.061700001"
       y="-2.125"
       width="0.1233"
       height="2.8225"
       ry="0.039999999"
       fill="currentColor"
       id="rect48" />
  </g>
  <a
     style="color:inherit"
     xlink:href="textedit:///Users/tomsegarra/Documents/dev/dummies/lilypond_files/c29df8fa9a2f6f8fa6131570a155d56c.ly:20:4:5"
     id="a56"
     transform="translate(-2.2771453,-3.2761233)">
    <g
       transform="translate(10.7144,6.9117)"
       id="g54">
      <path
         transform="scale(0.0034,-0.0034)"
         d="m 215,137 c 67,0 111,-37 111,-92 0,-90 -111,-182 -215,-182 -67,0 -111,37 -111,92 0,90 111,182 215,182 z"
         fill="currentColor"
         id="path52" />
    </g>
  </a>
  <g
     transform="translate(0.79905468,4.0605767)"
     id="g60">
    <path
       transform="scale(0.0034,-0.0034)"
       d="m 646,2 c 0,-113 -74,-213 -180,-247 3,-34 5,-68 5,-102 0,-20 -1,-40 -2,-60 -7,-121 -91,-228 -209,-228 -108,0 -196,87 -196,196 0,58 53,104 112,104 54,0 95,-48 95,-104 0,-52 -43,-95 -95,-95 -10,0 -20,2 -29,6 26,-38 68,-63 116,-63 h 3 c 93,2 153,92 159,190 1,19 2,37 2,56 0,30 -2,60 -4,90 -5,-1 -43,-8 -88,-8 -194,0 -333,180 -333,375 0,177 130,307 246,442 -31,98 -53,170 -53,347 0,115 55,223 148,290 7,5 16,4 22,-1 68,-80 134,-243 134,-357 0,-143 -85,-255 -178,-364 21,-68 40,-137 57,-206 1,0 5,1 11,1 C 545,264 646,135 646,2 Z M 462,-202 c 66,24 111,88 111,162 0,89 -65,178 -170,190 28,-135 50,-272 59,-352 z M 75,26 c 0,-145 141,-245 263,-245 1,0 46,0 81,6 -7,65 -27,206 -61,363 -79,-8 -124,-61 -124,-119 0,-43 25,-89 80,-121 5,-5 7,-11 7,-16 0,-12 -10,-23 -22,-23 -16,0 -127,63 -127,188 0,89 58,175 161,198 -14,58 -29,116 -46,173 C 181,308 75,186 75,26 Z M 406,1042 C 307,995 244,894 244,785 c 0,-49 13,-111 38,-191 79,97 144,199 144,324 0,33 0,63 -20,124 z"
       fill="currentColor"
       id="path58" />
  </g>
  <a
     style="color:inherit"
     xlink:href="textedit:///Users/tomsegarra/Documents/dev/dummies/lilypond_files/c29df8fa9a2f6f8fa6131570a155d56c.ly:19:6:7"
     id="a62"
     transform="translate(-2.2771453,-3.2761233)" />
  <g
     transform="translate(4.9990547,3.2105767)"
     id="g66">
    <path
       transform="scale(0.0034,-0.0034)"
       d="m 358,29 c -30,0 -74,23 -74,73 0,38 27,76 71,76 4,0 7,0 11,-1 -27,36 -69,59 -116,59 -106,0 -113,-74 -113,-188 0,-15 1,-31 1,-48 0,-17 -1,-33 -1,-48 0,-114 7,-188 113,-188 79,0 136,70 155,150 2,7 7,10 13,10 7,0 14,-5 14,-13 0,-21 -50,-175 -182,-175 C 191,-264 0,-244 0,0 0,63 18,264 250,264 365,264 424,155 424,99 424,60 394,29 358,29 Z"
       fill="currentColor"
       id="path64" />
  </g>
  <a
     style="color:inherit"
     xlink:href="textedit:///Users/tomsegarra/Documents/dev/dummies/lilypond_files/c29df8fa9a2f6f8fa6131570a155d56c.ly:23:4:5"
     id="a74"
     transform="translate(-2.2771453,-3.2761233)">
    <g
       transform="translate(9.7658,11.9867)"
       id="g72">
      <text
         font-family="serif"
         font-size="2.0989px"
         text-anchor="start"
         fill="currentColor"
         id="text70"><tspan
           id="tspan68">Sea</tspan></text>
    </g>
  </a>
  <g
     transform="translate(9.4829547,3.2105767)"
     id="g78">
    <rect
       x="-0.061700001"
       y="-2.3934"
       width="0.1233"
       height="2.6659999"
       ry="0.039999999"
       fill="currentColor"
       id="rect76" />
  </g>
  <g
     transform="translate(9.4213547,0.81707666)"
     id="g82">
    <polygon
       stroke-linejoin="round"
       stroke-linecap="round"
       stroke-width="0.08"
       fill="currentColor"
       stroke="currentColor"
       points="0.04,0.164 0.04,-0.164 3.5635,-0.164 3.5635,0.164 "
       id="polygon80" />
  </g>
  <a
     style="color:inherit"
     xlink:href="textedit:///Users/tomsegarra/Documents/dev/dummies/lilypond_files/c29df8fa9a2f6f8fa6131570a155d56c.ly:20:30:31"
     id="a88"
     transform="translate(-2.2771453,-3.2761233)">
    <g
       transform="translate(38.4926,6.4867)"
       id="g86">
      <path
         transform="scale(0.0034,-0.0034)"
         d="m 70,205 c 80,0 46,-97 90,-97 15,0 52,45 59,59 6,13 26,13 31,0 L 129,-250 c -9,-7 -19,-11 -30,-11 -11,0 -21,4 -30,11 L 187,76 C 154,64 119,54 84,54 37,54 -3,88 -3,133 c 0,40 33,72 73,72 z"
         fill="currentColor"
         id="path84" />
    </g>
  </a>
  <a
     style="color:inherit"
     xlink:href="textedit:///Users/tomsegarra/Documents/dev/dummies/lilypond_files/c29df8fa9a2f6f8fa6131570a155d56c.ly:20:33:34"
     id="a94"
     transform="translate(-2.2771453,-3.2761233)">
    <g
       transform="translate(40.5426,9.0367)"
       id="g92">
      <path
         transform="scale(0.0034,-0.0034)"
         d="m 215,137 c 67,0 111,-37 111,-92 0,-90 -111,-182 -215,-182 -67,0 -111,37 -111,92 0,90 111,182 215,182 z"
         fill="currentColor"
         id="path90" />
    </g>
  </a>
  <a
     style="color:inherit"
     xlink:href="textedit:///Users/tomsegarra/Documents/dev/dummies/lilypond_files/c29df8fa9a2f6f8fa6131570a155d56c.ly:23:43:44"
     id="a102"
     transform="translate(-2.2771453,-3.2761233)">
    <g
       transform="translate(39.6964,11.9867)"
       id="g100">
      <text
         font-family="serif"
         font-size="2.0989px"
         text-anchor="start"
         fill="currentColor"
         id="text98"><tspan
           id="tspan96">nor</tspan></text>
    </g>
  </a>
  <g
     transform="translate(39.311155,3.2105767)"
     id="g106">
    <rect
       x="-0.061700001"
       y="0"
       width="0.1233"
       height="2.3975"
       ry="0.039999999"
       fill="currentColor"
       id="rect104" />
  </g>
  <a
     style="color:inherit"
     xlink:href="textedit:///Users/tomsegarra/Documents/dev/dummies/lilypond_files/c29df8fa9a2f6f8fa6131570a155d56c.ly:20:36:37"
     id="a112"
     transform="translate(-2.2771453,-3.2761233)">
    <g
       transform="translate(43.4509,9.0367)"
       id="g110">
      <path
         transform="scale(0.0034,-0.0034)"
         d="m 215,137 c 67,0 111,-37 111,-92 0,-90 -111,-182 -215,-182 -67,0 -111,37 -111,92 0,90 111,182 215,182 z"
         fill="currentColor"
         id="path108" />
    </g>
  </a>
  <a
     style="color:inherit"
     xlink:href="textedit:///Users/tomsegarra/Documents/dev/dummies/lilypond_files/c29df8fa9a2f6f8fa6131570a155d56c.ly:23:47:48"
     id="a120"
     transform="translate(-2.2771453,-3.2761233)">
    <g
       transform="translate(42.9461,11.9867)"
       id="g118">
      <text
         font-family="serif"
         font-size="2.0989px"
         text-anchor="start"
         fill="currentColor"
         id="text116"><tspan
           id="tspan114">do</tspan></text>
    </g>
  </a>
  <g
     transform="translate(42.219455,3.2105767)"
     id="g124">
    <rect
       x="-0.061700001"
       y="0"
       width="0.1233"
       height="2.3975"
       ry="0.039999999"
       fill="currentColor"
       id="rect122" />
  </g>
  <a
     style="color:inherit"
     xlink:href="textedit:///Users/tomsegarra/Documents/dev/dummies/lilypond_files/c29df8fa9a2f6f8fa6131570a155d56c.ly:20:38:39"
     id="a130"
     transform="translate(-2.2771453,-3.2761233)">
    <g
       transform="translate(46.2397,9.0367)"
       id="g128">
      <path
         transform="scale(0.0034,-0.0034)"
         d="m 215,137 c 67,0 111,-37 111,-92 0,-90 -111,-182 -215,-182 -67,0 -111,37 -111,92 0,90 111,182 215,182 z"
         fill="currentColor"
         id="path126" />
    </g>
  </a>
  <a
     style="color:inherit"
     xlink:href="textedit:///Users/tomsegarra/Documents/dev/dummies/lilypond_files/c29df8fa9a2f6f8fa6131570a155d56c.ly:23:50:51"
     id="a138"
     transform="translate(-2.2771453,-3.2761233)">
    <g
       transform="translate(45.513,11.9867)"
       id="g136">
      <text
         font-family="serif"
         font-size="2.0989px"
         text-anchor="start"
         fill="currentColor"
         id="text134"><tspan
           id="tspan132">the</tspan></text>
    </g>
  </a>
  <g
     transform="translate(45.008255,3.2105767)"
     id="g142">
    <rect
       x="-0.061700001"
       y="0"
       width="0.1233"
       height="2.3975"
       ry="0.039999999"
       fill="currentColor"
       id="rect140" />
  </g>
  <a
     style="color:inherit"
     xlink:href="textedit:///Users/tomsegarra/Documents/dev/dummies/lilypond_files/c29df8fa9a2f6f8fa6131570a155d56c.ly:23:35:36"
     id="a148"
     transform="translate(-2.2771453,-3.2761233)">
    <g
       transform="translate(31.7505,11.9867)"
       id="g146">
      <rect
         x="0"
         y="-0.54329997"
         width="0.66000003"
         height="0.1233"
         ry="0.037900001"
         fill="currentColor"
         id="rect144" />
    </g>
  </a>
  <a
     style="color:inherit"
     xlink:href="textedit:///Users/tomsegarra/Documents/dev/dummies/lilypond_files/c29df8fa9a2f6f8fa6131570a155d56c.ly:20:20:21"
     id="a154"
     transform="translate(-2.2771453,-3.2761233)">
    <g
       transform="translate(28.351,6.4867)"
       id="g152">
      <path
         stroke-width="0.0759"
         stroke-linejoin="round"
         stroke-linecap="round"
         stroke="currentColor"
         fill="currentColor"
         d="m 0.7537,2.375 c 0.6843,0.7162 2.5405,0.7162 3.2248,0 v 0 c -0.6843,0.6024 -2.5405,0.6024 -3.2248,0 z"
         id="path150" />
    </g>
  </a>
  <a
     style="color:inherit"
     xlink:href="textedit:///Users/tomsegarra/Documents/dev/dummies/lilypond_files/c29df8fa9a2f6f8fa6131570a155d56c.ly:20:42:43"
     id="a160"
     transform="translate(-2.2771453,-3.2761233)">
    <g
       transform="translate(50.0699,6.9117)"
       id="g158">
      <path
         transform="scale(0.0034,-0.0034)"
         d="m 215,137 c 67,0 111,-37 111,-92 0,-90 -111,-182 -215,-182 -67,0 -111,37 -111,92 0,90 111,182 215,182 z"
         fill="currentColor"
         id="path156" />
    </g>
  </a>
  <a
     style="color:inherit"
     xlink:href="textedit:///Users/tomsegarra/Documents/dev/dummies/lilypond_files/c29df8fa9a2f6f8fa6131570a155d56c.ly:23:54:55"
     id="a168"
     transform="translate(-2.2771453,-3.2761233)">
    <g
       transform="translate(48.5238,11.9867)"
       id="g166">
      <text
         font-family="serif"
         font-size="2.0989px"
         text-anchor="start"
         fill="currentColor"
         id="text164"><tspan
           id="tspan162">wind</tspan></text>
    </g>
  </a>
  <g
     transform="translate(48.838455,3.2105767)"
     id="g172">
    <rect
       x="-0.061700001"
       y="-2.55"
       width="0.1233"
       height="2.8225"
       ry="0.039999999"
       fill="currentColor"
       id="rect170" />
  </g>
  <g
     transform="translate(24.750555,2.5170767)"
     id="g176">
    <polygon
       stroke-linejoin="round"
       stroke-linecap="round"
       stroke-width="0.08"
       fill="currentColor"
       stroke="currentColor"
       points="0.04,0.164 0.04,-0.164 2.3907,-0.4771 2.3907,-0.1491 "
       id="polygon174" />
  </g>
  <a
     style="color:inherit"
     xlink:href="textedit:///Users/tomsegarra/Documents/dev/dummies/lilypond_files/c29df8fa9a2f6f8fa6131570a155d56c.ly:20:46:47"
     id="a182"
     transform="translate(-2.2771453,-3.2761233)">
    <g
       transform="translate(54.1391,6.9117)"
       id="g180">
      <path
         transform="scale(0.0034,-0.0034)"
         d="m 215,137 c 67,0 111,-37 111,-92 0,-90 -111,-182 -215,-182 -67,0 -111,37 -111,92 0,90 111,182 215,182 z"
         fill="currentColor"
         id="path178" />
    </g>
  </a>
  <a
     style="color:inherit"
     xlink:href="textedit:///Users/tomsegarra/Documents/dev/dummies/lilypond_files/c29df8fa9a2f6f8fa6131570a155d56c.ly:23:59:60"
     id="a190"
     transform="translate(-2.2771453,-3.2761233)">
    <g
       transform="translate(53.1734,11.9867)"
       id="g188">
      <text
         font-family="serif"
         font-size="2.0989px"
         text-anchor="start"
         fill="currentColor"
         id="text186"><tspan
           id="tspan184">and</tspan></text>
    </g>
  </a>
  <g
     transform="translate(52.907655,3.2105767)"
     id="g194">
    <rect
       x="-0.061700001"
       y="-2.3934"
       width="0.1233"
       height="2.6659999"
       ry="0.039999999"
       fill="currentColor"
       id="rect192" />
  </g>
  <a
     style="color:inherit"
     xlink:href="textedit:///Users/tomsegarra/Documents/dev/dummies/lilypond_files/c29df8fa9a2f6f8fa6131570a155d56c.ly:20:49:50"
     id="a200"
     transform="translate(-2.2771453,-3.2761233)">
    <g
       transform="translate(57.3888,6.9117)"
       id="g198">
      <path
         transform="scale(0.0034,-0.0034)"
         d="m 215,137 c 67,0 111,-37 111,-92 0,-90 -111,-182 -215,-182 -67,0 -111,37 -111,92 0,90 111,182 215,182 z"
         fill="currentColor"
         id="path196" />
    </g>
  </a>
  <a
     style="color:inherit"
     xlink:href="textedit:///Users/tomsegarra/Documents/dev/dummies/lilypond_files/c29df8fa9a2f6f8fa6131570a155d56c.ly:23:63:64"
     id="a208"
     transform="translate(-2.2771453,-3.2761233)">
    <g
       transform="translate(56.6621,11.9867)"
       id="g206">
      <text
         font-family="serif"
         font-size="2.0989px"
         text-anchor="start"
         fill="currentColor"
         id="text204"><tspan
           id="tspan202">the</tspan></text>
    </g>
  </a>
  <g
     transform="translate(56.157355,3.2105767)"
     id="g212">
    <rect
       x="-0.061700001"
       y="-2.3934"
       width="0.1233"
       height="2.6659999"
       ry="0.039999999"
       fill="currentColor"
       id="rect210" />
  </g>
  <a
     style="color:inherit"
     xlink:href="textedit:///Users/tomsegarra/Documents/dev/dummies/lilypond_files/c29df8fa9a2f6f8fa6131570a155d56c.ly:20:51:52"
     id="a218"
     transform="translate(-2.2771453,-3.2761233)">
    <g
       transform="translate(60.5874,6.4867)"
       id="g216">
      <path
         transform="scale(0.0034,-0.0034)"
         d="m 215,137 c 67,0 111,-37 111,-92 0,-90 -111,-182 -215,-182 -67,0 -111,37 -111,92 0,90 111,182 215,182 z"
         fill="currentColor"
         id="path214" />
    </g>
  </a>
  <a
     style="color:inherit"
     xlink:href="textedit:///Users/tomsegarra/Documents/dev/dummies/lilypond_files/c29df8fa9a2f6f8fa6131570a155d56c.ly:23:67:68"
     id="a226"
     transform="translate(-2.2771453,-3.2761233)">
    <g
       transform="translate(59.6729,11.9867)"
       id="g224">
      <text
         font-family="serif"
         font-size="2.0989px"
         text-anchor="start"
         fill="currentColor"
         id="text222"><tspan
           id="tspan220">sun</tspan></text>
    </g>
  </a>
  <g
     transform="translate(58.371855,3.2105767)"
     id="g230">
    <rect
       x="-0.061700001"
       y="0.1525"
       width="0.1233"
       height="2.3975"
       ry="0.039999999"
       fill="currentColor"
       id="rect228" />
  </g>
  <a
     style="color:inherit"
     xlink:href="textedit:///Users/tomsegarra/Documents/dev/dummies/lilypond_files/c29df8fa9a2f6f8fa6131570a155d56c.ly:20:53:54"
     id="a236"
     transform="translate(-2.2771453,-3.2761233)">
    <g
       transform="translate(64.0249,6.4867)"
       id="g234">
      <path
         transform="scale(0.0034,-0.0034)"
         d="m 215,137 c 67,0 111,-37 111,-92 0,-90 -111,-182 -215,-182 -67,0 -111,37 -111,92 0,90 111,182 215,182 z"
         fill="currentColor"
         id="path232" />
    </g>
  </a>
  <a
     style="color:inherit"
     xlink:href="textedit:///Users/tomsegarra/Documents/dev/dummies/lilypond_files/c29df8fa9a2f6f8fa6131570a155d56c.ly:23:71:72"
     id="a244"
     transform="translate(-2.2771453,-3.2761233)">
    <g
       transform="translate(63.0592,11.9867)"
       id="g242">
      <text
         font-family="serif"
         font-size="2.0989px"
         text-anchor="start"
         fill="currentColor"
         id="text240"><tspan
           id="tspan238">and</tspan></text>
    </g>
  </a>
  <g
     transform="translate(61.809355,3.2105767)"
     id="g248">
    <rect
       x="-0.061700001"
       y="0.1525"
       width="0.1233"
       height="2.3975"
       ry="0.039999999"
       fill="currentColor"
       id="rect246" />
  </g>
  <a
     style="color:inherit"
     xlink:href="textedit:///Users/tomsegarra/Documents/dev/dummies/lilypond_files/c29df8fa9a2f6f8fa6131570a155d56c.ly:20:55:56"
     id="a254"
     transform="translate(-2.2771453,-3.2761233)">
    <g
       transform="translate(67.2746,6.4867)"
       id="g252">
      <path
         transform="scale(0.0034,-0.0034)"
         d="m 215,137 c 67,0 111,-37 111,-92 0,-90 -111,-182 -215,-182 -67,0 -111,37 -111,92 0,90 111,182 215,182 z"
         fill="currentColor"
         id="path250" />
    </g>
  </a>
  <a
     style="color:inherit"
     xlink:href="textedit:///Users/tomsegarra/Documents/dev/dummies/lilypond_files/c29df8fa9a2f6f8fa6131570a155d56c.ly:23:75:76"
     id="a262"
     transform="translate(-2.2771453,-3.2761233)">
    <g
       transform="translate(66.548,11.9867)"
       id="g260">
      <text
         font-family="serif"
         font-size="2.0989px"
         text-anchor="start"
         fill="currentColor"
         id="text258"><tspan
           id="tspan256">the</tspan></text>
    </g>
  </a>
  <g
     transform="translate(65.059155,3.2105767)"
     id="g266">
    <rect
       x="-0.061700001"
       y="0.1525"
       width="0.1233"
       height="2.3975"
       ry="0.039999999"
       fill="currentColor"
       id="rect264" />
  </g>
  <a
     style="color:inherit"
     xlink:href="textedit:///Users/tomsegarra/Documents/dev/dummies/lilypond_files/c29df8fa9a2f6f8fa6131570a155d56c.ly:20:57:58"
     id="a272"
     transform="translate(-2.2771453,-3.2761233)">
    <g
       transform="translate(69.582,6.0617)"
       id="g270">
      <path
         transform="scale(0.0034,-0.0034)"
         d="m 215,137 c 67,0 111,-37 111,-92 0,-90 -111,-182 -215,-182 -67,0 -111,37 -111,92 0,90 111,182 215,182 z"
         fill="currentColor"
         id="path268" />
    </g>
  </a>
  <a
     style="color:inherit"
     xlink:href="textedit:///Users/tomsegarra/Documents/dev/dummies/lilypond_files/c29df8fa9a2f6f8fa6131570a155d56c.ly:23:79:80"
     id="a280"
     transform="translate(-2.2771453,-3.2761233)">
    <g
       transform="translate(69.582,11.9867)"
       id="g278">
      <text
         font-family="serif"
         font-size="2.0989px"
         text-anchor="start"
         fill="currentColor"
         id="text276"><tspan
           id="tspan274">rain</tspan></text>
    </g>
  </a>
  <g
     transform="translate(67.366555,3.2105767)"
     id="g284">
    <rect
       x="-0.061700001"
       y="-0.27250001"
       width="0.1233"
       height="2.8225"
       ry="0.039999999"
       fill="currentColor"
       id="rect282" />
  </g>
  <g
     transform="translate(39.249455,3.2105767)"
     id="g288">
    <polygon
       stroke-linejoin="round"
       stroke-linecap="round"
       stroke-width="0.08"
       fill="currentColor"
       stroke="currentColor"
       points="0.04,0.164 0.04,-0.164 5.7804,-0.164 5.7804,0.164 "
       id="polygon286" />
  </g>
  <a
     style="color:inherit"
     xlink:href="textedit:///Users/tomsegarra/Documents/dev/dummies/lilypond_files/c29df8fa9a2f6f8fa6131570a155d56c.ly:20:62:63"
     id="a294"
     transform="translate(-2.2771453,-3.2761233)">
    <g
       transform="translate(72.9337,6.0617)"
       id="g292">
      <path
         transform="scale(0.0034,-0.0034)"
         d="m 215,137 c 67,0 111,-37 111,-92 0,-90 -111,-182 -215,-182 -67,0 -111,37 -111,92 0,90 111,182 215,182 z"
         fill="currentColor"
         id="path290" />
    </g>
  </a>
  <g
     transform="translate(70.718255,3.2105767)"
     id="g298">
    <rect
       x="-0.061700001"
       y="-0.27250001"
       width="0.1233"
       height="2.8225"
       ry="0.039999999"
       fill="currentColor"
       id="rect296" />
  </g>
  <a
     style="color:inherit"
     xlink:href="textedit:///Users/tomsegarra/Documents/dev/dummies/lilypond_files/c29df8fa9a2f6f8fa6131570a155d56c.ly:20:8:9"
     id="a304"
     transform="translate(-2.2771453,-3.2761233)">
    <g
       transform="translate(14.1946,6.9117)"
       id="g302">
      <path
         transform="scale(0.0034,-0.0034)"
         d="m 215,137 c 67,0 111,-37 111,-92 0,-90 -111,-182 -215,-182 -67,0 -111,37 -111,92 0,90 111,182 215,182 z"
         fill="currentColor"
         id="path300" />
    </g>
  </a>
  <a
     style="color:inherit"
     xlink:href="textedit:///Users/tomsegarra/Documents/dev/dummies/lilypond_files/c29df8fa9a2f6f8fa6131570a155d56c.ly:23:11:12"
     id="a312"
     transform="translate(-2.2771453,-3.2761233)">
    <g
       transform="translate(12.8704,11.9867)"
       id="g310">
      <text
         font-family="serif"
         font-size="2.0989px"
         text-anchor="start"
         fill="currentColor"
         id="text308"><tspan
           id="tspan306">sons</tspan></text>
    </g>
  </a>
  <g
     transform="translate(12.963155,3.2105767)"
     id="g316">
    <rect
       x="-0.061700001"
       y="-2.3934"
       width="0.1233"
       height="2.6659999"
       ry="0.039999999"
       fill="currentColor"
       id="rect314" />
  </g>
  <g
     transform="translate(52.845955,0.81707666)"
     id="g320">
    <polygon
       stroke-linejoin="round"
       stroke-linecap="round"
       stroke-width="0.08"
       fill="currentColor"
       stroke="currentColor"
       points="0.04,0.164 0.04,-0.164 3.3331,-0.164 3.3331,0.164 "
       id="polygon318" />
  </g>
  <a
     style="color:inherit"
     xlink:href="textedit:///Users/tomsegarra/Documents/dev/dummies/lilypond_files/c29df8fa9a2f6f8fa6131570a155d56c.ly:20:10:11"
     id="a326"
     transform="translate(-2.2771453,-3.2761233)">
    <g
       transform="translate(18.5881,6.9117)"
       id="g324">
      <path
         transform="scale(0.0034,-0.0034)"
         d="m 215,137 c 67,0 111,-37 111,-92 0,-90 -111,-182 -215,-182 -67,0 -111,37 -111,92 0,90 111,182 215,182 z"
         fill="currentColor"
         id="path322" />
    </g>
  </a>
  <a
     style="color:inherit"
     xlink:href="textedit:///Users/tomsegarra/Documents/dev/dummies/lilypond_files/c29df8fa9a2f6f8fa6131570a155d56c.ly:23:16:17"
     id="a334"
     transform="translate(-2.2771453,-3.2761233)">
    <g
       transform="translate(17.0761,11.9867)"
       id="g332">
      <text
         font-family="serif"
         font-size="2.0989px"
         text-anchor="start"
         fill="currentColor"
         id="text330"><tspan
           id="tspan328">don't</tspan></text>
    </g>
  </a>
  <g
     transform="translate(17.356755,3.2105767)"
     id="g338">
    <rect
       x="-0.061700001"
       y="-2.55"
       width="0.1233"
       height="2.8225"
       ry="0.039999999"
       fill="currentColor"
       id="rect336" />
  </g>
  <a
     style="color:inherit"
     xlink:href="textedit:///Users/tomsegarra/Documents/dev/dummies/lilypond_files/c29df8fa9a2f6f8fa6131570a155d56c.ly:20:13:14"
     id="a344"
     transform="translate(-2.2771453,-3.2761233)">
    <g
       transform="translate(22.7085,7.3367)"
       id="g342">
      <path
         transform="scale(0.0034,-0.0034)"
         d="m 215,137 c 67,0 111,-37 111,-92 0,-90 -111,-182 -215,-182 -67,0 -111,37 -111,92 0,90 111,182 215,182 z"
         fill="currentColor"
         id="path340" />
    </g>
  </a>
  <a
     style="color:inherit"
     xlink:href="textedit:///Users/tomsegarra/Documents/dev/dummies/lilypond_files/c29df8fa9a2f6f8fa6131570a155d56c.ly:23:22:23"
     id="a352"
     transform="translate(-2.2771453,-3.2761233)">
    <g
       transform="translate(21.6575,11.9867)"
       id="g350">
      <text
         font-family="serif"
         font-size="2.0989px"
         text-anchor="start"
         fill="currentColor"
         id="text348"><tspan
           id="tspan346">fear</tspan></text>
    </g>
  </a>
  <g
     transform="translate(21.477155,3.2105767)"
     id="g356">
    <rect
       x="-0.061700001"
       y="-2.125"
       width="0.1233"
       height="2.8225"
       ry="0.039999999"
       fill="currentColor"
       id="rect354" />
  </g>
  <a
     style="color:inherit"
     xlink:href="textedit:///Users/tomsegarra/Documents/dev/dummies/lilypond_files/c29df8fa9a2f6f8fa6131570a155d56c.ly:20:15:16"
     id="a362"
     transform="translate(-2.2771453,-3.2761233)">
    <g
       transform="translate(26.0436,8.6117)"
       id="g360">
      <path
         transform="scale(0.0034,-0.0034)"
         d="m 215,137 c 67,0 111,-37 111,-92 0,-90 -111,-182 -215,-182 -67,0 -111,37 -111,92 0,90 111,182 215,182 z"
         fill="currentColor"
         id="path358" />
    </g>
  </a>
  <a
     style="color:inherit"
     xlink:href="textedit:///Users/tomsegarra/Documents/dev/dummies/lilypond_files/c29df8fa9a2f6f8fa6131570a155d56c.ly:23:27:28"
     id="a370"
     transform="translate(-2.2771453,-3.2761233)">
    <g
       transform="translate(25.317,11.9867)"
       id="g368">
      <text
         font-family="serif"
         font-size="2.0989px"
         text-anchor="start"
         fill="currentColor"
         id="text366"><tspan
           id="tspan364">the</tspan></text>
    </g>
  </a>
  <g
     transform="translate(24.812255,3.2105767)"
     id="g374">
    <rect
       x="-0.061700001"
       y="-0.70139998"
       width="0.1233"
       height="2.6738999"
       ry="0.039999999"
       fill="currentColor"
       id="rect372" />
  </g>
  <a
     style="color:inherit"
     xlink:href="textedit:///Users/tomsegarra/Documents/dev/dummies/lilypond_files/c29df8fa9a2f6f8fa6131570a155d56c.ly:20:18:19"
     id="a380"
     transform="translate(-2.2771453,-3.2761233)">
    <g
       transform="translate(28.351,8.1867)"
       id="g378">
      <path
         transform="scale(0.0034,-0.0034)"
         d="m 215,137 c 67,0 111,-37 111,-92 0,-90 -111,-182 -215,-182 -67,0 -111,37 -111,92 0,90 111,182 215,182 z"
         fill="currentColor"
         id="path376" />
    </g>
  </a>
  <a
     style="color:inherit"
     xlink:href="textedit:///Users/tomsegarra/Documents/dev/dummies/lilypond_files/c29df8fa9a2f6f8fa6131570a155d56c.ly:23:31:32"
     id="a388"
     transform="translate(-2.2771453,-3.2761233)">
    <g
       transform="translate(28.351,11.9867)"
       id="g386">
      <text
         font-family="serif"
         font-size="2.0989px"
         text-anchor="start"
         fill="currentColor"
         id="text384"><tspan
           id="tspan382">rea</tspan></text>
    </g>
  </a>
  <g
     transform="translate(27.119655,3.2105767)"
     id="g392">
    <rect
       x="-0.061700001"
       y="-0.99860001"
       width="0.1233"
       height="2.5462"
       ry="0.039999999"
       fill="currentColor"
       id="rect390" />
  </g>
  <a
     style="color:inherit"
     xlink:href="textedit:///Users/tomsegarra/Documents/dev/dummies/lilypond_files/c29df8fa9a2f6f8fa6131570a155d56c.ly:20:58:59"
     id="a398"
     transform="translate(-2.2771453,-3.2761233)">
    <g
       transform="translate(69.582,6.4867)"
       id="g396">
      <path
         stroke-width="0.0759"
         stroke-linejoin="round"
         stroke-linecap="round"
         stroke="currentColor"
         fill="currentColor"
         d="m 0.7537,-1.0413 c 0.6451,-0.691 2.3066,-0.691 2.9517,0 v 0 c -0.6451,-0.5771 -2.3066,-0.5771 -2.9517,0 z"
         id="path394" />
    </g>
  </a>
  <g
     transform="translate(58.310255,5.7605767)"
     id="g402">
    <polygon
       stroke-linejoin="round"
       stroke-linecap="round"
       stroke-width="0.08"
       fill="currentColor"
       stroke="currentColor"
       points="0.04,0.164 0.04,-0.164 9.078,-0.164 9.078,0.164 "
       id="polygon400" />
  </g>
  <a
     style="color:inherit"
     xlink:href="textedit:///Users/tomsegarra/Documents/dev/dummies/lilypond_files/c29df8fa9a2f6f8fa6131570a155d56c.ly:20:24:25"
     id="a408"
     transform="translate(-2.2771453,-3.2761233)">
    <g
       transform="translate(31.9758,8.1867)"
       id="g406">
      <path
         transform="scale(0.0034,-0.0034)"
         d="m 215,137 c 67,0 111,-37 111,-92 0,-90 -111,-182 -215,-182 -67,0 -111,37 -111,92 0,90 111,182 215,182 z"
         fill="currentColor"
         id="path404" />
    </g>
  </a>
  <g
     transform="translate(30.744455,3.2105767)"
     id="g412">
    <rect
       x="-0.061700001"
       y="-1.275"
       width="0.1233"
       height="2.8225"
       ry="0.039999999"
       fill="currentColor"
       id="rect410" />
  </g>
  <g
     transform="translate(30.806055,1.9755767)"
     id="g416">
    <path
       transform="scale(0.0034,-0.0034)"
       d="m 0,0 c 0,-197 207,-335 207,-532 0,-71 -15,-141 -41,-207 -5,-8 -13,-12 -21,-12 -14,0 -27,11 -24,28 26,60 42,125 42,191 0,103 -93,207 -163,282 H -18 V 0 Z"
       fill="currentColor"
       id="path414" />
  </g>
  <a
     style="color:inherit"
     xlink:href="textedit:///Users/tomsegarra/Documents/dev/dummies/lilypond_files/c29df8fa9a2f6f8fa6131570a155d56c.ly:20:26:27"
     id="a422"
     transform="translate(-2.2771453,-3.2761233)">
    <g
       transform="translate(34.2832,7.3367)"
       id="g420">
      <path
         transform="scale(0.0034,-0.0034)"
         d="m 215,137 c 67,0 111,-37 111,-92 0,-90 -111,-182 -215,-182 -67,0 -111,37 -111,92 0,90 111,182 215,182 z"
         fill="currentColor"
         id="path418" />
    </g>
  </a>
  <a
     style="color:inherit"
     xlink:href="textedit:///Users/tomsegarra/Documents/dev/dummies/lilypond_files/c29df8fa9a2f6f8fa6131570a155d56c.ly:23:38:39"
     id="a430"
     transform="translate(-2.2771453,-3.2761233)">
    <g
       transform="translate(33.2834,11.9867)"
       id="g428">
      <text
         font-family="serif"
         font-size="2.0989px"
         text-anchor="start"
         fill="currentColor"
         id="text426"><tspan
           id="tspan424">per,</tspan></text>
    </g>
  </a>
  <g
     transform="translate(33.492555,3.6355767)"
     id="g434">
    <path
       transform="scale(0.0034,-0.0034)"
       d="M 0,0 C 0,31 25,56 56,56 87,56 111,31 111,0 111,-31 87,-56 56,-56 25,-56 0,-31 0,0 Z"
       fill="currentColor"
       id="path432" />
  </g>
</svg>
