<?xml version="1.0" encoding="UTF-8" standalone="no"?>
<svg
   version="1.2"
   width="57.010254mm"
   height="16.102934mm"
   viewBox="0 0 32.44235 9.1634586"
   id="svg194"
   sodipodi:docname="c96c286d5f0412162077c510262e103a.svg"
   xmlns:inkscape="http://www.inkscape.org/namespaces/inkscape"
   xmlns:sodipodi="http://sodipodi.sourceforge.net/DTD/sodipodi-0.dtd"
   xmlns:xlink="http://www.w3.org/1999/xlink"
   xmlns="http://www.w3.org/2000/svg"
   xmlns:svg="http://www.w3.org/2000/svg">
  <defs
     id="defs198" />
  <sodipodi:namedview
     id="namedview196"
     pagecolor="#ffffff"
     bordercolor="#000000"
     borderopacity="0.25"
     inkscape:showpageshadow="2"
     inkscape:pageopacity="0.0"
     inkscape:pagecheckerboard="0"
     inkscape:deskcolor="#d1d1d1"
     inkscape:document-units="mm" />
  <style
     type="text/css"
     id="style2"><![CDATA[
tspan { white-space: pre; }
]]></style>
  <!-- Page: 1/1 -->
  <g
     transform="translate(4.9997121e-5,0.6596211)"
     id="g6">
    <rect
       x="21.164499"
       y="-0.089900002"
       width="1.6611"
       height="0.17990001"
       ry="0.089900002"
       fill="currentColor"
       id="rect4" />
  </g>
  <g
     transform="translate(4.9997121e-5,4.9096211)"
     id="g10">
    <line
       stroke-linejoin="round"
       stroke-linecap="round"
       stroke-width="0.0949"
       stroke="currentColor"
       x1="0.047400001"
       y1="0"
       x2="32.394798"
       y2="0"
       id="line8" />
  </g>
  <g
     transform="translate(4.9997121e-5,4.0596211)"
     id="g14">
    <line
       stroke-linejoin="round"
       stroke-linecap="round"
       stroke-width="0.0949"
       stroke="currentColor"
       x1="0.047400001"
       y1="0"
       x2="32.394798"
       y2="0"
       id="line12" />
  </g>
  <g
     transform="translate(4.9997121e-5,3.2096211)"
     id="g18">
    <line
       stroke-linejoin="round"
       stroke-linecap="round"
       stroke-width="0.0949"
       stroke="currentColor"
       x1="0.047400001"
       y1="0"
       x2="32.394798"
       y2="0"
       id="line16" />
  </g>
  <g
     transform="translate(4.9997121e-5,2.3596211)"
     id="g22">
    <line
       stroke-linejoin="round"
       stroke-linecap="round"
       stroke-width="0.0949"
       stroke="currentColor"
       x1="0.047400001"
       y1="0"
       x2="32.394798"
       y2="0"
       id="line20" />
  </g>
  <g
     transform="translate(4.9997121e-5,1.5096211)"
     id="g26">
    <line
       stroke-linejoin="round"
       stroke-linecap="round"
       stroke-width="0.0949"
       stroke="currentColor"
       x1="0.047400001"
       y1="0"
       x2="32.394798"
       y2="0"
       id="line24" />
  </g>
  <g
     transform="translate(32.26215,3.2096211)"
     id="g30">
    <rect
       x="0"
       y="-1.7"
       width="0.1802"
       height="3.4000001"
       ry="0.0000"
       fill="currentColor"
       id="rect28" />
  </g>
  <a
     style="color:inherit"
     xlink:href="textedit:///Users/tomsegarra/Documents/dev/dummies/lilypond_files/c96c286d5f0412162077c510262e103a.ly:20:4:5"
     id="a36"
     transform="translate(-2.27615,-3.2770789)">
    <g
       transform="translate(13.535,6.4867)"
       id="g34">
      <path
         transform="scale(0.0034,-0.0034)"
         d="m 70,205 c 80,0 46,-97 90,-97 15,0 52,45 59,59 6,13 26,13 31,0 L 129,-250 c -9,-7 -19,-11 -30,-11 -11,0 -21,4 -30,11 L 187,76 C 154,64 119,54 84,54 37,54 -3,88 -3,133 c 0,40 33,72 73,72 z"
         fill="currentColor"
         id="path32" />
    </g>
  </a>
  <g
     transform="translate(0.80005,4.0596211)"
     id="g40">
    <path
       transform="scale(0.0034,-0.0034)"
       d="m 646,2 c 0,-113 -74,-213 -180,-247 3,-34 5,-68 5,-102 0,-20 -1,-40 -2,-60 -7,-121 -91,-228 -209,-228 -108,0 -196,87 -196,196 0,58 53,104 112,104 54,0 95,-48 95,-104 0,-52 -43,-95 -95,-95 -10,0 -20,2 -29,6 26,-38 68,-63 116,-63 h 3 c 93,2 153,92 159,190 1,19 2,37 2,56 0,30 -2,60 -4,90 -5,-1 -43,-8 -88,-8 -194,0 -333,180 -333,375 0,177 130,307 246,442 -31,98 -53,170 -53,347 0,115 55,223 148,290 7,5 16,4 22,-1 68,-80 134,-243 134,-357 0,-143 -85,-255 -178,-364 21,-68 40,-137 57,-206 1,0 5,1 11,1 C 545,264 646,135 646,2 Z M 462,-202 c 66,24 111,88 111,162 0,89 -65,178 -170,190 28,-135 50,-272 59,-352 z M 75,26 c 0,-145 141,-245 263,-245 1,0 46,0 81,6 -7,65 -27,206 -61,363 -79,-8 -124,-61 -124,-119 0,-43 25,-89 80,-121 5,-5 7,-11 7,-16 0,-12 -10,-23 -22,-23 -16,0 -127,63 -127,188 0,89 58,175 161,198 -14,58 -29,116 -46,173 C 181,308 75,186 75,26 Z M 406,1042 C 307,995 244,894 244,785 c 0,-49 13,-111 38,-191 79,97 144,199 144,324 0,33 0,63 -20,124 z"
       fill="currentColor"
       id="path38" />
  </g>
  <a
     style="color:inherit"
     xlink:href="textedit:///Users/tomsegarra/Documents/dev/dummies/lilypond_files/c96c286d5f0412162077c510262e103a.ly:19:1:9"
     id="a54"
     transform="translate(-2.27615,-3.2770789)">
    <g
       transform="translate(6.6864,6.4867)"
       id="g44">
      <path
         transform="scale(0.0034,-0.0034)"
         d="m 29,39 -2,-64 v -11 c 0,-22 2,-43 5,-65 44,38 91,80 91,138 0,33 -13,66 -42,66 C 50,103 30,72 29,39 Z m -57,415 c 9,5 18,8 28,8 10,0 19,-3 28,-8 L 21,111 c 25,23 58,36 92,36 51,0 87,-49 87,-103 0,-79 -84,-117 -144,-169 -16,-14 -25,-41 -47,-41 -14,0 -25,13 -25,27 z"
         fill="currentColor"
         id="path42" />
    </g>
    <g
       transform="translate(7.4766,5.2117)"
       id="g48">
      <path
         transform="scale(0.0034,-0.0034)"
         d="m 29,39 -2,-64 v -11 c 0,-22 2,-43 5,-65 44,38 91,80 91,138 0,33 -13,66 -42,66 C 50,103 30,72 29,39 Z m -57,415 c 9,5 18,8 28,8 10,0 19,-3 28,-8 L 21,111 c 25,23 58,36 92,36 51,0 87,-49 87,-103 0,-79 -84,-117 -144,-169 -16,-14 -25,-41 -47,-41 -14,0 -25,13 -25,27 z"
         fill="currentColor"
         id="path46" />
    </g>
    <g
       transform="translate(8.2668,6.9117)"
       id="g52">
      <path
         transform="scale(0.0034,-0.0034)"
         d="m 29,39 -2,-64 v -11 c 0,-22 2,-43 5,-65 44,38 91,80 91,138 0,33 -13,66 -42,66 C 50,103 30,72 29,39 Z m -57,415 c 9,5 18,8 28,8 10,0 19,-3 28,-8 L 21,111 c 25,23 58,36 92,36 51,0 87,-49 87,-103 0,-79 -84,-117 -144,-169 -16,-14 -25,-41 -47,-41 -14,0 -25,13 -25,27 z"
         fill="currentColor"
         id="path50" />
    </g>
  </a>
  <g
     transform="translate(7.82065,3.2096211)"
     id="g58">
    <path
       transform="scale(0.0034,-0.0034)"
       d="m 358,29 c -30,0 -74,23 -74,73 0,38 27,76 71,76 4,0 7,0 11,-1 -27,36 -69,59 -116,59 -106,0 -113,-74 -113,-188 0,-15 1,-31 1,-48 0,-17 -1,-33 -1,-48 0,-114 7,-188 113,-188 79,0 136,70 155,150 2,7 7,10 13,10 7,0 14,-5 14,-13 0,-21 -50,-175 -182,-175 C 191,-264 0,-244 0,0 0,63 18,264 250,264 365,264 424,155 424,99 424,60 394,29 358,29 Z"
       fill="currentColor"
       id="path56" />
  </g>
  <a
     style="color:inherit"
     xlink:href="textedit:///Users/tomsegarra/Documents/dev/dummies/lilypond_files/c96c286d5f0412162077c510262e103a.ly:20:23:24"
     id="a64"
     transform="translate(-2.27615,-3.2770789)">
    <g
       transform="translate(32.4681,5.2117)"
       id="g62">
      <path
         transform="scale(0.0034,-0.0034)"
         d="m 215,137 c 67,0 111,-37 111,-92 0,-90 -111,-182 -215,-182 -67,0 -111,37 -111,92 0,90 111,182 215,182 z"
         fill="currentColor"
         id="path60" />
    </g>
  </a>
  <a
     style="color:inherit"
     xlink:href="textedit:///Users/tomsegarra/Documents/dev/dummies/lilypond_files/c96c286d5f0412162077c510262e103a.ly:23:30:31"
     id="a72"
     transform="translate(-2.27615,-3.2770789)">
    <g
       transform="translate(31.6731,11.9867)"
       id="g70">
      <text
         font-family="serif"
         font-size="2.0989px"
         text-anchor="start"
         fill="currentColor"
         id="text68"><tspan
           id="tspan66">ing</tspan></text>
    </g>
  </a>
  <g
     transform="translate(30.25355,3.2096211)"
     id="g76">
    <rect
       x="-0.061700001"
       y="-1.1224999"
       width="0.1233"
       height="2.1231999"
       ry="0.039999999"
       fill="currentColor"
       id="rect74" />
  </g>
  <g
     transform="translate(13.30885,3.9030211)"
     id="g80">
    <polygon
       stroke-linejoin="round"
       stroke-linecap="round"
       stroke-width="0.08"
       fill="currentColor"
       stroke="currentColor"
       points="0.04,0.164 0.04,-0.164 4.8124,-0.164 4.8124,0.164 "
       id="polygon78" />
  </g>
  <a
     style="color:inherit"
     xlink:href="textedit:///Users/tomsegarra/Documents/dev/dummies/lilypond_files/c96c286d5f0412162077c510262e103a.ly:20:7:8"
     id="a86"
     transform="translate(-2.27615,-3.2770789)">
    <g
       transform="translate(15.585,4.3617)"
       id="g84">
      <path
         transform="scale(0.0034,-0.0034)"
         d="m 215,137 c 67,0 111,-37 111,-92 0,-90 -111,-182 -215,-182 -67,0 -111,37 -111,92 0,90 111,182 215,182 z"
         fill="currentColor"
         id="path82" />
    </g>
  </a>
  <a
     style="color:inherit"
     xlink:href="textedit:///Users/tomsegarra/Documents/dev/dummies/lilypond_files/c96c286d5f0412162077c510262e103a.ly:23:4:5"
     id="a94"
     transform="translate(-2.27615,-3.2770789)">
    <g
       transform="translate(15.7973,11.9867)"
       id="g92">
      <text
         font-family="serif"
         font-size="2.0989px"
         text-anchor="start"
         fill="currentColor"
         id="text90"><tspan
           id="tspan88">I</tspan></text>
    </g>
  </a>
  <g
     transform="translate(13.37055,3.2096211)"
     id="g98">
    <rect
       x="-0.061700001"
       y="-1.9725"
       width="0.1233"
       height="2.6659999"
       ry="0.039999999"
       fill="currentColor"
       id="rect96" />
  </g>
  <a
     style="color:inherit"
     xlink:href="textedit:///Users/tomsegarra/Documents/dev/dummies/lilypond_files/c96c286d5f0412162077c510262e103a.ly:20:11:12"
     id="a104"
     transform="translate(-2.27615,-3.2770789)">
    <g
       transform="translate(17.8924,4.3617)"
       id="g102">
      <path
         transform="scale(0.0034,-0.0034)"
         d="m 215,137 c 67,0 111,-37 111,-92 0,-90 -111,-182 -215,-182 -67,0 -111,37 -111,92 0,90 111,182 215,182 z"
         fill="currentColor"
         id="path100" />
    </g>
  </a>
  <a
     style="color:inherit"
     xlink:href="textedit:///Users/tomsegarra/Documents/dev/dummies/lilypond_files/c96c286d5f0412162077c510262e103a.ly:23:6:7"
     id="a112"
     transform="translate(-2.27615,-3.2770789)">
    <g
       transform="translate(17.4559,11.9867)"
       id="g110">
      <text
         font-family="serif"
         font-size="2.0989px"
         text-anchor="start"
         fill="currentColor"
         id="text108"><tspan
           id="tspan106">ne</tspan></text>
    </g>
  </a>
  <g
     transform="translate(15.67785,3.2096211)"
     id="g116">
    <rect
       x="-0.061700001"
       y="-1.9725"
       width="0.1233"
       height="2.6659999"
       ry="0.039999999"
       fill="currentColor"
       id="rect114" />
  </g>
  <a
     style="color:inherit"
     xlink:href="textedit:///Users/tomsegarra/Documents/dev/dummies/lilypond_files/c96c286d5f0412162077c510262e103a.ly:20:13:14"
     id="a122"
     transform="translate(-2.27615,-3.2770789)">
    <g
       transform="translate(20.3141,4.3617)"
       id="g120">
      <path
         transform="scale(0.0034,-0.0034)"
         d="m 215,137 c 67,0 111,-37 111,-92 0,-90 -111,-182 -215,-182 -67,0 -111,37 -111,92 0,90 111,182 215,182 z"
         fill="currentColor"
         id="path118" />
    </g>
  </a>
  <a
     style="color:inherit"
     xlink:href="textedit:///Users/tomsegarra/Documents/dev/dummies/lilypond_files/c96c286d5f0412162077c510262e103a.ly:23:12:13"
     id="a130"
     transform="translate(-2.27615,-3.2770789)">
    <g
       transform="translate(19.5362,11.9867)"
       id="g128">
      <text
         font-family="serif"
         font-size="2.0989px"
         text-anchor="start"
         fill="currentColor"
         id="text126"><tspan
           id="tspan124">ver</tspan></text>
    </g>
  </a>
  <g
     transform="translate(18.09965,3.2096211)"
     id="g134">
    <rect
       x="-0.061700001"
       y="-1.9725"
       width="0.1233"
       height="2.6659999"
       ry="0.039999999"
       fill="currentColor"
       id="rect132" />
  </g>
  <g
     transform="translate(21.44135,3.3661211)"
     id="g138">
    <polygon
       stroke-linejoin="round"
       stroke-linecap="round"
       stroke-width="0.08"
       fill="currentColor"
       stroke="currentColor"
       points="0.04,0.164 0.04,-0.164 8.8338,0.686 8.8338,1.014 "
       id="polygon136" />
  </g>
  <a
     style="color:inherit"
     xlink:href="textedit:///Users/tomsegarra/Documents/dev/dummies/lilypond_files/c96c286d5f0412162077c510262e103a.ly:20:15:16"
     id="a144"
     transform="translate(-2.27615,-3.2770789)">
    <g
       transform="translate(23.7175,3.9367)"
       id="g142">
      <path
         transform="scale(0.0034,-0.0034)"
         d="m 215,137 c 67,0 111,-37 111,-92 0,-90 -111,-182 -215,-182 -67,0 -111,37 -111,92 0,90 111,182 215,182 z"
         fill="currentColor"
         id="path140" />
    </g>
  </a>
  <a
     style="color:inherit"
     xlink:href="textedit:///Users/tomsegarra/Documents/dev/dummies/lilypond_files/c96c286d5f0412162077c510262e103a.ly:23:16:17"
     id="a152"
     transform="translate(-2.27615,-3.2770789)">
    <g
       transform="translate(22.6494,11.9867)"
       id="g150">
      <text
         font-family="serif"
         font-size="2.0989px"
         text-anchor="start"
         fill="currentColor"
         id="text148"><tspan
           id="tspan146">saw</tspan></text>
    </g>
  </a>
  <g
     transform="translate(21.50305,3.2096211)"
     id="g156">
    <rect
       x="-0.061700001"
       y="-2.3975"
       width="0.1233"
       height="2.5599999"
       ry="0.039999999"
       fill="currentColor"
       id="rect154" />
  </g>
  <a
     style="color:inherit"
     xlink:href="textedit:///Users/tomsegarra/Documents/dev/dummies/lilypond_files/c96c286d5f0412162077c510262e103a.ly:20:19:20"
     id="a162"
     transform="translate(-2.27615,-3.2770789)">
    <g
       transform="translate(26.3698,4.3617)"
       id="g160">
      <path
         transform="scale(0.0034,-0.0034)"
         d="m 215,137 c 67,0 111,-37 111,-92 0,-90 -111,-182 -215,-182 -67,0 -111,37 -111,92 0,90 111,182 215,182 z"
         fill="currentColor"
         id="path158" />
    </g>
  </a>
  <a
     style="color:inherit"
     xlink:href="textedit:///Users/tomsegarra/Documents/dev/dummies/lilypond_files/c96c286d5f0412162077c510262e103a.ly:23:20:21"
     id="a170"
     transform="translate(-2.27615,-3.2770789)">
    <g
       transform="translate(26.343,11.9867)"
       id="g168">
      <text
         font-family="serif"
         font-size="2.0989px"
         text-anchor="start"
         fill="currentColor"
         id="text166"><tspan
           id="tspan164">it</tspan></text>
    </g>
  </a>
  <g
     transform="translate(24.15525,3.2096211)"
     id="g174">
    <rect
       x="-0.061700001"
       y="-1.9725"
       width="0.1233"
       height="2.3891001"
       ry="0.039999999"
       fill="currentColor"
       id="rect172" />
  </g>
  <a
     style="color:inherit"
     xlink:href="textedit:///Users/tomsegarra/Documents/dev/dummies/lilypond_files/c96c286d5f0412162077c510262e103a.ly:20:21:22"
     id="a180"
     transform="translate(-2.27615,-3.2770789)">
    <g
       transform="translate(29.2098,4.7867)"
       id="g178">
      <path
         transform="scale(0.0034,-0.0034)"
         d="m 215,137 c 67,0 111,-37 111,-92 0,-90 -111,-182 -215,-182 -67,0 -111,37 -111,92 0,90 111,182 215,182 z"
         fill="currentColor"
         id="path176" />
    </g>
  </a>
  <a
     style="color:inherit"
     xlink:href="textedit:///Users/tomsegarra/Documents/dev/dummies/lilypond_files/c96c286d5f0412162077c510262e103a.ly:23:23:24"
     id="a188"
     transform="translate(-2.27615,-3.2770789)">
    <g
       transform="translate(27.9539,11.9867)"
       id="g186">
      <text
         font-family="serif"
         font-size="2.0989px"
         text-anchor="start"
         fill="currentColor"
         id="text184"><tspan
           id="tspan182">com</tspan></text>
    </g>
  </a>
  <g
     transform="translate(26.99535,3.2096211)"
     id="g192">
    <rect
       x="-0.061700001"
       y="-1.5475"
       width="0.1233"
       height="2.2361"
       ry="0.039999999"
       fill="currentColor"
       id="rect190" />
  </g>
</svg>
