<?xml version="1.0" encoding="UTF-8" standalone="no"?>
<svg
   version="1.2"
   width="64.560181mm"
   height="16.1029mm"
   viewBox="0 0 36.738801 9.163439"
   id="svg226"
   sodipodi:docname="cfe4ad920f98c4c6edb551ca95ba6d86.svg"
   xmlns:inkscape="http://www.inkscape.org/namespaces/inkscape"
   xmlns:sodipodi="http://sodipodi.sourceforge.net/DTD/sodipodi-0.dtd"
   xmlns:xlink="http://www.w3.org/1999/xlink"
   xmlns="http://www.w3.org/2000/svg"
   xmlns:svg="http://www.w3.org/2000/svg">
  <defs
     id="defs230" />
  <sodipodi:namedview
     id="namedview228"
     pagecolor="#ffffff"
     bordercolor="#000000"
     borderopacity="0.25"
     inkscape:showpageshadow="2"
     inkscape:pageopacity="0.0"
     inkscape:pagecheckerboard="0"
     inkscape:deskcolor="#d1d1d1"
     inkscape:document-units="mm" />
  <style
     type="text/css"
     id="style2"><![CDATA[
tspan { white-space: pre; }
]]></style>
  <!-- Page: 1/1 -->
  <g
     transform="translate(36.55855,3.2094477)"
     id="g6">
    <rect
       x="0"
       y="-1.7"
       width="0.1802"
       height="3.4000001"
       ry="0.0000"
       fill="currentColor"
       id="rect4" />
  </g>
  <g
     transform="translate(4.9997121e-5,4.9094477)"
     id="g10">
    <line
       stroke-linejoin="round"
       stroke-linecap="round"
       stroke-width="0.0949"
       stroke="currentColor"
       x1="0.047400001"
       y1="0"
       x2="36.691299"
       y2="0"
       id="line8" />
  </g>
  <g
     transform="translate(4.9997121e-5,4.0594477)"
     id="g14">
    <line
       stroke-linejoin="round"
       stroke-linecap="round"
       stroke-width="0.0949"
       stroke="currentColor"
       x1="0.047400001"
       y1="0"
       x2="36.691299"
       y2="0"
       id="line12" />
  </g>
  <g
     transform="translate(4.9997121e-5,3.2094477)"
     id="g18">
    <line
       stroke-linejoin="round"
       stroke-linecap="round"
       stroke-width="0.0949"
       stroke="currentColor"
       x1="0.047400001"
       y1="0"
       x2="36.691299"
       y2="0"
       id="line16" />
  </g>
  <g
     transform="translate(4.9997121e-5,2.3594477)"
     id="g22">
    <line
       stroke-linejoin="round"
       stroke-linecap="round"
       stroke-width="0.0949"
       stroke="currentColor"
       x1="0.047400001"
       y1="0"
       x2="36.691299"
       y2="0"
       id="line20" />
  </g>
  <g
     transform="translate(4.9997121e-5,1.5094477)"
     id="g26">
    <line
       stroke-linejoin="round"
       stroke-linecap="round"
       stroke-width="0.0949"
       stroke="currentColor"
       x1="0.047400001"
       y1="0"
       x2="36.691299"
       y2="0"
       id="line24" />
  </g>
  <g
     transform="translate(18.25695,3.2094477)"
     id="g30">
    <rect
       x="0"
       y="-1.7"
       width="0.1802"
       height="3.4000001"
       ry="0.0000"
       fill="currentColor"
       id="rect28" />
  </g>
  <a
     style="color:inherit"
     xlink:href="textedit:///Users/tomsegarra/Documents/dev/dummies/lilypond_files/cfe4ad920f98c4c6edb551ca95ba6d86.ly:24:23:24"
     id="a36"
     transform="translate(-2.27615,-3.2772523)">
    <g
       transform="translate(13.0344,6.4867)"
       id="g34">
      <path
         stroke-width="0.0759"
         stroke-linejoin="round"
         stroke-linecap="round"
         stroke="currentColor"
         fill="currentColor"
         d="m 0.7537,-1.7 c 0.5162,-0.5952 1.6408,-0.5952 2.1571,0 v 0 c -0.5163,-0.4814 -1.6409,-0.4814 -2.1571,0 z"
         id="path32" />
    </g>
  </a>
  <a
     style="color:inherit"
     xlink:href="textedit:///Users/tomsegarra/Documents/dev/dummies/lilypond_files/cfe4ad920f98c4c6edb551ca95ba6d86.ly:24:27:28"
     id="a42"
     transform="translate(-2.27615,-3.2772523)">
    <g
       transform="translate(15.5915,5.6367)"
       id="g40">
      <path
         transform="scale(0.0034,-0.0034)"
         d="m 215,137 c 67,0 111,-37 111,-92 0,-90 -111,-182 -215,-182 -67,0 -111,37 -111,92 0,90 111,182 215,182 z"
         fill="currentColor"
         id="path38" />
    </g>
  </a>
  <g
     transform="translate(13.37695,3.2094477)"
     id="g46">
    <rect
       x="-0.061700001"
       y="-0.69749999"
       width="0.1233"
       height="2.7616"
       ry="0.039999999"
       fill="currentColor"
       id="rect44" />
  </g>
  <a
     style="color:inherit"
     xlink:href="textedit:///Users/tomsegarra/Documents/dev/dummies/lilypond_files/cfe4ad920f98c4c6edb551ca95ba6d86.ly:24:19:20"
     id="a52"
     transform="translate(-2.27615,-3.2772523)">
    <g
       transform="translate(13.0344,5.6367)"
       id="g50">
      <path
         transform="scale(0.0034,-0.0034)"
         d="m 215,137 c 67,0 111,-37 111,-92 0,-90 -111,-182 -215,-182 -67,0 -111,37 -111,92 0,90 111,182 215,182 z"
         fill="currentColor"
         id="path48" />
    </g>
  </a>
  <a
     style="color:inherit"
     xlink:href="textedit:///Users/tomsegarra/Documents/dev/dummies/lilypond_files/cfe4ad920f98c4c6edb551ca95ba6d86.ly:24:29:30"
     id="a58"
     transform="translate(-2.27615,-3.2772523)">
    <g
       transform="translate(17.8986,6.9117)"
       id="g56">
      <path
         transform="scale(0.0034,-0.0034)"
         d="m 215,137 c 67,0 111,-37 111,-92 0,-90 -111,-182 -215,-182 -67,0 -111,37 -111,92 0,90 111,182 215,182 z"
         fill="currentColor"
         id="path54" />
    </g>
  </a>
  <a
     style="color:inherit"
     xlink:href="textedit:///Users/tomsegarra/Documents/dev/dummies/lilypond_files/cfe4ad920f98c4c6edb551ca95ba6d86.ly:31:19:20"
     id="a66"
     transform="translate(-2.27615,-3.2772523)">
    <g
       transform="translate(16.5231,11.9867)"
       id="g64">
      <text
         font-family="serif"
         font-size="2.0989px"
         text-anchor="start"
         fill="currentColor"
         id="text62"><tspan
           id="tspan60">Sum</tspan></text>
    </g>
  </a>
  <g
     transform="translate(15.68405,3.2094477)"
     id="g70">
    <rect
       x="-0.061700001"
       y="0.57749999"
       width="0.1233"
       height="1.8074"
       ry="0.039999999"
       fill="currentColor"
       id="rect68" />
  </g>
  <g
     transform="translate(10.75825,4.9094477)"
     id="g74">
    <polygon
       stroke-linejoin="round"
       stroke-linecap="round"
       stroke-width="0.08"
       fill="currentColor"
       stroke="currentColor"
       points="0.04,0.164 0.04,-0.164 4.9475,0.5294 4.9475,0.8574 "
       id="polygon72" />
  </g>
  <a
     style="color:inherit"
     xlink:href="textedit:///Users/tomsegarra/Documents/dev/dummies/lilypond_files/cfe4ad920f98c4c6edb551ca95ba6d86.ly:25:4:5"
     id="a80"
     transform="translate(-2.27615,-3.2772523)">
    <g
       transform="translate(21.7714,6.9117)"
       id="g78">
      <path
         transform="scale(0.0034,-0.0034)"
         d="m 215,137 c 67,0 111,-37 111,-92 0,-90 -111,-182 -215,-182 -67,0 -111,37 -111,92 0,90 111,182 215,182 z"
         fill="currentColor"
         id="path76" />
    </g>
  </a>
  <a
     style="color:inherit"
     xlink:href="textedit:///Users/tomsegarra/Documents/dev/dummies/lilypond_files/cfe4ad920f98c4c6edb551ca95ba6d86.ly:31:26:27"
     id="a88"
     transform="translate(-2.27615,-3.2772523)">
    <g
       transform="translate(20.4813,11.9867)"
       id="g86">
      <text
         font-family="serif"
         font-size="2.0989px"
         text-anchor="start"
         fill="currentColor"
         id="text84"><tspan
           id="tspan82">mer,</tspan></text>
    </g>
  </a>
  <g
     transform="translate(20.98175,3.6344477)"
     id="g92">
    <path
       transform="scale(0.0034,-0.0034)"
       d="M 0,0 C 0,31 25,56 56,56 87,56 111,31 111,0 111,-31 87,-56 56,-56 25,-56 0,-31 0,0 Z"
       fill="currentColor"
       id="path90" />
  </g>
  <g
     transform="translate(20.54095,3.2094477)"
     id="g96">
    <rect
       x="-0.061700001"
       y="-2.55"
       width="0.1233"
       height="2.8225"
       ry="0.039999999"
       fill="currentColor"
       id="rect94" />
  </g>
  <g
     transform="translate(0.80005,4.0594477)"
     id="g100">
    <path
       transform="scale(0.0034,-0.0034)"
       d="m 646,2 c 0,-113 -74,-213 -180,-247 3,-34 5,-68 5,-102 0,-20 -1,-40 -2,-60 -7,-121 -91,-228 -209,-228 -108,0 -196,87 -196,196 0,58 53,104 112,104 54,0 95,-48 95,-104 0,-52 -43,-95 -95,-95 -10,0 -20,2 -29,6 26,-38 68,-63 116,-63 h 3 c 93,2 153,92 159,190 1,19 2,37 2,56 0,30 -2,60 -4,90 -5,-1 -43,-8 -88,-8 -194,0 -333,180 -333,375 0,177 130,307 246,442 -31,98 -53,170 -53,347 0,115 55,223 148,290 7,5 16,4 22,-1 68,-80 134,-243 134,-357 0,-143 -85,-255 -178,-364 21,-68 40,-137 57,-206 1,0 5,1 11,1 C 545,264 646,135 646,2 Z M 462,-202 c 66,24 111,88 111,162 0,89 -65,178 -170,190 28,-135 50,-272 59,-352 z M 75,26 c 0,-145 141,-245 263,-245 1,0 46,0 81,6 -7,65 -27,206 -61,363 -79,-8 -124,-61 -124,-119 0,-43 25,-89 80,-121 5,-5 7,-11 7,-16 0,-12 -10,-23 -22,-23 -16,0 -127,63 -127,188 0,89 58,175 161,198 -14,58 -29,116 -46,173 C 181,308 75,186 75,26 Z M 406,1042 C 307,995 244,894 244,785 c 0,-49 13,-111 38,-191 79,97 144,199 144,324 0,33 0,63 -20,124 z"
       fill="currentColor"
       id="path98" />
  </g>
  <g
     color="#ff0000"
     id="g108"
     transform="translate(-2.27615,-3.2772523)">
    <a
       style="color:inherit"
       xlink:href="textedit:///Users/tomsegarra/Documents/dev/dummies/lilypond_files/cfe4ad920f98c4c6edb551ca95ba6d86.ly:29:4:5"
       id="a106">
      <g
         transform="translate(26.6088,6.9117)"
         id="g104">
        <path
           transform="scale(0.0034,-0.0034)"
           d="m 215,137 c 67,0 111,-37 111,-92 0,-90 -111,-182 -215,-182 -67,0 -111,37 -111,92 0,90 111,182 215,182 z"
           fill="currentColor"
           id="path102" />
      </g>
    </a>
  </g>
  <a
     style="color:inherit"
     xlink:href="textedit:///Users/tomsegarra/Documents/dev/dummies/lilypond_files/cfe4ad920f98c4c6edb551ca95ba6d86.ly:31:31:32"
     id="a116"
     transform="translate(-2.27615,-3.2772523)">
    <g
       transform="translate(24.6188,11.9867)"
       id="g114">
      <text
         font-family="serif"
         font-size="2.0989px"
         text-anchor="start"
         fill="currentColor"
         id="text112"><tspan
           id="tspan110">where</tspan></text>
    </g>
  </a>
  <g
     color="#ff0000"
     id="g122"
     transform="translate(-2.27615,-3.2772523)">
    <g
       transform="translate(27.6545,6.4867)"
       id="g120">
      <rect
         x="-0.061700001"
         y="-2.55"
         width="0.1233"
         height="2.8225"
         ry="0.039999999"
         fill="currentColor"
         id="rect118" />
    </g>
  </g>
  <g
     color="#ff0000"
     id="g128"
     transform="translate(-2.27615,-3.2772523)">
    <g
       transform="translate(27.7162,3.9767)"
       id="g126">
      <path
         transform="scale(0.0034,-0.0034)"
         d="m 0,0 c 0,-197 207,-335 207,-532 0,-71 -15,-141 -41,-207 -5,-8 -13,-12 -21,-12 -14,0 -27,11 -24,28 26,60 42,125 42,191 0,103 -93,207 -163,282 H -18 V 0 Z"
         fill="currentColor"
         id="path124" />
    </g>
  </g>
  <a
     style="color:inherit"
     xlink:href="textedit:///Users/tomsegarra/Documents/dev/dummies/lilypond_files/cfe4ad920f98c4c6edb551ca95ba6d86.ly:23:1:9"
     id="a138"
     transform="translate(-2.27615,-3.2772523)">
    <g
       transform="translate(6.5762,4.7867)"
       id="g132">
      <path
         transform="scale(0.0034,-0.0034)"
         d="m 217,-311 c 0,-11 -8,-19 -19,-19 -11,0 -20,8 -20,19 v 142 l -81,-30 v -156 c 0,-11 -9,-20 -20,-20 -11,0 -19,9 -19,20 v 142 l -28,-11 c -3,-1 -5,-1 -8,-1 -12,0 -22,10 -22,23 v 57 c 0,9 6,18 15,21 l 43,16 V 49 L 30,39 C 27,38 25,38 22,38 10,38 0,47 0,60 v 57 c 0,9 6,18 15,21 l 43,16 v 157 c 0,11 8,19 19,19 11,0 20,-8 20,-19 V 169 l 81,30 v 156 c 0,11 9,20 20,20 11,0 19,-9 19,-20 V 213 l 28,11 c 3,1 5,1 8,1 12,0 22,-10 22,-23 v -57 c 0,-9 -6,-18 -15,-21 L 217,108 V -49 l 28,10 c 3,1 5,1 8,1 12,0 22,-9 22,-22 v -57 c 0,-9 -6,-18 -15,-21 l -43,-16 z M 97,64 V -94 l 81,30 V 94 Z"
         fill="currentColor"
         id="path130" />
    </g>
    <g
       transform="translate(7.5112,6.0617)"
       id="g136">
      <path
         transform="scale(0.0034,-0.0034)"
         d="m 217,-311 c 0,-11 -8,-19 -19,-19 -11,0 -20,8 -20,19 v 142 l -81,-30 v -156 c 0,-11 -9,-20 -20,-20 -11,0 -19,9 -19,20 v 142 l -28,-11 c -3,-1 -5,-1 -8,-1 -12,0 -22,10 -22,23 v 57 c 0,9 6,18 15,21 l 43,16 V 49 L 30,39 C 27,38 25,38 22,38 10,38 0,47 0,60 v 57 c 0,9 6,18 15,21 l 43,16 v 157 c 0,11 8,19 19,19 11,0 20,-8 20,-19 V 169 l 81,30 v 156 c 0,11 9,20 20,20 11,0 19,-9 19,-20 V 213 l 28,11 c 3,1 5,1 8,1 12,0 22,-10 22,-23 v -57 c 0,-9 -6,-18 -15,-21 L 217,108 V -49 l 28,10 c 3,1 5,1 8,1 12,0 22,-9 22,-22 v -57 c 0,-9 -6,-18 -15,-21 l -43,-16 z M 97,64 V -94 l 81,30 V 94 Z"
         fill="currentColor"
         id="path134" />
    </g>
  </a>
  <a
     style="color:inherit"
     xlink:href="textedit:///Users/tomsegarra/Documents/dev/dummies/lilypond_files/cfe4ad920f98c4c6edb551ca95ba6d86.ly:29:12:13"
     id="a144"
     transform="translate(-2.27615,-3.2772523)">
    <g
       transform="translate(33.15,6.4867)"
       id="g142">
      <path
         stroke-width="0.0759"
         stroke-linejoin="round"
         stroke-linecap="round"
         stroke="currentColor"
         fill="currentColor"
         d="m 0.7537,1.0413 c 0.3295,0.4191 0.8934,0.4191 1.2228,0 v 0 c -0.3294,0.3053 -0.8933,0.3053 -1.2228,0 z"
         id="path140" />
    </g>
  </a>
  <g
     color="#ff0000"
     id="g152"
     transform="translate(-2.27615,-3.2772523)">
    <a
       style="color:inherit"
       xlink:href="textedit:///Users/tomsegarra/Documents/dev/dummies/lilypond_files/cfe4ad920f98c4c6edb551ca95ba6d86.ly:29:7:8"
       id="a150">
      <g
         transform="translate(30.5926,7.7617)"
         id="g148">
        <path
           transform="scale(0.0034,-0.0034)"
           d="m 215,137 c 67,0 111,-37 111,-92 0,-90 -111,-182 -215,-182 -67,0 -111,37 -111,92 0,90 111,182 215,182 z"
           fill="currentColor"
           id="path146" />
      </g>
    </a>
  </g>
  <a
     style="color:inherit"
     xlink:href="textedit:///Users/tomsegarra/Documents/dev/dummies/lilypond_files/cfe4ad920f98c4c6edb551ca95ba6d86.ly:31:37:38"
     id="a160"
     transform="translate(-2.27615,-3.2772523)">
    <g
       transform="translate(30.1562,11.9867)"
       id="g158">
      <text
         font-family="serif"
         font-size="2.0989px"
         text-anchor="start"
         fill="currentColor"
         id="text156"><tspan
           id="tspan154">ya</tspan></text>
    </g>
  </a>
  <g
     color="#ff0000"
     id="g166"
     transform="translate(-2.27615,-3.2772523)">
    <g
       transform="translate(31.6384,6.4867)"
       id="g164">
      <rect
         x="-0.061700001"
         y="-1.8724999"
         width="0.1233"
         height="2.9951"
         ry="0.039999999"
         fill="currentColor"
         id="rect162" />
    </g>
  </g>
  <g
     transform="translate(7.32005,3.2094477)"
     id="g170">
    <path
       transform="scale(0.0034,-0.0034)"
       d="m 358,29 c -30,0 -74,23 -74,73 0,38 27,76 71,76 4,0 7,0 11,-1 -27,36 -69,59 -116,59 -106,0 -113,-74 -113,-188 0,-15 1,-31 1,-48 0,-17 -1,-33 -1,-48 0,-114 7,-188 113,-188 79,0 136,70 155,150 2,7 7,10 13,10 7,0 14,-5 14,-13 0,-21 -50,-175 -182,-175 C 191,-264 0,-244 0,0 0,63 18,264 250,264 365,264 424,155 424,99 424,60 394,29 358,29 Z"
       fill="currentColor"
       id="path168" />
  </g>
  <g
     color="#ff0000"
     id="g178"
     transform="translate(-2.27615,-3.2772523)">
    <a
       style="color:inherit"
       xlink:href="textedit:///Users/tomsegarra/Documents/dev/dummies/lilypond_files/cfe4ad920f98c4c6edb551ca95ba6d86.ly:29:10:11"
       id="a176">
      <g
         transform="translate(33.15,6.4867)"
         id="g174">
        <path
           transform="scale(0.0034,-0.0034)"
           d="m 215,137 c 67,0 111,-37 111,-92 0,-90 -111,-182 -215,-182 -67,0 -111,37 -111,92 0,90 111,182 215,182 z"
           fill="currentColor"
           id="path172" />
      </g>
    </a>
  </g>
  <a
     style="color:inherit"
     xlink:href="textedit:///Users/tomsegarra/Documents/dev/dummies/lilypond_files/cfe4ad920f98c4c6edb551ca95ba6d86.ly:31:40:41"
     id="a186"
     transform="translate(-2.27615,-3.2772523)">
    <g
       transform="translate(33.15,11.9867)"
       id="g184">
      <text
         font-family="serif"
         font-size="2.0989px"
         text-anchor="start"
         fill="currentColor"
         id="text182"><tspan
           id="tspan180">been?</tspan></text>
    </g>
  </a>
  <g
     color="#ff0000"
     id="g192"
     transform="translate(-2.27615,-3.2772523)">
    <g
       transform="translate(34.1957,6.4867)"
       id="g190">
      <rect
         x="-0.061700001"
         y="-2.5341001"
         width="0.1233"
         height="2.3815999"
         ry="0.039999999"
         fill="currentColor"
         id="rect188" />
    </g>
  </g>
  <a
     style="color:inherit"
     xlink:href="textedit:///Users/tomsegarra/Documents/dev/dummies/lilypond_files/cfe4ad920f98c4c6edb551ca95ba6d86.ly:31:15:16"
     id="a200"
     transform="translate(-2.27615,-3.2772523)">
    <g
       transform="translate(13.0344,11.9867)"
       id="g198">
      <text
         font-family="serif"
         font-size="2.0989px"
         text-anchor="start"
         fill="currentColor"
         id="text196"><tspan
           id="tspan194">hey</tspan></text>
    </g>
  </a>
  <g
     color="#ff0000"
     id="g206"
     transform="translate(-2.27615,-3.2772523)">
    <g
       transform="translate(31.5767,4.6301)"
       id="g204">
      <polygon
         stroke-linejoin="round"
         stroke-linecap="round"
         stroke-width="0.08"
         fill="currentColor"
         stroke="currentColor"
         points="0.04,0.164 0.04,-0.164 2.6407,-0.8574 2.6407,-0.5294 "
         id="polygon202" />
    </g>
  </g>
  <g
     color="#ff0000"
     id="g214"
     transform="translate(-2.27615,-3.2772523)">
    <a
       style="color:inherit"
       xlink:href="textedit:///Users/tomsegarra/Documents/dev/dummies/lilypond_files/cfe4ad920f98c4c6edb551ca95ba6d86.ly:29:14:15"
       id="a212">
      <g
         transform="translate(35.4574,6.4867)"
         id="g210">
        <path
           transform="scale(0.0034,-0.0034)"
           d="m 215,137 c 67,0 111,-37 111,-92 0,-90 -111,-182 -215,-182 -67,0 -111,37 -111,92 0,90 111,182 215,182 z"
           fill="currentColor"
           id="path208" />
      </g>
    </a>
  </g>
  <g
     color="#ff0000"
     id="g220"
     transform="translate(-2.27615,-3.2772523)">
    <g
       transform="translate(35.5191,6.4867)"
       id="g218">
      <rect
         x="-0.061700001"
         y="0.1525"
         width="0.1233"
         height="2.6809001"
         ry="0.039999999"
         fill="currentColor"
         id="rect216" />
    </g>
  </g>
  <g
     transform="translate(10.81995,3.2094477)"
     id="g224">
    <rect
       x="-0.061700001"
       y="-0.69749999"
       width="0.1233"
       height="2.4061"
       ry="0.039999999"
       fill="currentColor"
       id="rect222" />
  </g>
</svg>
