<?xml version="1.0" encoding="UTF-8" standalone="no"?>
<svg
   version="1.2"
   width="115.82005mm"
   height="16.103117mm"
   viewBox="0 0 65.90799 9.1635628"
   id="svg406"
   sodipodi:docname="d4dc656e20a61ca0f9198ea13906ef17.svg"
   xmlns:inkscape="http://www.inkscape.org/namespaces/inkscape"
   xmlns:sodipodi="http://sodipodi.sourceforge.net/DTD/sodipodi-0.dtd"
   xmlns:xlink="http://www.w3.org/1999/xlink"
   xmlns="http://www.w3.org/2000/svg"
   xmlns:svg="http://www.w3.org/2000/svg">
  <defs
     id="defs410" />
  <sodipodi:namedview
     id="namedview408"
     pagecolor="#ffffff"
     bordercolor="#000000"
     borderopacity="0.25"
     inkscape:showpageshadow="2"
     inkscape:pageopacity="0.0"
     inkscape:pagecheckerboard="0"
     inkscape:deskcolor="#d1d1d1"
     inkscape:document-units="mm" />
  <style
     type="text/css"
     id="style2"><![CDATA[
tspan { white-space: pre; }
]]></style>
  <!-- Page: 1/1 -->
  <g
     transform="translate(18.46835,3.2105767)"
     id="g6">
    <rect
       x="0"
       y="-1.7"
       width="0.1802"
       height="3.4000001"
       ry="0.0000"
       fill="currentColor"
       id="rect4" />
  </g>
  <g
     transform="translate(4.9997121e-5,4.9105767)"
     id="g10">
    <line
       stroke-linejoin="round"
       stroke-linecap="round"
       stroke-width="0.0949"
       stroke="currentColor"
       x1="0.047400001"
       y1="0"
       x2="65.860497"
       y2="0"
       id="line8" />
  </g>
  <g
     transform="translate(4.9997121e-5,4.0605767)"
     id="g14">
    <line
       stroke-linejoin="round"
       stroke-linecap="round"
       stroke-width="0.0949"
       stroke="currentColor"
       x1="0.047400001"
       y1="0"
       x2="65.860497"
       y2="0"
       id="line12" />
  </g>
  <g
     transform="translate(4.9997121e-5,3.2105767)"
     id="g18">
    <line
       stroke-linejoin="round"
       stroke-linecap="round"
       stroke-width="0.0949"
       stroke="currentColor"
       x1="0.047400001"
       y1="0"
       x2="65.860497"
       y2="0"
       id="line16" />
  </g>
  <g
     transform="translate(4.9997121e-5,2.3605767)"
     id="g22">
    <line
       stroke-linejoin="round"
       stroke-linecap="round"
       stroke-width="0.0949"
       stroke="currentColor"
       x1="0.047400001"
       y1="0"
       x2="65.860497"
       y2="0"
       id="line20" />
  </g>
  <g
     transform="translate(4.9997121e-5,1.5105767)"
     id="g26">
    <line
       stroke-linejoin="round"
       stroke-linecap="round"
       stroke-width="0.0949"
       stroke="currentColor"
       x1="0.047400001"
       y1="0"
       x2="65.860497"
       y2="0"
       id="line24" />
  </g>
  <g
     transform="translate(65.72775,3.2105767)"
     id="g30">
    <rect
       x="0"
       y="-1.7"
       width="0.1802"
       height="3.4000001"
       ry="0.0000"
       fill="currentColor"
       id="rect28" />
  </g>
  <g
     transform="translate(44.13335,3.2105767)"
     id="g34">
    <rect
       x="0"
       y="-1.7"
       width="0.1802"
       height="3.4000001"
       ry="0.0000"
       fill="currentColor"
       id="rect32" />
  </g>
  <a
     style="color:inherit"
     xlink:href="textedit:///Users/tomsegarra/Documents/dev/dummies/lilypond_files/d4dc656e20a61ca0f9198ea13906ef17.ly:33:20:21"
     id="a40"
     transform="translate(-2.27615,-3.2761233)">
    <g
       transform="translate(17.8686,11.9867)"
       id="g38">
      <rect
         x="0"
         y="-0.54329997"
         width="0.66000003"
         height="0.1233"
         ry="0.037900001"
         fill="currentColor"
         id="rect36" />
    </g>
  </a>
  <a
     style="color:inherit"
     xlink:href="textedit:///Users/tomsegarra/Documents/dev/dummies/lilypond_files/d4dc656e20a61ca0f9198ea13906ef17.ly:25:16:17"
     id="a46"
     transform="translate(-2.27615,-3.2761233)">
    <g
       transform="translate(12.8595,5.6367)"
       id="g44">
      <path
         transform="scale(0.0034,-0.0034)"
         d="m 215,137 c 67,0 111,-37 111,-92 0,-90 -111,-182 -215,-182 -67,0 -111,37 -111,92 0,90 111,182 215,182 z"
         fill="currentColor"
         id="path42" />
    </g>
  </a>
  <g
     transform="translate(0.80005,4.0605767)"
     id="g50">
    <path
       transform="scale(0.0034,-0.0034)"
       d="m 646,2 c 0,-113 -74,-213 -180,-247 3,-34 5,-68 5,-102 0,-20 -1,-40 -2,-60 -7,-121 -91,-228 -209,-228 -108,0 -196,87 -196,196 0,58 53,104 112,104 54,0 95,-48 95,-104 0,-52 -43,-95 -95,-95 -10,0 -20,2 -29,6 26,-38 68,-63 116,-63 h 3 c 93,2 153,92 159,190 1,19 2,37 2,56 0,30 -2,60 -4,90 -5,-1 -43,-8 -88,-8 -194,0 -333,180 -333,375 0,177 130,307 246,442 -31,98 -53,170 -53,347 0,115 55,223 148,290 7,5 16,4 22,-1 68,-80 134,-243 134,-357 0,-143 -85,-255 -178,-364 21,-68 40,-137 57,-206 1,0 5,1 11,1 C 545,264 646,135 646,2 Z M 462,-202 c 66,24 111,88 111,162 0,89 -65,178 -170,190 28,-135 50,-272 59,-352 z M 75,26 c 0,-145 141,-245 263,-245 1,0 46,0 81,6 -7,65 -27,206 -61,363 -79,-8 -124,-61 -124,-119 0,-43 25,-89 80,-121 5,-5 7,-11 7,-16 0,-12 -10,-23 -22,-23 -16,0 -127,63 -127,188 0,89 58,175 161,198 -14,58 -29,116 -46,173 C 181,308 75,186 75,26 Z M 406,1042 C 307,995 244,894 244,785 c 0,-49 13,-111 38,-191 79,97 144,199 144,324 0,33 0,63 -20,124 z"
       fill="currentColor"
       id="path48" />
  </g>
  <a
     style="color:inherit"
     xlink:href="textedit:///Users/tomsegarra/Documents/dev/dummies/lilypond_files/d4dc656e20a61ca0f9198ea13906ef17.ly:24:1:9"
     id="a60"
     transform="translate(-2.27615,-3.2761233)">
    <g
       transform="translate(6.5762,4.7867)"
       id="g54">
      <path
         transform="scale(0.0034,-0.0034)"
         d="m 217,-311 c 0,-11 -8,-19 -19,-19 -11,0 -20,8 -20,19 v 142 l -81,-30 v -156 c 0,-11 -9,-20 -20,-20 -11,0 -19,9 -19,20 v 142 l -28,-11 c -3,-1 -5,-1 -8,-1 -12,0 -22,10 -22,23 v 57 c 0,9 6,18 15,21 l 43,16 V 49 L 30,39 C 27,38 25,38 22,38 10,38 0,47 0,60 v 57 c 0,9 6,18 15,21 l 43,16 v 157 c 0,11 8,19 19,19 11,0 20,-8 20,-19 V 169 l 81,30 v 156 c 0,11 9,20 20,20 11,0 19,-9 19,-20 V 213 l 28,11 c 3,1 5,1 8,1 12,0 22,-10 22,-23 v -57 c 0,-9 -6,-18 -15,-21 L 217,108 V -49 l 28,10 c 3,1 5,1 8,1 12,0 22,-9 22,-22 v -57 c 0,-9 -6,-18 -15,-21 l -43,-16 z M 97,64 V -94 l 81,30 V 94 Z"
         fill="currentColor"
         id="path52" />
    </g>
    <g
       transform="translate(7.5112,6.0617)"
       id="g58">
      <path
         transform="scale(0.0034,-0.0034)"
         d="m 217,-311 c 0,-11 -8,-19 -19,-19 -11,0 -20,8 -20,19 v 142 l -81,-30 v -156 c 0,-11 -9,-20 -20,-20 -11,0 -19,9 -19,20 v 142 l -28,-11 c -3,-1 -5,-1 -8,-1 -12,0 -22,10 -22,23 v 57 c 0,9 6,18 15,21 l 43,16 V 49 L 30,39 C 27,38 25,38 22,38 10,38 0,47 0,60 v 57 c 0,9 6,18 15,21 l 43,16 v 157 c 0,11 8,19 19,19 11,0 20,-8 20,-19 V 169 l 81,30 v 156 c 0,11 9,20 20,20 11,0 19,-9 19,-20 V 213 l 28,11 c 3,1 5,1 8,1 12,0 22,-10 22,-23 v -57 c 0,-9 -6,-18 -15,-21 L 217,108 V -49 l 28,10 c 3,1 5,1 8,1 12,0 22,-9 22,-22 v -57 c 0,-9 -6,-18 -15,-21 l -43,-16 z M 97,64 V -94 l 81,30 V 94 Z"
         fill="currentColor"
         id="path56" />
    </g>
  </a>
  <g
     transform="translate(7.37125,3.2105767)"
     id="g64">
    <path
       transform="scale(0.0034,-0.0034)"
       d="m 172,256 c -49,0 -52,-40 -52,-94 v -22 -21 c 0,-54 3,-94 52,-94 56,0 59,50 59,115 0,65 -3,116 -59,116 z m -52,11 c 17,7 34,14 52,14 102,0 171,-46 171,-141 C 343,45 274,0 172,0 60,0 0,124 0,250 c 0,129 74,250 192,250 71,0 139,-40 139,-105 0,-36 -29,-65 -65,-65 -36,0 -65,29 -65,65 0,23 39,26 39,49 0,21 -24,31 -48,31 -64,0 -74,-62 -74,-134 0,-24 2,-49 2,-74 z"
       fill="currentColor"
       id="path62" />
  </g>
  <g
     transform="translate(7.32005,4.9104767)"
     id="g68">
    <path
       transform="scale(0.0034,-0.0034)"
       d="m 261,290 c 26,29 47,61 47,100 0,54 -57,85 -116,85 -46,0 -73,-35 -73,-69 0,-20 9,-40 29,-51 z m 32,-18 C 323,255 375,214 375,145 375,71 309,0 185,0 90,0 0,53 0,140 c 0,50 38,85 75,120 -40,28 -59,68 -59,106 0,68 60,134 176,134 81,0 163,-38 163,-110 0,-47 -29,-84 -62,-118 z M 107,241 C 75,212 46,182 46,140 46,71 112,25 185,25 c 54,0 85,41 85,81 0,24 -11,47 -35,61 z"
       fill="currentColor"
       id="path66" />
  </g>
  <a
     style="color:inherit"
     xlink:href="textedit:///Users/tomsegarra/Documents/dev/dummies/lilypond_files/d4dc656e20a61ca0f9198ea13906ef17.ly:33:15:16"
     id="a76"
     transform="translate(-2.27615,-3.2761233)">
    <g
       transform="translate(13.0718,11.9867)"
       id="g74">
      <text
         font-family="serif"
         font-size="2.0989px"
         text-anchor="start"
         fill="currentColor"
         id="text72"><tspan
           id="tspan70">I</tspan></text>
    </g>
  </a>
  <g
     transform="translate(10.64505,3.2105767)"
     id="g80">
    <rect
       x="-0.061700001"
       y="-0.69749999"
       width="0.1233"
       height="2.5509"
       ry="0.039999999"
       fill="currentColor"
       id="rect78" />
  </g>
  <a
     style="color:inherit"
     xlink:href="textedit:///Users/tomsegarra/Documents/dev/dummies/lilypond_files/d4dc656e20a61ca0f9198ea13906ef17.ly:33:27:28"
     id="a86"
     transform="translate(-2.27615,-3.2761233)">
    <g
       transform="translate(23.4733,11.9867)"
       id="g84">
      <rect
         x="0"
         y="-0.54329997"
         width="0.66000003"
         height="0.1233"
         ry="0.037900001"
         fill="currentColor"
         id="rect82" />
    </g>
  </a>
  <a
     style="color:inherit"
     xlink:href="textedit:///Users/tomsegarra/Documents/dev/dummies/lilypond_files/d4dc656e20a61ca0f9198ea13906ef17.ly:26:27:28"
     id="a92"
     transform="translate(-2.27615,-3.2761233)">
    <g
       transform="translate(38.4173,6.0617)"
       id="g90">
      <path
         transform="scale(0.0034,-0.0034)"
         d="m 215,137 c 67,0 111,-37 111,-92 0,-90 -111,-182 -215,-182 -67,0 -111,37 -111,92 0,90 111,182 215,182 z"
         fill="currentColor"
         id="path88" />
    </g>
  </a>
  <g
     transform="translate(36.20285,3.2105767)"
     id="g96">
    <rect
       x="-0.061700001"
       y="-0.27250001"
       width="0.1233"
       height="3.0350001"
       ry="0.039999999"
       fill="currentColor"
       id="rect94" />
  </g>
  <a
     style="color:inherit"
     xlink:href="textedit:///Users/tomsegarra/Documents/dev/dummies/lilypond_files/d4dc656e20a61ca0f9198ea13906ef17.ly:25:28:29"
     id="a102"
     transform="translate(-2.27615,-3.2761233)">
    <g
       transform="translate(18.6743,6.4867)"
       id="g100">
      <path
         stroke-width="0.0759"
         stroke-linejoin="round"
         stroke-linecap="round"
         stroke="currentColor"
         fill="currentColor"
         d="m 0.7537,-2.125 c 0.6417,-0.6888 2.2872,-0.6888 2.9288,0 v 0 c -0.6416,-0.5749 -2.2871,-0.5749 -2.9288,0 z"
         id="path98" />
    </g>
  </a>
  <a
     style="color:inherit"
     xlink:href="textedit:///Users/tomsegarra/Documents/dev/dummies/lilypond_files/d4dc656e20a61ca0f9198ea13906ef17.ly:26:29:30"
     id="a108"
     transform="translate(-2.27615,-3.2761233)">
    <g
       transform="translate(40.7247,6.4867)"
       id="g106">
      <path
         transform="scale(0.0034,-0.0034)"
         d="m 215,137 c 67,0 111,-37 111,-92 0,-90 -111,-182 -215,-182 -67,0 -111,37 -111,92 0,90 111,182 215,182 z"
         fill="currentColor"
         id="path104" />
    </g>
  </a>
  <a
     style="color:inherit"
     xlink:href="textedit:///Users/tomsegarra/Documents/dev/dummies/lilypond_files/d4dc656e20a61ca0f9198ea13906ef17.ly:33:52:53"
     id="a116"
     transform="translate(-2.27615,-3.2761233)">
    <g
       transform="translate(40.7247,11.9867)"
       id="g114">
      <text
         font-family="serif"
         font-size="2.0989px"
         text-anchor="start"
         fill="currentColor"
         id="text112"><tspan
           id="tspan110">y</tspan></text>
    </g>
  </a>
  <g
     transform="translate(38.51025,3.2105767)"
     id="g120">
    <rect
       x="-0.061700001"
       y="0.1525"
       width="0.1233"
       height="2.7149"
       ry="0.039999999"
       fill="currentColor"
       id="rect118" />
  </g>
  <g
     transform="translate(14.09075,4.1887767)"
     id="g124">
    <polygon
       stroke-linejoin="round"
       stroke-linecap="round"
       stroke-width="0.08"
       fill="currentColor"
       stroke="currentColor"
       points="0.04,0.164 0.04,-0.164 2.3907,-0.2922 2.3907,0.0358 "
       id="polygon122" />
  </g>
  <g
     transform="translate(10.58335,5.0670767)"
     id="g128">
    <polygon
       stroke-linejoin="round"
       stroke-linecap="round"
       stroke-width="0.08"
       fill="currentColor"
       stroke="currentColor"
       points="0.04,0.164 0.04,-0.164 5.8981,-0.4771 5.8981,-0.1491 "
       id="polygon126" />
  </g>
  <a
     style="color:inherit"
     xlink:href="textedit:///Users/tomsegarra/Documents/dev/dummies/lilypond_files/d4dc656e20a61ca0f9198ea13906ef17.ly:26:34:35"
     id="a134"
     transform="translate(-2.27615,-3.2761233)">
    <g
       transform="translate(43.0321,6.4867)"
       id="g132">
      <path
         transform="scale(0.0034,-0.0034)"
         d="m 215,137 c 67,0 111,-37 111,-92 0,-90 -111,-182 -215,-182 -67,0 -111,37 -111,92 0,90 111,182 215,182 z"
         fill="currentColor"
         id="path130" />
    </g>
  </a>
  <g
     transform="translate(40.81765,3.2105767)"
     id="g138">
    <rect
       x="-0.061700001"
       y="0.1525"
       width="0.1233"
       height="2.8197"
       ry="0.039999999"
       fill="currentColor"
       id="rect136" />
  </g>
  <a
     style="color:inherit"
     xlink:href="textedit:///Users/tomsegarra/Documents/dev/dummies/lilypond_files/d4dc656e20a61ca0f9198ea13906ef17.ly:27:4:5"
     id="a144"
     transform="translate(-2.27615,-3.2761233)">
    <g
       transform="translate(47.4897,6.4867)"
       id="g142">
      <path
         transform="scale(0.0034,-0.0034)"
         d="m 215,137 c 67,0 111,-37 111,-92 0,-90 -111,-182 -215,-182 -67,0 -111,37 -111,92 0,90 111,182 215,182 z"
         fill="currentColor"
         id="path140" />
    </g>
  </a>
  <a
     style="color:inherit"
     xlink:href="textedit:///Users/tomsegarra/Documents/dev/dummies/lilypond_files/d4dc656e20a61ca0f9198ea13906ef17.ly:33:54:55"
     id="a152"
     transform="translate(-2.27615,-3.2761233)">
    <g
       transform="translate(45.0217,11.9867)"
       id="g150">
      <text
         font-family="serif"
         font-size="2.0989px"
         text-anchor="start"
         fill="currentColor"
         id="text148"><tspan
           id="tspan146">thrilled</tspan></text>
    </g>
  </a>
  <g
     transform="translate(46.25925,3.2105767)"
     id="g156">
    <rect
       x="-0.061700001"
       y="-2.7044001"
       width="0.1233"
       height="2.552"
       ry="0.039999999"
       fill="currentColor"
       id="rect154" />
  </g>
  <a
     style="color:inherit"
     xlink:href="textedit:///Users/tomsegarra/Documents/dev/dummies/lilypond_files/d4dc656e20a61ca0f9198ea13906ef17.ly:27:9:10"
     id="a162"
     transform="translate(-2.27615,-3.2761233)">
    <g
       transform="translate(52.2417,6.9117)"
       id="g160">
      <path
         transform="scale(0.0034,-0.0034)"
         d="m 215,137 c 67,0 111,-37 111,-92 0,-90 -111,-182 -215,-182 -67,0 -111,37 -111,92 0,90 111,182 215,182 z"
         fill="currentColor"
         id="path158" />
    </g>
  </a>
  <a
     style="color:inherit"
     xlink:href="textedit:///Users/tomsegarra/Documents/dev/dummies/lilypond_files/d4dc656e20a61ca0f9198ea13906ef17.ly:33:63:64"
     id="a170"
     transform="translate(-2.27615,-3.2761233)">
    <g
       transform="translate(51.5151,11.9867)"
       id="g168">
      <text
         font-family="serif"
         font-size="2.0989px"
         text-anchor="start"
         fill="currentColor"
         id="text166"><tspan
           id="tspan164">me</tspan></text>
    </g>
  </a>
  <g
     transform="translate(51.01135,3.2105767)"
     id="g174">
    <rect
       x="-0.061700001"
       y="-2.5380001"
       width="0.1233"
       height="2.8106"
       ry="0.039999999"
       fill="currentColor"
       id="rect172" />
  </g>
  <g
     color="#ff0000"
     id="g182"
     transform="translate(-2.27615,-3.2761233)">
    <a
       style="color:inherit"
       xlink:href="textedit:///Users/tomsegarra/Documents/dev/dummies/lilypond_files/d4dc656e20a61ca0f9198ea13906ef17.ly:31:4:5"
       id="a180">
      <g
         transform="translate(56.3109,6.9117)"
         id="g178">
        <path
           transform="scale(0.0034,-0.0034)"
           d="m 215,137 c 67,0 111,-37 111,-92 0,-90 -111,-182 -215,-182 -67,0 -111,37 -111,92 0,90 111,182 215,182 z"
           fill="currentColor"
           id="path176" />
      </g>
    </a>
  </g>
  <a
     style="color:inherit"
     xlink:href="textedit:///Users/tomsegarra/Documents/dev/dummies/lilypond_files/d4dc656e20a61ca0f9198ea13906ef17.ly:33:66:67"
     id="a190"
     transform="translate(-2.27615,-3.2761233)">
    <g
       transform="translate(54.5258,11.9867)"
       id="g188">
      <text
         font-family="serif"
         font-size="2.0989px"
         text-anchor="start"
         fill="currentColor"
         id="text186"><tspan
           id="tspan184">much</tspan></text>
    </g>
  </a>
  <g
     color="#ff0000"
     id="g196"
     transform="translate(-2.27615,-3.2761233)">
    <g
       transform="translate(57.3567,6.4867)"
       id="g194">
      <rect
         x="-0.061700001"
         y="-2.3956001"
         width="0.1233"
         height="2.6681001"
         ry="0.039999999"
         fill="currentColor"
         id="rect192" />
    </g>
  </g>
  <g
     transform="translate(19.72705,4.7539767)"
     id="g200">
    <polygon
       stroke-linejoin="round"
       stroke-linecap="round"
       stroke-width="0.08"
       fill="currentColor"
       stroke="currentColor"
       points="0.04,0.164 0.04,-0.164 7.6428,-0.0074 7.6428,0.3206 "
       id="polygon198" />
  </g>
  <g
     color="#ff0000"
     id="g208"
     transform="translate(-2.27615,-3.2761233)">
    <a
       style="color:inherit"
       xlink:href="textedit:///Users/tomsegarra/Documents/dev/dummies/lilypond_files/d4dc656e20a61ca0f9198ea13906ef17.ly:31:7:8"
       id="a206">
      <g
         transform="translate(59.9192,7.7617)"
         id="g204">
        <path
           transform="scale(0.0034,-0.0034)"
           d="m 215,137 c 67,0 111,-37 111,-92 0,-90 -111,-182 -215,-182 -67,0 -111,37 -111,92 0,90 111,182 215,182 z"
           fill="currentColor"
           id="path202" />
      </g>
    </a>
  </g>
  <a
     style="color:inherit"
     xlink:href="textedit:///Users/tomsegarra/Documents/dev/dummies/lilypond_files/d4dc656e20a61ca0f9198ea13906ef17.ly:33:71:72"
     id="a216"
     transform="translate(-2.27615,-3.2761233)">
    <g
       transform="translate(59.6534,11.9867)"
       id="g214">
      <text
         font-family="serif"
         font-size="2.0989px"
         text-anchor="start"
         fill="currentColor"
         id="text212"><tspan
           id="tspan210">m</tspan></text>
    </g>
  </a>
  <g
     color="#ff0000"
     id="g222"
     transform="translate(-2.27615,-3.2761233)">
    <g
       transform="translate(60.9649,6.4867)"
       id="g220">
      <rect
         x="-0.061700001"
         y="-1.7"
         width="0.1233"
         height="2.8225"
         ry="0.039999999"
         fill="currentColor"
         id="rect218" />
    </g>
  </g>
  <g
     color="#ff0000"
     id="g228"
     transform="translate(-2.27615,-3.2761233)">
    <g
       transform="translate(61.0266,4.8267)"
       id="g226">
      <path
         transform="scale(0.0034,-0.0034)"
         d="m 0,0 c 0,-197 207,-335 207,-532 0,-71 -15,-141 -41,-207 -5,-8 -13,-12 -21,-12 -14,0 -27,11 -24,28 26,60 42,125 42,191 0,103 -93,207 -163,282 H -18 V 0 Z"
         fill="currentColor"
         id="path224" />
    </g>
  </g>
  <a
     style="color:inherit"
     xlink:href="textedit:///Users/tomsegarra/Documents/dev/dummies/lilypond_files/d4dc656e20a61ca0f9198ea13906ef17.ly:33:49:50"
     id="a234"
     transform="translate(-2.27615,-3.2761233)">
    <g
       transform="translate(38.8897,11.9867)"
       id="g232">
      <rect
         x="0"
         y="-0.54329997"
         width="0.66000003"
         height="0.1233"
         ry="0.037900001"
         fill="currentColor"
         id="rect230" />
    </g>
  </a>
  <g
     color="#ff0000"
     id="g242"
     transform="translate(-2.27615,-3.2761233)">
    <a
       style="color:inherit"
       xlink:href="textedit:///Users/tomsegarra/Documents/dev/dummies/lilypond_files/d4dc656e20a61ca0f9198ea13906ef17.ly:31:9:10"
       id="a240">
      <g
         transform="translate(63.4266,6.4867)"
         id="g238">
        <path
           transform="scale(0.0034,-0.0034)"
           d="m 215,137 c 67,0 111,-37 111,-92 0,-90 -111,-182 -215,-182 -67,0 -111,37 -111,92 0,90 111,182 215,182 z"
           fill="currentColor"
           id="path236" />
      </g>
    </a>
  </g>
  <a
     style="color:inherit"
     xlink:href="textedit:///Users/tomsegarra/Documents/dev/dummies/lilypond_files/d4dc656e20a61ca0f9198ea13906ef17.ly:33:76:77"
     id="a250"
     transform="translate(-2.27615,-3.2761233)">
    <g
       transform="translate(62.6487,11.9867)"
       id="g248">
      <text
         font-family="serif"
         font-size="2.0989px"
         text-anchor="start"
         fill="currentColor"
         id="text246"><tspan
           id="tspan244">ore</tspan></text>
    </g>
  </a>
  <g
     color="#ff0000"
     id="g256"
     transform="translate(-2.27615,-3.2761233)">
    <g
       transform="translate(63.4882,6.4867)"
       id="g254">
      <rect
         x="-0.061700001"
         y="0.1525"
         width="0.1233"
         height="2.6809001"
         ry="0.039999999"
         fill="currentColor"
         id="rect252" />
    </g>
  </g>
  <a
     style="color:inherit"
     xlink:href="textedit:///Users/tomsegarra/Documents/dev/dummies/lilypond_files/d4dc656e20a61ca0f9198ea13906ef17.ly:26:23:24"
     id="a262"
     transform="translate(-2.27615,-3.2761233)">
    <g
       transform="translate(36.11,6.4867)"
       id="g260">
      <path
         stroke-width="0.0759"
         stroke-linejoin="round"
         stroke-linecap="round"
         stroke="currentColor"
         fill="currentColor"
         d="m 0.7537,-1.0413 c 0.4705,-0.5561 1.4368,-0.5561 1.9074,0 v 0 c -0.4706,-0.4423 -1.4369,-0.4423 -1.9074,0 z"
         id="path258" />
    </g>
  </a>
  <a
     style="color:inherit"
     xlink:href="textedit:///Users/tomsegarra/Documents/dev/dummies/lilypond_files/d4dc656e20a61ca0f9198ea13906ef17.ly:26:30:31"
     id="a268"
     transform="translate(-2.27615,-3.2761233)">
    <g
       transform="translate(40.7247,6.4867)"
       id="g266">
      <path
         stroke-width="0.0759"
         stroke-linejoin="round"
         stroke-linecap="round"
         stroke="currentColor"
         fill="currentColor"
         d="m 0.7537,-1.0413 c 0.4705,-0.5561 1.4368,-0.5561 1.9074,0 v 0 c -0.4706,-0.4423 -1.4369,-0.4423 -1.9074,0 z"
         id="path264" />
    </g>
  </a>
  <a
     style="color:inherit"
     xlink:href="textedit:///Users/tomsegarra/Documents/dev/dummies/lilypond_files/d4dc656e20a61ca0f9198ea13906ef17.ly:25:23:24"
     id="a274"
     transform="translate(-2.27615,-3.2761233)">
    <g
       transform="translate(16.3669,5.2117)"
       id="g272">
      <path
         transform="scale(0.0034,-0.0034)"
         d="m 215,137 c 67,0 111,-37 111,-92 0,-90 -111,-182 -215,-182 -67,0 -111,37 -111,92 0,90 111,182 215,182 z"
         fill="currentColor"
         id="path270" />
    </g>
  </a>
  <a
     style="color:inherit"
     xlink:href="textedit:///Users/tomsegarra/Documents/dev/dummies/lilypond_files/d4dc656e20a61ca0f9198ea13906ef17.ly:33:17:18"
     id="a282"
     transform="translate(-2.27615,-3.2761233)">
    <g
       transform="translate(16.1182,11.9867)"
       id="g280">
      <text
         font-family="serif"
         font-size="2.0989px"
         text-anchor="start"
         fill="currentColor"
         id="text278"><tspan
           id="tspan276">re</tspan></text>
    </g>
  </a>
  <g
     transform="translate(14.15245,3.2105767)"
     id="g286">
    <rect
       x="-0.061700001"
       y="-1.1224999"
       width="0.1233"
       height="2.7909"
       ry="0.039999999"
       fill="currentColor"
       id="rect284" />
  </g>
  <a
     style="color:inherit"
     xlink:href="textedit:///Users/tomsegarra/Documents/dev/dummies/lilypond_files/d4dc656e20a61ca0f9198ea13906ef17.ly:25:27:28"
     id="a292"
     transform="translate(-2.27615,-3.2761233)">
    <g
       transform="translate(18.6743,5.2117)"
       id="g290">
      <path
         transform="scale(0.0034,-0.0034)"
         d="m 215,137 c 67,0 111,-37 111,-92 0,-90 -111,-182 -215,-182 -67,0 -111,37 -111,92 0,90 111,182 215,182 z"
         fill="currentColor"
         id="path288" />
    </g>
  </a>
  <a
     style="color:inherit"
     xlink:href="textedit:///Users/tomsegarra/Documents/dev/dummies/lilypond_files/d4dc656e20a61ca0f9198ea13906ef17.ly:33:23:24"
     id="a300"
     transform="translate(-2.27615,-3.2761233)">
    <g
       transform="translate(18.6743,11.9867)"
       id="g298">
      <text
         font-family="serif"
         font-size="2.0989px"
         text-anchor="start"
         fill="currentColor"
         id="text296"><tspan
           id="tspan294">mem</tspan></text>
    </g>
  </a>
  <g
     transform="translate(16.45985,3.2105767)"
     id="g304">
    <rect
       x="-0.061700001"
       y="-1.1224999"
       width="0.1233"
       height="2.6691999"
       ry="0.039999999"
       fill="currentColor"
       id="rect302" />
  </g>
  <g
     transform="translate(31.52645,5.0670767)"
     id="g308">
    <polygon
       stroke-linejoin="round"
       stroke-linecap="round"
       stroke-width="0.08"
       fill="currentColor"
       stroke="currentColor"
       points="0.04,0.164 0.04,-0.164 7.0055,0.1562 7.0055,0.4842 "
       id="polygon306" />
  </g>
  <g
     transform="translate(31.52645,5.7605767)"
     id="g312">
    <polygon
       stroke-linejoin="round"
       stroke-linecap="round"
       stroke-width="0.08"
       fill="currentColor"
       stroke="currentColor"
       points="0.04,0.164 0.04,-0.164 9.3129,0.261 9.3129,0.589 "
       id="polygon310" />
  </g>
  <a
     style="color:inherit"
     xlink:href="textedit:///Users/tomsegarra/Documents/dev/dummies/lilypond_files/d4dc656e20a61ca0f9198ea13906ef17.ly:26:4:5"
     id="a318"
     transform="translate(-2.27615,-3.2761233)">
    <g
       transform="translate(22.0032,5.2117)"
       id="g316">
      <path
         transform="scale(0.0034,-0.0034)"
         d="m 215,137 c 67,0 111,-37 111,-92 0,-90 -111,-182 -215,-182 -67,0 -111,37 -111,92 0,90 111,182 215,182 z"
         fill="currentColor"
         id="path314" />
    </g>
  </a>
  <g
     transform="translate(19.78865,3.2105767)"
     id="g322">
    <rect
       x="-0.061700001"
       y="-1.1224999"
       width="0.1233"
       height="2.6672001"
       ry="0.039999999"
       fill="currentColor"
       id="rect320" />
  </g>
  <a
     style="color:inherit"
     xlink:href="textedit:///Users/tomsegarra/Documents/dev/dummies/lilypond_files/d4dc656e20a61ca0f9198ea13906ef17.ly:26:9:10"
     id="a328"
     transform="translate(-2.27615,-3.2761233)">
    <g
       transform="translate(25.5105,5.6367)"
       id="g326">
      <path
         transform="scale(0.0034,-0.0034)"
         d="m 215,137 c 67,0 111,-37 111,-92 0,-90 -111,-182 -215,-182 -67,0 -111,37 -111,92 0,90 111,182 215,182 z"
         fill="currentColor"
         id="path324" />
    </g>
  </a>
  <a
     style="color:inherit"
     xlink:href="textedit:///Users/tomsegarra/Documents/dev/dummies/lilypond_files/d4dc656e20a61ca0f9198ea13906ef17.ly:33:30:31"
     id="a336"
     transform="translate(-2.27615,-3.2761233)">
    <g
       transform="translate(24.7326,11.9867)"
       id="g334">
      <text
         font-family="serif"
         font-size="2.0989px"
         text-anchor="start"
         fill="currentColor"
         id="text332"><tspan
           id="tspan330">ber</tspan></text>
    </g>
  </a>
  <g
     transform="translate(23.29605,3.2105767)"
     id="g340">
    <rect
       x="-0.061700001"
       y="-0.69749999"
       width="0.1233"
       height="2.3137"
       ry="0.039999999"
       fill="currentColor"
       id="rect338" />
  </g>
  <a
     style="color:inherit"
     xlink:href="textedit:///Users/tomsegarra/Documents/dev/dummies/lilypond_files/d4dc656e20a61ca0f9198ea13906ef17.ly:26:13:14"
     id="a346"
     transform="translate(-2.27615,-3.2761233)">
    <g
       transform="translate(29.5627,5.6367)"
       id="g344">
      <path
         transform="scale(0.0034,-0.0034)"
         d="m 215,137 c 67,0 111,-37 111,-92 0,-90 -111,-182 -215,-182 -67,0 -111,37 -111,92 0,90 111,182 215,182 z"
         fill="currentColor"
         id="path342" />
    </g>
  </a>
  <a
     style="color:inherit"
     xlink:href="textedit:///Users/tomsegarra/Documents/dev/dummies/lilypond_files/d4dc656e20a61ca0f9198ea13906ef17.ly:33:34:35"
     id="a354"
     transform="translate(-2.27615,-3.2761233)">
    <g
       transform="translate(27.8458,11.9867)"
       id="g352">
      <text
         font-family="serif"
         font-size="2.0989px"
         text-anchor="start"
         fill="currentColor"
         id="text350"><tspan
           id="tspan348">when</tspan></text>
    </g>
  </a>
  <g
     transform="translate(27.34815,3.2105767)"
     id="g358">
    <rect
       x="-0.061700001"
       y="-0.69749999"
       width="0.1233"
       height="2.3963001"
       ry="0.039999999"
       fill="currentColor"
       id="rect356" />
  </g>
  <a
     style="color:inherit"
     xlink:href="textedit:///Users/tomsegarra/Documents/dev/dummies/lilypond_files/d4dc656e20a61ca0f9198ea13906ef17.ly:26:18:19"
     id="a364"
     transform="translate(-2.27615,-3.2761233)">
    <g
       transform="translate(33.8026,5.6367)"
       id="g362">
      <path
         transform="scale(0.0034,-0.0034)"
         d="m 215,137 c 67,0 111,-37 111,-92 0,-90 -111,-182 -215,-182 -67,0 -111,37 -111,92 0,90 111,182 215,182 z"
         fill="currentColor"
         id="path360" />
    </g>
  </a>
  <a
     style="color:inherit"
     xlink:href="textedit:///Users/tomsegarra/Documents/dev/dummies/lilypond_files/d4dc656e20a61ca0f9198ea13906ef17.ly:33:39:40"
     id="a372"
     transform="translate(-2.27615,-3.2761233)">
    <g
       transform="translate(32.8369,11.9867)"
       id="g370">
      <text
         font-family="serif"
         font-size="2.0989px"
         text-anchor="start"
         fill="currentColor"
         id="text368"><tspan
           id="tspan366">mis</tspan></text>
    </g>
  </a>
  <g
     transform="translate(31.58805,3.2105767)"
     id="g376">
    <rect
       x="-0.061700001"
       y="-0.69749999"
       width="0.1233"
       height="3.2502999"
       ry="0.039999999"
       fill="currentColor"
       id="rect374" />
  </g>
  <a
     style="color:inherit"
     xlink:href="textedit:///Users/tomsegarra/Documents/dev/dummies/lilypond_files/d4dc656e20a61ca0f9198ea13906ef17.ly:26:22:23"
     id="a382"
     transform="translate(-2.27615,-3.2761233)">
    <g
       transform="translate(36.11,6.0617)"
       id="g380">
      <path
         transform="scale(0.0034,-0.0034)"
         d="m 215,137 c 67,0 111,-37 111,-92 0,-90 -111,-182 -215,-182 -67,0 -111,37 -111,92 0,90 111,182 215,182 z"
         fill="currentColor"
         id="path378" />
    </g>
  </a>
  <a
     style="color:inherit"
     xlink:href="textedit:///Users/tomsegarra/Documents/dev/dummies/lilypond_files/d4dc656e20a61ca0f9198ea13906ef17.ly:33:46:47"
     id="a390"
     transform="translate(-2.27615,-3.2761233)">
    <g
       transform="translate(36.11,11.9867)"
       id="g388">
      <text
         font-family="serif"
         font-size="2.0989px"
         text-anchor="start"
         fill="currentColor"
         id="text386"><tspan
           id="tspan384">er</tspan></text>
    </g>
  </a>
  <g
     transform="translate(33.89545,3.2105767)"
     id="g394">
    <rect
       x="-0.061700001"
       y="-0.27250001"
       width="0.1233"
       height="2.9302001"
       ry="0.039999999"
       fill="currentColor"
       id="rect392" />
  </g>
  <g
     transform="translate(46.19755,0.50397666)"
     id="g398">
    <polygon
       stroke-linejoin="round"
       stroke-linecap="round"
       stroke-width="0.08"
       fill="currentColor"
       stroke="currentColor"
       points="0.04,0.164 0.04,-0.164 8.9046,0.1491 8.9046,0.4771 "
       id="polygon396" />
  </g>
  <a
     style="color:inherit"
     xlink:href="textedit:///Users/tomsegarra/Documents/dev/dummies/lilypond_files/d4dc656e20a61ca0f9198ea13906ef17.ly:33:73:74"
     id="a404"
     transform="translate(-2.27615,-3.2761233)">
    <g
       transform="translate(61.6405,11.9867)"
       id="g402">
      <rect
         x="0"
         y="-0.54329997"
         width="0.66000003"
         height="0.1233"
         ry="0.037900001"
         fill="currentColor"
         id="rect400" />
    </g>
  </a>
</svg>
