<svg xmlns="http://www.w3.org/2000/svg" xmlns:xlink="http://www.w3.org/1999/xlink" version="1.2" width="103.60mm" height="297.00mm" viewBox="0 0 58.9536 169.0094">
<style type="text/css">
<![CDATA[
tspan { white-space: pre; }
]]>
</style>
<!-- Page: 1/1 -->
<g transform="translate(26.4008, 6.4867)">
<rect x="0.0000" y="-1.7000" width="0.1802" height="3.4000" ry="0.0000" fill="currentColor"/>
</g>
<g transform="translate(2.2762, 8.1867)">
<line stroke-linejoin="round" stroke-linecap="round" stroke-width="0.0949" stroke="currentColor" x1="0.0474" y1="0" x2="54.3537" y2="0"/>
</g>
<g transform="translate(2.2762, 7.3367)">
<line stroke-linejoin="round" stroke-linecap="round" stroke-width="0.0949" stroke="currentColor" x1="0.0474" y1="0" x2="54.3537" y2="0"/>
</g>
<g transform="translate(2.2762, 6.4867)">
<line stroke-linejoin="round" stroke-linecap="round" stroke-width="0.0949" stroke="currentColor" x1="0.0474" y1="0" x2="54.3537" y2="0"/>
</g>
<g transform="translate(2.2762, 5.6367)">
<line stroke-linejoin="round" stroke-linecap="round" stroke-width="0.0949" stroke="currentColor" x1="0.0474" y1="0" x2="54.3537" y2="0"/>
</g>
<g transform="translate(2.2762, 4.7867)">
<line stroke-linejoin="round" stroke-linecap="round" stroke-width="0.0949" stroke="currentColor" x1="0.0474" y1="0" x2="54.3537" y2="0"/>
</g>
<g transform="translate(56.4971, 6.4867)">
<rect x="0.0000" y="-1.7000" width="0.1802" height="3.4000" ry="0.0000" fill="currentColor"/>
</g>
<a style="color:inherit;" xlink:href="textedit:///Users/tomsegarra/Documents/dev/dummies/lilypond_files/d7d54ff9920edbf69e824b5ea141fc2d.ly:24:17:18">
<g transform="translate(13.0344, 5.6367)">
<path transform="scale(0.0034, -0.0034)" d="M215 137c67 0 111 -37 111 -92c0 -90 -111 -182 -215 -182c-67 0 -111 37 -111 92c0 90 111 182 215 182z" fill="currentColor"/>
</g>
</a>
<g transform="translate(3.0762, 7.3367)">
<path transform="scale(0.0034, -0.0034)" d="M646 2c0 -113 -74 -213 -180 -247c3 -34 5 -68 5 -102c0 -20 -1 -40 -2 -60c-7 -121 -91 -228 -209 -228c-108 0 -196 87 -196 196c0 58 53 104 112 104c54 0 95 -48 95 -104c0 -52 -43 -95 -95 -95c-10 0 -20 2 -29 6c26 -38 68 -63 116 -63h3c93 2 153 92 159 190
c1 19 2 37 2 56c0 30 -2 60 -4 90c-5 -1 -43 -8 -88 -8c-194 0 -333 180 -333 375c0 177 130 307 246 442c-31 98 -53 170 -53 347c0 115 55 223 148 290c7 5 16 4 22 -1c68 -80 134 -243 134 -357c0 -143 -85 -255 -178 -364c21 -68 40 -137 57 -206c1 0 5 1 11 1
c156 0 257 -129 257 -262zM462 -202c66 24 111 88 111 162c0 89 -65 178 -170 190c28 -135 50 -272 59 -352zM75 26c0 -145 141 -245 263 -245c1 0 46 0 81 6c-7 65 -27 206 -61 363c-79 -8 -124 -61 -124 -119c0 -43 25 -89 80 -121c5 -5 7 -11 7 -16
c0 -12 -10 -23 -22 -23c-16 0 -127 63 -127 188c0 89 58 175 161 198c-14 58 -29 116 -46 173c-106 -122 -212 -244 -212 -404zM406 1042c-99 -47 -162 -148 -162 -257c0 -49 13 -111 38 -191c79 97 144 199 144 324c0 33 0 63 -20 124z" fill="currentColor"/>
</g>
<a style="color:inherit;" xlink:href="textedit:///Users/tomsegarra/Documents/dev/dummies/lilypond_files/d7d54ff9920edbf69e824b5ea141fc2d.ly:23:1:9">
<g transform="translate(6.5762, 4.7867)">
<path transform="scale(0.0034, -0.0034)" d="M217 -311c0 -11 -8 -19 -19 -19s-20 8 -20 19v142l-81 -30v-156c0 -11 -9 -20 -20 -20s-19 9 -19 20v142l-28 -11c-3 -1 -5 -1 -8 -1c-12 0 -22 10 -22 23v57c0 9 6 18 15 21l43 16v157l-28 -10c-3 -1 -5 -1 -8 -1c-12 0 -22 9 -22 22v57c0 9 6 18 15 21l43 16v157
c0 11 8 19 19 19s20 -8 20 -19v-142l81 30v156c0 11 9 20 20 20s19 -9 19 -20v-142l28 11c3 1 5 1 8 1c12 0 22 -10 22 -23v-57c0 -9 -6 -18 -15 -21l-43 -16v-157l28 10c3 1 5 1 8 1c12 0 22 -9 22 -22v-57c0 -9 -6 -18 -15 -21l-43 -16v-157zM97 64v-158l81 30v158z" fill="currentColor"/>
</g>
<g transform="translate(7.5112, 6.0617)">
<path transform="scale(0.0034, -0.0034)" d="M217 -311c0 -11 -8 -19 -19 -19s-20 8 -20 19v142l-81 -30v-156c0 -11 -9 -20 -20 -20s-19 9 -19 20v142l-28 -11c-3 -1 -5 -1 -8 -1c-12 0 -22 10 -22 23v57c0 9 6 18 15 21l43 16v157l-28 -10c-3 -1 -5 -1 -8 -1c-12 0 -22 9 -22 22v57c0 9 6 18 15 21l43 16v157
c0 11 8 19 19 19s20 -8 20 -19v-142l81 30v156c0 11 9 20 20 20s19 -9 19 -20v-142l28 11c3 1 5 1 8 1c12 0 22 -10 22 -23v-57c0 -9 -6 -18 -15 -21l-43 -16v-157l28 10c3 1 5 1 8 1c12 0 22 -9 22 -22v-57c0 -9 -6 -18 -15 -21l-43 -16v-157zM97 64v-158l81 30v158z" fill="currentColor"/>
</g>
</a>
<g transform="translate(9.5962, 6.4867)">
<path transform="scale(0.0034, -0.0034)" d="M358 29c-30 0 -74 23 -74 73c0 38 27 76 71 76c4 0 7 0 11 -1c-27 36 -69 59 -116 59c-106 0 -113 -74 -113 -188c0 -15 1 -31 1 -48s-1 -33 -1 -48c0 -114 7 -188 113 -188c79 0 136 70 155 150c2 7 7 10 13 10c7 0 14 -5 14 -13c0 -21 -50 -175 -182 -175
c-59 0 -250 20 -250 264c0 63 18 264 250 264c115 0 174 -109 174 -165c0 -39 -30 -70 -66 -70z" fill="currentColor"/>
</g>
<a style="color:inherit;" xlink:href="textedit:///Users/tomsegarra/Documents/dev/dummies/lilypond_files/d7d54ff9920edbf69e824b5ea141fc2d.ly:31:15:16">
<g transform="translate(11.0615, 11.9867)">
<text font-family="serif" font-size="2.0989" text-anchor="start" fill="currentColor">
<tspan>they'd</tspan>
</text>
</g>
</a>
<g transform="translate(13.0961, 6.4867)">
<rect x="-0.0617" y="-0.6975" width="0.1233" height="2.8225" ry="0.0400" fill="currentColor"/>
</g>
<g transform="translate(13.1577, 8.5717)">
<path transform="scale(0.0034, -0.0034)" d="M0 0h-18v250h18v-250zM0 0v250c96 59 222 149 222 259c0 57 -15 111 -40 162c-3 17 10 29 24 29c8 0 16 -5 21 -13c25 -56 40 -116 40 -178c0 -203 -267 -306 -267 -509z" fill="currentColor"/>
</g>
<a style="color:inherit;" xlink:href="textedit:///Users/tomsegarra/Documents/dev/dummies/lilypond_files/d7d54ff9920edbf69e824b5ea141fc2d.ly:25:17:18">
<g transform="translate(36.0820, 6.4867)">
<path transform="scale(0.0034, -0.0034)" d="M215 137c67 0 111 -37 111 -92c0 -90 -111 -182 -215 -182c-67 0 -111 37 -111 92c0 90 111 182 215 182z" fill="currentColor"/>
</g>
</a>
<g transform="translate(37.1277, 6.4867)">
<rect x="-0.0617" y="-2.5484" width="0.1233" height="2.3960" ry="0.0400" fill="currentColor"/>
</g>
<a style="color:inherit;" xlink:href="textedit:///Users/tomsegarra/Documents/dev/dummies/lilypond_files/d7d54ff9920edbf69e824b5ea141fc2d.ly:25:19:20">
<g transform="translate(38.5226, 6.9117)">
<path transform="scale(0.0034, -0.0034)" d="M215 137c67 0 111 -37 111 -92c0 -90 -111 -182 -215 -182c-67 0 -111 37 -111 92c0 90 111 182 215 182z" fill="currentColor"/>
</g>
</a>
<a style="color:inherit;" xlink:href="textedit:///Users/tomsegarra/Documents/dev/dummies/lilypond_files/d7d54ff9920edbf69e824b5ea141fc2d.ly:31:42:43">
<g transform="translate(37.2667, 11.9867)">
<text font-family="serif" font-size="2.0989" text-anchor="start" fill="currentColor">
<tspan>kept</tspan>
</text>
</g>
</a>
<g transform="translate(39.5683, 6.4867)">
<rect x="-0.0617" y="-2.4869" width="0.1233" height="2.7594" ry="0.0400" fill="currentColor"/>
</g>
<a style="color:inherit;" xlink:href="textedit:///Users/tomsegarra/Documents/dev/dummies/lilypond_files/d7d54ff9920edbf69e824b5ea141fc2d.ly:24:31:32">
<g transform="translate(24.2592, 6.4867)">
<path stroke-width="0.0759" stroke-linejoin="round" stroke-linecap="round" stroke="currentColor" fill="currentColor" d="M0.7537 -1.0413C1.3988 -1.7323 3.0603 -1.7323 3.7054 -1.0413L3.7054 -1.0413C3.0603 -1.6184 1.3988 -1.6184 0.7537 -1.0413z"/>
</g>
</a>
<g color="red">
<a style="color:inherit;" xlink:href="textedit:///Users/tomsegarra/Documents/dev/dummies/lilypond_files/d7d54ff9920edbf69e824b5ea141fc2d.ly:29:4:5">
<g transform="translate(42.1650, 6.9117)">
<path transform="scale(0.0034, -0.0034)" d="M215 137c67 0 111 -37 111 -92c0 -90 -111 -182 -215 -182c-67 0 -111 37 -111 92c0 90 111 182 215 182z" fill="currentColor"/>
</g>
</a>
</g>
<a style="color:inherit;" xlink:href="textedit:///Users/tomsegarra/Documents/dev/dummies/lilypond_files/d7d54ff9920edbf69e824b5ea141fc2d.ly:31:47:48">
<g transform="translate(41.3359, 11.9867)">
<text font-family="serif" font-size="2.0989" text-anchor="start" fill="currentColor">
<tspan>fall</tspan>
</text>
</g>
</a>
<g color="red">
<g transform="translate(43.2107, 6.4867)">
<rect x="-0.0617" y="-2.3950" width="0.1233" height="2.6675" ry="0.0400" fill="currentColor"/>
</g>
</g>
<g color="red">
<a style="color:inherit;" xlink:href="textedit:///Users/tomsegarra/Documents/dev/dummies/lilypond_files/d7d54ff9920edbf69e824b5ea141fc2d.ly:29:11:12">
<g transform="translate(44.6550, 7.7617)">
<path transform="scale(0.0034, -0.0034)" d="M215 137c67 0 111 -37 111 -92c0 -90 -111 -182 -215 -182c-67 0 -111 37 -111 92c0 90 111 182 215 182z" fill="currentColor"/>
</g>
</a>
</g>
<a style="color:inherit;" xlink:href="textedit:///Users/tomsegarra/Documents/dev/dummies/lilypond_files/d7d54ff9920edbf69e824b5ea141fc2d.ly:31:55:56">
<g transform="translate(44.2015, 11.9867)">
<text font-family="serif" font-size="2.0989" text-anchor="start" fill="currentColor">
<tspan>in'</tspan>
</text>
</g>
</a>
<g color="red">
<g transform="translate(45.7008, 6.4867)">
<rect x="-0.0617" y="-1.8676" width="0.1233" height="2.9901" ry="0.0400" fill="currentColor"/>
</g>
</g>
<g transform="translate(21.6679, 8.2785)">
<polygon stroke-linejoin="round" stroke-linecap="round" stroke-width="0.0800" fill="currentColor" stroke="currentColor" points="2.6747 -0.0992 2.6747 0.2288 0.0400 0.1640 0.0400 -0.1640"/>
</g>
<g transform="translate(17.8206, 8.8801)">
<polygon stroke-linejoin="round" stroke-linecap="round" stroke-width="0.0800" fill="currentColor" stroke="currentColor" points="6.5219 -0.0074 6.5219 0.3206 0.0400 0.1640 0.0400 -0.1640"/>
</g>
<g color="red">
<a style="color:inherit;" xlink:href="textedit:///Users/tomsegarra/Documents/dev/dummies/lilypond_files/d7d54ff9920edbf69e824b5ea141fc2d.ly:29:14:15">
<g transform="translate(48.4124, 6.4867)">
<path transform="scale(0.0034, -0.0034)" d="M215 137c67 0 111 -37 111 -92c0 -90 -111 -182 -215 -182c-67 0 -111 37 -111 92c0 90 111 182 215 182z" fill="currentColor"/>
</g>
</a>
</g>
<a style="color:inherit;" xlink:href="textedit:///Users/tomsegarra/Documents/dev/dummies/lilypond_files/d7d54ff9920edbf69e824b5ea141fc2d.ly:31:59:60">
<g transform="translate(48.4124, 11.9867)">
<text font-family="serif" font-size="2.0989" text-anchor="start" fill="currentColor">
<tspan>down</tspan>
</text>
</g>
</a>
<g color="red">
<g transform="translate(49.4582, 6.4867)">
<rect x="-0.0617" y="-2.5390" width="0.1233" height="2.3865" ry="0.0400" fill="currentColor"/>
</g>
</g>
<g color="red">
<a style="color:inherit;" xlink:href="textedit:///Users/tomsegarra/Documents/dev/dummies/lilypond_files/d7d54ff9920edbf69e824b5ea141fc2d.ly:29:20:21">
<g transform="translate(51.9198, 6.4867)">
<path transform="scale(0.0034, -0.0034)" d="M215 137c67 0 111 -37 111 -92c0 -90 -111 -182 -215 -182c-67 0 -111 37 -111 92c0 90 111 182 215 182z" fill="currentColor"/>
</g>
</a>
</g>
<g color="red">
<g transform="translate(51.9815, 6.4867)">
<rect x="-0.0617" y="0.1525" width="0.1233" height="2.6809" ry="0.0400" fill="currentColor"/>
</g>
</g>
<a style="color:inherit;" xlink:href="textedit:///Users/tomsegarra/Documents/dev/dummies/lilypond_files/d7d54ff9920edbf69e824b5ea141fc2d.ly:25:12:13">
<g transform="translate(33.6414, 6.4867)">
<path stroke-width="0.0759" stroke-linejoin="round" stroke-linecap="round" stroke="currentColor" fill="currentColor" d="M1.3074 -0.2086C1.5690 -0.5547 1.9790 -0.5547 2.2406 -0.2086L2.2406 -0.2086C1.9790 -0.4408 1.5690 -0.4408 1.3074 -0.2086z"/>
</g>
</a>
<a style="color:inherit;" xlink:href="textedit:///Users/tomsegarra/Documents/dev/dummies/lilypond_files/d7d54ff9920edbf69e824b5ea141fc2d.ly:24:24:25">
<g transform="translate(17.8206, 5.6367)">
<path transform="scale(0.0034, -0.0034)" d="M215 137c67 0 111 -37 111 -92c0 -90 -111 -182 -215 -182c-67 0 -111 37 -111 92c0 90 111 182 215 182z" fill="currentColor"/>
</g>
</a>
<a style="color:inherit;" xlink:href="textedit:///Users/tomsegarra/Documents/dev/dummies/lilypond_files/d7d54ff9920edbf69e824b5ea141fc2d.ly:31:22:23">
<g transform="translate(16.5647, 11.9867)">
<text font-family="serif" font-size="2.0989" text-anchor="start" fill="currentColor">
<tspan>pick</tspan>
</text>
</g>
</a>
<g transform="translate(17.8823, 6.4867)">
<rect x="-0.0617" y="-0.6975" width="0.1233" height="3.0924" ry="0.0400" fill="currentColor"/>
</g>
<a style="color:inherit;" xlink:href="textedit:///Users/tomsegarra/Documents/dev/dummies/lilypond_files/d7d54ff9920edbf69e824b5ea141fc2d.ly:24:26:27">
<g transform="translate(21.6679, 6.0617)">
<path transform="scale(0.0034, -0.0034)" d="M215 137c67 0 111 -37 111 -92c0 -90 -111 -182 -215 -182c-67 0 -111 37 -111 92c0 90 111 182 215 182z" fill="currentColor"/>
</g>
</a>
<a style="color:inherit;" xlink:href="textedit:///Users/tomsegarra/Documents/dev/dummies/lilypond_files/d7d54ff9920edbf69e824b5ea141fc2d.ly:31:27:28">
<g transform="translate(20.6339, 11.9867)">
<text font-family="serif" font-size="2.0989" text-anchor="start" fill="currentColor">
<tspan>you</tspan>
</text>
</g>
</a>
<g transform="translate(21.7295, 6.4867)">
<rect x="-0.0617" y="-0.2725" width="0.1233" height="2.7592" ry="0.0400" fill="currentColor"/>
</g>
<g transform="translate(31.1183, 8.6528)">
<polygon stroke-linejoin="round" stroke-linecap="round" stroke-width="0.0800" fill="currentColor" stroke="currentColor" points="2.6064 -0.0486 2.6064 0.2794 0.0400 0.1640 0.0400 -0.1640"/>
</g>
<g transform="translate(27.6109, 9.1932)">
<polygon stroke-linejoin="round" stroke-linecap="round" stroke-width="0.0800" fill="currentColor" stroke="currentColor" points="6.1138 0.1044 6.1138 0.4324 0.0400 0.1640 0.0400 -0.1640"/>
</g>
<a style="color:inherit;" xlink:href="textedit:///Users/tomsegarra/Documents/dev/dummies/lilypond_files/d7d54ff9920edbf69e824b5ea141fc2d.ly:24:30:31">
<g transform="translate(24.2592, 6.0617)">
<path transform="scale(0.0034, -0.0034)" d="M215 137c67 0 111 -37 111 -92c0 -90 -111 -182 -215 -182c-67 0 -111 37 -111 92c0 90 111 182 215 182z" fill="currentColor"/>
</g>
</a>
<a style="color:inherit;" xlink:href="textedit:///Users/tomsegarra/Documents/dev/dummies/lilypond_files/d7d54ff9920edbf69e824b5ea141fc2d.ly:31:31:32">
<g transform="translate(24.2592, 11.9867)">
<text font-family="serif" font-size="2.0989" text-anchor="start" fill="currentColor">
<tspan>up</tspan>
</text>
</g>
</a>
<g transform="translate(24.3209, 6.4867)">
<rect x="-0.0617" y="-0.2725" width="0.1233" height="2.8211" ry="0.0400" fill="currentColor"/>
</g>
<a style="color:inherit;" xlink:href="textedit:///Users/tomsegarra/Documents/dev/dummies/lilypond_files/d7d54ff9920edbf69e824b5ea141fc2d.ly:25:4:5">
<g transform="translate(27.6109, 6.0617)">
<path transform="scale(0.0034, -0.0034)" d="M215 137c67 0 111 -37 111 -92c0 -90 -111 -182 -215 -182c-67 0 -111 37 -111 92c0 90 111 182 215 182z" fill="currentColor"/>
</g>
</a>
<g transform="translate(27.6726, 6.4867)">
<rect x="-0.0617" y="-0.2725" width="0.1233" height="2.9818" ry="0.0400" fill="currentColor"/>
</g>
<a style="color:inherit;" xlink:href="textedit:///Users/tomsegarra/Documents/dev/dummies/lilypond_files/d7d54ff9920edbf69e824b5ea141fc2d.ly:25:7:8">
<g transform="translate(31.1183, 6.4867)">
<path transform="scale(0.0034, -0.0034)" d="M215 137c67 0 111 -37 111 -92c0 -90 -111 -182 -215 -182c-67 0 -111 37 -111 92c0 90 111 182 215 182z" fill="currentColor"/>
</g>
</a>
<a style="color:inherit;" xlink:href="textedit:///Users/tomsegarra/Documents/dev/dummies/lilypond_files/d7d54ff9920edbf69e824b5ea141fc2d.ly:31:34:35">
<g transform="translate(30.1526, 11.9867)">
<text font-family="serif" font-size="2.0989" text-anchor="start" fill="currentColor">
<tspan>and</tspan>
</text>
</g>
</a>
<g transform="translate(31.1800, 6.4867)">
<rect x="-0.0617" y="0.1525" width="0.1233" height="2.7098" ry="0.0400" fill="currentColor"/>
</g>
<g transform="translate(37.0661, 3.9367)">
<polygon stroke-linejoin="round" stroke-linecap="round" stroke-width="0.0800" fill="currentColor" stroke="currentColor" points="6.1663 -0.0074 6.1663 0.3206 0.0400 0.1640 0.0400 -0.1640"/>
</g>
<g transform="translate(42.1107, 4.7574)">
<polygon stroke-linejoin="round" stroke-linecap="round" stroke-width="0.0800" fill="currentColor" stroke="currentColor" points="1.1217 -0.1347 1.1217 0.1933 0.0400 0.1640 0.0400 -0.1640"/>
</g>
<g transform="translate(37.0661, 4.6301)">
<polygon stroke-linejoin="round" stroke-linecap="round" stroke-width="0.0800" fill="currentColor" stroke="currentColor" points="1.1217 -0.1347 1.1217 0.1933 0.0400 0.1640 0.0400 -0.1640"/>
</g>
<a style="color:inherit;" xlink:href="textedit:///Users/tomsegarra/Documents/dev/dummies/lilypond_files/d7d54ff9920edbf69e824b5ea141fc2d.ly:25:11:12">
<g transform="translate(33.6414, 6.4867)">
<path transform="scale(0.0034, -0.0034)" d="M215 137c67 0 111 -37 111 -92c0 -90 -111 -182 -215 -182c-67 0 -111 37 -111 92c0 90 111 182 215 182z" fill="currentColor"/>
</g>
</a>
<a style="color:inherit;" xlink:href="textedit:///Users/tomsegarra/Documents/dev/dummies/lilypond_files/d7d54ff9920edbf69e824b5ea141fc2d.ly:31:38:39">
<g transform="translate(33.6414, 11.9867)">
<text font-family="serif" font-size="2.0989" text-anchor="start" fill="currentColor">
<tspan>you</tspan>
</text>
</g>
</a>
<g transform="translate(33.7030, 6.4867)">
<rect x="-0.0617" y="0.1525" width="0.1233" height="2.8199" ry="0.0400" fill="currentColor"/>
</g>
<g color="red">
<g transform="translate(45.6391, 4.6301)">
<polygon stroke-linejoin="round" stroke-linecap="round" stroke-width="0.0800" fill="currentColor" stroke="currentColor" points="3.8407 -0.8574 3.8407 -0.5294 0.0400 0.1640 0.0400 -0.1640"/>
</g>
</g>
<a style="color:inherit;" xlink:href="textedit:///Users/tomsegarra/Documents/dev/dummies/lilypond_files/d7d54ff9920edbf69e824b5ea141fc2d.ly:29:16:17">
<g transform="translate(48.4124, 6.4867)">
<path stroke-width="0.0759" stroke-linejoin="round" stroke-linecap="round" stroke="currentColor" fill="currentColor" d="M1.4382 -0.1864C1.9015 -0.7362 2.8441 -0.7362 3.3074 -0.1864L3.3074 -0.1864C2.8441 -0.6223 1.9015 -0.6223 1.4382 -0.1864z"/>
</g>
</a>
</svg>
