<?xml version="1.0" encoding="UTF-8" standalone="no"?>
<svg
   version="1.2"
   width="145.85034mm"
   height="13.623349mm"
   viewBox="0 0 82.999506 7.752438"
   id="svg542"
   sodipodi:docname="d85cfcf22d2ebe76ccc0bdf689ba24e9.svg"
   xmlns:inkscape="http://www.inkscape.org/namespaces/inkscape"
   xmlns:sodipodi="http://sodipodi.sourceforge.net/DTD/sodipodi-0.dtd"
   xmlns:xlink="http://www.w3.org/1999/xlink"
   xmlns="http://www.w3.org/2000/svg"
   xmlns:svg="http://www.w3.org/2000/svg">
  <defs
     id="defs546" />
  <sodipodi:namedview
     id="namedview544"
     pagecolor="#ffffff"
     bordercolor="#000000"
     borderopacity="0.25"
     inkscape:showpageshadow="2"
     inkscape:pageopacity="0.0"
     inkscape:pagecheckerboard="0"
     inkscape:deskcolor="#d1d1d1"
     inkscape:document-units="mm" />
  <style
     type="text/css"
     id="style2"><![CDATA[
tspan { white-space: pre; }
]]></style>
  <!-- Page: 1/1 -->
  <g
     transform="translate(26.63995,4.7410294)"
     id="g6">
    <rect
       x="0"
       y="-1.7"
       width="0.1802"
       height="3.4000001"
       ry="0.0000"
       fill="currentColor"
       id="rect4" />
  </g>
  <g
     transform="translate(4.9997121e-5,6.4410294)"
     id="g10">
    <line
       stroke-linejoin="round"
       stroke-linecap="round"
       stroke-width="0.0949"
       stroke="currentColor"
       x1="0.047400001"
       y1="0"
       x2="82.952003"
       y2="0"
       id="line8" />
  </g>
  <g
     transform="translate(4.9997121e-5,5.5910294)"
     id="g14">
    <line
       stroke-linejoin="round"
       stroke-linecap="round"
       stroke-width="0.0949"
       stroke="currentColor"
       x1="0.047400001"
       y1="0"
       x2="82.952003"
       y2="0"
       id="line12" />
  </g>
  <g
     transform="translate(4.9997121e-5,4.7410294)"
     id="g18">
    <line
       stroke-linejoin="round"
       stroke-linecap="round"
       stroke-width="0.0949"
       stroke="currentColor"
       x1="0.047400001"
       y1="0"
       x2="82.952003"
       y2="0"
       id="line16" />
  </g>
  <g
     transform="translate(4.9997121e-5,3.8910294)"
     id="g22">
    <line
       stroke-linejoin="round"
       stroke-linecap="round"
       stroke-width="0.0949"
       stroke="currentColor"
       x1="0.047400001"
       y1="0"
       x2="82.952003"
       y2="0"
       id="line20" />
  </g>
  <g
     transform="translate(4.9997121e-5,3.0410294)"
     id="g26">
    <line
       stroke-linejoin="round"
       stroke-linecap="round"
       stroke-width="0.0949"
       stroke="currentColor"
       x1="0.047400001"
       y1="0"
       x2="82.952003"
       y2="0"
       id="line24" />
  </g>
  <g
     transform="translate(82.81925,4.7410294)"
     id="g30">
    <rect
       x="0"
       y="-1.7"
       width="0.1802"
       height="3.4000001"
       ry="0.0000"
       fill="currentColor"
       id="rect28" />
  </g>
  <g
     transform="translate(64.94465,4.7410294)"
     id="g34">
    <rect
       x="0"
       y="-1.7"
       width="0.1802"
       height="3.4000001"
       ry="0.0000"
       fill="currentColor"
       id="rect32" />
  </g>
  <g
     transform="translate(45.77005,4.7410294)"
     id="g38">
    <rect
       x="0"
       y="-1.7"
       width="0.1802"
       height="3.4000001"
       ry="0.0000"
       fill="currentColor"
       id="rect36" />
  </g>
  <g
     transform="translate(8.43825,7.1345294)"
     id="g42">
    <polygon
       stroke-linejoin="round"
       stroke-linecap="round"
       stroke-width="0.08"
       fill="currentColor"
       stroke="currentColor"
       points="0.04,0.164 0.04,-0.164 2.3907,-0.164 2.3907,0.164 "
       id="polygon40" />
  </g>
  <a
     style="color:inherit"
     xlink:href="textedit:///Users/tomsegarra/Documents/dev/dummies/lilypond_files/d85cfcf22d2ebe76ccc0bdf689ba24e9.ly:27:8:9"
     id="a48"
     transform="translate(-2.27615,-3.2788706)">
    <g
       transform="translate(17.3792,10.4134)"
       id="g46">
      <polygon
         stroke-linejoin="round"
         stroke-linecap="round"
         stroke-width="0.08"
         fill="currentColor"
         stroke="currentColor"
         points="0.04,0.164 0.04,-0.164 4.6981,-0.7009 4.6981,-0.3729 "
         id="polygon44" />
    </g>
  </a>
  <a
     style="color:inherit"
     xlink:href="textedit:///Users/tomsegarra/Documents/dev/dummies/lilypond_files/d85cfcf22d2ebe76ccc0bdf689ba24e9.ly:19:12:13"
     id="a62"
     transform="translate(-2.27615,-3.2788706)">
    <g
       transform="translate(10.7144,4.9225)"
       id="g54">
      <text
         font-family="sans-serif"
         font-size="2.224px"
         text-anchor="start"
         fill="currentColor"
         id="text52"><tspan
           id="tspan50">A</tspan></text>
    </g>
    <g
       transform="translate(12.2508,4.9225)"
       id="g60">
      <text
         font-family="sans-serif"
         font-size="2.224px"
         text-anchor="start"
         fill="currentColor"
         id="text58"><tspan
           id="tspan56">m</tspan></text>
    </g>
  </a>
  <a
     style="color:inherit"
     xlink:href="textedit:///Users/tomsegarra/Documents/dev/dummies/lilypond_files/d85cfcf22d2ebe76ccc0bdf689ba24e9.ly:23:4:5"
     id="a68"
     transform="translate(-2.27615,-3.2788706)">
    <g
       transform="translate(10.7144,7.5949)"
       id="g66">
      <path
         transform="scale(0.0034,-0.0034)"
         d="m 215,137 c 67,0 111,-37 111,-92 0,-90 -111,-182 -215,-182 -67,0 -111,37 -111,92 0,90 111,182 215,182 z"
         fill="currentColor"
         id="path64" />
    </g>
  </a>
  <g
     transform="translate(0.80005,5.5910294)"
     id="g72">
    <path
       transform="scale(0.0034,-0.0034)"
       d="m 646,2 c 0,-113 -74,-213 -180,-247 3,-34 5,-68 5,-102 0,-20 -1,-40 -2,-60 -7,-121 -91,-228 -209,-228 -108,0 -196,87 -196,196 0,58 53,104 112,104 54,0 95,-48 95,-104 0,-52 -43,-95 -95,-95 -10,0 -20,2 -29,6 26,-38 68,-63 116,-63 h 3 c 93,2 153,92 159,190 1,19 2,37 2,56 0,30 -2,60 -4,90 -5,-1 -43,-8 -88,-8 -194,0 -333,180 -333,375 0,177 130,307 246,442 -31,98 -53,170 -53,347 0,115 55,223 148,290 7,5 16,4 22,-1 68,-80 134,-243 134,-357 0,-143 -85,-255 -178,-364 21,-68 40,-137 57,-206 1,0 5,1 11,1 C 545,264 646,135 646,2 Z M 462,-202 c 66,24 111,88 111,162 0,89 -65,178 -170,190 28,-135 50,-272 59,-352 z M 75,26 c 0,-145 141,-245 263,-245 1,0 46,0 81,6 -7,65 -27,206 -61,363 -79,-8 -124,-61 -124,-119 0,-43 25,-89 80,-121 5,-5 7,-11 7,-16 0,-12 -10,-23 -22,-23 -16,0 -127,63 -127,188 0,89 58,175 161,198 -14,58 -29,116 -46,173 C 181,308 75,186 75,26 Z M 406,1042 C 307,995 244,894 244,785 c 0,-49 13,-111 38,-191 79,97 144,199 144,324 0,33 0,63 -20,124 z"
       fill="currentColor"
       id="path70" />
  </g>
  <a
     style="color:inherit"
     xlink:href="textedit:///Users/tomsegarra/Documents/dev/dummies/lilypond_files/d85cfcf22d2ebe76ccc0bdf689ba24e9.ly:22:1:9"
     id="a74"
     transform="translate(-2.27615,-3.2788706)" />
  <g
     transform="translate(5.00005,4.7410294)"
     id="g78">
    <path
       transform="scale(0.0034,-0.0034)"
       d="m 358,29 c -30,0 -74,23 -74,73 0,38 27,76 71,76 4,0 7,0 11,-1 -27,36 -69,59 -116,59 -106,0 -113,-74 -113,-188 0,-15 1,-31 1,-48 0,-17 -1,-33 -1,-48 0,-114 7,-188 113,-188 79,0 136,70 155,150 2,7 7,10 13,10 7,0 14,-5 14,-13 0,-21 -50,-175 -182,-175 C 191,-264 0,-244 0,0 0,63 18,264 250,264 365,264 424,155 424,99 424,60 394,29 358,29 Z"
       fill="currentColor"
       id="path76" />
  </g>
  <g
     transform="translate(8.49985,4.7410294)"
     id="g82">
    <rect
       x="-0.061700001"
       y="-0.27250001"
       width="0.1233"
       height="2.6659999"
       ry="0.039999999"
       fill="currentColor"
       id="rect80" />
  </g>
  <g
     transform="translate(27.82575,7.2910294)"
     id="g86">
    <polygon
       stroke-linejoin="round"
       stroke-linecap="round"
       stroke-width="0.08"
       fill="currentColor"
       stroke="currentColor"
       points="0.04,0.164 0.04,-0.164 2.3907,-0.164 2.3907,0.164 "
       id="polygon84" />
  </g>
  <a
     style="color:inherit"
     xlink:href="textedit:///Users/tomsegarra/Documents/dev/dummies/lilypond_files/d85cfcf22d2ebe76ccc0bdf689ba24e9.ly:30:33:34"
     id="a92"
     transform="translate(-2.27615,-3.2788706)">
    <g
       transform="translate(43.6888,8.0199)"
       id="g90">
      <path
         transform="scale(0.0034,-0.0034)"
         d="m 70,205 c 80,0 46,-97 90,-97 15,0 52,45 59,59 6,13 26,13 31,0 L 129,-250 c -9,-7 -19,-11 -30,-11 -11,0 -21,4 -30,11 L 187,76 C 154,64 119,54 84,54 37,54 -3,88 -3,133 c 0,40 33,72 73,72 z"
         fill="currentColor"
         id="path88" />
    </g>
  </a>
  <g
     transform="translate(36.79785,7.2910294)"
     id="g96">
    <polygon
       stroke-linejoin="round"
       stroke-linecap="round"
       stroke-width="0.08"
       fill="currentColor"
       stroke="currentColor"
       points="0.04,0.164 0.04,-0.164 2.3907,-0.164 2.3907,0.164 "
       id="polygon94" />
  </g>
  <g
     color="#000000"
     id="g104"
     transform="translate(-2.27615,-3.2788706)">
    <a
       style="color:inherit"
       xlink:href="textedit:///Users/tomsegarra/Documents/dev/dummies/lilypond_files/d85cfcf22d2ebe76ccc0bdf689ba24e9.ly:30:35:36"
       id="a102">
      <g
         transform="translate(45.7388,8.0199)"
         id="g100">
        <path
           transform="scale(0.0034,-0.0034)"
           d="m 215,137 c 67,0 111,-37 111,-92 0,-90 -111,-182 -215,-182 -67,0 -111,37 -111,92 0,90 111,182 215,182 z"
           fill="currentColor"
           id="path98" />
      </g>
    </a>
  </g>
  <g
     color="#000000"
     id="g110"
     transform="translate(-2.27615,-3.2788706)">
    <g
       transform="translate(45.8005,8.0199)"
       id="g108">
      <rect
         x="-0.061700001"
         y="0.1525"
         width="0.1233"
         height="2.7163"
         ry="0.039999999"
         fill="currentColor"
         id="rect106" />
    </g>
  </g>
  <g
     color="#000000"
     id="g116"
     transform="translate(-2.27615,-3.2788706)">
    <g
       transform="translate(45.8621,10.8487)"
       id="g114">
      <path
         transform="scale(0.0034,-0.0034)"
         d="M 0,0 H -18 V 250 H 0 Z m 0,0 v 250 c 96,59 222,149 222,259 0,57 -15,111 -40,162 -3,17 10,29 24,29 8,0 16,-5 21,-13 25,-56 40,-116 40,-178 C 267,306 0,203 0,0 Z"
         fill="currentColor"
         id="path112" />
    </g>
  </g>
  <g
     transform="translate(46.98015,7.1345294)"
     id="g120">
    <polygon
       stroke-linejoin="round"
       stroke-linecap="round"
       stroke-width="0.08"
       fill="currentColor"
       stroke="currentColor"
       points="0.04,0.164 0.04,-0.164 2.3907,-0.164 2.3907,0.164 "
       id="polygon118" />
  </g>
  <g
     transform="translate(55.95225,6.4410294)"
     id="g124">
    <polygon
       stroke-linejoin="round"
       stroke-linecap="round"
       stroke-width="0.08"
       fill="currentColor"
       stroke="currentColor"
       points="0.04,0.164 0.04,-0.164 7.0055,-0.164 7.0055,0.164 "
       id="polygon122" />
  </g>
  <a
     style="color:inherit"
     xlink:href="textedit:///Users/tomsegarra/Documents/dev/dummies/lilypond_files/d85cfcf22d2ebe76ccc0bdf689ba24e9.ly:19:19:20"
     id="a138"
     transform="translate(-2.27615,-3.2788706)">
    <g
       transform="translate(49.2563,4.9225)"
       id="g130">
      <text
         font-family="sans-serif"
         font-size="2.224px"
         text-anchor="start"
         fill="currentColor"
         id="text128"><tspan
           id="tspan126">A</tspan></text>
    </g>
    <g
       transform="translate(50.7927,4.9225)"
       id="g136">
      <text
         font-family="sans-serif"
         font-size="2.224px"
         text-anchor="start"
         fill="currentColor"
         id="text134"><tspan
           id="tspan132">m</tspan></text>
    </g>
  </a>
  <g
     color="#000000"
     id="g146"
     transform="translate(-2.27615,-3.2788706)">
    <a
       style="color:inherit"
       xlink:href="textedit:///Users/tomsegarra/Documents/dev/dummies/lilypond_files/d85cfcf22d2ebe76ccc0bdf689ba24e9.ly:30:40:41"
       id="a144">
      <g
         transform="translate(49.2563,7.5949)"
         id="g142">
        <path
           transform="scale(0.0034,-0.0034)"
           d="m 215,137 c 67,0 111,-37 111,-92 0,-90 -111,-182 -215,-182 -67,0 -111,37 -111,92 0,90 111,182 215,182 z"
           fill="currentColor"
           id="path140" />
      </g>
    </a>
  </g>
  <g
     color="#000000"
     id="g152"
     transform="translate(-2.27615,-3.2788706)">
    <g
       transform="translate(49.3179,8.0199)"
       id="g150">
      <rect
         x="-0.061700001"
         y="-0.27250001"
         width="0.1233"
         height="2.6659999"
         ry="0.039999999"
         fill="currentColor"
         id="rect148" />
    </g>
  </g>
  <g
     transform="translate(67.00895,2.3476294)"
     id="g156">
    <polygon
       stroke-linejoin="round"
       stroke-linecap="round"
       stroke-width="0.08"
       fill="currentColor"
       stroke="currentColor"
       points="0.04,0.164 0.04,-0.164 2.3907,-0.164 2.3907,0.164 "
       id="polygon154" />
  </g>
  <g
     color="#000000"
     id="g164"
     transform="translate(-2.27615,-3.2788706)">
    <a
       style="color:inherit"
       xlink:href="textedit:///Users/tomsegarra/Documents/dev/dummies/lilypond_files/d85cfcf22d2ebe76ccc0bdf689ba24e9.ly:30:44:45"
       id="a162">
      <g
         transform="translate(51.5637,7.5949)"
         id="g160">
        <path
           transform="scale(0.0034,-0.0034)"
           d="m 215,137 c 67,0 111,-37 111,-92 0,-90 -111,-182 -215,-182 -67,0 -111,37 -111,92 0,90 111,182 215,182 z"
           fill="currentColor"
           id="path158" />
      </g>
    </a>
  </g>
  <g
     color="#000000"
     id="g170"
     transform="translate(-2.27615,-3.2788706)">
    <g
       transform="translate(51.6253,8.0199)"
       id="g168">
      <rect
         x="-0.061700001"
         y="-0.27250001"
         width="0.1233"
         height="2.6659999"
         ry="0.039999999"
         fill="currentColor"
         id="rect166" />
    </g>
  </g>
  <g
     transform="translate(75.98105,2.3476294)"
     id="g174">
    <polygon
       stroke-linejoin="round"
       stroke-linecap="round"
       stroke-width="0.08"
       fill="currentColor"
       stroke="currentColor"
       points="0.04,0.164 0.04,-0.164 2.3907,-0.164 2.3907,0.164 "
       id="polygon172" />
  </g>
  <a
     style="color:inherit"
     xlink:href="textedit:///Users/tomsegarra/Documents/dev/dummies/lilypond_files/d85cfcf22d2ebe76ccc0bdf689ba24e9.ly:30:48:49"
     id="a180"
     transform="translate(-2.27615,-3.2788706)">
    <g
       transform="translate(53.871,8.0199)"
       id="g178">
      <path
         transform="scale(0.0034,-0.0034)"
         d="m 70,205 c 80,0 46,-97 90,-97 15,0 52,45 59,59 6,13 26,13 31,0 L 129,-250 c -9,-7 -19,-11 -30,-11 -11,0 -21,4 -30,11 L 187,76 C 154,64 119,54 84,54 37,54 -3,88 -3,133 c 0,40 33,72 73,72 z"
         fill="currentColor"
         id="path176" />
    </g>
  </a>
  <g
     color="#ff0000"
     id="g188"
     transform="translate(-2.27615,-3.2788706)">
    <a
       style="color:inherit"
       xlink:href="textedit:///Users/tomsegarra/Documents/dev/dummies/lilypond_files/d85cfcf22d2ebe76ccc0bdf689ba24e9.ly:33:4:5"
       id="a186">
      <g
         transform="translate(55.921,7.5949)"
         id="g184">
        <path
           transform="scale(0.0034,-0.0034)"
           d="m 215,137 c 67,0 111,-37 111,-92 0,-90 -111,-182 -215,-182 -67,0 -111,37 -111,92 0,90 111,182 215,182 z"
           fill="currentColor"
           id="path182" />
      </g>
    </a>
  </g>
  <g
     color="#ff0000"
     id="g194"
     transform="translate(-2.27615,-3.2788706)">
    <g
       transform="translate(55.9827,8.0199)"
       id="g192">
      <rect
         x="-0.061700001"
         y="-0.27250001"
         width="0.1233"
         height="2.8225"
         ry="0.039999999"
         fill="currentColor"
         id="rect190" />
    </g>
  </g>
  <g
     color="#ff0000"
     id="g200"
     transform="translate(-2.27615,-3.2788706)">
    <g
       transform="translate(56.0444,10.5299)"
       id="g198">
      <path
         transform="scale(0.0034,-0.0034)"
         d="M 0,0 H -18 V 250 H 0 Z m 0,0 v 250 c 96,59 222,149 222,259 0,57 -15,111 -40,162 -3,17 10,29 24,29 8,0 16,-5 21,-13 25,-56 40,-116 40,-178 C 267,306 0,203 0,0 Z"
         fill="currentColor"
         id="path196" />
    </g>
  </g>
  <g
     color="#ff0000"
     id="g208"
     transform="translate(-2.27615,-3.2788706)">
    <a
       style="color:inherit"
       xlink:href="textedit:///Users/tomsegarra/Documents/dev/dummies/lilypond_files/d85cfcf22d2ebe76ccc0bdf689ba24e9.ly:33:8:9"
       id="a206">
      <g
         transform="translate(58.2284,7.1699)"
         id="g204">
        <path
           transform="scale(0.0034,-0.0034)"
           d="m 215,137 c 67,0 111,-37 111,-92 0,-90 -111,-182 -215,-182 -67,0 -111,37 -111,92 0,90 111,182 215,182 z"
           fill="currentColor"
           id="path202" />
      </g>
    </a>
  </g>
  <g
     color="#ff0000"
     id="g214"
     transform="translate(-2.27615,-3.2788706)">
    <g
       transform="translate(58.2901,8.0199)"
       id="g212">
      <rect
         x="-0.061700001"
         y="-0.69749999"
         width="0.1233"
         height="2.3975"
         ry="0.039999999"
         fill="currentColor"
         id="rect210" />
    </g>
  </g>
  <g
     color="#ff0000"
     id="g222"
     transform="translate(-2.27615,-3.2788706)">
    <a
       style="color:inherit"
       xlink:href="textedit:///Users/tomsegarra/Documents/dev/dummies/lilypond_files/d85cfcf22d2ebe76ccc0bdf689ba24e9.ly:33:12:13"
       id="a220">
      <g
         transform="translate(60.5358,6.7449)"
         id="g218">
        <path
           transform="scale(0.0034,-0.0034)"
           d="m 215,137 c 67,0 111,-37 111,-92 0,-90 -111,-182 -215,-182 -67,0 -111,37 -111,92 0,90 111,182 215,182 z"
           fill="currentColor"
           id="path216" />
      </g>
    </a>
  </g>
  <g
     color="#ff0000"
     id="g228"
     transform="translate(-2.27615,-3.2788706)">
    <g
       transform="translate(60.5975,8.0199)"
       id="g226">
      <rect
         x="-0.061700001"
         y="-1.1224999"
         width="0.1233"
         height="2.8225"
         ry="0.039999999"
         fill="currentColor"
         id="rect224" />
    </g>
  </g>
  <g
     color="#000000"
     id="g234"
     transform="translate(-2.27615,-3.2788706)">
    <g
       transform="translate(41.4431,8.0199)"
       id="g232">
      <rect
         x="-0.061700001"
         y="0.1525"
         width="0.1233"
         height="2.3975"
         ry="0.039999999"
         fill="currentColor"
         id="rect230" />
    </g>
  </g>
  <g
     color="#ff0000"
     id="g242"
     transform="translate(-2.27615,-3.2788706)">
    <a
       style="color:inherit"
       xlink:href="textedit:///Users/tomsegarra/Documents/dev/dummies/lilypond_files/d85cfcf22d2ebe76ccc0bdf689ba24e9.ly:33:14:15"
       id="a240">
      <g
         transform="translate(62.8432,7.1699)"
         id="g238">
        <path
           transform="scale(0.0034,-0.0034)"
           d="m 215,137 c 67,0 111,-37 111,-92 0,-90 -111,-182 -215,-182 -67,0 -111,37 -111,92 0,90 111,182 215,182 z"
           fill="currentColor"
           id="path236" />
      </g>
    </a>
  </g>
  <g
     color="#ff0000"
     id="g248"
     transform="translate(-2.27615,-3.2788706)">
    <g
       transform="translate(62.9049,8.0199)"
       id="g246">
      <rect
         x="-0.061700001"
         y="-0.69749999"
         width="0.1233"
         height="2.3975"
         ry="0.039999999"
         fill="currentColor"
         id="rect244" />
    </g>
  </g>
  <g
     color="#000000"
     id="g256"
     transform="translate(-2.27615,-3.2788706)">
    <a
       style="color:inherit"
       xlink:href="textedit:///Users/tomsegarra/Documents/dev/dummies/lilypond_files/d85cfcf22d2ebe76ccc0bdf689ba24e9.ly:30:31:32"
       id="a254">
      <g
         transform="translate(41.3814,8.0199)"
         id="g252">
        <path
           transform="scale(0.0034,-0.0034)"
           d="m 215,137 c 67,0 111,-37 111,-92 0,-90 -111,-182 -215,-182 -67,0 -111,37 -111,92 0,90 111,182 215,182 z"
           fill="currentColor"
           id="path250" />
      </g>
    </a>
  </g>
  <g
     color="#000000"
     id="g264"
     transform="translate(-2.27615,-3.2788706)">
    <a
       style="color:inherit"
       xlink:href="textedit:///Users/tomsegarra/Documents/dev/dummies/lilypond_files/d85cfcf22d2ebe76ccc0bdf689ba24e9.ly:36:4:5"
       id="a262">
      <g
         transform="translate(65.1506,6.7449)"
         id="g260">
        <path
           transform="scale(0.0034,-0.0034)"
           d="m 215,137 c 67,0 111,-37 111,-92 0,-90 -111,-182 -215,-182 -67,0 -111,37 -111,92 0,90 111,182 215,182 z"
           fill="currentColor"
           id="path258" />
      </g>
    </a>
  </g>
  <g
     color="#000000"
     id="g270"
     transform="translate(-2.27615,-3.2788706)">
    <g
       transform="translate(65.2122,8.0199)"
       id="g268">
      <rect
         x="-0.061700001"
         y="-1.1224999"
         width="0.1233"
         height="2.8225"
         ry="0.039999999"
         fill="currentColor"
         id="rect266" />
    </g>
  </g>
  <a
     style="color:inherit"
     xlink:href="textedit:///Users/tomsegarra/Documents/dev/dummies/lilypond_files/d85cfcf22d2ebe76ccc0bdf689ba24e9.ly:19:23:24"
     id="a278"
     transform="translate(-2.27615,-3.2788706)">
    <g
       transform="translate(68.301,4.9225)"
       id="g276">
      <text
         font-family="sans-serif"
         font-size="2.224px"
         text-anchor="start"
         fill="currentColor"
         id="text274"><tspan
           id="tspan272">F</tspan></text>
    </g>
  </a>
  <g
     color="#000000"
     id="g286"
     transform="translate(-2.27615,-3.2788706)">
    <a
       style="color:inherit"
       xlink:href="textedit:///Users/tomsegarra/Documents/dev/dummies/lilypond_files/d85cfcf22d2ebe76ccc0bdf689ba24e9.ly:36:10:11"
       id="a284">
      <g
         transform="translate(68.301,8.4449)"
         id="g282">
        <path
           transform="scale(0.0034,-0.0034)"
           d="m 215,137 c 67,0 111,-37 111,-92 0,-90 -111,-182 -215,-182 -67,0 -111,37 -111,92 0,90 111,182 215,182 z"
           fill="currentColor"
           id="path280" />
      </g>
    </a>
  </g>
  <g
     color="#000000"
     id="g292"
     transform="translate(-2.27615,-3.2788706)">
    <g
       transform="translate(69.3467,8.0199)"
       id="g290">
      <rect
         x="-0.061700001"
         y="-2.3934"
         width="0.1233"
         height="2.6659999"
         ry="0.039999999"
         fill="currentColor"
         id="rect288" />
    </g>
  </g>
  <g
     color="#000000"
     id="g300"
     transform="translate(-2.27615,-3.2788706)">
    <a
       style="color:inherit"
       xlink:href="textedit:///Users/tomsegarra/Documents/dev/dummies/lilypond_files/d85cfcf22d2ebe76ccc0bdf689ba24e9.ly:36:13:14"
       id="a298">
      <g
         transform="translate(70.6084,8.4449)"
         id="g296">
        <path
           transform="scale(0.0034,-0.0034)"
           d="m 215,137 c 67,0 111,-37 111,-92 0,-90 -111,-182 -215,-182 -67,0 -111,37 -111,92 0,90 111,182 215,182 z"
           fill="currentColor"
           id="path294" />
      </g>
    </a>
  </g>
  <g
     color="#000000"
     id="g306"
     transform="translate(-2.27615,-3.2788706)">
    <g
       transform="translate(71.6541,8.0199)"
       id="g304">
      <rect
         x="-0.061700001"
         y="-2.3934"
         width="0.1233"
         height="2.6659999"
         ry="0.039999999"
         fill="currentColor"
         id="rect302" />
    </g>
  </g>
  <a
     style="color:inherit"
     xlink:href="textedit:///Users/tomsegarra/Documents/dev/dummies/lilypond_files/d85cfcf22d2ebe76ccc0bdf689ba24e9.ly:36:15:16"
     id="a312"
     transform="translate(-2.27615,-3.2788706)">
    <g
       transform="translate(72.9158,8.0199)"
       id="g310">
      <path
         transform="scale(0.0034,-0.0034)"
         d="m 70,205 c 80,0 46,-97 90,-97 15,0 52,45 59,59 6,13 26,13 31,0 L 129,-250 c -9,-7 -19,-11 -30,-11 -11,0 -21,4 -30,11 L 187,76 C 154,64 119,54 84,54 37,54 -3,88 -3,133 c 0,40 33,72 73,72 z"
         fill="currentColor"
         id="path308" />
    </g>
  </a>
  <g
     color="#000000"
     id="g318"
     transform="translate(-2.27615,-3.2788706)">
    <g
       transform="translate(39.1357,8.0199)"
       id="g316">
      <rect
         x="-0.061700001"
         y="0.1525"
         width="0.1233"
         height="2.3975"
         ry="0.039999999"
         fill="currentColor"
         id="rect314" />
    </g>
  </g>
  <g
     color="#000000"
     id="g326"
     transform="translate(-2.27615,-3.2788706)">
    <a
       style="color:inherit"
       xlink:href="textedit:///Users/tomsegarra/Documents/dev/dummies/lilypond_files/d85cfcf22d2ebe76ccc0bdf689ba24e9.ly:36:17:18"
       id="a324">
      <g
         transform="translate(74.9658,8.4449)"
         id="g322">
        <path
           transform="scale(0.0034,-0.0034)"
           d="m 215,137 c 67,0 111,-37 111,-92 0,-90 -111,-182 -215,-182 -67,0 -111,37 -111,92 0,90 111,182 215,182 z"
           fill="currentColor"
           id="path320" />
      </g>
    </a>
  </g>
  <g
     color="#000000"
     id="g332"
     transform="translate(-2.27615,-3.2788706)">
    <g
       transform="translate(76.0115,8.0199)"
       id="g330">
      <rect
         x="-0.061700001"
         y="-2.55"
         width="0.1233"
         height="2.8225"
         ry="0.039999999"
         fill="currentColor"
         id="rect328" />
    </g>
  </g>
  <g
     color="#000000"
     id="g338"
     transform="translate(-2.27615,-3.2788706)">
    <g
       transform="translate(76.0732,5.5099)"
       id="g336">
      <path
         transform="scale(0.0034,-0.0034)"
         d="m 0,0 c 0,-197 207,-335 207,-532 0,-71 -15,-141 -41,-207 -5,-8 -13,-12 -21,-12 -14,0 -27,11 -24,28 26,60 42,125 42,191 0,103 -93,207 -163,282 H -18 V 0 Z"
         fill="currentColor"
         id="path334" />
    </g>
  </g>
  <g
     color="#000000"
     id="g346"
     transform="translate(-2.27615,-3.2788706)">
    <a
       style="color:inherit"
       xlink:href="textedit:///Users/tomsegarra/Documents/dev/dummies/lilypond_files/d85cfcf22d2ebe76ccc0bdf689ba24e9.ly:30:29:30"
       id="a344">
      <g
         transform="translate(39.074,8.0199)"
         id="g342">
        <path
           transform="scale(0.0034,-0.0034)"
           d="m 215,137 c 67,0 111,-37 111,-92 0,-90 -111,-182 -215,-182 -67,0 -111,37 -111,92 0,90 111,182 215,182 z"
           fill="currentColor"
           id="path340" />
      </g>
    </a>
  </g>
  <g
     color="#000000"
     id="g354"
     transform="translate(-2.27615,-3.2788706)">
    <a
       style="color:inherit"
       xlink:href="textedit:///Users/tomsegarra/Documents/dev/dummies/lilypond_files/d85cfcf22d2ebe76ccc0bdf689ba24e9.ly:36:19:20"
       id="a352">
      <g
         transform="translate(77.2732,8.4449)"
         id="g350">
        <path
           transform="scale(0.0034,-0.0034)"
           d="m 215,137 c 67,0 111,-37 111,-92 0,-90 -111,-182 -215,-182 -67,0 -111,37 -111,92 0,90 111,182 215,182 z"
           fill="currentColor"
           id="path348" />
      </g>
    </a>
  </g>
  <g
     color="#000000"
     id="g360"
     transform="translate(-2.27615,-3.2788706)">
    <g
       transform="translate(78.3189,8.0199)"
       id="g358">
      <rect
         x="-0.061700001"
         y="-2.3934"
         width="0.1233"
         height="2.6659999"
         ry="0.039999999"
         fill="currentColor"
         id="rect356" />
    </g>
  </g>
  <g
     color="#000000"
     id="g368"
     transform="translate(-2.27615,-3.2788706)">
    <a
       style="color:inherit"
       xlink:href="textedit:///Users/tomsegarra/Documents/dev/dummies/lilypond_files/d85cfcf22d2ebe76ccc0bdf689ba24e9.ly:36:21:22"
       id="a366">
      <g
         transform="translate(79.5806,8.4449)"
         id="g364">
        <path
           transform="scale(0.0034,-0.0034)"
           d="m 215,137 c 67,0 111,-37 111,-92 0,-90 -111,-182 -215,-182 -67,0 -111,37 -111,92 0,90 111,182 215,182 z"
           fill="currentColor"
           id="path362" />
      </g>
    </a>
  </g>
  <g
     color="#000000"
     id="g374"
     transform="translate(-2.27615,-3.2788706)">
    <g
       transform="translate(80.6263,8.0199)"
       id="g372">
      <rect
         x="-0.061700001"
         y="-2.3934"
         width="0.1233"
         height="2.6659999"
         ry="0.039999999"
         fill="currentColor"
         id="rect370" />
    </g>
  </g>
  <a
     style="color:inherit"
     xlink:href="textedit:///Users/tomsegarra/Documents/dev/dummies/lilypond_files/d85cfcf22d2ebe76ccc0bdf689ba24e9.ly:36:23:24"
     id="a380"
     transform="translate(-2.27615,-3.2788706)">
    <g
       transform="translate(81.8879,8.0199)"
       id="g378">
      <path
         transform="scale(0.0034,-0.0034)"
         d="m -8,78 c 0,59 125,83 125,182 0,25 -9,49 -26,69 l -33,40 c -3,4 -4,7 -4,11 0,9 9,17 18,17 4,0 8,-2 12,-6 L 234,212 c 7,-9 11,-18 11,-26 0,-59 -125,-83 -125,-182 0,-25 8,-49 25,-69 l 82,-97 c 3,-4 4,-7 4,-11 0,-9 -8,-17 -17,-17 -10,0 -42,42 -106,42 -19,0 -54,-1 -54,-66 0,-34 10,-73 27,-93 7,-9 -5,-20 -12,-11 -45,53 -93,147 -93,201 0,42 27,42 43,42 31,0 74,-11 113,-27 L 3,52 C -4,61 -8,70 -8,78 Z"
         fill="currentColor"
         id="path376" />
    </g>
  </a>
  <g
     color="#000000"
     id="g386"
     transform="translate(-2.27615,-3.2788706)">
    <g
       transform="translate(36.89,10.8487)"
       id="g384">
      <path
         transform="scale(0.0034,-0.0034)"
         d="M 0,0 H -18 V 250 H 0 Z m 0,0 v 250 c 96,59 222,149 222,259 0,57 -15,111 -40,162 -3,17 10,29 24,29 8,0 16,-5 21,-13 25,-56 40,-116 40,-178 C 267,306 0,203 0,0 Z"
         fill="currentColor"
         id="path382" />
    </g>
  </g>
  <g
     color="#000000"
     id="g392"
     transform="translate(-2.27615,-3.2788706)">
    <g
       transform="translate(36.8283,8.0199)"
       id="g390">
      <rect
         x="-0.061700001"
         y="0.1525"
         width="0.1233"
         height="2.7163"
         ry="0.039999999"
         fill="currentColor"
         id="rect388" />
    </g>
  </g>
  <a
     style="color:inherit"
     xlink:href="textedit:///Users/tomsegarra/Documents/dev/dummies/lilypond_files/d85cfcf22d2ebe76ccc0bdf689ba24e9.ly:23:11:12"
     id="a398"
     transform="translate(-2.27615,-3.2788706)">
    <g
       transform="translate(13.0218,7.5949)"
       id="g396">
      <path
         transform="scale(0.0034,-0.0034)"
         d="m 215,137 c 67,0 111,-37 111,-92 0,-90 -111,-182 -215,-182 -67,0 -111,37 -111,92 0,90 111,182 215,182 z"
         fill="currentColor"
         id="path394" />
    </g>
  </a>
  <g
     transform="translate(10.80725,4.7410294)"
     id="g402">
    <rect
       x="-0.061700001"
       y="-0.27250001"
       width="0.1233"
       height="2.6659999"
       ry="0.039999999"
       fill="currentColor"
       id="rect400" />
  </g>
  <g
     color="#000000"
     id="g410"
     transform="translate(-2.27615,-3.2788706)">
    <a
       style="color:inherit"
       xlink:href="textedit:///Users/tomsegarra/Documents/dev/dummies/lilypond_files/d85cfcf22d2ebe76ccc0bdf689ba24e9.ly:30:27:28"
       id="a408">
      <g
         transform="translate(36.7667,8.0199)"
         id="g406">
        <path
           transform="scale(0.0034,-0.0034)"
           d="m 215,137 c 67,0 111,-37 111,-92 0,-90 -111,-182 -215,-182 -67,0 -111,37 -111,92 0,90 111,182 215,182 z"
           fill="currentColor"
           id="path404" />
      </g>
    </a>
  </g>
  <a
     style="color:inherit"
     xlink:href="textedit:///Users/tomsegarra/Documents/dev/dummies/lilypond_files/d85cfcf22d2ebe76ccc0bdf689ba24e9.ly:23:15:16"
     id="a416"
     transform="translate(-2.27615,-3.2788706)">
    <g
       transform="translate(15.3292,8.0199)"
       id="g414">
      <path
         transform="scale(0.0034,-0.0034)"
         d="m 70,205 c 80,0 46,-97 90,-97 15,0 52,45 59,59 6,13 26,13 31,0 L 129,-250 c -9,-7 -19,-11 -30,-11 -11,0 -21,4 -30,11 L 187,76 C 154,64 119,54 84,54 37,54 -3,88 -3,133 c 0,40 33,72 73,72 z"
         fill="currentColor"
         id="path412" />
    </g>
  </a>
  <g
     color="#ff0000"
     id="g424"
     transform="translate(-2.27615,-3.2788706)">
    <a
       style="color:inherit"
       xlink:href="textedit:///Users/tomsegarra/Documents/dev/dummies/lilypond_files/d85cfcf22d2ebe76ccc0bdf689ba24e9.ly:27:4:5"
       id="a422">
      <g
         transform="translate(17.3792,7.5949)"
         id="g420">
        <path
           transform="scale(0.0034,-0.0034)"
           d="m 215,137 c 67,0 111,-37 111,-92 0,-90 -111,-182 -215,-182 -67,0 -111,37 -111,92 0,90 111,182 215,182 z"
           fill="currentColor"
           id="path418" />
      </g>
    </a>
  </g>
  <g
     color="#ff0000"
     id="g430"
     transform="translate(-2.27615,-3.2788706)">
    <g
       transform="translate(17.4408,8.0199)"
       id="g428">
      <rect
         x="-0.061700001"
         y="-0.27250001"
         width="0.1233"
         height="2.6589999"
         ry="0.039999999"
         fill="currentColor"
         id="rect426" />
    </g>
  </g>
  <g
     color="#ff0000"
     id="g438"
     transform="translate(-2.27615,-3.2788706)">
    <a
       style="color:inherit"
       xlink:href="textedit:///Users/tomsegarra/Documents/dev/dummies/lilypond_files/d85cfcf22d2ebe76ccc0bdf689ba24e9.ly:27:9:10"
       id="a436">
      <g
         transform="translate(19.6865,7.1699)"
         id="g434">
        <path
           transform="scale(0.0034,-0.0034)"
           d="m 215,137 c 67,0 111,-37 111,-92 0,-90 -111,-182 -215,-182 -67,0 -111,37 -111,92 0,90 111,182 215,182 z"
           fill="currentColor"
           id="path432" />
      </g>
    </a>
  </g>
  <g
     color="#ff0000"
     id="g444"
     transform="translate(-2.27615,-3.2788706)">
    <g
       transform="translate(19.7482,8.0199)"
       id="g442">
      <rect
         x="-0.061700001"
         y="-0.69749999"
         width="0.1233"
         height="2.8225"
         ry="0.039999999"
         fill="currentColor"
         id="rect440" />
    </g>
  </g>
  <g
     color="#ff0000"
     id="g452"
     transform="translate(-2.27615,-3.2788706)">
    <a
       style="color:inherit"
       xlink:href="textedit:///Users/tomsegarra/Documents/dev/dummies/lilypond_files/d85cfcf22d2ebe76ccc0bdf689ba24e9.ly:27:13:14"
       id="a450">
      <g
         transform="translate(21.9939,6.7449)"
         id="g448">
        <path
           transform="scale(0.0034,-0.0034)"
           d="m 215,137 c 67,0 111,-37 111,-92 0,-90 -111,-182 -215,-182 -67,0 -111,37 -111,92 0,90 111,182 215,182 z"
           fill="currentColor"
           id="path446" />
      </g>
    </a>
  </g>
  <g
     color="#ff0000"
     id="g458"
     transform="translate(-2.27615,-3.2788706)">
    <g
       transform="translate(22.0556,8.0199)"
       id="g456">
      <rect
         x="-0.061700001"
         y="-1.1224999"
         width="0.1233"
         height="2.9861"
         ry="0.039999999"
         fill="currentColor"
         id="rect454" />
    </g>
  </g>
  <g
     color="#ff0000"
     id="g466"
     transform="translate(-2.27615,-3.2788706)">
    <a
       style="color:inherit"
       xlink:href="textedit:///Users/tomsegarra/Documents/dev/dummies/lilypond_files/d85cfcf22d2ebe76ccc0bdf689ba24e9.ly:27:17:18"
       id="a464">
      <g
         transform="translate(24.3013,7.1699)"
         id="g462">
        <path
           transform="scale(0.0034,-0.0034)"
           d="m 215,137 c 67,0 111,-37 111,-92 0,-90 -111,-182 -215,-182 -67,0 -111,37 -111,92 0,90 111,182 215,182 z"
           fill="currentColor"
           id="path460" />
      </g>
    </a>
  </g>
  <g
     color="#ff0000"
     id="g472"
     transform="translate(-2.27615,-3.2788706)">
    <g
       transform="translate(24.363,8.0199)"
       id="g470">
      <rect
         x="-0.061700001"
         y="-0.69749999"
         width="0.1233"
         height="2.8225"
         ry="0.039999999"
         fill="currentColor"
         id="rect468" />
    </g>
  </g>
  <g
     color="#ff0000"
     id="g478"
     transform="translate(-2.27615,-3.2788706)">
    <g
       transform="translate(24.4246,10.1049)"
       id="g476">
      <path
         transform="scale(0.0034,-0.0034)"
         d="M 0,0 H -18 V 250 H 0 Z m 0,0 v 250 c 96,59 222,149 222,259 0,57 -15,111 -40,162 -3,17 10,29 24,29 8,0 16,-5 21,-13 25,-56 40,-116 40,-178 C 267,306 0,203 0,0 Z"
         fill="currentColor"
         id="path474" />
    </g>
  </g>
  <a
     style="color:inherit"
     xlink:href="textedit:///Users/tomsegarra/Documents/dev/dummies/lilypond_files/d85cfcf22d2ebe76ccc0bdf689ba24e9.ly:30:25:26"
     id="a484"
     transform="translate(-2.27615,-3.2788706)">
    <g
       transform="translate(34.7167,8.0199)"
       id="g482">
      <path
         transform="scale(0.0034,-0.0034)"
         d="m 70,205 c 80,0 46,-97 90,-97 15,0 52,45 59,59 6,13 26,13 31,0 L 129,-250 c -9,-7 -19,-11 -30,-11 -11,0 -21,4 -30,11 L 187,76 C 154,64 119,54 84,54 37,54 -3,88 -3,133 c 0,40 33,72 73,72 z"
         fill="currentColor"
         id="path480" />
    </g>
  </a>
  <g
     color="#000000"
     id="g492"
     transform="translate(-2.27615,-3.2788706)">
    <a
       style="color:inherit"
       xlink:href="textedit:///Users/tomsegarra/Documents/dev/dummies/lilypond_files/d85cfcf22d2ebe76ccc0bdf689ba24e9.ly:30:4:5"
       id="a490">
      <g
         transform="translate(26.6087,6.7449)"
         id="g488">
        <path
           transform="scale(0.0034,-0.0034)"
           d="m 215,137 c 67,0 111,-37 111,-92 0,-90 -111,-182 -215,-182 -67,0 -111,37 -111,92 0,90 111,182 215,182 z"
           fill="currentColor"
           id="path486" />
      </g>
    </a>
  </g>
  <g
     color="#000000"
     id="g498"
     transform="translate(-2.27615,-3.2788706)">
    <g
       transform="translate(26.6704,8.0199)"
       id="g496">
      <rect
         x="-0.061700001"
         y="-1.1224999"
         width="0.1233"
         height="2.8225"
         ry="0.039999999"
         fill="currentColor"
         id="rect494" />
    </g>
  </g>
  <g
     color="#000000"
     id="g504"
     transform="translate(-2.27615,-3.2788706)">
    <g
       transform="translate(26.732,9.6799)"
       id="g502">
      <path
         transform="scale(0.0034,-0.0034)"
         d="M 0,0 H -18 V 250 H 0 Z m 0,0 v 250 c 96,59 222,149 222,259 0,57 -15,111 -40,162 -3,17 10,29 24,29 8,0 16,-5 21,-13 25,-56 40,-116 40,-178 C 267,306 0,203 0,0 Z"
         fill="currentColor"
         id="path500" />
    </g>
  </g>
  <a
     style="color:inherit"
     xlink:href="textedit:///Users/tomsegarra/Documents/dev/dummies/lilypond_files/d85cfcf22d2ebe76ccc0bdf689ba24e9.ly:19:17:18"
     id="a512"
     transform="translate(-2.27615,-3.2788706)">
    <g
       transform="translate(30.1019,4.9225)"
       id="g510">
      <text
         font-family="sans-serif"
         font-size="2.224px"
         text-anchor="start"
         fill="currentColor"
         id="text508"><tspan
           id="tspan506">G</tspan></text>
    </g>
  </a>
  <g
     color="#000000"
     id="g520"
     transform="translate(-2.27615,-3.2788706)">
    <a
       style="color:inherit"
       xlink:href="textedit:///Users/tomsegarra/Documents/dev/dummies/lilypond_files/d85cfcf22d2ebe76ccc0bdf689ba24e9.ly:30:21:22"
       id="a518">
      <g
         transform="translate(30.1019,8.0199)"
         id="g516">
        <path
           transform="scale(0.0034,-0.0034)"
           d="m 215,137 c 67,0 111,-37 111,-92 0,-90 -111,-182 -215,-182 -67,0 -111,37 -111,92 0,90 111,182 215,182 z"
           fill="currentColor"
           id="path514" />
      </g>
    </a>
  </g>
  <g
     color="#000000"
     id="g526"
     transform="translate(-2.27615,-3.2788706)">
    <g
       transform="translate(30.1635,8.0199)"
       id="g524">
      <rect
         x="-0.061700001"
         y="0.1525"
         width="0.1233"
         height="2.3975"
         ry="0.039999999"
         fill="currentColor"
         id="rect522" />
    </g>
  </g>
  <g
     color="#000000"
     id="g534"
     transform="translate(-2.27615,-3.2788706)">
    <a
       style="color:inherit"
       xlink:href="textedit:///Users/tomsegarra/Documents/dev/dummies/lilypond_files/d85cfcf22d2ebe76ccc0bdf689ba24e9.ly:30:23:24"
       id="a532">
      <g
         transform="translate(32.4093,8.0199)"
         id="g530">
        <path
           transform="scale(0.0034,-0.0034)"
           d="m 215,137 c 67,0 111,-37 111,-92 0,-90 -111,-182 -215,-182 -67,0 -111,37 -111,92 0,90 111,182 215,182 z"
           fill="currentColor"
           id="path528" />
      </g>
    </a>
  </g>
  <g
     color="#000000"
     id="g540"
     transform="translate(-2.27615,-3.2788706)">
    <g
       transform="translate(32.4709,8.0199)"
       id="g538">
      <rect
         x="-0.061700001"
         y="0.1525"
         width="0.1233"
         height="2.3975"
         ry="0.039999999"
         fill="currentColor"
         id="rect536" />
    </g>
  </g>
</svg>
