<?xml version="1.0" encoding="UTF-8" standalone="no"?>
<svg
   version="1.2"
   width="67.419289mm"
   height="19.985262mm"
   viewBox="0 0 38.364812 11.372718"
   id="svg236"
   sodipodi:docname="da2c69009d3c64c3e6822a4cd750ff6d.svg"
   xmlns:inkscape="http://www.inkscape.org/namespaces/inkscape"
   xmlns:sodipodi="http://sodipodi.sourceforge.net/DTD/sodipodi-0.dtd"
   xmlns:xlink="http://www.w3.org/1999/xlink"
   xmlns="http://www.w3.org/2000/svg"
   xmlns:svg="http://www.w3.org/2000/svg">
  <defs
     id="defs240" />
  <sodipodi:namedview
     id="namedview238"
     pagecolor="#ffffff"
     bordercolor="#000000"
     borderopacity="0.25"
     inkscape:showpageshadow="2"
     inkscape:pageopacity="0.0"
     inkscape:pagecheckerboard="0"
     inkscape:deskcolor="#d1d1d1"
     inkscape:document-units="mm" />
  <style
     type="text/css"
     id="style2"><![CDATA[
tspan { white-space: pre; }
]]></style>
  <!-- Page: 1/1 -->
  <g
     transform="translate(38.184777,5.4119328)"
     id="g6">
    <rect
       x="0"
       y="-1.7"
       width="0.1802"
       height="3.4000001"
       ry="0.0000"
       fill="currentColor"
       id="rect4" />
  </g>
  <g
     transform="translate(-2.2313297e-4,7.9619328)"
     id="g10">
    <rect
       x="30.679001"
       y="-0.089900002"
       width="1.6611"
       height="0.17990001"
       ry="0.089900002"
       fill="currentColor"
       id="rect8" />
  </g>
  <g
     transform="translate(-2.2313297e-4,7.9619328)"
     id="g14">
    <rect
       x="25.889"
       y="-0.089900002"
       width="1.7602"
       height="0.17990001"
       ry="0.089900002"
       fill="currentColor"
       id="rect12" />
  </g>
  <g
     transform="translate(-2.2313297e-4,7.9619328)"
     id="g18">
    <rect
       x="15.3608"
       y="-0.089900002"
       width="1.6611"
       height="0.17990001"
       ry="0.089900002"
       fill="currentColor"
       id="rect16" />
  </g>
  <g
     transform="translate(-2.2313297e-4,7.1119328)"
     id="g22">
    <line
       stroke-linejoin="round"
       stroke-linecap="round"
       stroke-width="0.0949"
       stroke="currentColor"
       x1="0.047400001"
       y1="0"
       x2="38.317799"
       y2="0"
       id="line20" />
  </g>
  <g
     transform="translate(-2.2313297e-4,6.2619328)"
     id="g26">
    <line
       stroke-linejoin="round"
       stroke-linecap="round"
       stroke-width="0.0949"
       stroke="currentColor"
       x1="0.047400001"
       y1="0"
       x2="38.317799"
       y2="0"
       id="line24" />
  </g>
  <g
     transform="translate(-2.2313297e-4,5.4119328)"
     id="g30">
    <line
       stroke-linejoin="round"
       stroke-linecap="round"
       stroke-width="0.0949"
       stroke="currentColor"
       x1="0.047400001"
       y1="0"
       x2="38.317799"
       y2="0"
       id="line28" />
  </g>
  <g
     transform="translate(-2.2313297e-4,4.5619328)"
     id="g34">
    <line
       stroke-linejoin="round"
       stroke-linecap="round"
       stroke-width="0.0949"
       stroke="currentColor"
       x1="0.047400001"
       y1="0"
       x2="38.317799"
       y2="0"
       id="line32" />
  </g>
  <g
     transform="translate(-2.2313297e-4,3.7119328)"
     id="g38">
    <line
       stroke-linejoin="round"
       stroke-linecap="round"
       stroke-width="0.0949"
       stroke="currentColor"
       x1="0.047400001"
       y1="0"
       x2="38.317799"
       y2="0"
       id="line36" />
  </g>
  <g
     transform="translate(25.101977,5.4119328)"
     id="g42">
    <rect
       x="0"
       y="-1.7"
       width="0.1802"
       height="3.4000001"
       ry="0.0000"
       fill="currentColor"
       id="rect40" />
  </g>
  <a
     style="color:inherit"
     xlink:href="textedit:///Users/tomsegarra/Documents/dev/dummies/lilypond_files/da2c69009d3c64c3e6822a4cd750ff6d.ly:18:17:18"
     id="a50"
     transform="translate(-2.2764231,-3.2762672)">
    <g
       transform="translate(10.7144,5.6089)"
       id="g48">
      <text
         font-family="sans-serif"
         font-size="2.224px"
         text-anchor="start"
         fill="currentColor"
         id="text46"><tspan
           id="tspan44">C</tspan></text>
    </g>
  </a>
  <a
     style="color:inherit"
     xlink:href="textedit:///Users/tomsegarra/Documents/dev/dummies/lilypond_files/da2c69009d3c64c3e6822a4cd750ff6d.ly:20:4:5"
     id="a56"
     transform="translate(-2.2764231,-3.2762672)">
    <g
       transform="translate(10.7144,9.1132)"
       id="g54">
      <path
         transform="scale(0.0034,-0.0034)"
         d="m 215,137 c 67,0 111,-37 111,-92 0,-90 -111,-182 -215,-182 -67,0 -111,37 -111,92 0,90 111,182 215,182 z"
         fill="currentColor"
         id="path52" />
    </g>
  </a>
  <g
     transform="translate(0.79977687,6.2619328)"
     id="g60">
    <path
       transform="scale(0.0034,-0.0034)"
       d="m 646,2 c 0,-113 -74,-213 -180,-247 3,-34 5,-68 5,-102 0,-20 -1,-40 -2,-60 -7,-121 -91,-228 -209,-228 -108,0 -196,87 -196,196 0,58 53,104 112,104 54,0 95,-48 95,-104 0,-52 -43,-95 -95,-95 -10,0 -20,2 -29,6 26,-38 68,-63 116,-63 h 3 c 93,2 153,92 159,190 1,19 2,37 2,56 0,30 -2,60 -4,90 -5,-1 -43,-8 -88,-8 -194,0 -333,180 -333,375 0,177 130,307 246,442 -31,98 -53,170 -53,347 0,115 55,223 148,290 7,5 16,4 22,-1 68,-80 134,-243 134,-357 0,-143 -85,-255 -178,-364 21,-68 40,-137 57,-206 1,0 5,1 11,1 C 545,264 646,135 646,2 Z M 462,-202 c 66,24 111,88 111,162 0,89 -65,178 -170,190 28,-135 50,-272 59,-352 z M 75,26 c 0,-145 141,-245 263,-245 1,0 46,0 81,6 -7,65 -27,206 -61,363 -79,-8 -124,-61 -124,-119 0,-43 25,-89 80,-121 5,-5 7,-11 7,-16 0,-12 -10,-23 -22,-23 -16,0 -127,63 -127,188 0,89 58,175 161,198 -14,58 -29,116 -46,173 C 181,308 75,186 75,26 Z M 406,1042 C 307,995 244,894 244,785 c 0,-49 13,-111 38,-191 79,97 144,199 144,324 0,33 0,63 -20,124 z"
       fill="currentColor"
       id="path58" />
  </g>
  <g
     transform="translate(4.9997769,5.4119328)"
     id="g64">
    <path
       transform="scale(0.0034,-0.0034)"
       d="m 358,29 c -30,0 -74,23 -74,73 0,38 27,76 71,76 4,0 7,0 11,-1 -27,36 -69,59 -116,59 -106,0 -113,-74 -113,-188 0,-15 1,-31 1,-48 0,-17 -1,-33 -1,-48 0,-114 7,-188 113,-188 79,0 136,70 155,150 2,7 7,10 13,10 7,0 14,-5 14,-13 0,-21 -50,-175 -182,-175 C 191,-264 0,-244 0,0 0,63 18,264 250,264 365,264 424,155 424,99 424,60 394,29 358,29 Z"
       fill="currentColor"
       id="path62" />
  </g>
  <a
     style="color:inherit"
     xlink:href="textedit:///Users/tomsegarra/Documents/dev/dummies/lilypond_files/da2c69009d3c64c3e6822a4cd750ff6d.ly:23:15:16"
     id="a72"
     transform="translate(-2.2764231,-3.2762672)">
    <g
       transform="translate(9.5268,14.196)"
       id="g70">
      <text
         font-family="serif"
         font-size="2.0989px"
         text-anchor="start"
         fill="currentColor"
         id="text68"><tspan
           id="tspan66">One</tspan></text>
    </g>
  </a>
  <g
     transform="translate(9.4836769,5.4119328)"
     id="g76">
    <rect
       x="-0.061700001"
       y="-2.55"
       width="0.1233"
       height="2.8225"
       ry="0.039999999"
       fill="currentColor"
       id="rect74" />
  </g>
  <a
     style="color:inherit"
     xlink:href="textedit:///Users/tomsegarra/Documents/dev/dummies/lilypond_files/da2c69009d3c64c3e6822a4cd750ff6d.ly:21:4:5"
     id="a82"
     transform="translate(-2.2764231,-3.2762672)">
    <g
       transform="translate(28.4586,11.6632)"
       id="g80">
      <path
         transform="scale(0.0034,-0.0034)"
         d="m 312,64 c 0,23 -18,41 -41,41 C 232,105 70,-5 43,-37 36,-45 33,-54 33,-64 c 0,-23 18,-41 41,-41 39,0 201,110 228,142 7,8 10,17 10,27 z m -53,73 c 46,0 86,-17 86,-74 0,-26 -15,-112 -73,-151 -29,-20 -89,-49 -186,-49 -46,0 -86,17 -86,74 0,26 16,112 74,151 29,20 88,49 185,49 z"
         fill="currentColor"
         id="path78" />
    </g>
  </a>
  <a
     style="color:inherit"
     xlink:href="textedit:///Users/tomsegarra/Documents/dev/dummies/lilypond_files/da2c69009d3c64c3e6822a4cd750ff6d.ly:23:34:35"
     id="a90"
     transform="translate(-2.2764231,-3.2762672)">
    <g
       transform="translate(28.0552,14.196)"
       id="g88">
      <text
         font-family="serif"
         font-size="2.0989px"
         text-anchor="start"
         fill="currentColor"
         id="text86"><tspan
           id="tspan84">be</tspan></text>
    </g>
  </a>
  <g
     transform="translate(27.294077,5.4119328)"
     id="g94">
    <rect
       x="-0.061700001"
       y="0"
       width="0.1233"
       height="2.76"
       ry="0.039999999"
       fill="currentColor"
       id="rect92" />
  </g>
  <a
     style="color:inherit"
     xlink:href="textedit:///Users/tomsegarra/Documents/dev/dummies/lilypond_files/da2c69009d3c64c3e6822a4cd750ff6d.ly:18:29:30"
     id="a102"
     transform="translate(-2.2764231,-3.2762672)">
    <g
       transform="translate(33.2321,5.6089)"
       id="g100">
      <text
         font-family="sans-serif"
         font-size="2.224px"
         text-anchor="start"
         fill="currentColor"
         id="text98"><tspan
           id="tspan96">E</tspan></text>
    </g>
  </a>
  <a
     style="color:inherit"
     xlink:href="textedit:///Users/tomsegarra/Documents/dev/dummies/lilypond_files/da2c69009d3c64c3e6822a4cd750ff6d.ly:21:7:8"
     id="a108"
     transform="translate(-2.2764231,-3.2762672)">
    <g
       transform="translate(33.2321,11.2382)"
       id="g106">
      <path
         transform="scale(0.0034,-0.0034)"
         d="m 215,137 c 67,0 111,-37 111,-92 0,-90 -111,-182 -215,-182 -67,0 -111,37 -111,92 0,90 111,182 215,182 z"
         fill="currentColor"
         id="path104" />
    </g>
  </a>
  <a
     style="color:inherit"
     xlink:href="textedit:///Users/tomsegarra/Documents/dev/dummies/lilypond_files/da2c69009d3c64c3e6822a4cd750ff6d.ly:23:37:38"
     id="a116"
     transform="translate(-2.2764231,-3.2762672)">
    <g
       transform="translate(33.2321,14.196)"
       id="g114">
      <text
         font-family="serif"
         font-size="2.0989px"
         text-anchor="start"
         fill="currentColor"
         id="text112"><tspan
           id="tspan110">free</tspan></text>
    </g>
  </a>
  <g
     transform="translate(32.001377,5.4119328)"
     id="g120">
    <rect
       x="-0.061700001"
       y="-0.42500001"
       width="0.1233"
       height="2.8225"
       ry="0.039999999"
       fill="currentColor"
       id="rect118" />
  </g>
  <a
     style="color:inherit"
     xlink:href="textedit:///Users/tomsegarra/Documents/dev/dummies/lilypond_files/da2c69009d3c64c3e6822a4cd750ff6d.ly:21:11:12"
     id="a126"
     transform="translate(-2.2764231,-3.2762672)">
    <g
       transform="translate(36.7395,10.8132)"
       id="g124">
      <path
         transform="scale(0.0034,-0.0034)"
         d="m 215,137 c 67,0 111,-37 111,-92 0,-90 -111,-182 -215,-182 -67,0 -111,37 -111,92 0,90 111,182 215,182 z"
         fill="currentColor"
         id="path122" />
    </g>
  </a>
  <g
     transform="translate(35.508777,5.4119328)"
     id="g130">
    <rect
       x="-0.061700001"
       y="-0.85000002"
       width="0.1233"
       height="2.8225"
       ry="0.039999999"
       fill="currentColor"
       id="rect128" />
  </g>
  <g
     transform="translate(16.621477,5.2553328)"
     id="g134">
    <polygon
       stroke-linejoin="round"
       stroke-linecap="round"
       stroke-width="0.08"
       fill="currentColor"
       stroke="currentColor"
       points="0.04,0.164 0.04,-0.164 4.033,-0.7009 4.033,-0.3729 "
       id="polygon132" />
  </g>
  <a
     style="color:inherit"
     xlink:href="textedit:///Users/tomsegarra/Documents/dev/dummies/lilypond_files/da2c69009d3c64c3e6822a4cd750ff6d.ly:20:7:8"
     id="a140"
     transform="translate(-2.2764231,-3.2762672)">
    <g
       transform="translate(14.4251,10.3882)"
       id="g138">
      <path
         transform="scale(0.0034,-0.0034)"
         d="m 215,137 c 67,0 111,-37 111,-92 0,-90 -111,-182 -215,-182 -67,0 -111,37 -111,92 0,90 111,182 215,182 z"
         fill="currentColor"
         id="path136" />
    </g>
  </a>
  <a
     style="color:inherit"
     xlink:href="textedit:///Users/tomsegarra/Documents/dev/dummies/lilypond_files/da2c69009d3c64c3e6822a4cd750ff6d.ly:23:19:20"
     id="a148"
     transform="translate(-2.2764231,-3.2762672)">
    <g
       transform="translate(13.4594,14.196)"
       id="g146">
      <text
         font-family="serif"
         font-size="2.0989px"
         text-anchor="start"
         fill="currentColor"
         id="text144"><tspan
           id="tspan142">day</tspan></text>
    </g>
  </a>
  <g
     transform="translate(13.194377,5.4119328)"
     id="g152">
    <rect
       x="-0.061700001"
       y="-1.275"
       width="0.1233"
       height="2.8225"
       ry="0.039999999"
       fill="currentColor"
       id="rect150" />
  </g>
  <a
     style="color:inherit"
     xlink:href="textedit:///Users/tomsegarra/Documents/dev/dummies/lilypond_files/da2c69009d3c64c3e6822a4cd750ff6d.ly:21:9:10"
     id="a158"
     transform="translate(-2.2764231,-3.2762672)">
    <g
       transform="translate(33.2321,8.6882)"
       id="g156">
      <path
         stroke-width="0.0759"
         stroke-linejoin="round"
         stroke-linecap="round"
         stroke="currentColor"
         fill="currentColor"
         d="m 0.5981,3.4413 c 0.9433,0.6893 2.756,0.4696 3.5074,-0.425 v 0 C 3.3404,3.7979 1.5277,4.0176 0.5981,3.4413 Z"
         id="path154" />
    </g>
  </a>
  <a
     style="color:inherit"
     xlink:href="textedit:///Users/tomsegarra/Documents/dev/dummies/lilypond_files/da2c69009d3c64c3e6822a4cd750ff6d.ly:18:20:21"
     id="a178"
     transform="translate(-2.2764231,-3.2762672)">
    <g
       transform="translate(17.9138,5.6089)"
       id="g164">
      <text
         font-family="sans-serif"
         font-size="2.224px"
         text-anchor="start"
         fill="currentColor"
         id="text162"><tspan
           id="tspan160">G</tspan></text>
    </g>
    <g
       transform="translate(19.6551,4.4197)"
       id="g170">
      <text
         font-family="sans-serif"
         font-size="1.5727px"
         text-anchor="start"
         fill="currentColor"
         id="text168"><tspan
           id="tspan166">sus</tspan></text>
    </g>
    <g
       transform="translate(22.2842,4.4197)"
       id="g176">
      <text
         font-family="sans-serif"
         font-size="1.5727px"
         text-anchor="start"
         fill="currentColor"
         id="text174"><tspan
           id="tspan172">4</tspan></text>
    </g>
  </a>
  <a
     style="color:inherit"
     xlink:href="textedit:///Users/tomsegarra/Documents/dev/dummies/lilypond_files/da2c69009d3c64c3e6822a4cd750ff6d.ly:20:9:10"
     id="a184"
     transform="translate(-2.2764231,-3.2762672)">
    <g
       transform="translate(17.9138,11.2382)"
       id="g182">
      <path
         transform="scale(0.0034,-0.0034)"
         d="m 215,137 c 67,0 111,-37 111,-92 0,-90 -111,-182 -215,-182 -67,0 -111,37 -111,92 0,90 111,182 215,182 z"
         fill="currentColor"
         id="path180" />
    </g>
  </a>
  <a
     style="color:inherit"
     xlink:href="textedit:///Users/tomsegarra/Documents/dev/dummies/lilypond_files/da2c69009d3c64c3e6822a4cd750ff6d.ly:23:23:24"
     id="a192"
     transform="translate(-2.2764231,-3.2762672)">
    <g
       transform="translate(16.9481,14.196)"
       id="g190">
      <text
         font-family="serif"
         font-size="2.0989px"
         text-anchor="start"
         fill="currentColor"
         id="text188"><tspan
           id="tspan186">this</tspan></text>
    </g>
  </a>
  <g
     transform="translate(16.683177,5.4119328)"
     id="g196">
    <rect
       x="-0.061700001"
       y="-0.1647"
       width="0.1233"
       height="2.5622001"
       ry="0.039999999"
       fill="currentColor"
       id="rect194" />
  </g>
  <a
     style="color:inherit"
     xlink:href="textedit:///Users/tomsegarra/Documents/dev/dummies/lilypond_files/da2c69009d3c64c3e6822a4cd750ff6d.ly:23:42:43"
     id="a202"
     transform="translate(-2.2764231,-3.2762672)">
    <g
       transform="translate(36.5175,14.196)"
       id="g200">
      <rect
         x="0"
         y="-0.075900003"
         width="1.4241"
         height="0.075900003"
         ry="0.030400001"
         fill="currentColor"
         id="rect198" />
    </g>
  </a>
  <a
     style="color:inherit"
     xlink:href="textedit:///Users/tomsegarra/Documents/dev/dummies/lilypond_files/da2c69009d3c64c3e6822a4cd750ff6d.ly:20:12:13"
     id="a208"
     transform="translate(-2.2764231,-3.2762672)">
    <g
       transform="translate(21.8635,10.3882)"
       id="g206">
      <path
         transform="scale(0.0034,-0.0034)"
         d="m 215,137 c 67,0 111,-37 111,-92 0,-90 -111,-182 -215,-182 -67,0 -111,37 -111,92 0,90 111,182 215,182 z"
         fill="currentColor"
         id="path204" />
    </g>
  </a>
  <a
     style="color:inherit"
     xlink:href="textedit:///Users/tomsegarra/Documents/dev/dummies/lilypond_files/da2c69009d3c64c3e6822a4cd750ff6d.ly:23:28:29"
     id="a216"
     transform="translate(-2.2764231,-3.2762672)">
    <g
       transform="translate(20.4369,14.196)"
       id="g214">
      <text
         font-family="serif"
         font-size="2.0989px"
         text-anchor="start"
         fill="currentColor"
         id="text212"><tspan
           id="tspan210">shall</tspan></text>
    </g>
  </a>
  <g
     transform="translate(20.632777,5.4119328)"
     id="g220">
    <rect
       x="-0.061700001"
       y="-0.68529999"
       width="0.1233"
       height="2.2328"
       ry="0.039999999"
       fill="currentColor"
       id="rect218" />
  </g>
  <a
     style="color:inherit"
     xlink:href="textedit:///Users/tomsegarra/Documents/dev/dummies/lilypond_files/da2c69009d3c64c3e6822a4cd750ff6d.ly:18:27:28"
     id="a228"
     transform="translate(-2.2764231,-3.2762672)">
    <g
       transform="translate(28.4586,5.6089)"
       id="g226">
      <text
         font-family="sans-serif"
         font-size="2.224px"
         text-anchor="start"
         fill="currentColor"
         id="text224"><tspan
           id="tspan222">F</tspan></text>
    </g>
  </a>
  <a
     style="color:inherit"
     xlink:href="textedit:///Users/tomsegarra/Documents/dev/dummies/lilypond_files/da2c69009d3c64c3e6822a4cd750ff6d.ly:20:14:15"
     id="a234"
     transform="translate(-2.2764231,-3.2762672)">
    <g
       transform="translate(24.1709,8.6882)"
       id="g232">
      <path
         transform="scale(0.0034,-0.0034)"
         d="m -8,78 c 0,59 125,83 125,182 0,25 -9,49 -26,69 l -33,40 c -3,4 -4,7 -4,11 0,9 9,17 18,17 4,0 8,-2 12,-6 L 234,212 c 7,-9 11,-18 11,-26 0,-59 -125,-83 -125,-182 0,-25 8,-49 25,-69 l 82,-97 c 3,-4 4,-7 4,-11 0,-9 -8,-17 -17,-17 -10,0 -42,42 -106,42 -19,0 -54,-1 -54,-66 0,-34 10,-73 27,-93 7,-9 -5,-20 -12,-11 -45,53 -93,147 -93,201 0,42 27,42 43,42 31,0 74,-11 113,-27 L 3,52 C -4,61 -8,70 -8,78 Z"
         fill="currentColor"
         id="path230" />
    </g>
  </a>
</svg>
