<svg xmlns="http://www.w3.org/2000/svg" xmlns:xlink="http://www.w3.org/1999/xlink" version="1.2" width="75.42mm" height="297.00mm" viewBox="0 0 42.9176 169.0094">
<style type="text/css">
<![CDATA[
tspan { white-space: pre; }
]]>
</style>
<!-- Page: 1/1 -->
<g transform="translate(40.4612, 8.6882)">
<rect x="0.0000" y="-1.7000" width="0.1802" height="3.4000" ry="0.0000" fill="currentColor"/>
</g>
<g transform="translate(2.2762, 11.2382)">
<rect x="30.6790" y="-0.0899" width="1.6611" height="0.1799" ry="0.0899" fill="currentColor"/>
</g>
<g transform="translate(2.2762, 11.2382)">
<rect x="25.8890" y="-0.0899" width="1.7602" height="0.1799" ry="0.0899" fill="currentColor"/>
</g>
<g transform="translate(2.2762, 11.2382)">
<rect x="15.3608" y="-0.0899" width="1.6611" height="0.1799" ry="0.0899" fill="currentColor"/>
</g>
<g transform="translate(2.2762, 10.3882)">
<line stroke-linejoin="round" stroke-linecap="round" stroke-width="0.0949" stroke="currentColor" x1="0.0474" y1="0" x2="38.3178" y2="0"/>
</g>
<g transform="translate(2.2762, 9.5382)">
<line stroke-linejoin="round" stroke-linecap="round" stroke-width="0.0949" stroke="currentColor" x1="0.0474" y1="0" x2="38.3178" y2="0"/>
</g>
<g transform="translate(2.2762, 8.6882)">
<line stroke-linejoin="round" stroke-linecap="round" stroke-width="0.0949" stroke="currentColor" x1="0.0474" y1="0" x2="38.3178" y2="0"/>
</g>
<g transform="translate(2.2762, 7.8382)">
<line stroke-linejoin="round" stroke-linecap="round" stroke-width="0.0949" stroke="currentColor" x1="0.0474" y1="0" x2="38.3178" y2="0"/>
</g>
<g transform="translate(2.2762, 6.9882)">
<line stroke-linejoin="round" stroke-linecap="round" stroke-width="0.0949" stroke="currentColor" x1="0.0474" y1="0" x2="38.3178" y2="0"/>
</g>
<g transform="translate(27.3784, 8.6882)">
<rect x="0.0000" y="-1.7000" width="0.1802" height="3.4000" ry="0.0000" fill="currentColor"/>
</g>
<a style="color:inherit;" xlink:href="textedit:///Users/tomsegarra/Documents/dev/dummies/lilypond_files/da2c69009d3c64c3e6822a4cd750ff6d.ly:18:17:18">
<g transform="translate(10.7144, 5.6089)">
<text font-family="sans-serif" font-size="2.2240" text-anchor="start" fill="currentColor">
<tspan>C</tspan>
</text>
</g>
</a>
<a style="color:inherit;" xlink:href="textedit:///Users/tomsegarra/Documents/dev/dummies/lilypond_files/da2c69009d3c64c3e6822a4cd750ff6d.ly:20:4:5">
<g transform="translate(10.7144, 9.1132)">
<path transform="scale(0.0034, -0.0034)" d="M215 137c67 0 111 -37 111 -92c0 -90 -111 -182 -215 -182c-67 0 -111 37 -111 92c0 90 111 182 215 182z" fill="currentColor"/>
</g>
</a>
<g transform="translate(3.0762, 9.5382)">
<path transform="scale(0.0034, -0.0034)" d="M646 2c0 -113 -74 -213 -180 -247c3 -34 5 -68 5 -102c0 -20 -1 -40 -2 -60c-7 -121 -91 -228 -209 -228c-108 0 -196 87 -196 196c0 58 53 104 112 104c54 0 95 -48 95 -104c0 -52 -43 -95 -95 -95c-10 0 -20 2 -29 6c26 -38 68 -63 116 -63h3c93 2 153 92 159 190
c1 19 2 37 2 56c0 30 -2 60 -4 90c-5 -1 -43 -8 -88 -8c-194 0 -333 180 -333 375c0 177 130 307 246 442c-31 98 -53 170 -53 347c0 115 55 223 148 290c7 5 16 4 22 -1c68 -80 134 -243 134 -357c0 -143 -85 -255 -178 -364c21 -68 40 -137 57 -206c1 0 5 1 11 1
c156 0 257 -129 257 -262zM462 -202c66 24 111 88 111 162c0 89 -65 178 -170 190c28 -135 50 -272 59 -352zM75 26c0 -145 141 -245 263 -245c1 0 46 0 81 6c-7 65 -27 206 -61 363c-79 -8 -124 -61 -124 -119c0 -43 25 -89 80 -121c5 -5 7 -11 7 -16
c0 -12 -10 -23 -22 -23c-16 0 -127 63 -127 188c0 89 58 175 161 198c-14 58 -29 116 -46 173c-106 -122 -212 -244 -212 -404zM406 1042c-99 -47 -162 -148 -162 -257c0 -49 13 -111 38 -191c79 97 144 199 144 324c0 33 0 63 -20 124z" fill="currentColor"/>
</g>
<g transform="translate(7.2762, 8.6882)">
<path transform="scale(0.0034, -0.0034)" d="M358 29c-30 0 -74 23 -74 73c0 38 27 76 71 76c4 0 7 0 11 -1c-27 36 -69 59 -116 59c-106 0 -113 -74 -113 -188c0 -15 1 -31 1 -48s-1 -33 -1 -48c0 -114 7 -188 113 -188c79 0 136 70 155 150c2 7 7 10 13 10c7 0 14 -5 14 -13c0 -21 -50 -175 -182 -175
c-59 0 -250 20 -250 264c0 63 18 264 250 264c115 0 174 -109 174 -165c0 -39 -30 -70 -66 -70z" fill="currentColor"/>
</g>
<a style="color:inherit;" xlink:href="textedit:///Users/tomsegarra/Documents/dev/dummies/lilypond_files/da2c69009d3c64c3e6822a4cd750ff6d.ly:23:15:16">
<g transform="translate(9.5268, 14.1960)">
<text font-family="serif" font-size="2.0989" text-anchor="start" fill="currentColor">
<tspan>One</tspan>
</text>
</g>
</a>
<g transform="translate(11.7601, 8.6882)">
<rect x="-0.0617" y="-2.5500" width="0.1233" height="2.8225" ry="0.0400" fill="currentColor"/>
</g>
<a style="color:inherit;" xlink:href="textedit:///Users/tomsegarra/Documents/dev/dummies/lilypond_files/da2c69009d3c64c3e6822a4cd750ff6d.ly:21:4:5">
<g transform="translate(28.4586, 11.6632)">
<path transform="scale(0.0034, -0.0034)" d="M312 64c0 23 -18 41 -41 41c-39 0 -201 -110 -228 -142c-7 -8 -10 -17 -10 -27c0 -23 18 -41 41 -41c39 0 201 110 228 142c7 8 10 17 10 27zM259 137c46 0 86 -17 86 -74c0 -26 -15 -112 -73 -151c-29 -20 -89 -49 -186 -49c-46 0 -86 17 -86 74c0 26 16 112 74 151
c29 20 88 49 185 49z" fill="currentColor"/>
</g>
</a>
<a style="color:inherit;" xlink:href="textedit:///Users/tomsegarra/Documents/dev/dummies/lilypond_files/da2c69009d3c64c3e6822a4cd750ff6d.ly:23:34:35">
<g transform="translate(28.0552, 14.1960)">
<text font-family="serif" font-size="2.0989" text-anchor="start" fill="currentColor">
<tspan>be</tspan>
</text>
</g>
</a>
<g transform="translate(29.5705, 8.6882)">
<rect x="-0.0617" y="-0.0000" width="0.1233" height="2.7600" ry="0.0400" fill="currentColor"/>
</g>
<a style="color:inherit;" xlink:href="textedit:///Users/tomsegarra/Documents/dev/dummies/lilypond_files/da2c69009d3c64c3e6822a4cd750ff6d.ly:18:29:30">
<g transform="translate(33.2321, 5.6089)">
<text font-family="sans-serif" font-size="2.2240" text-anchor="start" fill="currentColor">
<tspan>E</tspan>
</text>
</g>
</a>
<a style="color:inherit;" xlink:href="textedit:///Users/tomsegarra/Documents/dev/dummies/lilypond_files/da2c69009d3c64c3e6822a4cd750ff6d.ly:21:7:8">
<g transform="translate(33.2321, 11.2382)">
<path transform="scale(0.0034, -0.0034)" d="M215 137c67 0 111 -37 111 -92c0 -90 -111 -182 -215 -182c-67 0 -111 37 -111 92c0 90 111 182 215 182z" fill="currentColor"/>
</g>
</a>
<a style="color:inherit;" xlink:href="textedit:///Users/tomsegarra/Documents/dev/dummies/lilypond_files/da2c69009d3c64c3e6822a4cd750ff6d.ly:23:37:38">
<g transform="translate(33.2321, 14.1960)">
<text font-family="serif" font-size="2.0989" text-anchor="start" fill="currentColor">
<tspan>free</tspan>
</text>
</g>
</a>
<g transform="translate(34.2778, 8.6882)">
<rect x="-0.0617" y="-0.4250" width="0.1233" height="2.8225" ry="0.0400" fill="currentColor"/>
</g>
<a style="color:inherit;" xlink:href="textedit:///Users/tomsegarra/Documents/dev/dummies/lilypond_files/da2c69009d3c64c3e6822a4cd750ff6d.ly:21:11:12">
<g transform="translate(36.7395, 10.8132)">
<path transform="scale(0.0034, -0.0034)" d="M215 137c67 0 111 -37 111 -92c0 -90 -111 -182 -215 -182c-67 0 -111 37 -111 92c0 90 111 182 215 182z" fill="currentColor"/>
</g>
</a>
<g transform="translate(37.7852, 8.6882)">
<rect x="-0.0617" y="-0.8500" width="0.1233" height="2.8225" ry="0.0400" fill="currentColor"/>
</g>
<g transform="translate(18.8979, 8.5316)">
<polygon stroke-linejoin="round" stroke-linecap="round" stroke-width="0.0800" fill="currentColor" stroke="currentColor" points="4.0330 -0.7009 4.0330 -0.3729 0.0400 0.1640 0.0400 -0.1640"/>
</g>
<a style="color:inherit;" xlink:href="textedit:///Users/tomsegarra/Documents/dev/dummies/lilypond_files/da2c69009d3c64c3e6822a4cd750ff6d.ly:20:7:8">
<g transform="translate(14.4251, 10.3882)">
<path transform="scale(0.0034, -0.0034)" d="M215 137c67 0 111 -37 111 -92c0 -90 -111 -182 -215 -182c-67 0 -111 37 -111 92c0 90 111 182 215 182z" fill="currentColor"/>
</g>
</a>
<a style="color:inherit;" xlink:href="textedit:///Users/tomsegarra/Documents/dev/dummies/lilypond_files/da2c69009d3c64c3e6822a4cd750ff6d.ly:23:19:20">
<g transform="translate(13.4594, 14.1960)">
<text font-family="serif" font-size="2.0989" text-anchor="start" fill="currentColor">
<tspan>day</tspan>
</text>
</g>
</a>
<g transform="translate(15.4708, 8.6882)">
<rect x="-0.0617" y="-1.2750" width="0.1233" height="2.8225" ry="0.0400" fill="currentColor"/>
</g>
<a style="color:inherit;" xlink:href="textedit:///Users/tomsegarra/Documents/dev/dummies/lilypond_files/da2c69009d3c64c3e6822a4cd750ff6d.ly:21:9:10">
<g transform="translate(33.2321, 8.6882)">
<path stroke-width="0.0759" stroke-linejoin="round" stroke-linecap="round" stroke="currentColor" fill="currentColor" d="M0.5981 3.4413C1.5414 4.1306 3.3541 3.9109 4.1055 3.0163L4.1055 3.0163C3.3404 3.7979 1.5277 4.0176 0.5981 3.4413z"/>
</g>
</a>
<a style="color:inherit;" xlink:href="textedit:///Users/tomsegarra/Documents/dev/dummies/lilypond_files/da2c69009d3c64c3e6822a4cd750ff6d.ly:18:20:21">
<g transform="translate(17.9138, 5.6089)">
<text font-family="sans-serif" font-size="2.2240" text-anchor="start" fill="currentColor">
<tspan>G</tspan>
</text>
</g>
<g transform="translate(19.6551, 4.4197)">
<text font-family="sans-serif" font-size="1.5727" text-anchor="start" fill="currentColor">
<tspan>sus</tspan>
</text>
</g>
<g transform="translate(22.2842, 4.4197)">
<text font-family="sans-serif" font-size="1.5727" text-anchor="start" fill="currentColor">
<tspan>4</tspan>
</text>
</g>
</a>
<a style="color:inherit;" xlink:href="textedit:///Users/tomsegarra/Documents/dev/dummies/lilypond_files/da2c69009d3c64c3e6822a4cd750ff6d.ly:20:9:10">
<g transform="translate(17.9138, 11.2382)">
<path transform="scale(0.0034, -0.0034)" d="M215 137c67 0 111 -37 111 -92c0 -90 -111 -182 -215 -182c-67 0 -111 37 -111 92c0 90 111 182 215 182z" fill="currentColor"/>
</g>
</a>
<a style="color:inherit;" xlink:href="textedit:///Users/tomsegarra/Documents/dev/dummies/lilypond_files/da2c69009d3c64c3e6822a4cd750ff6d.ly:23:23:24">
<g transform="translate(16.9481, 14.1960)">
<text font-family="serif" font-size="2.0989" text-anchor="start" fill="currentColor">
<tspan>this</tspan>
</text>
</g>
</a>
<g transform="translate(18.9596, 8.6882)">
<rect x="-0.0617" y="-0.1647" width="0.1233" height="2.5622" ry="0.0400" fill="currentColor"/>
</g>
<a style="color:inherit;" xlink:href="textedit:///Users/tomsegarra/Documents/dev/dummies/lilypond_files/da2c69009d3c64c3e6822a4cd750ff6d.ly:23:42:43">
<g transform="translate(36.5175, 14.1960)">
<rect x="0.0000" y="-0.0759" width="1.4241" height="0.0759" ry="0.0304" fill="currentColor"/>
</g>
</a>
<a style="color:inherit;" xlink:href="textedit:///Users/tomsegarra/Documents/dev/dummies/lilypond_files/da2c69009d3c64c3e6822a4cd750ff6d.ly:20:12:13">
<g transform="translate(21.8635, 10.3882)">
<path transform="scale(0.0034, -0.0034)" d="M215 137c67 0 111 -37 111 -92c0 -90 -111 -182 -215 -182c-67 0 -111 37 -111 92c0 90 111 182 215 182z" fill="currentColor"/>
</g>
</a>
<a style="color:inherit;" xlink:href="textedit:///Users/tomsegarra/Documents/dev/dummies/lilypond_files/da2c69009d3c64c3e6822a4cd750ff6d.ly:23:28:29">
<g transform="translate(20.4369, 14.1960)">
<text font-family="serif" font-size="2.0989" text-anchor="start" fill="currentColor">
<tspan>shall</tspan>
</text>
</g>
</a>
<g transform="translate(22.9092, 8.6882)">
<rect x="-0.0617" y="-0.6853" width="0.1233" height="2.2328" ry="0.0400" fill="currentColor"/>
</g>
<a style="color:inherit;" xlink:href="textedit:///Users/tomsegarra/Documents/dev/dummies/lilypond_files/da2c69009d3c64c3e6822a4cd750ff6d.ly:18:27:28">
<g transform="translate(28.4586, 5.6089)">
<text font-family="sans-serif" font-size="2.2240" text-anchor="start" fill="currentColor">
<tspan>F</tspan>
</text>
</g>
</a>
<a style="color:inherit;" xlink:href="textedit:///Users/tomsegarra/Documents/dev/dummies/lilypond_files/da2c69009d3c64c3e6822a4cd750ff6d.ly:20:14:15">
<g transform="translate(24.1709, 8.6882)">
<path transform="scale(0.0034, -0.0034)" d="M-8 78c0 59 125 83 125 182c0 25 -9 49 -26 69l-33 40c-3 4 -4 7 -4 11c0 9 9 17 18 17c4 0 8 -2 12 -6l150 -179c7 -9 11 -18 11 -26c0 -59 -125 -83 -125 -182c0 -25 8 -49 25 -69l82 -97c3 -4 4 -7 4 -11c0 -9 -8 -17 -17 -17c-10 0 -42 42 -106 42
c-19 0 -54 -1 -54 -66c0 -34 10 -73 27 -93c7 -9 -5 -20 -12 -11c-45 53 -93 147 -93 201c0 42 27 42 43 42c31 0 74 -11 113 -27l-129 154c-7 9 -11 18 -11 26z" fill="currentColor"/>
</g>
</a>
</svg>
