<?xml version="1.0" encoding="UTF-8" standalone="no"?>
<svg
   version="1.2"
   width="56.590469mm"
   height="16.102316mm"
   viewBox="0 0 32.204701 9.1631069"
   id="svg204"
   sodipodi:docname="db84945cb067842b6019ae15de53e118.svg"
   xmlns:inkscape="http://www.inkscape.org/namespaces/inkscape"
   xmlns:sodipodi="http://sodipodi.sourceforge.net/DTD/sodipodi-0.dtd"
   xmlns:xlink="http://www.w3.org/1999/xlink"
   xmlns="http://www.w3.org/2000/svg"
   xmlns:svg="http://www.w3.org/2000/svg">
  <defs
     id="defs208" />
  <sodipodi:namedview
     id="namedview206"
     pagecolor="#ffffff"
     bordercolor="#000000"
     borderopacity="0.25"
     inkscape:showpageshadow="2"
     inkscape:pageopacity="0.0"
     inkscape:pagecheckerboard="0"
     inkscape:deskcolor="#d1d1d1"
     inkscape:document-units="mm" />
  <style
     type="text/css"
     id="style2"><![CDATA[
tspan { white-space: pre; }
]]></style>
  <!-- Page: 1/1 -->
  <g
     transform="translate(4.9997121e-5,0.65638322)"
     id="g6">
    <rect
       x="14.8387"
       y="-0.089900002"
       width="1.6611"
       height="0.17990001"
       ry="0.089900002"
       fill="currentColor"
       id="rect4" />
  </g>
  <g
     transform="translate(4.9997121e-5,0.65638322)"
     id="g10">
    <rect
       x="12.5313"
       y="-0.089900002"
       width="1.6611"
       height="0.17990001"
       ry="0.089900002"
       fill="currentColor"
       id="rect8" />
  </g>
  <g
     transform="translate(4.9997121e-5,4.9063832)"
     id="g14">
    <line
       stroke-linejoin="round"
       stroke-linecap="round"
       stroke-width="0.0949"
       stroke="currentColor"
       x1="0.047400001"
       y1="0"
       x2="32.1572"
       y2="0"
       id="line12" />
  </g>
  <g
     transform="translate(4.9997121e-5,4.0563832)"
     id="g18">
    <line
       stroke-linejoin="round"
       stroke-linecap="round"
       stroke-width="0.0949"
       stroke="currentColor"
       x1="0.047400001"
       y1="0"
       x2="32.1572"
       y2="0"
       id="line16" />
  </g>
  <g
     transform="translate(4.9997121e-5,3.2063832)"
     id="g22">
    <line
       stroke-linejoin="round"
       stroke-linecap="round"
       stroke-width="0.0949"
       stroke="currentColor"
       x1="0.047400001"
       y1="0"
       x2="32.1572"
       y2="0"
       id="line20" />
  </g>
  <g
     transform="translate(4.9997121e-5,2.3563832)"
     id="g26">
    <line
       stroke-linejoin="round"
       stroke-linecap="round"
       stroke-width="0.0949"
       stroke="currentColor"
       x1="0.047400001"
       y1="0"
       x2="32.1572"
       y2="0"
       id="line24" />
  </g>
  <g
     transform="translate(4.9997121e-5,1.5063832)"
     id="g30">
    <line
       stroke-linejoin="round"
       stroke-linecap="round"
       stroke-width="0.0949"
       stroke="currentColor"
       x1="0.047400001"
       y1="0"
       x2="32.1572"
       y2="0"
       id="line28" />
  </g>
  <g
     transform="translate(32.02445,3.2063832)"
     id="g34">
    <rect
       x="0"
       y="-1.7"
       width="0.1802"
       height="3.4000001"
       ry="0.0000"
       fill="currentColor"
       id="rect32" />
  </g>
  <a
     style="color:inherit"
     xlink:href="textedit:///Users/tomsegarra/Documents/dev/dummies/lilypond_files/db84945cb067842b6019ae15de53e118.ly:20:4:5"
     id="a40"
     transform="translate(-2.27615,-3.2803168)">
    <g
       transform="translate(13.0344,6.4867)"
       id="g38">
      <path
         transform="scale(0.0034,-0.0034)"
         d="m 70,205 c 80,0 46,-97 90,-97 15,0 52,45 59,59 6,13 26,13 31,0 L 129,-250 c -9,-7 -19,-11 -30,-11 -11,0 -21,4 -30,11 L 187,76 C 154,64 119,54 84,54 37,54 -3,88 -3,133 c 0,40 33,72 73,72 z"
         fill="currentColor"
         id="path36" />
    </g>
  </a>
  <g
     transform="translate(0.80005,4.0563832)"
     id="g44">
    <path
       transform="scale(0.0034,-0.0034)"
       d="m 646,2 c 0,-113 -74,-213 -180,-247 3,-34 5,-68 5,-102 0,-20 -1,-40 -2,-60 -7,-121 -91,-228 -209,-228 -108,0 -196,87 -196,196 0,58 53,104 112,104 54,0 95,-48 95,-104 0,-52 -43,-95 -95,-95 -10,0 -20,2 -29,6 26,-38 68,-63 116,-63 h 3 c 93,2 153,92 159,190 1,19 2,37 2,56 0,30 -2,60 -4,90 -5,-1 -43,-8 -88,-8 -194,0 -333,180 -333,375 0,177 130,307 246,442 -31,98 -53,170 -53,347 0,115 55,223 148,290 7,5 16,4 22,-1 68,-80 134,-243 134,-357 0,-143 -85,-255 -178,-364 21,-68 40,-137 57,-206 1,0 5,1 11,1 C 545,264 646,135 646,2 Z M 462,-202 c 66,24 111,88 111,162 0,89 -65,178 -170,190 28,-135 50,-272 59,-352 z M 75,26 c 0,-145 141,-245 263,-245 1,0 46,0 81,6 -7,65 -27,206 -61,363 -79,-8 -124,-61 -124,-119 0,-43 25,-89 80,-121 5,-5 7,-11 7,-16 0,-12 -10,-23 -22,-23 -16,0 -127,63 -127,188 0,89 58,175 161,198 -14,58 -29,116 -46,173 C 181,308 75,186 75,26 Z M 406,1042 C 307,995 244,894 244,785 c 0,-49 13,-111 38,-191 79,97 144,199 144,324 0,33 0,63 -20,124 z"
       fill="currentColor"
       id="path42" />
  </g>
  <a
     style="color:inherit"
     xlink:href="textedit:///Users/tomsegarra/Documents/dev/dummies/lilypond_files/db84945cb067842b6019ae15de53e118.ly:19:1:9"
     id="a54"
     transform="translate(-2.27615,-3.2803168)">
    <g
       transform="translate(6.5762,4.7867)"
       id="g48">
      <path
         transform="scale(0.0034,-0.0034)"
         d="m 217,-311 c 0,-11 -8,-19 -19,-19 -11,0 -20,8 -20,19 v 142 l -81,-30 v -156 c 0,-11 -9,-20 -20,-20 -11,0 -19,9 -19,20 v 142 l -28,-11 c -3,-1 -5,-1 -8,-1 -12,0 -22,10 -22,23 v 57 c 0,9 6,18 15,21 l 43,16 V 49 L 30,39 C 27,38 25,38 22,38 10,38 0,47 0,60 v 57 c 0,9 6,18 15,21 l 43,16 v 157 c 0,11 8,19 19,19 11,0 20,-8 20,-19 V 169 l 81,30 v 156 c 0,11 9,20 20,20 11,0 19,-9 19,-20 V 213 l 28,11 c 3,1 5,1 8,1 12,0 22,-10 22,-23 v -57 c 0,-9 -6,-18 -15,-21 L 217,108 V -49 l 28,10 c 3,1 5,1 8,1 12,0 22,-9 22,-22 v -57 c 0,-9 -6,-18 -15,-21 l -43,-16 z M 97,64 V -94 l 81,30 V 94 Z"
         fill="currentColor"
         id="path46" />
    </g>
    <g
       transform="translate(7.5112,6.0617)"
       id="g52">
      <path
         transform="scale(0.0034,-0.0034)"
         d="m 217,-311 c 0,-11 -8,-19 -19,-19 -11,0 -20,8 -20,19 v 142 l -81,-30 v -156 c 0,-11 -9,-20 -20,-20 -11,0 -19,9 -19,20 v 142 l -28,-11 c -3,-1 -5,-1 -8,-1 -12,0 -22,10 -22,23 v 57 c 0,9 6,18 15,21 l 43,16 V 49 L 30,39 C 27,38 25,38 22,38 10,38 0,47 0,60 v 57 c 0,9 6,18 15,21 l 43,16 v 157 c 0,11 8,19 19,19 11,0 20,-8 20,-19 V 169 l 81,30 v 156 c 0,11 9,20 20,20 11,0 19,-9 19,-20 V 213 l 28,11 c 3,1 5,1 8,1 12,0 22,-10 22,-23 v -57 c 0,-9 -6,-18 -15,-21 L 217,108 V -49 l 28,10 c 3,1 5,1 8,1 12,0 22,-9 22,-22 v -57 c 0,-9 -6,-18 -15,-21 l -43,-16 z M 97,64 V -94 l 81,30 V 94 Z"
         fill="currentColor"
         id="path50" />
    </g>
  </a>
  <g
     transform="translate(7.32005,3.2063832)"
     id="g58">
    <path
       transform="scale(0.0034,-0.0034)"
       d="m 358,29 c -30,0 -74,23 -74,73 0,38 27,76 71,76 4,0 7,0 11,-1 -27,36 -69,59 -116,59 -106,0 -113,-74 -113,-188 0,-15 1,-31 1,-48 0,-17 -1,-33 -1,-48 0,-114 7,-188 113,-188 79,0 136,70 155,150 2,7 7,10 13,10 7,0 14,-5 14,-13 0,-21 -50,-175 -182,-175 C 191,-264 0,-244 0,0 0,63 18,264 250,264 365,264 424,155 424,99 424,60 394,29 358,29 Z"
       fill="currentColor"
       id="path56" />
  </g>
  <a
     style="color:inherit"
     xlink:href="textedit:///Users/tomsegarra/Documents/dev/dummies/lilypond_files/db84945cb067842b6019ae15de53e118.ly:23:9:10"
     id="a64"
     transform="translate(-2.27615,-3.2803168)">
    <g
       transform="translate(18.9492,11.9867)"
       id="g62">
      <rect
         x="0"
         y="-0.54329997"
         width="0.30000001"
         height="0.1233"
         ry="0.037900001"
         fill="currentColor"
         id="rect60" />
    </g>
  </a>
  <a
     style="color:inherit"
     xlink:href="textedit:///Users/tomsegarra/Documents/dev/dummies/lilypond_files/db84945cb067842b6019ae15de53e118.ly:20:21:22"
     id="a70"
     transform="translate(-2.27615,-3.2803168)">
    <g
       transform="translate(32.1947,5.6367)"
       id="g68">
      <path
         transform="scale(0.0034,-0.0034)"
         d="m 215,137 c 67,0 111,-37 111,-92 0,-90 -111,-182 -215,-182 -67,0 -111,37 -111,92 0,90 111,182 215,182 z"
         fill="currentColor"
         id="path66" />
    </g>
  </a>
  <a
     style="color:inherit"
     xlink:href="textedit:///Users/tomsegarra/Documents/dev/dummies/lilypond_files/db84945cb067842b6019ae15de53e118.ly:23:30:31"
     id="a78"
     transform="translate(-2.27615,-3.2803168)">
    <g
       transform="translate(31.3997,11.9867)"
       id="g76">
      <text
         font-family="serif"
         font-size="2.0989px"
         text-anchor="start"
         fill="currentColor"
         id="text74"><tspan
           id="tspan72">ing</tspan></text>
    </g>
  </a>
  <g
     transform="translate(29.98015,3.2063832)"
     id="g82">
    <rect
       x="-0.061700001"
       y="-0.69749999"
       width="0.1233"
       height="2.2362001"
       ry="0.039999999"
       fill="currentColor"
       id="rect80" />
  </g>
  <g
     transform="translate(12.80825,3.3628832)"
     id="g86">
    <polygon
       stroke-linejoin="round"
       stroke-linecap="round"
       stroke-width="0.08"
       fill="currentColor"
       stroke="currentColor"
       points="0.04,0.164 0.04,-0.164 5.0397,0.3729 5.0397,0.7009 "
       id="polygon84" />
  </g>
  <a
     style="color:inherit"
     xlink:href="textedit:///Users/tomsegarra/Documents/dev/dummies/lilypond_files/db84945cb067842b6019ae15de53e118.ly:20:7:8"
     id="a92"
     transform="translate(-2.27615,-3.2803168)">
    <g
       transform="translate(15.0844,3.9367)"
       id="g90">
      <path
         transform="scale(0.0034,-0.0034)"
         d="m 215,137 c 67,0 111,-37 111,-92 0,-90 -111,-182 -215,-182 -67,0 -111,37 -111,92 0,90 111,182 215,182 z"
         fill="currentColor"
         id="path88" />
    </g>
  </a>
  <a
     style="color:inherit"
     xlink:href="textedit:///Users/tomsegarra/Documents/dev/dummies/lilypond_files/db84945cb067842b6019ae15de53e118.ly:23:4:5"
     id="a100"
     transform="translate(-2.27615,-3.2803168)">
    <g
       transform="translate(15.2967,11.9867)"
       id="g98">
      <text
         font-family="serif"
         font-size="2.0989px"
         text-anchor="start"
         fill="currentColor"
         id="text96"><tspan
           id="tspan94">I</tspan></text>
    </g>
  </a>
  <g
     transform="translate(12.86995,3.2063832)"
     id="g104">
    <rect
       x="-0.061700001"
       y="-2.3975"
       width="0.1233"
       height="2.5606"
       ry="0.039999999"
       fill="currentColor"
       id="rect102" />
  </g>
  <a
     style="color:inherit"
     xlink:href="textedit:///Users/tomsegarra/Documents/dev/dummies/lilypond_files/db84945cb067842b6019ae15de53e118.ly:20:11:12"
     id="a110"
     transform="translate(-2.27615,-3.2803168)">
    <g
       transform="translate(17.3918,3.9367)"
       id="g108">
      <path
         transform="scale(0.0034,-0.0034)"
         d="m 215,137 c 67,0 111,-37 111,-92 0,-90 -111,-182 -215,-182 -67,0 -111,37 -111,92 0,90 111,182 215,182 z"
         fill="currentColor"
         id="path106" />
    </g>
  </a>
  <a
     style="color:inherit"
     xlink:href="textedit:///Users/tomsegarra/Documents/dev/dummies/lilypond_files/db84945cb067842b6019ae15de53e118.ly:23:6:7"
     id="a118"
     transform="translate(-2.27615,-3.2803168)">
    <g
       transform="translate(16.9553,11.9867)"
       id="g116">
      <text
         font-family="serif"
         font-size="2.0989px"
         text-anchor="start"
         fill="currentColor"
         id="text114"><tspan
           id="tspan112">ne</tspan></text>
    </g>
  </a>
  <g
     transform="translate(15.17725,3.2063832)"
     id="g122">
    <rect
       x="-0.061700001"
       y="-2.3975"
       width="0.1233"
       height="2.8045001"
       ry="0.039999999"
       fill="currentColor"
       id="rect120" />
  </g>
  <a
     style="color:inherit"
     xlink:href="textedit:///Users/tomsegarra/Documents/dev/dummies/lilypond_files/db84945cb067842b6019ae15de53e118.ly:20:13:14"
     id="a128"
     transform="translate(-2.27615,-3.2803168)">
    <g
       transform="translate(20.0408,4.7867)"
       id="g126">
      <path
         transform="scale(0.0034,-0.0034)"
         d="m 215,137 c 67,0 111,-37 111,-92 0,-90 -111,-182 -215,-182 -67,0 -111,37 -111,92 0,90 111,182 215,182 z"
         fill="currentColor"
         id="path124" />
    </g>
  </a>
  <a
     style="color:inherit"
     xlink:href="textedit:///Users/tomsegarra/Documents/dev/dummies/lilypond_files/db84945cb067842b6019ae15de53e118.ly:23:12:13"
     id="a136"
     transform="translate(-2.27615,-3.2803168)">
    <g
       transform="translate(19.2629,11.9867)"
       id="g134">
      <text
         font-family="serif"
         font-size="2.0989px"
         text-anchor="start"
         fill="currentColor"
         id="text132"><tspan
           id="tspan130">ver</tspan></text>
    </g>
  </a>
  <g
     transform="translate(17.82625,3.2063832)"
     id="g140">
    <rect
       x="-0.061700001"
       y="-1.5475"
       width="0.1233"
       height="2.2344999"
       ry="0.039999999"
       fill="currentColor"
       id="rect138" />
  </g>
  <g
     transform="translate(16.82305,1.5063832)"
     id="g144">
    <path
       transform="scale(0.0034,-0.0034)"
       d="m -8,375 c 8,5 17,7 26,7 9,0 18,-2 26,-7 l -3,-187 104,21 h 4 c 10,0 18,-8 18,-18 l 7,-566 c -8,-5 -16,-7 -25,-7 -9,0 -18,2 -26,7 l 2,187 -103,-21 h -4 c -10,0 -18,8 -18,18 z M 130,111 40,93 l -3,-204 90,18 z"
       fill="currentColor"
       id="path142" />
  </g>
  <g
     transform="translate(21.16805,4.0563832)"
     id="g148">
    <polygon
       stroke-linejoin="round"
       stroke-linecap="round"
       stroke-width="0.08"
       fill="currentColor"
       stroke="currentColor"
       points="0.04,0.164 0.04,-0.164 8.8338,0.5294 8.8338,0.8574 "
       id="polygon146" />
  </g>
  <a
     style="color:inherit"
     xlink:href="textedit:///Users/tomsegarra/Documents/dev/dummies/lilypond_files/db84945cb067842b6019ae15de53e118.ly:20:15:16"
     id="a154"
     transform="translate(-2.27615,-3.2803168)">
    <g
       transform="translate(23.4442,4.3617)"
       id="g152">
      <path
         transform="scale(0.0034,-0.0034)"
         d="m 215,137 c 67,0 111,-37 111,-92 0,-90 -111,-182 -215,-182 -67,0 -111,37 -111,92 0,90 111,182 215,182 z"
         fill="currentColor"
         id="path150" />
    </g>
  </a>
  <a
     style="color:inherit"
     xlink:href="textedit:///Users/tomsegarra/Documents/dev/dummies/lilypond_files/db84945cb067842b6019ae15de53e118.ly:23:16:17"
     id="a162"
     transform="translate(-2.27615,-3.2803168)">
    <g
       transform="translate(22.376,11.9867)"
       id="g160">
      <text
         font-family="serif"
         font-size="2.0989px"
         text-anchor="start"
         fill="currentColor"
         id="text158"><tspan
           id="tspan156">saw</tspan></text>
    </g>
  </a>
  <g
     transform="translate(21.22965,3.2063832)"
     id="g166">
    <rect
       x="-0.061700001"
       y="-1.9725"
       width="0.1233"
       height="2.8274"
       ry="0.039999999"
       fill="currentColor"
       id="rect164" />
  </g>
  <a
     style="color:inherit"
     xlink:href="textedit:///Users/tomsegarra/Documents/dev/dummies/lilypond_files/db84945cb067842b6019ae15de53e118.ly:20:17:18"
     id="a172"
     transform="translate(-2.27615,-3.2803168)">
    <g
       transform="translate(26.0964,4.7867)"
       id="g170">
      <path
         transform="scale(0.0034,-0.0034)"
         d="m 215,137 c 67,0 111,-37 111,-92 0,-90 -111,-182 -215,-182 -67,0 -111,37 -111,92 0,90 111,182 215,182 z"
         fill="currentColor"
         id="path168" />
    </g>
  </a>
  <a
     style="color:inherit"
     xlink:href="textedit:///Users/tomsegarra/Documents/dev/dummies/lilypond_files/db84945cb067842b6019ae15de53e118.ly:23:20:21"
     id="a180"
     transform="translate(-2.27615,-3.2803168)">
    <g
       transform="translate(26.0697,11.9867)"
       id="g178">
      <text
         font-family="serif"
         font-size="2.0989px"
         text-anchor="start"
         fill="currentColor"
         id="text176"><tspan
           id="tspan174">it</tspan></text>
    </g>
  </a>
  <g
     transform="translate(23.88195,3.2063832)"
     id="g184">
    <rect
       x="-0.061700001"
       y="-1.5475"
       width="0.1233"
       height="2.6096001"
       ry="0.039999999"
       fill="currentColor"
       id="rect182" />
  </g>
  <a
     style="color:inherit"
     xlink:href="textedit:///Users/tomsegarra/Documents/dev/dummies/lilypond_files/db84945cb067842b6019ae15de53e118.ly:20:19:20"
     id="a190"
     transform="translate(-2.27615,-3.2803168)">
    <g
       transform="translate(28.9364,5.2117)"
       id="g188">
      <path
         transform="scale(0.0034,-0.0034)"
         d="m 215,137 c 67,0 111,-37 111,-92 0,-90 -111,-182 -215,-182 -67,0 -111,37 -111,92 0,90 111,182 215,182 z"
         fill="currentColor"
         id="path186" />
    </g>
  </a>
  <a
     style="color:inherit"
     xlink:href="textedit:///Users/tomsegarra/Documents/dev/dummies/lilypond_files/db84945cb067842b6019ae15de53e118.ly:23:23:24"
     id="a198"
     transform="translate(-2.27615,-3.2803168)">
    <g
       transform="translate(27.6805,11.9867)"
       id="g196">
      <text
         font-family="serif"
         font-size="2.0989px"
         text-anchor="start"
         fill="currentColor"
         id="text194"><tspan
           id="tspan192">com</tspan></text>
    </g>
  </a>
  <g
     transform="translate(26.72195,3.2063832)"
     id="g202">
    <rect
       x="-0.061700001"
       y="-1.1224999"
       width="0.1233"
       height="2.4065001"
       ry="0.039999999"
       fill="currentColor"
       id="rect200" />
  </g>
</svg>
