<?xml version="1.0" encoding="UTF-8" standalone="no"?>
<svg
   version="1.2"
   width="151.66029mm"
   height="12.081018mm"
   viewBox="0 0 86.303501 6.8747666"
   id="svg440"
   sodipodi:docname="dc4fd4dbf2ec2cc9960913b6cc434916.svg"
   xmlns:inkscape="http://www.inkscape.org/namespaces/inkscape"
   xmlns:sodipodi="http://sodipodi.sourceforge.net/DTD/sodipodi-0.dtd"
   xmlns:xlink="http://www.w3.org/1999/xlink"
   xmlns="http://www.w3.org/2000/svg"
   xmlns:svg="http://www.w3.org/2000/svg">
  <defs
     id="defs444" />
  <sodipodi:namedview
     id="namedview442"
     pagecolor="#ffffff"
     bordercolor="#000000"
     borderopacity="0.25"
     inkscape:showpageshadow="2"
     inkscape:pageopacity="0.0"
     inkscape:pagecheckerboard="0"
     inkscape:deskcolor="#d1d1d1"
     inkscape:document-units="mm" />
  <style
     type="text/css"
     id="style2"><![CDATA[
tspan { white-space: pre; }
]]></style>
  <!-- Page: 1/1 -->
  <g
     transform="translate(4.9997121e-5,0.46539273)"
     id="g6">
    <rect
       x="27.6665"
       y="-0.089900002"
       width="1.6611"
       height="0.17990001"
       ry="0.089900002"
       fill="currentColor"
       id="rect4" />
  </g>
  <g
     transform="translate(4.9997121e-5,1.3153927)"
     id="g10">
    <rect
       x="27.6665"
       y="-0.089900002"
       width="1.6611"
       height="0.17990001"
       ry="0.089900002"
       fill="currentColor"
       id="rect8" />
  </g>
  <g
     transform="translate(4.9997121e-5,1.3153927)"
     id="g14">
    <rect
       x="25.3591"
       y="-0.089900002"
       width="1.6611"
       height="0.17990001"
       ry="0.089900002"
       fill="currentColor"
       id="rect12" />
  </g>
  <g
     transform="translate(4.9997121e-5,0.46539273)"
     id="g18">
    <rect
       x="23.051701"
       y="-0.089900002"
       width="1.6611"
       height="0.17990001"
       ry="0.089900002"
       fill="currentColor"
       id="rect16" />
  </g>
  <g
     transform="translate(4.9997121e-5,1.3153927)"
     id="g22">
    <rect
       x="23.051701"
       y="-0.089900002"
       width="1.6611"
       height="0.17990001"
       ry="0.089900002"
       fill="currentColor"
       id="rect20" />
  </g>
  <g
     transform="translate(4.9997121e-5,1.3153927)"
     id="g26">
    <rect
       x="20.744301"
       y="-0.089900002"
       width="1.6611"
       height="0.17990001"
       ry="0.089900002"
       fill="currentColor"
       id="rect24" />
  </g>
  <g
     transform="translate(4.9997121e-5,1.3153927)"
     id="g30">
    <rect
       x="18.436899"
       y="-0.089900002"
       width="1.6611"
       height="0.17990001"
       ry="0.089900002"
       fill="currentColor"
       id="rect28" />
  </g>
  <g
     transform="translate(4.9997121e-5,1.3153927)"
     id="g34">
    <rect
       x="14.0795"
       y="-0.089900002"
       width="1.6611"
       height="0.17990001"
       ry="0.089900002"
       fill="currentColor"
       id="rect32" />
  </g>
  <g
     transform="translate(4.9997121e-5,1.3153927)"
     id="g38">
    <rect
       x="11.7721"
       y="-0.089900002"
       width="1.6611"
       height="0.17990001"
       ry="0.089900002"
       fill="currentColor"
       id="rect36" />
  </g>
  <g
     transform="translate(4.9997121e-5,5.5653927)"
     id="g42">
    <line
       stroke-linejoin="round"
       stroke-linecap="round"
       stroke-width="0.0949"
       stroke="currentColor"
       x1="0.047400001"
       y1="0"
       x2="86.255997"
       y2="0"
       id="line40" />
  </g>
  <g
     transform="translate(4.9997121e-5,4.7153927)"
     id="g46">
    <line
       stroke-linejoin="round"
       stroke-linecap="round"
       stroke-width="0.0949"
       stroke="currentColor"
       x1="0.047400001"
       y1="0"
       x2="86.255997"
       y2="0"
       id="line44" />
  </g>
  <g
     transform="translate(4.9997121e-5,3.8653927)"
     id="g50">
    <line
       stroke-linejoin="round"
       stroke-linecap="round"
       stroke-width="0.0949"
       stroke="currentColor"
       x1="0.047400001"
       y1="0"
       x2="86.255997"
       y2="0"
       id="line48" />
  </g>
  <g
     transform="translate(4.9997121e-5,3.0153927)"
     id="g54">
    <line
       stroke-linejoin="round"
       stroke-linecap="round"
       stroke-width="0.0949"
       stroke="currentColor"
       x1="0.047400001"
       y1="0"
       x2="86.255997"
       y2="0"
       id="line52" />
  </g>
  <g
     transform="translate(4.9997121e-5,2.1653927)"
     id="g58">
    <line
       stroke-linejoin="round"
       stroke-linecap="round"
       stroke-width="0.0949"
       stroke="currentColor"
       x1="0.047400001"
       y1="0"
       x2="86.255997"
       y2="0"
       id="line56" />
  </g>
  <g
     transform="translate(30.10785,3.8653927)"
     id="g62">
    <rect
       x="0"
       y="-1.7"
       width="0.1802"
       height="3.4000001"
       ry="0.0000"
       fill="currentColor"
       id="rect60" />
  </g>
  <g
     transform="translate(86.12325,3.8653927)"
     id="g66">
    <rect
       x="0"
       y="-1.7"
       width="0.1802"
       height="3.4000001"
       ry="0.0000"
       fill="currentColor"
       id="rect64" />
  </g>
  <g
     transform="translate(68.24855,3.8653927)"
     id="g70">
    <rect
       x="0"
       y="-1.7"
       width="0.1802"
       height="3.4000001"
       ry="0.0000"
       fill="currentColor"
       id="rect68" />
  </g>
  <g
     transform="translate(49.13245,3.8653927)"
     id="g74">
    <rect
       x="0"
       y="-1.7"
       width="0.1802"
       height="3.4000001"
       ry="0.0000"
       fill="currentColor"
       id="rect72" />
  </g>
  <a
     style="color:inherit"
     xlink:href="textedit:///Users/tomsegarra/Documents/dev/dummies/lilypond_files/dc4fd4dbf2ec2cc9960913b6cc434916.ly:20:4:5"
     id="a80"
     transform="translate(-2.27615,-3.2771073)">
    <g
       transform="translate(14.3252,4.5925)"
       id="g78">
      <path
         transform="scale(0.0034,-0.0034)"
         d="m 215,137 c 67,0 111,-37 111,-92 0,-90 -111,-182 -215,-182 -67,0 -111,37 -111,92 0,90 111,182 215,182 z"
         fill="currentColor"
         id="path76" />
    </g>
  </a>
  <g
     transform="translate(0.80005,4.7153927)"
     id="g84">
    <path
       transform="scale(0.0034,-0.0034)"
       d="m 646,2 c 0,-113 -74,-213 -180,-247 3,-34 5,-68 5,-102 0,-20 -1,-40 -2,-60 -7,-121 -91,-228 -209,-228 -108,0 -196,87 -196,196 0,58 53,104 112,104 54,0 95,-48 95,-104 0,-52 -43,-95 -95,-95 -10,0 -20,2 -29,6 26,-38 68,-63 116,-63 h 3 c 93,2 153,92 159,190 1,19 2,37 2,56 0,30 -2,60 -4,90 -5,-1 -43,-8 -88,-8 -194,0 -333,180 -333,375 0,177 130,307 246,442 -31,98 -53,170 -53,347 0,115 55,223 148,290 7,5 16,4 22,-1 68,-80 134,-243 134,-357 0,-143 -85,-255 -178,-364 21,-68 40,-137 57,-206 1,0 5,1 11,1 C 545,264 646,135 646,2 Z M 462,-202 c 66,24 111,88 111,162 0,89 -65,178 -170,190 28,-135 50,-272 59,-352 z M 75,26 c 0,-145 141,-245 263,-245 1,0 46,0 81,6 -7,65 -27,206 -61,363 -79,-8 -124,-61 -124,-119 0,-43 25,-89 80,-121 5,-5 7,-11 7,-16 0,-12 -10,-23 -22,-23 -16,0 -127,63 -127,188 0,89 58,175 161,198 -14,58 -29,116 -46,173 C 181,308 75,186 75,26 Z M 406,1042 C 307,995 244,894 244,785 c 0,-49 13,-111 38,-191 79,97 144,199 144,324 0,33 0,63 -20,124 z"
       fill="currentColor"
       id="path82" />
  </g>
  <a
     style="color:inherit"
     xlink:href="textedit:///Users/tomsegarra/Documents/dev/dummies/lilypond_files/dc4fd4dbf2ec2cc9960913b6cc434916.ly:19:1:9"
     id="a102"
     transform="translate(-2.27615,-3.2771073)">
    <g
       transform="translate(6.6864,7.1425)"
       id="g88">
      <path
         transform="scale(0.0034,-0.0034)"
         d="m 29,39 -2,-64 v -11 c 0,-22 2,-43 5,-65 44,38 91,80 91,138 0,33 -13,66 -42,66 C 50,103 30,72 29,39 Z m -57,415 c 9,5 18,8 28,8 10,0 19,-3 28,-8 L 21,111 c 25,23 58,36 92,36 51,0 87,-49 87,-103 0,-79 -84,-117 -144,-169 -16,-14 -25,-41 -47,-41 -14,0 -25,13 -25,27 z"
         fill="currentColor"
         id="path86" />
    </g>
    <g
       transform="translate(7.4766,5.8675)"
       id="g92">
      <path
         transform="scale(0.0034,-0.0034)"
         d="m 29,39 -2,-64 v -11 c 0,-22 2,-43 5,-65 44,38 91,80 91,138 0,33 -13,66 -42,66 C 50,103 30,72 29,39 Z m -57,415 c 9,5 18,8 28,8 10,0 19,-3 28,-8 L 21,111 c 25,23 58,36 92,36 51,0 87,-49 87,-103 0,-79 -84,-117 -144,-169 -16,-14 -25,-41 -47,-41 -14,0 -25,13 -25,27 z"
         fill="currentColor"
         id="path90" />
    </g>
    <g
       transform="translate(8.2668,7.5675)"
       id="g96">
      <path
         transform="scale(0.0034,-0.0034)"
         d="m 29,39 -2,-64 v -11 c 0,-22 2,-43 5,-65 44,38 91,80 91,138 0,33 -13,66 -42,66 C 50,103 30,72 29,39 Z m -57,415 c 9,5 18,8 28,8 10,0 19,-3 28,-8 L 21,111 c 25,23 58,36 92,36 51,0 87,-49 87,-103 0,-79 -84,-117 -144,-169 -16,-14 -25,-41 -47,-41 -14,0 -25,13 -25,27 z"
         fill="currentColor"
         id="path94" />
    </g>
    <g
       transform="translate(9.057,6.2925)"
       id="g100">
      <path
         transform="scale(0.0034,-0.0034)"
         d="m 29,39 -2,-64 v -11 c 0,-22 2,-43 5,-65 44,38 91,80 91,138 0,33 -13,66 -42,66 C 50,103 30,72 29,39 Z m -57,415 c 9,5 18,8 28,8 10,0 19,-3 28,-8 L 21,111 c 25,23 58,36 92,36 51,0 87,-49 87,-103 0,-79 -84,-117 -144,-169 -16,-14 -25,-41 -47,-41 -14,0 -25,13 -25,27 z"
         fill="currentColor"
         id="path98" />
    </g>
  </a>
  <g
     transform="translate(8.61085,3.8653927)"
     id="g106">
    <path
       transform="scale(0.0034,-0.0034)"
       d="m 358,29 c -30,0 -74,23 -74,73 0,38 27,76 71,76 4,0 7,0 11,-1 -27,36 -69,59 -116,59 -106,0 -113,-74 -113,-188 0,-15 1,-31 1,-48 0,-17 -1,-33 -1,-48 0,-114 7,-188 113,-188 79,0 136,70 155,150 2,7 7,10 13,10 7,0 14,-5 14,-13 0,-21 -50,-175 -182,-175 C 191,-264 0,-244 0,0 0,63 18,264 250,264 365,264 424,155 424,99 424,60 394,29 358,29 Z"
       fill="currentColor"
       id="path104" />
  </g>
  <g
     transform="translate(12.11075,3.8653927)"
     id="g110">
    <rect
       x="-0.061700001"
       y="-2.3975"
       width="0.1233"
       height="2.3975"
       ry="0.039999999"
       fill="currentColor"
       id="rect108" />
  </g>
  <g
     transform="translate(21.02125,3.8653927)"
     id="g114">
    <polygon
       stroke-linejoin="round"
       stroke-linecap="round"
       stroke-width="0.08"
       fill="currentColor"
       stroke="currentColor"
       points="0.04,0.164 0.04,-0.164 7.0055,-0.164 7.0055,0.164 "
       id="polygon112" />
  </g>
  <a
     style="color:inherit"
     xlink:href="textedit:///Users/tomsegarra/Documents/dev/dummies/lilypond_files/dc4fd4dbf2ec2cc9960913b6cc434916.ly:20:50:51"
     id="a120"
     transform="translate(-2.27615,-3.2771073)">
    <g
       transform="translate(47.0512,7.1425)"
       id="g118">
      <path
         transform="scale(0.0034,-0.0034)"
         d="m 70,205 c 80,0 46,-97 90,-97 15,0 52,45 59,59 6,13 26,13 31,0 L 129,-250 c -9,-7 -19,-11 -30,-11 -11,0 -21,4 -30,11 L 187,76 C 154,64 119,54 84,54 37,54 -3,88 -3,133 c 0,40 33,72 73,72 z"
         fill="currentColor"
         id="path116" />
    </g>
  </a>
  <g
     transform="translate(32.17215,2.1653927)"
     id="g124">
    <polygon
       stroke-linejoin="round"
       stroke-linecap="round"
       stroke-width="0.08"
       fill="currentColor"
       stroke="currentColor"
       points="0.04,0.164 0.04,-0.164 2.3907,-0.164 2.3907,0.164 "
       id="polygon122" />
  </g>
  <a
     style="color:inherit"
     xlink:href="textedit:///Users/tomsegarra/Documents/dev/dummies/lilypond_files/dc4fd4dbf2ec2cc9960913b6cc434916.ly:20:52:53"
     id="a130"
     transform="translate(-2.27615,-3.2771073)">
    <g
       transform="translate(49.1012,7.9925)"
       id="g128">
      <path
         transform="scale(0.0034,-0.0034)"
         d="m 215,137 c 67,0 111,-37 111,-92 0,-90 -111,-182 -215,-182 -67,0 -111,37 -111,92 0,90 111,182 215,182 z"
         fill="currentColor"
         id="path126" />
    </g>
  </a>
  <g
     transform="translate(47.87075,3.8653927)"
     id="g134">
    <rect
       x="-0.061700001"
       y="-2.125"
       width="0.1233"
       height="2.8225"
       ry="0.039999999"
       fill="currentColor"
       id="rect132" />
  </g>
  <g
     transform="translate(47.93245,1.7803927)"
     id="g138">
    <path
       transform="scale(0.0034,-0.0034)"
       d="m 0,0 c 0,-197 207,-335 207,-532 0,-71 -15,-141 -41,-207 -5,-8 -13,-12 -21,-12 -14,0 -27,11 -24,28 26,60 42,125 42,191 0,103 -93,207 -163,282 H -18 V 0 Z"
       fill="currentColor"
       id="path136" />
  </g>
  <g
     transform="translate(41.14435,2.1653927)"
     id="g142">
    <polygon
       stroke-linejoin="round"
       stroke-linecap="round"
       stroke-width="0.08"
       fill="currentColor"
       stroke="currentColor"
       points="0.04,0.164 0.04,-0.164 2.3907,-0.164 2.3907,0.164 "
       id="polygon140" />
  </g>
  <g
     transform="translate(51.19675,1.4719927)"
     id="g146">
    <polygon
       stroke-linejoin="round"
       stroke-linecap="round"
       stroke-width="0.08"
       fill="currentColor"
       stroke="currentColor"
       points="0.04,0.164 0.04,-0.164 2.3907,-0.164 2.3907,0.164 "
       id="polygon144" />
  </g>
  <a
     style="color:inherit"
     xlink:href="textedit:///Users/tomsegarra/Documents/dev/dummies/lilypond_files/dc4fd4dbf2ec2cc9960913b6cc434916.ly:20:57:58"
     id="a152"
     transform="translate(-2.27615,-3.2771073)">
    <g
       transform="translate(52.4888,7.5675)"
       id="g150">
      <path
         transform="scale(0.0034,-0.0034)"
         d="m 215,137 c 67,0 111,-37 111,-92 0,-90 -111,-182 -215,-182 -67,0 -111,37 -111,92 0,90 111,182 215,182 z"
         fill="currentColor"
         id="path148" />
    </g>
  </a>
  <g
     transform="translate(51.25835,3.8653927)"
     id="g156">
    <rect
       x="-0.061700001"
       y="-2.3934"
       width="0.1233"
       height="2.6659999"
       ry="0.039999999"
       fill="currentColor"
       id="rect154" />
  </g>
  <g
     transform="translate(59.18485,6.4153927)"
     id="g160">
    <polygon
       stroke-linejoin="round"
       stroke-linecap="round"
       stroke-width="0.08"
       fill="currentColor"
       stroke="currentColor"
       points="0.04,0.164 0.04,-0.164 7.0055,-0.164 7.0055,0.164 "
       id="polygon158" />
  </g>
  <a
     style="color:inherit"
     xlink:href="textedit:///Users/tomsegarra/Documents/dev/dummies/lilypond_files/dc4fd4dbf2ec2cc9960913b6cc434916.ly:20:61:62"
     id="a166"
     transform="translate(-2.27615,-3.2771073)">
    <g
       transform="translate(54.7962,7.5675)"
       id="g164">
      <path
         transform="scale(0.0034,-0.0034)"
         d="m 215,137 c 67,0 111,-37 111,-92 0,-90 -111,-182 -215,-182 -67,0 -111,37 -111,92 0,90 111,182 215,182 z"
         fill="currentColor"
         id="path162" />
    </g>
  </a>
  <g
     transform="translate(53.56575,3.8653927)"
     id="g170">
    <rect
       x="-0.061700001"
       y="-2.3934"
       width="0.1233"
       height="2.6659999"
       ry="0.039999999"
       fill="currentColor"
       id="rect168" />
  </g>
  <g
     transform="translate(70.31285,2.3219927)"
     id="g174">
    <polygon
       stroke-linejoin="round"
       stroke-linecap="round"
       stroke-width="0.08"
       fill="currentColor"
       stroke="currentColor"
       points="0.04,0.164 0.04,-0.164 2.3907,-0.164 2.3907,0.164 "
       id="polygon172" />
  </g>
  <a
     style="color:inherit"
     xlink:href="textedit:///Users/tomsegarra/Documents/dev/dummies/lilypond_files/dc4fd4dbf2ec2cc9960913b6cc434916.ly:20:65:66"
     id="a180"
     transform="translate(-2.27615,-3.2771073)">
    <g
       transform="translate(57.1036,7.1425)"
       id="g178">
      <path
         transform="scale(0.0034,-0.0034)"
         d="m 70,205 c 80,0 46,-97 90,-97 15,0 52,45 59,59 6,13 26,13 31,0 L 129,-250 c -9,-7 -19,-11 -30,-11 -11,0 -21,4 -30,11 L 187,76 C 154,64 119,54 84,54 37,54 -3,88 -3,133 c 0,40 33,72 73,72 z"
         fill="currentColor"
         id="path176" />
    </g>
  </a>
  <g
     transform="translate(79.28505,2.3219927)"
     id="g184">
    <polygon
       stroke-linejoin="round"
       stroke-linecap="round"
       stroke-width="0.08"
       fill="currentColor"
       stroke="currentColor"
       points="0.04,0.164 0.04,-0.164 2.3907,-0.164 2.3907,0.164 "
       id="polygon182" />
  </g>
  <a
     style="color:inherit"
     xlink:href="textedit:///Users/tomsegarra/Documents/dev/dummies/lilypond_files/dc4fd4dbf2ec2cc9960913b6cc434916.ly:20:67:68"
     id="a190"
     transform="translate(-2.27615,-3.2771073)">
    <g
       transform="translate(59.1536,7.5675)"
       id="g188">
      <path
         transform="scale(0.0034,-0.0034)"
         d="m 215,137 c 67,0 111,-37 111,-92 0,-90 -111,-182 -215,-182 -67,0 -111,37 -111,92 0,90 111,182 215,182 z"
         fill="currentColor"
         id="path186" />
    </g>
  </a>
  <g
     transform="translate(57.92315,3.8653927)"
     id="g194">
    <rect
       x="-0.061700001"
       y="-2.55"
       width="0.1233"
       height="2.8225"
       ry="0.039999999"
       fill="currentColor"
       id="rect192" />
  </g>
  <g
     transform="translate(57.98485,1.3553927)"
     id="g198">
    <path
       transform="scale(0.0034,-0.0034)"
       d="m 0,0 c 0,-197 207,-335 207,-532 0,-71 -15,-141 -41,-207 -5,-8 -13,-12 -21,-12 -14,0 -27,11 -24,28 26,60 42,125 42,191 0,103 -93,207 -163,282 H -18 V 0 Z"
       fill="currentColor"
       id="path196" />
  </g>
  <a
     style="color:inherit"
     xlink:href="textedit:///Users/tomsegarra/Documents/dev/dummies/lilypond_files/dc4fd4dbf2ec2cc9960913b6cc434916.ly:20:71:72"
     id="a204"
     transform="translate(-2.27615,-3.2771073)">
    <g
       transform="translate(61.461,7.1425)"
       id="g202">
      <path
         transform="scale(0.0034,-0.0034)"
         d="m 215,137 c 67,0 111,-37 111,-92 0,-90 -111,-182 -215,-182 -67,0 -111,37 -111,92 0,90 111,182 215,182 z"
         fill="currentColor"
         id="path200" />
    </g>
  </a>
  <g
     transform="translate(59.24645,3.8653927)"
     id="g208">
    <rect
       x="-0.061700001"
       y="0.1525"
       width="0.1233"
       height="2.3975"
       ry="0.039999999"
       fill="currentColor"
       id="rect206" />
  </g>
  <g
     transform="translate(43.51335,3.8653927)"
     id="g212">
    <rect
       x="-0.061700001"
       y="-1.7"
       width="0.1233"
       height="2.3975"
       ry="0.039999999"
       fill="currentColor"
       id="rect210" />
  </g>
  <a
     style="color:inherit"
     xlink:href="textedit:///Users/tomsegarra/Documents/dev/dummies/lilypond_files/dc4fd4dbf2ec2cc9960913b6cc434916.ly:20:75:76"
     id="a218"
     transform="translate(-2.27615,-3.2771073)">
    <g
       transform="translate(63.7684,6.7175)"
       id="g216">
      <path
         transform="scale(0.0034,-0.0034)"
         d="m 215,137 c 67,0 111,-37 111,-92 0,-90 -111,-182 -215,-182 -67,0 -111,37 -111,92 0,90 111,182 215,182 z"
         fill="currentColor"
         id="path214" />
    </g>
  </a>
  <g
     transform="translate(61.55385,3.8653927)"
     id="g222">
    <rect
       x="-0.061700001"
       y="-0.27250001"
       width="0.1233"
       height="2.8225"
       ry="0.039999999"
       fill="currentColor"
       id="rect220" />
  </g>
  <a
     style="color:inherit"
     xlink:href="textedit:///Users/tomsegarra/Documents/dev/dummies/lilypond_files/dc4fd4dbf2ec2cc9960913b6cc434916.ly:20:48:49"
     id="a228"
     transform="translate(-2.27615,-3.2771073)">
    <g
       transform="translate(44.7438,7.9925)"
       id="g226">
      <path
         transform="scale(0.0034,-0.0034)"
         d="m 215,137 c 67,0 111,-37 111,-92 0,-90 -111,-182 -215,-182 -67,0 -111,37 -111,92 0,90 111,182 215,182 z"
         fill="currentColor"
         id="path224" />
    </g>
  </a>
  <a
     style="color:inherit"
     xlink:href="textedit:///Users/tomsegarra/Documents/dev/dummies/lilypond_files/dc4fd4dbf2ec2cc9960913b6cc434916.ly:20:77:78"
     id="a234"
     transform="translate(-2.27615,-3.2771073)">
    <g
       transform="translate(66.0757,7.1425)"
       id="g232">
      <path
         transform="scale(0.0034,-0.0034)"
         d="m 215,137 c 67,0 111,-37 111,-92 0,-90 -111,-182 -215,-182 -67,0 -111,37 -111,92 0,90 111,182 215,182 z"
         fill="currentColor"
         id="path230" />
    </g>
  </a>
  <g
     transform="translate(63.86125,3.8653927)"
     id="g238">
    <rect
       x="-0.061700001"
       y="0.1525"
       width="0.1233"
       height="2.3975"
       ry="0.039999999"
       fill="currentColor"
       id="rect236" />
  </g>
  <a
     style="color:inherit"
     xlink:href="textedit:///Users/tomsegarra/Documents/dev/dummies/lilypond_files/dc4fd4dbf2ec2cc9960913b6cc434916.ly:20:81:82"
     id="a244"
     transform="translate(-2.27615,-3.2771073)">
    <g
       transform="translate(68.3831,6.7175)"
       id="g242">
      <path
         transform="scale(0.0034,-0.0034)"
         d="m 215,137 c 67,0 111,-37 111,-92 0,-90 -111,-182 -215,-182 -67,0 -111,37 -111,92 0,90 111,182 215,182 z"
         fill="currentColor"
         id="path240" />
    </g>
  </a>
  <g
     transform="translate(66.16865,3.8653927)"
     id="g248">
    <rect
       x="-0.061700001"
       y="-0.27250001"
       width="0.1233"
       height="2.8225"
       ry="0.039999999"
       fill="currentColor"
       id="rect246" />
  </g>
  <a
     style="color:inherit"
     xlink:href="textedit:///Users/tomsegarra/Documents/dev/dummies/lilypond_files/dc4fd4dbf2ec2cc9960913b6cc434916.ly:20:87:88"
     id="a254"
     transform="translate(-2.27615,-3.2771073)">
    <g
       transform="translate(71.605,8.4175)"
       id="g252">
      <path
         transform="scale(0.0034,-0.0034)"
         d="m 215,137 c 67,0 111,-37 111,-92 0,-90 -111,-182 -215,-182 -67,0 -111,37 -111,92 0,90 111,182 215,182 z"
         fill="currentColor"
         id="path250" />
    </g>
  </a>
  <g
     transform="translate(70.37455,3.8653927)"
     id="g258">
    <rect
       x="-0.061700001"
       y="-1.5434"
       width="0.1233"
       height="2.6659999"
       ry="0.039999999"
       fill="currentColor"
       id="rect256" />
  </g>
  <a
     style="color:inherit"
     xlink:href="textedit:///Users/tomsegarra/Documents/dev/dummies/lilypond_files/dc4fd4dbf2ec2cc9960913b6cc434916.ly:20:90:91"
     id="a264"
     transform="translate(-2.27615,-3.2771073)">
    <g
       transform="translate(73.9124,8.4175)"
       id="g262">
      <path
         transform="scale(0.0034,-0.0034)"
         d="m 215,137 c 67,0 111,-37 111,-92 0,-90 -111,-182 -215,-182 -67,0 -111,37 -111,92 0,90 111,182 215,182 z"
         fill="currentColor"
         id="path260" />
    </g>
  </a>
  <g
     transform="translate(72.68195,3.8653927)"
     id="g268">
    <rect
       x="-0.061700001"
       y="-1.5434"
       width="0.1233"
       height="2.6659999"
       ry="0.039999999"
       fill="currentColor"
       id="rect266" />
  </g>
  <g
     transform="translate(41.20605,3.8653927)"
     id="g272">
    <rect
       x="-0.061700001"
       y="-1.7"
       width="0.1233"
       height="2.3975"
       ry="0.039999999"
       fill="currentColor"
       id="rect270" />
  </g>
  <a
     style="color:inherit"
     xlink:href="textedit:///Users/tomsegarra/Documents/dev/dummies/lilypond_files/dc4fd4dbf2ec2cc9960913b6cc434916.ly:20:92:93"
     id="a278"
     transform="translate(-2.27615,-3.2771073)">
    <g
       transform="translate(76.2197,7.1425)"
       id="g276">
      <path
         transform="scale(0.0034,-0.0034)"
         d="m 70,205 c 80,0 46,-97 90,-97 15,0 52,45 59,59 6,13 26,13 31,0 L 129,-250 c -9,-7 -19,-11 -30,-11 -11,0 -21,4 -30,11 L 187,76 C 154,64 119,54 84,54 37,54 -3,88 -3,133 c 0,40 33,72 73,72 z"
         fill="currentColor"
         id="path274" />
    </g>
  </a>
  <a
     style="color:inherit"
     xlink:href="textedit:///Users/tomsegarra/Documents/dev/dummies/lilypond_files/dc4fd4dbf2ec2cc9960913b6cc434916.ly:20:46:47"
     id="a284"
     transform="translate(-2.27615,-3.2771073)">
    <g
       transform="translate(42.4364,7.9925)"
       id="g282">
      <path
         transform="scale(0.0034,-0.0034)"
         d="m 215,137 c 67,0 111,-37 111,-92 0,-90 -111,-182 -215,-182 -67,0 -111,37 -111,92 0,90 111,182 215,182 z"
         fill="currentColor"
         id="path280" />
    </g>
  </a>
  <a
     style="color:inherit"
     xlink:href="textedit:///Users/tomsegarra/Documents/dev/dummies/lilypond_files/dc4fd4dbf2ec2cc9960913b6cc434916.ly:20:94:95"
     id="a290"
     transform="translate(-2.27615,-3.2771073)">
    <g
       transform="translate(78.2697,8.4175)"
       id="g288">
      <path
         transform="scale(0.0034,-0.0034)"
         d="m 215,137 c 67,0 111,-37 111,-92 0,-90 -111,-182 -215,-182 -67,0 -111,37 -111,92 0,90 111,182 215,182 z"
         fill="currentColor"
         id="path286" />
    </g>
  </a>
  <g
     transform="translate(77.03935,3.8653927)"
     id="g294">
    <rect
       x="-0.061700001"
       y="-1.7"
       width="0.1233"
       height="2.8225"
       ry="0.039999999"
       fill="currentColor"
       id="rect292" />
  </g>
  <g
     transform="translate(77.10095,2.2053927)"
     id="g298">
    <path
       transform="scale(0.0034,-0.0034)"
       d="m 0,0 c 0,-197 207,-335 207,-532 0,-71 -15,-141 -41,-207 -5,-8 -13,-12 -21,-12 -14,0 -27,11 -24,28 26,60 42,125 42,191 0,103 -93,207 -163,282 H -18 V 0 Z"
       fill="currentColor"
       id="path296" />
  </g>
  <g
     transform="translate(12.04905,3.8653927)"
     id="g302">
    <polygon
       stroke-linejoin="round"
       stroke-linecap="round"
       stroke-width="0.08"
       fill="currentColor"
       stroke="currentColor"
       points="0.04,0.164 0.04,-0.164 2.3907,-0.164 2.3907,0.164 "
       id="polygon300" />
  </g>
  <a
     style="color:inherit"
     xlink:href="textedit:///Users/tomsegarra/Documents/dev/dummies/lilypond_files/dc4fd4dbf2ec2cc9960913b6cc434916.ly:20:96:97"
     id="a308"
     transform="translate(-2.27615,-3.2771073)">
    <g
       transform="translate(80.5771,8.4175)"
       id="g306">
      <path
         transform="scale(0.0034,-0.0034)"
         d="m 215,137 c 67,0 111,-37 111,-92 0,-90 -111,-182 -215,-182 -67,0 -111,37 -111,92 0,90 111,182 215,182 z"
         fill="currentColor"
         id="path304" />
    </g>
  </a>
  <g
     transform="translate(79.34675,3.8653927)"
     id="g312">
    <rect
       x="-0.061700001"
       y="-1.5434"
       width="0.1233"
       height="2.6659999"
       ry="0.039999999"
       fill="currentColor"
       id="rect310" />
  </g>
  <g
     transform="translate(38.96025,1.7803927)"
     id="g316">
    <path
       transform="scale(0.0034,-0.0034)"
       d="m 0,0 c 0,-197 207,-335 207,-532 0,-71 -15,-141 -41,-207 -5,-8 -13,-12 -21,-12 -14,0 -27,11 -24,28 26,60 42,125 42,191 0,103 -93,207 -163,282 H -18 V 0 Z"
       fill="currentColor"
       id="path314" />
  </g>
  <a
     style="color:inherit"
     xlink:href="textedit:///Users/tomsegarra/Documents/dev/dummies/lilypond_files/dc4fd4dbf2ec2cc9960913b6cc434916.ly:20:98:99"
     id="a322"
     transform="translate(-2.27615,-3.2771073)">
    <g
       transform="translate(82.8845,8.4175)"
       id="g320">
      <path
         transform="scale(0.0034,-0.0034)"
         d="m 215,137 c 67,0 111,-37 111,-92 0,-90 -111,-182 -215,-182 -67,0 -111,37 -111,92 0,90 111,182 215,182 z"
         fill="currentColor"
         id="path318" />
    </g>
  </a>
  <g
     transform="translate(81.65405,3.8653927)"
     id="g326">
    <rect
       x="-0.061700001"
       y="-1.5434"
       width="0.1233"
       height="2.6659999"
       ry="0.039999999"
       fill="currentColor"
       id="rect324" />
  </g>
  <a
     style="color:inherit"
     xlink:href="textedit:///Users/tomsegarra/Documents/dev/dummies/lilypond_files/dc4fd4dbf2ec2cc9960913b6cc434916.ly:20:100:101"
     id="a332"
     transform="translate(-2.27615,-3.2771073)">
    <g
       transform="translate(85.1919,7.1425)"
       id="g330">
      <path
         transform="scale(0.0034,-0.0034)"
         d="m -8,78 c 0,59 125,83 125,182 0,25 -9,49 -26,69 l -33,40 c -3,4 -4,7 -4,11 0,9 9,17 18,17 4,0 8,-2 12,-6 L 234,212 c 7,-9 11,-18 11,-26 0,-59 -125,-83 -125,-182 0,-25 8,-49 25,-69 l 82,-97 c 3,-4 4,-7 4,-11 0,-9 -8,-17 -17,-17 -10,0 -42,42 -106,42 -19,0 -54,-1 -54,-66 0,-34 10,-73 27,-93 7,-9 -5,-20 -12,-11 -45,53 -93,147 -93,201 0,42 27,42 43,42 31,0 74,-11 113,-27 L 3,52 C -4,61 -8,70 -8,78 Z"
         fill="currentColor"
         id="path328" />
    </g>
  </a>
  <g
     transform="translate(38.89865,3.8653927)"
     id="g336">
    <rect
       x="-0.061700001"
       y="-2.125"
       width="0.1233"
       height="2.8225"
       ry="0.039999999"
       fill="currentColor"
       id="rect334" />
  </g>
  <a
     style="color:inherit"
     xlink:href="textedit:///Users/tomsegarra/Documents/dev/dummies/lilypond_files/dc4fd4dbf2ec2cc9960913b6cc434916.ly:20:44:45"
     id="a342"
     transform="translate(-2.27615,-3.2771073)">
    <g
       transform="translate(40.129,7.9925)"
       id="g340">
      <path
         transform="scale(0.0034,-0.0034)"
         d="m 215,137 c 67,0 111,-37 111,-92 0,-90 -111,-182 -215,-182 -67,0 -111,37 -111,92 0,90 111,182 215,182 z"
         fill="currentColor"
         id="path338" />
    </g>
  </a>
  <a
     style="color:inherit"
     xlink:href="textedit:///Users/tomsegarra/Documents/dev/dummies/lilypond_files/dc4fd4dbf2ec2cc9960913b6cc434916.ly:20:11:12"
     id="a348"
     transform="translate(-2.27615,-3.2771073)">
    <g
       transform="translate(16.6326,4.5925)"
       id="g346">
      <path
         transform="scale(0.0034,-0.0034)"
         d="m 215,137 c 67,0 111,-37 111,-92 0,-90 -111,-182 -215,-182 -67,0 -111,37 -111,92 0,90 111,182 215,182 z"
         fill="currentColor"
         id="path344" />
    </g>
  </a>
  <g
     transform="translate(14.41815,3.8653927)"
     id="g352">
    <rect
       x="-0.061700001"
       y="-2.3975"
       width="0.1233"
       height="2.3975"
       ry="0.039999999"
       fill="currentColor"
       id="rect350" />
  </g>
  <a
     style="color:inherit"
     xlink:href="textedit:///Users/tomsegarra/Documents/dev/dummies/lilypond_files/dc4fd4dbf2ec2cc9960913b6cc434916.ly:20:15:16"
     id="a358"
     transform="translate(-2.27615,-3.2771073)">
    <g
       transform="translate(18.94,7.1425)"
       id="g356">
      <path
         transform="scale(0.0034,-0.0034)"
         d="m 70,205 c 80,0 46,-97 90,-97 15,0 52,45 59,59 6,13 26,13 31,0 L 129,-250 c -9,-7 -19,-11 -30,-11 -11,0 -21,4 -30,11 L 187,76 C 154,64 119,54 84,54 37,54 -3,88 -3,133 c 0,40 33,72 73,72 z"
         fill="currentColor"
         id="path354" />
    </g>
  </a>
  <a
     style="color:inherit"
     xlink:href="textedit:///Users/tomsegarra/Documents/dev/dummies/lilypond_files/dc4fd4dbf2ec2cc9960913b6cc434916.ly:20:17:18"
     id="a364"
     transform="translate(-2.27615,-3.2771073)">
    <g
       transform="translate(20.99,4.5925)"
       id="g362">
      <path
         transform="scale(0.0034,-0.0034)"
         d="m 215,137 c 67,0 111,-37 111,-92 0,-90 -111,-182 -215,-182 -67,0 -111,37 -111,92 0,90 111,182 215,182 z"
         fill="currentColor"
         id="path360" />
    </g>
  </a>
  <g
     transform="translate(18.77545,3.8653927)"
     id="g368">
    <rect
       x="-0.061700001"
       y="-2.3975"
       width="0.1233"
       height="2.8225"
       ry="0.039999999"
       fill="currentColor"
       id="rect366" />
  </g>
  <g
     transform="translate(18.83715,4.2503927)"
     id="g372">
    <path
       transform="scale(0.0034,-0.0034)"
       d="M 0,0 H -18 V 250 H 0 Z m 0,0 v 250 c 96,59 222,149 222,259 0,57 -15,111 -40,162 -3,17 10,29 24,29 8,0 16,-5 21,-13 25,-56 40,-116 40,-178 C 267,306 0,203 0,0 Z"
       fill="currentColor"
       id="path370" />
  </g>
  <a
     style="color:inherit"
     xlink:href="textedit:///Users/tomsegarra/Documents/dev/dummies/lilypond_files/dc4fd4dbf2ec2cc9960913b6cc434916.ly:20:21:22"
     id="a378"
     transform="translate(-2.27615,-3.2771073)">
    <g
       transform="translate(23.2974,4.1675)"
       id="g376">
      <path
         transform="scale(0.0034,-0.0034)"
         d="m 215,137 c 67,0 111,-37 111,-92 0,-90 -111,-182 -215,-182 -67,0 -111,37 -111,92 0,90 111,182 215,182 z"
         fill="currentColor"
         id="path374" />
    </g>
  </a>
  <g
     transform="translate(21.08285,3.8653927)"
     id="g382">
    <rect
       x="-0.061700001"
       y="-2.8225"
       width="0.1233"
       height="2.8225"
       ry="0.039999999"
       fill="currentColor"
       id="rect380" />
  </g>
  <a
     style="color:inherit"
     xlink:href="textedit:///Users/tomsegarra/Documents/dev/dummies/lilypond_files/dc4fd4dbf2ec2cc9960913b6cc434916.ly:20:42:43"
     id="a388"
     transform="translate(-2.27615,-3.2771073)">
    <g
       transform="translate(38.079,7.1425)"
       id="g386">
      <path
         transform="scale(0.0034,-0.0034)"
         d="m 70,205 c 80,0 46,-97 90,-97 15,0 52,45 59,59 6,13 26,13 31,0 L 129,-250 c -9,-7 -19,-11 -30,-11 -11,0 -21,4 -30,11 L 187,76 C 154,64 119,54 84,54 37,54 -3,88 -3,133 c 0,40 33,72 73,72 z"
         fill="currentColor"
         id="path384" />
    </g>
  </a>
  <a
     style="color:inherit"
     xlink:href="textedit:///Users/tomsegarra/Documents/dev/dummies/lilypond_files/dc4fd4dbf2ec2cc9960913b6cc434916.ly:20:25:26"
     id="a394"
     transform="translate(-2.27615,-3.2771073)">
    <g
       transform="translate(25.6047,3.7425)"
       id="g392">
      <path
         transform="scale(0.0034,-0.0034)"
         d="m 215,137 c 67,0 111,-37 111,-92 0,-90 -111,-182 -215,-182 -67,0 -111,37 -111,92 0,90 111,182 215,182 z"
         fill="currentColor"
         id="path390" />
    </g>
  </a>
  <g
     transform="translate(23.39025,3.8653927)"
     id="g398">
    <rect
       x="-0.061700001"
       y="-3.2474999"
       width="0.1233"
       height="3.2474999"
       ry="0.039999999"
       fill="currentColor"
       id="rect396" />
  </g>
  <a
     style="color:inherit"
     xlink:href="textedit:///Users/tomsegarra/Documents/dev/dummies/lilypond_files/dc4fd4dbf2ec2cc9960913b6cc434916.ly:20:27:28"
     id="a404"
     transform="translate(-2.27615,-3.2771073)">
    <g
       transform="translate(27.9121,4.1675)"
       id="g402">
      <path
         transform="scale(0.0034,-0.0034)"
         d="m 215,137 c 67,0 111,-37 111,-92 0,-90 -111,-182 -215,-182 -67,0 -111,37 -111,92 0,90 111,182 215,182 z"
         fill="currentColor"
         id="path400" />
    </g>
  </a>
  <g
     transform="translate(25.69765,3.8653927)"
     id="g408">
    <rect
       x="-0.061700001"
       y="-2.8225"
       width="0.1233"
       height="2.8225"
       ry="0.039999999"
       fill="currentColor"
       id="rect406" />
  </g>
  <a
     style="color:inherit"
     xlink:href="textedit:///Users/tomsegarra/Documents/dev/dummies/lilypond_files/dc4fd4dbf2ec2cc9960913b6cc434916.ly:20:31:32"
     id="a414"
     transform="translate(-2.27615,-3.2771073)">
    <g
       transform="translate(30.2195,3.7425)"
       id="g412">
      <path
         transform="scale(0.0034,-0.0034)"
         d="m 215,137 c 67,0 111,-37 111,-92 0,-90 -111,-182 -215,-182 -67,0 -111,37 -111,92 0,90 111,182 215,182 z"
         fill="currentColor"
         id="path410" />
    </g>
  </a>
  <g
     transform="translate(28.00505,3.8653927)"
     id="g418">
    <rect
       x="-0.061700001"
       y="-3.2474999"
       width="0.1233"
       height="3.2474999"
       ry="0.039999999"
       fill="currentColor"
       id="rect416" />
  </g>
  <a
     style="color:inherit"
     xlink:href="textedit:///Users/tomsegarra/Documents/dev/dummies/lilypond_files/dc4fd4dbf2ec2cc9960913b6cc434916.ly:20:37:38"
     id="a424"
     transform="translate(-2.27615,-3.2771073)">
    <g
       transform="translate(33.4643,7.9925)"
       id="g422">
      <path
         transform="scale(0.0034,-0.0034)"
         d="m 215,137 c 67,0 111,-37 111,-92 0,-90 -111,-182 -215,-182 -67,0 -111,37 -111,92 0,90 111,182 215,182 z"
         fill="currentColor"
         id="path420" />
    </g>
  </a>
  <g
     transform="translate(32.23385,3.8653927)"
     id="g428">
    <rect
       x="-0.061700001"
       y="-1.7"
       width="0.1233"
       height="2.3975"
       ry="0.039999999"
       fill="currentColor"
       id="rect426" />
  </g>
  <g
     transform="translate(34.54125,3.8653927)"
     id="g432">
    <rect
       x="-0.061700001"
       y="-1.7"
       width="0.1233"
       height="2.3975"
       ry="0.039999999"
       fill="currentColor"
       id="rect430" />
  </g>
  <a
     style="color:inherit"
     xlink:href="textedit:///Users/tomsegarra/Documents/dev/dummies/lilypond_files/dc4fd4dbf2ec2cc9960913b6cc434916.ly:20:40:41"
     id="a438"
     transform="translate(-2.27615,-3.2771073)">
    <g
       transform="translate(35.7717,7.9925)"
       id="g436">
      <path
         transform="scale(0.0034,-0.0034)"
         d="m 215,137 c 67,0 111,-37 111,-92 0,-90 -111,-182 -215,-182 -67,0 -111,37 -111,92 0,90 111,182 215,182 z"
         fill="currentColor"
         id="path434" />
    </g>
  </a>
</svg>
