<svg xmlns="http://www.w3.org/2000/svg" xmlns:xlink="http://www.w3.org/1999/xlink" version="1.2" width="124.36mm" height="297.00mm" viewBox="0 0 70.7655 169.0094">
<style type="text/css">
<![CDATA[
tspan { white-space: pre; }
]]>
</style>
<!-- Page: 1/1 -->
<g transform="translate(68.3091, 8.7142)">
<rect x="0.0000" y="-1.7000" width="0.1802" height="3.4000" ry="0.0000" fill="currentColor"/>
</g>
<g transform="translate(2.2762, 6.1642)">
<rect x="63.5217" y="-0.0899" width="1.6611" height="0.1799" ry="0.0899" fill="currentColor"/>
</g>
<g transform="translate(2.2762, 6.1642)">
<rect x="54.9224" y="-0.0899" width="1.6611" height="0.1799" ry="0.0899" fill="currentColor"/>
</g>
<g transform="translate(2.2762, 6.1642)">
<rect x="51.5258" y="-0.0899" width="1.6611" height="0.1799" ry="0.0899" fill="currentColor"/>
</g>
<g transform="translate(2.2762, 6.1642)">
<rect x="48.1291" y="-0.0899" width="1.6611" height="0.1799" ry="0.0899" fill="currentColor"/>
</g>
<g transform="translate(2.2762, 5.3142)">
<rect x="46.0718" y="-0.0899" width="1.6611" height="0.1799" ry="0.0899" fill="currentColor"/>
</g>
<g transform="translate(2.2762, 6.1642)">
<rect x="46.0718" y="-0.0899" width="1.6611" height="0.1799" ry="0.0899" fill="currentColor"/>
</g>
<g transform="translate(2.2762, 5.3142)">
<rect x="43.7644" y="-0.0899" width="1.6611" height="0.1799" ry="0.0899" fill="currentColor"/>
</g>
<g transform="translate(2.2762, 6.1642)">
<rect x="43.7644" y="-0.0899" width="1.6611" height="0.1799" ry="0.0899" fill="currentColor"/>
</g>
<g transform="translate(2.2762, 5.3142)">
<rect x="41.4570" y="-0.0899" width="1.6611" height="0.1799" ry="0.0899" fill="currentColor"/>
</g>
<g transform="translate(2.2762, 6.1642)">
<rect x="41.4570" y="-0.0899" width="1.6611" height="0.1799" ry="0.0899" fill="currentColor"/>
</g>
<g transform="translate(2.2762, 5.3142)">
<rect x="38.6308" y="-0.0899" width="1.6611" height="0.1799" ry="0.0899" fill="currentColor"/>
</g>
<g transform="translate(2.2762, 6.1642)">
<rect x="38.6308" y="-0.0899" width="1.6611" height="0.1799" ry="0.0899" fill="currentColor"/>
</g>
<g transform="translate(2.2762, 4.4642)">
<rect x="36.1077" y="-0.0899" width="1.6611" height="0.1799" ry="0.0899" fill="currentColor"/>
</g>
<g transform="translate(2.2762, 5.3142)">
<rect x="36.1077" y="-0.0899" width="1.6611" height="0.1799" ry="0.0899" fill="currentColor"/>
</g>
<g transform="translate(2.2762, 6.1642)">
<rect x="36.1077" y="-0.0899" width="1.6611" height="0.1799" ry="0.0899" fill="currentColor"/>
</g>
<g transform="translate(2.2762, 4.4642)">
<rect x="33.2489" y="-0.0899" width="1.6611" height="0.1799" ry="0.0899" fill="currentColor"/>
</g>
<g transform="translate(2.2762, 5.3142)">
<rect x="33.2489" y="-0.0899" width="1.6611" height="0.1799" ry="0.0899" fill="currentColor"/>
</g>
<g transform="translate(2.2762, 6.1642)">
<rect x="33.2489" y="-0.0899" width="1.6611" height="0.1799" ry="0.0899" fill="currentColor"/>
</g>
<g transform="translate(2.2762, 4.4642)">
<rect x="30.3900" y="-0.0899" width="1.6611" height="0.1799" ry="0.0899" fill="currentColor"/>
</g>
<g transform="translate(2.2762, 5.3142)">
<rect x="30.3900" y="-0.0899" width="1.6611" height="0.1799" ry="0.0899" fill="currentColor"/>
</g>
<g transform="translate(2.2762, 6.1642)">
<rect x="30.3900" y="-0.0899" width="1.6611" height="0.1799" ry="0.0899" fill="currentColor"/>
</g>
<g transform="translate(2.2762, 5.3142)">
<rect x="28.0826" y="-0.0899" width="1.6611" height="0.1799" ry="0.0899" fill="currentColor"/>
</g>
<g transform="translate(2.2762, 6.1642)">
<rect x="28.0826" y="-0.0899" width="1.6611" height="0.1799" ry="0.0899" fill="currentColor"/>
</g>
<g transform="translate(2.2762, 5.3142)">
<rect x="25.7752" y="-0.0899" width="1.6611" height="0.1799" ry="0.0899" fill="currentColor"/>
</g>
<g transform="translate(2.2762, 6.1642)">
<rect x="25.7752" y="-0.0899" width="1.6611" height="0.1799" ry="0.0899" fill="currentColor"/>
</g>
<g transform="translate(2.2762, 5.3142)">
<rect x="23.4678" y="-0.0899" width="1.6611" height="0.1799" ry="0.0899" fill="currentColor"/>
</g>
<g transform="translate(2.2762, 6.1642)">
<rect x="23.4678" y="-0.0899" width="1.6611" height="0.1799" ry="0.0899" fill="currentColor"/>
</g>
<g transform="translate(2.2762, 5.3142)">
<rect x="20.4400" y="-0.0899" width="1.6611" height="0.1799" ry="0.0899" fill="currentColor"/>
</g>
<g transform="translate(2.2762, 6.1642)">
<rect x="20.4400" y="-0.0899" width="1.6611" height="0.1799" ry="0.0899" fill="currentColor"/>
</g>
<g transform="translate(2.2762, 5.3142)">
<rect x="17.3610" y="-0.0899" width="1.6611" height="0.1799" ry="0.0899" fill="currentColor"/>
</g>
<g transform="translate(2.2762, 6.1642)">
<rect x="17.3610" y="-0.0899" width="1.6611" height="0.1799" ry="0.0899" fill="currentColor"/>
</g>
<g transform="translate(2.2762, 5.3142)">
<rect x="13.9832" y="-0.0899" width="1.6611" height="0.1799" ry="0.0899" fill="currentColor"/>
</g>
<g transform="translate(2.2762, 6.1642)">
<rect x="13.9832" y="-0.0899" width="1.6611" height="0.1799" ry="0.0899" fill="currentColor"/>
</g>
<g transform="translate(2.2762, 5.3142)">
<rect x="10.4813" y="-0.0899" width="1.6611" height="0.1799" ry="0.0899" fill="currentColor"/>
</g>
<g transform="translate(2.2762, 6.1642)">
<rect x="10.4813" y="-0.0899" width="1.6611" height="0.1799" ry="0.0899" fill="currentColor"/>
</g>
<g transform="translate(2.2762, 10.4142)">
<line stroke-linejoin="round" stroke-linecap="round" stroke-width="0.0949" stroke="currentColor" x1="0.0474" y1="0" x2="66.1656" y2="0"/>
</g>
<g transform="translate(2.2762, 9.5642)">
<line stroke-linejoin="round" stroke-linecap="round" stroke-width="0.0949" stroke="currentColor" x1="0.0474" y1="0" x2="66.1656" y2="0"/>
</g>
<g transform="translate(2.2762, 8.7142)">
<line stroke-linejoin="round" stroke-linecap="round" stroke-width="0.0949" stroke="currentColor" x1="0.0474" y1="0" x2="66.1656" y2="0"/>
</g>
<g transform="translate(2.2762, 7.8642)">
<line stroke-linejoin="round" stroke-linecap="round" stroke-width="0.0949" stroke="currentColor" x1="0.0474" y1="0" x2="66.1656" y2="0"/>
</g>
<g transform="translate(2.2762, 7.0142)">
<line stroke-linejoin="round" stroke-linecap="round" stroke-width="0.0949" stroke="currentColor" x1="0.0474" y1="0" x2="66.1656" y2="0"/>
</g>
<g transform="translate(42.7913, 8.7142)">
<rect x="0.0000" y="-1.7000" width="0.1802" height="3.4000" ry="0.0000" fill="currentColor"/>
</g>
<g transform="translate(15.3418, 8.7142)">
<rect x="0.0000" y="-1.7000" width="0.1802" height="3.4000" ry="0.0000" fill="currentColor"/>
</g>
<a style="color:inherit;" xlink:href="textedit:///Users/tomsegarra/Documents/dev/dummies/lilypond_files/dcb4d2f50714c01239b10d0d80975f56.ly:24:15:16">
<g transform="translate(13.0344, 5.3142)">
<path transform="scale(0.0034, -0.0034)" d="M215 137c67 0 111 -37 111 -92c0 -90 -111 -182 -215 -182c-67 0 -111 37 -111 92c0 90 111 182 215 182z" fill="currentColor"/>
</g>
</a>
<g transform="translate(3.0762, 9.5642)">
<path transform="scale(0.0034, -0.0034)" d="M646 2c0 -113 -74 -213 -180 -247c3 -34 5 -68 5 -102c0 -20 -1 -40 -2 -60c-7 -121 -91 -228 -209 -228c-108 0 -196 87 -196 196c0 58 53 104 112 104c54 0 95 -48 95 -104c0 -52 -43 -95 -95 -95c-10 0 -20 2 -29 6c26 -38 68 -63 116 -63h3c93 2 153 92 159 190
c1 19 2 37 2 56c0 30 -2 60 -4 90c-5 -1 -43 -8 -88 -8c-194 0 -333 180 -333 375c0 177 130 307 246 442c-31 98 -53 170 -53 347c0 115 55 223 148 290c7 5 16 4 22 -1c68 -80 134 -243 134 -357c0 -143 -85 -255 -178 -364c21 -68 40 -137 57 -206c1 0 5 1 11 1
c156 0 257 -129 257 -262zM462 -202c66 24 111 88 111 162c0 89 -65 178 -170 190c28 -135 50 -272 59 -352zM75 26c0 -145 141 -245 263 -245c1 0 46 0 81 6c-7 65 -27 206 -61 363c-79 -8 -124 -61 -124 -119c0 -43 25 -89 80 -121c5 -5 7 -11 7 -16
c0 -12 -10 -23 -22 -23c-16 0 -127 63 -127 188c0 89 58 175 161 198c-14 58 -29 116 -46 173c-106 -122 -212 -244 -212 -404zM406 1042c-99 -47 -162 -148 -162 -257c0 -49 13 -111 38 -191c79 97 144 199 144 324c0 33 0 63 -20 124z" fill="currentColor"/>
</g>
<a style="color:inherit;" xlink:href="textedit:///Users/tomsegarra/Documents/dev/dummies/lilypond_files/dcb4d2f50714c01239b10d0d80975f56.ly:23:1:9">
<g transform="translate(6.5762, 7.0142)">
<path transform="scale(0.0034, -0.0034)" d="M217 -311c0 -11 -8 -19 -19 -19s-20 8 -20 19v142l-81 -30v-156c0 -11 -9 -20 -20 -20s-19 9 -19 20v142l-28 -11c-3 -1 -5 -1 -8 -1c-12 0 -22 10 -22 23v57c0 9 6 18 15 21l43 16v157l-28 -10c-3 -1 -5 -1 -8 -1c-12 0 -22 9 -22 22v57c0 9 6 18 15 21l43 16v157
c0 11 8 19 19 19s20 -8 20 -19v-142l81 30v156c0 11 9 20 20 20s19 -9 19 -20v-142l28 11c3 1 5 1 8 1c12 0 22 -10 22 -23v-57c0 -9 -6 -18 -15 -21l-43 -16v-157l28 10c3 1 5 1 8 1c12 0 22 -9 22 -22v-57c0 -9 -6 -18 -15 -21l-43 -16v-157zM97 64v-158l81 30v158z" fill="currentColor"/>
</g>
<g transform="translate(7.5112, 8.2892)">
<path transform="scale(0.0034, -0.0034)" d="M217 -311c0 -11 -8 -19 -19 -19s-20 8 -20 19v142l-81 -30v-156c0 -11 -9 -20 -20 -20s-19 9 -19 20v142l-28 -11c-3 -1 -5 -1 -8 -1c-12 0 -22 10 -22 23v57c0 9 6 18 15 21l43 16v157l-28 -10c-3 -1 -5 -1 -8 -1c-12 0 -22 9 -22 22v57c0 9 6 18 15 21l43 16v157
c0 11 8 19 19 19s20 -8 20 -19v-142l81 30v156c0 11 9 20 20 20s19 -9 19 -20v-142l28 11c3 1 5 1 8 1c12 0 22 -10 22 -23v-57c0 -9 -6 -18 -15 -21l-43 -16v-157l28 10c3 1 5 1 8 1c12 0 22 -9 22 -22v-57c0 -9 -6 -18 -15 -21l-43 -16v-157zM97 64v-158l81 30v158z" fill="currentColor"/>
</g>
</a>
<g transform="translate(9.5962, 8.7142)">
<path transform="scale(0.0034, -0.0034)" d="M358 29c-30 0 -74 23 -74 73c0 38 27 76 71 76c4 0 7 0 11 -1c-27 36 -69 59 -116 59c-106 0 -113 -74 -113 -188c0 -15 1 -31 1 -48s-1 -33 -1 -48c0 -114 7 -188 113 -188c79 0 136 70 155 150c2 7 7 10 13 10c7 0 14 -5 14 -13c0 -21 -50 -175 -182 -175
c-59 0 -250 20 -250 264c0 63 18 264 250 264c115 0 174 -109 174 -165c0 -39 -30 -70 -66 -70z" fill="currentColor"/>
</g>
<a style="color:inherit;" xlink:href="textedit:///Users/tomsegarra/Documents/dev/dummies/lilypond_files/dcb4d2f50714c01239b10d0d80975f56.ly:31:15:16">
<g transform="translate(12.5979, 14.2142)">
<text font-family="serif" font-size="2.0989" text-anchor="start" fill="currentColor">
<tspan>he</tspan>
</text>
</g>
</a>
<g transform="translate(13.0961, 8.7142)">
<rect x="-0.0617" y="-3.2475" width="0.1233" height="3.2475" ry="0.0400" fill="currentColor"/>
</g>
<g transform="translate(13.1577, 8.6742)">
<path transform="scale(0.0034, -0.0034)" d="M0 0h-18v250h18v-250zM0 0v250c96 59 222 149 222 259c0 57 -15 111 -40 162c-3 17 10 29 24 29c8 0 16 -5 21 -13c25 -56 40 -116 40 -178c0 -203 -267 -306 -267 -509z" fill="currentColor"/>
</g>
<a style="color:inherit;" xlink:href="textedit:///Users/tomsegarra/Documents/dev/dummies/lilypond_files/dcb4d2f50714c01239b10d0d80975f56.ly:25:4:5">
<g transform="translate(16.5363, 4.8892)">
<path transform="scale(0.0034, -0.0034)" d="M215 137c67 0 111 -37 111 -92c0 -90 -111 -182 -215 -182c-67 0 -111 37 -111 92c0 90 111 182 215 182z" fill="currentColor"/>
</g>
</a>
<a style="color:inherit;" xlink:href="textedit:///Users/tomsegarra/Documents/dev/dummies/lilypond_files/dcb4d2f50714c01239b10d0d80975f56.ly:31:18:19">
<g transform="translate(15.0926, 14.2142)">
<text font-family="serif" font-size="2.0989" text-anchor="start" fill="currentColor">
<tspan>shou</tspan>
</text>
</g>
</a>
<g transform="translate(16.5980, 8.7142)">
<rect x="-0.0617" y="-3.6725" width="0.1233" height="3.6725" ry="0.0400" fill="currentColor"/>
</g>
<g transform="translate(21.9547, 8.0208)">
<polygon stroke-linejoin="round" stroke-linecap="round" stroke-width="0.0800" fill="currentColor" stroke="currentColor" points="1.1217 -0.1640 1.1217 0.1640 0.0400 0.1640 0.0400 -0.1640"/>
</g>
<g transform="translate(16.5363, 8.0208)">
<polygon stroke-linejoin="round" stroke-linecap="round" stroke-width="0.0800" fill="currentColor" stroke="currentColor" points="1.1217 -0.1640 1.1217 0.1640 0.0400 0.1640 0.0400 -0.1640"/>
</g>
<g transform="translate(16.5363, 8.7142)">
<polygon stroke-linejoin="round" stroke-linecap="round" stroke-width="0.0800" fill="currentColor" stroke="currentColor" points="6.5401 -0.1640 6.5401 0.1640 0.0400 0.1640 0.0400 -0.1640"/>
</g>
<a style="color:inherit;" xlink:href="textedit:///Users/tomsegarra/Documents/dev/dummies/lilypond_files/dcb4d2f50714c01239b10d0d80975f56.ly:25:41:42">
<g transform="translate(41.1839, 4.8892)">
<path transform="scale(0.0034, -0.0034)" d="M215 137c67 0 111 -37 111 -92c0 -90 -111 -182 -215 -182c-67 0 -111 37 -111 92c0 90 111 182 215 182z" fill="currentColor"/>
</g>
</a>
<a style="color:inherit;" xlink:href="textedit:///Users/tomsegarra/Documents/dev/dummies/lilypond_files/dcb4d2f50714c01239b10d0d80975f56.ly:31:52:53">
<g transform="translate(41.1839, 14.2142)">
<text font-family="serif" font-size="2.0989" text-anchor="start" fill="currentColor">
<tspan>he</tspan>
</text>
</g>
</a>
<g transform="translate(41.2455, 8.7142)">
<rect x="-0.0617" y="-3.6725" width="0.1233" height="3.6725" ry="0.0400" fill="currentColor"/>
</g>
<a style="color:inherit;" xlink:href="textedit:///Users/tomsegarra/Documents/dev/dummies/lilypond_files/dcb4d2f50714c01239b10d0d80975f56.ly:25:22:23">
<g transform="translate(28.3283, 8.7142)">
<path stroke-width="0.0759" stroke-linejoin="round" stroke-linecap="round" stroke="currentColor" fill="currentColor" d="M0.7537 -4.6750C1.2242 -5.2312 2.1905 -5.2312 2.6611 -4.6750L2.6611 -4.6750C2.1905 -5.1174 1.2242 -5.1174 0.7537 -4.6750z"/>
</g>
</a>
<a style="color:inherit;" xlink:href="textedit:///Users/tomsegarra/Documents/dev/dummies/lilypond_files/dcb4d2f50714c01239b10d0d80975f56.ly:26:4:5">
<g transform="translate(44.0101, 4.8892)">
<path transform="scale(0.0034, -0.0034)" d="M215 137c67 0 111 -37 111 -92c0 -90 -111 -182 -215 -182c-67 0 -111 37 -111 92c0 90 111 182 215 182z" fill="currentColor"/>
</g>
</a>
<g transform="translate(44.0717, 8.7142)">
<rect x="-0.0617" y="-3.6725" width="0.1233" height="3.6740" ry="0.0400" fill="currentColor"/>
</g>
<a style="color:inherit;" xlink:href="textedit:///Users/tomsegarra/Documents/dev/dummies/lilypond_files/dcb4d2f50714c01239b10d0d80975f56.ly:26:7:8">
<g transform="translate(46.3174, 5.3142)">
<path transform="scale(0.0034, -0.0034)" d="M215 137c67 0 111 -37 111 -92c0 -90 -111 -182 -215 -182c-67 0 -111 37 -111 92c0 90 111 182 215 182z" fill="currentColor"/>
</g>
</a>
<a style="color:inherit;" xlink:href="textedit:///Users/tomsegarra/Documents/dev/dummies/lilypond_files/dcb4d2f50714c01239b10d0d80975f56.ly:31:55:56">
<g transform="translate(46.3174, 14.2142)">
<text font-family="serif" font-size="2.0989" text-anchor="start" fill="currentColor">
<tspan>stum</tspan>
</text>
</g>
</a>
<g transform="translate(46.3791, 8.7142)">
<rect x="-0.0617" y="-3.2475" width="0.1233" height="3.3021" ry="0.0400" fill="currentColor"/>
</g>
<g transform="translate(26.0209, 8.7142)">
<polygon stroke-linejoin="round" stroke-linecap="round" stroke-width="0.0800" fill="currentColor" stroke="currentColor" points="2.3907 -0.1640 2.3907 0.1640 0.0400 0.1640 0.0400 -0.1640"/>
</g>
<a style="color:inherit;" xlink:href="textedit:///Users/tomsegarra/Documents/dev/dummies/lilypond_files/dcb4d2f50714c01239b10d0d80975f56.ly:26:14:15">
<g transform="translate(48.6248, 5.3142)">
<path transform="scale(0.0034, -0.0034)" d="M215 137c67 0 111 -37 111 -92c0 -90 -111 -182 -215 -182c-67 0 -111 37 -111 92c0 90 111 182 215 182z" fill="currentColor"/>
</g>
</a>
<g transform="translate(48.6865, 8.7142)">
<rect x="-0.0617" y="-3.2475" width="0.1233" height="3.3553" ry="0.0400" fill="currentColor"/>
</g>
<a style="color:inherit;" xlink:href="textedit:///Users/tomsegarra/Documents/dev/dummies/lilypond_files/dcb4d2f50714c01239b10d0d80975f56.ly:26:16:17">
<g transform="translate(50.6822, 6.1642)">
<path transform="scale(0.0034, -0.0034)" d="M215 137c67 0 111 -37 111 -92c0 -90 -111 -182 -215 -182c-67 0 -111 37 -111 92c0 90 111 182 215 182z" fill="currentColor"/>
</g>
</a>
<a style="color:inherit;" xlink:href="textedit:///Users/tomsegarra/Documents/dev/dummies/lilypond_files/dcb4d2f50714c01239b10d0d80975f56.ly:31:63:64">
<g transform="translate(50.6822, 14.2142)">
<text font-family="serif" font-size="2.0989" text-anchor="start" fill="currentColor">
<tspan>bled</tspan>
</text>
</g>
</a>
<g transform="translate(50.7439, 8.7142)">
<rect x="-0.0617" y="-2.3975" width="0.1233" height="2.5527" ry="0.0400" fill="currentColor"/>
</g>
<a style="color:inherit;" xlink:href="textedit:///Users/tomsegarra/Documents/dev/dummies/lilypond_files/dcb4d2f50714c01239b10d0d80975f56.ly:25:30:31">
<g transform="translate(32.9431, 8.7142)">
<path stroke-width="0.0759" stroke-linejoin="round" stroke-linecap="round" stroke="currentColor" fill="currentColor" d="M0.7537 -4.9250C1.3216 -5.5612 2.6446 -5.5612 3.2126 -4.9250L3.2126 -4.9250C2.6446 -5.4474 1.3216 -5.4474 0.7537 -4.9250z"/>
</g>
</a>
<a style="color:inherit;" xlink:href="textedit:///Users/tomsegarra/Documents/dev/dummies/lilypond_files/dcb4d2f50714c01239b10d0d80975f56.ly:26:22:23">
<g transform="translate(54.0788, 6.1642)">
<path transform="scale(0.0034, -0.0034)" d="M215 137c67 0 111 -37 111 -92c0 -90 -111 -182 -215 -182c-67 0 -111 37 -111 92c0 90 111 182 215 182z" fill="currentColor"/>
</g>
</a>
<g transform="translate(54.1405, 8.7142)">
<rect x="-0.0617" y="-2.3975" width="0.1233" height="3.0910" ry="0.0400" fill="currentColor"/>
</g>
<g color="red">
<a style="color:inherit;" xlink:href="textedit:///Users/tomsegarra/Documents/dev/dummies/lilypond_files/dcb4d2f50714c01239b10d0d80975f56.ly:29:4:5">
<g transform="translate(57.4755, 6.1642)">
<path transform="scale(0.0034, -0.0034)" d="M215 137c67 0 111 -37 111 -92c0 -90 -111 -182 -215 -182c-67 0 -111 37 -111 92c0 90 111 182 215 182z" fill="currentColor"/>
</g>
</a>
</g>
<a style="color:inherit;" xlink:href="textedit:///Users/tomsegarra/Documents/dev/dummies/lilypond_files/dcb4d2f50714c01239b10d0d80975f56.ly:31:68:69">
<g transform="translate(54.7514, 14.2142)">
<text font-family="serif" font-size="2.0989" text-anchor="start" fill="currentColor">
<tspan>through</tspan>
</text>
</g>
</a>
<g color="red">
<g transform="translate(57.5371, 8.7142)">
<rect x="-0.0617" y="-2.3975" width="0.1233" height="3.0910" ry="0.0400" fill="currentColor"/>
</g>
</g>
<g color="red">
<a style="color:inherit;" xlink:href="textedit:///Users/tomsegarra/Documents/dev/dummies/lilypond_files/dcb4d2f50714c01239b10d0d80975f56.ly:29:6:7">
<g transform="translate(62.4836, 7.0142)">
<path transform="scale(0.0034, -0.0034)" d="M215 137c67 0 111 -37 111 -92c0 -90 -111 -182 -215 -182c-67 0 -111 37 -111 92c0 90 111 182 215 182z" fill="currentColor"/>
</g>
</a>
</g>
<a style="color:inherit;" xlink:href="textedit:///Users/tomsegarra/Documents/dev/dummies/lilypond_files/dcb4d2f50714c01239b10d0d80975f56.ly:31:76:77">
<g transform="translate(61.7569, 14.2142)">
<text font-family="serif" font-size="2.0989" text-anchor="start" fill="currentColor">
<tspan>the</tspan>
</text>
</g>
</a>
<g color="red">
<g transform="translate(62.5453, 8.7142)">
<rect x="-0.0617" y="-1.5475" width="0.1233" height="2.2410" ry="0.0400" fill="currentColor"/>
</g>
</g>
<g transform="translate(30.6357, 8.8708)">
<polygon stroke-linejoin="round" stroke-linecap="round" stroke-width="0.0800" fill="currentColor" stroke="currentColor" points="2.3907 -0.3206 2.3907 0.0074 0.0400 0.1640 0.0400 -0.1640"/>
</g>
<g color="red">
<a style="color:inherit;" xlink:href="textedit:///Users/tomsegarra/Documents/dev/dummies/lilypond_files/dcb4d2f50714c01239b10d0d80975f56.ly:29:8:9">
<g transform="translate(66.0748, 5.7392)">
<path transform="scale(0.0034, -0.0034)" d="M215 137c67 0 111 -37 111 -92c0 -90 -111 -182 -215 -182c-67 0 -111 37 -111 92c0 90 111 182 215 182z" fill="currentColor"/>
</g>
</a>
</g>
<a style="color:inherit;" xlink:href="textedit:///Users/tomsegarra/Documents/dev/dummies/lilypond_files/dcb4d2f50714c01239b10d0d80975f56.ly:31:80:81">
<g transform="translate(64.7677, 14.2142)">
<text font-family="serif" font-size="2.0989" text-anchor="start" fill="currentColor">
<tspan>yard</tspan>
</text>
</g>
</a>
<g color="red">
<g transform="translate(66.1364, 8.7142)">
<rect x="-0.0617" y="-2.8225" width="0.1233" height="3.5160" ry="0.0400" fill="currentColor"/>
</g>
</g>
<a style="color:inherit;" xlink:href="textedit:///Users/tomsegarra/Documents/dev/dummies/lilypond_files/dcb4d2f50714c01239b10d0d80975f56.ly:25:42:43">
<g transform="translate(41.1839, 8.7142)">
<path stroke-width="0.0759" stroke-linejoin="round" stroke-linecap="round" stroke="currentColor" fill="currentColor" d="M0.7537 -4.6750C1.3162 -5.3071 2.6174 -5.3071 3.1799 -4.6750L3.1799 -4.6750C2.6174 -5.1932 1.3162 -5.1932 0.7537 -4.6750z"/>
</g>
</a>
<a style="color:inherit;" xlink:href="textedit:///Users/tomsegarra/Documents/dev/dummies/lilypond_files/dcb4d2f50714c01239b10d0d80975f56.ly:25:8:9">
<g transform="translate(19.9141, 4.8892)">
<path transform="scale(0.0034, -0.0034)" d="M215 137c67 0 111 -37 111 -92c0 -90 -111 -182 -215 -182c-67 0 -111 37 -111 92c0 90 111 182 215 182z" fill="currentColor"/>
</g>
</a>
<a style="color:inherit;" xlink:href="textedit:///Users/tomsegarra/Documents/dev/dummies/lilypond_files/dcb4d2f50714c01239b10d0d80975f56.ly:31:26:27">
<g transform="translate(19.1874, 14.2142)">
<text font-family="serif" font-size="2.0989" text-anchor="start" fill="currentColor">
<tspan>ted</tspan>
</text>
</g>
</a>
<g transform="translate(19.9757, 8.7142)">
<rect x="-0.0617" y="-3.6725" width="0.1233" height="3.6725" ry="0.0400" fill="currentColor"/>
</g>
<a style="color:inherit;" xlink:href="textedit:///Users/tomsegarra/Documents/dev/dummies/lilypond_files/dcb4d2f50714c01239b10d0d80975f56.ly:25:11:12">
<g transform="translate(22.9931, 4.8892)">
<path transform="scale(0.0034, -0.0034)" d="M215 137c67 0 111 -37 111 -92c0 -90 -111 -182 -215 -182c-67 0 -111 37 -111 92c0 90 111 182 215 182z" fill="currentColor"/>
</g>
</a>
<a style="color:inherit;" xlink:href="textedit:///Users/tomsegarra/Documents/dev/dummies/lilypond_files/dcb4d2f50714c01239b10d0d80975f56.ly:31:30:31">
<g transform="translate(22.1981, 14.2142)">
<text font-family="serif" font-size="2.0989" text-anchor="start" fill="currentColor">
<tspan>out</tspan>
</text>
</g>
</a>
<g transform="translate(23.0547, 8.7142)">
<rect x="-0.0617" y="-3.6725" width="0.1233" height="3.6725" ry="0.0400" fill="currentColor"/>
</g>
<g transform="translate(38.6608, 8.0208)">
<polygon stroke-linejoin="round" stroke-linecap="round" stroke-width="0.0800" fill="currentColor" stroke="currentColor" points="2.6064 -0.1640 2.6064 0.1640 0.0400 0.1640 0.0400 -0.1640"/>
</g>
<g transform="translate(35.8019, 8.7142)">
<polygon stroke-linejoin="round" stroke-linecap="round" stroke-width="0.0800" fill="currentColor" stroke="currentColor" points="5.4653 -0.1640 5.4653 0.1640 0.0400 0.1640 0.0400 -0.1640"/>
</g>
<a style="color:inherit;" xlink:href="textedit:///Users/tomsegarra/Documents/dev/dummies/lilypond_files/dcb4d2f50714c01239b10d0d80975f56.ly:25:18:19">
<g transform="translate(26.0209, 4.8892)">
<path transform="scale(0.0034, -0.0034)" d="M215 137c67 0 111 -37 111 -92c0 -90 -111 -182 -215 -182c-67 0 -111 37 -111 92c0 90 111 182 215 182z" fill="currentColor"/>
</g>
</a>
<a style="color:inherit;" xlink:href="textedit:///Users/tomsegarra/Documents/dev/dummies/lilypond_files/dcb4d2f50714c01239b10d0d80975f56.ly:31:34:35">
<g transform="translate(25.3454, 14.2142)">
<text font-family="serif" font-size="2.0989" text-anchor="start" fill="currentColor">
<tspan>his</tspan>
</text>
</g>
</a>
<g transform="translate(26.0826, 8.7142)">
<rect x="-0.0617" y="-3.6725" width="0.1233" height="3.6725" ry="0.0400" fill="currentColor"/>
</g>
<a style="color:inherit;" xlink:href="textedit:///Users/tomsegarra/Documents/dev/dummies/lilypond_files/dcb4d2f50714c01239b10d0d80975f56.ly:25:21:22">
<g transform="translate(28.3283, 4.8892)">
<path transform="scale(0.0034, -0.0034)" d="M215 137c67 0 111 -37 111 -92c0 -90 -111 -182 -215 -182c-67 0 -111 37 -111 92c0 90 111 182 215 182z" fill="currentColor"/>
</g>
</a>
<a style="color:inherit;" xlink:href="textedit:///Users/tomsegarra/Documents/dev/dummies/lilypond_files/dcb4d2f50714c01239b10d0d80975f56.ly:31:38:39">
<g transform="translate(28.3283, 14.2142)">
<text font-family="serif" font-size="2.0989" text-anchor="start" fill="currentColor">
<tspan>last</tspan>
</text>
</g>
</a>
<g transform="translate(28.3899, 8.7142)">
<rect x="-0.0617" y="-3.6725" width="0.1233" height="3.6725" ry="0.0400" fill="currentColor"/>
</g>
<a style="color:inherit;" xlink:href="textedit:///Users/tomsegarra/Documents/dev/dummies/lilypond_files/dcb4d2f50714c01239b10d0d80975f56.ly:25:27:28">
<g transform="translate(30.6357, 4.8892)">
<path transform="scale(0.0034, -0.0034)" d="M215 137c67 0 111 -37 111 -92c0 -90 -111 -182 -215 -182c-67 0 -111 37 -111 92c0 90 111 182 215 182z" fill="currentColor"/>
</g>
</a>
<g transform="translate(30.6973, 8.7142)">
<rect x="-0.0617" y="-3.6725" width="0.1233" height="3.8251" ry="0.0400" fill="currentColor"/>
</g>
<a style="color:inherit;" xlink:href="textedit:///Users/tomsegarra/Documents/dev/dummies/lilypond_files/dcb4d2f50714c01239b10d0d80975f56.ly:26:9:10">
<g transform="translate(46.3174, 8.7142)">
<path stroke-width="0.0759" stroke-linejoin="round" stroke-linecap="round" stroke="currentColor" fill="currentColor" d="M0.7537 -4.0750C1.2242 -4.6312 2.1905 -4.6312 2.6611 -4.0750L2.6611 -4.0750C2.1905 -4.5174 1.2242 -4.5174 0.7537 -4.0750z"/>
</g>
</a>
<a style="color:inherit;" xlink:href="textedit:///Users/tomsegarra/Documents/dev/dummies/lilypond_files/dcb4d2f50714c01239b10d0d80975f56.ly:25:29:30">
<g transform="translate(32.9431, 4.4642)">
<path transform="scale(0.0034, -0.0034)" d="M215 137c67 0 111 -37 111 -92c0 -90 -111 -182 -215 -182c-67 0 -111 37 -111 92c0 90 111 182 215 182z" fill="currentColor"/>
</g>
</a>
<a style="color:inherit;" xlink:href="textedit:///Users/tomsegarra/Documents/dev/dummies/lilypond_files/dcb4d2f50714c01239b10d0d80975f56.ly:31:43:44">
<g transform="translate(32.9431, 14.2142)">
<text font-family="serif" font-size="2.0989" text-anchor="start" fill="currentColor">
<tspan>word</tspan>
</text>
</g>
</a>
<g transform="translate(33.0047, 8.7142)">
<rect x="-0.0617" y="-4.0975" width="0.1233" height="4.1015" ry="0.0400" fill="currentColor"/>
</g>
<a style="color:inherit;" xlink:href="textedit:///Users/tomsegarra/Documents/dev/dummies/lilypond_files/dcb4d2f50714c01239b10d0d80975f56.ly:25:34:35">
<g transform="translate(35.8019, 4.4642)">
<path transform="scale(0.0034, -0.0034)" d="M215 137c67 0 111 -37 111 -92c0 -90 -111 -182 -215 -182c-67 0 -111 37 -111 92c0 90 111 182 215 182z" fill="currentColor"/>
</g>
</a>
<g transform="translate(35.8636, 8.7142)">
<rect x="-0.0617" y="-4.0975" width="0.1233" height="4.0975" ry="0.0400" fill="currentColor"/>
</g>
<a style="color:inherit;" xlink:href="textedit:///Users/tomsegarra/Documents/dev/dummies/lilypond_files/dcb4d2f50714c01239b10d0d80975f56.ly:26:17:18">
<g transform="translate(50.6822, 8.7142)">
<path stroke-width="0.0759" stroke-linejoin="round" stroke-linecap="round" stroke="currentColor" fill="currentColor" d="M0.7537 -3.2250C1.4054 -3.9204 3.0986 -3.9204 3.7503 -3.2250L3.7503 -3.2250C3.0986 -3.8066 1.4054 -3.8066 0.7537 -3.2250z"/>
</g>
</a>
<a style="color:inherit;" xlink:href="textedit:///Users/tomsegarra/Documents/dev/dummies/lilypond_files/dcb4d2f50714c01239b10d0d80975f56.ly:25:37:38">
<g transform="translate(38.6608, 4.4642)">
<path transform="scale(0.0034, -0.0034)" d="M215 137c67 0 111 -37 111 -92c0 -90 -111 -182 -215 -182c-67 0 -111 37 -111 92c0 90 111 182 215 182z" fill="currentColor"/>
</g>
</a>
<a style="color:inherit;" xlink:href="textedit:///Users/tomsegarra/Documents/dev/dummies/lilypond_files/dcb4d2f50714c01239b10d0d80975f56.ly:31:48:49">
<g transform="translate(37.6951, 14.2142)">
<text font-family="serif" font-size="2.0989" text-anchor="start" fill="currentColor">
<tspan>and</tspan>
</text>
</g>
</a>
<g transform="translate(38.7225, 8.7142)">
<rect x="-0.0617" y="-4.0975" width="0.1233" height="4.0975" ry="0.0400" fill="currentColor"/>
</g>
<g transform="translate(54.0788, 9.4076)">
<polygon stroke-linejoin="round" stroke-linecap="round" stroke-width="0.0800" fill="currentColor" stroke="currentColor" points="12.0793 -0.1640 12.0793 0.1640 0.0400 0.1640 0.0400 -0.1640"/>
</g>
<g transform="translate(44.0101, 8.7142)">
<polygon stroke-linejoin="round" stroke-linecap="round" stroke-width="0.0800" fill="currentColor" stroke="currentColor" points="6.7555 -0.0074 6.7555 0.3206 0.0400 0.1640 0.0400 -0.1640"/>
</g>
</svg>
