<?xml version="1.0" encoding="UTF-8" standalone="no"?>
<svg
   version="1.2"
   width="66.599159mm"
   height="17.06967mm"
   viewBox="0 0 37.898136 9.7135846"
   id="svg230"
   sodipodi:docname="e730d5350345d9831a6f888486dbc0b8.svg"
   xmlns:inkscape="http://www.inkscape.org/namespaces/inkscape"
   xmlns:sodipodi="http://sodipodi.sourceforge.net/DTD/sodipodi-0.dtd"
   xmlns:xlink="http://www.w3.org/1999/xlink"
   xmlns="http://www.w3.org/2000/svg"
   xmlns:svg="http://www.w3.org/2000/svg">
  <defs
     id="defs234" />
  <sodipodi:namedview
     id="namedview232"
     pagecolor="#ffffff"
     bordercolor="#000000"
     borderopacity="0.25"
     inkscape:showpageshadow="2"
     inkscape:pageopacity="0.0"
     inkscape:pagecheckerboard="0"
     inkscape:deskcolor="#d1d1d1"
     inkscape:document-units="mm" />
  <style
     type="text/css"
     id="style2"><![CDATA[
tspan { white-space: pre; }
]]></style>
  <!-- Page: 1/1 -->
  <g
     transform="translate(37.71809,3.7605996)"
     id="g6">
    <rect
       x="0"
       y="-1.7"
       width="0.1802"
       height="3.4000001"
       ry="0.0000"
       fill="currentColor"
       id="rect4" />
  </g>
  <g
     transform="translate(-2.1048303e-4,5.4605996)"
     id="g10">
    <line
       stroke-linejoin="round"
       stroke-linecap="round"
       stroke-width="0.0949"
       stroke="currentColor"
       x1="0.047400001"
       y1="0"
       x2="37.851101"
       y2="0"
       id="line8" />
  </g>
  <g
     transform="translate(-2.1048303e-4,4.6105996)"
     id="g14">
    <line
       stroke-linejoin="round"
       stroke-linecap="round"
       stroke-width="0.0949"
       stroke="currentColor"
       x1="0.047400001"
       y1="0"
       x2="37.851101"
       y2="0"
       id="line12" />
  </g>
  <g
     transform="translate(-2.1048303e-4,3.7605996)"
     id="g18">
    <line
       stroke-linejoin="round"
       stroke-linecap="round"
       stroke-width="0.0949"
       stroke="currentColor"
       x1="0.047400001"
       y1="0"
       x2="37.851101"
       y2="0"
       id="line16" />
  </g>
  <g
     transform="translate(-2.1048303e-4,2.9105996)"
     id="g22">
    <line
       stroke-linejoin="round"
       stroke-linecap="round"
       stroke-width="0.0949"
       stroke="currentColor"
       x1="0.047400001"
       y1="0"
       x2="37.851101"
       y2="0"
       id="line20" />
  </g>
  <g
     transform="translate(-2.1048303e-4,2.0605996)"
     id="g26">
    <line
       stroke-linejoin="round"
       stroke-linecap="round"
       stroke-width="0.0949"
       stroke="currentColor"
       x1="0.047400001"
       y1="0"
       x2="37.851101"
       y2="0"
       id="line24" />
  </g>
  <g
     color="#000000"
     id="g34"
     transform="translate(-2.2764105,-3.2762004)">
    <a
       style="color:inherit"
       xlink:href="textedit:///Users/tomsegarra/Documents/dev/dummies/lilypond_files/e730d5350345d9831a6f888486dbc0b8.ly:26:4:5"
       id="a32">
      <g
         transform="translate(13.0344,6.1868)"
         id="g30">
        <path
           transform="scale(0.0034,-0.0034)"
           d="m 215,137 c 67,0 111,-37 111,-92 0,-90 -111,-182 -215,-182 -67,0 -111,37 -111,92 0,90 111,182 215,182 z"
           fill="currentColor"
           id="path28" />
      </g>
    </a>
  </g>
  <g
     transform="translate(0.79978952,4.6105996)"
     id="g38">
    <path
       transform="scale(0.0034,-0.0034)"
       d="m 646,2 c 0,-113 -74,-213 -180,-247 3,-34 5,-68 5,-102 0,-20 -1,-40 -2,-60 -7,-121 -91,-228 -209,-228 -108,0 -196,87 -196,196 0,58 53,104 112,104 54,0 95,-48 95,-104 0,-52 -43,-95 -95,-95 -10,0 -20,2 -29,6 26,-38 68,-63 116,-63 h 3 c 93,2 153,92 159,190 1,19 2,37 2,56 0,30 -2,60 -4,90 -5,-1 -43,-8 -88,-8 -194,0 -333,180 -333,375 0,177 130,307 246,442 -31,98 -53,170 -53,347 0,115 55,223 148,290 7,5 16,4 22,-1 68,-80 134,-243 134,-357 0,-143 -85,-255 -178,-364 21,-68 40,-137 57,-206 1,0 5,1 11,1 C 545,264 646,135 646,2 Z M 462,-202 c 66,24 111,88 111,162 0,89 -65,178 -170,190 28,-135 50,-272 59,-352 z M 75,26 c 0,-145 141,-245 263,-245 1,0 46,0 81,6 -7,65 -27,206 -61,363 -79,-8 -124,-61 -124,-119 0,-43 25,-89 80,-121 5,-5 7,-11 7,-16 0,-12 -10,-23 -22,-23 -16,0 -127,63 -127,188 0,89 58,175 161,198 -14,58 -29,116 -46,173 C 181,308 75,186 75,26 Z M 406,1042 C 307,995 244,894 244,785 c 0,-49 13,-111 38,-191 79,97 144,199 144,324 0,33 0,63 -20,124 z"
       fill="currentColor"
       id="path36" />
  </g>
  <a
     style="color:inherit"
     xlink:href="textedit:///Users/tomsegarra/Documents/dev/dummies/lilypond_files/e730d5350345d9831a6f888486dbc0b8.ly:23:1:9"
     id="a48"
     transform="translate(-2.2764105,-3.2762004)">
    <g
       transform="translate(6.5762,5.3368)"
       id="g42">
      <path
         transform="scale(0.0034,-0.0034)"
         d="m 217,-311 c 0,-11 -8,-19 -19,-19 -11,0 -20,8 -20,19 v 142 l -81,-30 v -156 c 0,-11 -9,-20 -20,-20 -11,0 -19,9 -19,20 v 142 l -28,-11 c -3,-1 -5,-1 -8,-1 -12,0 -22,10 -22,23 v 57 c 0,9 6,18 15,21 l 43,16 V 49 L 30,39 C 27,38 25,38 22,38 10,38 0,47 0,60 v 57 c 0,9 6,18 15,21 l 43,16 v 157 c 0,11 8,19 19,19 11,0 20,-8 20,-19 V 169 l 81,30 v 156 c 0,11 9,20 20,20 11,0 19,-9 19,-20 V 213 l 28,11 c 3,1 5,1 8,1 12,0 22,-10 22,-23 v -57 c 0,-9 -6,-18 -15,-21 L 217,108 V -49 l 28,10 c 3,1 5,1 8,1 12,0 22,-9 22,-22 v -57 c 0,-9 -6,-18 -15,-21 l -43,-16 z M 97,64 V -94 l 81,30 V 94 Z"
         fill="currentColor"
         id="path40" />
    </g>
    <g
       transform="translate(7.5112,6.6118)"
       id="g46">
      <path
         transform="scale(0.0034,-0.0034)"
         d="m 217,-311 c 0,-11 -8,-19 -19,-19 -11,0 -20,8 -20,19 v 142 l -81,-30 v -156 c 0,-11 -9,-20 -20,-20 -11,0 -19,9 -19,20 v 142 l -28,-11 c -3,-1 -5,-1 -8,-1 -12,0 -22,10 -22,23 v 57 c 0,9 6,18 15,21 l 43,16 V 49 L 30,39 C 27,38 25,38 22,38 10,38 0,47 0,60 v 57 c 0,9 6,18 15,21 l 43,16 v 157 c 0,11 8,19 19,19 11,0 20,-8 20,-19 V 169 l 81,30 v 156 c 0,11 9,20 20,20 11,0 19,-9 19,-20 V 213 l 28,11 c 3,1 5,1 8,1 12,0 22,-10 22,-23 v -57 c 0,-9 -6,-18 -15,-21 L 217,108 V -49 l 28,10 c 3,1 5,1 8,1 12,0 22,-9 22,-22 v -57 c 0,-9 -6,-18 -15,-21 l -43,-16 z M 97,64 V -94 l 81,30 V 94 Z"
         fill="currentColor"
         id="path44" />
    </g>
  </a>
  <g
     transform="translate(7.3197895,3.7605996)"
     id="g52">
    <path
       transform="scale(0.0034,-0.0034)"
       d="m 358,29 c -30,0 -74,23 -74,73 0,38 27,76 71,76 4,0 7,0 11,-1 -27,36 -69,59 -116,59 -106,0 -113,-74 -113,-188 0,-15 1,-31 1,-48 0,-17 -1,-33 -1,-48 0,-114 7,-188 113,-188 79,0 136,70 155,150 2,7 7,10 13,10 7,0 14,-5 14,-13 0,-21 -50,-175 -182,-175 C 191,-264 0,-244 0,0 0,63 18,264 250,264 365,264 424,155 424,99 424,60 394,29 358,29 Z"
       fill="currentColor"
       id="path50" />
  </g>
  <a
     style="color:inherit"
     xlink:href="textedit:///Users/tomsegarra/Documents/dev/dummies/lilypond_files/e730d5350345d9831a6f888486dbc0b8.ly:31:15:16"
     id="a60"
     transform="translate(-2.2764105,-3.2762004)">
    <g
       transform="translate(12.5979,12.5368)"
       id="g58">
      <text
         font-family="serif"
         font-size="2.0989px"
         text-anchor="start"
         fill="currentColor"
         id="text56"><tspan
           id="tspan54">ga</tspan></text>
    </g>
  </a>
  <g
     color="#000000"
     id="g66"
     transform="translate(-2.2764105,-3.2762004)">
    <g
       transform="translate(14.0801,7.0368)"
       id="g64">
      <rect
         x="-0.061700001"
         y="-3.5504999"
         width="0.1233"
         height="2.5480001"
         ry="0.039999999"
         fill="currentColor"
         id="rect62" />
    </g>
  </g>
  <g
     color="#ff0000"
     id="g74"
     transform="translate(-2.2764105,-3.2762004)">
    <a
       style="color:inherit"
       xlink:href="textedit:///Users/tomsegarra/Documents/dev/dummies/lilypond_files/e730d5350345d9831a6f888486dbc0b8.ly:29:8:9"
       id="a72">
      <g
         transform="translate(37.5571,7.0368)"
         id="g70">
        <path
           transform="scale(0.0034,-0.0034)"
           d="m 215,137 c 67,0 111,-37 111,-92 0,-90 -111,-182 -215,-182 -67,0 -111,37 -111,92 0,90 111,182 215,182 z"
           fill="currentColor"
           id="path68" />
      </g>
    </a>
  </g>
  <a
     style="color:inherit"
     xlink:href="textedit:///Users/tomsegarra/Documents/dev/dummies/lilypond_files/e730d5350345d9831a6f888486dbc0b8.ly:31:52:53"
     id="a82"
     transform="translate(-2.2764105,-3.2762004)">
    <g
       transform="translate(37.0182,12.5368)"
       id="g80">
      <text
         font-family="serif"
         font-size="2.0989px"
         text-anchor="start"
         fill="currentColor"
         id="text78"><tspan
           id="tspan76">tar</tspan></text>
    </g>
  </a>
  <g
     color="#ff0000"
     id="g88"
     transform="translate(-2.2764105,-3.2762004)">
    <g
       transform="translate(38.6028,7.0368)"
       id="g86">
      <rect
         x="-0.061700001"
         y="-2.549"
         width="0.1233"
         height="2.3965001"
         ry="0.039999999"
         fill="currentColor"
         id="rect84" />
    </g>
  </g>
  <g
     transform="translate(11.74209,0.20399958)"
     id="g92">
    <polygon
       stroke-linejoin="round"
       stroke-linecap="round"
       stroke-width="0.08"
       fill="currentColor"
       stroke="currentColor"
       points="0.04,0.164 0.04,-0.164 11.7531,0.9991 11.7531,1.3271 "
       id="polygon90" />
  </g>
  <g
     color="#000000"
     id="g100"
     transform="translate(-2.2764105,-3.2762004)">
    <a
       style="color:inherit"
       xlink:href="textedit:///Users/tomsegarra/Documents/dev/dummies/lilypond_files/e730d5350345d9831a6f888486dbc0b8.ly:26:9:10"
       id="a98">
      <g
         transform="translate(15.7464,6.1868)"
         id="g96">
        <path
           transform="scale(0.0034,-0.0034)"
           d="m 215,137 c 67,0 111,-37 111,-92 0,-90 -111,-182 -215,-182 -67,0 -111,37 -111,92 0,90 111,182 215,182 z"
           fill="currentColor"
           id="path94" />
      </g>
    </a>
  </g>
  <a
     style="color:inherit"
     xlink:href="textedit:///Users/tomsegarra/Documents/dev/dummies/lilypond_files/e730d5350345d9831a6f888486dbc0b8.ly:31:21:22"
     id="a108"
     transform="translate(-2.2764105,-3.2762004)">
    <g
       transform="translate(14.6782,12.5368)"
       id="g106">
      <text
         font-family="serif"
         font-size="2.0989px"
         text-anchor="start"
         fill="currentColor"
         id="text104"><tspan
           id="tspan102">ther</tspan></text>
    </g>
  </a>
  <g
     color="#000000"
     id="g114"
     transform="translate(-2.2764105,-3.2762004)">
    <g
       transform="translate(16.7921,7.0368)"
       id="g112">
      <rect
         x="-0.061700001"
         y="-3.283"
         width="0.1233"
         height="2.2806001"
         ry="0.039999999"
         fill="currentColor"
         id="rect110" />
    </g>
  </g>
  <g
     color="#000000"
     id="g122"
     transform="translate(-2.2764105,-3.2762004)">
    <a
       style="color:inherit"
       xlink:href="textedit:///Users/tomsegarra/Documents/dev/dummies/lilypond_files/e730d5350345d9831a6f888486dbc0b8.ly:26:11:12"
       id="a120">
      <g
         transform="translate(20.2765,7.0368)"
         id="g118">
        <path
           transform="scale(0.0034,-0.0034)"
           d="m 215,137 c 67,0 111,-37 111,-92 0,-90 -111,-182 -215,-182 -67,0 -111,37 -111,92 0,90 111,182 215,182 z"
           fill="currentColor"
           id="path116" />
      </g>
    </a>
  </g>
  <a
     style="color:inherit"
     xlink:href="textedit:///Users/tomsegarra/Documents/dev/dummies/lilypond_files/e730d5350345d9831a6f888486dbc0b8.ly:31:26:27"
     id="a130"
     transform="translate(-2.2764105,-3.2762004)">
    <g
       transform="translate(18.3719,12.5368)"
       id="g128">
      <text
         font-family="serif"
         font-size="2.0989px"
         text-anchor="start"
         fill="currentColor"
         id="text126"><tspan
           id="tspan124">round</tspan></text>
    </g>
  </a>
  <g
     color="#000000"
     id="g136"
     transform="translate(-2.2764105,-3.2762004)">
    <g
       transform="translate(21.3222,7.0368)"
       id="g134">
      <rect
         x="-0.061700001"
         y="-2.8362"
         width="0.1233"
         height="2.6838"
         ry="0.039999999"
         fill="currentColor"
         id="rect132" />
    </g>
  </g>
  <g
     color="#000000"
     id="g144"
     transform="translate(-2.2764105,-3.2762004)">
    <a
       style="color:inherit"
       xlink:href="textedit:///Users/tomsegarra/Documents/dev/dummies/lilypond_files/e730d5350345d9831a6f888486dbc0b8.ly:26:13:14"
       id="a142">
      <g
         transform="translate(24.7042,8.3118)"
         id="g140">
        <path
           transform="scale(0.0034,-0.0034)"
           d="m 215,137 c 67,0 111,-37 111,-92 0,-90 -111,-182 -215,-182 -67,0 -111,37 -111,92 0,90 111,182 215,182 z"
           fill="currentColor"
           id="path138" />
      </g>
    </a>
  </g>
  <a
     style="color:inherit"
     xlink:href="textedit:///Users/tomsegarra/Documents/dev/dummies/lilypond_files/e730d5350345d9831a6f888486dbc0b8.ly:31:32:33"
     id="a152"
     transform="translate(-2.2764105,-3.2762004)">
    <g
       transform="translate(23.7385,12.5368)"
       id="g150">
      <text
         font-family="serif"
         font-size="2.0989px"
         text-anchor="start"
         fill="currentColor"
         id="text148"><tspan
           id="tspan146">and</tspan></text>
    </g>
  </a>
  <g
     color="#000000"
     id="g158"
     transform="translate(-2.2764105,-3.2762004)">
    <g
       transform="translate(25.7499,7.0368)"
       id="g156">
      <rect
         x="-0.061700001"
         y="-2.3994999"
         width="0.1233"
         height="3.5221"
         ry="0.039999999"
         fill="currentColor"
         id="rect154" />
    </g>
  </g>
  <g
     color="#000000"
     id="g166"
     transform="translate(-2.2764105,-3.2762004)">
    <a
       style="color:inherit"
       xlink:href="textedit:///Users/tomsegarra/Documents/dev/dummies/lilypond_files/e730d5350345d9831a6f888486dbc0b8.ly:26:15:16"
       id="a164">
      <g
         transform="translate(28.4319,7.4618)"
         id="g162">
        <path
           transform="scale(0.0034,-0.0034)"
           d="m 215,137 c 67,0 111,-37 111,-92 0,-90 -111,-182 -215,-182 -67,0 -111,37 -111,92 0,90 111,182 215,182 z"
           fill="currentColor"
           id="path160" />
      </g>
    </a>
  </g>
  <a
     style="color:inherit"
     xlink:href="textedit:///Users/tomsegarra/Documents/dev/dummies/lilypond_files/e730d5350345d9831a6f888486dbc0b8.ly:31:36:37"
     id="a174"
     transform="translate(-2.2764105,-3.2762004)">
    <g
       transform="translate(27.2272,12.5368)"
       id="g172">
      <text
         font-family="serif"
         font-size="2.0989px"
         text-anchor="start"
         fill="currentColor"
         id="text170"><tspan
           id="tspan168">sing</tspan></text>
    </g>
  </a>
  <g
     color="#000000"
     id="g180"
     transform="translate(-2.2764105,-3.2762004)">
    <g
       transform="translate(29.4777,7.0368)"
       id="g178">
      <rect
         x="-0.061700001"
         y="-2.3945"
         width="0.1233"
         height="2.6670001"
         ry="0.039999999"
         fill="currentColor"
         id="rect176" />
    </g>
  </g>
  <g
     transform="translate(27.13959,1.3671996)"
     id="g184">
    <polygon
       stroke-linejoin="round"
       stroke-linecap="round"
       stroke-width="0.08"
       fill="currentColor"
       stroke="currentColor"
       points="0.04,0.164 0.04,-0.164 9.2085,-0.3206 9.2085,0.0074 "
       id="polygon182" />
  </g>
  <g
     color="#ff0000"
     id="g192"
     transform="translate(-2.2764105,-3.2762004)">
    <a
       style="color:inherit"
       xlink:href="textedit:///Users/tomsegarra/Documents/dev/dummies/lilypond_files/e730d5350345d9831a6f888486dbc0b8.ly:29:4:5"
       id="a190">
      <g
         transform="translate(31.9207,7.4618)"
         id="g188">
        <path
           transform="scale(0.0034,-0.0034)"
           d="m 215,137 c 67,0 111,-37 111,-92 0,-90 -111,-182 -215,-182 -67,0 -111,37 -111,92 0,90 111,182 215,182 z"
           fill="currentColor"
           id="path186" />
      </g>
    </a>
  </g>
  <a
     style="color:inherit"
     xlink:href="textedit:///Users/tomsegarra/Documents/dev/dummies/lilypond_files/e730d5350345d9831a6f888486dbc0b8.ly:31:41:42"
     id="a200"
     transform="translate(-2.2764105,-3.2762004)">
    <g
       transform="translate(31.194,12.5368)"
       id="g198">
      <text
         font-family="serif"
         font-size="2.0989px"
         text-anchor="start"
         fill="currentColor"
         id="text196"><tspan
           id="tspan194">the</tspan></text>
    </g>
  </a>
  <g
     color="#ff0000"
     id="g206"
     transform="translate(-2.2764105,-3.2762004)">
    <g
       transform="translate(32.9664,7.0368)"
       id="g204">
      <rect
         x="-0.061700001"
         y="-2.4535"
         width="0.1233"
         height="2.7261"
         ry="0.039999999"
         fill="currentColor"
         id="rect202" />
    </g>
  </g>
  <g
     color="#ff0000"
     id="g214"
     transform="translate(-2.2764105,-3.2762004)">
    <a
       style="color:inherit"
       xlink:href="textedit:///Users/tomsegarra/Documents/dev/dummies/lilypond_files/e730d5350345d9831a6f888486dbc0b8.ly:29:6:7"
       id="a212">
      <g
         transform="translate(34.9997,8.3118)"
         id="g210">
        <path
           transform="scale(0.0034,-0.0034)"
           d="m 215,137 c 67,0 111,-37 111,-92 0,-90 -111,-182 -215,-182 -67,0 -111,37 -111,92 0,90 111,182 215,182 z"
           fill="currentColor"
           id="path208" />
      </g>
    </a>
  </g>
  <a
     style="color:inherit"
     xlink:href="textedit:///Users/tomsegarra/Documents/dev/dummies/lilypond_files/e730d5350345d9831a6f888486dbc0b8.ly:31:45:46"
     id="a222"
     transform="translate(-2.2764105,-3.2762004)">
    <g
       transform="translate(34.2048,12.5368)"
       id="g220">
      <text
         font-family="serif"
         font-size="2.0989px"
         text-anchor="start"
         fill="currentColor"
         id="text218"><tspan
           id="tspan216">gui</tspan></text>
    </g>
  </a>
  <g
     color="#ff0000"
     id="g228"
     transform="translate(-2.2764105,-3.2762004)">
    <g
       transform="translate(36.0455,7.0368)"
       id="g226">
      <rect
         x="-0.061700001"
         y="-2.5057001"
         width="0.1233"
         height="3.6282001"
         ry="0.039999999"
         fill="currentColor"
         id="rect224" />
    </g>
  </g>
</svg>
