<?xml version="1.0" encoding="UTF-8" standalone="no"?>
<svg
   version="1.2"
   width="52.179733mm"
   height="16.103115mm"
   viewBox="0 0 29.692939 9.1635617"
   id="svg198"
   sodipodi:docname="f5206adc97560a4a71e87daab03949f5.svg"
   xmlns:inkscape="http://www.inkscape.org/namespaces/inkscape"
   xmlns:sodipodi="http://sodipodi.sourceforge.net/DTD/sodipodi-0.dtd"
   xmlns:xlink="http://www.w3.org/1999/xlink"
   xmlns="http://www.w3.org/2000/svg"
   xmlns:svg="http://www.w3.org/2000/svg">
  <defs
     id="defs202" />
  <sodipodi:namedview
     id="namedview200"
     pagecolor="#ffffff"
     bordercolor="#000000"
     borderopacity="0.25"
     inkscape:showpageshadow="2"
     inkscape:pageopacity="0.0"
     inkscape:pagecheckerboard="0"
     inkscape:deskcolor="#d1d1d1"
     inkscape:document-units="mm" />
  <style
     type="text/css"
     id="style2"><![CDATA[
tspan { white-space: pre; }
]]></style>
  <!-- Page: 1/1 -->
  <g
     transform="translate(-7.1783289e-5,4.9105767)"
     id="g6">
    <line
       stroke-linejoin="round"
       stroke-linecap="round"
       stroke-width="0.0949"
       stroke="currentColor"
       x1="0.047400001"
       y1="0"
       x2="29.645599"
       y2="0"
       id="line4" />
  </g>
  <g
     transform="translate(-7.1783289e-5,4.0605767)"
     id="g10">
    <line
       stroke-linejoin="round"
       stroke-linecap="round"
       stroke-width="0.0949"
       stroke="currentColor"
       x1="0.047400001"
       y1="0"
       x2="29.645599"
       y2="0"
       id="line8" />
  </g>
  <g
     transform="translate(-7.1783289e-5,3.2105767)"
     id="g14">
    <line
       stroke-linejoin="round"
       stroke-linecap="round"
       stroke-width="0.0949"
       stroke="currentColor"
       x1="0.047400001"
       y1="0"
       x2="29.645599"
       y2="0"
       id="line12" />
  </g>
  <g
     transform="translate(-7.1783289e-5,2.3605767)"
     id="g18">
    <line
       stroke-linejoin="round"
       stroke-linecap="round"
       stroke-width="0.0949"
       stroke="currentColor"
       x1="0.047400001"
       y1="0"
       x2="29.645599"
       y2="0"
       id="line16" />
  </g>
  <g
     transform="translate(-7.1783289e-5,1.5105767)"
     id="g22">
    <line
       stroke-linejoin="round"
       stroke-linecap="round"
       stroke-width="0.0949"
       stroke="currentColor"
       x1="0.047400001"
       y1="0"
       x2="29.645599"
       y2="0"
       id="line20" />
  </g>
  <g
     transform="translate(29.512828,3.2105767)"
     id="g26">
    <rect
       x="0"
       y="-1.7"
       width="0.1802"
       height="3.4000001"
       ry="0.0000"
       fill="currentColor"
       id="rect24" />
  </g>
  <a
     style="color:inherit"
     xlink:href="textedit:///Users/tomsegarra/Documents/dev/dummies/lilypond_files/f5206adc97560a4a71e87daab03949f5.ly:21:4:5"
     id="a32"
     transform="translate(-2.2762718,-3.2761233)">
    <g
       transform="translate(10.7144,6.4867)"
       id="g30">
      <path
         transform="scale(0.0034,-0.0034)"
         d="m 70,205 c 80,0 46,-97 90,-97 15,0 52,45 59,59 6,13 26,13 31,0 L 129,-250 c -9,-7 -19,-11 -30,-11 -11,0 -21,4 -30,11 L 187,76 C 154,64 119,54 84,54 37,54 -3,88 -3,133 c 0,40 33,72 73,72 z"
         fill="currentColor"
         id="path28" />
    </g>
  </a>
  <g
     transform="translate(0.79992822,4.0605767)"
     id="g36">
    <path
       transform="scale(0.0034,-0.0034)"
       d="m 646,2 c 0,-113 -74,-213 -180,-247 3,-34 5,-68 5,-102 0,-20 -1,-40 -2,-60 -7,-121 -91,-228 -209,-228 -108,0 -196,87 -196,196 0,58 53,104 112,104 54,0 95,-48 95,-104 0,-52 -43,-95 -95,-95 -10,0 -20,2 -29,6 26,-38 68,-63 116,-63 h 3 c 93,2 153,92 159,190 1,19 2,37 2,56 0,30 -2,60 -4,90 -5,-1 -43,-8 -88,-8 -194,0 -333,180 -333,375 0,177 130,307 246,442 -31,98 -53,170 -53,347 0,115 55,223 148,290 7,5 16,4 22,-1 68,-80 134,-243 134,-357 0,-143 -85,-255 -178,-364 21,-68 40,-137 57,-206 1,0 5,1 11,1 C 545,264 646,135 646,2 Z M 462,-202 c 66,24 111,88 111,162 0,89 -65,178 -170,190 28,-135 50,-272 59,-352 z M 75,26 c 0,-145 141,-245 263,-245 1,0 46,0 81,6 -7,65 -27,206 -61,363 -79,-8 -124,-61 -124,-119 0,-43 25,-89 80,-121 5,-5 7,-11 7,-16 0,-12 -10,-23 -22,-23 -16,0 -127,63 -127,188 0,89 58,175 161,198 -14,58 -29,116 -46,173 C 181,308 75,186 75,26 Z M 406,1042 C 307,995 244,894 244,785 c 0,-49 13,-111 38,-191 79,97 144,199 144,324 0,33 0,63 -20,124 z"
       fill="currentColor"
       id="path34" />
  </g>
  <a
     style="color:inherit"
     xlink:href="textedit:///Users/tomsegarra/Documents/dev/dummies/lilypond_files/f5206adc97560a4a71e87daab03949f5.ly:20:1:9"
     id="a38"
     transform="translate(-2.2762718,-3.2761233)" />
  <g
     transform="translate(4.9999282,3.2105767)"
     id="g42">
    <path
       transform="scale(0.0034,-0.0034)"
       d="m 358,29 c -30,0 -74,23 -74,73 0,38 27,76 71,76 4,0 7,0 11,-1 -27,36 -69,59 -116,59 -106,0 -113,-74 -113,-188 0,-15 1,-31 1,-48 0,-17 -1,-33 -1,-48 0,-114 7,-188 113,-188 79,0 136,70 155,150 2,7 7,10 13,10 7,0 14,-5 14,-13 0,-21 -50,-175 -182,-175 C 191,-264 0,-244 0,0 0,63 18,264 250,264 365,264 424,155 424,99 424,60 394,29 358,29 Z"
       fill="currentColor"
       id="path40" />
  </g>
  <g
     color="#ff0000"
     id="g50"
     transform="translate(-2.2762718,-3.2761233)">
    <a
       style="color:inherit"
       xlink:href="textedit:///Users/tomsegarra/Documents/dev/dummies/lilypond_files/f5206adc97560a4a71e87daab03949f5.ly:21:81:82"
       id="a48">
      <g
         transform="translate(29.6474,6.0617)"
         id="g46">
        <path
           transform="scale(0.0034,-0.0034)"
           d="m 215,137 c 67,0 111,-37 111,-92 0,-90 -111,-182 -215,-182 -67,0 -111,37 -111,92 0,90 111,182 215,182 z"
           fill="currentColor"
           id="path44" />
      </g>
    </a>
  </g>
  <a
     style="color:inherit"
     xlink:href="textedit:///Users/tomsegarra/Documents/dev/dummies/lilypond_files/f5206adc97560a4a71e87daab03949f5.ly:24:30:31"
     id="a58"
     transform="translate(-2.2762718,-3.2761233)">
    <g
       transform="translate(28.8525,11.9867)"
       id="g56">
      <text
         font-family="serif"
         font-size="2.0989px"
         text-anchor="start"
         fill="currentColor"
         id="text54"><tspan
           id="tspan52">ing</tspan></text>
    </g>
  </a>
  <g
     color="#ff0000"
     id="g64"
     transform="translate(-2.2762718,-3.2761233)">
    <g
       transform="translate(29.7091,6.4867)"
       id="g62">
      <rect
         x="-0.061700001"
         y="-0.27250001"
         width="0.1233"
         height="2.1231999"
         ry="0.039999999"
         fill="currentColor"
         id="rect60" />
    </g>
  </g>
  <g
     transform="translate(10.488128,4.7539767)"
     id="g68">
    <polygon
       stroke-linejoin="round"
       stroke-linecap="round"
       stroke-width="0.08"
       fill="currentColor"
       stroke="currentColor"
       points="0.04,0.164 0.04,-0.164 4.8124,-0.164 4.8124,0.164 "
       id="polygon66" />
  </g>
  <a
     style="color:inherit"
     xlink:href="textedit:///Users/tomsegarra/Documents/dev/dummies/lilypond_files/f5206adc97560a4a71e87daab03949f5.ly:21:7:8"
     id="a74"
     transform="translate(-2.2762718,-3.2761233)">
    <g
       transform="translate(12.7644,5.2117)"
       id="g72">
      <path
         transform="scale(0.0034,-0.0034)"
         d="m 215,137 c 67,0 111,-37 111,-92 0,-90 -111,-182 -215,-182 -67,0 -111,37 -111,92 0,90 111,182 215,182 z"
         fill="currentColor"
         id="path70" />
    </g>
  </a>
  <a
     style="color:inherit"
     xlink:href="textedit:///Users/tomsegarra/Documents/dev/dummies/lilypond_files/f5206adc97560a4a71e87daab03949f5.ly:24:4:5"
     id="a82"
     transform="translate(-2.2762718,-3.2761233)">
    <g
       transform="translate(12.9766,11.9867)"
       id="g80">
      <text
         font-family="serif"
         font-size="2.0989px"
         text-anchor="start"
         fill="currentColor"
         id="text78"><tspan
           id="tspan76">I</tspan></text>
    </g>
  </a>
  <g
     transform="translate(10.549728,3.2105767)"
     id="g86">
    <rect
       x="-0.061700001"
       y="-1.1224999"
       width="0.1233"
       height="2.6659999"
       ry="0.039999999"
       fill="currentColor"
       id="rect84" />
  </g>
  <a
     style="color:inherit"
     xlink:href="textedit:///Users/tomsegarra/Documents/dev/dummies/lilypond_files/f5206adc97560a4a71e87daab03949f5.ly:21:11:12"
     id="a92"
     transform="translate(-2.2762718,-3.2761233)">
    <g
       transform="translate(15.0718,5.2117)"
       id="g90">
      <path
         transform="scale(0.0034,-0.0034)"
         d="m 215,137 c 67,0 111,-37 111,-92 0,-90 -111,-182 -215,-182 -67,0 -111,37 -111,92 0,90 111,182 215,182 z"
         fill="currentColor"
         id="path88" />
    </g>
  </a>
  <a
     style="color:inherit"
     xlink:href="textedit:///Users/tomsegarra/Documents/dev/dummies/lilypond_files/f5206adc97560a4a71e87daab03949f5.ly:24:6:7"
     id="a100"
     transform="translate(-2.2762718,-3.2761233)">
    <g
       transform="translate(14.6353,11.9867)"
       id="g98">
      <text
         font-family="serif"
         font-size="2.0989px"
         text-anchor="start"
         fill="currentColor"
         id="text96"><tspan
           id="tspan94">ne</tspan></text>
    </g>
  </a>
  <g
     transform="translate(12.857128,3.2105767)"
     id="g104">
    <rect
       x="-0.061700001"
       y="-1.1224999"
       width="0.1233"
       height="2.6659999"
       ry="0.039999999"
       fill="currentColor"
       id="rect102" />
  </g>
  <g
     color="#ff0000"
     id="g112"
     transform="translate(-2.2762718,-3.2761233)">
    <a
       style="color:inherit"
       xlink:href="textedit:///Users/tomsegarra/Documents/dev/dummies/lilypond_files/f5206adc97560a4a71e87daab03949f5.ly:21:71:72"
       id="a110">
      <g
         transform="translate(17.4935,5.2117)"
         id="g108">
        <path
           transform="scale(0.0034,-0.0034)"
           d="m 215,137 c 67,0 111,-37 111,-92 0,-90 -111,-182 -215,-182 -67,0 -111,37 -111,92 0,90 111,182 215,182 z"
           fill="currentColor"
           id="path106" />
      </g>
    </a>
  </g>
  <a
     style="color:inherit"
     xlink:href="textedit:///Users/tomsegarra/Documents/dev/dummies/lilypond_files/f5206adc97560a4a71e87daab03949f5.ly:24:12:13"
     id="a120"
     transform="translate(-2.2762718,-3.2761233)">
    <g
       transform="translate(16.7156,11.9867)"
       id="g118">
      <text
         font-family="serif"
         font-size="2.0989px"
         text-anchor="start"
         fill="currentColor"
         id="text116"><tspan
           id="tspan114">ver</tspan></text>
    </g>
  </a>
  <g
     color="#ff0000"
     id="g126"
     transform="translate(-2.2762718,-3.2761233)">
    <g
       transform="translate(17.5552,6.4867)"
       id="g124">
      <rect
         x="-0.061700001"
         y="-1.1224999"
         width="0.1233"
         height="2.6659999"
         ry="0.039999999"
         fill="currentColor"
         id="rect122" />
    </g>
  </g>
  <g
     transform="translate(18.620628,4.2170767)"
     id="g130">
    <polygon
       stroke-linejoin="round"
       stroke-linecap="round"
       stroke-width="0.08"
       fill="currentColor"
       stroke="currentColor"
       points="0.04,0.164 0.04,-0.164 8.8338,0.686 8.8338,1.014 "
       id="polygon128" />
  </g>
  <g
     color="#ff0000"
     id="g138"
     transform="translate(-2.2762718,-3.2761233)">
    <a
       style="color:inherit"
       xlink:href="textedit:///Users/tomsegarra/Documents/dev/dummies/lilypond_files/f5206adc97560a4a71e87daab03949f5.ly:21:73:74"
       id="a136">
      <g
         transform="translate(20.8969,4.7867)"
         id="g134">
        <path
           transform="scale(0.0034,-0.0034)"
           d="m 215,137 c 67,0 111,-37 111,-92 0,-90 -111,-182 -215,-182 -67,0 -111,37 -111,92 0,90 111,182 215,182 z"
           fill="currentColor"
           id="path132" />
      </g>
    </a>
  </g>
  <a
     style="color:inherit"
     xlink:href="textedit:///Users/tomsegarra/Documents/dev/dummies/lilypond_files/f5206adc97560a4a71e87daab03949f5.ly:24:16:17"
     id="a146"
     transform="translate(-2.2762718,-3.2761233)">
    <g
       transform="translate(19.8288,11.9867)"
       id="g144">
      <text
         font-family="serif"
         font-size="2.0989px"
         text-anchor="start"
         fill="currentColor"
         id="text142"><tspan
           id="tspan140">saw</tspan></text>
    </g>
  </a>
  <g
     color="#ff0000"
     id="g152"
     transform="translate(-2.2762718,-3.2761233)">
    <g
       transform="translate(20.9586,6.4867)"
       id="g150">
      <rect
         x="-0.061700001"
         y="-1.5475"
         width="0.1233"
         height="2.5599999"
         ry="0.039999999"
         fill="currentColor"
         id="rect148" />
    </g>
  </g>
  <g
     color="#ff0000"
     id="g160"
     transform="translate(-2.2762718,-3.2761233)">
    <a
       style="color:inherit"
       xlink:href="textedit:///Users/tomsegarra/Documents/dev/dummies/lilypond_files/f5206adc97560a4a71e87daab03949f5.ly:21:77:78"
       id="a158">
      <g
         transform="translate(23.5492,5.2117)"
         id="g156">
        <path
           transform="scale(0.0034,-0.0034)"
           d="m 215,137 c 67,0 111,-37 111,-92 0,-90 -111,-182 -215,-182 -67,0 -111,37 -111,92 0,90 111,182 215,182 z"
           fill="currentColor"
           id="path154" />
      </g>
    </a>
  </g>
  <a
     style="color:inherit"
     xlink:href="textedit:///Users/tomsegarra/Documents/dev/dummies/lilypond_files/f5206adc97560a4a71e87daab03949f5.ly:24:20:21"
     id="a168"
     transform="translate(-2.2762718,-3.2761233)">
    <g
       transform="translate(23.5224,11.9867)"
       id="g166">
      <text
         font-family="serif"
         font-size="2.0989px"
         text-anchor="start"
         fill="currentColor"
         id="text164"><tspan
           id="tspan162">it</tspan></text>
    </g>
  </a>
  <g
     color="#ff0000"
     id="g174"
     transform="translate(-2.2762718,-3.2761233)">
    <g
       transform="translate(23.6108,6.4867)"
       id="g172">
      <rect
         x="-0.061700001"
         y="-1.1224999"
         width="0.1233"
         height="2.3891001"
         ry="0.039999999"
         fill="currentColor"
         id="rect170" />
    </g>
  </g>
  <g
     color="#ff0000"
     id="g182"
     transform="translate(-2.2762718,-3.2761233)">
    <a
       style="color:inherit"
       xlink:href="textedit:///Users/tomsegarra/Documents/dev/dummies/lilypond_files/f5206adc97560a4a71e87daab03949f5.ly:21:79:80"
       id="a180">
      <g
         transform="translate(26.3892,5.6367)"
         id="g178">
        <path
           transform="scale(0.0034,-0.0034)"
           d="m 215,137 c 67,0 111,-37 111,-92 0,-90 -111,-182 -215,-182 -67,0 -111,37 -111,92 0,90 111,182 215,182 z"
           fill="currentColor"
           id="path176" />
      </g>
    </a>
  </g>
  <a
     style="color:inherit"
     xlink:href="textedit:///Users/tomsegarra/Documents/dev/dummies/lilypond_files/f5206adc97560a4a71e87daab03949f5.ly:24:23:24"
     id="a190"
     transform="translate(-2.2762718,-3.2761233)">
    <g
       transform="translate(25.1333,11.9867)"
       id="g188">
      <text
         font-family="serif"
         font-size="2.0989px"
         text-anchor="start"
         fill="currentColor"
         id="text186"><tspan
           id="tspan184">com</tspan></text>
    </g>
  </a>
  <g
     color="#ff0000"
     id="g196"
     transform="translate(-2.2762718,-3.2761233)">
    <g
       transform="translate(26.4508,6.4867)"
       id="g194">
      <rect
         x="-0.061700001"
         y="-0.69749999"
         width="0.1233"
         height="2.2361"
         ry="0.039999999"
         fill="currentColor"
         id="rect192" />
    </g>
  </g>
</svg>
