<?xml version="1.0" encoding="UTF-8" standalone="no"?>
<svg
   version="1.2"
   width="122.23037mm"
   height="13.53998mm"
   viewBox="0 0 69.558403 7.7049962"
   id="svg396"
   sodipodi:docname="fb3d0bc965ed209c671e1ec9ffdedecf.svg"
   xmlns:inkscape="http://www.inkscape.org/namespaces/inkscape"
   xmlns:sodipodi="http://sodipodi.sourceforge.net/DTD/sodipodi-0.dtd"
   xmlns:xlink="http://www.w3.org/1999/xlink"
   xmlns="http://www.w3.org/2000/svg"
   xmlns:svg="http://www.w3.org/2000/svg">
  <defs
     id="defs400" />
  <sodipodi:namedview
     id="namedview398"
     pagecolor="#ffffff"
     bordercolor="#000000"
     borderopacity="0.25"
     inkscape:showpageshadow="2"
     inkscape:pageopacity="0.0"
     inkscape:pagecheckerboard="0"
     inkscape:deskcolor="#d1d1d1"
     inkscape:document-units="mm" />
  <style
     type="text/css"
     id="style2"><![CDATA[
tspan { white-space: pre; }
]]></style>
  <!-- Page: 1/1 -->
  <g
     transform="translate(54.40005,4.6931573)"
     id="g6">
    <rect
       x="0"
       y="-1.7"
       width="0.1802"
       height="3.4000001"
       ry="0.0000"
       fill="currentColor"
       id="rect4" />
  </g>
  <g
     transform="translate(4.9997121e-5,6.3931573)"
     id="g10">
    <line
       stroke-linejoin="round"
       stroke-linecap="round"
       stroke-width="0.0949"
       stroke="currentColor"
       x1="0.047400001"
       y1="0"
       x2="69.510902"
       y2="0"
       id="line8" />
  </g>
  <g
     transform="translate(4.9997121e-5,5.5431573)"
     id="g14">
    <line
       stroke-linejoin="round"
       stroke-linecap="round"
       stroke-width="0.0949"
       stroke="currentColor"
       x1="0.047400001"
       y1="0"
       x2="69.510902"
       y2="0"
       id="line12" />
  </g>
  <g
     transform="translate(4.9997121e-5,4.6931573)"
     id="g18">
    <line
       stroke-linejoin="round"
       stroke-linecap="round"
       stroke-width="0.0949"
       stroke="currentColor"
       x1="0.047400001"
       y1="0"
       x2="69.510902"
       y2="0"
       id="line16" />
  </g>
  <g
     transform="translate(4.9997121e-5,3.8431573)"
     id="g22">
    <line
       stroke-linejoin="round"
       stroke-linecap="round"
       stroke-width="0.0949"
       stroke="currentColor"
       x1="0.047400001"
       y1="0"
       x2="69.510902"
       y2="0"
       id="line20" />
  </g>
  <g
     transform="translate(4.9997121e-5,2.9931573)"
     id="g26">
    <line
       stroke-linejoin="round"
       stroke-linecap="round"
       stroke-width="0.0949"
       stroke="currentColor"
       x1="0.047400001"
       y1="0"
       x2="69.510902"
       y2="0"
       id="line24" />
  </g>
  <g
     transform="translate(69.37815,4.6931573)"
     id="g30">
    <rect
       x="0"
       y="-1.7"
       width="0.1802"
       height="3.4000001"
       ry="0.0000"
       fill="currentColor"
       id="rect28" />
  </g>
  <g
     transform="translate(38.71935,4.6931573)"
     id="g34">
    <rect
       x="0"
       y="-1.7"
       width="0.1802"
       height="3.4000001"
       ry="0.0000"
       fill="currentColor"
       id="rect32" />
  </g>
  <g
     transform="translate(22.96725,4.6931573)"
     id="g38">
    <rect
       x="0"
       y="-1.7"
       width="0.1802"
       height="3.4000001"
       ry="0.0000"
       fill="currentColor"
       id="rect36" />
  </g>
  <g
     transform="translate(30.79865,6.5497573)"
     id="g42">
    <polygon
       stroke-linejoin="round"
       stroke-linecap="round"
       stroke-width="0.08"
       fill="currentColor"
       stroke="currentColor"
       points="0.04,0.164 0.04,-0.164 2.3907,-0.4771 2.3907,-0.1491 "
       id="polygon40" />
  </g>
  <g
     color="#ff0000"
     id="g50"
     transform="translate(-2.27615,-3.2793427)">
    <a
       style="color:inherit"
       xlink:href="textedit:///Users/tomsegarra/Documents/dev/dummies/lilypond_files/fb3d0bc965ed209c671e1ec9ffdedecf.ly:25:9:10"
       id="a48">
      <g
         transform="translate(15.0153,7.5475)"
         id="g46">
        <path
           transform="scale(0.0034,-0.0034)"
           d="m 215,137 c 67,0 111,-37 111,-92 0,-90 -111,-182 -215,-182 -67,0 -111,37 -111,92 0,90 111,182 215,182 z"
           fill="currentColor"
           id="path44" />
      </g>
    </a>
  </g>
  <g
     color="#ff0000"
     id="g56"
     transform="translate(-2.27615,-3.2793427)">
    <g
       transform="translate(15.077,7.9725)"
       id="g54">
      <rect
         x="-0.061700001"
         y="-0.27250001"
         width="0.1233"
         height="2.8225"
         ry="0.039999999"
         fill="currentColor"
         id="rect52" />
    </g>
  </g>
  <g
     color="#ff0000"
     id="g62"
     transform="translate(-2.27615,-3.2793427)">
    <g
       transform="translate(15.1386,10.4825)"
       id="g60">
      <path
         transform="scale(0.0034,-0.0034)"
         d="M 0,0 H -18 V 250 H 0 Z m 0,0 v 250 c 96,59 222,149 222,259 0,57 -15,111 -40,162 -3,17 10,29 24,29 8,0 16,-5 21,-13 25,-56 40,-116 40,-178 C 267,306 0,203 0,0 Z"
         fill="currentColor"
         id="path58" />
    </g>
  </g>
  <a
     style="color:inherit"
     xlink:href="textedit:///Users/tomsegarra/Documents/dev/dummies/lilypond_files/fb3d0bc965ed209c671e1ec9ffdedecf.ly:19:12:13"
     id="a76"
     transform="translate(-2.27615,-3.2793427)">
    <g
       transform="translate(10.7144,4.9225)"
       id="g68">
      <text
         font-family="sans-serif"
         font-size="2.224px"
         text-anchor="start"
         fill="currentColor"
         id="text66"><tspan
           id="tspan64">A</tspan></text>
    </g>
    <g
       transform="translate(12.2508,4.9225)"
       id="g74">
      <text
         font-family="sans-serif"
         font-size="2.224px"
         text-anchor="start"
         fill="currentColor"
         id="text72"><tspan
           id="tspan70">m</tspan></text>
    </g>
  </a>
  <g
     transform="translate(46.47935,6.5497573)"
     id="g80">
    <polygon
       stroke-linejoin="round"
       stroke-linecap="round"
       stroke-width="0.08"
       fill="currentColor"
       stroke="currentColor"
       points="0.04,0.164 0.04,-0.164 2.3907,-0.4771 2.3907,-0.1491 "
       id="polygon78" />
  </g>
  <g
     color="#ff0000"
     id="g88"
     transform="translate(-2.27615,-3.2793427)">
    <a
       style="color:inherit"
       xlink:href="textedit:///Users/tomsegarra/Documents/dev/dummies/lilypond_files/fb3d0bc965ed209c671e1ec9ffdedecf.ly:25:12:13"
       id="a86">
      <g
         transform="translate(17.3227,7.1225)"
         id="g84">
        <path
           transform="scale(0.0034,-0.0034)"
           d="m 215,137 c 67,0 111,-37 111,-92 0,-90 -111,-182 -215,-182 -67,0 -111,37 -111,92 0,90 111,182 215,182 z"
           fill="currentColor"
           id="path82" />
      </g>
    </a>
  </g>
  <g
     color="#ff0000"
     id="g94"
     transform="translate(-2.27615,-3.2793427)">
    <g
       transform="translate(17.3844,7.9725)"
       id="g92">
      <rect
         x="-0.061700001"
         y="-0.69749999"
         width="0.1233"
         height="2.5462"
         ry="0.039999999"
         fill="currentColor"
         id="rect90" />
    </g>
  </g>
  <g
     color="#ff0000"
     id="g102"
     transform="translate(-2.27615,-3.2793427)">
    <a
       style="color:inherit"
       xlink:href="textedit:///Users/tomsegarra/Documents/dev/dummies/lilypond_files/fb3d0bc965ed209c671e1ec9ffdedecf.ly:25:4:5"
       id="a100">
      <g
         transform="translate(10.7144,8.3975)"
         id="g98">
        <path
           transform="scale(0.0034,-0.0034)"
           d="m 215,137 c 67,0 111,-37 111,-92 0,-90 -111,-182 -215,-182 -67,0 -111,37 -111,92 0,90 111,182 215,182 z"
           fill="currentColor"
           id="path96" />
      </g>
    </a>
  </g>
  <g
     color="#ff0000"
     id="g110"
     transform="translate(-2.27615,-3.2793427)">
    <a
       style="color:inherit"
       xlink:href="textedit:///Users/tomsegarra/Documents/dev/dummies/lilypond_files/fb3d0bc965ed209c671e1ec9ffdedecf.ly:25:14:15"
       id="a108">
      <g
         transform="translate(19.6301,6.6975)"
         id="g106">
        <path
           transform="scale(0.0034,-0.0034)"
           d="m 215,137 c 67,0 111,-37 111,-92 0,-90 -111,-182 -215,-182 -67,0 -111,37 -111,92 0,90 111,182 215,182 z"
           fill="currentColor"
           id="path104" />
      </g>
    </a>
  </g>
  <g
     color="#ff0000"
     id="g116"
     transform="translate(-2.27615,-3.2793427)">
    <g
       transform="translate(19.6918,7.9725)"
       id="g114">
      <rect
         x="-0.061700001"
         y="-1.1224999"
         width="0.1233"
         height="2.6738999"
         ry="0.039999999"
         fill="currentColor"
         id="rect112" />
    </g>
  </g>
  <g
     transform="translate(0.80005,5.5431573)"
     id="g120">
    <path
       transform="scale(0.0034,-0.0034)"
       d="m 646,2 c 0,-113 -74,-213 -180,-247 3,-34 5,-68 5,-102 0,-20 -1,-40 -2,-60 -7,-121 -91,-228 -209,-228 -108,0 -196,87 -196,196 0,58 53,104 112,104 54,0 95,-48 95,-104 0,-52 -43,-95 -95,-95 -10,0 -20,2 -29,6 26,-38 68,-63 116,-63 h 3 c 93,2 153,92 159,190 1,19 2,37 2,56 0,30 -2,60 -4,90 -5,-1 -43,-8 -88,-8 -194,0 -333,180 -333,375 0,177 130,307 246,442 -31,98 -53,170 -53,347 0,115 55,223 148,290 7,5 16,4 22,-1 68,-80 134,-243 134,-357 0,-143 -85,-255 -178,-364 21,-68 40,-137 57,-206 1,0 5,1 11,1 C 545,264 646,135 646,2 Z M 462,-202 c 66,24 111,88 111,162 0,89 -65,178 -170,190 28,-135 50,-272 59,-352 z M 75,26 c 0,-145 141,-245 263,-245 1,0 46,0 81,6 -7,65 -27,206 -61,363 -79,-8 -124,-61 -124,-119 0,-43 25,-89 80,-121 5,-5 7,-11 7,-16 0,-12 -10,-23 -22,-23 -16,0 -127,63 -127,188 0,89 58,175 161,198 -14,58 -29,116 -46,173 C 181,308 75,186 75,26 Z M 406,1042 C 307,995 244,894 244,785 c 0,-49 13,-111 38,-191 79,97 144,199 144,324 0,33 0,63 -20,124 z"
       fill="currentColor"
       id="path118" />
  </g>
  <g
     color="#ff0000"
     id="g128"
     transform="translate(-2.27615,-3.2793427)">
    <a
       style="color:inherit"
       xlink:href="textedit:///Users/tomsegarra/Documents/dev/dummies/lilypond_files/fb3d0bc965ed209c671e1ec9ffdedecf.ly:25:18:19"
       id="a126">
      <g
         transform="translate(21.9375,7.1225)"
         id="g124">
        <path
           transform="scale(0.0034,-0.0034)"
           d="m 215,137 c 67,0 111,-37 111,-92 0,-90 -111,-182 -215,-182 -67,0 -111,37 -111,92 0,90 111,182 215,182 z"
           fill="currentColor"
           id="path122" />
      </g>
    </a>
  </g>
  <g
     color="#ff0000"
     id="g134"
     transform="translate(-2.27615,-3.2793427)">
    <g
       transform="translate(21.9991,7.9725)"
       id="g132">
      <rect
         x="-0.061700001"
         y="-0.69749999"
         width="0.1233"
         height="2.8225"
         ry="0.039999999"
         fill="currentColor"
         id="rect130" />
    </g>
  </g>
  <g
     color="#000000"
     id="g140"
     transform="translate(-2.27615,-3.2793427)">
    <g
       transform="translate(68.4458,7.9725)"
       id="g138">
      <rect
         x="-0.061700001"
         y="-1.1224999"
         width="0.1233"
         height="2.8225"
         ry="0.039999999"
         fill="currentColor"
         id="rect136" />
    </g>
  </g>
  <a
     style="color:inherit"
     xlink:href="textedit:///Users/tomsegarra/Documents/dev/dummies/lilypond_files/fb3d0bc965ed209c671e1ec9ffdedecf.ly:19:17:18"
     id="a148"
     transform="translate(-2.27615,-3.2793427)">
    <g
       transform="translate(26.3236,4.9225)"
       id="g146">
      <text
         font-family="sans-serif"
         font-size="2.224px"
         text-anchor="start"
         fill="currentColor"
         id="text144"><tspan
           id="tspan142">F</tspan></text>
    </g>
  </a>
  <g
     color="#000000"
     id="g156"
     transform="translate(-2.27615,-3.2793427)">
    <a
       style="color:inherit"
       xlink:href="textedit:///Users/tomsegarra/Documents/dev/dummies/lilypond_files/fb3d0bc965ed209c671e1ec9ffdedecf.ly:28:4:5"
       id="a154">
      <g
         transform="translate(26.3236,9.2475)"
         id="g152">
        <path
           transform="scale(0.0034,-0.0034)"
           d="m 215,137 c 67,0 111,-37 111,-92 0,-90 -111,-182 -215,-182 -67,0 -111,37 -111,92 0,90 111,182 215,182 z"
           fill="currentColor"
           id="path150" />
      </g>
    </a>
  </g>
  <g
     transform="translate(25.53395,5.9681573)"
     id="g160">
    <path
       transform="scale(0.0034,-0.0034)"
       d="M 0,0 C 0,31 25,56 56,56 87,56 111,31 111,0 111,-31 87,-56 56,-56 25,-56 0,-31 0,0 Z"
       fill="currentColor"
       id="path158" />
  </g>
  <g
     color="#000000"
     id="g166"
     transform="translate(-2.27615,-3.2793427)">
    <g
       transform="translate(27.3694,7.9725)"
       id="g164">
      <rect
         x="-0.061700001"
         y="-1.7"
         width="0.1233"
         height="2.8225"
         ry="0.039999999"
         fill="currentColor"
         id="rect162" />
    </g>
  </g>
  <a
     style="color:inherit"
     xlink:href="textedit:///Users/tomsegarra/Documents/dev/dummies/lilypond_files/fb3d0bc965ed209c671e1ec9ffdedecf.ly:22:1:9"
     id="a168"
     transform="translate(-2.27615,-3.2793427)" />
  <g
     color="#000000"
     id="g176"
     transform="translate(-2.27615,-3.2793427)">
    <a
       style="color:inherit"
       xlink:href="textedit:///Users/tomsegarra/Documents/dev/dummies/lilypond_files/fb3d0bc965ed209c671e1ec9ffdedecf.ly:34:12:13"
       id="a174">
      <g
         transform="translate(68.3841,6.6975)"
         id="g172">
        <path
           transform="scale(0.0034,-0.0034)"
           d="m 215,137 c 67,0 111,-37 111,-92 0,-90 -111,-182 -215,-182 -67,0 -111,37 -111,92 0,90 111,182 215,182 z"
           fill="currentColor"
           id="path170" />
      </g>
    </a>
  </g>
  <g
     color="#000000"
     id="g184"
     transform="translate(-2.27615,-3.2793427)">
    <a
       style="color:inherit"
       xlink:href="textedit:///Users/tomsegarra/Documents/dev/dummies/lilypond_files/fb3d0bc965ed209c671e1ec9ffdedecf.ly:28:9:10"
       id="a182">
      <g
         transform="translate(30.7674,7.5475)"
         id="g180">
        <path
           transform="scale(0.0034,-0.0034)"
           d="m 215,137 c 67,0 111,-37 111,-92 0,-90 -111,-182 -215,-182 -67,0 -111,37 -111,92 0,90 111,182 215,182 z"
           fill="currentColor"
           id="path178" />
      </g>
    </a>
  </g>
  <g
     color="#000000"
     id="g190"
     transform="translate(-2.27615,-3.2793427)">
    <g
       transform="translate(30.8291,7.9725)"
       id="g188">
      <rect
         x="-0.061700001"
         y="-0.27250001"
         width="0.1233"
         height="2.8225"
         ry="0.039999999"
         fill="currentColor"
         id="rect186" />
    </g>
  </g>
  <g
     color="#000000"
     id="g196"
     transform="translate(-2.27615,-3.2793427)">
    <g
       transform="translate(30.8908,10.4825)"
       id="g194">
      <path
         transform="scale(0.0034,-0.0034)"
         d="M 0,0 H -18 V 250 H 0 Z m 0,0 v 250 c 96,59 222,149 222,259 0,57 -15,111 -40,162 -3,17 10,29 24,29 8,0 16,-5 21,-13 25,-56 40,-116 40,-178 C 267,306 0,203 0,0 Z"
         fill="currentColor"
         id="path192" />
    </g>
  </g>
  <g
     transform="translate(5.00005,4.6931573)"
     id="g200">
    <path
       transform="scale(0.0034,-0.0034)"
       d="m 358,29 c -30,0 -74,23 -74,73 0,38 27,76 71,76 4,0 7,0 11,-1 -27,36 -69,59 -116,59 -106,0 -113,-74 -113,-188 0,-15 1,-31 1,-48 0,-17 -1,-33 -1,-48 0,-114 7,-188 113,-188 79,0 136,70 155,150 2,7 7,10 13,10 7,0 14,-5 14,-13 0,-21 -50,-175 -182,-175 C 191,-264 0,-244 0,0 0,63 18,264 250,264 365,264 424,155 424,99 424,60 394,29 358,29 Z"
       fill="currentColor"
       id="path198" />
  </g>
  <g
     color="#000000"
     id="g208"
     transform="translate(-2.27615,-3.2793427)">
    <a
       style="color:inherit"
       xlink:href="textedit:///Users/tomsegarra/Documents/dev/dummies/lilypond_files/fb3d0bc965ed209c671e1ec9ffdedecf.ly:28:13:14"
       id="a206">
      <g
         transform="translate(33.0748,7.1225)"
         id="g204">
        <path
           transform="scale(0.0034,-0.0034)"
           d="m 215,137 c 67,0 111,-37 111,-92 0,-90 -111,-182 -215,-182 -67,0 -111,37 -111,92 0,90 111,182 215,182 z"
           fill="currentColor"
           id="path202" />
      </g>
    </a>
  </g>
  <g
     color="#000000"
     id="g214"
     transform="translate(-2.27615,-3.2793427)">
    <g
       transform="translate(33.1365,7.9725)"
       id="g212">
      <rect
         x="-0.061700001"
         y="-0.69749999"
         width="0.1233"
         height="2.5462"
         ry="0.039999999"
         fill="currentColor"
         id="rect210" />
    </g>
  </g>
  <g
     transform="translate(9.92475,5.1181573)"
     id="g218">
    <path
       transform="scale(0.0034,-0.0034)"
       d="M 0,0 C 0,31 25,56 56,56 87,56 111,31 111,0 111,-31 87,-56 56,-56 25,-56 0,-31 0,0 Z"
       fill="currentColor"
       id="path216" />
  </g>
  <g
     color="#000000"
     id="g226"
     transform="translate(-2.27615,-3.2793427)">
    <a
       style="color:inherit"
       xlink:href="textedit:///Users/tomsegarra/Documents/dev/dummies/lilypond_files/fb3d0bc965ed209c671e1ec9ffdedecf.ly:28:15:16"
       id="a224">
      <g
         transform="translate(35.3822,6.6975)"
         id="g222">
        <path
           transform="scale(0.0034,-0.0034)"
           d="m 215,137 c 67,0 111,-37 111,-92 0,-90 -111,-182 -215,-182 -67,0 -111,37 -111,92 0,90 111,182 215,182 z"
           fill="currentColor"
           id="path220" />
      </g>
    </a>
  </g>
  <g
     color="#000000"
     id="g232"
     transform="translate(-2.27615,-3.2793427)">
    <g
       transform="translate(35.4439,7.9725)"
       id="g230">
      <rect
         x="-0.061700001"
         y="-1.1224999"
         width="0.1233"
         height="2.6738999"
         ry="0.039999999"
         fill="currentColor"
         id="rect228" />
    </g>
  </g>
  <g
     color="#ff0000"
     id="g238"
     transform="translate(-2.27615,-3.2793427)">
    <g
       transform="translate(11.7601,7.9725)"
       id="g236">
      <rect
         x="-0.061700001"
         y="-2.55"
         width="0.1233"
         height="2.8225"
         ry="0.039999999"
         fill="currentColor"
         id="rect234" />
    </g>
  </g>
  <g
     color="#000000"
     id="g246"
     transform="translate(-2.27615,-3.2793427)">
    <a
       style="color:inherit"
       xlink:href="textedit:///Users/tomsegarra/Documents/dev/dummies/lilypond_files/fb3d0bc965ed209c671e1ec9ffdedecf.ly:28:19:20"
       id="a244">
      <g
         transform="translate(37.6896,7.1225)"
         id="g242">
        <path
           transform="scale(0.0034,-0.0034)"
           d="m 215,137 c 67,0 111,-37 111,-92 0,-90 -111,-182 -215,-182 -67,0 -111,37 -111,92 0,90 111,182 215,182 z"
           fill="currentColor"
           id="path240" />
      </g>
    </a>
  </g>
  <g
     color="#000000"
     id="g252"
     transform="translate(-2.27615,-3.2793427)">
    <g
       transform="translate(37.7512,7.9725)"
       id="g250">
      <rect
         x="-0.061700001"
         y="-0.69749999"
         width="0.1233"
         height="2.8225"
         ry="0.039999999"
         fill="currentColor"
         id="rect248" />
    </g>
  </g>
  <g
     color="#000000"
     id="g258"
     transform="translate(-2.27615,-3.2793427)">
    <g
       transform="translate(64.9384,7.9725)"
       id="g256">
      <rect
         x="-0.061700001"
         y="-0.69749999"
         width="0.1233"
         height="2.8225"
         ry="0.039999999"
         fill="currentColor"
         id="rect254" />
    </g>
  </g>
  <g
     color="#000000"
     id="g266"
     transform="translate(-2.27615,-3.2793427)">
    <a
       style="color:inherit"
       xlink:href="textedit:///Users/tomsegarra/Documents/dev/dummies/lilypond_files/fb3d0bc965ed209c671e1ec9ffdedecf.ly:34:10:11"
       id="a264">
      <g
         transform="translate(64.8767,7.1225)"
         id="g262">
        <path
           transform="scale(0.0034,-0.0034)"
           d="m 215,137 c 67,0 111,-37 111,-92 0,-90 -111,-182 -215,-182 -67,0 -111,37 -111,92 0,90 111,182 215,182 z"
           fill="currentColor"
           id="path260" />
      </g>
    </a>
  </g>
  <a
     style="color:inherit"
     xlink:href="textedit:///Users/tomsegarra/Documents/dev/dummies/lilypond_files/fb3d0bc965ed209c671e1ec9ffdedecf.ly:19:19:20"
     id="a274"
     transform="translate(-2.27615,-3.2793427)">
    <g
       transform="translate(42.0757,4.9225)"
       id="g272">
      <text
         font-family="sans-serif"
         font-size="2.224px"
         text-anchor="start"
         fill="currentColor"
         id="text270"><tspan
           id="tspan268">C</tspan></text>
    </g>
  </a>
  <g
     color="#000000"
     id="g282"
     transform="translate(-2.27615,-3.2793427)">
    <a
       style="color:inherit"
       xlink:href="textedit:///Users/tomsegarra/Documents/dev/dummies/lilypond_files/fb3d0bc965ed209c671e1ec9ffdedecf.ly:28:24:25"
       id="a280">
      <g
         transform="translate(42.0757,8.8225)"
         id="g278">
        <path
           transform="scale(0.0034,-0.0034)"
           d="m 215,137 c 67,0 111,-37 111,-92 0,-90 -111,-182 -215,-182 -67,0 -111,37 -111,92 0,90 111,182 215,182 z"
           fill="currentColor"
           id="path276" />
      </g>
    </a>
  </g>
  <g
     transform="translate(41.28605,5.1181573)"
     id="g286">
    <path
       transform="scale(0.0034,-0.0034)"
       d="M 0,0 C 0,31 25,56 56,56 87,56 111,31 111,0 111,-31 87,-56 56,-56 25,-56 0,-31 0,0 Z"
       fill="currentColor"
       id="path284" />
  </g>
  <g
     color="#000000"
     id="g292"
     transform="translate(-2.27615,-3.2793427)">
    <g
       transform="translate(43.1215,7.9725)"
       id="g290">
      <rect
         x="-0.061700001"
         y="-2.125"
         width="0.1233"
         height="2.8225"
         ry="0.039999999"
         fill="currentColor"
         id="rect288" />
    </g>
  </g>
  <g
     transform="translate(15.04655,6.5497573)"
     id="g296">
    <polygon
       stroke-linejoin="round"
       stroke-linecap="round"
       stroke-width="0.08"
       fill="currentColor"
       stroke="currentColor"
       points="0.04,0.164 0.04,-0.164 2.3907,-0.4771 2.3907,-0.1491 "
       id="polygon294" />
  </g>
  <g
     color="#ff0000"
     id="g304"
     transform="translate(-2.27615,-3.2793427)">
    <a
       style="color:inherit"
       xlink:href="textedit:///Users/tomsegarra/Documents/dev/dummies/lilypond_files/fb3d0bc965ed209c671e1ec9ffdedecf.ly:31:4:5"
       id="a302">
      <g
         transform="translate(46.4481,7.5475)"
         id="g300">
        <path
           transform="scale(0.0034,-0.0034)"
           d="m 215,137 c 67,0 111,-37 111,-92 0,-90 -111,-182 -215,-182 -67,0 -111,37 -111,92 0,90 111,182 215,182 z"
           fill="currentColor"
           id="path298" />
      </g>
    </a>
  </g>
  <g
     color="#ff0000"
     id="g310"
     transform="translate(-2.27615,-3.2793427)">
    <g
       transform="translate(46.5098,7.9725)"
       id="g308">
      <rect
         x="-0.061700001"
         y="-0.27250001"
         width="0.1233"
         height="2.8225"
         ry="0.039999999"
         fill="currentColor"
         id="rect306" />
    </g>
  </g>
  <g
     color="#ff0000"
     id="g316"
     transform="translate(-2.27615,-3.2793427)">
    <g
       transform="translate(46.5714,10.4825)"
       id="g314">
      <path
         transform="scale(0.0034,-0.0034)"
         d="M 0,0 H -18 V 250 H 0 Z m 0,0 v 250 c 96,59 222,149 222,259 0,57 -15,111 -40,162 -3,17 10,29 24,29 8,0 16,-5 21,-13 25,-56 40,-116 40,-178 C 267,306 0,203 0,0 Z"
         fill="currentColor"
         id="path312" />
    </g>
  </g>
  <g
     color="#ff0000"
     id="g324"
     transform="translate(-2.27615,-3.2793427)">
    <a
       style="color:inherit"
       xlink:href="textedit:///Users/tomsegarra/Documents/dev/dummies/lilypond_files/fb3d0bc965ed209c671e1ec9ffdedecf.ly:31:7:8"
       id="a322">
      <g
         transform="translate(48.7555,7.1225)"
         id="g320">
        <path
           transform="scale(0.0034,-0.0034)"
           d="m 215,137 c 67,0 111,-37 111,-92 0,-90 -111,-182 -215,-182 -67,0 -111,37 -111,92 0,90 111,182 215,182 z"
           fill="currentColor"
           id="path318" />
      </g>
    </a>
  </g>
  <g
     color="#ff0000"
     id="g330"
     transform="translate(-2.27615,-3.2793427)">
    <g
       transform="translate(48.8172,7.9725)"
       id="g328">
      <rect
         x="-0.061700001"
         y="-0.69749999"
         width="0.1233"
         height="2.5462"
         ry="0.039999999"
         fill="currentColor"
         id="rect326" />
    </g>
  </g>
  <g
     color="#000000"
     id="g336"
     transform="translate(-2.27615,-3.2793427)">
    <g
       transform="translate(61.431,7.9725)"
       id="g334">
      <rect
         x="-0.061700001"
         y="-0.27250001"
         width="0.1233"
         height="2.8225"
         ry="0.039999999"
         fill="currentColor"
         id="rect332" />
    </g>
  </g>
  <g
     color="#000000"
     id="g344"
     transform="translate(-2.27615,-3.2793427)">
    <a
       style="color:inherit"
       xlink:href="textedit:///Users/tomsegarra/Documents/dev/dummies/lilypond_files/fb3d0bc965ed209c671e1ec9ffdedecf.ly:34:8:9"
       id="a342">
      <g
         transform="translate(61.3694,7.5475)"
         id="g340">
        <path
           transform="scale(0.0034,-0.0034)"
           d="m 215,137 c 67,0 111,-37 111,-92 0,-90 -111,-182 -215,-182 -67,0 -111,37 -111,92 0,90 111,182 215,182 z"
           fill="currentColor"
           id="path338" />
      </g>
    </a>
  </g>
  <g
     color="#ff0000"
     id="g352"
     transform="translate(-2.27615,-3.2793427)">
    <a
       style="color:inherit"
       xlink:href="textedit:///Users/tomsegarra/Documents/dev/dummies/lilypond_files/fb3d0bc965ed209c671e1ec9ffdedecf.ly:31:9:10"
       id="a350">
      <g
         transform="translate(51.0629,6.6975)"
         id="g348">
        <path
           transform="scale(0.0034,-0.0034)"
           d="m 215,137 c 67,0 111,-37 111,-92 0,-90 -111,-182 -215,-182 -67,0 -111,37 -111,92 0,90 111,182 215,182 z"
           fill="currentColor"
           id="path346" />
      </g>
    </a>
  </g>
  <g
     color="#ff0000"
     id="g358"
     transform="translate(-2.27615,-3.2793427)">
    <g
       transform="translate(51.1245,7.9725)"
       id="g356">
      <rect
         x="-0.061700001"
         y="-1.1224999"
         width="0.1233"
         height="2.6738999"
         ry="0.039999999"
         fill="currentColor"
         id="rect354" />
    </g>
  </g>
  <g
     color="#ff0000"
     id="g366"
     transform="translate(-2.27615,-3.2793427)">
    <a
       style="color:inherit"
       xlink:href="textedit:///Users/tomsegarra/Documents/dev/dummies/lilypond_files/fb3d0bc965ed209c671e1ec9ffdedecf.ly:31:13:14"
       id="a364">
      <g
         transform="translate(53.3703,7.1225)"
         id="g362">
        <path
           transform="scale(0.0034,-0.0034)"
           d="m 215,137 c 67,0 111,-37 111,-92 0,-90 -111,-182 -215,-182 -67,0 -111,37 -111,92 0,90 111,182 215,182 z"
           fill="currentColor"
           id="path360" />
      </g>
    </a>
  </g>
  <g
     color="#ff0000"
     id="g372"
     transform="translate(-2.27615,-3.2793427)">
    <g
       transform="translate(53.4319,7.9725)"
       id="g370">
      <rect
         x="-0.061700001"
         y="-0.69749999"
         width="0.1233"
         height="2.8225"
         ry="0.039999999"
         fill="currentColor"
         id="rect368" />
    </g>
  </g>
  <a
     style="color:inherit"
     xlink:href="textedit:///Users/tomsegarra/Documents/dev/dummies/lilypond_files/fb3d0bc965ed209c671e1ec9ffdedecf.ly:19:21:22"
     id="a380"
     transform="translate(-2.27615,-3.2793427)">
    <g
       transform="translate(57.862,4.9225)"
       id="g378">
      <text
         font-family="sans-serif"
         font-size="2.224px"
         text-anchor="start"
         fill="currentColor"
         id="text376"><tspan
           id="tspan374">G</tspan></text>
    </g>
  </a>
  <g
     color="#000000"
     id="g388"
     transform="translate(-2.27615,-3.2793427)">
    <a
       style="color:inherit"
       xlink:href="textedit:///Users/tomsegarra/Documents/dev/dummies/lilypond_files/fb3d0bc965ed209c671e1ec9ffdedecf.ly:34:4:5"
       id="a386">
      <g
         transform="translate(57.862,7.9725)"
         id="g384">
        <path
           transform="scale(0.0034,-0.0034)"
           d="m 215,137 c 67,0 111,-37 111,-92 0,-90 -111,-182 -215,-182 -67,0 -111,37 -111,92 0,90 111,182 215,182 z"
           fill="currentColor"
           id="path382" />
      </g>
    </a>
  </g>
  <g
     color="#000000"
     id="g394"
     transform="translate(-2.27615,-3.2793427)">
    <g
       transform="translate(57.9236,7.9725)"
       id="g392">
      <rect
         x="-0.061700001"
         y="0.1525"
         width="0.1233"
         height="2.6809001"
         ry="0.039999999"
         fill="currentColor"
         id="rect390" />
    </g>
  </g>
</svg>
