<svg xmlns="http://www.w3.org/2000/svg" xmlns:xlink="http://www.w3.org/1999/xlink" version="1.2" width="105.07mm" height="297.00mm" viewBox="0 0 59.7886 169.0094">
<style type="text/css">
<![CDATA[
tspan { white-space: pre; }
]]>
</style>
<!-- Page: 1/1 -->
<g transform="translate(27.2873, 9.6455)">
<rect x="0.0000" y="-1.7000" width="0.1802" height="3.4000" ry="0.0000" fill="currentColor"/>
</g>
<g transform="translate(2.2762, 7.0955)">
<rect x="16.2025" y="-0.0899" width="1.6611" height="0.1799" ry="0.0899" fill="currentColor"/>
</g>
<g transform="translate(2.2762, 7.0955)">
<rect x="11.4163" y="-0.0899" width="1.6611" height="0.1799" ry="0.0899" fill="currentColor"/>
</g>
<g transform="translate(2.2762, 11.3455)">
<line stroke-linejoin="round" stroke-linecap="round" stroke-width="0.0949" stroke="currentColor" x1="0.0474" y1="0" x2="55.1888" y2="0"/>
</g>
<g transform="translate(2.2762, 10.4955)">
<line stroke-linejoin="round" stroke-linecap="round" stroke-width="0.0949" stroke="currentColor" x1="0.0474" y1="0" x2="55.1888" y2="0"/>
</g>
<g transform="translate(2.2762, 9.6455)">
<line stroke-linejoin="round" stroke-linecap="round" stroke-width="0.0949" stroke="currentColor" x1="0.0474" y1="0" x2="55.1888" y2="0"/>
</g>
<g transform="translate(2.2762, 8.7955)">
<line stroke-linejoin="round" stroke-linecap="round" stroke-width="0.0949" stroke="currentColor" x1="0.0474" y1="0" x2="55.1888" y2="0"/>
</g>
<g transform="translate(2.2762, 7.9455)">
<line stroke-linejoin="round" stroke-linecap="round" stroke-width="0.0949" stroke="currentColor" x1="0.0474" y1="0" x2="55.1888" y2="0"/>
</g>
<g transform="translate(57.3322, 9.6455)">
<rect x="0.0000" y="-1.7000" width="0.1802" height="3.4000" ry="0.0000" fill="currentColor"/>
</g>
<a style="color:inherit;" xlink:href="textedit:///Users/tomsegarra/Documents/dev/dummies/lilypond_files/fbb8b59253c216d56fb95dcb083fc91d.ly:20:12:13">
<g transform="translate(13.9694, 5.6089)">
<text font-family="sans-serif" font-size="2.2240" text-anchor="start" fill="currentColor">
<tspan>E</tspan>
</text>
</g>
<g transform="translate(15.3693, 4.4197)">
<text font-family="sans-serif" font-size="1.5727" text-anchor="start" fill="currentColor">
<tspan>7</tspan>
</text>
</g>
</a>
<a style="color:inherit;" xlink:href="textedit:///Users/tomsegarra/Documents/dev/dummies/lilypond_files/fbb8b59253c216d56fb95dcb083fc91d.ly:24:17:18">
<g transform="translate(13.9694, 7.0955)">
<path transform="scale(0.0034, -0.0034)" d="M215 137c67 0 111 -37 111 -92c0 -90 -111 -182 -215 -182c-67 0 -111 37 -111 92c0 90 111 182 215 182z" fill="currentColor"/>
</g>
</a>
<g transform="translate(3.0762, 10.4955)">
<path transform="scale(0.0034, -0.0034)" d="M646 2c0 -113 -74 -213 -180 -247c3 -34 5 -68 5 -102c0 -20 -1 -40 -2 -60c-7 -121 -91 -228 -209 -228c-108 0 -196 87 -196 196c0 58 53 104 112 104c54 0 95 -48 95 -104c0 -52 -43 -95 -95 -95c-10 0 -20 2 -29 6c26 -38 68 -63 116 -63h3c93 2 153 92 159 190
c1 19 2 37 2 56c0 30 -2 60 -4 90c-5 -1 -43 -8 -88 -8c-194 0 -333 180 -333 375c0 177 130 307 246 442c-31 98 -53 170 -53 347c0 115 55 223 148 290c7 5 16 4 22 -1c68 -80 134 -243 134 -357c0 -143 -85 -255 -178 -364c21 -68 40 -137 57 -206c1 0 5 1 11 1
c156 0 257 -129 257 -262zM462 -202c66 24 111 88 111 162c0 89 -65 178 -170 190c28 -135 50 -272 59 -352zM75 26c0 -145 141 -245 263 -245c1 0 46 0 81 6c-7 65 -27 206 -61 363c-79 -8 -124 -61 -124 -119c0 -43 25 -89 80 -121c5 -5 7 -11 7 -16
c0 -12 -10 -23 -22 -23c-16 0 -127 63 -127 188c0 89 58 175 161 198c-14 58 -29 116 -46 173c-106 -122 -212 -244 -212 -404zM406 1042c-99 -47 -162 -148 -162 -257c0 -49 13 -111 38 -191c79 97 144 199 144 324c0 33 0 63 -20 124z" fill="currentColor"/>
</g>
<a style="color:inherit;" xlink:href="textedit:///Users/tomsegarra/Documents/dev/dummies/lilypond_files/fbb8b59253c216d56fb95dcb083fc91d.ly:23:1:9">
<g transform="translate(6.5762, 7.9455)">
<path transform="scale(0.0034, -0.0034)" d="M217 -311c0 -11 -8 -19 -19 -19s-20 8 -20 19v142l-81 -30v-156c0 -11 -9 -20 -20 -20s-19 9 -19 20v142l-28 -11c-3 -1 -5 -1 -8 -1c-12 0 -22 10 -22 23v57c0 9 6 18 15 21l43 16v157l-28 -10c-3 -1 -5 -1 -8 -1c-12 0 -22 9 -22 22v57c0 9 6 18 15 21l43 16v157
c0 11 8 19 19 19s20 -8 20 -19v-142l81 30v156c0 11 9 20 20 20s19 -9 19 -20v-142l28 11c3 1 5 1 8 1c12 0 22 -10 22 -23v-57c0 -9 -6 -18 -15 -21l-43 -16v-157l28 10c3 1 5 1 8 1c12 0 22 -9 22 -22v-57c0 -9 -6 -18 -15 -21l-43 -16v-157zM97 64v-158l81 30v158z" fill="currentColor"/>
</g>
<g transform="translate(7.5112, 9.2205)">
<path transform="scale(0.0034, -0.0034)" d="M217 -311c0 -11 -8 -19 -19 -19s-20 8 -20 19v142l-81 -30v-156c0 -11 -9 -20 -20 -20s-19 9 -19 20v142l-28 -11c-3 -1 -5 -1 -8 -1c-12 0 -22 10 -22 23v57c0 9 6 18 15 21l43 16v157l-28 -10c-3 -1 -5 -1 -8 -1c-12 0 -22 9 -22 22v57c0 9 6 18 15 21l43 16v157
c0 11 8 19 19 19s20 -8 20 -19v-142l81 30v156c0 11 9 20 20 20s19 -9 19 -20v-142l28 11c3 1 5 1 8 1c12 0 22 -10 22 -23v-57c0 -9 -6 -18 -15 -21l-43 -16v-157l28 10c3 1 5 1 8 1c12 0 22 -9 22 -22v-57c0 -9 -6 -18 -15 -21l-43 -16v-157zM97 64v-158l81 30v158z" fill="currentColor"/>
</g>
<g transform="translate(8.4462, 7.5205)">
<path transform="scale(0.0034, -0.0034)" d="M217 -311c0 -11 -8 -19 -19 -19s-20 8 -20 19v142l-81 -30v-156c0 -11 -9 -20 -20 -20s-19 9 -19 20v142l-28 -11c-3 -1 -5 -1 -8 -1c-12 0 -22 10 -22 23v57c0 9 6 18 15 21l43 16v157l-28 -10c-3 -1 -5 -1 -8 -1c-12 0 -22 9 -22 22v57c0 9 6 18 15 21l43 16v157
c0 11 8 19 19 19s20 -8 20 -19v-142l81 30v156c0 11 9 20 20 20s19 -9 19 -20v-142l28 11c3 1 5 1 8 1c12 0 22 -10 22 -23v-57c0 -9 -6 -18 -15 -21l-43 -16v-157l28 10c3 1 5 1 8 1c12 0 22 -9 22 -22v-57c0 -9 -6 -18 -15 -21l-43 -16v-157zM97 64v-158l81 30v158z" fill="currentColor"/>
</g>
</a>
<g transform="translate(10.5312, 9.6455)">
<path transform="scale(0.0034, -0.0034)" d="M358 29c-30 0 -74 23 -74 73c0 38 27 76 71 76c4 0 7 0 11 -1c-27 36 -69 59 -116 59c-106 0 -113 -74 -113 -188c0 -15 1 -31 1 -48s-1 -33 -1 -48c0 -114 7 -188 113 -188c79 0 136 70 155 150c2 7 7 10 13 10c7 0 14 -5 14 -13c0 -21 -50 -175 -182 -175
c-59 0 -250 20 -250 264c0 63 18 264 250 264c115 0 174 -109 174 -165c0 -39 -30 -70 -66 -70z" fill="currentColor"/>
</g>
<a style="color:inherit;" xlink:href="textedit:///Users/tomsegarra/Documents/dev/dummies/lilypond_files/fbb8b59253c216d56fb95dcb083fc91d.ly:31:15:16">
<g transform="translate(11.9965, 15.1455)">
<text font-family="serif" font-size="2.0989" text-anchor="start" fill="currentColor">
<tspan>they'd</tspan>
</text>
</g>
</a>
<g transform="translate(14.0311, 9.6455)">
<rect x="-0.0617" y="-2.3975" width="0.1233" height="2.8225" ry="0.0400" fill="currentColor"/>
</g>
<g transform="translate(14.0927, 10.0305)">
<path transform="scale(0.0034, -0.0034)" d="M0 0h-18v250h18v-250zM0 0v250c96 59 222 149 222 259c0 57 -15 111 -40 162c-3 17 10 29 24 29c8 0 16 -5 21 -13c25 -56 40 -116 40 -178c0 -203 -267 -306 -267 -509z" fill="currentColor"/>
</g>
<g transform="translate(37.0858, 9.6455)">
<rect x="-0.0617" y="-1.5475" width="0.1233" height="3.0925" ry="0.0400" fill="currentColor"/>
</g>
<a style="color:inherit;" xlink:href="textedit:///Users/tomsegarra/Documents/dev/dummies/lilypond_files/fbb8b59253c216d56fb95dcb083fc91d.ly:24:31:32">
<g transform="translate(25.1942, 9.6455)">
<path stroke-width="0.0759" stroke-linejoin="round" stroke-linecap="round" stroke="currentColor" fill="currentColor" d="M0.7537 -2.9750C1.3998 -3.6667 3.0665 -3.6667 3.7126 -2.9750L3.7126 -2.9750C3.0665 -3.5529 1.3998 -3.5529 0.7537 -2.9750z"/>
</g>
</a>
<a style="color:inherit;" xlink:href="textedit:///Users/tomsegarra/Documents/dev/dummies/lilypond_files/fbb8b59253c216d56fb95dcb083fc91d.ly:25:19:20">
<g transform="translate(39.4648, 8.3705)">
<path transform="scale(0.0034, -0.0034)" d="M215 137c67 0 111 -37 111 -92c0 -90 -111 -182 -215 -182c-67 0 -111 37 -111 92c0 90 111 182 215 182z" fill="currentColor"/>
</g>
</a>
<a style="color:inherit;" xlink:href="textedit:///Users/tomsegarra/Documents/dev/dummies/lilypond_files/fbb8b59253c216d56fb95dcb083fc91d.ly:31:42:43">
<g transform="translate(38.2089, 15.1455)">
<text font-family="serif" font-size="2.0989" text-anchor="start" fill="currentColor">
<tspan>kept</tspan>
</text>
</g>
</a>
<g transform="translate(39.5265, 9.6455)">
<rect x="-0.0617" y="-1.1225" width="0.1233" height="2.7291" ry="0.0400" fill="currentColor"/>
</g>
<g color="red">
<a style="color:inherit;" xlink:href="textedit:///Users/tomsegarra/Documents/dev/dummies/lilypond_files/fbb8b59253c216d56fb95dcb083fc91d.ly:29:4:5">
<g transform="translate(43.1072, 8.3705)">
<path transform="scale(0.0034, -0.0034)" d="M215 137c67 0 111 -37 111 -92c0 -90 -111 -182 -215 -182c-67 0 -111 37 -111 92c0 90 111 182 215 182z" fill="currentColor"/>
</g>
</a>
</g>
<a style="color:inherit;" xlink:href="textedit:///Users/tomsegarra/Documents/dev/dummies/lilypond_files/fbb8b59253c216d56fb95dcb083fc91d.ly:31:47:48">
<g transform="translate(42.2781, 15.1455)">
<text font-family="serif" font-size="2.0989" text-anchor="start" fill="currentColor">
<tspan>fall</tspan>
</text>
</g>
</a>
<g color="red">
<g transform="translate(43.1689, 9.6455)">
<rect x="-0.0617" y="-1.1225" width="0.1233" height="2.8210" ry="0.0400" fill="currentColor"/>
</g>
</g>
<g transform="translate(22.6029, 9.7373)">
<polygon stroke-linejoin="round" stroke-linecap="round" stroke-width="0.0800" fill="currentColor" stroke="currentColor" points="2.6747 -0.0992 2.6747 0.2288 0.0400 0.1640 0.0400 -0.1640"/>
</g>
<g transform="translate(18.7556, 10.3389)">
<polygon stroke-linejoin="round" stroke-linecap="round" stroke-width="0.0800" fill="currentColor" stroke="currentColor" points="6.5219 -0.0074 6.5219 0.3206 0.0400 0.1640 0.0400 -0.1640"/>
</g>
<a style="color:inherit;" xlink:href="textedit:///Users/tomsegarra/Documents/dev/dummies/lilypond_files/fbb8b59253c216d56fb95dcb083fc91d.ly:20:23:24">
<g transform="translate(45.5972, 5.6089)">
<text font-family="sans-serif" font-size="2.2240" text-anchor="start" fill="currentColor">
<tspan>A</tspan>
</text>
</g>
<g transform="translate(47.1337, 5.6089)">
<text font-family="sans-serif" font-size="2.2240" text-anchor="start" fill="currentColor">
<tspan>/</tspan>
</text>
</g>
<g transform="translate(48.1580, 5.6089)">
<text font-family="sans-serif" font-size="2.2240" text-anchor="start" fill="currentColor">
<tspan>C</tspan>
</text>
</g>
<g transform="translate(49.6944, 5.0089)">
<path transform="scale(0.0036, -0.0036)" d="M217 -311c0 -11 -8 -19 -19 -19s-20 8 -20 19v142l-81 -30v-156c0 -11 -9 -20 -20 -20s-19 9 -19 20v142l-28 -11c-3 -1 -5 -1 -8 -1c-12 0 -22 10 -22 23v57c0 9 6 18 15 21l43 16v157l-28 -10c-3 -1 -5 -1 -8 -1c-12 0 -22 9 -22 22v57c0 9 6 18 15 21l43 16v157
c0 11 8 19 19 19s20 -8 20 -19v-142l81 30v156c0 11 9 20 20 20s19 -9 19 -20v-142l28 11c3 1 5 1 8 1c12 0 22 -10 22 -23v-57c0 -9 -6 -18 -15 -21l-43 -16v-157l28 10c3 1 5 1 8 1c12 0 22 -9 22 -22v-57c0 -9 -6 -18 -15 -21l-43 -16v-157zM97 64v-158l81 30v158z" fill="currentColor"/>
</g>
</a>
<g color="red">
<a style="color:inherit;" xlink:href="textedit:///Users/tomsegarra/Documents/dev/dummies/lilypond_files/fbb8b59253c216d56fb95dcb083fc91d.ly:29:11:12">
<g transform="translate(45.5972, 9.2205)">
<path transform="scale(0.0034, -0.0034)" d="M215 137c67 0 111 -37 111 -92c0 -90 -111 -182 -215 -182c-67 0 -111 37 -111 92c0 90 111 182 215 182z" fill="currentColor"/>
</g>
</a>
</g>
<a style="color:inherit;" xlink:href="textedit:///Users/tomsegarra/Documents/dev/dummies/lilypond_files/fbb8b59253c216d56fb95dcb083fc91d.ly:31:55:56">
<g transform="translate(45.1437, 15.1455)">
<text font-family="serif" font-size="2.0989" text-anchor="start" fill="currentColor">
<tspan>in'</tspan>
</text>
</g>
</a>
<g color="red">
<g transform="translate(45.6589, 9.6455)">
<rect x="-0.0617" y="-0.2725" width="0.1233" height="1.9615" ry="0.0400" fill="currentColor"/>
</g>
</g>
<g color="red">
<a style="color:inherit;" xlink:href="textedit:///Users/tomsegarra/Documents/dev/dummies/lilypond_files/fbb8b59253c216d56fb95dcb083fc91d.ly:29:14:15">
<g transform="translate(49.3546, 7.9455)">
<path transform="scale(0.0034, -0.0034)" d="M215 137c67 0 111 -37 111 -92c0 -90 -111 -182 -215 -182c-67 0 -111 37 -111 92c0 90 111 182 215 182z" fill="currentColor"/>
</g>
</a>
</g>
<a style="color:inherit;" xlink:href="textedit:///Users/tomsegarra/Documents/dev/dummies/lilypond_files/fbb8b59253c216d56fb95dcb083fc91d.ly:31:59:60">
<g transform="translate(49.3546, 15.1455)">
<text font-family="serif" font-size="2.0989" text-anchor="start" fill="currentColor">
<tspan>down</tspan>
</text>
</g>
</a>
<g color="red">
<g transform="translate(49.4163, 9.6455)">
<rect x="-0.0617" y="-1.5475" width="0.1233" height="2.5651" ry="0.0400" fill="currentColor"/>
</g>
</g>
<g color="red">
<a style="color:inherit;" xlink:href="textedit:///Users/tomsegarra/Documents/dev/dummies/lilypond_files/fbb8b59253c216d56fb95dcb083fc91d.ly:29:20:21">
<g transform="translate(52.8620, 7.9455)">
<path transform="scale(0.0034, -0.0034)" d="M215 137c67 0 111 -37 111 -92c0 -90 -111 -182 -215 -182c-67 0 -111 37 -111 92c0 90 111 182 215 182z" fill="currentColor"/>
</g>
</a>
</g>
<g color="red">
<g transform="translate(52.9237, 9.6455)">
<rect x="-0.0617" y="-1.5475" width="0.1233" height="2.8225" ry="0.0400" fill="currentColor"/>
</g>
</g>
<a style="color:inherit;" xlink:href="textedit:///Users/tomsegarra/Documents/dev/dummies/lilypond_files/fbb8b59253c216d56fb95dcb083fc91d.ly:25:12:13">
<g transform="translate(34.5836, 9.6455)">
<path stroke-width="0.0759" stroke-linejoin="round" stroke-linecap="round" stroke="currentColor" fill="currentColor" d="M0.7537 -2.3750C1.2490 -2.9527 2.2990 -2.9527 2.7943 -2.3750L2.7943 -2.3750C2.2990 -2.8388 1.2490 -2.8388 0.7537 -2.3750z"/>
</g>
</a>
<a style="color:inherit;" xlink:href="textedit:///Users/tomsegarra/Documents/dev/dummies/lilypond_files/fbb8b59253c216d56fb95dcb083fc91d.ly:24:24:25">
<g transform="translate(18.7556, 7.0955)">
<path transform="scale(0.0034, -0.0034)" d="M215 137c67 0 111 -37 111 -92c0 -90 -111 -182 -215 -182c-67 0 -111 37 -111 92c0 90 111 182 215 182z" fill="currentColor"/>
</g>
</a>
<a style="color:inherit;" xlink:href="textedit:///Users/tomsegarra/Documents/dev/dummies/lilypond_files/fbb8b59253c216d56fb95dcb083fc91d.ly:31:22:23">
<g transform="translate(17.4997, 15.1455)">
<text font-family="serif" font-size="2.0989" text-anchor="start" fill="currentColor">
<tspan>pick</tspan>
</text>
</g>
</a>
<g transform="translate(18.8173, 9.6455)">
<rect x="-0.0617" y="-2.3975" width="0.1233" height="3.0924" ry="0.0400" fill="currentColor"/>
</g>
<a style="color:inherit;" xlink:href="textedit:///Users/tomsegarra/Documents/dev/dummies/lilypond_files/fbb8b59253c216d56fb95dcb083fc91d.ly:24:26:27">
<g transform="translate(22.6029, 7.5205)">
<path transform="scale(0.0034, -0.0034)" d="M215 137c67 0 111 -37 111 -92c0 -90 -111 -182 -215 -182c-67 0 -111 37 -111 92c0 90 111 182 215 182z" fill="currentColor"/>
</g>
</a>
<a style="color:inherit;" xlink:href="textedit:///Users/tomsegarra/Documents/dev/dummies/lilypond_files/fbb8b59253c216d56fb95dcb083fc91d.ly:31:27:28">
<g transform="translate(21.5689, 15.1455)">
<text font-family="serif" font-size="2.0989" text-anchor="start" fill="currentColor">
<tspan>you</tspan>
</text>
</g>
</a>
<g transform="translate(22.6645, 9.6455)">
<rect x="-0.0617" y="-1.9725" width="0.1233" height="2.7592" ry="0.0400" fill="currentColor"/>
</g>
<g transform="translate(32.0605, 9.7348)">
<polygon stroke-linejoin="round" stroke-linecap="round" stroke-width="0.0800" fill="currentColor" stroke="currentColor" points="2.6064 -0.0967 2.6064 0.2313 0.0400 0.1640 0.0400 -0.1640"/>
</g>
<g transform="translate(28.5531, 10.3389)">
<polygon stroke-linejoin="round" stroke-linecap="round" stroke-width="0.0800" fill="currentColor" stroke="currentColor" points="6.1138 -0.0074 6.1138 0.3206 0.0400 0.1640 0.0400 -0.1640"/>
</g>
<a style="color:inherit;" xlink:href="textedit:///Users/tomsegarra/Documents/dev/dummies/lilypond_files/fbb8b59253c216d56fb95dcb083fc91d.ly:24:30:31">
<g transform="translate(25.1942, 7.5205)">
<path transform="scale(0.0034, -0.0034)" d="M215 137c67 0 111 -37 111 -92c0 -90 -111 -182 -215 -182c-67 0 -111 37 -111 92c0 90 111 182 215 182z" fill="currentColor"/>
</g>
</a>
<a style="color:inherit;" xlink:href="textedit:///Users/tomsegarra/Documents/dev/dummies/lilypond_files/fbb8b59253c216d56fb95dcb083fc91d.ly:31:31:32">
<g transform="translate(25.1942, 15.1455)">
<text font-family="serif" font-size="2.0989" text-anchor="start" fill="currentColor">
<tspan>up</tspan>
</text>
</g>
</a>
<g transform="translate(25.2559, 9.6455)">
<rect x="-0.0617" y="-1.9725" width="0.1233" height="2.8211" ry="0.0400" fill="currentColor"/>
</g>
<a style="color:inherit;" xlink:href="textedit:///Users/tomsegarra/Documents/dev/dummies/lilypond_files/fbb8b59253c216d56fb95dcb083fc91d.ly:20:18:19">
<g transform="translate(28.5531, 5.6089)">
<text font-family="sans-serif" font-size="2.2240" text-anchor="start" fill="currentColor">
<tspan>E</tspan>
</text>
</g>
<g transform="translate(29.9530, 4.4197)">
<text font-family="sans-serif" font-size="1.5727" text-anchor="start" fill="currentColor">
<tspan>7</tspan>
</text>
</g>
</a>
<a style="color:inherit;" xlink:href="textedit:///Users/tomsegarra/Documents/dev/dummies/lilypond_files/fbb8b59253c216d56fb95dcb083fc91d.ly:25:4:5">
<g transform="translate(28.5531, 7.5205)">
<path transform="scale(0.0034, -0.0034)" d="M215 137c67 0 111 -37 111 -92c0 -90 -111 -182 -215 -182c-67 0 -111 37 -111 92c0 90 111 182 215 182z" fill="currentColor"/>
</g>
</a>
<g transform="translate(28.6148, 9.6455)">
<rect x="-0.0617" y="-1.9725" width="0.1233" height="2.6675" ry="0.0400" fill="currentColor"/>
</g>
<a style="color:inherit;" xlink:href="textedit:///Users/tomsegarra/Documents/dev/dummies/lilypond_files/fbb8b59253c216d56fb95dcb083fc91d.ly:25:7:8">
<g transform="translate(32.0605, 7.9455)">
<path transform="scale(0.0034, -0.0034)" d="M215 137c67 0 111 -37 111 -92c0 -90 -111 -182 -215 -182c-67 0 -111 37 -111 92c0 90 111 182 215 182z" fill="currentColor"/>
</g>
</a>
<a style="color:inherit;" xlink:href="textedit:///Users/tomsegarra/Documents/dev/dummies/lilypond_files/fbb8b59253c216d56fb95dcb083fc91d.ly:31:34:35">
<g transform="translate(31.0948, 15.1455)">
<text font-family="serif" font-size="2.0989" text-anchor="start" fill="currentColor">
<tspan>and</tspan>
</text>
</g>
</a>
<g transform="translate(32.1222, 9.6455)">
<rect x="-0.0617" y="-1.5475" width="0.1233" height="2.3318" ry="0.0400" fill="currentColor"/>
</g>
<g transform="translate(42.0689, 10.6228)">
<polygon stroke-linejoin="round" stroke-linecap="round" stroke-width="0.0800" fill="currentColor" stroke="currentColor" points="1.1217 -0.1347 1.1217 0.1933 0.0400 0.1640 0.0400 -0.1640"/>
</g>
<g transform="translate(37.0242, 10.4955)">
<polygon stroke-linejoin="round" stroke-linecap="round" stroke-width="0.0800" fill="currentColor" stroke="currentColor" points="1.1217 -0.1347 1.1217 0.1933 0.0400 0.1640 0.0400 -0.1640"/>
</g>
<g transform="translate(37.0242, 11.1889)">
<polygon stroke-linejoin="round" stroke-linecap="round" stroke-width="0.0800" fill="currentColor" stroke="currentColor" points="6.1663 -0.0074 6.1663 0.3206 0.0400 0.1640 0.0400 -0.1640"/>
</g>
<a style="color:inherit;" xlink:href="textedit:///Users/tomsegarra/Documents/dev/dummies/lilypond_files/fbb8b59253c216d56fb95dcb083fc91d.ly:25:11:12">
<g transform="translate(34.5836, 7.9455)">
<path transform="scale(0.0034, -0.0034)" d="M215 137c67 0 111 -37 111 -92c0 -90 -111 -182 -215 -182c-67 0 -111 37 -111 92c0 90 111 182 215 182z" fill="currentColor"/>
</g>
</a>
<a style="color:inherit;" xlink:href="textedit:///Users/tomsegarra/Documents/dev/dummies/lilypond_files/fbb8b59253c216d56fb95dcb083fc91d.ly:31:38:39">
<g transform="translate(34.5836, 15.1455)">
<text font-family="serif" font-size="2.0989" text-anchor="start" fill="currentColor">
<tspan>you</tspan>
</text>
</g>
</a>
<g transform="translate(34.6452, 9.6455)">
<rect x="-0.0617" y="-1.5475" width="0.1233" height="2.3960" ry="0.0400" fill="currentColor"/>
</g>
<a style="color:inherit;" xlink:href="textedit:///Users/tomsegarra/Documents/dev/dummies/lilypond_files/fbb8b59253c216d56fb95dcb083fc91d.ly:25:17:18">
<g transform="translate(37.0242, 7.9455)">
<path transform="scale(0.0034, -0.0034)" d="M215 137c67 0 111 -37 111 -92c0 -90 -111 -182 -215 -182c-67 0 -111 37 -111 92c0 90 111 182 215 182z" fill="currentColor"/>
</g>
</a>
<g color="red">
<g transform="translate(45.5972, 11.3455)">
<polygon stroke-linejoin="round" stroke-linecap="round" stroke-width="0.0800" fill="currentColor" stroke="currentColor" points="3.8407 -0.8574 3.8407 -0.5294 0.0400 0.1640 0.0400 -0.1640"/>
</g>
</g>
<a style="color:inherit;" xlink:href="textedit:///Users/tomsegarra/Documents/dev/dummies/lilypond_files/fbb8b59253c216d56fb95dcb083fc91d.ly:29:16:17">
<g transform="translate(49.3546, 9.6455)">
<path stroke-width="0.0759" stroke-linejoin="round" stroke-linecap="round" stroke="currentColor" fill="currentColor" d="M0.7537 -2.3750C1.4214 -3.0808 3.1934 -3.0808 3.8611 -2.3750L3.8611 -2.3750C3.1934 -2.9670 1.4214 -2.9670 0.7537 -2.3750z"/>
</g>
</a>
</svg>
