<?xml version="1.0" encoding="UTF-8" standalone="no"?>
<svg
   version="1.2"
   width="130.55869mm"
   height="15.688787mm"
   viewBox="0 0 74.296761 8.9277858"
   id="svg426"
   sodipodi:docname="08ea51e9270ff5ea3f09e430353df9af.svg"
   xmlns:inkscape="http://www.inkscape.org/namespaces/inkscape"
   xmlns:sodipodi="http://sodipodi.sourceforge.net/DTD/sodipodi-0.dtd"
   xmlns:xlink="http://www.w3.org/1999/xlink"
   xmlns="http://www.w3.org/2000/svg"
   xmlns:svg="http://www.w3.org/2000/svg">
  <defs
     id="defs430" />
  <sodipodi:namedview
     id="namedview428"
     pagecolor="#ffffff"
     bordercolor="#000000"
     borderopacity="0.25"
     inkscape:showpageshadow="2"
     inkscape:pageopacity="0.0"
     inkscape:pagecheckerboard="0"
     inkscape:deskcolor="#d1d1d1"
     inkscape:document-units="mm" />
  <style
     type="text/css"
     id="style2"><![CDATA[
tspan { white-space: pre; }
]]></style>
  <!-- Page: 1/1 -->
  <g
     transform="translate(74.116513,2.9731136)"
     id="g6">
    <rect
       x="0"
       y="-1.7"
       width="0.1802"
       height="3.4000001"
       ry="0.0000"
       fill="currentColor"
       id="rect4" />
  </g>
  <g
     transform="translate(61.921913,2.9731136)"
     id="g10">
    <rect
       x="0"
       y="-1.7"
       width="0.1802"
       height="3.4000001"
       ry="0.0000"
       fill="currentColor"
       id="rect8" />
  </g>
  <g
     transform="translate(48.880813,2.9731136)"
     id="g14">
    <rect
       x="0"
       y="-1.7"
       width="0.1802"
       height="3.4000001"
       ry="0.0000"
       fill="currentColor"
       id="rect12" />
  </g>
  <g
     transform="translate(35.768313,2.9731136)"
     id="g18">
    <rect
       x="0"
       y="-1.7"
       width="0.1802"
       height="3.4000001"
       ry="0.0000"
       fill="currentColor"
       id="rect16" />
  </g>
  <g
     transform="translate(13.045313,4.6731136)"
     id="g22">
    <line
       stroke-linejoin="round"
       stroke-linecap="round"
       stroke-width="0.0949"
       stroke="currentColor"
       x1="0.047400001"
       y1="0"
       x2="61.203999"
       y2="0"
       id="line20" />
  </g>
  <g
     transform="translate(13.045313,3.8231136)"
     id="g26">
    <line
       stroke-linejoin="round"
       stroke-linecap="round"
       stroke-width="0.0949"
       stroke="currentColor"
       x1="0.047400001"
       y1="0"
       x2="61.203999"
       y2="0"
       id="line24" />
  </g>
  <g
     transform="translate(13.045313,2.9731136)"
     id="g30">
    <line
       stroke-linejoin="round"
       stroke-linecap="round"
       stroke-width="0.0949"
       stroke="currentColor"
       x1="0.047400001"
       y1="0"
       x2="61.203999"
       y2="0"
       id="line28" />
  </g>
  <g
     transform="translate(13.045313,2.1231136)"
     id="g34">
    <line
       stroke-linejoin="round"
       stroke-linecap="round"
       stroke-width="0.0949"
       stroke="currentColor"
       x1="0.047400001"
       y1="0"
       x2="61.203999"
       y2="0"
       id="line32" />
  </g>
  <g
     transform="translate(13.045313,1.2731136)"
     id="g38">
    <line
       stroke-linejoin="round"
       stroke-linecap="round"
       stroke-width="0.0949"
       stroke="currentColor"
       x1="0.047400001"
       y1="0"
       x2="61.203999"
       y2="0"
       id="line36" />
  </g>
  <g
     transform="translate(15.489513,2.9731136)"
     id="g42">
    <rect
       x="0"
       y="-1.7"
       width="0.1802"
       height="3.4000001"
       ry="0.0000"
       fill="currentColor"
       id="rect40" />
  </g>
  <a
     style="color:inherit"
     xlink:href="textedit:///Users/tomsegarra/Documents/dev/dummies/lilypond_files/08ea51e9270ff5ea3f09e430353df9af.ly:19:12:13"
     id="a54"
     transform="translate(-2.9933875,-3.2780864)">
    <g
       transform="translate(2.7762,5.2872)"
       id="g48">
      <text
         font-family="sans-serif"
         font-size="2.224px"
         text-anchor="start"
         fill="currentColor"
         id="text46"><tspan
           id="tspan44">B</tspan></text>
    </g>
    <g
       transform="translate(4.5242,4.9872)"
       id="g52">
      <path
         transform="scale(0.0036,-0.0036)"
         d="m 29,39 -2,-64 v -11 c 0,-22 2,-43 5,-65 44,38 91,80 91,138 0,33 -13,66 -42,66 C 50,103 30,72 29,39 Z m -57,415 c 9,5 18,8 28,8 10,0 19,-3 28,-8 L 21,111 c 25,23 58,36 92,36 51,0 87,-49 87,-103 0,-79 -84,-117 -144,-169 -16,-14 -25,-41 -47,-41 -14,0 -25,13 -25,27 z"
         fill="currentColor"
         id="path50" />
    </g>
  </a>
  <g
     transform="translate(29.385313,3.9797136)"
     id="g58">
    <polygon
       stroke-linejoin="round"
       stroke-linecap="round"
       stroke-width="0.08"
       fill="currentColor"
       stroke="currentColor"
       points="0.04,0.164 0.04,-0.164 1.9907,-0.3206 1.9907,0.0074 "
       id="polygon56" />
  </g>
  <a
     style="color:inherit"
     xlink:href="textedit:///Users/tomsegarra/Documents/dev/dummies/lilypond_files/08ea51e9270ff5ea3f09e430353df9af.ly:19:14:15"
     id="a66"
     transform="translate(-2.9933875,-3.2780864)">
    <g
       transform="translate(6.3446,5.2872)"
       id="g64">
      <text
         font-family="sans-serif"
         font-size="2.224px"
         text-anchor="start"
         fill="currentColor"
         id="text62"><tspan
           id="tspan60">C</tspan></text>
    </g>
  </a>
  <g
     transform="translate(42.497813,3.9797136)"
     id="g70">
    <polygon
       stroke-linejoin="round"
       stroke-linecap="round"
       stroke-width="0.08"
       fill="currentColor"
       stroke="currentColor"
       points="0.04,0.164 0.04,-0.164 1.9907,-0.3206 1.9907,0.0074 "
       id="polygon68" />
  </g>
  <g
     transform="translate(55.538913,3.9797136)"
     id="g74">
    <polygon
       stroke-linejoin="round"
       stroke-linecap="round"
       stroke-width="0.08"
       fill="currentColor"
       stroke="currentColor"
       points="0.04,0.164 0.04,-0.164 1.9907,-0.3206 1.9907,0.0074 "
       id="polygon72" />
  </g>
  <a
     style="color:inherit"
     xlink:href="textedit:///Users/tomsegarra/Documents/dev/dummies/lilypond_files/08ea51e9270ff5ea3f09e430353df9af.ly:19:16:17"
     id="a82"
     transform="translate(-2.9933875,-3.2780864)">
    <g
       transform="translate(9.7426,5.2872)"
       id="g80">
      <text
         font-family="sans-serif"
         font-size="2.224px"
         text-anchor="start"
         fill="currentColor"
         id="text78"><tspan
           id="tspan76">D</tspan></text>
    </g>
  </a>
  <g
     color="#ff0000"
     id="g88"
     transform="translate(-2.9933875,-3.2780864)">
    <g
       transform="translate(34.3478,6.2512)"
       id="g86">
      <rect
         x="-0.061700001"
         y="-1.5475"
         width="0.1233"
         height="2.4022999"
         ry="0.039999999"
         fill="currentColor"
         id="rect84" />
    </g>
  </g>
  <a
     style="color:inherit"
     xlink:href="textedit:///Users/tomsegarra/Documents/dev/dummies/lilypond_files/08ea51e9270ff5ea3f09e430353df9af.ly:19:18:19"
     id="a100"
     transform="translate(-2.9933875,-3.2780864)">
    <g
       transform="translate(13.1407,5.2872)"
       id="g94">
      <text
         font-family="sans-serif"
         font-size="2.224px"
         text-anchor="start"
         fill="currentColor"
         id="text92"><tspan
           id="tspan90">E</tspan></text>
    </g>
    <g
       transform="translate(14.752,4.9872)"
       id="g98">
      <path
         transform="scale(0.0036,-0.0036)"
         d="m 29,39 -2,-64 v -11 c 0,-22 2,-43 5,-65 44,38 91,80 91,138 0,33 -13,66 -42,66 C 50,103 30,72 29,39 Z m -57,415 c 9,5 18,8 28,8 10,0 19,-3 28,-8 L 21,111 c 25,23 58,36 92,36 51,0 87,-49 87,-103 0,-79 -84,-117 -144,-169 -16,-14 -25,-41 -47,-41 -14,0 -25,13 -25,27 z"
         fill="currentColor"
         id="path96" />
    </g>
  </a>
  <g
     color="#ff0000"
     id="g108"
     transform="translate(-2.9933875,-3.2780864)">
    <a
       style="color:inherit"
       xlink:href="textedit:///Users/tomsegarra/Documents/dev/dummies/lilypond_files/08ea51e9270ff5ea3f09e430353df9af.ly:25:14:15"
       id="a106">
      <g
         transform="translate(34.2861,4.5512)"
         id="g104">
        <path
           transform="scale(0.0034,-0.0034)"
           d="m 215,137 c 67,0 111,-37 111,-92 0,-90 -111,-182 -215,-182 -67,0 -111,37 -111,92 0,90 111,182 215,182 z"
           fill="currentColor"
           id="path102" />
      </g>
    </a>
  </g>
  <g
     color="#ff0000"
     id="g116"
     transform="translate(-2.9933875,-3.2780864)">
    <a
       style="color:inherit"
       xlink:href="textedit:///Users/tomsegarra/Documents/dev/dummies/lilypond_files/08ea51e9270ff5ea3f09e430353df9af.ly:25:4:5"
       id="a114">
      <g
         transform="translate(26.1213,6.2512)"
         id="g112">
        <path
           transform="scale(0.0034,-0.0034)"
           d="m 215,137 c 67,0 111,-37 111,-92 0,-90 -111,-182 -215,-182 -67,0 -111,37 -111,92 0,90 111,182 215,182 z"
           fill="currentColor"
           id="path110" />
      </g>
    </a>
  </g>
  <g
     transform="translate(13.045313,3.8231136)"
     id="g120">
    <path
       transform="scale(0.0034,-0.0034)"
       d="m 208,-469 c 37,0 129,18 129,195 0,22 0,44 -2,66 -3,-1 -34,-5 -67,-5 C 113,-213 2,-68 2,90 c 0,144 99,253 189,367 -31,96 -43,143 -43,289 0,92 41,179 113,237 7,6 17,6 23,0 55,-66 108,-201 108,-295 0,-114 -62,-207 -133,-297 18,-59 34,-118 48,-178 2,0 3,1 5,1 126,0 207,-105 207,-213 0,-92 -60,-170 -141,-198 2,-26 3,-53 3,-79 0,-17 -1,-33 -2,-50 -6,-100 -77,-187 -174,-187 -88,0 -158,72 -158,161 0,46 42,83 90,83 43,0 76,-38 76,-83 0,-42 -34,-76 -76,-76 h -9 c 19,-25 47,-41 80,-41 z m 166,315 c 43,18 80,65 80,124 0,67 -48,134 -125,146 16,-76 36,-186 45,-270 z M 64,17 c 0,-115 115,-186 207,-186 1,0 34,0 60,4 -6,51 -21,160 -47,282 -59,-7 -93,-48 -93,-92 0,-34 20,-69 63,-93 5,-5 7,-11 7,-16 0,-12 -10,-23 -22,-23 -15,0 -105,52 -105,153 0,72 47,142 129,162 -11,47 -24,94 -38,141 C 144,248 64,146 64,17 Z M 317,857 C 241,814 195,734 195,647 c 0,-35 11,-82 30,-146 58,79 105,161 105,260 0,24 0,48 -13,96 z"
       fill="currentColor"
       id="path118" />
  </g>
  <a
     style="color:inherit"
     xlink:href="textedit:///Users/tomsegarra/Documents/dev/dummies/lilypond_files/08ea51e9270ff5ea3f09e430353df9af.ly:22:1:9"
     id="a130"
     transform="translate(-2.9933875,-3.2780864)">
    <g
       transform="translate(19.6632,4.5512)"
       id="g124">
      <path
         transform="scale(0.0034,-0.0034)"
         d="m 217,-311 c 0,-11 -8,-19 -19,-19 -11,0 -20,8 -20,19 v 142 l -81,-30 v -156 c 0,-11 -9,-20 -20,-20 -11,0 -19,9 -19,20 v 142 l -28,-11 c -3,-1 -5,-1 -8,-1 -12,0 -22,10 -22,23 v 57 c 0,9 6,18 15,21 l 43,16 V 49 L 30,39 C 27,38 25,38 22,38 10,38 0,47 0,60 v 57 c 0,9 6,18 15,21 l 43,16 v 157 c 0,11 8,19 19,19 11,0 20,-8 20,-19 V 169 l 81,30 v 156 c 0,11 9,20 20,20 11,0 19,-9 19,-20 V 213 l 28,11 c 3,1 5,1 8,1 12,0 22,-10 22,-23 v -57 c 0,-9 -6,-18 -15,-21 L 217,108 V -49 l 28,10 c 3,1 5,1 8,1 12,0 22,-9 22,-22 v -57 c 0,-9 -6,-18 -15,-21 l -43,-16 z M 97,64 V -94 l 81,30 V 94 Z"
         fill="currentColor"
         id="path122" />
    </g>
    <g
       transform="translate(20.5982,5.8262)"
       id="g128">
      <path
         transform="scale(0.0034,-0.0034)"
         d="m 217,-311 c 0,-11 -8,-19 -19,-19 -11,0 -20,8 -20,19 v 142 l -81,-30 v -156 c 0,-11 -9,-20 -20,-20 -11,0 -19,9 -19,20 v 142 l -28,-11 c -3,-1 -5,-1 -8,-1 -12,0 -22,10 -22,23 v 57 c 0,9 6,18 15,21 l 43,16 V 49 L 30,39 C 27,38 25,38 22,38 10,38 0,47 0,60 v 57 c 0,9 6,18 15,21 l 43,16 v 157 c 0,11 8,19 19,19 11,0 20,-8 20,-19 V 169 l 81,30 v 156 c 0,11 9,20 20,20 11,0 19,-9 19,-20 V 213 l 28,11 c 3,1 5,1 8,1 12,0 22,-10 22,-23 v -57 c 0,-9 -6,-18 -15,-21 L 217,108 V -49 l 28,10 c 3,1 5,1 8,1 12,0 22,-9 22,-22 v -57 c 0,-9 -6,-18 -15,-21 l -43,-16 z M 97,64 V -94 l 81,30 V 94 Z"
         fill="currentColor"
         id="path126" />
    </g>
  </a>
  <g
     transform="translate(19.689813,2.9731136)"
     id="g134">
    <path
       transform="scale(0.0034,-0.0034)"
       d="m 358,29 c -30,0 -74,23 -74,73 0,38 27,76 71,76 4,0 7,0 11,-1 -27,36 -69,59 -116,59 -106,0 -113,-74 -113,-188 0,-15 1,-31 1,-48 0,-17 -1,-33 -1,-48 0,-114 7,-188 113,-188 79,0 136,70 155,150 2,7 7,10 13,10 7,0 14,-5 14,-13 0,-21 -50,-175 -182,-175 C 191,-264 0,-244 0,0 0,63 18,264 250,264 365,264 424,155 424,99 424,60 394,29 358,29 Z"
       fill="currentColor"
       id="path132" />
  </g>
  <a
     style="color:inherit"
     xlink:href="textedit:///Users/tomsegarra/Documents/dev/dummies/lilypond_files/08ea51e9270ff5ea3f09e430353df9af.ly:36:13:14"
     id="a142"
     transform="translate(-2.9933875,-3.2780864)">
    <g
       transform="translate(25.1557,11.7512)"
       id="g140">
      <text
         font-family="serif"
         font-size="2.0989px"
         text-anchor="start"
         fill="currentColor"
         id="text138"><tspan
           id="tspan136">one</tspan></text>
    </g>
  </a>
  <g
     transform="translate(24.614413,2.5481136)"
     id="g146">
    <path
       transform="scale(0.0034,-0.0034)"
       d="M 0,0 C 0,31 25,56 56,56 87,56 111,31 111,0 111,-31 87,-56 56,-56 25,-56 0,-31 0,0 Z"
       fill="currentColor"
       id="path144" />
  </g>
  <g
     color="#ff0000"
     id="g152"
     transform="translate(-2.9933875,-3.2780864)">
    <g
       transform="translate(26.183,6.2512)"
       id="g150">
      <rect
         x="-0.061700001"
         y="0.1525"
         width="0.1233"
         height="2.6809001"
         ry="0.039999999"
         fill="currentColor"
         id="rect148" />
    </g>
  </g>
  <g
     color="#ff0000"
     id="g160"
     transform="translate(-2.9933875,-3.2780864)">
    <a
       style="color:inherit"
       xlink:href="textedit:///Users/tomsegarra/Documents/dev/dummies/lilypond_files/08ea51e9270ff5ea3f09e430353df9af.ly:25:18:19"
       id="a158">
      <g
         transform="translate(36.1935,4.9762)"
         id="g156">
        <path
           transform="scale(0.0034,-0.0034)"
           d="m 215,137 c 67,0 111,-37 111,-92 0,-90 -111,-182 -215,-182 -67,0 -111,37 -111,92 0,90 111,182 215,182 z"
           fill="currentColor"
           id="path154" />
      </g>
    </a>
  </g>
  <g
     color="#ff0000"
     id="g166"
     transform="translate(-2.9933875,-3.2780864)">
    <g
       transform="translate(36.2552,6.2512)"
       id="g164">
      <rect
         x="-0.061700001"
         y="-1.1224999"
         width="0.1233"
         height="2.8225"
         ry="0.039999999"
         fill="currentColor"
         id="rect162" />
    </g>
  </g>
  <g
     color="#000000"
     id="g174"
     transform="translate(-2.9933875,-3.2780864)">
    <a
       style="color:inherit"
       xlink:href="textedit:///Users/tomsegarra/Documents/dev/dummies/lilypond_files/08ea51e9270ff5ea3f09e430353df9af.ly:28:4:5"
       id="a172">
      <g
         transform="translate(39.842,7.1012)"
         id="g170">
        <path
           transform="scale(0.0034,-0.0034)"
           d="m 215,137 c 67,0 111,-37 111,-92 0,-90 -111,-182 -215,-182 -67,0 -111,37 -111,92 0,90 111,182 215,182 z"
           fill="currentColor"
           id="path168" />
      </g>
    </a>
  </g>
  <g
     transform="translate(38.335013,3.3981136)"
     id="g178">
    <path
       transform="scale(0.0034,-0.0034)"
       d="M 0,0 C 0,31 25,56 56,56 87,56 111,31 111,0 111,-31 87,-56 56,-56 25,-56 0,-31 0,0 Z"
       fill="currentColor"
       id="path176" />
  </g>
  <g
     color="#000000"
     id="g184"
     transform="translate(-2.9933875,-3.2780864)">
    <g
       transform="translate(40.8877,6.2512)"
       id="g182">
      <rect
         x="-0.061700001"
         y="-2.125"
         width="0.1233"
         height="2.8225"
         ry="0.039999999"
         fill="currentColor"
         id="rect180" />
    </g>
  </g>
  <g
     color="#ff0000"
     id="g190"
     transform="translate(-2.9933875,-3.2780864)">
    <g
       transform="translate(32.4404,6.2512)"
       id="g188">
      <rect
         x="-0.061700001"
         y="-1.1224999"
         width="0.1233"
         height="2.1243999"
         ry="0.039999999"
         fill="currentColor"
         id="rect186" />
    </g>
  </g>
  <g
     color="#000000"
     id="g198"
     transform="translate(-2.9933875,-3.2780864)">
    <a
       style="color:inherit"
       xlink:href="textedit:///Users/tomsegarra/Documents/dev/dummies/lilypond_files/08ea51e9270ff5ea3f09e430353df9af.ly:28:9:10"
       id="a196">
      <g
         transform="translate(43.5838,5.4012)"
         id="g194">
        <path
           transform="scale(0.0034,-0.0034)"
           d="m 215,137 c 67,0 111,-37 111,-92 0,-90 -111,-182 -215,-182 -67,0 -111,37 -111,92 0,90 111,182 215,182 z"
           fill="currentColor"
           id="path192" />
      </g>
    </a>
  </g>
  <g
     color="#000000"
     id="g204"
     transform="translate(-2.9933875,-3.2780864)">
    <g
       transform="translate(43.6455,6.2512)"
       id="g202">
      <rect
         x="-0.061700001"
         y="-0.69749999"
         width="0.1233"
         height="2.8225"
         ry="0.039999999"
         fill="currentColor"
         id="rect200" />
    </g>
  </g>
  <g
     color="#000000"
     id="g210"
     transform="translate(-2.9933875,-3.2780864)">
    <g
       transform="translate(43.7071,8.3362)"
       id="g208">
      <path
         transform="scale(0.0034,-0.0034)"
         d="M 0,0 H -18 V 250 H 0 Z m 0,0 v 250 c 96,59 222,149 222,259 0,57 -15,111 -40,162 -3,17 10,29 24,29 8,0 16,-5 21,-13 25,-56 40,-116 40,-178 C 267,306 0,203 0,0 Z"
         fill="currentColor"
         id="path206" />
    </g>
  </g>
  <g
     color="#ff0000"
     id="g218"
     transform="translate(-2.9933875,-3.2780864)">
    <a
       style="color:inherit"
       xlink:href="textedit:///Users/tomsegarra/Documents/dev/dummies/lilypond_files/08ea51e9270ff5ea3f09e430353df9af.ly:25:12:13"
       id="a216">
      <g
         transform="translate(32.3787,4.9762)"
         id="g214">
        <path
           transform="scale(0.0034,-0.0034)"
           d="m 215,137 c 67,0 111,-37 111,-92 0,-90 -111,-182 -215,-182 -67,0 -111,37 -111,92 0,90 111,182 215,182 z"
           fill="currentColor"
           id="path212" />
      </g>
    </a>
  </g>
  <g
     color="#000000"
     id="g226"
     transform="translate(-2.9933875,-3.2780864)">
    <a
       style="color:inherit"
       xlink:href="textedit:///Users/tomsegarra/Documents/dev/dummies/lilypond_files/08ea51e9270ff5ea3f09e430353df9af.ly:28:13:14"
       id="a224">
      <g
         transform="translate(45.4912,4.9762)"
         id="g222">
        <path
           transform="scale(0.0034,-0.0034)"
           d="m 215,137 c 67,0 111,-37 111,-92 0,-90 -111,-182 -215,-182 -67,0 -111,37 -111,92 0,90 111,182 215,182 z"
           fill="currentColor"
           id="path220" />
      </g>
    </a>
  </g>
  <g
     color="#000000"
     id="g232"
     transform="translate(-2.9933875,-3.2780864)">
    <g
       transform="translate(45.5529,6.2512)"
       id="g230">
      <rect
         x="-0.061700001"
         y="-1.1224999"
         width="0.1233"
         height="2.1243999"
         ry="0.039999999"
         fill="currentColor"
         id="rect228" />
    </g>
  </g>
  <g
     color="#000000"
     id="g240"
     transform="translate(-2.9933875,-3.2780864)">
    <a
       style="color:inherit"
       xlink:href="textedit:///Users/tomsegarra/Documents/dev/dummies/lilypond_files/08ea51e9270ff5ea3f09e430353df9af.ly:28:15:16"
       id="a238">
      <g
         transform="translate(47.3986,4.5512)"
         id="g236">
        <path
           transform="scale(0.0034,-0.0034)"
           d="m 215,137 c 67,0 111,-37 111,-92 0,-90 -111,-182 -215,-182 -67,0 -111,37 -111,92 0,90 111,182 215,182 z"
           fill="currentColor"
           id="path234" />
      </g>
    </a>
  </g>
  <g
     color="#000000"
     id="g246"
     transform="translate(-2.9933875,-3.2780864)">
    <g
       transform="translate(47.4602,6.2512)"
       id="g244">
      <rect
         x="-0.061700001"
         y="-1.5475"
         width="0.1233"
         height="2.4022999"
         ry="0.039999999"
         fill="currentColor"
         id="rect242" />
    </g>
  </g>
  <g
     color="#ff0000"
     id="g252"
     transform="translate(-2.9933875,-3.2780864)">
    <g
       transform="translate(30.002,8.3362)"
       id="g250">
      <path
         transform="scale(0.0034,-0.0034)"
         d="M 0,0 H -18 V 250 H 0 Z m 0,0 v 250 c 96,59 222,149 222,259 0,57 -15,111 -40,162 -3,17 10,29 24,29 8,0 16,-5 21,-13 25,-56 40,-116 40,-178 C 267,306 0,203 0,0 Z"
         fill="currentColor"
         id="path248" />
    </g>
  </g>
  <g
     color="#000000"
     id="g260"
     transform="translate(-2.9933875,-3.2780864)">
    <a
       style="color:inherit"
       xlink:href="textedit:///Users/tomsegarra/Documents/dev/dummies/lilypond_files/08ea51e9270ff5ea3f09e430353df9af.ly:28:19:20"
       id="a258">
      <g
         transform="translate(49.306,4.9762)"
         id="g256">
        <path
           transform="scale(0.0034,-0.0034)"
           d="m 215,137 c 67,0 111,-37 111,-92 0,-90 -111,-182 -215,-182 -67,0 -111,37 -111,92 0,90 111,182 215,182 z"
           fill="currentColor"
           id="path254" />
      </g>
    </a>
  </g>
  <g
     color="#000000"
     id="g266"
     transform="translate(-2.9933875,-3.2780864)">
    <g
       transform="translate(49.3676,6.2512)"
       id="g264">
      <rect
         x="-0.061700001"
         y="-1.1224999"
         width="0.1233"
         height="2.8225"
         ry="0.039999999"
         fill="currentColor"
         id="rect262" />
    </g>
  </g>
  <g
     color="#ff0000"
     id="g272"
     transform="translate(-2.9933875,-3.2780864)">
    <g
       transform="translate(29.9404,6.2512)"
       id="g270">
      <rect
         x="-0.061700001"
         y="-0.69749999"
         width="0.1233"
         height="2.8225"
         ry="0.039999999"
         fill="currentColor"
         id="rect268" />
    </g>
  </g>
  <g
     color="#000000"
     id="g280"
     transform="translate(-2.9933875,-3.2780864)">
    <a
       style="color:inherit"
       xlink:href="textedit:///Users/tomsegarra/Documents/dev/dummies/lilypond_files/08ea51e9270ff5ea3f09e430353df9af.ly:28:24:25"
       id="a278">
      <g
         transform="translate(52.9544,6.6762)"
         id="g276">
        <path
           transform="scale(0.0034,-0.0034)"
           d="m 215,137 c 67,0 111,-37 111,-92 0,-90 -111,-182 -215,-182 -67,0 -111,37 -111,92 0,90 111,182 215,182 z"
           fill="currentColor"
           id="path274" />
      </g>
    </a>
  </g>
  <g
     transform="translate(51.447513,3.3981136)"
     id="g284">
    <path
       transform="scale(0.0034,-0.0034)"
       d="M 0,0 C 0,31 25,56 56,56 87,56 111,31 111,0 111,-31 87,-56 56,-56 25,-56 0,-31 0,0 Z"
       fill="currentColor"
       id="path282" />
  </g>
  <g
     color="#000000"
     id="g290"
     transform="translate(-2.9933875,-3.2780864)">
    <g
       transform="translate(54.0002,6.2512)"
       id="g288">
      <rect
         x="-0.061700001"
         y="-2.55"
         width="0.1233"
         height="2.8225"
         ry="0.039999999"
         fill="currentColor"
         id="rect286" />
    </g>
  </g>
  <a
     style="color:inherit"
     xlink:href="textedit:///Users/tomsegarra/Documents/dev/dummies/lilypond_files/08ea51e9270ff5ea3f09e430353df9af.ly:36:17:18"
     id="a298"
     transform="translate(-2.9933875,-3.2780864)">
    <g
       transform="translate(28.913,11.7512)"
       id="g296">
      <text
         font-family="serif"
         font-size="2.0989px"
         text-anchor="start"
         fill="currentColor"
         id="text294"><tspan
           id="tspan292">day</tspan></text>
    </g>
  </a>
  <g
     color="#ff0000"
     id="g306"
     transform="translate(-2.9933875,-3.2780864)">
    <a
       style="color:inherit"
       xlink:href="textedit:///Users/tomsegarra/Documents/dev/dummies/lilypond_files/08ea51e9270ff5ea3f09e430353df9af.ly:31:4:5"
       id="a304">
      <g
         transform="translate(56.6249,5.4012)"
         id="g302">
        <path
           transform="scale(0.0034,-0.0034)"
           d="m 215,137 c 67,0 111,-37 111,-92 0,-90 -111,-182 -215,-182 -67,0 -111,37 -111,92 0,90 111,182 215,182 z"
           fill="currentColor"
           id="path300" />
      </g>
    </a>
  </g>
  <g
     color="#ff0000"
     id="g312"
     transform="translate(-2.9933875,-3.2780864)">
    <g
       transform="translate(56.6865,6.2512)"
       id="g310">
      <rect
         x="-0.061700001"
         y="-0.69749999"
         width="0.1233"
         height="2.8225"
         ry="0.039999999"
         fill="currentColor"
         id="rect308" />
    </g>
  </g>
  <g
     color="#ff0000"
     id="g318"
     transform="translate(-2.9933875,-3.2780864)">
    <g
       transform="translate(56.7482,8.3362)"
       id="g316">
      <path
         transform="scale(0.0034,-0.0034)"
         d="M 0,0 H -18 V 250 H 0 Z m 0,0 v 250 c 96,59 222,149 222,259 0,57 -15,111 -40,162 -3,17 10,29 24,29 8,0 16,-5 21,-13 25,-56 40,-116 40,-178 C 267,306 0,203 0,0 Z"
         fill="currentColor"
         id="path314" />
    </g>
  </g>
  <g
     color="#ff0000"
     id="g326"
     transform="translate(-2.9933875,-3.2780864)">
    <a
       style="color:inherit"
       xlink:href="textedit:///Users/tomsegarra/Documents/dev/dummies/lilypond_files/08ea51e9270ff5ea3f09e430353df9af.ly:25:9:10"
       id="a324">
      <g
         transform="translate(29.8787,5.4012)"
         id="g322">
        <path
           transform="scale(0.0034,-0.0034)"
           d="m 215,137 c 67,0 111,-37 111,-92 0,-90 -111,-182 -215,-182 -67,0 -111,37 -111,92 0,90 111,182 215,182 z"
           fill="currentColor"
           id="path320" />
      </g>
    </a>
  </g>
  <g
     color="#ff0000"
     id="g334"
     transform="translate(-2.9933875,-3.2780864)">
    <a
       style="color:inherit"
       xlink:href="textedit:///Users/tomsegarra/Documents/dev/dummies/lilypond_files/08ea51e9270ff5ea3f09e430353df9af.ly:31:7:8"
       id="a332">
      <g
         transform="translate(58.5323,4.9762)"
         id="g330">
        <path
           transform="scale(0.0034,-0.0034)"
           d="m 215,137 c 67,0 111,-37 111,-92 0,-90 -111,-182 -215,-182 -67,0 -111,37 -111,92 0,90 111,182 215,182 z"
           fill="currentColor"
           id="path328" />
      </g>
    </a>
  </g>
  <g
     color="#ff0000"
     id="g340"
     transform="translate(-2.9933875,-3.2780864)">
    <g
       transform="translate(58.5939,6.2512)"
       id="g338">
      <rect
         x="-0.061700001"
         y="-1.1224999"
         width="0.1233"
         height="2.1243999"
         ry="0.039999999"
         fill="currentColor"
         id="rect336" />
    </g>
  </g>
  <g
     color="#ff0000"
     id="g348"
     transform="translate(-2.9933875,-3.2780864)">
    <a
       style="color:inherit"
       xlink:href="textedit:///Users/tomsegarra/Documents/dev/dummies/lilypond_files/08ea51e9270ff5ea3f09e430353df9af.ly:31:9:10"
       id="a346">
      <g
         transform="translate(60.4396,4.5512)"
         id="g344">
        <path
           transform="scale(0.0034,-0.0034)"
           d="m 215,137 c 67,0 111,-37 111,-92 0,-90 -111,-182 -215,-182 -67,0 -111,37 -111,92 0,90 111,182 215,182 z"
           fill="currentColor"
           id="path342" />
      </g>
    </a>
  </g>
  <g
     color="#ff0000"
     id="g354"
     transform="translate(-2.9933875,-3.2780864)">
    <g
       transform="translate(60.5013,6.2512)"
       id="g352">
      <rect
         x="-0.061700001"
         y="-1.5475"
         width="0.1233"
         height="2.4022999"
         ry="0.039999999"
         fill="currentColor"
         id="rect350" />
    </g>
  </g>
  <g
     color="#ff0000"
     id="g362"
     transform="translate(-2.9933875,-3.2780864)">
    <a
       style="color:inherit"
       xlink:href="textedit:///Users/tomsegarra/Documents/dev/dummies/lilypond_files/08ea51e9270ff5ea3f09e430353df9af.ly:31:13:14"
       id="a360">
      <g
         transform="translate(62.347,4.9762)"
         id="g358">
        <path
           transform="scale(0.0034,-0.0034)"
           d="m 215,137 c 67,0 111,-37 111,-92 0,-90 -111,-182 -215,-182 -67,0 -111,37 -111,92 0,90 111,182 215,182 z"
           fill="currentColor"
           id="path356" />
      </g>
    </a>
  </g>
  <g
     color="#ff0000"
     id="g368"
     transform="translate(-2.9933875,-3.2780864)">
    <g
       transform="translate(62.4087,6.2512)"
       id="g366">
      <rect
         x="-0.061700001"
         y="-1.1224999"
         width="0.1233"
         height="2.8225"
         ry="0.039999999"
         fill="currentColor"
         id="rect364" />
    </g>
  </g>
  <g
     color="#000000"
     id="g376"
     transform="translate(-2.9933875,-3.2780864)">
    <a
       style="color:inherit"
       xlink:href="textedit:///Users/tomsegarra/Documents/dev/dummies/lilypond_files/08ea51e9270ff5ea3f09e430353df9af.ly:34:4:5"
       id="a374">
      <g
         transform="translate(66.1254,5.8262)"
         id="g372">
        <path
           transform="scale(0.0034,-0.0034)"
           d="m 215,137 c 67,0 111,-37 111,-92 0,-90 -111,-182 -215,-182 -67,0 -111,37 -111,92 0,90 111,182 215,182 z"
           fill="currentColor"
           id="path370" />
      </g>
    </a>
  </g>
  <g
     color="#000000"
     id="g382"
     transform="translate(-2.9933875,-3.2780864)">
    <g
       transform="translate(66.187,6.2512)"
       id="g380">
      <rect
         x="-0.061700001"
         y="-0.27250001"
         width="0.1233"
         height="2.8225"
         ry="0.039999999"
         fill="currentColor"
         id="rect378" />
    </g>
  </g>
  <g
     color="#000000"
     id="g390"
     transform="translate(-2.9933875,-3.2780864)">
    <a
       style="color:inherit"
       xlink:href="textedit:///Users/tomsegarra/Documents/dev/dummies/lilypond_files/08ea51e9270ff5ea3f09e430353df9af.ly:34:8:9"
       id="a388">
      <g
         transform="translate(68.9308,5.4012)"
         id="g386">
        <path
           transform="scale(0.0034,-0.0034)"
           d="m 215,137 c 67,0 111,-37 111,-92 0,-90 -111,-182 -215,-182 -67,0 -111,37 -111,92 0,90 111,182 215,182 z"
           fill="currentColor"
           id="path384" />
      </g>
    </a>
  </g>
  <g
     color="#000000"
     id="g396"
     transform="translate(-2.9933875,-3.2780864)">
    <g
       transform="translate(68.9924,6.2512)"
       id="g394">
      <rect
         x="-0.061700001"
         y="-0.69749999"
         width="0.1233"
         height="2.8225"
         ry="0.039999999"
         fill="currentColor"
         id="rect392" />
    </g>
  </g>
  <g
     color="#000000"
     id="g404"
     transform="translate(-2.9933875,-3.2780864)">
    <a
       style="color:inherit"
       xlink:href="textedit:///Users/tomsegarra/Documents/dev/dummies/lilypond_files/08ea51e9270ff5ea3f09e430353df9af.ly:34:10:11"
       id="a402">
      <g
         transform="translate(71.7362,4.9762)"
         id="g400">
        <path
           transform="scale(0.0034,-0.0034)"
           d="m 215,137 c 67,0 111,-37 111,-92 0,-90 -111,-182 -215,-182 -67,0 -111,37 -111,92 0,90 111,182 215,182 z"
           fill="currentColor"
           id="path398" />
      </g>
    </a>
  </g>
  <g
     color="#000000"
     id="g410"
     transform="translate(-2.9933875,-3.2780864)">
    <g
       transform="translate(71.7979,6.2512)"
       id="g408">
      <rect
         x="-0.061700001"
         y="-1.1224999"
         width="0.1233"
         height="2.8225"
         ry="0.039999999"
         fill="currentColor"
         id="rect406" />
    </g>
  </g>
  <g
     color="#000000"
     id="g418"
     transform="translate(-2.9933875,-3.2780864)">
    <a
       style="color:inherit"
       xlink:href="textedit:///Users/tomsegarra/Documents/dev/dummies/lilypond_files/08ea51e9270ff5ea3f09e430353df9af.ly:34:12:13"
       id="a416">
      <g
         transform="translate(74.5416,4.5512)"
         id="g414">
        <path
           transform="scale(0.0034,-0.0034)"
           d="m 215,137 c 67,0 111,-37 111,-92 0,-90 -111,-182 -215,-182 -67,0 -111,37 -111,92 0,90 111,182 215,182 z"
           fill="currentColor"
           id="path412" />
      </g>
    </a>
  </g>
  <g
     color="#000000"
     id="g424"
     transform="translate(-2.9933875,-3.2780864)">
    <g
       transform="translate(74.6033,6.2512)"
       id="g422">
      <rect
         x="-0.061700001"
         y="-1.5475"
         width="0.1233"
         height="2.8225"
         ry="0.039999999"
         fill="currentColor"
         id="rect420" />
    </g>
  </g>
</svg>
