<svg xmlns="http://www.w3.org/2000/svg" xmlns:xlink="http://www.w3.org/1999/xlink" version="1.2" width="138.94mm" height="297.00mm" viewBox="0 0 79.0663 169.0094">
<style type="text/css">
<![CDATA[
tspan { white-space: pre; }
]]>
</style>
<!-- Page: 1/1 -->
<g transform="translate(77.1099, 6.2512)">
<rect x="0.0000" y="-1.7000" width="0.1802" height="3.4000" ry="0.0000" fill="currentColor"/>
</g>
<g transform="translate(64.9153, 6.2512)">
<rect x="0.0000" y="-1.7000" width="0.1802" height="3.4000" ry="0.0000" fill="currentColor"/>
</g>
<g transform="translate(51.8742, 6.2512)">
<rect x="0.0000" y="-1.7000" width="0.1802" height="3.4000" ry="0.0000" fill="currentColor"/>
</g>
<g transform="translate(38.7617, 6.2512)">
<rect x="0.0000" y="-1.7000" width="0.1802" height="3.4000" ry="0.0000" fill="currentColor"/>
</g>
<g transform="translate(16.0387, 7.9512)">
<line stroke-linejoin="round" stroke-linecap="round" stroke-width="0.0949" stroke="currentColor" x1="0.0474" y1="0" x2="61.2040" y2="0"/>
</g>
<g transform="translate(16.0387, 7.1012)">
<line stroke-linejoin="round" stroke-linecap="round" stroke-width="0.0949" stroke="currentColor" x1="0.0474" y1="0" x2="61.2040" y2="0"/>
</g>
<g transform="translate(16.0387, 6.2512)">
<line stroke-linejoin="round" stroke-linecap="round" stroke-width="0.0949" stroke="currentColor" x1="0.0474" y1="0" x2="61.2040" y2="0"/>
</g>
<g transform="translate(16.0387, 5.4012)">
<line stroke-linejoin="round" stroke-linecap="round" stroke-width="0.0949" stroke="currentColor" x1="0.0474" y1="0" x2="61.2040" y2="0"/>
</g>
<g transform="translate(16.0387, 4.5512)">
<line stroke-linejoin="round" stroke-linecap="round" stroke-width="0.0949" stroke="currentColor" x1="0.0474" y1="0" x2="61.2040" y2="0"/>
</g>
<g transform="translate(18.4829, 6.2512)">
<rect x="0.0000" y="-1.7000" width="0.1802" height="3.4000" ry="0.0000" fill="currentColor"/>
</g>
<a style="color:inherit;" xlink:href="textedit:///Users/tomsegarra/Documents/dev/dummies/lilypond_files/08ea51e9270ff5ea3f09e430353df9af.ly:19:12:13">
<g transform="translate(2.7762, 5.2872)">
<text font-family="sans-serif" font-size="2.2240" text-anchor="start" fill="currentColor">
<tspan>B</tspan>
</text>
</g>
<g transform="translate(4.5242, 4.9872)">
<path transform="scale(0.0036, -0.0036)" d="M29 39l-2 -64v-11c0 -22 2 -43 5 -65c44 38 91 80 91 138c0 33 -13 66 -42 66c-31 0 -51 -31 -52 -64zM-28 454c9 5 18 8 28 8s19 -3 28 -8l-7 -343c25 23 58 36 92 36c51 0 87 -49 87 -103c0 -79 -84 -117 -144 -169c-16 -14 -25 -41 -47 -41c-14 0 -25 13 -25 27z" fill="currentColor"/>
</g>
</a>
<g transform="translate(32.3787, 7.2578)">
<polygon stroke-linejoin="round" stroke-linecap="round" stroke-width="0.0800" fill="currentColor" stroke="currentColor" points="1.9907 -0.3206 1.9907 0.0074 0.0400 0.1640 0.0400 -0.1640"/>
</g>
<a style="color:inherit;" xlink:href="textedit:///Users/tomsegarra/Documents/dev/dummies/lilypond_files/08ea51e9270ff5ea3f09e430353df9af.ly:19:14:15">
<g transform="translate(6.3446, 5.2872)">
<text font-family="sans-serif" font-size="2.2240" text-anchor="start" fill="currentColor">
<tspan>C</tspan>
</text>
</g>
</a>
<g transform="translate(45.4912, 7.2578)">
<polygon stroke-linejoin="round" stroke-linecap="round" stroke-width="0.0800" fill="currentColor" stroke="currentColor" points="1.9907 -0.3206 1.9907 0.0074 0.0400 0.1640 0.0400 -0.1640"/>
</g>
<g transform="translate(58.5323, 7.2578)">
<polygon stroke-linejoin="round" stroke-linecap="round" stroke-width="0.0800" fill="currentColor" stroke="currentColor" points="1.9907 -0.3206 1.9907 0.0074 0.0400 0.1640 0.0400 -0.1640"/>
</g>
<a style="color:inherit;" xlink:href="textedit:///Users/tomsegarra/Documents/dev/dummies/lilypond_files/08ea51e9270ff5ea3f09e430353df9af.ly:19:16:17">
<g transform="translate(9.7426, 5.2872)">
<text font-family="sans-serif" font-size="2.2240" text-anchor="start" fill="currentColor">
<tspan>D</tspan>
</text>
</g>
</a>
<g color="red">
<g transform="translate(34.3478, 6.2512)">
<rect x="-0.0617" y="-1.5475" width="0.1233" height="2.4023" ry="0.0400" fill="currentColor"/>
</g>
</g>
<a style="color:inherit;" xlink:href="textedit:///Users/tomsegarra/Documents/dev/dummies/lilypond_files/08ea51e9270ff5ea3f09e430353df9af.ly:19:18:19">
<g transform="translate(13.1407, 5.2872)">
<text font-family="sans-serif" font-size="2.2240" text-anchor="start" fill="currentColor">
<tspan>E</tspan>
</text>
</g>
<g transform="translate(14.7520, 4.9872)">
<path transform="scale(0.0036, -0.0036)" d="M29 39l-2 -64v-11c0 -22 2 -43 5 -65c44 38 91 80 91 138c0 33 -13 66 -42 66c-31 0 -51 -31 -52 -64zM-28 454c9 5 18 8 28 8s19 -3 28 -8l-7 -343c25 23 58 36 92 36c51 0 87 -49 87 -103c0 -79 -84 -117 -144 -169c-16 -14 -25 -41 -47 -41c-14 0 -25 13 -25 27z" fill="currentColor"/>
</g>
</a>
<g color="red">
<a style="color:inherit;" xlink:href="textedit:///Users/tomsegarra/Documents/dev/dummies/lilypond_files/08ea51e9270ff5ea3f09e430353df9af.ly:25:14:15">
<g transform="translate(34.2861, 4.5512)">
<path transform="scale(0.0034, -0.0034)" d="M215 137c67 0 111 -37 111 -92c0 -90 -111 -182 -215 -182c-67 0 -111 37 -111 92c0 90 111 182 215 182z" fill="currentColor"/>
</g>
</a>
</g>
<g color="red">
<a style="color:inherit;" xlink:href="textedit:///Users/tomsegarra/Documents/dev/dummies/lilypond_files/08ea51e9270ff5ea3f09e430353df9af.ly:25:4:5">
<g transform="translate(26.1213, 6.2512)">
<path transform="scale(0.0034, -0.0034)" d="M215 137c67 0 111 -37 111 -92c0 -90 -111 -182 -215 -182c-67 0 -111 37 -111 92c0 90 111 182 215 182z" fill="currentColor"/>
</g>
</a>
</g>
<g transform="translate(16.0387, 7.1012)">
<path transform="scale(0.0034, -0.0034)" d="M208 -469c37 0 129 18 129 195c0 22 0 44 -2 66c-3 -1 -34 -5 -67 -5c-155 0 -266 145 -266 303c0 144 99 253 189 367c-31 96 -43 143 -43 289c0 92 41 179 113 237c7 6 17 6 23 0c55 -66 108 -201 108 -295c0 -114 -62 -207 -133 -297c18 -59 34 -118 48 -178
c2 0 3 1 5 1c126 0 207 -105 207 -213c0 -92 -60 -170 -141 -198c2 -26 3 -53 3 -79c0 -17 -1 -33 -2 -50c-6 -100 -77 -187 -174 -187c-88 0 -158 72 -158 161c0 46 42 83 90 83c43 0 76 -38 76 -83c0 -42 -34 -76 -76 -76h-9c19 -25 47 -41 80 -41zM374 -154
c43 18 80 65 80 124c0 67 -48 134 -125 146c16 -76 36 -186 45 -270zM64 17c0 -115 115 -186 207 -186c1 0 34 0 60 4c-6 51 -21 160 -47 282c-59 -7 -93 -48 -93 -92c0 -34 20 -69 63 -93c5 -5 7 -11 7 -16c0 -12 -10 -23 -22 -23c-15 0 -105 52 -105 153
c0 72 47 142 129 162c-11 47 -24 94 -38 141c-81 -101 -161 -203 -161 -332zM317 857c-76 -43 -122 -123 -122 -210c0 -35 11 -82 30 -146c58 79 105 161 105 260c0 24 0 48 -13 96z" fill="currentColor"/>
</g>
<a style="color:inherit;" xlink:href="textedit:///Users/tomsegarra/Documents/dev/dummies/lilypond_files/08ea51e9270ff5ea3f09e430353df9af.ly:22:1:9">
<g transform="translate(19.6632, 4.5512)">
<path transform="scale(0.0034, -0.0034)" d="M217 -311c0 -11 -8 -19 -19 -19s-20 8 -20 19v142l-81 -30v-156c0 -11 -9 -20 -20 -20s-19 9 -19 20v142l-28 -11c-3 -1 -5 -1 -8 -1c-12 0 -22 10 -22 23v57c0 9 6 18 15 21l43 16v157l-28 -10c-3 -1 -5 -1 -8 -1c-12 0 -22 9 -22 22v57c0 9 6 18 15 21l43 16v157
c0 11 8 19 19 19s20 -8 20 -19v-142l81 30v156c0 11 9 20 20 20s19 -9 19 -20v-142l28 11c3 1 5 1 8 1c12 0 22 -10 22 -23v-57c0 -9 -6 -18 -15 -21l-43 -16v-157l28 10c3 1 5 1 8 1c12 0 22 -9 22 -22v-57c0 -9 -6 -18 -15 -21l-43 -16v-157zM97 64v-158l81 30v158z" fill="currentColor"/>
</g>
<g transform="translate(20.5982, 5.8262)">
<path transform="scale(0.0034, -0.0034)" d="M217 -311c0 -11 -8 -19 -19 -19s-20 8 -20 19v142l-81 -30v-156c0 -11 -9 -20 -20 -20s-19 9 -19 20v142l-28 -11c-3 -1 -5 -1 -8 -1c-12 0 -22 10 -22 23v57c0 9 6 18 15 21l43 16v157l-28 -10c-3 -1 -5 -1 -8 -1c-12 0 -22 9 -22 22v57c0 9 6 18 15 21l43 16v157
c0 11 8 19 19 19s20 -8 20 -19v-142l81 30v156c0 11 9 20 20 20s19 -9 19 -20v-142l28 11c3 1 5 1 8 1c12 0 22 -10 22 -23v-57c0 -9 -6 -18 -15 -21l-43 -16v-157l28 10c3 1 5 1 8 1c12 0 22 -9 22 -22v-57c0 -9 -6 -18 -15 -21l-43 -16v-157zM97 64v-158l81 30v158z" fill="currentColor"/>
</g>
</a>
<g transform="translate(22.6832, 6.2512)">
<path transform="scale(0.0034, -0.0034)" d="M358 29c-30 0 -74 23 -74 73c0 38 27 76 71 76c4 0 7 0 11 -1c-27 36 -69 59 -116 59c-106 0 -113 -74 -113 -188c0 -15 1 -31 1 -48s-1 -33 -1 -48c0 -114 7 -188 113 -188c79 0 136 70 155 150c2 7 7 10 13 10c7 0 14 -5 14 -13c0 -21 -50 -175 -182 -175
c-59 0 -250 20 -250 264c0 63 18 264 250 264c115 0 174 -109 174 -165c0 -39 -30 -70 -66 -70z" fill="currentColor"/>
</g>
<a style="color:inherit;" xlink:href="textedit:///Users/tomsegarra/Documents/dev/dummies/lilypond_files/08ea51e9270ff5ea3f09e430353df9af.ly:36:13:14">
<g transform="translate(25.1557, 11.7512)">
<text font-family="serif" font-size="2.0989" text-anchor="start" fill="currentColor">
<tspan>one</tspan>
</text>
</g>
</a>
<g transform="translate(27.6078, 5.8262)">
<path transform="scale(0.0034, -0.0034)" d="M0 0c0 31 25 56 56 56s55 -25 55 -56s-24 -56 -55 -56s-56 25 -56 56z" fill="currentColor"/>
</g>
<g color="red">
<g transform="translate(26.1830, 6.2512)">
<rect x="-0.0617" y="0.1525" width="0.1233" height="2.6809" ry="0.0400" fill="currentColor"/>
</g>
</g>
<g color="red">
<a style="color:inherit;" xlink:href="textedit:///Users/tomsegarra/Documents/dev/dummies/lilypond_files/08ea51e9270ff5ea3f09e430353df9af.ly:25:18:19">
<g transform="translate(36.1935, 4.9762)">
<path transform="scale(0.0034, -0.0034)" d="M215 137c67 0 111 -37 111 -92c0 -90 -111 -182 -215 -182c-67 0 -111 37 -111 92c0 90 111 182 215 182z" fill="currentColor"/>
</g>
</a>
</g>
<g color="red">
<g transform="translate(36.2552, 6.2512)">
<rect x="-0.0617" y="-1.1225" width="0.1233" height="2.8225" ry="0.0400" fill="currentColor"/>
</g>
</g>
<g color="black">
<a style="color:inherit;" xlink:href="textedit:///Users/tomsegarra/Documents/dev/dummies/lilypond_files/08ea51e9270ff5ea3f09e430353df9af.ly:28:4:5">
<g transform="translate(39.8420, 7.1012)">
<path transform="scale(0.0034, -0.0034)" d="M215 137c67 0 111 -37 111 -92c0 -90 -111 -182 -215 -182c-67 0 -111 37 -111 92c0 90 111 182 215 182z" fill="currentColor"/>
</g>
</a>
</g>
<g transform="translate(41.3284, 6.6762)">
<path transform="scale(0.0034, -0.0034)" d="M0 0c0 31 25 56 56 56s55 -25 55 -56s-24 -56 -55 -56s-56 25 -56 56z" fill="currentColor"/>
</g>
<g color="black">
<g transform="translate(40.8877, 6.2512)">
<rect x="-0.0617" y="-2.1250" width="0.1233" height="2.8225" ry="0.0400" fill="currentColor"/>
</g>
</g>
<g color="red">
<g transform="translate(32.4404, 6.2512)">
<rect x="-0.0617" y="-1.1225" width="0.1233" height="2.1244" ry="0.0400" fill="currentColor"/>
</g>
</g>
<g color="black">
<a style="color:inherit;" xlink:href="textedit:///Users/tomsegarra/Documents/dev/dummies/lilypond_files/08ea51e9270ff5ea3f09e430353df9af.ly:28:9:10">
<g transform="translate(43.5838, 5.4012)">
<path transform="scale(0.0034, -0.0034)" d="M215 137c67 0 111 -37 111 -92c0 -90 -111 -182 -215 -182c-67 0 -111 37 -111 92c0 90 111 182 215 182z" fill="currentColor"/>
</g>
</a>
</g>
<g color="black">
<g transform="translate(43.6455, 6.2512)">
<rect x="-0.0617" y="-0.6975" width="0.1233" height="2.8225" ry="0.0400" fill="currentColor"/>
</g>
</g>
<g color="black">
<g transform="translate(43.7071, 8.3362)">
<path transform="scale(0.0034, -0.0034)" d="M0 0h-18v250h18v-250zM0 0v250c96 59 222 149 222 259c0 57 -15 111 -40 162c-3 17 10 29 24 29c8 0 16 -5 21 -13c25 -56 40 -116 40 -178c0 -203 -267 -306 -267 -509z" fill="currentColor"/>
</g>
</g>
<g color="red">
<a style="color:inherit;" xlink:href="textedit:///Users/tomsegarra/Documents/dev/dummies/lilypond_files/08ea51e9270ff5ea3f09e430353df9af.ly:25:12:13">
<g transform="translate(32.3787, 4.9762)">
<path transform="scale(0.0034, -0.0034)" d="M215 137c67 0 111 -37 111 -92c0 -90 -111 -182 -215 -182c-67 0 -111 37 -111 92c0 90 111 182 215 182z" fill="currentColor"/>
</g>
</a>
</g>
<g color="black">
<a style="color:inherit;" xlink:href="textedit:///Users/tomsegarra/Documents/dev/dummies/lilypond_files/08ea51e9270ff5ea3f09e430353df9af.ly:28:13:14">
<g transform="translate(45.4912, 4.9762)">
<path transform="scale(0.0034, -0.0034)" d="M215 137c67 0 111 -37 111 -92c0 -90 -111 -182 -215 -182c-67 0 -111 37 -111 92c0 90 111 182 215 182z" fill="currentColor"/>
</g>
</a>
</g>
<g color="black">
<g transform="translate(45.5529, 6.2512)">
<rect x="-0.0617" y="-1.1225" width="0.1233" height="2.1244" ry="0.0400" fill="currentColor"/>
</g>
</g>
<g color="black">
<a style="color:inherit;" xlink:href="textedit:///Users/tomsegarra/Documents/dev/dummies/lilypond_files/08ea51e9270ff5ea3f09e430353df9af.ly:28:15:16">
<g transform="translate(47.3986, 4.5512)">
<path transform="scale(0.0034, -0.0034)" d="M215 137c67 0 111 -37 111 -92c0 -90 -111 -182 -215 -182c-67 0 -111 37 -111 92c0 90 111 182 215 182z" fill="currentColor"/>
</g>
</a>
</g>
<g color="black">
<g transform="translate(47.4602, 6.2512)">
<rect x="-0.0617" y="-1.5475" width="0.1233" height="2.4023" ry="0.0400" fill="currentColor"/>
</g>
</g>
<g color="red">
<g transform="translate(30.0020, 8.3362)">
<path transform="scale(0.0034, -0.0034)" d="M0 0h-18v250h18v-250zM0 0v250c96 59 222 149 222 259c0 57 -15 111 -40 162c-3 17 10 29 24 29c8 0 16 -5 21 -13c25 -56 40 -116 40 -178c0 -203 -267 -306 -267 -509z" fill="currentColor"/>
</g>
</g>
<g color="black">
<a style="color:inherit;" xlink:href="textedit:///Users/tomsegarra/Documents/dev/dummies/lilypond_files/08ea51e9270ff5ea3f09e430353df9af.ly:28:19:20">
<g transform="translate(49.3060, 4.9762)">
<path transform="scale(0.0034, -0.0034)" d="M215 137c67 0 111 -37 111 -92c0 -90 -111 -182 -215 -182c-67 0 -111 37 -111 92c0 90 111 182 215 182z" fill="currentColor"/>
</g>
</a>
</g>
<g color="black">
<g transform="translate(49.3676, 6.2512)">
<rect x="-0.0617" y="-1.1225" width="0.1233" height="2.8225" ry="0.0400" fill="currentColor"/>
</g>
</g>
<g color="red">
<g transform="translate(29.9404, 6.2512)">
<rect x="-0.0617" y="-0.6975" width="0.1233" height="2.8225" ry="0.0400" fill="currentColor"/>
</g>
</g>
<g color="black">
<a style="color:inherit;" xlink:href="textedit:///Users/tomsegarra/Documents/dev/dummies/lilypond_files/08ea51e9270ff5ea3f09e430353df9af.ly:28:24:25">
<g transform="translate(52.9544, 6.6762)">
<path transform="scale(0.0034, -0.0034)" d="M215 137c67 0 111 -37 111 -92c0 -90 -111 -182 -215 -182c-67 0 -111 37 -111 92c0 90 111 182 215 182z" fill="currentColor"/>
</g>
</a>
</g>
<g transform="translate(54.4409, 6.6762)">
<path transform="scale(0.0034, -0.0034)" d="M0 0c0 31 25 56 56 56s55 -25 55 -56s-24 -56 -55 -56s-56 25 -56 56z" fill="currentColor"/>
</g>
<g color="black">
<g transform="translate(54.0002, 6.2512)">
<rect x="-0.0617" y="-2.5500" width="0.1233" height="2.8225" ry="0.0400" fill="currentColor"/>
</g>
</g>
<a style="color:inherit;" xlink:href="textedit:///Users/tomsegarra/Documents/dev/dummies/lilypond_files/08ea51e9270ff5ea3f09e430353df9af.ly:36:17:18">
<g transform="translate(28.9130, 11.7512)">
<text font-family="serif" font-size="2.0989" text-anchor="start" fill="currentColor">
<tspan>day</tspan>
</text>
</g>
</a>
<g color="red">
<a style="color:inherit;" xlink:href="textedit:///Users/tomsegarra/Documents/dev/dummies/lilypond_files/08ea51e9270ff5ea3f09e430353df9af.ly:31:4:5">
<g transform="translate(56.6249, 5.4012)">
<path transform="scale(0.0034, -0.0034)" d="M215 137c67 0 111 -37 111 -92c0 -90 -111 -182 -215 -182c-67 0 -111 37 -111 92c0 90 111 182 215 182z" fill="currentColor"/>
</g>
</a>
</g>
<g color="red">
<g transform="translate(56.6865, 6.2512)">
<rect x="-0.0617" y="-0.6975" width="0.1233" height="2.8225" ry="0.0400" fill="currentColor"/>
</g>
</g>
<g color="red">
<g transform="translate(56.7482, 8.3362)">
<path transform="scale(0.0034, -0.0034)" d="M0 0h-18v250h18v-250zM0 0v250c96 59 222 149 222 259c0 57 -15 111 -40 162c-3 17 10 29 24 29c8 0 16 -5 21 -13c25 -56 40 -116 40 -178c0 -203 -267 -306 -267 -509z" fill="currentColor"/>
</g>
</g>
<g color="red">
<a style="color:inherit;" xlink:href="textedit:///Users/tomsegarra/Documents/dev/dummies/lilypond_files/08ea51e9270ff5ea3f09e430353df9af.ly:25:9:10">
<g transform="translate(29.8787, 5.4012)">
<path transform="scale(0.0034, -0.0034)" d="M215 137c67 0 111 -37 111 -92c0 -90 -111 -182 -215 -182c-67 0 -111 37 -111 92c0 90 111 182 215 182z" fill="currentColor"/>
</g>
</a>
</g>
<g color="red">
<a style="color:inherit;" xlink:href="textedit:///Users/tomsegarra/Documents/dev/dummies/lilypond_files/08ea51e9270ff5ea3f09e430353df9af.ly:31:7:8">
<g transform="translate(58.5323, 4.9762)">
<path transform="scale(0.0034, -0.0034)" d="M215 137c67 0 111 -37 111 -92c0 -90 -111 -182 -215 -182c-67 0 -111 37 -111 92c0 90 111 182 215 182z" fill="currentColor"/>
</g>
</a>
</g>
<g color="red">
<g transform="translate(58.5939, 6.2512)">
<rect x="-0.0617" y="-1.1225" width="0.1233" height="2.1244" ry="0.0400" fill="currentColor"/>
</g>
</g>
<g color="red">
<a style="color:inherit;" xlink:href="textedit:///Users/tomsegarra/Documents/dev/dummies/lilypond_files/08ea51e9270ff5ea3f09e430353df9af.ly:31:9:10">
<g transform="translate(60.4396, 4.5512)">
<path transform="scale(0.0034, -0.0034)" d="M215 137c67 0 111 -37 111 -92c0 -90 -111 -182 -215 -182c-67 0 -111 37 -111 92c0 90 111 182 215 182z" fill="currentColor"/>
</g>
</a>
</g>
<g color="red">
<g transform="translate(60.5013, 6.2512)">
<rect x="-0.0617" y="-1.5475" width="0.1233" height="2.4023" ry="0.0400" fill="currentColor"/>
</g>
</g>
<g color="red">
<a style="color:inherit;" xlink:href="textedit:///Users/tomsegarra/Documents/dev/dummies/lilypond_files/08ea51e9270ff5ea3f09e430353df9af.ly:31:13:14">
<g transform="translate(62.3470, 4.9762)">
<path transform="scale(0.0034, -0.0034)" d="M215 137c67 0 111 -37 111 -92c0 -90 -111 -182 -215 -182c-67 0 -111 37 -111 92c0 90 111 182 215 182z" fill="currentColor"/>
</g>
</a>
</g>
<g color="red">
<g transform="translate(62.4087, 6.2512)">
<rect x="-0.0617" y="-1.1225" width="0.1233" height="2.8225" ry="0.0400" fill="currentColor"/>
</g>
</g>
<g color="black">
<a style="color:inherit;" xlink:href="textedit:///Users/tomsegarra/Documents/dev/dummies/lilypond_files/08ea51e9270ff5ea3f09e430353df9af.ly:34:4:5">
<g transform="translate(66.1254, 5.8262)">
<path transform="scale(0.0034, -0.0034)" d="M215 137c67 0 111 -37 111 -92c0 -90 -111 -182 -215 -182c-67 0 -111 37 -111 92c0 90 111 182 215 182z" fill="currentColor"/>
</g>
</a>
</g>
<g color="black">
<g transform="translate(66.1870, 6.2512)">
<rect x="-0.0617" y="-0.2725" width="0.1233" height="2.8225" ry="0.0400" fill="currentColor"/>
</g>
</g>
<g color="black">
<a style="color:inherit;" xlink:href="textedit:///Users/tomsegarra/Documents/dev/dummies/lilypond_files/08ea51e9270ff5ea3f09e430353df9af.ly:34:8:9">
<g transform="translate(68.9308, 5.4012)">
<path transform="scale(0.0034, -0.0034)" d="M215 137c67 0 111 -37 111 -92c0 -90 -111 -182 -215 -182c-67 0 -111 37 -111 92c0 90 111 182 215 182z" fill="currentColor"/>
</g>
</a>
</g>
<g color="black">
<g transform="translate(68.9924, 6.2512)">
<rect x="-0.0617" y="-0.6975" width="0.1233" height="2.8225" ry="0.0400" fill="currentColor"/>
</g>
</g>
<g color="black">
<a style="color:inherit;" xlink:href="textedit:///Users/tomsegarra/Documents/dev/dummies/lilypond_files/08ea51e9270ff5ea3f09e430353df9af.ly:34:10:11">
<g transform="translate(71.7362, 4.9762)">
<path transform="scale(0.0034, -0.0034)" d="M215 137c67 0 111 -37 111 -92c0 -90 -111 -182 -215 -182c-67 0 -111 37 -111 92c0 90 111 182 215 182z" fill="currentColor"/>
</g>
</a>
</g>
<g color="black">
<g transform="translate(71.7979, 6.2512)">
<rect x="-0.0617" y="-1.1225" width="0.1233" height="2.8225" ry="0.0400" fill="currentColor"/>
</g>
</g>
<g color="black">
<a style="color:inherit;" xlink:href="textedit:///Users/tomsegarra/Documents/dev/dummies/lilypond_files/08ea51e9270ff5ea3f09e430353df9af.ly:34:12:13">
<g transform="translate(74.5416, 4.5512)">
<path transform="scale(0.0034, -0.0034)" d="M215 137c67 0 111 -37 111 -92c0 -90 -111 -182 -215 -182c-67 0 -111 37 -111 92c0 90 111 182 215 182z" fill="currentColor"/>
</g>
</a>
</g>
<g color="black">
<g transform="translate(74.6033, 6.2512)">
<rect x="-0.0617" y="-1.5475" width="0.1233" height="2.8225" ry="0.0400" fill="currentColor"/>
</g>
</g>
</svg>
