<?xml version="1.0" encoding="UTF-8" standalone="no"?>
<svg
   version="1.2"
   width="122.4493mm"
   height="21.339195mm"
   viewBox="0 0 69.678473 12.14318"
   id="svg514"
   sodipodi:docname="146a68fce73a4c462677c890934a29e0.svg"
   xmlns:inkscape="http://www.inkscape.org/namespaces/inkscape"
   xmlns:sodipodi="http://sodipodi.sourceforge.net/DTD/sodipodi-0.dtd"
   xmlns:xlink="http://www.w3.org/1999/xlink"
   xmlns="http://www.w3.org/2000/svg"
   xmlns:svg="http://www.w3.org/2000/svg">
  <defs
     id="defs518" />
  <sodipodi:namedview
     id="namedview516"
     pagecolor="#ffffff"
     bordercolor="#000000"
     borderopacity="0.25"
     inkscape:showpageshadow="2"
     inkscape:pageopacity="0.0"
     inkscape:pagecheckerboard="0"
     inkscape:deskcolor="#d1d1d1"
     inkscape:document-units="mm" />
  <style
     type="text/css"
     id="style2"><![CDATA[
tspan { white-space: pre; }
]]></style>
  <!-- Page: 1/1 -->
  <g
     transform="translate(69.486215,6.1901951)"
     id="g6">
    <rect
       x="0"
       y="-1.7"
       width="0.1802"
       height="3.4000001"
       ry="0.0000"
       fill="currentColor"
       id="rect4" />
  </g>
  <g
     transform="translate(-9.8455871e-4,3.6401951)"
     id="g10">
    <rect
       x="44.911301"
       y="-0.089900002"
       width="1.6611"
       height="0.17990001"
       ry="0.089900002"
       fill="currentColor"
       id="rect8" />
  </g>
  <g
     transform="translate(-9.8455871e-4,3.6401951)"
     id="g14">
    <rect
       x="42.012299"
       y="-0.089900002"
       width="1.6611"
       height="0.17990001"
       ry="0.089900002"
       fill="currentColor"
       id="rect12" />
  </g>
  <g
     transform="translate(-9.8455871e-4,3.6401951)"
     id="g18">
    <rect
       x="39.489201"
       y="-0.089900002"
       width="1.6611"
       height="0.17990001"
       ry="0.089900002"
       fill="currentColor"
       id="rect16" />
  </g>
  <g
     transform="translate(-9.8455871e-4,3.6401951)"
     id="g22">
    <rect
       x="36.630299"
       y="-0.089900002"
       width="1.6611"
       height="0.17990001"
       ry="0.089900002"
       fill="currentColor"
       id="rect20" />
  </g>
  <g
     transform="translate(-9.8455871e-4,3.6401951)"
     id="g26">
    <rect
       x="33.7715"
       y="-0.089900002"
       width="1.6611"
       height="0.17990001"
       ry="0.089900002"
       fill="currentColor"
       id="rect24" />
  </g>
  <g
     transform="translate(-9.8455871e-4,3.6401951)"
     id="g30">
    <rect
       x="31.4641"
       y="-0.089900002"
       width="1.6611"
       height="0.17990001"
       ry="0.089900002"
       fill="currentColor"
       id="rect28" />
  </g>
  <g
     transform="translate(-9.8455871e-4,3.6401951)"
     id="g34">
    <rect
       x="29.1567"
       y="-0.089900002"
       width="1.6611"
       height="0.17990001"
       ry="0.089900002"
       fill="currentColor"
       id="rect32" />
  </g>
  <g
     transform="translate(-9.8455871e-4,3.6401951)"
     id="g38">
    <rect
       x="26.8493"
       y="-0.089900002"
       width="1.6611"
       height="0.17990001"
       ry="0.089900002"
       fill="currentColor"
       id="rect36" />
  </g>
  <g
     transform="translate(-9.8455871e-4,3.6401951)"
     id="g42">
    <rect
       x="23.821501"
       y="-0.089900002"
       width="1.6611"
       height="0.17990001"
       ry="0.089900002"
       fill="currentColor"
       id="rect40" />
  </g>
  <g
     transform="translate(-9.8455871e-4,3.6401951)"
     id="g46">
    <rect
       x="20.742399"
       y="-0.089900002"
       width="1.6611"
       height="0.17990001"
       ry="0.089900002"
       fill="currentColor"
       id="rect44" />
  </g>
  <g
     transform="translate(-9.8455871e-4,3.6401951)"
     id="g50">
    <rect
       x="17.3647"
       y="-0.089900002"
       width="1.6611"
       height="0.17990001"
       ry="0.089900002"
       fill="currentColor"
       id="rect48" />
  </g>
  <g
     transform="translate(-9.8455871e-4,7.8901951)"
     id="g54">
    <line
       stroke-linejoin="round"
       stroke-linecap="round"
       stroke-width="0.0949"
       stroke="currentColor"
       x1="0.047400001"
       y1="0"
       x2="69.620003"
       y2="0"
       id="line52" />
  </g>
  <g
     transform="translate(-9.8455871e-4,7.0401951)"
     id="g58">
    <line
       stroke-linejoin="round"
       stroke-linecap="round"
       stroke-width="0.0949"
       stroke="currentColor"
       x1="0.047400001"
       y1="0"
       x2="69.620003"
       y2="0"
       id="line56" />
  </g>
  <g
     transform="translate(-9.8455871e-4,6.1901951)"
     id="g62">
    <line
       stroke-linejoin="round"
       stroke-linecap="round"
       stroke-width="0.0949"
       stroke="currentColor"
       x1="0.047400001"
       y1="0"
       x2="69.620003"
       y2="0"
       id="line60" />
  </g>
  <g
     transform="translate(-9.8455871e-4,5.3401951)"
     id="g66">
    <line
       stroke-linejoin="round"
       stroke-linecap="round"
       stroke-width="0.0949"
       stroke="currentColor"
       x1="0.047400001"
       y1="0"
       x2="69.620003"
       y2="0"
       id="line64" />
  </g>
  <g
     transform="translate(-9.8455871e-4,4.4901951)"
     id="g70">
    <line
       stroke-linejoin="round"
       stroke-linecap="round"
       stroke-width="0.0949"
       stroke="currentColor"
       x1="0.047400001"
       y1="0"
       x2="69.620003"
       y2="0"
       id="line68" />
  </g>
  <g
     transform="translate(43.895515,6.1901951)"
     id="g74">
    <rect
       x="0"
       y="-1.7"
       width="0.1802"
       height="3.4000001"
       ry="0.0000"
       fill="currentColor"
       id="rect72" />
  </g>
  <g
     transform="translate(15.761215,6.1901951)"
     id="g78">
    <rect
       x="0"
       y="-1.7"
       width="0.1802"
       height="3.4000001"
       ry="0.0000"
       fill="currentColor"
       id="rect76" />
  </g>
  <a
     style="color:inherit"
     xlink:href="textedit:///Users/tomsegarra/Documents/dev/dummies/lilypond_files/146a68fce73a4c462677c890934a29e0.ly:20:12:13"
     id="a86"
     transform="translate(-2.2771846,-3.2263049)">
    <g
       transform="translate(13.9694,5.3859)"
       id="g84">
      <text
         font-family="sans-serif"
         font-size="2.224px"
         text-anchor="start"
         fill="currentColor"
         id="text82"><tspan
           id="tspan80">N.C.</tspan></text>
    </g>
  </a>
  <a
     style="color:inherit"
     xlink:href="textedit:///Users/tomsegarra/Documents/dev/dummies/lilypond_files/146a68fce73a4c462677c890934a29e0.ly:24:15:16"
     id="a92"
     transform="translate(-2.2771846,-3.2263049)">
    <g
       transform="translate(13.9694,7.2915)"
       id="g90">
      <path
         transform="scale(0.0034,-0.0034)"
         d="m 215,137 c 67,0 111,-37 111,-92 0,-90 -111,-182 -215,-182 -67,0 -111,37 -111,92 0,90 111,182 215,182 z"
         fill="currentColor"
         id="path88" />
    </g>
  </a>
  <g
     transform="translate(0.79901544,7.0401951)"
     id="g96">
    <path
       transform="scale(0.0034,-0.0034)"
       d="m 646,2 c 0,-113 -74,-213 -180,-247 3,-34 5,-68 5,-102 0,-20 -1,-40 -2,-60 -7,-121 -91,-228 -209,-228 -108,0 -196,87 -196,196 0,58 53,104 112,104 54,0 95,-48 95,-104 0,-52 -43,-95 -95,-95 -10,0 -20,2 -29,6 26,-38 68,-63 116,-63 h 3 c 93,2 153,92 159,190 1,19 2,37 2,56 0,30 -2,60 -4,90 -5,-1 -43,-8 -88,-8 -194,0 -333,180 -333,375 0,177 130,307 246,442 -31,98 -53,170 -53,347 0,115 55,223 148,290 7,5 16,4 22,-1 68,-80 134,-243 134,-357 0,-143 -85,-255 -178,-364 21,-68 40,-137 57,-206 1,0 5,1 11,1 C 545,264 646,135 646,2 Z M 462,-202 c 66,24 111,88 111,162 0,89 -65,178 -170,190 28,-135 50,-272 59,-352 z M 75,26 c 0,-145 141,-245 263,-245 1,0 46,0 81,6 -7,65 -27,206 -61,363 -79,-8 -124,-61 -124,-119 0,-43 25,-89 80,-121 5,-5 7,-11 7,-16 0,-12 -10,-23 -22,-23 -16,0 -127,63 -127,188 0,89 58,175 161,198 -14,58 -29,116 -46,173 C 181,308 75,186 75,26 Z M 406,1042 C 307,995 244,894 244,785 c 0,-49 13,-111 38,-191 79,97 144,199 144,324 0,33 0,63 -20,124 z"
       fill="currentColor"
       id="path94" />
  </g>
  <a
     style="color:inherit"
     xlink:href="textedit:///Users/tomsegarra/Documents/dev/dummies/lilypond_files/146a68fce73a4c462677c890934a29e0.ly:23:1:9"
     id="a110"
     transform="translate(-2.2771846,-3.2263049)">
    <g
       transform="translate(6.5762,7.7165)"
       id="g100">
      <path
         transform="scale(0.0034,-0.0034)"
         d="m 217,-311 c 0,-11 -8,-19 -19,-19 -11,0 -20,8 -20,19 v 142 l -81,-30 v -156 c 0,-11 -9,-20 -20,-20 -11,0 -19,9 -19,20 v 142 l -28,-11 c -3,-1 -5,-1 -8,-1 -12,0 -22,10 -22,23 v 57 c 0,9 6,18 15,21 l 43,16 V 49 L 30,39 C 27,38 25,38 22,38 10,38 0,47 0,60 v 57 c 0,9 6,18 15,21 l 43,16 v 157 c 0,11 8,19 19,19 11,0 20,-8 20,-19 V 169 l 81,30 v 156 c 0,11 9,20 20,20 11,0 19,-9 19,-20 V 213 l 28,11 c 3,1 5,1 8,1 12,0 22,-10 22,-23 v -57 c 0,-9 -6,-18 -15,-21 L 217,108 V -49 l 28,10 c 3,1 5,1 8,1 12,0 22,-9 22,-22 v -57 c 0,-9 -6,-18 -15,-21 l -43,-16 z M 97,64 V -94 l 81,30 V 94 Z"
         fill="currentColor"
         id="path98" />
    </g>
    <g
       transform="translate(7.5112,8.9915)"
       id="g104">
      <path
         transform="scale(0.0034,-0.0034)"
         d="m 217,-311 c 0,-11 -8,-19 -19,-19 -11,0 -20,8 -20,19 v 142 l -81,-30 v -156 c 0,-11 -9,-20 -20,-20 -11,0 -19,9 -19,20 v 142 l -28,-11 c -3,-1 -5,-1 -8,-1 -12,0 -22,10 -22,23 v 57 c 0,9 6,18 15,21 l 43,16 V 49 L 30,39 C 27,38 25,38 22,38 10,38 0,47 0,60 v 57 c 0,9 6,18 15,21 l 43,16 v 157 c 0,11 8,19 19,19 11,0 20,-8 20,-19 V 169 l 81,30 v 156 c 0,11 9,20 20,20 11,0 19,-9 19,-20 V 213 l 28,11 c 3,1 5,1 8,1 12,0 22,-10 22,-23 v -57 c 0,-9 -6,-18 -15,-21 L 217,108 V -49 l 28,10 c 3,1 5,1 8,1 12,0 22,-9 22,-22 v -57 c 0,-9 -6,-18 -15,-21 l -43,-16 z M 97,64 V -94 l 81,30 V 94 Z"
         fill="currentColor"
         id="path102" />
    </g>
    <g
       transform="translate(8.4462,7.2915)"
       id="g108">
      <path
         transform="scale(0.0034,-0.0034)"
         d="m 217,-311 c 0,-11 -8,-19 -19,-19 -11,0 -20,8 -20,19 v 142 l -81,-30 v -156 c 0,-11 -9,-20 -20,-20 -11,0 -19,9 -19,20 v 142 l -28,-11 c -3,-1 -5,-1 -8,-1 -12,0 -22,10 -22,23 v 57 c 0,9 6,18 15,21 l 43,16 V 49 L 30,39 C 27,38 25,38 22,38 10,38 0,47 0,60 v 57 c 0,9 6,18 15,21 l 43,16 v 157 c 0,11 8,19 19,19 11,0 20,-8 20,-19 V 169 l 81,30 v 156 c 0,11 9,20 20,20 11,0 19,-9 19,-20 V 213 l 28,11 c 3,1 5,1 8,1 12,0 22,-10 22,-23 v -57 c 0,-9 -6,-18 -15,-21 L 217,108 V -49 l 28,10 c 3,1 5,1 8,1 12,0 22,-9 22,-22 v -57 c 0,-9 -6,-18 -15,-21 l -43,-16 z M 97,64 V -94 l 81,30 V 94 Z"
         fill="currentColor"
         id="path106" />
    </g>
  </a>
  <g
     transform="translate(8.2540154,6.1901951)"
     id="g114">
    <path
       transform="scale(0.0034,-0.0034)"
       d="m 358,29 c -30,0 -74,23 -74,73 0,38 27,76 71,76 4,0 7,0 11,-1 -27,36 -69,59 -116,59 -106,0 -113,-74 -113,-188 0,-15 1,-31 1,-48 0,-17 -1,-33 -1,-48 0,-114 7,-188 113,-188 79,0 136,70 155,150 2,7 7,10 13,10 7,0 14,-5 14,-13 0,-21 -50,-175 -182,-175 C 191,-264 0,-244 0,0 0,63 18,264 250,264 365,264 424,155 424,99 424,60 394,29 358,29 Z"
       fill="currentColor"
       id="path112" />
  </g>
  <a
     style="color:inherit"
     xlink:href="textedit:///Users/tomsegarra/Documents/dev/dummies/lilypond_files/146a68fce73a4c462677c890934a29e0.ly:31:15:16"
     id="a122"
     transform="translate(-2.2771846,-3.2263049)">
    <g
       transform="translate(13.5329,14.9165)"
       id="g120">
      <text
         font-family="serif"
         font-size="2.0989px"
         text-anchor="start"
         fill="currentColor"
         id="text118"><tspan
           id="tspan116">he</tspan></text>
    </g>
  </a>
  <g
     transform="translate(11.753915,6.1901951)"
     id="g126">
    <rect
       x="-0.061700001"
       y="-1.9725"
       width="0.1233"
       height="2.8225"
       ry="0.039999999"
       fill="currentColor"
       id="rect124" />
  </g>
  <g
     transform="translate(11.815515,7.0001951)"
     id="g130">
    <path
       transform="scale(0.0034,-0.0034)"
       d="M 0,0 H -18 V 250 H 0 Z m 0,0 v 250 c 96,59 222,149 222,259 0,57 -15,111 -40,162 -3,17 10,29 24,29 8,0 16,-5 21,-13 25,-56 40,-116 40,-178 C 267,306 0,203 0,0 Z"
       fill="currentColor"
       id="path128" />
  </g>
  <a
     style="color:inherit"
     xlink:href="textedit:///Users/tomsegarra/Documents/dev/dummies/lilypond_files/146a68fce73a4c462677c890934a29e0.ly:20:15:16"
     id="a138"
     transform="translate(-2.2771846,-3.2263049)">
    <g
       transform="translate(19.9178,5.3859)"
       id="g136">
      <text
         font-family="sans-serif"
         font-size="2.224px"
         text-anchor="start"
         fill="currentColor"
         id="text134"><tspan
           id="tspan132">A</tspan></text>
    </g>
  </a>
  <a
     style="color:inherit"
     xlink:href="textedit:///Users/tomsegarra/Documents/dev/dummies/lilypond_files/146a68fce73a4c462677c890934a29e0.ly:25:4:5"
     id="a144"
     transform="translate(-2.2771846,-3.2263049)">
    <g
       transform="translate(19.9178,6.8665)"
       id="g142">
      <path
         transform="scale(0.0034,-0.0034)"
         d="m 215,137 c 67,0 111,-37 111,-92 0,-90 -111,-182 -215,-182 -67,0 -111,37 -111,92 0,90 111,182 215,182 z"
         fill="currentColor"
         id="path140" />
    </g>
  </a>
  <a
     style="color:inherit"
     xlink:href="textedit:///Users/tomsegarra/Documents/dev/dummies/lilypond_files/146a68fce73a4c462677c890934a29e0.ly:31:18:19"
     id="a152"
     transform="translate(-2.2771846,-3.2263049)">
    <g
       transform="translate(18.4741,14.9165)"
       id="g150">
      <text
         font-family="serif"
         font-size="2.0989px"
         text-anchor="start"
         fill="currentColor"
         id="text148"><tspan
           id="tspan146">shou</tspan></text>
    </g>
  </a>
  <g
     transform="translate(17.702215,6.1901951)"
     id="g156">
    <rect
       x="-0.061700001"
       y="-2.3975"
       width="0.1233"
       height="2.3975"
       ry="0.039999999"
       fill="currentColor"
       id="rect154" />
  </g>
  <g
     transform="translate(23.059015,5.4967951)"
     id="g160">
    <polygon
       stroke-linejoin="round"
       stroke-linecap="round"
       stroke-width="0.08"
       fill="currentColor"
       stroke="currentColor"
       points="0.04,0.164 0.04,-0.164 1.1217,-0.164 1.1217,0.164 "
       id="polygon158" />
  </g>
  <g
     transform="translate(17.640615,5.4967951)"
     id="g164">
    <polygon
       stroke-linejoin="round"
       stroke-linecap="round"
       stroke-width="0.08"
       fill="currentColor"
       stroke="currentColor"
       points="0.04,0.164 0.04,-0.164 1.1217,-0.164 1.1217,0.164 "
       id="polygon162" />
  </g>
  <g
     transform="translate(17.640615,6.1901951)"
     id="g168">
    <polygon
       stroke-linejoin="round"
       stroke-linecap="round"
       stroke-width="0.08"
       fill="currentColor"
       stroke="currentColor"
       points="0.04,0.164 0.04,-0.164 6.5401,-0.164 6.5401,0.164 "
       id="polygon166" />
  </g>
  <a
     style="color:inherit"
     xlink:href="textedit:///Users/tomsegarra/Documents/dev/dummies/lilypond_files/146a68fce73a4c462677c890934a29e0.ly:25:41:42"
     id="a174"
     transform="translate(-2.2771846,-3.2263049)">
    <g
       transform="translate(44.5653,6.8665)"
       id="g172">
      <path
         transform="scale(0.0034,-0.0034)"
         d="m 215,137 c 67,0 111,-37 111,-92 0,-90 -111,-182 -215,-182 -67,0 -111,37 -111,92 0,90 111,182 215,182 z"
         fill="currentColor"
         id="path170" />
    </g>
  </a>
  <a
     style="color:inherit"
     xlink:href="textedit:///Users/tomsegarra/Documents/dev/dummies/lilypond_files/146a68fce73a4c462677c890934a29e0.ly:31:52:53"
     id="a182"
     transform="translate(-2.2771846,-3.2263049)">
    <g
       transform="translate(44.5653,14.9165)"
       id="g180">
      <text
         font-family="serif"
         font-size="2.0989px"
         text-anchor="start"
         fill="currentColor"
         id="text178"><tspan
           id="tspan176">he</tspan></text>
    </g>
  </a>
  <g
     transform="translate(42.349815,6.1901951)"
     id="g186">
    <rect
       x="-0.061700001"
       y="-2.3975"
       width="0.1233"
       height="2.3958001"
       ry="0.039999999"
       fill="currentColor"
       id="rect184" />
  </g>
  <a
     style="color:inherit"
     xlink:href="textedit:///Users/tomsegarra/Documents/dev/dummies/lilypond_files/146a68fce73a4c462677c890934a29e0.ly:25:22:23"
     id="a192"
     transform="translate(-2.2771846,-3.2263049)">
    <g
       transform="translate(31.7097,9.4165)"
       id="g190">
      <path
         stroke-width="0.0759"
         stroke-linejoin="round"
         stroke-linecap="round"
         stroke="currentColor"
         fill="currentColor"
         d="m 0.7537,-3.225 c 0.4705,-0.5562 1.4368,-0.5562 1.9074,0 v 0 c -0.4706,-0.4424 -1.4369,-0.4424 -1.9074,0 z"
         id="path188" />
    </g>
  </a>
  <a
     style="color:inherit"
     xlink:href="textedit:///Users/tomsegarra/Documents/dev/dummies/lilypond_files/146a68fce73a4c462677c890934a29e0.ly:20:18:19"
     id="a204"
     transform="translate(-2.2771846,-3.2263049)">
    <g
       transform="translate(47.4644,5.3859)"
       id="g198">
      <text
         font-family="sans-serif"
         font-size="2.224px"
         text-anchor="start"
         fill="currentColor"
         id="text196"><tspan
           id="tspan194">D</tspan></text>
    </g>
    <g
       transform="translate(49.1715,4.1967)"
       id="g202">
      <polygon
         stroke-linejoin="round"
         stroke-linecap="round"
         stroke-width="0.1"
         fill="none"
         stroke="currentColor"
         points="0.5351,-0.9204 0,0 1.0703,0 "
         id="polygon200" />
    </g>
  </a>
  <a
     style="color:inherit"
     xlink:href="textedit:///Users/tomsegarra/Documents/dev/dummies/lilypond_files/146a68fce73a4c462677c890934a29e0.ly:26:4:5"
     id="a210"
     transform="translate(-2.2771846,-3.2263049)">
    <g
       transform="translate(47.4644,6.8665)"
       id="g208">
      <path
         transform="scale(0.0034,-0.0034)"
         d="m 215,137 c 67,0 111,-37 111,-92 0,-90 -111,-182 -215,-182 -67,0 -111,37 -111,92 0,90 111,182 215,182 z"
         fill="currentColor"
         id="path206" />
    </g>
  </a>
  <g
     transform="translate(45.248815,6.1901951)"
     id="g214">
    <rect
       x="-0.061700001"
       y="-2.3975"
       width="0.1233"
       height="2.5604"
       ry="0.039999999"
       fill="currentColor"
       id="rect212" />
  </g>
  <a
     style="color:inherit"
     xlink:href="textedit:///Users/tomsegarra/Documents/dev/dummies/lilypond_files/146a68fce73a4c462677c890934a29e0.ly:26:7:8"
     id="a220"
     transform="translate(-2.2771846,-3.2263049)">
    <g
       transform="translate(49.7718,7.2915)"
       id="g218">
      <path
         transform="scale(0.0034,-0.0034)"
         d="m 215,137 c 67,0 111,-37 111,-92 0,-90 -111,-182 -215,-182 -67,0 -111,37 -111,92 0,90 111,182 215,182 z"
         fill="currentColor"
         id="path216" />
    </g>
  </a>
  <a
     style="color:inherit"
     xlink:href="textedit:///Users/tomsegarra/Documents/dev/dummies/lilypond_files/146a68fce73a4c462677c890934a29e0.ly:31:55:56"
     id="a228"
     transform="translate(-2.2771846,-3.2263049)">
    <g
       transform="translate(49.7718,14.9165)"
       id="g226">
      <text
         font-family="serif"
         font-size="2.0989px"
         text-anchor="start"
         fill="currentColor"
         id="text224"><tspan
           id="tspan222">stum</tspan></text>
    </g>
  </a>
  <g
     transform="translate(47.556215,6.1901951)"
     id="g232">
    <rect
       x="-0.061700001"
       y="-1.9725"
       width="0.1233"
       height="2.3708999"
       ry="0.039999999"
       fill="currentColor"
       id="rect230" />
  </g>
  <g
     transform="translate(27.125215,6.1901951)"
     id="g236">
    <polygon
       stroke-linejoin="round"
       stroke-linecap="round"
       stroke-width="0.08"
       fill="currentColor"
       stroke="currentColor"
       points="0.04,0.164 0.04,-0.164 2.3907,-0.164 2.3907,0.164 "
       id="polygon234" />
  </g>
  <a
     style="color:inherit"
     xlink:href="textedit:///Users/tomsegarra/Documents/dev/dummies/lilypond_files/146a68fce73a4c462677c890934a29e0.ly:26:14:15"
     id="a242"
     transform="translate(-2.2771846,-3.2263049)">
    <g
       transform="translate(52.0791,7.2915)"
       id="g240">
      <path
         transform="scale(0.0034,-0.0034)"
         d="m 215,137 c 67,0 111,-37 111,-92 0,-90 -111,-182 -215,-182 -67,0 -111,37 -111,92 0,90 111,182 215,182 z"
         fill="currentColor"
         id="path238" />
    </g>
  </a>
  <g
     transform="translate(49.863615,6.1901951)"
     id="g246">
    <rect
       x="-0.061700001"
       y="-1.9725"
       width="0.1233"
       height="2.6063001"
       ry="0.039999999"
       fill="currentColor"
       id="rect244" />
  </g>
  <a
     style="color:inherit"
     xlink:href="textedit:///Users/tomsegarra/Documents/dev/dummies/lilypond_files/146a68fce73a4c462677c890934a29e0.ly:26:16:17"
     id="a252"
     transform="translate(-2.2771846,-3.2263049)">
    <g
       transform="translate(54.1365,8.1415)"
       id="g250">
      <path
         transform="scale(0.0034,-0.0034)"
         d="m 215,137 c 67,0 111,-37 111,-92 0,-90 -111,-182 -215,-182 -67,0 -111,37 -111,92 0,90 111,182 215,182 z"
         fill="currentColor"
         id="path248" />
    </g>
  </a>
  <a
     style="color:inherit"
     xlink:href="textedit:///Users/tomsegarra/Documents/dev/dummies/lilypond_files/146a68fce73a4c462677c890934a29e0.ly:31:63:64"
     id="a260"
     transform="translate(-2.2771846,-3.2263049)">
    <g
       transform="translate(54.1365,14.9165)"
       id="g258">
      <text
         font-family="serif"
         font-size="2.0989px"
         text-anchor="start"
         fill="currentColor"
         id="text256"><tspan
           id="tspan254">bled</tspan></text>
    </g>
  </a>
  <g
     transform="translate(51.921015,6.1901951)"
     id="g264">
    <rect
       x="-0.061700001"
       y="-1.1224999"
       width="0.1233"
       height="1.9663"
       ry="0.039999999"
       fill="currentColor"
       id="rect262" />
  </g>
  <a
     style="color:inherit"
     xlink:href="textedit:///Users/tomsegarra/Documents/dev/dummies/lilypond_files/146a68fce73a4c462677c890934a29e0.ly:25:30:31"
     id="a270"
     transform="translate(-2.2771846,-3.2263049)">
    <g
       transform="translate(36.3245,9.4165)"
       id="g268">
      <path
         stroke-width="0.0759"
         stroke-linejoin="round"
         stroke-linecap="round"
         stroke="currentColor"
         fill="currentColor"
         d="m 0.7537,-3.825 c 0.5679,-0.6362 1.8909,-0.6362 2.4589,0 v 0 c -0.568,-0.5224 -1.891,-0.5224 -2.4589,0 z"
         id="path266" />
    </g>
  </a>
  <a
     style="color:inherit"
     xlink:href="textedit:///Users/tomsegarra/Documents/dev/dummies/lilypond_files/146a68fce73a4c462677c890934a29e0.ly:26:22:23"
     id="a276"
     transform="translate(-2.2771846,-3.2263049)">
    <g
       transform="translate(57.5332,8.1415)"
       id="g274">
      <path
         transform="scale(0.0034,-0.0034)"
         d="m 215,137 c 67,0 111,-37 111,-92 0,-90 -111,-182 -215,-182 -67,0 -111,37 -111,92 0,90 111,182 215,182 z"
         fill="currentColor"
         id="path272" />
    </g>
  </a>
  <g
     transform="translate(55.317615,6.1901951)"
     id="g280">
    <rect
       x="-0.061700001"
       y="-1.1224999"
       width="0.1233"
       height="2.6659999"
       ry="0.039999999"
       fill="currentColor"
       id="rect278" />
  </g>
  <g
     color="#ff0000"
     id="g288"
     transform="translate(-2.2771846,-3.2263049)">
    <a
       style="color:inherit"
       xlink:href="textedit:///Users/tomsegarra/Documents/dev/dummies/lilypond_files/146a68fce73a4c462677c890934a29e0.ly:29:4:5"
       id="a286">
      <g
         transform="translate(60.9298,8.1415)"
         id="g284">
        <path
           transform="scale(0.0034,-0.0034)"
           d="m 215,137 c 67,0 111,-37 111,-92 0,-90 -111,-182 -215,-182 -67,0 -111,37 -111,92 0,90 111,182 215,182 z"
           fill="currentColor"
           id="path282" />
      </g>
    </a>
  </g>
  <a
     style="color:inherit"
     xlink:href="textedit:///Users/tomsegarra/Documents/dev/dummies/lilypond_files/146a68fce73a4c462677c890934a29e0.ly:31:68:69"
     id="a296"
     transform="translate(-2.2771846,-3.2263049)">
    <g
       transform="translate(58.2057,14.9165)"
       id="g294">
      <text
         font-family="serif"
         font-size="2.0989px"
         text-anchor="start"
         fill="currentColor"
         id="text292"><tspan
           id="tspan290">through</tspan></text>
    </g>
  </a>
  <g
     color="#ff0000"
     id="g302"
     transform="translate(-2.2771846,-3.2263049)">
    <g
       transform="translate(60.9914,9.4165)"
       id="g300">
      <rect
         x="-0.061700001"
         y="-1.1224999"
         width="0.1233"
         height="2.6659999"
         ry="0.039999999"
         fill="currentColor"
         id="rect298" />
    </g>
  </g>
  <g
     color="#ff0000"
     id="g310"
     transform="translate(-2.2771846,-3.2263049)">
    <a
       style="color:inherit"
       xlink:href="textedit:///Users/tomsegarra/Documents/dev/dummies/lilypond_files/146a68fce73a4c462677c890934a29e0.ly:29:6:7"
       id="a308">
      <g
         transform="translate(65.9379,8.9915)"
         id="g306">
        <path
           transform="scale(0.0034,-0.0034)"
           d="m 215,137 c 67,0 111,-37 111,-92 0,-90 -111,-182 -215,-182 -67,0 -111,37 -111,92 0,90 111,182 215,182 z"
           fill="currentColor"
           id="path304" />
      </g>
    </a>
  </g>
  <a
     style="color:inherit"
     xlink:href="textedit:///Users/tomsegarra/Documents/dev/dummies/lilypond_files/146a68fce73a4c462677c890934a29e0.ly:31:76:77"
     id="a318"
     transform="translate(-2.2771846,-3.2263049)">
    <g
       transform="translate(65.2112,14.9165)"
       id="g316">
      <text
         font-family="serif"
         font-size="2.0989px"
         text-anchor="start"
         fill="currentColor"
         id="text314"><tspan
           id="tspan312">the</tspan></text>
    </g>
  </a>
  <g
     color="#ff0000"
     id="g324"
     transform="translate(-2.2771846,-3.2263049)">
    <g
       transform="translate(65.9996,9.4165)"
       id="g322">
      <rect
         x="-0.061700001"
         y="-0.27250001"
         width="0.1233"
         height="1.816"
         ry="0.039999999"
         fill="currentColor"
         id="rect320" />
    </g>
  </g>
  <g
     transform="translate(31.739915,6.3467951)"
     id="g328">
    <polygon
       stroke-linejoin="round"
       stroke-linecap="round"
       stroke-width="0.08"
       fill="currentColor"
       stroke="currentColor"
       points="0.04,0.164 0.04,-0.164 2.3907,-0.3206 2.3907,0.0074 "
       id="polygon326" />
  </g>
  <g
     color="#ff0000"
     id="g336"
     transform="translate(-2.2771846,-3.2263049)">
    <a
       style="color:inherit"
       xlink:href="textedit:///Users/tomsegarra/Documents/dev/dummies/lilypond_files/146a68fce73a4c462677c890934a29e0.ly:29:8:9"
       id="a334">
      <g
         transform="translate(69.5291,7.7165)"
         id="g332">
        <path
           transform="scale(0.0034,-0.0034)"
           d="m 215,137 c 67,0 111,-37 111,-92 0,-90 -111,-182 -215,-182 -67,0 -111,37 -111,92 0,90 111,182 215,182 z"
           fill="currentColor"
           id="path330" />
      </g>
    </a>
  </g>
  <a
     style="color:inherit"
     xlink:href="textedit:///Users/tomsegarra/Documents/dev/dummies/lilypond_files/146a68fce73a4c462677c890934a29e0.ly:31:80:81"
     id="a344"
     transform="translate(-2.2771846,-3.2263049)">
    <g
       transform="translate(68.222,14.9165)"
       id="g342">
      <text
         font-family="serif"
         font-size="2.0989px"
         text-anchor="start"
         fill="currentColor"
         id="text340"><tspan
           id="tspan338">yard</tspan></text>
    </g>
  </a>
  <g
     color="#ff0000"
     id="g350"
     transform="translate(-2.2771846,-3.2263049)">
    <g
       transform="translate(69.5908,9.4165)"
       id="g348">
      <rect
         x="-0.061700001"
         y="-1.5475"
         width="0.1233"
         height="3.0910001"
         ry="0.039999999"
         fill="currentColor"
         id="rect346" />
    </g>
  </g>
  <a
     style="color:inherit"
     xlink:href="textedit:///Users/tomsegarra/Documents/dev/dummies/lilypond_files/146a68fce73a4c462677c890934a29e0.ly:25:42:43"
     id="a356"
     transform="translate(-2.2771846,-3.2263049)">
    <g
       transform="translate(44.5653,9.4165)"
       id="g354">
      <path
         stroke-width="0.0759"
         stroke-linejoin="round"
         stroke-linecap="round"
         stroke="currentColor"
         fill="currentColor"
         d="m 0.7537,-3.225 c 0.5745,-0.6412 1.9245,-0.6412 2.499,0 v 0 c -0.5745,-0.5274 -1.9245,-0.5274 -2.499,0 z"
         id="path352" />
    </g>
  </a>
  <a
     style="color:inherit"
     xlink:href="textedit:///Users/tomsegarra/Documents/dev/dummies/lilypond_files/146a68fce73a4c462677c890934a29e0.ly:25:8:9"
     id="a362"
     transform="translate(-2.2771846,-3.2263049)">
    <g
       transform="translate(23.2955,6.8665)"
       id="g360">
      <path
         transform="scale(0.0034,-0.0034)"
         d="m 215,137 c 67,0 111,-37 111,-92 0,-90 -111,-182 -215,-182 -67,0 -111,37 -111,92 0,90 111,182 215,182 z"
         fill="currentColor"
         id="path358" />
    </g>
  </a>
  <a
     style="color:inherit"
     xlink:href="textedit:///Users/tomsegarra/Documents/dev/dummies/lilypond_files/146a68fce73a4c462677c890934a29e0.ly:31:26:27"
     id="a370"
     transform="translate(-2.2771846,-3.2263049)">
    <g
       transform="translate(22.5688,14.9165)"
       id="g368">
      <text
         font-family="serif"
         font-size="2.0989px"
         text-anchor="start"
         fill="currentColor"
         id="text366"><tspan
           id="tspan364">ted</tspan></text>
    </g>
  </a>
  <g
     transform="translate(21.080015,6.1901951)"
     id="g374">
    <rect
       x="-0.061700001"
       y="-2.3975"
       width="0.1233"
       height="2.3975"
       ry="0.039999999"
       fill="currentColor"
       id="rect372" />
  </g>
  <a
     style="color:inherit"
     xlink:href="textedit:///Users/tomsegarra/Documents/dev/dummies/lilypond_files/146a68fce73a4c462677c890934a29e0.ly:25:11:12"
     id="a380"
     transform="translate(-2.2771846,-3.2263049)">
    <g
       transform="translate(26.3745,6.8665)"
       id="g378">
      <path
         transform="scale(0.0034,-0.0034)"
         d="m 215,137 c 67,0 111,-37 111,-92 0,-90 -111,-182 -215,-182 -67,0 -111,37 -111,92 0,90 111,182 215,182 z"
         fill="currentColor"
         id="path376" />
    </g>
  </a>
  <a
     style="color:inherit"
     xlink:href="textedit:///Users/tomsegarra/Documents/dev/dummies/lilypond_files/146a68fce73a4c462677c890934a29e0.ly:31:30:31"
     id="a388"
     transform="translate(-2.2771846,-3.2263049)">
    <g
       transform="translate(25.5796,14.9165)"
       id="g386">
      <text
         font-family="serif"
         font-size="2.0989px"
         text-anchor="start"
         fill="currentColor"
         id="text384"><tspan
           id="tspan382">out</tspan></text>
    </g>
  </a>
  <g
     transform="translate(24.159015,6.1901951)"
     id="g392">
    <rect
       x="-0.061700001"
       y="-2.3975"
       width="0.1233"
       height="2.3975"
       ry="0.039999999"
       fill="currentColor"
       id="rect390" />
  </g>
  <g
     transform="translate(39.765115,5.4214951)"
     id="g396">
    <polygon
       stroke-linejoin="round"
       stroke-linecap="round"
       stroke-width="0.08"
       fill="currentColor"
       stroke="currentColor"
       points="0.04,0.164 0.04,-0.164 2.6064,-0.0887 2.6064,0.2393 "
       id="polygon394" />
  </g>
  <g
     transform="translate(36.906215,6.0335951)"
     id="g400">
    <polygon
       stroke-linejoin="round"
       stroke-linecap="round"
       stroke-width="0.08"
       fill="currentColor"
       stroke="currentColor"
       points="0.04,0.164 0.04,-0.164 5.4653,-0.0074 5.4653,0.3206 "
       id="polygon398" />
  </g>
  <a
     style="color:inherit"
     xlink:href="textedit:///Users/tomsegarra/Documents/dev/dummies/lilypond_files/146a68fce73a4c462677c890934a29e0.ly:25:18:19"
     id="a406"
     transform="translate(-2.2771846,-3.2263049)">
    <g
       transform="translate(29.4024,6.8665)"
       id="g404">
      <path
         transform="scale(0.0034,-0.0034)"
         d="m 215,137 c 67,0 111,-37 111,-92 0,-90 -111,-182 -215,-182 -67,0 -111,37 -111,92 0,90 111,182 215,182 z"
         fill="currentColor"
         id="path402" />
    </g>
  </a>
  <a
     style="color:inherit"
     xlink:href="textedit:///Users/tomsegarra/Documents/dev/dummies/lilypond_files/146a68fce73a4c462677c890934a29e0.ly:31:34:35"
     id="a414"
     transform="translate(-2.2771846,-3.2263049)">
    <g
       transform="translate(28.7269,14.9165)"
       id="g412">
      <text
         font-family="serif"
         font-size="2.0989px"
         text-anchor="start"
         fill="currentColor"
         id="text410"><tspan
           id="tspan408">his</tspan></text>
    </g>
  </a>
  <g
     transform="translate(27.186815,6.1901951)"
     id="g418">
    <rect
       x="-0.061700001"
       y="-2.3975"
       width="0.1233"
       height="2.3975"
       ry="0.039999999"
       fill="currentColor"
       id="rect416" />
  </g>
  <a
     style="color:inherit"
     xlink:href="textedit:///Users/tomsegarra/Documents/dev/dummies/lilypond_files/146a68fce73a4c462677c890934a29e0.ly:25:21:22"
     id="a424"
     transform="translate(-2.2771846,-3.2263049)">
    <g
       transform="translate(31.7097,6.8665)"
       id="g422">
      <path
         transform="scale(0.0034,-0.0034)"
         d="m 215,137 c 67,0 111,-37 111,-92 0,-90 -111,-182 -215,-182 -67,0 -111,37 -111,92 0,90 111,182 215,182 z"
         fill="currentColor"
         id="path420" />
    </g>
  </a>
  <a
     style="color:inherit"
     xlink:href="textedit:///Users/tomsegarra/Documents/dev/dummies/lilypond_files/146a68fce73a4c462677c890934a29e0.ly:31:38:39"
     id="a432"
     transform="translate(-2.2771846,-3.2263049)">
    <g
       transform="translate(31.7097,14.9165)"
       id="g430">
      <text
         font-family="serif"
         font-size="2.0989px"
         text-anchor="start"
         fill="currentColor"
         id="text428"><tspan
           id="tspan426">last</tspan></text>
    </g>
  </a>
  <g
     transform="translate(29.494215,6.1901951)"
     id="g436">
    <rect
       x="-0.061700001"
       y="-2.3975"
       width="0.1233"
       height="2.3975"
       ry="0.039999999"
       fill="currentColor"
       id="rect434" />
  </g>
  <a
     style="color:inherit"
     xlink:href="textedit:///Users/tomsegarra/Documents/dev/dummies/lilypond_files/146a68fce73a4c462677c890934a29e0.ly:25:27:28"
     id="a442"
     transform="translate(-2.2771846,-3.2263049)">
    <g
       transform="translate(34.0171,6.8665)"
       id="g440">
      <path
         transform="scale(0.0034,-0.0034)"
         d="m 215,137 c 67,0 111,-37 111,-92 0,-90 -111,-182 -215,-182 -67,0 -111,37 -111,92 0,90 111,182 215,182 z"
         fill="currentColor"
         id="path438" />
    </g>
  </a>
  <g
     transform="translate(31.801615,6.1901951)"
     id="g446">
    <rect
       x="-0.061700001"
       y="-2.3975"
       width="0.1233"
       height="2.5501001"
       ry="0.039999999"
       fill="currentColor"
       id="rect444" />
  </g>
  <a
     style="color:inherit"
     xlink:href="textedit:///Users/tomsegarra/Documents/dev/dummies/lilypond_files/146a68fce73a4c462677c890934a29e0.ly:26:9:10"
     id="a452"
     transform="translate(-2.2771846,-3.2263049)">
    <g
       transform="translate(49.7718,9.4165)"
       id="g450">
      <path
         stroke-width="0.0759"
         stroke-linejoin="round"
         stroke-linecap="round"
         stroke="currentColor"
         fill="currentColor"
         d="m 0.7537,-2.975 c 0.4705,-0.5562 1.4368,-0.5562 1.9074,0 v 0 c -0.4706,-0.4424 -1.4369,-0.4424 -1.9074,0 z"
         id="path448" />
    </g>
  </a>
  <a
     style="color:inherit"
     xlink:href="textedit:///Users/tomsegarra/Documents/dev/dummies/lilypond_files/146a68fce73a4c462677c890934a29e0.ly:25:29:30"
     id="a458"
     transform="translate(-2.2771846,-3.2263049)">
    <g
       transform="translate(36.3245,6.4415)"
       id="g456">
      <path
         transform="scale(0.0034,-0.0034)"
         d="m 215,137 c 67,0 111,-37 111,-92 0,-90 -111,-182 -215,-182 -67,0 -111,37 -111,92 0,90 111,182 215,182 z"
         fill="currentColor"
         id="path454" />
    </g>
  </a>
  <a
     style="color:inherit"
     xlink:href="textedit:///Users/tomsegarra/Documents/dev/dummies/lilypond_files/146a68fce73a4c462677c890934a29e0.ly:31:43:44"
     id="a466"
     transform="translate(-2.2771846,-3.2263049)">
    <g
       transform="translate(36.3245,14.9165)"
       id="g464">
      <text
         font-family="serif"
         font-size="2.0989px"
         text-anchor="start"
         fill="currentColor"
         id="text462"><tspan
           id="tspan460">word</tspan></text>
    </g>
  </a>
  <g
     transform="translate(34.109015,6.1901951)"
     id="g470">
    <rect
       x="-0.061700001"
       y="-2.8225"
       width="0.1233"
       height="2.8264999"
       ry="0.039999999"
       fill="currentColor"
       id="rect468" />
  </g>
  <a
     style="color:inherit"
     xlink:href="textedit:///Users/tomsegarra/Documents/dev/dummies/lilypond_files/146a68fce73a4c462677c890934a29e0.ly:25:34:35"
     id="a476"
     transform="translate(-2.2771846,-3.2263049)">
    <g
       transform="translate(39.1834,6.4415)"
       id="g474">
      <path
         transform="scale(0.0034,-0.0034)"
         d="m 215,137 c 67,0 111,-37 111,-92 0,-90 -111,-182 -215,-182 -67,0 -111,37 -111,92 0,90 111,182 215,182 z"
         fill="currentColor"
         id="path472" />
    </g>
  </a>
  <g
     transform="translate(36.967815,6.1901951)"
     id="g480">
    <rect
       x="-0.061700001"
       y="-2.8225"
       width="0.1233"
       height="2.6677001"
       ry="0.039999999"
       fill="currentColor"
       id="rect478" />
  </g>
  <a
     style="color:inherit"
     xlink:href="textedit:///Users/tomsegarra/Documents/dev/dummies/lilypond_files/146a68fce73a4c462677c890934a29e0.ly:26:17:18"
     id="a486"
     transform="translate(-2.2771846,-3.2263049)">
    <g
       transform="translate(54.1365,9.4165)"
       id="g484">
      <path
         stroke-width="0.0759"
         stroke-linejoin="round"
         stroke-linecap="round"
         stroke="currentColor"
         fill="currentColor"
         d="m 0.7537,-2.125 c 0.6517,-0.6954 2.3449,-0.6954 2.9966,0 v 0 c -0.6517,-0.5816 -2.3449,-0.5816 -2.9966,0 z"
         id="path482" />
    </g>
  </a>
  <a
     style="color:inherit"
     xlink:href="textedit:///Users/tomsegarra/Documents/dev/dummies/lilypond_files/146a68fce73a4c462677c890934a29e0.ly:25:37:38"
     id="a492"
     transform="translate(-2.2771846,-3.2263049)">
    <g
       transform="translate(42.0423,6.4415)"
       id="g490">
      <path
         transform="scale(0.0034,-0.0034)"
         d="m 215,137 c 67,0 111,-37 111,-92 0,-90 -111,-182 -215,-182 -67,0 -111,37 -111,92 0,90 111,182 215,182 z"
         fill="currentColor"
         id="path488" />
    </g>
  </a>
  <a
     style="color:inherit"
     xlink:href="textedit:///Users/tomsegarra/Documents/dev/dummies/lilypond_files/146a68fce73a4c462677c890934a29e0.ly:31:48:49"
     id="a500"
     transform="translate(-2.2771846,-3.2263049)">
    <g
       transform="translate(41.0766,14.9165)"
       id="g498">
      <text
         font-family="serif"
         font-size="2.0989px"
         text-anchor="start"
         fill="currentColor"
         id="text496"><tspan
           id="tspan494">and</tspan></text>
    </g>
  </a>
  <g
     transform="translate(39.826715,6.1901951)"
     id="g504">
    <rect
       x="-0.061700001"
       y="-2.8225"
       width="0.1233"
       height="2.7490001"
       ry="0.039999999"
       fill="currentColor"
       id="rect502" />
  </g>
  <g
     transform="translate(55.256015,7.7335951)"
     id="g508">
    <polygon
       stroke-linejoin="round"
       stroke-linecap="round"
       stroke-width="0.08"
       fill="currentColor"
       stroke="currentColor"
       points="0.04,0.164 0.04,-0.164 12.0793,-0.164 12.0793,0.164 "
       id="polygon506" />
  </g>
  <g
     transform="translate(45.187215,6.3467951)"
     id="g512">
    <polygon
       stroke-linejoin="round"
       stroke-linecap="round"
       stroke-width="0.08"
       fill="currentColor"
       stroke="currentColor"
       points="0.04,0.164 0.04,-0.164 6.7555,0.5294 6.7555,0.8574 "
       id="polygon510" />
  </g>
</svg>
