<svg xmlns="http://www.w3.org/2000/svg" xmlns:xlink="http://www.w3.org/1999/xlink" version="1.2" width="101.64mm" height="297.00mm" viewBox="0 0 57.8389 169.0094">
<style type="text/css">
<![CDATA[
tspan { white-space: pre; }
]]>
</style>
<!-- Page: 1/1 -->
<g transform="translate(55.8824, 5.8262)">
<rect x="0.0000" y="-1.7000" width="0.1802" height="3.4000" ry="0.0000" fill="currentColor"/>
</g>
<g transform="translate(44.9055, 5.8262)">
<rect x="0.0000" y="-1.7000" width="0.1802" height="3.4000" ry="0.0000" fill="currentColor"/>
</g>
<g transform="translate(24.9751, 5.8262)">
<rect x="0.0000" y="-1.7000" width="0.1802" height="3.4000" ry="0.0000" fill="currentColor"/>
</g>
<g transform="translate(22.5309, 7.5262)">
<line stroke-linejoin="round" stroke-linecap="round" stroke-width="0.0949" stroke="currentColor" x1="0.0474" y1="0" x2="33.4844" y2="0"/>
</g>
<g transform="translate(22.5309, 6.6762)">
<line stroke-linejoin="round" stroke-linecap="round" stroke-width="0.0949" stroke="currentColor" x1="0.0474" y1="0" x2="33.4844" y2="0"/>
</g>
<g transform="translate(22.5309, 5.8262)">
<line stroke-linejoin="round" stroke-linecap="round" stroke-width="0.0949" stroke="currentColor" x1="0.0474" y1="0" x2="33.4844" y2="0"/>
</g>
<g transform="translate(22.5309, 4.9762)">
<line stroke-linejoin="round" stroke-linecap="round" stroke-width="0.0949" stroke="currentColor" x1="0.0474" y1="0" x2="33.4844" y2="0"/>
</g>
<g transform="translate(22.5309, 4.1262)">
<line stroke-linejoin="round" stroke-linecap="round" stroke-width="0.0949" stroke="currentColor" x1="0.0474" y1="0" x2="33.4844" y2="0"/>
</g>
<g transform="translate(2.2762, 8.3762)">
<rect x="47.5042" y="-0.0899" width="1.6611" height="0.1799" ry="0.0899" fill="currentColor"/>
</g>
<g transform="translate(2.2762, 8.3762)">
<rect x="43.4162" y="-0.0899" width="1.7602" height="0.1799" ry="0.0899" fill="currentColor"/>
</g>
<g transform="translate(2.2762, 8.3762)">
<rect x="33.9898" y="-0.0899" width="1.6611" height="0.1799" ry="0.0899" fill="currentColor"/>
</g>
<a style="color:inherit;" xlink:href="textedit:///Users/tomsegarra/Documents/dev/dummies/lilypond_files/1d4be54339f3d727631381b032f1964e.ly:18:14:15">
<g transform="translate(2.7762, 5.6089)">
<text font-family="sans-serif" font-size="2.2240" text-anchor="start" fill="currentColor">
<tspan>C</tspan>
</text>
</g>
</a>
<a style="color:inherit;" xlink:href="textedit:///Users/tomsegarra/Documents/dev/dummies/lilypond_files/1d4be54339f3d727631381b032f1964e.ly:18:17:18">
<g transform="translate(7.3743, 5.6089)">
<text font-family="sans-serif" font-size="2.2240" text-anchor="start" fill="currentColor">
<tspan>G</tspan>
</text>
</g>
<g transform="translate(9.1156, 4.4197)">
<text font-family="sans-serif" font-size="1.5727" text-anchor="start" fill="currentColor">
<tspan>sus</tspan>
</text>
</g>
<g transform="translate(11.7446, 4.4197)">
<text font-family="sans-serif" font-size="1.5727" text-anchor="start" fill="currentColor">
<tspan>4</tspan>
</text>
</g>
</a>
<g transform="translate(37.5270, 5.6696)">
<polygon stroke-linejoin="round" stroke-linecap="round" stroke-width="0.0800" fill="currentColor" stroke="currentColor" points="4.0330 -0.7009 4.0330 -0.3729 0.0400 0.1640 0.0400 -0.1640"/>
</g>
<a style="color:inherit;" xlink:href="textedit:///Users/tomsegarra/Documents/dev/dummies/lilypond_files/1d4be54339f3d727631381b032f1964e.ly:18:24:25">
<g transform="translate(13.8348, 5.6089)">
<text font-family="sans-serif" font-size="2.2240" text-anchor="start" fill="currentColor">
<tspan>F</tspan>
</text>
</g>
</a>
<a style="color:inherit;" xlink:href="textedit:///Users/tomsegarra/Documents/dev/dummies/lilypond_files/1d4be54339f3d727631381b032f1964e.ly:21:9:10">
<g transform="translate(50.0573, 5.8262)">
<path stroke-width="0.0759" stroke-linejoin="round" stroke-linecap="round" stroke="currentColor" fill="currentColor" d="M0.6090 3.4413C1.4246 4.0104 2.8040 3.8015 3.4144 3.0163L3.4144 3.0163C2.7869 3.6889 1.4075 3.8979 0.6090 3.4413z"/>
</g>
</a>
<a style="color:inherit;" xlink:href="textedit:///Users/tomsegarra/Documents/dev/dummies/lilypond_files/1d4be54339f3d727631381b032f1964e.ly:23:42:43">
<g transform="translate(53.3426, 11.3262)">
<rect x="0.0000" y="-0.0759" width="1.4241" height="0.0759" ry="0.0304" fill="currentColor"/>
</g>
</a>
<a style="color:inherit;" xlink:href="textedit:///Users/tomsegarra/Documents/dev/dummies/lilypond_files/1d4be54339f3d727631381b032f1964e.ly:18:26:27">
<g transform="translate(18.4328, 5.6089)">
<text font-family="sans-serif" font-size="2.2240" text-anchor="start" fill="currentColor">
<tspan>E</tspan>
</text>
</g>
</a>
<a style="color:inherit;" xlink:href="textedit:///Users/tomsegarra/Documents/dev/dummies/lilypond_files/1d4be54339f3d727631381b032f1964e.ly:20:4:5">
<g transform="translate(29.3435, 6.2512)">
<path transform="scale(0.0034, -0.0034)" d="M215 137c67 0 111 -37 111 -92c0 -90 -111 -182 -215 -182c-67 0 -111 37 -111 92c0 90 111 182 215 182z" fill="currentColor"/>
</g>
</a>
<g transform="translate(22.5309, 6.6762)">
<path transform="scale(0.0034, -0.0034)" d="M208 -469c37 0 129 18 129 195c0 22 0 44 -2 66c-3 -1 -34 -5 -67 -5c-155 0 -266 145 -266 303c0 144 99 253 189 367c-31 96 -43 143 -43 289c0 92 41 179 113 237c7 6 17 6 23 0c55 -66 108 -201 108 -295c0 -114 -62 -207 -133 -297c18 -59 34 -118 48 -178
c2 0 3 1 5 1c126 0 207 -105 207 -213c0 -92 -60 -170 -141 -198c2 -26 3 -53 3 -79c0 -17 -1 -33 -2 -50c-6 -100 -77 -187 -174 -187c-88 0 -158 72 -158 161c0 46 42 83 90 83c43 0 76 -38 76 -83c0 -42 -34 -76 -76 -76h-9c19 -25 47 -41 80 -41zM374 -154
c43 18 80 65 80 124c0 67 -48 134 -125 146c16 -76 36 -186 45 -270zM64 17c0 -115 115 -186 207 -186c1 0 34 0 60 4c-6 51 -21 160 -47 282c-59 -7 -93 -48 -93 -92c0 -34 20 -69 63 -93c5 -5 7 -11 7 -16c0 -12 -10 -23 -22 -23c-15 0 -105 52 -105 153
c0 72 47 142 129 162c-11 47 -24 94 -38 141c-81 -101 -161 -203 -161 -332zM317 857c-76 -43 -122 -123 -122 -210c0 -35 11 -82 30 -146c58 79 105 161 105 260c0 24 0 48 -13 96z" fill="currentColor"/>
</g>
<g transform="translate(25.9053, 5.8262)">
<path transform="scale(0.0034, -0.0034)" d="M358 29c-30 0 -74 23 -74 73c0 38 27 76 71 76c4 0 7 0 11 -1c-27 36 -69 59 -116 59c-106 0 -113 -74 -113 -188c0 -15 1 -31 1 -48s-1 -33 -1 -48c0 -114 7 -188 113 -188c79 0 136 70 155 150c2 7 7 10 13 10c7 0 14 -5 14 -13c0 -21 -50 -175 -182 -175
c-59 0 -250 20 -250 264c0 63 18 264 250 264c115 0 174 -109 174 -165c0 -39 -30 -70 -66 -70z" fill="currentColor"/>
</g>
<a style="color:inherit;" xlink:href="textedit:///Users/tomsegarra/Documents/dev/dummies/lilypond_files/1d4be54339f3d727631381b032f1964e.ly:23:15:16">
<g transform="translate(28.1558, 11.3262)">
<text font-family="serif" font-size="2.0989" text-anchor="start" fill="currentColor">
<tspan>One</tspan>
</text>
</g>
</a>
<g transform="translate(30.3892, 5.8262)">
<rect x="-0.0617" y="-2.5500" width="0.1233" height="2.8225" ry="0.0400" fill="currentColor"/>
</g>
<a style="color:inherit;" xlink:href="textedit:///Users/tomsegarra/Documents/dev/dummies/lilypond_files/1d4be54339f3d727631381b032f1964e.ly:20:7:8">
<g transform="translate(33.0542, 7.5262)">
<path transform="scale(0.0034, -0.0034)" d="M215 137c67 0 111 -37 111 -92c0 -90 -111 -182 -215 -182c-67 0 -111 37 -111 92c0 90 111 182 215 182z" fill="currentColor"/>
</g>
</a>
<a style="color:inherit;" xlink:href="textedit:///Users/tomsegarra/Documents/dev/dummies/lilypond_files/1d4be54339f3d727631381b032f1964e.ly:23:19:20">
<g transform="translate(32.0885, 11.3262)">
<text font-family="serif" font-size="2.0989" text-anchor="start" fill="currentColor">
<tspan>day</tspan>
</text>
</g>
</a>
<g transform="translate(34.0999, 5.8262)">
<rect x="-0.0617" y="-1.2750" width="0.1233" height="2.8225" ry="0.0400" fill="currentColor"/>
</g>
<a style="color:inherit;" xlink:href="textedit:///Users/tomsegarra/Documents/dev/dummies/lilypond_files/1d4be54339f3d727631381b032f1964e.ly:20:9:10">
<g transform="translate(36.5429, 8.3762)">
<path transform="scale(0.0034, -0.0034)" d="M215 137c67 0 111 -37 111 -92c0 -90 -111 -182 -215 -182c-67 0 -111 37 -111 92c0 90 111 182 215 182z" fill="currentColor"/>
</g>
</a>
<a style="color:inherit;" xlink:href="textedit:///Users/tomsegarra/Documents/dev/dummies/lilypond_files/1d4be54339f3d727631381b032f1964e.ly:23:23:24">
<g transform="translate(35.5772, 11.3262)">
<text font-family="serif" font-size="2.0989" text-anchor="start" fill="currentColor">
<tspan>this</tspan>
</text>
</g>
</a>
<g transform="translate(37.5886, 5.8262)">
<rect x="-0.0617" y="-0.1647" width="0.1233" height="2.5622" ry="0.0400" fill="currentColor"/>
</g>
<a style="color:inherit;" xlink:href="textedit:///Users/tomsegarra/Documents/dev/dummies/lilypond_files/1d4be54339f3d727631381b032f1964e.ly:20:12:13">
<g transform="translate(40.4926, 7.5262)">
<path transform="scale(0.0034, -0.0034)" d="M215 137c67 0 111 -37 111 -92c0 -90 -111 -182 -215 -182c-67 0 -111 37 -111 92c0 90 111 182 215 182z" fill="currentColor"/>
</g>
</a>
<a style="color:inherit;" xlink:href="textedit:///Users/tomsegarra/Documents/dev/dummies/lilypond_files/1d4be54339f3d727631381b032f1964e.ly:23:28:29">
<g transform="translate(39.0660, 11.3262)">
<text font-family="serif" font-size="2.0989" text-anchor="start" fill="currentColor">
<tspan>shall</tspan>
</text>
</g>
</a>
<g transform="translate(41.5383, 5.8262)">
<rect x="-0.0617" y="-0.6853" width="0.1233" height="2.2328" ry="0.0400" fill="currentColor"/>
</g>
<a style="color:inherit;" xlink:href="textedit:///Users/tomsegarra/Documents/dev/dummies/lilypond_files/1d4be54339f3d727631381b032f1964e.ly:20:14:15">
<g transform="translate(42.4000, 5.8262)">
<path transform="scale(0.0034, -0.0034)" d="M-8 78c0 59 125 83 125 182c0 25 -9 49 -26 69l-33 40c-3 4 -4 7 -4 11c0 9 9 17 18 17c4 0 8 -2 12 -6l150 -179c7 -9 11 -18 11 -26c0 -59 -125 -83 -125 -182c0 -25 8 -49 25 -69l82 -97c3 -4 4 -7 4 -11c0 -9 -8 -17 -17 -17c-10 0 -42 42 -106 42
c-19 0 -54 -1 -54 -66c0 -34 10 -73 27 -93c7 -9 -5 -20 -12 -11c-45 53 -93 147 -93 201c0 42 27 42 43 42c31 0 74 -11 113 -27l-129 154c-7 9 -11 18 -11 26z" fill="currentColor"/>
</g>
</a>
<a style="color:inherit;" xlink:href="textedit:///Users/tomsegarra/Documents/dev/dummies/lilypond_files/1d4be54339f3d727631381b032f1964e.ly:21:4:5">
<g transform="translate(45.9857, 8.8012)">
<path transform="scale(0.0034, -0.0034)" d="M312 64c0 23 -18 41 -41 41c-39 0 -201 -110 -228 -142c-7 -8 -10 -17 -10 -27c0 -23 18 -41 41 -41c39 0 201 110 228 142c7 8 10 17 10 27zM259 137c46 0 86 -17 86 -74c0 -26 -15 -112 -73 -151c-29 -20 -89 -49 -186 -49c-46 0 -86 17 -86 74c0 26 16 112 74 151
c29 20 88 49 185 49z" fill="currentColor"/>
</g>
</a>
<a style="color:inherit;" xlink:href="textedit:///Users/tomsegarra/Documents/dev/dummies/lilypond_files/1d4be54339f3d727631381b032f1964e.ly:23:34:35">
<g transform="translate(45.5823, 11.3262)">
<text font-family="serif" font-size="2.0989" text-anchor="start" fill="currentColor">
<tspan>be</tspan>
</text>
</g>
</a>
<g transform="translate(47.0976, 5.8262)">
<rect x="-0.0617" y="-0.0000" width="0.1233" height="2.7600" ry="0.0400" fill="currentColor"/>
</g>
<a style="color:inherit;" xlink:href="textedit:///Users/tomsegarra/Documents/dev/dummies/lilypond_files/1d4be54339f3d727631381b032f1964e.ly:21:7:8">
<g transform="translate(50.0573, 8.3762)">
<path transform="scale(0.0034, -0.0034)" d="M215 137c67 0 111 -37 111 -92c0 -90 -111 -182 -215 -182c-67 0 -111 37 -111 92c0 90 111 182 215 182z" fill="currentColor"/>
</g>
</a>
<a style="color:inherit;" xlink:href="textedit:///Users/tomsegarra/Documents/dev/dummies/lilypond_files/1d4be54339f3d727631381b032f1964e.ly:23:37:38">
<g transform="translate(50.0573, 11.3262)">
<text font-family="serif" font-size="2.0989" text-anchor="start" fill="currentColor">
<tspan>free</tspan>
</text>
</g>
</a>
<g transform="translate(51.1030, 5.8262)">
<rect x="-0.0617" y="-0.4250" width="0.1233" height="2.8225" ry="0.0400" fill="currentColor"/>
</g>
<a style="color:inherit;" xlink:href="textedit:///Users/tomsegarra/Documents/dev/dummies/lilypond_files/1d4be54339f3d727631381b032f1964e.ly:21:11:12">
<g transform="translate(52.8627, 7.9512)">
<path transform="scale(0.0034, -0.0034)" d="M215 137c67 0 111 -37 111 -92c0 -90 -111 -182 -215 -182c-67 0 -111 37 -111 92c0 90 111 182 215 182z" fill="currentColor"/>
</g>
</a>
<g transform="translate(53.9084, 5.8262)">
<rect x="-0.0617" y="-0.8500" width="0.1233" height="2.8225" ry="0.0400" fill="currentColor"/>
</g>
</svg>
