<?xml version="1.0" encoding="UTF-8" standalone="no"?>
<svg
   version="1.2"
   width="93.420723mm"
   height="14.942252mm"
   viewBox="0 0 53.161668 8.5029666"
   id="svg240"
   sodipodi:docname="1d4be54339f3d727631381b032f1964e.svg"
   xmlns:inkscape="http://www.inkscape.org/namespaces/inkscape"
   xmlns:sodipodi="http://sodipodi.sourceforge.net/DTD/sodipodi-0.dtd"
   xmlns:xlink="http://www.w3.org/1999/xlink"
   xmlns="http://www.w3.org/2000/svg"
   xmlns:svg="http://www.w3.org/2000/svg">
  <defs
     id="defs244" />
  <sodipodi:namedview
     id="namedview242"
     pagecolor="#ffffff"
     bordercolor="#000000"
     borderopacity="0.25"
     inkscape:showpageshadow="2"
     inkscape:pageopacity="0.0"
     inkscape:pagecheckerboard="0"
     inkscape:deskcolor="#d1d1d1"
     inkscape:document-units="mm" />
  <style
     type="text/css"
     id="style2"><![CDATA[
tspan { white-space: pre; }
]]></style>
  <!-- Page: 1/1 -->
  <g
     transform="translate(52.981317,2.5498166)"
     id="g6">
    <rect
       x="0"
       y="-1.7"
       width="0.1802"
       height="3.4000001"
       ry="0.0000"
       fill="currentColor"
       id="rect4" />
  </g>
  <g
     transform="translate(42.004417,2.5498166)"
     id="g10">
    <rect
       x="0"
       y="-1.7"
       width="0.1802"
       height="3.4000001"
       ry="0.0000"
       fill="currentColor"
       id="rect8" />
  </g>
  <g
     transform="translate(22.074017,2.5498166)"
     id="g14">
    <rect
       x="0"
       y="-1.7"
       width="0.1802"
       height="3.4000001"
       ry="0.0000"
       fill="currentColor"
       id="rect12" />
  </g>
  <g
     transform="translate(19.629817,4.2498166)"
     id="g18">
    <line
       stroke-linejoin="round"
       stroke-linecap="round"
       stroke-width="0.0949"
       stroke="currentColor"
       x1="0.047400001"
       y1="0"
       x2="33.484402"
       y2="0"
       id="line16" />
  </g>
  <g
     transform="translate(19.629817,3.3998166)"
     id="g22">
    <line
       stroke-linejoin="round"
       stroke-linecap="round"
       stroke-width="0.0949"
       stroke="currentColor"
       x1="0.047400001"
       y1="0"
       x2="33.484402"
       y2="0"
       id="line20" />
  </g>
  <g
     transform="translate(19.629817,2.5498166)"
     id="g26">
    <line
       stroke-linejoin="round"
       stroke-linecap="round"
       stroke-width="0.0949"
       stroke="currentColor"
       x1="0.047400001"
       y1="0"
       x2="33.484402"
       y2="0"
       id="line24" />
  </g>
  <g
     transform="translate(19.629817,1.6998166)"
     id="g30">
    <line
       stroke-linejoin="round"
       stroke-linecap="round"
       stroke-width="0.0949"
       stroke="currentColor"
       x1="0.047400001"
       y1="0"
       x2="33.484402"
       y2="0"
       id="line28" />
  </g>
  <g
     transform="translate(19.629817,0.84981663)"
     id="g34">
    <line
       stroke-linejoin="round"
       stroke-linecap="round"
       stroke-width="0.0949"
       stroke="currentColor"
       x1="0.047400001"
       y1="0"
       x2="33.484402"
       y2="0"
       id="line32" />
  </g>
  <g
     transform="translate(-0.62488281,5.0998166)"
     id="g38">
    <rect
       x="47.5042"
       y="-0.089900002"
       width="1.6611"
       height="0.17990001"
       ry="0.089900002"
       fill="currentColor"
       id="rect36" />
  </g>
  <g
     transform="translate(-0.62488281,5.0998166)"
     id="g42">
    <rect
       x="43.416199"
       y="-0.089900002"
       width="1.7602"
       height="0.17990001"
       ry="0.089900002"
       fill="currentColor"
       id="rect40" />
  </g>
  <g
     transform="translate(-0.62488281,5.0998166)"
     id="g46">
    <rect
       x="33.989799"
       y="-0.089900002"
       width="1.6611"
       height="0.17990001"
       ry="0.089900002"
       fill="currentColor"
       id="rect44" />
  </g>
  <a
     style="color:inherit"
     xlink:href="textedit:///Users/tomsegarra/Documents/dev/dummies/lilypond_files/1d4be54339f3d727631381b032f1964e.ly:18:14:15"
     id="a54"
     transform="translate(-2.9010828,-3.2763834)">
    <g
       transform="translate(2.7762,5.6089)"
       id="g52">
      <text
         font-family="sans-serif"
         font-size="2.224px"
         text-anchor="start"
         fill="currentColor"
         id="text50"><tspan
           id="tspan48">C</tspan></text>
    </g>
  </a>
  <a
     style="color:inherit"
     xlink:href="textedit:///Users/tomsegarra/Documents/dev/dummies/lilypond_files/1d4be54339f3d727631381b032f1964e.ly:18:17:18"
     id="a74"
     transform="translate(-2.9010828,-3.2763834)">
    <g
       transform="translate(7.3743,5.6089)"
       id="g60">
      <text
         font-family="sans-serif"
         font-size="2.224px"
         text-anchor="start"
         fill="currentColor"
         id="text58"><tspan
           id="tspan56">G</tspan></text>
    </g>
    <g
       transform="translate(9.1156,4.4197)"
       id="g66">
      <text
         font-family="sans-serif"
         font-size="1.5727px"
         text-anchor="start"
         fill="currentColor"
         id="text64"><tspan
           id="tspan62">sus</tspan></text>
    </g>
    <g
       transform="translate(11.7446,4.4197)"
       id="g72">
      <text
         font-family="sans-serif"
         font-size="1.5727px"
         text-anchor="start"
         fill="currentColor"
         id="text70"><tspan
           id="tspan68">4</tspan></text>
    </g>
  </a>
  <g
     transform="translate(34.625917,2.3932166)"
     id="g78">
    <polygon
       stroke-linejoin="round"
       stroke-linecap="round"
       stroke-width="0.08"
       fill="currentColor"
       stroke="currentColor"
       points="0.04,0.164 0.04,-0.164 4.033,-0.7009 4.033,-0.3729 "
       id="polygon76" />
  </g>
  <a
     style="color:inherit"
     xlink:href="textedit:///Users/tomsegarra/Documents/dev/dummies/lilypond_files/1d4be54339f3d727631381b032f1964e.ly:18:24:25"
     id="a86"
     transform="translate(-2.9010828,-3.2763834)">
    <g
       transform="translate(13.8348,5.6089)"
       id="g84">
      <text
         font-family="sans-serif"
         font-size="2.224px"
         text-anchor="start"
         fill="currentColor"
         id="text82"><tspan
           id="tspan80">F</tspan></text>
    </g>
  </a>
  <a
     style="color:inherit"
     xlink:href="textedit:///Users/tomsegarra/Documents/dev/dummies/lilypond_files/1d4be54339f3d727631381b032f1964e.ly:21:9:10"
     id="a92"
     transform="translate(-2.9010828,-3.2763834)">
    <g
       transform="translate(50.0573,5.8262)"
       id="g90">
      <path
         stroke-width="0.0759"
         stroke-linejoin="round"
         stroke-linecap="round"
         stroke="currentColor"
         fill="currentColor"
         d="m 0.609,3.4413 c 0.8156,0.5691 2.195,0.3602 2.8054,-0.425 v 0 C 2.7869,3.6889 1.4075,3.8979 0.609,3.4413 Z"
         id="path88" />
    </g>
  </a>
  <a
     style="color:inherit"
     xlink:href="textedit:///Users/tomsegarra/Documents/dev/dummies/lilypond_files/1d4be54339f3d727631381b032f1964e.ly:23:42:43"
     id="a98"
     transform="translate(-2.9010828,-3.2763834)">
    <g
       transform="translate(53.3426,11.3262)"
       id="g96">
      <rect
         x="0"
         y="-0.075900003"
         width="1.4241"
         height="0.075900003"
         ry="0.030400001"
         fill="currentColor"
         id="rect94" />
    </g>
  </a>
  <a
     style="color:inherit"
     xlink:href="textedit:///Users/tomsegarra/Documents/dev/dummies/lilypond_files/1d4be54339f3d727631381b032f1964e.ly:18:26:27"
     id="a106"
     transform="translate(-2.9010828,-3.2763834)">
    <g
       transform="translate(18.4328,5.6089)"
       id="g104">
      <text
         font-family="sans-serif"
         font-size="2.224px"
         text-anchor="start"
         fill="currentColor"
         id="text102"><tspan
           id="tspan100">E</tspan></text>
    </g>
  </a>
  <a
     style="color:inherit"
     xlink:href="textedit:///Users/tomsegarra/Documents/dev/dummies/lilypond_files/1d4be54339f3d727631381b032f1964e.ly:20:4:5"
     id="a112"
     transform="translate(-2.9010828,-3.2763834)">
    <g
       transform="translate(29.3435,6.2512)"
       id="g110">
      <path
         transform="scale(0.0034,-0.0034)"
         d="m 215,137 c 67,0 111,-37 111,-92 0,-90 -111,-182 -215,-182 -67,0 -111,37 -111,92 0,90 111,182 215,182 z"
         fill="currentColor"
         id="path108" />
    </g>
  </a>
  <g
     transform="translate(19.629817,3.3998166)"
     id="g116">
    <path
       transform="scale(0.0034,-0.0034)"
       d="m 208,-469 c 37,0 129,18 129,195 0,22 0,44 -2,66 -3,-1 -34,-5 -67,-5 C 113,-213 2,-68 2,90 c 0,144 99,253 189,367 -31,96 -43,143 -43,289 0,92 41,179 113,237 7,6 17,6 23,0 55,-66 108,-201 108,-295 0,-114 -62,-207 -133,-297 18,-59 34,-118 48,-178 2,0 3,1 5,1 126,0 207,-105 207,-213 0,-92 -60,-170 -141,-198 2,-26 3,-53 3,-79 0,-17 -1,-33 -2,-50 -6,-100 -77,-187 -174,-187 -88,0 -158,72 -158,161 0,46 42,83 90,83 43,0 76,-38 76,-83 0,-42 -34,-76 -76,-76 h -9 c 19,-25 47,-41 80,-41 z m 166,315 c 43,18 80,65 80,124 0,67 -48,134 -125,146 16,-76 36,-186 45,-270 z M 64,17 c 0,-115 115,-186 207,-186 1,0 34,0 60,4 -6,51 -21,160 -47,282 -59,-7 -93,-48 -93,-92 0,-34 20,-69 63,-93 5,-5 7,-11 7,-16 0,-12 -10,-23 -22,-23 -15,0 -105,52 -105,153 0,72 47,142 129,162 -11,47 -24,94 -38,141 C 144,248 64,146 64,17 Z M 317,857 C 241,814 195,734 195,647 c 0,-35 11,-82 30,-146 58,79 105,161 105,260 0,24 0,48 -13,96 z"
       fill="currentColor"
       id="path114" />
  </g>
  <g
     transform="translate(23.004217,2.5498166)"
     id="g120">
    <path
       transform="scale(0.0034,-0.0034)"
       d="m 358,29 c -30,0 -74,23 -74,73 0,38 27,76 71,76 4,0 7,0 11,-1 -27,36 -69,59 -116,59 -106,0 -113,-74 -113,-188 0,-15 1,-31 1,-48 0,-17 -1,-33 -1,-48 0,-114 7,-188 113,-188 79,0 136,70 155,150 2,7 7,10 13,10 7,0 14,-5 14,-13 0,-21 -50,-175 -182,-175 C 191,-264 0,-244 0,0 0,63 18,264 250,264 365,264 424,155 424,99 424,60 394,29 358,29 Z"
       fill="currentColor"
       id="path118" />
  </g>
  <a
     style="color:inherit"
     xlink:href="textedit:///Users/tomsegarra/Documents/dev/dummies/lilypond_files/1d4be54339f3d727631381b032f1964e.ly:23:15:16"
     id="a128"
     transform="translate(-2.9010828,-3.2763834)">
    <g
       transform="translate(28.1558,11.3262)"
       id="g126">
      <text
         font-family="serif"
         font-size="2.0989px"
         text-anchor="start"
         fill="currentColor"
         id="text124"><tspan
           id="tspan122">One</tspan></text>
    </g>
  </a>
  <g
     transform="translate(27.488117,2.5498166)"
     id="g132">
    <rect
       x="-0.061700001"
       y="-2.55"
       width="0.1233"
       height="2.8225"
       ry="0.039999999"
       fill="currentColor"
       id="rect130" />
  </g>
  <a
     style="color:inherit"
     xlink:href="textedit:///Users/tomsegarra/Documents/dev/dummies/lilypond_files/1d4be54339f3d727631381b032f1964e.ly:20:7:8"
     id="a138"
     transform="translate(-2.9010828,-3.2763834)">
    <g
       transform="translate(33.0542,7.5262)"
       id="g136">
      <path
         transform="scale(0.0034,-0.0034)"
         d="m 215,137 c 67,0 111,-37 111,-92 0,-90 -111,-182 -215,-182 -67,0 -111,37 -111,92 0,90 111,182 215,182 z"
         fill="currentColor"
         id="path134" />
    </g>
  </a>
  <a
     style="color:inherit"
     xlink:href="textedit:///Users/tomsegarra/Documents/dev/dummies/lilypond_files/1d4be54339f3d727631381b032f1964e.ly:23:19:20"
     id="a146"
     transform="translate(-2.9010828,-3.2763834)">
    <g
       transform="translate(32.0885,11.3262)"
       id="g144">
      <text
         font-family="serif"
         font-size="2.0989px"
         text-anchor="start"
         fill="currentColor"
         id="text142"><tspan
           id="tspan140">day</tspan></text>
    </g>
  </a>
  <g
     transform="translate(31.198817,2.5498166)"
     id="g150">
    <rect
       x="-0.061700001"
       y="-1.275"
       width="0.1233"
       height="2.8225"
       ry="0.039999999"
       fill="currentColor"
       id="rect148" />
  </g>
  <a
     style="color:inherit"
     xlink:href="textedit:///Users/tomsegarra/Documents/dev/dummies/lilypond_files/1d4be54339f3d727631381b032f1964e.ly:20:9:10"
     id="a156"
     transform="translate(-2.9010828,-3.2763834)">
    <g
       transform="translate(36.5429,8.3762)"
       id="g154">
      <path
         transform="scale(0.0034,-0.0034)"
         d="m 215,137 c 67,0 111,-37 111,-92 0,-90 -111,-182 -215,-182 -67,0 -111,37 -111,92 0,90 111,182 215,182 z"
         fill="currentColor"
         id="path152" />
    </g>
  </a>
  <a
     style="color:inherit"
     xlink:href="textedit:///Users/tomsegarra/Documents/dev/dummies/lilypond_files/1d4be54339f3d727631381b032f1964e.ly:23:23:24"
     id="a164"
     transform="translate(-2.9010828,-3.2763834)">
    <g
       transform="translate(35.5772,11.3262)"
       id="g162">
      <text
         font-family="serif"
         font-size="2.0989px"
         text-anchor="start"
         fill="currentColor"
         id="text160"><tspan
           id="tspan158">this</tspan></text>
    </g>
  </a>
  <g
     transform="translate(34.687517,2.5498166)"
     id="g168">
    <rect
       x="-0.061700001"
       y="-0.1647"
       width="0.1233"
       height="2.5622001"
       ry="0.039999999"
       fill="currentColor"
       id="rect166" />
  </g>
  <a
     style="color:inherit"
     xlink:href="textedit:///Users/tomsegarra/Documents/dev/dummies/lilypond_files/1d4be54339f3d727631381b032f1964e.ly:20:12:13"
     id="a174"
     transform="translate(-2.9010828,-3.2763834)">
    <g
       transform="translate(40.4926,7.5262)"
       id="g172">
      <path
         transform="scale(0.0034,-0.0034)"
         d="m 215,137 c 67,0 111,-37 111,-92 0,-90 -111,-182 -215,-182 -67,0 -111,37 -111,92 0,90 111,182 215,182 z"
         fill="currentColor"
         id="path170" />
    </g>
  </a>
  <a
     style="color:inherit"
     xlink:href="textedit:///Users/tomsegarra/Documents/dev/dummies/lilypond_files/1d4be54339f3d727631381b032f1964e.ly:23:28:29"
     id="a182"
     transform="translate(-2.9010828,-3.2763834)">
    <g
       transform="translate(39.066,11.3262)"
       id="g180">
      <text
         font-family="serif"
         font-size="2.0989px"
         text-anchor="start"
         fill="currentColor"
         id="text178"><tspan
           id="tspan176">shall</tspan></text>
    </g>
  </a>
  <g
     transform="translate(38.637217,2.5498166)"
     id="g186">
    <rect
       x="-0.061700001"
       y="-0.68529999"
       width="0.1233"
       height="2.2328"
       ry="0.039999999"
       fill="currentColor"
       id="rect184" />
  </g>
  <a
     style="color:inherit"
     xlink:href="textedit:///Users/tomsegarra/Documents/dev/dummies/lilypond_files/1d4be54339f3d727631381b032f1964e.ly:20:14:15"
     id="a192"
     transform="translate(-2.9010828,-3.2763834)">
    <g
       transform="translate(42.4,5.8262)"
       id="g190">
      <path
         transform="scale(0.0034,-0.0034)"
         d="m -8,78 c 0,59 125,83 125,182 0,25 -9,49 -26,69 l -33,40 c -3,4 -4,7 -4,11 0,9 9,17 18,17 4,0 8,-2 12,-6 L 234,212 c 7,-9 11,-18 11,-26 0,-59 -125,-83 -125,-182 0,-25 8,-49 25,-69 l 82,-97 c 3,-4 4,-7 4,-11 0,-9 -8,-17 -17,-17 -10,0 -42,42 -106,42 -19,0 -54,-1 -54,-66 0,-34 10,-73 27,-93 7,-9 -5,-20 -12,-11 -45,53 -93,147 -93,201 0,42 27,42 43,42 31,0 74,-11 113,-27 L 3,52 C -4,61 -8,70 -8,78 Z"
         fill="currentColor"
         id="path188" />
    </g>
  </a>
  <a
     style="color:inherit"
     xlink:href="textedit:///Users/tomsegarra/Documents/dev/dummies/lilypond_files/1d4be54339f3d727631381b032f1964e.ly:21:4:5"
     id="a198"
     transform="translate(-2.9010828,-3.2763834)">
    <g
       transform="translate(45.9857,8.8012)"
       id="g196">
      <path
         transform="scale(0.0034,-0.0034)"
         d="m 312,64 c 0,23 -18,41 -41,41 C 232,105 70,-5 43,-37 36,-45 33,-54 33,-64 c 0,-23 18,-41 41,-41 39,0 201,110 228,142 7,8 10,17 10,27 z m -53,73 c 46,0 86,-17 86,-74 0,-26 -15,-112 -73,-151 -29,-20 -89,-49 -186,-49 -46,0 -86,17 -86,74 0,26 16,112 74,151 29,20 88,49 185,49 z"
         fill="currentColor"
         id="path194" />
    </g>
  </a>
  <a
     style="color:inherit"
     xlink:href="textedit:///Users/tomsegarra/Documents/dev/dummies/lilypond_files/1d4be54339f3d727631381b032f1964e.ly:23:34:35"
     id="a206"
     transform="translate(-2.9010828,-3.2763834)">
    <g
       transform="translate(45.5823,11.3262)"
       id="g204">
      <text
         font-family="serif"
         font-size="2.0989px"
         text-anchor="start"
         fill="currentColor"
         id="text202"><tspan
           id="tspan200">be</tspan></text>
    </g>
  </a>
  <g
     transform="translate(44.196517,2.5498166)"
     id="g210">
    <rect
       x="-0.061700001"
       y="0"
       width="0.1233"
       height="2.76"
       ry="0.039999999"
       fill="currentColor"
       id="rect208" />
  </g>
  <a
     style="color:inherit"
     xlink:href="textedit:///Users/tomsegarra/Documents/dev/dummies/lilypond_files/1d4be54339f3d727631381b032f1964e.ly:21:7:8"
     id="a216"
     transform="translate(-2.9010828,-3.2763834)">
    <g
       transform="translate(50.0573,8.3762)"
       id="g214">
      <path
         transform="scale(0.0034,-0.0034)"
         d="m 215,137 c 67,0 111,-37 111,-92 0,-90 -111,-182 -215,-182 -67,0 -111,37 -111,92 0,90 111,182 215,182 z"
         fill="currentColor"
         id="path212" />
    </g>
  </a>
  <a
     style="color:inherit"
     xlink:href="textedit:///Users/tomsegarra/Documents/dev/dummies/lilypond_files/1d4be54339f3d727631381b032f1964e.ly:23:37:38"
     id="a224"
     transform="translate(-2.9010828,-3.2763834)">
    <g
       transform="translate(50.0573,11.3262)"
       id="g222">
      <text
         font-family="serif"
         font-size="2.0989px"
         text-anchor="start"
         fill="currentColor"
         id="text220"><tspan
           id="tspan218">free</tspan></text>
    </g>
  </a>
  <g
     transform="translate(48.201917,2.5498166)"
     id="g228">
    <rect
       x="-0.061700001"
       y="-0.42500001"
       width="0.1233"
       height="2.8225"
       ry="0.039999999"
       fill="currentColor"
       id="rect226" />
  </g>
  <a
     style="color:inherit"
     xlink:href="textedit:///Users/tomsegarra/Documents/dev/dummies/lilypond_files/1d4be54339f3d727631381b032f1964e.ly:21:11:12"
     id="a234"
     transform="translate(-2.9010828,-3.2763834)">
    <g
       transform="translate(52.8627,7.9512)"
       id="g232">
      <path
         transform="scale(0.0034,-0.0034)"
         d="m 215,137 c 67,0 111,-37 111,-92 0,-90 -111,-182 -215,-182 -67,0 -111,37 -111,92 0,90 111,182 215,182 z"
         fill="currentColor"
         id="path230" />
    </g>
  </a>
  <g
     transform="translate(51.007317,2.5498166)"
     id="g238">
    <rect
       x="-0.061700001"
       y="-0.85000002"
       width="0.1233"
       height="2.8225"
       ry="0.039999999"
       fill="currentColor"
       id="rect236" />
  </g>
</svg>
