<?xml version="1.0" encoding="UTF-8" standalone="no"?>
<svg
   version="1.2"
   width="116.81011mm"
   height="16.103045mm"
   viewBox="0 0 66.471703 9.1635215"
   id="svg438"
   sodipodi:docname="21ef5440d6d8cb18fe84ef67ce1b2107.svg"
   xmlns:inkscape="http://www.inkscape.org/namespaces/inkscape"
   xmlns:sodipodi="http://sodipodi.sourceforge.net/DTD/sodipodi-0.dtd"
   xmlns:xlink="http://www.w3.org/1999/xlink"
   xmlns="http://www.w3.org/2000/svg"
   xmlns:svg="http://www.w3.org/2000/svg">
  <defs
     id="defs442" />
  <sodipodi:namedview
     id="namedview440"
     pagecolor="#ffffff"
     bordercolor="#000000"
     borderopacity="0.25"
     inkscape:showpageshadow="2"
     inkscape:pageopacity="0.0"
     inkscape:pagecheckerboard="0"
     inkscape:deskcolor="#d1d1d1"
     inkscape:document-units="mm" />
  <style
     type="text/css"
     id="style2"><![CDATA[
tspan { white-space: pre; }
]]></style>
  <!-- Page: 1/1 -->
  <g
     transform="translate(66.29145,3.2102014)"
     id="g6">
    <rect
       x="0"
       y="-1.7"
       width="0.1802"
       height="3.4000001"
       ry="0.0000"
       fill="currentColor"
       id="rect4" />
  </g>
  <g
     transform="translate(4.9997121e-5,4.9102014)"
     id="g10">
    <line
       stroke-linejoin="round"
       stroke-linecap="round"
       stroke-width="0.0949"
       stroke="currentColor"
       x1="0.047400001"
       y1="0"
       x2="66.424202"
       y2="0"
       id="line8" />
  </g>
  <g
     transform="translate(4.9997121e-5,4.0602014)"
     id="g14">
    <line
       stroke-linejoin="round"
       stroke-linecap="round"
       stroke-width="0.0949"
       stroke="currentColor"
       x1="0.047400001"
       y1="0"
       x2="66.424202"
       y2="0"
       id="line12" />
  </g>
  <g
     transform="translate(4.9997121e-5,3.2102014)"
     id="g18">
    <line
       stroke-linejoin="round"
       stroke-linecap="round"
       stroke-width="0.0949"
       stroke="currentColor"
       x1="0.047400001"
       y1="0"
       x2="66.424202"
       y2="0"
       id="line16" />
  </g>
  <g
     transform="translate(4.9997121e-5,2.3602014)"
     id="g22">
    <line
       stroke-linejoin="round"
       stroke-linecap="round"
       stroke-width="0.0949"
       stroke="currentColor"
       x1="0.047400001"
       y1="0"
       x2="66.424202"
       y2="0"
       id="line20" />
  </g>
  <g
     transform="translate(4.9997121e-5,1.5102014)"
     id="g26">
    <line
       stroke-linejoin="round"
       stroke-linecap="round"
       stroke-width="0.0949"
       stroke="currentColor"
       x1="0.047400001"
       y1="0"
       x2="66.424202"
       y2="0"
       id="line24" />
  </g>
  <g
     transform="translate(40.55495,3.2102014)"
     id="g30">
    <rect
       x="0"
       y="-1.7"
       width="0.1802"
       height="3.4000001"
       ry="0.0000"
       fill="currentColor"
       id="rect28" />
  </g>
  <g
     transform="translate(13.06565,3.2102014)"
     id="g34">
    <rect
       x="0"
       y="-1.7"
       width="0.1802"
       height="3.4000001"
       ry="0.0000"
       fill="currentColor"
       id="rect32" />
  </g>
  <a
     style="color:inherit"
     xlink:href="textedit:///Users/tomsegarra/Documents/dev/dummies/lilypond_files/21ef5440d6d8cb18fe84ef67ce1b2107.ly:24:15:16"
     id="a40"
     transform="translate(-2.27615,-3.2764986)">
    <g
       transform="translate(13.0344,6.0617)"
       id="g38">
      <path
         transform="scale(0.0034,-0.0034)"
         d="m 215,137 c 67,0 111,-37 111,-92 0,-90 -111,-182 -215,-182 -67,0 -111,37 -111,92 0,90 111,182 215,182 z"
         fill="currentColor"
         id="path36" />
    </g>
  </a>
  <g
     transform="translate(0.80005,4.0602014)"
     id="g44">
    <path
       transform="scale(0.0034,-0.0034)"
       d="m 646,2 c 0,-113 -74,-213 -180,-247 3,-34 5,-68 5,-102 0,-20 -1,-40 -2,-60 -7,-121 -91,-228 -209,-228 -108,0 -196,87 -196,196 0,58 53,104 112,104 54,0 95,-48 95,-104 0,-52 -43,-95 -95,-95 -10,0 -20,2 -29,6 26,-38 68,-63 116,-63 h 3 c 93,2 153,92 159,190 1,19 2,37 2,56 0,30 -2,60 -4,90 -5,-1 -43,-8 -88,-8 -194,0 -333,180 -333,375 0,177 130,307 246,442 -31,98 -53,170 -53,347 0,115 55,223 148,290 7,5 16,4 22,-1 68,-80 134,-243 134,-357 0,-143 -85,-255 -178,-364 21,-68 40,-137 57,-206 1,0 5,1 11,1 C 545,264 646,135 646,2 Z M 462,-202 c 66,24 111,88 111,162 0,89 -65,178 -170,190 28,-135 50,-272 59,-352 z M 75,26 c 0,-145 141,-245 263,-245 1,0 46,0 81,6 -7,65 -27,206 -61,363 -79,-8 -124,-61 -124,-119 0,-43 25,-89 80,-121 5,-5 7,-11 7,-16 0,-12 -10,-23 -22,-23 -16,0 -127,63 -127,188 0,89 58,175 161,198 -14,58 -29,116 -46,173 C 181,308 75,186 75,26 Z M 406,1042 C 307,995 244,894 244,785 c 0,-49 13,-111 38,-191 79,97 144,199 144,324 0,33 0,63 -20,124 z"
       fill="currentColor"
       id="path42" />
  </g>
  <a
     style="color:inherit"
     xlink:href="textedit:///Users/tomsegarra/Documents/dev/dummies/lilypond_files/21ef5440d6d8cb18fe84ef67ce1b2107.ly:23:1:9"
     id="a54"
     transform="translate(-2.27615,-3.2764986)">
    <g
       transform="translate(6.5762,4.7867)"
       id="g48">
      <path
         transform="scale(0.0034,-0.0034)"
         d="m 217,-311 c 0,-11 -8,-19 -19,-19 -11,0 -20,8 -20,19 v 142 l -81,-30 v -156 c 0,-11 -9,-20 -20,-20 -11,0 -19,9 -19,20 v 142 l -28,-11 c -3,-1 -5,-1 -8,-1 -12,0 -22,10 -22,23 v 57 c 0,9 6,18 15,21 l 43,16 V 49 L 30,39 C 27,38 25,38 22,38 10,38 0,47 0,60 v 57 c 0,9 6,18 15,21 l 43,16 v 157 c 0,11 8,19 19,19 11,0 20,-8 20,-19 V 169 l 81,30 v 156 c 0,11 9,20 20,20 11,0 19,-9 19,-20 V 213 l 28,11 c 3,1 5,1 8,1 12,0 22,-10 22,-23 v -57 c 0,-9 -6,-18 -15,-21 L 217,108 V -49 l 28,10 c 3,1 5,1 8,1 12,0 22,-9 22,-22 v -57 c 0,-9 -6,-18 -15,-21 l -43,-16 z M 97,64 V -94 l 81,30 V 94 Z"
         fill="currentColor"
         id="path46" />
    </g>
    <g
       transform="translate(7.5112,6.0617)"
       id="g52">
      <path
         transform="scale(0.0034,-0.0034)"
         d="m 217,-311 c 0,-11 -8,-19 -19,-19 -11,0 -20,8 -20,19 v 142 l -81,-30 v -156 c 0,-11 -9,-20 -20,-20 -11,0 -19,9 -19,20 v 142 l -28,-11 c -3,-1 -5,-1 -8,-1 -12,0 -22,10 -22,23 v 57 c 0,9 6,18 15,21 l 43,16 V 49 L 30,39 C 27,38 25,38 22,38 10,38 0,47 0,60 v 57 c 0,9 6,18 15,21 l 43,16 v 157 c 0,11 8,19 19,19 11,0 20,-8 20,-19 V 169 l 81,30 v 156 c 0,11 9,20 20,20 11,0 19,-9 19,-20 V 213 l 28,11 c 3,1 5,1 8,1 12,0 22,-10 22,-23 v -57 c 0,-9 -6,-18 -15,-21 L 217,108 V -49 l 28,10 c 3,1 5,1 8,1 12,0 22,-9 22,-22 v -57 c 0,-9 -6,-18 -15,-21 l -43,-16 z M 97,64 V -94 l 81,30 V 94 Z"
         fill="currentColor"
         id="path50" />
    </g>
  </a>
  <g
     transform="translate(7.32005,3.2102014)"
     id="g58">
    <path
       transform="scale(0.0034,-0.0034)"
       d="m 358,29 c -30,0 -74,23 -74,73 0,38 27,76 71,76 4,0 7,0 11,-1 -27,36 -69,59 -116,59 -106,0 -113,-74 -113,-188 0,-15 1,-31 1,-48 0,-17 -1,-33 -1,-48 0,-114 7,-188 113,-188 79,0 136,70 155,150 2,7 7,10 13,10 7,0 14,-5 14,-13 0,-21 -50,-175 -182,-175 C 191,-264 0,-244 0,0 0,63 18,264 250,264 365,264 424,155 424,99 424,60 394,29 358,29 Z"
       fill="currentColor"
       id="path56" />
  </g>
  <a
     style="color:inherit"
     xlink:href="textedit:///Users/tomsegarra/Documents/dev/dummies/lilypond_files/21ef5440d6d8cb18fe84ef67ce1b2107.ly:31:15:16"
     id="a66"
     transform="translate(-2.27615,-3.2764986)">
    <g
       transform="translate(12.5979,11.9867)"
       id="g64">
      <text
         font-family="serif"
         font-size="2.0989px"
         text-anchor="start"
         fill="currentColor"
         id="text62"><tspan
           id="tspan60">he</tspan></text>
    </g>
  </a>
  <g
     transform="translate(10.81995,3.2102014)"
     id="g70">
    <rect
       x="-0.061700001"
       y="-0.27250001"
       width="0.1233"
       height="2.8225"
       ry="0.039999999"
       fill="currentColor"
       id="rect68" />
  </g>
  <g
     transform="translate(10.88155,5.7202014)"
     id="g74">
    <path
       transform="scale(0.0034,-0.0034)"
       d="M 0,0 H -18 V 250 H 0 Z m 0,0 v 250 c 96,59 222,149 222,259 0,57 -15,111 -40,162 -3,17 10,29 24,29 8,0 16,-5 21,-13 25,-56 40,-116 40,-178 C 267,306 0,203 0,0 Z"
       fill="currentColor"
       id="path72" />
  </g>
  <a
     style="color:inherit"
     xlink:href="textedit:///Users/tomsegarra/Documents/dev/dummies/lilypond_files/21ef5440d6d8cb18fe84ef67ce1b2107.ly:25:4:5"
     id="a80"
     transform="translate(-2.27615,-3.2764986)">
    <g
       transform="translate(16.5762,5.6367)"
       id="g78">
      <path
         transform="scale(0.0034,-0.0034)"
         d="m 215,137 c 67,0 111,-37 111,-92 0,-90 -111,-182 -215,-182 -67,0 -111,37 -111,92 0,90 111,182 215,182 z"
         fill="currentColor"
         id="path76" />
    </g>
  </a>
  <a
     style="color:inherit"
     xlink:href="textedit:///Users/tomsegarra/Documents/dev/dummies/lilypond_files/21ef5440d6d8cb18fe84ef67ce1b2107.ly:31:18:19"
     id="a88"
     transform="translate(-2.27615,-3.2764986)">
    <g
       transform="translate(15.1325,11.9867)"
       id="g86">
      <text
         font-family="serif"
         font-size="2.0989px"
         text-anchor="start"
         fill="currentColor"
         id="text84"><tspan
           id="tspan82">shou</tspan></text>
    </g>
  </a>
  <g
     transform="translate(14.36165,3.2102014)"
     id="g92">
    <rect
       x="-0.061700001"
       y="-0.69749999"
       width="0.1233"
       height="2.3975"
       ry="0.039999999"
       fill="currentColor"
       id="rect90" />
  </g>
  <g
     transform="translate(19.71845,4.2167014)"
     id="g96">
    <polygon
       stroke-linejoin="round"
       stroke-linecap="round"
       stroke-width="0.08"
       fill="currentColor"
       stroke="currentColor"
       points="0.04,0.164 0.04,-0.164 1.1217,-0.164 1.1217,0.164 "
       id="polygon94" />
  </g>
  <g
     transform="translate(14.30005,4.2167014)"
     id="g100">
    <polygon
       stroke-linejoin="round"
       stroke-linecap="round"
       stroke-width="0.08"
       fill="currentColor"
       stroke="currentColor"
       points="0.04,0.164 0.04,-0.164 1.1217,-0.164 1.1217,0.164 "
       id="polygon98" />
  </g>
  <g
     transform="translate(14.30005,4.9102014)"
     id="g104">
    <polygon
       stroke-linejoin="round"
       stroke-linecap="round"
       stroke-width="0.08"
       fill="currentColor"
       stroke="currentColor"
       points="0.04,0.164 0.04,-0.164 6.5401,-0.164 6.5401,0.164 "
       id="polygon102" />
  </g>
  <a
     style="color:inherit"
     xlink:href="textedit:///Users/tomsegarra/Documents/dev/dummies/lilypond_files/21ef5440d6d8cb18fe84ef67ce1b2107.ly:25:41:42"
     id="a110"
     transform="translate(-2.27615,-3.2764986)">
    <g
       transform="translate(41.2237,5.6367)"
       id="g108">
      <path
         transform="scale(0.0034,-0.0034)"
         d="m 215,137 c 67,0 111,-37 111,-92 0,-90 -111,-182 -215,-182 -67,0 -111,37 -111,92 0,90 111,182 215,182 z"
         fill="currentColor"
         id="path106" />
    </g>
  </a>
  <a
     style="color:inherit"
     xlink:href="textedit:///Users/tomsegarra/Documents/dev/dummies/lilypond_files/21ef5440d6d8cb18fe84ef67ce1b2107.ly:31:52:53"
     id="a118"
     transform="translate(-2.27615,-3.2764986)">
    <g
       transform="translate(41.2237,11.9867)"
       id="g116">
      <text
         font-family="serif"
         font-size="2.0989px"
         text-anchor="start"
         fill="currentColor"
         id="text114"><tspan
           id="tspan112">he</tspan></text>
    </g>
  </a>
  <g
     transform="translate(39.00925,3.2102014)"
     id="g122">
    <rect
       x="-0.061700001"
       y="-0.69749999"
       width="0.1233"
       height="2.3958001"
       ry="0.039999999"
       fill="currentColor"
       id="rect120" />
  </g>
  <a
     style="color:inherit"
     xlink:href="textedit:///Users/tomsegarra/Documents/dev/dummies/lilypond_files/21ef5440d6d8cb18fe84ef67ce1b2107.ly:25:22:23"
     id="a128"
     transform="translate(-2.27615,-3.2764986)">
    <g
       transform="translate(28.3682,6.4867)"
       id="g126">
      <path
         stroke-width="0.0759"
         stroke-linejoin="round"
         stroke-linecap="round"
         stroke="currentColor"
         fill="currentColor"
         d="m 0.7537,-1.7 c 0.4705,-0.5562 1.4368,-0.5562 1.9074,0 v 0 c -0.4706,-0.4424 -1.4369,-0.4424 -1.9074,0 z"
         id="path124" />
    </g>
  </a>
  <a
     style="color:inherit"
     xlink:href="textedit:///Users/tomsegarra/Documents/dev/dummies/lilypond_files/21ef5440d6d8cb18fe84ef67ce1b2107.ly:26:4:5"
     id="a134"
     transform="translate(-2.27615,-3.2764986)">
    <g
       transform="translate(44.0655,5.6367)"
       id="g132">
      <path
         transform="scale(0.0034,-0.0034)"
         d="m 215,137 c 67,0 111,-37 111,-92 0,-90 -111,-182 -215,-182 -67,0 -111,37 -111,92 0,90 111,182 215,182 z"
         fill="currentColor"
         id="path130" />
    </g>
  </a>
  <g
     transform="translate(41.85095,3.2102014)"
     id="g138">
    <rect
       x="-0.061700001"
       y="-0.69749999"
       width="0.1233"
       height="2.4038"
       ry="0.039999999"
       fill="currentColor"
       id="rect136" />
  </g>
  <a
     style="color:inherit"
     xlink:href="textedit:///Users/tomsegarra/Documents/dev/dummies/lilypond_files/21ef5440d6d8cb18fe84ef67ce1b2107.ly:26:7:8"
     id="a144"
     transform="translate(-2.27615,-3.2764986)">
    <g
       transform="translate(46.3729,6.0617)"
       id="g142">
      <path
         transform="scale(0.0034,-0.0034)"
         d="m 215,137 c 67,0 111,-37 111,-92 0,-90 -111,-182 -215,-182 -67,0 -111,37 -111,92 0,90 111,182 215,182 z"
         fill="currentColor"
         id="path140" />
    </g>
  </a>
  <a
     style="color:inherit"
     xlink:href="textedit:///Users/tomsegarra/Documents/dev/dummies/lilypond_files/21ef5440d6d8cb18fe84ef67ce1b2107.ly:31:55:56"
     id="a152"
     transform="translate(-2.27615,-3.2764986)">
    <g
       transform="translate(46.3729,11.9867)"
       id="g150">
      <text
         font-family="serif"
         font-size="2.0989px"
         text-anchor="start"
         fill="currentColor"
         id="text148"><tspan
           id="tspan146">stum</tspan></text>
    </g>
  </a>
  <g
     transform="translate(44.15835,3.2102014)"
     id="g156">
    <rect
       x="-0.061700001"
       y="-0.27250001"
       width="0.1233"
       height="2.2142999"
       ry="0.039999999"
       fill="currentColor"
       id="rect154" />
  </g>
  <g
     transform="translate(23.78465,4.9102014)"
     id="g160">
    <polygon
       stroke-linejoin="round"
       stroke-linecap="round"
       stroke-width="0.08"
       fill="currentColor"
       stroke="currentColor"
       points="0.04,0.164 0.04,-0.164 2.3907,-0.164 2.3907,0.164 "
       id="polygon158" />
  </g>
  <a
     style="color:inherit"
     xlink:href="textedit:///Users/tomsegarra/Documents/dev/dummies/lilypond_files/21ef5440d6d8cb18fe84ef67ce1b2107.ly:26:14:15"
     id="a166"
     transform="translate(-2.27615,-3.2764986)">
    <g
       transform="translate(48.6803,6.0617)"
       id="g164">
      <path
         transform="scale(0.0034,-0.0034)"
         d="m 215,137 c 67,0 111,-37 111,-92 0,-90 -111,-182 -215,-182 -67,0 -111,37 -111,92 0,90 111,182 215,182 z"
         fill="currentColor"
         id="path162" />
    </g>
  </a>
  <g
     transform="translate(46.46575,3.2102014)"
     id="g170">
    <rect
       x="-0.061700001"
       y="-0.27250001"
       width="0.1233"
       height="2.4497001"
       ry="0.039999999"
       fill="currentColor"
       id="rect168" />
  </g>
  <a
     style="color:inherit"
     xlink:href="textedit:///Users/tomsegarra/Documents/dev/dummies/lilypond_files/21ef5440d6d8cb18fe84ef67ce1b2107.ly:26:16:17"
     id="a176"
     transform="translate(-2.27615,-3.2764986)">
    <g
       transform="translate(50.7376,6.9117)"
       id="g174">
      <path
         transform="scale(0.0034,-0.0034)"
         d="m 215,137 c 67,0 111,-37 111,-92 0,-90 -111,-182 -215,-182 -67,0 -111,37 -111,92 0,90 111,182 215,182 z"
         fill="currentColor"
         id="path172" />
    </g>
  </a>
  <a
     style="color:inherit"
     xlink:href="textedit:///Users/tomsegarra/Documents/dev/dummies/lilypond_files/21ef5440d6d8cb18fe84ef67ce1b2107.ly:31:63:64"
     id="a184"
     transform="translate(-2.27615,-3.2764986)">
    <g
       transform="translate(50.7376,11.9867)"
       id="g182">
      <text
         font-family="serif"
         font-size="2.0989px"
         text-anchor="start"
         fill="currentColor"
         id="text180"><tspan
           id="tspan178">bled</tspan></text>
    </g>
  </a>
  <g
     transform="translate(48.52315,3.2102014)"
     id="g188">
    <rect
       x="-0.061700001"
       y="0.57749999"
       width="0.1233"
       height="1.8097"
       ry="0.039999999"
       fill="currentColor"
       id="rect186" />
  </g>
  <a
     style="color:inherit"
     xlink:href="textedit:///Users/tomsegarra/Documents/dev/dummies/lilypond_files/21ef5440d6d8cb18fe84ef67ce1b2107.ly:25:30:31"
     id="a194"
     transform="translate(-2.27615,-3.2764986)">
    <g
       transform="translate(32.9829,6.4867)"
       id="g192">
      <path
         stroke-width="0.0759"
         stroke-linejoin="round"
         stroke-linecap="round"
         stroke="currentColor"
         fill="currentColor"
         d="m 0.7537,-2.125 c 0.5679,-0.6362 1.8909,-0.6362 2.4589,0 v 0 c -0.568,-0.5224 -1.891,-0.5224 -2.4589,0 z"
         id="path190" />
    </g>
  </a>
  <a
     style="color:inherit"
     xlink:href="textedit:///Users/tomsegarra/Documents/dev/dummies/lilypond_files/21ef5440d6d8cb18fe84ef67ce1b2107.ly:26:22:23"
     id="a200"
     transform="translate(-2.27615,-3.2764986)">
    <g
       transform="translate(54.1343,6.9117)"
       id="g198">
      <path
         transform="scale(0.0034,-0.0034)"
         d="m 215,137 c 67,0 111,-37 111,-92 0,-90 -111,-182 -215,-182 -67,0 -111,37 -111,92 0,90 111,182 215,182 z"
         fill="currentColor"
         id="path196" />
    </g>
  </a>
  <g
     transform="translate(52.90385,3.2102014)"
     id="g204">
    <rect
       x="-0.061700001"
       y="-2.3942001"
       width="0.1233"
       height="2.6668"
       ry="0.039999999"
       fill="currentColor"
       id="rect202" />
  </g>
  <g
     color="#ff0000"
     id="g212"
     transform="translate(-2.27615,-3.2764986)">
    <a
       style="color:inherit"
       xlink:href="textedit:///Users/tomsegarra/Documents/dev/dummies/lilypond_files/21ef5440d6d8cb18fe84ef67ce1b2107.ly:29:4:5"
       id="a210">
      <g
         transform="translate(57.5309,6.9117)"
         id="g208">
        <path
           transform="scale(0.0034,-0.0034)"
           d="m 215,137 c 67,0 111,-37 111,-92 0,-90 -111,-182 -215,-182 -67,0 -111,37 -111,92 0,90 111,182 215,182 z"
           fill="currentColor"
           id="path206" />
      </g>
    </a>
  </g>
  <a
     style="color:inherit"
     xlink:href="textedit:///Users/tomsegarra/Documents/dev/dummies/lilypond_files/21ef5440d6d8cb18fe84ef67ce1b2107.ly:31:68:69"
     id="a220"
     transform="translate(-2.27615,-3.2764986)">
    <g
       transform="translate(54.8068,11.9867)"
       id="g218">
      <text
         font-family="serif"
         font-size="2.0989px"
         text-anchor="start"
         fill="currentColor"
         id="text216"><tspan
           id="tspan214">through</tspan></text>
    </g>
  </a>
  <g
     color="#ff0000"
     id="g226"
     transform="translate(-2.27615,-3.2764986)">
    <g
       transform="translate(58.5766,6.4867)"
       id="g224">
      <rect
         x="-0.061700001"
         y="-2.4381001"
         width="0.1233"
         height="2.7105999"
         ry="0.039999999"
         fill="currentColor"
         id="rect222" />
    </g>
  </g>
  <g
     color="#ff0000"
     id="g234"
     transform="translate(-2.27615,-3.2764986)">
    <a
       style="color:inherit"
       xlink:href="textedit:///Users/tomsegarra/Documents/dev/dummies/lilypond_files/21ef5440d6d8cb18fe84ef67ce1b2107.ly:29:6:7"
       id="a232">
      <g
         transform="translate(62.539,7.7617)"
         id="g230">
        <path
           transform="scale(0.0034,-0.0034)"
           d="m 215,137 c 67,0 111,-37 111,-92 0,-90 -111,-182 -215,-182 -67,0 -111,37 -111,92 0,90 111,182 215,182 z"
           fill="currentColor"
           id="path228" />
      </g>
    </a>
  </g>
  <a
     style="color:inherit"
     xlink:href="textedit:///Users/tomsegarra/Documents/dev/dummies/lilypond_files/21ef5440d6d8cb18fe84ef67ce1b2107.ly:31:76:77"
     id="a242"
     transform="translate(-2.27615,-3.2764986)">
    <g
       transform="translate(61.8124,11.9867)"
       id="g240">
      <text
         font-family="serif"
         font-size="2.0989px"
         text-anchor="start"
         fill="currentColor"
         id="text238"><tspan
           id="tspan236">the</tspan></text>
    </g>
  </a>
  <g
     color="#ff0000"
     id="g248"
     transform="translate(-2.27615,-3.2764986)">
    <g
       transform="translate(63.5848,6.4867)"
       id="g246">
      <rect
         x="-0.061700001"
         y="-2.5028"
         width="0.1233"
         height="3.6252999"
         ry="0.039999999"
         fill="currentColor"
         id="rect244" />
    </g>
  </g>
  <g
     transform="translate(28.39935,5.0667014)"
     id="g252">
    <polygon
       stroke-linejoin="round"
       stroke-linecap="round"
       stroke-width="0.08"
       fill="currentColor"
       stroke="currentColor"
       points="0.04,0.164 0.04,-0.164 2.3907,-0.4771 2.3907,-0.1491 "
       id="polygon250" />
  </g>
  <g
     color="#ff0000"
     id="g260"
     transform="translate(-2.27615,-3.2764986)">
    <a
       style="color:inherit"
       xlink:href="textedit:///Users/tomsegarra/Documents/dev/dummies/lilypond_files/21ef5440d6d8cb18fe84ef67ce1b2107.ly:29:8:9"
       id="a258">
      <g
         transform="translate(66.1302,6.4867)"
         id="g256">
        <path
           transform="scale(0.0034,-0.0034)"
           d="m 215,137 c 67,0 111,-37 111,-92 0,-90 -111,-182 -215,-182 -67,0 -111,37 -111,92 0,90 111,182 215,182 z"
           fill="currentColor"
           id="path254" />
      </g>
    </a>
  </g>
  <a
     style="color:inherit"
     xlink:href="textedit:///Users/tomsegarra/Documents/dev/dummies/lilypond_files/21ef5440d6d8cb18fe84ef67ce1b2107.ly:31:80:81"
     id="a268"
     transform="translate(-2.27615,-3.2764986)">
    <g
       transform="translate(64.8231,11.9867)"
       id="g266">
      <text
         font-family="serif"
         font-size="2.0989px"
         text-anchor="start"
         fill="currentColor"
         id="text264"><tspan
           id="tspan262">yard</tspan></text>
    </g>
  </a>
  <g
     color="#ff0000"
     id="g274"
     transform="translate(-2.27615,-3.2764986)">
    <g
       transform="translate(67.1759,6.4867)"
       id="g272">
      <rect
         x="-0.061700001"
         y="-2.5492001"
         width="0.1233"
         height="2.3966999"
         ry="0.039999999"
         fill="currentColor"
         id="rect270" />
    </g>
  </g>
  <a
     style="color:inherit"
     xlink:href="textedit:///Users/tomsegarra/Documents/dev/dummies/lilypond_files/21ef5440d6d8cb18fe84ef67ce1b2107.ly:25:42:43"
     id="a280"
     transform="translate(-2.27615,-3.2764986)">
    <g
       transform="translate(41.2237,6.4867)"
       id="g278">
      <path
         stroke-width="0.0759"
         stroke-linejoin="round"
         stroke-linecap="round"
         stroke="currentColor"
         fill="currentColor"
         d="m 0.7537,-1.7 c 0.5651,-0.634 1.8766,-0.634 2.4418,0 v 0 c -0.5652,-0.5202 -1.8767,-0.5202 -2.4418,0 z"
         id="path276" />
    </g>
  </a>
  <a
     style="color:inherit"
     xlink:href="textedit:///Users/tomsegarra/Documents/dev/dummies/lilypond_files/21ef5440d6d8cb18fe84ef67ce1b2107.ly:25:8:9"
     id="a286"
     transform="translate(-2.27615,-3.2764986)">
    <g
       transform="translate(19.9539,5.6367)"
       id="g284">
      <path
         transform="scale(0.0034,-0.0034)"
         d="m 215,137 c 67,0 111,-37 111,-92 0,-90 -111,-182 -215,-182 -67,0 -111,37 -111,92 0,90 111,182 215,182 z"
         fill="currentColor"
         id="path282" />
    </g>
  </a>
  <a
     style="color:inherit"
     xlink:href="textedit:///Users/tomsegarra/Documents/dev/dummies/lilypond_files/21ef5440d6d8cb18fe84ef67ce1b2107.ly:31:26:27"
     id="a294"
     transform="translate(-2.27615,-3.2764986)">
    <g
       transform="translate(19.2272,11.9867)"
       id="g292">
      <text
         font-family="serif"
         font-size="2.0989px"
         text-anchor="start"
         fill="currentColor"
         id="text290"><tspan
           id="tspan288">ted</tspan></text>
    </g>
  </a>
  <g
     transform="translate(17.73945,3.2102014)"
     id="g298">
    <rect
       x="-0.061700001"
       y="-0.69749999"
       width="0.1233"
       height="2.3975"
       ry="0.039999999"
       fill="currentColor"
       id="rect296" />
  </g>
  <a
     style="color:inherit"
     xlink:href="textedit:///Users/tomsegarra/Documents/dev/dummies/lilypond_files/21ef5440d6d8cb18fe84ef67ce1b2107.ly:25:11:12"
     id="a304"
     transform="translate(-2.27615,-3.2764986)">
    <g
       transform="translate(23.0329,5.6367)"
       id="g302">
      <path
         transform="scale(0.0034,-0.0034)"
         d="m 215,137 c 67,0 111,-37 111,-92 0,-90 -111,-182 -215,-182 -67,0 -111,37 -111,92 0,90 111,182 215,182 z"
         fill="currentColor"
         id="path300" />
    </g>
  </a>
  <a
     style="color:inherit"
     xlink:href="textedit:///Users/tomsegarra/Documents/dev/dummies/lilypond_files/21ef5440d6d8cb18fe84ef67ce1b2107.ly:31:30:31"
     id="a312"
     transform="translate(-2.27615,-3.2764986)">
    <g
       transform="translate(22.238,11.9867)"
       id="g310">
      <text
         font-family="serif"
         font-size="2.0989px"
         text-anchor="start"
         fill="currentColor"
         id="text308"><tspan
           id="tspan306">out</tspan></text>
    </g>
  </a>
  <g
     transform="translate(20.81845,3.2102014)"
     id="g316">
    <rect
       x="-0.061700001"
       y="-0.69749999"
       width="0.1233"
       height="2.3975"
       ry="0.039999999"
       fill="currentColor"
       id="rect314" />
  </g>
  <g
     transform="translate(36.42455,4.1415014)"
     id="g320">
    <polygon
       stroke-linejoin="round"
       stroke-linecap="round"
       stroke-width="0.08"
       fill="currentColor"
       stroke="currentColor"
       points="0.04,0.164 0.04,-0.164 2.6064,-0.0887 2.6064,0.2393 "
       id="polygon318" />
  </g>
  <g
     transform="translate(33.56565,4.7536014)"
     id="g324">
    <polygon
       stroke-linejoin="round"
       stroke-linecap="round"
       stroke-width="0.08"
       fill="currentColor"
       stroke="currentColor"
       points="0.04,0.164 0.04,-0.164 5.4653,-0.0074 5.4653,0.3206 "
       id="polygon322" />
  </g>
  <a
     style="color:inherit"
     xlink:href="textedit:///Users/tomsegarra/Documents/dev/dummies/lilypond_files/21ef5440d6d8cb18fe84ef67ce1b2107.ly:25:18:19"
     id="a330"
     transform="translate(-2.27615,-3.2764986)">
    <g
       transform="translate(26.0608,5.6367)"
       id="g328">
      <path
         transform="scale(0.0034,-0.0034)"
         d="m 215,137 c 67,0 111,-37 111,-92 0,-90 -111,-182 -215,-182 -67,0 -111,37 -111,92 0,90 111,182 215,182 z"
         fill="currentColor"
         id="path326" />
    </g>
  </a>
  <a
     style="color:inherit"
     xlink:href="textedit:///Users/tomsegarra/Documents/dev/dummies/lilypond_files/21ef5440d6d8cb18fe84ef67ce1b2107.ly:31:34:35"
     id="a338"
     transform="translate(-2.27615,-3.2764986)">
    <g
       transform="translate(25.3853,11.9867)"
       id="g336">
      <text
         font-family="serif"
         font-size="2.0989px"
         text-anchor="start"
         fill="currentColor"
         id="text334"><tspan
           id="tspan332">his</tspan></text>
    </g>
  </a>
  <g
     transform="translate(23.84625,3.2102014)"
     id="g342">
    <rect
       x="-0.061700001"
       y="-0.69749999"
       width="0.1233"
       height="2.3975"
       ry="0.039999999"
       fill="currentColor"
       id="rect340" />
  </g>
  <a
     style="color:inherit"
     xlink:href="textedit:///Users/tomsegarra/Documents/dev/dummies/lilypond_files/21ef5440d6d8cb18fe84ef67ce1b2107.ly:25:21:22"
     id="a348"
     transform="translate(-2.27615,-3.2764986)">
    <g
       transform="translate(28.3682,5.6367)"
       id="g346">
      <path
         transform="scale(0.0034,-0.0034)"
         d="m 215,137 c 67,0 111,-37 111,-92 0,-90 -111,-182 -215,-182 -67,0 -111,37 -111,92 0,90 111,182 215,182 z"
         fill="currentColor"
         id="path344" />
    </g>
  </a>
  <a
     style="color:inherit"
     xlink:href="textedit:///Users/tomsegarra/Documents/dev/dummies/lilypond_files/21ef5440d6d8cb18fe84ef67ce1b2107.ly:31:38:39"
     id="a356"
     transform="translate(-2.27615,-3.2764986)">
    <g
       transform="translate(28.3682,11.9867)"
       id="g354">
      <text
         font-family="serif"
         font-size="2.0989px"
         text-anchor="start"
         fill="currentColor"
         id="text352"><tspan
           id="tspan350">last</tspan></text>
    </g>
  </a>
  <g
     transform="translate(26.15365,3.2102014)"
     id="g360">
    <rect
       x="-0.061700001"
       y="-0.69749999"
       width="0.1233"
       height="2.3975"
       ry="0.039999999"
       fill="currentColor"
       id="rect358" />
  </g>
  <a
     style="color:inherit"
     xlink:href="textedit:///Users/tomsegarra/Documents/dev/dummies/lilypond_files/21ef5440d6d8cb18fe84ef67ce1b2107.ly:25:27:28"
     id="a366"
     transform="translate(-2.27615,-3.2764986)">
    <g
       transform="translate(30.6755,5.6367)"
       id="g364">
      <path
         transform="scale(0.0034,-0.0034)"
         d="m 215,137 c 67,0 111,-37 111,-92 0,-90 -111,-182 -215,-182 -67,0 -111,37 -111,92 0,90 111,182 215,182 z"
         fill="currentColor"
         id="path362" />
    </g>
  </a>
  <g
     transform="translate(28.46105,3.2102014)"
     id="g370">
    <rect
       x="-0.061700001"
       y="-0.69749999"
       width="0.1233"
       height="2.5462"
       ry="0.039999999"
       fill="currentColor"
       id="rect368" />
  </g>
  <a
     style="color:inherit"
     xlink:href="textedit:///Users/tomsegarra/Documents/dev/dummies/lilypond_files/21ef5440d6d8cb18fe84ef67ce1b2107.ly:26:9:10"
     id="a376"
     transform="translate(-2.27615,-3.2764986)">
    <g
       transform="translate(46.3729,6.4867)"
       id="g374">
      <path
         stroke-width="0.0759"
         stroke-linejoin="round"
         stroke-linecap="round"
         stroke="currentColor"
         fill="currentColor"
         d="m 0.7537,-1.0413 c 0.4705,-0.5561 1.4368,-0.5561 1.9074,0 v 0 c -0.4706,-0.4423 -1.4369,-0.4423 -1.9074,0 z"
         id="path372" />
    </g>
  </a>
  <a
     style="color:inherit"
     xlink:href="textedit:///Users/tomsegarra/Documents/dev/dummies/lilypond_files/21ef5440d6d8cb18fe84ef67ce1b2107.ly:25:29:30"
     id="a382"
     transform="translate(-2.27615,-3.2764986)">
    <g
       transform="translate(32.9829,5.2117)"
       id="g380">
      <path
         transform="scale(0.0034,-0.0034)"
         d="m 215,137 c 67,0 111,-37 111,-92 0,-90 -111,-182 -215,-182 -67,0 -111,37 -111,92 0,90 111,182 215,182 z"
         fill="currentColor"
         id="path378" />
    </g>
  </a>
  <a
     style="color:inherit"
     xlink:href="textedit:///Users/tomsegarra/Documents/dev/dummies/lilypond_files/21ef5440d6d8cb18fe84ef67ce1b2107.ly:31:43:44"
     id="a390"
     transform="translate(-2.27615,-3.2764986)">
    <g
       transform="translate(32.9829,11.9867)"
       id="g388">
      <text
         font-family="serif"
         font-size="2.0989px"
         text-anchor="start"
         fill="currentColor"
         id="text386"><tspan
           id="tspan384">word</tspan></text>
    </g>
  </a>
  <g
     transform="translate(30.76845,3.2102014)"
     id="g394">
    <rect
       x="-0.061700001"
       y="-1.1224999"
       width="0.1233"
       height="2.6738999"
       ry="0.039999999"
       fill="currentColor"
       id="rect392" />
  </g>
  <a
     style="color:inherit"
     xlink:href="textedit:///Users/tomsegarra/Documents/dev/dummies/lilypond_files/21ef5440d6d8cb18fe84ef67ce1b2107.ly:25:34:35"
     id="a400"
     transform="translate(-2.27615,-3.2764986)">
    <g
       transform="translate(35.8418,5.2117)"
       id="g398">
      <path
         transform="scale(0.0034,-0.0034)"
         d="m 215,137 c 67,0 111,-37 111,-92 0,-90 -111,-182 -215,-182 -67,0 -111,37 -111,92 0,90 111,182 215,182 z"
         fill="currentColor"
         id="path396" />
    </g>
  </a>
  <g
     transform="translate(33.62725,3.2102014)"
     id="g404">
    <rect
       x="-0.061700001"
       y="-1.1224999"
       width="0.1233"
       height="2.6677001"
       ry="0.039999999"
       fill="currentColor"
       id="rect402" />
  </g>
  <a
     style="color:inherit"
     xlink:href="textedit:///Users/tomsegarra/Documents/dev/dummies/lilypond_files/21ef5440d6d8cb18fe84ef67ce1b2107.ly:26:17:18"
     id="a410"
     transform="translate(-2.27615,-3.2764986)">
    <g
       transform="translate(50.7376,6.4867)"
       id="g408">
      <path
         stroke-width="0.0759"
         stroke-linejoin="round"
         stroke-linecap="round"
         stroke="currentColor"
         fill="currentColor"
         d="m 0.7537,1.0413 c 0.6517,0.6953 2.3449,0.6953 2.9966,0 v 0 c -0.6517,0.5815 -2.3449,0.5815 -2.9966,0 z"
         id="path406" />
    </g>
  </a>
  <a
     style="color:inherit"
     xlink:href="textedit:///Users/tomsegarra/Documents/dev/dummies/lilypond_files/21ef5440d6d8cb18fe84ef67ce1b2107.ly:25:37:38"
     id="a416"
     transform="translate(-2.27615,-3.2764986)">
    <g
       transform="translate(38.7007,5.2117)"
       id="g414">
      <path
         transform="scale(0.0034,-0.0034)"
         d="m 215,137 c 67,0 111,-37 111,-92 0,-90 -111,-182 -215,-182 -67,0 -111,37 -111,92 0,90 111,182 215,182 z"
         fill="currentColor"
         id="path412" />
    </g>
  </a>
  <a
     style="color:inherit"
     xlink:href="textedit:///Users/tomsegarra/Documents/dev/dummies/lilypond_files/21ef5440d6d8cb18fe84ef67ce1b2107.ly:31:48:49"
     id="a424"
     transform="translate(-2.27615,-3.2764986)">
    <g
       transform="translate(37.735,11.9867)"
       id="g422">
      <text
         font-family="serif"
         font-size="2.0989px"
         text-anchor="start"
         fill="currentColor"
         id="text420"><tspan
           id="tspan418">and</tspan></text>
    </g>
  </a>
  <g
     transform="translate(36.48615,3.2102014)"
     id="g428">
    <rect
       x="-0.061700001"
       y="-1.1224999"
       width="0.1233"
       height="2.7490001"
       ry="0.039999999"
       fill="currentColor"
       id="rect426" />
  </g>
  <g
     transform="translate(52.84215,0.81670137)"
     id="g432">
    <polygon
       stroke-linejoin="round"
       stroke-linecap="round"
       stroke-width="0.08"
       fill="currentColor"
       stroke="currentColor"
       points="0.04,0.164 0.04,-0.164 12.0793,-0.3206 12.0793,0.0074 "
       id="polygon430" />
  </g>
  <g
     transform="translate(41.78935,4.9102014)"
     id="g436">
    <polygon
       stroke-linejoin="round"
       stroke-linecap="round"
       stroke-width="0.08"
       fill="currentColor"
       stroke="currentColor"
       points="0.04,0.164 0.04,-0.164 6.7555,0.5294 6.7555,0.8574 "
       id="polygon434" />
  </g>
</svg>
