<?xml version="1.0" encoding="UTF-8" standalone="no"?>
<svg
   version="1.2"
   width="77.510109mm"
   height="16.103054mm"
   viewBox="0 0 44.107702 9.1635269"
   id="svg236"
   sodipodi:docname="282054ce635121db0bd399babbf398b1.svg"
   xmlns:inkscape="http://www.inkscape.org/namespaces/inkscape"
   xmlns:sodipodi="http://sodipodi.sourceforge.net/DTD/sodipodi-0.dtd"
   xmlns:xlink="http://www.w3.org/1999/xlink"
   xmlns="http://www.w3.org/2000/svg"
   xmlns:svg="http://www.w3.org/2000/svg">
  <defs
     id="defs240" />
  <sodipodi:namedview
     id="namedview238"
     pagecolor="#ffffff"
     bordercolor="#000000"
     borderopacity="0.25"
     inkscape:showpageshadow="2"
     inkscape:pageopacity="0.0"
     inkscape:pagecheckerboard="0"
     inkscape:deskcolor="#d1d1d1"
     inkscape:document-units="mm" />
  <style
     type="text/css"
     id="style2"><![CDATA[
tspan { white-space: pre; }
]]></style>
  <!-- Page: 1/1 -->
  <g
     transform="translate(43.92745,3.2102539)"
     id="g6">
    <rect
       x="0"
       y="-1.7"
       width="0.1802"
       height="3.4000001"
       ry="0.0000"
       fill="currentColor"
       id="rect4" />
  </g>
  <g
     transform="translate(4.9997121e-5,4.9102539)"
     id="g10">
    <line
       stroke-linejoin="round"
       stroke-linecap="round"
       stroke-width="0.0949"
       stroke="currentColor"
       x1="0.047400001"
       y1="0"
       x2="44.0602"
       y2="0"
       id="line8" />
  </g>
  <g
     transform="translate(4.9997121e-5,4.0602539)"
     id="g14">
    <line
       stroke-linejoin="round"
       stroke-linecap="round"
       stroke-width="0.0949"
       stroke="currentColor"
       x1="0.047400001"
       y1="0"
       x2="44.0602"
       y2="0"
       id="line12" />
  </g>
  <g
     transform="translate(4.9997121e-5,3.2102539)"
     id="g18">
    <line
       stroke-linejoin="round"
       stroke-linecap="round"
       stroke-width="0.0949"
       stroke="currentColor"
       x1="0.047400001"
       y1="0"
       x2="44.0602"
       y2="0"
       id="line16" />
  </g>
  <g
     transform="translate(4.9997121e-5,2.3602539)"
     id="g22">
    <line
       stroke-linejoin="round"
       stroke-linecap="round"
       stroke-width="0.0949"
       stroke="currentColor"
       x1="0.047400001"
       y1="0"
       x2="44.0602"
       y2="0"
       id="line20" />
  </g>
  <g
     transform="translate(4.9997121e-5,1.5102539)"
     id="g26">
    <line
       stroke-linejoin="round"
       stroke-linecap="round"
       stroke-width="0.0949"
       stroke="currentColor"
       x1="0.047400001"
       y1="0"
       x2="44.0602"
       y2="0"
       id="line24" />
  </g>
  <g
     transform="translate(25.62585,3.2102539)"
     id="g30">
    <rect
       x="0"
       y="-1.7"
       width="0.1802"
       height="3.4000001"
       ry="0.0000"
       fill="currentColor"
       id="rect28" />
  </g>
  <a
     style="color:inherit"
     xlink:href="textedit:///Users/tomsegarra/Documents/dev/dummies/lilypond_files/282054ce635121db0bd399babbf398b1.ly:24:15:16"
     id="a36"
     transform="translate(-2.27615,-3.2764461)">
    <g
       transform="translate(19.9594,6.4867)"
       id="g34">
      <path
         stroke-width="0.0759"
         stroke-linejoin="round"
         stroke-linecap="round"
         stroke="currentColor"
         fill="currentColor"
         d="m 0.7537,-1.7 c 0.5546,-0.626 1.8244,-0.626 2.379,0 v 0 c -0.5546,-0.5121 -1.8244,-0.5121 -2.379,0 z"
         id="path32" />
    </g>
  </a>
  <a
     style="color:inherit"
     xlink:href="textedit:///Users/tomsegarra/Documents/dev/dummies/lilypond_files/282054ce635121db0bd399babbf398b1.ly:24:4:5"
     id="a42"
     transform="translate(-2.27615,-3.2764461)">
    <g
       transform="translate(13.0344,6.4867)"
       id="g40">
      <path
         transform="scale(0.0034,-0.0034)"
         d="M 364,0 H 11 C 5,0 0,5 0,11 v 134 c 0,6 5,11 11,11 h 353 c 6,0 11,-5 11,-11 V 11 C 375,5 370,0 364,0 Z"
         fill="currentColor"
         id="path38" />
    </g>
  </a>
  <g
     transform="translate(0.80005,4.0602539)"
     id="g46">
    <path
       transform="scale(0.0034,-0.0034)"
       d="m 646,2 c 0,-113 -74,-213 -180,-247 3,-34 5,-68 5,-102 0,-20 -1,-40 -2,-60 -7,-121 -91,-228 -209,-228 -108,0 -196,87 -196,196 0,58 53,104 112,104 54,0 95,-48 95,-104 0,-52 -43,-95 -95,-95 -10,0 -20,2 -29,6 26,-38 68,-63 116,-63 h 3 c 93,2 153,92 159,190 1,19 2,37 2,56 0,30 -2,60 -4,90 -5,-1 -43,-8 -88,-8 -194,0 -333,180 -333,375 0,177 130,307 246,442 -31,98 -53,170 -53,347 0,115 55,223 148,290 7,5 16,4 22,-1 68,-80 134,-243 134,-357 0,-143 -85,-255 -178,-364 21,-68 40,-137 57,-206 1,0 5,1 11,1 C 545,264 646,135 646,2 Z M 462,-202 c 66,24 111,88 111,162 0,89 -65,178 -170,190 28,-135 50,-272 59,-352 z M 75,26 c 0,-145 141,-245 263,-245 1,0 46,0 81,6 -7,65 -27,206 -61,363 -79,-8 -124,-61 -124,-119 0,-43 25,-89 80,-121 5,-5 7,-11 7,-16 0,-12 -10,-23 -22,-23 -16,0 -127,63 -127,188 0,89 58,175 161,198 -14,58 -29,116 -46,173 C 181,308 75,186 75,26 Z M 406,1042 C 307,995 244,894 244,785 c 0,-49 13,-111 38,-191 79,97 144,199 144,324 0,33 0,63 -20,124 z"
       fill="currentColor"
       id="path44" />
  </g>
  <a
     style="color:inherit"
     xlink:href="textedit:///Users/tomsegarra/Documents/dev/dummies/lilypond_files/282054ce635121db0bd399babbf398b1.ly:23:1:9"
     id="a56"
     transform="translate(-2.27615,-3.2764461)">
    <g
       transform="translate(6.5762,4.7867)"
       id="g50">
      <path
         transform="scale(0.0034,-0.0034)"
         d="m 217,-311 c 0,-11 -8,-19 -19,-19 -11,0 -20,8 -20,19 v 142 l -81,-30 v -156 c 0,-11 -9,-20 -20,-20 -11,0 -19,9 -19,20 v 142 l -28,-11 c -3,-1 -5,-1 -8,-1 -12,0 -22,10 -22,23 v 57 c 0,9 6,18 15,21 l 43,16 V 49 L 30,39 C 27,38 25,38 22,38 10,38 0,47 0,60 v 57 c 0,9 6,18 15,21 l 43,16 v 157 c 0,11 8,19 19,19 11,0 20,-8 20,-19 V 169 l 81,30 v 156 c 0,11 9,20 20,20 11,0 19,-9 19,-20 V 213 l 28,11 c 3,1 5,1 8,1 12,0 22,-10 22,-23 v -57 c 0,-9 -6,-18 -15,-21 L 217,108 V -49 l 28,10 c 3,1 5,1 8,1 12,0 22,-9 22,-22 v -57 c 0,-9 -6,-18 -15,-21 l -43,-16 z M 97,64 V -94 l 81,30 V 94 Z"
         fill="currentColor"
         id="path48" />
    </g>
    <g
       transform="translate(7.5112,6.0617)"
       id="g54">
      <path
         transform="scale(0.0034,-0.0034)"
         d="m 217,-311 c 0,-11 -8,-19 -19,-19 -11,0 -20,8 -20,19 v 142 l -81,-30 v -156 c 0,-11 -9,-20 -20,-20 -11,0 -19,9 -19,20 v 142 l -28,-11 c -3,-1 -5,-1 -8,-1 -12,0 -22,10 -22,23 v 57 c 0,9 6,18 15,21 l 43,16 V 49 L 30,39 C 27,38 25,38 22,38 10,38 0,47 0,60 v 57 c 0,9 6,18 15,21 l 43,16 v 157 c 0,11 8,19 19,19 11,0 20,-8 20,-19 V 169 l 81,30 v 156 c 0,11 9,20 20,20 11,0 19,-9 19,-20 V 213 l 28,11 c 3,1 5,1 8,1 12,0 22,-10 22,-23 v -57 c 0,-9 -6,-18 -15,-21 L 217,108 V -49 l 28,10 c 3,1 5,1 8,1 12,0 22,-9 22,-22 v -57 c 0,-9 -6,-18 -15,-21 l -43,-16 z M 97,64 V -94 l 81,30 V 94 Z"
         fill="currentColor"
         id="path52" />
    </g>
  </a>
  <g
     transform="translate(7.32005,3.2102539)"
     id="g60">
    <path
       transform="scale(0.0034,-0.0034)"
       d="m 358,29 c -30,0 -74,23 -74,73 0,38 27,76 71,76 4,0 7,0 11,-1 -27,36 -69,59 -116,59 -106,0 -113,-74 -113,-188 0,-15 1,-31 1,-48 0,-17 -1,-33 -1,-48 0,-114 7,-188 113,-188 79,0 136,70 155,150 2,7 7,10 13,10 7,0 14,-5 14,-13 0,-21 -50,-175 -182,-175 C 191,-264 0,-244 0,0 0,63 18,264 250,264 365,264 424,155 424,99 424,60 394,29 358,29 Z"
       fill="currentColor"
       id="path58" />
  </g>
  <g
     color="#ff0000"
     id="g68"
     transform="translate(-2.27615,-3.2764461)">
    <a
       style="color:inherit"
       xlink:href="textedit:///Users/tomsegarra/Documents/dev/dummies/lilypond_files/282054ce635121db0bd399babbf398b1.ly:28:4:5"
       id="a66">
      <g
         transform="translate(33.9777,6.9117)"
         id="g64">
        <path
           transform="scale(0.0034,-0.0034)"
           d="m 215,137 c 67,0 111,-37 111,-92 0,-90 -111,-182 -215,-182 -67,0 -111,37 -111,92 0,90 111,182 215,182 z"
           fill="currentColor"
           id="path62" />
      </g>
    </a>
  </g>
  <a
     style="color:inherit"
     xlink:href="textedit:///Users/tomsegarra/Documents/dev/dummies/lilypond_files/282054ce635121db0bd399babbf398b1.ly:30:31:32"
     id="a76"
     transform="translate(-2.27615,-3.2764461)">
    <g
       transform="translate(31.9877,11.9867)"
       id="g74">
      <text
         font-family="serif"
         font-size="2.0989px"
         text-anchor="start"
         fill="currentColor"
         id="text72"><tspan
           id="tspan70">where</tspan></text>
    </g>
  </a>
  <g
     color="#ff0000"
     id="g82"
     transform="translate(-2.27615,-3.2764461)">
    <g
       transform="translate(35.0234,6.4867)"
       id="g80">
      <rect
         x="-0.061700001"
         y="-2.55"
         width="0.1233"
         height="2.8225"
         ry="0.039999999"
         fill="currentColor"
         id="rect78" />
    </g>
  </g>
  <g
     color="#ff0000"
     id="g88"
     transform="translate(-2.27615,-3.2764461)">
    <g
       transform="translate(35.0851,3.9767)"
       id="g86">
      <path
         transform="scale(0.0034,-0.0034)"
         d="m 0,0 c 0,-197 207,-335 207,-532 0,-71 -15,-141 -41,-207 -5,-8 -13,-12 -21,-12 -14,0 -27,11 -24,28 26,60 42,125 42,191 0,103 -93,207 -163,282 H -18 V 0 Z"
         fill="currentColor"
         id="path84" />
    </g>
  </g>
  <g
     color="#ff0000"
     id="g96"
     transform="translate(-2.27615,-3.2764461)">
    <a
       style="color:inherit"
       xlink:href="textedit:///Users/tomsegarra/Documents/dev/dummies/lilypond_files/282054ce635121db0bd399babbf398b1.ly:28:7:8"
       id="a94">
      <g
         transform="translate(37.9615,7.7617)"
         id="g92">
        <path
           transform="scale(0.0034,-0.0034)"
           d="m 215,137 c 67,0 111,-37 111,-92 0,-90 -111,-182 -215,-182 -67,0 -111,37 -111,92 0,90 111,182 215,182 z"
           fill="currentColor"
           id="path90" />
      </g>
    </a>
  </g>
  <a
     style="color:inherit"
     xlink:href="textedit:///Users/tomsegarra/Documents/dev/dummies/lilypond_files/282054ce635121db0bd399babbf398b1.ly:30:37:38"
     id="a104"
     transform="translate(-2.27615,-3.2764461)">
    <g
       transform="translate(37.525,11.9867)"
       id="g102">
      <text
         font-family="serif"
         font-size="2.0989px"
         text-anchor="start"
         fill="currentColor"
         id="text100"><tspan
           id="tspan98">ya</tspan></text>
    </g>
  </a>
  <g
     color="#ff0000"
     id="g110"
     transform="translate(-2.27615,-3.2764461)">
    <g
       transform="translate(39.0072,6.4867)"
       id="g108">
      <rect
         x="-0.061700001"
         y="-1.8724999"
         width="0.1233"
         height="2.9951"
         ry="0.039999999"
         fill="currentColor"
         id="rect106" />
    </g>
  </g>
  <g
     transform="translate(17.68325,4.9102539)"
     id="g114">
    <polygon
       stroke-linejoin="round"
       stroke-linecap="round"
       stroke-width="0.08"
       fill="currentColor"
       stroke="currentColor"
       points="0.04,0.164 0.04,-0.164 5.3913,0.5294 5.3913,0.8574 "
       id="polygon112" />
  </g>
  <g
     color="#ff0000"
     id="g122"
     transform="translate(-2.27615,-3.2764461)">
    <a
       style="color:inherit"
       xlink:href="textedit:///Users/tomsegarra/Documents/dev/dummies/lilypond_files/282054ce635121db0bd399babbf398b1.ly:28:10:11"
       id="a120">
      <g
         transform="translate(40.5189,6.4867)"
         id="g118">
        <path
           transform="scale(0.0034,-0.0034)"
           d="m 215,137 c 67,0 111,-37 111,-92 0,-90 -111,-182 -215,-182 -67,0 -111,37 -111,92 0,90 111,182 215,182 z"
           fill="currentColor"
           id="path116" />
      </g>
    </a>
  </g>
  <a
     style="color:inherit"
     xlink:href="textedit:///Users/tomsegarra/Documents/dev/dummies/lilypond_files/282054ce635121db0bd399babbf398b1.ly:30:40:41"
     id="a130"
     transform="translate(-2.27615,-3.2764461)">
    <g
       transform="translate(40.5189,11.9867)"
       id="g128">
      <text
         font-family="serif"
         font-size="2.0989px"
         text-anchor="start"
         fill="currentColor"
         id="text126"><tspan
           id="tspan124">been?</tspan></text>
    </g>
  </a>
  <g
     color="#ff0000"
     id="g136"
     transform="translate(-2.27615,-3.2764461)">
    <g
       transform="translate(41.5646,6.4867)"
       id="g134">
      <rect
         x="-0.061700001"
         y="-2.5341001"
         width="0.1233"
         height="2.3815999"
         ry="0.039999999"
         fill="currentColor"
         id="rect132" />
    </g>
  </g>
  <g
     color="#ff0000"
     id="g144"
     transform="translate(-2.27615,-3.2764461)">
    <a
       style="color:inherit"
       xlink:href="textedit:///Users/tomsegarra/Documents/dev/dummies/lilypond_files/282054ce635121db0bd399babbf398b1.ly:28:14:15"
       id="a142">
      <g
         transform="translate(42.8263,6.4867)"
         id="g140">
        <path
           transform="scale(0.0034,-0.0034)"
           d="m 215,137 c 67,0 111,-37 111,-92 0,-90 -111,-182 -215,-182 -67,0 -111,37 -111,92 0,90 111,182 215,182 z"
           fill="currentColor"
           id="path138" />
      </g>
    </a>
  </g>
  <g
     color="#ff0000"
     id="g150"
     transform="translate(-2.27615,-3.2764461)">
    <g
       transform="translate(42.8879,6.4867)"
       id="g148">
      <rect
         x="-0.061700001"
         y="0.1525"
         width="0.1233"
         height="2.6809001"
         ry="0.039999999"
         fill="currentColor"
         id="rect146" />
    </g>
  </g>
  <a
     style="color:inherit"
     xlink:href="textedit:///Users/tomsegarra/Documents/dev/dummies/lilypond_files/282054ce635121db0bd399babbf398b1.ly:28:12:13"
     id="a156"
     transform="translate(-2.27615,-3.2764461)">
    <g
       transform="translate(40.5189,6.4867)"
       id="g154">
      <path
         stroke-width="0.0759"
         stroke-linejoin="round"
         stroke-linecap="round"
         stroke="currentColor"
         fill="currentColor"
         d="m 1.4382,-1.0413 c 0.3295,-0.4191 0.8934,-0.4191 1.2229,0 v 0 c -0.3295,-0.3053 -0.8934,-0.3053 -1.2229,0 z"
         id="path152" />
    </g>
  </a>
  <a
     style="color:inherit"
     xlink:href="textedit:///Users/tomsegarra/Documents/dev/dummies/lilypond_files/282054ce635121db0bd399babbf398b1.ly:24:9:10"
     id="a162"
     transform="translate(-2.27615,-3.2764461)">
    <g
       transform="translate(17.9094,6.4867)"
       id="g160">
      <path
         transform="scale(0.0034,-0.0034)"
         d="m 70,205 c 80,0 46,-97 90,-97 15,0 52,45 59,59 6,13 26,13 31,0 L 129,-250 c -9,-7 -19,-11 -30,-11 -11,0 -21,4 -30,11 L 187,76 C 154,64 119,54 84,54 37,54 -3,88 -3,133 c 0,40 33,72 73,72 z"
         fill="currentColor"
         id="path158" />
    </g>
  </a>
  <a
     style="color:inherit"
     xlink:href="textedit:///Users/tomsegarra/Documents/dev/dummies/lilypond_files/282054ce635121db0bd399babbf398b1.ly:24:12:13"
     id="a168"
     transform="translate(-2.27615,-3.2764461)">
    <g
       transform="translate(19.9594,5.6367)"
       id="g166">
      <path
         transform="scale(0.0034,-0.0034)"
         d="m 215,137 c 67,0 111,-37 111,-92 0,-90 -111,-182 -215,-182 -67,0 -111,37 -111,92 0,90 111,182 215,182 z"
         fill="currentColor"
         id="path164" />
    </g>
  </a>
  <a
     style="color:inherit"
     xlink:href="textedit:///Users/tomsegarra/Documents/dev/dummies/lilypond_files/282054ce635121db0bd399babbf398b1.ly:30:15:16"
     id="a176"
     transform="translate(-2.27615,-3.2764461)">
    <g
       transform="translate(19.9594,11.9867)"
       id="g174">
      <text
         font-family="serif"
         font-size="2.0989px"
         text-anchor="start"
         fill="currentColor"
         id="text172"><tspan
           id="tspan170">Hey</tspan></text>
    </g>
  </a>
  <g
     transform="translate(17.74495,3.2102539)"
     id="g180">
    <rect
       x="-0.061700001"
       y="-0.69749999"
       width="0.1233"
       height="2.4054"
       ry="0.039999999"
       fill="currentColor"
       id="rect178" />
  </g>
  <g
     transform="translate(36.66945,1.3536539)"
     id="g184">
    <polygon
       stroke-linejoin="round"
       stroke-linecap="round"
       stroke-width="0.08"
       fill="currentColor"
       stroke="currentColor"
       points="0.04,0.164 0.04,-0.164 2.6407,-0.8574 2.6407,-0.5294 "
       id="polygon182" />
  </g>
  <a
     style="color:inherit"
     xlink:href="textedit:///Users/tomsegarra/Documents/dev/dummies/lilypond_files/282054ce635121db0bd399babbf398b1.ly:24:19:20"
     id="a190"
     transform="translate(-2.27615,-3.2764461)">
    <g
       transform="translate(22.7384,5.6367)"
       id="g188">
      <path
         transform="scale(0.0034,-0.0034)"
         d="m 215,137 c 67,0 111,-37 111,-92 0,-90 -111,-182 -215,-182 -67,0 -111,37 -111,92 0,90 111,182 215,182 z"
         fill="currentColor"
         id="path186" />
    </g>
  </a>
  <g
     transform="translate(20.52395,3.2102539)"
     id="g194">
    <rect
       x="-0.061700001"
       y="-0.69749999"
       width="0.1233"
       height="2.7602"
       ry="0.039999999"
       fill="currentColor"
       id="rect192" />
  </g>
  <a
     style="color:inherit"
     xlink:href="textedit:///Users/tomsegarra/Documents/dev/dummies/lilypond_files/282054ce635121db0bd399babbf398b1.ly:24:21:22"
     id="a200"
     transform="translate(-2.27615,-3.2764461)">
    <g
       transform="translate(25.2674,6.9117)"
       id="g198">
      <path
         transform="scale(0.0034,-0.0034)"
         d="m 215,137 c 67,0 111,-37 111,-92 0,-90 -111,-182 -215,-182 -67,0 -111,37 -111,92 0,90 111,182 215,182 z"
         fill="currentColor"
         id="path196" />
    </g>
  </a>
  <a
     style="color:inherit"
     xlink:href="textedit:///Users/tomsegarra/Documents/dev/dummies/lilypond_files/282054ce635121db0bd399babbf398b1.ly:30:19:20"
     id="a208"
     transform="translate(-2.27615,-3.2764461)">
    <g
       transform="translate(23.892,11.9867)"
       id="g206">
      <text
         font-family="serif"
         font-size="2.0989px"
         text-anchor="start"
         fill="currentColor"
         id="text204"><tspan
           id="tspan202">Sum</tspan></text>
    </g>
  </a>
  <g
     transform="translate(23.05295,3.2102539)"
     id="g212">
    <rect
       x="-0.061700001"
       y="0.57749999"
       width="0.1233"
       height="1.8081"
       ry="0.039999999"
       fill="currentColor"
       id="rect210" />
  </g>
  <a
     style="color:inherit"
     xlink:href="textedit:///Users/tomsegarra/Documents/dev/dummies/lilypond_files/282054ce635121db0bd399babbf398b1.ly:25:4:5"
     id="a218"
     transform="translate(-2.27615,-3.2764461)">
    <g
       transform="translate(29.1403,6.9117)"
       id="g216">
      <path
         transform="scale(0.0034,-0.0034)"
         d="m 215,137 c 67,0 111,-37 111,-92 0,-90 -111,-182 -215,-182 -67,0 -111,37 -111,92 0,90 111,182 215,182 z"
         fill="currentColor"
         id="path214" />
    </g>
  </a>
  <a
     style="color:inherit"
     xlink:href="textedit:///Users/tomsegarra/Documents/dev/dummies/lilypond_files/282054ce635121db0bd399babbf398b1.ly:30:26:27"
     id="a226"
     transform="translate(-2.27615,-3.2764461)">
    <g
       transform="translate(27.8502,11.9867)"
       id="g224">
      <text
         font-family="serif"
         font-size="2.0989px"
         text-anchor="start"
         fill="currentColor"
         id="text222"><tspan
           id="tspan220">mer,</tspan></text>
    </g>
  </a>
  <g
     transform="translate(28.35055,3.6352539)"
     id="g230">
    <path
       transform="scale(0.0034,-0.0034)"
       d="M 0,0 C 0,31 25,56 56,56 87,56 111,31 111,0 111,-31 87,-56 56,-56 25,-56 0,-31 0,0 Z"
       fill="currentColor"
       id="path228" />
  </g>
  <g
     transform="translate(27.90985,3.2102539)"
     id="g234">
    <rect
       x="-0.061700001"
       y="-2.55"
       width="0.1233"
       height="2.8225"
       ry="0.039999999"
       fill="currentColor"
       id="rect232" />
  </g>
</svg>
