<?xml version="1.0" encoding="UTF-8" standalone="no"?>
<svg
   version="1.2"
   width="152.46895mm"
   height="14.321632mm"
   viewBox="0 0 86.762594 8.1497997"
   id="svg520"
   sodipodi:docname="3c482703dac1cb882f025925cbc3779b.svg"
   xmlns:inkscape="http://www.inkscape.org/namespaces/inkscape"
   xmlns:sodipodi="http://sodipodi.sourceforge.net/DTD/sodipodi-0.dtd"
   xmlns:xlink="http://www.w3.org/1999/xlink"
   xmlns="http://www.w3.org/2000/svg"
   xmlns:svg="http://www.w3.org/2000/svg">
  <defs
     id="defs524" />
  <sodipodi:namedview
     id="namedview522"
     pagecolor="#ffffff"
     bordercolor="#000000"
     borderopacity="0.25"
     inkscape:showpageshadow="2"
     inkscape:pageopacity="0.0"
     inkscape:pagecheckerboard="0"
     inkscape:deskcolor="#d1d1d1"
     inkscape:document-units="mm" />
  <style
     type="text/css"
     id="style2"><![CDATA[
tspan { white-space: pre; }
]]></style>
  <!-- Page: 1/1 -->
  <g
     transform="translate(-2.9723375e-4,0.8908)"
     id="g6">
    <rect
       x="80.791199"
       y="-0.089900002"
       width="1.6611"
       height="0.17990001"
       ry="0.089900002"
       fill="currentColor"
       id="rect4" />
  </g>
  <g
     transform="translate(-2.9723375e-4,1.7408)"
     id="g10">
    <rect
       x="80.791199"
       y="-0.089900002"
       width="1.6611"
       height="0.17990001"
       ry="0.089900002"
       fill="currentColor"
       id="rect8" />
  </g>
  <g
     transform="translate(-2.9723375e-4,2.5908)"
     id="g14">
    <rect
       x="80.791199"
       y="-0.089900002"
       width="1.6611"
       height="0.17990001"
       ry="0.089900002"
       fill="currentColor"
       id="rect12" />
  </g>
  <g
     transform="translate(-2.9723375e-4,0.8908)"
     id="g18">
    <rect
       x="78.483803"
       y="-0.089900002"
       width="1.6611"
       height="0.17990001"
       ry="0.089900002"
       fill="currentColor"
       id="rect16" />
  </g>
  <g
     transform="translate(-2.9723375e-4,1.7408)"
     id="g22">
    <rect
       x="78.483803"
       y="-0.089900002"
       width="1.6611"
       height="0.17990001"
       ry="0.089900002"
       fill="currentColor"
       id="rect20" />
  </g>
  <g
     transform="translate(-2.9723375e-4,2.5908)"
     id="g26">
    <rect
       x="78.483803"
       y="-0.089900002"
       width="1.6611"
       height="0.17990001"
       ry="0.089900002"
       fill="currentColor"
       id="rect24" />
  </g>
  <g
     transform="translate(-2.9723375e-4,0.8908)"
     id="g30">
    <rect
       x="76.176399"
       y="-0.089900002"
       width="1.6611"
       height="0.17990001"
       ry="0.089900002"
       fill="currentColor"
       id="rect28" />
  </g>
  <g
     transform="translate(-2.9723375e-4,1.7408)"
     id="g34">
    <rect
       x="76.176399"
       y="-0.089900002"
       width="1.6611"
       height="0.17990001"
       ry="0.089900002"
       fill="currentColor"
       id="rect32" />
  </g>
  <g
     transform="translate(-2.9723375e-4,2.5908)"
     id="g38">
    <rect
       x="76.176399"
       y="-0.089900002"
       width="1.6611"
       height="0.17990001"
       ry="0.089900002"
       fill="currentColor"
       id="rect36" />
  </g>
  <g
     transform="translate(-2.9723375e-4,0.8908)"
     id="g42">
    <rect
       x="71.819099"
       y="-0.089900002"
       width="1.6611"
       height="0.17990001"
       ry="0.089900002"
       fill="currentColor"
       id="rect40" />
  </g>
  <g
     transform="translate(-2.9723375e-4,1.7408)"
     id="g46">
    <rect
       x="71.819099"
       y="-0.089900002"
       width="1.6611"
       height="0.17990001"
       ry="0.089900002"
       fill="currentColor"
       id="rect44" />
  </g>
  <g
     transform="translate(-2.9723375e-4,2.5908)"
     id="g50">
    <rect
       x="71.819099"
       y="-0.089900002"
       width="1.6611"
       height="0.17990001"
       ry="0.089900002"
       fill="currentColor"
       id="rect48" />
  </g>
  <g
     transform="translate(-2.9723375e-4,0.8908)"
     id="g54">
    <rect
       x="69.511703"
       y="-0.089900002"
       width="1.6611"
       height="0.17990001"
       ry="0.089900002"
       fill="currentColor"
       id="rect52" />
  </g>
  <g
     transform="translate(-2.9723375e-4,1.7408)"
     id="g58">
    <rect
       x="69.511703"
       y="-0.089900002"
       width="1.6611"
       height="0.17990001"
       ry="0.089900002"
       fill="currentColor"
       id="rect56" />
  </g>
  <g
     transform="translate(-2.9723375e-4,2.5908)"
     id="g62">
    <rect
       x="69.511703"
       y="-0.089900002"
       width="1.6611"
       height="0.17990001"
       ry="0.089900002"
       fill="currentColor"
       id="rect60" />
  </g>
  <g
     transform="translate(-2.9723375e-4,1.7408)"
     id="g66">
    <rect
       x="66.152603"
       y="-0.089900002"
       width="1.6611"
       height="0.17990001"
       ry="0.089900002"
       fill="currentColor"
       id="rect64" />
  </g>
  <g
     transform="translate(-2.9723375e-4,2.5908)"
     id="g70">
    <rect
       x="66.152603"
       y="-0.089900002"
       width="1.6611"
       height="0.17990001"
       ry="0.089900002"
       fill="currentColor"
       id="rect68" />
  </g>
  <g
     transform="translate(-2.9723375e-4,2.5908)"
     id="g74">
    <rect
       x="63.8452"
       y="-0.089900002"
       width="1.6611"
       height="0.17990001"
       ry="0.089900002"
       fill="currentColor"
       id="rect72" />
  </g>
  <g
     transform="translate(-2.9723375e-4,1.7408)"
     id="g78">
    <rect
       x="61.537899"
       y="-0.089900002"
       width="1.6611"
       height="0.17990001"
       ry="0.089900002"
       fill="currentColor"
       id="rect76" />
  </g>
  <g
     transform="translate(-2.9723375e-4,2.5908)"
     id="g82">
    <rect
       x="61.537899"
       y="-0.089900002"
       width="1.6611"
       height="0.17990001"
       ry="0.089900002"
       fill="currentColor"
       id="rect80" />
  </g>
  <g
     transform="translate(-2.9723375e-4,2.5908)"
     id="g86">
    <rect
       x="59.230499"
       y="-0.089900002"
       width="1.6611"
       height="0.17990001"
       ry="0.089900002"
       fill="currentColor"
       id="rect84" />
  </g>
  <g
     transform="translate(-2.9723375e-4,2.5908)"
     id="g90">
    <rect
       x="56.9231"
       y="-0.089900002"
       width="1.6611"
       height="0.17990001"
       ry="0.089900002"
       fill="currentColor"
       id="rect88" />
  </g>
  <g
     transform="translate(-2.9723375e-4,1.7408)"
     id="g94">
    <rect
       x="27.6665"
       y="-0.089900002"
       width="1.6611"
       height="0.17990001"
       ry="0.089900002"
       fill="currentColor"
       id="rect92" />
  </g>
  <g
     transform="translate(-2.9723375e-4,2.5908)"
     id="g98">
    <rect
       x="27.6665"
       y="-0.089900002"
       width="1.6611"
       height="0.17990001"
       ry="0.089900002"
       fill="currentColor"
       id="rect96" />
  </g>
  <g
     transform="translate(-2.9723375e-4,2.5908)"
     id="g102">
    <rect
       x="25.3591"
       y="-0.089900002"
       width="1.6611"
       height="0.17990001"
       ry="0.089900002"
       fill="currentColor"
       id="rect100" />
  </g>
  <g
     transform="translate(-2.9723375e-4,1.7408)"
     id="g106">
    <rect
       x="23.051701"
       y="-0.089900002"
       width="1.6611"
       height="0.17990001"
       ry="0.089900002"
       fill="currentColor"
       id="rect104" />
  </g>
  <g
     transform="translate(-2.9723375e-4,2.5908)"
     id="g110">
    <rect
       x="23.051701"
       y="-0.089900002"
       width="1.6611"
       height="0.17990001"
       ry="0.089900002"
       fill="currentColor"
       id="rect108" />
  </g>
  <g
     transform="translate(-2.9723375e-4,2.5908)"
     id="g114">
    <rect
       x="20.744301"
       y="-0.089900002"
       width="1.6611"
       height="0.17990001"
       ry="0.089900002"
       fill="currentColor"
       id="rect112" />
  </g>
  <g
     transform="translate(-2.9723375e-4,2.5908)"
     id="g118">
    <rect
       x="18.436899"
       y="-0.089900002"
       width="1.6611"
       height="0.17990001"
       ry="0.089900002"
       fill="currentColor"
       id="rect116" />
  </g>
  <g
     transform="translate(-2.9723375e-4,6.8408)"
     id="g122">
    <line
       stroke-linejoin="round"
       stroke-linecap="round"
       stroke-width="0.0949"
       stroke="currentColor"
       x1="0.047400001"
       y1="0"
       x2="86.715698"
       y2="0"
       id="line120" />
  </g>
  <g
     transform="translate(-2.9723375e-4,5.9908)"
     id="g126">
    <line
       stroke-linejoin="round"
       stroke-linecap="round"
       stroke-width="0.0949"
       stroke="currentColor"
       x1="0.047400001"
       y1="0"
       x2="86.715698"
       y2="0"
       id="line124" />
  </g>
  <g
     transform="translate(-2.9723375e-4,5.1408)"
     id="g130">
    <line
       stroke-linejoin="round"
       stroke-linecap="round"
       stroke-width="0.0949"
       stroke="currentColor"
       x1="0.047400001"
       y1="0"
       x2="86.715698"
       y2="0"
       id="line128" />
  </g>
  <g
     transform="translate(-2.9723375e-4,4.2908)"
     id="g134">
    <line
       stroke-linejoin="round"
       stroke-linecap="round"
       stroke-width="0.0949"
       stroke="currentColor"
       x1="0.047400001"
       y1="0"
       x2="86.715698"
       y2="0"
       id="line132" />
  </g>
  <g
     transform="translate(-2.9723375e-4,3.4408)"
     id="g138">
    <line
       stroke-linejoin="round"
       stroke-linecap="round"
       stroke-width="0.0949"
       stroke="currentColor"
       x1="0.047400001"
       y1="0"
       x2="86.715698"
       y2="0"
       id="line136" />
  </g>
  <g
     transform="translate(30.107503,5.1408)"
     id="g142">
    <rect
       x="0"
       y="-1.7"
       width="0.1802"
       height="3.4000001"
       ry="0.0000"
       fill="currentColor"
       id="rect140" />
  </g>
  <g
     transform="translate(86.582703,5.1408)"
     id="g146">
    <rect
       x="0"
       y="-1.7"
       width="0.1802"
       height="3.4000001"
       ry="0.0000"
       fill="currentColor"
       id="rect144" />
  </g>
  <g
     transform="translate(68.593703,5.1408)"
     id="g150">
    <rect
       x="0"
       y="-1.7"
       width="0.1802"
       height="3.4000001"
       ry="0.0000"
       fill="currentColor"
       id="rect148" />
  </g>
  <g
     transform="translate(49.293403,5.1408)"
     id="g154">
    <rect
       x="0"
       y="-1.7"
       width="0.1802"
       height="3.4000001"
       ry="0.0000"
       fill="currentColor"
       id="rect152" />
  </g>
  <a
     style="color:inherit"
     xlink:href="textedit:///Users/tomsegarra/Documents/dev/dummies/lilypond_files/3c482703dac1cb882f025925cbc3779b.ly:20:4:5"
     id="a160"
     transform="translate(-2.2764972,-3.2767)">
    <g
       transform="translate(14.3252,6.7175)"
       id="g158">
      <path
         transform="scale(0.0034,-0.0034)"
         d="m 215,137 c 67,0 111,-37 111,-92 0,-90 -111,-182 -215,-182 -67,0 -111,37 -111,92 0,90 111,182 215,182 z"
         fill="currentColor"
         id="path156" />
    </g>
  </a>
  <g
     transform="translate(0.79970277,5.9908)"
     id="g164">
    <path
       transform="scale(0.0034,-0.0034)"
       d="m 646,2 c 0,-113 -74,-213 -180,-247 3,-34 5,-68 5,-102 0,-20 -1,-40 -2,-60 -7,-121 -91,-228 -209,-228 -108,0 -196,87 -196,196 0,58 53,104 112,104 54,0 95,-48 95,-104 0,-52 -43,-95 -95,-95 -10,0 -20,2 -29,6 26,-38 68,-63 116,-63 h 3 c 93,2 153,92 159,190 1,19 2,37 2,56 0,30 -2,60 -4,90 -5,-1 -43,-8 -88,-8 -194,0 -333,180 -333,375 0,177 130,307 246,442 -31,98 -53,170 -53,347 0,115 55,223 148,290 7,5 16,4 22,-1 68,-80 134,-243 134,-357 0,-143 -85,-255 -178,-364 21,-68 40,-137 57,-206 1,0 5,1 11,1 C 545,264 646,135 646,2 Z M 462,-202 c 66,24 111,88 111,162 0,89 -65,178 -170,190 28,-135 50,-272 59,-352 z M 75,26 c 0,-145 141,-245 263,-245 1,0 46,0 81,6 -7,65 -27,206 -61,363 -79,-8 -124,-61 -124,-119 0,-43 25,-89 80,-121 5,-5 7,-11 7,-16 0,-12 -10,-23 -22,-23 -16,0 -127,63 -127,188 0,89 58,175 161,198 -14,58 -29,116 -46,173 C 181,308 75,186 75,26 Z M 406,1042 C 307,995 244,894 244,785 c 0,-49 13,-111 38,-191 79,97 144,199 144,324 0,33 0,63 -20,124 z"
       fill="currentColor"
       id="path162" />
  </g>
  <a
     style="color:inherit"
     xlink:href="textedit:///Users/tomsegarra/Documents/dev/dummies/lilypond_files/3c482703dac1cb882f025925cbc3779b.ly:19:1:9"
     id="a182"
     transform="translate(-2.2764972,-3.2767)">
    <g
       transform="translate(6.6864,8.4175)"
       id="g168">
      <path
         transform="scale(0.0034,-0.0034)"
         d="m 29,39 -2,-64 v -11 c 0,-22 2,-43 5,-65 44,38 91,80 91,138 0,33 -13,66 -42,66 C 50,103 30,72 29,39 Z m -57,415 c 9,5 18,8 28,8 10,0 19,-3 28,-8 L 21,111 c 25,23 58,36 92,36 51,0 87,-49 87,-103 0,-79 -84,-117 -144,-169 -16,-14 -25,-41 -47,-41 -14,0 -25,13 -25,27 z"
         fill="currentColor"
         id="path166" />
    </g>
    <g
       transform="translate(7.4766,7.1425)"
       id="g172">
      <path
         transform="scale(0.0034,-0.0034)"
         d="m 29,39 -2,-64 v -11 c 0,-22 2,-43 5,-65 44,38 91,80 91,138 0,33 -13,66 -42,66 C 50,103 30,72 29,39 Z m -57,415 c 9,5 18,8 28,8 10,0 19,-3 28,-8 L 21,111 c 25,23 58,36 92,36 51,0 87,-49 87,-103 0,-79 -84,-117 -144,-169 -16,-14 -25,-41 -47,-41 -14,0 -25,13 -25,27 z"
         fill="currentColor"
         id="path170" />
    </g>
    <g
       transform="translate(8.2668,8.8425)"
       id="g176">
      <path
         transform="scale(0.0034,-0.0034)"
         d="m 29,39 -2,-64 v -11 c 0,-22 2,-43 5,-65 44,38 91,80 91,138 0,33 -13,66 -42,66 C 50,103 30,72 29,39 Z m -57,415 c 9,5 18,8 28,8 10,0 19,-3 28,-8 L 21,111 c 25,23 58,36 92,36 51,0 87,-49 87,-103 0,-79 -84,-117 -144,-169 -16,-14 -25,-41 -47,-41 -14,0 -25,13 -25,27 z"
         fill="currentColor"
         id="path174" />
    </g>
    <g
       transform="translate(9.057,7.5675)"
       id="g180">
      <path
         transform="scale(0.0034,-0.0034)"
         d="m 29,39 -2,-64 v -11 c 0,-22 2,-43 5,-65 44,38 91,80 91,138 0,33 -13,66 -42,66 C 50,103 30,72 29,39 Z m -57,415 c 9,5 18,8 28,8 10,0 19,-3 28,-8 L 21,111 c 25,23 58,36 92,36 51,0 87,-49 87,-103 0,-79 -84,-117 -144,-169 -16,-14 -25,-41 -47,-41 -14,0 -25,13 -25,27 z"
         fill="currentColor"
         id="path178" />
    </g>
  </a>
  <g
     transform="translate(8.6105028,5.1408)"
     id="g186">
    <path
       transform="scale(0.0034,-0.0034)"
       d="m 358,29 c -30,0 -74,23 -74,73 0,38 27,76 71,76 4,0 7,0 11,-1 -27,36 -69,59 -116,59 -106,0 -113,-74 -113,-188 0,-15 1,-31 1,-48 0,-17 -1,-33 -1,-48 0,-114 7,-188 113,-188 79,0 136,70 155,150 2,7 7,10 13,10 7,0 14,-5 14,-13 0,-21 -50,-175 -182,-175 C 191,-264 0,-244 0,0 0,63 18,264 250,264 365,264 424,155 424,99 424,60 394,29 358,29 Z"
       fill="currentColor"
       id="path184" />
  </g>
  <g
     transform="translate(12.110403,5.1408)"
     id="g190">
    <rect
       x="-0.061700001"
       y="-1.5475"
       width="0.1233"
       height="2.3975"
       ry="0.039999999"
       fill="currentColor"
       id="rect188" />
  </g>
  <g
     transform="translate(21.020903,5.1408)"
     id="g194">
    <polygon
       stroke-linejoin="round"
       stroke-linecap="round"
       stroke-width="0.08"
       fill="currentColor"
       stroke="currentColor"
       points="0.04,0.164 0.04,-0.164 7.0055,-0.164 7.0055,0.164 "
       id="polygon192" />
  </g>
  <a
     style="color:inherit"
     xlink:href="textedit:///Users/tomsegarra/Documents/dev/dummies/lilypond_files/3c482703dac1cb882f025925cbc3779b.ly:20:56:57"
     id="a200"
     transform="translate(-2.2764972,-3.2767)">
    <g
       transform="translate(47.2125,8.4175)"
       id="g198">
      <path
         transform="scale(0.0034,-0.0034)"
         d="m 70,205 c 80,0 46,-97 90,-97 15,0 52,45 59,59 6,13 26,13 31,0 L 129,-250 c -9,-7 -19,-11 -30,-11 -11,0 -21,4 -30,11 L 187,76 C 154,64 119,54 84,54 37,54 -3,88 -3,133 c 0,40 33,72 73,72 z"
         fill="currentColor"
         id="path196" />
    </g>
  </a>
  <g
     transform="translate(31.349103,6.6843)"
     id="g204">
    <polygon
       stroke-linejoin="round"
       stroke-linecap="round"
       stroke-width="0.08"
       fill="currentColor"
       stroke="currentColor"
       points="0.04,0.164 0.04,-0.164 2.3907,-0.164 2.3907,0.164 "
       id="polygon202" />
  </g>
  <a
     style="color:inherit"
     xlink:href="textedit:///Users/tomsegarra/Documents/dev/dummies/lilypond_files/3c482703dac1cb882f025925cbc3779b.ly:20:58:59"
     id="a210"
     transform="translate(-2.2764972,-3.2767)">
    <g
       transform="translate(49.2625,7.1425)"
       id="g208">
      <path
         transform="scale(0.0034,-0.0034)"
         d="m 215,137 c 67,0 111,-37 111,-92 0,-90 -111,-182 -215,-182 -67,0 -111,37 -111,92 0,90 111,182 215,182 z"
         fill="currentColor"
         id="path206" />
    </g>
  </a>
  <g
     transform="translate(47.047603,5.1408)"
     id="g214">
    <rect
       x="-0.061700001"
       y="-1.1224999"
       width="0.1233"
       height="2.8225"
       ry="0.039999999"
       fill="currentColor"
       id="rect212" />
  </g>
  <g
     transform="translate(47.109303,6.8008)"
     id="g218">
    <path
       transform="scale(0.0034,-0.0034)"
       d="M 0,0 H -18 V 250 H 0 Z m 0,0 v 250 c 96,59 222,149 222,259 0,57 -15,111 -40,162 -3,17 10,29 24,29 8,0 16,-5 21,-13 25,-56 40,-116 40,-178 C 267,306 0,203 0,0 Z"
       fill="currentColor"
       id="path216" />
  </g>
  <g
     transform="translate(40.321203,6.6843)"
     id="g222">
    <polygon
       stroke-linejoin="round"
       stroke-linecap="round"
       stroke-width="0.08"
       fill="currentColor"
       stroke="currentColor"
       points="0.04,0.164 0.04,-0.164 2.3907,-0.164 2.3907,0.164 "
       id="polygon220" />
  </g>
  <g
     transform="translate(50.534903,5.9908)"
     id="g226">
    <polygon
       stroke-linejoin="round"
       stroke-linecap="round"
       stroke-width="0.08"
       fill="currentColor"
       stroke="currentColor"
       points="0.04,0.164 0.04,-0.164 2.3907,-0.164 2.3907,0.164 "
       id="polygon224" />
  </g>
  <a
     style="color:inherit"
     xlink:href="textedit:///Users/tomsegarra/Documents/dev/dummies/lilypond_files/3c482703dac1cb882f025925cbc3779b.ly:20:65:66"
     id="a232"
     transform="translate(-2.2764972,-3.2767)">
    <g
       transform="translate(52.8114,6.7175)"
       id="g230">
      <path
         transform="scale(0.0034,-0.0034)"
         d="m 215,137 c 67,0 111,-37 111,-92 0,-90 -111,-182 -215,-182 -67,0 -111,37 -111,92 0,90 111,182 215,182 z"
         fill="currentColor"
         id="path228" />
    </g>
  </a>
  <g
     transform="translate(50.596503,5.1408)"
     id="g236">
    <rect
       x="-0.061700001"
       y="-1.5475"
       width="0.1233"
       height="2.3975"
       ry="0.039999999"
       fill="currentColor"
       id="rect234" />
  </g>
  <g
     transform="translate(59.507003,5.1408)"
     id="g240">
    <polygon
       stroke-linejoin="round"
       stroke-linecap="round"
       stroke-width="0.08"
       fill="currentColor"
       stroke="currentColor"
       points="0.04,0.164 0.04,-0.164 7.0055,-0.164 7.0055,0.164 "
       id="polygon238" />
  </g>
  <a
     style="color:inherit"
     xlink:href="textedit:///Users/tomsegarra/Documents/dev/dummies/lilypond_files/3c482703dac1cb882f025925cbc3779b.ly:20:67:68"
     id="a246"
     transform="translate(-2.2764972,-3.2767)">
    <g
       transform="translate(55.1188,6.7175)"
       id="g244">
      <path
         transform="scale(0.0034,-0.0034)"
         d="m 215,137 c 67,0 111,-37 111,-92 0,-90 -111,-182 -215,-182 -67,0 -111,37 -111,92 0,90 111,182 215,182 z"
         fill="currentColor"
         id="path242" />
    </g>
  </a>
  <g
     transform="translate(52.903903,5.1408)"
     id="g250">
    <rect
       x="-0.061700001"
       y="-1.5475"
       width="0.1233"
       height="2.3975"
       ry="0.039999999"
       fill="currentColor"
       id="rect248" />
  </g>
  <g
     transform="translate(69.788203,5.1408)"
     id="g254">
    <polygon
       stroke-linejoin="round"
       stroke-linecap="round"
       stroke-width="0.08"
       fill="currentColor"
       stroke="currentColor"
       points="0.04,0.164 0.04,-0.164 2.3907,-0.164 2.3907,0.164 "
       id="polygon252" />
  </g>
  <a
     style="color:inherit"
     xlink:href="textedit:///Users/tomsegarra/Documents/dev/dummies/lilypond_files/3c482703dac1cb882f025925cbc3779b.ly:20:69:70"
     id="a260"
     transform="translate(-2.2764972,-3.2767)">
    <g
       transform="translate(57.4262,8.4175)"
       id="g258">
      <path
         transform="scale(0.0034,-0.0034)"
         d="m 70,205 c 80,0 46,-97 90,-97 15,0 52,45 59,59 6,13 26,13 31,0 L 129,-250 c -9,-7 -19,-11 -30,-11 -11,0 -21,4 -30,11 L 187,76 C 154,64 119,54 84,54 37,54 -3,88 -3,133 c 0,40 33,72 73,72 z"
         fill="currentColor"
         id="path256" />
    </g>
  </a>
  <g
     transform="translate(78.760403,5.1408)"
     id="g264">
    <polygon
       stroke-linejoin="round"
       stroke-linecap="round"
       stroke-width="0.08"
       fill="currentColor"
       stroke="currentColor"
       points="0.04,0.164 0.04,-0.164 2.3907,-0.164 2.3907,0.164 "
       id="polygon262" />
  </g>
  <a
     style="color:inherit"
     xlink:href="textedit:///Users/tomsegarra/Documents/dev/dummies/lilypond_files/3c482703dac1cb882f025925cbc3779b.ly:20:71:72"
     id="a270"
     transform="translate(-2.2764972,-3.2767)">
    <g
       transform="translate(59.4762,5.8675)"
       id="g268">
      <path
         transform="scale(0.0034,-0.0034)"
         d="m 215,137 c 67,0 111,-37 111,-92 0,-90 -111,-182 -215,-182 -67,0 -111,37 -111,92 0,90 111,182 215,182 z"
         fill="currentColor"
         id="path266" />
    </g>
  </a>
  <g
     transform="translate(57.261303,5.1408)"
     id="g274">
    <rect
       x="-0.061700001"
       y="-2.3975"
       width="0.1233"
       height="2.8225"
       ry="0.039999999"
       fill="currentColor"
       id="rect272" />
  </g>
  <g
     transform="translate(57.323003,5.5258)"
     id="g278">
    <path
       transform="scale(0.0034,-0.0034)"
       d="M 0,0 H -18 V 250 H 0 Z m 0,0 v 250 c 96,59 222,149 222,259 0,57 -15,111 -40,162 -3,17 10,29 24,29 8,0 16,-5 21,-13 25,-56 40,-116 40,-178 C 267,306 0,203 0,0 Z"
       fill="currentColor"
       id="path276" />
  </g>
  <a
     style="color:inherit"
     xlink:href="textedit:///Users/tomsegarra/Documents/dev/dummies/lilypond_files/3c482703dac1cb882f025925cbc3779b.ly:20:75:76"
     id="a284"
     transform="translate(-2.2764972,-3.2767)">
    <g
       transform="translate(61.7835,5.4425)"
       id="g282">
      <path
         transform="scale(0.0034,-0.0034)"
         d="m 215,137 c 67,0 111,-37 111,-92 0,-90 -111,-182 -215,-182 -67,0 -111,37 -111,92 0,90 111,182 215,182 z"
         fill="currentColor"
         id="path280" />
    </g>
  </a>
  <g
     transform="translate(59.568703,5.1408)"
     id="g288">
    <rect
       x="-0.061700001"
       y="-2.8225"
       width="0.1233"
       height="2.8225"
       ry="0.039999999"
       fill="currentColor"
       id="rect286" />
  </g>
  <g
     transform="translate(42.690303,5.1408)"
     id="g292">
    <rect
       x="-0.061700001"
       y="-1.1224999"
       width="0.1233"
       height="2.6659999"
       ry="0.039999999"
       fill="currentColor"
       id="rect290" />
  </g>
  <a
     style="color:inherit"
     xlink:href="textedit:///Users/tomsegarra/Documents/dev/dummies/lilypond_files/3c482703dac1cb882f025925cbc3779b.ly:20:79:80"
     id="a298"
     transform="translate(-2.2764972,-3.2767)">
    <g
       transform="translate(64.0909,5.0175)"
       id="g296">
      <path
         transform="scale(0.0034,-0.0034)"
         d="m 215,137 c 67,0 111,-37 111,-92 0,-90 -111,-182 -215,-182 -67,0 -111,37 -111,92 0,90 111,182 215,182 z"
         fill="currentColor"
         id="path294" />
    </g>
  </a>
  <g
     transform="translate(61.876103,5.1408)"
     id="g302">
    <rect
       x="-0.061700001"
       y="-3.2474999"
       width="0.1233"
       height="3.2474999"
       ry="0.039999999"
       fill="currentColor"
       id="rect300" />
  </g>
  <a
     style="color:inherit"
     xlink:href="textedit:///Users/tomsegarra/Documents/dev/dummies/lilypond_files/3c482703dac1cb882f025925cbc3779b.ly:20:52:53"
     id="a308"
     transform="translate(-2.2764972,-3.2767)">
    <g
       transform="translate(44.9051,7.1425)"
       id="g306">
      <path
         transform="scale(0.0034,-0.0034)"
         d="m 215,137 c 67,0 111,-37 111,-92 0,-90 -111,-182 -215,-182 -67,0 -111,37 -111,92 0,90 111,182 215,182 z"
         fill="currentColor"
         id="path304" />
    </g>
  </a>
  <a
     style="color:inherit"
     xlink:href="textedit:///Users/tomsegarra/Documents/dev/dummies/lilypond_files/3c482703dac1cb882f025925cbc3779b.ly:20:81:82"
     id="a314"
     transform="translate(-2.2764972,-3.2767)">
    <g
       transform="translate(66.3983,5.4425)"
       id="g312">
      <path
         transform="scale(0.0034,-0.0034)"
         d="m 215,137 c 67,0 111,-37 111,-92 0,-90 -111,-182 -215,-182 -67,0 -111,37 -111,92 0,90 111,182 215,182 z"
         fill="currentColor"
         id="path310" />
    </g>
  </a>
  <g
     transform="translate(64.183503,5.1408)"
     id="g318">
    <rect
       x="-0.061700001"
       y="-2.8225"
       width="0.1233"
       height="2.8225"
       ry="0.039999999"
       fill="currentColor"
       id="rect316" />
  </g>
  <a
     style="color:inherit"
     xlink:href="textedit:///Users/tomsegarra/Documents/dev/dummies/lilypond_files/3c482703dac1cb882f025925cbc3779b.ly:20:85:86"
     id="a324"
     transform="translate(-2.2764972,-3.2767)">
    <g
       transform="translate(68.7057,5.0175)"
       id="g322">
      <path
         transform="scale(0.0034,-0.0034)"
         d="m 215,137 c 67,0 111,-37 111,-92 0,-90 -111,-182 -215,-182 -67,0 -111,37 -111,92 0,90 111,182 215,182 z"
         fill="currentColor"
         id="path320" />
    </g>
  </a>
  <g
     transform="translate(66.490903,5.1408)"
     id="g328">
    <rect
       x="-0.061700001"
       y="-3.2474999"
       width="0.1233"
       height="3.2474999"
       ry="0.039999999"
       fill="currentColor"
       id="rect326" />
  </g>
  <a
     style="color:inherit"
     xlink:href="textedit:///Users/tomsegarra/Documents/dev/dummies/lilypond_files/3c482703dac1cb882f025925cbc3779b.ly:20:91:92"
     id="a334"
     transform="translate(-2.2764972,-3.2767)">
    <g
       transform="translate(72.0647,3.7425)"
       id="g332">
      <path
         transform="scale(0.0034,-0.0034)"
         d="m 215,137 c 67,0 111,-37 111,-92 0,-90 -111,-182 -215,-182 -67,0 -111,37 -111,92 0,90 111,182 215,182 z"
         fill="currentColor"
         id="path330" />
    </g>
  </a>
  <g
     transform="translate(69.849903,5.1408)"
     id="g338">
    <rect
       x="-0.061700001"
       y="-4.5225"
       width="0.1233"
       height="4.5225"
       ry="0.039999999"
       fill="currentColor"
       id="rect336" />
  </g>
  <a
     style="color:inherit"
     xlink:href="textedit:///Users/tomsegarra/Documents/dev/dummies/lilypond_files/3c482703dac1cb882f025925cbc3779b.ly:20:93:94"
     id="a344"
     transform="translate(-2.2764972,-3.2767)">
    <g
       transform="translate(74.3721,3.7425)"
       id="g342">
      <path
         transform="scale(0.0034,-0.0034)"
         d="m 215,137 c 67,0 111,-37 111,-92 0,-90 -111,-182 -215,-182 -67,0 -111,37 -111,92 0,90 111,182 215,182 z"
         fill="currentColor"
         id="path340" />
    </g>
  </a>
  <g
     transform="translate(72.157303,5.1408)"
     id="g348">
    <rect
       x="-0.061700001"
       y="-4.5225"
       width="0.1233"
       height="4.5225"
       ry="0.039999999"
       fill="currentColor"
       id="rect346" />
  </g>
  <g
     transform="translate(40.382903,5.1408)"
     id="g352">
    <rect
       x="-0.061700001"
       y="-1.1224999"
       width="0.1233"
       height="2.6659999"
       ry="0.039999999"
       fill="currentColor"
       id="rect350" />
  </g>
  <a
     style="color:inherit"
     xlink:href="textedit:///Users/tomsegarra/Documents/dev/dummies/lilypond_files/3c482703dac1cb882f025925cbc3779b.ly:20:95:96"
     id="a358"
     transform="translate(-2.2764972,-3.2767)">
    <g
       transform="translate(76.6795,8.4175)"
       id="g356">
      <path
         transform="scale(0.0034,-0.0034)"
         d="m 70,205 c 80,0 46,-97 90,-97 15,0 52,45 59,59 6,13 26,13 31,0 L 129,-250 c -9,-7 -19,-11 -30,-11 -11,0 -21,4 -30,11 L 187,76 C 154,64 119,54 84,54 37,54 -3,88 -3,133 c 0,40 33,72 73,72 z"
         fill="currentColor"
         id="path354" />
    </g>
  </a>
  <a
     style="color:inherit"
     xlink:href="textedit:///Users/tomsegarra/Documents/dev/dummies/lilypond_files/3c482703dac1cb882f025925cbc3779b.ly:20:48:49"
     id="a364"
     transform="translate(-2.2764972,-3.2767)">
    <g
       transform="translate(42.5977,7.1425)"
       id="g362">
      <path
         transform="scale(0.0034,-0.0034)"
         d="m 215,137 c 67,0 111,-37 111,-92 0,-90 -111,-182 -215,-182 -67,0 -111,37 -111,92 0,90 111,182 215,182 z"
         fill="currentColor"
         id="path360" />
    </g>
  </a>
  <a
     style="color:inherit"
     xlink:href="textedit:///Users/tomsegarra/Documents/dev/dummies/lilypond_files/3c482703dac1cb882f025925cbc3779b.ly:20:97:98"
     id="a370"
     transform="translate(-2.2764972,-3.2767)">
    <g
       transform="translate(78.7295,3.7425)"
       id="g368">
      <path
         transform="scale(0.0034,-0.0034)"
         d="m 215,137 c 67,0 111,-37 111,-92 0,-90 -111,-182 -215,-182 -67,0 -111,37 -111,92 0,90 111,182 215,182 z"
         fill="currentColor"
         id="path366" />
    </g>
  </a>
  <g
     transform="translate(76.514703,5.1408)"
     id="g374">
    <rect
       x="-0.061700001"
       y="-4.5225"
       width="0.1233"
       height="4.5225"
       ry="0.039999999"
       fill="currentColor"
       id="rect372" />
  </g>
  <g
     transform="translate(76.576303,5.1008)"
     id="g378">
    <path
       transform="scale(0.0034,-0.0034)"
       d="M 0,0 H -18 V 250 H 0 Z m 0,0 v 250 c 96,59 222,149 222,259 0,57 -15,111 -40,162 -3,17 10,29 24,29 8,0 16,-5 21,-13 25,-56 40,-116 40,-178 C 267,306 0,203 0,0 Z"
       fill="currentColor"
       id="path376" />
  </g>
  <g
     transform="translate(12.048703,5.9908)"
     id="g382">
    <polygon
       stroke-linejoin="round"
       stroke-linecap="round"
       stroke-width="0.08"
       fill="currentColor"
       stroke="currentColor"
       points="0.04,0.164 0.04,-0.164 2.3907,-0.164 2.3907,0.164 "
       id="polygon380" />
  </g>
  <a
     style="color:inherit"
     xlink:href="textedit:///Users/tomsegarra/Documents/dev/dummies/lilypond_files/3c482703dac1cb882f025925cbc3779b.ly:20:99:100"
     id="a388"
     transform="translate(-2.2764972,-3.2767)">
    <g
       transform="translate(81.0369,3.7425)"
       id="g386">
      <path
         transform="scale(0.0034,-0.0034)"
         d="m 215,137 c 67,0 111,-37 111,-92 0,-90 -111,-182 -215,-182 -67,0 -111,37 -111,92 0,90 111,182 215,182 z"
         fill="currentColor"
         id="path384" />
    </g>
  </a>
  <g
     transform="translate(78.822103,5.1408)"
     id="g392">
    <rect
       x="-0.061700001"
       y="-4.5225"
       width="0.1233"
       height="4.5225"
       ry="0.039999999"
       fill="currentColor"
       id="rect390" />
  </g>
  <g
     transform="translate(38.137103,6.8008)"
     id="g396">
    <path
       transform="scale(0.0034,-0.0034)"
       d="M 0,0 H -18 V 250 H 0 Z m 0,0 v 250 c 96,59 222,149 222,259 0,57 -15,111 -40,162 -3,17 10,29 24,29 8,0 16,-5 21,-13 25,-56 40,-116 40,-178 C 267,306 0,203 0,0 Z"
       fill="currentColor"
       id="path394" />
  </g>
  <a
     style="color:inherit"
     xlink:href="textedit:///Users/tomsegarra/Documents/dev/dummies/lilypond_files/3c482703dac1cb882f025925cbc3779b.ly:20:101:102"
     id="a402"
     transform="translate(-2.2764972,-3.2767)">
    <g
       transform="translate(83.3443,3.7425)"
       id="g400">
      <path
         transform="scale(0.0034,-0.0034)"
         d="m 215,137 c 67,0 111,-37 111,-92 0,-90 -111,-182 -215,-182 -67,0 -111,37 -111,92 0,90 111,182 215,182 z"
         fill="currentColor"
         id="path398" />
    </g>
  </a>
  <g
     transform="translate(81.129403,5.1408)"
     id="g406">
    <rect
       x="-0.061700001"
       y="-4.5225"
       width="0.1233"
       height="4.5225"
       ry="0.039999999"
       fill="currentColor"
       id="rect404" />
  </g>
  <a
     style="color:inherit"
     xlink:href="textedit:///Users/tomsegarra/Documents/dev/dummies/lilypond_files/3c482703dac1cb882f025925cbc3779b.ly:20:103:104"
     id="a412"
     transform="translate(-2.2764972,-3.2767)">
    <g
       transform="translate(85.6517,8.4175)"
       id="g410">
      <path
         transform="scale(0.0034,-0.0034)"
         d="m -8,78 c 0,59 125,83 125,182 0,25 -9,49 -26,69 l -33,40 c -3,4 -4,7 -4,11 0,9 9,17 18,17 4,0 8,-2 12,-6 L 234,212 c 7,-9 11,-18 11,-26 0,-59 -125,-83 -125,-182 0,-25 8,-49 25,-69 l 82,-97 c 3,-4 4,-7 4,-11 0,-9 -8,-17 -17,-17 -10,0 -42,42 -106,42 -19,0 -54,-1 -54,-66 0,-34 10,-73 27,-93 7,-9 -5,-20 -12,-11 -45,53 -93,147 -93,201 0,42 27,42 43,42 31,0 74,-11 113,-27 L 3,52 C -4,61 -8,70 -8,78 Z"
         fill="currentColor"
         id="path408" />
    </g>
  </a>
  <g
     transform="translate(38.075503,5.1408)"
     id="g416">
    <rect
       x="-0.061700001"
       y="-1.1224999"
       width="0.1233"
       height="2.8225"
       ry="0.039999999"
       fill="currentColor"
       id="rect414" />
  </g>
  <a
     style="color:inherit"
     xlink:href="textedit:///Users/tomsegarra/Documents/dev/dummies/lilypond_files/3c482703dac1cb882f025925cbc3779b.ly:20:44:45"
     id="a422"
     transform="translate(-2.2764972,-3.2767)">
    <g
       transform="translate(40.2903,7.1425)"
       id="g420">
      <path
         transform="scale(0.0034,-0.0034)"
         d="m 215,137 c 67,0 111,-37 111,-92 0,-90 -111,-182 -215,-182 -67,0 -111,37 -111,92 0,90 111,182 215,182 z"
         fill="currentColor"
         id="path418" />
    </g>
  </a>
  <a
     style="color:inherit"
     xlink:href="textedit:///Users/tomsegarra/Documents/dev/dummies/lilypond_files/3c482703dac1cb882f025925cbc3779b.ly:20:9:10"
     id="a428"
     transform="translate(-2.2764972,-3.2767)">
    <g
       transform="translate(16.6326,6.7175)"
       id="g426">
      <path
         transform="scale(0.0034,-0.0034)"
         d="m 215,137 c 67,0 111,-37 111,-92 0,-90 -111,-182 -215,-182 -67,0 -111,37 -111,92 0,90 111,182 215,182 z"
         fill="currentColor"
         id="path424" />
    </g>
  </a>
  <g
     transform="translate(14.417803,5.1408)"
     id="g432">
    <rect
       x="-0.061700001"
       y="-1.5475"
       width="0.1233"
       height="2.3975"
       ry="0.039999999"
       fill="currentColor"
       id="rect430" />
  </g>
  <a
     style="color:inherit"
     xlink:href="textedit:///Users/tomsegarra/Documents/dev/dummies/lilypond_files/3c482703dac1cb882f025925cbc3779b.ly:20:11:12"
     id="a438"
     transform="translate(-2.2764972,-3.2767)">
    <g
       transform="translate(18.94,8.4175)"
       id="g436">
      <path
         transform="scale(0.0034,-0.0034)"
         d="m 70,205 c 80,0 46,-97 90,-97 15,0 52,45 59,59 6,13 26,13 31,0 L 129,-250 c -9,-7 -19,-11 -30,-11 -11,0 -21,4 -30,11 L 187,76 C 154,64 119,54 84,54 37,54 -3,88 -3,133 c 0,40 33,72 73,72 z"
         fill="currentColor"
         id="path434" />
    </g>
  </a>
  <a
     style="color:inherit"
     xlink:href="textedit:///Users/tomsegarra/Documents/dev/dummies/lilypond_files/3c482703dac1cb882f025925cbc3779b.ly:20:13:14"
     id="a444"
     transform="translate(-2.2764972,-3.2767)">
    <g
       transform="translate(20.99,5.8675)"
       id="g442">
      <path
         transform="scale(0.0034,-0.0034)"
         d="m 215,137 c 67,0 111,-37 111,-92 0,-90 -111,-182 -215,-182 -67,0 -111,37 -111,92 0,90 111,182 215,182 z"
         fill="currentColor"
         id="path440" />
    </g>
  </a>
  <g
     transform="translate(18.775103,5.1408)"
     id="g448">
    <rect
       x="-0.061700001"
       y="-2.3975"
       width="0.1233"
       height="2.8225"
       ry="0.039999999"
       fill="currentColor"
       id="rect446" />
  </g>
  <g
     transform="translate(18.836803,5.5258)"
     id="g452">
    <path
       transform="scale(0.0034,-0.0034)"
       d="M 0,0 H -18 V 250 H 0 Z m 0,0 v 250 c 96,59 222,149 222,259 0,57 -15,111 -40,162 -3,17 10,29 24,29 8,0 16,-5 21,-13 25,-56 40,-116 40,-178 C 267,306 0,203 0,0 Z"
       fill="currentColor"
       id="path450" />
  </g>
  <a
     style="color:inherit"
     xlink:href="textedit:///Users/tomsegarra/Documents/dev/dummies/lilypond_files/3c482703dac1cb882f025925cbc3779b.ly:20:17:18"
     id="a458"
     transform="translate(-2.2764972,-3.2767)">
    <g
       transform="translate(23.2974,5.4425)"
       id="g456">
      <path
         transform="scale(0.0034,-0.0034)"
         d="m 215,137 c 67,0 111,-37 111,-92 0,-90 -111,-182 -215,-182 -67,0 -111,37 -111,92 0,90 111,182 215,182 z"
         fill="currentColor"
         id="path454" />
    </g>
  </a>
  <g
     transform="translate(21.082503,5.1408)"
     id="g462">
    <rect
       x="-0.061700001"
       y="-2.8225"
       width="0.1233"
       height="2.8225"
       ry="0.039999999"
       fill="currentColor"
       id="rect460" />
  </g>
  <a
     style="color:inherit"
     xlink:href="textedit:///Users/tomsegarra/Documents/dev/dummies/lilypond_files/3c482703dac1cb882f025925cbc3779b.ly:20:42:43"
     id="a468"
     transform="translate(-2.2764972,-3.2767)">
    <g
       transform="translate(38.2403,8.4175)"
       id="g466">
      <path
         transform="scale(0.0034,-0.0034)"
         d="m 70,205 c 80,0 46,-97 90,-97 15,0 52,45 59,59 6,13 26,13 31,0 L 129,-250 c -9,-7 -19,-11 -30,-11 -11,0 -21,4 -30,11 L 187,76 C 154,64 119,54 84,54 37,54 -3,88 -3,133 c 0,40 33,72 73,72 z"
         fill="currentColor"
         id="path464" />
    </g>
  </a>
  <a
     style="color:inherit"
     xlink:href="textedit:///Users/tomsegarra/Documents/dev/dummies/lilypond_files/3c482703dac1cb882f025925cbc3779b.ly:20:21:22"
     id="a474"
     transform="translate(-2.2764972,-3.2767)">
    <g
       transform="translate(25.6047,5.0175)"
       id="g472">
      <path
         transform="scale(0.0034,-0.0034)"
         d="m 215,137 c 67,0 111,-37 111,-92 0,-90 -111,-182 -215,-182 -67,0 -111,37 -111,92 0,90 111,182 215,182 z"
         fill="currentColor"
         id="path470" />
    </g>
  </a>
  <g
     transform="translate(23.389903,5.1408)"
     id="g478">
    <rect
       x="-0.061700001"
       y="-3.2474999"
       width="0.1233"
       height="3.2474999"
       ry="0.039999999"
       fill="currentColor"
       id="rect476" />
  </g>
  <a
     style="color:inherit"
     xlink:href="textedit:///Users/tomsegarra/Documents/dev/dummies/lilypond_files/3c482703dac1cb882f025925cbc3779b.ly:20:23:24"
     id="a484"
     transform="translate(-2.2764972,-3.2767)">
    <g
       transform="translate(27.9121,5.4425)"
       id="g482">
      <path
         transform="scale(0.0034,-0.0034)"
         d="m 215,137 c 67,0 111,-37 111,-92 0,-90 -111,-182 -215,-182 -67,0 -111,37 -111,92 0,90 111,182 215,182 z"
         fill="currentColor"
         id="path480" />
    </g>
  </a>
  <g
     transform="translate(25.697303,5.1408)"
     id="g488">
    <rect
       x="-0.061700001"
       y="-2.8225"
       width="0.1233"
       height="2.8225"
       ry="0.039999999"
       fill="currentColor"
       id="rect486" />
  </g>
  <a
     style="color:inherit"
     xlink:href="textedit:///Users/tomsegarra/Documents/dev/dummies/lilypond_files/3c482703dac1cb882f025925cbc3779b.ly:20:27:28"
     id="a494"
     transform="translate(-2.2764972,-3.2767)">
    <g
       transform="translate(30.2195,5.0175)"
       id="g492">
      <path
         transform="scale(0.0034,-0.0034)"
         d="m 215,137 c 67,0 111,-37 111,-92 0,-90 -111,-182 -215,-182 -67,0 -111,37 -111,92 0,90 111,182 215,182 z"
         fill="currentColor"
         id="path490" />
    </g>
  </a>
  <g
     transform="translate(28.004703,5.1408)"
     id="g498">
    <rect
       x="-0.061700001"
       y="-3.2474999"
       width="0.1233"
       height="3.2474999"
       ry="0.039999999"
       fill="currentColor"
       id="rect496" />
  </g>
  <a
     style="color:inherit"
     xlink:href="textedit:///Users/tomsegarra/Documents/dev/dummies/lilypond_files/3c482703dac1cb882f025925cbc3779b.ly:20:33:34"
     id="a504"
     transform="translate(-2.2764972,-3.2767)">
    <g
       transform="translate(33.6256,7.1425)"
       id="g502">
      <path
         transform="scale(0.0034,-0.0034)"
         d="m 215,137 c 67,0 111,-37 111,-92 0,-90 -111,-182 -215,-182 -67,0 -111,37 -111,92 0,90 111,182 215,182 z"
         fill="currentColor"
         id="path500" />
    </g>
  </a>
  <g
     transform="translate(31.410703,5.1408)"
     id="g508">
    <rect
       x="-0.061700001"
       y="-1.1224999"
       width="0.1233"
       height="2.6659999"
       ry="0.039999999"
       fill="currentColor"
       id="rect506" />
  </g>
  <g
     transform="translate(33.718103,5.1408)"
     id="g512">
    <rect
       x="-0.061700001"
       y="-1.1224999"
       width="0.1233"
       height="2.6659999"
       ry="0.039999999"
       fill="currentColor"
       id="rect510" />
  </g>
  <a
     style="color:inherit"
     xlink:href="textedit:///Users/tomsegarra/Documents/dev/dummies/lilypond_files/3c482703dac1cb882f025925cbc3779b.ly:20:38:39"
     id="a518"
     transform="translate(-2.2764972,-3.2767)">
    <g
       transform="translate(35.9329,7.1425)"
       id="g516">
      <path
         transform="scale(0.0034,-0.0034)"
         d="m 215,137 c 67,0 111,-37 111,-92 0,-90 -111,-182 -215,-182 -67,0 -111,37 -111,92 0,90 111,182 215,182 z"
         fill="currentColor"
         id="path514" />
    </g>
  </a>
</svg>
