<svg xmlns="http://www.w3.org/2000/svg" xmlns:xlink="http://www.w3.org/1999/xlink" version="1.2" width="147.82mm" height="297.00mm" viewBox="0 0 84.1196 169.0094">
<style type="text/css">
<![CDATA[
tspan { white-space: pre; }
]]>
</style>
<!-- Page: 1/1 -->
<g transform="translate(2.2762, 4.1500)">
<rect x="69.2882" y="-0.0899" width="1.6611" height="0.1799" ry="0.0899" fill="currentColor"/>
</g>
<g transform="translate(2.2762, 4.1500)">
<rect x="46.6060" y="-0.0899" width="1.6611" height="0.1799" ry="0.0899" fill="currentColor"/>
</g>
<g transform="translate(2.2762, 4.1500)">
<rect x="29.1862" y="-0.0899" width="1.6611" height="0.1799" ry="0.0899" fill="currentColor"/>
</g>
<g transform="translate(2.2762, 4.1500)">
<rect x="11.4163" y="-0.0899" width="1.6611" height="0.1799" ry="0.0899" fill="currentColor"/>
</g>
<g transform="translate(2.2762, 8.4000)">
<line stroke-linejoin="round" stroke-linecap="round" stroke-width="0.0949" stroke="currentColor" x1="0.0474" y1="0" x2="79.5672" y2="0"/>
</g>
<g transform="translate(2.2762, 7.5500)">
<line stroke-linejoin="round" stroke-linecap="round" stroke-width="0.0949" stroke="currentColor" x1="0.0474" y1="0" x2="79.5672" y2="0"/>
</g>
<g transform="translate(2.2762, 6.7000)">
<line stroke-linejoin="round" stroke-linecap="round" stroke-width="0.0949" stroke="currentColor" x1="0.0474" y1="0" x2="79.5672" y2="0"/>
</g>
<g transform="translate(2.2762, 5.8500)">
<line stroke-linejoin="round" stroke-linecap="round" stroke-width="0.0949" stroke="currentColor" x1="0.0474" y1="0" x2="79.5672" y2="0"/>
</g>
<g transform="translate(2.2762, 5.0000)">
<line stroke-linejoin="round" stroke-linecap="round" stroke-width="0.0949" stroke="currentColor" x1="0.0474" y1="0" x2="79.5672" y2="0"/>
</g>
<g transform="translate(77.1894, 6.7000)">
<rect x="0.0000" y="-1.7000" width="0.1802" height="3.4000" ry="0.0000" fill="currentColor"/>
</g>
<g transform="translate(65.1841, 6.7000)">
<rect x="0.0000" y="-1.7000" width="0.1802" height="3.4000" ry="0.0000" fill="currentColor"/>
</g>
<g transform="translate(47.9403, 6.7000)">
<rect x="0.0000" y="-1.7000" width="0.1802" height="3.4000" ry="0.0000" fill="currentColor"/>
</g>
<g transform="translate(30.5205, 6.7000)">
<rect x="0.0000" y="-1.7000" width="0.1802" height="3.4000" ry="0.0000" fill="currentColor"/>
</g>
<g transform="translate(3.0762, 7.5500)">
<path transform="scale(0.0034, -0.0034)" d="M646 2c0 -113 -74 -213 -180 -247c3 -34 5 -68 5 -102c0 -20 -1 -40 -2 -60c-7 -121 -91 -228 -209 -228c-108 0 -196 87 -196 196c0 58 53 104 112 104c54 0 95 -48 95 -104c0 -52 -43 -95 -95 -95c-10 0 -20 2 -29 6c26 -38 68 -63 116 -63h3c93 2 153 92 159 190
c1 19 2 37 2 56c0 30 -2 60 -4 90c-5 -1 -43 -8 -88 -8c-194 0 -333 180 -333 375c0 177 130 307 246 442c-31 98 -53 170 -53 347c0 115 55 223 148 290c7 5 16 4 22 -1c68 -80 134 -243 134 -357c0 -143 -85 -255 -178 -364c21 -68 40 -137 57 -206c1 0 5 1 11 1
c156 0 257 -129 257 -262zM462 -202c66 24 111 88 111 162c0 89 -65 178 -170 190c28 -135 50 -272 59 -352zM75 26c0 -145 141 -245 263 -245c1 0 46 0 81 6c-7 65 -27 206 -61 363c-79 -8 -124 -61 -124 -119c0 -43 25 -89 80 -121c5 -5 7 -11 7 -16
c0 -12 -10 -23 -22 -23c-16 0 -127 63 -127 188c0 89 58 175 161 198c-14 58 -29 116 -46 173c-106 -122 -212 -244 -212 -404zM406 1042c-99 -47 -162 -148 -162 -257c0 -49 13 -111 38 -191c79 97 144 199 144 324c0 33 0 63 -20 124z" fill="currentColor"/>
</g>
<a style="color:inherit;" xlink:href="textedit:///Users/tomsegarra/Documents/dev/dummies/lilypond_files/3e0c04858b3ba294581c1c8127328eb5.ly:21:1:9">
<g transform="translate(6.5762, 5.0000)">
<path transform="scale(0.0034, -0.0034)" d="M217 -311c0 -11 -8 -19 -19 -19s-20 8 -20 19v142l-81 -30v-156c0 -11 -9 -20 -20 -20s-19 9 -19 20v142l-28 -11c-3 -1 -5 -1 -8 -1c-12 0 -22 10 -22 23v57c0 9 6 18 15 21l43 16v157l-28 -10c-3 -1 -5 -1 -8 -1c-12 0 -22 9 -22 22v57c0 9 6 18 15 21l43 16v157
c0 11 8 19 19 19s20 -8 20 -19v-142l81 30v156c0 11 9 20 20 20s19 -9 19 -20v-142l28 11c3 1 5 1 8 1c12 0 22 -10 22 -23v-57c0 -9 -6 -18 -15 -21l-43 -16v-157l28 10c3 1 5 1 8 1c12 0 22 -9 22 -22v-57c0 -9 -6 -18 -15 -21l-43 -16v-157zM97 64v-158l81 30v158z" fill="currentColor"/>
</g>
<g transform="translate(7.5112, 6.2750)">
<path transform="scale(0.0034, -0.0034)" d="M217 -311c0 -11 -8 -19 -19 -19s-20 8 -20 19v142l-81 -30v-156c0 -11 -9 -20 -20 -20s-19 9 -19 20v142l-28 -11c-3 -1 -5 -1 -8 -1c-12 0 -22 10 -22 23v57c0 9 6 18 15 21l43 16v157l-28 -10c-3 -1 -5 -1 -8 -1c-12 0 -22 9 -22 22v57c0 9 6 18 15 21l43 16v157
c0 11 8 19 19 19s20 -8 20 -19v-142l81 30v156c0 11 9 20 20 20s19 -9 19 -20v-142l28 11c3 1 5 1 8 1c12 0 22 -10 22 -23v-57c0 -9 -6 -18 -15 -21l-43 -16v-157l28 10c3 1 5 1 8 1c12 0 22 -9 22 -22v-57c0 -9 -6 -18 -15 -21l-43 -16v-157zM97 64v-158l81 30v158z" fill="currentColor"/>
</g>
<g transform="translate(8.4462, 4.5750)">
<path transform="scale(0.0034, -0.0034)" d="M217 -311c0 -11 -8 -19 -19 -19s-20 8 -20 19v142l-81 -30v-156c0 -11 -9 -20 -20 -20s-19 9 -19 20v142l-28 -11c-3 -1 -5 -1 -8 -1c-12 0 -22 10 -22 23v57c0 9 6 18 15 21l43 16v157l-28 -10c-3 -1 -5 -1 -8 -1c-12 0 -22 9 -22 22v57c0 9 6 18 15 21l43 16v157
c0 11 8 19 19 19s20 -8 20 -19v-142l81 30v156c0 11 9 20 20 20s19 -9 19 -20v-142l28 11c3 1 5 1 8 1c12 0 22 -10 22 -23v-57c0 -9 -6 -18 -15 -21l-43 -16v-157l28 10c3 1 5 1 8 1c12 0 22 -9 22 -22v-57c0 -9 -6 -18 -15 -21l-43 -16v-157zM97 64v-158l81 30v158z" fill="currentColor"/>
</g>
</a>
<g transform="translate(17.4768, 7.7066)">
<polygon stroke-linejoin="round" stroke-linecap="round" stroke-width="0.0800" fill="currentColor" stroke="currentColor" points="2.9746 0.3729 2.9746 0.7009 0.0400 0.1640 0.0400 -0.1640"/>
</g>
<g transform="translate(10.5312, 6.7000)">
<path transform="scale(0.0034, -0.0034)" d="M358 29c-30 0 -74 23 -74 73c0 38 27 76 71 76c4 0 7 0 11 -1c-27 36 -69 59 -116 59c-106 0 -113 -74 -113 -188c0 -15 1 -31 1 -48s-1 -33 -1 -48c0 -114 7 -188 113 -188c79 0 136 70 155 150c2 7 7 10 13 10c7 0 14 -5 14 -13c0 -21 -50 -175 -182 -175
c-59 0 -250 20 -250 264c0 63 18 264 250 264c115 0 174 -109 174 -165c0 -39 -30 -70 -66 -70z" fill="currentColor"/>
</g>
<a style="color:inherit;" xlink:href="textedit:///Users/tomsegarra/Documents/dev/dummies/lilypond_files/3e0c04858b3ba294581c1c8127328eb5.ly:22:9:10">
<g transform="translate(17.4768, 4.5750)">
<path transform="scale(0.0034, -0.0034)" d="M215 137c67 0 111 -37 111 -92c0 -90 -111 -182 -215 -182c-67 0 -111 37 -111 92c0 90 111 182 215 182z" fill="currentColor"/>
</g>
</a>
<a style="color:inherit;" xlink:href="textedit:///Users/tomsegarra/Documents/dev/dummies/lilypond_files/3e0c04858b3ba294581c1c8127328eb5.ly:28:17:18">
<g transform="translate(16.0502, 12.2000)">
<text font-family="serif" font-size="2.0989" text-anchor="start" fill="currentColor">
<tspan>have</tspan>
</text>
</g>
</a>
<g transform="translate(17.5384, 6.7000)">
<rect x="-0.0617" y="-1.9725" width="0.1233" height="2.9901" ry="0.0400" fill="currentColor"/>
</g>
<g transform="translate(16.5352, 4.5750)">
<path transform="scale(0.0034, -0.0034)" d="M-8 375c8 5 17 7 26 7s18 -2 26 -7l-3 -187l104 21h4c10 0 18 -8 18 -18l7 -566c-8 -5 -16 -7 -25 -7s-18 2 -26 7l2 187l-103 -21h-4c-10 0 -18 8 -18 18zM130 111l-90 -18l-3 -204l90 18z" fill="currentColor"/>
</g>
<a style="color:inherit;" xlink:href="textedit:///Users/tomsegarra/Documents/dev/dummies/lilypond_files/3e0c04858b3ba294581c1c8127328eb5.ly:22:4:5">
<g transform="translate(13.9694, 4.1500)">
<path transform="scale(0.0034, -0.0034)" d="M215 137c67 0 111 -37 111 -92c0 -90 -111 -182 -215 -182c-67 0 -111 37 -111 92c0 90 111 182 215 182z" fill="currentColor"/>
</g>
</a>
<a style="color:inherit;" xlink:href="textedit:///Users/tomsegarra/Documents/dev/dummies/lilypond_files/3e0c04858b3ba294581c1c8127328eb5.ly:22:14:15">
<g transform="translate(20.3680, 5.4250)">
<path transform="scale(0.0034, -0.0034)" d="M215 137c67 0 111 -37 111 -92c0 -90 -111 -182 -215 -182c-67 0 -111 37 -111 92c0 90 111 182 215 182z" fill="currentColor"/>
</g>
</a>
<a style="color:inherit;" xlink:href="textedit:///Users/tomsegarra/Documents/dev/dummies/lilypond_files/3e0c04858b3ba294581c1c8127328eb5.ly:28:22:23">
<g transform="translate(20.4608, 12.2000)">
<text font-family="serif" font-size="2.0989" text-anchor="start" fill="currentColor">
<tspan>a</tspan>
</text>
</g>
</a>
<g transform="translate(20.4297, 6.7000)">
<rect x="-0.0617" y="-1.1225" width="0.1233" height="2.6550" ry="0.0400" fill="currentColor"/>
</g>
<a style="color:inherit;" xlink:href="textedit:///Users/tomsegarra/Documents/dev/dummies/lilypond_files/3e0c04858b3ba294581c1c8127328eb5.ly:22:17:18">
<g transform="translate(23.8056, 7.1250)">
<path transform="scale(0.0034, -0.0034)" d="M215 137c67 0 111 -37 111 -92c0 -90 -111 -182 -215 -182c-67 0 -111 37 -111 92c0 90 111 182 215 182z" fill="currentColor"/>
</g>
</a>
<a style="color:inherit;" xlink:href="textedit:///Users/tomsegarra/Documents/dev/dummies/lilypond_files/3e0c04858b3ba294581c1c8127328eb5.ly:28:24:25">
<g transform="translate(21.8327, 12.2000)">
<text font-family="serif" font-size="2.0989" text-anchor="start" fill="currentColor">
<tspan>name.</tspan>
</text>
</g>
</a>
<g transform="translate(24.8513, 6.7000)">
<rect x="-0.0617" y="-2.5500" width="0.1233" height="2.8225" ry="0.0400" fill="currentColor"/>
</g>
<a style="color:inherit;" xlink:href="textedit:///Users/tomsegarra/Documents/dev/dummies/lilypond_files/3e0c04858b3ba294581c1c8127328eb5.ly:22:21:22">
<g transform="translate(27.3130, 6.7000)">
<path transform="scale(0.0034, -0.0034)" d="M-8 78c0 59 125 83 125 182c0 25 -9 49 -26 69l-33 40c-3 4 -4 7 -4 11c0 9 9 17 18 17c4 0 8 -2 12 -6l150 -179c7 -9 11 -18 11 -26c0 -59 -125 -83 -125 -182c0 -25 8 -49 25 -69l82 -97c3 -4 4 -7 4 -11c0 -9 -8 -17 -17 -17c-10 0 -42 42 -106 42
c-19 0 -54 -1 -54 -66c0 -34 10 -73 27 -93c7 -9 -5 -20 -12 -11c-45 53 -93 147 -93 201c0 42 27 42 43 42c31 0 74 -11 113 -27l-129 154c-7 9 -11 18 -11 26z" fill="currentColor"/>
</g>
</a>
<g transform="translate(35.2466, 7.7066)">
<polygon stroke-linejoin="round" stroke-linecap="round" stroke-width="0.0800" fill="currentColor" stroke="currentColor" points="2.9746 0.3729 2.9746 0.7009 0.0400 0.1640 0.0400 -0.1640"/>
</g>
<a style="color:inherit;" xlink:href="textedit:///Users/tomsegarra/Documents/dev/dummies/lilypond_files/3e0c04858b3ba294581c1c8127328eb5.ly:23:4:5">
<g transform="translate(31.7393, 4.1500)">
<path transform="scale(0.0034, -0.0034)" d="M215 137c67 0 111 -37 111 -92c0 -90 -111 -182 -215 -182c-67 0 -111 37 -111 92c0 90 111 182 215 182z" fill="currentColor"/>
</g>
</a>
<a style="color:inherit;" xlink:href="textedit:///Users/tomsegarra/Documents/dev/dummies/lilypond_files/3e0c04858b3ba294581c1c8127328eb5.ly:28:30:31">
<g transform="translate(31.6613, 12.2000)">
<text font-family="serif" font-size="2.0989" text-anchor="start" fill="currentColor">
<tspan>It</tspan>
</text>
</g>
</a>
<g transform="translate(31.8009, 6.7000)">
<rect x="-0.0617" y="-2.3975" width="0.1233" height="2.8225" ry="0.0400" fill="currentColor"/>
</g>
<a style="color:inherit;" xlink:href="textedit:///Users/tomsegarra/Documents/dev/dummies/lilypond_files/3e0c04858b3ba294581c1c8127328eb5.ly:23:8:9">
<g transform="translate(35.2466, 4.5750)">
<path transform="scale(0.0034, -0.0034)" d="M215 137c67 0 111 -37 111 -92c0 -90 -111 -182 -215 -182c-67 0 -111 37 -111 92c0 90 111 182 215 182z" fill="currentColor"/>
</g>
</a>
<a style="color:inherit;" xlink:href="textedit:///Users/tomsegarra/Documents/dev/dummies/lilypond_files/3e0c04858b3ba294581c1c8127328eb5.ly:28:33:34">
<g transform="translate(35.1004, 12.2000)">
<text font-family="serif" font-size="2.0989" text-anchor="start" fill="currentColor">
<tspan>is</tspan>
</text>
</g>
</a>
<g transform="translate(35.3083, 6.7000)">
<rect x="-0.0617" y="-1.9725" width="0.1233" height="2.9901" ry="0.0400" fill="currentColor"/>
</g>
<g transform="translate(34.3050, 4.5750)">
<path transform="scale(0.0034, -0.0034)" d="M-8 375c8 5 17 7 26 7s18 -2 26 -7l-3 -187l104 21h4c10 0 18 -8 18 -18l7 -566c-8 -5 -16 -7 -25 -7s-18 2 -26 7l2 187l-103 -21h-4c-10 0 -18 8 -18 18zM130 111l-90 -18l-3 -204l90 18z" fill="currentColor"/>
</g>
<a style="color:inherit;" xlink:href="textedit:///Users/tomsegarra/Documents/dev/dummies/lilypond_files/3e0c04858b3ba294581c1c8127328eb5.ly:28:15:16">
<g transform="translate(14.1817, 12.2000)">
<text font-family="serif" font-size="2.0989" text-anchor="start" fill="currentColor">
<tspan>I</tspan>
</text>
</g>
</a>
<a style="color:inherit;" xlink:href="textedit:///Users/tomsegarra/Documents/dev/dummies/lilypond_files/3e0c04858b3ba294581c1c8127328eb5.ly:23:13:14">
<g transform="translate(38.1379, 5.4250)">
<path transform="scale(0.0034, -0.0034)" d="M215 137c67 0 111 -37 111 -92c0 -90 -111 -182 -215 -182c-67 0 -111 37 -111 92c0 90 111 182 215 182z" fill="currentColor"/>
</g>
</a>
<a style="color:inherit;" xlink:href="textedit:///Users/tomsegarra/Documents/dev/dummies/lilypond_files/3e0c04858b3ba294581c1c8127328eb5.ly:28:36:37">
<g transform="translate(36.9503, 12.2000)">
<text font-family="serif" font-size="2.0989" text-anchor="start" fill="currentColor">
<tspan>Dan</tspan>
</text>
</g>
</a>
<g transform="translate(38.1995, 6.7000)">
<rect x="-0.0617" y="-1.1225" width="0.1233" height="2.6550" ry="0.0400" fill="currentColor"/>
</g>
<g transform="translate(14.0311, 6.7000)">
<rect x="-0.0617" y="-2.3975" width="0.1233" height="2.8225" ry="0.0400" fill="currentColor"/>
</g>
<a style="color:inherit;" xlink:href="textedit:///Users/tomsegarra/Documents/dev/dummies/lilypond_files/3e0c04858b3ba294581c1c8127328eb5.ly:23:16:17">
<g transform="translate(41.2254, 7.1250)">
<path transform="scale(0.0034, -0.0034)" d="M215 137c67 0 111 -37 111 -92c0 -90 -111 -182 -215 -182c-67 0 -111 37 -111 92c0 90 111 182 215 182z" fill="currentColor"/>
</g>
</a>
<a style="color:inherit;" xlink:href="textedit:///Users/tomsegarra/Documents/dev/dummies/lilypond_files/3e0c04858b3ba294581c1c8127328eb5.ly:28:43:44">
<g transform="translate(40.5329, 12.2000)">
<text font-family="serif" font-size="2.0989" text-anchor="start" fill="currentColor">
<tspan>ny.</tspan>
</text>
</g>
</a>
<g transform="translate(42.2712, 6.7000)">
<rect x="-0.0617" y="-2.5500" width="0.1233" height="2.8225" ry="0.0400" fill="currentColor"/>
</g>
<a style="color:inherit;" xlink:href="textedit:///Users/tomsegarra/Documents/dev/dummies/lilypond_files/3e0c04858b3ba294581c1c8127328eb5.ly:23:20:21">
<g transform="translate(44.7328, 6.7000)">
<path transform="scale(0.0034, -0.0034)" d="M-8 78c0 59 125 83 125 182c0 25 -9 49 -26 69l-33 40c-3 4 -4 7 -4 11c0 9 9 17 18 17c4 0 8 -2 12 -6l150 -179c7 -9 11 -18 11 -26c0 -59 -125 -83 -125 -182c0 -25 8 -49 25 -69l82 -97c3 -4 4 -7 4 -11c0 -9 -8 -17 -17 -17c-10 0 -42 42 -106 42
c-19 0 -54 -1 -54 -66c0 -34 10 -73 27 -93c7 -9 -5 -20 -12 -11c-45 53 -93 147 -93 201c0 42 27 42 43 42c31 0 74 -11 113 -27l-129 154c-7 9 -11 18 -11 26z" fill="currentColor"/>
</g>
</a>
<g transform="translate(52.6665, 7.7066)">
<polygon stroke-linejoin="round" stroke-linecap="round" stroke-width="0.0800" fill="currentColor" stroke="currentColor" points="2.9746 0.3729 2.9746 0.7009 0.0400 0.1640 0.0400 -0.1640"/>
</g>
<a style="color:inherit;" xlink:href="textedit:///Users/tomsegarra/Documents/dev/dummies/lilypond_files/3e0c04858b3ba294581c1c8127328eb5.ly:24:4:5">
<g transform="translate(49.1591, 4.1500)">
<path transform="scale(0.0034, -0.0034)" d="M215 137c67 0 111 -37 111 -92c0 -90 -111 -182 -215 -182c-67 0 -111 37 -111 92c0 90 111 182 215 182z" fill="currentColor"/>
</g>
</a>
<a style="color:inherit;" xlink:href="textedit:///Users/tomsegarra/Documents/dev/dummies/lilypond_files/3e0c04858b3ba294581c1c8127328eb5.ly:28:47:48">
<g transform="translate(49.3714, 12.2000)">
<text font-family="serif" font-size="2.0989" text-anchor="start" fill="currentColor">
<tspan>I</tspan>
</text>
</g>
</a>
<g transform="translate(49.2208, 6.7000)">
<rect x="-0.0617" y="-2.3975" width="0.1233" height="2.8225" ry="0.0400" fill="currentColor"/>
</g>
<a style="color:inherit;" xlink:href="textedit:///Users/tomsegarra/Documents/dev/dummies/lilypond_files/3e0c04858b3ba294581c1c8127328eb5.ly:24:8:9">
<g transform="translate(52.6665, 4.5750)">
<path transform="scale(0.0034, -0.0034)" d="M215 137c67 0 111 -37 111 -92c0 -90 -111 -182 -215 -182c-67 0 -111 37 -111 92c0 90 111 182 215 182z" fill="currentColor"/>
</g>
</a>
<a style="color:inherit;" xlink:href="textedit:///Users/tomsegarra/Documents/dev/dummies/lilypond_files/3e0c04858b3ba294581c1c8127328eb5.ly:28:49:50">
<g transform="translate(51.2399, 12.2000)">
<text font-family="serif" font-size="2.0989" text-anchor="start" fill="currentColor">
<tspan>have</tspan>
</text>
</g>
</a>
<g transform="translate(52.7282, 6.7000)">
<rect x="-0.0617" y="-1.9725" width="0.1233" height="2.9901" ry="0.0400" fill="currentColor"/>
</g>
<g transform="translate(51.7249, 4.5750)">
<path transform="scale(0.0034, -0.0034)" d="M-8 375c8 5 17 7 26 7s18 -2 26 -7l-3 -187l104 21h4c10 0 18 -8 18 -18l7 -566c-8 -5 -16 -7 -25 -7s-18 2 -26 7l2 187l-103 -21h-4c-10 0 -18 8 -18 18zM130 111l-90 -18l-3 -204l90 18z" fill="currentColor"/>
</g>
<a style="color:inherit;" xlink:href="textedit:///Users/tomsegarra/Documents/dev/dummies/lilypond_files/3e0c04858b3ba294581c1c8127328eb5.ly:24:13:14">
<g transform="translate(55.5577, 5.4250)">
<path transform="scale(0.0034, -0.0034)" d="M215 137c67 0 111 -37 111 -92c0 -90 -111 -182 -215 -182c-67 0 -111 37 -111 92c0 90 111 182 215 182z" fill="currentColor"/>
</g>
</a>
<a style="color:inherit;" xlink:href="textedit:///Users/tomsegarra/Documents/dev/dummies/lilypond_files/3e0c04858b3ba294581c1c8127328eb5.ly:28:54:55">
<g transform="translate(55.6505, 12.2000)">
<text font-family="serif" font-size="2.0989" text-anchor="start" fill="currentColor">
<tspan>a</tspan>
</text>
</g>
</a>
<g transform="translate(55.6194, 6.7000)">
<rect x="-0.0617" y="-1.1225" width="0.1233" height="2.6550" ry="0.0400" fill="currentColor"/>
</g>
<a style="color:inherit;" xlink:href="textedit:///Users/tomsegarra/Documents/dev/dummies/lilypond_files/3e0c04858b3ba294581c1c8127328eb5.ly:24:16:17">
<g transform="translate(57.7490, 7.1250)">
<path transform="scale(0.0034, -0.0034)" d="M215 137c67 0 111 -37 111 -92c0 -90 -111 -182 -215 -182c-67 0 -111 37 -111 92c0 90 111 182 215 182z" fill="currentColor"/>
</g>
</a>
<a style="color:inherit;" xlink:href="textedit:///Users/tomsegarra/Documents/dev/dummies/lilypond_files/3e0c04858b3ba294581c1c8127328eb5.ly:28:56:57">
<g transform="translate(57.0224, 12.2000)">
<text font-family="serif" font-size="2.0989" text-anchor="start" fill="currentColor">
<tspan>pet</tspan>
</text>
</g>
</a>
<g transform="translate(58.7948, 6.7000)">
<rect x="-0.0617" y="-2.5500" width="0.1233" height="2.8225" ry="0.0400" fill="currentColor"/>
</g>
<g transform="translate(71.8413, 7.7066)">
<polygon stroke-linejoin="round" stroke-linecap="round" stroke-width="0.0800" fill="currentColor" stroke="currentColor" points="2.9148 1.2229 2.9148 1.5509 0.0400 0.1640 0.0400 -0.1640"/>
</g>
<a style="color:inherit;" xlink:href="textedit:///Users/tomsegarra/Documents/dev/dummies/lilypond_files/3e0c04858b3ba294581c1c8127328eb5.ly:24:20:21">
<g transform="translate(61.5109, 7.1250)">
<path transform="scale(0.0034, -0.0034)" d="M215 137c67 0 111 -37 111 -92c0 -90 -111 -182 -215 -182c-67 0 -111 37 -111 92c0 90 111 182 215 182z" fill="currentColor"/>
</g>
</a>
<a style="color:inherit;" xlink:href="textedit:///Users/tomsegarra/Documents/dev/dummies/lilypond_files/3e0c04858b3ba294581c1c8127328eb5.ly:28:60:61">
<g transform="translate(60.0331, 12.2000)">
<text font-family="serif" font-size="2.0989" text-anchor="start" fill="currentColor">
<tspan>cow:</tspan>
</text>
</g>
</a>
<g transform="translate(62.5567, 6.7000)">
<rect x="-0.0617" y="-2.5500" width="0.1233" height="2.8225" ry="0.0400" fill="currentColor"/>
</g>
<a style="color:inherit;" xlink:href="textedit:///Users/tomsegarra/Documents/dev/dummies/lilypond_files/3e0c04858b3ba294581c1c8127328eb5.ly:25:4:5">
<g transform="translate(66.2643, 6.7000)">
<path transform="scale(0.0034, -0.0034)" d="M364 0h-353c-6 0 -11 5 -11 11v134c0 6 5 11 11 11h353c6 0 11 -5 11 -11v-134c0 -6 -5 -11 -11 -11z" fill="currentColor"/>
</g>
</a>
<g transform="translate(67.9184, 6.2750)">
<path transform="scale(0.0034, -0.0034)" d="M0 0c0 31 25 56 56 56s55 -25 55 -56s-24 -56 -55 -56s-56 25 -56 56z" fill="currentColor"/>
</g>
<a style="color:inherit;" xlink:href="textedit:///Users/tomsegarra/Documents/dev/dummies/lilypond_files/3e0c04858b3ba294581c1c8127328eb5.ly:25:8:9">
<g transform="translate(71.8413, 4.1500)">
<path transform="scale(0.0034, -0.0034)" d="M215 137c67 0 111 -37 111 -92c0 -90 -111 -182 -215 -182c-67 0 -111 37 -111 92c0 90 111 182 215 182z" fill="currentColor"/>
</g>
</a>
<a style="color:inherit;" xlink:href="textedit:///Users/tomsegarra/Documents/dev/dummies/lilypond_files/3e0c04858b3ba294581c1c8127328eb5.ly:28:65:66">
<g transform="translate(70.7561, 12.2000)">
<text font-family="serif" font-size="2.0989" text-anchor="start" fill="currentColor">
<tspan>Mis</tspan>
</text>
</g>
</a>
<g transform="translate(71.9029, 6.7000)">
<rect x="-0.0617" y="-2.3975" width="0.1233" height="3.4331" ry="0.0400" fill="currentColor"/>
</g>
<a style="color:inherit;" xlink:href="textedit:///Users/tomsegarra/Documents/dev/dummies/lilypond_files/3e0c04858b3ba294581c1c8127328eb5.ly:25:12:13">
<g transform="translate(74.6727, 7.1250)">
<path transform="scale(0.0034, -0.0034)" d="M215 137c67 0 111 -37 111 -92c0 -90 -111 -182 -215 -182c-67 0 -111 37 -111 92c0 90 111 182 215 182z" fill="currentColor"/>
</g>
</a>
<a style="color:inherit;" xlink:href="textedit:///Users/tomsegarra/Documents/dev/dummies/lilypond_files/3e0c04858b3ba294581c1c8127328eb5.ly:28:72:73">
<g transform="translate(74.1339, 12.2000)">
<text font-family="serif" font-size="2.0989" text-anchor="start" fill="currentColor">
<tspan>ter</tspan>
</text>
</g>
</a>
<g transform="translate(74.7344, 6.7000)">
<rect x="-0.0617" y="0.5775" width="0.1233" height="1.7870" ry="0.0400" fill="currentColor"/>
</g>
<a style="color:inherit;" xlink:href="textedit:///Users/tomsegarra/Documents/dev/dummies/lilypond_files/3e0c04858b3ba294581c1c8127328eb5.ly:26:4:5">
<g transform="translate(78.3834, 7.1250)">
<path transform="scale(0.0034, -0.0034)" d="M215 137c67 0 111 -37 111 -92c0 -90 -111 -182 -215 -182c-67 0 -111 37 -111 92c0 90 111 182 215 182z" fill="currentColor"/>
</g>
</a>
<a style="color:inherit;" xlink:href="textedit:///Users/tomsegarra/Documents/dev/dummies/lilypond_files/3e0c04858b3ba294581c1c8127328eb5.ly:28:76:77">
<g transform="translate(76.7690, 12.2000)">
<text font-family="serif" font-size="2.0989" text-anchor="start" fill="currentColor">
<tspan>Cow.</tspan>
</text>
</g>
</a>
<g transform="translate(79.4292, 6.7000)">
<rect x="-0.0617" y="-2.5500" width="0.1233" height="2.8225" ry="0.0400" fill="currentColor"/>
</g>
</svg>
