<?xml version="1.0" encoding="UTF-8" standalone="no"?>
<svg
   version="1.2"
   width="139.90373mm"
   height="16.477451mm"
   viewBox="0 0 79.614703 9.3765797"
   id="svg416"
   sodipodi:docname="3e0c04858b3ba294581c1c8127328eb5.svg"
   xmlns:inkscape="http://www.inkscape.org/namespaces/inkscape"
   xmlns:sodipodi="http://sodipodi.sourceforge.net/DTD/sodipodi-0.dtd"
   xmlns:xlink="http://www.w3.org/1999/xlink"
   xmlns="http://www.w3.org/2000/svg"
   xmlns:svg="http://www.w3.org/2000/svg">
  <defs
     id="defs420" />
  <sodipodi:namedview
     id="namedview418"
     pagecolor="#ffffff"
     bordercolor="#000000"
     borderopacity="0.25"
     inkscape:showpageshadow="2"
     inkscape:pageopacity="0.0"
     inkscape:pagecheckerboard="0"
     inkscape:deskcolor="#d1d1d1"
     inkscape:document-units="mm" />
  <style
     type="text/css"
     id="style2"><![CDATA[
tspan { white-space: pre; }
]]></style>
  <!-- Page: 1/1 -->
  <g
     transform="translate(4.9997121e-5,0.8719447)"
     id="g6">
    <rect
       x="69.2882"
       y="-0.089900002"
       width="1.6611"
       height="0.17990001"
       ry="0.089900002"
       fill="currentColor"
       id="rect4" />
  </g>
  <g
     transform="translate(4.9997121e-5,0.8719447)"
     id="g10">
    <rect
       x="46.605999"
       y="-0.089900002"
       width="1.6611"
       height="0.17990001"
       ry="0.089900002"
       fill="currentColor"
       id="rect8" />
  </g>
  <g
     transform="translate(4.9997121e-5,0.8719447)"
     id="g14">
    <rect
       x="29.186199"
       y="-0.089900002"
       width="1.6611"
       height="0.17990001"
       ry="0.089900002"
       fill="currentColor"
       id="rect12" />
  </g>
  <g
     transform="translate(4.9997121e-5,0.8719447)"
     id="g18">
    <rect
       x="11.4163"
       y="-0.089900002"
       width="1.6611"
       height="0.17990001"
       ry="0.089900002"
       fill="currentColor"
       id="rect16" />
  </g>
  <g
     transform="translate(4.9997121e-5,5.1219447)"
     id="g22">
    <line
       stroke-linejoin="round"
       stroke-linecap="round"
       stroke-width="0.0949"
       stroke="currentColor"
       x1="0.047400001"
       y1="0"
       x2="79.5672"
       y2="0"
       id="line20" />
  </g>
  <g
     transform="translate(4.9997121e-5,4.2719447)"
     id="g26">
    <line
       stroke-linejoin="round"
       stroke-linecap="round"
       stroke-width="0.0949"
       stroke="currentColor"
       x1="0.047400001"
       y1="0"
       x2="79.5672"
       y2="0"
       id="line24" />
  </g>
  <g
     transform="translate(4.9997121e-5,3.4219447)"
     id="g30">
    <line
       stroke-linejoin="round"
       stroke-linecap="round"
       stroke-width="0.0949"
       stroke="currentColor"
       x1="0.047400001"
       y1="0"
       x2="79.5672"
       y2="0"
       id="line28" />
  </g>
  <g
     transform="translate(4.9997121e-5,2.5719447)"
     id="g34">
    <line
       stroke-linejoin="round"
       stroke-linecap="round"
       stroke-width="0.0949"
       stroke="currentColor"
       x1="0.047400001"
       y1="0"
       x2="79.5672"
       y2="0"
       id="line32" />
  </g>
  <g
     transform="translate(4.9997121e-5,1.7219447)"
     id="g38">
    <line
       stroke-linejoin="round"
       stroke-linecap="round"
       stroke-width="0.0949"
       stroke="currentColor"
       x1="0.047400001"
       y1="0"
       x2="79.5672"
       y2="0"
       id="line36" />
  </g>
  <g
     transform="translate(74.91325,3.4219447)"
     id="g42">
    <rect
       x="0"
       y="-1.7"
       width="0.1802"
       height="3.4000001"
       ry="0.0000"
       fill="currentColor"
       id="rect40" />
  </g>
  <g
     transform="translate(62.90795,3.4219447)"
     id="g46">
    <rect
       x="0"
       y="-1.7"
       width="0.1802"
       height="3.4000001"
       ry="0.0000"
       fill="currentColor"
       id="rect44" />
  </g>
  <g
     transform="translate(45.66415,3.4219447)"
     id="g50">
    <rect
       x="0"
       y="-1.7"
       width="0.1802"
       height="3.4000001"
       ry="0.0000"
       fill="currentColor"
       id="rect48" />
  </g>
  <g
     transform="translate(28.24435,3.4219447)"
     id="g54">
    <rect
       x="0"
       y="-1.7"
       width="0.1802"
       height="3.4000001"
       ry="0.0000"
       fill="currentColor"
       id="rect52" />
  </g>
  <g
     transform="translate(0.80005,4.2719447)"
     id="g58">
    <path
       transform="scale(0.0034,-0.0034)"
       d="m 646,2 c 0,-113 -74,-213 -180,-247 3,-34 5,-68 5,-102 0,-20 -1,-40 -2,-60 -7,-121 -91,-228 -209,-228 -108,0 -196,87 -196,196 0,58 53,104 112,104 54,0 95,-48 95,-104 0,-52 -43,-95 -95,-95 -10,0 -20,2 -29,6 26,-38 68,-63 116,-63 h 3 c 93,2 153,92 159,190 1,19 2,37 2,56 0,30 -2,60 -4,90 -5,-1 -43,-8 -88,-8 -194,0 -333,180 -333,375 0,177 130,307 246,442 -31,98 -53,170 -53,347 0,115 55,223 148,290 7,5 16,4 22,-1 68,-80 134,-243 134,-357 0,-143 -85,-255 -178,-364 21,-68 40,-137 57,-206 1,0 5,1 11,1 C 545,264 646,135 646,2 Z M 462,-202 c 66,24 111,88 111,162 0,89 -65,178 -170,190 28,-135 50,-272 59,-352 z M 75,26 c 0,-145 141,-245 263,-245 1,0 46,0 81,6 -7,65 -27,206 -61,363 -79,-8 -124,-61 -124,-119 0,-43 25,-89 80,-121 5,-5 7,-11 7,-16 0,-12 -10,-23 -22,-23 -16,0 -127,63 -127,188 0,89 58,175 161,198 -14,58 -29,116 -46,173 C 181,308 75,186 75,26 Z M 406,1042 C 307,995 244,894 244,785 c 0,-49 13,-111 38,-191 79,97 144,199 144,324 0,33 0,63 -20,124 z"
       fill="currentColor"
       id="path56" />
  </g>
  <a
     style="color:inherit"
     xlink:href="textedit:///Users/tomsegarra/Documents/dev/dummies/lilypond_files/3e0c04858b3ba294581c1c8127328eb5.ly:21:1:9"
     id="a72"
     transform="translate(-2.27615,-3.2780553)">
    <g
       transform="translate(6.5762,5)"
       id="g62">
      <path
         transform="scale(0.0034,-0.0034)"
         d="m 217,-311 c 0,-11 -8,-19 -19,-19 -11,0 -20,8 -20,19 v 142 l -81,-30 v -156 c 0,-11 -9,-20 -20,-20 -11,0 -19,9 -19,20 v 142 l -28,-11 c -3,-1 -5,-1 -8,-1 -12,0 -22,10 -22,23 v 57 c 0,9 6,18 15,21 l 43,16 V 49 L 30,39 C 27,38 25,38 22,38 10,38 0,47 0,60 v 57 c 0,9 6,18 15,21 l 43,16 v 157 c 0,11 8,19 19,19 11,0 20,-8 20,-19 V 169 l 81,30 v 156 c 0,11 9,20 20,20 11,0 19,-9 19,-20 V 213 l 28,11 c 3,1 5,1 8,1 12,0 22,-10 22,-23 v -57 c 0,-9 -6,-18 -15,-21 L 217,108 V -49 l 28,10 c 3,1 5,1 8,1 12,0 22,-9 22,-22 v -57 c 0,-9 -6,-18 -15,-21 l -43,-16 z M 97,64 V -94 l 81,30 V 94 Z"
         fill="currentColor"
         id="path60" />
    </g>
    <g
       transform="translate(7.5112,6.275)"
       id="g66">
      <path
         transform="scale(0.0034,-0.0034)"
         d="m 217,-311 c 0,-11 -8,-19 -19,-19 -11,0 -20,8 -20,19 v 142 l -81,-30 v -156 c 0,-11 -9,-20 -20,-20 -11,0 -19,9 -19,20 v 142 l -28,-11 c -3,-1 -5,-1 -8,-1 -12,0 -22,10 -22,23 v 57 c 0,9 6,18 15,21 l 43,16 V 49 L 30,39 C 27,38 25,38 22,38 10,38 0,47 0,60 v 57 c 0,9 6,18 15,21 l 43,16 v 157 c 0,11 8,19 19,19 11,0 20,-8 20,-19 V 169 l 81,30 v 156 c 0,11 9,20 20,20 11,0 19,-9 19,-20 V 213 l 28,11 c 3,1 5,1 8,1 12,0 22,-10 22,-23 v -57 c 0,-9 -6,-18 -15,-21 L 217,108 V -49 l 28,10 c 3,1 5,1 8,1 12,0 22,-9 22,-22 v -57 c 0,-9 -6,-18 -15,-21 l -43,-16 z M 97,64 V -94 l 81,30 V 94 Z"
         fill="currentColor"
         id="path64" />
    </g>
    <g
       transform="translate(8.4462,4.575)"
       id="g70">
      <path
         transform="scale(0.0034,-0.0034)"
         d="m 217,-311 c 0,-11 -8,-19 -19,-19 -11,0 -20,8 -20,19 v 142 l -81,-30 v -156 c 0,-11 -9,-20 -20,-20 -11,0 -19,9 -19,20 v 142 l -28,-11 c -3,-1 -5,-1 -8,-1 -12,0 -22,10 -22,23 v 57 c 0,9 6,18 15,21 l 43,16 V 49 L 30,39 C 27,38 25,38 22,38 10,38 0,47 0,60 v 57 c 0,9 6,18 15,21 l 43,16 v 157 c 0,11 8,19 19,19 11,0 20,-8 20,-19 V 169 l 81,30 v 156 c 0,11 9,20 20,20 11,0 19,-9 19,-20 V 213 l 28,11 c 3,1 5,1 8,1 12,0 22,-10 22,-23 v -57 c 0,-9 -6,-18 -15,-21 L 217,108 V -49 l 28,10 c 3,1 5,1 8,1 12,0 22,-9 22,-22 v -57 c 0,-9 -6,-18 -15,-21 l -43,-16 z M 97,64 V -94 l 81,30 V 94 Z"
         fill="currentColor"
         id="path68" />
    </g>
  </a>
  <g
     transform="translate(15.20065,4.4285447)"
     id="g76">
    <polygon
       stroke-linejoin="round"
       stroke-linecap="round"
       stroke-width="0.08"
       fill="currentColor"
       stroke="currentColor"
       points="0.04,0.164 0.04,-0.164 2.9746,0.3729 2.9746,0.7009 "
       id="polygon74" />
  </g>
  <g
     transform="translate(8.25505,3.4219447)"
     id="g80">
    <path
       transform="scale(0.0034,-0.0034)"
       d="m 358,29 c -30,0 -74,23 -74,73 0,38 27,76 71,76 4,0 7,0 11,-1 -27,36 -69,59 -116,59 -106,0 -113,-74 -113,-188 0,-15 1,-31 1,-48 0,-17 -1,-33 -1,-48 0,-114 7,-188 113,-188 79,0 136,70 155,150 2,7 7,10 13,10 7,0 14,-5 14,-13 0,-21 -50,-175 -182,-175 C 191,-264 0,-244 0,0 0,63 18,264 250,264 365,264 424,155 424,99 424,60 394,29 358,29 Z"
       fill="currentColor"
       id="path78" />
  </g>
  <a
     style="color:inherit"
     xlink:href="textedit:///Users/tomsegarra/Documents/dev/dummies/lilypond_files/3e0c04858b3ba294581c1c8127328eb5.ly:22:9:10"
     id="a86"
     transform="translate(-2.27615,-3.2780553)">
    <g
       transform="translate(17.4768,4.575)"
       id="g84">
      <path
         transform="scale(0.0034,-0.0034)"
         d="m 215,137 c 67,0 111,-37 111,-92 0,-90 -111,-182 -215,-182 -67,0 -111,37 -111,92 0,90 111,182 215,182 z"
         fill="currentColor"
         id="path82" />
    </g>
  </a>
  <a
     style="color:inherit"
     xlink:href="textedit:///Users/tomsegarra/Documents/dev/dummies/lilypond_files/3e0c04858b3ba294581c1c8127328eb5.ly:28:17:18"
     id="a94"
     transform="translate(-2.27615,-3.2780553)">
    <g
       transform="translate(16.0502,12.2)"
       id="g92">
      <text
         font-family="serif"
         font-size="2.0989px"
         text-anchor="start"
         fill="currentColor"
         id="text90"><tspan
           id="tspan88">have</tspan></text>
    </g>
  </a>
  <g
     transform="translate(15.26225,3.4219447)"
     id="g98">
    <rect
       x="-0.061700001"
       y="-1.9725"
       width="0.1233"
       height="2.9900999"
       ry="0.039999999"
       fill="currentColor"
       id="rect96" />
  </g>
  <g
     transform="translate(14.25905,1.2969447)"
     id="g102">
    <path
       transform="scale(0.0034,-0.0034)"
       d="m -8,375 c 8,5 17,7 26,7 9,0 18,-2 26,-7 l -3,-187 104,21 h 4 c 10,0 18,-8 18,-18 l 7,-566 c -8,-5 -16,-7 -25,-7 -9,0 -18,2 -26,7 l 2,187 -103,-21 h -4 c -10,0 -18,8 -18,18 z M 130,111 40,93 l -3,-204 90,18 z"
       fill="currentColor"
       id="path100" />
  </g>
  <a
     style="color:inherit"
     xlink:href="textedit:///Users/tomsegarra/Documents/dev/dummies/lilypond_files/3e0c04858b3ba294581c1c8127328eb5.ly:22:4:5"
     id="a108"
     transform="translate(-2.27615,-3.2780553)">
    <g
       transform="translate(13.9694,4.15)"
       id="g106">
      <path
         transform="scale(0.0034,-0.0034)"
         d="m 215,137 c 67,0 111,-37 111,-92 0,-90 -111,-182 -215,-182 -67,0 -111,37 -111,92 0,90 111,182 215,182 z"
         fill="currentColor"
         id="path104" />
    </g>
  </a>
  <a
     style="color:inherit"
     xlink:href="textedit:///Users/tomsegarra/Documents/dev/dummies/lilypond_files/3e0c04858b3ba294581c1c8127328eb5.ly:22:14:15"
     id="a114"
     transform="translate(-2.27615,-3.2780553)">
    <g
       transform="translate(20.368,5.425)"
       id="g112">
      <path
         transform="scale(0.0034,-0.0034)"
         d="m 215,137 c 67,0 111,-37 111,-92 0,-90 -111,-182 -215,-182 -67,0 -111,37 -111,92 0,90 111,182 215,182 z"
         fill="currentColor"
         id="path110" />
    </g>
  </a>
  <a
     style="color:inherit"
     xlink:href="textedit:///Users/tomsegarra/Documents/dev/dummies/lilypond_files/3e0c04858b3ba294581c1c8127328eb5.ly:28:22:23"
     id="a122"
     transform="translate(-2.27615,-3.2780553)">
    <g
       transform="translate(20.4608,12.2)"
       id="g120">
      <text
         font-family="serif"
         font-size="2.0989px"
         text-anchor="start"
         fill="currentColor"
         id="text118"><tspan
           id="tspan116">a</tspan></text>
    </g>
  </a>
  <g
     transform="translate(18.15355,3.4219447)"
     id="g126">
    <rect
       x="-0.061700001"
       y="-1.1224999"
       width="0.1233"
       height="2.655"
       ry="0.039999999"
       fill="currentColor"
       id="rect124" />
  </g>
  <a
     style="color:inherit"
     xlink:href="textedit:///Users/tomsegarra/Documents/dev/dummies/lilypond_files/3e0c04858b3ba294581c1c8127328eb5.ly:22:17:18"
     id="a132"
     transform="translate(-2.27615,-3.2780553)">
    <g
       transform="translate(23.8056,7.125)"
       id="g130">
      <path
         transform="scale(0.0034,-0.0034)"
         d="m 215,137 c 67,0 111,-37 111,-92 0,-90 -111,-182 -215,-182 -67,0 -111,37 -111,92 0,90 111,182 215,182 z"
         fill="currentColor"
         id="path128" />
    </g>
  </a>
  <a
     style="color:inherit"
     xlink:href="textedit:///Users/tomsegarra/Documents/dev/dummies/lilypond_files/3e0c04858b3ba294581c1c8127328eb5.ly:28:24:25"
     id="a140"
     transform="translate(-2.27615,-3.2780553)">
    <g
       transform="translate(21.8327,12.2)"
       id="g138">
      <text
         font-family="serif"
         font-size="2.0989px"
         text-anchor="start"
         fill="currentColor"
         id="text136"><tspan
           id="tspan134">name.</tspan></text>
    </g>
  </a>
  <g
     transform="translate(22.57515,3.4219447)"
     id="g144">
    <rect
       x="-0.061700001"
       y="-2.55"
       width="0.1233"
       height="2.8225"
       ry="0.039999999"
       fill="currentColor"
       id="rect142" />
  </g>
  <a
     style="color:inherit"
     xlink:href="textedit:///Users/tomsegarra/Documents/dev/dummies/lilypond_files/3e0c04858b3ba294581c1c8127328eb5.ly:22:21:22"
     id="a150"
     transform="translate(-2.27615,-3.2780553)">
    <g
       transform="translate(27.313,6.7)"
       id="g148">
      <path
         transform="scale(0.0034,-0.0034)"
         d="m -8,78 c 0,59 125,83 125,182 0,25 -9,49 -26,69 l -33,40 c -3,4 -4,7 -4,11 0,9 9,17 18,17 4,0 8,-2 12,-6 L 234,212 c 7,-9 11,-18 11,-26 0,-59 -125,-83 -125,-182 0,-25 8,-49 25,-69 l 82,-97 c 3,-4 4,-7 4,-11 0,-9 -8,-17 -17,-17 -10,0 -42,42 -106,42 -19,0 -54,-1 -54,-66 0,-34 10,-73 27,-93 7,-9 -5,-20 -12,-11 -45,53 -93,147 -93,201 0,42 27,42 43,42 31,0 74,-11 113,-27 L 3,52 C -4,61 -8,70 -8,78 Z"
         fill="currentColor"
         id="path146" />
    </g>
  </a>
  <g
     transform="translate(32.97045,4.4285447)"
     id="g154">
    <polygon
       stroke-linejoin="round"
       stroke-linecap="round"
       stroke-width="0.08"
       fill="currentColor"
       stroke="currentColor"
       points="0.04,0.164 0.04,-0.164 2.9746,0.3729 2.9746,0.7009 "
       id="polygon152" />
  </g>
  <a
     style="color:inherit"
     xlink:href="textedit:///Users/tomsegarra/Documents/dev/dummies/lilypond_files/3e0c04858b3ba294581c1c8127328eb5.ly:23:4:5"
     id="a160"
     transform="translate(-2.27615,-3.2780553)">
    <g
       transform="translate(31.7393,4.15)"
       id="g158">
      <path
         transform="scale(0.0034,-0.0034)"
         d="m 215,137 c 67,0 111,-37 111,-92 0,-90 -111,-182 -215,-182 -67,0 -111,37 -111,92 0,90 111,182 215,182 z"
         fill="currentColor"
         id="path156" />
    </g>
  </a>
  <a
     style="color:inherit"
     xlink:href="textedit:///Users/tomsegarra/Documents/dev/dummies/lilypond_files/3e0c04858b3ba294581c1c8127328eb5.ly:28:30:31"
     id="a168"
     transform="translate(-2.27615,-3.2780553)">
    <g
       transform="translate(31.6613,12.2)"
       id="g166">
      <text
         font-family="serif"
         font-size="2.0989px"
         text-anchor="start"
         fill="currentColor"
         id="text164"><tspan
           id="tspan162">It</tspan></text>
    </g>
  </a>
  <g
     transform="translate(29.52475,3.4219447)"
     id="g172">
    <rect
       x="-0.061700001"
       y="-2.3975"
       width="0.1233"
       height="2.8225"
       ry="0.039999999"
       fill="currentColor"
       id="rect170" />
  </g>
  <a
     style="color:inherit"
     xlink:href="textedit:///Users/tomsegarra/Documents/dev/dummies/lilypond_files/3e0c04858b3ba294581c1c8127328eb5.ly:23:8:9"
     id="a178"
     transform="translate(-2.27615,-3.2780553)">
    <g
       transform="translate(35.2466,4.575)"
       id="g176">
      <path
         transform="scale(0.0034,-0.0034)"
         d="m 215,137 c 67,0 111,-37 111,-92 0,-90 -111,-182 -215,-182 -67,0 -111,37 -111,92 0,90 111,182 215,182 z"
         fill="currentColor"
         id="path174" />
    </g>
  </a>
  <a
     style="color:inherit"
     xlink:href="textedit:///Users/tomsegarra/Documents/dev/dummies/lilypond_files/3e0c04858b3ba294581c1c8127328eb5.ly:28:33:34"
     id="a186"
     transform="translate(-2.27615,-3.2780553)">
    <g
       transform="translate(35.1004,12.2)"
       id="g184">
      <text
         font-family="serif"
         font-size="2.0989px"
         text-anchor="start"
         fill="currentColor"
         id="text182"><tspan
           id="tspan180">is</tspan></text>
    </g>
  </a>
  <g
     transform="translate(33.03215,3.4219447)"
     id="g190">
    <rect
       x="-0.061700001"
       y="-1.9725"
       width="0.1233"
       height="2.9900999"
       ry="0.039999999"
       fill="currentColor"
       id="rect188" />
  </g>
  <g
     transform="translate(32.02885,1.2969447)"
     id="g194">
    <path
       transform="scale(0.0034,-0.0034)"
       d="m -8,375 c 8,5 17,7 26,7 9,0 18,-2 26,-7 l -3,-187 104,21 h 4 c 10,0 18,-8 18,-18 l 7,-566 c -8,-5 -16,-7 -25,-7 -9,0 -18,2 -26,7 l 2,187 -103,-21 h -4 c -10,0 -18,8 -18,18 z M 130,111 40,93 l -3,-204 90,18 z"
       fill="currentColor"
       id="path192" />
  </g>
  <a
     style="color:inherit"
     xlink:href="textedit:///Users/tomsegarra/Documents/dev/dummies/lilypond_files/3e0c04858b3ba294581c1c8127328eb5.ly:28:15:16"
     id="a202"
     transform="translate(-2.27615,-3.2780553)">
    <g
       transform="translate(14.1817,12.2)"
       id="g200">
      <text
         font-family="serif"
         font-size="2.0989px"
         text-anchor="start"
         fill="currentColor"
         id="text198"><tspan
           id="tspan196">I</tspan></text>
    </g>
  </a>
  <a
     style="color:inherit"
     xlink:href="textedit:///Users/tomsegarra/Documents/dev/dummies/lilypond_files/3e0c04858b3ba294581c1c8127328eb5.ly:23:13:14"
     id="a208"
     transform="translate(-2.27615,-3.2780553)">
    <g
       transform="translate(38.1379,5.425)"
       id="g206">
      <path
         transform="scale(0.0034,-0.0034)"
         d="m 215,137 c 67,0 111,-37 111,-92 0,-90 -111,-182 -215,-182 -67,0 -111,37 -111,92 0,90 111,182 215,182 z"
         fill="currentColor"
         id="path204" />
    </g>
  </a>
  <a
     style="color:inherit"
     xlink:href="textedit:///Users/tomsegarra/Documents/dev/dummies/lilypond_files/3e0c04858b3ba294581c1c8127328eb5.ly:28:36:37"
     id="a216"
     transform="translate(-2.27615,-3.2780553)">
    <g
       transform="translate(36.9503,12.2)"
       id="g214">
      <text
         font-family="serif"
         font-size="2.0989px"
         text-anchor="start"
         fill="currentColor"
         id="text212"><tspan
           id="tspan210">Dan</tspan></text>
    </g>
  </a>
  <g
     transform="translate(35.92335,3.4219447)"
     id="g220">
    <rect
       x="-0.061700001"
       y="-1.1224999"
       width="0.1233"
       height="2.655"
       ry="0.039999999"
       fill="currentColor"
       id="rect218" />
  </g>
  <g
     transform="translate(11.75495,3.4219447)"
     id="g224">
    <rect
       x="-0.061700001"
       y="-2.3975"
       width="0.1233"
       height="2.8225"
       ry="0.039999999"
       fill="currentColor"
       id="rect222" />
  </g>
  <a
     style="color:inherit"
     xlink:href="textedit:///Users/tomsegarra/Documents/dev/dummies/lilypond_files/3e0c04858b3ba294581c1c8127328eb5.ly:23:16:17"
     id="a230"
     transform="translate(-2.27615,-3.2780553)">
    <g
       transform="translate(41.2254,7.125)"
       id="g228">
      <path
         transform="scale(0.0034,-0.0034)"
         d="m 215,137 c 67,0 111,-37 111,-92 0,-90 -111,-182 -215,-182 -67,0 -111,37 -111,92 0,90 111,182 215,182 z"
         fill="currentColor"
         id="path226" />
    </g>
  </a>
  <a
     style="color:inherit"
     xlink:href="textedit:///Users/tomsegarra/Documents/dev/dummies/lilypond_files/3e0c04858b3ba294581c1c8127328eb5.ly:28:43:44"
     id="a238"
     transform="translate(-2.27615,-3.2780553)">
    <g
       transform="translate(40.5329,12.2)"
       id="g236">
      <text
         font-family="serif"
         font-size="2.0989px"
         text-anchor="start"
         fill="currentColor"
         id="text234"><tspan
           id="tspan232">ny.</tspan></text>
    </g>
  </a>
  <g
     transform="translate(39.99505,3.4219447)"
     id="g242">
    <rect
       x="-0.061700001"
       y="-2.55"
       width="0.1233"
       height="2.8225"
       ry="0.039999999"
       fill="currentColor"
       id="rect240" />
  </g>
  <a
     style="color:inherit"
     xlink:href="textedit:///Users/tomsegarra/Documents/dev/dummies/lilypond_files/3e0c04858b3ba294581c1c8127328eb5.ly:23:20:21"
     id="a248"
     transform="translate(-2.27615,-3.2780553)">
    <g
       transform="translate(44.7328,6.7)"
       id="g246">
      <path
         transform="scale(0.0034,-0.0034)"
         d="m -8,78 c 0,59 125,83 125,182 0,25 -9,49 -26,69 l -33,40 c -3,4 -4,7 -4,11 0,9 9,17 18,17 4,0 8,-2 12,-6 L 234,212 c 7,-9 11,-18 11,-26 0,-59 -125,-83 -125,-182 0,-25 8,-49 25,-69 l 82,-97 c 3,-4 4,-7 4,-11 0,-9 -8,-17 -17,-17 -10,0 -42,42 -106,42 -19,0 -54,-1 -54,-66 0,-34 10,-73 27,-93 7,-9 -5,-20 -12,-11 -45,53 -93,147 -93,201 0,42 27,42 43,42 31,0 74,-11 113,-27 L 3,52 C -4,61 -8,70 -8,78 Z"
         fill="currentColor"
         id="path244" />
    </g>
  </a>
  <g
     transform="translate(50.39035,4.4285447)"
     id="g252">
    <polygon
       stroke-linejoin="round"
       stroke-linecap="round"
       stroke-width="0.08"
       fill="currentColor"
       stroke="currentColor"
       points="0.04,0.164 0.04,-0.164 2.9746,0.3729 2.9746,0.7009 "
       id="polygon250" />
  </g>
  <a
     style="color:inherit"
     xlink:href="textedit:///Users/tomsegarra/Documents/dev/dummies/lilypond_files/3e0c04858b3ba294581c1c8127328eb5.ly:24:4:5"
     id="a258"
     transform="translate(-2.27615,-3.2780553)">
    <g
       transform="translate(49.1591,4.15)"
       id="g256">
      <path
         transform="scale(0.0034,-0.0034)"
         d="m 215,137 c 67,0 111,-37 111,-92 0,-90 -111,-182 -215,-182 -67,0 -111,37 -111,92 0,90 111,182 215,182 z"
         fill="currentColor"
         id="path254" />
    </g>
  </a>
  <a
     style="color:inherit"
     xlink:href="textedit:///Users/tomsegarra/Documents/dev/dummies/lilypond_files/3e0c04858b3ba294581c1c8127328eb5.ly:28:47:48"
     id="a266"
     transform="translate(-2.27615,-3.2780553)">
    <g
       transform="translate(49.3714,12.2)"
       id="g264">
      <text
         font-family="serif"
         font-size="2.0989px"
         text-anchor="start"
         fill="currentColor"
         id="text262"><tspan
           id="tspan260">I</tspan></text>
    </g>
  </a>
  <g
     transform="translate(46.94465,3.4219447)"
     id="g270">
    <rect
       x="-0.061700001"
       y="-2.3975"
       width="0.1233"
       height="2.8225"
       ry="0.039999999"
       fill="currentColor"
       id="rect268" />
  </g>
  <a
     style="color:inherit"
     xlink:href="textedit:///Users/tomsegarra/Documents/dev/dummies/lilypond_files/3e0c04858b3ba294581c1c8127328eb5.ly:24:8:9"
     id="a276"
     transform="translate(-2.27615,-3.2780553)">
    <g
       transform="translate(52.6665,4.575)"
       id="g274">
      <path
         transform="scale(0.0034,-0.0034)"
         d="m 215,137 c 67,0 111,-37 111,-92 0,-90 -111,-182 -215,-182 -67,0 -111,37 -111,92 0,90 111,182 215,182 z"
         fill="currentColor"
         id="path272" />
    </g>
  </a>
  <a
     style="color:inherit"
     xlink:href="textedit:///Users/tomsegarra/Documents/dev/dummies/lilypond_files/3e0c04858b3ba294581c1c8127328eb5.ly:28:49:50"
     id="a284"
     transform="translate(-2.27615,-3.2780553)">
    <g
       transform="translate(51.2399,12.2)"
       id="g282">
      <text
         font-family="serif"
         font-size="2.0989px"
         text-anchor="start"
         fill="currentColor"
         id="text280"><tspan
           id="tspan278">have</tspan></text>
    </g>
  </a>
  <g
     transform="translate(50.45205,3.4219447)"
     id="g288">
    <rect
       x="-0.061700001"
       y="-1.9725"
       width="0.1233"
       height="2.9900999"
       ry="0.039999999"
       fill="currentColor"
       id="rect286" />
  </g>
  <g
     transform="translate(49.44875,1.2969447)"
     id="g292">
    <path
       transform="scale(0.0034,-0.0034)"
       d="m -8,375 c 8,5 17,7 26,7 9,0 18,-2 26,-7 l -3,-187 104,21 h 4 c 10,0 18,-8 18,-18 l 7,-566 c -8,-5 -16,-7 -25,-7 -9,0 -18,2 -26,7 l 2,187 -103,-21 h -4 c -10,0 -18,8 -18,18 z M 130,111 40,93 l -3,-204 90,18 z"
       fill="currentColor"
       id="path290" />
  </g>
  <a
     style="color:inherit"
     xlink:href="textedit:///Users/tomsegarra/Documents/dev/dummies/lilypond_files/3e0c04858b3ba294581c1c8127328eb5.ly:24:13:14"
     id="a298"
     transform="translate(-2.27615,-3.2780553)">
    <g
       transform="translate(55.5577,5.425)"
       id="g296">
      <path
         transform="scale(0.0034,-0.0034)"
         d="m 215,137 c 67,0 111,-37 111,-92 0,-90 -111,-182 -215,-182 -67,0 -111,37 -111,92 0,90 111,182 215,182 z"
         fill="currentColor"
         id="path294" />
    </g>
  </a>
  <a
     style="color:inherit"
     xlink:href="textedit:///Users/tomsegarra/Documents/dev/dummies/lilypond_files/3e0c04858b3ba294581c1c8127328eb5.ly:28:54:55"
     id="a306"
     transform="translate(-2.27615,-3.2780553)">
    <g
       transform="translate(55.6505,12.2)"
       id="g304">
      <text
         font-family="serif"
         font-size="2.0989px"
         text-anchor="start"
         fill="currentColor"
         id="text302"><tspan
           id="tspan300">a</tspan></text>
    </g>
  </a>
  <g
     transform="translate(53.34325,3.4219447)"
     id="g310">
    <rect
       x="-0.061700001"
       y="-1.1224999"
       width="0.1233"
       height="2.655"
       ry="0.039999999"
       fill="currentColor"
       id="rect308" />
  </g>
  <a
     style="color:inherit"
     xlink:href="textedit:///Users/tomsegarra/Documents/dev/dummies/lilypond_files/3e0c04858b3ba294581c1c8127328eb5.ly:24:16:17"
     id="a316"
     transform="translate(-2.27615,-3.2780553)">
    <g
       transform="translate(57.749,7.125)"
       id="g314">
      <path
         transform="scale(0.0034,-0.0034)"
         d="m 215,137 c 67,0 111,-37 111,-92 0,-90 -111,-182 -215,-182 -67,0 -111,37 -111,92 0,90 111,182 215,182 z"
         fill="currentColor"
         id="path312" />
    </g>
  </a>
  <a
     style="color:inherit"
     xlink:href="textedit:///Users/tomsegarra/Documents/dev/dummies/lilypond_files/3e0c04858b3ba294581c1c8127328eb5.ly:28:56:57"
     id="a324"
     transform="translate(-2.27615,-3.2780553)">
    <g
       transform="translate(57.0224,12.2)"
       id="g322">
      <text
         font-family="serif"
         font-size="2.0989px"
         text-anchor="start"
         fill="currentColor"
         id="text320"><tspan
           id="tspan318">pet</tspan></text>
    </g>
  </a>
  <g
     transform="translate(56.51865,3.4219447)"
     id="g328">
    <rect
       x="-0.061700001"
       y="-2.55"
       width="0.1233"
       height="2.8225"
       ry="0.039999999"
       fill="currentColor"
       id="rect326" />
  </g>
  <g
     transform="translate(69.56515,4.4285447)"
     id="g332">
    <polygon
       stroke-linejoin="round"
       stroke-linecap="round"
       stroke-width="0.08"
       fill="currentColor"
       stroke="currentColor"
       points="0.04,0.164 0.04,-0.164 2.9148,1.2229 2.9148,1.5509 "
       id="polygon330" />
  </g>
  <a
     style="color:inherit"
     xlink:href="textedit:///Users/tomsegarra/Documents/dev/dummies/lilypond_files/3e0c04858b3ba294581c1c8127328eb5.ly:24:20:21"
     id="a338"
     transform="translate(-2.27615,-3.2780553)">
    <g
       transform="translate(61.5109,7.125)"
       id="g336">
      <path
         transform="scale(0.0034,-0.0034)"
         d="m 215,137 c 67,0 111,-37 111,-92 0,-90 -111,-182 -215,-182 -67,0 -111,37 -111,92 0,90 111,182 215,182 z"
         fill="currentColor"
         id="path334" />
    </g>
  </a>
  <a
     style="color:inherit"
     xlink:href="textedit:///Users/tomsegarra/Documents/dev/dummies/lilypond_files/3e0c04858b3ba294581c1c8127328eb5.ly:28:60:61"
     id="a346"
     transform="translate(-2.27615,-3.2780553)">
    <g
       transform="translate(60.0331,12.2)"
       id="g344">
      <text
         font-family="serif"
         font-size="2.0989px"
         text-anchor="start"
         fill="currentColor"
         id="text342"><tspan
           id="tspan340">cow:</tspan></text>
    </g>
  </a>
  <g
     transform="translate(60.28055,3.4219447)"
     id="g350">
    <rect
       x="-0.061700001"
       y="-2.55"
       width="0.1233"
       height="2.8225"
       ry="0.039999999"
       fill="currentColor"
       id="rect348" />
  </g>
  <a
     style="color:inherit"
     xlink:href="textedit:///Users/tomsegarra/Documents/dev/dummies/lilypond_files/3e0c04858b3ba294581c1c8127328eb5.ly:25:4:5"
     id="a356"
     transform="translate(-2.27615,-3.2780553)">
    <g
       transform="translate(66.2643,6.7)"
       id="g354">
      <path
         transform="scale(0.0034,-0.0034)"
         d="M 364,0 H 11 C 5,0 0,5 0,11 v 134 c 0,6 5,11 11,11 h 353 c 6,0 11,-5 11,-11 V 11 C 375,5 370,0 364,0 Z"
         fill="currentColor"
         id="path352" />
    </g>
  </a>
  <g
     transform="translate(65.64225,2.9969447)"
     id="g360">
    <path
       transform="scale(0.0034,-0.0034)"
       d="M 0,0 C 0,31 25,56 56,56 87,56 111,31 111,0 111,-31 87,-56 56,-56 25,-56 0,-31 0,0 Z"
       fill="currentColor"
       id="path358" />
  </g>
  <a
     style="color:inherit"
     xlink:href="textedit:///Users/tomsegarra/Documents/dev/dummies/lilypond_files/3e0c04858b3ba294581c1c8127328eb5.ly:25:8:9"
     id="a366"
     transform="translate(-2.27615,-3.2780553)">
    <g
       transform="translate(71.8413,4.15)"
       id="g364">
      <path
         transform="scale(0.0034,-0.0034)"
         d="m 215,137 c 67,0 111,-37 111,-92 0,-90 -111,-182 -215,-182 -67,0 -111,37 -111,92 0,90 111,182 215,182 z"
         fill="currentColor"
         id="path362" />
    </g>
  </a>
  <a
     style="color:inherit"
     xlink:href="textedit:///Users/tomsegarra/Documents/dev/dummies/lilypond_files/3e0c04858b3ba294581c1c8127328eb5.ly:28:65:66"
     id="a374"
     transform="translate(-2.27615,-3.2780553)">
    <g
       transform="translate(70.7561,12.2)"
       id="g372">
      <text
         font-family="serif"
         font-size="2.0989px"
         text-anchor="start"
         fill="currentColor"
         id="text370"><tspan
           id="tspan368">Mis</tspan></text>
    </g>
  </a>
  <g
     transform="translate(69.62675,3.4219447)"
     id="g378">
    <rect
       x="-0.061700001"
       y="-2.3975"
       width="0.1233"
       height="3.4331"
       ry="0.039999999"
       fill="currentColor"
       id="rect376" />
  </g>
  <a
     style="color:inherit"
     xlink:href="textedit:///Users/tomsegarra/Documents/dev/dummies/lilypond_files/3e0c04858b3ba294581c1c8127328eb5.ly:25:12:13"
     id="a384"
     transform="translate(-2.27615,-3.2780553)">
    <g
       transform="translate(74.6727,7.125)"
       id="g382">
      <path
         transform="scale(0.0034,-0.0034)"
         d="m 215,137 c 67,0 111,-37 111,-92 0,-90 -111,-182 -215,-182 -67,0 -111,37 -111,92 0,90 111,182 215,182 z"
         fill="currentColor"
         id="path380" />
    </g>
  </a>
  <a
     style="color:inherit"
     xlink:href="textedit:///Users/tomsegarra/Documents/dev/dummies/lilypond_files/3e0c04858b3ba294581c1c8127328eb5.ly:28:72:73"
     id="a392"
     transform="translate(-2.27615,-3.2780553)">
    <g
       transform="translate(74.1339,12.2)"
       id="g390">
      <text
         font-family="serif"
         font-size="2.0989px"
         text-anchor="start"
         fill="currentColor"
         id="text388"><tspan
           id="tspan386">ter</tspan></text>
    </g>
  </a>
  <g
     transform="translate(72.45825,3.4219447)"
     id="g396">
    <rect
       x="-0.061700001"
       y="0.57749999"
       width="0.1233"
       height="1.7869999"
       ry="0.039999999"
       fill="currentColor"
       id="rect394" />
  </g>
  <a
     style="color:inherit"
     xlink:href="textedit:///Users/tomsegarra/Documents/dev/dummies/lilypond_files/3e0c04858b3ba294581c1c8127328eb5.ly:26:4:5"
     id="a402"
     transform="translate(-2.27615,-3.2780553)">
    <g
       transform="translate(78.3834,7.125)"
       id="g400">
      <path
         transform="scale(0.0034,-0.0034)"
         d="m 215,137 c 67,0 111,-37 111,-92 0,-90 -111,-182 -215,-182 -67,0 -111,37 -111,92 0,90 111,182 215,182 z"
         fill="currentColor"
         id="path398" />
    </g>
  </a>
  <a
     style="color:inherit"
     xlink:href="textedit:///Users/tomsegarra/Documents/dev/dummies/lilypond_files/3e0c04858b3ba294581c1c8127328eb5.ly:28:76:77"
     id="a410"
     transform="translate(-2.27615,-3.2780553)">
    <g
       transform="translate(76.769,12.2)"
       id="g408">
      <text
         font-family="serif"
         font-size="2.0989px"
         text-anchor="start"
         fill="currentColor"
         id="text406"><tspan
           id="tspan404">Cow.</tspan></text>
    </g>
  </a>
  <g
     transform="translate(77.15305,3.4219447)"
     id="g414">
    <rect
       x="-0.061700001"
       y="-2.55"
       width="0.1233"
       height="2.8225"
       ry="0.039999999"
       fill="currentColor"
       id="rect412" />
  </g>
</svg>
