<?xml version="1.0" encoding="UTF-8" standalone="no"?>
<svg
   version="1.2"
   width="56.151665mm"
   height="15.921217mm"
   viewBox="0 0 31.95255 9.0600516"
   id="svg168"
   sodipodi:docname="47f96ec82efc1a6cad4ef8b10f649950.svg"
   xmlns:inkscape="http://www.inkscape.org/namespaces/inkscape"
   xmlns:sodipodi="http://sodipodi.sourceforge.net/DTD/sodipodi-0.dtd"
   xmlns:xlink="http://www.w3.org/1999/xlink"
   xmlns="http://www.w3.org/2000/svg"
   xmlns:svg="http://www.w3.org/2000/svg">
  <defs
     id="defs172" />
  <sodipodi:namedview
     id="namedview170"
     pagecolor="#ffffff"
     bordercolor="#000000"
     borderopacity="0.25"
     inkscape:showpageshadow="2"
     inkscape:pageopacity="0.0"
     inkscape:pagecheckerboard="0"
     inkscape:deskcolor="#d1d1d1"
     inkscape:document-units="mm" />
  <style
     type="text/css"
     id="style2"><![CDATA[
tspan { white-space: pre; }
]]></style>
  <!-- Page: 1/1 -->
  <g
     transform="translate(-4.3420438e-4,5.7605767)"
     id="g6">
    <rect
       x="19.870199"
       y="-0.089900002"
       width="1.6611"
       height="0.17990001"
       ry="0.089900002"
       fill="currentColor"
       id="rect4" />
  </g>
  <g
     transform="translate(-4.3420438e-4,4.9105767)"
     id="g10">
    <line
       stroke-linejoin="round"
       stroke-linecap="round"
       stroke-width="0.0949"
       stroke="currentColor"
       x1="0.047400001"
       y1="0"
       x2="31.905899"
       y2="0"
       id="line8" />
  </g>
  <g
     transform="translate(-4.3420438e-4,4.0605767)"
     id="g14">
    <line
       stroke-linejoin="round"
       stroke-linecap="round"
       stroke-width="0.0949"
       stroke="currentColor"
       x1="0.047400001"
       y1="0"
       x2="31.905899"
       y2="0"
       id="line12" />
  </g>
  <g
     transform="translate(-4.3420438e-4,3.2105767)"
     id="g18">
    <line
       stroke-linejoin="round"
       stroke-linecap="round"
       stroke-width="0.0949"
       stroke="currentColor"
       x1="0.047400001"
       y1="0"
       x2="31.905899"
       y2="0"
       id="line16" />
  </g>
  <g
     transform="translate(-4.3420438e-4,2.3605767)"
     id="g22">
    <line
       stroke-linejoin="round"
       stroke-linecap="round"
       stroke-width="0.0949"
       stroke="currentColor"
       x1="0.047400001"
       y1="0"
       x2="31.905899"
       y2="0"
       id="line20" />
  </g>
  <g
     transform="translate(-4.3420438e-4,1.5105767)"
     id="g26">
    <line
       stroke-linejoin="round"
       stroke-linecap="round"
       stroke-width="0.0949"
       stroke="currentColor"
       x1="0.047400001"
       y1="0"
       x2="31.905899"
       y2="0"
       id="line24" />
  </g>
  <g
     transform="translate(22.454066,3.2105767)"
     id="g30">
    <rect
       x="0"
       y="-1.7"
       width="0.1802"
       height="3.4000001"
       ry="0.0000"
       fill="currentColor"
       id="rect28" />
  </g>
  <a
     style="color:inherit"
     xlink:href="textedit:///Users/tomsegarra/Documents/dev/dummies/lilypond_files/47f96ec82efc1a6cad4ef8b10f649950.ly:20:9:10"
     id="a36"
     transform="translate(-2.2766342,-3.2761233)">
    <g
       transform="translate(16.1639,7.3367)"
       id="g34">
      <path
         transform="scale(0.0034,-0.0034)"
         d="m 215,137 c 67,0 111,-37 111,-92 0,-90 -111,-182 -215,-182 -67,0 -111,37 -111,92 0,90 111,182 215,182 z"
         fill="currentColor"
         id="path32" />
    </g>
  </a>
  <a
     style="color:inherit"
     xlink:href="textedit:///Users/tomsegarra/Documents/dev/dummies/lilypond_files/47f96ec82efc1a6cad4ef8b10f649950.ly:23:7:8"
     id="a44"
     transform="translate(-2.2766342,-3.2761233)">
    <g
       transform="translate(14.8397,11.9867)"
       id="g42">
      <text
         font-family="serif"
         font-size="2.0989px"
         text-anchor="start"
         fill="currentColor"
         id="text40"><tspan
           id="tspan38">fine,</tspan></text>
    </g>
  </a>
  <g
     transform="translate(15.373766,3.6355767)"
     id="g48">
    <path
       transform="scale(0.0034,-0.0034)"
       d="M 0,0 C 0,31 25,56 56,56 87,56 111,31 111,0 111,-31 87,-56 56,-56 25,-56 0,-31 0,0 Z"
       fill="currentColor"
       id="path46" />
  </g>
  <g
     transform="translate(14.933066,3.2105767)"
     id="g52">
    <rect
       x="-0.061700001"
       y="-2.125"
       width="0.1233"
       height="2.8225"
       ry="0.039999999"
       fill="currentColor"
       id="rect50" />
  </g>
  <a
     style="color:inherit"
     xlink:href="textedit:///Users/tomsegarra/Documents/dev/dummies/lilypond_files/47f96ec82efc1a6cad4ef8b10f649950.ly:20:4:5"
     id="a58"
     transform="translate(-2.2766342,-3.2761233)">
    <g
       transform="translate(11.9546,6.9117)"
       id="g56">
      <path
         transform="scale(0.0034,-0.0034)"
         d="m 215,137 c 67,0 111,-37 111,-92 0,-90 -111,-182 -215,-182 -67,0 -111,37 -111,92 0,90 111,182 215,182 z"
         fill="currentColor"
         id="path54" />
    </g>
  </a>
  <a
     style="color:inherit"
     xlink:href="textedit:///Users/tomsegarra/Documents/dev/dummies/lilypond_files/47f96ec82efc1a6cad4ef8b10f649950.ly:23:22:23"
     id="a64"
     transform="translate(-2.2766342,-3.2761233)">
    <g
       transform="translate(27.9027,11.9867)"
       id="g62">
      <rect
         x="0"
         y="-0.54329997"
         width="0.38190001"
         height="0.1233"
         ry="0.037900001"
         fill="currentColor"
         id="rect60" />
    </g>
  </a>
  <a
     style="color:inherit"
     xlink:href="textedit:///Users/tomsegarra/Documents/dev/dummies/lilypond_files/47f96ec82efc1a6cad4ef8b10f649950.ly:20:11:12"
     id="a70"
     transform="translate(-2.2766342,-3.2761233)">
    <g
       transform="translate(20.3733,6.4867)"
       id="g68">
      <path
         transform="scale(0.0034,-0.0034)"
         d="m 70,205 c 80,0 46,-97 90,-97 15,0 52,45 59,59 6,13 26,13 31,0 L 129,-250 c -9,-7 -19,-11 -30,-11 -11,0 -21,4 -30,11 L 187,76 C 154,64 119,54 84,54 37,54 -3,88 -3,133 c 0,40 33,72 73,72 z"
         fill="currentColor"
         id="path66" />
    </g>
  </a>
  <g
     transform="translate(0.7995658,4.0605767)"
     id="g74">
    <path
       transform="scale(0.0034,-0.0034)"
       d="m 646,2 c 0,-113 -74,-213 -180,-247 3,-34 5,-68 5,-102 0,-20 -1,-40 -2,-60 -7,-121 -91,-228 -209,-228 -108,0 -196,87 -196,196 0,58 53,104 112,104 54,0 95,-48 95,-104 0,-52 -43,-95 -95,-95 -10,0 -20,2 -29,6 26,-38 68,-63 116,-63 h 3 c 93,2 153,92 159,190 1,19 2,37 2,56 0,30 -2,60 -4,90 -5,-1 -43,-8 -88,-8 -194,0 -333,180 -333,375 0,177 130,307 246,442 -31,98 -53,170 -53,347 0,115 55,223 148,290 7,5 16,4 22,-1 68,-80 134,-243 134,-357 0,-143 -85,-255 -178,-364 21,-68 40,-137 57,-206 1,0 5,1 11,1 C 545,264 646,135 646,2 Z M 462,-202 c 66,24 111,88 111,162 0,89 -65,178 -170,190 28,-135 50,-272 59,-352 z M 75,26 c 0,-145 141,-245 263,-245 1,0 46,0 81,6 -7,65 -27,206 -61,363 -79,-8 -124,-61 -124,-119 0,-43 25,-89 80,-121 5,-5 7,-11 7,-16 0,-12 -10,-23 -22,-23 -16,0 -127,63 -127,188 0,89 58,175 161,198 -14,58 -29,116 -46,173 C 181,308 75,186 75,26 Z M 406,1042 C 307,995 244,894 244,785 c 0,-49 13,-111 38,-191 79,97 144,199 144,324 0,33 0,63 -20,124 z"
       fill="currentColor"
       id="path72" />
  </g>
  <g
     transform="translate(10.723666,3.2105767)"
     id="g78">
    <rect
       x="-0.061700001"
       y="-2.55"
       width="0.1233"
       height="2.8225"
       ry="0.039999999"
       fill="currentColor"
       id="rect76" />
  </g>
  <a
     style="color:inherit"
     xlink:href="textedit:///Users/tomsegarra/Documents/dev/dummies/lilypond_files/47f96ec82efc1a6cad4ef8b10f649950.ly:20:14:15"
     id="a84"
     transform="translate(-2.2766342,-3.2761233)">
    <g
       transform="translate(22.4233,9.0367)"
       id="g82">
      <path
         transform="scale(0.0034,-0.0034)"
         d="m 215,137 c 67,0 111,-37 111,-92 0,-90 -111,-182 -215,-182 -67,0 -111,37 -111,92 0,90 111,182 215,182 z"
         fill="currentColor"
         id="path80" />
    </g>
  </a>
  <a
     style="color:inherit"
     xlink:href="textedit:///Users/tomsegarra/Documents/dev/dummies/lilypond_files/47f96ec82efc1a6cad4ef8b10f649950.ly:23:13:14"
     id="a92"
     transform="translate(-2.2766342,-3.2761233)">
    <g
       transform="translate(21.799,11.9867)"
       id="g90">
      <text
         font-family="serif"
         font-size="2.0989px"
         text-anchor="start"
         fill="currentColor"
         id="text88"><tspan
           id="tspan86">it's</tspan></text>
    </g>
  </a>
  <g
     transform="translate(21.192366,3.2105767)"
     id="g96">
    <rect
       x="-0.061700001"
       y="-0.42500001"
       width="0.1233"
       height="2.8225"
       ry="0.039999999"
       fill="currentColor"
       id="rect94" />
  </g>
  <g
     transform="translate(21.254066,2.8255767)"
     id="g100">
    <path
       transform="scale(0.0034,-0.0034)"
       d="m 0,0 c 0,-197 207,-335 207,-532 0,-71 -15,-141 -41,-207 -5,-8 -13,-12 -21,-12 -14,0 -27,11 -24,28 26,60 42,125 42,191 0,103 -93,207 -163,282 H -18 V 0 Z"
       fill="currentColor"
       id="path98" />
  </g>
  <g
     transform="translate(11.164466,3.6355767)"
     id="g104">
    <path
       transform="scale(0.0034,-0.0034)"
       d="M 0,0 C 0,31 25,56 56,56 87,56 111,31 111,0 111,-31 87,-56 56,-56 25,-56 0,-31 0,0 Z"
       fill="currentColor"
       id="path102" />
  </g>
  <a
     style="color:inherit"
     xlink:href="textedit:///Users/tomsegarra/Documents/dev/dummies/lilypond_files/47f96ec82efc1a6cad4ef8b10f649950.ly:20:18:19"
     id="a110"
     transform="translate(-2.2766342,-3.2761233)">
    <g
       transform="translate(25.8109,7.3367)"
       id="g108">
      <path
         transform="scale(0.0034,-0.0034)"
         d="m 215,137 c 67,0 111,-37 111,-92 0,-90 -111,-182 -215,-182 -67,0 -111,37 -111,92 0,90 111,182 215,182 z"
         fill="currentColor"
         id="path106" />
    </g>
  </a>
  <a
     style="color:inherit"
     xlink:href="textedit:///Users/tomsegarra/Documents/dev/dummies/lilypond_files/47f96ec82efc1a6cad4ef8b10f649950.ly:23:4:5"
     id="a118"
     transform="translate(-2.2766342,-3.2761233)">
    <g
       transform="translate(11.3986,11.9867)"
       id="g116">
      <text
         font-family="serif"
         font-size="2.0989px"
         text-anchor="start"
         fill="currentColor"
         id="text114"><tspan
           id="tspan112">So</tspan></text>
    </g>
  </a>
  <g
     transform="translate(6.2397658,3.2105767)"
     id="g122">
    <path
       transform="scale(0.0034,-0.0034)"
       d="m 358,29 c -30,0 -74,23 -74,73 0,38 27,76 71,76 4,0 7,0 11,-1 -27,36 -69,59 -116,59 -106,0 -113,-74 -113,-188 0,-15 1,-31 1,-48 0,-17 -1,-33 -1,-48 0,-114 7,-188 113,-188 79,0 136,70 155,150 2,7 7,10 13,10 7,0 14,-5 14,-13 0,-21 -50,-175 -182,-175 C 191,-264 0,-244 0,0 0,63 18,264 250,264 365,264 424,155 424,99 424,60 394,29 358,29 Z"
       fill="currentColor"
       id="path120" />
  </g>
  <a
     style="color:inherit"
     xlink:href="textedit:///Users/tomsegarra/Documents/dev/dummies/lilypond_files/47f96ec82efc1a6cad4ef8b10f649950.ly:23:18:19"
     id="a130"
     transform="translate(-2.2766342,-3.2761233)">
    <g
       transform="translate(24.8964,11.9867)"
       id="g128">
      <text
         font-family="serif"
         font-size="2.0989px"
         text-anchor="start"
         fill="currentColor"
         id="text126"><tspan
           id="tspan124">sun</tspan></text>
    </g>
  </a>
  <g
     transform="translate(25.020666,3.6355767)"
     id="g134">
    <path
       transform="scale(0.0034,-0.0034)"
       d="M 0,0 C 0,31 25,56 56,56 87,56 111,31 111,0 111,-31 87,-56 56,-56 25,-56 0,-31 0,0 Z"
       fill="currentColor"
       id="path132" />
  </g>
  <g
     transform="translate(24.579966,3.2105767)"
     id="g138">
    <rect
       x="-0.061700001"
       y="-2.125"
       width="0.1233"
       height="2.8225"
       ry="0.039999999"
       fill="currentColor"
       id="rect136" />
  </g>
  <a
     style="color:inherit"
     xlink:href="textedit:///Users/tomsegarra/Documents/dev/dummies/lilypond_files/47f96ec82efc1a6cad4ef8b10f649950.ly:19:4:5"
     id="a144"
     transform="translate(-2.2766342,-3.2761233)">
    <g
       transform="translate(6.6864,6.4867)"
       id="g142">
      <path
         transform="scale(0.0034,-0.0034)"
         d="m 29,39 -2,-64 v -11 c 0,-22 2,-43 5,-65 44,38 91,80 91,138 0,33 -13,66 -42,66 C 50,103 30,72 29,39 Z m -57,415 c 9,5 18,8 28,8 10,0 19,-3 28,-8 L 21,111 c 25,23 58,36 92,36 51,0 87,-49 87,-103 0,-79 -84,-117 -144,-169 -16,-14 -25,-41 -47,-41 -14,0 -25,13 -25,27 z"
         fill="currentColor"
         id="path140" />
    </g>
  </a>
  <a
     style="color:inherit"
     xlink:href="textedit:///Users/tomsegarra/Documents/dev/dummies/lilypond_files/47f96ec82efc1a6cad4ef8b10f649950.ly:20:23:24"
     id="a150"
     transform="translate(-2.2766342,-3.2761233)">
    <g
       transform="translate(30.0202,7.7617)"
       id="g148">
      <path
         transform="scale(0.0034,-0.0034)"
         d="m 215,137 c 67,0 111,-37 111,-92 0,-90 -111,-182 -215,-182 -67,0 -111,37 -111,92 0,90 111,182 215,182 z"
         fill="currentColor"
         id="path146" />
    </g>
  </a>
  <a
     style="color:inherit"
     xlink:href="textedit:///Users/tomsegarra/Documents/dev/dummies/lilypond_files/47f96ec82efc1a6cad4ef8b10f649950.ly:23:25:26"
     id="a158"
     transform="translate(-2.2766342,-3.2761233)">
    <g
       transform="translate(28.3546,11.9867)"
       id="g156">
      <text
         font-family="serif"
         font-size="2.0989px"
         text-anchor="start"
         fill="currentColor"
         id="text154"><tspan
           id="tspan152">shine</tspan></text>
    </g>
  </a>
  <g
     transform="translate(29.230066,4.4855767)"
     id="g162">
    <path
       transform="scale(0.0034,-0.0034)"
       d="M 0,0 C 0,31 25,56 56,56 87,56 111,31 111,0 111,-31 87,-56 56,-56 25,-56 0,-31 0,0 Z"
       fill="currentColor"
       id="path160" />
  </g>
  <g
     transform="translate(28.789366,3.2105767)"
     id="g166">
    <rect
       x="-0.061700001"
       y="-1.7"
       width="0.1233"
       height="2.8225"
       ry="0.039999999"
       fill="currentColor"
       id="rect164" />
  </g>
</svg>
