<?xml version="1.0" encoding="UTF-8" standalone="no"?>
<svg
   version="1.2"
   width="69.386765mm"
   height="15.357512mm"
   viewBox="0 0 39.483212 8.7392721"
   id="svg244"
   sodipodi:docname="49592ca123e558cc0cabede85b9787d9.svg"
   xmlns:inkscape="http://www.inkscape.org/namespaces/inkscape"
   xmlns:sodipodi="http://sodipodi.sourceforge.net/DTD/sodipodi-0.dtd"
   xmlns:xlink="http://www.w3.org/1999/xlink"
   xmlns="http://www.w3.org/2000/svg"
   xmlns:svg="http://www.w3.org/2000/svg">
  <defs
     id="defs248" />
  <sodipodi:namedview
     id="namedview246"
     pagecolor="#ffffff"
     bordercolor="#000000"
     borderopacity="0.25"
     inkscape:showpageshadow="2"
     inkscape:pageopacity="0.0"
     inkscape:pagecheckerboard="0"
     inkscape:deskcolor="#d1d1d1"
     inkscape:document-units="mm" />
  <style
     type="text/css"
     id="style2"><![CDATA[
tspan { white-space: pre; }
]]></style>
  <!-- Page: 1/1 -->
  <g
     transform="translate(-8.932485e-4,4.9105767)"
     id="g6">
    <line
       stroke-linejoin="round"
       stroke-linecap="round"
       stroke-width="0.0949"
       stroke="currentColor"
       x1="0.047400001"
       y1="0"
       x2="39.437401"
       y2="0"
       id="line4" />
  </g>
  <g
     transform="translate(-8.932485e-4,4.0605767)"
     id="g10">
    <line
       stroke-linejoin="round"
       stroke-linecap="round"
       stroke-width="0.0949"
       stroke="currentColor"
       x1="0.047400001"
       y1="0"
       x2="39.437401"
       y2="0"
       id="line8" />
  </g>
  <g
     transform="translate(-8.932485e-4,3.2105767)"
     id="g14">
    <line
       stroke-linejoin="round"
       stroke-linecap="round"
       stroke-width="0.0949"
       stroke="currentColor"
       x1="0.047400001"
       y1="0"
       x2="39.437401"
       y2="0"
       id="line12" />
  </g>
  <g
     transform="translate(-8.932485e-4,2.3605767)"
     id="g18">
    <line
       stroke-linejoin="round"
       stroke-linecap="round"
       stroke-width="0.0949"
       stroke="currentColor"
       x1="0.047400001"
       y1="0"
       x2="39.437401"
       y2="0"
       id="line16" />
  </g>
  <g
     transform="translate(-8.932485e-4,1.5105767)"
     id="g22">
    <line
       stroke-linejoin="round"
       stroke-linecap="round"
       stroke-width="0.0949"
       stroke="currentColor"
       x1="0.047400001"
       y1="0"
       x2="39.437401"
       y2="0"
       id="line20" />
  </g>
  <g
     transform="translate(39.303707,3.2105767)"
     id="g26">
    <rect
       x="0"
       y="-1.7"
       width="0.1802"
       height="3.4000001"
       ry="0.0000"
       fill="currentColor"
       id="rect24" />
  </g>
  <a
     style="color:inherit"
     xlink:href="textedit:///Users/tomsegarra/Downloads/dummies/lilypond_files/49592ca123e558cc0cabede85b9787d9.ly:20:6:7"
     id="a32"
     transform="translate(-2.2770932,-3.2761233)">
    <g
       transform="translate(10.7144,6.4867)"
       id="g30">
      <path
         transform="scale(0.0034,-0.0034)"
         d="m 70,205 c 80,0 46,-97 90,-97 15,0 52,45 59,59 6,13 26,13 31,0 L 129,-250 c -9,-7 -19,-11 -30,-11 -11,0 -21,4 -30,11 L 187,76 C 154,64 119,54 84,54 37,54 -3,88 -3,133 c 0,40 33,72 73,72 z"
         fill="currentColor"
         id="path28" />
    </g>
  </a>
  <g
     transform="translate(0.79910675,4.0605767)"
     id="g36">
    <path
       transform="scale(0.0034,-0.0034)"
       d="m 646,2 c 0,-113 -74,-213 -180,-247 3,-34 5,-68 5,-102 0,-20 -1,-40 -2,-60 -7,-121 -91,-228 -209,-228 -108,0 -196,87 -196,196 0,58 53,104 112,104 54,0 95,-48 95,-104 0,-52 -43,-95 -95,-95 -10,0 -20,2 -29,6 26,-38 68,-63 116,-63 h 3 c 93,2 153,92 159,190 1,19 2,37 2,56 0,30 -2,60 -4,90 -5,-1 -43,-8 -88,-8 -194,0 -333,180 -333,375 0,177 130,307 246,442 -31,98 -53,170 -53,347 0,115 55,223 148,290 7,5 16,4 22,-1 68,-80 134,-243 134,-357 0,-143 -85,-255 -178,-364 21,-68 40,-137 57,-206 1,0 5,1 11,1 C 545,264 646,135 646,2 Z M 462,-202 c 66,24 111,88 111,162 0,89 -65,178 -170,190 28,-135 50,-272 59,-352 z M 75,26 c 0,-145 141,-245 263,-245 1,0 46,0 81,6 -7,65 -27,206 -61,363 -79,-8 -124,-61 -124,-119 0,-43 25,-89 80,-121 5,-5 7,-11 7,-16 0,-12 -10,-23 -22,-23 -16,0 -127,63 -127,188 0,89 58,175 161,198 -14,58 -29,116 -46,173 C 181,308 75,186 75,26 Z M 406,1042 C 307,995 244,894 244,785 c 0,-49 13,-111 38,-191 79,97 144,199 144,324 0,33 0,63 -20,124 z"
       fill="currentColor"
       id="path34" />
  </g>
  <a
     style="color:inherit"
     xlink:href="textedit:///Users/tomsegarra/Downloads/dummies/lilypond_files/49592ca123e558cc0cabede85b9787d9.ly:19:6:7"
     id="a38"
     transform="translate(-2.2770932,-3.2761233)" />
  <g
     transform="translate(4.9991068,3.2105767)"
     id="g42">
    <path
       transform="scale(0.0034,-0.0034)"
       d="m 358,29 c -30,0 -74,23 -74,73 0,38 27,76 71,76 4,0 7,0 11,-1 -27,36 -69,59 -116,59 -106,0 -113,-74 -113,-188 0,-15 1,-31 1,-48 0,-17 -1,-33 -1,-48 0,-114 7,-188 113,-188 79,0 136,70 155,150 2,7 7,10 13,10 7,0 14,-5 14,-13 0,-21 -50,-175 -182,-175 C 191,-264 0,-244 0,0 0,63 18,264 250,264 365,264 424,155 424,99 424,60 394,29 358,29 Z"
       fill="currentColor"
       id="path40" />
  </g>
  <a
     style="color:inherit"
     xlink:href="textedit:///Users/tomsegarra/Downloads/dummies/lilypond_files/49592ca123e558cc0cabede85b9787d9.ly:23:25:26"
     id="a50"
     transform="translate(-2.2770932,-3.2761233)">
    <g
       transform="translate(31.3161,11.9867)"
       id="g48">
      <text
         font-family="serif"
         font-size="2.0989px"
         text-anchor="start"
         fill="currentColor"
         id="text46"><tspan
           id="tspan44">tect</tspan></text>
    </g>
  </a>
  <g
     transform="translate(29.100607,3.2105767)"
     id="g54">
    <rect
       x="-0.061700001"
       y="-0.69749999"
       width="0.1233"
       height="2.5520999"
       ry="0.039999999"
       fill="currentColor"
       id="rect52" />
  </g>
  <a
     style="color:inherit"
     xlink:href="textedit:///Users/tomsegarra/Downloads/dummies/lilypond_files/49592ca123e558cc0cabede85b9787d9.ly:20:20:21"
     id="a60"
     transform="translate(-2.2770932,-3.2761233)">
    <g
       transform="translate(16.2718,6.4867)"
       id="g58">
      <path
         stroke-width="0.0759"
         stroke-linejoin="round"
         stroke-linecap="round"
         stroke="currentColor"
         fill="currentColor"
         d="m 0.7537,-2.375 c 0.4705,-0.5562 1.4368,-0.5562 1.9074,0 v 0 c -0.4706,-0.4424 -1.4369,-0.4424 -1.9074,0 z"
         id="path56" />
    </g>
  </a>
  <a
     style="color:inherit"
     xlink:href="textedit:///Users/tomsegarra/Downloads/dummies/lilypond_files/49592ca123e558cc0cabede85b9787d9.ly:20:44:45"
     id="a66"
     transform="translate(-2.2770932,-3.2761233)">
    <g
       transform="translate(34.8235,5.6367)"
       id="g64">
      <path
         transform="scale(0.0034,-0.0034)"
         d="m 215,137 c 67,0 111,-37 111,-92 0,-90 -111,-182 -215,-182 -67,0 -111,37 -111,92 0,90 111,182 215,182 z"
         fill="currentColor"
         id="path62" />
    </g>
  </a>
  <g
     transform="translate(32.608007,3.2105767)"
     id="g70">
    <rect
       x="-0.061700001"
       y="-0.69749999"
       width="0.1233"
       height="2.8225"
       ry="0.039999999"
       fill="currentColor"
       id="rect68" />
  </g>
  <g
     transform="translate(32.669707,5.2955767)"
     id="g74">
    <path
       transform="scale(0.0034,-0.0034)"
       d="M 0,0 H -18 V 250 H 0 Z m 0,0 v 250 c 96,59 222,149 222,259 0,57 -15,111 -40,162 -3,17 10,29 24,29 8,0 16,-5 21,-13 25,-56 40,-116 40,-178 C 267,306 0,203 0,0 Z"
       fill="currentColor"
       id="path72" />
  </g>
  <a
     style="color:inherit"
     xlink:href="textedit:///Users/tomsegarra/Downloads/dummies/lilypond_files/49592ca123e558cc0cabede85b9787d9.ly:20:47:48"
     id="a80"
     transform="translate(-2.2770932,-3.2761233)">
    <g
       transform="translate(38.3308,6.4867)"
       id="g78">
      <path
         transform="scale(0.0034,-0.0034)"
         d="m 70,205 c 80,0 46,-97 90,-97 15,0 52,45 59,59 6,13 26,13 31,0 L 129,-250 c -9,-7 -19,-11 -30,-11 -11,0 -21,4 -30,11 L 187,76 C 154,64 119,54 84,54 37,54 -3,88 -3,133 c 0,40 33,72 73,72 z"
         fill="currentColor"
         id="path76" />
    </g>
  </a>
  <g
     transform="translate(11.687307,3.3670767)"
     id="g84">
    <polygon
       stroke-linejoin="round"
       stroke-linecap="round"
       stroke-width="0.08"
       fill="currentColor"
       stroke="currentColor"
       points="0.04,0.164 0.04,-0.164 2.3907,-0.164 2.3907,0.164 "
       id="polygon82" />
  </g>
  <g
     transform="translate(11.687307,4.0605767)"
     id="g88">
    <polygon
       stroke-linejoin="round"
       stroke-linecap="round"
       stroke-width="0.08"
       fill="currentColor"
       stroke="currentColor"
       points="0.04,0.164 0.04,-0.164 2.3907,-0.164 2.3907,0.164 "
       id="polygon86" />
  </g>
  <a
     style="color:inherit"
     xlink:href="textedit:///Users/tomsegarra/Downloads/dummies/lilypond_files/49592ca123e558cc0cabede85b9787d9.ly:20:9:10"
     id="a94"
     transform="translate(-2.2770932,-3.2761233)">
    <g
       transform="translate(13.9644,4.7867)"
       id="g92">
      <path
         transform="scale(0.0034,-0.0034)"
         d="m 215,137 c 67,0 111,-37 111,-92 0,-90 -111,-182 -215,-182 -67,0 -111,37 -111,92 0,90 111,182 215,182 z"
         fill="currentColor"
         id="path90" />
    </g>
  </a>
  <a
     style="color:inherit"
     xlink:href="textedit:///Users/tomsegarra/Downloads/dummies/lilypond_files/49592ca123e558cc0cabede85b9787d9.ly:23:4:5"
     id="a102"
     transform="translate(-2.2770932,-3.2761233)">
    <g
       transform="translate(14.1766,11.9867)"
       id="g100">
      <text
         font-family="serif"
         font-size="2.0989px"
         text-anchor="start"
         fill="currentColor"
         id="text98"><tspan
           id="tspan96">I</tspan></text>
    </g>
  </a>
  <g
     transform="translate(11.748907,3.2105767)"
     id="g106">
    <rect
       x="-0.061700001"
       y="-1.5475"
       width="0.1233"
       height="2.3975"
       ry="0.039999999"
       fill="currentColor"
       id="rect104" />
  </g>
  <g
     transform="translate(10.402307,1.5105767)"
     id="g110">
    <path
       transform="scale(0.0034,-0.0034)"
       d="m 217,-311 c 0,-11 -8,-19 -19,-19 -11,0 -20,8 -20,19 v 142 l -81,-30 v -156 c 0,-11 -9,-20 -20,-20 -11,0 -19,9 -19,20 v 142 l -28,-11 c -3,-1 -5,-1 -8,-1 -12,0 -22,10 -22,23 v 57 c 0,9 6,18 15,21 l 43,16 V 49 L 30,39 C 27,38 25,38 22,38 10,38 0,47 0,60 v 57 c 0,9 6,18 15,21 l 43,16 v 157 c 0,11 8,19 19,19 11,0 20,-8 20,-19 V 169 l 81,30 v 156 c 0,11 9,20 20,20 11,0 19,-9 19,-20 V 213 l 28,11 c 3,1 5,1 8,1 12,0 22,-10 22,-23 v -57 c 0,-9 -6,-18 -15,-21 L 217,108 V -49 l 28,10 c 3,1 5,1 8,1 12,0 22,-9 22,-22 v -57 c 0,-9 -6,-18 -15,-21 l -43,-16 z M 97,64 V -94 l 81,30 V 94 Z"
       fill="currentColor"
       id="path108" />
  </g>
  <a
     style="color:inherit"
     xlink:href="textedit:///Users/tomsegarra/Downloads/dummies/lilypond_files/49592ca123e558cc0cabede85b9787d9.ly:23:15:16"
     id="a116"
     transform="translate(-2.2770932,-3.2761233)">
    <g
       transform="translate(26.8103,11.9867)"
       id="g114">
      <rect
         x="0"
         y="-0.54329997"
         width="0.66000003"
         height="0.1233"
         ry="0.037900001"
         fill="currentColor"
         id="rect112" />
    </g>
  </a>
  <a
     style="color:inherit"
     xlink:href="textedit:///Users/tomsegarra/Downloads/dummies/lilypond_files/49592ca123e558cc0cabede85b9787d9.ly:20:17:18"
     id="a122"
     transform="translate(-2.2770932,-3.2761233)">
    <g
       transform="translate(16.2718,4.7867)"
       id="g120">
      <path
         transform="scale(0.0034,-0.0034)"
         d="m 215,137 c 67,0 111,-37 111,-92 0,-90 -111,-182 -215,-182 -67,0 -111,37 -111,92 0,90 111,182 215,182 z"
         fill="currentColor"
         id="path118" />
    </g>
  </a>
  <a
     style="color:inherit"
     xlink:href="textedit:///Users/tomsegarra/Downloads/dummies/lilypond_files/49592ca123e558cc0cabede85b9787d9.ly:23:6:7"
     id="a130"
     transform="translate(-2.2770932,-3.2761233)">
    <g
       transform="translate(16.2718,11.9867)"
       id="g128">
      <text
         font-family="serif"
         font-size="2.0989px"
         text-anchor="start"
         fill="currentColor"
         id="text126"><tspan
           id="tspan124">am</tspan></text>
    </g>
  </a>
  <g
     transform="translate(14.056307,3.2105767)"
     id="g134">
    <rect
       x="-0.061700001"
       y="-1.5475"
       width="0.1233"
       height="2.3975"
       ry="0.039999999"
       fill="currentColor"
       id="rect132" />
  </g>
  <g
     transform="translate(19.809407,3.3670767)"
     id="g138">
    <polygon
       stroke-linejoin="round"
       stroke-linecap="round"
       stroke-width="0.08"
       fill="currentColor"
       stroke="currentColor"
       points="0.04,0.164 0.04,-0.164 2.3907,-0.164 2.3907,0.164 "
       id="polygon136" />
  </g>
  <g
     transform="translate(16.302107,4.0605767)"
     id="g142">
    <polygon
       stroke-linejoin="round"
       stroke-linecap="round"
       stroke-width="0.08"
       fill="currentColor"
       stroke="currentColor"
       points="0.04,0.164 0.04,-0.164 5.8981,-0.164 5.8981,0.164 "
       id="polygon140" />
  </g>
  <a
     style="color:inherit"
     xlink:href="textedit:///Users/tomsegarra/Downloads/dummies/lilypond_files/49592ca123e558cc0cabede85b9787d9.ly:20:22:23"
     id="a148"
     transform="translate(-2.2770932,-3.2761233)">
    <g
       transform="translate(18.5792,4.7867)"
       id="g146">
      <path
         transform="scale(0.0034,-0.0034)"
         d="m 215,137 c 67,0 111,-37 111,-92 0,-90 -111,-182 -215,-182 -67,0 -111,37 -111,92 0,90 111,182 215,182 z"
         fill="currentColor"
         id="path144" />
    </g>
  </a>
  <g
     transform="translate(16.363707,3.2105767)"
     id="g152">
    <rect
       x="-0.061700001"
       y="-1.5475"
       width="0.1233"
       height="2.3975"
       ry="0.039999999"
       fill="currentColor"
       id="rect150" />
  </g>
  <a
     style="color:inherit"
     xlink:href="textedit:///Users/tomsegarra/Downloads/dummies/lilypond_files/49592ca123e558cc0cabede85b9787d9.ly:23:22:23"
     id="a158"
     transform="translate(-2.2770932,-3.2761233)">
    <g
       transform="translate(30.9128,11.9867)"
       id="g156">
      <rect
         x="0"
         y="-0.54329997"
         width="0.33329999"
         height="0.1233"
         ry="0.037900001"
         fill="currentColor"
         id="rect154" />
    </g>
  </a>
  <a
     style="color:inherit"
     xlink:href="textedit:///Users/tomsegarra/Downloads/dummies/lilypond_files/49592ca123e558cc0cabede85b9787d9.ly:20:27:28"
     id="a164"
     transform="translate(-2.2770932,-3.2761233)">
    <g
       transform="translate(22.0865,4.3617)"
       id="g162">
      <path
         transform="scale(0.0034,-0.0034)"
         d="m 215,137 c 67,0 111,-37 111,-92 0,-90 -111,-182 -215,-182 -67,0 -111,37 -111,92 0,90 111,182 215,182 z"
         fill="currentColor"
         id="path160" />
    </g>
  </a>
  <a
     style="color:inherit"
     xlink:href="textedit:///Users/tomsegarra/Downloads/dummies/lilypond_files/49592ca123e558cc0cabede85b9787d9.ly:23:9:10"
     id="a172"
     transform="translate(-2.2770932,-3.2761233)">
    <g
       transform="translate(21.6501,11.9867)"
       id="g170">
      <text
         font-family="serif"
         font-size="2.0989px"
         text-anchor="start"
         fill="currentColor"
         id="text168"><tspan
           id="tspan166">an</tspan></text>
    </g>
  </a>
  <g
     transform="translate(19.871107,3.2105767)"
     id="g176">
    <rect
       x="-0.061700001"
       y="-1.9725"
       width="0.1233"
       height="2.8225"
       ry="0.039999999"
       fill="currentColor"
       id="rect174" />
  </g>
  <a
     style="color:inherit"
     xlink:href="textedit:///Users/tomsegarra/Downloads/dummies/lilypond_files/49592ca123e558cc0cabede85b9787d9.ly:20:42:43"
     id="a182"
     transform="translate(-2.2770932,-3.2761233)">
    <g
       transform="translate(31.3161,6.4867)"
       id="g180">
      <path
         stroke-width="0.0759"
         stroke-linejoin="round"
         stroke-linecap="round"
         stroke="currentColor"
         fill="currentColor"
         d="m 0.7537,-1.7 c 0.6677,-0.7058 2.4397,-0.7058 3.1074,0 v 0 c -0.6677,-0.592 -2.4397,-0.592 -3.1074,0 z"
         id="path178" />
    </g>
  </a>
  <a
     style="color:inherit"
     xlink:href="textedit:///Users/tomsegarra/Downloads/dummies/lilypond_files/49592ca123e558cc0cabede85b9787d9.ly:20:31:32"
     id="a188"
     transform="translate(-2.2770932,-3.2761233)">
    <g
       transform="translate(24.3939,4.7867)"
       id="g186">
      <path
         transform="scale(0.0034,-0.0034)"
         d="m 215,137 c 67,0 111,-37 111,-92 0,-90 -111,-182 -215,-182 -67,0 -111,37 -111,92 0,90 111,182 215,182 z"
         fill="currentColor"
         id="path184" />
    </g>
  </a>
  <a
     style="color:inherit"
     xlink:href="textedit:///Users/tomsegarra/Downloads/dummies/lilypond_files/49592ca123e558cc0cabede85b9787d9.ly:23:12:13"
     id="a196"
     transform="translate(-2.2770932,-3.2761233)">
    <g
       transform="translate(24.3939,11.9867)"
       id="g194">
      <text
         font-family="serif"
         font-size="2.0989px"
         text-anchor="start"
         fill="currentColor"
         id="text192"><tspan
           id="tspan190">ar</tspan></text>
    </g>
  </a>
  <g
     transform="translate(22.178507,3.2105767)"
     id="g200">
    <rect
       x="-0.061700001"
       y="-1.5475"
       width="0.1233"
       height="2.3975"
       ry="0.039999999"
       fill="currentColor"
       id="rect198" />
  </g>
  <g
     transform="translate(24.424207,4.2170767)"
     id="g204">
    <polygon
       stroke-linejoin="round"
       stroke-linecap="round"
       stroke-width="0.08"
       fill="currentColor"
       stroke="currentColor"
       points="0.04,0.164 0.04,-0.164 2.3907,-0.0837 2.3907,0.2443 "
       id="polygon202" />
  </g>
  <g
     transform="translate(24.424207,4.9105767)"
     id="g208">
    <polygon
       stroke-linejoin="round"
       stroke-linecap="round"
       stroke-width="0.08"
       fill="currentColor"
       stroke="currentColor"
       points="0.04,0.164 0.04,-0.164 4.6981,-0.0074 4.6981,0.3206 "
       id="polygon206" />
  </g>
  <a
     style="color:inherit"
     xlink:href="textedit:///Users/tomsegarra/Downloads/dummies/lilypond_files/49592ca123e558cc0cabede85b9787d9.ly:20:36:37"
     id="a214"
     transform="translate(-2.2770932,-3.2761233)">
    <g
       transform="translate(26.7013,5.2117)"
       id="g212">
      <path
         transform="scale(0.0034,-0.0034)"
         d="m 215,137 c 67,0 111,-37 111,-92 0,-90 -111,-182 -215,-182 -67,0 -111,37 -111,92 0,90 111,182 215,182 z"
         fill="currentColor"
         id="path210" />
    </g>
  </a>
  <g
     transform="translate(24.485907,3.2105767)"
     id="g218">
    <rect
       x="-0.061700001"
       y="-1.1224999"
       width="0.1233"
       height="2.8246"
       ry="0.039999999"
       fill="currentColor"
       id="rect216" />
  </g>
  <a
     style="color:inherit"
     xlink:href="textedit:///Users/tomsegarra/Downloads/dummies/lilypond_files/49592ca123e558cc0cabede85b9787d9.ly:20:38:39"
     id="a224"
     transform="translate(-2.2770932,-3.2761233)">
    <g
       transform="translate(29.0087,5.6367)"
       id="g222">
      <path
         transform="scale(0.0034,-0.0034)"
         d="m 215,137 c 67,0 111,-37 111,-92 0,-90 -111,-182 -215,-182 -67,0 -111,37 -111,92 0,90 111,182 215,182 z"
         fill="currentColor"
         id="path220" />
    </g>
  </a>
  <a
     style="color:inherit"
     xlink:href="textedit:///Users/tomsegarra/Downloads/dummies/lilypond_files/49592ca123e558cc0cabede85b9787d9.ly:23:18:19"
     id="a232"
     transform="translate(-2.2770932,-3.2761233)">
    <g
       transform="translate(28.282,11.9867)"
       id="g230">
      <text
         font-family="serif"
         font-size="2.0989px"
         text-anchor="start"
         fill="currentColor"
         id="text228"><tspan
           id="tspan226">chi</tspan></text>
    </g>
  </a>
  <g
     transform="translate(26.793307,3.2105767)"
     id="g236">
    <rect
       x="-0.061700001"
       y="-0.69749999"
       width="0.1233"
       height="2.4758"
       ry="0.039999999"
       fill="currentColor"
       id="rect234" />
  </g>
  <a
     style="color:inherit"
     xlink:href="textedit:///Users/tomsegarra/Downloads/dummies/lilypond_files/49592ca123e558cc0cabede85b9787d9.ly:20:40:41"
     id="a242"
     transform="translate(-2.2770932,-3.2761233)">
    <g
       transform="translate(31.3161,5.6367)"
       id="g240">
      <path
         transform="scale(0.0034,-0.0034)"
         d="m 215,137 c 67,0 111,-37 111,-92 0,-90 -111,-182 -215,-182 -67,0 -111,37 -111,92 0,90 111,182 215,182 z"
         fill="currentColor"
         id="path238" />
    </g>
  </a>
</svg>
