<?xml version="1.0" encoding="UTF-8" standalone="no"?>
<svg
   version="1.2"
   width="47.330345mm"
   height="15.356988mm"
   viewBox="0 0 26.934498 8.7389741"
   id="svg182"
   sodipodi:docname="4f062df351d6618e0b1b9c03ce200984.svg"
   xmlns:inkscape="http://www.inkscape.org/namespaces/inkscape"
   xmlns:sodipodi="http://sodipodi.sourceforge.net/DTD/sodipodi-0.dtd"
   xmlns:xlink="http://www.w3.org/1999/xlink"
   xmlns="http://www.w3.org/2000/svg"
   xmlns:svg="http://www.w3.org/2000/svg">
  <defs
     id="defs186" />
  <sodipodi:namedview
     id="namedview184"
     pagecolor="#ffffff"
     bordercolor="#000000"
     borderopacity="0.25"
     inkscape:showpageshadow="2"
     inkscape:pageopacity="0.0"
     inkscape:pagecheckerboard="0"
     inkscape:deskcolor="#d1d1d1"
     inkscape:document-units="mm" />
  <style
     type="text/css"
     id="style2"><![CDATA[
tspan { white-space: pre; }
]]></style>
  <!-- Page: 1/1 -->
  <g
     transform="translate(4.9997121e-5,4.9076953)"
     id="g6">
    <line
       stroke-linejoin="round"
       stroke-linecap="round"
       stroke-width="0.0949"
       stroke="currentColor"
       x1="0.047400001"
       y1="0"
       x2="26.886999"
       y2="0"
       id="line4" />
  </g>
  <g
     transform="translate(4.9997121e-5,4.0576953)"
     id="g10">
    <line
       stroke-linejoin="round"
       stroke-linecap="round"
       stroke-width="0.0949"
       stroke="currentColor"
       x1="0.047400001"
       y1="0"
       x2="26.886999"
       y2="0"
       id="line8" />
  </g>
  <g
     transform="translate(4.9997121e-5,3.2076953)"
     id="g14">
    <line
       stroke-linejoin="round"
       stroke-linecap="round"
       stroke-width="0.0949"
       stroke="currentColor"
       x1="0.047400001"
       y1="0"
       x2="26.886999"
       y2="0"
       id="line12" />
  </g>
  <g
     transform="translate(4.9997121e-5,2.3576953)"
     id="g18">
    <line
       stroke-linejoin="round"
       stroke-linecap="round"
       stroke-width="0.0949"
       stroke="currentColor"
       x1="0.047400001"
       y1="0"
       x2="26.886999"
       y2="0"
       id="line16" />
  </g>
  <g
     transform="translate(4.9997121e-5,1.5076953)"
     id="g22">
    <line
       stroke-linejoin="round"
       stroke-linecap="round"
       stroke-width="0.0949"
       stroke="currentColor"
       x1="0.047400001"
       y1="0"
       x2="26.886999"
       y2="0"
       id="line20" />
  </g>
  <g
     transform="translate(26.75425,3.2076953)"
     id="g26">
    <rect
       x="0"
       y="-1.7"
       width="0.1802"
       height="3.4000001"
       ry="0.0000"
       fill="currentColor"
       id="rect24" />
  </g>
  <a
     style="color:inherit"
     xlink:href="textedit:///Users/tomsegarra/Documents/dev/dummies/lilypond_files/4f062df351d6618e0b1b9c03ce200984.ly:34:4:5"
     id="a34"
     transform="translate(-2.27615,-3.2790047)">
    <g
       transform="translate(17.3792,11.9867)"
       id="g32">
      <text
         font-family="serif"
         font-size="2.0989px"
         text-anchor="start"
         fill="currentColor"
         id="text30"><tspan
           id="tspan28">I</tspan></text>
    </g>
  </a>
  <a
     style="color:inherit"
     xlink:href="textedit:///Users/tomsegarra/Documents/dev/dummies/lilypond_files/4f062df351d6618e0b1b9c03ce200984.ly:25:5:6"
     id="a40"
     transform="translate(-2.27615,-3.2790047)">
    <g
       transform="translate(17.3792,7.4932)"
       id="g38">
      <polygon
         stroke-linejoin="round"
         stroke-linecap="round"
         stroke-width="0.08"
         fill="currentColor"
         stroke="currentColor"
         points="0.04,0.164 0.04,-0.164 4.6981,-0.164 4.6981,0.164 "
         id="polygon36" />
    </g>
  </a>
  <a
     style="color:inherit"
     xlink:href="textedit:///Users/tomsegarra/Documents/dev/dummies/lilypond_files/4f062df351d6618e0b1b9c03ce200984.ly:22:4:5"
     id="a46"
     transform="translate(-2.27615,-3.2790047)">
    <g
       transform="translate(10.7144,6.4867)"
       id="g44">
      <path
         transform="scale(0.0034,-0.0034)"
         d="m 70,205 c 80,0 46,-97 90,-97 15,0 52,45 59,59 6,13 26,13 31,0 L 129,-250 c -9,-7 -19,-11 -30,-11 -11,0 -21,4 -30,11 L 187,76 C 154,64 119,54 84,54 37,54 -3,88 -3,133 c 0,40 33,72 73,72 z"
         fill="currentColor"
         id="path42" />
    </g>
  </a>
  <g
     transform="translate(0.80005,4.0576953)"
     id="g50">
    <path
       transform="scale(0.0034,-0.0034)"
       d="m 646,2 c 0,-113 -74,-213 -180,-247 3,-34 5,-68 5,-102 0,-20 -1,-40 -2,-60 -7,-121 -91,-228 -209,-228 -108,0 -196,87 -196,196 0,58 53,104 112,104 54,0 95,-48 95,-104 0,-52 -43,-95 -95,-95 -10,0 -20,2 -29,6 26,-38 68,-63 116,-63 h 3 c 93,2 153,92 159,190 1,19 2,37 2,56 0,30 -2,60 -4,90 -5,-1 -43,-8 -88,-8 -194,0 -333,180 -333,375 0,177 130,307 246,442 -31,98 -53,170 -53,347 0,115 55,223 148,290 7,5 16,4 22,-1 68,-80 134,-243 134,-357 0,-143 -85,-255 -178,-364 21,-68 40,-137 57,-206 1,0 5,1 11,1 C 545,264 646,135 646,2 Z M 462,-202 c 66,24 111,88 111,162 0,89 -65,178 -170,190 28,-135 50,-272 59,-352 z M 75,26 c 0,-145 141,-245 263,-245 1,0 46,0 81,6 -7,65 -27,206 -61,363 -79,-8 -124,-61 -124,-119 0,-43 25,-89 80,-121 5,-5 7,-11 7,-16 0,-12 -10,-23 -22,-23 -16,0 -127,63 -127,188 0,89 58,175 161,198 -14,58 -29,116 -46,173 C 181,308 75,186 75,26 Z M 406,1042 C 307,995 244,894 244,785 c 0,-49 13,-111 38,-191 79,97 144,199 144,324 0,33 0,63 -20,124 z"
       fill="currentColor"
       id="path48" />
  </g>
  <a
     style="color:inherit"
     xlink:href="textedit:///Users/tomsegarra/Documents/dev/dummies/lilypond_files/4f062df351d6618e0b1b9c03ce200984.ly:20:1:9"
     id="a52"
     transform="translate(-2.27615,-3.2790047)" />
  <g
     transform="translate(5.00005,3.2076953)"
     id="g56">
    <path
       transform="scale(0.0034,-0.0034)"
       d="m 358,29 c -30,0 -74,23 -74,73 0,38 27,76 71,76 4,0 7,0 11,-1 -27,36 -69,59 -116,59 -106,0 -113,-74 -113,-188 0,-15 1,-31 1,-48 0,-17 -1,-33 -1,-48 0,-114 7,-188 113,-188 79,0 136,70 155,150 2,7 7,10 13,10 7,0 14,-5 14,-13 0,-21 -50,-175 -182,-175 C 191,-264 0,-244 0,0 0,63 18,264 250,264 365,264 424,155 424,99 424,60 394,29 358,29 Z"
       fill="currentColor"
       id="path54" />
  </g>
  <g
     color="#ff0000"
     id="g64"
     transform="translate(-2.27615,-3.2790047)">
    <a
       style="color:inherit"
       xlink:href="textedit:///Users/tomsegarra/Documents/dev/dummies/lilypond_files/4f062df351d6618e0b1b9c03ce200984.ly:31:4:5"
       id="a62">
      <g
         transform="translate(26.7231,6.0617)"
         id="g60">
        <path
           transform="scale(0.0034,-0.0034)"
           d="m 215,137 c 67,0 111,-37 111,-92 0,-90 -111,-182 -215,-182 -67,0 -111,37 -111,92 0,90 111,182 215,182 z"
           fill="currentColor"
           id="path58" />
      </g>
    </a>
  </g>
  <a
     style="color:inherit"
     xlink:href="textedit:///Users/tomsegarra/Documents/dev/dummies/lilypond_files/4f062df351d6618e0b1b9c03ce200984.ly:34:12:13"
     id="a72"
     transform="translate(-2.27615,-3.2790047)">
    <g
       transform="translate(25.9452,11.9867)"
       id="g70">
      <text
         font-family="serif"
         font-size="2.0989px"
         text-anchor="start"
         fill="currentColor"
         id="text68"><tspan
           id="tspan66">ver</tspan></text>
    </g>
  </a>
  <g
     color="#ff0000"
     id="g78"
     transform="translate(-2.27615,-3.2790047)">
    <g
       transform="translate(26.7847,6.4867)"
       id="g76">
      <rect
         x="-0.061700001"
         y="-0.27250001"
         width="0.1233"
         height="2.8225"
         ry="0.039999999"
         fill="currentColor"
         id="rect74" />
    </g>
  </g>
  <g
     color="#ff0000"
     id="g84"
     transform="translate(-2.27615,-3.2790047)">
    <g
       transform="translate(26.8464,8.9967)"
       id="g82">
      <path
         transform="scale(0.0034,-0.0034)"
         d="M 0,0 H -18 V 250 H 0 Z m 0,0 v 250 c 96,59 222,149 222,259 0,57 -15,111 -40,162 -3,17 10,29 24,29 8,0 16,-5 21,-13 25,-56 40,-116 40,-178 C 267,306 0,203 0,0 Z"
         fill="currentColor"
         id="path80" />
    </g>
  </g>
  <a
     style="color:inherit"
     xlink:href="textedit:///Users/tomsegarra/Documents/dev/dummies/lilypond_files/4f062df351d6618e0b1b9c03ce200984.ly:22:7:8"
     id="a90"
     transform="translate(-2.27615,-3.2790047)">
    <g
       transform="translate(11.0777,8.0301)"
       id="g88">
      <polygon
         stroke-linejoin="round"
         stroke-linecap="round"
         stroke-width="0.08"
         fill="currentColor"
         stroke="currentColor"
         points="0.04,0.164 0.04,-0.164 4.0774,-0.164 4.0774,0.164 "
         id="polygon86" />
    </g>
  </a>
  <g
     color="#000000"
     id="g96"
     transform="translate(-2.27615,-3.2790047)">
    <g
       transform="translate(24.4246,8.5717)"
       id="g94">
      <path
         transform="scale(0.0034,-0.0034)"
         d="M 0,0 H -18 V 250 H 0 Z m 0,0 v 250 c 96,59 222,149 222,259 0,57 -15,111 -40,162 -3,17 10,29 24,29 8,0 16,-5 21,-13 25,-56 40,-116 40,-178 C 267,306 0,203 0,0 Z"
         fill="currentColor"
         id="path92" />
    </g>
  </g>
  <a
     style="color:inherit"
     xlink:href="textedit:///Users/tomsegarra/Documents/dev/dummies/lilypond_files/4f062df351d6618e0b1b9c03ce200984.ly:22:8:9"
     id="a102"
     transform="translate(-2.27615,-3.2790047)">
    <g
       transform="translate(12.7644,5.2117)"
       id="g100">
      <path
         transform="scale(0.0034,-0.0034)"
         d="m 215,137 c 67,0 111,-37 111,-92 0,-90 -111,-182 -215,-182 -67,0 -111,37 -111,92 0,90 111,182 215,182 z"
         fill="currentColor"
         id="path98" />
    </g>
  </a>
  <g
     transform="translate(10.54985,3.2076953)"
     id="g106">
    <rect
       x="-0.061700001"
       y="-1.1224999"
       width="0.1233"
       height="2.6659999"
       ry="0.039999999"
       fill="currentColor"
       id="rect104" />
  </g>
  <a
     style="color:inherit"
     xlink:href="textedit:///Users/tomsegarra/Documents/dev/dummies/lilypond_files/4f062df351d6618e0b1b9c03ce200984.ly:22:12:13"
     id="a112"
     transform="translate(-2.27615,-3.2790047)">
    <g
       transform="translate(15.0718,5.2117)"
       id="g110">
      <path
         transform="scale(0.0034,-0.0034)"
         d="m 215,137 c 67,0 111,-37 111,-92 0,-90 -111,-182 -215,-182 -67,0 -111,37 -111,92 0,90 111,182 215,182 z"
         fill="currentColor"
         id="path108" />
    </g>
  </a>
  <g
     transform="translate(12.85725,3.2076953)"
     id="g116">
    <rect
       x="-0.061700001"
       y="-1.1224999"
       width="0.1233"
       height="2.6659999"
       ry="0.039999999"
       fill="currentColor"
       id="rect114" />
  </g>
  <g
     color="#000000"
     id="g122"
     transform="translate(-2.27615,-3.2790047)">
    <g
       transform="translate(24.363,6.4867)"
       id="g120">
      <rect
         x="-0.061700001"
         y="-0.69749999"
         width="0.1233"
         height="2.8225"
         ry="0.039999999"
         fill="currentColor"
         id="rect118" />
    </g>
  </g>
  <g
     color="#ff0000"
     id="g130"
     transform="translate(-2.27615,-3.2790047)">
    <a
       style="color:inherit"
       xlink:href="textedit:///Users/tomsegarra/Documents/dev/dummies/lilypond_files/4f062df351d6618e0b1b9c03ce200984.ly:25:4:5"
       id="a128">
      <g
         transform="translate(17.3792,5.2117)"
         id="g126">
        <path
           transform="scale(0.0034,-0.0034)"
           d="m 215,137 c 67,0 111,-37 111,-92 0,-90 -111,-182 -215,-182 -67,0 -111,37 -111,92 0,90 111,182 215,182 z"
           fill="currentColor"
           id="path124" />
      </g>
    </a>
  </g>
  <g
     color="#ff0000"
     id="g136"
     transform="translate(-2.27615,-3.2790047)">
    <g
       transform="translate(17.4408,6.4867)"
       id="g134">
      <rect
         x="-0.061700001"
         y="-1.1224999"
         width="0.1233"
         height="2.1291001"
         ry="0.039999999"
         fill="currentColor"
         id="rect132" />
    </g>
  </g>
  <a
     style="color:inherit"
     xlink:href="textedit:///Users/tomsegarra/Documents/dev/dummies/lilypond_files/4f062df351d6618e0b1b9c03ce200984.ly:34:6:7"
     id="a144"
     transform="translate(-2.27615,-3.2790047)">
    <g
       transform="translate(23.8648,11.9867)"
       id="g142">
      <text
         font-family="serif"
         font-size="2.0989px"
         text-anchor="start"
         fill="currentColor"
         id="text140"><tspan
           id="tspan138">ne</tspan></text>
    </g>
  </a>
  <g
     color="#ff0000"
     id="g152"
     transform="translate(-2.27615,-3.2790047)">
    <a
       style="color:inherit"
       xlink:href="textedit:///Users/tomsegarra/Documents/dev/dummies/lilypond_files/4f062df351d6618e0b1b9c03ce200984.ly:25:7:8"
       id="a150">
      <g
         transform="translate(19.6865,4.7867)"
         id="g148">
        <path
           transform="scale(0.0034,-0.0034)"
           d="m 215,137 c 67,0 111,-37 111,-92 0,-90 -111,-182 -215,-182 -67,0 -111,37 -111,92 0,90 111,182 215,182 z"
           fill="currentColor"
           id="path146" />
      </g>
    </a>
  </g>
  <g
     color="#ff0000"
     id="g158"
     transform="translate(-2.27615,-3.2790047)">
    <g
       transform="translate(19.7482,6.4867)"
       id="g156">
      <rect
         x="-0.061700001"
         y="-1.5475"
         width="0.1233"
         height="2.5541"
         ry="0.039999999"
         fill="currentColor"
         id="rect154" />
    </g>
  </g>
  <g
     color="#000000"
     id="g166"
     transform="translate(-2.27615,-3.2790047)">
    <a
       style="color:inherit"
       xlink:href="textedit:///Users/tomsegarra/Documents/dev/dummies/lilypond_files/4f062df351d6618e0b1b9c03ce200984.ly:28:4:5"
       id="a164">
      <g
         transform="translate(24.3013,5.6367)"
         id="g162">
        <path
           transform="scale(0.0034,-0.0034)"
           d="m 215,137 c 67,0 111,-37 111,-92 0,-90 -111,-182 -215,-182 -67,0 -111,37 -111,92 0,90 111,182 215,182 z"
           fill="currentColor"
           id="path160" />
      </g>
    </a>
  </g>
  <g
     color="#ff0000"
     id="g174"
     transform="translate(-2.27615,-3.2790047)">
    <a
       style="color:inherit"
       xlink:href="textedit:///Users/tomsegarra/Documents/dev/dummies/lilypond_files/4f062df351d6618e0b1b9c03ce200984.ly:25:11:12"
       id="a172">
      <g
         transform="translate(21.9939,5.2117)"
         id="g170">
        <path
           transform="scale(0.0034,-0.0034)"
           d="m 215,137 c 67,0 111,-37 111,-92 0,-90 -111,-182 -215,-182 -67,0 -111,37 -111,92 0,90 111,182 215,182 z"
           fill="currentColor"
           id="path168" />
      </g>
    </a>
  </g>
  <g
     color="#ff0000"
     id="g180"
     transform="translate(-2.27615,-3.2790047)">
    <g
       transform="translate(22.0556,6.4867)"
       id="g178">
      <rect
         x="-0.061700001"
         y="-1.1224999"
         width="0.1233"
         height="2.1291001"
         ry="0.039999999"
         fill="currentColor"
         id="rect176" />
    </g>
  </g>
</svg>
