<?xml version="1.0" encoding="UTF-8" standalone="no"?>
<svg
   version="1.2"
   width="145.43808mm"
   height="13.623776mm"
   viewBox="0 0 82.761223 7.7526811"
   id="svg534"
   sodipodi:docname="4fd9d3b24f2b9293ce747288301ea6df.svg"
   xmlns:inkscape="http://www.inkscape.org/namespaces/inkscape"
   xmlns:sodipodi="http://sodipodi.sourceforge.net/DTD/sodipodi-0.dtd"
   xmlns:xlink="http://www.w3.org/1999/xlink"
   xmlns="http://www.w3.org/2000/svg"
   xmlns:svg="http://www.w3.org/2000/svg">
  <defs
     id="defs538" />
  <sodipodi:namedview
     id="namedview536"
     pagecolor="#ffffff"
     bordercolor="#000000"
     borderopacity="0.25"
     inkscape:showpageshadow="2"
     inkscape:pageopacity="0.0"
     inkscape:pagecheckerboard="0"
     inkscape:deskcolor="#d1d1d1"
     inkscape:document-units="mm" />
  <style
     type="text/css"
     id="style2"><![CDATA[
tspan { white-space: pre; }
]]></style>
  <!-- Page: 1/1 -->
  <g
     transform="translate(26.402181,4.7436812)"
     id="g6">
    <rect
       x="0"
       y="-1.7"
       width="0.1802"
       height="3.4000001"
       ry="0.0000"
       fill="currentColor"
       id="rect4" />
  </g>
  <g
     transform="translate(-5.1886443e-4,6.4436812)"
     id="g10">
    <line
       stroke-linejoin="round"
       stroke-linecap="round"
       stroke-width="0.0949"
       stroke="currentColor"
       x1="0.047400001"
       y1="0"
       x2="82.714798"
       y2="0"
       id="line8" />
  </g>
  <g
     transform="translate(-5.1886443e-4,5.5936812)"
     id="g14">
    <line
       stroke-linejoin="round"
       stroke-linecap="round"
       stroke-width="0.0949"
       stroke="currentColor"
       x1="0.047400001"
       y1="0"
       x2="82.714798"
       y2="0"
       id="line12" />
  </g>
  <g
     transform="translate(-5.1886443e-4,4.7436812)"
     id="g18">
    <line
       stroke-linejoin="round"
       stroke-linecap="round"
       stroke-width="0.0949"
       stroke="currentColor"
       x1="0.047400001"
       y1="0"
       x2="82.714798"
       y2="0"
       id="line16" />
  </g>
  <g
     transform="translate(-5.1886443e-4,3.8936812)"
     id="g22">
    <line
       stroke-linejoin="round"
       stroke-linecap="round"
       stroke-width="0.0949"
       stroke="currentColor"
       x1="0.047400001"
       y1="0"
       x2="82.714798"
       y2="0"
       id="line20" />
  </g>
  <g
     transform="translate(-5.1886443e-4,3.0436812)"
     id="g26">
    <line
       stroke-linejoin="round"
       stroke-linecap="round"
       stroke-width="0.0949"
       stroke="currentColor"
       x1="0.047400001"
       y1="0"
       x2="82.714798"
       y2="0"
       id="line24" />
  </g>
  <g
     transform="translate(82.581481,4.7436812)"
     id="g30">
    <rect
       x="0"
       y="-1.7"
       width="0.1802"
       height="3.4000001"
       ry="0.0000"
       fill="currentColor"
       id="rect28" />
  </g>
  <g
     transform="translate(64.706881,4.7436812)"
     id="g34">
    <rect
       x="0"
       y="-1.7"
       width="0.1802"
       height="3.4000001"
       ry="0.0000"
       fill="currentColor"
       id="rect32" />
  </g>
  <g
     transform="translate(45.532281,4.7436812)"
     id="g38">
    <rect
       x="0"
       y="-1.7"
       width="0.1802"
       height="3.4000001"
       ry="0.0000"
       fill="currentColor"
       id="rect36" />
  </g>
  <g
     transform="translate(8.4376811,7.1371812)"
     id="g42">
    <polygon
       stroke-linejoin="round"
       stroke-linecap="round"
       stroke-width="0.08"
       fill="currentColor"
       stroke="currentColor"
       points="0.04,0.164 0.04,-0.164 2.3907,-0.164 2.3907,0.164 "
       id="polygon40" />
  </g>
  <a
     style="color:inherit"
     xlink:href="textedit:///Users/tomsegarra/Documents/dev/dummies/lilypond_files/4fd9d3b24f2b9293ce747288301ea6df.ly:26:8:9"
     id="a48"
     transform="translate(-2.2767189,-3.2762188)">
    <g
       transform="translate(17.3792,10.4134)"
       id="g46">
      <polygon
         stroke-linejoin="round"
         stroke-linecap="round"
         stroke-width="0.08"
         fill="currentColor"
         stroke="currentColor"
         points="0.04,0.164 0.04,-0.164 4.6981,-0.7009 4.6981,-0.3729 "
         id="polygon44" />
    </g>
  </a>
  <a
     style="color:inherit"
     xlink:href="textedit:///Users/tomsegarra/Documents/dev/dummies/lilypond_files/4fd9d3b24f2b9293ce747288301ea6df.ly:19:12:13"
     id="a62"
     transform="translate(-2.2767189,-3.2762188)">
    <g
       transform="translate(10.7144,4.9225)"
       id="g54">
      <text
         font-family="sans-serif"
         font-size="2.224px"
         text-anchor="start"
         fill="currentColor"
         id="text52"><tspan
           id="tspan50">A</tspan></text>
    </g>
    <g
       transform="translate(12.2508,4.9225)"
       id="g60">
      <text
         font-family="sans-serif"
         font-size="2.224px"
         text-anchor="start"
         fill="currentColor"
         id="text58"><tspan
           id="tspan56">m</tspan></text>
    </g>
  </a>
  <a
     style="color:inherit"
     xlink:href="textedit:///Users/tomsegarra/Documents/dev/dummies/lilypond_files/4fd9d3b24f2b9293ce747288301ea6df.ly:23:4:5"
     id="a68"
     transform="translate(-2.2767189,-3.2762188)">
    <g
       transform="translate(10.7144,7.5949)"
       id="g66">
      <path
         transform="scale(0.0034,-0.0034)"
         d="m 215,137 c 67,0 111,-37 111,-92 0,-90 -111,-182 -215,-182 -67,0 -111,37 -111,92 0,90 111,182 215,182 z"
         fill="currentColor"
         id="path64" />
    </g>
  </a>
  <g
     transform="translate(0.79948114,5.5936812)"
     id="g72">
    <path
       transform="scale(0.0034,-0.0034)"
       d="m 646,2 c 0,-113 -74,-213 -180,-247 3,-34 5,-68 5,-102 0,-20 -1,-40 -2,-60 -7,-121 -91,-228 -209,-228 -108,0 -196,87 -196,196 0,58 53,104 112,104 54,0 95,-48 95,-104 0,-52 -43,-95 -95,-95 -10,0 -20,2 -29,6 26,-38 68,-63 116,-63 h 3 c 93,2 153,92 159,190 1,19 2,37 2,56 0,30 -2,60 -4,90 -5,-1 -43,-8 -88,-8 -194,0 -333,180 -333,375 0,177 130,307 246,442 -31,98 -53,170 -53,347 0,115 55,223 148,290 7,5 16,4 22,-1 68,-80 134,-243 134,-357 0,-143 -85,-255 -178,-364 21,-68 40,-137 57,-206 1,0 5,1 11,1 C 545,264 646,135 646,2 Z M 462,-202 c 66,24 111,88 111,162 0,89 -65,178 -170,190 28,-135 50,-272 59,-352 z M 75,26 c 0,-145 141,-245 263,-245 1,0 46,0 81,6 -7,65 -27,206 -61,363 -79,-8 -124,-61 -124,-119 0,-43 25,-89 80,-121 5,-5 7,-11 7,-16 0,-12 -10,-23 -22,-23 -16,0 -127,63 -127,188 0,89 58,175 161,198 -14,58 -29,116 -46,173 C 181,308 75,186 75,26 Z M 406,1042 C 307,995 244,894 244,785 c 0,-49 13,-111 38,-191 79,97 144,199 144,324 0,33 0,63 -20,124 z"
       fill="currentColor"
       id="path70" />
  </g>
  <a
     style="color:inherit"
     xlink:href="textedit:///Users/tomsegarra/Documents/dev/dummies/lilypond_files/4fd9d3b24f2b9293ce747288301ea6df.ly:22:1:9"
     id="a74"
     transform="translate(-2.2767189,-3.2762188)" />
  <g
     transform="translate(4.9994811,4.7436812)"
     id="g78">
    <path
       transform="scale(0.0034,-0.0034)"
       d="m 358,29 c -30,0 -74,23 -74,73 0,38 27,76 71,76 4,0 7,0 11,-1 -27,36 -69,59 -116,59 -106,0 -113,-74 -113,-188 0,-15 1,-31 1,-48 0,-17 -1,-33 -1,-48 0,-114 7,-188 113,-188 79,0 136,70 155,150 2,7 7,10 13,10 7,0 14,-5 14,-13 0,-21 -50,-175 -182,-175 C 191,-264 0,-244 0,0 0,63 18,264 250,264 365,264 424,155 424,99 424,60 394,29 358,29 Z"
       fill="currentColor"
       id="path76" />
  </g>
  <g
     transform="translate(8.4992811,4.7436812)"
     id="g82">
    <rect
       x="-0.061700001"
       y="-0.27250001"
       width="0.1233"
       height="2.6659999"
       ry="0.039999999"
       fill="currentColor"
       id="rect80" />
  </g>
  <g
     transform="translate(22.024581,6.6002812)"
     id="g86">
    <polygon
       stroke-linejoin="round"
       stroke-linecap="round"
       stroke-width="0.08"
       fill="currentColor"
       stroke="currentColor"
       points="0.04,0.164 0.04,-0.164 2.3907,-0.4771 2.3907,-0.1491 "
       id="polygon84" />
  </g>
  <a
     style="color:inherit"
     xlink:href="textedit:///Users/tomsegarra/Documents/dev/dummies/lilypond_files/4fd9d3b24f2b9293ce747288301ea6df.ly:29:22:23"
     id="a92"
     transform="translate(-2.2767189,-3.2762188)">
    <g
       transform="translate(43.4516,8.0199)"
       id="g90">
      <path
         transform="scale(0.0034,-0.0034)"
         d="m 70,205 c 80,0 46,-97 90,-97 15,0 52,45 59,59 6,13 26,13 31,0 L 129,-250 c -9,-7 -19,-11 -30,-11 -11,0 -21,4 -30,11 L 187,76 C 154,64 119,54 84,54 37,54 -3,88 -3,133 c 0,40 33,72 73,72 z"
         fill="currentColor"
         id="path88" />
    </g>
  </a>
  <g
     transform="translate(27.587981,7.2936812)"
     id="g96">
    <polygon
       stroke-linejoin="round"
       stroke-linecap="round"
       stroke-width="0.08"
       fill="currentColor"
       stroke="currentColor"
       points="0.04,0.164 0.04,-0.164 2.3907,-0.164 2.3907,0.164 "
       id="polygon94" />
  </g>
  <g
     color="#000000"
     id="g104"
     transform="translate(-2.2767189,-3.2762188)">
    <a
       style="color:inherit"
       xlink:href="textedit:///Users/tomsegarra/Documents/dev/dummies/lilypond_files/4fd9d3b24f2b9293ce747288301ea6df.ly:29:24:25"
       id="a102">
      <g
         transform="translate(45.5016,8.0199)"
         id="g100">
        <path
           transform="scale(0.0034,-0.0034)"
           d="m 215,137 c 67,0 111,-37 111,-92 0,-90 -111,-182 -215,-182 -67,0 -111,37 -111,92 0,90 111,182 215,182 z"
           fill="currentColor"
           id="path98" />
      </g>
    </a>
  </g>
  <g
     color="#000000"
     id="g110"
     transform="translate(-2.2767189,-3.2762188)">
    <g
       transform="translate(45.5633,8.0199)"
       id="g108">
      <rect
         x="-0.061700001"
         y="0.1525"
         width="0.1233"
         height="2.7163"
         ry="0.039999999"
         fill="currentColor"
         id="rect106" />
    </g>
  </g>
  <g
     color="#000000"
     id="g116"
     transform="translate(-2.2767189,-3.2762188)">
    <g
       transform="translate(45.6249,10.8487)"
       id="g114">
      <path
         transform="scale(0.0034,-0.0034)"
         d="M 0,0 H -18 V 250 H 0 Z m 0,0 v 250 c 96,59 222,149 222,259 0,57 -15,111 -40,162 -3,17 10,29 24,29 8,0 16,-5 21,-13 25,-56 40,-116 40,-178 C 267,306 0,203 0,0 Z"
         fill="currentColor"
         id="path112" />
    </g>
  </g>
  <g
     transform="translate(36.560081,7.2936812)"
     id="g120">
    <polygon
       stroke-linejoin="round"
       stroke-linecap="round"
       stroke-width="0.08"
       fill="currentColor"
       stroke="currentColor"
       points="0.04,0.164 0.04,-0.164 2.3907,-0.164 2.3907,0.164 "
       id="polygon118" />
  </g>
  <g
     transform="translate(46.742381,7.1371812)"
     id="g124">
    <polygon
       stroke-linejoin="round"
       stroke-linecap="round"
       stroke-width="0.08"
       fill="currentColor"
       stroke="currentColor"
       points="0.04,0.164 0.04,-0.164 2.3907,-0.164 2.3907,0.164 "
       id="polygon122" />
  </g>
  <a
     style="color:inherit"
     xlink:href="textedit:///Users/tomsegarra/Documents/dev/dummies/lilypond_files/4fd9d3b24f2b9293ce747288301ea6df.ly:19:19:20"
     id="a138"
     transform="translate(-2.2767189,-3.2762188)">
    <g
       transform="translate(49.0191,4.9225)"
       id="g130">
      <text
         font-family="sans-serif"
         font-size="2.224px"
         text-anchor="start"
         fill="currentColor"
         id="text128"><tspan
           id="tspan126">A</tspan></text>
    </g>
    <g
       transform="translate(50.5555,4.9225)"
       id="g136">
      <text
         font-family="sans-serif"
         font-size="2.224px"
         text-anchor="start"
         fill="currentColor"
         id="text134"><tspan
           id="tspan132">m</tspan></text>
    </g>
  </a>
  <g
     color="#000000"
     id="g146"
     transform="translate(-2.2767189,-3.2762188)">
    <a
       style="color:inherit"
       xlink:href="textedit:///Users/tomsegarra/Documents/dev/dummies/lilypond_files/4fd9d3b24f2b9293ce747288301ea6df.ly:29:29:30"
       id="a144">
      <g
         transform="translate(49.0191,7.5949)"
         id="g142">
        <path
           transform="scale(0.0034,-0.0034)"
           d="m 215,137 c 67,0 111,-37 111,-92 0,-90 -111,-182 -215,-182 -67,0 -111,37 -111,92 0,90 111,182 215,182 z"
           fill="currentColor"
           id="path140" />
      </g>
    </a>
  </g>
  <g
     color="#000000"
     id="g152"
     transform="translate(-2.2767189,-3.2762188)">
    <g
       transform="translate(49.0807,8.0199)"
       id="g150">
      <rect
         x="-0.061700001"
         y="-0.27250001"
         width="0.1233"
         height="2.6659999"
         ry="0.039999999"
         fill="currentColor"
         id="rect148" />
    </g>
  </g>
  <g
     transform="translate(55.714481,6.4436812)"
     id="g156">
    <polygon
       stroke-linejoin="round"
       stroke-linecap="round"
       stroke-width="0.08"
       fill="currentColor"
       stroke="currentColor"
       points="0.04,0.164 0.04,-0.164 7.0055,-0.164 7.0055,0.164 "
       id="polygon154" />
  </g>
  <g
     color="#000000"
     id="g164"
     transform="translate(-2.2767189,-3.2762188)">
    <a
       style="color:inherit"
       xlink:href="textedit:///Users/tomsegarra/Documents/dev/dummies/lilypond_files/4fd9d3b24f2b9293ce747288301ea6df.ly:29:33:34"
       id="a162">
      <g
         transform="translate(51.3265,7.5949)"
         id="g160">
        <path
           transform="scale(0.0034,-0.0034)"
           d="m 215,137 c 67,0 111,-37 111,-92 0,-90 -111,-182 -215,-182 -67,0 -111,37 -111,92 0,90 111,182 215,182 z"
           fill="currentColor"
           id="path158" />
      </g>
    </a>
  </g>
  <g
     color="#000000"
     id="g170"
     transform="translate(-2.2767189,-3.2762188)">
    <g
       transform="translate(51.3881,8.0199)"
       id="g168">
      <rect
         x="-0.061700001"
         y="-0.27250001"
         width="0.1233"
         height="2.6659999"
         ry="0.039999999"
         fill="currentColor"
         id="rect166" />
    </g>
  </g>
  <g
     transform="translate(66.771181,2.3502812)"
     id="g174">
    <polygon
       stroke-linejoin="round"
       stroke-linecap="round"
       stroke-width="0.08"
       fill="currentColor"
       stroke="currentColor"
       points="0.04,0.164 0.04,-0.164 2.3907,-0.164 2.3907,0.164 "
       id="polygon172" />
  </g>
  <a
     style="color:inherit"
     xlink:href="textedit:///Users/tomsegarra/Documents/dev/dummies/lilypond_files/4fd9d3b24f2b9293ce747288301ea6df.ly:29:37:38"
     id="a180"
     transform="translate(-2.2767189,-3.2762188)">
    <g
       transform="translate(53.6339,8.0199)"
       id="g178">
      <path
         transform="scale(0.0034,-0.0034)"
         d="m 70,205 c 80,0 46,-97 90,-97 15,0 52,45 59,59 6,13 26,13 31,0 L 129,-250 c -9,-7 -19,-11 -30,-11 -11,0 -21,4 -30,11 L 187,76 C 154,64 119,54 84,54 37,54 -3,88 -3,133 c 0,40 33,72 73,72 z"
         fill="currentColor"
         id="path176" />
    </g>
  </a>
  <g
     transform="translate(75.743381,2.3502812)"
     id="g184">
    <polygon
       stroke-linejoin="round"
       stroke-linecap="round"
       stroke-width="0.08"
       fill="currentColor"
       stroke="currentColor"
       points="0.04,0.164 0.04,-0.164 2.3907,-0.164 2.3907,0.164 "
       id="polygon182" />
  </g>
  <g
     color="#ff0000"
     id="g192"
     transform="translate(-2.2767189,-3.2762188)">
    <a
       style="color:inherit"
       xlink:href="textedit:///Users/tomsegarra/Documents/dev/dummies/lilypond_files/4fd9d3b24f2b9293ce747288301ea6df.ly:32:4:5"
       id="a190">
      <g
         transform="translate(55.6839,7.5949)"
         id="g188">
        <path
           transform="scale(0.0034,-0.0034)"
           d="m 215,137 c 67,0 111,-37 111,-92 0,-90 -111,-182 -215,-182 -67,0 -111,37 -111,92 0,90 111,182 215,182 z"
           fill="currentColor"
           id="path186" />
      </g>
    </a>
  </g>
  <g
     color="#ff0000"
     id="g198"
     transform="translate(-2.2767189,-3.2762188)">
    <g
       transform="translate(55.7455,8.0199)"
       id="g196">
      <rect
         x="-0.061700001"
         y="-0.27250001"
         width="0.1233"
         height="2.8225"
         ry="0.039999999"
         fill="currentColor"
         id="rect194" />
    </g>
  </g>
  <g
     color="#ff0000"
     id="g204"
     transform="translate(-2.2767189,-3.2762188)">
    <g
       transform="translate(55.8072,10.5299)"
       id="g202">
      <path
         transform="scale(0.0034,-0.0034)"
         d="M 0,0 H -18 V 250 H 0 Z m 0,0 v 250 c 96,59 222,149 222,259 0,57 -15,111 -40,162 -3,17 10,29 24,29 8,0 16,-5 21,-13 25,-56 40,-116 40,-178 C 267,306 0,203 0,0 Z"
         fill="currentColor"
         id="path200" />
    </g>
  </g>
  <g
     color="#ff0000"
     id="g212"
     transform="translate(-2.2767189,-3.2762188)">
    <a
       style="color:inherit"
       xlink:href="textedit:///Users/tomsegarra/Documents/dev/dummies/lilypond_files/4fd9d3b24f2b9293ce747288301ea6df.ly:32:8:9"
       id="a210">
      <g
         transform="translate(57.9912,7.1699)"
         id="g208">
        <path
           transform="scale(0.0034,-0.0034)"
           d="m 215,137 c 67,0 111,-37 111,-92 0,-90 -111,-182 -215,-182 -67,0 -111,37 -111,92 0,90 111,182 215,182 z"
           fill="currentColor"
           id="path206" />
      </g>
    </a>
  </g>
  <g
     color="#ff0000"
     id="g218"
     transform="translate(-2.2767189,-3.2762188)">
    <g
       transform="translate(58.0529,8.0199)"
       id="g216">
      <rect
         x="-0.061700001"
         y="-0.69749999"
         width="0.1233"
         height="2.3975"
         ry="0.039999999"
         fill="currentColor"
         id="rect214" />
    </g>
  </g>
  <g
     color="#ff0000"
     id="g226"
     transform="translate(-2.2767189,-3.2762188)">
    <a
       style="color:inherit"
       xlink:href="textedit:///Users/tomsegarra/Documents/dev/dummies/lilypond_files/4fd9d3b24f2b9293ce747288301ea6df.ly:32:12:13"
       id="a224">
      <g
         transform="translate(60.2986,6.7449)"
         id="g222">
        <path
           transform="scale(0.0034,-0.0034)"
           d="m 215,137 c 67,0 111,-37 111,-92 0,-90 -111,-182 -215,-182 -67,0 -111,37 -111,92 0,90 111,182 215,182 z"
           fill="currentColor"
           id="path220" />
      </g>
    </a>
  </g>
  <g
     color="#ff0000"
     id="g232"
     transform="translate(-2.2767189,-3.2762188)">
    <g
       transform="translate(60.3603,8.0199)"
       id="g230">
      <rect
         x="-0.061700001"
         y="-1.1224999"
         width="0.1233"
         height="2.8225"
         ry="0.039999999"
         fill="currentColor"
         id="rect228" />
    </g>
  </g>
  <g
     color="#ff0000"
     id="g240"
     transform="translate(-2.2767189,-3.2762188)">
    <a
       style="color:inherit"
       xlink:href="textedit:///Users/tomsegarra/Documents/dev/dummies/lilypond_files/4fd9d3b24f2b9293ce747288301ea6df.ly:32:14:15"
       id="a238">
      <g
         transform="translate(62.606,7.1699)"
         id="g236">
        <path
           transform="scale(0.0034,-0.0034)"
           d="m 215,137 c 67,0 111,-37 111,-92 0,-90 -111,-182 -215,-182 -67,0 -111,37 -111,92 0,90 111,182 215,182 z"
           fill="currentColor"
           id="path234" />
      </g>
    </a>
  </g>
  <g
     color="#ff0000"
     id="g246"
     transform="translate(-2.2767189,-3.2762188)">
    <g
       transform="translate(62.6677,8.0199)"
       id="g244">
      <rect
         x="-0.061700001"
         y="-0.69749999"
         width="0.1233"
         height="2.3975"
         ry="0.039999999"
         fill="currentColor"
         id="rect242" />
    </g>
  </g>
  <g
     color="#000000"
     id="g252"
     transform="translate(-2.2767189,-3.2762188)">
    <g
       transform="translate(41.2059,8.0199)"
       id="g250">
      <rect
         x="-0.061700001"
         y="0.1525"
         width="0.1233"
         height="2.3975"
         ry="0.039999999"
         fill="currentColor"
         id="rect248" />
    </g>
  </g>
  <g
     color="#000000"
     id="g260"
     transform="translate(-2.2767189,-3.2762188)">
    <a
       style="color:inherit"
       xlink:href="textedit:///Users/tomsegarra/Documents/dev/dummies/lilypond_files/4fd9d3b24f2b9293ce747288301ea6df.ly:35:4:5"
       id="a258">
      <g
         transform="translate(64.9134,6.7449)"
         id="g256">
        <path
           transform="scale(0.0034,-0.0034)"
           d="m 215,137 c 67,0 111,-37 111,-92 0,-90 -111,-182 -215,-182 -67,0 -111,37 -111,92 0,90 111,182 215,182 z"
           fill="currentColor"
           id="path254" />
      </g>
    </a>
  </g>
  <g
     color="#000000"
     id="g266"
     transform="translate(-2.2767189,-3.2762188)">
    <g
       transform="translate(64.9751,8.0199)"
       id="g264">
      <rect
         x="-0.061700001"
         y="-1.1224999"
         width="0.1233"
         height="2.8225"
         ry="0.039999999"
         fill="currentColor"
         id="rect262" />
    </g>
  </g>
  <g
     color="#000000"
     id="g274"
     transform="translate(-2.2767189,-3.2762188)">
    <a
       style="color:inherit"
       xlink:href="textedit:///Users/tomsegarra/Documents/dev/dummies/lilypond_files/4fd9d3b24f2b9293ce747288301ea6df.ly:29:20:21"
       id="a272">
      <g
         transform="translate(41.1442,8.0199)"
         id="g270">
        <path
           transform="scale(0.0034,-0.0034)"
           d="m 215,137 c 67,0 111,-37 111,-92 0,-90 -111,-182 -215,-182 -67,0 -111,37 -111,92 0,90 111,182 215,182 z"
           fill="currentColor"
           id="path268" />
      </g>
    </a>
  </g>
  <a
     style="color:inherit"
     xlink:href="textedit:///Users/tomsegarra/Documents/dev/dummies/lilypond_files/4fd9d3b24f2b9293ce747288301ea6df.ly:19:23:24"
     id="a282"
     transform="translate(-2.2767189,-3.2762188)">
    <g
       transform="translate(68.0638,4.9225)"
       id="g280">
      <text
         font-family="sans-serif"
         font-size="2.224px"
         text-anchor="start"
         fill="currentColor"
         id="text278"><tspan
           id="tspan276">F</tspan></text>
    </g>
  </a>
  <g
     color="#000000"
     id="g290"
     transform="translate(-2.2767189,-3.2762188)">
    <a
       style="color:inherit"
       xlink:href="textedit:///Users/tomsegarra/Documents/dev/dummies/lilypond_files/4fd9d3b24f2b9293ce747288301ea6df.ly:35:10:11"
       id="a288">
      <g
         transform="translate(68.0638,8.4449)"
         id="g286">
        <path
           transform="scale(0.0034,-0.0034)"
           d="m 215,137 c 67,0 111,-37 111,-92 0,-90 -111,-182 -215,-182 -67,0 -111,37 -111,92 0,90 111,182 215,182 z"
           fill="currentColor"
           id="path284" />
      </g>
    </a>
  </g>
  <g
     color="#000000"
     id="g296"
     transform="translate(-2.2767189,-3.2762188)">
    <g
       transform="translate(69.1096,8.0199)"
       id="g294">
      <rect
         x="-0.061700001"
         y="-2.3934"
         width="0.1233"
         height="2.6659999"
         ry="0.039999999"
         fill="currentColor"
         id="rect292" />
    </g>
  </g>
  <g
     color="#000000"
     id="g304"
     transform="translate(-2.2767189,-3.2762188)">
    <a
       style="color:inherit"
       xlink:href="textedit:///Users/tomsegarra/Documents/dev/dummies/lilypond_files/4fd9d3b24f2b9293ce747288301ea6df.ly:35:13:14"
       id="a302">
      <g
         transform="translate(70.3712,8.4449)"
         id="g300">
        <path
           transform="scale(0.0034,-0.0034)"
           d="m 215,137 c 67,0 111,-37 111,-92 0,-90 -111,-182 -215,-182 -67,0 -111,37 -111,92 0,90 111,182 215,182 z"
           fill="currentColor"
           id="path298" />
      </g>
    </a>
  </g>
  <g
     color="#000000"
     id="g310"
     transform="translate(-2.2767189,-3.2762188)">
    <g
       transform="translate(71.4169,8.0199)"
       id="g308">
      <rect
         x="-0.061700001"
         y="-2.3934"
         width="0.1233"
         height="2.6659999"
         ry="0.039999999"
         fill="currentColor"
         id="rect306" />
    </g>
  </g>
  <a
     style="color:inherit"
     xlink:href="textedit:///Users/tomsegarra/Documents/dev/dummies/lilypond_files/4fd9d3b24f2b9293ce747288301ea6df.ly:35:15:16"
     id="a316"
     transform="translate(-2.2767189,-3.2762188)">
    <g
       transform="translate(72.6786,8.0199)"
       id="g314">
      <path
         transform="scale(0.0034,-0.0034)"
         d="m 70,205 c 80,0 46,-97 90,-97 15,0 52,45 59,59 6,13 26,13 31,0 L 129,-250 c -9,-7 -19,-11 -30,-11 -11,0 -21,4 -30,11 L 187,76 C 154,64 119,54 84,54 37,54 -3,88 -3,133 c 0,40 33,72 73,72 z"
         fill="currentColor"
         id="path312" />
    </g>
  </a>
  <g
     color="#000000"
     id="g324"
     transform="translate(-2.2767189,-3.2762188)">
    <a
       style="color:inherit"
       xlink:href="textedit:///Users/tomsegarra/Documents/dev/dummies/lilypond_files/4fd9d3b24f2b9293ce747288301ea6df.ly:35:17:18"
       id="a322">
      <g
         transform="translate(74.7286,8.4449)"
         id="g320">
        <path
           transform="scale(0.0034,-0.0034)"
           d="m 215,137 c 67,0 111,-37 111,-92 0,-90 -111,-182 -215,-182 -67,0 -111,37 -111,92 0,90 111,182 215,182 z"
           fill="currentColor"
           id="path318" />
      </g>
    </a>
  </g>
  <g
     color="#000000"
     id="g330"
     transform="translate(-2.2767189,-3.2762188)">
    <g
       transform="translate(75.7743,8.0199)"
       id="g328">
      <rect
         x="-0.061700001"
         y="-2.55"
         width="0.1233"
         height="2.8225"
         ry="0.039999999"
         fill="currentColor"
         id="rect326" />
    </g>
  </g>
  <g
     color="#000000"
     id="g336"
     transform="translate(-2.2767189,-3.2762188)">
    <g
       transform="translate(75.836,5.5099)"
       id="g334">
      <path
         transform="scale(0.0034,-0.0034)"
         d="m 0,0 c 0,-197 207,-335 207,-532 0,-71 -15,-141 -41,-207 -5,-8 -13,-12 -21,-12 -14,0 -27,11 -24,28 26,60 42,125 42,191 0,103 -93,207 -163,282 H -18 V 0 Z"
         fill="currentColor"
         id="path332" />
    </g>
  </g>
  <g
     color="#000000"
     id="g342"
     transform="translate(-2.2767189,-3.2762188)">
    <g
       transform="translate(38.8985,8.0199)"
       id="g340">
      <rect
         x="-0.061700001"
         y="0.1525"
         width="0.1233"
         height="2.3975"
         ry="0.039999999"
         fill="currentColor"
         id="rect338" />
    </g>
  </g>
  <g
     color="#000000"
     id="g350"
     transform="translate(-2.2767189,-3.2762188)">
    <a
       style="color:inherit"
       xlink:href="textedit:///Users/tomsegarra/Documents/dev/dummies/lilypond_files/4fd9d3b24f2b9293ce747288301ea6df.ly:35:19:20"
       id="a348">
      <g
         transform="translate(77.036,8.4449)"
         id="g346">
        <path
           transform="scale(0.0034,-0.0034)"
           d="m 215,137 c 67,0 111,-37 111,-92 0,-90 -111,-182 -215,-182 -67,0 -111,37 -111,92 0,90 111,182 215,182 z"
           fill="currentColor"
           id="path344" />
      </g>
    </a>
  </g>
  <g
     color="#000000"
     id="g356"
     transform="translate(-2.2767189,-3.2762188)">
    <g
       transform="translate(78.0817,8.0199)"
       id="g354">
      <rect
         x="-0.061700001"
         y="-2.3934"
         width="0.1233"
         height="2.6659999"
         ry="0.039999999"
         fill="currentColor"
         id="rect352" />
    </g>
  </g>
  <g
     color="#000000"
     id="g364"
     transform="translate(-2.2767189,-3.2762188)">
    <a
       style="color:inherit"
       xlink:href="textedit:///Users/tomsegarra/Documents/dev/dummies/lilypond_files/4fd9d3b24f2b9293ce747288301ea6df.ly:29:18:19"
       id="a362">
      <g
         transform="translate(38.8368,8.0199)"
         id="g360">
        <path
           transform="scale(0.0034,-0.0034)"
           d="m 215,137 c 67,0 111,-37 111,-92 0,-90 -111,-182 -215,-182 -67,0 -111,37 -111,92 0,90 111,182 215,182 z"
           fill="currentColor"
           id="path358" />
      </g>
    </a>
  </g>
  <g
     color="#000000"
     id="g372"
     transform="translate(-2.2767189,-3.2762188)">
    <a
       style="color:inherit"
       xlink:href="textedit:///Users/tomsegarra/Documents/dev/dummies/lilypond_files/4fd9d3b24f2b9293ce747288301ea6df.ly:35:21:22"
       id="a370">
      <g
         transform="translate(79.3434,8.4449)"
         id="g368">
        <path
           transform="scale(0.0034,-0.0034)"
           d="m 215,137 c 67,0 111,-37 111,-92 0,-90 -111,-182 -215,-182 -67,0 -111,37 -111,92 0,90 111,182 215,182 z"
           fill="currentColor"
           id="path366" />
      </g>
    </a>
  </g>
  <g
     color="#000000"
     id="g378"
     transform="translate(-2.2767189,-3.2762188)">
    <g
       transform="translate(80.3891,8.0199)"
       id="g376">
      <rect
         x="-0.061700001"
         y="-2.3934"
         width="0.1233"
         height="2.6659999"
         ry="0.039999999"
         fill="currentColor"
         id="rect374" />
    </g>
  </g>
  <a
     style="color:inherit"
     xlink:href="textedit:///Users/tomsegarra/Documents/dev/dummies/lilypond_files/4fd9d3b24f2b9293ce747288301ea6df.ly:35:23:24"
     id="a384"
     transform="translate(-2.2767189,-3.2762188)">
    <g
       transform="translate(81.6508,8.0199)"
       id="g382">
      <path
         transform="scale(0.0034,-0.0034)"
         d="m -8,78 c 0,59 125,83 125,182 0,25 -9,49 -26,69 l -33,40 c -3,4 -4,7 -4,11 0,9 9,17 18,17 4,0 8,-2 12,-6 L 234,212 c 7,-9 11,-18 11,-26 0,-59 -125,-83 -125,-182 0,-25 8,-49 25,-69 l 82,-97 c 3,-4 4,-7 4,-11 0,-9 -8,-17 -17,-17 -10,0 -42,42 -106,42 -19,0 -54,-1 -54,-66 0,-34 10,-73 27,-93 7,-9 -5,-20 -12,-11 -45,53 -93,147 -93,201 0,42 27,42 43,42 31,0 74,-11 113,-27 L 3,52 C -4,61 -8,70 -8,78 Z"
         fill="currentColor"
         id="path380" />
    </g>
  </a>
  <g
     color="#000000"
     id="g390"
     transform="translate(-2.2767189,-3.2762188)">
    <g
       transform="translate(36.6528,10.8487)"
       id="g388">
      <path
         transform="scale(0.0034,-0.0034)"
         d="M 0,0 H -18 V 250 H 0 Z m 0,0 v 250 c 96,59 222,149 222,259 0,57 -15,111 -40,162 -3,17 10,29 24,29 8,0 16,-5 21,-13 25,-56 40,-116 40,-178 C 267,306 0,203 0,0 Z"
         fill="currentColor"
         id="path386" />
    </g>
  </g>
  <a
     style="color:inherit"
     xlink:href="textedit:///Users/tomsegarra/Documents/dev/dummies/lilypond_files/4fd9d3b24f2b9293ce747288301ea6df.ly:23:11:12"
     id="a396"
     transform="translate(-2.2767189,-3.2762188)">
    <g
       transform="translate(13.0218,7.5949)"
       id="g394">
      <path
         transform="scale(0.0034,-0.0034)"
         d="m 215,137 c 67,0 111,-37 111,-92 0,-90 -111,-182 -215,-182 -67,0 -111,37 -111,92 0,90 111,182 215,182 z"
         fill="currentColor"
         id="path392" />
    </g>
  </a>
  <g
     transform="translate(10.806681,4.7436812)"
     id="g400">
    <rect
       x="-0.061700001"
       y="-0.27250001"
       width="0.1233"
       height="2.6659999"
       ry="0.039999999"
       fill="currentColor"
       id="rect398" />
  </g>
  <g
     color="#000000"
     id="g406"
     transform="translate(-2.2767189,-3.2762188)">
    <g
       transform="translate(36.5911,8.0199)"
       id="g404">
      <rect
         x="-0.061700001"
         y="0.1525"
         width="0.1233"
         height="2.7163"
         ry="0.039999999"
         fill="currentColor"
         id="rect402" />
    </g>
  </g>
  <a
     style="color:inherit"
     xlink:href="textedit:///Users/tomsegarra/Documents/dev/dummies/lilypond_files/4fd9d3b24f2b9293ce747288301ea6df.ly:23:15:16"
     id="a412"
     transform="translate(-2.2767189,-3.2762188)">
    <g
       transform="translate(15.3292,8.0199)"
       id="g410">
      <path
         transform="scale(0.0034,-0.0034)"
         d="m 70,205 c 80,0 46,-97 90,-97 15,0 52,45 59,59 6,13 26,13 31,0 L 129,-250 c -9,-7 -19,-11 -30,-11 -11,0 -21,4 -30,11 L 187,76 C 154,64 119,54 84,54 37,54 -3,88 -3,133 c 0,40 33,72 73,72 z"
         fill="currentColor"
         id="path408" />
    </g>
  </a>
  <g
     color="#000000"
     id="g420"
     transform="translate(-2.2767189,-3.2762188)">
    <a
       style="color:inherit"
       xlink:href="textedit:///Users/tomsegarra/Documents/dev/dummies/lilypond_files/4fd9d3b24f2b9293ce747288301ea6df.ly:29:16:17"
       id="a418">
      <g
         transform="translate(36.5295,8.0199)"
         id="g416">
        <path
           transform="scale(0.0034,-0.0034)"
           d="m 215,137 c 67,0 111,-37 111,-92 0,-90 -111,-182 -215,-182 -67,0 -111,37 -111,92 0,90 111,182 215,182 z"
           fill="currentColor"
           id="path414" />
      </g>
    </a>
  </g>
  <g
     color="#ff0000"
     id="g428"
     transform="translate(-2.2767189,-3.2762188)">
    <a
       style="color:inherit"
       xlink:href="textedit:///Users/tomsegarra/Documents/dev/dummies/lilypond_files/4fd9d3b24f2b9293ce747288301ea6df.ly:26:4:5"
       id="a426">
      <g
         transform="translate(17.3792,7.5949)"
         id="g424">
        <path
           transform="scale(0.0034,-0.0034)"
           d="m 215,137 c 67,0 111,-37 111,-92 0,-90 -111,-182 -215,-182 -67,0 -111,37 -111,92 0,90 111,182 215,182 z"
           fill="currentColor"
           id="path422" />
      </g>
    </a>
  </g>
  <g
     color="#ff0000"
     id="g434"
     transform="translate(-2.2767189,-3.2762188)">
    <g
       transform="translate(17.4408,8.0199)"
       id="g432">
      <rect
         x="-0.061700001"
         y="-0.27250001"
         width="0.1233"
         height="2.6589999"
         ry="0.039999999"
         fill="currentColor"
         id="rect430" />
    </g>
  </g>
  <g
     color="#ff0000"
     id="g442"
     transform="translate(-2.2767189,-3.2762188)">
    <a
       style="color:inherit"
       xlink:href="textedit:///Users/tomsegarra/Documents/dev/dummies/lilypond_files/4fd9d3b24f2b9293ce747288301ea6df.ly:26:9:10"
       id="a440">
      <g
         transform="translate(19.6865,7.1699)"
         id="g438">
        <path
           transform="scale(0.0034,-0.0034)"
           d="m 215,137 c 67,0 111,-37 111,-92 0,-90 -111,-182 -215,-182 -67,0 -111,37 -111,92 0,90 111,182 215,182 z"
           fill="currentColor"
           id="path436" />
      </g>
    </a>
  </g>
  <g
     color="#ff0000"
     id="g448"
     transform="translate(-2.2767189,-3.2762188)">
    <g
       transform="translate(19.7482,8.0199)"
       id="g446">
      <rect
         x="-0.061700001"
         y="-0.69749999"
         width="0.1233"
         height="2.8225"
         ry="0.039999999"
         fill="currentColor"
         id="rect444" />
    </g>
  </g>
  <g
     color="#ff0000"
     id="g456"
     transform="translate(-2.2767189,-3.2762188)">
    <a
       style="color:inherit"
       xlink:href="textedit:///Users/tomsegarra/Documents/dev/dummies/lilypond_files/4fd9d3b24f2b9293ce747288301ea6df.ly:26:13:14"
       id="a454">
      <g
         transform="translate(21.9939,6.7449)"
         id="g452">
        <path
           transform="scale(0.0034,-0.0034)"
           d="m 215,137 c 67,0 111,-37 111,-92 0,-90 -111,-182 -215,-182 -67,0 -111,37 -111,92 0,90 111,182 215,182 z"
           fill="currentColor"
           id="path450" />
      </g>
    </a>
  </g>
  <g
     color="#ff0000"
     id="g462"
     transform="translate(-2.2767189,-3.2762188)">
    <g
       transform="translate(22.0556,8.0199)"
       id="g460">
      <rect
         x="-0.061700001"
         y="-1.1224999"
         width="0.1233"
         height="2.9861"
         ry="0.039999999"
         fill="currentColor"
         id="rect458" />
    </g>
  </g>
  <g
     color="#ff0000"
     id="g470"
     transform="translate(-2.2767189,-3.2762188)">
    <a
       style="color:inherit"
       xlink:href="textedit:///Users/tomsegarra/Documents/dev/dummies/lilypond_files/4fd9d3b24f2b9293ce747288301ea6df.ly:26:17:18"
       id="a468">
      <g
         transform="translate(24.3013,7.1699)"
         id="g466">
        <path
           transform="scale(0.0034,-0.0034)"
           d="m 215,137 c 67,0 111,-37 111,-92 0,-90 -111,-182 -215,-182 -67,0 -111,37 -111,92 0,90 111,182 215,182 z"
           fill="currentColor"
           id="path464" />
      </g>
    </a>
  </g>
  <g
     color="#ff0000"
     id="g476"
     transform="translate(-2.2767189,-3.2762188)">
    <g
       transform="translate(24.363,8.0199)"
       id="g474">
      <rect
         x="-0.061700001"
         y="-0.69749999"
         width="0.1233"
         height="2.5462"
         ry="0.039999999"
         fill="currentColor"
         id="rect472" />
    </g>
  </g>
  <g
     color="#000000"
     id="g484"
     transform="translate(-2.2767189,-3.2762188)">
    <a
       style="color:inherit"
       xlink:href="textedit:///Users/tomsegarra/Documents/dev/dummies/lilypond_files/4fd9d3b24f2b9293ce747288301ea6df.ly:29:4:5"
       id="a482">
      <g
         transform="translate(26.6087,6.7449)"
         id="g480">
        <path
           transform="scale(0.0034,-0.0034)"
           d="m 215,137 c 67,0 111,-37 111,-92 0,-90 -111,-182 -215,-182 -67,0 -111,37 -111,92 0,90 111,182 215,182 z"
           fill="currentColor"
           id="path478" />
      </g>
    </a>
  </g>
  <g
     color="#000000"
     id="g490"
     transform="translate(-2.2767189,-3.2762188)">
    <g
       transform="translate(26.6704,8.0199)"
       id="g488">
      <rect
         x="-0.061700001"
         y="-1.1224999"
         width="0.1233"
         height="2.6738999"
         ry="0.039999999"
         fill="currentColor"
         id="rect486" />
    </g>
  </g>
  <a
     style="color:inherit"
     xlink:href="textedit:///Users/tomsegarra/Documents/dev/dummies/lilypond_files/4fd9d3b24f2b9293ce747288301ea6df.ly:29:14:15"
     id="a496"
     transform="translate(-2.2767189,-3.2762188)">
    <g
       transform="translate(34.4795,8.0199)"
       id="g494">
      <path
         transform="scale(0.0034,-0.0034)"
         d="m 70,205 c 80,0 46,-97 90,-97 15,0 52,45 59,59 6,13 26,13 31,0 L 129,-250 c -9,-7 -19,-11 -30,-11 -11,0 -21,4 -30,11 L 187,76 C 154,64 119,54 84,54 37,54 -3,88 -3,133 c 0,40 33,72 73,72 z"
         fill="currentColor"
         id="path492" />
    </g>
  </a>
  <a
     style="color:inherit"
     xlink:href="textedit:///Users/tomsegarra/Documents/dev/dummies/lilypond_files/4fd9d3b24f2b9293ce747288301ea6df.ly:19:17:18"
     id="a504"
     transform="translate(-2.2767189,-3.2762188)">
    <g
       transform="translate(29.8647,4.9225)"
       id="g502">
      <text
         font-family="sans-serif"
         font-size="2.224px"
         text-anchor="start"
         fill="currentColor"
         id="text500"><tspan
           id="tspan498">G</tspan></text>
    </g>
  </a>
  <g
     color="#000000"
     id="g512"
     transform="translate(-2.2767189,-3.2762188)">
    <a
       style="color:inherit"
       xlink:href="textedit:///Users/tomsegarra/Documents/dev/dummies/lilypond_files/4fd9d3b24f2b9293ce747288301ea6df.ly:29:10:11"
       id="a510">
      <g
         transform="translate(29.8647,8.0199)"
         id="g508">
        <path
           transform="scale(0.0034,-0.0034)"
           d="m 215,137 c 67,0 111,-37 111,-92 0,-90 -111,-182 -215,-182 -67,0 -111,37 -111,92 0,90 111,182 215,182 z"
           fill="currentColor"
           id="path506" />
      </g>
    </a>
  </g>
  <g
     color="#000000"
     id="g518"
     transform="translate(-2.2767189,-3.2762188)">
    <g
       transform="translate(29.9264,8.0199)"
       id="g516">
      <rect
         x="-0.061700001"
         y="0.1525"
         width="0.1233"
         height="2.3975"
         ry="0.039999999"
         fill="currentColor"
         id="rect514" />
    </g>
  </g>
  <g
     color="#000000"
     id="g526"
     transform="translate(-2.2767189,-3.2762188)">
    <a
       style="color:inherit"
       xlink:href="textedit:///Users/tomsegarra/Documents/dev/dummies/lilypond_files/4fd9d3b24f2b9293ce747288301ea6df.ly:29:12:13"
       id="a524">
      <g
         transform="translate(32.1721,8.0199)"
         id="g522">
        <path
           transform="scale(0.0034,-0.0034)"
           d="m 215,137 c 67,0 111,-37 111,-92 0,-90 -111,-182 -215,-182 -67,0 -111,37 -111,92 0,90 111,182 215,182 z"
           fill="currentColor"
           id="path520" />
      </g>
    </a>
  </g>
  <g
     color="#000000"
     id="g532"
     transform="translate(-2.2767189,-3.2762188)">
    <g
       transform="translate(32.2337,8.0199)"
       id="g530">
      <rect
         x="-0.061700001"
         y="0.1525"
         width="0.1233"
         height="2.3975"
         ry="0.039999999"
         fill="currentColor"
         id="rect528" />
    </g>
  </g>
</svg>
