<?xml version="1.0" encoding="UTF-8" standalone="no"?>
<svg
   version="1.2"
   width="135.37245mm"
   height="10.929654mm"
   viewBox="0 0 77.033816 6.2195767"
   id="svg298"
   sodipodi:docname="55b6caac6468c35368d39947b0d228da.svg"
   xmlns:inkscape="http://www.inkscape.org/namespaces/inkscape"
   xmlns:sodipodi="http://sodipodi.sourceforge.net/DTD/sodipodi-0.dtd"
   xmlns:xlink="http://www.w3.org/1999/xlink"
   xmlns="http://www.w3.org/2000/svg"
   xmlns:svg="http://www.w3.org/2000/svg">
  <defs
     id="defs302" />
  <sodipodi:namedview
     id="namedview300"
     pagecolor="#ffffff"
     bordercolor="#000000"
     borderopacity="0.25"
     inkscape:showpageshadow="2"
     inkscape:pageopacity="0.0"
     inkscape:pagecheckerboard="0"
     inkscape:deskcolor="#d1d1d1"
     inkscape:document-units="mm" />
  <style
     type="text/css"
     id="style2"><![CDATA[
tspan { white-space: pre; }
]]></style>
  <!-- Page: 1/1 -->
  <g
     transform="translate(-2.606166e-4,4.9105767)"
     id="g6">
    <line
       stroke-linejoin="round"
       stroke-linecap="round"
       stroke-width="0.0949"
       stroke="currentColor"
       x1="0.047400001"
       y1="0"
       x2="76.9869"
       y2="0"
       id="line4" />
  </g>
  <g
     transform="translate(-2.606166e-4,4.0605767)"
     id="g10">
    <line
       stroke-linejoin="round"
       stroke-linecap="round"
       stroke-width="0.0949"
       stroke="currentColor"
       x1="0.047400001"
       y1="0"
       x2="76.9869"
       y2="0"
       id="line8" />
  </g>
  <g
     transform="translate(-2.606166e-4,3.2105767)"
     id="g14">
    <line
       stroke-linejoin="round"
       stroke-linecap="round"
       stroke-width="0.0949"
       stroke="currentColor"
       x1="0.047400001"
       y1="0"
       x2="76.9869"
       y2="0"
       id="line12" />
  </g>
  <g
     transform="translate(-2.606166e-4,2.3605767)"
     id="g18">
    <line
       stroke-linejoin="round"
       stroke-linecap="round"
       stroke-width="0.0949"
       stroke="currentColor"
       x1="0.047400001"
       y1="0"
       x2="76.9869"
       y2="0"
       id="line16" />
  </g>
  <g
     transform="translate(-2.606166e-4,1.5105767)"
     id="g22">
    <line
       stroke-linejoin="round"
       stroke-linecap="round"
       stroke-width="0.0949"
       stroke="currentColor"
       x1="0.047400001"
       y1="0"
       x2="76.9869"
       y2="0"
       id="line20" />
  </g>
  <g
     transform="translate(72.285139,3.2105767)"
     id="g26">
    <rect
       x="0"
       y="-1.7"
       width="0.1802"
       height="3.4000001"
       ry="0.0000"
       fill="currentColor"
       id="rect24" />
  </g>
  <g
     transform="translate(56.770939,3.2105767)"
     id="g30">
    <rect
       x="0"
       y="-1.7"
       width="0.1802"
       height="3.4000001"
       ry="0.0000"
       fill="currentColor"
       id="rect28" />
  </g>
  <g
     transform="translate(41.126039,3.2105767)"
     id="g34">
    <rect
       x="0"
       y="-1.7"
       width="0.1802"
       height="3.4000001"
       ry="0.0000"
       fill="currentColor"
       id="rect32" />
  </g>
  <g
     transform="translate(25.409639,3.2105767)"
     id="g38">
    <rect
       x="0"
       y="-1.7"
       width="0.1802"
       height="3.4000001"
       ry="0.0000"
       fill="currentColor"
       id="rect36" />
  </g>
  <g
     transform="translate(53.562439,3.2105767)"
     id="g42">
    <rect
       x="-0.061700001"
       y="-1.1224999"
       width="0.1233"
       height="2.8225"
       ry="0.039999999"
       fill="currentColor"
       id="rect40" />
  </g>
  <a
     style="color:inherit"
     xlink:href="textedit:///Users/tomsegarra/Documents/dev/dummies/lilypond_files/55b6caac6468c35368d39947b0d228da.ly:20:4:5"
     id="a48"
     transform="translate(-2.2764606,-3.2761233)">
    <g
       transform="translate(13.0344,6.4867)"
       id="g46">
      <path
         transform="scale(0.0034,-0.0034)"
         d="m 215,137 c 67,0 111,-37 111,-92 0,-90 -111,-182 -215,-182 -67,0 -111,37 -111,92 0,90 111,182 215,182 z"
         fill="currentColor"
         id="path44" />
    </g>
  </a>
  <g
     transform="translate(0.79973938,4.0605767)"
     id="g52">
    <path
       transform="scale(0.0034,-0.0034)"
       d="m 646,2 c 0,-113 -74,-213 -180,-247 3,-34 5,-68 5,-102 0,-20 -1,-40 -2,-60 -7,-121 -91,-228 -209,-228 -108,0 -196,87 -196,196 0,58 53,104 112,104 54,0 95,-48 95,-104 0,-52 -43,-95 -95,-95 -10,0 -20,2 -29,6 26,-38 68,-63 116,-63 h 3 c 93,2 153,92 159,190 1,19 2,37 2,56 0,30 -2,60 -4,90 -5,-1 -43,-8 -88,-8 -194,0 -333,180 -333,375 0,177 130,307 246,442 -31,98 -53,170 -53,347 0,115 55,223 148,290 7,5 16,4 22,-1 68,-80 134,-243 134,-357 0,-143 -85,-255 -178,-364 21,-68 40,-137 57,-206 1,0 5,1 11,1 C 545,264 646,135 646,2 Z M 462,-202 c 66,24 111,88 111,162 0,89 -65,178 -170,190 28,-135 50,-272 59,-352 z M 75,26 c 0,-145 141,-245 263,-245 1,0 46,0 81,6 -7,65 -27,206 -61,363 -79,-8 -124,-61 -124,-119 0,-43 25,-89 80,-121 5,-5 7,-11 7,-16 0,-12 -10,-23 -22,-23 -16,0 -127,63 -127,188 0,89 58,175 161,198 -14,58 -29,116 -46,173 C 181,308 75,186 75,26 Z M 406,1042 C 307,995 244,894 244,785 c 0,-49 13,-111 38,-191 79,97 144,199 144,324 0,33 0,63 -20,124 z"
       fill="currentColor"
       id="path50" />
  </g>
  <a
     style="color:inherit"
     xlink:href="textedit:///Users/tomsegarra/Documents/dev/dummies/lilypond_files/55b6caac6468c35368d39947b0d228da.ly:19:1:9"
     id="a62"
     transform="translate(-2.2764606,-3.2761233)">
    <g
       transform="translate(6.5762,4.7867)"
       id="g56">
      <path
         transform="scale(0.0034,-0.0034)"
         d="m 217,-311 c 0,-11 -8,-19 -19,-19 -11,0 -20,8 -20,19 v 142 l -81,-30 v -156 c 0,-11 -9,-20 -20,-20 -11,0 -19,9 -19,20 v 142 l -28,-11 c -3,-1 -5,-1 -8,-1 -12,0 -22,10 -22,23 v 57 c 0,9 6,18 15,21 l 43,16 V 49 L 30,39 C 27,38 25,38 22,38 10,38 0,47 0,60 v 57 c 0,9 6,18 15,21 l 43,16 v 157 c 0,11 8,19 19,19 11,0 20,-8 20,-19 V 169 l 81,30 v 156 c 0,11 9,20 20,20 11,0 19,-9 19,-20 V 213 l 28,11 c 3,1 5,1 8,1 12,0 22,-10 22,-23 v -57 c 0,-9 -6,-18 -15,-21 L 217,108 V -49 l 28,10 c 3,1 5,1 8,1 12,0 22,-9 22,-22 v -57 c 0,-9 -6,-18 -15,-21 l -43,-16 z M 97,64 V -94 l 81,30 V 94 Z"
         fill="currentColor"
         id="path54" />
    </g>
    <g
       transform="translate(7.5112,6.0617)"
       id="g60">
      <path
         transform="scale(0.0034,-0.0034)"
         d="m 217,-311 c 0,-11 -8,-19 -19,-19 -11,0 -20,8 -20,19 v 142 l -81,-30 v -156 c 0,-11 -9,-20 -20,-20 -11,0 -19,9 -19,20 v 142 l -28,-11 c -3,-1 -5,-1 -8,-1 -12,0 -22,10 -22,23 v 57 c 0,9 6,18 15,21 l 43,16 V 49 L 30,39 C 27,38 25,38 22,38 10,38 0,47 0,60 v 57 c 0,9 6,18 15,21 l 43,16 v 157 c 0,11 8,19 19,19 11,0 20,-8 20,-19 V 169 l 81,30 v 156 c 0,11 9,20 20,20 11,0 19,-9 19,-20 V 213 l 28,11 c 3,1 5,1 8,1 12,0 22,-10 22,-23 v -57 c 0,-9 -6,-18 -15,-21 L 217,108 V -49 l 28,10 c 3,1 5,1 8,1 12,0 22,-9 22,-22 v -57 c 0,-9 -6,-18 -15,-21 l -43,-16 z M 97,64 V -94 l 81,30 V 94 Z"
         fill="currentColor"
         id="path58" />
    </g>
  </a>
  <g
     transform="translate(7.3197394,3.2105767)"
     id="g66">
    <path
       transform="scale(0.0034,-0.0034)"
       d="m 358,29 c -30,0 -74,23 -74,73 0,38 27,76 71,76 4,0 7,0 11,-1 -27,36 -69,59 -116,59 -106,0 -113,-74 -113,-188 0,-15 1,-31 1,-48 0,-17 -1,-33 -1,-48 0,-114 7,-188 113,-188 79,0 136,70 155,150 2,7 7,10 13,10 7,0 14,-5 14,-13 0,-21 -50,-175 -182,-175 C 191,-264 0,-244 0,0 0,63 18,264 250,264 365,264 424,155 424,99 424,60 394,29 358,29 Z"
       fill="currentColor"
       id="path64" />
  </g>
  <g
     transform="translate(12.244439,2.7855767)"
     id="g70">
    <path
       transform="scale(0.0034,-0.0034)"
       d="M 0,0 C 0,31 25,56 56,56 87,56 111,31 111,0 111,-31 87,-56 56,-56 25,-56 0,-31 0,0 Z"
       fill="currentColor"
       id="path68" />
  </g>
  <g
     transform="translate(10.819639,3.2105767)"
     id="g74">
    <rect
       x="-0.061700001"
       y="0.1525"
       width="0.1233"
       height="2.6809001"
       ry="0.039999999"
       fill="currentColor"
       id="rect72" />
  </g>
  <g
     transform="translate(33.241039,4.2170767)"
     id="g78">
    <polygon
       stroke-linejoin="round"
       stroke-linecap="round"
       stroke-width="0.08"
       fill="currentColor"
       stroke="currentColor"
       points="0.04,0.164 0.04,-0.164 2.3907,-0.3206 2.3907,0.0074 "
       id="polygon76" />
  </g>
  <a
     style="color:inherit"
     xlink:href="textedit:///Users/tomsegarra/Documents/dev/dummies/lilypond_files/55b6caac6468c35368d39947b0d228da.ly:20:29:30"
     id="a84"
     transform="translate(-2.2764606,-3.2761233)">
    <g
       transform="translate(33.2101,5.6367)"
       id="g82">
      <path
         transform="scale(0.0034,-0.0034)"
         d="m 215,137 c 67,0 111,-37 111,-92 0,-90 -111,-182 -215,-182 -67,0 -111,37 -111,92 0,90 111,182 215,182 z"
         fill="currentColor"
         id="path80" />
    </g>
  </a>
  <g
     transform="translate(30.995339,3.2105767)"
     id="g88">
    <rect
       x="-0.061700001"
       y="-0.69749999"
       width="0.1233"
       height="2.8225"
       ry="0.039999999"
       fill="currentColor"
       id="rect86" />
  </g>
  <g
     transform="translate(31.056939,5.2955767)"
     id="g92">
    <path
       transform="scale(0.0034,-0.0034)"
       d="M 0,0 H -18 V 250 H 0 Z m 0,0 v 250 c 96,59 222,149 222,259 0,57 -15,111 -40,162 -3,17 10,29 24,29 8,0 16,-5 21,-13 25,-56 40,-116 40,-178 C 267,306 0,203 0,0 Z"
       fill="currentColor"
       id="path90" />
  </g>
  <g
     transform="translate(48.886039,4.2170767)"
     id="g96">
    <polygon
       stroke-linejoin="round"
       stroke-linecap="round"
       stroke-width="0.08"
       fill="currentColor"
       stroke="currentColor"
       points="0.04,0.164 0.04,-0.164 2.3907,-0.3206 2.3907,0.0074 "
       id="polygon94" />
  </g>
  <a
     style="color:inherit"
     xlink:href="textedit:///Users/tomsegarra/Documents/dev/dummies/lilypond_files/55b6caac6468c35368d39947b0d228da.ly:20:33:34"
     id="a102"
     transform="translate(-2.2764606,-3.2761233)">
    <g
       transform="translate(35.5175,5.2117)"
       id="g100">
      <path
         transform="scale(0.0034,-0.0034)"
         d="m 215,137 c 67,0 111,-37 111,-92 0,-90 -111,-182 -215,-182 -67,0 -111,37 -111,92 0,90 111,182 215,182 z"
         fill="currentColor"
         id="path98" />
    </g>
  </a>
  <g
     transform="translate(33.302739,3.2105767)"
     id="g106">
    <rect
       x="-0.061700001"
       y="-1.1224999"
       width="0.1233"
       height="2.1250999"
       ry="0.039999999"
       fill="currentColor"
       id="rect104" />
  </g>
  <a
     style="color:inherit"
     xlink:href="textedit:///Users/tomsegarra/Documents/dev/dummies/lilypond_files/55b6caac6468c35368d39947b0d228da.ly:20:35:36"
     id="a112"
     transform="translate(-2.2764606,-3.2761233)">
    <g
       transform="translate(37.8249,4.7867)"
       id="g110">
      <path
         transform="scale(0.0034,-0.0034)"
         d="m 215,137 c 67,0 111,-37 111,-92 0,-90 -111,-182 -215,-182 -67,0 -111,37 -111,92 0,90 111,182 215,182 z"
         fill="currentColor"
         id="path108" />
    </g>
  </a>
  <g
     transform="translate(35.610139,3.2105767)"
     id="g116">
    <rect
       x="-0.061700001"
       y="-1.5475"
       width="0.1233"
       height="2.4015"
       ry="0.039999999"
       fill="currentColor"
       id="rect114" />
  </g>
  <a
     style="color:inherit"
     xlink:href="textedit:///Users/tomsegarra/Documents/dev/dummies/lilypond_files/55b6caac6468c35368d39947b0d228da.ly:20:39:40"
     id="a122"
     transform="translate(-2.2764606,-3.2761233)">
    <g
       transform="translate(40.1323,5.2117)"
       id="g120">
      <path
         transform="scale(0.0034,-0.0034)"
         d="m 215,137 c 67,0 111,-37 111,-92 0,-90 -111,-182 -215,-182 -67,0 -111,37 -111,92 0,90 111,182 215,182 z"
         fill="currentColor"
         id="path118" />
    </g>
  </a>
  <g
     transform="translate(37.917439,3.2105767)"
     id="g126">
    <rect
       x="-0.061700001"
       y="-1.1224999"
       width="0.1233"
       height="2.8225"
       ry="0.039999999"
       fill="currentColor"
       id="rect124" />
  </g>
  <g
     transform="translate(27.535539,3.2105767)"
     id="g130">
    <rect
       x="-0.061700001"
       y="-2.125"
       width="0.1233"
       height="2.8225"
       ry="0.039999999"
       fill="currentColor"
       id="rect128" />
  </g>
  <g
     transform="translate(27.976339,3.6355767)"
     id="g134">
    <path
       transform="scale(0.0034,-0.0034)"
       d="M 0,0 C 0,31 25,56 56,56 87,56 111,31 111,0 111,-31 87,-56 56,-56 25,-56 0,-31 0,0 Z"
       fill="currentColor"
       id="path132" />
  </g>
  <a
     style="color:inherit"
     xlink:href="textedit:///Users/tomsegarra/Documents/dev/dummies/lilypond_files/55b6caac6468c35368d39947b0d228da.ly:20:44:45"
     id="a140"
     transform="translate(-2.2764606,-3.2761233)">
    <g
       transform="translate(44.4827,6.9117)"
       id="g138">
      <path
         transform="scale(0.0034,-0.0034)"
         d="m 215,137 c 67,0 111,-37 111,-92 0,-90 -111,-182 -215,-182 -67,0 -111,37 -111,92 0,90 111,182 215,182 z"
         fill="currentColor"
         id="path136" />
    </g>
  </a>
  <g
     transform="translate(43.692739,3.6355767)"
     id="g144">
    <path
       transform="scale(0.0034,-0.0034)"
       d="M 0,0 C 0,31 25,56 56,56 87,56 111,31 111,0 111,-31 87,-56 56,-56 25,-56 0,-31 0,0 Z"
       fill="currentColor"
       id="path142" />
  </g>
  <g
     transform="translate(43.251939,3.2105767)"
     id="g148">
    <rect
       x="-0.061700001"
       y="-2.55"
       width="0.1233"
       height="2.8225"
       ry="0.039999999"
       fill="currentColor"
       id="rect146" />
  </g>
  <a
     style="color:inherit"
     xlink:href="textedit:///Users/tomsegarra/Documents/dev/dummies/lilypond_files/55b6caac6468c35368d39947b0d228da.ly:20:49:50"
     id="a154"
     transform="translate(-2.2764606,-3.2761233)">
    <g
       transform="translate(48.8551,5.6367)"
       id="g152">
      <path
         transform="scale(0.0034,-0.0034)"
         d="m 215,137 c 67,0 111,-37 111,-92 0,-90 -111,-182 -215,-182 -67,0 -111,37 -111,92 0,90 111,182 215,182 z"
         fill="currentColor"
         id="path150" />
    </g>
  </a>
  <g
     transform="translate(46.640239,3.2105767)"
     id="g158">
    <rect
       x="-0.061700001"
       y="-0.69749999"
       width="0.1233"
       height="2.8225"
       ry="0.039999999"
       fill="currentColor"
       id="rect156" />
  </g>
  <g
     transform="translate(46.701939,5.2955767)"
     id="g162">
    <path
       transform="scale(0.0034,-0.0034)"
       d="M 0,0 H -18 V 250 H 0 Z m 0,0 v 250 c 96,59 222,149 222,259 0,57 -15,111 -40,162 -3,17 10,29 24,29 8,0 16,-5 21,-13 25,-56 40,-116 40,-178 C 267,306 0,203 0,0 Z"
       fill="currentColor"
       id="path160" />
  </g>
  <a
     style="color:inherit"
     xlink:href="textedit:///Users/tomsegarra/Documents/dev/dummies/lilypond_files/55b6caac6468c35368d39947b0d228da.ly:20:24:25"
     id="a168"
     transform="translate(-2.2764606,-3.2761233)">
    <g
       transform="translate(28.7663,7.3367)"
       id="g166">
      <path
         transform="scale(0.0034,-0.0034)"
         d="m 215,137 c 67,0 111,-37 111,-92 0,-90 -111,-182 -215,-182 -67,0 -111,37 -111,92 0,90 111,182 215,182 z"
         fill="currentColor"
         id="path164" />
    </g>
  </a>
  <a
     style="color:inherit"
     xlink:href="textedit:///Users/tomsegarra/Documents/dev/dummies/lilypond_files/55b6caac6468c35368d39947b0d228da.ly:20:52:53"
     id="a174"
     transform="translate(-2.2764606,-3.2761233)">
    <g
       transform="translate(51.1625,5.2117)"
       id="g172">
      <path
         transform="scale(0.0034,-0.0034)"
         d="m 215,137 c 67,0 111,-37 111,-92 0,-90 -111,-182 -215,-182 -67,0 -111,37 -111,92 0,90 111,182 215,182 z"
         fill="currentColor"
         id="path170" />
    </g>
  </a>
  <g
     transform="translate(48.947639,3.2105767)"
     id="g178">
    <rect
       x="-0.061700001"
       y="-1.1224999"
       width="0.1233"
       height="2.1250999"
       ry="0.039999999"
       fill="currentColor"
       id="rect176" />
  </g>
  <a
     style="color:inherit"
     xlink:href="textedit:///Users/tomsegarra/Documents/dev/dummies/lilypond_files/55b6caac6468c35368d39947b0d228da.ly:20:54:55"
     id="a184"
     transform="translate(-2.2764606,-3.2761233)">
    <g
       transform="translate(53.4699,4.7867)"
       id="g182">
      <path
         transform="scale(0.0034,-0.0034)"
         d="m 215,137 c 67,0 111,-37 111,-92 0,-90 -111,-182 -215,-182 -67,0 -111,37 -111,92 0,90 111,182 215,182 z"
         fill="currentColor"
         id="path180" />
    </g>
  </a>
  <g
     transform="translate(51.255039,3.2105767)"
     id="g188">
    <rect
       x="-0.061700001"
       y="-1.5475"
       width="0.1233"
       height="2.4015"
       ry="0.039999999"
       fill="currentColor"
       id="rect186" />
  </g>
  <a
     style="color:inherit"
     xlink:href="textedit:///Users/tomsegarra/Documents/dev/dummies/lilypond_files/55b6caac6468c35368d39947b0d228da.ly:20:58:59"
     id="a194"
     transform="translate(-2.2764606,-3.2761233)">
    <g
       transform="translate(55.7772,5.2117)"
       id="g192">
      <path
         transform="scale(0.0034,-0.0034)"
         d="m 215,137 c 67,0 111,-37 111,-92 0,-90 -111,-182 -215,-182 -67,0 -111,37 -111,92 0,90 111,182 215,182 z"
         fill="currentColor"
         id="path190" />
    </g>
  </a>
  <g
     transform="translate(17.524639,4.2170767)"
     id="g198">
    <polygon
       stroke-linejoin="round"
       stroke-linecap="round"
       stroke-width="0.08"
       fill="currentColor"
       stroke="currentColor"
       points="0.04,0.164 0.04,-0.164 2.3907,-0.3206 2.3907,0.0074 "
       id="polygon196" />
  </g>
  <g
     transform="translate(22.201039,3.2105767)"
     id="g202">
    <rect
       x="-0.061700001"
       y="-1.1224999"
       width="0.1233"
       height="2.8225"
       ry="0.039999999"
       fill="currentColor"
       id="rect200" />
  </g>
  <a
     style="color:inherit"
     xlink:href="textedit:///Users/tomsegarra/Documents/dev/dummies/lilypond_files/55b6caac6468c35368d39947b0d228da.ly:20:63:64"
     id="a208"
     transform="translate(-2.2764606,-3.2761233)">
    <g
       transform="translate(60.7693,6.0617)"
       id="g206">
      <path
         transform="scale(0.0034,-0.0034)"
         d="m 215,137 c 67,0 111,-37 111,-92 0,-90 -111,-182 -215,-182 -67,0 -111,37 -111,92 0,90 111,182 215,182 z"
         fill="currentColor"
         id="path204" />
    </g>
  </a>
  <g
     transform="translate(58.554439,3.2105767)"
     id="g212">
    <rect
       x="-0.061700001"
       y="-0.27250001"
       width="0.1233"
       height="2.8225"
       ry="0.039999999"
       fill="currentColor"
       id="rect210" />
  </g>
  <g
     transform="translate(57.551239,2.7855767)"
     id="g216">
    <path
       transform="scale(0.0034,-0.0034)"
       d="m -8,375 c 8,5 17,7 26,7 9,0 18,-2 26,-7 l -3,-187 104,21 h 4 c 10,0 18,-8 18,-18 l 7,-566 c -8,-5 -16,-7 -25,-7 -9,0 -18,2 -26,7 l 2,187 -103,-21 h -4 c -10,0 -18,8 -18,18 z M 130,111 40,93 l -3,-204 90,18 z"
       fill="currentColor"
       id="path214" />
  </g>
  <a
     style="color:inherit"
     xlink:href="textedit:///Users/tomsegarra/Documents/dev/dummies/lilypond_files/55b6caac6468c35368d39947b0d228da.ly:20:18:19"
     id="a222"
     transform="translate(-2.2764606,-3.2761233)">
    <g
       transform="translate(24.4159,5.2117)"
       id="g220">
      <path
         transform="scale(0.0034,-0.0034)"
         d="m 215,137 c 67,0 111,-37 111,-92 0,-90 -111,-182 -215,-182 -67,0 -111,37 -111,92 0,90 111,182 215,182 z"
         fill="currentColor"
         id="path218" />
    </g>
  </a>
  <a
     style="color:inherit"
     xlink:href="textedit:///Users/tomsegarra/Documents/dev/dummies/lilypond_files/55b6caac6468c35368d39947b0d228da.ly:20:65:66"
     id="a228"
     transform="translate(-2.2764606,-3.2761233)">
    <g
       transform="translate(64.2766,5.6367)"
       id="g226">
      <path
         transform="scale(0.0034,-0.0034)"
         d="m 215,137 c 67,0 111,-37 111,-92 0,-90 -111,-182 -215,-182 -67,0 -111,37 -111,92 0,90 111,182 215,182 z"
         fill="currentColor"
         id="path224" />
    </g>
  </a>
  <g
     transform="translate(62.061839,3.2105767)"
     id="g232">
    <rect
       x="-0.061700001"
       y="-0.69749999"
       width="0.1233"
       height="2.8225"
       ry="0.039999999"
       fill="currentColor"
       id="rect230" />
  </g>
  <a
     style="color:inherit"
     xlink:href="textedit:///Users/tomsegarra/Documents/dev/dummies/lilypond_files/55b6caac6468c35368d39947b0d228da.ly:20:67:68"
     id="a238"
     transform="translate(-2.2764606,-3.2761233)">
    <g
       transform="translate(67.784,5.2117)"
       id="g236">
      <path
         transform="scale(0.0034,-0.0034)"
         d="m 215,137 c 67,0 111,-37 111,-92 0,-90 -111,-182 -215,-182 -67,0 -111,37 -111,92 0,90 111,182 215,182 z"
         fill="currentColor"
         id="path234" />
    </g>
  </a>
  <g
     transform="translate(65.569239,3.2105767)"
     id="g242">
    <rect
       x="-0.061700001"
       y="-1.1224999"
       width="0.1233"
       height="2.8225"
       ry="0.039999999"
       fill="currentColor"
       id="rect240" />
  </g>
  <a
     style="color:inherit"
     xlink:href="textedit:///Users/tomsegarra/Documents/dev/dummies/lilypond_files/55b6caac6468c35368d39947b0d228da.ly:20:69:70"
     id="a248"
     transform="translate(-2.2764606,-3.2761233)">
    <g
       transform="translate(71.2914,4.7867)"
       id="g246">
      <path
         transform="scale(0.0034,-0.0034)"
         d="m 215,137 c 67,0 111,-37 111,-92 0,-90 -111,-182 -215,-182 -67,0 -111,37 -111,92 0,90 111,182 215,182 z"
         fill="currentColor"
         id="path244" />
    </g>
  </a>
  <g
     transform="translate(69.076639,3.2105767)"
     id="g252">
    <rect
       x="-0.061700001"
       y="-1.5475"
       width="0.1233"
       height="2.8225"
       ry="0.039999999"
       fill="currentColor"
       id="rect250" />
  </g>
  <a
     style="color:inherit"
     xlink:href="textedit:///Users/tomsegarra/Documents/dev/dummies/lilypond_files/55b6caac6468c35368d39947b0d228da.ly:20:73:74"
     id="a258"
     transform="translate(-2.2764606,-3.2761233)">
    <g
       transform="translate(75.8031,5.2117)"
       id="g256">
      <path
         transform="scale(0.0034,-0.0034)"
         d="m 215,137 c 67,0 111,-37 111,-92 0,-90 -111,-182 -215,-182 -67,0 -111,37 -111,92 0,90 111,182 215,182 z"
         fill="currentColor"
         id="path254" />
    </g>
  </a>
  <g
     transform="translate(73.588339,3.2105767)"
     id="g262">
    <rect
       x="-0.061700001"
       y="-1.1224999"
       width="0.1233"
       height="2.8225"
       ry="0.039999999"
       fill="currentColor"
       id="rect260" />
  </g>
  <g
     transform="translate(19.893739,3.2105767)"
     id="g266">
    <rect
       x="-0.061700001"
       y="-1.5475"
       width="0.1233"
       height="2.4015"
       ry="0.039999999"
       fill="currentColor"
       id="rect264" />
  </g>
  <a
     style="color:inherit"
     xlink:href="textedit:///Users/tomsegarra/Documents/dev/dummies/lilypond_files/55b6caac6468c35368d39947b0d228da.ly:20:14:15"
     id="a272"
     transform="translate(-2.2764606,-3.2761233)">
    <g
       transform="translate(22.1085,4.7867)"
       id="g270">
      <path
         transform="scale(0.0034,-0.0034)"
         d="m 215,137 c 67,0 111,-37 111,-92 0,-90 -111,-182 -215,-182 -67,0 -111,37 -111,92 0,90 111,182 215,182 z"
         fill="currentColor"
         id="path268" />
    </g>
  </a>
  <a
     style="color:inherit"
     xlink:href="textedit:///Users/tomsegarra/Documents/dev/dummies/lilypond_files/55b6caac6468c35368d39947b0d228da.ly:20:9:10"
     id="a278"
     transform="translate(-2.2764606,-3.2761233)">
    <g
       transform="translate(17.4937,5.6367)"
       id="g276">
      <path
         transform="scale(0.0034,-0.0034)"
         d="m 215,137 c 67,0 111,-37 111,-92 0,-90 -111,-182 -215,-182 -67,0 -111,37 -111,92 0,90 111,182 215,182 z"
         fill="currentColor"
         id="path274" />
    </g>
  </a>
  <g
     transform="translate(15.278939,3.2105767)"
     id="g282">
    <rect
       x="-0.061700001"
       y="-0.69749999"
       width="0.1233"
       height="2.8225"
       ry="0.039999999"
       fill="currentColor"
       id="rect280" />
  </g>
  <g
     transform="translate(15.340539,5.2955767)"
     id="g286">
    <path
       transform="scale(0.0034,-0.0034)"
       d="M 0,0 H -18 V 250 H 0 Z m 0,0 v 250 c 96,59 222,149 222,259 0,57 -15,111 -40,162 -3,17 10,29 24,29 8,0 16,-5 21,-13 25,-56 40,-116 40,-178 C 267,306 0,203 0,0 Z"
       fill="currentColor"
       id="path284" />
  </g>
  <a
     style="color:inherit"
     xlink:href="textedit:///Users/tomsegarra/Documents/dev/dummies/lilypond_files/55b6caac6468c35368d39947b0d228da.ly:20:12:13"
     id="a292"
     transform="translate(-2.2764606,-3.2761233)">
    <g
       transform="translate(19.8011,5.2117)"
       id="g290">
      <path
         transform="scale(0.0034,-0.0034)"
         d="m 215,137 c 67,0 111,-37 111,-92 0,-90 -111,-182 -215,-182 -67,0 -111,37 -111,92 0,90 111,182 215,182 z"
         fill="currentColor"
         id="path288" />
    </g>
  </a>
  <g
     transform="translate(17.586339,3.2105767)"
     id="g296">
    <rect
       x="-0.061700001"
       y="-1.1224999"
       width="0.1233"
       height="2.1250999"
       ry="0.039999999"
       fill="currentColor"
       id="rect294" />
  </g>
</svg>
