<?xml version="1.0" encoding="UTF-8" standalone="no"?>
<svg
   version="1.2"
   width="59.400211mm"
   height="16.037315mm"
   viewBox="0 0 33.80295 9.126118"
   id="svg148"
   sodipodi:docname="5942b6929854d18bc8143523372de483.svg"
   xmlns:inkscape="http://www.inkscape.org/namespaces/inkscape"
   xmlns:sodipodi="http://sodipodi.sourceforge.net/DTD/sodipodi-0.dtd"
   xmlns:xlink="http://www.w3.org/1999/xlink"
   xmlns="http://www.w3.org/2000/svg"
   xmlns:svg="http://www.w3.org/2000/svg">
  <defs
     id="defs152" />
  <sodipodi:namedview
     id="namedview150"
     pagecolor="#ffffff"
     bordercolor="#000000"
     borderopacity="0.25"
     inkscape:showpageshadow="2"
     inkscape:pageopacity="0.0"
     inkscape:pagecheckerboard="0"
     inkscape:deskcolor="#d1d1d1"
     inkscape:document-units="mm" />
  <style
     type="text/css"
     id="style2"><![CDATA[
tspan { white-space: pre; }
]]></style>
  <!-- Page: 1/1 -->
  <g
     transform="translate(-5.0000846e-5,4.7976269)"
     id="g6">
    <line
       stroke-linejoin="round"
       stroke-linecap="round"
       stroke-width="0.0931"
       stroke="currentColor"
       x1="0.046599999"
       y1="0"
       x2="33.756401"
       y2="0"
       id="line4" />
  </g>
  <g
     transform="translate(-5.0000846e-5,3.9976269)"
     id="g10">
    <line
       stroke-linejoin="round"
       stroke-linecap="round"
       stroke-width="0.0931"
       stroke="currentColor"
       x1="0.046599999"
       y1="0"
       x2="33.756401"
       y2="0"
       id="line8" />
  </g>
  <g
     transform="translate(-5.0000846e-5,3.1976269)"
     id="g14">
    <line
       stroke-linejoin="round"
       stroke-linecap="round"
       stroke-width="0.0931"
       stroke="currentColor"
       x1="0.046599999"
       y1="0"
       x2="33.756401"
       y2="0"
       id="line12" />
  </g>
  <g
     transform="translate(-5.0000846e-5,2.3976269)"
     id="g18">
    <line
       stroke-linejoin="round"
       stroke-linecap="round"
       stroke-width="0.0931"
       stroke="currentColor"
       x1="0.046599999"
       y1="0"
       x2="33.756401"
       y2="0"
       id="line16" />
  </g>
  <g
     transform="translate(-5.0000846e-5,1.5976269)"
     id="g22">
    <line
       stroke-linejoin="round"
       stroke-linecap="round"
       stroke-width="0.0931"
       stroke="currentColor"
       x1="0.046599999"
       y1="0"
       x2="33.756401"
       y2="0"
       id="line20" />
  </g>
  <g
     transform="translate(33.62595,3.1976269)"
     id="g26">
    <rect
       x="0"
       y="-1.6"
       width="0.177"
       height="3.2"
       ry="0.0000"
       fill="currentColor"
       id="rect24" />
  </g>
  <g
     transform="translate(17.43635,3.1976269)"
     id="g30">
    <rect
       x="0"
       y="-1.6"
       width="0.177"
       height="3.2"
       ry="0.0000"
       fill="currentColor"
       id="rect28" />
  </g>
  <a
     style="color:inherit"
     xlink:href="textedit:///Users/tomsegarra/Documents/dev/dummies/lilypond_files/5942b6929854d18bc8143523372de483.ly:22:7:8"
     id="a36"
     transform="translate(-2.27625,-3.2785731)">
    <g
       transform="translate(13.7126,5.6762)"
       id="g34">
      <path
         transform="scale(0.0032,-0.0032)"
         d="M 362,-156 H 13 c -7,0 -13,5 -13,12 V -13 C 0,-6 6,0 13,0 h 349 c 7,0 13,-6 13,-13 v -131 c 0,-7 -6,-12 -13,-12 z"
         fill="currentColor"
         id="path32" />
    </g>
  </a>
  <g
     transform="translate(0.79995,3.9976269)"
     id="g40">
    <path
       transform="scale(0.0032,-0.0032)"
       d="m 647,2 c 0,-114 -75,-214 -180,-248 3,-33 4,-66 4,-99 0,-21 0,-41 -1,-62 -7,-122 -92,-229 -211,-229 -108,0 -196,88 -196,197 0,58 54,103 113,103 54,0 95,-47 95,-103 0,-52 -43,-95 -95,-95 -9,0 -18,1 -27,4 25,-37 66,-61 113,-61 93,0 156,91 162,191 1,19 2,38 2,57 0,29 -1,58 -3,87 -5,-1 -44,-8 -88,-8 -194,0 -333,181 -333,376 0,177 129,308 244,443 -34,103 -55,171 -55,347 0,114 54,221 147,288 8,6 18,5 25,-1 68,-79 135,-242 135,-356 0,-142 -84,-255 -176,-364 21,-68 40,-136 57,-205 1,0 5,1 10,1 C 546,265 647,136 647,2 Z M 463,-201 c 64,24 110,88 110,161 0,88 -64,175 -167,188 28,-133 49,-269 57,-349 z M 77,25 c 0,-144 141,-243 261,-243 1,0 46,-1 81,5 -7,66 -27,208 -60,362 -79,-8 -124,-60 -124,-118 0,-43 25,-88 80,-120 5,-5 7,-11 7,-17 0,-12 -10,-23 -23,-23 -16,0 -128,62 -128,188 0,89 60,177 163,200 -14,57 -30,113 -47,169 C 182,306 77,185 77,25 Z M 403,1038 C 304,992 242,893 242,784 c 0,-39 10,-95 39,-188 78,97 142,199 142,324 0,33 0,61 -20,118 z"
       fill="currentColor"
       id="path38" />
  </g>
  <a
     style="color:inherit"
     xlink:href="textedit:///Users/tomsegarra/Documents/dev/dummies/lilypond_files/5942b6929854d18bc8143523372de483.ly:21:7:8"
     id="a54"
     transform="translate(-2.27625,-3.2785731)">
    <g
       transform="translate(6.5762,4.8762)"
       id="g44">
      <path
         transform="scale(0.0032,-0.0032)"
         d="m 198,-329 c -12,0 -21,9 -21,21 v 138 l -79,-30 v -154 c 0,-12 -9,-21 -21,-21 -12,0 -21,9 -21,21 v 138 l -22,-8 c -3,-1 -6,-2 -9,-2 -13,0 -25,11 -25,25 v 54 c 0,10 6,20 16,24 l 40,15 V 47 L 34,38 C 31,37 28,37 25,37 12,37 0,48 0,62 v 54 c 0,10 6,19 16,23 l 40,15 v 154 c 0,12 9,21 21,21 12,0 21,-9 21,-21 V 170 l 79,30 v 154 c 0,12 9,21 21,21 12,0 21,-9 21,-21 V 216 l 22,8 c 3,1 6,2 9,2 13,0 25,-11 25,-25 v -54 c 0,-10 -6,-20 -16,-24 L 219,108 V -47 l 22,9 c 3,1 6,1 9,1 13,0 25,-11 25,-25 v -54 c 0,-10 -6,-19 -16,-23 l -40,-15 v -154 c 0,-12 -9,-21 -21,-21 z M 98,62 V -92 l 79,30 V 92 Z"
         fill="currentColor"
         id="path42" />
    </g>
    <g
       transform="translate(7.4562,6.0762)"
       id="g48">
      <path
         transform="scale(0.0032,-0.0032)"
         d="m 198,-329 c -12,0 -21,9 -21,21 v 138 l -79,-30 v -154 c 0,-12 -9,-21 -21,-21 -12,0 -21,9 -21,21 v 138 l -22,-8 c -3,-1 -6,-2 -9,-2 -13,0 -25,11 -25,25 v 54 c 0,10 6,20 16,24 l 40,15 V 47 L 34,38 C 31,37 28,37 25,37 12,37 0,48 0,62 v 54 c 0,10 6,19 16,23 l 40,15 v 154 c 0,12 9,21 21,21 12,0 21,-9 21,-21 V 170 l 79,30 v 154 c 0,12 9,21 21,21 12,0 21,-9 21,-21 V 216 l 22,8 c 3,1 6,2 9,2 13,0 25,-11 25,-25 v -54 c 0,-10 -6,-20 -16,-24 L 219,108 V -47 l 22,9 c 3,1 6,1 9,1 13,0 25,-11 25,-25 v -54 c 0,-10 -6,-19 -16,-23 l -40,-15 v -154 c 0,-12 -9,-21 -21,-21 z M 98,62 V -92 l 79,30 V 92 Z"
         fill="currentColor"
         id="path46" />
    </g>
    <g
       transform="translate(8.3362,4.4762)"
       id="g52">
      <path
         transform="scale(0.0032,-0.0032)"
         d="m 198,-329 c -12,0 -21,9 -21,21 v 138 l -79,-30 v -154 c 0,-12 -9,-21 -21,-21 -12,0 -21,9 -21,21 v 138 l -22,-8 c -3,-1 -6,-2 -9,-2 -13,0 -25,11 -25,25 v 54 c 0,10 6,20 16,24 l 40,15 V 47 L 34,38 C 31,37 28,37 25,37 12,37 0,48 0,62 v 54 c 0,10 6,19 16,23 l 40,15 v 154 c 0,12 9,21 21,21 12,0 21,-9 21,-21 V 170 l 79,30 v 154 c 0,12 9,21 21,21 12,0 21,-9 21,-21 V 216 l 22,8 c 3,1 6,2 9,2 13,0 25,-11 25,-25 v -54 c 0,-10 -6,-20 -16,-24 L 219,108 V -47 l 22,9 c 3,1 6,1 9,1 13,0 25,-11 25,-25 v -54 c 0,-10 -6,-19 -16,-23 l -40,-15 v -154 c 0,-12 -9,-21 -21,-21 z M 98,62 V -92 l 79,30 V 92 Z"
         fill="currentColor"
         id="path50" />
    </g>
  </a>
  <g
     transform="translate(8.08995,3.1976269)"
     id="g58">
    <path
       transform="scale(0.0032,-0.0032)"
       d="m 250,265 c 114,0 172,-112 172,-166 0,-38 -30,-69 -66,-69 -30,0 -72,23 -72,72 0,37 26,75 70,75 3,0 6,-1 9,-1 -26,36 -67,59 -113,59 -107,0 -113,-74 -113,-189 0,-15 1,-30 1,-46 0,-16 -1,-31 -1,-46 0,-115 6,-189 113,-189 78,0 133,70 151,149 2,8 8,11 14,11 7,0 15,-5 15,-14 0,-21 -49,-176 -180,-176 C 105,-265 0,-177 0,0 0,63 18,265 250,265 Z"
       fill="currentColor"
       id="path56" />
  </g>
  <a
     style="color:inherit"
     xlink:href="textedit:///Users/tomsegarra/Documents/dev/dummies/lilypond_files/5942b6929854d18bc8143523372de483.ly:25:20:21"
     id="a64"
     transform="translate(-2.27625,-3.2785731)">
    <g
       transform="translate(31.092,11.9762)"
       id="g62">
      <rect
         x="0"
         y="-0.54110003"
         width="0.66000003"
         height="0.1211"
         ry="0.037300002"
         fill="currentColor"
         id="rect60" />
    </g>
  </a>
  <g
     transform="translate(26.45715,0.65222692)"
     id="g68">
    <polygon
       stroke-linejoin="round"
       stroke-linecap="round"
       stroke-width="0.08"
       fill="currentColor"
       stroke="currentColor"
       points="0.04,0.152 0.04,-0.152 2.3218,0.1389 2.3218,0.4429 "
       id="polygon66" />
  </g>
  <a
     style="color:inherit"
     xlink:href="textedit:///Users/tomsegarra/Documents/dev/dummies/lilypond_files/5942b6929854d18bc8143523372de483.ly:22:10:11"
     id="a74"
     transform="translate(-2.27625,-3.2785731)">
    <g
       transform="translate(20.7895,6.4762)"
       id="g72">
      <path
         transform="scale(0.0032,-0.0032)"
         d="m -9,78 c 0,59 124,84 124,182 0,25 -9,50 -26,70 l -31,37 c -3,4 -4,8 -4,12 0,10 9,18 19,18 5,0 9,-1 13,-6 L 235,213 c 7,-9 11,-17 11,-26 0,-59 -124,-84 -124,-182 0,-25 9,-51 26,-71 l 79,-94 c 3,-4 4,-8 4,-12 0,-10 -9,-18 -19,-18 -11,0 -38,40 -102,40 -23,0 -55,-4 -55,-65 0,-33 11,-73 27,-92 8,-9 -6,-20 -14,-11 -44,53 -92,145 -92,199 0,41 26,43 46,43 30,0 69,-9 106,-23 L 2,52 C -5,61 -9,69 -9,78 Z"
         fill="currentColor"
         id="path70" />
    </g>
  </a>
  <a
     style="color:inherit"
     xlink:href="textedit:///Users/tomsegarra/Documents/dev/dummies/lilypond_files/5942b6929854d18bc8143523372de483.ly:22:20:21"
     id="a80"
     transform="translate(-2.27625,-3.2785731)">
    <g
       transform="translate(27.8139,6.4762)"
       id="g78">
      <path
         transform="scale(0.0032,-0.0032)"
         d="m 212,138 c 68,0 113,-38 113,-95 0,-90 -109,-181 -212,-181 -68,0 -113,38 -113,95 0,90 109,181 212,181 z"
         fill="currentColor"
         id="path76" />
    </g>
  </a>
  <a
     style="color:inherit"
     xlink:href="textedit:///Users/tomsegarra/Documents/dev/dummies/lilypond_files/5942b6929854d18bc8143523372de483.ly:25:13:14"
     id="a88"
     transform="translate(-2.27625,-3.2785731)">
    <g
       transform="translate(27.0709,11.9762)"
       id="g86">
      <text
         font-family="serif"
         font-size="1.9756px"
         text-anchor="start"
         fill="currentColor"
         id="text84"><tspan
           id="tspan82">tell</tspan></text>
    </g>
  </a>
  <g
     transform="translate(26.51775,3.1976269)"
     id="g92">
    <rect
       x="-0.0605"
       y="-2.5380001"
       width="0.1211"
       height="2.4008999"
       ry="0.039999999"
       fill="currentColor"
       id="rect90" />
  </g>
  <g
     transform="translate(21.73385,3.1976269)"
     id="g96">
    <rect
       x="-0.0605"
       y="-0.26289999"
       width="0.1211"
       height="2.6629"
       ry="0.039999999"
       fill="currentColor"
       id="rect94" />
  </g>
  <a
     style="color:inherit"
     xlink:href="textedit:///Users/tomsegarra/Documents/dev/dummies/lilypond_files/5942b6929854d18bc8143523372de483.ly:22:23:24"
     id="a102"
     transform="translate(-2.27625,-3.2785731)">
    <g
       transform="translate(30.0545,6.8762)"
       id="g100">
      <path
         transform="scale(0.0032,-0.0032)"
         d="m 212,138 c 68,0 113,-38 113,-95 0,-90 -109,-181 -212,-181 -68,0 -113,38 -113,95 0,90 109,181 212,181 z"
         fill="currentColor"
         id="path98" />
    </g>
  </a>
  <a
     style="color:inherit"
     xlink:href="textedit:///Users/tomsegarra/Documents/dev/dummies/lilypond_files/5942b6929854d18bc8143523372de483.ly:25:18:19"
     id="a110"
     transform="translate(-2.27625,-3.2785731)">
    <g
       transform="translate(30.131,11.9762)"
       id="g108">
      <text
         font-family="serif"
         font-size="1.9756px"
         text-anchor="start"
         fill="currentColor"
         id="text106"><tspan
           id="tspan104">a</tspan></text>
    </g>
  </a>
  <g
     transform="translate(28.75835,3.1976269)"
     id="g114">
    <rect
       x="-0.0605"
       y="-2.2620001"
       width="0.1211"
       height="2.5250001"
       ry="0.039999999"
       fill="currentColor"
       id="rect112" />
  </g>
  <a
     style="color:inherit"
     xlink:href="textedit:///Users/tomsegarra/Documents/dev/dummies/lilypond_files/5942b6929854d18bc8143523372de483.ly:25:7:8"
     id="a122"
     transform="translate(-2.27625,-3.2785731)">
    <g
       transform="translate(22.3188,11.9762)"
       id="g120">
      <text
         font-family="serif"
         font-size="1.9756px"
         text-anchor="start"
         fill="currentColor"
         id="text118"><tspan
           id="tspan116">Don't</tspan></text>
    </g>
  </a>
  <a
     style="color:inherit"
     xlink:href="textedit:///Users/tomsegarra/Documents/dev/dummies/lilypond_files/5942b6929854d18bc8143523372de483.ly:22:25:26"
     id="a128"
     transform="translate(-2.27625,-3.2785731)">
    <g
       transform="translate(32.2952,6.8762)"
       id="g126">
      <path
         transform="scale(0.0032,-0.0032)"
         d="m 212,138 c 68,0 113,-38 113,-95 0,-90 -109,-181 -212,-181 -68,0 -113,38 -113,95 0,90 109,181 212,181 z"
         fill="currentColor"
         id="path124" />
    </g>
  </a>
  <a
     style="color:inherit"
     xlink:href="textedit:///Users/tomsegarra/Documents/dev/dummies/lilypond_files/5942b6929854d18bc8143523372de483.ly:25:23:24"
     id="a136"
     transform="translate(-2.27625,-3.2785731)">
    <g
       transform="translate(31.8254,11.9762)"
       id="g134">
      <text
         font-family="serif"
         font-size="1.9756px"
         text-anchor="start"
         fill="currentColor"
         id="text132"><tspan
           id="tspan130">ny</tspan></text>
    </g>
  </a>
  <g
     transform="translate(30.99905,3.1976269)"
     id="g140">
    <rect
       x="-0.0605"
       y="-2.4000001"
       width="0.1211"
       height="2.6629"
       ry="0.039999999"
       fill="currentColor"
       id="rect138" />
  </g>
  <a
     style="color:inherit"
     xlink:href="textedit:///Users/tomsegarra/Documents/dev/dummies/lilypond_files/5942b6929854d18bc8143523372de483.ly:22:13:14"
     id="a146"
     transform="translate(-2.27625,-3.2785731)">
    <g
       transform="translate(23.9495,6.0762)"
       id="g144">
      <path
         transform="scale(0.0032,-0.0032)"
         d="m 212,138 c 68,0 113,-38 113,-95 0,-90 -109,-181 -212,-181 -68,0 -113,38 -113,95 0,90 109,181 212,181 z"
         fill="currentColor"
         id="path142" />
    </g>
  </a>
</svg>
