<?xml version="1.0" encoding="UTF-8" standalone="no"?>
<svg
   version="1.2"
   width="101.44349mm"
   height="16.428541mm"
   viewBox="0 0 57.727801 9.3487471"
   id="svg326"
   sodipodi:docname="5b16a8d199eb8933acffc0032c0a933c.svg"
   xmlns:inkscape="http://www.inkscape.org/namespaces/inkscape"
   xmlns:sodipodi="http://sodipodi.sourceforge.net/DTD/sodipodi-0.dtd"
   xmlns:xlink="http://www.w3.org/1999/xlink"
   xmlns="http://www.w3.org/2000/svg"
   xmlns:svg="http://www.w3.org/2000/svg">
  <defs
     id="defs330" />
  <sodipodi:namedview
     id="namedview328"
     pagecolor="#ffffff"
     bordercolor="#000000"
     borderopacity="0.25"
     inkscape:showpageshadow="2"
     inkscape:pageopacity="0.0"
     inkscape:pagecheckerboard="0"
     inkscape:deskcolor="#d1d1d1"
     inkscape:document-units="mm" />
  <style
     type="text/css"
     id="style2"><![CDATA[
tspan { white-space: pre; }
]]></style>
  <g
     transform="translate(4.9997121e-5,5.098751)"
     id="g6">
    <line
       stroke-linejoin="round"
       stroke-linecap="round"
       stroke-width="0.0949"
       stroke="currentColor"
       x1="0.047400001"
       y1="0"
       x2="57.680302"
       y2="0"
       id="line4" />
  </g>
  <g
     transform="translate(4.9997121e-5,4.248751)"
     id="g10">
    <line
       stroke-linejoin="round"
       stroke-linecap="round"
       stroke-width="0.0949"
       stroke="currentColor"
       x1="0.047400001"
       y1="0"
       x2="57.680302"
       y2="0"
       id="line8" />
  </g>
  <g
     transform="translate(4.9997121e-5,3.398751)"
     id="g14">
    <line
       stroke-linejoin="round"
       stroke-linecap="round"
       stroke-width="0.0949"
       stroke="currentColor"
       x1="0.047400001"
       y1="0"
       x2="57.680302"
       y2="0"
       id="line12" />
  </g>
  <g
     transform="translate(4.9997121e-5,2.548751)"
     id="g18">
    <line
       stroke-linejoin="round"
       stroke-linecap="round"
       stroke-width="0.0949"
       stroke="currentColor"
       x1="0.047400001"
       y1="0"
       x2="57.680302"
       y2="0"
       id="line16" />
  </g>
  <g
     transform="translate(4.9997121e-5,1.698751)"
     id="g22">
    <line
       stroke-linejoin="round"
       stroke-linecap="round"
       stroke-width="0.0949"
       stroke="currentColor"
       x1="0.047400001"
       y1="0"
       x2="57.680302"
       y2="0"
       id="line20" />
  </g>
  <g
     transform="translate(55.32785,3.398751)"
     id="g26">
    <rect
       x="0"
       y="-1.7"
       width="0.1802"
       height="3.4000001"
       ry="0.0000"
       fill="currentColor"
       id="rect24" />
  </g>
  <g
     transform="translate(34.42665,3.398751)"
     id="g30">
    <rect
       x="0"
       y="-1.7"
       width="0.1802"
       height="3.4000001"
       ry="0.0000"
       fill="currentColor"
       id="rect28" />
  </g>
  <g
     transform="translate(35.63675,5.255351)"
     id="g34">
    <polygon
       stroke-linejoin="round"
       stroke-linecap="round"
       stroke-width="0.08"
       fill="currentColor"
       stroke="currentColor"
       points="0.04,0.164 0.04,-0.164 10.0279,-0.164 10.0279,0.164 "
       id="polygon32" />
  </g>
  <a
     style="color:inherit"
     xlink:href="textedit:///Users/tomsegarra/Downloads/dummies/lilypond_files/5b16a8d199eb8933acffc0032c0a933c.ly:20:4:5"
     id="a40"
     transform="translate(-2.27615,-3.277449)">
    <g
       transform="translate(14.9044,6.6762)"
       id="g38">
      <path
         transform="scale(0.0034,-0.0034)"
         d="m 70,205 c 80,0 46,-97 90,-97 15,0 52,45 59,59 6,13 26,13 31,0 L 129,-250 c -9,-7 -19,-11 -30,-11 -11,0 -21,4 -30,11 L 187,76 C 154,64 119,54 84,54 37,54 -3,88 -3,133 c 0,40 33,72 73,72 z"
         fill="currentColor"
         id="path36" />
    </g>
  </a>
  <g
     transform="translate(0.80005,4.248751)"
     id="g44">
    <path
       transform="scale(0.0034,-0.0034)"
       d="m 646,2 c 0,-113 -74,-213 -180,-247 3,-34 5,-68 5,-102 0,-20 -1,-40 -2,-60 -7,-121 -91,-228 -209,-228 -108,0 -196,87 -196,196 0,58 53,104 112,104 54,0 95,-48 95,-104 0,-52 -43,-95 -95,-95 -10,0 -20,2 -29,6 26,-38 68,-63 116,-63 h 3 c 93,2 153,92 159,190 1,19 2,37 2,56 0,30 -2,60 -4,90 -5,-1 -43,-8 -88,-8 -194,0 -333,180 -333,375 0,177 130,307 246,442 -31,98 -53,170 -53,347 0,115 55,223 148,290 7,5 16,4 22,-1 68,-80 134,-243 134,-357 0,-143 -85,-255 -178,-364 21,-68 40,-137 57,-206 1,0 5,1 11,1 C 545,264 646,135 646,2 Z M 462,-202 c 66,24 111,88 111,162 0,89 -65,178 -170,190 28,-135 50,-272 59,-352 z M 75,26 c 0,-145 141,-245 263,-245 1,0 46,0 81,6 -7,65 -27,206 -61,363 -79,-8 -124,-61 -124,-119 0,-43 25,-89 80,-121 5,-5 7,-11 7,-16 0,-12 -10,-23 -22,-23 -16,0 -127,63 -127,188 0,89 58,175 161,198 -14,58 -29,116 -46,173 C 181,308 75,186 75,26 Z M 406,1042 C 307,995 244,894 244,785 c 0,-49 13,-111 38,-191 79,97 144,199 144,324 0,33 0,63 -20,124 z"
       fill="currentColor"
       id="path42" />
  </g>
  <a
     style="color:inherit"
     xlink:href="textedit:///Users/tomsegarra/Downloads/dummies/lilypond_files/5b16a8d199eb8933acffc0032c0a933c.ly:19:4:5"
     id="a62"
     transform="translate(-2.27615,-3.277449)">
    <g
       transform="translate(6.5762,4.9762)"
       id="g48">
      <path
         transform="scale(0.0034,-0.0034)"
         d="m 0,117 c 0,9 6,18 15,21 l 43,16 v 157 c 0,11 8,19 19,19 11,0 20,-8 20,-19 V 169 l 81,30 v 156 c 0,11 9,20 20,20 11,0 19,-9 19,-20 V 213 l 28,11 c 3,1 5,1 8,1 12,0 22,-10 22,-23 v -57 c 0,-9 -6,-18 -15,-21 L 217,108 V -49 l 28,10 c 3,1 5,1 8,1 12,0 22,-9 22,-22 v -57 c 0,-9 -6,-18 -15,-21 l -43,-16 v -157 c 0,-11 -8,-19 -19,-19 -11,0 -20,8 -20,19 v 142 l -81,-30 v -156 c 0,-11 -9,-20 -20,-20 -11,0 -19,9 -19,20 v 142 l -28,-11 c -3,-1 -5,-1 -8,-1 -12,0 -22,10 -22,23 v 57 c 0,9 6,18 15,21 l 43,16 V 49 L 30,39 C 27,38 25,38 22,38 10,38 0,47 0,60 Z M 178,94 97,64 V -94 l 81,30 z"
         fill="currentColor"
         id="path46" />
    </g>
    <g
       transform="translate(7.5112,6.2512)"
       id="g52">
      <path
         transform="scale(0.0034,-0.0034)"
         d="m 0,117 c 0,9 6,18 15,21 l 43,16 v 157 c 0,11 8,19 19,19 11,0 20,-8 20,-19 V 169 l 81,30 v 156 c 0,11 9,20 20,20 11,0 19,-9 19,-20 V 213 l 28,11 c 3,1 5,1 8,1 12,0 22,-10 22,-23 v -57 c 0,-9 -6,-18 -15,-21 L 217,108 V -49 l 28,10 c 3,1 5,1 8,1 12,0 22,-9 22,-22 v -57 c 0,-9 -6,-18 -15,-21 l -43,-16 v -157 c 0,-11 -8,-19 -19,-19 -11,0 -20,8 -20,19 v 142 l -81,-30 v -156 c 0,-11 -9,-20 -20,-20 -11,0 -19,9 -19,20 v 142 l -28,-11 c -3,-1 -5,-1 -8,-1 -12,0 -22,10 -22,23 v 57 c 0,9 6,18 15,21 l 43,16 V 49 L 30,39 C 27,38 25,38 22,38 10,38 0,47 0,60 Z M 178,94 97,64 V -94 l 81,30 z"
         fill="currentColor"
         id="path50" />
    </g>
    <g
       transform="translate(8.4462,4.5512)"
       id="g56">
      <path
         transform="scale(0.0034,-0.0034)"
         d="m 0,117 c 0,9 6,18 15,21 l 43,16 v 157 c 0,11 8,19 19,19 11,0 20,-8 20,-19 V 169 l 81,30 v 156 c 0,11 9,20 20,20 11,0 19,-9 19,-20 V 213 l 28,11 c 3,1 5,1 8,1 12,0 22,-10 22,-23 v -57 c 0,-9 -6,-18 -15,-21 L 217,108 V -49 l 28,10 c 3,1 5,1 8,1 12,0 22,-9 22,-22 v -57 c 0,-9 -6,-18 -15,-21 l -43,-16 v -157 c 0,-11 -8,-19 -19,-19 -11,0 -20,8 -20,19 v 142 l -81,-30 v -156 c 0,-11 -9,-20 -20,-20 -11,0 -19,9 -19,20 v 142 l -28,-11 c -3,-1 -5,-1 -8,-1 -12,0 -22,10 -22,23 v 57 c 0,9 6,18 15,21 l 43,16 V 49 L 30,39 C 27,38 25,38 22,38 10,38 0,47 0,60 Z M 178,94 97,64 V -94 l 81,30 z"
         fill="currentColor"
         id="path54" />
    </g>
    <g
       transform="translate(9.3812,5.8262)"
       id="g60">
      <path
         transform="scale(0.0034,-0.0034)"
         d="m 0,117 c 0,9 6,18 15,21 l 43,16 v 157 c 0,11 8,19 19,19 11,0 20,-8 20,-19 V 169 l 81,30 v 156 c 0,11 9,20 20,20 11,0 19,-9 19,-20 V 213 l 28,11 c 3,1 5,1 8,1 12,0 22,-10 22,-23 v -57 c 0,-9 -6,-18 -15,-21 L 217,108 V -49 l 28,10 c 3,1 5,1 8,1 12,0 22,-9 22,-22 v -57 c 0,-9 -6,-18 -15,-21 l -43,-16 v -157 c 0,-11 -8,-19 -19,-19 -11,0 -20,8 -20,19 v 142 l -81,-30 v -156 c 0,-11 -9,-20 -20,-20 -11,0 -19,9 -19,20 v 142 l -28,-11 c -3,-1 -5,-1 -8,-1 -12,0 -22,10 -22,23 v 57 c 0,9 6,18 15,21 l 43,16 V 49 L 30,39 C 27,38 25,38 22,38 10,38 0,47 0,60 Z M 178,94 97,64 V -94 l 81,30 z"
         fill="currentColor"
         id="path58" />
    </g>
  </a>
  <g
     transform="translate(9.19015,3.398751)"
     id="g66">
    <path
       transform="scale(0.0034,-0.0034)"
       d="m 358,29 c -30,0 -74,23 -74,73 0,38 27,76 71,76 4,0 7,0 11,-1 -27,36 -69,59 -116,59 -106,0 -113,-74 -113,-188 0,-15 1,-31 1,-48 0,-17 -1,-33 -1,-48 0,-114 7,-188 113,-188 79,0 136,70 155,150 2,7 7,10 13,10 7,0 14,-5 14,-13 0,-21 -50,-175 -182,-175 C 191,-264 0,-244 0,0 0,63 18,264 250,264 365,264 424,155 424,99 424,60 394,29 358,29 Z"
       fill="currentColor"
       id="path64" />
  </g>
  <a
     style="color:inherit"
     xlink:href="textedit:///Users/tomsegarra/Downloads/dummies/lilypond_files/5b16a8d199eb8933acffc0032c0a933c.ly:20:7:8"
     id="a72"
     transform="translate(-2.27615,-3.277449)">
    <g
       transform="translate(16.9544,4.5512)"
       id="g70">
      <path
         transform="scale(0.0034,-0.0034)"
         d="m 215,137 c 67,0 111,-37 111,-92 0,-90 -111,-182 -215,-182 -67,0 -111,37 -111,92 0,90 111,182 215,182 z"
         fill="currentColor"
         id="path68" />
    </g>
  </a>
  <a
     style="color:inherit"
     xlink:href="textedit:///Users/tomsegarra/Downloads/dummies/lilypond_files/5b16a8d199eb8933acffc0032c0a933c.ly:24:1:9"
     id="a80"
     transform="translate(-2.27615,-3.277449)">
    <g
       transform="translate(15.1181,12.1762)"
       id="g78">
      <text
         font-family="serif"
         font-size="2.0989px"
         text-anchor="start"
         fill="currentColor"
         id="text76"><tspan
           id="tspan74">Some</tspan></text>
    </g>
  </a>
  <g
     transform="translate(14.73995,3.398751)"
     id="g84">
    <rect
       x="-0.061700001"
       y="-1.9725"
       width="0.1233"
       height="2.6659999"
       ry="0.039999999"
       fill="currentColor"
       id="rect82" />
  </g>
  <a
     style="color:inherit"
     xlink:href="textedit:///Users/tomsegarra/Downloads/dummies/lilypond_files/5b16a8d199eb8933acffc0032c0a933c.ly:20:14:15"
     id="a90"
     transform="translate(-2.27615,-3.277449)">
    <g
       transform="translate(21.715,4.5512)"
       id="g88">
      <path
         transform="scale(0.0034,-0.0034)"
         d="m 215,137 c 67,0 111,-37 111,-92 0,-90 -111,-182 -215,-182 -67,0 -111,37 -111,92 0,90 111,182 215,182 z"
         fill="currentColor"
         id="path86" />
    </g>
  </a>
  <a
     style="color:inherit"
     xlink:href="textedit:///Users/tomsegarra/Downloads/dummies/lilypond_files/5b16a8d199eb8933acffc0032c0a933c.ly:24:9:17"
     id="a98"
     transform="translate(-2.27615,-3.277449)">
    <g
       transform="translate(19.9981,12.1762)"
       id="g96">
      <text
         font-family="serif"
         font-size="2.0989px"
         text-anchor="start"
         fill="currentColor"
         id="text94"><tspan
           id="tspan92">times</tspan></text>
    </g>
  </a>
  <g
     transform="translate(19.50045,3.398751)"
     id="g102">
    <rect
       x="-0.061700001"
       y="-1.9725"
       width="0.1233"
       height="2.6659999"
       ry="0.039999999"
       fill="currentColor"
       id="rect100" />
  </g>
  <a
     style="color:inherit"
     xlink:href="textedit:///Users/tomsegarra/Downloads/dummies/lilypond_files/5b16a8d199eb8933acffc0032c0a933c.ly:20:18:19"
     id="a108"
     transform="translate(-2.27615,-3.277449)">
    <g
       transform="translate(24.7769,4.5512)"
       id="g106">
      <path
         transform="scale(0.0034,-0.0034)"
         d="m 215,137 c 67,0 111,-37 111,-92 0,-90 -111,-182 -215,-182 -67,0 -111,37 -111,92 0,90 111,182 215,182 z"
         fill="currentColor"
         id="path104" />
    </g>
  </a>
  <a
     style="color:inherit"
     xlink:href="textedit:///Users/tomsegarra/Downloads/dummies/lilypond_files/5b16a8d199eb8933acffc0032c0a933c.ly:24:15:23"
     id="a116"
     transform="translate(-2.27615,-3.277449)">
    <g
       transform="translate(24.9892,12.1762)"
       id="g114">
      <text
         font-family="serif"
         font-size="2.0989px"
         text-anchor="start"
         fill="currentColor"
         id="text112"><tspan
           id="tspan110">I</tspan></text>
    </g>
  </a>
  <g
     transform="translate(22.56245,3.398751)"
     id="g120">
    <rect
       x="-0.061700001"
       y="-1.9725"
       width="0.1233"
       height="2.6659999"
       ry="0.039999999"
       fill="currentColor"
       id="rect118" />
  </g>
  <a
     style="color:inherit"
     xlink:href="textedit:///Users/tomsegarra/Downloads/dummies/lilypond_files/5b16a8d199eb8933acffc0032c0a933c.ly:20:22:23"
     id="a126"
     transform="translate(-2.27615,-3.277449)">
    <g
       transform="translate(27.0843,4.9762)"
       id="g124">
      <path
         transform="scale(0.0034,-0.0034)"
         d="m 215,137 c 67,0 111,-37 111,-92 0,-90 -111,-182 -215,-182 -67,0 -111,37 -111,92 0,90 111,182 215,182 z"
         fill="currentColor"
         id="path122" />
    </g>
  </a>
  <a
     style="color:inherit"
     xlink:href="textedit:///Users/tomsegarra/Downloads/dummies/lilypond_files/5b16a8d199eb8933acffc0032c0a933c.ly:24:17:25"
     id="a134"
     transform="translate(-2.27615,-3.277449)">
    <g
       transform="translate(26.8356,12.1762)"
       id="g132">
      <text
         font-family="serif"
         font-size="2.0989px"
         text-anchor="start"
         fill="currentColor"
         id="text130"><tspan
           id="tspan128">fe</tspan></text>
    </g>
  </a>
  <g
     transform="translate(24.86985,3.398751)"
     id="g138">
    <rect
       x="-0.061700001"
       y="-1.5475"
       width="0.1233"
       height="3.0978999"
       ry="0.039999999"
       fill="currentColor"
       id="rect136" />
  </g>
  <g
     transform="translate(24.80815,4.942151)"
     id="g142">
    <polygon
       stroke-linejoin="round"
       stroke-linecap="round"
       stroke-width="0.08"
       fill="currentColor"
       stroke="currentColor"
       points="0.04,0.164 0.04,-0.164 7.5245,0.686 7.5245,1.014 "
       id="polygon140" />
  </g>
  <a
     style="color:inherit"
     xlink:href="textedit:///Users/tomsegarra/Downloads/dummies/lilypond_files/5b16a8d199eb8933acffc0032c0a933c.ly:20:26:27"
     id="a148"
     transform="translate(-2.27615,-3.277449)">
    <g
       transform="translate(29.3917,5.4012)"
       id="g146">
      <path
         transform="scale(0.0034,-0.0034)"
         d="m 215,137 c 67,0 111,-37 111,-92 0,-90 -111,-182 -215,-182 -67,0 -111,37 -111,92 0,90 111,182 215,182 z"
         fill="currentColor"
         id="path144" />
    </g>
  </a>
  <a
     style="color:inherit"
     xlink:href="textedit:///Users/tomsegarra/Downloads/dummies/lilypond_files/5b16a8d199eb8933acffc0032c0a933c.ly:24:23:31"
     id="a156"
     transform="translate(-2.27615,-3.277449)">
    <g
       transform="translate(29.1942,12.1762)"
       id="g154">
      <text
         font-family="serif"
         font-size="2.0989px"
         text-anchor="start"
         fill="currentColor"
         id="text152"><tspan
           id="tspan150">el</tspan></text>
    </g>
  </a>
  <g
     transform="translate(27.17725,3.398751)"
     id="g160">
    <rect
       x="-0.061700001"
       y="-1.1224999"
       width="0.1233"
       height="2.9322"
       ry="0.039999999"
       fill="currentColor"
       id="rect158" />
  </g>
  <a
     style="color:inherit"
     xlink:href="textedit:///Users/tomsegarra/Downloads/dummies/lilypond_files/5b16a8d199eb8933acffc0032c0a933c.ly:20:28:29"
     id="a166"
     transform="translate(-2.27615,-3.277449)">
    <g
       transform="translate(32.1635,5.4012)"
       id="g164">
      <path
         transform="scale(0.0034,-0.0034)"
         d="m 215,137 c 67,0 111,-37 111,-92 0,-90 -111,-182 -215,-182 -67,0 -111,37 -111,92 0,90 111,182 215,182 z"
         fill="currentColor"
         id="path162" />
    </g>
  </a>
  <a
     style="color:inherit"
     xlink:href="textedit:///Users/tomsegarra/Downloads/dummies/lilypond_files/5b16a8d199eb8933acffc0032c0a933c.ly:24:26:34"
     id="a174"
     transform="translate(-2.27615,-3.277449)">
    <g
       transform="translate(31.1466,12.1762)"
       id="g172">
      <text
         font-family="serif"
         font-size="2.0989px"
         text-anchor="start"
         fill="currentColor"
         id="text170"><tspan
           id="tspan168">like</tspan></text>
    </g>
  </a>
  <g
     transform="translate(29.94895,3.398751)"
     id="g178">
    <rect
       x="-0.061700001"
       y="-1.1224999"
       width="0.1233"
       height="3.2435999"
       ry="0.039999999"
       fill="currentColor"
       id="rect176" />
  </g>
  <a
     style="color:inherit"
     xlink:href="textedit:///Users/tomsegarra/Downloads/dummies/lilypond_files/5b16a8d199eb8933acffc0032c0a933c.ly:20:30:31"
     id="a184"
     transform="translate(-2.27615,-3.277449)">
    <g
       transform="translate(34.5255,6.6762)"
       id="g182">
      <path
         transform="scale(0.0034,-0.0034)"
         d="m 215,137 c 67,0 111,-37 111,-92 0,-90 -111,-182 -215,-182 -67,0 -111,37 -111,92 0,90 111,182 215,182 z"
         fill="currentColor"
         id="path180" />
    </g>
  </a>
  <a
     style="color:inherit"
     xlink:href="textedit:///Users/tomsegarra/Downloads/dummies/lilypond_files/5b16a8d199eb8933acffc0032c0a933c.ly:24:31:39"
     id="a192"
     transform="translate(-2.27615,-3.277449)">
    <g
       transform="translate(34.7377,12.1762)"
       id="g190">
      <text
         font-family="serif"
         font-size="2.0989px"
         text-anchor="start"
         fill="currentColor"
         id="text188"><tspan
           id="tspan186">I</tspan></text>
    </g>
  </a>
  <g
     transform="translate(32.31095,3.398751)"
     id="g196">
    <rect
       x="-0.061700001"
       y="0.1525"
       width="0.1233"
       height="2.234"
       ry="0.039999999"
       fill="currentColor"
       id="rect194" />
  </g>
  <g
     transform="translate(14.67825,4.092151)"
     id="g200">
    <polygon
       stroke-linejoin="round"
       stroke-linecap="round"
       stroke-width="0.08"
       fill="currentColor"
       stroke="currentColor"
       points="0.04,0.164 0.04,-0.164 7.9058,-0.164 7.9058,0.164 "
       id="polygon198" />
  </g>
  <a
     style="color:inherit"
     xlink:href="textedit:///Users/tomsegarra/Downloads/dummies/lilypond_files/5b16a8d199eb8933acffc0032c0a933c.ly:21:4:5"
     id="a206"
     transform="translate(-2.27615,-3.277449)">
    <g
       transform="translate(37.9129,6.2512)"
       id="g204">
      <path
         transform="scale(0.0034,-0.0034)"
         d="m 215,137 c 67,0 111,-37 111,-92 0,-90 -111,-182 -215,-182 -67,0 -111,37 -111,92 0,90 111,182 215,182 z"
         fill="currentColor"
         id="path202" />
    </g>
  </a>
  <a
     style="color:inherit"
     xlink:href="textedit:///Users/tomsegarra/Downloads/dummies/lilypond_files/5b16a8d199eb8933acffc0032c0a933c.ly:24:33:41"
     id="a214"
     transform="translate(-2.27615,-3.277449)">
    <g
       transform="translate(36.4009,12.1762)"
       id="g212">
      <text
         font-family="serif"
         font-size="2.0989px"
         text-anchor="start"
         fill="currentColor"
         id="text210"><tspan
           id="tspan208">don't</tspan></text>
    </g>
  </a>
  <g
     transform="translate(35.69845,3.398751)"
     id="g218">
    <rect
       x="-0.061700001"
       y="-0.27250001"
       width="0.1233"
       height="2.1291001"
       ry="0.039999999"
       fill="currentColor"
       id="rect216" />
  </g>
  <a
     style="color:inherit"
     xlink:href="textedit:///Users/tomsegarra/Downloads/dummies/lilypond_files/5b16a8d199eb8933acffc0032c0a933c.ly:24:20:28"
     id="a224"
     transform="translate(-2.27615,-3.277449)">
    <g
       transform="translate(28.5104,12.1762)"
       id="g222">
      <rect
         x="0"
         y="-0.54329997"
         width="0.61390001"
         height="0.1233"
         ry="0.037900001"
         fill="currentColor"
         id="rect220" />
    </g>
  </a>
  <a
     style="color:inherit"
     xlink:href="textedit:///Users/tomsegarra/Downloads/dummies/lilypond_files/5b16a8d199eb8933acffc0032c0a933c.ly:21:8:9"
     id="a230"
     transform="translate(-2.27615,-3.277449)">
    <g
       transform="translate(42.4089,5.4012)"
       id="g228">
      <path
         transform="scale(0.0034,-0.0034)"
         d="m 215,137 c 67,0 111,-37 111,-92 0,-90 -111,-182 -215,-182 -67,0 -111,37 -111,92 0,90 111,182 215,182 z"
         fill="currentColor"
         id="path226" />
    </g>
  </a>
  <a
     style="color:inherit"
     xlink:href="textedit:///Users/tomsegarra/Downloads/dummies/lilypond_files/5b16a8d199eb8933acffc0032c0a933c.ly:24:39:47"
     id="a238"
     transform="translate(-2.27615,-3.277449)">
    <g
       transform="translate(40.9823,12.1762)"
       id="g236">
      <text
         font-family="serif"
         font-size="2.0989px"
         text-anchor="start"
         fill="currentColor"
         id="text234"><tspan
           id="tspan232">have</tspan></text>
    </g>
  </a>
  <g
     transform="translate(40.19435,3.398751)"
     id="g242">
    <rect
       x="-0.061700001"
       y="-1.1224999"
       width="0.1233"
       height="2.9791"
       ry="0.039999999"
       fill="currentColor"
       id="rect240" />
  </g>
  <a
     style="color:inherit"
     xlink:href="textedit:///Users/tomsegarra/Downloads/dummies/lilypond_files/5b16a8d199eb8933acffc0032c0a933c.ly:21:10:11"
     id="a248"
     transform="translate(-2.27615,-3.277449)">
    <g
       transform="translate(45.3001,6.2512)"
       id="g246">
      <path
         transform="scale(0.0034,-0.0034)"
         d="m 215,137 c 67,0 111,-37 111,-92 0,-90 -111,-182 -215,-182 -67,0 -111,37 -111,92 0,90 111,182 215,182 z"
         fill="currentColor"
         id="path244" />
    </g>
  </a>
  <a
     style="color:inherit"
     xlink:href="textedit:///Users/tomsegarra/Downloads/dummies/lilypond_files/5b16a8d199eb8933acffc0032c0a933c.ly:24:44:52"
     id="a256"
     transform="translate(-2.27615,-3.277449)">
    <g
       transform="translate(45.3929,12.1762)"
       id="g254">
      <text
         font-family="serif"
         font-size="2.0989px"
         text-anchor="start"
         fill="currentColor"
         id="text252"><tspan
           id="tspan250">a</tspan></text>
    </g>
  </a>
  <g
     transform="translate(43.08565,3.398751)"
     id="g260">
    <rect
       x="-0.061700001"
       y="-0.27250001"
       width="0.1233"
       height="2.1291001"
       ry="0.039999999"
       fill="currentColor"
       id="rect258" />
  </g>
  <a
     style="color:inherit"
     xlink:href="textedit:///Users/tomsegarra/Downloads/dummies/lilypond_files/5b16a8d199eb8933acffc0032c0a933c.ly:21:14:15"
     id="a266"
     transform="translate(-2.27615,-3.277449)">
    <g
       transform="translate(47.8575,4.9762)"
       id="g264">
      <path
         transform="scale(0.0034,-0.0034)"
         d="m 215,137 c 67,0 111,-37 111,-92 0,-90 -111,-182 -215,-182 -67,0 -111,37 -111,92 0,90 111,182 215,182 z"
         fill="currentColor"
         id="path262" />
    </g>
  </a>
  <a
     style="color:inherit"
     xlink:href="textedit:///Users/tomsegarra/Downloads/dummies/lilypond_files/5b16a8d199eb8933acffc0032c0a933c.ly:24:46:54"
     id="a274"
     transform="translate(-2.27615,-3.277449)">
    <g
       transform="translate(47.4211,12.1762)"
       id="g272">
      <text
         font-family="serif"
         font-size="2.0989px"
         text-anchor="start"
         fill="currentColor"
         id="text270"><tspan
           id="tspan268">pa</tspan></text>
    </g>
  </a>
  <g
     transform="translate(45.64305,3.398751)"
     id="g278">
    <rect
       x="-0.061700001"
       y="-1.5475"
       width="0.1233"
       height="3.4040999"
       ry="0.039999999"
       fill="currentColor"
       id="rect276" />
  </g>
  <a
     style="color:inherit"
     xlink:href="textedit:///Users/tomsegarra/Downloads/dummies/lilypond_files/5b16a8d199eb8933acffc0032c0a933c.ly:21:18:19"
     id="a284"
     transform="translate(-2.27615,-3.277449)">
    <g
       transform="translate(50.1649,5.4012)"
       id="g282">
      <path
         transform="scale(0.0034,-0.0034)"
         d="m 215,137 c 67,0 111,-37 111,-92 0,-90 -111,-182 -215,-182 -67,0 -111,37 -111,92 0,90 111,182 215,182 z"
         fill="currentColor"
         id="path280" />
    </g>
  </a>
  <a
     style="color:inherit"
     xlink:href="textedit:///Users/tomsegarra/Downloads/dummies/lilypond_files/5b16a8d199eb8933acffc0032c0a933c.ly:24:52:60"
     id="a292"
     transform="translate(-2.27615,-3.277449)">
    <g
       transform="translate(49.626,12.1762)"
       id="g290">
      <text
         font-family="serif"
         font-size="2.0989px"
         text-anchor="start"
         fill="currentColor"
         id="text288"><tspan
           id="tspan286">art</tspan></text>
    </g>
  </a>
  <g
     transform="translate(47.95045,3.398751)"
     id="g296">
    <rect
       x="-0.061700001"
       y="-1.1224999"
       width="0.1233"
       height="2.8225"
       ry="0.039999999"
       fill="currentColor"
       id="rect294" />
  </g>
  <g
     transform="translate(48.01205,5.058751)"
     id="g300">
    <path
       transform="scale(0.0034,-0.0034)"
       d="M 0,0 H -18 V 250 H 0 Z m 0,0 v 250 c 96,59 222,149 222,259 0,57 -15,111 -40,162 -3,17 10,29 24,29 8,0 16,-5 21,-13 25,-56 40,-116 40,-178 C 267,306 0,203 0,0 Z"
       fill="currentColor"
       id="path298" />
  </g>
  <a
     style="color:inherit"
     xlink:href="textedit:///Users/tomsegarra/Downloads/dummies/lilypond_files/5b16a8d199eb8933acffc0032c0a933c.ly:21:20:21"
     id="a306"
     transform="translate(-2.27615,-3.277449)">
    <g
       transform="translate(52.6891,5.4012)"
       id="g304">
      <path
         transform="scale(0.0034,-0.0034)"
         d="m 215,137 c 67,0 111,-37 111,-92 0,-90 -111,-182 -215,-182 -67,0 -111,37 -111,92 0,90 111,182 215,182 z"
         fill="currentColor"
         id="path302" />
    </g>
  </a>
  <a
     style="color:inherit"
     xlink:href="textedit:///Users/tomsegarra/Downloads/dummies/lilypond_files/5b16a8d199eb8933acffc0032c0a933c.ly:24:59:67"
     id="a314"
     transform="translate(-2.27615,-3.277449)">
    <g
       transform="translate(51.9112,12.1762)"
       id="g312">
      <text
         font-family="serif"
         font-size="2.0989px"
         text-anchor="start"
         fill="currentColor"
         id="text310"><tspan
           id="tspan308">ner</tspan></text>
    </g>
  </a>
  <g
     transform="translate(50.47455,3.398751)"
     id="g318">
    <rect
       x="-0.061700001"
       y="-1.1224999"
       width="0.1233"
       height="2.8225"
       ry="0.039999999"
       fill="currentColor"
       id="rect316" />
  </g>
  <a
     style="color:inherit"
     xlink:href="textedit:///Users/tomsegarra/Downloads/dummies/lilypond_files/5b16a8d199eb8933acffc0032c0a933c.ly:21:23:24"
     id="a324"
     transform="translate(-2.27615,-3.277449)">
    <g
       transform="translate(56.1965,6.6762)"
       id="g322">
      <path
         transform="scale(0.0034,-0.0034)"
         d="m -8,78 c 0,59 125,83 125,182 0,25 -9,49 -26,69 l -33,40 c -3,4 -4,7 -4,11 0,9 9,17 18,17 4,0 8,-2 12,-6 L 234,212 c 7,-9 11,-18 11,-26 0,-59 -125,-83 -125,-182 0,-25 8,-49 25,-69 l 82,-97 c 3,-4 4,-7 4,-11 0,-9 -8,-17 -17,-17 -10,0 -42,42 -106,42 -19,0 -54,-1 -54,-66 0,-34 10,-73 27,-93 7,-9 -5,-20 -12,-11 -45,53 -93,147 -93,201 0,42 27,42 43,42 31,0 74,-11 113,-27 L 3,52 C -4,61 -8,70 -8,78 Z"
         fill="currentColor"
         id="path320" />
    </g>
  </a>
</svg>
