<svg xmlns="http://www.w3.org/2000/svg" xmlns:xlink="http://www.w3.org/1999/xlink" version="1.2" width="145.45mm" height="297.00mm" viewBox="0 0 82.7695 169.0094">
<style type="text/css">
<![CDATA[
tspan { white-space: pre; }
]]>
</style>
<!-- Page: 1/1 -->
<g transform="translate(2.2762, 5.4250)">
<rect x="74.4802" y="-0.0899" width="1.6611" height="0.1799" ry="0.0899" fill="currentColor"/>
</g>
<g transform="translate(2.2762, 6.2750)">
<rect x="74.4802" y="-0.0899" width="1.6611" height="0.1799" ry="0.0899" fill="currentColor"/>
</g>
<g transform="translate(2.2762, 7.1250)">
<rect x="74.4802" y="-0.0899" width="1.6611" height="0.1799" ry="0.0899" fill="currentColor"/>
</g>
<g transform="translate(2.2762, 7.9750)">
<rect x="74.4802" y="-0.0899" width="1.6611" height="0.1799" ry="0.0899" fill="currentColor"/>
</g>
<g transform="translate(2.2762, 8.8250)">
<rect x="74.4802" y="-0.0899" width="1.6611" height="0.1799" ry="0.0899" fill="currentColor"/>
</g>
<g transform="translate(2.2762, 9.6750)">
<rect x="74.4802" y="-0.0899" width="1.6611" height="0.1799" ry="0.0899" fill="currentColor"/>
</g>
<g transform="translate(2.2762, 4.5750)">
<rect x="70.0106" y="-0.0899" width="1.5717" height="0.1799" ry="0.0899" fill="currentColor"/>
</g>
<g transform="translate(2.2762, 5.4250)">
<rect x="69.9212" y="-0.0899" width="1.6611" height="0.1799" ry="0.0899" fill="currentColor"/>
</g>
<g transform="translate(2.2762, 6.2750)">
<rect x="69.9212" y="-0.0899" width="1.6611" height="0.1799" ry="0.0899" fill="currentColor"/>
</g>
<g transform="translate(2.2762, 7.1250)">
<rect x="69.9212" y="-0.0899" width="1.6611" height="0.1799" ry="0.0899" fill="currentColor"/>
</g>
<g transform="translate(2.2762, 7.9750)">
<rect x="69.9212" y="-0.0899" width="1.6611" height="0.1799" ry="0.0899" fill="currentColor"/>
</g>
<g transform="translate(2.2762, 8.8250)">
<rect x="69.9212" y="-0.0899" width="1.6611" height="0.1799" ry="0.0899" fill="currentColor"/>
</g>
<g transform="translate(2.2762, 9.6750)">
<rect x="69.9212" y="-0.0899" width="1.6611" height="0.1799" ry="0.0899" fill="currentColor"/>
</g>
<g transform="translate(2.2762, 5.4250)">
<rect x="66.4138" y="-0.0899" width="1.6611" height="0.1799" ry="0.0899" fill="currentColor"/>
</g>
<g transform="translate(2.2762, 6.2750)">
<rect x="66.4138" y="-0.0899" width="1.6611" height="0.1799" ry="0.0899" fill="currentColor"/>
</g>
<g transform="translate(2.2762, 7.1250)">
<rect x="66.4138" y="-0.0899" width="1.6611" height="0.1799" ry="0.0899" fill="currentColor"/>
</g>
<g transform="translate(2.2762, 7.9750)">
<rect x="66.4138" y="-0.0899" width="1.6611" height="0.1799" ry="0.0899" fill="currentColor"/>
</g>
<g transform="translate(2.2762, 8.8250)">
<rect x="66.4138" y="-0.0899" width="1.6611" height="0.1799" ry="0.0899" fill="currentColor"/>
</g>
<g transform="translate(2.2762, 9.6750)">
<rect x="66.4138" y="-0.0899" width="1.6611" height="0.1799" ry="0.0899" fill="currentColor"/>
</g>
<g transform="translate(2.2762, 5.4250)">
<rect x="62.9064" y="-0.0899" width="1.6611" height="0.1799" ry="0.0899" fill="currentColor"/>
</g>
<g transform="translate(2.2762, 6.2750)">
<rect x="62.9064" y="-0.0899" width="1.6611" height="0.1799" ry="0.0899" fill="currentColor"/>
</g>
<g transform="translate(2.2762, 7.1250)">
<rect x="62.9064" y="-0.0899" width="1.6611" height="0.1799" ry="0.0899" fill="currentColor"/>
</g>
<g transform="translate(2.2762, 7.9750)">
<rect x="62.9064" y="-0.0899" width="1.6611" height="0.1799" ry="0.0899" fill="currentColor"/>
</g>
<g transform="translate(2.2762, 8.8250)">
<rect x="62.9064" y="-0.0899" width="1.6611" height="0.1799" ry="0.0899" fill="currentColor"/>
</g>
<g transform="translate(2.2762, 9.6750)">
<rect x="62.9064" y="-0.0899" width="1.6611" height="0.1799" ry="0.0899" fill="currentColor"/>
</g>
<g transform="translate(2.2762, 6.2750)">
<rect x="59.4884" y="-0.0899" width="1.5717" height="0.1799" ry="0.0899" fill="currentColor"/>
</g>
<g transform="translate(2.2762, 7.1250)">
<rect x="59.3990" y="-0.0899" width="1.6611" height="0.1799" ry="0.0899" fill="currentColor"/>
</g>
<g transform="translate(2.2762, 7.9750)">
<rect x="59.3990" y="-0.0899" width="1.6611" height="0.1799" ry="0.0899" fill="currentColor"/>
</g>
<g transform="translate(2.2762, 8.8250)">
<rect x="59.3990" y="-0.0899" width="1.6611" height="0.1799" ry="0.0899" fill="currentColor"/>
</g>
<g transform="translate(2.2762, 9.6750)">
<rect x="59.3990" y="-0.0899" width="1.6611" height="0.1799" ry="0.0899" fill="currentColor"/>
</g>
<g transform="translate(2.2762, 5.4250)">
<rect x="54.8400" y="-0.0899" width="1.6611" height="0.1799" ry="0.0899" fill="currentColor"/>
</g>
<g transform="translate(2.2762, 6.2750)">
<rect x="54.8400" y="-0.0899" width="1.6611" height="0.1799" ry="0.0899" fill="currentColor"/>
</g>
<g transform="translate(2.2762, 7.1250)">
<rect x="54.8400" y="-0.0899" width="1.6611" height="0.1799" ry="0.0899" fill="currentColor"/>
</g>
<g transform="translate(2.2762, 7.9750)">
<rect x="54.8400" y="-0.0899" width="1.6611" height="0.1799" ry="0.0899" fill="currentColor"/>
</g>
<g transform="translate(2.2762, 8.8250)">
<rect x="54.8400" y="-0.0899" width="1.6611" height="0.1799" ry="0.0899" fill="currentColor"/>
</g>
<g transform="translate(2.2762, 9.6750)">
<rect x="54.8400" y="-0.0899" width="1.6611" height="0.1799" ry="0.0899" fill="currentColor"/>
</g>
<g transform="translate(2.2762, 4.5750)">
<rect x="52.6220" y="-0.0899" width="1.5717" height="0.1799" ry="0.0899" fill="currentColor"/>
</g>
<g transform="translate(2.2762, 5.4250)">
<rect x="52.5326" y="-0.0899" width="1.6611" height="0.1799" ry="0.0899" fill="currentColor"/>
</g>
<g transform="translate(2.2762, 6.2750)">
<rect x="52.5326" y="-0.0899" width="1.6611" height="0.1799" ry="0.0899" fill="currentColor"/>
</g>
<g transform="translate(2.2762, 7.1250)">
<rect x="52.5326" y="-0.0899" width="1.6611" height="0.1799" ry="0.0899" fill="currentColor"/>
</g>
<g transform="translate(2.2762, 7.9750)">
<rect x="52.5326" y="-0.0899" width="1.6611" height="0.1799" ry="0.0899" fill="currentColor"/>
</g>
<g transform="translate(2.2762, 8.8250)">
<rect x="52.5326" y="-0.0899" width="1.6611" height="0.1799" ry="0.0899" fill="currentColor"/>
</g>
<g transform="translate(2.2762, 9.6750)">
<rect x="52.5326" y="-0.0899" width="1.6611" height="0.1799" ry="0.0899" fill="currentColor"/>
</g>
<g transform="translate(2.2762, 5.4250)">
<rect x="49.8836" y="-0.0899" width="1.6611" height="0.1799" ry="0.0899" fill="currentColor"/>
</g>
<g transform="translate(2.2762, 6.2750)">
<rect x="49.8836" y="-0.0899" width="1.6611" height="0.1799" ry="0.0899" fill="currentColor"/>
</g>
<g transform="translate(2.2762, 7.1250)">
<rect x="49.8836" y="-0.0899" width="1.6611" height="0.1799" ry="0.0899" fill="currentColor"/>
</g>
<g transform="translate(2.2762, 7.9750)">
<rect x="49.8836" y="-0.0899" width="1.6611" height="0.1799" ry="0.0899" fill="currentColor"/>
</g>
<g transform="translate(2.2762, 8.8250)">
<rect x="49.8836" y="-0.0899" width="1.6611" height="0.1799" ry="0.0899" fill="currentColor"/>
</g>
<g transform="translate(2.2762, 9.6750)">
<rect x="49.8836" y="-0.0899" width="1.6611" height="0.1799" ry="0.0899" fill="currentColor"/>
</g>
<g transform="translate(2.2762, 5.4250)">
<rect x="47.5762" y="-0.0899" width="1.6611" height="0.1799" ry="0.0899" fill="currentColor"/>
</g>
<g transform="translate(2.2762, 6.2750)">
<rect x="47.5762" y="-0.0899" width="1.6611" height="0.1799" ry="0.0899" fill="currentColor"/>
</g>
<g transform="translate(2.2762, 7.1250)">
<rect x="47.5762" y="-0.0899" width="1.6611" height="0.1799" ry="0.0899" fill="currentColor"/>
</g>
<g transform="translate(2.2762, 7.9750)">
<rect x="47.5762" y="-0.0899" width="1.6611" height="0.1799" ry="0.0899" fill="currentColor"/>
</g>
<g transform="translate(2.2762, 8.8250)">
<rect x="47.5762" y="-0.0899" width="1.6611" height="0.1799" ry="0.0899" fill="currentColor"/>
</g>
<g transform="translate(2.2762, 9.6750)">
<rect x="47.5762" y="-0.0899" width="1.6611" height="0.1799" ry="0.0899" fill="currentColor"/>
</g>
<g transform="translate(2.2762, 9.6750)">
<rect x="43.1169" y="-0.0899" width="1.6611" height="0.1799" ry="0.0899" fill="currentColor"/>
</g>
<g transform="translate(2.2762, 7.9750)">
<rect x="38.5336" y="-0.0899" width="1.6611" height="0.1799" ry="0.0899" fill="currentColor"/>
</g>
<g transform="translate(2.2762, 8.8250)">
<rect x="38.5336" y="-0.0899" width="1.6611" height="0.1799" ry="0.0899" fill="currentColor"/>
</g>
<g transform="translate(2.2762, 9.6750)">
<rect x="38.5336" y="-0.0899" width="1.6611" height="0.1799" ry="0.0899" fill="currentColor"/>
</g>
<g transform="translate(2.2762, 7.9750)">
<rect x="36.3156" y="-0.0899" width="1.5717" height="0.1799" ry="0.0899" fill="currentColor"/>
</g>
<g transform="translate(2.2762, 8.8250)">
<rect x="36.2262" y="-0.0899" width="1.6611" height="0.1799" ry="0.0899" fill="currentColor"/>
</g>
<g transform="translate(2.2762, 9.6750)">
<rect x="36.2262" y="-0.0899" width="1.6611" height="0.1799" ry="0.0899" fill="currentColor"/>
</g>
<g transform="translate(2.2762, 7.9750)">
<rect x="33.5772" y="-0.0899" width="1.6611" height="0.1799" ry="0.0899" fill="currentColor"/>
</g>
<g transform="translate(2.2762, 8.8250)">
<rect x="33.5772" y="-0.0899" width="1.6611" height="0.1799" ry="0.0899" fill="currentColor"/>
</g>
<g transform="translate(2.2762, 9.6750)">
<rect x="33.5772" y="-0.0899" width="1.6611" height="0.1799" ry="0.0899" fill="currentColor"/>
</g>
<g transform="translate(2.2762, 8.8250)">
<rect x="31.2698" y="-0.0899" width="1.6611" height="0.1799" ry="0.0899" fill="currentColor"/>
</g>
<g transform="translate(2.2762, 9.6750)">
<rect x="31.2698" y="-0.0899" width="1.6611" height="0.1799" ry="0.0899" fill="currentColor"/>
</g>
<g transform="translate(2.2762, 7.9750)">
<rect x="22.2044" y="-0.0899" width="1.6611" height="0.1799" ry="0.0899" fill="currentColor"/>
</g>
<g transform="translate(2.2762, 8.8250)">
<rect x="22.2044" y="-0.0899" width="1.6611" height="0.1799" ry="0.0899" fill="currentColor"/>
</g>
<g transform="translate(2.2762, 9.6750)">
<rect x="22.2044" y="-0.0899" width="1.6611" height="0.1799" ry="0.0899" fill="currentColor"/>
</g>
<g transform="translate(2.2762, 7.9750)">
<rect x="19.9864" y="-0.0899" width="1.5717" height="0.1799" ry="0.0899" fill="currentColor"/>
</g>
<g transform="translate(2.2762, 8.8250)">
<rect x="19.8970" y="-0.0899" width="1.6611" height="0.1799" ry="0.0899" fill="currentColor"/>
</g>
<g transform="translate(2.2762, 9.6750)">
<rect x="19.8970" y="-0.0899" width="1.6611" height="0.1799" ry="0.0899" fill="currentColor"/>
</g>
<g transform="translate(2.2762, 7.9750)">
<rect x="17.2481" y="-0.0899" width="1.6611" height="0.1799" ry="0.0899" fill="currentColor"/>
</g>
<g transform="translate(2.2762, 8.8250)">
<rect x="17.2481" y="-0.0899" width="1.6611" height="0.1799" ry="0.0899" fill="currentColor"/>
</g>
<g transform="translate(2.2762, 9.6750)">
<rect x="17.2481" y="-0.0899" width="1.6611" height="0.1799" ry="0.0899" fill="currentColor"/>
</g>
<g transform="translate(2.2762, 8.8250)">
<rect x="14.9407" y="-0.0899" width="1.6611" height="0.1799" ry="0.0899" fill="currentColor"/>
</g>
<g transform="translate(2.2762, 9.6750)">
<rect x="14.9407" y="-0.0899" width="1.6611" height="0.1799" ry="0.0899" fill="currentColor"/>
</g>
<g transform="translate(2.2762, 9.6750)">
<rect x="10.4813" y="-0.0899" width="1.6611" height="0.1799" ry="0.0899" fill="currentColor"/>
</g>
<g transform="translate(2.2762, 13.9250)">
<line stroke-linejoin="round" stroke-linecap="round" stroke-width="0.0949" stroke="currentColor" x1="0.0474" y1="0" x2="78.2170" y2="0"/>
</g>
<g transform="translate(2.2762, 13.0750)">
<line stroke-linejoin="round" stroke-linecap="round" stroke-width="0.0949" stroke="currentColor" x1="0.0474" y1="0" x2="78.2170" y2="0"/>
</g>
<g transform="translate(2.2762, 12.2250)">
<line stroke-linejoin="round" stroke-linecap="round" stroke-width="0.0949" stroke="currentColor" x1="0.0474" y1="0" x2="78.2170" y2="0"/>
</g>
<g transform="translate(2.2762, 11.3750)">
<line stroke-linejoin="round" stroke-linecap="round" stroke-width="0.0949" stroke="currentColor" x1="0.0474" y1="0" x2="78.2170" y2="0"/>
</g>
<g transform="translate(2.2762, 10.5250)">
<line stroke-linejoin="round" stroke-linecap="round" stroke-width="0.0949" stroke="currentColor" x1="0.0474" y1="0" x2="78.2170" y2="0"/>
</g>
<g transform="translate(75.8388, 12.2250)">
<rect x="0.0000" y="-1.7000" width="0.1802" height="3.4000" ry="0.0000" fill="currentColor"/>
</g>
<g transform="translate(60.7576, 12.2250)">
<rect x="0.0000" y="-1.7000" width="0.1802" height="3.4000" ry="0.0000" fill="currentColor"/>
</g>
<g transform="translate(44.4512, 12.2250)">
<rect x="0.0000" y="-1.7000" width="0.1802" height="3.4000" ry="0.0000" fill="currentColor"/>
</g>
<g transform="translate(28.1220, 12.2250)">
<rect x="0.0000" y="-1.7000" width="0.1802" height="3.4000" ry="0.0000" fill="currentColor"/>
</g>
<g transform="translate(19.8011, 12.3816)">
<polygon stroke-linejoin="round" stroke-linecap="round" stroke-width="0.0800" fill="currentColor" stroke="currentColor" points="2.7323 -0.3206 2.7323 0.0074 0.0400 0.1640 0.0400 -0.1640"/>
</g>
<g transform="translate(36.1303, 12.3816)">
<polygon stroke-linejoin="round" stroke-linecap="round" stroke-width="0.0800" fill="currentColor" stroke="currentColor" points="2.7323 -0.3206 2.7323 0.0074 0.0400 0.1640 0.0400 -0.1640"/>
</g>
<g transform="translate(3.0762, 13.0750)">
<path transform="scale(0.0034, -0.0034)" d="M646 2c0 -113 -74 -213 -180 -247c3 -34 5 -68 5 -102c0 -20 -1 -40 -2 -60c-7 -121 -91 -228 -209 -228c-108 0 -196 87 -196 196c0 58 53 104 112 104c54 0 95 -48 95 -104c0 -52 -43 -95 -95 -95c-10 0 -20 2 -29 6c26 -38 68 -63 116 -63h3c93 2 153 92 159 190
c1 19 2 37 2 56c0 30 -2 60 -4 90c-5 -1 -43 -8 -88 -8c-194 0 -333 180 -333 375c0 177 130 307 246 442c-31 98 -53 170 -53 347c0 115 55 223 148 290c7 5 16 4 22 -1c68 -80 134 -243 134 -357c0 -143 -85 -255 -178 -364c21 -68 40 -137 57 -206c1 0 5 1 11 1
c156 0 257 -129 257 -262zM462 -202c66 24 111 88 111 162c0 89 -65 178 -170 190c28 -135 50 -272 59 -352zM75 26c0 -145 141 -245 263 -245c1 0 46 0 81 6c-7 65 -27 206 -61 363c-79 -8 -124 -61 -124 -119c0 -43 25 -89 80 -121c5 -5 7 -11 7 -16
c0 -12 -10 -23 -22 -23c-16 0 -127 63 -127 188c0 89 58 175 161 198c-14 58 -29 116 -46 173c-106 -122 -212 -244 -212 -404zM406 1042c-99 -47 -162 -148 -162 -257c0 -49 13 -111 38 -191c79 97 144 199 144 324c0 33 0 63 -20 124z" fill="currentColor"/>
</g>
<g transform="translate(52.4367, 12.3816)">
<polygon stroke-linejoin="round" stroke-linecap="round" stroke-width="0.0800" fill="currentColor" stroke="currentColor" points="2.7323 -0.3206 2.7323 0.0074 0.0400 0.1640 0.0400 -0.1640"/>
</g>
<a style="color:inherit;" xlink:href="textedit:///Users/tomsegarra/Documents/dev/dummies/lilypond_files/5eb49cf08a048d5404b5203c413a3acb.ly:19:1:9">
<g transform="translate(6.5762, 10.5250)">
<path transform="scale(0.0034, -0.0034)" d="M217 -311c0 -11 -8 -19 -19 -19s-20 8 -20 19v142l-81 -30v-156c0 -11 -9 -20 -20 -20s-19 9 -19 20v142l-28 -11c-3 -1 -5 -1 -8 -1c-12 0 -22 10 -22 23v57c0 9 6 18 15 21l43 16v157l-28 -10c-3 -1 -5 -1 -8 -1c-12 0 -22 9 -22 22v57c0 9 6 18 15 21l43 16v157
c0 11 8 19 19 19s20 -8 20 -19v-142l81 30v156c0 11 9 20 20 20s19 -9 19 -20v-142l28 11c3 1 5 1 8 1c12 0 22 -10 22 -23v-57c0 -9 -6 -18 -15 -21l-43 -16v-157l28 10c3 1 5 1 8 1c12 0 22 -9 22 -22v-57c0 -9 -6 -18 -15 -21l-43 -16v-157zM97 64v-158l81 30v158z" fill="currentColor"/>
</g>
<g transform="translate(7.5112, 11.8000)">
<path transform="scale(0.0034, -0.0034)" d="M217 -311c0 -11 -8 -19 -19 -19s-20 8 -20 19v142l-81 -30v-156c0 -11 -9 -20 -20 -20s-19 9 -19 20v142l-28 -11c-3 -1 -5 -1 -8 -1c-12 0 -22 10 -22 23v57c0 9 6 18 15 21l43 16v157l-28 -10c-3 -1 -5 -1 -8 -1c-12 0 -22 9 -22 22v57c0 9 6 18 15 21l43 16v157
c0 11 8 19 19 19s20 -8 20 -19v-142l81 30v156c0 11 9 20 20 20s19 -9 19 -20v-142l28 11c3 1 5 1 8 1c12 0 22 -10 22 -23v-57c0 -9 -6 -18 -15 -21l-43 -16v-157l28 10c3 1 5 1 8 1c12 0 22 -9 22 -22v-57c0 -9 -6 -18 -15 -21l-43 -16v-157zM97 64v-158l81 30v158z" fill="currentColor"/>
</g>
</a>
<g transform="translate(9.5962, 12.2250)">
<path transform="scale(0.0034, -0.0034)" d="M358 29c-30 0 -74 23 -74 73c0 38 27 76 71 76c4 0 7 0 11 -1c-27 36 -69 59 -116 59c-106 0 -113 -74 -113 -188c0 -15 1 -31 1 -48s-1 -33 -1 -48c0 -114 7 -188 113 -188c79 0 136 70 155 150c2 7 7 10 13 10c7 0 14 -5 14 -13c0 -21 -50 -175 -182 -175
c-59 0 -250 20 -250 264c0 63 18 264 250 264c115 0 174 -109 174 -165c0 -39 -30 -70 -66 -70z" fill="currentColor"/>
</g>
<a style="color:inherit;" xlink:href="textedit:///Users/tomsegarra/Documents/dev/dummies/lilypond_files/5eb49cf08a048d5404b5203c413a3acb.ly:20:10:11">
<g transform="translate(17.4937, 8.4000)">
<path transform="scale(0.0034, -0.0034)" d="M215 137c67 0 111 -37 111 -92c0 -90 -111 -182 -215 -182c-67 0 -111 37 -111 92c0 90 111 182 215 182z" fill="currentColor"/>
</g>
</a>
<g transform="translate(17.5554, 12.2250)">
<rect x="-0.0617" y="-3.6725" width="0.1233" height="3.6725" ry="0.0400" fill="currentColor"/>
</g>
<g transform="translate(17.6170, 12.1850)">
<path transform="scale(0.0034, -0.0034)" d="M0 0h-18v250h18v-250zM0 0v250c96 59 222 149 222 259c0 57 -15 111 -40 162c-3 17 10 29 24 29c8 0 16 -5 21 -13c25 -56 40 -116 40 -178c0 -203 -267 -306 -267 -509z" fill="currentColor"/>
</g>
<a style="color:inherit;" xlink:href="textedit:///Users/tomsegarra/Documents/dev/dummies/lilypond_files/5eb49cf08a048d5404b5203c413a3acb.ly:20:4:5">
<g transform="translate(13.0344, 9.2500)">
<path transform="scale(0.0034, -0.0034)" d="M215 137c67 0 111 -37 111 -92c0 -90 -111 -182 -215 -182c-67 0 -111 37 -111 92c0 90 111 182 215 182z" fill="currentColor"/>
</g>
</a>
<a style="color:inherit;" xlink:href="textedit:///Users/tomsegarra/Documents/dev/dummies/lilypond_files/5eb49cf08a048d5404b5203c413a3acb.ly:20:13:14">
<g transform="translate(19.8011, 7.9750)">
<path transform="scale(0.0034, -0.0034)" d="M215 137c67 0 111 -37 111 -92c0 -90 -111 -182 -215 -182c-67 0 -111 37 -111 92c0 90 111 182 215 182z" fill="currentColor"/>
</g>
</a>
<g transform="translate(19.8628, 12.2250)">
<rect x="-0.0617" y="-4.0975" width="0.1233" height="4.2506" ry="0.0400" fill="currentColor"/>
</g>
<a style="color:inherit;" xlink:href="textedit:///Users/tomsegarra/Documents/dev/dummies/lilypond_files/5eb49cf08a048d5404b5203c413a3acb.ly:20:15:16">
<g transform="translate(22.4501, 7.5500)">
<path transform="scale(0.0034, -0.0034)" d="M215 137c67 0 111 -37 111 -92c0 -90 -111 -182 -215 -182c-67 0 -111 37 -111 92c0 90 111 182 215 182z" fill="currentColor"/>
</g>
</a>
<g transform="translate(22.5118, 12.2250)">
<rect x="-0.0617" y="-4.5225" width="0.1233" height="4.5260" ry="0.0400" fill="currentColor"/>
</g>
<g transform="translate(21.5085, 7.5500)">
<path transform="scale(0.0034, -0.0034)" d="M-8 375c8 5 17 7 26 7s18 -2 26 -7l-3 -187l104 21h4c10 0 18 -8 18 -18l7 -566c-8 -5 -16 -7 -25 -7s-18 2 -26 7l2 187l-103 -21h-4c-10 0 -18 8 -18 18zM130 111l-90 -18l-3 -204l90 18z" fill="currentColor"/>
</g>
<a style="color:inherit;" xlink:href="textedit:///Users/tomsegarra/Documents/dev/dummies/lilypond_files/5eb49cf08a048d5404b5203c413a3acb.ly:20:17:18">
<g transform="translate(24.7575, 7.9750)">
<path transform="scale(0.0034, -0.0034)" d="M215 137c67 0 111 -37 111 -92c0 -90 -111 -182 -215 -182c-67 0 -111 37 -111 92c0 90 111 182 215 182z" fill="currentColor"/>
</g>
</a>
<g transform="translate(24.8191, 12.2250)">
<rect x="-0.0617" y="-4.0975" width="0.1233" height="4.0975" ry="0.0400" fill="currentColor"/>
</g>
<a style="color:inherit;" xlink:href="textedit:///Users/tomsegarra/Documents/dev/dummies/lilypond_files/5eb49cf08a048d5404b5203c413a3acb.ly:20:23:24">
<g transform="translate(29.3635, 10.1000)">
<path transform="scale(0.0034, -0.0034)" d="M215 137c67 0 111 -37 111 -92c0 -90 -111 -182 -215 -182c-67 0 -111 37 -111 92c0 90 111 182 215 182z" fill="currentColor"/>
</g>
</a>
<g transform="translate(30.8500, 10.1000)">
<path transform="scale(0.0034, -0.0034)" d="M0 0c0 31 25 56 56 56s55 -25 55 -56s-24 -56 -55 -56s-56 25 -56 56z" fill="currentColor"/>
</g>
<g transform="translate(29.4252, 12.2250)">
<rect x="-0.0617" y="-1.9725" width="0.1233" height="2.8225" ry="0.0400" fill="currentColor"/>
</g>
<a style="color:inherit;" xlink:href="textedit:///Users/tomsegarra/Documents/dev/dummies/lilypond_files/5eb49cf08a048d5404b5203c413a3acb.ly:20:28:29">
<g transform="translate(33.8229, 8.4000)">
<path transform="scale(0.0034, -0.0034)" d="M215 137c67 0 111 -37 111 -92c0 -90 -111 -182 -215 -182c-67 0 -111 37 -111 92c0 90 111 182 215 182z" fill="currentColor"/>
</g>
</a>
<g transform="translate(33.8845, 12.2250)">
<rect x="-0.0617" y="-3.6725" width="0.1233" height="3.6725" ry="0.0400" fill="currentColor"/>
</g>
<g transform="translate(33.9462, 12.1850)">
<path transform="scale(0.0034, -0.0034)" d="M0 0h-18v250h18v-250zM0 0v250c96 59 222 149 222 259c0 57 -15 111 -40 162c-3 17 10 29 24 29c8 0 16 -5 21 -13c25 -56 40 -116 40 -178c0 -203 -267 -306 -267 -509z" fill="currentColor"/>
</g>
<g transform="translate(14.5209, 9.2500)">
<path transform="scale(0.0034, -0.0034)" d="M0 0c0 31 25 56 56 56s55 -25 55 -56s-24 -56 -55 -56s-56 25 -56 56z" fill="currentColor"/>
</g>
<a style="color:inherit;" xlink:href="textedit:///Users/tomsegarra/Documents/dev/dummies/lilypond_files/5eb49cf08a048d5404b5203c413a3acb.ly:20:32:33">
<g transform="translate(36.1303, 7.9750)">
<path transform="scale(0.0034, -0.0034)" d="M215 137c67 0 111 -37 111 -92c0 -90 -111 -182 -215 -182c-67 0 -111 37 -111 92c0 90 111 182 215 182z" fill="currentColor"/>
</g>
</a>
<g transform="translate(36.1919, 12.2250)">
<rect x="-0.0617" y="-4.0975" width="0.1233" height="4.2506" ry="0.0400" fill="currentColor"/>
</g>
<g transform="translate(13.0961, 12.2250)">
<rect x="-0.0617" y="-2.8225" width="0.1233" height="2.8225" ry="0.0400" fill="currentColor"/>
</g>
<a style="color:inherit;" xlink:href="textedit:///Users/tomsegarra/Documents/dev/dummies/lilypond_files/5eb49cf08a048d5404b5203c413a3acb.ly:20:34:35">
<g transform="translate(38.7792, 7.5500)">
<path transform="scale(0.0034, -0.0034)" d="M215 137c67 0 111 -37 111 -92c0 -90 -111 -182 -215 -182c-67 0 -111 37 -111 92c0 90 111 182 215 182z" fill="currentColor"/>
</g>
</a>
<g transform="translate(38.8409, 12.2250)">
<rect x="-0.0617" y="-4.5225" width="0.1233" height="4.5260" ry="0.0400" fill="currentColor"/>
</g>
<g transform="translate(37.8376, 7.5500)">
<path transform="scale(0.0034, -0.0034)" d="M-8 375c8 5 17 7 26 7s18 -2 26 -7l-3 -187l104 21h4c10 0 18 -8 18 -18l7 -566c-8 -5 -16 -7 -25 -7s-18 2 -26 7l2 187l-103 -21h-4c-10 0 -18 8 -18 18zM130 111l-90 -18l-3 -204l90 18z" fill="currentColor"/>
</g>
<a style="color:inherit;" xlink:href="textedit:///Users/tomsegarra/Documents/dev/dummies/lilypond_files/5eb49cf08a048d5404b5203c413a3acb.ly:20:36:37">
<g transform="translate(41.0866, 7.9750)">
<path transform="scale(0.0034, -0.0034)" d="M215 137c67 0 111 -37 111 -92c0 -90 -111 -182 -215 -182c-67 0 -111 37 -111 92c0 90 111 182 215 182z" fill="currentColor"/>
</g>
</a>
<g transform="translate(41.1483, 12.2250)">
<rect x="-0.0617" y="-4.0975" width="0.1233" height="4.0975" ry="0.0400" fill="currentColor"/>
</g>
<g transform="translate(77.0949, 12.2250)">
<rect x="-0.0617" y="-7.0725" width="0.1233" height="7.0725" ry="0.0400" fill="currentColor"/>
</g>
<a style="color:inherit;" xlink:href="textedit:///Users/tomsegarra/Documents/dev/dummies/lilypond_files/5eb49cf08a048d5404b5203c413a3acb.ly:20:41:42">
<g transform="translate(45.6700, 9.6750)">
<path transform="scale(0.0034, -0.0034)" d="M215 137c67 0 111 -37 111 -92c0 -90 -111 -182 -215 -182c-67 0 -111 37 -111 92c0 90 111 182 215 182z" fill="currentColor"/>
</g>
</a>
<g transform="translate(47.1564, 9.2500)">
<path transform="scale(0.0034, -0.0034)" d="M0 0c0 31 25 56 56 56s55 -25 55 -56s-24 -56 -55 -56s-56 25 -56 56z" fill="currentColor"/>
</g>
<g transform="translate(45.7316, 12.2250)">
<rect x="-0.0617" y="-2.3975" width="0.1233" height="2.8225" ry="0.0400" fill="currentColor"/>
</g>
<a style="color:inherit;" xlink:href="textedit:///Users/tomsegarra/Documents/dev/dummies/lilypond_files/5eb49cf08a048d5404b5203c413a3acb.ly:20:46:47">
<g transform="translate(50.1293, 5.4250)">
<path transform="scale(0.0034, -0.0034)" d="M215 137c67 0 111 -37 111 -92c0 -90 -111 -182 -215 -182c-67 0 -111 37 -111 92c0 90 111 182 215 182z" fill="currentColor"/>
</g>
</a>
<g transform="translate(50.1910, 12.2250)">
<rect x="-0.0617" y="-6.6475" width="0.1233" height="6.6475" ry="0.0400" fill="currentColor"/>
</g>
<g transform="translate(50.2526, 12.1850)">
<path transform="scale(0.0034, -0.0034)" d="M0 0h-18v250h18v-250zM0 0v250c96 59 222 149 222 259c0 57 -15 111 -40 162c-3 17 10 29 24 29c8 0 16 -5 21 -13c25 -56 40 -116 40 -178c0 -203 -267 -306 -267 -509z" fill="currentColor"/>
</g>
<a style="color:inherit;" xlink:href="textedit:///Users/tomsegarra/Documents/dev/dummies/lilypond_files/5eb49cf08a048d5404b5203c413a3acb.ly:20:67:68">
<g transform="translate(77.0333, 5.0000)">
<path transform="scale(0.0034, -0.0034)" d="M215 137c67 0 111 -37 111 -92c0 -90 -111 -182 -215 -182c-67 0 -111 37 -111 92c0 90 111 182 215 182z" fill="currentColor"/>
</g>
</a>
<a style="color:inherit;" xlink:href="textedit:///Users/tomsegarra/Documents/dev/dummies/lilypond_files/5eb49cf08a048d5404b5203c413a3acb.ly:20:50:51">
<g transform="translate(52.4367, 5.0000)">
<path transform="scale(0.0034, -0.0034)" d="M215 137c67 0 111 -37 111 -92c0 -90 -111 -182 -215 -182c-67 0 -111 37 -111 92c0 90 111 182 215 182z" fill="currentColor"/>
</g>
</a>
<g transform="translate(52.4983, 12.2250)">
<rect x="-0.0617" y="-7.0725" width="0.1233" height="7.2256" ry="0.0400" fill="currentColor"/>
</g>
<a style="color:inherit;" xlink:href="textedit:///Users/tomsegarra/Documents/dev/dummies/lilypond_files/5eb49cf08a048d5404b5203c413a3acb.ly:20:52:53">
<g transform="translate(55.0857, 4.5750)">
<path transform="scale(0.0034, -0.0034)" d="M215 137c67 0 111 -37 111 -92c0 -90 -111 -182 -215 -182c-67 0 -111 37 -111 92c0 90 111 182 215 182z" fill="currentColor"/>
</g>
</a>
<g transform="translate(55.1473, 12.2250)">
<rect x="-0.0617" y="-7.4975" width="0.1233" height="7.5010" ry="0.0400" fill="currentColor"/>
</g>
<g transform="translate(54.1441, 4.5750)">
<path transform="scale(0.0034, -0.0034)" d="M-8 375c8 5 17 7 26 7s18 -2 26 -7l-3 -187l104 21h4c10 0 18 -8 18 -18l7 -566c-8 -5 -16 -7 -25 -7s-18 2 -26 7l2 187l-103 -21h-4c-10 0 -18 8 -18 18zM130 111l-90 -18l-3 -204l90 18z" fill="currentColor"/>
</g>
<g transform="translate(71.5326, 4.5750)">
<path transform="scale(0.0034, -0.0034)" d="M-8 375c8 5 17 7 26 7s18 -2 26 -7l-3 -187l104 21h4c10 0 18 -8 18 -18l7 -566c-8 -5 -16 -7 -25 -7s-18 2 -26 7l2 187l-103 -21h-4c-10 0 -18 8 -18 18zM130 111l-90 -18l-3 -204l90 18z" fill="currentColor"/>
</g>
<a style="color:inherit;" xlink:href="textedit:///Users/tomsegarra/Documents/dev/dummies/lilypond_files/5eb49cf08a048d5404b5203c413a3acb.ly:20:54:55">
<g transform="translate(57.3931, 5.0000)">
<path transform="scale(0.0034, -0.0034)" d="M215 137c67 0 111 -37 111 -92c0 -90 -111 -182 -215 -182c-67 0 -111 37 -111 92c0 90 111 182 215 182z" fill="currentColor"/>
</g>
</a>
<g transform="translate(57.4547, 12.2250)">
<rect x="-0.0617" y="-7.0725" width="0.1233" height="7.0725" ry="0.0400" fill="currentColor"/>
</g>
<a style="color:inherit;" xlink:href="textedit:///Users/tomsegarra/Documents/dev/dummies/lilypond_files/5eb49cf08a048d5404b5203c413a3acb.ly:20:59:60">
<g transform="translate(61.9521, 5.8500)">
<path transform="scale(0.0034, -0.0034)" d="M215 137c67 0 111 -37 111 -92c0 -90 -111 -182 -215 -182c-67 0 -111 37 -111 92c0 90 111 182 215 182z" fill="currentColor"/>
</g>
</a>
<g transform="translate(62.0138, 12.2250)">
<rect x="-0.0617" y="-6.2225" width="0.1233" height="6.2225" ry="0.0400" fill="currentColor"/>
</g>
<g transform="translate(61.0105, 5.8500)">
<path transform="scale(0.0034, -0.0034)" d="M-8 375c8 5 17 7 26 7s18 -2 26 -7l-3 -187l104 21h4c10 0 18 -8 18 -18l7 -566c-8 -5 -16 -7 -25 -7s-18 2 -26 7l2 187l-103 -21h-4c-10 0 -18 8 -18 18zM130 111l-90 -18l-3 -204l90 18z" fill="currentColor"/>
</g>
<a style="color:inherit;" xlink:href="textedit:///Users/tomsegarra/Documents/dev/dummies/lilypond_files/5eb49cf08a048d5404b5203c413a3acb.ly:20:61:62">
<g transform="translate(65.4595, 5.4250)">
<path transform="scale(0.0034, -0.0034)" d="M215 137c67 0 111 -37 111 -92c0 -90 -111 -182 -215 -182c-67 0 -111 37 -111 92c0 90 111 182 215 182z" fill="currentColor"/>
</g>
</a>
<g transform="translate(65.5211, 12.2250)">
<rect x="-0.0617" y="-6.6475" width="0.1233" height="6.6475" ry="0.0400" fill="currentColor"/>
</g>
<g transform="translate(72.5359, 12.2250)">
<rect x="-0.0617" y="-7.4975" width="0.1233" height="7.4975" ry="0.0400" fill="currentColor"/>
</g>
<a style="color:inherit;" xlink:href="textedit:///Users/tomsegarra/Documents/dev/dummies/lilypond_files/5eb49cf08a048d5404b5203c413a3acb.ly:20:63:64">
<g transform="translate(68.9669, 5.0000)">
<path transform="scale(0.0034, -0.0034)" d="M215 137c67 0 111 -37 111 -92c0 -90 -111 -182 -215 -182c-67 0 -111 37 -111 92c0 90 111 182 215 182z" fill="currentColor"/>
</g>
</a>
<g transform="translate(69.0285, 12.2250)">
<rect x="-0.0617" y="-7.0725" width="0.1233" height="7.0725" ry="0.0400" fill="currentColor"/>
</g>
<a style="color:inherit;" xlink:href="textedit:///Users/tomsegarra/Documents/dev/dummies/lilypond_files/5eb49cf08a048d5404b5203c413a3acb.ly:20:65:66">
<g transform="translate(72.4742, 4.5750)">
<path transform="scale(0.0034, -0.0034)" d="M215 137c67 0 111 -37 111 -92c0 -90 -111 -182 -215 -182c-67 0 -111 37 -111 92c0 90 111 182 215 182z" fill="currentColor"/>
</g>
</a>
</svg>
