<svg xmlns="http://www.w3.org/2000/svg" xmlns:xlink="http://www.w3.org/1999/xlink" version="1.2" width="152.61mm" height="297.00mm" viewBox="0 0 86.8412 169.0094">
<style type="text/css">
<![CDATA[
tspan { white-space: pre; }
]]>
</style>
<!-- Page: 1/1 -->
<g transform="translate(20.7445, 8.7765)">
<rect x="0.0000" y="-1.7000" width="0.1802" height="3.4000" ry="0.0000" fill="currentColor"/>
</g>
<g transform="translate(2.2762, 10.4765)">
<line stroke-linejoin="round" stroke-linecap="round" stroke-width="0.0949" stroke="currentColor" x1="0.0474" y1="0" x2="65.8605" y2="0"/>
</g>
<g transform="translate(2.2762, 9.6265)">
<line stroke-linejoin="round" stroke-linecap="round" stroke-width="0.0949" stroke="currentColor" x1="0.0474" y1="0" x2="65.8605" y2="0"/>
</g>
<g transform="translate(2.2762, 8.7765)">
<line stroke-linejoin="round" stroke-linecap="round" stroke-width="0.0949" stroke="currentColor" x1="0.0474" y1="0" x2="65.8605" y2="0"/>
</g>
<g transform="translate(2.2762, 7.9265)">
<line stroke-linejoin="round" stroke-linecap="round" stroke-width="0.0949" stroke="currentColor" x1="0.0474" y1="0" x2="65.8605" y2="0"/>
</g>
<g transform="translate(2.2762, 7.0765)">
<line stroke-linejoin="round" stroke-linecap="round" stroke-width="0.0949" stroke="currentColor" x1="0.0474" y1="0" x2="65.8605" y2="0"/>
</g>
<g transform="translate(68.0039, 8.7765)">
<rect x="0.0000" y="-1.7000" width="0.1802" height="3.4000" ry="0.0000" fill="currentColor"/>
</g>
<g transform="translate(46.4095, 8.7765)">
<rect x="0.0000" y="-1.7000" width="0.1802" height="3.4000" ry="0.0000" fill="currentColor"/>
</g>
<a style="color:inherit;" xlink:href="textedit:///Users/tomsegarra/Documents/dev/dummies/lilypond_files/620c986616b3b181b1e0734963f9dd54.ly:33:20:21">
<g transform="translate(17.8686, 14.2765)">
<rect x="0.0000" y="-0.5433" width="0.6600" height="0.1233" ry="0.0379" fill="currentColor"/>
</g>
</a>
<a style="color:inherit;" xlink:href="textedit:///Users/tomsegarra/Documents/dev/dummies/lilypond_files/620c986616b3b181b1e0734963f9dd54.ly:21:12:13">
<g transform="translate(12.8595, 5.6089)">
<text font-family="sans-serif" font-size="2.2240" text-anchor="start" fill="currentColor">
<tspan>N.C.</tspan>
</text>
</g>
</a>
<a style="color:inherit;" xlink:href="textedit:///Users/tomsegarra/Documents/dev/dummies/lilypond_files/620c986616b3b181b1e0734963f9dd54.ly:25:16:17">
<g transform="translate(12.8595, 7.9265)">
<path transform="scale(0.0034, -0.0034)" d="M215 137c67 0 111 -37 111 -92c0 -90 -111 -182 -215 -182c-67 0 -111 37 -111 92c0 90 111 182 215 182z" fill="currentColor"/>
</g>
</a>
<g transform="translate(3.0762, 9.6265)">
<path transform="scale(0.0034, -0.0034)" d="M646 2c0 -113 -74 -213 -180 -247c3 -34 5 -68 5 -102c0 -20 -1 -40 -2 -60c-7 -121 -91 -228 -209 -228c-108 0 -196 87 -196 196c0 58 53 104 112 104c54 0 95 -48 95 -104c0 -52 -43 -95 -95 -95c-10 0 -20 2 -29 6c26 -38 68 -63 116 -63h3c93 2 153 92 159 190
c1 19 2 37 2 56c0 30 -2 60 -4 90c-5 -1 -43 -8 -88 -8c-194 0 -333 180 -333 375c0 177 130 307 246 442c-31 98 -53 170 -53 347c0 115 55 223 148 290c7 5 16 4 22 -1c68 -80 134 -243 134 -357c0 -143 -85 -255 -178 -364c21 -68 40 -137 57 -206c1 0 5 1 11 1
c156 0 257 -129 257 -262zM462 -202c66 24 111 88 111 162c0 89 -65 178 -170 190c28 -135 50 -272 59 -352zM75 26c0 -145 141 -245 263 -245c1 0 46 0 81 6c-7 65 -27 206 -61 363c-79 -8 -124 -61 -124 -119c0 -43 25 -89 80 -121c5 -5 7 -11 7 -16
c0 -12 -10 -23 -22 -23c-16 0 -127 63 -127 188c0 89 58 175 161 198c-14 58 -29 116 -46 173c-106 -122 -212 -244 -212 -404zM406 1042c-99 -47 -162 -148 -162 -257c0 -49 13 -111 38 -191c79 97 144 199 144 324c0 33 0 63 -20 124z" fill="currentColor"/>
</g>
<a style="color:inherit;" xlink:href="textedit:///Users/tomsegarra/Documents/dev/dummies/lilypond_files/620c986616b3b181b1e0734963f9dd54.ly:24:1:9">
<g transform="translate(6.5762, 7.0765)">
<path transform="scale(0.0034, -0.0034)" d="M217 -311c0 -11 -8 -19 -19 -19s-20 8 -20 19v142l-81 -30v-156c0 -11 -9 -20 -20 -20s-19 9 -19 20v142l-28 -11c-3 -1 -5 -1 -8 -1c-12 0 -22 10 -22 23v57c0 9 6 18 15 21l43 16v157l-28 -10c-3 -1 -5 -1 -8 -1c-12 0 -22 9 -22 22v57c0 9 6 18 15 21l43 16v157
c0 11 8 19 19 19s20 -8 20 -19v-142l81 30v156c0 11 9 20 20 20s19 -9 19 -20v-142l28 11c3 1 5 1 8 1c12 0 22 -10 22 -23v-57c0 -9 -6 -18 -15 -21l-43 -16v-157l28 10c3 1 5 1 8 1c12 0 22 -9 22 -22v-57c0 -9 -6 -18 -15 -21l-43 -16v-157zM97 64v-158l81 30v158z" fill="currentColor"/>
</g>
<g transform="translate(7.5112, 8.3515)">
<path transform="scale(0.0034, -0.0034)" d="M217 -311c0 -11 -8 -19 -19 -19s-20 8 -20 19v142l-81 -30v-156c0 -11 -9 -20 -20 -20s-19 9 -19 20v142l-28 -11c-3 -1 -5 -1 -8 -1c-12 0 -22 10 -22 23v57c0 9 6 18 15 21l43 16v157l-28 -10c-3 -1 -5 -1 -8 -1c-12 0 -22 9 -22 22v57c0 9 6 18 15 21l43 16v157
c0 11 8 19 19 19s20 -8 20 -19v-142l81 30v156c0 11 9 20 20 20s19 -9 19 -20v-142l28 11c3 1 5 1 8 1c12 0 22 -10 22 -23v-57c0 -9 -6 -18 -15 -21l-43 -16v-157l28 10c3 1 5 1 8 1c12 0 22 -9 22 -22v-57c0 -9 -6 -18 -15 -21l-43 -16v-157zM97 64v-158l81 30v158z" fill="currentColor"/>
</g>
</a>
<g transform="translate(9.6474, 8.7765)">
<path transform="scale(0.0034, -0.0034)" d="M172 256c-49 0 -52 -40 -52 -94v-22v-21c0 -54 3 -94 52 -94c56 0 59 50 59 115s-3 116 -59 116zM120 267c17 7 34 14 52 14c102 0 171 -46 171 -141s-69 -140 -171 -140c-112 0 -172 124 -172 250c0 129 74 250 192 250c71 0 139 -40 139 -105c0 -36 -29 -65 -65 -65
s-65 29 -65 65c0 23 39 26 39 49c0 21 -24 31 -48 31c-64 0 -74 -62 -74 -134c0 -24 2 -49 2 -74z" fill="currentColor"/>
</g>
<g transform="translate(9.5962, 10.4765)">
<path transform="scale(0.0034, -0.0034)" d="M261 290c26 29 47 61 47 100c0 54 -57 85 -116 85c-46 0 -73 -35 -73 -69c0 -20 9 -40 29 -51zM293 272c30 -17 82 -58 82 -127c0 -74 -66 -145 -190 -145c-95 0 -185 53 -185 140c0 50 38 85 75 120c-40 28 -59 68 -59 106c0 68 60 134 176 134c81 0 163 -38 163 -110
c0 -47 -29 -84 -62 -118zM107 241c-32 -29 -61 -59 -61 -101c0 -69 66 -115 139 -115c54 0 85 41 85 81c0 24 -11 47 -35 61z" fill="currentColor"/>
</g>
<a style="color:inherit;" xlink:href="textedit:///Users/tomsegarra/Documents/dev/dummies/lilypond_files/620c986616b3b181b1e0734963f9dd54.ly:33:15:16">
<g transform="translate(13.0718, 14.2765)">
<text font-family="serif" font-size="2.0989" text-anchor="start" fill="currentColor">
<tspan>I</tspan>
</text>
</g>
</a>
<g transform="translate(12.9212, 8.7765)">
<rect x="-0.0617" y="-0.6975" width="0.1233" height="2.5509" ry="0.0400" fill="currentColor"/>
</g>
<a style="color:inherit;" xlink:href="textedit:///Users/tomsegarra/Documents/dev/dummies/lilypond_files/620c986616b3b181b1e0734963f9dd54.ly:33:27:28">
<g transform="translate(23.4733, 14.2765)">
<rect x="0.0000" y="-0.5433" width="0.6600" height="0.1233" ry="0.0379" fill="currentColor"/>
</g>
</a>
<a style="color:inherit;" xlink:href="textedit:///Users/tomsegarra/Documents/dev/dummies/lilypond_files/620c986616b3b181b1e0734963f9dd54.ly:26:13:14">
<g transform="translate(29.5627, 7.9265)">
<path transform="scale(0.0034, -0.0034)" d="M215 137c67 0 111 -37 111 -92c0 -90 -111 -182 -215 -182c-67 0 -111 37 -111 92c0 90 111 182 215 182z" fill="currentColor"/>
</g>
</a>
<a style="color:inherit;" xlink:href="textedit:///Users/tomsegarra/Documents/dev/dummies/lilypond_files/620c986616b3b181b1e0734963f9dd54.ly:33:34:35">
<g transform="translate(27.8458, 14.2765)">
<text font-family="serif" font-size="2.0989" text-anchor="start" fill="currentColor">
<tspan>when</tspan>
</text>
</g>
</a>
<g transform="translate(29.6243, 8.7765)">
<rect x="-0.0617" y="-0.6975" width="0.1233" height="2.3963" ry="0.0400" fill="currentColor"/>
</g>
<a style="color:inherit;" xlink:href="textedit:///Users/tomsegarra/Documents/dev/dummies/lilypond_files/620c986616b3b181b1e0734963f9dd54.ly:25:28:29">
<g transform="translate(18.6743, 8.7765)">
<path stroke-width="0.0759" stroke-linejoin="round" stroke-linecap="round" stroke="currentColor" fill="currentColor" d="M0.7537 -2.1250C1.3954 -2.8138 3.0409 -2.8138 3.6825 -2.1250L3.6825 -2.1250C3.0409 -2.6999 1.3954 -2.6999 0.7537 -2.1250z"/>
</g>
</a>
<a style="color:inherit;" xlink:href="textedit:///Users/tomsegarra/Documents/dev/dummies/lilypond_files/620c986616b3b181b1e0734963f9dd54.ly:26:18:19">
<g transform="translate(33.8026, 7.9265)">
<path transform="scale(0.0034, -0.0034)" d="M215 137c67 0 111 -37 111 -92c0 -90 -111 -182 -215 -182c-67 0 -111 37 -111 92c0 90 111 182 215 182z" fill="currentColor"/>
</g>
</a>
<a style="color:inherit;" xlink:href="textedit:///Users/tomsegarra/Documents/dev/dummies/lilypond_files/620c986616b3b181b1e0734963f9dd54.ly:33:39:40">
<g transform="translate(32.8369, 14.2765)">
<text font-family="serif" font-size="2.0989" text-anchor="start" fill="currentColor">
<tspan>mis</tspan>
</text>
</g>
</a>
<g transform="translate(33.8642, 8.7765)">
<rect x="-0.0617" y="-0.6975" width="0.1233" height="3.2503" ry="0.0400" fill="currentColor"/>
</g>
<g transform="translate(16.3669, 9.7547)">
<polygon stroke-linejoin="round" stroke-linecap="round" stroke-width="0.0800" fill="currentColor" stroke="currentColor" points="2.3907 -0.2922 2.3907 0.0358 0.0400 0.1640 0.0400 -0.1640"/>
</g>
<g transform="translate(12.8595, 10.6331)">
<polygon stroke-linejoin="round" stroke-linecap="round" stroke-width="0.0800" fill="currentColor" stroke="currentColor" points="5.8981 -0.4771 5.8981 -0.1491 0.0400 0.1640 0.0400 -0.1640"/>
</g>
<a style="color:inherit;" xlink:href="textedit:///Users/tomsegarra/Documents/dev/dummies/lilypond_files/620c986616b3b181b1e0734963f9dd54.ly:26:22:23">
<g transform="translate(36.1100, 8.3515)">
<path transform="scale(0.0034, -0.0034)" d="M215 137c67 0 111 -37 111 -92c0 -90 -111 -182 -215 -182c-67 0 -111 37 -111 92c0 90 111 182 215 182z" fill="currentColor"/>
</g>
</a>
<a style="color:inherit;" xlink:href="textedit:///Users/tomsegarra/Documents/dev/dummies/lilypond_files/620c986616b3b181b1e0734963f9dd54.ly:33:46:47">
<g transform="translate(36.1100, 14.2765)">
<text font-family="serif" font-size="2.0989" text-anchor="start" fill="currentColor">
<tspan>er</tspan>
</text>
</g>
</a>
<g transform="translate(36.1716, 8.7765)">
<rect x="-0.0617" y="-0.2725" width="0.1233" height="2.9302" ry="0.0400" fill="currentColor"/>
</g>
<a style="color:inherit;" xlink:href="textedit:///Users/tomsegarra/Documents/dev/dummies/lilypond_files/620c986616b3b181b1e0734963f9dd54.ly:26:27:28">
<g transform="translate(38.4173, 8.3515)">
<path transform="scale(0.0034, -0.0034)" d="M215 137c67 0 111 -37 111 -92c0 -90 -111 -182 -215 -182c-67 0 -111 37 -111 92c0 90 111 182 215 182z" fill="currentColor"/>
</g>
</a>
<g transform="translate(38.4790, 8.7765)">
<rect x="-0.0617" y="-0.2725" width="0.1233" height="3.0350" ry="0.0400" fill="currentColor"/>
</g>
<a style="color:inherit;" xlink:href="textedit:///Users/tomsegarra/Documents/dev/dummies/lilypond_files/620c986616b3b181b1e0734963f9dd54.ly:26:29:30">
<g transform="translate(40.7247, 8.7765)">
<path transform="scale(0.0034, -0.0034)" d="M215 137c67 0 111 -37 111 -92c0 -90 -111 -182 -215 -182c-67 0 -111 37 -111 92c0 90 111 182 215 182z" fill="currentColor"/>
</g>
</a>
<a style="color:inherit;" xlink:href="textedit:///Users/tomsegarra/Documents/dev/dummies/lilypond_files/620c986616b3b181b1e0734963f9dd54.ly:33:52:53">
<g transform="translate(40.7247, 14.2765)">
<text font-family="serif" font-size="2.0989" text-anchor="start" fill="currentColor">
<tspan>y</tspan>
</text>
</g>
</a>
<g transform="translate(40.7864, 8.7765)">
<rect x="-0.0617" y="0.1525" width="0.1233" height="2.7149" ry="0.0400" fill="currentColor"/>
</g>
<a style="color:inherit;" xlink:href="textedit:///Users/tomsegarra/Documents/dev/dummies/lilypond_files/620c986616b3b181b1e0734963f9dd54.ly:26:34:35">
<g transform="translate(43.0321, 8.7765)">
<path transform="scale(0.0034, -0.0034)" d="M215 137c67 0 111 -37 111 -92c0 -90 -111 -182 -215 -182c-67 0 -111 37 -111 92c0 90 111 182 215 182z" fill="currentColor"/>
</g>
</a>
<g transform="translate(43.0938, 8.7765)">
<rect x="-0.0617" y="0.1525" width="0.1233" height="2.8197" ry="0.0400" fill="currentColor"/>
</g>
<g transform="translate(22.0032, 10.3200)">
<polygon stroke-linejoin="round" stroke-linecap="round" stroke-width="0.0800" fill="currentColor" stroke="currentColor" points="7.6428 -0.0074 7.6428 0.3206 0.0400 0.1640 0.0400 -0.1640"/>
</g>
<a style="color:inherit;" xlink:href="textedit:///Users/tomsegarra/Documents/dev/dummies/lilypond_files/620c986616b3b181b1e0734963f9dd54.ly:27:4:5">
<g transform="translate(47.4897, 8.7765)">
<path transform="scale(0.0034, -0.0034)" d="M215 137c67 0 111 -37 111 -92c0 -90 -111 -182 -215 -182c-67 0 -111 37 -111 92c0 90 111 182 215 182z" fill="currentColor"/>
</g>
</a>
<a style="color:inherit;" xlink:href="textedit:///Users/tomsegarra/Documents/dev/dummies/lilypond_files/620c986616b3b181b1e0734963f9dd54.ly:33:54:55">
<g transform="translate(45.0217, 14.2765)">
<text font-family="serif" font-size="2.0989" text-anchor="start" fill="currentColor">
<tspan>thrilled</tspan>
</text>
</g>
</a>
<g transform="translate(48.5354, 8.7765)">
<rect x="-0.0617" y="-2.7044" width="0.1233" height="2.5520" ry="0.0400" fill="currentColor"/>
</g>
<a style="color:inherit;" xlink:href="textedit:///Users/tomsegarra/Documents/dev/dummies/lilypond_files/620c986616b3b181b1e0734963f9dd54.ly:33:49:50">
<g transform="translate(38.8897, 14.2765)">
<rect x="0.0000" y="-0.5433" width="0.6600" height="0.1233" ry="0.0379" fill="currentColor"/>
</g>
</a>
<a style="color:inherit;" xlink:href="textedit:///Users/tomsegarra/Documents/dev/dummies/lilypond_files/620c986616b3b181b1e0734963f9dd54.ly:27:9:10">
<g transform="translate(52.2417, 9.2015)">
<path transform="scale(0.0034, -0.0034)" d="M215 137c67 0 111 -37 111 -92c0 -90 -111 -182 -215 -182c-67 0 -111 37 -111 92c0 90 111 182 215 182z" fill="currentColor"/>
</g>
</a>
<a style="color:inherit;" xlink:href="textedit:///Users/tomsegarra/Documents/dev/dummies/lilypond_files/620c986616b3b181b1e0734963f9dd54.ly:33:63:64">
<g transform="translate(51.5151, 14.2765)">
<text font-family="serif" font-size="2.0989" text-anchor="start" fill="currentColor">
<tspan>me</tspan>
</text>
</g>
</a>
<g transform="translate(53.2875, 8.7765)">
<rect x="-0.0617" y="-2.5380" width="0.1233" height="2.8106" ry="0.0400" fill="currentColor"/>
</g>
<a style="color:inherit;" xlink:href="textedit:///Users/tomsegarra/Documents/dev/dummies/lilypond_files/620c986616b3b181b1e0734963f9dd54.ly:26:23:24">
<g transform="translate(36.1100, 8.7765)">
<path stroke-width="0.0759" stroke-linejoin="round" stroke-linecap="round" stroke="currentColor" fill="currentColor" d="M0.7537 -1.0413C1.2242 -1.5974 2.1905 -1.5974 2.6611 -1.0413L2.6611 -1.0413C2.1905 -1.4836 1.2242 -1.4836 0.7537 -1.0413z"/>
</g>
</a>
<a style="color:inherit;" xlink:href="textedit:///Users/tomsegarra/Documents/dev/dummies/lilypond_files/620c986616b3b181b1e0734963f9dd54.ly:21:23:24">
<g transform="translate(56.3109, 5.6089)">
<text font-family="sans-serif" font-size="2.2240" text-anchor="start" fill="currentColor">
<tspan>G</tspan>
</text>
</g>
<g transform="translate(58.0522, 4.4197)">
<polygon stroke-linejoin="round" stroke-linecap="round" stroke-width="0.1000" fill="none" stroke="currentColor" points="0.0000 -0.0000 1.0703 -0.0000 0.5351 -0.9204"/>
</g>
</a>
<g color="red">
<a style="color:inherit;" xlink:href="textedit:///Users/tomsegarra/Documents/dev/dummies/lilypond_files/620c986616b3b181b1e0734963f9dd54.ly:31:4:5">
<g transform="translate(56.3109, 9.2015)">
<path transform="scale(0.0034, -0.0034)" d="M215 137c67 0 111 -37 111 -92c0 -90 -111 -182 -215 -182c-67 0 -111 37 -111 92c0 90 111 182 215 182z" fill="currentColor"/>
</g>
</a>
</g>
<a style="color:inherit;" xlink:href="textedit:///Users/tomsegarra/Documents/dev/dummies/lilypond_files/620c986616b3b181b1e0734963f9dd54.ly:33:66:67">
<g transform="translate(54.5258, 14.2765)">
<text font-family="serif" font-size="2.0989" text-anchor="start" fill="currentColor">
<tspan>much</tspan>
</text>
</g>
</a>
<g color="red">
<g transform="translate(57.3567, 8.7765)">
<rect x="-0.0617" y="-2.3956" width="0.1233" height="2.6681" ry="0.0400" fill="currentColor"/>
</g>
</g>
<g color="red">
<a style="color:inherit;" xlink:href="textedit:///Users/tomsegarra/Documents/dev/dummies/lilypond_files/620c986616b3b181b1e0734963f9dd54.ly:31:7:8">
<g transform="translate(59.9192, 10.0515)">
<path transform="scale(0.0034, -0.0034)" d="M215 137c67 0 111 -37 111 -92c0 -90 -111 -182 -215 -182c-67 0 -111 37 -111 92c0 90 111 182 215 182z" fill="currentColor"/>
</g>
</a>
</g>
<a style="color:inherit;" xlink:href="textedit:///Users/tomsegarra/Documents/dev/dummies/lilypond_files/620c986616b3b181b1e0734963f9dd54.ly:33:71:72">
<g transform="translate(59.6534, 14.2765)">
<text font-family="serif" font-size="2.0989" text-anchor="start" fill="currentColor">
<tspan>m</tspan>
</text>
</g>
</a>
<g color="red">
<g transform="translate(60.9649, 8.7765)">
<rect x="-0.0617" y="-1.7000" width="0.1233" height="2.8225" ry="0.0400" fill="currentColor"/>
</g>
</g>
<g color="red">
<g transform="translate(61.0266, 7.1165)">
<path transform="scale(0.0034, -0.0034)" d="M0 0c0 -197 207 -335 207 -532c0 -71 -15 -141 -41 -207c-5 -8 -13 -12 -21 -12c-14 0 -27 11 -24 28c26 60 42 125 42 191c0 103 -93 207 -163 282h-18v250h18z" fill="currentColor"/>
</g>
</g>
<a style="color:inherit;" xlink:href="textedit:///Users/tomsegarra/Documents/dev/dummies/lilypond_files/620c986616b3b181b1e0734963f9dd54.ly:26:30:31">
<g transform="translate(40.7247, 8.7765)">
<path stroke-width="0.0759" stroke-linejoin="round" stroke-linecap="round" stroke="currentColor" fill="currentColor" d="M0.7537 -1.0413C1.2242 -1.5974 2.1905 -1.5974 2.6611 -1.0413L2.6611 -1.0413C2.1905 -1.4836 1.2242 -1.4836 0.7537 -1.0413z"/>
</g>
</a>
<g color="red">
<a style="color:inherit;" xlink:href="textedit:///Users/tomsegarra/Documents/dev/dummies/lilypond_files/620c986616b3b181b1e0734963f9dd54.ly:31:9:10">
<g transform="translate(63.4266, 8.7765)">
<path transform="scale(0.0034, -0.0034)" d="M215 137c67 0 111 -37 111 -92c0 -90 -111 -182 -215 -182c-67 0 -111 37 -111 92c0 90 111 182 215 182z" fill="currentColor"/>
</g>
</a>
</g>
<a style="color:inherit;" xlink:href="textedit:///Users/tomsegarra/Documents/dev/dummies/lilypond_files/620c986616b3b181b1e0734963f9dd54.ly:33:76:77">
<g transform="translate(62.6487, 14.2765)">
<text font-family="serif" font-size="2.0989" text-anchor="start" fill="currentColor">
<tspan>ore</tspan>
</text>
</g>
</a>
<g color="red">
<g transform="translate(63.4882, 8.7765)">
<rect x="-0.0617" y="0.1525" width="0.1233" height="2.6809" ry="0.0400" fill="currentColor"/>
</g>
</g>
<g transform="translate(33.8026, 10.6331)">
<polygon stroke-linejoin="round" stroke-linecap="round" stroke-width="0.0800" fill="currentColor" stroke="currentColor" points="7.0055 0.1562 7.0055 0.4842 0.0400 0.1640 0.0400 -0.1640"/>
</g>
<g transform="translate(33.8026, 11.3265)">
<polygon stroke-linejoin="round" stroke-linecap="round" stroke-width="0.0800" fill="currentColor" stroke="currentColor" points="9.3129 0.2610 9.3129 0.5890 0.0400 0.1640 0.0400 -0.1640"/>
</g>
<a style="color:inherit;" xlink:href="textedit:///Users/tomsegarra/Documents/dev/dummies/lilypond_files/620c986616b3b181b1e0734963f9dd54.ly:21:31:32">
<g transform="translate(80.0239, 5.6089)">
<text font-family="sans-serif" font-size="2.2240" text-anchor="start" fill="currentColor">
<tspan>E</tspan>
</text>
</g>
<g transform="translate(81.4238, 5.6089)">
<text font-family="sans-serif" font-size="2.2240" text-anchor="start" fill="currentColor">
<tspan>m</tspan>
</text>
</g>
<g transform="translate(83.5748, 4.4197)">
<text font-family="sans-serif" font-size="1.5727" text-anchor="start" fill="currentColor">
<tspan>7</tspan>
</text>
</g>
</a>
<a style="color:inherit;" xlink:href="textedit:///Users/tomsegarra/Documents/dev/dummies/lilypond_files/620c986616b3b181b1e0734963f9dd54.ly:25:23:24">
<g transform="translate(16.3669, 7.5015)">
<path transform="scale(0.0034, -0.0034)" d="M215 137c67 0 111 -37 111 -92c0 -90 -111 -182 -215 -182c-67 0 -111 37 -111 92c0 90 111 182 215 182z" fill="currentColor"/>
</g>
</a>
<a style="color:inherit;" xlink:href="textedit:///Users/tomsegarra/Documents/dev/dummies/lilypond_files/620c986616b3b181b1e0734963f9dd54.ly:33:17:18">
<g transform="translate(16.1182, 14.2765)">
<text font-family="serif" font-size="2.0989" text-anchor="start" fill="currentColor">
<tspan>re</tspan>
</text>
</g>
</a>
<g transform="translate(16.4286, 8.7765)">
<rect x="-0.0617" y="-1.1225" width="0.1233" height="2.7909" ry="0.0400" fill="currentColor"/>
</g>
<a style="color:inherit;" xlink:href="textedit:///Users/tomsegarra/Documents/dev/dummies/lilypond_files/620c986616b3b181b1e0734963f9dd54.ly:33:73:74">
<g transform="translate(61.6405, 14.2765)">
<rect x="0.0000" y="-0.5433" width="0.6600" height="0.1233" ry="0.0379" fill="currentColor"/>
</g>
</a>
<a style="color:inherit;" xlink:href="textedit:///Users/tomsegarra/Documents/dev/dummies/lilypond_files/620c986616b3b181b1e0734963f9dd54.ly:25:27:28">
<g transform="translate(18.6743, 7.5015)">
<path transform="scale(0.0034, -0.0034)" d="M215 137c67 0 111 -37 111 -92c0 -90 -111 -182 -215 -182c-67 0 -111 37 -111 92c0 90 111 182 215 182z" fill="currentColor"/>
</g>
</a>
<a style="color:inherit;" xlink:href="textedit:///Users/tomsegarra/Documents/dev/dummies/lilypond_files/620c986616b3b181b1e0734963f9dd54.ly:33:23:24">
<g transform="translate(18.6743, 14.2765)">
<text font-family="serif" font-size="2.0989" text-anchor="start" fill="currentColor">
<tspan>mem</tspan>
</text>
</g>
</a>
<g transform="translate(18.7360, 8.7765)">
<rect x="-0.0617" y="-1.1225" width="0.1233" height="2.6692" ry="0.0400" fill="currentColor"/>
</g>
<g transform="translate(48.4737, 6.0700)">
<polygon stroke-linejoin="round" stroke-linecap="round" stroke-width="0.0800" fill="currentColor" stroke="currentColor" points="8.9046 0.1491 8.9046 0.4771 0.0400 0.1640 0.0400 -0.1640"/>
</g>
<a style="color:inherit;" xlink:href="textedit:///Users/tomsegarra/Documents/dev/dummies/lilypond_files/620c986616b3b181b1e0734963f9dd54.ly:21:15:16">
<g transform="translate(22.0032, 5.6089)">
<text font-family="sans-serif" font-size="2.2240" text-anchor="start" fill="currentColor">
<tspan>G</tspan>
</text>
</g>
<g transform="translate(23.7445, 4.4197)">
<polygon stroke-linejoin="round" stroke-linecap="round" stroke-width="0.1000" fill="none" stroke="currentColor" points="0.0000 -0.0000 1.0703 -0.0000 0.5351 -0.9204"/>
</g>
</a>
<a style="color:inherit;" xlink:href="textedit:///Users/tomsegarra/Documents/dev/dummies/lilypond_files/620c986616b3b181b1e0734963f9dd54.ly:26:4:5">
<g transform="translate(22.0032, 7.5015)">
<path transform="scale(0.0034, -0.0034)" d="M215 137c67 0 111 -37 111 -92c0 -90 -111 -182 -215 -182c-67 0 -111 37 -111 92c0 90 111 182 215 182z" fill="currentColor"/>
</g>
</a>
<g transform="translate(22.0648, 8.7765)">
<rect x="-0.0617" y="-1.1225" width="0.1233" height="2.6672" ry="0.0400" fill="currentColor"/>
</g>
<a style="color:inherit;" xlink:href="textedit:///Users/tomsegarra/Documents/dev/dummies/lilypond_files/620c986616b3b181b1e0734963f9dd54.ly:26:9:10">
<g transform="translate(25.5105, 7.9265)">
<path transform="scale(0.0034, -0.0034)" d="M215 137c67 0 111 -37 111 -92c0 -90 -111 -182 -215 -182c-67 0 -111 37 -111 92c0 90 111 182 215 182z" fill="currentColor"/>
</g>
</a>
<a style="color:inherit;" xlink:href="textedit:///Users/tomsegarra/Documents/dev/dummies/lilypond_files/620c986616b3b181b1e0734963f9dd54.ly:33:30:31">
<g transform="translate(24.7326, 14.2765)">
<text font-family="serif" font-size="2.0989" text-anchor="start" fill="currentColor">
<tspan>ber</tspan>
</text>
</g>
</a>
<g transform="translate(25.5722, 8.7765)">
<rect x="-0.0617" y="-0.6975" width="0.1233" height="2.3137" ry="0.0400" fill="currentColor"/>
</g>
</svg>
