<?xml version="1.0" encoding="UTF-8" standalone="no"?>
<svg
   version="1.2"
   width="152.55023mm"
   height="12.080974mm"
   viewBox="0 0 86.810249 6.8747411"
   id="svg460"
   sodipodi:docname="62a1b78ce39af0091ce52eff524c642a.svg"
   xmlns:inkscape="http://www.inkscape.org/namespaces/inkscape"
   xmlns:sodipodi="http://sodipodi.sourceforge.net/DTD/sodipodi-0.dtd"
   xmlns:xlink="http://www.w3.org/1999/xlink"
   xmlns="http://www.w3.org/2000/svg"
   xmlns:svg="http://www.w3.org/2000/svg">
  <defs
     id="defs464" />
  <sodipodi:namedview
     id="namedview462"
     pagecolor="#ffffff"
     bordercolor="#000000"
     borderopacity="0.25"
     inkscape:showpageshadow="2"
     inkscape:pageopacity="0.0"
     inkscape:pagecheckerboard="0"
     inkscape:deskcolor="#d1d1d1"
     inkscape:document-units="mm" />
  <style
     type="text/css"
     id="style2"><![CDATA[
tspan { white-space: pre; }
]]></style>
  <!-- Page: 1/1 -->
  <g
     transform="translate(4.9997121e-5,0.46507834)"
     id="g6">
    <rect
       x="66.152603"
       y="-0.089900002"
       width="1.6611"
       height="0.17990001"
       ry="0.089900002"
       fill="currentColor"
       id="rect4" />
  </g>
  <g
     transform="translate(4.9997121e-5,1.3150783)"
     id="g10">
    <rect
       x="66.152603"
       y="-0.089900002"
       width="1.6611"
       height="0.17990001"
       ry="0.089900002"
       fill="currentColor"
       id="rect8" />
  </g>
  <g
     transform="translate(4.9997121e-5,1.3150783)"
     id="g14">
    <rect
       x="63.8452"
       y="-0.089900002"
       width="1.6611"
       height="0.17990001"
       ry="0.089900002"
       fill="currentColor"
       id="rect12" />
  </g>
  <g
     transform="translate(4.9997121e-5,0.46507834)"
     id="g18">
    <rect
       x="61.537899"
       y="-0.089900002"
       width="1.6611"
       height="0.17990001"
       ry="0.089900002"
       fill="currentColor"
       id="rect16" />
  </g>
  <g
     transform="translate(4.9997121e-5,1.3150783)"
     id="g22">
    <rect
       x="61.537899"
       y="-0.089900002"
       width="1.6611"
       height="0.17990001"
       ry="0.089900002"
       fill="currentColor"
       id="rect20" />
  </g>
  <g
     transform="translate(4.9997121e-5,1.3150783)"
     id="g26">
    <rect
       x="59.230499"
       y="-0.089900002"
       width="1.6611"
       height="0.17990001"
       ry="0.089900002"
       fill="currentColor"
       id="rect24" />
  </g>
  <g
     transform="translate(4.9997121e-5,1.3150783)"
     id="g30">
    <rect
       x="56.9231"
       y="-0.089900002"
       width="1.6611"
       height="0.17990001"
       ry="0.089900002"
       fill="currentColor"
       id="rect28" />
  </g>
  <g
     transform="translate(4.9997121e-5,0.46507834)"
     id="g34">
    <rect
       x="27.6665"
       y="-0.089900002"
       width="1.6611"
       height="0.17990001"
       ry="0.089900002"
       fill="currentColor"
       id="rect32" />
  </g>
  <g
     transform="translate(4.9997121e-5,1.3150783)"
     id="g38">
    <rect
       x="27.6665"
       y="-0.089900002"
       width="1.6611"
       height="0.17990001"
       ry="0.089900002"
       fill="currentColor"
       id="rect36" />
  </g>
  <g
     transform="translate(4.9997121e-5,1.3150783)"
     id="g42">
    <rect
       x="25.3591"
       y="-0.089900002"
       width="1.6611"
       height="0.17990001"
       ry="0.089900002"
       fill="currentColor"
       id="rect40" />
  </g>
  <g
     transform="translate(4.9997121e-5,0.46507834)"
     id="g46">
    <rect
       x="23.051701"
       y="-0.089900002"
       width="1.6611"
       height="0.17990001"
       ry="0.089900002"
       fill="currentColor"
       id="rect44" />
  </g>
  <g
     transform="translate(4.9997121e-5,1.3150783)"
     id="g50">
    <rect
       x="23.051701"
       y="-0.089900002"
       width="1.6611"
       height="0.17990001"
       ry="0.089900002"
       fill="currentColor"
       id="rect48" />
  </g>
  <g
     transform="translate(4.9997121e-5,1.3150783)"
     id="g54">
    <rect
       x="20.744301"
       y="-0.089900002"
       width="1.6611"
       height="0.17990001"
       ry="0.089900002"
       fill="currentColor"
       id="rect52" />
  </g>
  <g
     transform="translate(4.9997121e-5,1.3150783)"
     id="g58">
    <rect
       x="18.436899"
       y="-0.089900002"
       width="1.6611"
       height="0.17990001"
       ry="0.089900002"
       fill="currentColor"
       id="rect56" />
  </g>
  <g
     transform="translate(4.9997121e-5,5.5650783)"
     id="g62">
    <line
       stroke-linejoin="round"
       stroke-linecap="round"
       stroke-width="0.0949"
       stroke="currentColor"
       x1="0.047400001"
       y1="0"
       x2="86.762703"
       y2="0"
       id="line60" />
  </g>
  <g
     transform="translate(4.9997121e-5,4.7150783)"
     id="g66">
    <line
       stroke-linejoin="round"
       stroke-linecap="round"
       stroke-width="0.0949"
       stroke="currentColor"
       x1="0.047400001"
       y1="0"
       x2="86.762703"
       y2="0"
       id="line64" />
  </g>
  <g
     transform="translate(4.9997121e-5,3.8650783)"
     id="g70">
    <line
       stroke-linejoin="round"
       stroke-linecap="round"
       stroke-width="0.0949"
       stroke="currentColor"
       x1="0.047400001"
       y1="0"
       x2="86.762703"
       y2="0"
       id="line68" />
  </g>
  <g
     transform="translate(4.9997121e-5,3.0150783)"
     id="g74">
    <line
       stroke-linejoin="round"
       stroke-linecap="round"
       stroke-width="0.0949"
       stroke="currentColor"
       x1="0.047400001"
       y1="0"
       x2="86.762703"
       y2="0"
       id="line72" />
  </g>
  <g
     transform="translate(4.9997121e-5,2.1650783)"
     id="g78">
    <line
       stroke-linejoin="round"
       stroke-linecap="round"
       stroke-width="0.0949"
       stroke="currentColor"
       x1="0.047400001"
       y1="0"
       x2="86.762703"
       y2="0"
       id="line76" />
  </g>
  <g
     transform="translate(30.10785,3.8650783)"
     id="g82">
    <rect
       x="0"
       y="-1.7"
       width="0.1802"
       height="3.4000001"
       ry="0.0000"
       fill="currentColor"
       id="rect80" />
  </g>
  <g
     transform="translate(86.63005,3.8650783)"
     id="g86">
    <rect
       x="0"
       y="-1.7"
       width="0.1802"
       height="3.4000001"
       ry="0.0000"
       fill="currentColor"
       id="rect84" />
  </g>
  <g
     transform="translate(68.59405,3.8650783)"
     id="g90">
    <rect
       x="0"
       y="-1.7"
       width="0.1802"
       height="3.4000001"
       ry="0.0000"
       fill="currentColor"
       id="rect88" />
  </g>
  <g
     transform="translate(49.29375,3.8650783)"
     id="g94">
    <rect
       x="0"
       y="-1.7"
       width="0.1802"
       height="3.4000001"
       ry="0.0000"
       fill="currentColor"
       id="rect92" />
  </g>
  <a
     style="color:inherit"
     xlink:href="textedit:///Users/tomsegarra/Documents/dev/dummies/lilypond_files/62a1b78ce39af0091ce52eff524c642a.ly:20:4:5"
     id="a100"
     transform="translate(-2.27615,-3.2774217)">
    <g
       transform="translate(14.3252,5.4425)"
       id="g98">
      <path
         transform="scale(0.0034,-0.0034)"
         d="m 215,137 c 67,0 111,-37 111,-92 0,-90 -111,-182 -215,-182 -67,0 -111,37 -111,92 0,90 111,182 215,182 z"
         fill="currentColor"
         id="path96" />
    </g>
  </a>
  <g
     transform="translate(0.80005,4.7150783)"
     id="g104">
    <path
       transform="scale(0.0034,-0.0034)"
       d="m 646,2 c 0,-113 -74,-213 -180,-247 3,-34 5,-68 5,-102 0,-20 -1,-40 -2,-60 -7,-121 -91,-228 -209,-228 -108,0 -196,87 -196,196 0,58 53,104 112,104 54,0 95,-48 95,-104 0,-52 -43,-95 -95,-95 -10,0 -20,2 -29,6 26,-38 68,-63 116,-63 h 3 c 93,2 153,92 159,190 1,19 2,37 2,56 0,30 -2,60 -4,90 -5,-1 -43,-8 -88,-8 -194,0 -333,180 -333,375 0,177 130,307 246,442 -31,98 -53,170 -53,347 0,115 55,223 148,290 7,5 16,4 22,-1 68,-80 134,-243 134,-357 0,-143 -85,-255 -178,-364 21,-68 40,-137 57,-206 1,0 5,1 11,1 C 545,264 646,135 646,2 Z M 462,-202 c 66,24 111,88 111,162 0,89 -65,178 -170,190 28,-135 50,-272 59,-352 z M 75,26 c 0,-145 141,-245 263,-245 1,0 46,0 81,6 -7,65 -27,206 -61,363 -79,-8 -124,-61 -124,-119 0,-43 25,-89 80,-121 5,-5 7,-11 7,-16 0,-12 -10,-23 -22,-23 -16,0 -127,63 -127,188 0,89 58,175 161,198 -14,58 -29,116 -46,173 C 181,308 75,186 75,26 Z M 406,1042 C 307,995 244,894 244,785 c 0,-49 13,-111 38,-191 79,97 144,199 144,324 0,33 0,63 -20,124 z"
       fill="currentColor"
       id="path102" />
  </g>
  <a
     style="color:inherit"
     xlink:href="textedit:///Users/tomsegarra/Documents/dev/dummies/lilypond_files/62a1b78ce39af0091ce52eff524c642a.ly:19:1:9"
     id="a122"
     transform="translate(-2.27615,-3.2774217)">
    <g
       transform="translate(6.6864,7.1425)"
       id="g108">
      <path
         transform="scale(0.0034,-0.0034)"
         d="m 29,39 -2,-64 v -11 c 0,-22 2,-43 5,-65 44,38 91,80 91,138 0,33 -13,66 -42,66 C 50,103 30,72 29,39 Z m -57,415 c 9,5 18,8 28,8 10,0 19,-3 28,-8 L 21,111 c 25,23 58,36 92,36 51,0 87,-49 87,-103 0,-79 -84,-117 -144,-169 -16,-14 -25,-41 -47,-41 -14,0 -25,13 -25,27 z"
         fill="currentColor"
         id="path106" />
    </g>
    <g
       transform="translate(7.4766,5.8675)"
       id="g112">
      <path
         transform="scale(0.0034,-0.0034)"
         d="m 29,39 -2,-64 v -11 c 0,-22 2,-43 5,-65 44,38 91,80 91,138 0,33 -13,66 -42,66 C 50,103 30,72 29,39 Z m -57,415 c 9,5 18,8 28,8 10,0 19,-3 28,-8 L 21,111 c 25,23 58,36 92,36 51,0 87,-49 87,-103 0,-79 -84,-117 -144,-169 -16,-14 -25,-41 -47,-41 -14,0 -25,13 -25,27 z"
         fill="currentColor"
         id="path110" />
    </g>
    <g
       transform="translate(8.2668,7.5675)"
       id="g116">
      <path
         transform="scale(0.0034,-0.0034)"
         d="m 29,39 -2,-64 v -11 c 0,-22 2,-43 5,-65 44,38 91,80 91,138 0,33 -13,66 -42,66 C 50,103 30,72 29,39 Z m -57,415 c 9,5 18,8 28,8 10,0 19,-3 28,-8 L 21,111 c 25,23 58,36 92,36 51,0 87,-49 87,-103 0,-79 -84,-117 -144,-169 -16,-14 -25,-41 -47,-41 -14,0 -25,13 -25,27 z"
         fill="currentColor"
         id="path114" />
    </g>
    <g
       transform="translate(9.057,6.2925)"
       id="g120">
      <path
         transform="scale(0.0034,-0.0034)"
         d="m 29,39 -2,-64 v -11 c 0,-22 2,-43 5,-65 44,38 91,80 91,138 0,33 -13,66 -42,66 C 50,103 30,72 29,39 Z m -57,415 c 9,5 18,8 28,8 10,0 19,-3 28,-8 L 21,111 c 25,23 58,36 92,36 51,0 87,-49 87,-103 0,-79 -84,-117 -144,-169 -16,-14 -25,-41 -47,-41 -14,0 -25,13 -25,27 z"
         fill="currentColor"
         id="path118" />
    </g>
  </a>
  <g
     transform="translate(8.61085,3.8650783)"
     id="g126">
    <path
       transform="scale(0.0034,-0.0034)"
       d="m 358,29 c -30,0 -74,23 -74,73 0,38 27,76 71,76 4,0 7,0 11,-1 -27,36 -69,59 -116,59 -106,0 -113,-74 -113,-188 0,-15 1,-31 1,-48 0,-17 -1,-33 -1,-48 0,-114 7,-188 113,-188 79,0 136,70 155,150 2,7 7,10 13,10 7,0 14,-5 14,-13 0,-21 -50,-175 -182,-175 C 191,-264 0,-244 0,0 0,63 18,264 250,264 365,264 424,155 424,99 424,60 394,29 358,29 Z"
       fill="currentColor"
       id="path124" />
  </g>
  <g
     transform="translate(12.11075,3.8650783)"
     id="g130">
    <rect
       x="-0.061700001"
       y="-1.5475"
       width="0.1233"
       height="2.3975"
       ry="0.039999999"
       fill="currentColor"
       id="rect128" />
  </g>
  <g
     transform="translate(21.02125,3.8650783)"
     id="g134">
    <polygon
       stroke-linejoin="round"
       stroke-linecap="round"
       stroke-width="0.08"
       fill="currentColor"
       stroke="currentColor"
       points="0.04,0.164 0.04,-0.164 7.0055,-0.164 7.0055,0.164 "
       id="polygon132" />
  </g>
  <a
     style="color:inherit"
     xlink:href="textedit:///Users/tomsegarra/Documents/dev/dummies/lilypond_files/62a1b78ce39af0091ce52eff524c642a.ly:20:56:57"
     id="a140"
     transform="translate(-2.27615,-3.2774217)">
    <g
       transform="translate(47.2125,7.1425)"
       id="g138">
      <path
         transform="scale(0.0034,-0.0034)"
         d="m 70,205 c 80,0 46,-97 90,-97 15,0 52,45 59,59 6,13 26,13 31,0 L 129,-250 c -9,-7 -19,-11 -30,-11 -11,0 -21,4 -30,11 L 187,76 C 154,64 119,54 84,54 37,54 -3,88 -3,133 c 0,40 33,72 73,72 z"
         fill="currentColor"
         id="path136" />
    </g>
  </a>
  <g
     transform="translate(31.34945,5.4085783)"
     id="g144">
    <polygon
       stroke-linejoin="round"
       stroke-linecap="round"
       stroke-width="0.08"
       fill="currentColor"
       stroke="currentColor"
       points="0.04,0.164 0.04,-0.164 2.3907,-0.164 2.3907,0.164 "
       id="polygon142" />
  </g>
  <a
     style="color:inherit"
     xlink:href="textedit:///Users/tomsegarra/Documents/dev/dummies/lilypond_files/62a1b78ce39af0091ce52eff524c642a.ly:20:58:59"
     id="a150"
     transform="translate(-2.27615,-3.2774217)">
    <g
       transform="translate(49.2625,5.8675)"
       id="g148">
      <path
         transform="scale(0.0034,-0.0034)"
         d="m 215,137 c 67,0 111,-37 111,-92 0,-90 -111,-182 -215,-182 -67,0 -111,37 -111,92 0,90 111,182 215,182 z"
         fill="currentColor"
         id="path146" />
    </g>
  </a>
  <g
     transform="translate(47.04795,3.8650783)"
     id="g154">
    <rect
       x="-0.061700001"
       y="-1.1224999"
       width="0.1233"
       height="2.8225"
       ry="0.039999999"
       fill="currentColor"
       id="rect152" />
  </g>
  <g
     transform="translate(47.10965,5.5250783)"
     id="g158">
    <path
       transform="scale(0.0034,-0.0034)"
       d="M 0,0 H -18 V 250 H 0 Z m 0,0 v 250 c 96,59 222,149 222,259 0,57 -15,111 -40,162 -3,17 10,29 24,29 8,0 16,-5 21,-13 25,-56 40,-116 40,-178 C 267,306 0,203 0,0 Z"
       fill="currentColor"
       id="path156" />
  </g>
  <g
     transform="translate(40.32155,5.4085783)"
     id="g162">
    <polygon
       stroke-linejoin="round"
       stroke-linecap="round"
       stroke-width="0.08"
       fill="currentColor"
       stroke="currentColor"
       points="0.04,0.164 0.04,-0.164 2.3907,-0.164 2.3907,0.164 "
       id="polygon160" />
  </g>
  <g
     transform="translate(50.53525,4.7150783)"
     id="g166">
    <polygon
       stroke-linejoin="round"
       stroke-linecap="round"
       stroke-width="0.08"
       fill="currentColor"
       stroke="currentColor"
       points="0.04,0.164 0.04,-0.164 2.3907,-0.164 2.3907,0.164 "
       id="polygon164" />
  </g>
  <a
     style="color:inherit"
     xlink:href="textedit:///Users/tomsegarra/Documents/dev/dummies/lilypond_files/62a1b78ce39af0091ce52eff524c642a.ly:20:65:66"
     id="a172"
     transform="translate(-2.27615,-3.2774217)">
    <g
       transform="translate(52.8114,5.4425)"
       id="g170">
      <path
         transform="scale(0.0034,-0.0034)"
         d="m 215,137 c 67,0 111,-37 111,-92 0,-90 -111,-182 -215,-182 -67,0 -111,37 -111,92 0,90 111,182 215,182 z"
         fill="currentColor"
         id="path168" />
    </g>
  </a>
  <g
     transform="translate(50.59685,3.8650783)"
     id="g176">
    <rect
       x="-0.061700001"
       y="-1.5475"
       width="0.1233"
       height="2.3975"
       ry="0.039999999"
       fill="currentColor"
       id="rect174" />
  </g>
  <g
     transform="translate(59.50735,3.8650783)"
     id="g180">
    <polygon
       stroke-linejoin="round"
       stroke-linecap="round"
       stroke-width="0.08"
       fill="currentColor"
       stroke="currentColor"
       points="0.04,0.164 0.04,-0.164 7.0055,-0.164 7.0055,0.164 "
       id="polygon178" />
  </g>
  <a
     style="color:inherit"
     xlink:href="textedit:///Users/tomsegarra/Documents/dev/dummies/lilypond_files/62a1b78ce39af0091ce52eff524c642a.ly:20:67:68"
     id="a186"
     transform="translate(-2.27615,-3.2774217)">
    <g
       transform="translate(55.1188,5.4425)"
       id="g184">
      <path
         transform="scale(0.0034,-0.0034)"
         d="m 215,137 c 67,0 111,-37 111,-92 0,-90 -111,-182 -215,-182 -67,0 -111,37 -111,92 0,90 111,182 215,182 z"
         fill="currentColor"
         id="path182" />
    </g>
  </a>
  <g
     transform="translate(52.90425,3.8650783)"
     id="g190">
    <rect
       x="-0.061700001"
       y="-1.5475"
       width="0.1233"
       height="2.3975"
       ry="0.039999999"
       fill="currentColor"
       id="rect188" />
  </g>
  <g
     transform="translate(69.83555,4.7150783)"
     id="g194">
    <polygon
       stroke-linejoin="round"
       stroke-linecap="round"
       stroke-width="0.08"
       fill="currentColor"
       stroke="currentColor"
       points="0.04,0.164 0.04,-0.164 2.3907,-0.164 2.3907,0.164 "
       id="polygon192" />
  </g>
  <a
     style="color:inherit"
     xlink:href="textedit:///Users/tomsegarra/Documents/dev/dummies/lilypond_files/62a1b78ce39af0091ce52eff524c642a.ly:20:69:70"
     id="a200"
     transform="translate(-2.27615,-3.2774217)">
    <g
       transform="translate(57.4262,7.1425)"
       id="g198">
      <path
         transform="scale(0.0034,-0.0034)"
         d="m 70,205 c 80,0 46,-97 90,-97 15,0 52,45 59,59 6,13 26,13 31,0 L 129,-250 c -9,-7 -19,-11 -30,-11 -11,0 -21,4 -30,11 L 187,76 C 154,64 119,54 84,54 37,54 -3,88 -3,133 c 0,40 33,72 73,72 z"
         fill="currentColor"
         id="path196" />
    </g>
  </a>
  <g
     transform="translate(78.80775,4.7150783)"
     id="g204">
    <polygon
       stroke-linejoin="round"
       stroke-linecap="round"
       stroke-width="0.08"
       fill="currentColor"
       stroke="currentColor"
       points="0.04,0.164 0.04,-0.164 2.3907,-0.164 2.3907,0.164 "
       id="polygon202" />
  </g>
  <a
     style="color:inherit"
     xlink:href="textedit:///Users/tomsegarra/Documents/dev/dummies/lilypond_files/62a1b78ce39af0091ce52eff524c642a.ly:20:71:72"
     id="a210"
     transform="translate(-2.27615,-3.2774217)">
    <g
       transform="translate(59.4762,4.5925)"
       id="g208">
      <path
         transform="scale(0.0034,-0.0034)"
         d="m 215,137 c 67,0 111,-37 111,-92 0,-90 -111,-182 -215,-182 -67,0 -111,37 -111,92 0,90 111,182 215,182 z"
         fill="currentColor"
         id="path206" />
    </g>
  </a>
  <g
     transform="translate(57.26165,3.8650783)"
     id="g214">
    <rect
       x="-0.061700001"
       y="-2.3975"
       width="0.1233"
       height="2.8225"
       ry="0.039999999"
       fill="currentColor"
       id="rect212" />
  </g>
  <g
     transform="translate(57.32335,4.2500783)"
     id="g218">
    <path
       transform="scale(0.0034,-0.0034)"
       d="M 0,0 H -18 V 250 H 0 Z m 0,0 v 250 c 96,59 222,149 222,259 0,57 -15,111 -40,162 -3,17 10,29 24,29 8,0 16,-5 21,-13 25,-56 40,-116 40,-178 C 267,306 0,203 0,0 Z"
       fill="currentColor"
       id="path216" />
  </g>
  <a
     style="color:inherit"
     xlink:href="textedit:///Users/tomsegarra/Documents/dev/dummies/lilypond_files/62a1b78ce39af0091ce52eff524c642a.ly:20:75:76"
     id="a224"
     transform="translate(-2.27615,-3.2774217)">
    <g
       transform="translate(61.7835,4.1675)"
       id="g222">
      <path
         transform="scale(0.0034,-0.0034)"
         d="m 215,137 c 67,0 111,-37 111,-92 0,-90 -111,-182 -215,-182 -67,0 -111,37 -111,92 0,90 111,182 215,182 z"
         fill="currentColor"
         id="path220" />
    </g>
  </a>
  <g
     transform="translate(59.56905,3.8650783)"
     id="g228">
    <rect
       x="-0.061700001"
       y="-2.8225"
       width="0.1233"
       height="2.8225"
       ry="0.039999999"
       fill="currentColor"
       id="rect226" />
  </g>
  <g
     transform="translate(42.69065,3.8650783)"
     id="g232">
    <rect
       x="-0.061700001"
       y="-1.1224999"
       width="0.1233"
       height="2.6659999"
       ry="0.039999999"
       fill="currentColor"
       id="rect230" />
  </g>
  <a
     style="color:inherit"
     xlink:href="textedit:///Users/tomsegarra/Documents/dev/dummies/lilypond_files/62a1b78ce39af0091ce52eff524c642a.ly:20:79:80"
     id="a238"
     transform="translate(-2.27615,-3.2774217)">
    <g
       transform="translate(64.0909,3.7425)"
       id="g236">
      <path
         transform="scale(0.0034,-0.0034)"
         d="m 215,137 c 67,0 111,-37 111,-92 0,-90 -111,-182 -215,-182 -67,0 -111,37 -111,92 0,90 111,182 215,182 z"
         fill="currentColor"
         id="path234" />
    </g>
  </a>
  <g
     transform="translate(61.87645,3.8650783)"
     id="g242">
    <rect
       x="-0.061700001"
       y="-3.2474999"
       width="0.1233"
       height="3.2474999"
       ry="0.039999999"
       fill="currentColor"
       id="rect240" />
  </g>
  <a
     style="color:inherit"
     xlink:href="textedit:///Users/tomsegarra/Documents/dev/dummies/lilypond_files/62a1b78ce39af0091ce52eff524c642a.ly:20:52:53"
     id="a248"
     transform="translate(-2.27615,-3.2774217)">
    <g
       transform="translate(44.9051,5.8675)"
       id="g246">
      <path
         transform="scale(0.0034,-0.0034)"
         d="m 215,137 c 67,0 111,-37 111,-92 0,-90 -111,-182 -215,-182 -67,0 -111,37 -111,92 0,90 111,182 215,182 z"
         fill="currentColor"
         id="path244" />
    </g>
  </a>
  <a
     style="color:inherit"
     xlink:href="textedit:///Users/tomsegarra/Documents/dev/dummies/lilypond_files/62a1b78ce39af0091ce52eff524c642a.ly:20:81:82"
     id="a254"
     transform="translate(-2.27615,-3.2774217)">
    <g
       transform="translate(66.3983,4.1675)"
       id="g252">
      <path
         transform="scale(0.0034,-0.0034)"
         d="m 215,137 c 67,0 111,-37 111,-92 0,-90 -111,-182 -215,-182 -67,0 -111,37 -111,92 0,90 111,182 215,182 z"
         fill="currentColor"
         id="path250" />
    </g>
  </a>
  <g
     transform="translate(64.18385,3.8650783)"
     id="g258">
    <rect
       x="-0.061700001"
       y="-2.8225"
       width="0.1233"
       height="2.8225"
       ry="0.039999999"
       fill="currentColor"
       id="rect256" />
  </g>
  <a
     style="color:inherit"
     xlink:href="textedit:///Users/tomsegarra/Documents/dev/dummies/lilypond_files/62a1b78ce39af0091ce52eff524c642a.ly:20:85:86"
     id="a264"
     transform="translate(-2.27615,-3.2774217)">
    <g
       transform="translate(68.7057,3.7425)"
       id="g262">
      <path
         transform="scale(0.0034,-0.0034)"
         d="m 215,137 c 67,0 111,-37 111,-92 0,-90 -111,-182 -215,-182 -67,0 -111,37 -111,92 0,90 111,182 215,182 z"
         fill="currentColor"
         id="path260" />
    </g>
  </a>
  <g
     transform="translate(66.49125,3.8650783)"
     id="g268">
    <rect
       x="-0.061700001"
       y="-3.2474999"
       width="0.1233"
       height="3.2474999"
       ry="0.039999999"
       fill="currentColor"
       id="rect266" />
  </g>
  <a
     style="color:inherit"
     xlink:href="textedit:///Users/tomsegarra/Documents/dev/dummies/lilypond_files/62a1b78ce39af0091ce52eff524c642a.ly:20:91:92"
     id="a274"
     transform="translate(-2.27615,-3.2774217)">
    <g
       transform="translate(72.1117,5.4425)"
       id="g272">
      <path
         transform="scale(0.0034,-0.0034)"
         d="m 215,137 c 67,0 111,-37 111,-92 0,-90 -111,-182 -215,-182 -67,0 -111,37 -111,92 0,90 111,182 215,182 z"
         fill="currentColor"
         id="path270" />
    </g>
  </a>
  <g
     transform="translate(69.89725,3.8650783)"
     id="g278">
    <rect
       x="-0.061700001"
       y="-1.5475"
       width="0.1233"
       height="2.3975"
       ry="0.039999999"
       fill="currentColor"
       id="rect276" />
  </g>
  <a
     style="color:inherit"
     xlink:href="textedit:///Users/tomsegarra/Documents/dev/dummies/lilypond_files/62a1b78ce39af0091ce52eff524c642a.ly:20:94:95"
     id="a284"
     transform="translate(-2.27615,-3.2774217)">
    <g
       transform="translate(74.4191,5.4425)"
       id="g282">
      <path
         transform="scale(0.0034,-0.0034)"
         d="m 215,137 c 67,0 111,-37 111,-92 0,-90 -111,-182 -215,-182 -67,0 -111,37 -111,92 0,90 111,182 215,182 z"
         fill="currentColor"
         id="path280" />
    </g>
  </a>
  <g
     transform="translate(72.20465,3.8650783)"
     id="g288">
    <rect
       x="-0.061700001"
       y="-1.5475"
       width="0.1233"
       height="2.3975"
       ry="0.039999999"
       fill="currentColor"
       id="rect286" />
  </g>
  <g
     transform="translate(40.38325,3.8650783)"
     id="g292">
    <rect
       x="-0.061700001"
       y="-1.1224999"
       width="0.1233"
       height="2.6659999"
       ry="0.039999999"
       fill="currentColor"
       id="rect290" />
  </g>
  <a
     style="color:inherit"
     xlink:href="textedit:///Users/tomsegarra/Documents/dev/dummies/lilypond_files/62a1b78ce39af0091ce52eff524c642a.ly:20:96:97"
     id="a298"
     transform="translate(-2.27615,-3.2774217)">
    <g
       transform="translate(76.7265,7.1425)"
       id="g296">
      <path
         transform="scale(0.0034,-0.0034)"
         d="m 70,205 c 80,0 46,-97 90,-97 15,0 52,45 59,59 6,13 26,13 31,0 L 129,-250 c -9,-7 -19,-11 -30,-11 -11,0 -21,4 -30,11 L 187,76 C 154,64 119,54 84,54 37,54 -3,88 -3,133 c 0,40 33,72 73,72 z"
         fill="currentColor"
         id="path294" />
    </g>
  </a>
  <a
     style="color:inherit"
     xlink:href="textedit:///Users/tomsegarra/Documents/dev/dummies/lilypond_files/62a1b78ce39af0091ce52eff524c642a.ly:20:48:49"
     id="a304"
     transform="translate(-2.27615,-3.2774217)">
    <g
       transform="translate(42.5977,5.8675)"
       id="g302">
      <path
         transform="scale(0.0034,-0.0034)"
         d="m 215,137 c 67,0 111,-37 111,-92 0,-90 -111,-182 -215,-182 -67,0 -111,37 -111,92 0,90 111,182 215,182 z"
         fill="currentColor"
         id="path300" />
    </g>
  </a>
  <a
     style="color:inherit"
     xlink:href="textedit:///Users/tomsegarra/Documents/dev/dummies/lilypond_files/62a1b78ce39af0091ce52eff524c642a.ly:20:98:99"
     id="a310"
     transform="translate(-2.27615,-3.2774217)">
    <g
       transform="translate(78.7765,5.4425)"
       id="g308">
      <path
         transform="scale(0.0034,-0.0034)"
         d="m 215,137 c 67,0 111,-37 111,-92 0,-90 -111,-182 -215,-182 -67,0 -111,37 -111,92 0,90 111,182 215,182 z"
         fill="currentColor"
         id="path306" />
    </g>
  </a>
  <g
     transform="translate(76.56205,3.8650783)"
     id="g314">
    <rect
       x="-0.061700001"
       y="-1.5475"
       width="0.1233"
       height="2.8225"
       ry="0.039999999"
       fill="currentColor"
       id="rect312" />
  </g>
  <g
     transform="translate(76.62365,5.1000783)"
     id="g318">
    <path
       transform="scale(0.0034,-0.0034)"
       d="M 0,0 H -18 V 250 H 0 Z m 0,0 v 250 c 96,59 222,149 222,259 0,57 -15,111 -40,162 -3,17 10,29 24,29 8,0 16,-5 21,-13 25,-56 40,-116 40,-178 C 267,306 0,203 0,0 Z"
       fill="currentColor"
       id="path316" />
  </g>
  <g
     transform="translate(12.04905,4.7150783)"
     id="g322">
    <polygon
       stroke-linejoin="round"
       stroke-linecap="round"
       stroke-width="0.08"
       fill="currentColor"
       stroke="currentColor"
       points="0.04,0.164 0.04,-0.164 2.3907,-0.164 2.3907,0.164 "
       id="polygon320" />
  </g>
  <a
     style="color:inherit"
     xlink:href="textedit:///Users/tomsegarra/Documents/dev/dummies/lilypond_files/62a1b78ce39af0091ce52eff524c642a.ly:20:100:101"
     id="a328"
     transform="translate(-2.27615,-3.2774217)">
    <g
       transform="translate(81.0839,5.4425)"
       id="g326">
      <path
         transform="scale(0.0034,-0.0034)"
         d="m 215,137 c 67,0 111,-37 111,-92 0,-90 -111,-182 -215,-182 -67,0 -111,37 -111,92 0,90 111,182 215,182 z"
         fill="currentColor"
         id="path324" />
    </g>
  </a>
  <g
     transform="translate(78.86945,3.8650783)"
     id="g332">
    <rect
       x="-0.061700001"
       y="-1.5475"
       width="0.1233"
       height="2.3975"
       ry="0.039999999"
       fill="currentColor"
       id="rect330" />
  </g>
  <g
     transform="translate(38.13745,5.5250783)"
     id="g336">
    <path
       transform="scale(0.0034,-0.0034)"
       d="M 0,0 H -18 V 250 H 0 Z m 0,0 v 250 c 96,59 222,149 222,259 0,57 -15,111 -40,162 -3,17 10,29 24,29 8,0 16,-5 21,-13 25,-56 40,-116 40,-178 C 267,306 0,203 0,0 Z"
       fill="currentColor"
       id="path334" />
  </g>
  <a
     style="color:inherit"
     xlink:href="textedit:///Users/tomsegarra/Documents/dev/dummies/lilypond_files/62a1b78ce39af0091ce52eff524c642a.ly:20:102:103"
     id="a342"
     transform="translate(-2.27615,-3.2774217)">
    <g
       transform="translate(83.3913,5.4425)"
       id="g340">
      <path
         transform="scale(0.0034,-0.0034)"
         d="m 215,137 c 67,0 111,-37 111,-92 0,-90 -111,-182 -215,-182 -67,0 -111,37 -111,92 0,90 111,182 215,182 z"
         fill="currentColor"
         id="path338" />
    </g>
  </a>
  <g
     transform="translate(81.17675,3.8650783)"
     id="g346">
    <rect
       x="-0.061700001"
       y="-1.5475"
       width="0.1233"
       height="2.3975"
       ry="0.039999999"
       fill="currentColor"
       id="rect344" />
  </g>
  <a
     style="color:inherit"
     xlink:href="textedit:///Users/tomsegarra/Documents/dev/dummies/lilypond_files/62a1b78ce39af0091ce52eff524c642a.ly:20:104:105"
     id="a352"
     transform="translate(-2.27615,-3.2774217)">
    <g
       transform="translate(85.6987,7.1425)"
       id="g350">
      <path
         transform="scale(0.0034,-0.0034)"
         d="m -8,78 c 0,59 125,83 125,182 0,25 -9,49 -26,69 l -33,40 c -3,4 -4,7 -4,11 0,9 9,17 18,17 4,0 8,-2 12,-6 L 234,212 c 7,-9 11,-18 11,-26 0,-59 -125,-83 -125,-182 0,-25 8,-49 25,-69 l 82,-97 c 3,-4 4,-7 4,-11 0,-9 -8,-17 -17,-17 -10,0 -42,42 -106,42 -19,0 -54,-1 -54,-66 0,-34 10,-73 27,-93 7,-9 -5,-20 -12,-11 -45,53 -93,147 -93,201 0,42 27,42 43,42 31,0 74,-11 113,-27 L 3,52 C -4,61 -8,70 -8,78 Z"
         fill="currentColor"
         id="path348" />
    </g>
  </a>
  <g
     transform="translate(38.07585,3.8650783)"
     id="g356">
    <rect
       x="-0.061700001"
       y="-1.1224999"
       width="0.1233"
       height="2.8225"
       ry="0.039999999"
       fill="currentColor"
       id="rect354" />
  </g>
  <a
     style="color:inherit"
     xlink:href="textedit:///Users/tomsegarra/Documents/dev/dummies/lilypond_files/62a1b78ce39af0091ce52eff524c642a.ly:20:44:45"
     id="a362"
     transform="translate(-2.27615,-3.2774217)">
    <g
       transform="translate(40.2903,5.8675)"
       id="g360">
      <path
         transform="scale(0.0034,-0.0034)"
         d="m 215,137 c 67,0 111,-37 111,-92 0,-90 -111,-182 -215,-182 -67,0 -111,37 -111,92 0,90 111,182 215,182 z"
         fill="currentColor"
         id="path358" />
    </g>
  </a>
  <a
     style="color:inherit"
     xlink:href="textedit:///Users/tomsegarra/Documents/dev/dummies/lilypond_files/62a1b78ce39af0091ce52eff524c642a.ly:20:9:10"
     id="a368"
     transform="translate(-2.27615,-3.2774217)">
    <g
       transform="translate(16.6326,5.4425)"
       id="g366">
      <path
         transform="scale(0.0034,-0.0034)"
         d="m 215,137 c 67,0 111,-37 111,-92 0,-90 -111,-182 -215,-182 -67,0 -111,37 -111,92 0,90 111,182 215,182 z"
         fill="currentColor"
         id="path364" />
    </g>
  </a>
  <g
     transform="translate(14.41815,3.8650783)"
     id="g372">
    <rect
       x="-0.061700001"
       y="-1.5475"
       width="0.1233"
       height="2.3975"
       ry="0.039999999"
       fill="currentColor"
       id="rect370" />
  </g>
  <a
     style="color:inherit"
     xlink:href="textedit:///Users/tomsegarra/Documents/dev/dummies/lilypond_files/62a1b78ce39af0091ce52eff524c642a.ly:20:11:12"
     id="a378"
     transform="translate(-2.27615,-3.2774217)">
    <g
       transform="translate(18.94,7.1425)"
       id="g376">
      <path
         transform="scale(0.0034,-0.0034)"
         d="m 70,205 c 80,0 46,-97 90,-97 15,0 52,45 59,59 6,13 26,13 31,0 L 129,-250 c -9,-7 -19,-11 -30,-11 -11,0 -21,4 -30,11 L 187,76 C 154,64 119,54 84,54 37,54 -3,88 -3,133 c 0,40 33,72 73,72 z"
         fill="currentColor"
         id="path374" />
    </g>
  </a>
  <a
     style="color:inherit"
     xlink:href="textedit:///Users/tomsegarra/Documents/dev/dummies/lilypond_files/62a1b78ce39af0091ce52eff524c642a.ly:20:13:14"
     id="a384"
     transform="translate(-2.27615,-3.2774217)">
    <g
       transform="translate(20.99,4.5925)"
       id="g382">
      <path
         transform="scale(0.0034,-0.0034)"
         d="m 215,137 c 67,0 111,-37 111,-92 0,-90 -111,-182 -215,-182 -67,0 -111,37 -111,92 0,90 111,182 215,182 z"
         fill="currentColor"
         id="path380" />
    </g>
  </a>
  <g
     transform="translate(18.77545,3.8650783)"
     id="g388">
    <rect
       x="-0.061700001"
       y="-2.3975"
       width="0.1233"
       height="2.8225"
       ry="0.039999999"
       fill="currentColor"
       id="rect386" />
  </g>
  <g
     transform="translate(18.83715,4.2500783)"
     id="g392">
    <path
       transform="scale(0.0034,-0.0034)"
       d="M 0,0 H -18 V 250 H 0 Z m 0,0 v 250 c 96,59 222,149 222,259 0,57 -15,111 -40,162 -3,17 10,29 24,29 8,0 16,-5 21,-13 25,-56 40,-116 40,-178 C 267,306 0,203 0,0 Z"
       fill="currentColor"
       id="path390" />
  </g>
  <a
     style="color:inherit"
     xlink:href="textedit:///Users/tomsegarra/Documents/dev/dummies/lilypond_files/62a1b78ce39af0091ce52eff524c642a.ly:20:17:18"
     id="a398"
     transform="translate(-2.27615,-3.2774217)">
    <g
       transform="translate(23.2974,4.1675)"
       id="g396">
      <path
         transform="scale(0.0034,-0.0034)"
         d="m 215,137 c 67,0 111,-37 111,-92 0,-90 -111,-182 -215,-182 -67,0 -111,37 -111,92 0,90 111,182 215,182 z"
         fill="currentColor"
         id="path394" />
    </g>
  </a>
  <g
     transform="translate(21.08285,3.8650783)"
     id="g402">
    <rect
       x="-0.061700001"
       y="-2.8225"
       width="0.1233"
       height="2.8225"
       ry="0.039999999"
       fill="currentColor"
       id="rect400" />
  </g>
  <a
     style="color:inherit"
     xlink:href="textedit:///Users/tomsegarra/Documents/dev/dummies/lilypond_files/62a1b78ce39af0091ce52eff524c642a.ly:20:42:43"
     id="a408"
     transform="translate(-2.27615,-3.2774217)">
    <g
       transform="translate(38.2403,7.1425)"
       id="g406">
      <path
         transform="scale(0.0034,-0.0034)"
         d="m 70,205 c 80,0 46,-97 90,-97 15,0 52,45 59,59 6,13 26,13 31,0 L 129,-250 c -9,-7 -19,-11 -30,-11 -11,0 -21,4 -30,11 L 187,76 C 154,64 119,54 84,54 37,54 -3,88 -3,133 c 0,40 33,72 73,72 z"
         fill="currentColor"
         id="path404" />
    </g>
  </a>
  <a
     style="color:inherit"
     xlink:href="textedit:///Users/tomsegarra/Documents/dev/dummies/lilypond_files/62a1b78ce39af0091ce52eff524c642a.ly:20:21:22"
     id="a414"
     transform="translate(-2.27615,-3.2774217)">
    <g
       transform="translate(25.6047,3.7425)"
       id="g412">
      <path
         transform="scale(0.0034,-0.0034)"
         d="m 215,137 c 67,0 111,-37 111,-92 0,-90 -111,-182 -215,-182 -67,0 -111,37 -111,92 0,90 111,182 215,182 z"
         fill="currentColor"
         id="path410" />
    </g>
  </a>
  <g
     transform="translate(23.39025,3.8650783)"
     id="g418">
    <rect
       x="-0.061700001"
       y="-3.2474999"
       width="0.1233"
       height="3.2474999"
       ry="0.039999999"
       fill="currentColor"
       id="rect416" />
  </g>
  <a
     style="color:inherit"
     xlink:href="textedit:///Users/tomsegarra/Documents/dev/dummies/lilypond_files/62a1b78ce39af0091ce52eff524c642a.ly:20:23:24"
     id="a424"
     transform="translate(-2.27615,-3.2774217)">
    <g
       transform="translate(27.9121,4.1675)"
       id="g422">
      <path
         transform="scale(0.0034,-0.0034)"
         d="m 215,137 c 67,0 111,-37 111,-92 0,-90 -111,-182 -215,-182 -67,0 -111,37 -111,92 0,90 111,182 215,182 z"
         fill="currentColor"
         id="path420" />
    </g>
  </a>
  <g
     transform="translate(25.69765,3.8650783)"
     id="g428">
    <rect
       x="-0.061700001"
       y="-2.8225"
       width="0.1233"
       height="2.8225"
       ry="0.039999999"
       fill="currentColor"
       id="rect426" />
  </g>
  <a
     style="color:inherit"
     xlink:href="textedit:///Users/tomsegarra/Documents/dev/dummies/lilypond_files/62a1b78ce39af0091ce52eff524c642a.ly:20:27:28"
     id="a434"
     transform="translate(-2.27615,-3.2774217)">
    <g
       transform="translate(30.2195,3.7425)"
       id="g432">
      <path
         transform="scale(0.0034,-0.0034)"
         d="m 215,137 c 67,0 111,-37 111,-92 0,-90 -111,-182 -215,-182 -67,0 -111,37 -111,92 0,90 111,182 215,182 z"
         fill="currentColor"
         id="path430" />
    </g>
  </a>
  <g
     transform="translate(28.00505,3.8650783)"
     id="g438">
    <rect
       x="-0.061700001"
       y="-3.2474999"
       width="0.1233"
       height="3.2474999"
       ry="0.039999999"
       fill="currentColor"
       id="rect436" />
  </g>
  <a
     style="color:inherit"
     xlink:href="textedit:///Users/tomsegarra/Documents/dev/dummies/lilypond_files/62a1b78ce39af0091ce52eff524c642a.ly:20:33:34"
     id="a444"
     transform="translate(-2.27615,-3.2774217)">
    <g
       transform="translate(33.6256,5.8675)"
       id="g442">
      <path
         transform="scale(0.0034,-0.0034)"
         d="m 215,137 c 67,0 111,-37 111,-92 0,-90 -111,-182 -215,-182 -67,0 -111,37 -111,92 0,90 111,182 215,182 z"
         fill="currentColor"
         id="path440" />
    </g>
  </a>
  <g
     transform="translate(31.41105,3.8650783)"
     id="g448">
    <rect
       x="-0.061700001"
       y="-1.1224999"
       width="0.1233"
       height="2.6659999"
       ry="0.039999999"
       fill="currentColor"
       id="rect446" />
  </g>
  <g
     transform="translate(33.71845,3.8650783)"
     id="g452">
    <rect
       x="-0.061700001"
       y="-1.1224999"
       width="0.1233"
       height="2.6659999"
       ry="0.039999999"
       fill="currentColor"
       id="rect450" />
  </g>
  <a
     style="color:inherit"
     xlink:href="textedit:///Users/tomsegarra/Documents/dev/dummies/lilypond_files/62a1b78ce39af0091ce52eff524c642a.ly:20:38:39"
     id="a458"
     transform="translate(-2.27615,-3.2774217)">
    <g
       transform="translate(35.9329,5.8675)"
       id="g456">
      <path
         transform="scale(0.0034,-0.0034)"
         d="m 215,137 c 67,0 111,-37 111,-92 0,-90 -111,-182 -215,-182 -67,0 -111,37 -111,92 0,90 111,182 215,182 z"
         fill="currentColor"
         id="path454" />
    </g>
  </a>
</svg>
