<?xml version="1.0" encoding="UTF-8" standalone="no"?>
<svg
   version="1.2"
   width="75.0457mm"
   height="16.037766mm"
   viewBox="0 0 42.702854 9.1263742"
   id="svg256"
   sodipodi:docname="6c93ef16f31e1a9091cee64f38c385ae.svg"
   xmlns:inkscape="http://www.inkscape.org/namespaces/inkscape"
   xmlns:sodipodi="http://sodipodi.sourceforge.net/DTD/sodipodi-0.dtd"
   xmlns:xlink="http://www.w3.org/1999/xlink"
   xmlns="http://www.w3.org/2000/svg"
   xmlns:svg="http://www.w3.org/2000/svg">
  <defs
     id="defs260" />
  <sodipodi:namedview
     id="namedview258"
     pagecolor="#ffffff"
     bordercolor="#000000"
     borderopacity="0.25"
     inkscape:showpageshadow="2"
     inkscape:pageopacity="0.0"
     inkscape:pagecheckerboard="0"
     inkscape:deskcolor="#d1d1d1"
     inkscape:document-units="mm" />
  <style
     type="text/css"
     id="style2"><![CDATA[
tspan { white-space: pre; }
]]></style>
  <!-- Page: 1/1 -->
  <g
     transform="translate(-0.00131914,4.8)"
     id="g6">
    <line
       stroke-linejoin="round"
       stroke-linecap="round"
       stroke-width="0.0931"
       stroke="currentColor"
       x1="0.046599999"
       y1="0"
       x2="42.658501"
       y2="0"
       id="line4" />
  </g>
  <g
     transform="translate(-0.00131914,4)"
     id="g10">
    <line
       stroke-linejoin="round"
       stroke-linecap="round"
       stroke-width="0.0931"
       stroke="currentColor"
       x1="0.046599999"
       y1="0"
       x2="42.658501"
       y2="0"
       id="line8" />
  </g>
  <g
     transform="translate(-0.00131914,3.2)"
     id="g14">
    <line
       stroke-linejoin="round"
       stroke-linecap="round"
       stroke-width="0.0931"
       stroke="currentColor"
       x1="0.046599999"
       y1="0"
       x2="42.658501"
       y2="0"
       id="line12" />
  </g>
  <g
     transform="translate(-0.00131914,2.4)"
     id="g18">
    <line
       stroke-linejoin="round"
       stroke-linecap="round"
       stroke-width="0.0931"
       stroke="currentColor"
       x1="0.046599999"
       y1="0"
       x2="42.658501"
       y2="0"
       id="line16" />
  </g>
  <g
     transform="translate(-0.00131914,1.6)"
     id="g22">
    <line
       stroke-linejoin="round"
       stroke-linecap="round"
       stroke-width="0.0931"
       stroke="currentColor"
       x1="0.046599999"
       y1="0"
       x2="42.658501"
       y2="0"
       id="line20" />
  </g>
  <g
     transform="translate(25.368081,3.2)"
     id="g26">
    <rect
       x="0"
       y="-1.6"
       width="0.177"
       height="3.2"
       ry="0.0000"
       fill="currentColor"
       id="rect24" />
  </g>
  <g
     transform="translate(42.526881,3.2)"
     id="g30">
    <rect
       x="0"
       y="-1.6"
       width="0.177"
       height="3.2"
       ry="0.0000"
       fill="currentColor"
       id="rect28" />
  </g>
  <a
     style="color:inherit"
     xlink:href="textedit:///Users/tomsegarra/Downloads/dummies/lilypond_files/6c93ef16f31e1a9091cee64f38c385ae.ly:22:1:9"
     id="a36"
     transform="translate(-2.2775191,-3.2762)">
    <g
       transform="translate(13.7126,5.2762)"
       id="g34">
      <path
         transform="scale(0.0032,-0.0032)"
         d="m 212,138 c 68,0 113,-38 113,-95 0,-90 -109,-181 -212,-181 -68,0 -113,38 -113,95 0,90 109,181 212,181 z"
         fill="currentColor"
         id="path32" />
    </g>
  </a>
  <g
     transform="translate(0.79868086,4)"
     id="g40">
    <path
       transform="scale(0.0032,-0.0032)"
       d="m 647,2 c 0,-114 -75,-214 -180,-248 3,-33 4,-66 4,-99 0,-21 0,-41 -1,-62 -7,-122 -92,-229 -211,-229 -108,0 -196,88 -196,197 0,58 54,103 113,103 54,0 95,-47 95,-103 0,-52 -43,-95 -95,-95 -9,0 -18,1 -27,4 25,-37 66,-61 113,-61 93,0 156,91 162,191 1,19 2,38 2,57 0,29 -1,58 -3,87 -5,-1 -44,-8 -88,-8 -194,0 -333,181 -333,376 0,177 129,308 244,443 -34,103 -55,171 -55,347 0,114 54,221 147,288 8,6 18,5 25,-1 68,-79 135,-242 135,-356 0,-142 -84,-255 -176,-364 21,-68 40,-136 57,-205 1,0 5,1 10,1 C 546,265 647,136 647,2 Z M 463,-201 c 64,24 110,88 110,161 0,88 -64,175 -167,188 28,-133 49,-269 57,-349 z M 77,25 c 0,-144 141,-243 261,-243 1,0 46,-1 81,5 -7,66 -27,208 -60,362 -79,-8 -124,-60 -124,-118 0,-43 25,-88 80,-120 5,-5 7,-11 7,-17 0,-12 -10,-23 -23,-23 -16,0 -128,62 -128,188 0,89 60,177 163,200 -14,57 -30,113 -47,169 C 182,306 77,185 77,25 Z M 403,1038 C 304,992 242,893 242,784 c 0,-39 10,-95 39,-188 78,97 142,199 142,324 0,33 0,61 -20,118 z"
       fill="currentColor"
       id="path38" />
  </g>
  <a
     style="color:inherit"
     xlink:href="textedit:///Users/tomsegarra/Downloads/dummies/lilypond_files/6c93ef16f31e1a9091cee64f38c385ae.ly:21:1:9"
     id="a54"
     transform="translate(-2.2775191,-3.2762)">
    <g
       transform="translate(6.5762,4.8762)"
       id="g44">
      <path
         transform="scale(0.0032,-0.0032)"
         d="m 198,-329 c -12,0 -21,9 -21,21 v 138 l -79,-30 v -154 c 0,-12 -9,-21 -21,-21 -12,0 -21,9 -21,21 v 138 l -22,-8 c -3,-1 -6,-2 -9,-2 -13,0 -25,11 -25,25 v 54 c 0,10 6,20 16,24 l 40,15 V 47 L 34,38 C 31,37 28,37 25,37 12,37 0,48 0,62 v 54 c 0,10 6,19 16,23 l 40,15 v 154 c 0,12 9,21 21,21 12,0 21,-9 21,-21 V 170 l 79,30 v 154 c 0,12 9,21 21,21 12,0 21,-9 21,-21 V 216 l 22,8 c 3,1 6,2 9,2 13,0 25,-11 25,-25 v -54 c 0,-10 -6,-20 -16,-24 L 219,108 V -47 l 22,9 c 3,1 6,1 9,1 13,0 25,-11 25,-25 v -54 c 0,-10 -6,-19 -16,-23 l -40,-15 v -154 c 0,-12 -9,-21 -21,-21 z M 98,62 V -92 l 79,30 V 92 Z"
         fill="currentColor"
         id="path42" />
    </g>
    <g
       transform="translate(7.4562,6.0762)"
       id="g48">
      <path
         transform="scale(0.0032,-0.0032)"
         d="m 198,-329 c -12,0 -21,9 -21,21 v 138 l -79,-30 v -154 c 0,-12 -9,-21 -21,-21 -12,0 -21,9 -21,21 v 138 l -22,-8 c -3,-1 -6,-2 -9,-2 -13,0 -25,11 -25,25 v 54 c 0,10 6,20 16,24 l 40,15 V 47 L 34,38 C 31,37 28,37 25,37 12,37 0,48 0,62 v 54 c 0,10 6,19 16,23 l 40,15 v 154 c 0,12 9,21 21,21 12,0 21,-9 21,-21 V 170 l 79,30 v 154 c 0,12 9,21 21,21 12,0 21,-9 21,-21 V 216 l 22,8 c 3,1 6,2 9,2 13,0 25,-11 25,-25 v -54 c 0,-10 -6,-20 -16,-24 L 219,108 V -47 l 22,9 c 3,1 6,1 9,1 13,0 25,-11 25,-25 v -54 c 0,-10 -6,-19 -16,-23 l -40,-15 v -154 c 0,-12 -9,-21 -21,-21 z M 98,62 V -92 l 79,30 V 92 Z"
         fill="currentColor"
         id="path46" />
    </g>
    <g
       transform="translate(8.3362,4.4762)"
       id="g52">
      <path
         transform="scale(0.0032,-0.0032)"
         d="m 198,-329 c -12,0 -21,9 -21,21 v 138 l -79,-30 v -154 c 0,-12 -9,-21 -21,-21 -12,0 -21,9 -21,21 v 138 l -22,-8 c -3,-1 -6,-2 -9,-2 -13,0 -25,11 -25,25 v 54 c 0,10 6,20 16,24 l 40,15 V 47 L 34,38 C 31,37 28,37 25,37 12,37 0,48 0,62 v 54 c 0,10 6,19 16,23 l 40,15 v 154 c 0,12 9,21 21,21 12,0 21,-9 21,-21 V 170 l 79,30 v 154 c 0,12 9,21 21,21 12,0 21,-9 21,-21 V 216 l 22,8 c 3,1 6,2 9,2 13,0 25,-11 25,-25 v -54 c 0,-10 -6,-20 -16,-24 L 219,108 V -47 l 22,9 c 3,1 6,1 9,1 13,0 25,-11 25,-25 v -54 c 0,-10 -6,-19 -16,-23 l -40,-15 v -154 c 0,-12 -9,-21 -21,-21 z M 98,62 V -92 l 79,30 V 92 Z"
         fill="currentColor"
         id="path50" />
    </g>
  </a>
  <g
     transform="translate(8.0886809,3.2)"
     id="g58">
    <path
       transform="scale(0.0032,-0.0032)"
       d="m 250,265 c 114,0 172,-112 172,-166 0,-38 -30,-69 -66,-69 -30,0 -72,23 -72,72 0,37 26,75 70,75 3,0 6,-1 9,-1 -26,36 -67,59 -113,59 -107,0 -113,-74 -113,-189 0,-15 1,-30 1,-46 0,-16 -1,-31 -1,-46 0,-115 6,-189 113,-189 78,0 133,70 151,149 2,8 8,11 14,11 7,0 15,-5 15,-14 0,-21 -49,-176 -180,-176 C 105,-265 0,-177 0,0 0,63 18,265 250,265 Z"
       fill="currentColor"
       id="path56" />
  </g>
  <a
     style="color:inherit"
     xlink:href="textedit:///Users/tomsegarra/Downloads/dummies/lilypond_files/6c93ef16f31e1a9091cee64f38c385ae.ly:25:4:5"
     id="a66"
     transform="translate(-2.2775191,-3.2762)">
    <g
       transform="translate(13.1915,11.9762)"
       id="g64">
      <text
         font-family="serif"
         font-size="1.9756px"
         text-anchor="start"
         fill="currentColor"
         id="text62"><tspan
           id="tspan60">I'll</tspan></text>
    </g>
  </a>
  <g
     transform="translate(11.495581,3.2)"
     id="g70">
    <rect
       x="-0.0605"
       y="-1.0628999"
       width="0.1211"
       height="2.6629"
       ry="0.039999999"
       fill="currentColor"
       id="rect68" />
  </g>
  <a
     style="color:inherit"
     xlink:href="textedit:///Users/tomsegarra/Downloads/dummies/lilypond_files/6c93ef16f31e1a9091cee64f38c385ae.ly:22:19:27"
     id="a76"
     transform="translate(-2.2775191,-3.2762)">
    <g
       transform="translate(31.0926,5.6762)"
       id="g74">
      <path
         transform="scale(0.0032,-0.0032)"
         d="m 212,138 c 68,0 113,-38 113,-95 0,-90 -109,-181 -212,-181 -68,0 -113,38 -113,95 0,90 109,181 212,181 z"
         fill="currentColor"
         id="path72" />
    </g>
  </a>
  <a
     style="color:inherit"
     xlink:href="textedit:///Users/tomsegarra/Downloads/dummies/lilypond_files/6c93ef16f31e1a9091cee64f38c385ae.ly:25:28:29"
     id="a84"
     transform="translate(-2.2775191,-3.2762)">
    <g
       transform="translate(30.8447,11.9762)"
       id="g82">
      <text
         font-family="serif"
         font-size="1.9756px"
         text-anchor="start"
         fill="currentColor"
         id="text80"><tspan
           id="tspan78">ty</tspan></text>
    </g>
  </a>
  <g
     transform="translate(28.875581,3.2)"
     id="g88">
    <rect
       x="-0.0605"
       y="-0.66289997"
       width="0.1211"
       height="2.4084001"
       ry="0.039999999"
       fill="currentColor"
       id="rect86" />
  </g>
  <a
     style="color:inherit"
     xlink:href="textedit:///Users/tomsegarra/Downloads/dummies/lilypond_files/6c93ef16f31e1a9091cee64f38c385ae.ly:22:21:29"
     id="a94"
     transform="translate(-2.2775191,-3.2762)">
    <g
       transform="translate(33.3332,6.0762)"
       id="g92">
      <path
         transform="scale(0.0032,-0.0032)"
         d="m 212,138 c 68,0 113,-38 113,-95 0,-90 -109,-181 -212,-181 -68,0 -113,38 -113,95 0,90 109,181 212,181 z"
         fill="currentColor"
         id="path90" />
    </g>
  </a>
  <a
     style="color:inherit"
     xlink:href="textedit:///Users/tomsegarra/Downloads/dummies/lilypond_files/6c93ef16f31e1a9091cee64f38c385ae.ly:25:31:32"
     id="a102"
     transform="translate(-2.2775191,-3.2762)">
    <g
       transform="translate(33.0341,11.9762)"
       id="g100">
      <text
         font-family="serif"
         font-size="1.9756px"
         text-anchor="start"
         fill="currentColor"
         id="text98"><tspan
           id="tspan96">lit</tspan></text>
    </g>
  </a>
  <g
     transform="translate(31.116281,3.2)"
     id="g106">
    <rect
       x="-0.0605"
       y="-0.26289999"
       width="0.1211"
       height="2.0084"
       ry="0.039999999"
       fill="currentColor"
       id="rect104" />
  </g>
  <a
     style="color:inherit"
     xlink:href="textedit:///Users/tomsegarra/Downloads/dummies/lilypond_files/6c93ef16f31e1a9091cee64f38c385ae.ly:22:25:33"
     id="a112"
     transform="translate(-2.2775191,-3.2762)">
    <g
       transform="translate(35.5739,5.6762)"
       id="g110">
      <path
         transform="scale(0.0032,-0.0032)"
         d="m 212,138 c 68,0 113,-38 113,-95 0,-90 -109,-181 -212,-181 -68,0 -113,38 -113,95 0,90 109,181 212,181 z"
         fill="currentColor"
         id="path108" />
    </g>
  </a>
  <a
     style="color:inherit"
     xlink:href="textedit:///Users/tomsegarra/Downloads/dummies/lilypond_files/6c93ef16f31e1a9091cee64f38c385ae.ly:25:38:39"
     id="a120"
     transform="translate(-2.2775191,-3.2762)">
    <g
       transform="translate(35.1041,11.9762)"
       id="g118">
      <text
         font-family="serif"
         font-size="1.9756px"
         text-anchor="start"
         fill="currentColor"
         id="text116"><tspan
           id="tspan114">tle</tspan></text>
    </g>
  </a>
  <g
     transform="translate(33.356981,3.2)"
     id="g124">
    <rect
       x="-0.0605"
       y="-0.66289997"
       width="0.1211"
       height="2.4084001"
       ry="0.039999999"
       fill="currentColor"
       id="rect122" />
  </g>
  <a
     style="color:inherit"
     xlink:href="textedit:///Users/tomsegarra/Downloads/dummies/lilypond_files/6c93ef16f31e1a9091cee64f38c385ae.ly:22:27:35"
     id="a130"
     transform="translate(-2.2775191,-3.2762)">
    <g
       transform="translate(37.8506,6.0762)"
       id="g128">
      <path
         transform="scale(0.0032,-0.0032)"
         d="m 212,138 c 68,0 113,-38 113,-95 0,-90 -109,-181 -212,-181 -68,0 -113,38 -113,95 0,90 109,181 212,181 z"
         fill="currentColor"
         id="path126" />
    </g>
  </a>
  <a
     style="color:inherit"
     xlink:href="textedit:///Users/tomsegarra/Downloads/dummies/lilypond_files/6c93ef16f31e1a9091cee64f38c385ae.ly:25:42:43"
     id="a138"
     transform="translate(-2.2775191,-3.2762)">
    <g
       transform="translate(37.5344,11.9762)"
       id="g136">
      <text
         font-family="serif"
         font-size="1.9756px"
         text-anchor="start"
         fill="currentColor"
         id="text134"><tspan
           id="tspan132">se</tspan></text>
    </g>
  </a>
  <g
     transform="translate(35.633581,3.2)"
     id="g142">
    <rect
       x="-0.0605"
       y="-0.26289999"
       width="0.1211"
       height="2.6629"
       ry="0.039999999"
       fill="currentColor"
       id="rect140" />
  </g>
  <a
     style="color:inherit"
     xlink:href="textedit:///Users/tomsegarra/Downloads/dummies/lilypond_files/6c93ef16f31e1a9091cee64f38c385ae.ly:25:25:26"
     id="a148"
     transform="translate(-2.2775191,-3.2762)">
    <g
       transform="translate(30.5048,11.9762)"
       id="g146">
      <rect
         x="0"
         y="-0.54110003"
         width="0.30000001"
         height="0.1211"
         ry="0.037300002"
         fill="currentColor"
         id="rect144" />
    </g>
  </a>
  <a
     style="color:inherit"
     xlink:href="textedit:///Users/tomsegarra/Downloads/dummies/lilypond_files/6c93ef16f31e1a9091cee64f38c385ae.ly:22:32:40"
     id="a154"
     transform="translate(-2.2775191,-3.2762)">
    <g
       transform="translate(41.1973,6.8762)"
       id="g152">
      <path
         transform="scale(0.0032,-0.0032)"
         d="m 212,138 c 68,0 113,-38 113,-95 0,-90 -109,-181 -212,-181 -68,0 -113,38 -113,95 0,90 109,181 212,181 z"
         fill="currentColor"
         id="path150" />
    </g>
  </a>
  <a
     style="color:inherit"
     xlink:href="textedit:///Users/tomsegarra/Downloads/dummies/lilypond_files/6c93ef16f31e1a9091cee64f38c385ae.ly:25:48:49"
     id="a162"
     transform="translate(-2.2775191,-3.2762)">
    <g
       transform="translate(40.2325,11.9762)"
       id="g160">
      <text
         font-family="serif"
         font-size="1.9756px"
         text-anchor="start"
         fill="currentColor"
         id="text158"><tspan
           id="tspan156">cret</tspan></text>
    </g>
  </a>
  <g
     transform="translate(39.899981,3.2)"
     id="g166">
    <rect
       x="-0.0605"
       y="-2.4000001"
       width="0.1211"
       height="2.6629"
       ry="0.039999999"
       fill="currentColor"
       id="rect164" />
  </g>
  <a
     style="color:inherit"
     xlink:href="textedit:///Users/tomsegarra/Downloads/dummies/lilypond_files/6c93ef16f31e1a9091cee64f38c385ae.ly:25:35:36"
     id="a172"
     transform="translate(-2.2775191,-3.2762)">
    <g
       transform="translate(34.7386,11.9762)"
       id="g170">
      <rect
         x="0"
         y="-0.54110003"
         width="0.30000001"
         height="0.1211"
         ry="0.037300002"
         fill="currentColor"
         id="rect168" />
    </g>
  </a>
  <a
     style="color:inherit"
     xlink:href="textedit:///Users/tomsegarra/Downloads/dummies/lilypond_files/6c93ef16f31e1a9091cee64f38c385ae.ly:22:6:14"
     id="a178"
     transform="translate(-2.2775191,-3.2762)">
    <g
       transform="translate(17.1532,5.6762)"
       id="g176">
      <path
         transform="scale(0.0032,-0.0032)"
         d="m 212,138 c 68,0 113,-38 113,-95 0,-90 -109,-181 -212,-181 -68,0 -113,38 -113,95 0,90 109,181 212,181 z"
         fill="currentColor"
         id="path174" />
    </g>
  </a>
  <a
     style="color:inherit"
     xlink:href="textedit:///Users/tomsegarra/Downloads/dummies/lilypond_files/6c93ef16f31e1a9091cee64f38c385ae.ly:25:9:10"
     id="a186"
     transform="translate(-2.2775191,-3.2762)">
    <g
       transform="translate(15.7957,11.9762)"
       id="g184">
      <text
         font-family="serif"
         font-size="1.9756px"
         text-anchor="start"
         fill="currentColor"
         id="text182"><tspan
           id="tspan180">keep</tspan></text>
    </g>
  </a>
  <g
     transform="translate(14.936281,3.2)"
     id="g190">
    <rect
       x="-0.0605"
       y="-0.66289997"
       width="0.1211"
       height="2.6629"
       ry="0.039999999"
       fill="currentColor"
       id="rect188" />
  </g>
  <a
     style="color:inherit"
     xlink:href="textedit:///Users/tomsegarra/Downloads/dummies/lilypond_files/6c93ef16f31e1a9091cee64f38c385ae.ly:25:45:46"
     id="a196"
     transform="translate(-2.2775191,-3.2762)">
    <g
       transform="translate(39.3899,11.9762)"
       id="g194">
      <rect
         x="0"
         y="-0.54110003"
         width="0.66000003"
         height="0.1211"
         ry="0.037300002"
         fill="currentColor"
         id="rect192" />
    </g>
  </a>
  <a
     style="color:inherit"
     xlink:href="textedit:///Users/tomsegarra/Downloads/dummies/lilypond_files/6c93ef16f31e1a9091cee64f38c385ae.ly:22:8:16"
     id="a202"
     transform="translate(-2.2775191,-3.2762)">
    <g
       transform="translate(20.9663,6.0762)"
       id="g200">
      <path
         transform="scale(0.0032,-0.0032)"
         d="m 212,138 c 68,0 113,-38 113,-95 0,-90 -109,-181 -212,-181 -68,0 -113,38 -113,95 0,90 109,181 212,181 z"
         fill="currentColor"
         id="path198" />
    </g>
  </a>
  <a
     style="color:inherit"
     xlink:href="textedit:///Users/tomsegarra/Downloads/dummies/lilypond_files/6c93ef16f31e1a9091cee64f38c385ae.ly:25:14:15"
     id="a210"
     transform="translate(-2.2775191,-3.2762)">
    <g
       transform="translate(20.0014,11.9762)"
       id="g208">
      <text
         font-family="serif"
         font-size="1.9756px"
         text-anchor="start"
         fill="currentColor"
         id="text206"><tspan
           id="tspan204">you</tspan></text>
    </g>
  </a>
  <g
     transform="translate(18.749381,3.2)"
     id="g214">
    <rect
       x="-0.0605"
       y="-0.26289999"
       width="0.1211"
       height="2.6629"
       ry="0.039999999"
       fill="currentColor"
       id="rect212" />
  </g>
  <g
     transform="translate(26.574381,4.9454)"
     id="g218">
    <polygon
       stroke-linejoin="round"
       stroke-linecap="round"
       stroke-width="0.08"
       fill="currentColor"
       stroke="currentColor"
       points="0.04,0.152 0.04,-0.152 6.8031,-0.152 6.8031,0.152 "
       id="polygon216" />
  </g>
  <a
     style="color:inherit"
     xlink:href="textedit:///Users/tomsegarra/Downloads/dummies/lilypond_files/6c93ef16f31e1a9091cee64f38c385ae.ly:22:12:20"
     id="a224"
     transform="translate(-2.2775191,-3.2762)">
    <g
       transform="translate(24.407,5.6762)"
       id="g222">
      <path
         transform="scale(0.0032,-0.0032)"
         d="m 212,138 c 68,0 113,-38 113,-95 0,-90 -109,-181 -212,-181 -68,0 -113,38 -113,95 0,90 109,181 212,181 z"
         fill="currentColor"
         id="path220" />
    </g>
  </a>
  <a
     style="color:inherit"
     xlink:href="textedit:///Users/tomsegarra/Downloads/dummies/lilypond_files/6c93ef16f31e1a9091cee64f38c385ae.ly:25:18:19"
     id="a232"
     transform="translate(-2.2775191,-3.2762)">
    <g
       transform="translate(23.664,11.9762)"
       id="g230">
      <text
         font-family="serif"
         font-size="1.9756px"
         text-anchor="start"
         fill="currentColor"
         id="text228"><tspan
           id="tspan226">my</tspan></text>
    </g>
  </a>
  <g
     transform="translate(22.189981,3.2)"
     id="g236">
    <rect
       x="-0.0605"
       y="-0.66289997"
       width="0.1211"
       height="2.6629"
       ry="0.039999999"
       fill="currentColor"
       id="rect234" />
  </g>
  <a
     style="color:inherit"
     xlink:href="textedit:///Users/tomsegarra/Downloads/dummies/lilypond_files/6c93ef16f31e1a9091cee64f38c385ae.ly:22:14:22"
     id="a242"
     transform="translate(-2.2775191,-3.2762)">
    <g
       transform="translate(28.8519,6.0762)"
       id="g240">
      <path
         transform="scale(0.0032,-0.0032)"
         d="m 212,138 c 68,0 113,-38 113,-95 0,-90 -109,-181 -212,-181 -68,0 -113,38 -113,95 0,90 109,181 212,181 z"
         fill="currentColor"
         id="path238" />
    </g>
  </a>
  <a
     style="color:inherit"
     xlink:href="textedit:///Users/tomsegarra/Downloads/dummies/lilypond_files/6c93ef16f31e1a9091cee64f38c385ae.ly:25:21:22"
     id="a250"
     transform="translate(-2.2775191,-3.2762)">
    <g
       transform="translate(28.2797,11.9762)"
       id="g248">
      <text
         font-family="serif"
         font-size="1.9756px"
         text-anchor="start"
         fill="currentColor"
         id="text246"><tspan
           id="tspan244">dir</tspan></text>
    </g>
  </a>
  <g
     transform="translate(26.634981,3.2)"
     id="g254">
    <rect
       x="-0.0605"
       y="-0.26289999"
       width="0.1211"
       height="2.0084"
       ry="0.039999999"
       fill="currentColor"
       id="rect252" />
  </g>
</svg>
