<?xml version="1.0" encoding="UTF-8" standalone="no"?>
<svg
   version="1.2"
   width="117.68937mm"
   height="16.037766mm"
   viewBox="0 0 66.97142 9.1263742"
   id="svg358"
   sodipodi:docname="728148b2b7f4b61abeb65cc19fd3d90f.svg"
   xmlns:inkscape="http://www.inkscape.org/namespaces/inkscape"
   xmlns:sodipodi="http://sodipodi.sourceforge.net/DTD/sodipodi-0.dtd"
   xmlns:xlink="http://www.w3.org/1999/xlink"
   xmlns="http://www.w3.org/2000/svg"
   xmlns:svg="http://www.w3.org/2000/svg">
  <defs
     id="defs362" />
  <sodipodi:namedview
     id="namedview360"
     pagecolor="#ffffff"
     bordercolor="#000000"
     borderopacity="0.25"
     inkscape:showpageshadow="2"
     inkscape:pageopacity="0.0"
     inkscape:pagecheckerboard="0"
     inkscape:deskcolor="#d1d1d1"
     inkscape:document-units="mm" />
  <style
     type="text/css"
     id="style2"><![CDATA[
tspan { white-space: pre; }
]]></style>
  <!-- Page: 1/1 -->
  <g
     transform="translate(-2.2693499e-4,4.8)"
     id="g6">
    <line
       stroke-linejoin="round"
       stroke-linecap="round"
       stroke-width="0.0931"
       stroke="currentColor"
       x1="0.046599999"
       y1="0"
       x2="66.925102"
       y2="0"
       id="line4" />
  </g>
  <g
     transform="translate(-2.2693499e-4,4)"
     id="g10">
    <line
       stroke-linejoin="round"
       stroke-linecap="round"
       stroke-width="0.0931"
       stroke="currentColor"
       x1="0.046599999"
       y1="0"
       x2="66.925102"
       y2="0"
       id="line8" />
  </g>
  <g
     transform="translate(-2.2693499e-4,3.2)"
     id="g14">
    <line
       stroke-linejoin="round"
       stroke-linecap="round"
       stroke-width="0.0931"
       stroke="currentColor"
       x1="0.046599999"
       y1="0"
       x2="66.925102"
       y2="0"
       id="line12" />
  </g>
  <g
     transform="translate(-2.2693499e-4,2.4)"
     id="g18">
    <line
       stroke-linejoin="round"
       stroke-linecap="round"
       stroke-width="0.0931"
       stroke="currentColor"
       x1="0.046599999"
       y1="0"
       x2="66.925102"
       y2="0"
       id="line16" />
  </g>
  <g
     transform="translate(-2.2693499e-4,1.6)"
     id="g22">
    <line
       stroke-linejoin="round"
       stroke-linecap="round"
       stroke-width="0.0931"
       stroke="currentColor"
       x1="0.046599999"
       y1="0"
       x2="66.925102"
       y2="0"
       id="line20" />
  </g>
  <g
     transform="translate(25.369173,3.2)"
     id="g26">
    <rect
       x="0"
       y="-1.6"
       width="0.177"
       height="3.2"
       ry="0.0000"
       fill="currentColor"
       id="rect24" />
  </g>
  <g
     transform="translate(66.794573,3.2)"
     id="g30">
    <rect
       x="0"
       y="-1.6"
       width="0.177"
       height="3.2"
       ry="0.0000"
       fill="currentColor"
       id="rect28" />
  </g>
  <g
     transform="translate(50.604873,3.2)"
     id="g34">
    <rect
       x="0"
       y="-1.6"
       width="0.177"
       height="3.2"
       ry="0.0000"
       fill="currentColor"
       id="rect32" />
  </g>
  <g
     transform="translate(42.527973,3.2)"
     id="g38">
    <rect
       x="0"
       y="-1.6"
       width="0.177"
       height="3.2"
       ry="0.0000"
       fill="currentColor"
       id="rect36" />
  </g>
  <a
     style="color:inherit"
     xlink:href="textedit:///Users/tomsegarra/Documents/dev/dummies/lilypond_files/728148b2b7f4b61abeb65cc19fd3d90f.ly:22:25:33"
     id="a44"
     transform="translate(-2.2764269,-3.2762)">
    <g
       transform="translate(35.5739,5.6762)"
       id="g42">
      <path
         transform="scale(0.0032,-0.0032)"
         d="m 212,138 c 68,0 113,-38 113,-95 0,-90 -109,-181 -212,-181 -68,0 -113,38 -113,95 0,90 109,181 212,181 z"
         fill="currentColor"
         id="path40" />
    </g>
  </a>
  <a
     style="color:inherit"
     xlink:href="textedit:///Users/tomsegarra/Documents/dev/dummies/lilypond_files/728148b2b7f4b61abeb65cc19fd3d90f.ly:22:1:9"
     id="a50"
     transform="translate(-2.2764269,-3.2762)">
    <g
       transform="translate(13.7126,5.2762)"
       id="g48">
      <path
         transform="scale(0.0032,-0.0032)"
         d="m 212,138 c 68,0 113,-38 113,-95 0,-90 -109,-181 -212,-181 -68,0 -113,38 -113,95 0,90 109,181 212,181 z"
         fill="currentColor"
         id="path46" />
    </g>
  </a>
  <g
     transform="translate(0.79977307,4)"
     id="g54">
    <path
       transform="scale(0.0032,-0.0032)"
       d="m 647,2 c 0,-114 -75,-214 -180,-248 3,-33 4,-66 4,-99 0,-21 0,-41 -1,-62 -7,-122 -92,-229 -211,-229 -108,0 -196,88 -196,197 0,58 54,103 113,103 54,0 95,-47 95,-103 0,-52 -43,-95 -95,-95 -9,0 -18,1 -27,4 25,-37 66,-61 113,-61 93,0 156,91 162,191 1,19 2,38 2,57 0,29 -1,58 -3,87 -5,-1 -44,-8 -88,-8 -194,0 -333,181 -333,376 0,177 129,308 244,443 -34,103 -55,171 -55,347 0,114 54,221 147,288 8,6 18,5 25,-1 68,-79 135,-242 135,-356 0,-142 -84,-255 -176,-364 21,-68 40,-136 57,-205 1,0 5,1 10,1 C 546,265 647,136 647,2 Z M 463,-201 c 64,24 110,88 110,161 0,88 -64,175 -167,188 28,-133 49,-269 57,-349 z M 77,25 c 0,-144 141,-243 261,-243 1,0 46,-1 81,5 -7,66 -27,208 -60,362 -79,-8 -124,-60 -124,-118 0,-43 25,-88 80,-120 5,-5 7,-11 7,-17 0,-12 -10,-23 -23,-23 -16,0 -128,62 -128,188 0,89 60,177 163,200 -14,57 -30,113 -47,169 C 182,306 77,185 77,25 Z M 403,1038 C 304,992 242,893 242,784 c 0,-39 10,-95 39,-188 78,97 142,199 142,324 0,33 0,61 -20,118 z"
       fill="currentColor"
       id="path52" />
  </g>
  <a
     style="color:inherit"
     xlink:href="textedit:///Users/tomsegarra/Documents/dev/dummies/lilypond_files/728148b2b7f4b61abeb65cc19fd3d90f.ly:21:1:9"
     id="a68"
     transform="translate(-2.2764269,-3.2762)">
    <g
       transform="translate(6.5762,4.8762)"
       id="g58">
      <path
         transform="scale(0.0032,-0.0032)"
         d="m 198,-329 c -12,0 -21,9 -21,21 v 138 l -79,-30 v -154 c 0,-12 -9,-21 -21,-21 -12,0 -21,9 -21,21 v 138 l -22,-8 c -3,-1 -6,-2 -9,-2 -13,0 -25,11 -25,25 v 54 c 0,10 6,20 16,24 l 40,15 V 47 L 34,38 C 31,37 28,37 25,37 12,37 0,48 0,62 v 54 c 0,10 6,19 16,23 l 40,15 v 154 c 0,12 9,21 21,21 12,0 21,-9 21,-21 V 170 l 79,30 v 154 c 0,12 9,21 21,21 12,0 21,-9 21,-21 V 216 l 22,8 c 3,1 6,2 9,2 13,0 25,-11 25,-25 v -54 c 0,-10 -6,-20 -16,-24 L 219,108 V -47 l 22,9 c 3,1 6,1 9,1 13,0 25,-11 25,-25 v -54 c 0,-10 -6,-19 -16,-23 l -40,-15 v -154 c 0,-12 -9,-21 -21,-21 z M 98,62 V -92 l 79,30 V 92 Z"
         fill="currentColor"
         id="path56" />
    </g>
    <g
       transform="translate(7.4562,6.0762)"
       id="g62">
      <path
         transform="scale(0.0032,-0.0032)"
         d="m 198,-329 c -12,0 -21,9 -21,21 v 138 l -79,-30 v -154 c 0,-12 -9,-21 -21,-21 -12,0 -21,9 -21,21 v 138 l -22,-8 c -3,-1 -6,-2 -9,-2 -13,0 -25,11 -25,25 v 54 c 0,10 6,20 16,24 l 40,15 V 47 L 34,38 C 31,37 28,37 25,37 12,37 0,48 0,62 v 54 c 0,10 6,19 16,23 l 40,15 v 154 c 0,12 9,21 21,21 12,0 21,-9 21,-21 V 170 l 79,30 v 154 c 0,12 9,21 21,21 12,0 21,-9 21,-21 V 216 l 22,8 c 3,1 6,2 9,2 13,0 25,-11 25,-25 v -54 c 0,-10 -6,-20 -16,-24 L 219,108 V -47 l 22,9 c 3,1 6,1 9,1 13,0 25,-11 25,-25 v -54 c 0,-10 -6,-19 -16,-23 l -40,-15 v -154 c 0,-12 -9,-21 -21,-21 z M 98,62 V -92 l 79,30 V 92 Z"
         fill="currentColor"
         id="path60" />
    </g>
    <g
       transform="translate(8.3362,4.4762)"
       id="g66">
      <path
         transform="scale(0.0032,-0.0032)"
         d="m 198,-329 c -12,0 -21,9 -21,21 v 138 l -79,-30 v -154 c 0,-12 -9,-21 -21,-21 -12,0 -21,9 -21,21 v 138 l -22,-8 c -3,-1 -6,-2 -9,-2 -13,0 -25,11 -25,25 v 54 c 0,10 6,20 16,24 l 40,15 V 47 L 34,38 C 31,37 28,37 25,37 12,37 0,48 0,62 v 54 c 0,10 6,19 16,23 l 40,15 v 154 c 0,12 9,21 21,21 12,0 21,-9 21,-21 V 170 l 79,30 v 154 c 0,12 9,21 21,21 12,0 21,-9 21,-21 V 216 l 22,8 c 3,1 6,2 9,2 13,0 25,-11 25,-25 v -54 c 0,-10 -6,-20 -16,-24 L 219,108 V -47 l 22,9 c 3,1 6,1 9,1 13,0 25,-11 25,-25 v -54 c 0,-10 -6,-19 -16,-23 l -40,-15 v -154 c 0,-12 -9,-21 -21,-21 z M 98,62 V -92 l 79,30 V 92 Z"
         fill="currentColor"
         id="path64" />
    </g>
  </a>
  <g
     transform="translate(8.0897731,3.2)"
     id="g72">
    <path
       transform="scale(0.0032,-0.0032)"
       d="m 250,265 c 114,0 172,-112 172,-166 0,-38 -30,-69 -66,-69 -30,0 -72,23 -72,72 0,37 26,75 70,75 3,0 6,-1 9,-1 -26,36 -67,59 -113,59 -107,0 -113,-74 -113,-189 0,-15 1,-30 1,-46 0,-16 -1,-31 -1,-46 0,-115 6,-189 113,-189 78,0 133,70 151,149 2,8 8,11 14,11 7,0 15,-5 15,-14 0,-21 -49,-176 -180,-176 C 105,-265 0,-177 0,0 0,63 18,265 250,265 Z"
       fill="currentColor"
       id="path70" />
  </g>
  <a
     style="color:inherit"
     xlink:href="textedit:///Users/tomsegarra/Documents/dev/dummies/lilypond_files/728148b2b7f4b61abeb65cc19fd3d90f.ly:25:4:5"
     id="a80"
     transform="translate(-2.2764269,-3.2762)">
    <g
       transform="translate(13.1915,11.9762)"
       id="g78">
      <text
         font-family="serif"
         font-size="1.9756px"
         text-anchor="start"
         fill="currentColor"
         id="text76"><tspan
           id="tspan74">I'll</tspan></text>
    </g>
  </a>
  <g
     transform="translate(11.496673,3.2)"
     id="g84">
    <rect
       x="-0.0605"
       y="-1.0628999"
       width="0.1211"
       height="2.6629"
       ry="0.039999999"
       fill="currentColor"
       id="rect82" />
  </g>
  <a
     style="color:inherit"
     xlink:href="textedit:///Users/tomsegarra/Documents/dev/dummies/lilypond_files/728148b2b7f4b61abeb65cc19fd3d90f.ly:22:21:29"
     id="a90"
     transform="translate(-2.2764269,-3.2762)">
    <g
       transform="translate(33.3332,6.0762)"
       id="g88">
      <path
         transform="scale(0.0032,-0.0032)"
         d="m 212,138 c 68,0 113,-38 113,-95 0,-90 -109,-181 -212,-181 -68,0 -113,38 -113,95 0,90 109,181 212,181 z"
         fill="currentColor"
         id="path86" />
    </g>
  </a>
  <a
     style="color:inherit"
     xlink:href="textedit:///Users/tomsegarra/Documents/dev/dummies/lilypond_files/728148b2b7f4b61abeb65cc19fd3d90f.ly:25:31:32"
     id="a98"
     transform="translate(-2.2764269,-3.2762)">
    <g
       transform="translate(33.0341,11.9762)"
       id="g96">
      <text
         font-family="serif"
         font-size="1.9756px"
         text-anchor="start"
         fill="currentColor"
         id="text94"><tspan
           id="tspan92">lit</tspan></text>
    </g>
  </a>
  <g
     transform="translate(31.117373,3.2)"
     id="g102">
    <rect
       x="-0.0605"
       y="-0.26289999"
       width="0.1211"
       height="2.0084"
       ry="0.039999999"
       fill="currentColor"
       id="rect100" />
  </g>
  <a
     style="color:inherit"
     xlink:href="textedit:///Users/tomsegarra/Documents/dev/dummies/lilypond_files/728148b2b7f4b61abeb65cc19fd3d90f.ly:25:38:39"
     id="a110"
     transform="translate(-2.2764269,-3.2762)">
    <g
       transform="translate(35.1041,11.9762)"
       id="g108">
      <text
         font-family="serif"
         font-size="1.9756px"
         text-anchor="start"
         fill="currentColor"
         id="text106"><tspan
           id="tspan104">tle</tspan></text>
    </g>
  </a>
  <g
     transform="translate(33.358073,3.2)"
     id="g114">
    <rect
       x="-0.0605"
       y="-0.66289997"
       width="0.1211"
       height="2.4084001"
       ry="0.039999999"
       fill="currentColor"
       id="rect112" />
  </g>
  <a
     style="color:inherit"
     xlink:href="textedit:///Users/tomsegarra/Documents/dev/dummies/lilypond_files/728148b2b7f4b61abeb65cc19fd3d90f.ly:25:25:26"
     id="a120"
     transform="translate(-2.2764269,-3.2762)">
    <g
       transform="translate(30.5048,11.9762)"
       id="g118">
      <rect
         x="0"
         y="-0.54110003"
         width="0.30000001"
         height="0.1211"
         ry="0.037300002"
         fill="currentColor"
         id="rect116" />
    </g>
  </a>
  <a
     style="color:inherit"
     xlink:href="textedit:///Users/tomsegarra/Documents/dev/dummies/lilypond_files/728148b2b7f4b61abeb65cc19fd3d90f.ly:22:27:35"
     id="a126"
     transform="translate(-2.2764269,-3.2762)">
    <g
       transform="translate(37.8506,6.0762)"
       id="g124">
      <path
         transform="scale(0.0032,-0.0032)"
         d="m 212,138 c 68,0 113,-38 113,-95 0,-90 -109,-181 -212,-181 -68,0 -113,38 -113,95 0,90 109,181 212,181 z"
         fill="currentColor"
         id="path122" />
    </g>
  </a>
  <a
     style="color:inherit"
     xlink:href="textedit:///Users/tomsegarra/Documents/dev/dummies/lilypond_files/728148b2b7f4b61abeb65cc19fd3d90f.ly:25:42:43"
     id="a134"
     transform="translate(-2.2764269,-3.2762)">
    <g
       transform="translate(37.5344,11.9762)"
       id="g132">
      <text
         font-family="serif"
         font-size="1.9756px"
         text-anchor="start"
         fill="currentColor"
         id="text130"><tspan
           id="tspan128">se</tspan></text>
    </g>
  </a>
  <g
     transform="translate(35.634673,3.2)"
     id="g138">
    <rect
       x="-0.0605"
       y="-0.26289999"
       width="0.1211"
       height="2.6629"
       ry="0.039999999"
       fill="currentColor"
       id="rect136" />
  </g>
  <a
     style="color:inherit"
     xlink:href="textedit:///Users/tomsegarra/Documents/dev/dummies/lilypond_files/728148b2b7f4b61abeb65cc19fd3d90f.ly:22:32:40"
     id="a144"
     transform="translate(-2.2764269,-3.2762)">
    <g
       transform="translate(41.1973,6.8762)"
       id="g142">
      <path
         transform="scale(0.0032,-0.0032)"
         d="m 212,138 c 68,0 113,-38 113,-95 0,-90 -109,-181 -212,-181 -68,0 -113,38 -113,95 0,90 109,181 212,181 z"
         fill="currentColor"
         id="path140" />
    </g>
  </a>
  <a
     style="color:inherit"
     xlink:href="textedit:///Users/tomsegarra/Documents/dev/dummies/lilypond_files/728148b2b7f4b61abeb65cc19fd3d90f.ly:25:48:49"
     id="a152"
     transform="translate(-2.2764269,-3.2762)">
    <g
       transform="translate(40.2325,11.9762)"
       id="g150">
      <text
         font-family="serif"
         font-size="1.9756px"
         text-anchor="start"
         fill="currentColor"
         id="text148"><tspan
           id="tspan146">cret</tspan></text>
    </g>
  </a>
  <g
     transform="translate(39.901073,3.2)"
     id="g156">
    <rect
       x="-0.0605"
       y="-2.4000001"
       width="0.1211"
       height="2.6629"
       ry="0.039999999"
       fill="currentColor"
       id="rect154" />
  </g>
  <a
     style="color:inherit"
     xlink:href="textedit:///Users/tomsegarra/Documents/dev/dummies/lilypond_files/728148b2b7f4b61abeb65cc19fd3d90f.ly:25:35:36"
     id="a162"
     transform="translate(-2.2764269,-3.2762)">
    <g
       transform="translate(34.7386,11.9762)"
       id="g160">
      <rect
         x="0"
         y="-0.54110003"
         width="0.30000001"
         height="0.1211"
         ry="0.037300002"
         fill="currentColor"
         id="rect158" />
    </g>
  </a>
  <a
     style="color:inherit"
     xlink:href="textedit:///Users/tomsegarra/Documents/dev/dummies/lilypond_files/728148b2b7f4b61abeb65cc19fd3d90f.ly:22:34:42"
     id="a168"
     transform="translate(-2.2764269,-3.2762)">
    <g
       transform="translate(46.8813,5.6762)"
       id="g166">
      <path
         transform="scale(0.0032,-0.0032)"
         d="M 362,-156 H 13 c -7,0 -13,5 -13,12 V -13 C 0,-6 6,0 13,0 h 349 c 7,0 13,-6 13,-13 v -131 c 0,-7 -6,-12 -13,-12 z"
         fill="currentColor"
         id="path164" />
    </g>
  </a>
  <a
     style="color:inherit"
     xlink:href="textedit:///Users/tomsegarra/Documents/dev/dummies/lilypond_files/728148b2b7f4b61abeb65cc19fd3d90f.ly:25:45:46"
     id="a174"
     transform="translate(-2.2764269,-3.2762)">
    <g
       transform="translate(39.3899,11.9762)"
       id="g172">
      <rect
         x="0"
         y="-0.54110003"
         width="0.66000003"
         height="0.1211"
         ry="0.037300002"
         fill="currentColor"
         id="rect170" />
    </g>
  </a>
  <g
     transform="translate(26.575473,4.9454)"
     id="g178">
    <polygon
       stroke-linejoin="round"
       stroke-linecap="round"
       stroke-width="0.08"
       fill="currentColor"
       stroke="currentColor"
       points="0.04,0.152 0.04,-0.152 6.8031,-0.152 6.8031,0.152 "
       id="polygon176" />
  </g>
  <a
     style="color:inherit"
     xlink:href="textedit:///Users/tomsegarra/Documents/dev/dummies/lilypond_files/728148b2b7f4b61abeb65cc19fd3d90f.ly:22:37:45"
     id="a184"
     transform="translate(-2.2764269,-3.2762)">
    <g
       transform="translate(53.9583,6.4762)"
       id="g182">
      <path
         transform="scale(0.0032,-0.0032)"
         d="m -9,78 c 0,59 124,84 124,182 0,25 -9,50 -26,70 l -31,37 c -3,4 -4,8 -4,12 0,10 9,18 19,18 5,0 9,-1 13,-6 L 235,213 c 7,-9 11,-17 11,-26 0,-59 -124,-84 -124,-182 0,-25 9,-51 26,-71 l 79,-94 c 3,-4 4,-8 4,-12 0,-10 -9,-18 -19,-18 -11,0 -38,40 -102,40 -23,0 -55,-4 -55,-65 0,-33 11,-73 27,-92 8,-9 -6,-20 -14,-11 -44,53 -92,145 -92,199 0,41 26,43 46,43 30,0 69,-9 106,-23 L 2,52 C -5,61 -9,69 -9,78 Z"
         fill="currentColor"
         id="path180" />
    </g>
  </a>
  <a
     style="color:inherit"
     xlink:href="textedit:///Users/tomsegarra/Documents/dev/dummies/lilypond_files/728148b2b7f4b61abeb65cc19fd3d90f.ly:22:40:48"
     id="a190"
     transform="translate(-2.2764269,-3.2762)">
    <g
       transform="translate(57.1183,6.0762)"
       id="g188">
      <path
         transform="scale(0.0032,-0.0032)"
         d="m 212,138 c 68,0 113,-38 113,-95 0,-90 -109,-181 -212,-181 -68,0 -113,38 -113,95 0,90 109,181 212,181 z"
         fill="currentColor"
         id="path186" />
    </g>
  </a>
  <a
     style="color:inherit"
     xlink:href="textedit:///Users/tomsegarra/Documents/dev/dummies/lilypond_files/728148b2b7f4b61abeb65cc19fd3d90f.ly:25:53:54"
     id="a198"
     transform="translate(-2.2764269,-3.2762)">
    <g
       transform="translate(55.4876,11.9762)"
       id="g196">
      <text
         font-family="serif"
         font-size="1.9756px"
         text-anchor="start"
         fill="currentColor"
         id="text194"><tspan
           id="tspan192">Don't</tspan></text>
    </g>
  </a>
  <g
     transform="translate(54.902373,3.2)"
     id="g202">
    <rect
       x="-0.0605"
       y="-0.26289999"
       width="0.1211"
       height="2.6629"
       ry="0.039999999"
       fill="currentColor"
       id="rect200" />
  </g>
  <a
     style="color:inherit"
     xlink:href="textedit:///Users/tomsegarra/Documents/dev/dummies/lilypond_files/728148b2b7f4b61abeb65cc19fd3d90f.ly:22:45:53"
     id="a208"
     transform="translate(-2.2764269,-3.2762)">
    <g
       transform="translate(60.9826,6.4762)"
       id="g206">
      <path
         transform="scale(0.0032,-0.0032)"
         d="m 212,138 c 68,0 113,-38 113,-95 0,-90 -109,-181 -212,-181 -68,0 -113,38 -113,95 0,90 109,181 212,181 z"
         fill="currentColor"
         id="path204" />
    </g>
  </a>
  <a
     style="color:inherit"
     xlink:href="textedit:///Users/tomsegarra/Documents/dev/dummies/lilypond_files/728148b2b7f4b61abeb65cc19fd3d90f.ly:25:59:60"
     id="a216"
     transform="translate(-2.2764269,-3.2762)">
    <g
       transform="translate(60.2397,11.9762)"
       id="g214">
      <text
         font-family="serif"
         font-size="1.9756px"
         text-anchor="start"
         fill="currentColor"
         id="text212"><tspan
           id="tspan210">tell</tspan></text>
    </g>
  </a>
  <g
     transform="translate(59.686373,3.2)"
     id="g220">
    <rect
       x="-0.0605"
       y="-2.5380001"
       width="0.1211"
       height="2.4008999"
       ry="0.039999999"
       fill="currentColor"
       id="rect218" />
  </g>
  <a
     style="color:inherit"
     xlink:href="textedit:///Users/tomsegarra/Documents/dev/dummies/lilypond_files/728148b2b7f4b61abeb65cc19fd3d90f.ly:22:48:56"
     id="a226"
     transform="translate(-2.2764269,-3.2762)">
    <g
       transform="translate(63.2233,6.8762)"
       id="g224">
      <path
         transform="scale(0.0032,-0.0032)"
         d="m 212,138 c 68,0 113,-38 113,-95 0,-90 -109,-181 -212,-181 -68,0 -113,38 -113,95 0,90 109,181 212,181 z"
         fill="currentColor"
         id="path222" />
    </g>
  </a>
  <a
     style="color:inherit"
     xlink:href="textedit:///Users/tomsegarra/Documents/dev/dummies/lilypond_files/728148b2b7f4b61abeb65cc19fd3d90f.ly:25:64:65"
     id="a234"
     transform="translate(-2.2764269,-3.2762)">
    <g
       transform="translate(63.2998,11.9762)"
       id="g232">
      <text
         font-family="serif"
         font-size="1.9756px"
         text-anchor="start"
         fill="currentColor"
         id="text230"><tspan
           id="tspan228">a</tspan></text>
    </g>
  </a>
  <g
     transform="translate(61.926973,3.2)"
     id="g238">
    <rect
       x="-0.0605"
       y="-2.2620001"
       width="0.1211"
       height="2.5250001"
       ry="0.039999999"
       fill="currentColor"
       id="rect236" />
  </g>
  <a
     style="color:inherit"
     xlink:href="textedit:///Users/tomsegarra/Documents/dev/dummies/lilypond_files/728148b2b7f4b61abeb65cc19fd3d90f.ly:25:66:67"
     id="a244"
     transform="translate(-2.2764269,-3.2762)">
    <g
       transform="translate(64.2608,11.9762)"
       id="g242">
      <rect
         x="0"
         y="-0.54110003"
         width="0.66000003"
         height="0.1211"
         ry="0.037300002"
         fill="currentColor"
         id="rect240" />
    </g>
  </a>
  <a
     style="color:inherit"
     xlink:href="textedit:///Users/tomsegarra/Documents/dev/dummies/lilypond_files/728148b2b7f4b61abeb65cc19fd3d90f.ly:22:50:58"
     id="a250"
     transform="translate(-2.2764269,-3.2762)">
    <g
       transform="translate(65.464,6.8762)"
       id="g248">
      <path
         transform="scale(0.0032,-0.0032)"
         d="m 212,138 c 68,0 113,-38 113,-95 0,-90 -109,-181 -212,-181 -68,0 -113,38 -113,95 0,90 109,181 212,181 z"
         fill="currentColor"
         id="path246" />
    </g>
  </a>
  <a
     style="color:inherit"
     xlink:href="textedit:///Users/tomsegarra/Documents/dev/dummies/lilypond_files/728148b2b7f4b61abeb65cc19fd3d90f.ly:25:69:70"
     id="a258"
     transform="translate(-2.2764269,-3.2762)">
    <g
       transform="translate(64.9941,11.9762)"
       id="g256">
      <text
         font-family="serif"
         font-size="1.9756px"
         text-anchor="start"
         fill="currentColor"
         id="text254"><tspan
           id="tspan252">ny</tspan></text>
    </g>
  </a>
  <g
     transform="translate(64.167673,3.2)"
     id="g262">
    <rect
       x="-0.0605"
       y="-2.4000001"
       width="0.1211"
       height="2.6629"
       ry="0.039999999"
       fill="currentColor"
       id="rect260" />
  </g>
  <g
     transform="translate(59.625773,0.6546)"
     id="g266">
    <polygon
       stroke-linejoin="round"
       stroke-linecap="round"
       stroke-width="0.08"
       fill="currentColor"
       stroke="currentColor"
       points="0.04,0.152 0.04,-0.152 2.3218,0.1389 2.3218,0.4429 "
       id="polygon264" />
  </g>
  <a
     style="color:inherit"
     xlink:href="textedit:///Users/tomsegarra/Documents/dev/dummies/lilypond_files/728148b2b7f4b61abeb65cc19fd3d90f.ly:22:6:14"
     id="a272"
     transform="translate(-2.2764269,-3.2762)">
    <g
       transform="translate(17.1532,5.6762)"
       id="g270">
      <path
         transform="scale(0.0032,-0.0032)"
         d="m 212,138 c 68,0 113,-38 113,-95 0,-90 -109,-181 -212,-181 -68,0 -113,38 -113,95 0,90 109,181 212,181 z"
         fill="currentColor"
         id="path268" />
    </g>
  </a>
  <a
     style="color:inherit"
     xlink:href="textedit:///Users/tomsegarra/Documents/dev/dummies/lilypond_files/728148b2b7f4b61abeb65cc19fd3d90f.ly:25:9:10"
     id="a280"
     transform="translate(-2.2764269,-3.2762)">
    <g
       transform="translate(15.7957,11.9762)"
       id="g278">
      <text
         font-family="serif"
         font-size="1.9756px"
         text-anchor="start"
         fill="currentColor"
         id="text276"><tspan
           id="tspan274">keep</tspan></text>
    </g>
  </a>
  <g
     transform="translate(14.937373,3.2)"
     id="g284">
    <rect
       x="-0.0605"
       y="-0.66289997"
       width="0.1211"
       height="2.6629"
       ry="0.039999999"
       fill="currentColor"
       id="rect282" />
  </g>
  <a
     style="color:inherit"
     xlink:href="textedit:///Users/tomsegarra/Documents/dev/dummies/lilypond_files/728148b2b7f4b61abeb65cc19fd3d90f.ly:22:8:16"
     id="a290"
     transform="translate(-2.2764269,-3.2762)">
    <g
       transform="translate(20.9663,6.0762)"
       id="g288">
      <path
         transform="scale(0.0032,-0.0032)"
         d="m 212,138 c 68,0 113,-38 113,-95 0,-90 -109,-181 -212,-181 -68,0 -113,38 -113,95 0,90 109,181 212,181 z"
         fill="currentColor"
         id="path286" />
    </g>
  </a>
  <a
     style="color:inherit"
     xlink:href="textedit:///Users/tomsegarra/Documents/dev/dummies/lilypond_files/728148b2b7f4b61abeb65cc19fd3d90f.ly:25:14:15"
     id="a298"
     transform="translate(-2.2764269,-3.2762)">
    <g
       transform="translate(20.0014,11.9762)"
       id="g296">
      <text
         font-family="serif"
         font-size="1.9756px"
         text-anchor="start"
         fill="currentColor"
         id="text294"><tspan
           id="tspan292">you</tspan></text>
    </g>
  </a>
  <g
     transform="translate(18.750473,3.2)"
     id="g302">
    <rect
       x="-0.0605"
       y="-0.26289999"
       width="0.1211"
       height="2.6629"
       ry="0.039999999"
       fill="currentColor"
       id="rect300" />
  </g>
  <a
     style="color:inherit"
     xlink:href="textedit:///Users/tomsegarra/Documents/dev/dummies/lilypond_files/728148b2b7f4b61abeb65cc19fd3d90f.ly:22:12:20"
     id="a308"
     transform="translate(-2.2764269,-3.2762)">
    <g
       transform="translate(24.407,5.6762)"
       id="g306">
      <path
         transform="scale(0.0032,-0.0032)"
         d="m 212,138 c 68,0 113,-38 113,-95 0,-90 -109,-181 -212,-181 -68,0 -113,38 -113,95 0,90 109,181 212,181 z"
         fill="currentColor"
         id="path304" />
    </g>
  </a>
  <a
     style="color:inherit"
     xlink:href="textedit:///Users/tomsegarra/Documents/dev/dummies/lilypond_files/728148b2b7f4b61abeb65cc19fd3d90f.ly:25:18:19"
     id="a316"
     transform="translate(-2.2764269,-3.2762)">
    <g
       transform="translate(23.664,11.9762)"
       id="g314">
      <text
         font-family="serif"
         font-size="1.9756px"
         text-anchor="start"
         fill="currentColor"
         id="text312"><tspan
           id="tspan310">my</tspan></text>
    </g>
  </a>
  <g
     transform="translate(22.191073,3.2)"
     id="g320">
    <rect
       x="-0.0605"
       y="-0.66289997"
       width="0.1211"
       height="2.6629"
       ry="0.039999999"
       fill="currentColor"
       id="rect318" />
  </g>
  <g
     transform="translate(28.876673,3.2)"
     id="g324">
    <rect
       x="-0.0605"
       y="-0.66289997"
       width="0.1211"
       height="2.4084001"
       ry="0.039999999"
       fill="currentColor"
       id="rect322" />
  </g>
  <a
     style="color:inherit"
     xlink:href="textedit:///Users/tomsegarra/Documents/dev/dummies/lilypond_files/728148b2b7f4b61abeb65cc19fd3d90f.ly:25:28:29"
     id="a332"
     transform="translate(-2.2764269,-3.2762)">
    <g
       transform="translate(30.8447,11.9762)"
       id="g330">
      <text
         font-family="serif"
         font-size="1.9756px"
         text-anchor="start"
         fill="currentColor"
         id="text328"><tspan
           id="tspan326">ty</tspan></text>
    </g>
  </a>
  <a
     style="color:inherit"
     xlink:href="textedit:///Users/tomsegarra/Documents/dev/dummies/lilypond_files/728148b2b7f4b61abeb65cc19fd3d90f.ly:22:14:22"
     id="a338"
     transform="translate(-2.2764269,-3.2762)">
    <g
       transform="translate(28.8519,6.0762)"
       id="g336">
      <path
         transform="scale(0.0032,-0.0032)"
         d="m 212,138 c 68,0 113,-38 113,-95 0,-90 -109,-181 -212,-181 -68,0 -113,38 -113,95 0,90 109,181 212,181 z"
         fill="currentColor"
         id="path334" />
    </g>
  </a>
  <a
     style="color:inherit"
     xlink:href="textedit:///Users/tomsegarra/Documents/dev/dummies/lilypond_files/728148b2b7f4b61abeb65cc19fd3d90f.ly:25:21:22"
     id="a346"
     transform="translate(-2.2764269,-3.2762)">
    <g
       transform="translate(28.2797,11.9762)"
       id="g344">
      <text
         font-family="serif"
         font-size="1.9756px"
         text-anchor="start"
         fill="currentColor"
         id="text342"><tspan
           id="tspan340">dir</tspan></text>
    </g>
  </a>
  <g
     transform="translate(26.636073,3.2)"
     id="g350">
    <rect
       x="-0.0605"
       y="-0.26289999"
       width="0.1211"
       height="2.0084"
       ry="0.039999999"
       fill="currentColor"
       id="rect348" />
  </g>
  <a
     style="color:inherit"
     xlink:href="textedit:///Users/tomsegarra/Documents/dev/dummies/lilypond_files/728148b2b7f4b61abeb65cc19fd3d90f.ly:22:19:27"
     id="a356"
     transform="translate(-2.2764269,-3.2762)">
    <g
       transform="translate(31.0926,5.6762)"
       id="g354">
      <path
         transform="scale(0.0032,-0.0032)"
         d="m 212,138 c 68,0 113,-38 113,-95 0,-90 -109,-181 -212,-181 -68,0 -113,38 -113,95 0,90 109,181 212,181 z"
         fill="currentColor"
         id="path352" />
    </g>
  </a>
</svg>
