<?xml version="1.0" encoding="UTF-8" standalone="no"?>
<svg
   version="1.2"
   width="79.11042mm"
   height="21.676252mm"
   viewBox="0 0 45.016675 12.334985"
   id="svg328"
   sodipodi:docname="771af9d92b89696f0891b9ad70c4f229.svg"
   xmlns:inkscape="http://www.inkscape.org/namespaces/inkscape"
   xmlns:sodipodi="http://sodipodi.sourceforge.net/DTD/sodipodi-0.dtd"
   xmlns:xlink="http://www.w3.org/1999/xlink"
   xmlns="http://www.w3.org/2000/svg"
   xmlns:svg="http://www.w3.org/2000/svg">
  <defs
     id="defs332" />
  <sodipodi:namedview
     id="namedview330"
     pagecolor="#ffffff"
     bordercolor="#000000"
     borderopacity="0.25"
     inkscape:showpageshadow="2"
     inkscape:pageopacity="0.0"
     inkscape:pagecheckerboard="0"
     inkscape:deskcolor="#d1d1d1"
     inkscape:document-units="mm" />
  <style
     type="text/css"
     id="style2"><![CDATA[
tspan { white-space: pre; }
]]></style>
  <!-- Page: 1/1 -->
  <g
     transform="translate(-7.8840274e-4,5.95)"
     id="g6">
    <rect
       x="39.533901"
       y="-0.089900002"
       width="1.6611"
       height="0.17990001"
       ry="0.089900002"
       fill="currentColor"
       id="rect4" />
  </g>
  <g
     transform="translate(-7.8840274e-4,6.8)"
     id="g10">
    <rect
       x="39.533901"
       y="-0.089900002"
       width="1.6611"
       height="0.17990001"
       ry="0.089900002"
       fill="currentColor"
       id="rect8" />
  </g>
  <g
     transform="translate(-7.8840274e-4,7.65)"
     id="g14">
    <rect
       x="39.533901"
       y="-0.089900002"
       width="1.6611"
       height="0.17990001"
       ry="0.089900002"
       fill="currentColor"
       id="rect12" />
  </g>
  <g
     transform="translate(-7.8840274e-4,8.5)"
     id="g18">
    <rect
       x="39.6283"
       y="-0.089900002"
       width="1.5667"
       height="0.17990001"
       ry="0.089900002"
       fill="currentColor"
       id="rect16" />
  </g>
  <g
     transform="translate(-7.8840274e-4,5.95)"
     id="g22">
    <rect
       x="36.0266"
       y="-0.089900002"
       width="1.6611"
       height="0.17990001"
       ry="0.089900002"
       fill="currentColor"
       id="rect20" />
  </g>
  <g
     transform="translate(-7.8840274e-4,6.8)"
     id="g26">
    <rect
       x="36.0266"
       y="-0.089900002"
       width="1.6611"
       height="0.17990001"
       ry="0.089900002"
       fill="currentColor"
       id="rect24" />
  </g>
  <g
     transform="translate(-7.8840274e-4,7.65)"
     id="g30">
    <rect
       x="36.0266"
       y="-0.089900002"
       width="1.6611"
       height="0.17990001"
       ry="0.089900002"
       fill="currentColor"
       id="rect28" />
  </g>
  <g
     transform="translate(-7.8840274e-4,5.95)"
     id="g34">
    <rect
       x="32.519199"
       y="-0.089900002"
       width="1.6611"
       height="0.17990001"
       ry="0.089900002"
       fill="currentColor"
       id="rect32" />
  </g>
  <g
     transform="translate(-7.8840274e-4,6.8)"
     id="g38">
    <rect
       x="32.519199"
       y="-0.089900002"
       width="1.6611"
       height="0.17990001"
       ry="0.089900002"
       fill="currentColor"
       id="rect36" />
  </g>
  <g
     transform="translate(-7.8840274e-4,7.65)"
     id="g42">
    <rect
       x="32.519199"
       y="-0.089900002"
       width="1.6611"
       height="0.17990001"
       ry="0.089900002"
       fill="currentColor"
       id="rect40" />
  </g>
  <g
     transform="translate(-7.8840274e-4,5.95)"
     id="g46">
    <rect
       x="29.7474"
       y="-0.089900002"
       width="1.6611"
       height="0.17990001"
       ry="0.089900002"
       fill="currentColor"
       id="rect44" />
  </g>
  <g
     transform="translate(-7.8840274e-4,6.8)"
     id="g50">
    <rect
       x="29.7474"
       y="-0.089900002"
       width="1.6611"
       height="0.17990001"
       ry="0.089900002"
       fill="currentColor"
       id="rect48" />
  </g>
  <g
     transform="translate(-7.8840274e-4,7.65)"
     id="g54">
    <rect
       x="29.7474"
       y="-0.089900002"
       width="1.6611"
       height="0.17990001"
       ry="0.089900002"
       fill="currentColor"
       id="rect52" />
  </g>
  <g
     transform="translate(-7.8840274e-4,5.95)"
     id="g58">
    <rect
       x="24.1598"
       y="-0.089900002"
       width="1.6611"
       height="0.17990001"
       ry="0.089900002"
       fill="currentColor"
       id="rect56" />
  </g>
  <g
     transform="translate(-7.8840274e-4,6.8)"
     id="g62">
    <rect
       x="24.1598"
       y="-0.089900002"
       width="1.6611"
       height="0.17990001"
       ry="0.089900002"
       fill="currentColor"
       id="rect60" />
  </g>
  <g
     transform="translate(-7.8840274e-4,7.65)"
     id="g66">
    <rect
       x="24.1598"
       y="-0.089900002"
       width="1.6611"
       height="0.17990001"
       ry="0.089900002"
       fill="currentColor"
       id="rect64" />
  </g>
  <g
     transform="translate(-7.8840274e-4,5.95)"
     id="g70">
    <rect
       x="21.1406"
       y="-0.089900002"
       width="1.6611"
       height="0.17990001"
       ry="0.089900002"
       fill="currentColor"
       id="rect68" />
  </g>
  <g
     transform="translate(-7.8840274e-4,6.8)"
     id="g74">
    <rect
       x="21.1406"
       y="-0.089900002"
       width="1.6611"
       height="0.17990001"
       ry="0.089900002"
       fill="currentColor"
       id="rect72" />
  </g>
  <g
     transform="translate(-7.8840274e-4,7.65)"
     id="g78">
    <rect
       x="21.1406"
       y="-0.089900002"
       width="1.6611"
       height="0.17990001"
       ry="0.089900002"
       fill="currentColor"
       id="rect76" />
  </g>
  <g
     transform="translate(-7.8840274e-4,5.95)"
     id="g82">
    <rect
       x="17.6332"
       y="-0.089900002"
       width="1.6611"
       height="0.17990001"
       ry="0.089900002"
       fill="currentColor"
       id="rect80" />
  </g>
  <g
     transform="translate(-7.8840274e-4,6.8)"
     id="g86">
    <rect
       x="17.6332"
       y="-0.089900002"
       width="1.6611"
       height="0.17990001"
       ry="0.089900002"
       fill="currentColor"
       id="rect84" />
  </g>
  <g
     transform="translate(-7.8840274e-4,7.65)"
     id="g90">
    <rect
       x="17.6332"
       y="-0.089900002"
       width="1.6611"
       height="0.17990001"
       ry="0.089900002"
       fill="currentColor"
       id="rect88" />
  </g>
  <g
     transform="translate(-7.8840274e-4,5.95)"
     id="g94">
    <rect
       x="15.3258"
       y="-0.089900002"
       width="1.6611"
       height="0.17990001"
       ry="0.089900002"
       fill="currentColor"
       id="rect92" />
  </g>
  <g
     transform="translate(-7.8840274e-4,6.8)"
     id="g98">
    <rect
       x="15.3258"
       y="-0.089900002"
       width="1.6611"
       height="0.17990001"
       ry="0.089900002"
       fill="currentColor"
       id="rect96" />
  </g>
  <g
     transform="translate(-7.8840274e-4,5.1)"
     id="g102">
    <line
       stroke-linejoin="round"
       stroke-linecap="round"
       stroke-width="0.0949"
       stroke="currentColor"
       x1="0.047400001"
       y1="0"
       x2="44.970699"
       y2="0"
       id="line100" />
  </g>
  <g
     transform="translate(-7.8840274e-4,4.25)"
     id="g106">
    <line
       stroke-linejoin="round"
       stroke-linecap="round"
       stroke-width="0.0949"
       stroke="currentColor"
       x1="0.047400001"
       y1="0"
       x2="44.970699"
       y2="0"
       id="line104" />
  </g>
  <g
     transform="translate(-7.8840274e-4,3.4)"
     id="g110">
    <line
       stroke-linejoin="round"
       stroke-linecap="round"
       stroke-width="0.0949"
       stroke="currentColor"
       x1="0.047400001"
       y1="0"
       x2="44.970699"
       y2="0"
       id="line108" />
  </g>
  <g
     transform="translate(-7.8840274e-4,2.55)"
     id="g114">
    <line
       stroke-linejoin="round"
       stroke-linecap="round"
       stroke-width="0.0949"
       stroke="currentColor"
       x1="0.047400001"
       y1="0"
       x2="44.970699"
       y2="0"
       id="line112" />
  </g>
  <g
     transform="translate(-7.8840274e-4,1.7)"
     id="g118">
    <line
       stroke-linejoin="round"
       stroke-linecap="round"
       stroke-width="0.0949"
       stroke="currentColor"
       x1="0.047400001"
       y1="0"
       x2="44.970699"
       y2="0"
       id="line116" />
  </g>
  <g
     transform="translate(41.417412,3.4)"
     id="g122">
    <rect
       x="0"
       y="-1.7"
       width="0.1802"
       height="3.4000001"
       ry="0.0000"
       fill="currentColor"
       id="rect120" />
  </g>
  <g
     transform="translate(26.043312,3.4)"
     id="g126">
    <rect
       x="0"
       y="-1.7"
       width="0.1802"
       height="3.4000001"
       ry="0.0000"
       fill="currentColor"
       id="rect124" />
  </g>
  <a
     style="color:inherit"
     xlink:href="textedit:///Users/tomsegarra/Downloads/dummies/lilypond_files/771af9d92b89696f0891b9ad70c4f229.ly:20:4:5"
     id="a132"
     transform="translate(-2.2769884,-3.2762)">
    <g
       transform="translate(13.9694,6.6762)"
       id="g130">
      <path
         transform="scale(0.0034,-0.0034)"
         d="m -8,78 c 0,59 125,83 125,182 0,25 -9,49 -26,69 l -33,40 c -3,4 -4,7 -4,11 0,9 9,17 18,17 4,0 8,-2 12,-6 L 234,212 c 7,-9 11,-18 11,-26 0,-59 -125,-83 -125,-182 0,-25 8,-49 25,-69 l 82,-97 c 3,-4 4,-7 4,-11 0,-9 -8,-17 -17,-17 -10,0 -42,42 -106,42 -19,0 -54,-1 -54,-66 0,-34 10,-73 27,-93 7,-9 -5,-20 -12,-11 -45,53 -93,147 -93,201 0,42 27,42 43,42 31,0 74,-11 113,-27 L 3,52 C -4,61 -8,70 -8,78 Z"
         fill="currentColor"
         id="path128" />
    </g>
  </a>
  <g
     transform="translate(0.7992116,4.25)"
     id="g136">
    <path
       transform="scale(0.0034,-0.0034)"
       d="m 646,2 c 0,-113 -74,-213 -180,-247 3,-34 5,-68 5,-102 0,-20 -1,-40 -2,-60 -7,-121 -91,-228 -209,-228 -108,0 -196,87 -196,196 0,58 53,104 112,104 54,0 95,-48 95,-104 0,-52 -43,-95 -95,-95 -10,0 -20,2 -29,6 26,-38 68,-63 116,-63 h 3 c 93,2 153,92 159,190 1,19 2,37 2,56 0,30 -2,60 -4,90 -5,-1 -43,-8 -88,-8 -194,0 -333,180 -333,375 0,177 130,307 246,442 -31,98 -53,170 -53,347 0,115 55,223 148,290 7,5 16,4 22,-1 68,-80 134,-243 134,-357 0,-143 -85,-255 -178,-364 21,-68 40,-137 57,-206 1,0 5,1 11,1 C 545,264 646,135 646,2 Z M 462,-202 c 66,24 111,88 111,162 0,89 -65,178 -170,190 28,-135 50,-272 59,-352 z M 75,26 c 0,-145 141,-245 263,-245 1,0 46,0 81,6 -7,65 -27,206 -61,363 -79,-8 -124,-61 -124,-119 0,-43 25,-89 80,-121 5,-5 7,-11 7,-16 0,-12 -10,-23 -22,-23 -16,0 -127,63 -127,188 0,89 58,175 161,198 -14,58 -29,116 -46,173 C 181,308 75,186 75,26 Z M 406,1042 C 307,995 244,894 244,785 c 0,-49 13,-111 38,-191 79,97 144,199 144,324 0,33 0,63 -20,124 z"
       fill="currentColor"
       id="path134" />
  </g>
  <a
     style="color:inherit"
     xlink:href="textedit:///Users/tomsegarra/Downloads/dummies/lilypond_files/771af9d92b89696f0891b9ad70c4f229.ly:19:4:5"
     id="a150"
     transform="translate(-2.2769884,-3.2762)">
    <g
       transform="translate(6.5762,4.9762)"
       id="g140">
      <path
         transform="scale(0.0034,-0.0034)"
         d="m 217,-311 c 0,-11 -8,-19 -19,-19 -11,0 -20,8 -20,19 v 142 l -81,-30 v -156 c 0,-11 -9,-20 -20,-20 -11,0 -19,9 -19,20 v 142 l -28,-11 c -3,-1 -5,-1 -8,-1 -12,0 -22,10 -22,23 v 57 c 0,9 6,18 15,21 l 43,16 V 49 L 30,39 C 27,38 25,38 22,38 10,38 0,47 0,60 v 57 c 0,9 6,18 15,21 l 43,16 v 157 c 0,11 8,19 19,19 11,0 20,-8 20,-19 V 169 l 81,30 v 156 c 0,11 9,20 20,20 11,0 19,-9 19,-20 V 213 l 28,11 c 3,1 5,1 8,1 12,0 22,-10 22,-23 v -57 c 0,-9 -6,-18 -15,-21 L 217,108 V -49 l 28,10 c 3,1 5,1 8,1 12,0 22,-9 22,-22 v -57 c 0,-9 -6,-18 -15,-21 l -43,-16 z M 97,64 V -94 l 81,30 V 94 Z"
         fill="currentColor"
         id="path138" />
    </g>
    <g
       transform="translate(7.5112,6.2512)"
       id="g144">
      <path
         transform="scale(0.0034,-0.0034)"
         d="m 217,-311 c 0,-11 -8,-19 -19,-19 -11,0 -20,8 -20,19 v 142 l -81,-30 v -156 c 0,-11 -9,-20 -20,-20 -11,0 -19,9 -19,20 v 142 l -28,-11 c -3,-1 -5,-1 -8,-1 -12,0 -22,10 -22,23 v 57 c 0,9 6,18 15,21 l 43,16 V 49 L 30,39 C 27,38 25,38 22,38 10,38 0,47 0,60 v 57 c 0,9 6,18 15,21 l 43,16 v 157 c 0,11 8,19 19,19 11,0 20,-8 20,-19 V 169 l 81,30 v 156 c 0,11 9,20 20,20 11,0 19,-9 19,-20 V 213 l 28,11 c 3,1 5,1 8,1 12,0 22,-10 22,-23 v -57 c 0,-9 -6,-18 -15,-21 L 217,108 V -49 l 28,10 c 3,1 5,1 8,1 12,0 22,-9 22,-22 v -57 c 0,-9 -6,-18 -15,-21 l -43,-16 z M 97,64 V -94 l 81,30 V 94 Z"
         fill="currentColor"
         id="path142" />
    </g>
    <g
       transform="translate(8.4462,4.5512)"
       id="g148">
      <path
         transform="scale(0.0034,-0.0034)"
         d="m 217,-311 c 0,-11 -8,-19 -19,-19 -11,0 -20,8 -20,19 v 142 l -81,-30 v -156 c 0,-11 -9,-20 -20,-20 -11,0 -19,9 -19,20 v 142 l -28,-11 c -3,-1 -5,-1 -8,-1 -12,0 -22,10 -22,23 v 57 c 0,9 6,18 15,21 l 43,16 V 49 L 30,39 C 27,38 25,38 22,38 10,38 0,47 0,60 v 57 c 0,9 6,18 15,21 l 43,16 v 157 c 0,11 8,19 19,19 11,0 20,-8 20,-19 V 169 l 81,30 v 156 c 0,11 9,20 20,20 11,0 19,-9 19,-20 V 213 l 28,11 c 3,1 5,1 8,1 12,0 22,-10 22,-23 v -57 c 0,-9 -6,-18 -15,-21 L 217,108 V -49 l 28,10 c 3,1 5,1 8,1 12,0 22,-9 22,-22 v -57 c 0,-9 -6,-18 -15,-21 l -43,-16 z M 97,64 V -94 l 81,30 V 94 Z"
         fill="currentColor"
         id="path146" />
    </g>
  </a>
  <g
     transform="translate(8.2542116,3.4)"
     id="g154">
    <path
       transform="scale(0.0034,-0.0034)"
       d="m 358,29 c -30,0 -74,23 -74,73 0,38 27,76 71,76 4,0 7,0 11,-1 -27,36 -69,59 -116,59 -106,0 -113,-74 -113,-188 0,-15 1,-31 1,-48 0,-17 -1,-33 -1,-48 0,-114 7,-188 113,-188 79,0 136,70 155,150 2,7 7,10 13,10 7,0 14,-5 14,-13 0,-21 -50,-175 -182,-175 C 191,-264 0,-244 0,0 0,63 18,264 250,264 365,264 424,155 424,99 424,60 394,29 358,29 Z"
       fill="currentColor"
       id="path152" />
  </g>
  <g
     transform="translate(12.879012,2.975)"
     id="g158">
    <path
       transform="scale(0.0034,-0.0034)"
       d="M 0,0 C 0,31 25,56 56,56 87,56 111,31 111,0 111,-31 87,-56 56,-56 25,-56 0,-31 0,0 Z"
       fill="currentColor"
       id="path156" />
  </g>
  <a
     style="color:inherit"
     xlink:href="textedit:///Users/tomsegarra/Downloads/dummies/lilypond_files/771af9d92b89696f0891b9ad70c4f229.ly:20:14:15"
     id="a164"
     transform="translate(-2.2769884,-3.2762)">
    <g
       transform="translate(23.6936,11.3512)"
       id="g162">
      <path
         transform="scale(0.0034,-0.0034)"
         d="m 215,137 c 67,0 111,-37 111,-92 0,-90 -111,-182 -215,-182 -67,0 -111,37 -111,92 0,90 111,182 215,182 z"
         fill="currentColor"
         id="path160" />
    </g>
  </a>
  <a
     style="color:inherit"
     xlink:href="textedit:///Users/tomsegarra/Downloads/dummies/lilypond_files/771af9d92b89696f0891b9ad70c4f229.ly:23:9:10"
     id="a172"
     transform="translate(-2.2769884,-3.2762)">
    <g
       transform="translate(23.7864,15.1582)"
       id="g170">
      <text
         font-family="serif"
         font-size="2.0989px"
         text-anchor="start"
         fill="currentColor"
         id="text168"><tspan
           id="tspan166">a</tspan></text>
    </g>
  </a>
  <g
     transform="translate(22.462412,3.4)"
     id="g176">
    <rect
       x="-0.061700001"
       y="0"
       width="0.1233"
       height="4.5225"
       ry="0.039999999"
       fill="currentColor"
       id="rect174" />
  </g>
  <g
     transform="translate(22.524012,3.44)"
     id="g180">
    <path
       transform="scale(0.0034,-0.0034)"
       d="m 0,0 c 0,-197 207,-335 207,-532 0,-71 -15,-141 -41,-207 -5,-8 -13,-12 -21,-12 -14,0 -27,11 -24,28 26,60 42,125 42,191 0,103 -93,207 -163,282 H -18 V 0 Z"
       fill="currentColor"
       id="path178" />
  </g>
  <a
     style="color:inherit"
     xlink:href="textedit:///Users/tomsegarra/Downloads/dummies/lilypond_files/771af9d92b89696f0891b9ad70c4f229.ly:20:17:18"
     id="a186"
     transform="translate(-2.2769884,-3.2762)">
    <g
       transform="translate(26.7129,11.3512)"
       id="g184">
      <path
         transform="scale(0.0034,-0.0034)"
         d="m 215,137 c 67,0 111,-37 111,-92 0,-90 -111,-182 -215,-182 -67,0 -111,37 -111,92 0,90 111,182 215,182 z"
         fill="currentColor"
         id="path182" />
    </g>
  </a>
  <a
     style="color:inherit"
     xlink:href="textedit:///Users/tomsegarra/Downloads/dummies/lilypond_files/771af9d92b89696f0891b9ad70c4f229.ly:23:14:15"
     id="a194"
     transform="translate(-2.2769884,-3.2762)">
    <g
       transform="translate(24.8083,15.1582)"
       id="g192">
      <text
         font-family="serif"
         font-size="2.0989px"
         text-anchor="start"
         fill="currentColor"
         id="text190"><tspan
           id="tspan188">round</tspan></text>
    </g>
  </a>
  <g
     transform="translate(25.922312,8.075)"
     id="g198">
    <path
       transform="scale(0.0034,-0.0034)"
       d="M 0,0 C 0,31 25,56 56,56 87,56 111,31 111,0 111,-31 87,-56 56,-56 25,-56 0,-31 0,0 Z"
       fill="currentColor"
       id="path196" />
  </g>
  <g
     transform="translate(25.481612,3.4)"
     id="g202">
    <rect
       x="-0.061700001"
       y="0"
       width="0.1233"
       height="4.5225"
       ry="0.039999999"
       fill="currentColor"
       id="rect200" />
  </g>
  <a
     style="color:inherit"
     xlink:href="textedit:///Users/tomsegarra/Downloads/dummies/lilypond_files/771af9d92b89696f0891b9ad70c4f229.ly:20:21:22"
     id="a208"
     transform="translate(-2.2769884,-3.2762)">
    <g
       transform="translate(32.3005,11.3512)"
       id="g206">
      <path
         transform="scale(0.0034,-0.0034)"
         d="m 215,137 c 67,0 111,-37 111,-92 0,-90 -111,-182 -215,-182 -67,0 -111,37 -111,92 0,90 111,182 215,182 z"
         fill="currentColor"
         id="path204" />
    </g>
  </a>
  <a
     style="color:inherit"
     xlink:href="textedit:///Users/tomsegarra/Downloads/dummies/lilypond_files/771af9d92b89696f0891b9ad70c4f229.ly:23:20:21"
     id="a216"
     transform="translate(-2.2769884,-3.2762)">
    <g
       transform="translate(32.3932,15.1582)"
       id="g214">
      <text
         font-family="serif"
         font-size="2.0989px"
         text-anchor="start"
         fill="currentColor"
         id="text212"><tspan
           id="tspan210">a</tspan></text>
    </g>
  </a>
  <g
     transform="translate(31.069212,3.4)"
     id="g220">
    <rect
       x="-0.061700001"
       y="0"
       width="0.1233"
       height="4.5225"
       ry="0.039999999"
       fill="currentColor"
       id="rect218" />
  </g>
  <g
     transform="translate(31.130912,3.44)"
     id="g224">
    <path
       transform="scale(0.0034,-0.0034)"
       d="m 0,0 c 0,-197 207,-335 207,-532 0,-71 -15,-141 -41,-207 -5,-8 -13,-12 -21,-12 -14,0 -27,11 -24,28 26,60 42,125 42,191 0,103 -93,207 -163,282 H -18 V 0 Z"
       fill="currentColor"
       id="path222" />
  </g>
  <a
     style="color:inherit"
     xlink:href="textedit:///Users/tomsegarra/Downloads/dummies/lilypond_files/771af9d92b89696f0891b9ad70c4f229.ly:20:24:25"
     id="a230"
     transform="translate(-2.2769884,-3.2762)">
    <g
       transform="translate(35.0722,11.3512)"
       id="g228">
      <path
         transform="scale(0.0034,-0.0034)"
         d="m 215,137 c 67,0 111,-37 111,-92 0,-90 -111,-182 -215,-182 -67,0 -111,37 -111,92 0,90 111,182 215,182 z"
         fill="currentColor"
         id="path226" />
    </g>
  </a>
  <a
     style="color:inherit"
     xlink:href="textedit:///Users/tomsegarra/Downloads/dummies/lilypond_files/771af9d92b89696f0891b9ad70c4f229.ly:23:22:23"
     id="a238"
     transform="translate(-2.2769884,-3.2762)">
    <g
       transform="translate(33.7651,15.1582)"
       id="g236">
      <text
         font-family="serif"
         font-size="2.0989px"
         text-anchor="start"
         fill="currentColor"
         id="text234"><tspan
           id="tspan232">time</tspan></text>
    </g>
  </a>
  <g
     transform="translate(33.841012,3.4)"
     id="g242">
    <rect
       x="-0.061700001"
       y="0"
       width="0.1233"
       height="4.5225"
       ry="0.039999999"
       fill="currentColor"
       id="rect240" />
  </g>
  <a
     style="color:inherit"
     xlink:href="textedit:///Users/tomsegarra/Downloads/dummies/lilypond_files/771af9d92b89696f0891b9ad70c4f229.ly:20:27:28"
     id="a248"
     transform="translate(-2.2769884,-3.2762)">
    <g
       transform="translate(38.5796,10.9262)"
       id="g246">
      <path
         transform="scale(0.0034,-0.0034)"
         d="m 215,137 c 67,0 111,-37 111,-92 0,-90 -111,-182 -215,-182 -67,0 -111,37 -111,92 0,90 111,182 215,182 z"
         fill="currentColor"
         id="path244" />
    </g>
  </a>
  <a
     style="color:inherit"
     xlink:href="textedit:///Users/tomsegarra/Downloads/dummies/lilypond_files/771af9d92b89696f0891b9ad70c4f229.ly:23:27:28"
     id="a256"
     transform="translate(-2.2769884,-3.2762)">
    <g
       transform="translate(38.2627,15.1582)"
       id="g254">
      <text
         font-family="serif"
         font-size="2.0989px"
         text-anchor="start"
         fill="currentColor"
         id="text252"><tspan
           id="tspan250">or</tspan></text>
    </g>
  </a>
  <g
     transform="translate(37.348312,3.4)"
     id="g260">
    <rect
       x="-0.061700001"
       y="0"
       width="0.1233"
       height="4.0974998"
       ry="0.039999999"
       fill="currentColor"
       id="rect258" />
  </g>
  <a
     style="color:inherit"
     xlink:href="textedit:///Users/tomsegarra/Downloads/dummies/lilypond_files/771af9d92b89696f0891b9ad70c4f229.ly:20:32:33"
     id="a266"
     transform="translate(-2.2769884,-3.2762)">
    <g
       transform="translate(42.087,12.2012)"
       id="g264">
      <path
         transform="scale(0.0034,-0.0034)"
         d="m 215,137 c 67,0 111,-37 111,-92 0,-90 -111,-182 -215,-182 -67,0 -111,37 -111,92 0,90 111,182 215,182 z"
         fill="currentColor"
         id="path262" />
    </g>
  </a>
  <a
     style="color:inherit"
     xlink:href="textedit:///Users/tomsegarra/Downloads/dummies/lilypond_files/771af9d92b89696f0891b9ad70c4f229.ly:23:30:31"
     id="a274"
     transform="translate(-2.2769884,-3.2762)">
    <g
       transform="translate(41.0701,15.1582)"
       id="g272">
      <text
         font-family="serif"
         font-size="2.0989px"
         text-anchor="start"
         fill="currentColor"
         id="text270"><tspan
           id="tspan268">two</tspan></text>
    </g>
  </a>
  <g
     transform="translate(41.296512,8.925)"
     id="g278">
    <path
       transform="scale(0.0034,-0.0034)"
       d="M 0,0 C 0,31 25,56 56,56 87,56 111,31 111,0 111,-31 87,-56 56,-56 25,-56 0,-31 0,0 Z"
       fill="currentColor"
       id="path276" />
  </g>
  <g
     transform="translate(40.855712,3.4)"
     id="g282">
    <rect
       x="-0.061700001"
       y="0"
       width="0.1233"
       height="5.3724999"
       ry="0.039999999"
       fill="currentColor"
       id="rect280" />
  </g>
  <g
     transform="translate(38.878412,8.925)"
     id="g286">
    <path
       transform="scale(0.0034,-0.0034)"
       d="m -8,375 c 8,5 17,7 26,7 9,0 18,-2 26,-7 l -3,-187 104,21 h 4 c 10,0 18,-8 18,-18 l 7,-566 c -8,-5 -16,-7 -25,-7 -9,0 -18,2 -26,7 l 2,187 -103,-21 h -4 c -10,0 -18,8 -18,18 z M 130,111 40,93 l -3,-204 90,18 z"
       fill="currentColor"
       id="path284" />
  </g>
  <g
     transform="translate(18.955012,3.4)"
     id="g290">
    <rect
       x="-0.061700001"
       y="0"
       width="0.1233"
       height="4.5225"
       ry="0.039999999"
       fill="currentColor"
       id="rect288" />
  </g>
  <a
     style="color:inherit"
     xlink:href="textedit:///Users/tomsegarra/Downloads/dummies/lilypond_files/771af9d92b89696f0891b9ad70c4f229.ly:23:6:7"
     id="a298"
     transform="translate(-2.2769884,-3.2762)">
    <g
       transform="translate(19.6815,15.1582)"
       id="g296">
      <text
         font-family="serif"
         font-size="2.0989px"
         text-anchor="start"
         fill="currentColor"
         id="text294"><tspan
           id="tspan292">go</tspan></text>
    </g>
  </a>
  <a
     style="color:inherit"
     xlink:href="textedit:///Users/tomsegarra/Downloads/dummies/lilypond_files/771af9d92b89696f0891b9ad70c4f229.ly:20:8:9"
     id="a304"
     transform="translate(-2.2769884,-3.2762)">
    <g
       transform="translate(17.8789,10.0762)"
       id="g302">
      <path
         transform="scale(0.0034,-0.0034)"
         d="m 215,137 c 67,0 111,-37 111,-92 0,-90 -111,-182 -215,-182 -67,0 -111,37 -111,92 0,90 111,182 215,182 z"
         fill="currentColor"
         id="path300" />
    </g>
  </a>
  <a
     style="color:inherit"
     xlink:href="textedit:///Users/tomsegarra/Downloads/dummies/lilypond_files/771af9d92b89696f0891b9ad70c4f229.ly:23:4:5"
     id="a312"
     transform="translate(-2.2769884,-3.2762)">
    <g
       transform="translate(18.0911,15.1582)"
       id="g310">
      <text
         font-family="serif"
         font-size="2.0989px"
         text-anchor="start"
         fill="currentColor"
         id="text308"><tspan
           id="tspan306">I</tspan></text>
    </g>
  </a>
  <g
     transform="translate(16.647612,3.4)"
     id="g316">
    <rect
       x="-0.061700001"
       y="0"
       width="0.1233"
       height="3.2474999"
       ry="0.039999999"
       fill="currentColor"
       id="rect314" />
  </g>
  <g
     transform="translate(16.709212,3.44)"
     id="g320">
    <path
       transform="scale(0.0034,-0.0034)"
       d="m 0,0 c 0,-197 207,-335 207,-532 0,-71 -15,-141 -41,-207 -5,-8 -13,-12 -21,-12 -14,0 -27,11 -24,28 26,60 42,125 42,191 0,103 -93,207 -163,282 H -18 V 0 Z"
       fill="currentColor"
       id="path318" />
  </g>
  <a
     style="color:inherit"
     xlink:href="textedit:///Users/tomsegarra/Downloads/dummies/lilypond_files/771af9d92b89696f0891b9ad70c4f229.ly:20:11:12"
     id="a326"
     transform="translate(-2.2769884,-3.2762)">
    <g
       transform="translate(20.1862,11.3512)"
       id="g324">
      <path
         transform="scale(0.0034,-0.0034)"
         d="m 215,137 c 67,0 111,-37 111,-92 0,-90 -111,-182 -215,-182 -67,0 -111,37 -111,92 0,90 111,182 215,182 z"
         fill="currentColor"
         id="path322" />
    </g>
  </a>
</svg>
