<svg xmlns="http://www.w3.org/2000/svg" xmlns:xlink="http://www.w3.org/1999/xlink" version="1.2" width="47.30mm" height="297.00mm" viewBox="0 0 26.9186 169.0094">
<style type="text/css">
<![CDATA[
tspan { white-space: pre; }
]]>
</style>
<!-- Page: 1/1 -->
<g transform="translate(2.2762, 8.0762)">
<line stroke-linejoin="round" stroke-linecap="round" stroke-width="0.0931" stroke="currentColor" x1="0.0466" y1="0" x2="22.3195" y2="0"/>
</g>
<g transform="translate(2.2762, 7.2762)">
<line stroke-linejoin="round" stroke-linecap="round" stroke-width="0.0931" stroke="currentColor" x1="0.0466" y1="0" x2="22.3195" y2="0"/>
</g>
<g transform="translate(2.2762, 6.4762)">
<line stroke-linejoin="round" stroke-linecap="round" stroke-width="0.0931" stroke="currentColor" x1="0.0466" y1="0" x2="22.3195" y2="0"/>
</g>
<g transform="translate(2.2762, 5.6762)">
<line stroke-linejoin="round" stroke-linecap="round" stroke-width="0.0931" stroke="currentColor" x1="0.0466" y1="0" x2="22.3195" y2="0"/>
</g>
<g transform="translate(2.2762, 4.8762)">
<line stroke-linejoin="round" stroke-linecap="round" stroke-width="0.0931" stroke="currentColor" x1="0.0466" y1="0" x2="22.3195" y2="0"/>
</g>
<g transform="translate(24.4654, 6.4762)">
<rect x="0.0000" y="-1.6000" width="0.1770" height="3.2000" ry="0.0000" fill="currentColor"/>
</g>
<a style="color:inherit;" xlink:href="textedit:///Users/tomsegarra/Downloads/dummies/lilypond_files/7c02da074e720d5e279d9e0b1bdbb3f1.ly:26:6:14">
<g transform="translate(16.4513, 5.6762)">
<path transform="scale(0.0032, -0.0032)" d="M212 138c68 0 113 -38 113 -95c0 -90 -109 -181 -212 -181c-68 0 -113 38 -113 95c0 90 109 181 212 181z" fill="currentColor"/>
</g>
</a>
<g transform="translate(16.5118, 6.4762)">
<rect x="-0.0605" y="-0.6629" width="0.1211" height="2.6629" ry="0.0400" fill="currentColor"/>
</g>
<a style="color:inherit;" xlink:href="textedit:///Users/tomsegarra/Downloads/dummies/lilypond_files/7c02da074e720d5e279d9e0b1bdbb3f1.ly:26:1:9">
<g transform="translate(13.7126, 5.2762)">
<path transform="scale(0.0032, -0.0032)" d="M212 138c68 0 113 -38 113 -95c0 -90 -109 -181 -212 -181c-68 0 -113 38 -113 95c0 90 109 181 212 181z" fill="currentColor"/>
</g>
</a>
<a style="color:inherit;" xlink:href="textedit:///Users/tomsegarra/Downloads/dummies/lilypond_files/7c02da074e720d5e279d9e0b1bdbb3f1.ly:26:8:16">
<g transform="translate(19.1900, 6.0762)">
<path transform="scale(0.0032, -0.0032)" d="M212 138c68 0 113 -38 113 -95c0 -90 -109 -181 -212 -181c-68 0 -113 38 -113 95c0 90 109 181 212 181z" fill="currentColor"/>
</g>
</a>
<g transform="translate(19.2505, 6.4762)">
<rect x="-0.0605" y="-0.2629" width="0.1211" height="2.6629" ry="0.0400" fill="currentColor"/>
</g>
<g transform="translate(3.0762, 7.2762)">
<path transform="scale(0.0032, -0.0032)" d="M647 2c0 -114 -75 -214 -180 -248c3 -33 4 -66 4 -99c0 -21 0 -41 -1 -62c-7 -122 -92 -229 -211 -229c-108 0 -196 88 -196 197c0 58 54 103 113 103c54 0 95 -47 95 -103c0 -52 -43 -95 -95 -95c-9 0 -18 1 -27 4c25 -37 66 -61 113 -61c93 0 156 91 162 191
c1 19 2 38 2 57c0 29 -1 58 -3 87c-5 -1 -44 -8 -88 -8c-194 0 -333 181 -333 376c0 177 129 308 244 443c-34 103 -55 171 -55 347c0 114 54 221 147 288c8 6 18 5 25 -1c68 -79 135 -242 135 -356c0 -142 -84 -255 -176 -364c21 -68 40 -136 57 -205c1 0 5 1 10 1
c157 0 258 -129 258 -263zM463 -201c64 24 110 88 110 161c0 88 -64 175 -167 188c28 -133 49 -269 57 -349zM77 25c0 -144 141 -243 261 -243c1 0 46 -1 81 5c-7 66 -27 208 -60 362c-79 -8 -124 -60 -124 -118c0 -43 25 -88 80 -120c5 -5 7 -11 7 -17
c0 -12 -10 -23 -23 -23c-16 0 -128 62 -128 188c0 89 60 177 163 200c-14 57 -30 113 -47 169c-105 -122 -210 -243 -210 -403zM403 1038c-99 -46 -161 -145 -161 -254c0 -39 10 -95 39 -188c78 97 142 199 142 324c0 33 0 61 -20 118z" fill="currentColor"/>
</g>
<a style="color:inherit;" xlink:href="textedit:///Users/tomsegarra/Downloads/dummies/lilypond_files/7c02da074e720d5e279d9e0b1bdbb3f1.ly:26:12:20">
<g transform="translate(21.9287, 5.6762)">
<path transform="scale(0.0032, -0.0032)" d="M212 138c68 0 113 -38 113 -95c0 -90 -109 -181 -212 -181c-68 0 -113 38 -113 95c0 90 109 181 212 181z" fill="currentColor"/>
</g>
</a>
<g transform="translate(21.9892, 6.4762)">
<rect x="-0.0605" y="-0.6629" width="0.1211" height="2.6629" ry="0.0400" fill="currentColor"/>
</g>
<a style="color:inherit;" xlink:href="textedit:///Users/tomsegarra/Downloads/dummies/lilypond_files/7c02da074e720d5e279d9e0b1bdbb3f1.ly:25:1:9">
<g transform="translate(6.5762, 4.8762)">
<path transform="scale(0.0032, -0.0032)" d="M198 -329c-12 0 -21 9 -21 21v138l-79 -30v-154c0 -12 -9 -21 -21 -21s-21 9 -21 21v138l-22 -8c-3 -1 -6 -2 -9 -2c-13 0 -25 11 -25 25v54c0 10 6 20 16 24l40 15v155l-22 -9c-3 -1 -6 -1 -9 -1c-13 0 -25 11 -25 25v54c0 10 6 19 16 23l40 15v154c0 12 9 21 21 21
s21 -9 21 -21v-138l79 30v154c0 12 9 21 21 21s21 -9 21 -21v-138l22 8c3 1 6 2 9 2c13 0 25 -11 25 -25v-54c0 -10 -6 -20 -16 -24l-40 -15v-155l22 9c3 1 6 1 9 1c13 0 25 -11 25 -25v-54c0 -10 -6 -19 -16 -23l-40 -15v-154c0 -12 -9 -21 -21 -21zM98 62v-154l79 30v154z
" fill="currentColor"/>
</g>
<g transform="translate(7.4562, 6.0762)">
<path transform="scale(0.0032, -0.0032)" d="M198 -329c-12 0 -21 9 -21 21v138l-79 -30v-154c0 -12 -9 -21 -21 -21s-21 9 -21 21v138l-22 -8c-3 -1 -6 -2 -9 -2c-13 0 -25 11 -25 25v54c0 10 6 20 16 24l40 15v155l-22 -9c-3 -1 -6 -1 -9 -1c-13 0 -25 11 -25 25v54c0 10 6 19 16 23l40 15v154c0 12 9 21 21 21
s21 -9 21 -21v-138l79 30v154c0 12 9 21 21 21s21 -9 21 -21v-138l22 8c3 1 6 2 9 2c13 0 25 -11 25 -25v-54c0 -10 -6 -20 -16 -24l-40 -15v-155l22 9c3 1 6 1 9 1c13 0 25 -11 25 -25v-54c0 -10 -6 -19 -16 -23l-40 -15v-154c0 -12 -9 -21 -21 -21zM98 62v-154l79 30v154z
" fill="currentColor"/>
</g>
<g transform="translate(8.3362, 4.4762)">
<path transform="scale(0.0032, -0.0032)" d="M198 -329c-12 0 -21 9 -21 21v138l-79 -30v-154c0 -12 -9 -21 -21 -21s-21 9 -21 21v138l-22 -8c-3 -1 -6 -2 -9 -2c-13 0 -25 11 -25 25v54c0 10 6 20 16 24l40 15v155l-22 -9c-3 -1 -6 -1 -9 -1c-13 0 -25 11 -25 25v54c0 10 6 19 16 23l40 15v154c0 12 9 21 21 21
s21 -9 21 -21v-138l79 30v154c0 12 9 21 21 21s21 -9 21 -21v-138l22 8c3 1 6 2 9 2c13 0 25 -11 25 -25v-54c0 -10 -6 -20 -16 -24l-40 -15v-155l22 9c3 1 6 1 9 1c13 0 25 -11 25 -25v-54c0 -10 -6 -19 -16 -23l-40 -15v-154c0 -12 -9 -21 -21 -21zM98 62v-154l79 30v154z
" fill="currentColor"/>
</g>
</a>
<g transform="translate(10.3662, 6.4762)">
<path transform="scale(0.0032, -0.0032)" d="M250 265c114 0 172 -112 172 -166c0 -38 -30 -69 -66 -69c-30 0 -72 23 -72 72c0 37 26 75 70 75c3 0 6 -1 9 -1c-26 36 -67 59 -113 59c-107 0 -113 -74 -113 -189c0 -15 1 -30 1 -46s-1 -31 -1 -46c0 -115 6 -189 113 -189c78 0 133 70 151 149c2 8 8 11 14 11
c7 0 15 -5 15 -14c0 -21 -49 -176 -180 -176c-145 0 -250 88 -250 265c0 63 18 265 250 265z" fill="currentColor"/>
</g>
<g transform="translate(13.7731, 6.4762)">
<rect x="-0.0605" y="-1.0629" width="0.1211" height="2.6629" ry="0.0400" fill="currentColor"/>
</g>
</svg>
