<?xml version="1.0" encoding="UTF-8" standalone="no"?>
<svg
   version="1.2"
   width="145.43808mm"
   height="13.623776mm"
   viewBox="0 0 82.761223 7.7526811"
   id="svg542"
   sodipodi:docname="8692c55dc709e16d7ee27757b4d438d8.svg"
   xmlns:inkscape="http://www.inkscape.org/namespaces/inkscape"
   xmlns:sodipodi="http://sodipodi.sourceforge.net/DTD/sodipodi-0.dtd"
   xmlns:xlink="http://www.w3.org/1999/xlink"
   xmlns="http://www.w3.org/2000/svg"
   xmlns:svg="http://www.w3.org/2000/svg">
  <defs
     id="defs546" />
  <sodipodi:namedview
     id="namedview544"
     pagecolor="#ffffff"
     bordercolor="#000000"
     borderopacity="0.25"
     inkscape:showpageshadow="2"
     inkscape:pageopacity="0.0"
     inkscape:pagecheckerboard="0"
     inkscape:deskcolor="#d1d1d1"
     inkscape:document-units="mm" />
  <style
     type="text/css"
     id="style2"><![CDATA[
tspan { white-space: pre; }
]]></style>
  <!-- Page: 1/1 -->
  <g
     transform="translate(26.402181,4.7436812)"
     id="g6">
    <rect
       x="0"
       y="-1.7"
       width="0.1802"
       height="3.4000001"
       ry="0.0000"
       fill="currentColor"
       id="rect4" />
  </g>
  <g
     transform="translate(-5.1886443e-4,6.4436812)"
     id="g10">
    <line
       stroke-linejoin="round"
       stroke-linecap="round"
       stroke-width="0.0949"
       stroke="currentColor"
       x1="0.047400001"
       y1="0"
       x2="82.714798"
       y2="0"
       id="line8" />
  </g>
  <g
     transform="translate(-5.1886443e-4,5.5936812)"
     id="g14">
    <line
       stroke-linejoin="round"
       stroke-linecap="round"
       stroke-width="0.0949"
       stroke="currentColor"
       x1="0.047400001"
       y1="0"
       x2="82.714798"
       y2="0"
       id="line12" />
  </g>
  <g
     transform="translate(-5.1886443e-4,4.7436812)"
     id="g18">
    <line
       stroke-linejoin="round"
       stroke-linecap="round"
       stroke-width="0.0949"
       stroke="currentColor"
       x1="0.047400001"
       y1="0"
       x2="82.714798"
       y2="0"
       id="line16" />
  </g>
  <g
     transform="translate(-5.1886443e-4,3.8936812)"
     id="g22">
    <line
       stroke-linejoin="round"
       stroke-linecap="round"
       stroke-width="0.0949"
       stroke="currentColor"
       x1="0.047400001"
       y1="0"
       x2="82.714798"
       y2="0"
       id="line20" />
  </g>
  <g
     transform="translate(-5.1886443e-4,3.0436812)"
     id="g26">
    <line
       stroke-linejoin="round"
       stroke-linecap="round"
       stroke-width="0.0949"
       stroke="currentColor"
       x1="0.047400001"
       y1="0"
       x2="82.714798"
       y2="0"
       id="line24" />
  </g>
  <g
     transform="translate(82.581481,4.7436812)"
     id="g30">
    <rect
       x="0"
       y="-1.7"
       width="0.1802"
       height="3.4000001"
       ry="0.0000"
       fill="currentColor"
       id="rect28" />
  </g>
  <g
     transform="translate(64.706881,4.7436812)"
     id="g34">
    <rect
       x="0"
       y="-1.7"
       width="0.1802"
       height="3.4000001"
       ry="0.0000"
       fill="currentColor"
       id="rect32" />
  </g>
  <g
     transform="translate(45.532281,4.7436812)"
     id="g38">
    <rect
       x="0"
       y="-1.7"
       width="0.1802"
       height="3.4000001"
       ry="0.0000"
       fill="currentColor"
       id="rect36" />
  </g>
  <g
     transform="translate(8.4376811,7.1371812)"
     id="g42">
    <polygon
       stroke-linejoin="round"
       stroke-linecap="round"
       stroke-width="0.08"
       fill="currentColor"
       stroke="currentColor"
       points="0.04,0.164 0.04,-0.164 2.3907,-0.164 2.3907,0.164 "
       id="polygon40" />
  </g>
  <g
     transform="translate(17.409781,6.4436812)"
     id="g46">
    <polygon
       stroke-linejoin="round"
       stroke-linecap="round"
       stroke-width="0.08"
       fill="currentColor"
       stroke="currentColor"
       points="0.04,0.164 0.04,-0.164 7.0055,-0.164 7.0055,0.164 "
       id="polygon44" />
  </g>
  <a
     style="color:inherit"
     xlink:href="textedit:///Users/tomsegarra/Documents/dev/dummies/lilypond_files/8692c55dc709e16d7ee27757b4d438d8.ly:19:12:13"
     id="a60"
     transform="translate(-2.2767189,-3.2762188)">
    <g
       transform="translate(10.7144,4.9225)"
       id="g52">
      <text
         font-family="sans-serif"
         font-size="2.224px"
         text-anchor="start"
         fill="currentColor"
         id="text50"><tspan
           id="tspan48">A</tspan></text>
    </g>
    <g
       transform="translate(12.2508,4.9225)"
       id="g58">
      <text
         font-family="sans-serif"
         font-size="2.224px"
         text-anchor="start"
         fill="currentColor"
         id="text56"><tspan
           id="tspan54">m</tspan></text>
    </g>
  </a>
  <g
     color="#ff0000"
     id="g68"
     transform="translate(-2.2767189,-3.2762188)">
    <a
       style="color:inherit"
       xlink:href="textedit:///Users/tomsegarra/Documents/dev/dummies/lilypond_files/8692c55dc709e16d7ee27757b4d438d8.ly:25:4:5"
       id="a66">
      <g
         transform="translate(10.7144,7.5949)"
         id="g64">
        <path
           transform="scale(0.0034,-0.0034)"
           d="m 215,137 c 67,0 111,-37 111,-92 0,-90 -111,-182 -215,-182 -67,0 -111,37 -111,92 0,90 111,182 215,182 z"
           fill="currentColor"
           id="path62" />
      </g>
    </a>
  </g>
  <g
     transform="translate(0.79948114,5.5936812)"
     id="g72">
    <path
       transform="scale(0.0034,-0.0034)"
       d="m 646,2 c 0,-113 -74,-213 -180,-247 3,-34 5,-68 5,-102 0,-20 -1,-40 -2,-60 -7,-121 -91,-228 -209,-228 -108,0 -196,87 -196,196 0,58 53,104 112,104 54,0 95,-48 95,-104 0,-52 -43,-95 -95,-95 -10,0 -20,2 -29,6 26,-38 68,-63 116,-63 h 3 c 93,2 153,92 159,190 1,19 2,37 2,56 0,30 -2,60 -4,90 -5,-1 -43,-8 -88,-8 -194,0 -333,180 -333,375 0,177 130,307 246,442 -31,98 -53,170 -53,347 0,115 55,223 148,290 7,5 16,4 22,-1 68,-80 134,-243 134,-357 0,-143 -85,-255 -178,-364 21,-68 40,-137 57,-206 1,0 5,1 11,1 C 545,264 646,135 646,2 Z M 462,-202 c 66,24 111,88 111,162 0,89 -65,178 -170,190 28,-135 50,-272 59,-352 z M 75,26 c 0,-145 141,-245 263,-245 1,0 46,0 81,6 -7,65 -27,206 -61,363 -79,-8 -124,-61 -124,-119 0,-43 25,-89 80,-121 5,-5 7,-11 7,-16 0,-12 -10,-23 -22,-23 -16,0 -127,63 -127,188 0,89 58,175 161,198 -14,58 -29,116 -46,173 C 181,308 75,186 75,26 Z M 406,1042 C 307,995 244,894 244,785 c 0,-49 13,-111 38,-191 79,97 144,199 144,324 0,33 0,63 -20,124 z"
       fill="currentColor"
       id="path70" />
  </g>
  <a
     style="color:inherit"
     xlink:href="textedit:///Users/tomsegarra/Documents/dev/dummies/lilypond_files/8692c55dc709e16d7ee27757b4d438d8.ly:22:1:9"
     id="a74"
     transform="translate(-2.2767189,-3.2762188)" />
  <g
     transform="translate(4.9994811,4.7436812)"
     id="g78">
    <path
       transform="scale(0.0034,-0.0034)"
       d="m 358,29 c -30,0 -74,23 -74,73 0,38 27,76 71,76 4,0 7,0 11,-1 -27,36 -69,59 -116,59 -106,0 -113,-74 -113,-188 0,-15 1,-31 1,-48 0,-17 -1,-33 -1,-48 0,-114 7,-188 113,-188 79,0 136,70 155,150 2,7 7,10 13,10 7,0 14,-5 14,-13 0,-21 -50,-175 -182,-175 C 191,-264 0,-244 0,0 0,63 18,264 250,264 365,264 424,155 424,99 424,60 394,29 358,29 Z"
       fill="currentColor"
       id="path76" />
  </g>
  <g
     color="#ff0000"
     id="g84"
     transform="translate(-2.2767189,-3.2762188)">
    <g
       transform="translate(10.776,8.0199)"
       id="g82">
      <rect
         x="-0.061700001"
         y="-0.27250001"
         width="0.1233"
         height="2.6659999"
         ry="0.039999999"
         fill="currentColor"
         id="rect80" />
    </g>
  </g>
  <g
     transform="translate(27.587981,7.2936812)"
     id="g88">
    <polygon
       stroke-linejoin="round"
       stroke-linecap="round"
       stroke-width="0.08"
       fill="currentColor"
       stroke="currentColor"
       points="0.04,0.164 0.04,-0.164 2.3907,-0.164 2.3907,0.164 "
       id="polygon86" />
  </g>
  <a
     style="color:inherit"
     xlink:href="textedit:///Users/tomsegarra/Documents/dev/dummies/lilypond_files/8692c55dc709e16d7ee27757b4d438d8.ly:34:22:23"
     id="a94"
     transform="translate(-2.2767189,-3.2762188)">
    <g
       transform="translate(43.4516,8.0199)"
       id="g92">
      <path
         transform="scale(0.0034,-0.0034)"
         d="m 70,205 c 80,0 46,-97 90,-97 15,0 52,45 59,59 6,13 26,13 31,0 L 129,-250 c -9,-7 -19,-11 -30,-11 -11,0 -21,4 -30,11 L 187,76 C 154,64 119,54 84,54 37,54 -3,88 -3,133 c 0,40 33,72 73,72 z"
         fill="currentColor"
         id="path90" />
    </g>
  </a>
  <g
     transform="translate(36.560081,7.2936812)"
     id="g98">
    <polygon
       stroke-linejoin="round"
       stroke-linecap="round"
       stroke-width="0.08"
       fill="currentColor"
       stroke="currentColor"
       points="0.04,0.164 0.04,-0.164 2.3907,-0.164 2.3907,0.164 "
       id="polygon96" />
  </g>
  <g
     color="#000000"
     id="g106"
     transform="translate(-2.2767189,-3.2762188)">
    <a
       style="color:inherit"
       xlink:href="textedit:///Users/tomsegarra/Documents/dev/dummies/lilypond_files/8692c55dc709e16d7ee27757b4d438d8.ly:34:24:25"
       id="a104">
      <g
         transform="translate(45.5016,8.0199)"
         id="g102">
        <path
           transform="scale(0.0034,-0.0034)"
           d="m 215,137 c 67,0 111,-37 111,-92 0,-90 -111,-182 -215,-182 -67,0 -111,37 -111,92 0,90 111,182 215,182 z"
           fill="currentColor"
           id="path100" />
      </g>
    </a>
  </g>
  <g
     color="#000000"
     id="g112"
     transform="translate(-2.2767189,-3.2762188)">
    <g
       transform="translate(45.5633,8.0199)"
       id="g110">
      <rect
         x="-0.061700001"
         y="0.1525"
         width="0.1233"
         height="2.7163"
         ry="0.039999999"
         fill="currentColor"
         id="rect108" />
    </g>
  </g>
  <g
     color="#000000"
     id="g118"
     transform="translate(-2.2767189,-3.2762188)">
    <g
       transform="translate(45.6249,10.8487)"
       id="g116">
      <path
         transform="scale(0.0034,-0.0034)"
         d="M 0,0 H -18 V 250 H 0 Z m 0,0 v 250 c 96,59 222,149 222,259 0,57 -15,111 -40,162 -3,17 10,29 24,29 8,0 16,-5 21,-13 25,-56 40,-116 40,-178 C 267,306 0,203 0,0 Z"
         fill="currentColor"
         id="path114" />
    </g>
  </g>
  <g
     transform="translate(46.742381,7.1371812)"
     id="g122">
    <polygon
       stroke-linejoin="round"
       stroke-linecap="round"
       stroke-width="0.08"
       fill="currentColor"
       stroke="currentColor"
       points="0.04,0.164 0.04,-0.164 2.3907,-0.164 2.3907,0.164 "
       id="polygon120" />
  </g>
  <g
     transform="translate(55.714481,6.4436812)"
     id="g126">
    <polygon
       stroke-linejoin="round"
       stroke-linecap="round"
       stroke-width="0.08"
       fill="currentColor"
       stroke="currentColor"
       points="0.04,0.164 0.04,-0.164 7.0055,-0.164 7.0055,0.164 "
       id="polygon124" />
  </g>
  <a
     style="color:inherit"
     xlink:href="textedit:///Users/tomsegarra/Documents/dev/dummies/lilypond_files/8692c55dc709e16d7ee27757b4d438d8.ly:19:19:20"
     id="a140"
     transform="translate(-2.2767189,-3.2762188)">
    <g
       transform="translate(49.0191,4.9225)"
       id="g132">
      <text
         font-family="sans-serif"
         font-size="2.224px"
         text-anchor="start"
         fill="currentColor"
         id="text130"><tspan
           id="tspan128">A</tspan></text>
    </g>
    <g
       transform="translate(50.5555,4.9225)"
       id="g138">
      <text
         font-family="sans-serif"
         font-size="2.224px"
         text-anchor="start"
         fill="currentColor"
         id="text136"><tspan
           id="tspan134">m</tspan></text>
    </g>
  </a>
  <g
     color="#000000"
     id="g148"
     transform="translate(-2.2767189,-3.2762188)">
    <a
       style="color:inherit"
       xlink:href="textedit:///Users/tomsegarra/Documents/dev/dummies/lilypond_files/8692c55dc709e16d7ee27757b4d438d8.ly:34:29:30"
       id="a146">
      <g
         transform="translate(49.0191,7.5949)"
         id="g144">
        <path
           transform="scale(0.0034,-0.0034)"
           d="m 215,137 c 67,0 111,-37 111,-92 0,-90 -111,-182 -215,-182 -67,0 -111,37 -111,92 0,90 111,182 215,182 z"
           fill="currentColor"
           id="path142" />
      </g>
    </a>
  </g>
  <g
     color="#000000"
     id="g154"
     transform="translate(-2.2767189,-3.2762188)">
    <g
       transform="translate(49.0807,8.0199)"
       id="g152">
      <rect
         x="-0.061700001"
         y="-0.27250001"
         width="0.1233"
         height="2.6659999"
         ry="0.039999999"
         fill="currentColor"
         id="rect150" />
    </g>
  </g>
  <g
     transform="translate(66.771181,2.3502812)"
     id="g158">
    <polygon
       stroke-linejoin="round"
       stroke-linecap="round"
       stroke-width="0.08"
       fill="currentColor"
       stroke="currentColor"
       points="0.04,0.164 0.04,-0.164 2.3907,-0.164 2.3907,0.164 "
       id="polygon156" />
  </g>
  <g
     color="#000000"
     id="g166"
     transform="translate(-2.2767189,-3.2762188)">
    <a
       style="color:inherit"
       xlink:href="textedit:///Users/tomsegarra/Documents/dev/dummies/lilypond_files/8692c55dc709e16d7ee27757b4d438d8.ly:34:33:34"
       id="a164">
      <g
         transform="translate(51.3265,7.5949)"
         id="g162">
        <path
           transform="scale(0.0034,-0.0034)"
           d="m 215,137 c 67,0 111,-37 111,-92 0,-90 -111,-182 -215,-182 -67,0 -111,37 -111,92 0,90 111,182 215,182 z"
           fill="currentColor"
           id="path160" />
      </g>
    </a>
  </g>
  <g
     color="#000000"
     id="g172"
     transform="translate(-2.2767189,-3.2762188)">
    <g
       transform="translate(51.3881,8.0199)"
       id="g170">
      <rect
         x="-0.061700001"
         y="-0.27250001"
         width="0.1233"
         height="2.6659999"
         ry="0.039999999"
         fill="currentColor"
         id="rect168" />
    </g>
  </g>
  <g
     transform="translate(75.743381,2.3502812)"
     id="g176">
    <polygon
       stroke-linejoin="round"
       stroke-linecap="round"
       stroke-width="0.08"
       fill="currentColor"
       stroke="currentColor"
       points="0.04,0.164 0.04,-0.164 2.3907,-0.164 2.3907,0.164 "
       id="polygon174" />
  </g>
  <a
     style="color:inherit"
     xlink:href="textedit:///Users/tomsegarra/Documents/dev/dummies/lilypond_files/8692c55dc709e16d7ee27757b4d438d8.ly:34:37:38"
     id="a182"
     transform="translate(-2.2767189,-3.2762188)">
    <g
       transform="translate(53.6339,8.0199)"
       id="g180">
      <path
         transform="scale(0.0034,-0.0034)"
         d="m 70,205 c 80,0 46,-97 90,-97 15,0 52,45 59,59 6,13 26,13 31,0 L 129,-250 c -9,-7 -19,-11 -30,-11 -11,0 -21,4 -30,11 L 187,76 C 154,64 119,54 84,54 37,54 -3,88 -3,133 c 0,40 33,72 73,72 z"
         fill="currentColor"
         id="path178" />
    </g>
  </a>
  <g
     color="#ff0000"
     id="g190"
     transform="translate(-2.2767189,-3.2762188)">
    <a
       style="color:inherit"
       xlink:href="textedit:///Users/tomsegarra/Documents/dev/dummies/lilypond_files/8692c55dc709e16d7ee27757b4d438d8.ly:37:4:5"
       id="a188">
      <g
         transform="translate(55.6839,7.5949)"
         id="g186">
        <path
           transform="scale(0.0034,-0.0034)"
           d="m 215,137 c 67,0 111,-37 111,-92 0,-90 -111,-182 -215,-182 -67,0 -111,37 -111,92 0,90 111,182 215,182 z"
           fill="currentColor"
           id="path184" />
      </g>
    </a>
  </g>
  <g
     color="#ff0000"
     id="g196"
     transform="translate(-2.2767189,-3.2762188)">
    <g
       transform="translate(55.7455,8.0199)"
       id="g194">
      <rect
         x="-0.061700001"
         y="-0.27250001"
         width="0.1233"
         height="2.8225"
         ry="0.039999999"
         fill="currentColor"
         id="rect192" />
    </g>
  </g>
  <g
     color="#ff0000"
     id="g202"
     transform="translate(-2.2767189,-3.2762188)">
    <g
       transform="translate(55.8072,10.5299)"
       id="g200">
      <path
         transform="scale(0.0034,-0.0034)"
         d="M 0,0 H -18 V 250 H 0 Z m 0,0 v 250 c 96,59 222,149 222,259 0,57 -15,111 -40,162 -3,17 10,29 24,29 8,0 16,-5 21,-13 25,-56 40,-116 40,-178 C 267,306 0,203 0,0 Z"
         fill="currentColor"
         id="path198" />
    </g>
  </g>
  <g
     color="#ff0000"
     id="g210"
     transform="translate(-2.2767189,-3.2762188)">
    <a
       style="color:inherit"
       xlink:href="textedit:///Users/tomsegarra/Documents/dev/dummies/lilypond_files/8692c55dc709e16d7ee27757b4d438d8.ly:37:8:9"
       id="a208">
      <g
         transform="translate(57.9912,7.1699)"
         id="g206">
        <path
           transform="scale(0.0034,-0.0034)"
           d="m 215,137 c 67,0 111,-37 111,-92 0,-90 -111,-182 -215,-182 -67,0 -111,37 -111,92 0,90 111,182 215,182 z"
           fill="currentColor"
           id="path204" />
      </g>
    </a>
  </g>
  <g
     color="#ff0000"
     id="g216"
     transform="translate(-2.2767189,-3.2762188)">
    <g
       transform="translate(58.0529,8.0199)"
       id="g214">
      <rect
         x="-0.061700001"
         y="-0.69749999"
         width="0.1233"
         height="2.3975"
         ry="0.039999999"
         fill="currentColor"
         id="rect212" />
    </g>
  </g>
  <g
     color="#ff0000"
     id="g224"
     transform="translate(-2.2767189,-3.2762188)">
    <a
       style="color:inherit"
       xlink:href="textedit:///Users/tomsegarra/Documents/dev/dummies/lilypond_files/8692c55dc709e16d7ee27757b4d438d8.ly:37:12:13"
       id="a222">
      <g
         transform="translate(60.2986,6.7449)"
         id="g220">
        <path
           transform="scale(0.0034,-0.0034)"
           d="m 215,137 c 67,0 111,-37 111,-92 0,-90 -111,-182 -215,-182 -67,0 -111,37 -111,92 0,90 111,182 215,182 z"
           fill="currentColor"
           id="path218" />
      </g>
    </a>
  </g>
  <g
     color="#ff0000"
     id="g230"
     transform="translate(-2.2767189,-3.2762188)">
    <g
       transform="translate(60.3603,8.0199)"
       id="g228">
      <rect
         x="-0.061700001"
         y="-1.1224999"
         width="0.1233"
         height="2.8225"
         ry="0.039999999"
         fill="currentColor"
         id="rect226" />
    </g>
  </g>
  <g
     color="#000000"
     id="g236"
     transform="translate(-2.2767189,-3.2762188)">
    <g
       transform="translate(41.2059,8.0199)"
       id="g234">
      <rect
         x="-0.061700001"
         y="0.1525"
         width="0.1233"
         height="2.3975"
         ry="0.039999999"
         fill="currentColor"
         id="rect232" />
    </g>
  </g>
  <g
     color="#ff0000"
     id="g244"
     transform="translate(-2.2767189,-3.2762188)">
    <a
       style="color:inherit"
       xlink:href="textedit:///Users/tomsegarra/Documents/dev/dummies/lilypond_files/8692c55dc709e16d7ee27757b4d438d8.ly:37:14:15"
       id="a242">
      <g
         transform="translate(62.606,7.1699)"
         id="g240">
        <path
           transform="scale(0.0034,-0.0034)"
           d="m 215,137 c 67,0 111,-37 111,-92 0,-90 -111,-182 -215,-182 -67,0 -111,37 -111,92 0,90 111,182 215,182 z"
           fill="currentColor"
           id="path238" />
      </g>
    </a>
  </g>
  <g
     color="#ff0000"
     id="g250"
     transform="translate(-2.2767189,-3.2762188)">
    <g
       transform="translate(62.6677,8.0199)"
       id="g248">
      <rect
         x="-0.061700001"
         y="-0.69749999"
         width="0.1233"
         height="2.3975"
         ry="0.039999999"
         fill="currentColor"
         id="rect246" />
    </g>
  </g>
  <g
     color="#000000"
     id="g258"
     transform="translate(-2.2767189,-3.2762188)">
    <a
       style="color:inherit"
       xlink:href="textedit:///Users/tomsegarra/Documents/dev/dummies/lilypond_files/8692c55dc709e16d7ee27757b4d438d8.ly:34:20:21"
       id="a256">
      <g
         transform="translate(41.1442,8.0199)"
         id="g254">
        <path
           transform="scale(0.0034,-0.0034)"
           d="m 215,137 c 67,0 111,-37 111,-92 0,-90 -111,-182 -215,-182 -67,0 -111,37 -111,92 0,90 111,182 215,182 z"
           fill="currentColor"
           id="path252" />
      </g>
    </a>
  </g>
  <g
     color="#000000"
     id="g266"
     transform="translate(-2.2767189,-3.2762188)">
    <a
       style="color:inherit"
       xlink:href="textedit:///Users/tomsegarra/Documents/dev/dummies/lilypond_files/8692c55dc709e16d7ee27757b4d438d8.ly:40:4:5"
       id="a264">
      <g
         transform="translate(64.9134,6.7449)"
         id="g262">
        <path
           transform="scale(0.0034,-0.0034)"
           d="m 215,137 c 67,0 111,-37 111,-92 0,-90 -111,-182 -215,-182 -67,0 -111,37 -111,92 0,90 111,182 215,182 z"
           fill="currentColor"
           id="path260" />
      </g>
    </a>
  </g>
  <g
     color="#000000"
     id="g272"
     transform="translate(-2.2767189,-3.2762188)">
    <g
       transform="translate(64.9751,8.0199)"
       id="g270">
      <rect
         x="-0.061700001"
         y="-1.1224999"
         width="0.1233"
         height="2.8225"
         ry="0.039999999"
         fill="currentColor"
         id="rect268" />
    </g>
  </g>
  <a
     style="color:inherit"
     xlink:href="textedit:///Users/tomsegarra/Documents/dev/dummies/lilypond_files/8692c55dc709e16d7ee27757b4d438d8.ly:19:23:24"
     id="a280"
     transform="translate(-2.2767189,-3.2762188)">
    <g
       transform="translate(68.0638,4.9225)"
       id="g278">
      <text
         font-family="sans-serif"
         font-size="2.224px"
         text-anchor="start"
         fill="currentColor"
         id="text276"><tspan
           id="tspan274">F</tspan></text>
    </g>
  </a>
  <g
     color="#000000"
     id="g288"
     transform="translate(-2.2767189,-3.2762188)">
    <a
       style="color:inherit"
       xlink:href="textedit:///Users/tomsegarra/Documents/dev/dummies/lilypond_files/8692c55dc709e16d7ee27757b4d438d8.ly:40:10:11"
       id="a286">
      <g
         transform="translate(68.0638,8.4449)"
         id="g284">
        <path
           transform="scale(0.0034,-0.0034)"
           d="m 215,137 c 67,0 111,-37 111,-92 0,-90 -111,-182 -215,-182 -67,0 -111,37 -111,92 0,90 111,182 215,182 z"
           fill="currentColor"
           id="path282" />
      </g>
    </a>
  </g>
  <g
     color="#000000"
     id="g294"
     transform="translate(-2.2767189,-3.2762188)">
    <g
       transform="translate(69.1096,8.0199)"
       id="g292">
      <rect
         x="-0.061700001"
         y="-2.3934"
         width="0.1233"
         height="2.6659999"
         ry="0.039999999"
         fill="currentColor"
         id="rect290" />
    </g>
  </g>
  <g
     color="#000000"
     id="g302"
     transform="translate(-2.2767189,-3.2762188)">
    <a
       style="color:inherit"
       xlink:href="textedit:///Users/tomsegarra/Documents/dev/dummies/lilypond_files/8692c55dc709e16d7ee27757b4d438d8.ly:40:13:14"
       id="a300">
      <g
         transform="translate(70.3712,8.4449)"
         id="g298">
        <path
           transform="scale(0.0034,-0.0034)"
           d="m 215,137 c 67,0 111,-37 111,-92 0,-90 -111,-182 -215,-182 -67,0 -111,37 -111,92 0,90 111,182 215,182 z"
           fill="currentColor"
           id="path296" />
      </g>
    </a>
  </g>
  <g
     color="#000000"
     id="g308"
     transform="translate(-2.2767189,-3.2762188)">
    <g
       transform="translate(71.4169,8.0199)"
       id="g306">
      <rect
         x="-0.061700001"
         y="-2.3934"
         width="0.1233"
         height="2.6659999"
         ry="0.039999999"
         fill="currentColor"
         id="rect304" />
    </g>
  </g>
  <a
     style="color:inherit"
     xlink:href="textedit:///Users/tomsegarra/Documents/dev/dummies/lilypond_files/8692c55dc709e16d7ee27757b4d438d8.ly:40:15:16"
     id="a314"
     transform="translate(-2.2767189,-3.2762188)">
    <g
       transform="translate(72.6786,8.0199)"
       id="g312">
      <path
         transform="scale(0.0034,-0.0034)"
         d="m 70,205 c 80,0 46,-97 90,-97 15,0 52,45 59,59 6,13 26,13 31,0 L 129,-250 c -9,-7 -19,-11 -30,-11 -11,0 -21,4 -30,11 L 187,76 C 154,64 119,54 84,54 37,54 -3,88 -3,133 c 0,40 33,72 73,72 z"
         fill="currentColor"
         id="path310" />
    </g>
  </a>
  <g
     color="#000000"
     id="g320"
     transform="translate(-2.2767189,-3.2762188)">
    <g
       transform="translate(38.8985,8.0199)"
       id="g318">
      <rect
         x="-0.061700001"
         y="0.1525"
         width="0.1233"
         height="2.3975"
         ry="0.039999999"
         fill="currentColor"
         id="rect316" />
    </g>
  </g>
  <g
     color="#000000"
     id="g328"
     transform="translate(-2.2767189,-3.2762188)">
    <a
       style="color:inherit"
       xlink:href="textedit:///Users/tomsegarra/Documents/dev/dummies/lilypond_files/8692c55dc709e16d7ee27757b4d438d8.ly:40:17:18"
       id="a326">
      <g
         transform="translate(74.7286,8.4449)"
         id="g324">
        <path
           transform="scale(0.0034,-0.0034)"
           d="m 215,137 c 67,0 111,-37 111,-92 0,-90 -111,-182 -215,-182 -67,0 -111,37 -111,92 0,90 111,182 215,182 z"
           fill="currentColor"
           id="path322" />
      </g>
    </a>
  </g>
  <g
     color="#000000"
     id="g334"
     transform="translate(-2.2767189,-3.2762188)">
    <g
       transform="translate(75.7743,8.0199)"
       id="g332">
      <rect
         x="-0.061700001"
         y="-2.55"
         width="0.1233"
         height="2.8225"
         ry="0.039999999"
         fill="currentColor"
         id="rect330" />
    </g>
  </g>
  <g
     color="#000000"
     id="g340"
     transform="translate(-2.2767189,-3.2762188)">
    <g
       transform="translate(75.836,5.5099)"
       id="g338">
      <path
         transform="scale(0.0034,-0.0034)"
         d="m 0,0 c 0,-197 207,-335 207,-532 0,-71 -15,-141 -41,-207 -5,-8 -13,-12 -21,-12 -14,0 -27,11 -24,28 26,60 42,125 42,191 0,103 -93,207 -163,282 H -18 V 0 Z"
         fill="currentColor"
         id="path336" />
    </g>
  </g>
  <g
     color="#000000"
     id="g348"
     transform="translate(-2.2767189,-3.2762188)">
    <a
       style="color:inherit"
       xlink:href="textedit:///Users/tomsegarra/Documents/dev/dummies/lilypond_files/8692c55dc709e16d7ee27757b4d438d8.ly:34:18:19"
       id="a346">
      <g
         transform="translate(38.8368,8.0199)"
         id="g344">
        <path
           transform="scale(0.0034,-0.0034)"
           d="m 215,137 c 67,0 111,-37 111,-92 0,-90 -111,-182 -215,-182 -67,0 -111,37 -111,92 0,90 111,182 215,182 z"
           fill="currentColor"
           id="path342" />
      </g>
    </a>
  </g>
  <g
     color="#000000"
     id="g356"
     transform="translate(-2.2767189,-3.2762188)">
    <a
       style="color:inherit"
       xlink:href="textedit:///Users/tomsegarra/Documents/dev/dummies/lilypond_files/8692c55dc709e16d7ee27757b4d438d8.ly:40:19:20"
       id="a354">
      <g
         transform="translate(77.036,8.4449)"
         id="g352">
        <path
           transform="scale(0.0034,-0.0034)"
           d="m 215,137 c 67,0 111,-37 111,-92 0,-90 -111,-182 -215,-182 -67,0 -111,37 -111,92 0,90 111,182 215,182 z"
           fill="currentColor"
           id="path350" />
      </g>
    </a>
  </g>
  <g
     color="#000000"
     id="g362"
     transform="translate(-2.2767189,-3.2762188)">
    <g
       transform="translate(78.0817,8.0199)"
       id="g360">
      <rect
         x="-0.061700001"
         y="-2.3934"
         width="0.1233"
         height="2.6659999"
         ry="0.039999999"
         fill="currentColor"
         id="rect358" />
    </g>
  </g>
  <g
     color="#000000"
     id="g370"
     transform="translate(-2.2767189,-3.2762188)">
    <a
       style="color:inherit"
       xlink:href="textedit:///Users/tomsegarra/Documents/dev/dummies/lilypond_files/8692c55dc709e16d7ee27757b4d438d8.ly:40:21:22"
       id="a368">
      <g
         transform="translate(79.3434,8.4449)"
         id="g366">
        <path
           transform="scale(0.0034,-0.0034)"
           d="m 215,137 c 67,0 111,-37 111,-92 0,-90 -111,-182 -215,-182 -67,0 -111,37 -111,92 0,90 111,182 215,182 z"
           fill="currentColor"
           id="path364" />
      </g>
    </a>
  </g>
  <g
     color="#000000"
     id="g376"
     transform="translate(-2.2767189,-3.2762188)">
    <g
       transform="translate(80.3891,8.0199)"
       id="g374">
      <rect
         x="-0.061700001"
         y="-2.3934"
         width="0.1233"
         height="2.6659999"
         ry="0.039999999"
         fill="currentColor"
         id="rect372" />
    </g>
  </g>
  <a
     style="color:inherit"
     xlink:href="textedit:///Users/tomsegarra/Documents/dev/dummies/lilypond_files/8692c55dc709e16d7ee27757b4d438d8.ly:40:23:24"
     id="a382"
     transform="translate(-2.2767189,-3.2762188)">
    <g
       transform="translate(81.6508,8.0199)"
       id="g380">
      <path
         transform="scale(0.0034,-0.0034)"
         d="m -8,78 c 0,59 125,83 125,182 0,25 -9,49 -26,69 l -33,40 c -3,4 -4,7 -4,11 0,9 9,17 18,17 4,0 8,-2 12,-6 L 234,212 c 7,-9 11,-18 11,-26 0,-59 -125,-83 -125,-182 0,-25 8,-49 25,-69 l 82,-97 c 3,-4 4,-7 4,-11 0,-9 -8,-17 -17,-17 -10,0 -42,42 -106,42 -19,0 -54,-1 -54,-66 0,-34 10,-73 27,-93 7,-9 -5,-20 -12,-11 -45,53 -93,147 -93,201 0,42 27,42 43,42 31,0 74,-11 113,-27 L 3,52 C -4,61 -8,70 -8,78 Z"
         fill="currentColor"
         id="path378" />
    </g>
  </a>
  <g
     color="#000000"
     id="g388"
     transform="translate(-2.2767189,-3.2762188)">
    <g
       transform="translate(36.6528,10.8487)"
       id="g386">
      <path
         transform="scale(0.0034,-0.0034)"
         d="M 0,0 H -18 V 250 H 0 Z m 0,0 v 250 c 96,59 222,149 222,259 0,57 -15,111 -40,162 -3,17 10,29 24,29 8,0 16,-5 21,-13 25,-56 40,-116 40,-178 C 267,306 0,203 0,0 Z"
         fill="currentColor"
         id="path384" />
    </g>
  </g>
  <g
     color="#000000"
     id="g394"
     transform="translate(-2.2767189,-3.2762188)">
    <g
       transform="translate(36.5911,8.0199)"
       id="g392">
      <rect
         x="-0.061700001"
         y="0.1525"
         width="0.1233"
         height="2.7163"
         ry="0.039999999"
         fill="currentColor"
         id="rect390" />
    </g>
  </g>
  <g
     color="#000000"
     id="g402"
     transform="translate(-2.2767189,-3.2762188)">
    <a
       style="color:inherit"
       xlink:href="textedit:///Users/tomsegarra/Documents/dev/dummies/lilypond_files/8692c55dc709e16d7ee27757b4d438d8.ly:28:4:5"
       id="a400">
      <g
         transform="translate(13.0218,7.5949)"
         id="g398">
        <path
           transform="scale(0.0034,-0.0034)"
           d="m 215,137 c 67,0 111,-37 111,-92 0,-90 -111,-182 -215,-182 -67,0 -111,37 -111,92 0,90 111,182 215,182 z"
           fill="currentColor"
           id="path396" />
      </g>
    </a>
  </g>
  <g
     color="#000000"
     id="g408"
     transform="translate(-2.2767189,-3.2762188)">
    <g
       transform="translate(13.0834,8.0199)"
       id="g406">
      <rect
         x="-0.061700001"
         y="-0.27250001"
         width="0.1233"
         height="2.6659999"
         ry="0.039999999"
         fill="currentColor"
         id="rect404" />
    </g>
  </g>
  <g
     color="#000000"
     id="g416"
     transform="translate(-2.2767189,-3.2762188)">
    <a
       style="color:inherit"
       xlink:href="textedit:///Users/tomsegarra/Documents/dev/dummies/lilypond_files/8692c55dc709e16d7ee27757b4d438d8.ly:34:16:17"
       id="a414">
      <g
         transform="translate(36.5295,8.0199)"
         id="g412">
        <path
           transform="scale(0.0034,-0.0034)"
           d="m 215,137 c 67,0 111,-37 111,-92 0,-90 -111,-182 -215,-182 -67,0 -111,37 -111,92 0,90 111,182 215,182 z"
           fill="currentColor"
           id="path410" />
      </g>
    </a>
  </g>
  <a
     style="color:inherit"
     xlink:href="textedit:///Users/tomsegarra/Documents/dev/dummies/lilypond_files/8692c55dc709e16d7ee27757b4d438d8.ly:28:8:9"
     id="a422"
     transform="translate(-2.2767189,-3.2762188)">
    <g
       transform="translate(15.3292,8.0199)"
       id="g420">
      <path
         transform="scale(0.0034,-0.0034)"
         d="m 70,205 c 80,0 46,-97 90,-97 15,0 52,45 59,59 6,13 26,13 31,0 L 129,-250 c -9,-7 -19,-11 -30,-11 -11,0 -21,4 -30,11 L 187,76 C 154,64 119,54 84,54 37,54 -3,88 -3,133 c 0,40 33,72 73,72 z"
         fill="currentColor"
         id="path418" />
    </g>
  </a>
  <g
     color="#ff0000"
     id="g430"
     transform="translate(-2.2767189,-3.2762188)">
    <a
       style="color:inherit"
       xlink:href="textedit:///Users/tomsegarra/Documents/dev/dummies/lilypond_files/8692c55dc709e16d7ee27757b4d438d8.ly:31:4:5"
       id="a428">
      <g
         transform="translate(17.3792,7.5949)"
         id="g426">
        <path
           transform="scale(0.0034,-0.0034)"
           d="m 215,137 c 67,0 111,-37 111,-92 0,-90 -111,-182 -215,-182 -67,0 -111,37 -111,92 0,90 111,182 215,182 z"
           fill="currentColor"
           id="path424" />
      </g>
    </a>
  </g>
  <g
     color="#ff0000"
     id="g436"
     transform="translate(-2.2767189,-3.2762188)">
    <g
       transform="translate(17.4408,8.0199)"
       id="g434">
      <rect
         x="-0.061700001"
         y="-0.27250001"
         width="0.1233"
         height="2.8225"
         ry="0.039999999"
         fill="currentColor"
         id="rect432" />
    </g>
  </g>
  <g
     color="#ff0000"
     id="g442"
     transform="translate(-2.2767189,-3.2762188)">
    <g
       transform="translate(17.5025,10.5299)"
       id="g440">
      <path
         transform="scale(0.0034,-0.0034)"
         d="M 0,0 H -18 V 250 H 0 Z m 0,0 v 250 c 96,59 222,149 222,259 0,57 -15,111 -40,162 -3,17 10,29 24,29 8,0 16,-5 21,-13 25,-56 40,-116 40,-178 C 267,306 0,203 0,0 Z"
         fill="currentColor"
         id="path438" />
    </g>
  </g>
  <g
     color="#ff0000"
     id="g450"
     transform="translate(-2.2767189,-3.2762188)">
    <a
       style="color:inherit"
       xlink:href="textedit:///Users/tomsegarra/Documents/dev/dummies/lilypond_files/8692c55dc709e16d7ee27757b4d438d8.ly:31:8:9"
       id="a448">
      <g
         transform="translate(19.6865,7.1699)"
         id="g446">
        <path
           transform="scale(0.0034,-0.0034)"
           d="m 215,137 c 67,0 111,-37 111,-92 0,-90 -111,-182 -215,-182 -67,0 -111,37 -111,92 0,90 111,182 215,182 z"
           fill="currentColor"
           id="path444" />
      </g>
    </a>
  </g>
  <g
     color="#ff0000"
     id="g456"
     transform="translate(-2.2767189,-3.2762188)">
    <g
       transform="translate(19.7482,8.0199)"
       id="g454">
      <rect
         x="-0.061700001"
         y="-0.69749999"
         width="0.1233"
         height="2.3975"
         ry="0.039999999"
         fill="currentColor"
         id="rect452" />
    </g>
  </g>
  <g
     color="#ff0000"
     id="g464"
     transform="translate(-2.2767189,-3.2762188)">
    <a
       style="color:inherit"
       xlink:href="textedit:///Users/tomsegarra/Documents/dev/dummies/lilypond_files/8692c55dc709e16d7ee27757b4d438d8.ly:31:12:13"
       id="a462">
      <g
         transform="translate(21.9939,6.7449)"
         id="g460">
        <path
           transform="scale(0.0034,-0.0034)"
           d="m 215,137 c 67,0 111,-37 111,-92 0,-90 -111,-182 -215,-182 -67,0 -111,37 -111,92 0,90 111,182 215,182 z"
           fill="currentColor"
           id="path458" />
      </g>
    </a>
  </g>
  <g
     color="#ff0000"
     id="g470"
     transform="translate(-2.2767189,-3.2762188)">
    <g
       transform="translate(22.0556,8.0199)"
       id="g468">
      <rect
         x="-0.061700001"
         y="-1.1224999"
         width="0.1233"
         height="2.8225"
         ry="0.039999999"
         fill="currentColor"
         id="rect466" />
    </g>
  </g>
  <g
     color="#ff0000"
     id="g478"
     transform="translate(-2.2767189,-3.2762188)">
    <a
       style="color:inherit"
       xlink:href="textedit:///Users/tomsegarra/Documents/dev/dummies/lilypond_files/8692c55dc709e16d7ee27757b4d438d8.ly:31:14:15"
       id="a476">
      <g
         transform="translate(24.3013,7.1699)"
         id="g474">
        <path
           transform="scale(0.0034,-0.0034)"
           d="m 215,137 c 67,0 111,-37 111,-92 0,-90 -111,-182 -215,-182 -67,0 -111,37 -111,92 0,90 111,182 215,182 z"
           fill="currentColor"
           id="path472" />
      </g>
    </a>
  </g>
  <g
     color="#ff0000"
     id="g484"
     transform="translate(-2.2767189,-3.2762188)">
    <g
       transform="translate(24.363,8.0199)"
       id="g482">
      <rect
         x="-0.061700001"
         y="-0.69749999"
         width="0.1233"
         height="2.3975"
         ry="0.039999999"
         fill="currentColor"
         id="rect480" />
    </g>
  </g>
  <a
     style="color:inherit"
     xlink:href="textedit:///Users/tomsegarra/Documents/dev/dummies/lilypond_files/8692c55dc709e16d7ee27757b4d438d8.ly:34:14:15"
     id="a490"
     transform="translate(-2.2767189,-3.2762188)">
    <g
       transform="translate(34.4795,8.0199)"
       id="g488">
      <path
         transform="scale(0.0034,-0.0034)"
         d="m 70,205 c 80,0 46,-97 90,-97 15,0 52,45 59,59 6,13 26,13 31,0 L 129,-250 c -9,-7 -19,-11 -30,-11 -11,0 -21,4 -30,11 L 187,76 C 154,64 119,54 84,54 37,54 -3,88 -3,133 c 0,40 33,72 73,72 z"
         fill="currentColor"
         id="path486" />
    </g>
  </a>
  <g
     color="#000000"
     id="g498"
     transform="translate(-2.2767189,-3.2762188)">
    <a
       style="color:inherit"
       xlink:href="textedit:///Users/tomsegarra/Documents/dev/dummies/lilypond_files/8692c55dc709e16d7ee27757b4d438d8.ly:34:4:5"
       id="a496">
      <g
         transform="translate(26.6087,6.7449)"
         id="g494">
        <path
           transform="scale(0.0034,-0.0034)"
           d="m 215,137 c 67,0 111,-37 111,-92 0,-90 -111,-182 -215,-182 -67,0 -111,37 -111,92 0,90 111,182 215,182 z"
           fill="currentColor"
           id="path492" />
      </g>
    </a>
  </g>
  <g
     color="#000000"
     id="g504"
     transform="translate(-2.2767189,-3.2762188)">
    <g
       transform="translate(26.6704,8.0199)"
       id="g502">
      <rect
         x="-0.061700001"
         y="-1.1224999"
         width="0.1233"
         height="2.8225"
         ry="0.039999999"
         fill="currentColor"
         id="rect500" />
    </g>
  </g>
  <a
     style="color:inherit"
     xlink:href="textedit:///Users/tomsegarra/Documents/dev/dummies/lilypond_files/8692c55dc709e16d7ee27757b4d438d8.ly:19:17:18"
     id="a512"
     transform="translate(-2.2767189,-3.2762188)">
    <g
       transform="translate(29.8647,4.9225)"
       id="g510">
      <text
         font-family="sans-serif"
         font-size="2.224px"
         text-anchor="start"
         fill="currentColor"
         id="text508"><tspan
           id="tspan506">G</tspan></text>
    </g>
  </a>
  <g
     color="#000000"
     id="g520"
     transform="translate(-2.2767189,-3.2762188)">
    <a
       style="color:inherit"
       xlink:href="textedit:///Users/tomsegarra/Documents/dev/dummies/lilypond_files/8692c55dc709e16d7ee27757b4d438d8.ly:34:10:11"
       id="a518">
      <g
         transform="translate(29.8647,8.0199)"
         id="g516">
        <path
           transform="scale(0.0034,-0.0034)"
           d="m 215,137 c 67,0 111,-37 111,-92 0,-90 -111,-182 -215,-182 -67,0 -111,37 -111,92 0,90 111,182 215,182 z"
           fill="currentColor"
           id="path514" />
      </g>
    </a>
  </g>
  <g
     color="#000000"
     id="g526"
     transform="translate(-2.2767189,-3.2762188)">
    <g
       transform="translate(29.9264,8.0199)"
       id="g524">
      <rect
         x="-0.061700001"
         y="0.1525"
         width="0.1233"
         height="2.3975"
         ry="0.039999999"
         fill="currentColor"
         id="rect522" />
    </g>
  </g>
  <g
     color="#000000"
     id="g534"
     transform="translate(-2.2767189,-3.2762188)">
    <a
       style="color:inherit"
       xlink:href="textedit:///Users/tomsegarra/Documents/dev/dummies/lilypond_files/8692c55dc709e16d7ee27757b4d438d8.ly:34:12:13"
       id="a532">
      <g
         transform="translate(32.1721,8.0199)"
         id="g530">
        <path
           transform="scale(0.0034,-0.0034)"
           d="m 215,137 c 67,0 111,-37 111,-92 0,-90 -111,-182 -215,-182 -67,0 -111,37 -111,92 0,90 111,182 215,182 z"
           fill="currentColor"
           id="path528" />
      </g>
    </a>
  </g>
  <g
     color="#000000"
     id="g540"
     transform="translate(-2.2767189,-3.2762188)">
    <g
       transform="translate(32.2337,8.0199)"
       id="g538">
      <rect
         x="-0.061700001"
         y="0.1525"
         width="0.1233"
         height="2.3975"
         ry="0.039999999"
         fill="currentColor"
         id="rect536" />
    </g>
  </g>
</svg>
