<svg xmlns="http://www.w3.org/2000/svg" xmlns:xlink="http://www.w3.org/1999/xlink" version="1.2" width="95.59mm" height="297.00mm" viewBox="0.0000 -0.0000 54.3986 169.0094">
<style type="text/css">
<![CDATA[
tspan { white-space: pre; }
]]>
</style>
<g transform="translate(2.2762, 8.6088)">
<line stroke-linejoin="round" stroke-linecap="round" stroke-width="0.0949" stroke="currentColor" x1="0.0474" y1="0" x2="49.7987" y2="0"/>
</g>
<g transform="translate(2.2762, 7.7588)">
<line stroke-linejoin="round" stroke-linecap="round" stroke-width="0.0949" stroke="currentColor" x1="0.0474" y1="0" x2="49.7987" y2="0"/>
</g>
<g transform="translate(2.2762, 6.9088)">
<line stroke-linejoin="round" stroke-linecap="round" stroke-width="0.0949" stroke="currentColor" x1="0.0474" y1="0" x2="49.7987" y2="0"/>
</g>
<g transform="translate(2.2762, 6.0588)">
<line stroke-linejoin="round" stroke-linecap="round" stroke-width="0.0949" stroke="currentColor" x1="0.0474" y1="0" x2="49.7987" y2="0"/>
</g>
<g transform="translate(2.2762, 5.2088)">
<line stroke-linejoin="round" stroke-linecap="round" stroke-width="0.0949" stroke="currentColor" x1="0.0474" y1="0" x2="49.7987" y2="0"/>
</g>
<g transform="translate(51.9421, 6.9088)">
<rect x="0.0000" y="-1.7000" width="0.1802" height="3.4000" ry="0.0000" fill="currentColor"/>
</g>
<g transform="translate(33.0270, 6.9088)">
<rect x="0.0000" y="-1.7000" width="0.1802" height="3.4000" ry="0.0000" fill="currentColor"/>
</g>
<g transform="translate(21.9132, 6.9088)">
<rect x="0.0000" y="-1.7000" width="0.1802" height="3.4000" ry="0.0000" fill="currentColor"/>
</g>
<g transform="translate(44.9341, 4.5154)">
<polygon stroke-linejoin="round" stroke-linecap="round" stroke-width="0.0800" fill="currentColor" stroke="currentColor" points="2.3907 -0.4771 2.3907 -0.1491 0.0400 0.1640 0.0400 -0.1640"/>
</g>
<a style="color:inherit;" xlink:href="textedit:///Users/tomsegarra/Downloads/dummies/lilypond_files/8d57caa59549b504288d0e84763900d5.ly:20:6:7">
<g transform="translate(10.7144, 6.9088)">
<path transform="scale(0.0034, -0.0034)" d="M364 0h-353c-6 0 -11 5 -11 11v134c0 6 5 11 11 11h353c6 0 11 -5 11 -11v-134c0 -6 -5 -11 -11 -11z" fill="currentColor"/>
</g>
</a>
<g transform="translate(3.0762, 7.7588)">
<path transform="scale(0.0034, -0.0034)" d="M646 2c0 -113 -74 -213 -180 -247c3 -34 5 -68 5 -102c0 -20 -1 -40 -2 -60c-7 -121 -91 -228 -209 -228c-108 0 -196 87 -196 196c0 58 53 104 112 104c54 0 95 -48 95 -104c0 -52 -43 -95 -95 -95c-10 0 -20 2 -29 6c26 -38 68 -63 116 -63h3c93 2 153 92 159 190
c1 19 2 37 2 56c0 30 -2 60 -4 90c-5 -1 -43 -8 -88 -8c-194 0 -333 180 -333 375c0 177 130 307 246 442c-31 98 -53 170 -53 347c0 115 55 223 148 290c7 5 16 4 22 -1c68 -80 134 -243 134 -357c0 -143 -85 -255 -178 -364c21 -68 40 -137 57 -206c1 0 5 1 11 1
c156 0 257 -129 257 -262zM462 -202c66 24 111 88 111 162c0 89 -65 178 -170 190c28 -135 50 -272 59 -352zM75 26c0 -145 141 -245 263 -245c1 0 46 0 81 6c-7 65 -27 206 -61 363c-79 -8 -124 -61 -124 -119c0 -43 25 -89 80 -121c5 -5 7 -11 7 -16
c0 -12 -10 -23 -22 -23c-16 0 -127 63 -127 188c0 89 58 175 161 198c-14 58 -29 116 -46 173c-106 -122 -212 -244 -212 -404zM406 1042c-99 -47 -162 -148 -162 -257c0 -49 13 -111 38 -191c79 97 144 199 144 324c0 33 0 63 -20 124z" fill="currentColor"/>
</g>
<a style="color:inherit;" xlink:href="textedit:///Users/tomsegarra/Downloads/dummies/lilypond_files/8d57caa59549b504288d0e84763900d5.ly:19:6:7">
</a>
<g transform="translate(7.2762, 6.9088)">
<path transform="scale(0.0034, -0.0034)" d="M358 29c-30 0 -74 23 -74 73c0 38 27 76 71 76c4 0 7 0 11 -1c-27 36 -69 59 -116 59c-106 0 -113 -74 -113 -188c0 -15 1 -31 1 -48s-1 -33 -1 -48c0 -114 7 -188 113 -188c79 0 136 70 155 150c2 7 7 10 13 10c7 0 14 -5 14 -13c0 -21 -50 -175 -182 -175
c-59 0 -250 20 -250 264c0 63 18 264 250 264c115 0 174 -109 174 -165c0 -39 -30 -70 -66 -70z" fill="currentColor"/>
</g>
<g transform="translate(12.3685, 6.4838)">
<path transform="scale(0.0034, -0.0034)" d="M0 0c0 31 25 56 56 56s55 -25 55 -56s-24 -56 -55 -56s-56 25 -56 56z" fill="currentColor"/>
</g>
<a style="color:inherit;" xlink:href="textedit:///Users/tomsegarra/Downloads/dummies/lilypond_files/8d57caa59549b504288d0e84763900d5.ly:20:51:52">
<g transform="translate(46.2574, 6.9088)">
<path stroke-width="0.0759" stroke-linejoin="round" stroke-linecap="round" stroke="currentColor" fill="currentColor" d="M1.4382 -1.0413C1.7677 -1.4604 2.3316 -1.4604 2.6611 -1.0413L2.6611 -1.0413C2.3316 -1.3466 1.7677 -1.3466 1.4382 -1.0413z"/>
</g>
</a>
<a style="color:inherit;" xlink:href="textedit:///Users/tomsegarra/Downloads/dummies/lilypond_files/8d57caa59549b504288d0e84763900d5.ly:20:10:11">
<g transform="translate(16.2913, 7.7588)">
<path transform="scale(0.0034, -0.0034)" d="M215 137c67 0 111 -37 111 -92c0 -90 -111 -182 -215 -182c-67 0 -111 37 -111 92c0 90 111 182 215 182z" fill="currentColor"/>
</g>
</a>
<a style="color:inherit;" xlink:href="textedit:///Users/tomsegarra/Downloads/dummies/lilypond_files/8d57caa59549b504288d0e84763900d5.ly:23:8:9">
<g transform="translate(14.2843, 12.4088)">
<text font-family="serif" font-size="2.0989" text-anchor="start" fill="currentColor">
<tspan>Cause</tspan>
</text>
</g>
</a>
<g transform="translate(16.3530, 6.9088)">
<rect x="-0.0617" y="1.0025" width="0.1233" height="1.9486" ry="0.0400" fill="currentColor"/>
</g>
<a style="color:inherit;" xlink:href="textedit:///Users/tomsegarra/Downloads/dummies/lilypond_files/8d57caa59549b504288d0e84763900d5.ly:20:14:15">
<g transform="translate(19.8558, 4.7838)">
<path transform="scale(0.0034, -0.0034)" d="M215 137c67 0 111 -37 111 -92c0 -90 -111 -182 -215 -182c-67 0 -111 37 -111 92c0 90 111 182 215 182z" fill="currentColor"/>
</g>
</a>
<a style="color:inherit;" xlink:href="textedit:///Users/tomsegarra/Downloads/dummies/lilypond_files/8d57caa59549b504288d0e84763900d5.ly:23:14:15">
<g transform="translate(19.8558, 12.4088)">
<text font-family="serif" font-size="2.0989" text-anchor="start" fill="currentColor">
<tspan>I</tspan>
</text>
</g>
</a>
<g transform="translate(19.9174, 6.9088)">
<rect x="-0.0617" y="-1.9725" width="0.1233" height="3.5399" ry="0.0400" fill="currentColor"/>
</g>
<a style="color:inherit;" xlink:href="textedit:///Users/tomsegarra/Downloads/dummies/lilypond_files/8d57caa59549b504288d0e84763900d5.ly:20:46:47">
<g transform="translate(41.6426, 6.9088)">
<path stroke-width="0.0759" stroke-linejoin="round" stroke-linecap="round" stroke="currentColor" fill="currentColor" d="M0.7537 1.0413C1.2242 1.5974 2.1905 1.5974 2.6611 1.0413L2.6611 1.0413C2.1905 1.4836 1.2242 1.4836 0.7537 1.0413z"/>
</g>
</a>
<a style="color:inherit;" xlink:href="textedit:///Users/tomsegarra/Downloads/dummies/lilypond_files/8d57caa59549b504288d0e84763900d5.ly:20:21:22">
<g transform="translate(23.1511, 4.7838)">
<path transform="scale(0.0034, -0.0034)" d="M312 64c0 23 -18 41 -41 41c-39 0 -201 -110 -228 -142c-7 -8 -10 -17 -10 -27c0 -23 18 -41 41 -41c39 0 201 110 228 142c7 8 10 17 10 27zM259 137c46 0 86 -17 86 -74c0 -26 -15 -112 -73 -151c-29 -20 -89 -49 -186 -49c-46 0 -86 17 -86 74c0 26 16 112 74 151
c29 20 88 49 185 49z" fill="currentColor"/>
</g>
</a>
<g transform="translate(24.7037, 4.7838)">
<path transform="scale(0.0034, -0.0034)" d="M0 0c0 31 25 56 56 56s55 -25 55 -56s-24 -56 -55 -56s-56 25 -56 56z" fill="currentColor"/>
</g>
<g transform="translate(23.2128, 6.9088)">
<rect x="-0.0617" y="-1.9100" width="0.1233" height="2.7600" ry="0.0400" fill="currentColor"/>
</g>
<g transform="translate(34.2928, 7.6022)">
<polygon stroke-linejoin="round" stroke-linecap="round" stroke-width="0.0800" fill="currentColor" stroke="currentColor" points="3.0757 0.1491 3.0757 0.4771 0.0400 0.1640 0.0400 -0.1640"/>
</g>
<a style="color:inherit;" xlink:href="textedit:///Users/tomsegarra/Downloads/dummies/lilypond_files/8d57caa59549b504288d0e84763900d5.ly:20:26:27">
<g transform="translate(28.6266, 4.7838)">
<path transform="scale(0.0034, -0.0034)" d="M215 137c67 0 111 -37 111 -92c0 -90 -111 -182 -215 -182c-67 0 -111 37 -111 92c0 90 111 182 215 182z" fill="currentColor"/>
</g>
</a>
<g transform="translate(28.6882, 6.9088)">
<rect x="-0.0617" y="-1.9725" width="0.1233" height="2.6660" ry="0.0400" fill="currentColor"/>
</g>
<a style="color:inherit;" xlink:href="textedit:///Users/tomsegarra/Downloads/dummies/lilypond_files/8d57caa59549b504288d0e84763900d5.ly:20:29:30">
<g transform="translate(30.9339, 4.7838)">
<path transform="scale(0.0034, -0.0034)" d="M215 137c67 0 111 -37 111 -92c0 -90 -111 -182 -215 -182c-67 0 -111 37 -111 92c0 90 111 182 215 182z" fill="currentColor"/>
</g>
</a>
<a style="color:inherit;" xlink:href="textedit:///Users/tomsegarra/Downloads/dummies/lilypond_files/8d57caa59549b504288d0e84763900d5.ly:23:16:17">
<g transform="translate(30.9339, 12.4088)">
<text font-family="serif" font-size="2.0989" text-anchor="start" fill="currentColor">
<tspan>won</tspan>
</text>
</g>
</a>
<g transform="translate(30.9956, 6.9088)">
<rect x="-0.0617" y="-1.9725" width="0.1233" height="2.6660" ry="0.0400" fill="currentColor"/>
</g>
<g transform="translate(28.6266, 7.6022)">
<polygon stroke-linejoin="round" stroke-linecap="round" stroke-width="0.0800" fill="currentColor" stroke="currentColor" points="2.3907 -0.1640 2.3907 0.1640 0.0400 0.1640 0.0400 -0.1640"/>
</g>
<a style="color:inherit;" xlink:href="textedit:///Users/tomsegarra/Downloads/dummies/lilypond_files/8d57caa59549b504288d0e84763900d5.ly:20:36:37">
<g transform="translate(34.2928, 4.7838)">
<path transform="scale(0.0034, -0.0034)" d="M215 137c67 0 111 -37 111 -92c0 -90 -111 -182 -215 -182c-67 0 -111 37 -111 92c0 90 111 182 215 182z" fill="currentColor"/>
</g>
</a>
<g transform="translate(34.3545, 6.9088)">
<rect x="-0.0617" y="-1.9725" width="0.1233" height="2.6722" ry="0.0400" fill="currentColor"/>
</g>
<a style="color:inherit;" xlink:href="textedit:///Users/tomsegarra/Downloads/dummies/lilypond_files/8d57caa59549b504288d0e84763900d5.ly:20:30:31">
<g transform="translate(30.9339, 6.9088)">
<path stroke-width="0.0759" stroke-linejoin="round" stroke-linecap="round" stroke="currentColor" fill="currentColor" d="M0.7537 -2.9750C1.3998 -3.6667 3.0665 -3.6667 3.7126 -2.9750L3.7126 -2.9750C3.0665 -3.5529 1.3998 -3.5529 0.7537 -2.9750z"/>
</g>
</a>
<a style="color:inherit;" xlink:href="textedit:///Users/tomsegarra/Downloads/dummies/lilypond_files/8d57caa59549b504288d0e84763900d5.ly:20:38:39">
<g transform="translate(37.2852, 5.2088)">
<path transform="scale(0.0034, -0.0034)" d="M215 137c67 0 111 -37 111 -92c0 -90 -111 -182 -215 -182c-67 0 -111 37 -111 92c0 90 111 182 215 182z" fill="currentColor"/>
</g>
</a>
<a style="color:inherit;" xlink:href="textedit:///Users/tomsegarra/Downloads/dummies/lilypond_files/8d57caa59549b504288d0e84763900d5.ly:23:23:24">
<g transform="translate(36.5073, 12.4088)">
<text font-family="serif" font-size="2.0989" text-anchor="start" fill="currentColor">
<tspan>der</tspan>
</text>
</g>
</a>
<g transform="translate(37.3469, 6.9088)">
<rect x="-0.0617" y="-1.5475" width="0.1233" height="2.5479" ry="0.0400" fill="currentColor"/>
</g>
<g transform="translate(36.0002, 5.2088)">
<path transform="scale(0.0034, -0.0034)" d="M0 117c0 9 6 18 15 21l43 16v157c0 11 8 19 19 19s20 -8 20 -19v-142l81 30v156c0 11 9 20 20 20s19 -9 19 -20v-142l28 11c3 1 5 1 8 1c12 0 22 -10 22 -23v-57c0 -9 -6 -18 -15 -21l-43 -16v-157l28 10c3 1 5 1 8 1c12 0 22 -9 22 -22v-57c0 -9 -6 -18 -15 -21l-43 -16
v-157c0 -11 -8 -19 -19 -19s-20 8 -20 19v142l-81 -30v-156c0 -11 -9 -20 -20 -20s-19 9 -19 20v142l-28 -11c-3 -1 -5 -1 -8 -1c-12 0 -22 10 -22 23v57c0 9 6 18 15 21l43 16v157l-28 -10c-3 -1 -5 -1 -8 -1c-12 0 -22 9 -22 22v57zM178 94l-81 -30v-158l81 30v158z" fill="currentColor"/>
</g>
<a style="color:inherit;" xlink:href="textedit:///Users/tomsegarra/Downloads/dummies/lilypond_files/8d57caa59549b504288d0e84763900d5.ly:23:20:21">
<g transform="translate(35.2002, 12.4088)">
<rect x="0.0000" y="-0.5433" width="0.6600" height="0.1233" ry="0.0379" fill="currentColor"/>
</g>
</a>
<a style="color:inherit;" xlink:href="textedit:///Users/tomsegarra/Downloads/dummies/lilypond_files/8d57caa59549b504288d0e84763900d5.ly:20:42:43">
<g transform="translate(39.5926, 6.9088)">
<path transform="scale(0.0034, -0.0034)" d="M70 205c80 0 46 -97 90 -97c15 0 52 45 59 59c6 13 26 13 31 0l-121 -417c-9 -7 -19 -11 -30 -11s-21 4 -30 11l118 326c-33 -12 -68 -22 -103 -22c-47 0 -87 34 -87 79c0 40 33 72 73 72z" fill="currentColor"/>
</g>
</a>
<a style="color:inherit;" xlink:href="textedit:///Users/tomsegarra/Downloads/dummies/lilypond_files/8d57caa59549b504288d0e84763900d5.ly:20:44:45">
<g transform="translate(41.6426, 7.3338)">
<path transform="scale(0.0034, -0.0034)" d="M215 137c67 0 111 -37 111 -92c0 -90 -111 -182 -215 -182c-67 0 -111 37 -111 92c0 90 111 182 215 182z" fill="currentColor"/>
</g>
</a>
<a style="color:inherit;" xlink:href="textedit:///Users/tomsegarra/Downloads/dummies/lilypond_files/8d57caa59549b504288d0e84763900d5.ly:23:27:28">
<g transform="translate(41.6426, 12.4088)">
<text font-family="serif" font-size="2.0989" text-anchor="start" fill="currentColor">
<tspan>some</tspan>
</text>
</g>
</a>
<g transform="translate(42.6883, 6.9088)">
<rect x="-0.0617" y="-2.5500" width="0.1233" height="2.8225" ry="0.0400" fill="currentColor"/>
</g>
<g transform="translate(42.7500, 4.3988)">
<path transform="scale(0.0034, -0.0034)" d="M0 0c0 -197 207 -335 207 -532c0 -71 -15 -141 -41 -207c-5 -8 -13 -12 -21 -12c-14 0 -27 11 -24 28c26 60 42 125 42 191c0 103 -93 207 -163 282h-18v250h18z" fill="currentColor"/>
</g>
<a style="color:inherit;" xlink:href="textedit:///Users/tomsegarra/Downloads/dummies/lilypond_files/8d57caa59549b504288d0e84763900d5.ly:20:24:25">
<g transform="translate(23.1511, 6.9088)">
<path stroke-width="0.0759" stroke-linejoin="round" stroke-linecap="round" stroke="currentColor" fill="currentColor" d="M0.7867 -2.9750C1.6838 -3.8012 4.9321 -3.8012 5.8291 -2.9750L5.8291 -2.9750C4.9321 -3.6874 1.6838 -3.6874 0.7867 -2.9750z"/>
</g>
</a>
<a style="color:inherit;" xlink:href="textedit:///Users/tomsegarra/Downloads/dummies/lilypond_files/8d57caa59549b504288d0e84763900d5.ly:20:48:49">
<g transform="translate(43.9500, 7.3338)">
<path transform="scale(0.0034, -0.0034)" d="M215 137c67 0 111 -37 111 -92c0 -90 -111 -182 -215 -182c-67 0 -111 37 -111 92c0 90 111 182 215 182z" fill="currentColor"/>
</g>
</a>
<g transform="translate(44.9957, 6.9088)">
<rect x="-0.0617" y="-2.4014" width="0.1233" height="2.6739" ry="0.0400" fill="currentColor"/>
</g>
<a style="color:inherit;" xlink:href="textedit:///Users/tomsegarra/Downloads/dummies/lilypond_files/8d57caa59549b504288d0e84763900d5.ly:20:50:51">
<g transform="translate(46.2574, 6.9088)">
<path transform="scale(0.0034, -0.0034)" d="M215 137c67 0 111 -37 111 -92c0 -90 -111 -182 -215 -182c-67 0 -111 37 -111 92c0 90 111 182 215 182z" fill="currentColor"/>
</g>
</a>
<a style="color:inherit;" xlink:href="textedit:///Users/tomsegarra/Downloads/dummies/lilypond_files/8d57caa59549b504288d0e84763900d5.ly:23:35:36">
<g transform="translate(46.2574, 12.4088)">
<text font-family="serif" font-size="2.0989" text-anchor="start" fill="currentColor">
<tspan>times</tspan>
</text>
</g>
</a>
<g transform="translate(47.3031, 6.9088)">
<rect x="-0.0617" y="-2.6986" width="0.1233" height="2.5462" ry="0.0400" fill="currentColor"/>
</g>
<g transform="translate(16.2913, 9.8838)">
<polygon stroke-linejoin="round" stroke-linecap="round" stroke-width="0.0800" fill="currentColor" stroke="currentColor" points="3.6478 -1.5956 3.6478 -1.2676 0.0400 0.1640 0.0400 -0.1640"/>
</g>
<a style="color:inherit;" xlink:href="textedit:///Users/tomsegarra/Downloads/dummies/lilypond_files/8d57caa59549b504288d0e84763900d5.ly:20:53:54">
<g transform="translate(48.5648, 6.9088)">
<path transform="scale(0.0034, -0.0034)" d="M215 137c67 0 111 -37 111 -92c0 -90 -111 -182 -215 -182c-67 0 -111 37 -111 92c0 90 111 182 215 182z" fill="currentColor"/>
</g>
</a>
<g transform="translate(48.6264, 6.9088)">
<rect x="-0.0617" y="0.1525" width="0.1233" height="2.6809" ry="0.0400" fill="currentColor"/>
</g>
<a style="color:inherit;" xlink:href="textedit:///Users/tomsegarra/Downloads/dummies/lilypond_files/8d57caa59549b504288d0e84763900d5.ly:20:16:17">
<g transform="translate(19.8558, 6.9088)">
<path stroke-width="0.0759" stroke-linejoin="round" stroke-linecap="round" stroke="currentColor" fill="currentColor" d="M0.7537 -2.9750C1.3953 -3.6637 3.0405 -3.6637 3.6821 -2.9750L3.6821 -2.9750C3.0405 -3.5499 1.3953 -3.5499 0.7537 -2.9750z"/>
</g>
</a>
</svg>
