<?xml version="1.0" encoding="UTF-8" standalone="no"?>
<svg
   version="1.2"
   width="76.373985mm"
   height="16.435087mm"
   viewBox="0 0 43.463403 9.3524722"
   id="svg212"
   sodipodi:docname="9d420fd512daff9c5641ede7d8cf1da9.svg"
   xmlns:inkscape="http://www.inkscape.org/namespaces/inkscape"
   xmlns:sodipodi="http://sodipodi.sourceforge.net/DTD/sodipodi-0.dtd"
   xmlns:xlink="http://www.w3.org/1999/xlink"
   xmlns="http://www.w3.org/2000/svg"
   xmlns:svg="http://www.w3.org/2000/svg">
  <defs
     id="defs216" />
  <sodipodi:namedview
     id="namedview214"
     pagecolor="#ffffff"
     bordercolor="#000000"
     borderopacity="0.25"
     inkscape:showpageshadow="2"
     inkscape:pageopacity="0.0"
     inkscape:pagecheckerboard="0"
     inkscape:deskcolor="#d1d1d1"
     inkscape:document-units="mm" />
  <style
     type="text/css"
     id="style2"><![CDATA[
tspan { white-space: pre; }
]]></style>
  <!-- Page: 1/1 -->
  <g
     transform="translate(4.9997121e-5,5.0997434)"
     id="g6">
    <line
       stroke-linejoin="round"
       stroke-linecap="round"
       stroke-width="0.0949"
       stroke="currentColor"
       x1="0.047400001"
       y1="0"
       x2="43.415901"
       y2="0"
       id="line4" />
  </g>
  <g
     transform="translate(4.9997121e-5,4.2497434)"
     id="g10">
    <line
       stroke-linejoin="round"
       stroke-linecap="round"
       stroke-width="0.0949"
       stroke="currentColor"
       x1="0.047400001"
       y1="0"
       x2="43.415901"
       y2="0"
       id="line8" />
  </g>
  <g
     transform="translate(4.9997121e-5,3.3997434)"
     id="g14">
    <line
       stroke-linejoin="round"
       stroke-linecap="round"
       stroke-width="0.0949"
       stroke="currentColor"
       x1="0.047400001"
       y1="0"
       x2="43.415901"
       y2="0"
       id="line12" />
  </g>
  <g
     transform="translate(4.9997121e-5,2.5497434)"
     id="g18">
    <line
       stroke-linejoin="round"
       stroke-linecap="round"
       stroke-width="0.0949"
       stroke="currentColor"
       x1="0.047400001"
       y1="0"
       x2="43.415901"
       y2="0"
       id="line16" />
  </g>
  <g
     transform="translate(4.9997121e-5,1.6997434)"
     id="g22">
    <line
       stroke-linejoin="round"
       stroke-linecap="round"
       stroke-width="0.0949"
       stroke="currentColor"
       x1="0.047400001"
       y1="0"
       x2="43.415901"
       y2="0"
       id="line20" />
  </g>
  <g
     transform="translate(39.57775,3.3997434)"
     id="g26">
    <rect
       x="0"
       y="-1.7"
       width="0.1802"
       height="3.4000001"
       ry="0.0000"
       fill="currentColor"
       id="rect24" />
  </g>
  <g
     transform="translate(23.52665,3.3997434)"
     id="g30">
    <rect
       x="0"
       y="-1.7"
       width="0.1802"
       height="3.4000001"
       ry="0.0000"
       fill="currentColor"
       id="rect28" />
  </g>
  <a
     style="color:inherit"
     xlink:href="textedit:///Users/tomsegarra/Downloads/dummies/lilypond_files/9d420fd512daff9c5641ede7d8cf1da9.ly:20:4:5"
     id="a36"
     transform="translate(-2.27615,-3.2764566)">
    <g
       transform="translate(13.9694,6.6762)"
       id="g34">
      <path
         transform="scale(0.0034,-0.0034)"
         d="M 364,0 H 11 C 5,0 0,5 0,11 v 134 c 0,6 5,11 11,11 h 353 c 6,0 11,-5 11,-11 V 11 C 375,5 370,0 364,0 Z"
         fill="currentColor"
         id="path32" />
    </g>
  </a>
  <g
     transform="translate(0.80005,4.2497434)"
     id="g40">
    <path
       transform="scale(0.0034,-0.0034)"
       d="m 646,2 c 0,-113 -74,-213 -180,-247 3,-34 5,-68 5,-102 0,-20 -1,-40 -2,-60 -7,-121 -91,-228 -209,-228 -108,0 -196,87 -196,196 0,58 53,104 112,104 54,0 95,-48 95,-104 0,-52 -43,-95 -95,-95 -10,0 -20,2 -29,6 26,-38 68,-63 116,-63 h 3 c 93,2 153,92 159,190 1,19 2,37 2,56 0,30 -2,60 -4,90 -5,-1 -43,-8 -88,-8 -194,0 -333,180 -333,375 0,177 130,307 246,442 -31,98 -53,170 -53,347 0,115 55,223 148,290 7,5 16,4 22,-1 68,-80 134,-243 134,-357 0,-143 -85,-255 -178,-364 21,-68 40,-137 57,-206 1,0 5,1 11,1 C 545,264 646,135 646,2 Z M 462,-202 c 66,24 111,88 111,162 0,89 -65,178 -170,190 28,-135 50,-272 59,-352 z M 75,26 c 0,-145 141,-245 263,-245 1,0 46,0 81,6 -7,65 -27,206 -61,363 -79,-8 -124,-61 -124,-119 0,-43 25,-89 80,-121 5,-5 7,-11 7,-16 0,-12 -10,-23 -22,-23 -16,0 -127,63 -127,188 0,89 58,175 161,198 -14,58 -29,116 -46,173 C 181,308 75,186 75,26 Z M 406,1042 C 307,995 244,894 244,785 c 0,-49 13,-111 38,-191 79,97 144,199 144,324 0,33 0,63 -20,124 z"
       fill="currentColor"
       id="path38" />
  </g>
  <a
     style="color:inherit"
     xlink:href="textedit:///Users/tomsegarra/Downloads/dummies/lilypond_files/9d420fd512daff9c5641ede7d8cf1da9.ly:19:4:5"
     id="a54"
     transform="translate(-2.27615,-3.2764566)">
    <g
       transform="translate(6.5762,4.9762)"
       id="g44">
      <path
         transform="scale(0.0034,-0.0034)"
         d="m 217,-311 c 0,-11 -8,-19 -19,-19 -11,0 -20,8 -20,19 v 142 l -81,-30 v -156 c 0,-11 -9,-20 -20,-20 -11,0 -19,9 -19,20 v 142 l -28,-11 c -3,-1 -5,-1 -8,-1 -12,0 -22,10 -22,23 v 57 c 0,9 6,18 15,21 l 43,16 V 49 L 30,39 C 27,38 25,38 22,38 10,38 0,47 0,60 v 57 c 0,9 6,18 15,21 l 43,16 v 157 c 0,11 8,19 19,19 11,0 20,-8 20,-19 V 169 l 81,30 v 156 c 0,11 9,20 20,20 11,0 19,-9 19,-20 V 213 l 28,11 c 3,1 5,1 8,1 12,0 22,-10 22,-23 v -57 c 0,-9 -6,-18 -15,-21 L 217,108 V -49 l 28,10 c 3,1 5,1 8,1 12,0 22,-9 22,-22 v -57 c 0,-9 -6,-18 -15,-21 l -43,-16 z M 97,64 V -94 l 81,30 V 94 Z"
         fill="currentColor"
         id="path42" />
    </g>
    <g
       transform="translate(7.5112,6.2512)"
       id="g48">
      <path
         transform="scale(0.0034,-0.0034)"
         d="m 217,-311 c 0,-11 -8,-19 -19,-19 -11,0 -20,8 -20,19 v 142 l -81,-30 v -156 c 0,-11 -9,-20 -20,-20 -11,0 -19,9 -19,20 v 142 l -28,-11 c -3,-1 -5,-1 -8,-1 -12,0 -22,10 -22,23 v 57 c 0,9 6,18 15,21 l 43,16 V 49 L 30,39 C 27,38 25,38 22,38 10,38 0,47 0,60 v 57 c 0,9 6,18 15,21 l 43,16 v 157 c 0,11 8,19 19,19 11,0 20,-8 20,-19 V 169 l 81,30 v 156 c 0,11 9,20 20,20 11,0 19,-9 19,-20 V 213 l 28,11 c 3,1 5,1 8,1 12,0 22,-10 22,-23 v -57 c 0,-9 -6,-18 -15,-21 L 217,108 V -49 l 28,10 c 3,1 5,1 8,1 12,0 22,-9 22,-22 v -57 c 0,-9 -6,-18 -15,-21 l -43,-16 z M 97,64 V -94 l 81,30 V 94 Z"
         fill="currentColor"
         id="path46" />
    </g>
    <g
       transform="translate(8.4462,4.5512)"
       id="g52">
      <path
         transform="scale(0.0034,-0.0034)"
         d="m 217,-311 c 0,-11 -8,-19 -19,-19 -11,0 -20,8 -20,19 v 142 l -81,-30 v -156 c 0,-11 -9,-20 -20,-20 -11,0 -19,9 -19,20 v 142 l -28,-11 c -3,-1 -5,-1 -8,-1 -12,0 -22,10 -22,23 v 57 c 0,9 6,18 15,21 l 43,16 V 49 L 30,39 C 27,38 25,38 22,38 10,38 0,47 0,60 v 57 c 0,9 6,18 15,21 l 43,16 v 157 c 0,11 8,19 19,19 11,0 20,-8 20,-19 V 169 l 81,30 v 156 c 0,11 9,20 20,20 11,0 19,-9 19,-20 V 213 l 28,11 c 3,1 5,1 8,1 12,0 22,-10 22,-23 v -57 c 0,-9 -6,-18 -15,-21 L 217,108 V -49 l 28,10 c 3,1 5,1 8,1 12,0 22,-9 22,-22 v -57 c 0,-9 -6,-18 -15,-21 l -43,-16 z M 97,64 V -94 l 81,30 V 94 Z"
         fill="currentColor"
         id="path50" />
    </g>
  </a>
  <g
     transform="translate(8.25505,3.3997434)"
     id="g58">
    <path
       transform="scale(0.0034,-0.0034)"
       d="m 358,29 c -30,0 -74,23 -74,73 0,38 27,76 71,76 4,0 7,0 11,-1 -27,36 -69,59 -116,59 -106,0 -113,-74 -113,-188 0,-15 1,-31 1,-48 0,-17 -1,-33 -1,-48 0,-114 7,-188 113,-188 79,0 136,70 155,150 2,7 7,10 13,10 7,0 14,-5 14,-13 0,-21 -50,-175 -182,-175 C 191,-264 0,-244 0,0 0,63 18,264 250,264 365,264 424,155 424,99 424,60 394,29 358,29 Z"
       fill="currentColor"
       id="path56" />
  </g>
  <a
     style="color:inherit"
     xlink:href="textedit:///Users/tomsegarra/Downloads/dummies/lilypond_files/9d420fd512daff9c5641ede7d8cf1da9.ly:20:15:16"
     id="a64"
     transform="translate(-2.27615,-3.2764566)">
    <g
       transform="translate(27.2198,6.2512)"
       id="g62">
      <path
         transform="scale(0.0034,-0.0034)"
         d="m 215,137 c 67,0 111,-37 111,-92 0,-90 -111,-182 -215,-182 -67,0 -111,37 -111,92 0,90 111,182 215,182 z"
         fill="currentColor"
         id="path60" />
    </g>
  </a>
  <a
     style="color:inherit"
     xlink:href="textedit:///Users/tomsegarra/Downloads/dummies/lilypond_files/9d420fd512daff9c5641ede7d8cf1da9.ly:24:14:15"
     id="a72"
     transform="translate(-2.27615,-3.2764566)">
    <g
       transform="translate(24.9054,12.1762)"
       id="g70">
      <text
         font-family="serif"
         font-size="2.0989px"
         text-anchor="start"
         fill="currentColor"
         id="text68"><tspan
           id="tspan66">known</tspan></text>
    </g>
  </a>
  <g
     transform="translate(25.00525,3.3997434)"
     id="g76">
    <rect
       x="-0.061700001"
       y="-0.27250001"
       width="0.1233"
       height="2.8225"
       ry="0.039999999"
       fill="currentColor"
       id="rect74" />
  </g>
  <a
     style="color:inherit"
     xlink:href="textedit:///Users/tomsegarra/Downloads/dummies/lilypond_files/9d420fd512daff9c5641ede7d8cf1da9.ly:20:19:20"
     id="a82"
     transform="translate(-2.27615,-3.2764566)">
    <g
       transform="translate(32.0572,6.6762)"
       id="g80">
      <path
         transform="scale(0.0034,-0.0034)"
         d="m 215,137 c 67,0 111,-37 111,-92 0,-90 -111,-182 -215,-182 -67,0 -111,37 -111,92 0,90 111,182 215,182 z"
         fill="currentColor"
         id="path78" />
    </g>
  </a>
  <a
     style="color:inherit"
     xlink:href="textedit:///Users/tomsegarra/Downloads/dummies/lilypond_files/9d420fd512daff9c5641ede7d8cf1da9.ly:24:20:21"
     id="a90"
     transform="translate(-2.27615,-3.2764566)">
    <g
       transform="translate(31.0915,12.1762)"
       id="g88">
      <text
         font-family="serif"
         font-size="2.0989px"
         text-anchor="start"
         fill="currentColor"
         id="text86"><tspan
           id="tspan84">this</tspan></text>
    </g>
  </a>
  <g
     transform="translate(29.84265,3.3997434)"
     id="g94">
    <rect
       x="-0.061700001"
       y="0.1525"
       width="0.1233"
       height="2.6809001"
       ry="0.039999999"
       fill="currentColor"
       id="rect92" />
  </g>
  <a
     style="color:inherit"
     xlink:href="textedit:///Users/tomsegarra/Downloads/dummies/lilypond_files/9d420fd512daff9c5641ede7d8cf1da9.ly:20:21:22"
     id="a100"
     transform="translate(-2.27615,-3.2764566)">
    <g
       transform="translate(35.0679,7.1012)"
       id="g98">
      <path
         transform="scale(0.0034,-0.0034)"
         d="m 215,137 c 67,0 111,-37 111,-92 0,-90 -111,-182 -215,-182 -67,0 -111,37 -111,92 0,90 111,182 215,182 z"
         fill="currentColor"
         id="path96" />
    </g>
  </a>
  <a
     style="color:inherit"
     xlink:href="textedit:///Users/tomsegarra/Downloads/dummies/lilypond_files/9d420fd512daff9c5641ede7d8cf1da9.ly:24:25:26"
     id="a108"
     transform="translate(-2.27615,-3.2764566)">
    <g
       transform="translate(34.5803,12.1762)"
       id="g106">
      <text
         font-family="serif"
         font-size="2.0989px"
         text-anchor="start"
         fill="currentColor"
         id="text104"><tspan
           id="tspan102">all</tspan></text>
    </g>
  </a>
  <g
     transform="translate(33.83755,3.3997434)"
     id="g112">
    <rect
       x="-0.061700001"
       y="-2.55"
       width="0.1233"
       height="2.8225"
       ry="0.039999999"
       fill="currentColor"
       id="rect110" />
  </g>
  <a
     style="color:inherit"
     xlink:href="textedit:///Users/tomsegarra/Downloads/dummies/lilypond_files/9d420fd512daff9c5641ede7d8cf1da9.ly:24:31:32"
     id="a118"
     transform="translate(-2.27615,-3.2764566)">
    <g
       transform="translate(39.0044,12.1762)"
       id="g116">
      <rect
         x="0"
         y="-0.54329997"
         width="0.66000003"
         height="0.1233"
         ry="0.037900001"
         fill="currentColor"
         id="rect114" />
    </g>
  </a>
  <a
     style="color:inherit"
     xlink:href="textedit:///Users/tomsegarra/Downloads/dummies/lilypond_files/9d420fd512daff9c5641ede7d8cf1da9.ly:20:23:24"
     id="a124"
     transform="translate(-2.27615,-3.2764566)">
    <g
       transform="translate(37.8734,6.6762)"
       id="g122">
      <path
         transform="scale(0.0034,-0.0034)"
         d="m 215,137 c 67,0 111,-37 111,-92 0,-90 -111,-182 -215,-182 -67,0 -111,37 -111,92 0,90 111,182 215,182 z"
         fill="currentColor"
         id="path120" />
    </g>
  </a>
  <a
     style="color:inherit"
     xlink:href="textedit:///Users/tomsegarra/Downloads/dummies/lilypond_files/9d420fd512daff9c5641ede7d8cf1da9.ly:24:29:30"
     id="a132"
     transform="translate(-2.27615,-3.2764566)">
    <g
       transform="translate(37.9661,12.1762)"
       id="g130">
      <text
         font-family="serif"
         font-size="2.0989px"
         text-anchor="start"
         fill="currentColor"
         id="text128"><tspan
           id="tspan126">a</tspan></text>
    </g>
  </a>
  <g
     transform="translate(36.64295,3.3997434)"
     id="g136">
    <rect
       x="-0.061700001"
       y="-2.6970999"
       width="0.1233"
       height="2.5446"
       ry="0.039999999"
       fill="currentColor"
       id="rect134" />
  </g>
  <a
     style="color:inherit"
     xlink:href="textedit:///Users/tomsegarra/Downloads/dummies/lilypond_files/9d420fd512daff9c5641ede7d8cf1da9.ly:20:27:28"
     id="a142"
     transform="translate(-2.27615,-3.2764566)">
    <g
       transform="translate(39.7807,6.6762)"
       id="g140">
      <path
         stroke-width="0.0759"
         stroke-linejoin="round"
         stroke-linecap="round"
         stroke="currentColor"
         fill="currentColor"
         d="m 0.7537,1.0413 c 0.615,0.6705 2.1383,0.6705 2.7534,0 v 0 C 2.892,1.598 1.3687,1.598 0.7537,1.0413 Z"
         id="path138" />
    </g>
  </a>
  <a
     style="color:inherit"
     xlink:href="textedit:///Users/tomsegarra/Downloads/dummies/lilypond_files/9d420fd512daff9c5641ede7d8cf1da9.ly:20:26:27"
     id="a148"
     transform="translate(-2.27615,-3.2764566)">
    <g
       transform="translate(39.7807,7.1012)"
       id="g146">
      <path
         transform="scale(0.0034,-0.0034)"
         d="m 215,137 c 67,0 111,-37 111,-92 0,-90 -111,-182 -215,-182 -67,0 -111,37 -111,92 0,90 111,182 215,182 z"
         fill="currentColor"
         id="path144" />
    </g>
  </a>
  <a
     style="color:inherit"
     xlink:href="textedit:///Users/tomsegarra/Downloads/dummies/lilypond_files/9d420fd512daff9c5641ede7d8cf1da9.ly:24:34:35"
     id="a156"
     transform="translate(-2.27615,-3.2764566)">
    <g
       transform="translate(39.7807,12.1762)"
       id="g154">
      <text
         font-family="serif"
         font-size="2.0989px"
         text-anchor="start"
         fill="currentColor"
         id="text152"><tspan
           id="tspan150">long</tspan></text>
    </g>
  </a>
  <g
     transform="translate(38.55035,3.3997434)"
     id="g160">
    <rect
       x="-0.061700001"
       y="-2.4029"
       width="0.1233"
       height="2.6754999"
       ry="0.039999999"
       fill="currentColor"
       id="rect158" />
  </g>
  <g
     transform="translate(36.58125,0.69314235)"
     id="g164">
    <polygon
       stroke-linejoin="round"
       stroke-linecap="round"
       stroke-width="0.08"
       fill="currentColor"
       stroke="currentColor"
       points="0.04,0.164 0.04,-0.164 1.9907,0.1491 1.9907,0.4771 "
       id="polygon162" />
  </g>
  <a
     style="color:inherit"
     xlink:href="textedit:///Users/tomsegarra/Downloads/dummies/lilypond_files/9d420fd512daff9c5641ede7d8cf1da9.ly:20:29:30"
     id="a170"
     transform="translate(-2.27615,-3.2764566)">
    <g
       transform="translate(42.9341,7.1012)"
       id="g168">
      <path
         transform="scale(0.0034,-0.0034)"
         d="m 215,137 c 67,0 111,-37 111,-92 0,-90 -111,-182 -215,-182 -67,0 -111,37 -111,92 0,90 111,182 215,182 z"
         fill="currentColor"
         id="path166" />
    </g>
  </a>
  <g
     transform="translate(41.70365,3.3997434)"
     id="g174">
    <rect
       x="-0.061700001"
       y="-2.55"
       width="0.1233"
       height="2.8225"
       ry="0.039999999"
       fill="currentColor"
       id="rect172" />
  </g>
  <a
     style="color:inherit"
     xlink:href="textedit:///Users/tomsegarra/Downloads/dummies/lilypond_files/9d420fd512daff9c5641ede7d8cf1da9.ly:20:7:8"
     id="a180"
     transform="translate(-2.27615,-3.2764566)">
    <g
       transform="translate(18.1424,6.6762)"
       id="g178">
      <path
         transform="scale(0.0034,-0.0034)"
         d="m 215,137 c 67,0 111,-37 111,-92 0,-90 -111,-182 -215,-182 -67,0 -111,37 -111,92 0,90 111,182 215,182 z"
         fill="currentColor"
         id="path176" />
    </g>
  </a>
  <a
     style="color:inherit"
     xlink:href="textedit:///Users/tomsegarra/Downloads/dummies/lilypond_files/9d420fd512daff9c5641ede7d8cf1da9.ly:24:4:5"
     id="a188"
     transform="translate(-2.27615,-3.2764566)">
    <g
       transform="translate(16.4256,12.1762)"
       id="g186">
      <text
         font-family="serif"
         font-size="2.0989px"
         text-anchor="start"
         fill="currentColor"
         id="text184"><tspan
           id="tspan182">when</tspan></text>
    </g>
  </a>
  <g
     transform="translate(15.92795,3.3997434)"
     id="g192">
    <rect
       x="-0.061700001"
       y="0.1525"
       width="0.1233"
       height="2.6809001"
       ry="0.039999999"
       fill="currentColor"
       id="rect190" />
  </g>
  <a
     style="color:inherit"
     xlink:href="textedit:///Users/tomsegarra/Downloads/dummies/lilypond_files/9d420fd512daff9c5641ede7d8cf1da9.ly:20:11:12"
     id="a198"
     transform="translate(-2.27615,-3.2764566)">
    <g
       transform="translate(22.3824,6.2512)"
       id="g196">
      <path
         transform="scale(0.0034,-0.0034)"
         d="m 215,137 c 67,0 111,-37 111,-92 0,-90 -111,-182 -215,-182 -67,0 -111,37 -111,92 0,90 111,182 215,182 z"
         fill="currentColor"
         id="path194" />
    </g>
  </a>
  <a
     style="color:inherit"
     xlink:href="textedit:///Users/tomsegarra/Downloads/dummies/lilypond_files/9d420fd512daff9c5641ede7d8cf1da9.ly:24:9:10"
     id="a206"
     transform="translate(-2.27615,-3.2764566)">
    <g
       transform="translate(21.4167,12.1762)"
       id="g204">
      <text
         font-family="serif"
         font-size="2.0989px"
         text-anchor="start"
         fill="currentColor"
         id="text202"><tspan
           id="tspan200">I've</tspan></text>
    </g>
  </a>
  <g
     transform="translate(20.16785,3.3997434)"
     id="g210">
    <rect
       x="-0.061700001"
       y="-0.27250001"
       width="0.1233"
       height="2.8225"
       ry="0.039999999"
       fill="currentColor"
       id="rect208" />
  </g>
</svg>
