<?xml version="1.0" encoding="UTF-8" standalone="no"?>
<svg
   version="1.2"
   width="60.933575mm"
   height="16.103054mm"
   viewBox="0 0 34.674701 9.1635269"
   id="svg196"
   sodipodi:docname="9e66320d64208fe13c2f0f0602586030.svg"
   xmlns:inkscape="http://www.inkscape.org/namespaces/inkscape"
   xmlns:sodipodi="http://sodipodi.sourceforge.net/DTD/sodipodi-0.dtd"
   xmlns:xlink="http://www.w3.org/1999/xlink"
   xmlns="http://www.w3.org/2000/svg"
   xmlns:svg="http://www.w3.org/2000/svg">
  <defs
     id="defs200" />
  <sodipodi:namedview
     id="namedview198"
     pagecolor="#ffffff"
     bordercolor="#000000"
     borderopacity="0.25"
     inkscape:showpageshadow="2"
     inkscape:pageopacity="0.0"
     inkscape:pagecheckerboard="0"
     inkscape:deskcolor="#d1d1d1"
     inkscape:document-units="mm" />
  <style
     type="text/css"
     id="style2"><![CDATA[
tspan { white-space: pre; }
]]></style>
  <g
     transform="translate(4.9997121e-5,4.9102551)"
     id="g6">
    <line
       stroke-linejoin="round"
       stroke-linecap="round"
       stroke-width="0.0949"
       stroke="currentColor"
       x1="0.047400001"
       y1="0"
       x2="34.627201"
       y2="0"
       id="line4" />
  </g>
  <g
     transform="translate(4.9997121e-5,4.0602551)"
     id="g10">
    <line
       stroke-linejoin="round"
       stroke-linecap="round"
       stroke-width="0.0949"
       stroke="currentColor"
       x1="0.047400001"
       y1="0"
       x2="34.627201"
       y2="0"
       id="line8" />
  </g>
  <g
     transform="translate(4.9997121e-5,3.2102551)"
     id="g14">
    <line
       stroke-linejoin="round"
       stroke-linecap="round"
       stroke-width="0.0949"
       stroke="currentColor"
       x1="0.047400001"
       y1="0"
       x2="34.627201"
       y2="0"
       id="line12" />
  </g>
  <g
     transform="translate(4.9997121e-5,2.3602551)"
     id="g18">
    <line
       stroke-linejoin="round"
       stroke-linecap="round"
       stroke-width="0.0949"
       stroke="currentColor"
       x1="0.047400001"
       y1="0"
       x2="34.627201"
       y2="0"
       id="line16" />
  </g>
  <g
     transform="translate(4.9997121e-5,1.5102551)"
     id="g22">
    <line
       stroke-linejoin="round"
       stroke-linecap="round"
       stroke-width="0.0949"
       stroke="currentColor"
       x1="0.047400001"
       y1="0"
       x2="34.627201"
       y2="0"
       id="line20" />
  </g>
  <g
     transform="translate(29.92575,3.2102551)"
     id="g26">
    <rect
       x="0"
       y="-1.7"
       width="0.1802"
       height="3.4000001"
       ry="0.0000"
       fill="currentColor"
       id="rect24" />
  </g>
  <g
     transform="translate(14.38535,3.2102551)"
     id="g30">
    <rect
       x="0"
       y="-1.7"
       width="0.1802"
       height="3.4000001"
       ry="0.0000"
       fill="currentColor"
       id="rect28" />
  </g>
  <a
     style="color:inherit"
     xlink:href="textedit:///Users/tomsegarra/Downloads/dummies/lilypond_files/9e66320d64208fe13c2f0f0602586030.ly:25:20:28"
     id="a36"
     transform="translate(-2.27615,-3.2764449)">
    <g
       transform="translate(27.4304,11.9867)"
       id="g34">
      <rect
         x="0"
         y="-0.54329997"
         width="0.66000003"
         height="0.1233"
         ry="0.037900001"
         fill="currentColor"
         id="rect32" />
    </g>
  </a>
  <a
     style="color:inherit"
     xlink:href="textedit:///Users/tomsegarra/Downloads/dummies/lilypond_files/9e66320d64208fe13c2f0f0602586030.ly:20:15:16"
     id="a42"
     transform="translate(-2.27615,-3.2764449)">
    <g
       transform="translate(11.9546,5.2117)"
       id="g40">
      <path
         transform="scale(0.0034,-0.0034)"
         d="m 215,137 c 67,0 111,-37 111,-92 0,-90 -111,-182 -215,-182 -67,0 -111,37 -111,92 0,90 111,182 215,182 z"
         fill="currentColor"
         id="path38" />
    </g>
  </a>
  <g
     transform="translate(0.80005,4.0602551)"
     id="g46">
    <path
       transform="scale(0.0034,-0.0034)"
       d="m 646,2 c 0,-113 -74,-213 -180,-247 3,-34 5,-68 5,-102 0,-20 -1,-40 -2,-60 -7,-121 -91,-228 -209,-228 -108,0 -196,87 -196,196 0,58 53,104 112,104 54,0 95,-48 95,-104 0,-52 -43,-95 -95,-95 -10,0 -20,2 -29,6 26,-38 68,-63 116,-63 h 3 c 93,2 153,92 159,190 1,19 2,37 2,56 0,30 -2,60 -4,90 -5,-1 -43,-8 -88,-8 -194,0 -333,180 -333,375 0,177 130,307 246,442 -31,98 -53,170 -53,347 0,115 55,223 148,290 7,5 16,4 22,-1 68,-80 134,-243 134,-357 0,-143 -85,-255 -178,-364 21,-68 40,-137 57,-206 1,0 5,1 11,1 C 545,264 646,135 646,2 Z M 462,-202 c 66,24 111,88 111,162 0,89 -65,178 -170,190 28,-135 50,-272 59,-352 z M 75,26 c 0,-145 141,-245 263,-245 1,0 46,0 81,6 -7,65 -27,206 -61,363 -79,-8 -124,-61 -124,-119 0,-43 25,-89 80,-121 5,-5 7,-11 7,-16 0,-12 -10,-23 -22,-23 -16,0 -127,63 -127,188 0,89 58,175 161,198 -14,58 -29,116 -46,173 C 181,308 75,186 75,26 Z M 406,1042 C 307,995 244,894 244,785 c 0,-49 13,-111 38,-191 79,97 144,199 144,324 0,33 0,63 -20,124 z"
       fill="currentColor"
       id="path44" />
  </g>
  <a
     style="color:inherit"
     xlink:href="textedit:///Users/tomsegarra/Downloads/dummies/lilypond_files/9e66320d64208fe13c2f0f0602586030.ly:19:4:5"
     id="a52"
     transform="translate(-2.27615,-3.2764449)">
    <g
       transform="translate(6.6864,6.4867)"
       id="g50">
      <path
         transform="scale(0.0034,-0.0034)"
         d="m 29,39 -2,-64 v -11 c 0,-22 2,-43 5,-65 44,38 91,80 91,138 0,33 -13,66 -42,66 C 50,103 30,72 29,39 Z m -57,415 c 9,5 18,8 28,8 10,0 19,-3 28,-8 L 21,111 c 25,23 58,36 92,36 51,0 87,-49 87,-103 0,-79 -84,-117 -144,-169 -16,-14 -25,-41 -47,-41 -14,0 -25,13 -25,27 z"
         fill="currentColor"
         id="path48" />
    </g>
  </a>
  <g
     transform="translate(6.24025,3.2102551)"
     id="g56">
    <path
       transform="scale(0.0034,-0.0034)"
       d="m 358,29 c -30,0 -74,23 -74,73 0,38 27,76 71,76 4,0 7,0 11,-1 -27,36 -69,59 -116,59 -106,0 -113,-74 -113,-188 0,-15 1,-31 1,-48 0,-17 -1,-33 -1,-48 0,-114 7,-188 113,-188 79,0 136,70 155,150 2,7 7,10 13,10 7,0 14,-5 14,-13 0,-21 -50,-175 -182,-175 C 191,-264 0,-244 0,0 0,63 18,264 250,264 365,264 424,155 424,99 424,60 394,29 358,29 Z"
       fill="currentColor"
       id="path54" />
  </g>
  <a
     style="color:inherit"
     xlink:href="textedit:///Users/tomsegarra/Downloads/dummies/lilypond_files/9e66320d64208fe13c2f0f0602586030.ly:25:1:9"
     id="a64"
     transform="translate(-2.27615,-3.2764449)">
    <g
       transform="translate(10.6987,11.9867)"
       id="g62">
      <text
         font-family="serif"
         font-size="2.0989px"
         text-anchor="start"
         fill="currentColor"
         id="text60"><tspan
           id="tspan58">now</tspan></text>
    </g>
  </a>
  <g
     transform="translate(9.74005,3.2102551)"
     id="g68">
    <rect
       x="-0.061700001"
       y="-1.1224999"
       width="0.1233"
       height="2.6731"
       ry="0.039999999"
       fill="currentColor"
       id="rect66" />
  </g>
  <a
     style="color:inherit"
     xlink:href="textedit:///Users/tomsegarra/Downloads/dummies/lilypond_files/9e66320d64208fe13c2f0f0602586030.ly:20:20:21"
     id="a74"
     transform="translate(-2.27615,-3.2764449)">
    <g
       transform="translate(14.5556,5.6367)"
       id="g72">
      <path
         transform="scale(0.0034,-0.0034)"
         d="m 215,137 c 67,0 111,-37 111,-92 0,-90 -111,-182 -215,-182 -67,0 -111,37 -111,92 0,90 111,182 215,182 z"
         fill="currentColor"
         id="path70" />
    </g>
  </a>
  <a
     style="color:inherit"
     xlink:href="textedit:///Users/tomsegarra/Downloads/dummies/lilypond_files/9e66320d64208fe13c2f0f0602586030.ly:25:5:13"
     id="a82"
     transform="translate(-2.27615,-3.2764449)">
    <g
       transform="translate(14.7679,11.9867)"
       id="g80">
      <text
         font-family="serif"
         font-size="2.0989px"
         text-anchor="start"
         fill="currentColor"
         id="text78"><tspan
           id="tspan76">I</tspan></text>
    </g>
  </a>
  <g
     transform="translate(12.34115,3.2102551)"
     id="g86">
    <rect
       x="-0.061700001"
       y="-0.69749999"
       width="0.1233"
       height="2.5469999"
       ry="0.039999999"
       fill="currentColor"
       id="rect84" />
  </g>
  <g
     transform="translate(9.67845,4.7536551)"
     id="g90">
    <polygon
       stroke-linejoin="round"
       stroke-linecap="round"
       stroke-width="0.08"
       fill="currentColor"
       stroke="currentColor"
       points="0.04,0.164 0.04,-0.164 2.6843,0.1491 2.6843,0.4771 "
       id="polygon88" />
  </g>
  <a
     style="color:inherit"
     xlink:href="textedit:///Users/tomsegarra/Downloads/dummies/lilypond_files/9e66320d64208fe13c2f0f0602586030.ly:21:4:5"
     id="a96"
     transform="translate(-2.27615,-3.2764449)">
    <g
       transform="translate(17.903,5.2117)"
       id="g94">
      <path
         transform="scale(0.0034,-0.0034)"
         d="m 215,137 c 67,0 111,-37 111,-92 0,-90 -111,-182 -215,-182 -67,0 -111,37 -111,92 0,90 111,182 215,182 z"
         fill="currentColor"
         id="path92" />
    </g>
  </a>
  <a
     style="color:inherit"
     xlink:href="textedit:///Users/tomsegarra/Downloads/dummies/lilypond_files/9e66320d64208fe13c2f0f0602586030.ly:25:7:15"
     id="a104"
     transform="translate(-2.27615,-3.2764449)">
    <g
       transform="translate(16.5789,11.9867)"
       id="g102">
      <text
         font-family="serif"
         font-size="2.0989px"
         text-anchor="start"
         fill="currentColor"
         id="text100"><tspan
           id="tspan98">long</tspan></text>
    </g>
  </a>
  <g
     transform="translate(17.11335,1.9352551)"
     id="g108">
    <path
       transform="scale(0.0034,-0.0034)"
       d="M 0,0 C 0,31 25,56 56,56 87,56 111,31 111,0 111,-31 87,-56 56,-56 25,-56 0,-31 0,0 Z"
       fill="currentColor"
       id="path106" />
  </g>
  <g
     transform="translate(15.68855,3.2102551)"
     id="g112">
    <rect
       x="-0.061700001"
       y="-1.1224999"
       width="0.1233"
       height="2.8225"
       ry="0.039999999"
       fill="currentColor"
       id="rect110" />
  </g>
  <a
     style="color:inherit"
     xlink:href="textedit:///Users/tomsegarra/Downloads/dummies/lilypond_files/9e66320d64208fe13c2f0f0602586030.ly:25:27:35"
     id="a118"
     transform="translate(-2.27615,-3.2764449)">
    <g
       transform="translate(31.1979,11.9867)"
       id="g116">
      <rect
         x="0"
         y="-0.54329997"
         width="0.66000003"
         height="0.1233"
         ry="0.037900001"
         fill="currentColor"
         id="rect114" />
    </g>
  </a>
  <a
     style="color:inherit"
     xlink:href="textedit:///Users/tomsegarra/Downloads/dummies/lilypond_files/9e66320d64208fe13c2f0f0602586030.ly:21:8:9"
     id="a124"
     transform="translate(-2.27615,-3.2764449)">
    <g
       transform="translate(22.1124,5.6367)"
       id="g122">
      <path
         transform="scale(0.0034,-0.0034)"
         d="m 215,137 c 67,0 111,-37 111,-92 0,-90 -111,-182 -215,-182 -67,0 -111,37 -111,92 0,90 111,182 215,182 z"
         fill="currentColor"
         id="path120" />
    </g>
  </a>
  <a
     style="color:inherit"
     xlink:href="textedit:///Users/tomsegarra/Downloads/dummies/lilypond_files/9e66320d64208fe13c2f0f0602586030.ly:25:12:20"
     id="a132"
     transform="translate(-2.27615,-3.2764449)">
    <g
       transform="translate(21.454,11.9867)"
       id="g130">
      <text
         font-family="serif"
         font-size="2.0989px"
         text-anchor="start"
         fill="currentColor"
         id="text128"><tspan
           id="tspan126">for</tspan></text>
    </g>
  </a>
  <g
     transform="translate(19.89785,3.2102551)"
     id="g136">
    <rect
       x="-0.061700001"
       y="-0.69749999"
       width="0.1233"
       height="2.8225"
       ry="0.039999999"
       fill="currentColor"
       id="rect134" />
  </g>
  <g
     transform="translate(19.95955,5.2952551)"
     id="g140">
    <path
       transform="scale(0.0034,-0.0034)"
       d="M 0,0 H -18 V 250 H 0 Z m 0,0 v 250 c 96,59 222,149 222,259 0,57 -15,111 -40,162 -3,17 10,29 24,29 8,0 16,-5 21,-13 25,-56 40,-116 40,-178 C 267,306 0,203 0,0 Z"
       fill="currentColor"
       id="path138" />
  </g>
  <a
     style="color:inherit"
     xlink:href="textedit:///Users/tomsegarra/Downloads/dummies/lilypond_files/9e66320d64208fe13c2f0f0602586030.ly:21:11:12"
     id="a146"
     transform="translate(-2.27615,-3.2764449)">
    <g
       transform="translate(25.1743,6.0617)"
       id="g144">
      <path
         transform="scale(0.0034,-0.0034)"
         d="m 215,137 c 67,0 111,-37 111,-92 0,-90 -111,-182 -215,-182 -67,0 -111,37 -111,92 0,90 111,182 215,182 z"
         fill="currentColor"
         id="path142" />
    </g>
  </a>
  <a
     style="color:inherit"
     xlink:href="textedit:///Users/tomsegarra/Downloads/dummies/lilypond_files/9e66320d64208fe13c2f0f0602586030.ly:25:16:24"
     id="a154"
     transform="translate(-2.27615,-3.2764449)">
    <g
       transform="translate(24.3282,11.9867)"
       id="g152">
      <text
         font-family="serif"
         font-size="2.0989px"
         text-anchor="start"
         fill="currentColor"
         id="text150"><tspan
           id="tspan148">yes</tspan></text>
    </g>
  </a>
  <g
     transform="translate(22.95985,3.2102551)"
     id="g158">
    <rect
       x="-0.061700001"
       y="-0.27250001"
       width="0.1233"
       height="2.8225"
       ry="0.039999999"
       fill="currentColor"
       id="rect156" />
  </g>
  <a
     style="color:inherit"
     xlink:href="textedit:///Users/tomsegarra/Downloads/dummies/lilypond_files/9e66320d64208fe13c2f0f0602586030.ly:21:14:15"
     id="a164"
     transform="translate(-2.27615,-3.2764449)">
    <g
       transform="translate(28.9317,5.2117)"
       id="g162">
      <path
         transform="scale(0.0034,-0.0034)"
         d="m 215,137 c 67,0 111,-37 111,-92 0,-90 -111,-182 -215,-182 -67,0 -111,37 -111,92 0,90 111,182 215,182 z"
         fill="currentColor"
         id="path160" />
    </g>
  </a>
  <a
     style="color:inherit"
     xlink:href="textedit:///Users/tomsegarra/Downloads/dummies/lilypond_files/9e66320d64208fe13c2f0f0602586030.ly:25:23:31"
     id="a172"
     transform="translate(-2.27615,-3.2764449)">
    <g
       transform="translate(28.3928,11.9867)"
       id="g170">
      <text
         font-family="serif"
         font-size="2.0989px"
         text-anchor="start"
         fill="currentColor"
         id="text168"><tspan
           id="tspan166">ter</tspan></text>
    </g>
  </a>
  <g
     transform="translate(26.71725,3.2102551)"
     id="g176">
    <rect
       x="-0.061700001"
       y="-1.1224999"
       width="0.1233"
       height="2.8225"
       ry="0.039999999"
       fill="currentColor"
       id="rect174" />
  </g>
  <a
     style="color:inherit"
     xlink:href="textedit:///Users/tomsegarra/Downloads/dummies/lilypond_files/9e66320d64208fe13c2f0f0602586030.ly:22:4:5"
     id="a182"
     transform="translate(-2.27615,-3.2764449)">
    <g
       transform="translate(33.4434,4.7867)"
       id="g180">
      <path
         transform="scale(0.0034,-0.0034)"
         d="m 215,137 c 67,0 111,-37 111,-92 0,-90 -111,-182 -215,-182 -67,0 -111,37 -111,92 0,90 111,182 215,182 z"
         fill="currentColor"
         id="path178" />
    </g>
  </a>
  <a
     style="color:inherit"
     xlink:href="textedit:///Users/tomsegarra/Downloads/dummies/lilypond_files/9e66320d64208fe13c2f0f0602586030.ly:25:30:38"
     id="a190"
     transform="translate(-2.27615,-3.2764449)">
    <g
       transform="translate(32.4778,11.9867)"
       id="g188">
      <text
         font-family="serif"
         font-size="2.0989px"
         text-anchor="start"
         fill="currentColor"
         id="text186"><tspan
           id="tspan184">day</tspan></text>
    </g>
  </a>
  <g
     transform="translate(31.22895,3.2102551)"
     id="g194">
    <rect
       x="-0.061700001"
       y="-1.5475"
       width="0.1233"
       height="2.8225"
       ry="0.039999999"
       fill="currentColor"
       id="rect192" />
  </g>
</svg>
