<?xml version="1.0" encoding="UTF-8" standalone="no"?>
<svg
   version="1.2"
   width="87.030113mm"
   height="10.605475mm"
   viewBox="0 0 49.525749 6.0351011"
   id="svg168"
   sodipodi:docname="a6d541390a95243135443b0aaf579015.svg"
   xmlns:inkscape="http://www.inkscape.org/namespaces/inkscape"
   xmlns:sodipodi="http://sodipodi.sourceforge.net/DTD/sodipodi-0.dtd"
   xmlns:xlink="http://www.w3.org/1999/xlink"
   xmlns="http://www.w3.org/2000/svg"
   xmlns:svg="http://www.w3.org/2000/svg">
  <defs
     id="defs172" />
  <sodipodi:namedview
     id="namedview170"
     pagecolor="#ffffff"
     bordercolor="#000000"
     borderopacity="0.25"
     inkscape:showpageshadow="2"
     inkscape:pageopacity="0.0"
     inkscape:pagecheckerboard="0"
     inkscape:deskcolor="#d1d1d1"
     inkscape:document-units="mm" />
  <style
     type="text/css"
     id="style2"><![CDATA[
tspan { white-space: pre; }
]]></style>
  <!-- Page: 1/1 -->
  <g
     transform="translate(-5.0000846e-5,4.7986194)"
     id="g6">
    <line
       stroke-linejoin="round"
       stroke-linecap="round"
       stroke-width="0.0931"
       stroke="currentColor"
       x1="0.046599999"
       y1="0"
       x2="49.479198"
       y2="0"
       id="line4" />
  </g>
  <g
     transform="translate(-5.0000846e-5,3.9986194)"
     id="g10">
    <line
       stroke-linejoin="round"
       stroke-linecap="round"
       stroke-width="0.0931"
       stroke="currentColor"
       x1="0.046599999"
       y1="0"
       x2="49.479198"
       y2="0"
       id="line8" />
  </g>
  <g
     transform="translate(-5.0000846e-5,3.1986194)"
     id="g14">
    <line
       stroke-linejoin="round"
       stroke-linecap="round"
       stroke-width="0.0931"
       stroke="currentColor"
       x1="0.046599999"
       y1="0"
       x2="49.479198"
       y2="0"
       id="line12" />
  </g>
  <g
     transform="translate(-5.0000846e-5,2.3986194)"
     id="g18">
    <line
       stroke-linejoin="round"
       stroke-linecap="round"
       stroke-width="0.0931"
       stroke="currentColor"
       x1="0.046599999"
       y1="0"
       x2="49.479198"
       y2="0"
       id="line16" />
  </g>
  <g
     transform="translate(-5.0000846e-5,1.5986194)"
     id="g22">
    <line
       stroke-linejoin="round"
       stroke-linecap="round"
       stroke-width="0.0931"
       stroke="currentColor"
       x1="0.046599999"
       y1="0"
       x2="49.479198"
       y2="0"
       id="line20" />
  </g>
  <g
     transform="translate(49.34875,3.1986194)"
     id="g26">
    <rect
       x="0"
       y="-1.6"
       width="0.177"
       height="3.2"
       ry="0.0000"
       fill="currentColor"
       id="rect24" />
  </g>
  <g
     transform="translate(32.22605,3.1986194)"
     id="g30">
    <rect
       x="0"
       y="-1.6"
       width="0.177"
       height="3.2"
       ry="0.0000"
       fill="currentColor"
       id="rect28" />
  </g>
  <g
     transform="translate(17.43635,3.1986194)"
     id="g34">
    <rect
       x="0"
       y="-1.6"
       width="0.177"
       height="3.2"
       ry="0.0000"
       fill="currentColor"
       id="rect32" />
  </g>
  <a
     style="color:inherit"
     xlink:href="textedit:///Users/tomsegarra/Downloads/dummies/lilypond_files/a6d541390a95243135443b0aaf579015.ly:22:17:25"
     id="a40"
     transform="translate(-2.27625,-3.2775806)">
    <g
       transform="translate(35.7086,6.0762)"
       id="g38">
      <path
         transform="scale(0.0032,-0.0032)"
         d="m 212,138 c 68,0 113,-38 113,-95 0,-90 -109,-181 -212,-181 -68,0 -113,38 -113,95 0,90 109,181 212,181 z"
         fill="currentColor"
         id="path36" />
    </g>
  </a>
  <g
     transform="translate(33.43235,4.9440194)"
     id="g44">
    <polygon
       stroke-linejoin="round"
       stroke-linecap="round"
       stroke-width="0.08"
       fill="currentColor"
       stroke="currentColor"
       points="0.04,0.152 0.04,-0.152 6.8031,-0.152 6.8031,0.152 "
       id="polygon42" />
  </g>
  <a
     style="color:inherit"
     xlink:href="textedit:///Users/tomsegarra/Downloads/dummies/lilypond_files/a6d541390a95243135443b0aaf579015.ly:22:1:9"
     id="a50"
     transform="translate(-2.27625,-3.2775806)">
    <g
       transform="translate(13.7126,5.6762)"
       id="g48">
      <path
         transform="scale(0.0032,-0.0032)"
         d="M 362,-156 H 13 c -7,0 -13,5 -13,12 V -13 C 0,-6 6,0 13,0 h 349 c 7,0 13,-6 13,-13 v -131 c 0,-7 -6,-12 -13,-12 z"
         fill="currentColor"
         id="path46" />
    </g>
  </a>
  <g
     transform="translate(0.79995,3.9986194)"
     id="g54">
    <path
       transform="scale(0.0032,-0.0032)"
       d="m 647,2 c 0,-114 -75,-214 -180,-248 3,-33 4,-66 4,-99 0,-21 0,-41 -1,-62 -7,-122 -92,-229 -211,-229 -108,0 -196,88 -196,197 0,58 54,103 113,103 54,0 95,-47 95,-103 0,-52 -43,-95 -95,-95 -9,0 -18,1 -27,4 25,-37 66,-61 113,-61 93,0 156,91 162,191 1,19 2,38 2,57 0,29 -1,58 -3,87 -5,-1 -44,-8 -88,-8 -194,0 -333,181 -333,376 0,177 129,308 244,443 -34,103 -55,171 -55,347 0,114 54,221 147,288 8,6 18,5 25,-1 68,-79 135,-242 135,-356 0,-142 -84,-255 -176,-364 21,-68 40,-136 57,-205 1,0 5,1 10,1 C 546,265 647,136 647,2 Z M 463,-201 c 64,24 110,88 110,161 0,88 -64,175 -167,188 28,-133 49,-269 57,-349 z M 77,25 c 0,-144 141,-243 261,-243 1,0 46,-1 81,5 -7,66 -27,208 -60,362 -79,-8 -124,-60 -124,-118 0,-43 25,-88 80,-120 5,-5 7,-11 7,-17 0,-12 -10,-23 -23,-23 -16,0 -128,62 -128,188 0,89 60,177 163,200 -14,57 -30,113 -47,169 C 182,306 77,185 77,25 Z M 403,1038 C 304,992 242,893 242,784 c 0,-39 10,-95 39,-188 78,97 142,199 142,324 0,33 0,61 -20,118 z"
       fill="currentColor"
       id="path52" />
  </g>
  <a
     style="color:inherit"
     xlink:href="textedit:///Users/tomsegarra/Downloads/dummies/lilypond_files/a6d541390a95243135443b0aaf579015.ly:21:1:9"
     id="a68"
     transform="translate(-2.27625,-3.2775806)">
    <g
       transform="translate(6.5762,4.8762)"
       id="g58">
      <path
         transform="scale(0.0032,-0.0032)"
         d="m 198,-329 c -12,0 -21,9 -21,21 v 138 l -79,-30 v -154 c 0,-12 -9,-21 -21,-21 -12,0 -21,9 -21,21 v 138 l -22,-8 c -3,-1 -6,-2 -9,-2 -13,0 -25,11 -25,25 v 54 c 0,10 6,20 16,24 l 40,15 V 47 L 34,38 C 31,37 28,37 25,37 12,37 0,48 0,62 v 54 c 0,10 6,19 16,23 l 40,15 v 154 c 0,12 9,21 21,21 12,0 21,-9 21,-21 V 170 l 79,30 v 154 c 0,12 9,21 21,21 12,0 21,-9 21,-21 V 216 l 22,8 c 3,1 6,2 9,2 13,0 25,-11 25,-25 v -54 c 0,-10 -6,-20 -16,-24 L 219,108 V -47 l 22,9 c 3,1 6,1 9,1 13,0 25,-11 25,-25 v -54 c 0,-10 -6,-19 -16,-23 l -40,-15 v -154 c 0,-12 -9,-21 -21,-21 z M 98,62 V -92 l 79,30 V 92 Z"
         fill="currentColor"
         id="path56" />
    </g>
    <g
       transform="translate(7.4562,6.0762)"
       id="g62">
      <path
         transform="scale(0.0032,-0.0032)"
         d="m 198,-329 c -12,0 -21,9 -21,21 v 138 l -79,-30 v -154 c 0,-12 -9,-21 -21,-21 -12,0 -21,9 -21,21 v 138 l -22,-8 c -3,-1 -6,-2 -9,-2 -13,0 -25,11 -25,25 v 54 c 0,10 6,20 16,24 l 40,15 V 47 L 34,38 C 31,37 28,37 25,37 12,37 0,48 0,62 v 54 c 0,10 6,19 16,23 l 40,15 v 154 c 0,12 9,21 21,21 12,0 21,-9 21,-21 V 170 l 79,30 v 154 c 0,12 9,21 21,21 12,0 21,-9 21,-21 V 216 l 22,8 c 3,1 6,2 9,2 13,0 25,-11 25,-25 v -54 c 0,-10 -6,-20 -16,-24 L 219,108 V -47 l 22,9 c 3,1 6,1 9,1 13,0 25,-11 25,-25 v -54 c 0,-10 -6,-19 -16,-23 l -40,-15 v -154 c 0,-12 -9,-21 -21,-21 z M 98,62 V -92 l 79,30 V 92 Z"
         fill="currentColor"
         id="path60" />
    </g>
    <g
       transform="translate(8.3362,4.4762)"
       id="g66">
      <path
         transform="scale(0.0032,-0.0032)"
         d="m 198,-329 c -12,0 -21,9 -21,21 v 138 l -79,-30 v -154 c 0,-12 -9,-21 -21,-21 -12,0 -21,9 -21,21 v 138 l -22,-8 c -3,-1 -6,-2 -9,-2 -13,0 -25,11 -25,25 v 54 c 0,10 6,20 16,24 l 40,15 V 47 L 34,38 C 31,37 28,37 25,37 12,37 0,48 0,62 v 54 c 0,10 6,19 16,23 l 40,15 v 154 c 0,12 9,21 21,21 12,0 21,-9 21,-21 V 170 l 79,30 v 154 c 0,12 9,21 21,21 12,0 21,-9 21,-21 V 216 l 22,8 c 3,1 6,2 9,2 13,0 25,-11 25,-25 v -54 c 0,-10 -6,-20 -16,-24 L 219,108 V -47 l 22,9 c 3,1 6,1 9,1 13,0 25,-11 25,-25 v -54 c 0,-10 -6,-19 -16,-23 l -40,-15 v -154 c 0,-12 -9,-21 -21,-21 z M 98,62 V -92 l 79,30 V 92 Z"
         fill="currentColor"
         id="path64" />
    </g>
  </a>
  <g
     transform="translate(8.08995,3.1986194)"
     id="g72">
    <path
       transform="scale(0.0032,-0.0032)"
       d="m 250,265 c 114,0 172,-112 172,-166 0,-38 -30,-69 -66,-69 -30,0 -72,23 -72,72 0,37 26,75 70,75 3,0 6,-1 9,-1 -26,36 -67,59 -113,59 -107,0 -113,-74 -113,-189 0,-15 1,-30 1,-46 0,-16 -1,-31 -1,-46 0,-115 6,-189 113,-189 78,0 133,70 151,149 2,8 8,11 14,11 7,0 15,-5 15,-14 0,-21 -49,-176 -180,-176 C 105,-265 0,-177 0,0 0,63 18,265 250,265 Z"
       fill="currentColor"
       id="path70" />
  </g>
  <g
     transform="translate(25.60735,3.1986194)"
     id="g76">
    <rect
       x="-0.0605"
       y="-0.26289999"
       width="0.1211"
       height="2.6629"
       ry="0.039999999"
       fill="currentColor"
       id="rect74" />
  </g>
  <a
     style="color:inherit"
     xlink:href="textedit:///Users/tomsegarra/Downloads/dummies/lilypond_files/a6d541390a95243135443b0aaf579015.ly:22:11:19"
     id="a82"
     transform="translate(-2.27625,-3.2775806)">
    <g
       transform="translate(27.823,6.0762)"
       id="g80">
      <path
         transform="scale(0.0032,-0.0032)"
         d="m 212,138 c 68,0 113,-38 113,-95 0,-90 -109,-181 -212,-181 -68,0 -113,38 -113,95 0,90 109,181 212,181 z"
         fill="currentColor"
         id="path78" />
    </g>
  </a>
  <a
     style="color:inherit"
     xlink:href="textedit:///Users/tomsegarra/Downloads/dummies/lilypond_files/a6d541390a95243135443b0aaf579015.ly:22:4:12"
     id="a88"
     transform="translate(-2.27625,-3.2775806)">
    <g
       transform="translate(20.9417,5.2762)"
       id="g86">
      <path
         transform="scale(0.0032,-0.0032)"
         d="m 212,138 c 68,0 113,-38 113,-95 0,-90 -109,-181 -212,-181 -68,0 -113,38 -113,95 0,90 109,181 212,181 z"
         fill="currentColor"
         id="path84" />
    </g>
  </a>
  <g
     transform="translate(18.72595,3.1986194)"
     id="g92">
    <rect
       x="-0.0605"
       y="-1.0628999"
       width="0.1211"
       height="2.6629"
       ry="0.039999999"
       fill="currentColor"
       id="rect90" />
  </g>
  <a
     style="color:inherit"
     xlink:href="textedit:///Users/tomsegarra/Downloads/dummies/lilypond_files/a6d541390a95243135443b0aaf579015.ly:22:15:23"
     id="a98"
     transform="translate(-2.27625,-3.2775806)">
    <g
       transform="translate(31.2637,5.6762)"
       id="g96">
      <path
         transform="scale(0.0032,-0.0032)"
         d="m 212,138 c 68,0 113,-38 113,-95 0,-90 -109,-181 -212,-181 -68,0 -113,38 -113,95 0,90 109,181 212,181 z"
         fill="currentColor"
         id="path94" />
    </g>
  </a>
  <g
     transform="translate(29.04795,3.1986194)"
     id="g102">
    <rect
       x="-0.0605"
       y="-0.66289997"
       width="0.1211"
       height="2.6629"
       ry="0.039999999"
       fill="currentColor"
       id="rect100" />
  </g>
  <g
     transform="translate(22.16665,3.1986194)"
     id="g106">
    <rect
       x="-0.0605"
       y="-0.66289997"
       width="0.1211"
       height="2.6629"
       ry="0.039999999"
       fill="currentColor"
       id="rect104" />
  </g>
  <g
     transform="translate(33.49285,3.1986194)"
     id="g110">
    <rect
       x="-0.0605"
       y="-0.26289999"
       width="0.1211"
       height="2.0084"
       ry="0.039999999"
       fill="currentColor"
       id="rect108" />
  </g>
  <a
     style="color:inherit"
     xlink:href="textedit:///Users/tomsegarra/Downloads/dummies/lilypond_files/a6d541390a95243135443b0aaf579015.ly:22:9:17"
     id="a116"
     transform="translate(-2.27625,-3.2775806)">
    <g
       transform="translate(24.3824,5.6762)"
       id="g114">
      <path
         transform="scale(0.0032,-0.0032)"
         d="m 212,138 c 68,0 113,-38 113,-95 0,-90 -109,-181 -212,-181 -68,0 -113,38 -113,95 0,90 109,181 212,181 z"
         fill="currentColor"
         id="path112" />
    </g>
  </a>
  <a
     style="color:inherit"
     xlink:href="textedit:///Users/tomsegarra/Downloads/dummies/lilypond_files/a6d541390a95243135443b0aaf579015.ly:22:22:30"
     id="a122"
     transform="translate(-2.27625,-3.2775806)">
    <g
       transform="translate(37.9493,5.6762)"
       id="g120">
      <path
         transform="scale(0.0032,-0.0032)"
         d="m 212,138 c 68,0 113,-38 113,-95 0,-90 -109,-181 -212,-181 -68,0 -113,38 -113,95 0,90 109,181 212,181 z"
         fill="currentColor"
         id="path118" />
    </g>
  </a>
  <g
     transform="translate(35.73355,3.1986194)"
     id="g126">
    <rect
       x="-0.0605"
       y="-0.66289997"
       width="0.1211"
       height="2.4084001"
       ry="0.039999999"
       fill="currentColor"
       id="rect124" />
  </g>
  <a
     style="color:inherit"
     xlink:href="textedit:///Users/tomsegarra/Downloads/dummies/lilypond_files/a6d541390a95243135443b0aaf579015.ly:22:24:32"
     id="a132"
     transform="translate(-2.27625,-3.2775806)">
    <g
       transform="translate(40.1899,6.0762)"
       id="g130">
      <path
         transform="scale(0.0032,-0.0032)"
         d="m 212,138 c 68,0 113,-38 113,-95 0,-90 -109,-181 -212,-181 -68,0 -113,38 -113,95 0,90 109,181 212,181 z"
         fill="currentColor"
         id="path128" />
    </g>
  </a>
  <g
     transform="translate(37.97425,3.1986194)"
     id="g136">
    <rect
       x="-0.0605"
       y="-0.26289999"
       width="0.1211"
       height="2.0084"
       ry="0.039999999"
       fill="currentColor"
       id="rect134" />
  </g>
  <a
     style="color:inherit"
     xlink:href="textedit:///Users/tomsegarra/Downloads/dummies/lilypond_files/a6d541390a95243135443b0aaf579015.ly:22:28:36"
     id="a142"
     transform="translate(-2.27625,-3.2775806)">
    <g
       transform="translate(42.4306,5.6762)"
       id="g140">
      <path
         transform="scale(0.0032,-0.0032)"
         d="m 212,138 c 68,0 113,-38 113,-95 0,-90 -109,-181 -212,-181 -68,0 -113,38 -113,95 0,90 109,181 212,181 z"
         fill="currentColor"
         id="path138" />
    </g>
  </a>
  <g
     transform="translate(40.21495,3.1986194)"
     id="g146">
    <rect
       x="-0.0605"
       y="-0.66289997"
       width="0.1211"
       height="2.4084001"
       ry="0.039999999"
       fill="currentColor"
       id="rect144" />
  </g>
  <a
     style="color:inherit"
     xlink:href="textedit:///Users/tomsegarra/Downloads/dummies/lilypond_files/a6d541390a95243135443b0aaf579015.ly:22:30:38"
     id="a152"
     transform="translate(-2.27625,-3.2775806)">
    <g
       transform="translate(44.6713,6.0762)"
       id="g150">
      <path
         transform="scale(0.0032,-0.0032)"
         d="m 212,138 c 68,0 113,-38 113,-95 0,-90 -109,-181 -212,-181 -68,0 -113,38 -113,95 0,90 109,181 212,181 z"
         fill="currentColor"
         id="path148" />
    </g>
  </a>
  <g
     transform="translate(42.45555,3.1986194)"
     id="g156">
    <rect
       x="-0.0605"
       y="-0.26289999"
       width="0.1211"
       height="2.6629"
       ry="0.039999999"
       fill="currentColor"
       id="rect154" />
  </g>
  <a
     style="color:inherit"
     xlink:href="textedit:///Users/tomsegarra/Downloads/dummies/lilypond_files/a6d541390a95243135443b0aaf579015.ly:22:35:43"
     id="a162"
     transform="translate(-2.27625,-3.2775806)">
    <g
       transform="translate(48.018,6.8762)"
       id="g160">
      <path
         transform="scale(0.0032,-0.0032)"
         d="m 212,138 c 68,0 113,-38 113,-95 0,-90 -109,-181 -212,-181 -68,0 -113,38 -113,95 0,90 109,181 212,181 z"
         fill="currentColor"
         id="path158" />
    </g>
  </a>
  <g
     transform="translate(46.72195,3.1986194)"
     id="g166">
    <rect
       x="-0.0605"
       y="-2.4000001"
       width="0.1211"
       height="2.6629"
       ry="0.039999999"
       fill="currentColor"
       id="rect164" />
  </g>
</svg>
