<?xml version="1.0" encoding="UTF-8" standalone="no"?>
<svg
   version="1.2"
   width="65.580666mm"
   height="16.505377mm"
   viewBox="0 0 37.321352 9.3924708"
   id="svg198"
   sodipodi:docname="aa2be72a0550520ff8aacb5eefffd22c.svg"
   xmlns:inkscape="http://www.inkscape.org/namespaces/inkscape"
   xmlns:sodipodi="http://sodipodi.sourceforge.net/DTD/sodipodi-0.dtd"
   xmlns:xlink="http://www.w3.org/1999/xlink"
   xmlns="http://www.w3.org/2000/svg"
   xmlns:svg="http://www.w3.org/2000/svg">
  <defs
     id="defs202" />
  <sodipodi:namedview
     id="namedview200"
     pagecolor="#ffffff"
     bordercolor="#000000"
     borderopacity="0.25"
     inkscape:showpageshadow="2"
     inkscape:pageopacity="0.0"
     inkscape:pagecheckerboard="0"
     inkscape:deskcolor="#d1d1d1"
     inkscape:document-units="mm" />
  <style
     type="text/css"
     id="style2"><![CDATA[
tspan { white-space: pre; }
]]></style>
  <!-- Page: 1/1 -->
  <g
     transform="translate(37.14115,3.8590873)"
     id="g6">
    <rect
       x="0"
       y="-1.7"
       width="0.1802"
       height="3.4000001"
       ry="0.0000"
       fill="currentColor"
       id="rect4" />
  </g>
  <g
     transform="translate(4.9997121e-5,5.5590873)"
     id="g10">
    <line
       stroke-linejoin="round"
       stroke-linecap="round"
       stroke-width="0.0949"
       stroke="currentColor"
       x1="0.047400001"
       y1="0"
       x2="37.2738"
       y2="0"
       id="line8" />
  </g>
  <g
     transform="translate(4.9997121e-5,4.7090873)"
     id="g14">
    <line
       stroke-linejoin="round"
       stroke-linecap="round"
       stroke-width="0.0949"
       stroke="currentColor"
       x1="0.047400001"
       y1="0"
       x2="37.2738"
       y2="0"
       id="line12" />
  </g>
  <g
     transform="translate(4.9997121e-5,3.8590873)"
     id="g18">
    <line
       stroke-linejoin="round"
       stroke-linecap="round"
       stroke-width="0.0949"
       stroke="currentColor"
       x1="0.047400001"
       y1="0"
       x2="37.2738"
       y2="0"
       id="line16" />
  </g>
  <g
     transform="translate(4.9997121e-5,3.0090873)"
     id="g22">
    <line
       stroke-linejoin="round"
       stroke-linecap="round"
       stroke-width="0.0949"
       stroke="currentColor"
       x1="0.047400001"
       y1="0"
       x2="37.2738"
       y2="0"
       id="line20" />
  </g>
  <g
     transform="translate(4.9997121e-5,2.1590873)"
     id="g26">
    <line
       stroke-linejoin="round"
       stroke-linecap="round"
       stroke-width="0.0949"
       stroke="currentColor"
       x1="0.047400001"
       y1="0"
       x2="37.2738"
       y2="0"
       id="line24" />
  </g>
  <a
     style="color:inherit"
     xlink:href="textedit:///Users/tomsegarra/Documents/dev/dummies/lilypond_files/aa2be72a0550520ff8aacb5eefffd22c.ly:20:12:13"
     id="a34"
     transform="translate(-2.27615,-3.2815127)">
    <g
       transform="translate(13.9694,4.8932)"
       id="g32">
      <text
         font-family="sans-serif"
         font-size="2.224px"
         text-anchor="start"
         fill="currentColor"
         id="text30"><tspan
           id="tspan28">A</tspan></text>
    </g>
  </a>
  <a
     style="color:inherit"
     xlink:href="textedit:///Users/tomsegarra/Documents/dev/dummies/lilypond_files/aa2be72a0550520ff8aacb5eefffd22c.ly:24:4:5"
     id="a40"
     transform="translate(-2.27615,-3.2815127)">
    <g
       transform="translate(13.9694,7.1406)"
       id="g38">
      <path
         transform="scale(0.0034,-0.0034)"
         d="M 364,0 H 11 C 5,0 0,5 0,11 v 134 c 0,6 5,11 11,11 h 353 c 6,0 11,-5 11,-11 V 11 C 375,5 370,0 364,0 Z"
         fill="currentColor"
         id="path36" />
    </g>
  </a>
  <g
     transform="translate(0.80005,4.7090873)"
     id="g44">
    <path
       transform="scale(0.0034,-0.0034)"
       d="m 646,2 c 0,-113 -74,-213 -180,-247 3,-34 5,-68 5,-102 0,-20 -1,-40 -2,-60 -7,-121 -91,-228 -209,-228 -108,0 -196,87 -196,196 0,58 53,104 112,104 54,0 95,-48 95,-104 0,-52 -43,-95 -95,-95 -10,0 -20,2 -29,6 26,-38 68,-63 116,-63 h 3 c 93,2 153,92 159,190 1,19 2,37 2,56 0,30 -2,60 -4,90 -5,-1 -43,-8 -88,-8 -194,0 -333,180 -333,375 0,177 130,307 246,442 -31,98 -53,170 -53,347 0,115 55,223 148,290 7,5 16,4 22,-1 68,-80 134,-243 134,-357 0,-143 -85,-255 -178,-364 21,-68 40,-137 57,-206 1,0 5,1 11,1 C 545,264 646,135 646,2 Z M 462,-202 c 66,24 111,88 111,162 0,89 -65,178 -170,190 28,-135 50,-272 59,-352 z M 75,26 c 0,-145 141,-245 263,-245 1,0 46,0 81,6 -7,65 -27,206 -61,363 -79,-8 -124,-61 -124,-119 0,-43 25,-89 80,-121 5,-5 7,-11 7,-16 0,-12 -10,-23 -22,-23 -16,0 -127,63 -127,188 0,89 58,175 161,198 -14,58 -29,116 -46,173 C 181,308 75,186 75,26 Z M 406,1042 C 307,995 244,894 244,785 c 0,-49 13,-111 38,-191 79,97 144,199 144,324 0,33 0,63 -20,124 z"
       fill="currentColor"
       id="path42" />
  </g>
  <a
     style="color:inherit"
     xlink:href="textedit:///Users/tomsegarra/Documents/dev/dummies/lilypond_files/aa2be72a0550520ff8aacb5eefffd22c.ly:23:1:9"
     id="a58"
     transform="translate(-2.27615,-3.2815127)">
    <g
       transform="translate(6.5762,5.4406)"
       id="g48">
      <path
         transform="scale(0.0034,-0.0034)"
         d="m 217,-311 c 0,-11 -8,-19 -19,-19 -11,0 -20,8 -20,19 v 142 l -81,-30 v -156 c 0,-11 -9,-20 -20,-20 -11,0 -19,9 -19,20 v 142 l -28,-11 c -3,-1 -5,-1 -8,-1 -12,0 -22,10 -22,23 v 57 c 0,9 6,18 15,21 l 43,16 V 49 L 30,39 C 27,38 25,38 22,38 10,38 0,47 0,60 v 57 c 0,9 6,18 15,21 l 43,16 v 157 c 0,11 8,19 19,19 11,0 20,-8 20,-19 V 169 l 81,30 v 156 c 0,11 9,20 20,20 11,0 19,-9 19,-20 V 213 l 28,11 c 3,1 5,1 8,1 12,0 22,-10 22,-23 v -57 c 0,-9 -6,-18 -15,-21 L 217,108 V -49 l 28,10 c 3,1 5,1 8,1 12,0 22,-9 22,-22 v -57 c 0,-9 -6,-18 -15,-21 l -43,-16 z M 97,64 V -94 l 81,30 V 94 Z"
         fill="currentColor"
         id="path46" />
    </g>
    <g
       transform="translate(7.5112,6.7156)"
       id="g52">
      <path
         transform="scale(0.0034,-0.0034)"
         d="m 217,-311 c 0,-11 -8,-19 -19,-19 -11,0 -20,8 -20,19 v 142 l -81,-30 v -156 c 0,-11 -9,-20 -20,-20 -11,0 -19,9 -19,20 v 142 l -28,-11 c -3,-1 -5,-1 -8,-1 -12,0 -22,10 -22,23 v 57 c 0,9 6,18 15,21 l 43,16 V 49 L 30,39 C 27,38 25,38 22,38 10,38 0,47 0,60 v 57 c 0,9 6,18 15,21 l 43,16 v 157 c 0,11 8,19 19,19 11,0 20,-8 20,-19 V 169 l 81,30 v 156 c 0,11 9,20 20,20 11,0 19,-9 19,-20 V 213 l 28,11 c 3,1 5,1 8,1 12,0 22,-10 22,-23 v -57 c 0,-9 -6,-18 -15,-21 L 217,108 V -49 l 28,10 c 3,1 5,1 8,1 12,0 22,-9 22,-22 v -57 c 0,-9 -6,-18 -15,-21 l -43,-16 z M 97,64 V -94 l 81,30 V 94 Z"
         fill="currentColor"
         id="path50" />
    </g>
    <g
       transform="translate(8.4462,5.0156)"
       id="g56">
      <path
         transform="scale(0.0034,-0.0034)"
         d="m 217,-311 c 0,-11 -8,-19 -19,-19 -11,0 -20,8 -20,19 v 142 l -81,-30 v -156 c 0,-11 -9,-20 -20,-20 -11,0 -19,9 -19,20 v 142 l -28,-11 c -3,-1 -5,-1 -8,-1 -12,0 -22,10 -22,23 v 57 c 0,9 6,18 15,21 l 43,16 V 49 L 30,39 C 27,38 25,38 22,38 10,38 0,47 0,60 v 57 c 0,9 6,18 15,21 l 43,16 v 157 c 0,11 8,19 19,19 11,0 20,-8 20,-19 V 169 l 81,30 v 156 c 0,11 9,20 20,20 11,0 19,-9 19,-20 V 213 l 28,11 c 3,1 5,1 8,1 12,0 22,-10 22,-23 v -57 c 0,-9 -6,-18 -15,-21 L 217,108 V -49 l 28,10 c 3,1 5,1 8,1 12,0 22,-9 22,-22 v -57 c 0,-9 -6,-18 -15,-21 l -43,-16 z M 97,64 V -94 l 81,30 V 94 Z"
         fill="currentColor"
         id="path54" />
    </g>
  </a>
  <g
     transform="translate(8.25505,3.8590873)"
     id="g62">
    <path
       transform="scale(0.0034,-0.0034)"
       d="m 358,29 c -30,0 -74,23 -74,73 0,38 27,76 71,76 4,0 7,0 11,-1 -27,36 -69,59 -116,59 -106,0 -113,-74 -113,-188 0,-15 1,-31 1,-48 0,-17 -1,-33 -1,-48 0,-114 7,-188 113,-188 79,0 136,70 155,150 2,7 7,10 13,10 7,0 14,-5 14,-13 0,-21 -50,-175 -182,-175 C 191,-264 0,-244 0,0 0,63 18,264 250,264 365,264 424,155 424,99 424,60 394,29 358,29 Z"
       fill="currentColor"
       id="path60" />
  </g>
  <g
     transform="translate(34.28815,3.4340873)"
     id="g66">
    <path
       transform="scale(0.0034,-0.0034)"
       d="M 0,0 C 0,31 25,56 56,56 87,56 111,31 111,0 111,-31 87,-56 56,-56 25,-56 0,-31 0,0 Z"
       fill="currentColor"
       id="path64" />
  </g>
  <g
     color="#ff0000"
     id="g72"
     transform="translate(-2.27615,-3.2815127)">
    <g
       transform="translate(36.1236,7.1406)"
       id="g70">
      <rect
         x="-0.061700001"
         y="-2.3812001"
         width="0.1233"
         height="2.2288001"
         ry="0.039999999"
         fill="currentColor"
         id="rect68" />
    </g>
  </g>
  <a
     style="color:inherit"
     xlink:href="textedit:///Users/tomsegarra/Documents/dev/dummies/lilypond_files/aa2be72a0550520ff8aacb5eefffd22c.ly:30:28:29"
     id="a78"
     transform="translate(-2.27615,-3.2815127)">
    <g
       transform="translate(30.9129,12.6406)"
       id="g76">
      <rect
         x="0"
         y="-0.54329997"
         width="0.30000001"
         height="0.1233"
         ry="0.037900001"
         fill="currentColor"
         id="rect74" />
    </g>
  </a>
  <g
     transform="translate(22.27735,1.3090873)"
     id="g82">
    <polygon
       stroke-linejoin="round"
       stroke-linecap="round"
       stroke-width="0.08"
       fill="currentColor"
       stroke="currentColor"
       points="0.04,0.164 0.04,-0.164 6.1481,-0.589 6.1481,-0.261 "
       id="polygon80" />
  </g>
  <g
     transform="translate(27.30375,1.6572873)"
     id="g86">
    <polygon
       stroke-linejoin="round"
       stroke-linecap="round"
       stroke-width="0.08"
       fill="currentColor"
       stroke="currentColor"
       points="0.04,0.164 0.04,-0.164 1.1217,-0.2438 1.1217,0.0842 "
       id="polygon84" />
  </g>
  <g
     transform="translate(22.27735,2.0024873)"
     id="g90">
    <polygon
       stroke-linejoin="round"
       stroke-linecap="round"
       stroke-width="0.08"
       fill="currentColor"
       stroke="currentColor"
       points="0.04,0.164 0.04,-0.164 1.1217,-0.2438 1.1217,0.0842 "
       id="polygon88" />
  </g>
  <a
     style="color:inherit"
     xlink:href="textedit:///Users/tomsegarra/Documents/dev/dummies/lilypond_files/aa2be72a0550520ff8aacb5eefffd22c.ly:24:10:11"
     id="a96"
     transform="translate(-2.27615,-3.2815127)">
    <g
       transform="translate(23.5694,8.4156)"
       id="g94">
      <path
         transform="scale(0.0034,-0.0034)"
         d="m 215,137 c 67,0 111,-37 111,-92 0,-90 -111,-182 -215,-182 -67,0 -111,37 -111,92 0,90 111,182 215,182 z"
         fill="currentColor"
         id="path92" />
    </g>
  </a>
  <a
     style="color:inherit"
     xlink:href="textedit:///Users/tomsegarra/Documents/dev/dummies/lilypond_files/aa2be72a0550520ff8aacb5eefffd22c.ly:30:15:16"
     id="a104"
     transform="translate(-2.27615,-3.2815127)">
    <g
       transform="translate(22.3818,12.6406)"
       id="g102">
      <text
         font-family="serif"
         font-size="2.0989px"
         text-anchor="start"
         fill="currentColor"
         id="text100"><tspan
           id="tspan98">Hab</tspan></text>
    </g>
  </a>
  <g
     transform="translate(22.33895,3.8590873)"
     id="g108">
    <rect
       x="-0.061700001"
       y="-2.5541999"
       width="0.1233"
       height="3.6768"
       ry="0.039999999"
       fill="currentColor"
       id="rect106" />
  </g>
  <g
     color="#ff0000"
     id="g118"
     transform="translate(-2.27615,-3.2815127)">
    <g
       transform="translate(32.6756,5.4406)"
       id="g112">
      <polygon
         stroke-linejoin="round"
         stroke-linecap="round"
         stroke-width="0.08"
         fill="currentColor"
         stroke="currentColor"
         points="0.04,0.164 0.04,-0.164 3.4696,-0.8574 3.4696,-0.5294 "
         id="polygon110" />
    </g>
    <g
       transform="translate(32.6756,6.134)"
       id="g116">
      <polygon
         stroke-linejoin="round"
         stroke-linecap="round"
         stroke-width="0.08"
         fill="currentColor"
         stroke="currentColor"
         points="0.04,0.164 0.04,-0.164 1.1217,-0.3935 1.1217,-0.0655 "
         id="polygon114" />
    </g>
  </g>
  <a
     style="color:inherit"
     xlink:href="textedit:///Users/tomsegarra/Documents/dev/dummies/lilypond_files/aa2be72a0550520ff8aacb5eefffd22c.ly:24:14:15"
     id="a124"
     transform="translate(-2.27615,-3.2815127)">
    <g
       transform="translate(26.1268,7.5656)"
       id="g122">
      <path
         transform="scale(0.0034,-0.0034)"
         d="m 215,137 c 67,0 111,-37 111,-92 0,-90 -111,-182 -215,-182 -67,0 -111,37 -111,92 0,90 111,182 215,182 z"
         fill="currentColor"
         id="path120" />
    </g>
  </a>
  <a
     style="color:inherit"
     xlink:href="textedit:///Users/tomsegarra/Documents/dev/dummies/lilypond_files/aa2be72a0550520ff8aacb5eefffd22c.ly:30:22:23"
     id="a132"
     transform="translate(-2.27615,-3.2815127)">
    <g
       transform="translate(26.1,12.6406)"
       id="g130">
      <text
         font-family="serif"
         font-size="2.0989px"
         text-anchor="start"
         fill="currentColor"
         id="text128"><tspan
           id="tspan126">it</tspan></text>
    </g>
  </a>
  <g
     transform="translate(24.89635,3.8590873)"
     id="g136">
    <rect
       x="-0.061700001"
       y="-2.7298999"
       width="0.1233"
       height="3.0023999"
       ry="0.039999999"
       fill="currentColor"
       id="rect134" />
  </g>
  <a
     style="color:inherit"
     xlink:href="textedit:///Users/tomsegarra/Documents/dev/dummies/lilypond_files/aa2be72a0550520ff8aacb5eefffd22c.ly:30:35:36"
     id="a144"
     transform="translate(-2.27615,-3.2815127)">
    <g
       transform="translate(33.7025,12.6406)"
       id="g142">
      <text
         font-family="serif"
         font-size="2.0989px"
         text-anchor="start"
         fill="currentColor"
         id="text140"><tspan
           id="tspan138">bliss</tspan></text>
    </g>
  </a>
  <g
     color="#ff0000"
     id="g152"
     transform="translate(-2.27615,-3.2815127)">
    <a
       style="color:inherit"
       xlink:href="textedit:///Users/tomsegarra/Documents/dev/dummies/lilypond_files/aa2be72a0550520ff8aacb5eefffd22c.ly:28:4:5"
       id="a150">
      <g
         transform="translate(29.6342,7.5656)"
         id="g148">
        <path
           transform="scale(0.0034,-0.0034)"
           d="m 215,137 c 67,0 111,-37 111,-92 0,-90 -111,-182 -215,-182 -67,0 -111,37 -111,92 0,90 111,182 215,182 z"
           fill="currentColor"
           id="path146" />
      </g>
    </a>
  </g>
  <a
     style="color:inherit"
     xlink:href="textedit:///Users/tomsegarra/Documents/dev/dummies/lilypond_files/aa2be72a0550520ff8aacb5eefffd22c.ly:30:25:26"
     id="a160"
     transform="translate(-2.27615,-3.2815127)">
    <g
       transform="translate(29.4879,12.6406)"
       id="g158">
      <text
         font-family="serif"
         font-size="2.0989px"
         text-anchor="start"
         fill="currentColor"
         id="text156"><tspan
           id="tspan154">is</tspan></text>
    </g>
  </a>
  <g
     color="#ff0000"
     id="g166"
     transform="translate(-2.27615,-3.2815127)">
    <g
       transform="translate(30.6799,7.1406)"
       id="g164">
      <rect
         x="-0.061700001"
         y="-2.9707999"
         width="0.1233"
         height="3.2433"
         ry="0.039999999"
         fill="currentColor"
         id="rect162" />
    </g>
  </g>
  <g
     color="#ff0000"
     id="g174"
     transform="translate(-2.27615,-3.2815127)">
    <a
       style="color:inherit"
       xlink:href="textedit:///Users/tomsegarra/Documents/dev/dummies/lilypond_files/aa2be72a0550520ff8aacb5eefffd22c.ly:28:11:12"
       id="a172">
      <g
         transform="translate(35.0779,7.1406)"
         id="g170">
        <path
           transform="scale(0.0034,-0.0034)"
           d="m 215,137 c 67,0 111,-37 111,-92 0,-90 -111,-182 -215,-182 -67,0 -111,37 -111,92 0,90 111,182 215,182 z"
           fill="currentColor"
           id="path168" />
      </g>
    </a>
  </g>
  <g
     color="#ff0000"
     id="g182"
     transform="translate(-2.27615,-3.2815127)">
    <a
       style="color:inherit"
       xlink:href="textedit:///Users/tomsegarra/Documents/dev/dummies/lilypond_files/aa2be72a0550520ff8aacb5eefffd22c.ly:28:9:10"
       id="a180">
      <g
         transform="translate(31.6916,8.4156)"
         id="g178">
        <path
           transform="scale(0.0034,-0.0034)"
           d="m 215,137 c 67,0 111,-37 111,-92 0,-90 -111,-182 -215,-182 -67,0 -111,37 -111,92 0,90 111,182 215,182 z"
           fill="currentColor"
           id="path176" />
      </g>
    </a>
  </g>
  <a
     style="color:inherit"
     xlink:href="textedit:///Users/tomsegarra/Documents/dev/dummies/lilypond_files/aa2be72a0550520ff8aacb5eefffd22c.ly:30:31:32"
     id="a190"
     transform="translate(-2.27615,-3.2815127)">
    <g
       transform="translate(31.238,12.6406)"
       id="g188">
      <text
         font-family="serif"
         font-size="2.0989px"
         text-anchor="start"
         fill="currentColor"
         id="text186"><tspan
           id="tspan184">n't</tspan></text>
    </g>
  </a>
  <g
     color="#ff0000"
     id="g196"
     transform="translate(-2.27615,-3.2815127)">
    <g
       transform="translate(32.7373,7.1406)"
       id="g194">
      <rect
         x="-0.061700001"
         y="-1.7122"
         width="0.1233"
         height="2.8347001"
         ry="0.039999999"
         fill="currentColor"
         id="rect192" />
    </g>
  </g>
</svg>
