<?xml version="1.0" encoding="UTF-8" standalone="no"?>
<svg
   version="1.2"
   width="57.100292mm"
   height="15.357096mm"
   viewBox="0 0 32.494102 8.7390355"
   id="svg186"
   sodipodi:docname="aeb3e578bd2a10a034f37273b8316407.svg"
   xmlns:inkscape="http://www.inkscape.org/namespaces/inkscape"
   xmlns:sodipodi="http://sodipodi.sourceforge.net/DTD/sodipodi-0.dtd"
   xmlns:xlink="http://www.w3.org/1999/xlink"
   xmlns="http://www.w3.org/2000/svg"
   xmlns:svg="http://www.w3.org/2000/svg">
  <defs
     id="defs190" />
  <sodipodi:namedview
     id="namedview188"
     pagecolor="#ffffff"
     bordercolor="#000000"
     borderopacity="0.25"
     inkscape:showpageshadow="2"
     inkscape:pageopacity="0.0"
     inkscape:pagecheckerboard="0"
     inkscape:deskcolor="#d1d1d1"
     inkscape:document-units="mm" />
  <style
     type="text/css"
     id="style2"><![CDATA[
tspan { white-space: pre; }
]]></style>
  <!-- Page: 1/1 -->
  <g
     transform="translate(32.31385,3.208285)"
     id="g6">
    <rect
       x="0"
       y="-1.7"
       width="0.1802"
       height="3.4000001"
       ry="0.0000"
       fill="currentColor"
       id="rect4" />
  </g>
  <g
     transform="translate(4.9997121e-5,4.908285)"
     id="g10">
    <line
       stroke-linejoin="round"
       stroke-linecap="round"
       stroke-width="0.0949"
       stroke="currentColor"
       x1="0.047400001"
       y1="0"
       x2="32.446602"
       y2="0"
       id="line8" />
  </g>
  <g
     transform="translate(4.9997121e-5,4.058285)"
     id="g14">
    <line
       stroke-linejoin="round"
       stroke-linecap="round"
       stroke-width="0.0949"
       stroke="currentColor"
       x1="0.047400001"
       y1="0"
       x2="32.446602"
       y2="0"
       id="line12" />
  </g>
  <g
     transform="translate(4.9997121e-5,3.208285)"
     id="g18">
    <line
       stroke-linejoin="round"
       stroke-linecap="round"
       stroke-width="0.0949"
       stroke="currentColor"
       x1="0.047400001"
       y1="0"
       x2="32.446602"
       y2="0"
       id="line16" />
  </g>
  <g
     transform="translate(4.9997121e-5,2.358285)"
     id="g22">
    <line
       stroke-linejoin="round"
       stroke-linecap="round"
       stroke-width="0.0949"
       stroke="currentColor"
       x1="0.047400001"
       y1="0"
       x2="32.446602"
       y2="0"
       id="line20" />
  </g>
  <g
     transform="translate(4.9997121e-5,1.508285)"
     id="g26">
    <line
       stroke-linejoin="round"
       stroke-linecap="round"
       stroke-width="0.0949"
       stroke="currentColor"
       x1="0.047400001"
       y1="0"
       x2="32.446602"
       y2="0"
       id="line24" />
  </g>
  <a
     style="color:inherit"
     xlink:href="textedit:///Users/tomsegarra/Documents/dev/dummies/lilypond_files/aeb3e578bd2a10a034f37273b8316407.ly:24:4:5"
     id="a32"
     transform="translate(-2.27615,-3.278415)">
    <g
       transform="translate(13.0344,6.4867)"
       id="g30">
      <path
         transform="scale(0.0034,-0.0034)"
         d="M 364,0 H 11 C 5,0 0,5 0,11 v 134 c 0,6 5,11 11,11 h 353 c 6,0 11,-5 11,-11 V 11 C 375,5 370,0 364,0 Z"
         fill="currentColor"
         id="path28" />
    </g>
  </a>
  <g
     transform="translate(0.80005,4.058285)"
     id="g36">
    <path
       transform="scale(0.0034,-0.0034)"
       d="m 646,2 c 0,-113 -74,-213 -180,-247 3,-34 5,-68 5,-102 0,-20 -1,-40 -2,-60 -7,-121 -91,-228 -209,-228 -108,0 -196,87 -196,196 0,58 53,104 112,104 54,0 95,-48 95,-104 0,-52 -43,-95 -95,-95 -10,0 -20,2 -29,6 26,-38 68,-63 116,-63 h 3 c 93,2 153,92 159,190 1,19 2,37 2,56 0,30 -2,60 -4,90 -5,-1 -43,-8 -88,-8 -194,0 -333,180 -333,375 0,177 130,307 246,442 -31,98 -53,170 -53,347 0,115 55,223 148,290 7,5 16,4 22,-1 68,-80 134,-243 134,-357 0,-143 -85,-255 -178,-364 21,-68 40,-137 57,-206 1,0 5,1 11,1 C 545,264 646,135 646,2 Z M 462,-202 c 66,24 111,88 111,162 0,89 -65,178 -170,190 28,-135 50,-272 59,-352 z M 75,26 c 0,-145 141,-245 263,-245 1,0 46,0 81,6 -7,65 -27,206 -61,363 -79,-8 -124,-61 -124,-119 0,-43 25,-89 80,-121 5,-5 7,-11 7,-16 0,-12 -10,-23 -22,-23 -16,0 -127,63 -127,188 0,89 58,175 161,198 -14,58 -29,116 -46,173 C 181,308 75,186 75,26 Z M 406,1042 C 307,995 244,894 244,785 c 0,-49 13,-111 38,-191 79,97 144,199 144,324 0,33 0,63 -20,124 z"
       fill="currentColor"
       id="path34" />
  </g>
  <a
     style="color:inherit"
     xlink:href="textedit:///Users/tomsegarra/Documents/dev/dummies/lilypond_files/aeb3e578bd2a10a034f37273b8316407.ly:23:1:9"
     id="a46"
     transform="translate(-2.27615,-3.278415)">
    <g
       transform="translate(6.5762,4.7867)"
       id="g40">
      <path
         transform="scale(0.0034,-0.0034)"
         d="m 217,-311 c 0,-11 -8,-19 -19,-19 -11,0 -20,8 -20,19 v 142 l -81,-30 v -156 c 0,-11 -9,-20 -20,-20 -11,0 -19,9 -19,20 v 142 l -28,-11 c -3,-1 -5,-1 -8,-1 -12,0 -22,10 -22,23 v 57 c 0,9 6,18 15,21 l 43,16 V 49 L 30,39 C 27,38 25,38 22,38 10,38 0,47 0,60 v 57 c 0,9 6,18 15,21 l 43,16 v 157 c 0,11 8,19 19,19 11,0 20,-8 20,-19 V 169 l 81,30 v 156 c 0,11 9,20 20,20 11,0 19,-9 19,-20 V 213 l 28,11 c 3,1 5,1 8,1 12,0 22,-10 22,-23 v -57 c 0,-9 -6,-18 -15,-21 L 217,108 V -49 l 28,10 c 3,1 5,1 8,1 12,0 22,-9 22,-22 v -57 c 0,-9 -6,-18 -15,-21 l -43,-16 z M 97,64 V -94 l 81,30 V 94 Z"
         fill="currentColor"
         id="path38" />
    </g>
    <g
       transform="translate(7.5112,6.0617)"
       id="g44">
      <path
         transform="scale(0.0034,-0.0034)"
         d="m 217,-311 c 0,-11 -8,-19 -19,-19 -11,0 -20,8 -20,19 v 142 l -81,-30 v -156 c 0,-11 -9,-20 -20,-20 -11,0 -19,9 -19,20 v 142 l -28,-11 c -3,-1 -5,-1 -8,-1 -12,0 -22,10 -22,23 v 57 c 0,9 6,18 15,21 l 43,16 V 49 L 30,39 C 27,38 25,38 22,38 10,38 0,47 0,60 v 57 c 0,9 6,18 15,21 l 43,16 v 157 c 0,11 8,19 19,19 11,0 20,-8 20,-19 V 169 l 81,30 v 156 c 0,11 9,20 20,20 11,0 19,-9 19,-20 V 213 l 28,11 c 3,1 5,1 8,1 12,0 22,-10 22,-23 v -57 c 0,-9 -6,-18 -15,-21 L 217,108 V -49 l 28,10 c 3,1 5,1 8,1 12,0 22,-9 22,-22 v -57 c 0,-9 -6,-18 -15,-21 l -43,-16 z M 97,64 V -94 l 81,30 V 94 Z"
         fill="currentColor"
         id="path42" />
    </g>
  </a>
  <g
     transform="translate(7.32005,3.208285)"
     id="g50">
    <path
       transform="scale(0.0034,-0.0034)"
       d="m 358,29 c -30,0 -74,23 -74,73 0,38 27,76 71,76 4,0 7,0 11,-1 -27,36 -69,59 -116,59 -106,0 -113,-74 -113,-188 0,-15 1,-31 1,-48 0,-17 -1,-33 -1,-48 0,-114 7,-188 113,-188 79,0 136,70 155,150 2,7 7,10 13,10 7,0 14,-5 14,-13 0,-21 -50,-175 -182,-175 C 191,-264 0,-244 0,0 0,63 18,264 250,264 365,264 424,155 424,99 424,60 394,29 358,29 Z"
       fill="currentColor"
       id="path48" />
  </g>
  <a
     style="color:inherit"
     xlink:href="textedit:///Users/tomsegarra/Documents/dev/dummies/lilypond_files/aeb3e578bd2a10a034f37273b8316407.ly:30:28:29"
     id="a56"
     transform="translate(-2.27615,-3.278415)">
    <g
       transform="translate(26.4529,11.9867)"
       id="g54">
      <rect
         x="0"
         y="-0.54329997"
         width="0.30000001"
         height="0.1233"
         ry="0.037900001"
         fill="currentColor"
         id="rect52" />
    </g>
  </a>
  <g
     transform="translate(21.85965,5.144585)"
     id="g60">
    <polygon
       stroke-linejoin="round"
       stroke-linecap="round"
       stroke-width="0.08"
       fill="currentColor"
       stroke="currentColor"
       points="0.04,0.164 0.04,-0.164 1.1217,-0.2438 1.1217,0.0842 "
       id="polygon58" />
  </g>
  <g
     transform="translate(16.83325,5.489785)"
     id="g64">
    <polygon
       stroke-linejoin="round"
       stroke-linecap="round"
       stroke-width="0.08"
       fill="currentColor"
       stroke="currentColor"
       points="0.04,0.164 0.04,-0.164 1.1217,-0.2438 1.1217,0.0842 "
       id="polygon62" />
  </g>
  <g
     transform="translate(16.83325,6.183285)"
     id="g68">
    <polygon
       stroke-linejoin="round"
       stroke-linecap="round"
       stroke-width="0.08"
       fill="currentColor"
       stroke="currentColor"
       points="0.04,0.164 0.04,-0.164 6.1481,-0.589 6.1481,-0.261 "
       id="polygon66" />
  </g>
  <a
     style="color:inherit"
     xlink:href="textedit:///Users/tomsegarra/Documents/dev/dummies/lilypond_files/aeb3e578bd2a10a034f37273b8316407.ly:24:10:11"
     id="a74"
     transform="translate(-2.27615,-3.278415)">
    <g
       transform="translate(19.1094,6.4867)"
       id="g72">
      <path
         transform="scale(0.0034,-0.0034)"
         d="m 215,137 c 67,0 111,-37 111,-92 0,-90 -111,-182 -215,-182 -67,0 -111,37 -111,92 0,90 111,182 215,182 z"
         fill="currentColor"
         id="path70" />
    </g>
  </a>
  <a
     style="color:inherit"
     xlink:href="textedit:///Users/tomsegarra/Documents/dev/dummies/lilypond_files/aeb3e578bd2a10a034f37273b8316407.ly:30:15:16"
     id="a82"
     transform="translate(-2.27615,-3.278415)">
    <g
       transform="translate(17.9218,11.9867)"
       id="g80">
      <text
         font-family="serif"
         font-size="2.0989px"
         text-anchor="start"
         fill="currentColor"
         id="text78"><tspan
           id="tspan76">Hab</tspan></text>
    </g>
  </a>
  <g
     transform="translate(16.89495,3.208285)"
     id="g86">
    <rect
       x="-0.061700001"
       y="0.1525"
       width="0.1233"
       height="2.8183"
       ry="0.039999999"
       fill="currentColor"
       id="rect84" />
  </g>
  <a
     style="color:inherit"
     xlink:href="textedit:///Users/tomsegarra/Documents/dev/dummies/lilypond_files/aeb3e578bd2a10a034f37273b8316407.ly:24:15:16"
     id="a92"
     transform="translate(-2.27615,-3.278415)">
    <g
       transform="translate(21.6668,5.6367)"
       id="g90">
      <path
         transform="scale(0.0034,-0.0034)"
         d="m 215,137 c 67,0 111,-37 111,-92 0,-90 -111,-182 -215,-182 -67,0 -111,37 -111,92 0,90 111,182 215,182 z"
         fill="currentColor"
         id="path88" />
    </g>
  </a>
  <a
     style="color:inherit"
     xlink:href="textedit:///Users/tomsegarra/Documents/dev/dummies/lilypond_files/aeb3e578bd2a10a034f37273b8316407.ly:30:22:23"
     id="a100"
     transform="translate(-2.27615,-3.278415)">
    <g
       transform="translate(21.64,11.9867)"
       id="g98">
      <text
         font-family="serif"
         font-size="2.0989px"
         text-anchor="start"
         fill="currentColor"
         id="text96"><tspan
           id="tspan94">it</tspan></text>
    </g>
  </a>
  <g
     transform="translate(19.45225,3.208285)"
     id="g104">
    <rect
       x="-0.061700001"
       y="-0.69749999"
       width="0.1233"
       height="3.4927001"
       ry="0.039999999"
       fill="currentColor"
       id="rect102" />
  </g>
  <g
     color="#ff0000"
     id="g114"
     transform="translate(-2.27615,-3.278415)">
    <g
       transform="translate(27.2316,8.3432)"
       id="g108">
      <polygon
         stroke-linejoin="round"
         stroke-linecap="round"
         stroke-width="0.08"
         fill="currentColor"
         stroke="currentColor"
         points="0.04,0.164 0.04,-0.164 1.1217,-0.3935 1.1217,-0.0655 "
         id="polygon106" />
    </g>
    <g
       transform="translate(27.2316,9.0367)"
       id="g112">
      <polygon
         stroke-linejoin="round"
         stroke-linecap="round"
         stroke-width="0.08"
         fill="currentColor"
         stroke="currentColor"
         points="0.04,0.164 0.04,-0.164 3.4696,-0.8574 3.4696,-0.5294 "
         id="polygon110" />
    </g>
  </g>
  <g
     color="#ff0000"
     id="g122"
     transform="translate(-2.27615,-3.278415)">
    <a
       style="color:inherit"
       xlink:href="textedit:///Users/tomsegarra/Documents/dev/dummies/lilypond_files/aeb3e578bd2a10a034f37273b8316407.ly:28:4:5"
       id="a120">
      <g
         transform="translate(25.1742,5.6367)"
         id="g118">
        <path
           transform="scale(0.0034,-0.0034)"
           d="m 215,137 c 67,0 111,-37 111,-92 0,-90 -111,-182 -215,-182 -67,0 -111,37 -111,92 0,90 111,182 215,182 z"
           fill="currentColor"
           id="path116" />
      </g>
    </a>
  </g>
  <a
     style="color:inherit"
     xlink:href="textedit:///Users/tomsegarra/Documents/dev/dummies/lilypond_files/aeb3e578bd2a10a034f37273b8316407.ly:30:25:26"
     id="a130"
     transform="translate(-2.27615,-3.278415)">
    <g
       transform="translate(25.0279,11.9867)"
       id="g128">
      <text
         font-family="serif"
         font-size="2.0989px"
         text-anchor="start"
         fill="currentColor"
         id="text126"><tspan
           id="tspan124">is</tspan></text>
    </g>
  </a>
  <g
     color="#ff0000"
     id="g136"
     transform="translate(-2.27615,-3.278415)">
    <g
       transform="translate(25.2358,6.4867)"
       id="g134">
      <rect
         x="-0.061700001"
         y="-0.69749999"
         width="0.1233"
         height="3.2518001"
         ry="0.039999999"
         fill="currentColor"
         id="rect132" />
    </g>
  </g>
  <g
     color="#ff0000"
     id="g144"
     transform="translate(-2.27615,-3.278415)">
    <a
       style="color:inherit"
       xlink:href="textedit:///Users/tomsegarra/Documents/dev/dummies/lilypond_files/aeb3e578bd2a10a034f37273b8316407.ly:28:9:10"
       id="a142">
      <g
         transform="translate(27.2316,6.4867)"
         id="g140">
        <path
           transform="scale(0.0034,-0.0034)"
           d="m 215,137 c 67,0 111,-37 111,-92 0,-90 -111,-182 -215,-182 -67,0 -111,37 -111,92 0,90 111,182 215,182 z"
           fill="currentColor"
           id="path138" />
      </g>
    </a>
  </g>
  <a
     style="color:inherit"
     xlink:href="textedit:///Users/tomsegarra/Documents/dev/dummies/lilypond_files/aeb3e578bd2a10a034f37273b8316407.ly:30:31:32"
     id="a152"
     transform="translate(-2.27615,-3.278415)">
    <g
       transform="translate(26.778,11.9867)"
       id="g150">
      <text
         font-family="serif"
         font-size="2.0989px"
         text-anchor="start"
         fill="currentColor"
         id="text148"><tspan
           id="tspan146">n't</tspan></text>
    </g>
  </a>
  <g
     color="#ff0000"
     id="g158"
     transform="translate(-2.27615,-3.278415)">
    <g
       transform="translate(27.2932,6.4867)"
       id="g156">
      <rect
         x="-0.061700001"
         y="0.1525"
         width="0.1233"
         height="2.3854001"
         ry="0.039999999"
         fill="currentColor"
         id="rect154" />
    </g>
  </g>
  <g
     color="#ff0000"
     id="g164"
     transform="translate(-2.27615,-3.278415)">
    <g
       transform="translate(30.6795,6.4867)"
       id="g162">
      <rect
         x="-0.061700001"
         y="-1.1224999"
         width="0.1233"
         height="2.9913001"
         ry="0.039999999"
         fill="currentColor"
         id="rect160" />
    </g>
  </g>
  <g
     color="#ff0000"
     id="g172"
     transform="translate(-2.27615,-3.278415)">
    <a
       style="color:inherit"
       xlink:href="textedit:///Users/tomsegarra/Documents/dev/dummies/lilypond_files/aeb3e578bd2a10a034f37273b8316407.ly:28:11:12"
       id="a170">
      <g
         transform="translate(30.6179,5.2117)"
         id="g168">
        <path
           transform="scale(0.0034,-0.0034)"
           d="m 215,137 c 67,0 111,-37 111,-92 0,-90 -111,-182 -215,-182 -67,0 -111,37 -111,92 0,90 111,182 215,182 z"
           fill="currentColor"
           id="path166" />
      </g>
    </a>
  </g>
  <a
     style="color:inherit"
     xlink:href="textedit:///Users/tomsegarra/Documents/dev/dummies/lilypond_files/aeb3e578bd2a10a034f37273b8316407.ly:30:35:36"
     id="a180"
     transform="translate(-2.27615,-3.278415)">
    <g
       transform="translate(29.2425,11.9867)"
       id="g178">
      <text
         font-family="serif"
         font-size="2.0989px"
         text-anchor="start"
         fill="currentColor"
         id="text176"><tspan
           id="tspan174">bliss</tspan></text>
    </g>
  </a>
  <g
     transform="translate(29.82815,1.933285)"
     id="g184">
    <path
       transform="scale(0.0034,-0.0034)"
       d="M 0,0 C 0,31 25,56 56,56 87,56 111,31 111,0 111,-31 87,-56 56,-56 25,-56 0,-31 0,0 Z"
       fill="currentColor"
       id="path182" />
  </g>
</svg>
