<?xml version="1.0" encoding="UTF-8" standalone="no"?>
<svg
   version="1.2"
   width="166.39958mm"
   height="4.7446003mm"
   viewBox="0 0 94.692667 2.6999396"
   id="svg214"
   sodipodi:docname="b03e2ee4ea1ee474b5372f2c961ee9f6.svg"
   xmlns:inkscape="http://www.inkscape.org/namespaces/inkscape"
   xmlns:sodipodi="http://sodipodi.sourceforge.net/DTD/sodipodi-0.dtd"
   xmlns:xlink="http://www.w3.org/1999/xlink"
   xmlns="http://www.w3.org/2000/svg"
   xmlns:svg="http://www.w3.org/2000/svg">
  <defs
     id="defs218" />
  <sodipodi:namedview
     id="namedview216"
     pagecolor="#ffffff"
     bordercolor="#000000"
     borderopacity="0.25"
     inkscape:showpageshadow="2"
     inkscape:pageopacity="0.0"
     inkscape:pagecheckerboard="0"
     inkscape:deskcolor="#d1d1d1"
     inkscape:document-units="mm" />
  <style
     type="text/css"
     id="style2"><![CDATA[
tspan { white-space: pre; }
]]></style>
  <!-- Page: 1/1 -->
  <a
     style="color:inherit"
     xlink:href="textedit:///Users/tomsegarra/Documents/dev/dummies/lilypond_files/b03e2ee4ea1ee474b5372f2c961ee9f6.ly:20:9:10"
     id="a10"
     transform="translate(-2.8044344,-3.2788875)">
    <g
       transform="translate(9.2762,5.227)"
       id="g8">
      <text
         font-family="sans-serif"
         font-size="2.224px"
         text-anchor="start"
         fill="currentColor"
         id="text6"><tspan
           id="tspan4">F</tspan></text>
    </g>
  </a>
  <a
     style="color:inherit"
     xlink:href="textedit:///Users/tomsegarra/Documents/dev/dummies/lilypond_files/b03e2ee4ea1ee474b5372f2c961ee9f6.ly:20:4:5"
     id="a24"
     transform="translate(-2.8044344,-3.2788875)">
    <g
       transform="translate(2.7762,5.227)"
       id="g16">
      <text
         font-family="sans-serif"
         font-size="2.224px"
         text-anchor="start"
         fill="currentColor"
         id="text14"><tspan
           id="tspan12">A</tspan></text>
    </g>
    <g
       transform="translate(4.3127,5.227)"
       id="g22">
      <text
         font-family="sans-serif"
         font-size="2.224px"
         text-anchor="start"
         fill="currentColor"
         id="text20"><tspan
           id="tspan18">m</tspan></text>
    </g>
  </a>
  <a
     style="color:inherit"
     xlink:href="textedit:///Users/tomsegarra/Documents/dev/dummies/lilypond_files/b03e2ee4ea1ee474b5372f2c961ee9f6.ly:20:11:12"
     id="a32"
     transform="translate(-2.8044344,-3.2788875)">
    <g
       transform="translate(15.7762,5.227)"
       id="g30">
      <text
         font-family="sans-serif"
         font-size="2.224px"
         text-anchor="start"
         fill="currentColor"
         id="text28"><tspan
           id="tspan26">C</tspan></text>
    </g>
  </a>
  <a
     style="color:inherit"
     xlink:href="textedit:///Users/tomsegarra/Documents/dev/dummies/lilypond_files/b03e2ee4ea1ee474b5372f2c961ee9f6.ly:20:13:14"
     id="a40"
     transform="translate(-2.8044344,-3.2788875)">
    <g
       transform="translate(22.2762,5.227)"
       id="g38">
      <text
         font-family="sans-serif"
         font-size="2.224px"
         text-anchor="start"
         fill="currentColor"
         id="text36"><tspan
           id="tspan34">G</tspan></text>
    </g>
  </a>
  <a
     style="color:inherit"
     xlink:href="textedit:///Users/tomsegarra/Documents/dev/dummies/lilypond_files/b03e2ee4ea1ee474b5372f2c961ee9f6.ly:26:4:5"
     id="a48"
     transform="translate(-2.8044344,-3.2788875)">
    <g
       transform="translate(28.7762,5.227)"
       id="g46">
      <text
         font-family="sans-serif"
         font-size="2.224px"
         text-anchor="start"
         fill="currentColor"
         id="text44"><tspan
           id="tspan42">B</tspan></text>
    </g>
  </a>
  <a
     style="color:inherit"
     xlink:href="textedit:///Users/tomsegarra/Documents/dev/dummies/lilypond_files/b03e2ee4ea1ee474b5372f2c961ee9f6.ly:35:12:13"
     id="a60"
     transform="translate(-2.8044344,-3.2788875)">
    <g
       transform="translate(95.2438,5.227)"
       id="g54">
      <text
         font-family="sans-serif"
         font-size="2.224px"
         text-anchor="start"
         fill="currentColor"
         id="text52"><tspan
           id="tspan50">F</tspan></text>
    </g>
    <g
       transform="translate(96.5071,4.627)"
       id="g58">
      <path
         transform="scale(0.0036,-0.0036)"
         d="m 217,-311 c 0,-11 -8,-19 -19,-19 -11,0 -20,8 -20,19 v 142 l -81,-30 v -156 c 0,-11 -9,-20 -20,-20 -11,0 -19,9 -19,20 v 142 l -28,-11 c -3,-1 -5,-1 -8,-1 -12,0 -22,10 -22,23 v 57 c 0,9 6,18 15,21 l 43,16 V 49 L 30,39 C 27,38 25,38 22,38 10,38 0,47 0,60 v 57 c 0,9 6,18 15,21 l 43,16 v 157 c 0,11 8,19 19,19 11,0 20,-8 20,-19 V 169 l 81,30 v 156 c 0,11 9,20 20,20 11,0 19,-9 19,-20 V 213 l 28,11 c 3,1 5,1 8,1 12,0 22,-10 22,-23 v -57 c 0,-9 -6,-18 -15,-21 L 217,108 V -49 l 28,10 c 3,1 5,1 8,1 12,0 22,-9 22,-22 v -57 c 0,-9 -6,-18 -15,-21 l -43,-16 z M 97,64 V -94 l 81,30 V 94 Z"
         fill="currentColor"
         id="path56" />
    </g>
  </a>
  <a
     style="color:inherit"
     xlink:href="textedit:///Users/tomsegarra/Documents/dev/dummies/lilypond_files/b03e2ee4ea1ee474b5372f2c961ee9f6.ly:35:10:11"
     id="a68"
     transform="translate(-2.8044344,-3.2788875)">
    <g
       transform="translate(91.1438,5.227)"
       id="g66">
      <text
         font-family="sans-serif"
         font-size="2.224px"
         text-anchor="start"
         fill="currentColor"
         id="text64"><tspan
           id="tspan62">E</tspan></text>
    </g>
  </a>
  <a
     style="color:inherit"
     xlink:href="textedit:///Users/tomsegarra/Documents/dev/dummies/lilypond_files/b03e2ee4ea1ee474b5372f2c961ee9f6.ly:26:9:10"
     id="a76"
     transform="translate(-2.8044344,-3.2788875)">
    <g
       transform="translate(33.5782,5.227)"
       id="g74">
      <text
         font-family="sans-serif"
         font-size="2.224px"
         text-anchor="start"
         fill="currentColor"
         id="text72"><tspan
           id="tspan70">D</tspan></text>
    </g>
  </a>
  <a
     style="color:inherit"
     xlink:href="textedit:///Users/tomsegarra/Documents/dev/dummies/lilypond_files/b03e2ee4ea1ee474b5372f2c961ee9f6.ly:35:8:9"
     id="a84"
     transform="translate(-2.8044344,-3.2788875)">
    <g
       transform="translate(87.0438,5.227)"
       id="g82">
      <text
         font-family="sans-serif"
         font-size="2.224px"
         text-anchor="start"
         fill="currentColor"
         id="text80"><tspan
           id="tspan78">D</tspan></text>
    </g>
  </a>
  <a
     style="color:inherit"
     xlink:href="textedit:///Users/tomsegarra/Documents/dev/dummies/lilypond_files/b03e2ee4ea1ee474b5372f2c961ee9f6.ly:26:12:13"
     id="a92"
     transform="translate(-2.8044344,-3.2788875)">
    <g
       transform="translate(36.4782,5.227)"
       id="g90">
      <text
         font-family="sans-serif"
         font-size="2.224px"
         text-anchor="start"
         fill="currentColor"
         id="text88"><tspan
           id="tspan86">E</tspan></text>
    </g>
  </a>
  <a
     style="color:inherit"
     xlink:href="textedit:///Users/tomsegarra/Documents/dev/dummies/lilypond_files/b03e2ee4ea1ee474b5372f2c961ee9f6.ly:26:14:15"
     id="a104"
     transform="translate(-2.8044344,-3.2788875)">
    <g
       transform="translate(39.3782,5.227)"
       id="g98">
      <text
         font-family="sans-serif"
         font-size="2.224px"
         text-anchor="start"
         fill="currentColor"
         id="text96"><tspan
           id="tspan94">F</tspan></text>
    </g>
    <g
       transform="translate(40.6415,4.627)"
       id="g102">
      <path
         transform="scale(0.0036,-0.0036)"
         d="m 217,-311 c 0,-11 -8,-19 -19,-19 -11,0 -20,8 -20,19 v 142 l -81,-30 v -156 c 0,-11 -9,-20 -20,-20 -11,0 -19,9 -19,20 v 142 l -28,-11 c -3,-1 -5,-1 -8,-1 -12,0 -22,10 -22,23 v 57 c 0,9 6,18 15,21 l 43,16 V 49 L 30,39 C 27,38 25,38 22,38 10,38 0,47 0,60 v 57 c 0,9 6,18 15,21 l 43,16 v 157 c 0,11 8,19 19,19 11,0 20,-8 20,-19 V 169 l 81,30 v 156 c 0,11 9,20 20,20 11,0 19,-9 19,-20 V 213 l 28,11 c 3,1 5,1 8,1 12,0 22,-10 22,-23 v -57 c 0,-9 -6,-18 -15,-21 L 217,108 V -49 l 28,10 c 3,1 5,1 8,1 12,0 22,-9 22,-22 v -57 c 0,-9 -6,-18 -15,-21 l -43,-16 z M 97,64 V -94 l 81,30 V 94 Z"
         fill="currentColor"
         id="path100" />
    </g>
  </a>
  <a
     style="color:inherit"
     xlink:href="textedit:///Users/tomsegarra/Documents/dev/dummies/lilypond_files/b03e2ee4ea1ee474b5372f2c961ee9f6.ly:35:4:5"
     id="a116"
     transform="translate(-2.8044344,-3.2788875)">
    <g
       transform="translate(82.9438,5.227)"
       id="g110">
      <text
         font-family="sans-serif"
         font-size="2.224px"
         text-anchor="start"
         fill="currentColor"
         id="text108"><tspan
           id="tspan106">C</tspan></text>
    </g>
    <g
       transform="translate(84.4803,4.627)"
       id="g114">
      <path
         transform="scale(0.0036,-0.0036)"
         d="m 217,-311 c 0,-11 -8,-19 -19,-19 -11,0 -20,8 -20,19 v 142 l -81,-30 v -156 c 0,-11 -9,-20 -20,-20 -11,0 -19,9 -19,20 v 142 l -28,-11 c -3,-1 -5,-1 -8,-1 -12,0 -22,10 -22,23 v 57 c 0,9 6,18 15,21 l 43,16 V 49 L 30,39 C 27,38 25,38 22,38 10,38 0,47 0,60 v 57 c 0,9 6,18 15,21 l 43,16 v 157 c 0,11 8,19 19,19 11,0 20,-8 20,-19 V 169 l 81,30 v 156 c 0,11 9,20 20,20 11,0 19,-9 19,-20 V 213 l 28,11 c 3,1 5,1 8,1 12,0 22,-10 22,-23 v -57 c 0,-9 -6,-18 -15,-21 L 217,108 V -49 l 28,10 c 3,1 5,1 8,1 12,0 22,-9 22,-22 v -57 c 0,-9 -6,-18 -15,-21 l -43,-16 z M 97,64 V -94 l 81,30 V 94 Z"
         fill="currentColor"
         id="path112" />
    </g>
  </a>
  <a
     style="color:inherit"
     xlink:href="textedit:///Users/tomsegarra/Documents/dev/dummies/lilypond_files/b03e2ee4ea1ee474b5372f2c961ee9f6.ly:26:18:19"
     id="a124"
     transform="translate(-2.8044344,-3.2788875)">
    <g
       transform="translate(42.7321,5.227)"
       id="g122">
      <text
         font-family="sans-serif"
         font-size="2.224px"
         text-anchor="start"
         fill="currentColor"
         id="text120"><tspan
           id="tspan118">E</tspan></text>
    </g>
  </a>
  <a
     style="color:inherit"
     xlink:href="textedit:///Users/tomsegarra/Documents/dev/dummies/lilypond_files/b03e2ee4ea1ee474b5372f2c961ee9f6.ly:32:13:14"
     id="a132"
     transform="translate(-2.8044344,-3.2788875)">
    <g
       transform="translate(78.8438,5.227)"
       id="g130">
      <text
         font-family="sans-serif"
         font-size="2.224px"
         text-anchor="start"
         fill="currentColor"
         id="text128"><tspan
           id="tspan126">E</tspan></text>
    </g>
  </a>
  <a
     style="color:inherit"
     xlink:href="textedit:///Users/tomsegarra/Documents/dev/dummies/lilypond_files/b03e2ee4ea1ee474b5372f2c961ee9f6.ly:32:9:10"
     id="a144"
     transform="translate(-2.8044344,-3.2788875)">
    <g
       transform="translate(75.4899,5.227)"
       id="g138">
      <text
         font-family="sans-serif"
         font-size="2.224px"
         text-anchor="start"
         fill="currentColor"
         id="text136"><tspan
           id="tspan134">F</tspan></text>
    </g>
    <g
       transform="translate(76.7532,4.627)"
       id="g142">
      <path
         transform="scale(0.0036,-0.0036)"
         d="m 217,-311 c 0,-11 -8,-19 -19,-19 -11,0 -20,8 -20,19 v 142 l -81,-30 v -156 c 0,-11 -9,-20 -20,-20 -11,0 -19,9 -19,20 v 142 l -28,-11 c -3,-1 -5,-1 -8,-1 -12,0 -22,10 -22,23 v 57 c 0,9 6,18 15,21 l 43,16 V 49 L 30,39 C 27,38 25,38 22,38 10,38 0,47 0,60 v 57 c 0,9 6,18 15,21 l 43,16 v 157 c 0,11 8,19 19,19 11,0 20,-8 20,-19 V 169 l 81,30 v 156 c 0,11 9,20 20,20 11,0 19,-9 19,-20 V 213 l 28,11 c 3,1 5,1 8,1 12,0 22,-10 22,-23 v -57 c 0,-9 -6,-18 -15,-21 L 217,108 V -49 l 28,10 c 3,1 5,1 8,1 12,0 22,-9 22,-22 v -57 c 0,-9 -6,-18 -15,-21 l -43,-16 z M 97,64 V -94 l 81,30 V 94 Z"
         fill="currentColor"
         id="path140" />
    </g>
  </a>
  <a
     style="color:inherit"
     xlink:href="textedit:///Users/tomsegarra/Documents/dev/dummies/lilypond_files/b03e2ee4ea1ee474b5372f2c961ee9f6.ly:29:4:5"
     id="a152"
     transform="translate(-2.8044344,-3.2788875)">
    <g
       transform="translate(46.8321,5.227)"
       id="g150">
      <text
         font-family="sans-serif"
         font-size="2.224px"
         text-anchor="start"
         fill="currentColor"
         id="text148"><tspan
           id="tspan146">G</tspan></text>
    </g>
  </a>
  <a
     style="color:inherit"
     xlink:href="textedit:///Users/tomsegarra/Documents/dev/dummies/lilypond_files/b03e2ee4ea1ee474b5372f2c961ee9f6.ly:32:7:8"
     id="a160"
     transform="translate(-2.8044344,-3.2788875)">
    <g
       transform="translate(72.5899,5.227)"
       id="g158">
      <text
         font-family="sans-serif"
         font-size="2.224px"
         text-anchor="start"
         fill="currentColor"
         id="text156"><tspan
           id="tspan154">E</tspan></text>
    </g>
  </a>
  <a
     style="color:inherit"
     xlink:href="textedit:///Users/tomsegarra/Documents/dev/dummies/lilypond_files/b03e2ee4ea1ee474b5372f2c961ee9f6.ly:32:4:5"
     id="a168"
     transform="translate(-2.8044344,-3.2788875)">
    <g
       transform="translate(69.6899,5.227)"
       id="g166">
      <text
         font-family="sans-serif"
         font-size="2.224px"
         text-anchor="start"
         fill="currentColor"
         id="text164"><tspan
           id="tspan162">D</tspan></text>
    </g>
  </a>
  <a
     style="color:inherit"
     xlink:href="textedit:///Users/tomsegarra/Documents/dev/dummies/lilypond_files/b03e2ee4ea1ee474b5372f2c961ee9f6.ly:29:9:10"
     id="a176"
     transform="translate(-2.8044344,-3.2788875)">
    <g
       transform="translate(51.634,5.227)"
       id="g174">
      <text
         font-family="sans-serif"
         font-size="2.224px"
         text-anchor="start"
         fill="currentColor"
         id="text172"><tspan
           id="tspan170">D</tspan></text>
    </g>
  </a>
  <a
     style="color:inherit"
     xlink:href="textedit:///Users/tomsegarra/Documents/dev/dummies/lilypond_files/b03e2ee4ea1ee474b5372f2c961ee9f6.ly:29:13:14"
     id="a184"
     transform="translate(-2.8044344,-3.2788875)">
    <g
       transform="translate(54.534,5.227)"
       id="g182">
      <text
         font-family="sans-serif"
         font-size="2.224px"
         text-anchor="start"
         fill="currentColor"
         id="text180"><tspan
           id="tspan178">E</tspan></text>
    </g>
  </a>
  <a
     style="color:inherit"
     xlink:href="textedit:///Users/tomsegarra/Documents/dev/dummies/lilypond_files/b03e2ee4ea1ee474b5372f2c961ee9f6.ly:29:15:16"
     id="a196"
     transform="translate(-2.8044344,-3.2788875)">
    <g
       transform="translate(57.434,5.227)"
       id="g190">
      <text
         font-family="sans-serif"
         font-size="2.224px"
         text-anchor="start"
         fill="currentColor"
         id="text188"><tspan
           id="tspan186">F</tspan></text>
    </g>
    <g
       transform="translate(58.6973,4.627)"
       id="g194">
      <path
         transform="scale(0.0036,-0.0036)"
         d="m 217,-311 c 0,-11 -8,-19 -19,-19 -11,0 -20,8 -20,19 v 142 l -81,-30 v -156 c 0,-11 -9,-20 -20,-20 -11,0 -19,9 -19,20 v 142 l -28,-11 c -3,-1 -5,-1 -8,-1 -12,0 -22,10 -22,23 v 57 c 0,9 6,18 15,21 l 43,16 V 49 L 30,39 C 27,38 25,38 22,38 10,38 0,47 0,60 v 57 c 0,9 6,18 15,21 l 43,16 v 157 c 0,11 8,19 19,19 11,0 20,-8 20,-19 V 169 l 81,30 v 156 c 0,11 9,20 20,20 11,0 19,-9 19,-20 V 213 l 28,11 c 3,1 5,1 8,1 12,0 22,-10 22,-23 v -57 c 0,-9 -6,-18 -15,-21 L 217,108 V -49 l 28,10 c 3,1 5,1 8,1 12,0 22,-9 22,-22 v -57 c 0,-9 -6,-18 -15,-21 l -43,-16 z M 97,64 V -94 l 81,30 V 94 Z"
         fill="currentColor"
         id="path192" />
    </g>
  </a>
  <a
     style="color:inherit"
     xlink:href="textedit:///Users/tomsegarra/Documents/dev/dummies/lilypond_files/b03e2ee4ea1ee474b5372f2c961ee9f6.ly:29:24:25"
     id="a204"
     transform="translate(-2.8044344,-3.2788875)">
    <g
       transform="translate(64.8879,5.227)"
       id="g202">
      <text
         font-family="sans-serif"
         font-size="2.224px"
         text-anchor="start"
         fill="currentColor"
         id="text200"><tspan
           id="tspan198">A</tspan></text>
    </g>
  </a>
  <a
     style="color:inherit"
     xlink:href="textedit:///Users/tomsegarra/Documents/dev/dummies/lilypond_files/b03e2ee4ea1ee474b5372f2c961ee9f6.ly:29:19:20"
     id="a212"
     transform="translate(-2.8044344,-3.2788875)">
    <g
       transform="translate(60.7879,5.227)"
       id="g210">
      <text
         font-family="sans-serif"
         font-size="2.224px"
         text-anchor="start"
         fill="currentColor"
         id="text208"><tspan
           id="tspan206">E</tspan></text>
    </g>
  </a>
</svg>
