<?xml version="1.0" encoding="UTF-8" standalone="no"?>
<svg
   version="1.2"
   width="70.971146mm"
   height="15.921217mm"
   viewBox="0 0 40.385272 9.0600516"
   id="svg222"
   sodipodi:docname="b1a283bdeafb15578afff3d42b663135.svg"
   xmlns:inkscape="http://www.inkscape.org/namespaces/inkscape"
   xmlns:sodipodi="http://sodipodi.sourceforge.net/DTD/sodipodi-0.dtd"
   xmlns:xlink="http://www.w3.org/1999/xlink"
   xmlns="http://www.w3.org/2000/svg"
   xmlns:svg="http://www.w3.org/2000/svg">
  <defs
     id="defs226" />
  <sodipodi:namedview
     id="namedview224"
     pagecolor="#ffffff"
     bordercolor="#000000"
     borderopacity="0.25"
     inkscape:showpageshadow="2"
     inkscape:pageopacity="0.0"
     inkscape:pagecheckerboard="0"
     inkscape:deskcolor="#d1d1d1"
     inkscape:document-units="mm" />
  <style
     type="text/css"
     id="style2"><![CDATA[
tspan { white-space: pre; }
]]></style>
  <!-- Page: 1/1 -->
  <g
     transform="translate(-6.3389684e-4,4.9105767)"
     id="g6">
    <line
       stroke-linejoin="round"
       stroke-linecap="round"
       stroke-width="0.0949"
       stroke="currentColor"
       x1="0.047400001"
       y1="0"
       x2="40.339001"
       y2="0"
       id="line4" />
  </g>
  <g
     transform="translate(-6.3389684e-4,4.0605767)"
     id="g10">
    <line
       stroke-linejoin="round"
       stroke-linecap="round"
       stroke-width="0.0949"
       stroke="currentColor"
       x1="0.047400001"
       y1="0"
       x2="40.339001"
       y2="0"
       id="line8" />
  </g>
  <g
     transform="translate(-6.3389684e-4,3.2105767)"
     id="g14">
    <line
       stroke-linejoin="round"
       stroke-linecap="round"
       stroke-width="0.0949"
       stroke="currentColor"
       x1="0.047400001"
       y1="0"
       x2="40.339001"
       y2="0"
       id="line12" />
  </g>
  <g
     transform="translate(-6.3389684e-4,2.3605767)"
     id="g18">
    <line
       stroke-linejoin="round"
       stroke-linecap="round"
       stroke-width="0.0949"
       stroke="currentColor"
       x1="0.047400001"
       y1="0"
       x2="40.339001"
       y2="0"
       id="line16" />
  </g>
  <g
     transform="translate(-6.3389684e-4,1.5105767)"
     id="g22">
    <line
       stroke-linejoin="round"
       stroke-linecap="round"
       stroke-width="0.0949"
       stroke="currentColor"
       x1="0.047400001"
       y1="0"
       x2="40.339001"
       y2="0"
       id="line20" />
  </g>
  <g
     transform="translate(35.798166,3.2105767)"
     id="g26">
    <rect
       x="0"
       y="-1.7"
       width="0.1802"
       height="3.4000001"
       ry="0.0000"
       fill="currentColor"
       id="rect24" />
  </g>
  <a
     style="color:inherit"
     xlink:href="textedit:///Users/tomsegarra/Documents/dev/dummies/lilypond_files/b1a283bdeafb15578afff3d42b663135.ly:23:16:17"
     id="a34"
     transform="translate(-2.2768339,-3.2761233)">
    <g
       transform="translate(22.9381,11.9867)"
       id="g32">
      <text
         font-family="serif"
         font-size="2.0989px"
         text-anchor="start"
         fill="currentColor"
         id="text30"><tspan
           id="tspan28">that</tspan></text>
    </g>
  </a>
  <a
     style="color:inherit"
     xlink:href="textedit:///Users/tomsegarra/Documents/dev/dummies/lilypond_files/b1a283bdeafb15578afff3d42b663135.ly:20:4:5"
     id="a40"
     transform="translate(-2.2768339,-3.2761233)">
    <g
       transform="translate(14.3252,6.0617)"
       id="g38">
      <path
         transform="scale(0.0034,-0.0034)"
         d="m 215,137 c 67,0 111,-37 111,-92 0,-90 -111,-182 -215,-182 -67,0 -111,37 -111,92 0,90 111,182 215,182 z"
         fill="currentColor"
         id="path36" />
    </g>
  </a>
  <g
     transform="translate(0.7993661,4.0605767)"
     id="g44">
    <path
       transform="scale(0.0034,-0.0034)"
       d="m 646,2 c 0,-113 -74,-213 -180,-247 3,-34 5,-68 5,-102 0,-20 -1,-40 -2,-60 -7,-121 -91,-228 -209,-228 -108,0 -196,87 -196,196 0,58 53,104 112,104 54,0 95,-48 95,-104 0,-52 -43,-95 -95,-95 -10,0 -20,2 -29,6 26,-38 68,-63 116,-63 h 3 c 93,2 153,92 159,190 1,19 2,37 2,56 0,30 -2,60 -4,90 -5,-1 -43,-8 -88,-8 -194,0 -333,180 -333,375 0,177 130,307 246,442 -31,98 -53,170 -53,347 0,115 55,223 148,290 7,5 16,4 22,-1 68,-80 134,-243 134,-357 0,-143 -85,-255 -178,-364 21,-68 40,-137 57,-206 1,0 5,1 11,1 C 545,264 646,135 646,2 Z M 462,-202 c 66,24 111,88 111,162 0,89 -65,178 -170,190 28,-135 50,-272 59,-352 z M 75,26 c 0,-145 141,-245 263,-245 1,0 46,0 81,6 -7,65 -27,206 -61,363 -79,-8 -124,-61 -124,-119 0,-43 25,-89 80,-121 5,-5 7,-11 7,-16 0,-12 -10,-23 -22,-23 -16,0 -127,63 -127,188 0,89 58,175 161,198 -14,58 -29,116 -46,173 C 181,308 75,186 75,26 Z M 406,1042 C 307,995 244,894 244,785 c 0,-49 13,-111 38,-191 79,97 144,199 144,324 0,33 0,63 -20,124 z"
       fill="currentColor"
       id="path42" />
  </g>
  <a
     style="color:inherit"
     xlink:href="textedit:///Users/tomsegarra/Documents/dev/dummies/lilypond_files/b1a283bdeafb15578afff3d42b663135.ly:19:6:7"
     id="a62"
     transform="translate(-2.2768339,-3.2761233)">
    <g
       transform="translate(6.6864,6.4867)"
       id="g48">
      <path
         transform="scale(0.0034,-0.0034)"
         d="m 29,39 -2,-64 v -11 c 0,-22 2,-43 5,-65 44,38 91,80 91,138 0,33 -13,66 -42,66 C 50,103 30,72 29,39 Z m -57,415 c 9,5 18,8 28,8 10,0 19,-3 28,-8 L 21,111 c 25,23 58,36 92,36 51,0 87,-49 87,-103 0,-79 -84,-117 -144,-169 -16,-14 -25,-41 -47,-41 -14,0 -25,13 -25,27 z"
         fill="currentColor"
         id="path46" />
    </g>
    <g
       transform="translate(7.4766,5.2117)"
       id="g52">
      <path
         transform="scale(0.0034,-0.0034)"
         d="m 29,39 -2,-64 v -11 c 0,-22 2,-43 5,-65 44,38 91,80 91,138 0,33 -13,66 -42,66 C 50,103 30,72 29,39 Z m -57,415 c 9,5 18,8 28,8 10,0 19,-3 28,-8 L 21,111 c 25,23 58,36 92,36 51,0 87,-49 87,-103 0,-79 -84,-117 -144,-169 -16,-14 -25,-41 -47,-41 -14,0 -25,13 -25,27 z"
         fill="currentColor"
         id="path50" />
    </g>
    <g
       transform="translate(8.2668,6.9117)"
       id="g56">
      <path
         transform="scale(0.0034,-0.0034)"
         d="m 29,39 -2,-64 v -11 c 0,-22 2,-43 5,-65 44,38 91,80 91,138 0,33 -13,66 -42,66 C 50,103 30,72 29,39 Z m -57,415 c 9,5 18,8 28,8 10,0 19,-3 28,-8 L 21,111 c 25,23 58,36 92,36 51,0 87,-49 87,-103 0,-79 -84,-117 -144,-169 -16,-14 -25,-41 -47,-41 -14,0 -25,13 -25,27 z"
         fill="currentColor"
         id="path54" />
    </g>
    <g
       transform="translate(9.057,5.6367)"
       id="g60">
      <path
         transform="scale(0.0034,-0.0034)"
         d="m 29,39 -2,-64 v -11 c 0,-22 2,-43 5,-65 44,38 91,80 91,138 0,33 -13,66 -42,66 C 50,103 30,72 29,39 Z m -57,415 c 9,5 18,8 28,8 10,0 19,-3 28,-8 L 21,111 c 25,23 58,36 92,36 51,0 87,-49 87,-103 0,-79 -84,-117 -144,-169 -16,-14 -25,-41 -47,-41 -14,0 -25,13 -25,27 z"
         fill="currentColor"
         id="path58" />
    </g>
  </a>
  <g
     transform="translate(8.6101661,3.2105767)"
     id="g66">
    <path
       transform="scale(0.0034,-0.0034)"
       d="m 358,29 c -30,0 -74,23 -74,73 0,38 27,76 71,76 4,0 7,0 11,-1 -27,36 -69,59 -116,59 -106,0 -113,-74 -113,-188 0,-15 1,-31 1,-48 0,-17 -1,-33 -1,-48 0,-114 7,-188 113,-188 79,0 136,70 155,150 2,7 7,10 13,10 7,0 14,-5 14,-13 0,-21 -50,-175 -182,-175 C 191,-264 0,-244 0,0 0,63 18,264 250,264 365,264 424,155 424,99 424,60 394,29 358,29 Z"
       fill="currentColor"
       id="path64" />
  </g>
  <a
     style="color:inherit"
     xlink:href="textedit:///Users/tomsegarra/Documents/dev/dummies/lilypond_files/b1a283bdeafb15578afff3d42b663135.ly:23:4:5"
     id="a74"
     transform="translate(-2.2768339,-3.2761233)">
    <g
       transform="translate(12.8132,11.9867)"
       id="g72">
      <text
         font-family="serif"
         font-size="2.0989px"
         text-anchor="start"
         fill="currentColor"
         id="text70"><tspan
           id="tspan68">God,</tspan></text>
    </g>
  </a>
  <g
     transform="translate(12.110066,3.2105767)"
     id="g78">
    <rect
       x="-0.061700001"
       y="-0.27250001"
       width="0.1233"
       height="2.6659999"
       ry="0.039999999"
       fill="currentColor"
       id="rect76" />
  </g>
  <a
     style="color:inherit"
     xlink:href="textedit:///Users/tomsegarra/Documents/dev/dummies/lilypond_files/b1a283bdeafb15578afff3d42b663135.ly:20:17:18"
     id="a84"
     transform="translate(-2.2768339,-3.2761233)">
    <g
       transform="translate(29.4472,6.4867)"
       id="g82">
      <path
         transform="scale(0.0034,-0.0034)"
         d="m 215,137 c 67,0 111,-37 111,-92 0,-90 -111,-182 -215,-182 -67,0 -111,37 -111,92 0,90 111,182 215,182 z"
         fill="currentColor"
         id="path80" />
    </g>
  </a>
  <a
     style="color:inherit"
     xlink:href="textedit:///Users/tomsegarra/Documents/dev/dummies/lilypond_files/b1a283bdeafb15578afff3d42b663135.ly:23:23:24"
     id="a92"
     transform="translate(-2.2768339,-3.2761233)">
    <g
       transform="translate(27.6621,11.9867)"
       id="g90">
      <text
         font-family="serif"
         font-size="2.0989px"
         text-anchor="start"
         fill="currentColor"
         id="text88"><tspan
           id="tspan86">could</tspan></text>
    </g>
  </a>
  <g
     transform="translate(28.216166,3.2105767)"
     id="g96">
    <rect
       x="-0.061700001"
       y="-2.2112999"
       width="0.1233"
       height="2.0588"
       ry="0.039999999"
       fill="currentColor"
       id="rect94" />
  </g>
  <a
     style="color:inherit"
     xlink:href="textedit:///Users/tomsegarra/Documents/dev/dummies/lilypond_files/b1a283bdeafb15578afff3d42b663135.ly:20:21:22"
     id="a102"
     transform="translate(-2.2768339,-3.2761233)">
    <g
       transform="translate(33.2945,6.9117)"
       id="g100">
      <path
         transform="scale(0.0034,-0.0034)"
         d="m 215,137 c 67,0 111,-37 111,-92 0,-90 -111,-182 -215,-182 -67,0 -111,37 -111,92 0,90 111,182 215,182 z"
         fill="currentColor"
         id="path98" />
    </g>
  </a>
  <a
     style="color:inherit"
     xlink:href="textedit:///Users/tomsegarra/Documents/dev/dummies/lilypond_files/b1a283bdeafb15578afff3d42b663135.ly:23:29:30"
     id="a110"
     transform="translate(-2.2768339,-3.2761233)">
    <g
       transform="translate(32.7897,11.9867)"
       id="g108">
      <text
         font-family="serif"
         font-size="2.0989px"
         text-anchor="start"
         fill="currentColor"
         id="text106"><tspan
           id="tspan104">do</tspan></text>
    </g>
  </a>
  <g
     transform="translate(32.063366,3.2105767)"
     id="g114">
    <rect
       x="-0.061700001"
       y="-1.9918"
       width="0.1233"
       height="2.2643001"
       ry="0.039999999"
       fill="currentColor"
       id="rect112" />
  </g>
  <a
     style="color:inherit"
     xlink:href="textedit:///Users/tomsegarra/Documents/dev/dummies/lilypond_files/b1a283bdeafb15578afff3d42b663135.ly:20:25:26"
     id="a120"
     transform="translate(-2.2768339,-3.2761233)">
    <g
       transform="translate(35.6019,6.9117)"
       id="g118">
      <path
         transform="scale(0.0034,-0.0034)"
         d="m 215,137 c 67,0 111,-37 111,-92 0,-90 -111,-182 -215,-182 -67,0 -111,37 -111,92 0,90 111,182 215,182 z"
         fill="currentColor"
         id="path116" />
    </g>
  </a>
  <a
     style="color:inherit"
     xlink:href="textedit:///Users/tomsegarra/Documents/dev/dummies/lilypond_files/b1a283bdeafb15578afff3d42b663135.ly:23:32:33"
     id="a128"
     transform="translate(-2.2768339,-3.2761233)">
    <g
       transform="translate(35.6019,11.9867)"
       id="g126">
      <text
         font-family="serif"
         font-size="2.0989px"
         text-anchor="start"
         fill="currentColor"
         id="text124"><tspan
           id="tspan122">that</tspan></text>
    </g>
  </a>
  <g
     transform="translate(34.370766,3.2105767)"
     id="g132">
    <rect
       x="-0.061700001"
       y="-1.8601"
       width="0.1233"
       height="2.1326001"
       ry="0.039999999"
       fill="currentColor"
       id="rect130" />
  </g>
  <g
     transform="translate(12.048366,5.6039767)"
     id="g136">
    <polygon
       stroke-linejoin="round"
       stroke-linecap="round"
       stroke-width="0.08"
       fill="currentColor"
       stroke="currentColor"
       points="0.04,0.164 0.04,-0.164 9.7131,-0.164 9.7131,0.164 "
       id="polygon134" />
  </g>
  <a
     style="color:inherit"
     xlink:href="textedit:///Users/tomsegarra/Documents/dev/dummies/lilypond_files/b1a283bdeafb15578afff3d42b663135.ly:20:30:31"
     id="a142"
     transform="translate(-2.2768339,-3.2761233)">
    <g
       transform="translate(39.1553,7.7617)"
       id="g140">
      <path
         transform="scale(0.0034,-0.0034)"
         d="m 215,137 c 67,0 111,-37 111,-92 0,-90 -111,-182 -215,-182 -67,0 -111,37 -111,92 0,90 111,182 215,182 z"
         fill="currentColor"
         id="path138" />
    </g>
  </a>
  <g
     transform="translate(37.924166,3.2105767)"
     id="g146">
    <rect
       x="-0.061700001"
       y="-1.7"
       width="0.1233"
       height="2.8225"
       ry="0.039999999"
       fill="currentColor"
       id="rect144" />
  </g>
  <a
     style="color:inherit"
     xlink:href="textedit:///Users/tomsegarra/Documents/dev/dummies/lilypond_files/b1a283bdeafb15578afff3d42b663135.ly:20:28:29"
     id="a152"
     transform="translate(-2.2768339,-3.2761233)">
    <g
       transform="translate(35.6019,6.4867)"
       id="g150">
      <path
         stroke-width="0.0759"
         stroke-linejoin="round"
         stroke-linecap="round"
         stroke="currentColor"
         fill="currentColor"
         d="m 0.4678,1.3163 c 0.6615,0.9968 2.5125,1.4396 3.5534,0.85 v 0 C 3.0067,2.6452 1.1558,2.2024 0.4678,1.3163 Z"
         id="path148" />
    </g>
  </a>
  <a
     style="color:inherit"
     xlink:href="textedit:///Users/tomsegarra/Documents/dev/dummies/lilypond_files/b1a283bdeafb15578afff3d42b663135.ly:20:9:10"
     id="a158"
     transform="translate(-2.2768339,-3.2761233)">
    <g
       transform="translate(17.1823,6.0617)"
       id="g156">
      <path
         transform="scale(0.0034,-0.0034)"
         d="m 215,137 c 67,0 111,-37 111,-92 0,-90 -111,-182 -215,-182 -67,0 -111,37 -111,92 0,90 111,182 215,182 z"
         fill="currentColor"
         id="path154" />
    </g>
  </a>
  <a
     style="color:inherit"
     xlink:href="textedit:///Users/tomsegarra/Documents/dev/dummies/lilypond_files/b1a283bdeafb15578afff3d42b663135.ly:23:9:10"
     id="a166"
     transform="translate(-2.2768339,-3.2761233)">
    <g
       transform="translate(17.3946,11.9867)"
       id="g164">
      <text
         font-family="serif"
         font-size="2.0989px"
         text-anchor="start"
         fill="currentColor"
         id="text162"><tspan
           id="tspan160">I</tspan></text>
    </g>
  </a>
  <g
     transform="translate(14.967166,3.2105767)"
     id="g170">
    <rect
       x="-0.061700001"
       y="-0.27250001"
       width="0.1233"
       height="2.6659999"
       ry="0.039999999"
       fill="currentColor"
       id="rect168" />
  </g>
  <g
     transform="translate(25.024266,0.81707666)"
     id="g174">
    <polygon
       stroke-linejoin="round"
       stroke-linecap="round"
       stroke-width="0.08"
       fill="currentColor"
       stroke="currentColor"
       points="0.04,0.164 0.04,-0.164 9.3682,0.3729 9.3682,0.7009 "
       id="polygon172" />
  </g>
  <a
     style="color:inherit"
     xlink:href="textedit:///Users/tomsegarra/Documents/dev/dummies/lilypond_files/b1a283bdeafb15578afff3d42b663135.ly:20:11:12"
     id="a180"
     transform="translate(-2.2768339,-3.2761233)">
    <g
       transform="translate(19.9541,6.0617)"
       id="g178">
      <path
         transform="scale(0.0034,-0.0034)"
         d="m 215,137 c 67,0 111,-37 111,-92 0,-90 -111,-182 -215,-182 -67,0 -111,37 -111,92 0,90 111,182 215,182 z"
         fill="currentColor"
         id="path176" />
    </g>
  </a>
  <a
     style="color:inherit"
     xlink:href="textedit:///Users/tomsegarra/Documents/dev/dummies/lilypond_files/b1a283bdeafb15578afff3d42b663135.ly:23:11:12"
     id="a188"
     transform="translate(-2.2768339,-3.2761233)">
    <g
       transform="translate(18.5274,11.9867)"
       id="g186">
      <text
         font-family="serif"
         font-size="2.0989px"
         text-anchor="start"
         fill="currentColor"
         id="text184"><tspan
           id="tspan182">wish</tspan></text>
    </g>
  </a>
  <g
     transform="translate(17.738866,3.2105767)"
     id="g192">
    <rect
       x="-0.061700001"
       y="-0.27250001"
       width="0.1233"
       height="2.6659999"
       ry="0.039999999"
       fill="currentColor"
       id="rect190" />
  </g>
  <a
     style="color:inherit"
     xlink:href="textedit:///Users/tomsegarra/Documents/dev/dummies/lilypond_files/b1a283bdeafb15578afff3d42b663135.ly:20:13:14"
     id="a198"
     transform="translate(-2.2768339,-3.2761233)">
    <g
       transform="translate(23.955,6.0617)"
       id="g196">
      <path
         transform="scale(0.0034,-0.0034)"
         d="m 215,137 c 67,0 111,-37 111,-92 0,-90 -111,-182 -215,-182 -67,0 -111,37 -111,92 0,90 111,182 215,182 z"
         fill="currentColor"
         id="path194" />
    </g>
  </a>
  <g
     transform="translate(21.739766,3.2105767)"
     id="g202">
    <rect
       x="-0.061700001"
       y="-0.27250001"
       width="0.1233"
       height="2.6659999"
       ry="0.039999999"
       fill="currentColor"
       id="rect200" />
  </g>
  <g
     transform="translate(25.085866,3.2105767)"
     id="g206">
    <rect
       x="-0.061700001"
       y="-2.3899"
       width="0.1233"
       height="1.8125"
       ry="0.039999999"
       fill="currentColor"
       id="rect204" />
  </g>
  <a
     style="color:inherit"
     xlink:href="textedit:///Users/tomsegarra/Documents/dev/dummies/lilypond_files/b1a283bdeafb15578afff3d42b663135.ly:20:15:16"
     id="a212"
     transform="translate(-2.2768339,-3.2761233)">
    <g
       transform="translate(26.317,6.0617)"
       id="g210">
      <path
         transform="scale(0.0034,-0.0034)"
         d="m 215,137 c 67,0 111,-37 111,-92 0,-90 -111,-182 -215,-182 -67,0 -111,37 -111,92 0,90 111,182 215,182 z"
         fill="currentColor"
         id="path208" />
    </g>
  </a>
  <a
     style="color:inherit"
     xlink:href="textedit:///Users/tomsegarra/Documents/dev/dummies/lilypond_files/b1a283bdeafb15578afff3d42b663135.ly:23:21:22"
     id="a220"
     transform="translate(-2.2768339,-3.2761233)">
    <g
       transform="translate(26.5292,11.9867)"
       id="g218">
      <text
         font-family="serif"
         font-size="2.0989px"
         text-anchor="start"
         fill="currentColor"
         id="text216"><tspan
           id="tspan214">I</tspan></text>
    </g>
  </a>
</svg>
