<?xml version="1.0" encoding="UTF-8" standalone="no"?>
<svg
   version="1.2"
   width="89.90361mm"
   height="19.127195mm"
   viewBox="0 0 51.161698 10.88443"
   id="svg366"
   sodipodi:docname="b67ef285c9219cd7cbae80d98880bab2.svg"
   xmlns:inkscape="http://www.inkscape.org/namespaces/inkscape"
   xmlns:sodipodi="http://sodipodi.sourceforge.net/DTD/sodipodi-0.dtd"
   xmlns:xlink="http://www.w3.org/1999/xlink"
   xmlns="http://www.w3.org/2000/svg"
   xmlns:svg="http://www.w3.org/2000/svg">
  <defs
     id="defs370" />
  <sodipodi:namedview
     id="namedview368"
     pagecolor="#ffffff"
     bordercolor="#000000"
     borderopacity="0.25"
     inkscape:showpageshadow="2"
     inkscape:pageopacity="0.0"
     inkscape:pagecheckerboard="0"
     inkscape:deskcolor="#d1d1d1"
     inkscape:document-units="mm" />
  <style
     type="text/css"
     id="style2"><![CDATA[
tspan { white-space: pre; }
]]></style>
  <!-- Page: 1/1 -->
  <g
     transform="translate(34.70665,4.9291732)"
     id="g6">
    <rect
       x="0"
       y="-1.7"
       width="0.1802"
       height="3.4000001"
       ry="0.0000"
       fill="currentColor"
       id="rect4" />
  </g>
  <g
     transform="translate(4.9997121e-5,6.6291732)"
     id="g10">
    <line
       stroke-linejoin="round"
       stroke-linecap="round"
       stroke-width="0.0949"
       stroke="currentColor"
       x1="0.047400001"
       y1="0"
       x2="51.114201"
       y2="0"
       id="line8" />
  </g>
  <g
     transform="translate(4.9997121e-5,5.7791732)"
     id="g14">
    <line
       stroke-linejoin="round"
       stroke-linecap="round"
       stroke-width="0.0949"
       stroke="currentColor"
       x1="0.047400001"
       y1="0"
       x2="51.114201"
       y2="0"
       id="line12" />
  </g>
  <g
     transform="translate(4.9997121e-5,4.9291732)"
     id="g18">
    <line
       stroke-linejoin="round"
       stroke-linecap="round"
       stroke-width="0.0949"
       stroke="currentColor"
       x1="0.047400001"
       y1="0"
       x2="51.114201"
       y2="0"
       id="line16" />
  </g>
  <g
     transform="translate(4.9997121e-5,4.0791732)"
     id="g22">
    <line
       stroke-linejoin="round"
       stroke-linecap="round"
       stroke-width="0.0949"
       stroke="currentColor"
       x1="0.047400001"
       y1="0"
       x2="51.114201"
       y2="0"
       id="line20" />
  </g>
  <g
     transform="translate(4.9997121e-5,3.2291732)"
     id="g26">
    <line
       stroke-linejoin="round"
       stroke-linecap="round"
       stroke-width="0.0949"
       stroke="currentColor"
       x1="0.047400001"
       y1="0"
       x2="51.114201"
       y2="0"
       id="line24" />
  </g>
  <a
     style="color:inherit"
     xlink:href="textedit:///Users/tomsegarra/Documents/dev/dummies/lilypond_files/b67ef285c9219cd7cbae80d98880bab2.ly:19:12:13"
     id="a34"
     transform="translate(-2.27615,-3.2788268)">
    <g
       transform="translate(15.1154,4.9225)"
       id="g32">
      <text
         font-family="sans-serif"
         font-size="2.224px"
         text-anchor="start"
         fill="currentColor"
         id="text30"><tspan
           id="tspan28">C</tspan></text>
    </g>
  </a>
  <a
     style="color:inherit"
     xlink:href="textedit:///Users/tomsegarra/Documents/dev/dummies/lilypond_files/b67ef285c9219cd7cbae80d98880bab2.ly:25:4:5"
     id="a40"
     transform="translate(-2.27615,-3.2788268)">
    <g
       transform="translate(15.1154,8.208)"
       id="g38">
      <path
         transform="scale(0.0034,-0.0034)"
         d="m 70,205 c 80,0 46,-97 90,-97 15,0 52,45 59,59 6,13 26,13 31,0 L 129,-250 c -9,-7 -19,-11 -30,-11 -11,0 -21,4 -30,11 L 187,76 C 154,64 119,54 84,54 37,54 -3,88 -3,133 c 0,40 33,72 73,72 z"
         fill="currentColor"
         id="path36" />
    </g>
  </a>
  <g
     transform="translate(0.80005,5.7791732)"
     id="g44">
    <path
       transform="scale(0.0034,-0.0034)"
       d="m 646,2 c 0,-113 -74,-213 -180,-247 3,-34 5,-68 5,-102 0,-20 -1,-40 -2,-60 -7,-121 -91,-228 -209,-228 -108,0 -196,87 -196,196 0,58 53,104 112,104 54,0 95,-48 95,-104 0,-52 -43,-95 -95,-95 -10,0 -20,2 -29,6 26,-38 68,-63 116,-63 h 3 c 93,2 153,92 159,190 1,19 2,37 2,56 0,30 -2,60 -4,90 -5,-1 -43,-8 -88,-8 -194,0 -333,180 -333,375 0,177 130,307 246,442 -31,98 -53,170 -53,347 0,115 55,223 148,290 7,5 16,4 22,-1 68,-80 134,-243 134,-357 0,-143 -85,-255 -178,-364 21,-68 40,-137 57,-206 1,0 5,1 11,1 C 545,264 646,135 646,2 Z M 462,-202 c 66,24 111,88 111,162 0,89 -65,178 -170,190 28,-135 50,-272 59,-352 z M 75,26 c 0,-145 141,-245 263,-245 1,0 46,0 81,6 -7,65 -27,206 -61,363 -79,-8 -124,-61 -124,-119 0,-43 25,-89 80,-121 5,-5 7,-11 7,-16 0,-12 -10,-23 -22,-23 -16,0 -127,63 -127,188 0,89 58,175 161,198 -14,58 -29,116 -46,173 C 181,308 75,186 75,26 Z M 406,1042 C 307,995 244,894 244,785 c 0,-49 13,-111 38,-191 79,97 144,199 144,324 0,33 0,63 -20,124 z"
       fill="currentColor"
       id="path42" />
  </g>
  <a
     style="color:inherit"
     xlink:href="textedit:///Users/tomsegarra/Documents/dev/dummies/lilypond_files/b67ef285c9219cd7cbae80d98880bab2.ly:22:1:9"
     id="a66"
     transform="translate(-2.27615,-3.2788268)">
    <g
       transform="translate(6.6864,8.208)"
       id="g48">
      <path
         transform="scale(0.0034,-0.0034)"
         d="m 29,39 -2,-64 v -11 c 0,-22 2,-43 5,-65 44,38 91,80 91,138 0,33 -13,66 -42,66 C 50,103 30,72 29,39 Z m -57,415 c 9,5 18,8 28,8 10,0 19,-3 28,-8 L 21,111 c 25,23 58,36 92,36 51,0 87,-49 87,-103 0,-79 -84,-117 -144,-169 -16,-14 -25,-41 -47,-41 -14,0 -25,13 -25,27 z"
         fill="currentColor"
         id="path46" />
    </g>
    <g
       transform="translate(7.4766,6.933)"
       id="g52">
      <path
         transform="scale(0.0034,-0.0034)"
         d="m 29,39 -2,-64 v -11 c 0,-22 2,-43 5,-65 44,38 91,80 91,138 0,33 -13,66 -42,66 C 50,103 30,72 29,39 Z m -57,415 c 9,5 18,8 28,8 10,0 19,-3 28,-8 L 21,111 c 25,23 58,36 92,36 51,0 87,-49 87,-103 0,-79 -84,-117 -144,-169 -16,-14 -25,-41 -47,-41 -14,0 -25,13 -25,27 z"
         fill="currentColor"
         id="path50" />
    </g>
    <g
       transform="translate(8.2668,8.633)"
       id="g56">
      <path
         transform="scale(0.0034,-0.0034)"
         d="m 29,39 -2,-64 v -11 c 0,-22 2,-43 5,-65 44,38 91,80 91,138 0,33 -13,66 -42,66 C 50,103 30,72 29,39 Z m -57,415 c 9,5 18,8 28,8 10,0 19,-3 28,-8 L 21,111 c 25,23 58,36 92,36 51,0 87,-49 87,-103 0,-79 -84,-117 -144,-169 -16,-14 -25,-41 -47,-41 -14,0 -25,13 -25,27 z"
         fill="currentColor"
         id="path54" />
    </g>
    <g
       transform="translate(9.057,7.358)"
       id="g60">
      <path
         transform="scale(0.0034,-0.0034)"
         d="m 29,39 -2,-64 v -11 c 0,-22 2,-43 5,-65 44,38 91,80 91,138 0,33 -13,66 -42,66 C 50,103 30,72 29,39 Z m -57,415 c 9,5 18,8 28,8 10,0 19,-3 28,-8 L 21,111 c 25,23 58,36 92,36 51,0 87,-49 87,-103 0,-79 -84,-117 -144,-169 -16,-14 -25,-41 -47,-41 -14,0 -25,13 -25,27 z"
         fill="currentColor"
         id="path58" />
    </g>
    <g
       transform="translate(9.8472,9.058)"
       id="g64">
      <path
         transform="scale(0.0034,-0.0034)"
         d="m 29,39 -2,-64 v -11 c 0,-22 2,-43 5,-65 44,38 91,80 91,138 0,33 -13,66 -42,66 C 50,103 30,72 29,39 Z m -57,415 c 9,5 18,8 28,8 10,0 19,-3 28,-8 L 21,111 c 25,23 58,36 92,36 51,0 87,-49 87,-103 0,-79 -84,-117 -144,-169 -16,-14 -25,-41 -47,-41 -14,0 -25,13 -25,27 z"
         fill="currentColor"
         id="path62" />
    </g>
  </a>
  <g
     transform="translate(9.40115,4.9291732)"
     id="g70">
    <path
       transform="scale(0.0034,-0.0034)"
       d="m 358,29 c -30,0 -74,23 -74,73 0,38 27,76 71,76 4,0 7,0 11,-1 -27,36 -69,59 -116,59 -106,0 -113,-74 -113,-188 0,-15 1,-31 1,-48 0,-17 -1,-33 -1,-48 0,-114 7,-188 113,-188 79,0 136,70 155,150 2,7 7,10 13,10 7,0 14,-5 14,-13 0,-21 -50,-175 -182,-175 C 191,-264 0,-244 0,0 0,63 18,264 250,264 365,264 424,155 424,99 424,60 394,29 358,29 Z"
       fill="currentColor"
       id="path68" />
  </g>
  <a
     style="color:inherit"
     xlink:href="textedit:///Users/tomsegarra/Documents/dev/dummies/lilypond_files/b67ef285c9219cd7cbae80d98880bab2.ly:19:19:20"
     id="a78"
     transform="translate(-2.27615,-3.2788268)">
    <g
       transform="translate(38.063,4.9225)"
       id="g76">
      <text
         font-family="sans-serif"
         font-size="2.224px"
         text-anchor="start"
         fill="currentColor"
         id="text74"><tspan
           id="tspan72">G</tspan></text>
    </g>
  </a>
  <g
     color="#000000"
     id="g86"
     transform="translate(-2.27615,-3.2788268)">
    <a
       style="color:inherit"
       xlink:href="textedit:///Users/tomsegarra/Documents/dev/dummies/lilypond_files/b67ef285c9219cd7cbae80d98880bab2.ly:25:23:24"
       id="a84">
      <g
         transform="translate(38.063,8.208)"
         id="g82">
        <path
           transform="scale(0.0034,-0.0034)"
           d="m 215,137 c 67,0 111,-37 111,-92 0,-90 -111,-182 -215,-182 -67,0 -111,37 -111,92 0,90 111,182 215,182 z"
           fill="currentColor"
           id="path80" />
      </g>
    </a>
  </g>
  <a
     style="color:inherit"
     xlink:href="textedit:///Users/tomsegarra/Documents/dev/dummies/lilypond_files/b67ef285c9219cd7cbae80d98880bab2.ly:30:45:46"
     id="a94"
     transform="translate(-2.27615,-3.2788268)">
    <g
       transform="translate(37.507,13.708)"
       id="g92">
      <text
         font-family="serif"
         font-size="2.0989px"
         text-anchor="start"
         fill="currentColor"
         id="text90"><tspan
           id="tspan88">jin</tspan></text>
    </g>
  </a>
  <g
     color="#000000"
     id="g100"
     transform="translate(-2.27615,-3.2788268)">
    <g
       transform="translate(39.1087,8.208)"
       id="g98">
      <rect
         x="-0.061700001"
         y="-2.5490999"
         width="0.1233"
         height="2.3966"
         ry="0.039999999"
         fill="currentColor"
         id="rect96" />
    </g>
  </g>
  <g
     transform="translate(14.88925,6.6291732)"
     id="g104">
    <polygon
       stroke-linejoin="round"
       stroke-linecap="round"
       stroke-width="0.08"
       fill="currentColor"
       stroke="currentColor"
       points="0.04,0.164 0.04,-0.164 6.4804,-0.0074 6.4804,0.3206 "
       id="polygon102" />
  </g>
  <g
     color="#000000"
     id="g112"
     transform="translate(-2.27615,-3.2788268)">
    <a
       style="color:inherit"
       xlink:href="textedit:///Users/tomsegarra/Documents/dev/dummies/lilypond_files/b67ef285c9219cd7cbae80d98880bab2.ly:25:25:26"
       id="a110">
      <g
         transform="translate(40.9628,8.633)"
         id="g108">
        <path
           transform="scale(0.0034,-0.0034)"
           d="m 215,137 c 67,0 111,-37 111,-92 0,-90 -111,-182 -215,-182 -67,0 -111,37 -111,92 0,90 111,182 215,182 z"
           fill="currentColor"
           id="path106" />
      </g>
    </a>
  </g>
  <a
     style="color:inherit"
     xlink:href="textedit:///Users/tomsegarra/Documents/dev/dummies/lilypond_files/b67ef285c9219cd7cbae80d98880bab2.ly:30:52:53"
     id="a120"
     transform="translate(-2.27615,-3.2788268)">
    <g
       transform="translate(39.8264,13.708)"
       id="g118">
      <text
         font-family="serif"
         font-size="2.0989px"
         text-anchor="start"
         fill="currentColor"
         id="text116"><tspan
           id="tspan114">gles</tspan></text>
    </g>
  </a>
  <g
     color="#000000"
     id="g126"
     transform="translate(-2.27615,-3.2788268)">
    <g
       transform="translate(42.0085,8.208)"
       id="g124">
      <rect
         x="-0.061700001"
         y="-2.5049"
         width="0.1233"
         height="2.7774999"
         ry="0.039999999"
         fill="currentColor"
         id="rect122" />
    </g>
  </g>
  <g
     color="#ff0000"
     id="g134"
     transform="translate(-2.27615,-3.2788268)">
    <a
       style="color:inherit"
       xlink:href="textedit:///Users/tomsegarra/Documents/dev/dummies/lilypond_files/b67ef285c9219cd7cbae80d98880bab2.ly:28:4:5"
       id="a132">
      <g
         transform="translate(45.0319,8.633)"
         id="g130">
        <path
           transform="scale(0.0034,-0.0034)"
           d="m 215,137 c 67,0 111,-37 111,-92 0,-90 -111,-182 -215,-182 -67,0 -111,37 -111,92 0,90 111,182 215,182 z"
           fill="currentColor"
           id="path128" />
      </g>
    </a>
  </g>
  <a
     style="color:inherit"
     xlink:href="textedit:///Users/tomsegarra/Documents/dev/dummies/lilypond_files/b67ef285c9219cd7cbae80d98880bab2.ly:30:57:58"
     id="a142"
     transform="translate(-2.27615,-3.2788268)">
    <g
       transform="translate(43.6565,13.708)"
       id="g140">
      <text
         font-family="serif"
         font-size="2.0989px"
         text-anchor="start"
         fill="currentColor"
         id="text138"><tspan
           id="tspan136">used</tspan></text>
    </g>
  </a>
  <g
     color="#ff0000"
     id="g148"
     transform="translate(-2.27615,-3.2788268)">
    <g
       transform="translate(46.0777,8.208)"
       id="g146">
      <rect
         x="-0.061700001"
         y="-2.4430001"
         width="0.1233"
         height="2.7156"
         ry="0.039999999"
         fill="currentColor"
         id="rect144" />
    </g>
  </g>
  <g
     transform="translate(24.28855,7.3225732)"
     id="g152">
    <polygon
       stroke-linejoin="round"
       stroke-linecap="round"
       stroke-width="0.08"
       fill="currentColor"
       stroke="currentColor"
       points="0.04,0.164 0.04,-0.164 3.8366,0.1491 3.8366,0.4771 "
       id="polygon150" />
  </g>
  <g
     color="#ff0000"
     id="g160"
     transform="translate(-2.27615,-3.2788268)">
    <a
       style="color:inherit"
       xlink:href="textedit:///Users/tomsegarra/Documents/dev/dummies/lilypond_files/b67ef285c9219cd7cbae80d98880bab2.ly:28:6:7"
       id="a158">
      <g
         transform="translate(48.2305,8.633)"
         id="g156">
        <path
           transform="scale(0.0034,-0.0034)"
           d="m 215,137 c 67,0 111,-37 111,-92 0,-90 -111,-182 -215,-182 -67,0 -111,37 -111,92 0,90 111,182 215,182 z"
           fill="currentColor"
           id="path154" />
      </g>
    </a>
  </g>
  <a
     style="color:inherit"
     xlink:href="textedit:///Users/tomsegarra/Documents/dev/dummies/lilypond_files/b67ef285c9219cd7cbae80d98880bab2.ly:30:62:63"
     id="a168"
     transform="translate(-2.27615,-3.2788268)">
    <g
       transform="translate(47.9647,13.708)"
       id="g166">
      <text
         font-family="serif"
         font-size="2.0989px"
         text-anchor="start"
         fill="currentColor"
         id="text164"><tspan
           id="tspan162">to</tspan></text>
    </g>
  </a>
  <g
     color="#ff0000"
     id="g174"
     transform="translate(-2.27615,-3.2788268)">
    <g
       transform="translate(49.2762,8.208)"
       id="g172">
      <rect
         x="-0.061700001"
         y="-2.3943999"
         width="0.1233"
         height="2.6668999"
         ry="0.039999999"
         fill="currentColor"
         id="rect170" />
    </g>
  </g>
  <g
     color="#ff0000"
     id="g182"
     transform="translate(-2.27615,-3.2788268)">
    <a
       style="color:inherit"
       xlink:href="textedit:///Users/tomsegarra/Documents/dev/dummies/lilypond_files/b67ef285c9219cd7cbae80d98880bab2.ly:28:8:9"
       id="a180">
      <g
         transform="translate(51.1305,8.633)"
         id="g178">
        <path
           transform="scale(0.0034,-0.0034)"
           d="m 215,137 c 67,0 111,-37 111,-92 0,-90 -111,-182 -215,-182 -67,0 -111,37 -111,92 0,90 111,182 215,182 z"
           fill="currentColor"
           id="path176" />
      </g>
    </a>
  </g>
  <a
     style="color:inherit"
     xlink:href="textedit:///Users/tomsegarra/Documents/dev/dummies/lilypond_files/b67ef285c9219cd7cbae80d98880bab2.ly:30:65:66"
     id="a190"
     transform="translate(-2.27615,-3.2788268)">
    <g
       transform="translate(50.6257,13.708)"
       id="g188">
      <text
         font-family="serif"
         font-size="2.0989px"
         text-anchor="start"
         fill="currentColor"
         id="text186"><tspan
           id="tspan184">go</tspan></text>
    </g>
  </a>
  <g
     color="#ff0000"
     id="g196"
     transform="translate(-2.27615,-3.2788268)">
    <g
       transform="translate(52.1762,8.208)"
       id="g194">
      <rect
         x="-0.061700001"
         y="-2.55"
         width="0.1233"
         height="2.8225"
         ry="0.039999999"
         fill="currentColor"
         id="rect192" />
    </g>
  </g>
  <g
     color="#ff0000"
     id="g202"
     transform="translate(-2.27615,-3.2788268)">
    <g
       transform="translate(52.2379,5.698)"
       id="g200">
      <path
         transform="scale(0.0034,-0.0034)"
         d="m 0,0 c 0,-197 207,-335 207,-532 0,-71 -15,-141 -41,-207 -5,-8 -13,-12 -21,-12 -14,0 -27,11 -24,28 26,60 42,125 42,191 0,103 -93,207 -163,282 H -18 V 0 Z"
         fill="currentColor"
         id="path198" />
    </g>
  </g>
  <g
     color="#000000"
     id="g210"
     transform="translate(-2.27615,-3.2788268)">
    <a
       style="color:inherit"
       xlink:href="textedit:///Users/tomsegarra/Documents/dev/dummies/lilypond_files/b67ef285c9219cd7cbae80d98880bab2.ly:25:7:8"
       id="a208">
      <g
         transform="translate(17.1654,7.358)"
         id="g206">
        <path
           transform="scale(0.0034,-0.0034)"
           d="m 215,137 c 67,0 111,-37 111,-92 0,-90 -111,-182 -215,-182 -67,0 -111,37 -111,92 0,90 111,182 215,182 z"
           fill="currentColor"
           id="path204" />
      </g>
    </a>
  </g>
  <a
     style="color:inherit"
     xlink:href="textedit:///Users/tomsegarra/Documents/dev/dummies/lilypond_files/b67ef285c9219cd7cbae80d98880bab2.ly:30:15:16"
     id="a218"
     transform="translate(-2.27615,-3.2788268)">
    <g
       transform="translate(16.1997,13.708)"
       id="g216">
      <text
         font-family="serif"
         font-size="2.0989px"
         text-anchor="start"
         fill="currentColor"
         id="text214"><tspan
           id="tspan212">and</tspan></text>
    </g>
  </a>
  <g
     color="#000000"
     id="g224"
     transform="translate(-2.27615,-3.2788268)">
    <g
       transform="translate(17.2271,8.208)"
       id="g222">
      <rect
         x="-0.061700001"
         y="-0.69749999"
         width="0.1233"
         height="2.3989999"
         ry="0.039999999"
         fill="currentColor"
         id="rect220" />
    </g>
  </g>
  <g
     color="#000000"
     id="g232"
     transform="translate(-2.27615,-3.2788268)">
    <a
       style="color:inherit"
       xlink:href="textedit:///Users/tomsegarra/Documents/dev/dummies/lilypond_files/b67ef285c9219cd7cbae80d98880bab2.ly:25:11:12"
       id="a230">
      <g
         transform="translate(20.7225,7.358)"
         id="g228">
        <path
           transform="scale(0.0034,-0.0034)"
           d="m 215,137 c 67,0 111,-37 111,-92 0,-90 -111,-182 -215,-182 -67,0 -111,37 -111,92 0,90 111,182 215,182 z"
           fill="currentColor"
           id="path226" />
      </g>
    </a>
  </g>
  <a
     style="color:inherit"
     xlink:href="textedit:///Users/tomsegarra/Documents/dev/dummies/lilypond_files/b67ef285c9219cd7cbae80d98880bab2.ly:30:19:20"
     id="a240"
     transform="translate(-2.27615,-3.2788268)">
    <g
       transform="translate(19.6885,13.708)"
       id="g238">
      <text
         font-family="serif"
         font-size="2.0989px"
         text-anchor="start"
         fill="currentColor"
         id="text236"><tspan
           id="tspan234">you</tspan></text>
    </g>
  </a>
  <g
     color="#000000"
     id="g246"
     transform="translate(-2.27615,-3.2788268)">
    <g
       transform="translate(20.7841,8.208)"
       id="g244">
      <rect
         x="-0.061700001"
         y="-0.69749999"
         width="0.1233"
         height="2.4844"
         ry="0.039999999"
         fill="currentColor"
         id="rect242" />
    </g>
  </g>
  <g
     transform="translate(36.77095,2.3791732)"
     id="g250">
    <polygon
       stroke-linejoin="round"
       stroke-linecap="round"
       stroke-width="0.08"
       fill="currentColor"
       stroke="currentColor"
       points="0.04,0.164 0.04,-0.164 10.2508,-0.0074 10.2508,0.3206 "
       id="polygon248" />
  </g>
  <g
     color="#000000"
     id="g258"
     transform="translate(-2.27615,-3.2788268)">
    <a
       style="color:inherit"
       xlink:href="textedit:///Users/tomsegarra/Documents/dev/dummies/lilypond_files/b67ef285c9219cd7cbae80d98880bab2.ly:25:13:14"
       id="a256">
      <g
         transform="translate(23.5625,7.783)"
         id="g254">
        <path
           transform="scale(0.0034,-0.0034)"
           d="m 215,137 c 67,0 111,-37 111,-92 0,-90 -111,-182 -215,-182 -67,0 -111,37 -111,92 0,90 111,182 215,182 z"
           fill="currentColor"
           id="path252" />
      </g>
    </a>
  </g>
  <a
     style="color:inherit"
     xlink:href="textedit:///Users/tomsegarra/Documents/dev/dummies/lilypond_files/b67ef285c9219cd7cbae80d98880bab2.ly:30:23:24"
     id="a266"
     transform="translate(-2.27615,-3.2788268)">
    <g
       transform="translate(23.3138,13.708)"
       id="g264">
      <text
         font-family="serif"
         font-size="2.0989px"
         text-anchor="start"
         fill="currentColor"
         id="text262"><tspan
           id="tspan260">re</tspan></text>
    </g>
  </a>
  <g
     color="#000000"
     id="g272"
     transform="translate(-2.27615,-3.2788268)">
    <g
       transform="translate(23.6241,8.208)"
       id="g270">
      <rect
         x="-0.061700001"
         y="-0.27250001"
         width="0.1233"
         height="2.1276"
         ry="0.039999999"
         fill="currentColor"
         id="rect268" />
    </g>
  </g>
  <g
     color="#000000"
     id="g278"
     transform="translate(-2.27615,-3.2788268)">
    <g
       transform="translate(34.7987,11.0367)"
       id="g276">
      <path
         transform="scale(0.0034,-0.0034)"
         d="M 0,0 H -18 V 250 H 0 Z m 0,0 v 250 c 96,59 222,149 222,259 0,57 -15,111 -40,162 -3,17 10,29 24,29 8,0 16,-5 21,-13 25,-56 40,-116 40,-178 C 267,306 0,203 0,0 Z"
         fill="currentColor"
         id="path274" />
    </g>
  </g>
  <a
     style="color:inherit"
     xlink:href="textedit:///Users/tomsegarra/Documents/dev/dummies/lilypond_files/b67ef285c9219cd7cbae80d98880bab2.ly:19:15:16"
     id="a292"
     transform="translate(-2.27615,-3.2788268)">
    <g
       transform="translate(26.5647,4.9225)"
       id="g284">
      <text
         font-family="sans-serif"
         font-size="2.224px"
         text-anchor="start"
         fill="currentColor"
         id="text282"><tspan
           id="tspan280">D</tspan></text>
    </g>
    <g
       transform="translate(28.2718,4.9225)"
       id="g290">
      <text
         font-family="sans-serif"
         font-size="2.224px"
         text-anchor="start"
         fill="currentColor"
         id="text288"><tspan
           id="tspan286">m</tspan></text>
    </g>
  </a>
  <g
     color="#000000"
     id="g300"
     transform="translate(-2.27615,-3.2788268)">
    <a
       style="color:inherit"
       xlink:href="textedit:///Users/tomsegarra/Documents/dev/dummies/lilypond_files/b67ef285c9219cd7cbae80d98880bab2.ly:25:15:16"
       id="a298">
      <g
         transform="translate(26.5647,7.783)"
         id="g296">
        <path
           transform="scale(0.0034,-0.0034)"
           d="m 215,137 c 67,0 111,-37 111,-92 0,-90 -111,-182 -215,-182 -67,0 -111,37 -111,92 0,90 111,182 215,182 z"
           fill="currentColor"
           id="path294" />
      </g>
    </a>
  </g>
  <a
     style="color:inherit"
     xlink:href="textedit:///Users/tomsegarra/Documents/dev/dummies/lilypond_files/b67ef285c9219cd7cbae80d98880bab2.ly:30:29:30"
     id="a308"
     transform="translate(-2.27615,-3.2788268)">
    <g
       transform="translate(25.0185,13.708)"
       id="g306">
      <text
         font-family="serif"
         font-size="2.0989px"
         text-anchor="start"
         fill="currentColor"
         id="text304"><tspan
           id="tspan302">mem</tspan></text>
    </g>
  </a>
  <g
     color="#000000"
     id="g314"
     transform="translate(-2.27615,-3.2788268)">
    <g
       transform="translate(26.6263,8.208)"
       id="g312">
      <rect
         x="-0.061700001"
         y="-0.27250001"
         width="0.1233"
         height="2.671"
         ry="0.039999999"
         fill="currentColor"
         id="rect310" />
    </g>
  </g>
  <g
     color="#000000"
     id="g322"
     transform="translate(-2.27615,-3.2788268)">
    <a
       style="color:inherit"
       xlink:href="textedit:///Users/tomsegarra/Documents/dev/dummies/lilypond_files/b67ef285c9219cd7cbae80d98880bab2.ly:25:17:18"
       id="a320">
      <g
         transform="translate(30.318,8.208)"
         id="g318">
        <path
           transform="scale(0.0034,-0.0034)"
           d="m 215,137 c 67,0 111,-37 111,-92 0,-90 -111,-182 -215,-182 -67,0 -111,37 -111,92 0,90 111,182 215,182 z"
           fill="currentColor"
           id="path316" />
      </g>
    </a>
  </g>
  <a
     style="color:inherit"
     xlink:href="textedit:///Users/tomsegarra/Documents/dev/dummies/lilypond_files/b67ef285c9219cd7cbae80d98880bab2.ly:30:36:37"
     id="a330"
     transform="translate(-2.27615,-3.2788268)">
    <g
       transform="translate(29.3182,13.708)"
       id="g328">
      <text
         font-family="serif"
         font-size="2.0989px"
         text-anchor="start"
         fill="currentColor"
         id="text326"><tspan
           id="tspan324">ber,</tspan></text>
    </g>
  </a>
  <g
     color="#000000"
     id="g336"
     transform="translate(-2.27615,-3.2788268)">
    <g
       transform="translate(30.3797,8.208)"
       id="g334">
      <rect
         x="-0.061700001"
         y="0.1525"
         width="0.1233"
         height="2.5490999"
         ry="0.039999999"
         fill="currentColor"
         id="rect332" />
    </g>
  </g>
  <g
     color="#000000"
     id="g342"
     transform="translate(-2.27615,-3.2788268)">
    <g
       transform="translate(34.737,8.208)"
       id="g340">
      <rect
         x="-0.061700001"
         y="0.1525"
         width="0.1233"
         height="2.7163"
         ry="0.039999999"
         fill="currentColor"
         id="rect338" />
    </g>
  </g>
  <a
     style="color:inherit"
     xlink:href="textedit:///Users/tomsegarra/Documents/dev/dummies/lilypond_files/b67ef285c9219cd7cbae80d98880bab2.ly:25:19:20"
     id="a348"
     transform="translate(-2.27615,-3.2788268)">
    <g
       transform="translate(32.6254,8.208)"
       id="g346">
      <path
         transform="scale(0.0034,-0.0034)"
         d="m 70,205 c 80,0 46,-97 90,-97 15,0 52,45 59,59 6,13 26,13 31,0 L 129,-250 c -9,-7 -19,-11 -30,-11 -11,0 -21,4 -30,11 L 187,76 C 154,64 119,54 84,54 37,54 -3,88 -3,133 c 0,40 33,72 73,72 z"
         fill="currentColor"
         id="path344" />
    </g>
  </a>
  <a
     style="color:inherit"
     xlink:href="textedit:///Users/tomsegarra/Documents/dev/dummies/lilypond_files/b67ef285c9219cd7cbae80d98880bab2.ly:30:41:42"
     id="a356"
     transform="translate(-2.27615,-3.2788268)">
    <g
       transform="translate(33.9487,13.708)"
       id="g354">
      <text
         font-family="serif"
         font-size="2.0989px"
         text-anchor="start"
         fill="currentColor"
         id="text352"><tspan
           id="tspan350">the</tspan></text>
    </g>
  </a>
  <g
     color="#000000"
     id="g364"
     transform="translate(-2.27615,-3.2788268)">
    <a
       style="color:inherit"
       xlink:href="textedit:///Users/tomsegarra/Documents/dev/dummies/lilypond_files/b67ef285c9219cd7cbae80d98880bab2.ly:25:21:22"
       id="a362">
      <g
         transform="translate(34.6754,8.208)"
         id="g360">
        <path
           transform="scale(0.0034,-0.0034)"
           d="m 215,137 c 67,0 111,-37 111,-92 0,-90 -111,-182 -215,-182 -67,0 -111,37 -111,92 0,90 111,182 215,182 z"
           fill="currentColor"
           id="path358" />
      </g>
    </a>
  </g>
</svg>
