<svg xmlns="http://www.w3.org/2000/svg" xmlns:xlink="http://www.w3.org/1999/xlink" version="1.2" width="85.02mm" height="297.00mm" viewBox="0.0000 -0.0000 48.3803 169.0094">
<style type="text/css">
<![CDATA[
tspan { white-space: pre; }
]]>
</style>
<g transform="translate(2.2762, 8.3762)">
<line stroke-linejoin="round" stroke-linecap="round" stroke-width="0.0949" stroke="currentColor" x1="0.0474" y1="0" x2="43.7804" y2="0"/>
</g>
<g transform="translate(2.2762, 7.5262)">
<line stroke-linejoin="round" stroke-linecap="round" stroke-width="0.0949" stroke="currentColor" x1="0.0474" y1="0" x2="43.7804" y2="0"/>
</g>
<g transform="translate(2.2762, 6.6762)">
<line stroke-linejoin="round" stroke-linecap="round" stroke-width="0.0949" stroke="currentColor" x1="0.0474" y1="0" x2="43.7804" y2="0"/>
</g>
<g transform="translate(2.2762, 5.8262)">
<line stroke-linejoin="round" stroke-linecap="round" stroke-width="0.0949" stroke="currentColor" x1="0.0474" y1="0" x2="43.7804" y2="0"/>
</g>
<g transform="translate(2.2762, 4.9762)">
<line stroke-linejoin="round" stroke-linecap="round" stroke-width="0.0949" stroke="currentColor" x1="0.0474" y1="0" x2="43.7804" y2="0"/>
</g>
<g transform="translate(45.9238, 6.6762)">
<rect x="0.0000" y="-1.7000" width="0.1802" height="3.4000" ry="0.0000" fill="currentColor"/>
</g>
<g transform="translate(28.3406, 6.6762)">
<rect x="0.0000" y="-1.7000" width="0.1802" height="3.4000" ry="0.0000" fill="currentColor"/>
</g>
<g transform="translate(29.5507, 8.5328)">
<polygon stroke-linejoin="round" stroke-linecap="round" stroke-width="0.0800" fill="currentColor" stroke="currentColor" points="7.0055 -0.1640 7.0055 0.1640 0.0400 0.1640 0.0400 -0.1640"/>
</g>
<a style="color:inherit;" xlink:href="textedit:///Users/tomsegarra/Downloads/dummies/lilypond_files/b8d09fe6c75347b1c1a843abdc67651f.ly:23:45:46">
<g transform="translate(40.4251, 12.1762)">
<rect x="0.0000" y="-0.5433" width="0.6600" height="0.1233" ry="0.0379" fill="currentColor"/>
</g>
</a>
<a style="color:inherit;" xlink:href="textedit:///Users/tomsegarra/Downloads/dummies/lilypond_files/b8d09fe6c75347b1c1a843abdc67651f.ly:20:1:9">
<g transform="translate(13.9694, 5.4012)">
<path transform="scale(0.0034, -0.0034)" d="M215 137c67 0 111 -37 111 -92c0 -90 -111 -182 -215 -182c-67 0 -111 37 -111 92c0 90 111 182 215 182z" fill="currentColor"/>
</g>
</a>
<g transform="translate(3.0762, 7.5262)">
<path transform="scale(0.0034, -0.0034)" d="M646 2c0 -113 -74 -213 -180 -247c3 -34 5 -68 5 -102c0 -20 -1 -40 -2 -60c-7 -121 -91 -228 -209 -228c-108 0 -196 87 -196 196c0 58 53 104 112 104c54 0 95 -48 95 -104c0 -52 -43 -95 -95 -95c-10 0 -20 2 -29 6c26 -38 68 -63 116 -63h3c93 2 153 92 159 190
c1 19 2 37 2 56c0 30 -2 60 -4 90c-5 -1 -43 -8 -88 -8c-194 0 -333 180 -333 375c0 177 130 307 246 442c-31 98 -53 170 -53 347c0 115 55 223 148 290c7 5 16 4 22 -1c68 -80 134 -243 134 -357c0 -143 -85 -255 -178 -364c21 -68 40 -137 57 -206c1 0 5 1 11 1
c156 0 257 -129 257 -262zM462 -202c66 24 111 88 111 162c0 89 -65 178 -170 190c28 -135 50 -272 59 -352zM75 26c0 -145 141 -245 263 -245c1 0 46 0 81 6c-7 65 -27 206 -61 363c-79 -8 -124 -61 -124 -119c0 -43 25 -89 80 -121c5 -5 7 -11 7 -16
c0 -12 -10 -23 -22 -23c-16 0 -127 63 -127 188c0 89 58 175 161 198c-14 58 -29 116 -46 173c-106 -122 -212 -244 -212 -404zM406 1042c-99 -47 -162 -148 -162 -257c0 -49 13 -111 38 -191c79 97 144 199 144 324c0 33 0 63 -20 124z" fill="currentColor"/>
</g>
<a style="color:inherit;" xlink:href="textedit:///Users/tomsegarra/Downloads/dummies/lilypond_files/b8d09fe6c75347b1c1a843abdc67651f.ly:19:1:9">
<g transform="translate(6.5762, 4.9762)">
<path transform="scale(0.0034, -0.0034)" d="M0 117c0 9 6 18 15 21l43 16v157c0 11 8 19 19 19s20 -8 20 -19v-142l81 30v156c0 11 9 20 20 20s19 -9 19 -20v-142l28 11c3 1 5 1 8 1c12 0 22 -10 22 -23v-57c0 -9 -6 -18 -15 -21l-43 -16v-157l28 10c3 1 5 1 8 1c12 0 22 -9 22 -22v-57c0 -9 -6 -18 -15 -21l-43 -16
v-157c0 -11 -8 -19 -19 -19s-20 8 -20 19v142l-81 -30v-156c0 -11 -9 -20 -20 -20s-19 9 -19 20v142l-28 -11c-3 -1 -5 -1 -8 -1c-12 0 -22 10 -22 23v57c0 9 6 18 15 21l43 16v157l-28 -10c-3 -1 -5 -1 -8 -1c-12 0 -22 9 -22 22v57zM178 94l-81 -30v-158l81 30v158z" fill="currentColor"/>
</g>
<g transform="translate(7.5112, 6.2512)">
<path transform="scale(0.0034, -0.0034)" d="M0 117c0 9 6 18 15 21l43 16v157c0 11 8 19 19 19s20 -8 20 -19v-142l81 30v156c0 11 9 20 20 20s19 -9 19 -20v-142l28 11c3 1 5 1 8 1c12 0 22 -10 22 -23v-57c0 -9 -6 -18 -15 -21l-43 -16v-157l28 10c3 1 5 1 8 1c12 0 22 -9 22 -22v-57c0 -9 -6 -18 -15 -21l-43 -16
v-157c0 -11 -8 -19 -19 -19s-20 8 -20 19v142l-81 -30v-156c0 -11 -9 -20 -20 -20s-19 9 -19 20v142l-28 -11c-3 -1 -5 -1 -8 -1c-12 0 -22 10 -22 23v57c0 9 6 18 15 21l43 16v157l-28 -10c-3 -1 -5 -1 -8 -1c-12 0 -22 9 -22 22v57zM178 94l-81 -30v-158l81 30v158z" fill="currentColor"/>
</g>
<g transform="translate(8.4462, 4.5512)">
<path transform="scale(0.0034, -0.0034)" d="M0 117c0 9 6 18 15 21l43 16v157c0 11 8 19 19 19s20 -8 20 -19v-142l81 30v156c0 11 9 20 20 20s19 -9 19 -20v-142l28 11c3 1 5 1 8 1c12 0 22 -10 22 -23v-57c0 -9 -6 -18 -15 -21l-43 -16v-157l28 10c3 1 5 1 8 1c12 0 22 -9 22 -22v-57c0 -9 -6 -18 -15 -21l-43 -16
v-157c0 -11 -8 -19 -19 -19s-20 8 -20 19v142l-81 -30v-156c0 -11 -9 -20 -20 -20s-19 9 -19 20v142l-28 -11c-3 -1 -5 -1 -8 -1c-12 0 -22 10 -22 23v57c0 9 6 18 15 21l43 16v157l-28 -10c-3 -1 -5 -1 -8 -1c-12 0 -22 9 -22 22v57zM178 94l-81 -30v-158l81 30v158z" fill="currentColor"/>
</g>
</a>
<g transform="translate(10.5312, 6.6762)">
<path transform="scale(0.0034, -0.0034)" d="M358 29c-30 0 -74 23 -74 73c0 38 27 76 71 76c4 0 7 0 11 -1c-27 36 -69 59 -116 59c-106 0 -113 -74 -113 -188c0 -15 1 -31 1 -48s-1 -33 -1 -48c0 -114 7 -188 113 -188c79 0 136 70 155 150c2 7 7 10 13 10c7 0 14 -5 14 -13c0 -21 -50 -175 -182 -175
c-59 0 -250 20 -250 264c0 63 18 264 250 264c115 0 174 -109 174 -165c0 -39 -30 -70 -66 -70z" fill="currentColor"/>
</g>
<a style="color:inherit;" xlink:href="textedit:///Users/tomsegarra/Downloads/dummies/lilypond_files/b8d09fe6c75347b1c1a843abdc67651f.ly:23:4:5">
<g transform="translate(13.4134, 12.1762)">
<text font-family="serif" font-size="2.0989" text-anchor="start" fill="currentColor">
<tspan>I'll</tspan>
</text>
</g>
</a>
<g transform="translate(14.0311, 6.6762)">
<rect x="-0.0617" y="-1.1225" width="0.1233" height="2.8225" ry="0.0400" fill="currentColor"/>
</g>
<a style="color:inherit;" xlink:href="textedit:///Users/tomsegarra/Downloads/dummies/lilypond_files/b8d09fe6c75347b1c1a843abdc67651f.ly:20:6:14">
<g transform="translate(17.5094, 5.8262)">
<path transform="scale(0.0034, -0.0034)" d="M215 137c67 0 111 -37 111 -92c0 -90 -111 -182 -215 -182c-67 0 -111 37 -111 92c0 90 111 182 215 182z" fill="currentColor"/>
</g>
</a>
<a style="color:inherit;" xlink:href="textedit:///Users/tomsegarra/Downloads/dummies/lilypond_files/b8d09fe6c75347b1c1a843abdc67651f.ly:23:9:10">
<g transform="translate(16.0828, 12.1762)">
<text font-family="serif" font-size="2.0989" text-anchor="start" fill="currentColor">
<tspan>keep</tspan>
</text>
</g>
</a>
<g transform="translate(17.5710, 6.6762)">
<rect x="-0.0617" y="-0.6975" width="0.1233" height="2.8225" ry="0.0400" fill="currentColor"/>
</g>
<a style="color:inherit;" xlink:href="textedit:///Users/tomsegarra/Downloads/dummies/lilypond_files/b8d09fe6c75347b1c1a843abdc67651f.ly:23:35:36">
<g transform="translate(35.6375, 12.1762)">
<rect x="0.0000" y="-0.5433" width="0.3000" height="0.1233" ry="0.0379" fill="currentColor"/>
</g>
</a>
<a style="color:inherit;" xlink:href="textedit:///Users/tomsegarra/Downloads/dummies/lilypond_files/b8d09fe6c75347b1c1a843abdc67651f.ly:20:8:16">
<g transform="translate(21.5274, 6.2512)">
<path transform="scale(0.0034, -0.0034)" d="M215 137c67 0 111 -37 111 -92c0 -90 -111 -182 -215 -182c-67 0 -111 37 -111 92c0 90 111 182 215 182z" fill="currentColor"/>
</g>
</a>
<a style="color:inherit;" xlink:href="textedit:///Users/tomsegarra/Downloads/dummies/lilypond_files/b8d09fe6c75347b1c1a843abdc67651f.ly:23:14:15">
<g transform="translate(20.4934, 12.1762)">
<text font-family="serif" font-size="2.0989" text-anchor="start" fill="currentColor">
<tspan>you</tspan>
</text>
</g>
</a>
<g transform="translate(21.5890, 6.6762)">
<rect x="-0.0617" y="-0.2725" width="0.1233" height="2.8225" ry="0.0400" fill="currentColor"/>
</g>
<a style="color:inherit;" xlink:href="textedit:///Users/tomsegarra/Downloads/dummies/lilypond_files/b8d09fe6c75347b1c1a843abdc67651f.ly:20:12:20">
<g transform="translate(25.0347, 5.8262)">
<path transform="scale(0.0034, -0.0034)" d="M215 137c67 0 111 -37 111 -92c0 -90 -111 -182 -215 -182c-67 0 -111 37 -111 92c0 90 111 182 215 182z" fill="currentColor"/>
</g>
</a>
<a style="color:inherit;" xlink:href="textedit:///Users/tomsegarra/Downloads/dummies/lilypond_files/b8d09fe6c75347b1c1a843abdc67651f.ly:23:18:19">
<g transform="translate(24.2398, 12.1762)">
<text font-family="serif" font-size="2.0989" text-anchor="start" fill="currentColor">
<tspan>my</tspan>
</text>
</g>
</a>
<g transform="translate(25.0964, 6.6762)">
<rect x="-0.0617" y="-0.6975" width="0.1233" height="2.8225" ry="0.0400" fill="currentColor"/>
</g>
<a style="color:inherit;" xlink:href="textedit:///Users/tomsegarra/Downloads/dummies/lilypond_files/b8d09fe6c75347b1c1a843abdc67651f.ly:23:25:26">
<g transform="translate(31.2788, 12.1762)">
<rect x="0.0000" y="-0.5433" width="0.3000" height="0.1233" ry="0.0379" fill="currentColor"/>
</g>
</a>
<a style="color:inherit;" xlink:href="textedit:///Users/tomsegarra/Downloads/dummies/lilypond_files/b8d09fe6c75347b1c1a843abdc67651f.ly:20:14:22">
<g transform="translate(29.5507, 6.2512)">
<path transform="scale(0.0034, -0.0034)" d="M215 137c67 0 111 -37 111 -92c0 -90 -111 -182 -215 -182c-67 0 -111 37 -111 92c0 90 111 182 215 182z" fill="currentColor"/>
</g>
</a>
<a style="color:inherit;" xlink:href="textedit:///Users/tomsegarra/Downloads/dummies/lilypond_files/b8d09fe6c75347b1c1a843abdc67651f.ly:23:21:22">
<g transform="translate(28.9436, 12.1762)">
<text font-family="serif" font-size="2.0989" text-anchor="start" fill="currentColor">
<tspan>dir</tspan>
</text>
</g>
</a>
<g transform="translate(29.6124, 6.6762)">
<rect x="-0.0617" y="-0.2725" width="0.1233" height="2.1291" ry="0.0400" fill="currentColor"/>
</g>
<a style="color:inherit;" xlink:href="textedit:///Users/tomsegarra/Downloads/dummies/lilypond_files/b8d09fe6c75347b1c1a843abdc67651f.ly:20:19:27">
<g transform="translate(31.8581, 5.8262)">
<path transform="scale(0.0034, -0.0034)" d="M215 137c67 0 111 -37 111 -92c0 -90 -111 -182 -215 -182c-67 0 -111 37 -111 92c0 90 111 182 215 182z" fill="currentColor"/>
</g>
</a>
<a style="color:inherit;" xlink:href="textedit:///Users/tomsegarra/Downloads/dummies/lilypond_files/b8d09fe6c75347b1c1a843abdc67651f.ly:23:28:29">
<g transform="translate(31.5924, 12.1762)">
<text font-family="serif" font-size="2.0989" text-anchor="start" fill="currentColor">
<tspan>ty</tspan>
</text>
</g>
</a>
<g transform="translate(31.9198, 6.6762)">
<rect x="-0.0617" y="-0.6975" width="0.1233" height="2.5541" ry="0.0400" fill="currentColor"/>
</g>
<a style="color:inherit;" xlink:href="textedit:///Users/tomsegarra/Downloads/dummies/lilypond_files/b8d09fe6c75347b1c1a843abdc67651f.ly:20:21:29">
<g transform="translate(34.1655, 6.2512)">
<path transform="scale(0.0034, -0.0034)" d="M215 137c67 0 111 -37 111 -92c0 -90 -111 -182 -215 -182c-67 0 -111 37 -111 92c0 90 111 182 215 182z" fill="currentColor"/>
</g>
</a>
<a style="color:inherit;" xlink:href="textedit:///Users/tomsegarra/Downloads/dummies/lilypond_files/b8d09fe6c75347b1c1a843abdc67651f.ly:23:31:32">
<g transform="translate(33.8485, 12.1762)">
<text font-family="serif" font-size="2.0989" text-anchor="start" fill="currentColor">
<tspan>lit</tspan>
</text>
</g>
</a>
<g transform="translate(34.2272, 6.6762)">
<rect x="-0.0617" y="-0.2725" width="0.1233" height="2.1291" ry="0.0400" fill="currentColor"/>
</g>
<a style="color:inherit;" xlink:href="textedit:///Users/tomsegarra/Downloads/dummies/lilypond_files/b8d09fe6c75347b1c1a843abdc67651f.ly:20:25:33">
<g transform="translate(36.4729, 5.8262)">
<path transform="scale(0.0034, -0.0034)" d="M215 137c67 0 111 -37 111 -92c0 -90 -111 -182 -215 -182c-67 0 -111 37 -111 92c0 90 111 182 215 182z" fill="currentColor"/>
</g>
</a>
<a style="color:inherit;" xlink:href="textedit:///Users/tomsegarra/Downloads/dummies/lilypond_files/b8d09fe6c75347b1c1a843abdc67651f.ly:23:38:39">
<g transform="translate(35.9852, 12.1762)">
<text font-family="serif" font-size="2.0989" text-anchor="start" fill="currentColor">
<tspan>tle</tspan>
</text>
</g>
</a>
<g transform="translate(36.5345, 6.6762)">
<rect x="-0.0617" y="-0.6975" width="0.1233" height="2.5541" ry="0.0400" fill="currentColor"/>
</g>
<a style="color:inherit;" xlink:href="textedit:///Users/tomsegarra/Downloads/dummies/lilypond_files/b8d09fe6c75347b1c1a843abdc67651f.ly:20:27:35">
<g transform="translate(38.8349, 6.2512)">
<path transform="scale(0.0034, -0.0034)" d="M215 137c67 0 111 -37 111 -92c0 -90 -111 -182 -215 -182c-67 0 -111 37 -111 92c0 90 111 182 215 182z" fill="currentColor"/>
</g>
</a>
<a style="color:inherit;" xlink:href="textedit:///Users/tomsegarra/Downloads/dummies/lilypond_files/b8d09fe6c75347b1c1a843abdc67651f.ly:23:42:43">
<g transform="translate(38.5180, 12.1762)">
<text font-family="serif" font-size="2.0989" text-anchor="start" fill="currentColor">
<tspan>se</tspan>
</text>
</g>
</a>
<g transform="translate(38.8966, 6.6762)">
<rect x="-0.0617" y="-0.2725" width="0.1233" height="2.8225" ry="0.0400" fill="currentColor"/>
</g>
<a style="color:inherit;" xlink:href="textedit:///Users/tomsegarra/Downloads/dummies/lilypond_files/b8d09fe6c75347b1c1a843abdc67651f.ly:20:32:40">
<g transform="translate(42.2507, 7.1012)">
<path transform="scale(0.0034, -0.0034)" d="M215 137c67 0 111 -37 111 -92c0 -90 -111 -182 -215 -182c-67 0 -111 37 -111 92c0 90 111 182 215 182z" fill="currentColor"/>
</g>
</a>
<a style="color:inherit;" xlink:href="textedit:///Users/tomsegarra/Downloads/dummies/lilypond_files/b8d09fe6c75347b1c1a843abdc67651f.ly:23:48:49">
<g transform="translate(41.2509, 12.1762)">
<text font-family="serif" font-size="2.0989" text-anchor="start" fill="currentColor">
<tspan>cret</tspan>
</text>
</g>
</a>
<g transform="translate(43.2964, 6.6762)">
<rect x="-0.0617" y="-2.5500" width="0.1233" height="2.8225" ry="0.0400" fill="currentColor"/>
</g>
</svg>
