<?xml version="1.0" encoding="UTF-8" standalone="no"?>
<svg
   version="1.2"
   width="74.179268mm"
   height="15.357512mm"
   viewBox="0 0 42.209902 8.7392721"
   id="svg256"
   sodipodi:docname="bc79647351737270b6bcfc452a6a0172.svg"
   xmlns:inkscape="http://www.inkscape.org/namespaces/inkscape"
   xmlns:sodipodi="http://sodipodi.sourceforge.net/DTD/sodipodi-0.dtd"
   xmlns:xlink="http://www.w3.org/1999/xlink"
   xmlns="http://www.w3.org/2000/svg"
   xmlns:svg="http://www.w3.org/2000/svg">
  <defs
     id="defs260" />
  <sodipodi:namedview
     id="namedview258"
     pagecolor="#ffffff"
     bordercolor="#000000"
     borderopacity="0.25"
     inkscape:showpageshadow="2"
     inkscape:pageopacity="0.0"
     inkscape:pagecheckerboard="0"
     inkscape:deskcolor="#d1d1d1"
     inkscape:document-units="mm" />
  <style
     type="text/css"
     id="style2"><![CDATA[
tspan { white-space: pre; }
]]></style>
  <!-- Page: 1/1 -->
  <g
     transform="translate(-0.00116602,4.9105767)"
     id="g6">
    <line
       stroke-linejoin="round"
       stroke-linecap="round"
       stroke-width="0.0949"
       stroke="currentColor"
       x1="0.047400001"
       y1="0"
       x2="42.1646"
       y2="0"
       id="line4" />
  </g>
  <g
     transform="translate(-0.00116602,4.0605767)"
     id="g10">
    <line
       stroke-linejoin="round"
       stroke-linecap="round"
       stroke-width="0.0949"
       stroke="currentColor"
       x1="0.047400001"
       y1="0"
       x2="42.1646"
       y2="0"
       id="line8" />
  </g>
  <g
     transform="translate(-0.00116602,3.2105767)"
     id="g14">
    <line
       stroke-linejoin="round"
       stroke-linecap="round"
       stroke-width="0.0949"
       stroke="currentColor"
       x1="0.047400001"
       y1="0"
       x2="42.1646"
       y2="0"
       id="line12" />
  </g>
  <g
     transform="translate(-0.00116602,2.3605767)"
     id="g18">
    <line
       stroke-linejoin="round"
       stroke-linecap="round"
       stroke-width="0.0949"
       stroke="currentColor"
       x1="0.047400001"
       y1="0"
       x2="42.1646"
       y2="0"
       id="line16" />
  </g>
  <g
     transform="translate(-0.00116602,1.5105767)"
     id="g22">
    <line
       stroke-linejoin="round"
       stroke-linecap="round"
       stroke-width="0.0949"
       stroke="currentColor"
       x1="0.047400001"
       y1="0"
       x2="42.1646"
       y2="0"
       id="line20" />
  </g>
  <g
     transform="translate(39.810834,3.2105767)"
     id="g26">
    <rect
       x="0"
       y="-1.7"
       width="0.1802"
       height="3.4000001"
       ry="0.0000"
       fill="currentColor"
       id="rect24" />
  </g>
  <a
     style="color:inherit"
     xlink:href="textedit:///Users/tomsegarra/Downloads/dummies/lilypond_files/bc79647351737270b6bcfc452a6a0172.ly:23:9:10"
     id="a34"
     transform="translate(-2.277366,-3.2761233)">
    <g
       transform="translate(21.6501,11.9867)"
       id="g32">
      <text
         font-family="serif"
         font-size="2.0989px"
         text-anchor="start"
         fill="currentColor"
         id="text30"><tspan
           id="tspan28">an</tspan></text>
    </g>
  </a>
  <a
     style="color:inherit"
     xlink:href="textedit:///Users/tomsegarra/Downloads/dummies/lilypond_files/bc79647351737270b6bcfc452a6a0172.ly:20:6:7"
     id="a40"
     transform="translate(-2.277366,-3.2761233)">
    <g
       transform="translate(10.7144,6.4867)"
       id="g38">
      <path
         transform="scale(0.0034,-0.0034)"
         d="m 70,205 c 80,0 46,-97 90,-97 15,0 52,45 59,59 6,13 26,13 31,0 L 129,-250 c -9,-7 -19,-11 -30,-11 -11,0 -21,4 -30,11 L 187,76 C 154,64 119,54 84,54 37,54 -3,88 -3,133 c 0,40 33,72 73,72 z"
         fill="currentColor"
         id="path36" />
    </g>
  </a>
  <g
     transform="translate(0.79883398,4.0605767)"
     id="g44">
    <path
       transform="scale(0.0034,-0.0034)"
       d="m 646,2 c 0,-113 -74,-213 -180,-247 3,-34 5,-68 5,-102 0,-20 -1,-40 -2,-60 -7,-121 -91,-228 -209,-228 -108,0 -196,87 -196,196 0,58 53,104 112,104 54,0 95,-48 95,-104 0,-52 -43,-95 -95,-95 -10,0 -20,2 -29,6 26,-38 68,-63 116,-63 h 3 c 93,2 153,92 159,190 1,19 2,37 2,56 0,30 -2,60 -4,90 -5,-1 -43,-8 -88,-8 -194,0 -333,180 -333,375 0,177 130,307 246,442 -31,98 -53,170 -53,347 0,115 55,223 148,290 7,5 16,4 22,-1 68,-80 134,-243 134,-357 0,-143 -85,-255 -178,-364 21,-68 40,-137 57,-206 1,0 5,1 11,1 C 545,264 646,135 646,2 Z M 462,-202 c 66,24 111,88 111,162 0,89 -65,178 -170,190 28,-135 50,-272 59,-352 z M 75,26 c 0,-145 141,-245 263,-245 1,0 46,0 81,6 -7,65 -27,206 -61,363 -79,-8 -124,-61 -124,-119 0,-43 25,-89 80,-121 5,-5 7,-11 7,-16 0,-12 -10,-23 -22,-23 -16,0 -127,63 -127,188 0,89 58,175 161,198 -14,58 -29,116 -46,173 C 181,308 75,186 75,26 Z M 406,1042 C 307,995 244,894 244,785 c 0,-49 13,-111 38,-191 79,97 144,199 144,324 0,33 0,63 -20,124 z"
       fill="currentColor"
       id="path42" />
  </g>
  <a
     style="color:inherit"
     xlink:href="textedit:///Users/tomsegarra/Downloads/dummies/lilypond_files/bc79647351737270b6bcfc452a6a0172.ly:19:6:7"
     id="a46"
     transform="translate(-2.277366,-3.2761233)" />
  <g
     transform="translate(4.998834,3.2105767)"
     id="g50">
    <path
       transform="scale(0.0034,-0.0034)"
       d="m 358,29 c -30,0 -74,23 -74,73 0,38 27,76 71,76 4,0 7,0 11,-1 -27,36 -69,59 -116,59 -106,0 -113,-74 -113,-188 0,-15 1,-31 1,-48 0,-17 -1,-33 -1,-48 0,-114 7,-188 113,-188 79,0 136,70 155,150 2,7 7,10 13,10 7,0 14,-5 14,-13 0,-21 -50,-175 -182,-175 C 191,-264 0,-244 0,0 0,63 18,264 250,264 365,264 424,155 424,99 424,60 394,29 358,29 Z"
       fill="currentColor"
       id="path48" />
  </g>
  <a
     style="color:inherit"
     xlink:href="textedit:///Users/tomsegarra/Downloads/dummies/lilypond_files/bc79647351737270b6bcfc452a6a0172.ly:20:20:21"
     id="a56"
     transform="translate(-2.277366,-3.2761233)">
    <g
       transform="translate(16.2718,6.4867)"
       id="g54">
      <path
         stroke-width="0.0759"
         stroke-linejoin="round"
         stroke-linecap="round"
         stroke="currentColor"
         fill="currentColor"
         d="m 0.7537,-2.375 c 0.4705,-0.5562 1.4368,-0.5562 1.9074,0 v 0 c -0.4706,-0.4424 -1.4369,-0.4424 -1.9074,0 z"
         id="path52" />
    </g>
  </a>
  <a
     style="color:inherit"
     xlink:href="textedit:///Users/tomsegarra/Downloads/dummies/lilypond_files/bc79647351737270b6bcfc452a6a0172.ly:20:36:37"
     id="a62"
     transform="translate(-2.277366,-3.2761233)">
    <g
       transform="translate(26.7013,4.7867)"
       id="g60">
      <path
         transform="scale(0.0034,-0.0034)"
         d="m 215,137 c 67,0 111,-37 111,-92 0,-90 -111,-182 -215,-182 -67,0 -111,37 -111,92 0,90 111,182 215,182 z"
         fill="currentColor"
         id="path58" />
    </g>
  </a>
  <g
     transform="translate(24.485634,3.2105767)"
     id="g66">
    <rect
       x="-0.061700001"
       y="-1.5475"
       width="0.1233"
       height="3.2474999"
       ry="0.039999999"
       fill="currentColor"
       id="rect64" />
  </g>
  <a
     style="color:inherit"
     xlink:href="textedit:///Users/tomsegarra/Downloads/dummies/lilypond_files/bc79647351737270b6bcfc452a6a0172.ly:20:41:42"
     id="a72"
     transform="translate(-2.277366,-3.2761233)">
    <g
       transform="translate(29.0087,5.2117)"
       id="g70">
      <path
         transform="scale(0.0034,-0.0034)"
         d="m 215,137 c 67,0 111,-37 111,-92 0,-90 -111,-182 -215,-182 -67,0 -111,37 -111,92 0,90 111,182 215,182 z"
         fill="currentColor"
         id="path68" />
    </g>
  </a>
  <g
     transform="translate(26.793034,3.2105767)"
     id="g76">
    <rect
       x="-0.061700001"
       y="-1.1224999"
       width="0.1233"
       height="2.8225"
       ry="0.039999999"
       fill="currentColor"
       id="rect74" />
  </g>
  <g
     transform="translate(11.687034,3.3670767)"
     id="g80">
    <polygon
       stroke-linejoin="round"
       stroke-linecap="round"
       stroke-width="0.08"
       fill="currentColor"
       stroke="currentColor"
       points="0.04,0.164 0.04,-0.164 2.3907,-0.164 2.3907,0.164 "
       id="polygon78" />
  </g>
  <g
     transform="translate(11.687034,4.0605767)"
     id="g84">
    <polygon
       stroke-linejoin="round"
       stroke-linecap="round"
       stroke-width="0.08"
       fill="currentColor"
       stroke="currentColor"
       points="0.04,0.164 0.04,-0.164 2.3907,-0.164 2.3907,0.164 "
       id="polygon82" />
  </g>
  <a
     style="color:inherit"
     xlink:href="textedit:///Users/tomsegarra/Downloads/dummies/lilypond_files/bc79647351737270b6bcfc452a6a0172.ly:20:43:44"
     id="a90"
     transform="translate(-2.277366,-3.2761233)">
    <g
       transform="translate(31.3161,5.6367)"
       id="g88">
      <path
         transform="scale(0.0034,-0.0034)"
         d="m 215,137 c 67,0 111,-37 111,-92 0,-90 -111,-182 -215,-182 -67,0 -111,37 -111,92 0,90 111,182 215,182 z"
         fill="currentColor"
         id="path86" />
    </g>
  </a>
  <a
     style="color:inherit"
     xlink:href="textedit:///Users/tomsegarra/Downloads/dummies/lilypond_files/bc79647351737270b6bcfc452a6a0172.ly:23:18:19"
     id="a98"
     transform="translate(-2.277366,-3.2761233)">
    <g
       transform="translate(30.5894,11.9867)"
       id="g96">
      <text
         font-family="serif"
         font-size="2.0989px"
         text-anchor="start"
         fill="currentColor"
         id="text94"><tspan
           id="tspan92">chi</tspan></text>
    </g>
  </a>
  <g
     transform="translate(29.100334,3.2105767)"
     id="g102">
    <rect
       x="-0.061700001"
       y="-0.69749999"
       width="0.1233"
       height="2.3975"
       ry="0.039999999"
       fill="currentColor"
       id="rect100" />
  </g>
  <a
     style="color:inherit"
     xlink:href="textedit:///Users/tomsegarra/Downloads/dummies/lilypond_files/bc79647351737270b6bcfc452a6a0172.ly:20:45:46"
     id="a108"
     transform="translate(-2.277366,-3.2761233)">
    <g
       transform="translate(33.6235,5.6367)"
       id="g106">
      <path
         transform="scale(0.0034,-0.0034)"
         d="m 215,137 c 67,0 111,-37 111,-92 0,-90 -111,-182 -215,-182 -67,0 -111,37 -111,92 0,90 111,182 215,182 z"
         fill="currentColor"
         id="path104" />
    </g>
  </a>
  <a
     style="color:inherit"
     xlink:href="textedit:///Users/tomsegarra/Downloads/dummies/lilypond_files/bc79647351737270b6bcfc452a6a0172.ly:23:25:26"
     id="a116"
     transform="translate(-2.277366,-3.2761233)">
    <g
       transform="translate(33.6235,11.9867)"
       id="g114">
      <text
         font-family="serif"
         font-size="2.0989px"
         text-anchor="start"
         fill="currentColor"
         id="text112"><tspan
           id="tspan110">tect</tspan></text>
    </g>
  </a>
  <g
     transform="translate(31.407734,3.2105767)"
     id="g120">
    <rect
       x="-0.061700001"
       y="-0.69749999"
       width="0.1233"
       height="2.3975"
       ry="0.039999999"
       fill="currentColor"
       id="rect118" />
  </g>
  <a
     style="color:inherit"
     xlink:href="textedit:///Users/tomsegarra/Downloads/dummies/lilypond_files/bc79647351737270b6bcfc452a6a0172.ly:20:49:50"
     id="a126"
     transform="translate(-2.277366,-3.2761233)">
    <g
       transform="translate(37.1308,5.6367)"
       id="g124">
      <path
         transform="scale(0.0034,-0.0034)"
         d="m 215,137 c 67,0 111,-37 111,-92 0,-90 -111,-182 -215,-182 -67,0 -111,37 -111,92 0,90 111,182 215,182 z"
         fill="currentColor"
         id="path122" />
    </g>
  </a>
  <g
     transform="translate(34.915134,3.2105767)"
     id="g130">
    <rect
       x="-0.061700001"
       y="-0.69749999"
       width="0.1233"
       height="2.3975"
       ry="0.039999999"
       fill="currentColor"
       id="rect128" />
  </g>
  <a
     style="color:inherit"
     xlink:href="textedit:///Users/tomsegarra/Downloads/dummies/lilypond_files/bc79647351737270b6bcfc452a6a0172.ly:23:15:16"
     id="a136"
     transform="translate(-2.277366,-3.2761233)">
    <g
       transform="translate(27.964,11.9867)"
       id="g134">
      <rect
         x="0"
         y="-0.54329997"
         width="0.66000003"
         height="0.1233"
         ry="0.037900001"
         fill="currentColor"
         id="rect132" />
    </g>
  </a>
  <a
     style="color:inherit"
     xlink:href="textedit:///Users/tomsegarra/Downloads/dummies/lilypond_files/bc79647351737270b6bcfc452a6a0172.ly:20:52:53"
     id="a142"
     transform="translate(-2.277366,-3.2761233)">
    <g
       transform="translate(40.6382,6.4867)"
       id="g140">
      <path
         transform="scale(0.0034,-0.0034)"
         d="m 70,205 c 80,0 46,-97 90,-97 15,0 52,45 59,59 6,13 26,13 31,0 L 129,-250 c -9,-7 -19,-11 -30,-11 -11,0 -21,4 -30,11 L 187,76 C 154,64 119,54 84,54 37,54 -3,88 -3,133 c 0,40 33,72 73,72 z"
         fill="currentColor"
         id="path138" />
    </g>
  </a>
  <a
     style="color:inherit"
     xlink:href="textedit:///Users/tomsegarra/Downloads/dummies/lilypond_files/bc79647351737270b6bcfc452a6a0172.ly:20:34:35"
     id="a148"
     transform="translate(-2.277366,-3.2761233)">
    <g
       transform="translate(24.3939,6.4867)"
       id="g146">
      <path
         stroke-width="0.0759"
         stroke-linejoin="round"
         stroke-linecap="round"
         stroke="currentColor"
         fill="currentColor"
         d="m 0.7537,-2.375 c 0.4705,-0.5562 1.4368,-0.5562 1.9074,0 v 0 c -0.4706,-0.4424 -1.4369,-0.4424 -1.9074,0 z"
         id="path144" />
    </g>
  </a>
  <g
     transform="translate(19.809134,3.3670767)"
     id="g152">
    <polygon
       stroke-linejoin="round"
       stroke-linecap="round"
       stroke-width="0.08"
       fill="currentColor"
       stroke="currentColor"
       points="0.04,0.164 0.04,-0.164 2.3907,-0.164 2.3907,0.164 "
       id="polygon150" />
  </g>
  <g
     transform="translate(16.301834,4.0605767)"
     id="g156">
    <polygon
       stroke-linejoin="round"
       stroke-linecap="round"
       stroke-width="0.08"
       fill="currentColor"
       stroke="currentColor"
       points="0.04,0.164 0.04,-0.164 5.8981,-0.164 5.8981,0.164 "
       id="polygon154" />
  </g>
  <a
     style="color:inherit"
     xlink:href="textedit:///Users/tomsegarra/Downloads/dummies/lilypond_files/bc79647351737270b6bcfc452a6a0172.ly:23:22:23"
     id="a162"
     transform="translate(-2.277366,-3.2761233)">
    <g
       transform="translate(33.2201,11.9867)"
       id="g160">
      <rect
         x="0"
         y="-0.54329997"
         width="0.33329999"
         height="0.1233"
         ry="0.037900001"
         fill="currentColor"
         id="rect158" />
    </g>
  </a>
  <a
     style="color:inherit"
     xlink:href="textedit:///Users/tomsegarra/Downloads/dummies/lilypond_files/bc79647351737270b6bcfc452a6a0172.ly:20:9:10"
     id="a168"
     transform="translate(-2.277366,-3.2761233)">
    <g
       transform="translate(13.9644,4.7867)"
       id="g166">
      <path
         transform="scale(0.0034,-0.0034)"
         d="m 215,137 c 67,0 111,-37 111,-92 0,-90 -111,-182 -215,-182 -67,0 -111,37 -111,92 0,90 111,182 215,182 z"
         fill="currentColor"
         id="path164" />
    </g>
  </a>
  <a
     style="color:inherit"
     xlink:href="textedit:///Users/tomsegarra/Downloads/dummies/lilypond_files/bc79647351737270b6bcfc452a6a0172.ly:23:4:5"
     id="a176"
     transform="translate(-2.277366,-3.2761233)">
    <g
       transform="translate(14.1766,11.9867)"
       id="g174">
      <text
         font-family="serif"
         font-size="2.0989px"
         text-anchor="start"
         fill="currentColor"
         id="text172"><tspan
           id="tspan170">I</tspan></text>
    </g>
  </a>
  <g
     transform="translate(11.748634,3.2105767)"
     id="g180">
    <rect
       x="-0.061700001"
       y="-1.5475"
       width="0.1233"
       height="2.3975"
       ry="0.039999999"
       fill="currentColor"
       id="rect178" />
  </g>
  <g
     transform="translate(10.402034,1.5105767)"
     id="g184">
    <path
       transform="scale(0.0034,-0.0034)"
       d="m 217,-311 c 0,-11 -8,-19 -19,-19 -11,0 -20,8 -20,19 v 142 l -81,-30 v -156 c 0,-11 -9,-20 -20,-20 -11,0 -19,9 -19,20 v 142 l -28,-11 c -3,-1 -5,-1 -8,-1 -12,0 -22,10 -22,23 v 57 c 0,9 6,18 15,21 l 43,16 V 49 L 30,39 C 27,38 25,38 22,38 10,38 0,47 0,60 v 57 c 0,9 6,18 15,21 l 43,16 v 157 c 0,11 8,19 19,19 11,0 20,-8 20,-19 V 169 l 81,30 v 156 c 0,11 9,20 20,20 11,0 19,-9 19,-20 V 213 l 28,11 c 3,1 5,1 8,1 12,0 22,-10 22,-23 v -57 c 0,-9 -6,-18 -15,-21 L 217,108 V -49 l 28,10 c 3,1 5,1 8,1 12,0 22,-9 22,-22 v -57 c 0,-9 -6,-18 -15,-21 l -43,-16 z M 97,64 V -94 l 81,30 V 94 Z"
       fill="currentColor"
       id="path182" />
  </g>
  <a
     style="color:inherit"
     xlink:href="textedit:///Users/tomsegarra/Downloads/dummies/lilypond_files/bc79647351737270b6bcfc452a6a0172.ly:20:47:48"
     id="a190"
     transform="translate(-2.277366,-3.2761233)">
    <g
       transform="translate(33.6235,6.4867)"
       id="g188">
      <path
         stroke-width="0.0759"
         stroke-linejoin="round"
         stroke-linecap="round"
         stroke="currentColor"
         fill="currentColor"
         d="m 0.7537,-1.7 c 0.6677,-0.7058 2.4397,-0.7058 3.1074,0 v 0 c -0.6677,-0.592 -2.4397,-0.592 -3.1074,0 z"
         id="path186" />
    </g>
  </a>
  <a
     style="color:inherit"
     xlink:href="textedit:///Users/tomsegarra/Downloads/dummies/lilypond_files/bc79647351737270b6bcfc452a6a0172.ly:20:17:18"
     id="a196"
     transform="translate(-2.277366,-3.2761233)">
    <g
       transform="translate(16.2718,4.7867)"
       id="g194">
      <path
         transform="scale(0.0034,-0.0034)"
         d="m 215,137 c 67,0 111,-37 111,-92 0,-90 -111,-182 -215,-182 -67,0 -111,37 -111,92 0,90 111,182 215,182 z"
         fill="currentColor"
         id="path192" />
    </g>
  </a>
  <a
     style="color:inherit"
     xlink:href="textedit:///Users/tomsegarra/Downloads/dummies/lilypond_files/bc79647351737270b6bcfc452a6a0172.ly:23:6:7"
     id="a204"
     transform="translate(-2.277366,-3.2761233)">
    <g
       transform="translate(16.2718,11.9867)"
       id="g202">
      <text
         font-family="serif"
         font-size="2.0989px"
         text-anchor="start"
         fill="currentColor"
         id="text200"><tspan
           id="tspan198">am</tspan></text>
    </g>
  </a>
  <g
     transform="translate(14.056034,3.2105767)"
     id="g208">
    <rect
       x="-0.061700001"
       y="-1.5475"
       width="0.1233"
       height="2.3975"
       ry="0.039999999"
       fill="currentColor"
       id="rect206" />
  </g>
  <a
     style="color:inherit"
     xlink:href="textedit:///Users/tomsegarra/Downloads/dummies/lilypond_files/bc79647351737270b6bcfc452a6a0172.ly:20:22:23"
     id="a214"
     transform="translate(-2.277366,-3.2761233)">
    <g
       transform="translate(18.5792,4.7867)"
       id="g212">
      <path
         transform="scale(0.0034,-0.0034)"
         d="m 215,137 c 67,0 111,-37 111,-92 0,-90 -111,-182 -215,-182 -67,0 -111,37 -111,92 0,90 111,182 215,182 z"
         fill="currentColor"
         id="path210" />
    </g>
  </a>
  <g
     transform="translate(16.363434,3.2105767)"
     id="g218">
    <rect
       x="-0.061700001"
       y="-1.5475"
       width="0.1233"
       height="2.3975"
       ry="0.039999999"
       fill="currentColor"
       id="rect216" />
  </g>
  <g
     transform="translate(24.423934,4.2170767)"
     id="g222">
    <polygon
       stroke-linejoin="round"
       stroke-linecap="round"
       stroke-width="0.08"
       fill="currentColor"
       stroke="currentColor"
       points="0.04,0.164 0.04,-0.164 4.6981,-0.164 4.6981,0.164 "
       id="polygon220" />
  </g>
  <g
     transform="translate(24.423934,4.9105767)"
     id="g226">
    <polygon
       stroke-linejoin="round"
       stroke-linecap="round"
       stroke-width="0.08"
       fill="currentColor"
       stroke="currentColor"
       points="0.04,0.164 0.04,-0.164 10.5129,-0.164 10.5129,0.164 "
       id="polygon224" />
  </g>
  <a
     style="color:inherit"
     xlink:href="textedit:///Users/tomsegarra/Downloads/dummies/lilypond_files/bc79647351737270b6bcfc452a6a0172.ly:20:27:28"
     id="a232"
     transform="translate(-2.277366,-3.2761233)">
    <g
       transform="translate(22.0865,4.3617)"
       id="g230">
      <path
         transform="scale(0.0034,-0.0034)"
         d="m 215,137 c 67,0 111,-37 111,-92 0,-90 -111,-182 -215,-182 -67,0 -111,37 -111,92 0,90 111,182 215,182 z"
         fill="currentColor"
         id="path228" />
    </g>
  </a>
  <g
     transform="translate(19.870834,3.2105767)"
     id="g236">
    <rect
       x="-0.061700001"
       y="-1.9725"
       width="0.1233"
       height="2.8225"
       ry="0.039999999"
       fill="currentColor"
       id="rect234" />
  </g>
  <a
     style="color:inherit"
     xlink:href="textedit:///Users/tomsegarra/Downloads/dummies/lilypond_files/bc79647351737270b6bcfc452a6a0172.ly:20:31:32"
     id="a242"
     transform="translate(-2.277366,-3.2761233)">
    <g
       transform="translate(24.3939,4.7867)"
       id="g240">
      <path
         transform="scale(0.0034,-0.0034)"
         d="m 215,137 c 67,0 111,-37 111,-92 0,-90 -111,-182 -215,-182 -67,0 -111,37 -111,92 0,90 111,182 215,182 z"
         fill="currentColor"
         id="path238" />
    </g>
  </a>
  <a
     style="color:inherit"
     xlink:href="textedit:///Users/tomsegarra/Downloads/dummies/lilypond_files/bc79647351737270b6bcfc452a6a0172.ly:23:12:13"
     id="a250"
     transform="translate(-2.277366,-3.2761233)">
    <g
       transform="translate(24.3939,11.9867)"
       id="g248">
      <text
         font-family="serif"
         font-size="2.0989px"
         text-anchor="start"
         fill="currentColor"
         id="text246"><tspan
           id="tspan244">ar</tspan></text>
    </g>
  </a>
  <g
     transform="translate(22.178234,3.2105767)"
     id="g254">
    <rect
       x="-0.061700001"
       y="-1.5475"
       width="0.1233"
       height="2.3975"
       ry="0.039999999"
       fill="currentColor"
       id="rect252" />
  </g>
</svg>
