<svg xmlns="http://www.w3.org/2000/svg" xmlns:xlink="http://www.w3.org/1999/xlink" version="1.2" width="19.15mm" height="297.00mm" viewBox="0 0 10.8988 169.0094">
<style type="text/css">
<![CDATA[
tspan { white-space: pre; }
]]>
</style>
<!-- Page: 1/1 -->
<g transform="translate(2.2762, 7.8970)">
<line stroke-linejoin="round" stroke-linecap="round" stroke-width="0.0931" stroke="currentColor" x1="0.0466" y1="0" x2="5.0734" y2="0"/>
</g>
<g transform="translate(2.2762, 7.0970)">
<line stroke-linejoin="round" stroke-linecap="round" stroke-width="0.0931" stroke="currentColor" x1="0.0466" y1="0" x2="5.0734" y2="0"/>
</g>
<g transform="translate(2.2762, 6.2970)">
<line stroke-linejoin="round" stroke-linecap="round" stroke-width="0.0931" stroke="currentColor" x1="0.0466" y1="0" x2="5.0734" y2="0"/>
</g>
<g transform="translate(2.2762, 5.4970)">
<line stroke-linejoin="round" stroke-linecap="round" stroke-width="0.0931" stroke="currentColor" x1="0.0466" y1="0" x2="5.0734" y2="0"/>
</g>
<g transform="translate(2.2762, 4.6970)">
<line stroke-linejoin="round" stroke-linecap="round" stroke-width="0.0931" stroke="currentColor" x1="0.0466" y1="0" x2="5.0734" y2="0"/>
</g>
<g transform="translate(3.0762, 7.0970)">
<path transform="scale(0.0032, -0.0032)" d="M647 2c0 -114 -75 -214 -180 -248c3 -33 4 -66 4 -99c0 -21 0 -41 -1 -62c-7 -122 -92 -229 -211 -229c-108 0 -196 88 -196 197c0 58 54 103 113 103c54 0 95 -47 95 -103c0 -52 -43 -95 -95 -95c-9 0 -18 1 -27 4c25 -37 66 -61 113 -61c93 0 156 91 162 191
c1 19 2 38 2 57c0 29 -1 58 -3 87c-5 -1 -44 -8 -88 -8c-194 0 -333 181 -333 376c0 177 129 308 244 443c-34 103 -55 171 -55 347c0 114 54 221 147 288c8 6 18 5 25 -1c68 -79 135 -242 135 -356c0 -142 -84 -255 -176 -364c21 -68 40 -136 57 -205c1 0 5 1 10 1
c157 0 258 -129 258 -263zM463 -201c64 24 110 88 110 161c0 88 -64 175 -167 188c28 -133 49 -269 57 -349zM77 25c0 -144 141 -243 261 -243c1 0 46 -1 81 5c-7 66 -27 208 -60 362c-79 -8 -124 -60 -124 -118c0 -43 25 -88 80 -120c5 -5 7 -11 7 -17
c0 -12 -10 -23 -23 -23c-16 0 -128 62 -128 188c0 89 60 177 163 200c-14 57 -30 113 -47 169c-105 -122 -210 -243 -210 -403zM403 1038c-99 -46 -161 -145 -161 -254c0 -39 10 -95 39 -188c78 97 142 199 142 324c0 33 0 61 -20 118z" fill="currentColor"/>
</g>
<g transform="translate(7.2762, 6.2970)">
<path transform="scale(0.0032, -0.0032)" d="M250 265c114 0 172 -112 172 -166c0 -38 -30 -69 -66 -69c-30 0 -72 23 -72 72c0 37 26 75 70 75c3 0 6 -1 9 -1c-26 36 -67 59 -113 59c-107 0 -113 -74 -113 -189c0 -15 1 -30 1 -46s-1 -31 -1 -46c0 -115 6 -189 113 -189c78 0 133 70 151 149c2 8 8 11 14 11
c7 0 15 -5 15 -14c0 -21 -49 -176 -180 -176c-145 0 -250 88 -250 265c0 63 18 265 250 265z" fill="currentColor"/>
</g>
</svg>
