<?xml version="1.0" encoding="UTF-8" standalone="no"?>
<svg
   version="1.2"
   width="140.37071mm"
   height="9.4600191mm"
   viewBox="0 0 79.880564 5.3832732"
   id="svg394"
   sodipodi:docname="c5fb3b96b32170599c1100cdb6cd4971.svg"
   xmlns:inkscape="http://www.inkscape.org/namespaces/inkscape"
   xmlns:sodipodi="http://sodipodi.sourceforge.net/DTD/sodipodi-0.dtd"
   xmlns:xlink="http://www.w3.org/1999/xlink"
   xmlns="http://www.w3.org/2000/svg"
   xmlns:svg="http://www.w3.org/2000/svg">
  <defs
     id="defs398" />
  <sodipodi:namedview
     id="namedview396"
     pagecolor="#ffffff"
     bordercolor="#000000"
     borderopacity="0.25"
     inkscape:showpageshadow="2"
     inkscape:pageopacity="0.0"
     inkscape:pagecheckerboard="0"
     inkscape:deskcolor="#d1d1d1"
     inkscape:document-units="mm" />
  <style
     type="text/css"
     id="style2"><![CDATA[
tspan { white-space: pre; }
]]></style>
  <!-- Page: 1/1 -->
  <g
     transform="translate(67.530017,2.5480148)"
     id="g6">
    <rect
       x="0"
       y="-1.7"
       width="0.1802"
       height="3.4000001"
       ry="0.0000"
       fill="currentColor"
       id="rect4" />
  </g>
  <g
     transform="translate(79.700317,2.5480148)"
     id="g10">
    <rect
       x="0"
       y="-1.7"
       width="0.1802"
       height="3.4000001"
       ry="0.0000"
       fill="currentColor"
       id="rect8" />
  </g>
  <g
     transform="translate(54.453217,2.5480148)"
     id="g14">
    <rect
       x="0"
       y="-1.7"
       width="0.1802"
       height="3.4000001"
       ry="0.0000"
       fill="currentColor"
       id="rect12" />
  </g>
  <g
     transform="translate(41.305017,2.5480148)"
     id="g18">
    <rect
       x="0"
       y="-1.7"
       width="0.1802"
       height="3.4000001"
       ry="0.0000"
       fill="currentColor"
       id="rect16" />
  </g>
  <g
     transform="translate(22.567317,4.2480148)"
     id="g22">
    <line
       stroke-linejoin="round"
       stroke-linecap="round"
       stroke-width="0.0949"
       stroke="currentColor"
       x1="0.047400001"
       y1="0"
       x2="57.2658"
       y2="0"
       id="line20" />
  </g>
  <g
     transform="translate(22.567317,3.3980148)"
     id="g26">
    <line
       stroke-linejoin="round"
       stroke-linecap="round"
       stroke-width="0.0949"
       stroke="currentColor"
       x1="0.047400001"
       y1="0"
       x2="57.2658"
       y2="0"
       id="line24" />
  </g>
  <g
     transform="translate(22.567317,2.5480148)"
     id="g30">
    <line
       stroke-linejoin="round"
       stroke-linecap="round"
       stroke-width="0.0949"
       stroke="currentColor"
       x1="0.047400001"
       y1="0"
       x2="57.2658"
       y2="0"
       id="line28" />
  </g>
  <g
     transform="translate(22.567317,1.6980148)"
     id="g34">
    <line
       stroke-linejoin="round"
       stroke-linecap="round"
       stroke-width="0.0949"
       stroke="currentColor"
       x1="0.047400001"
       y1="0"
       x2="57.2658"
       y2="0"
       id="line32" />
  </g>
  <g
     transform="translate(22.567317,0.84801484)"
     id="g38">
    <line
       stroke-linejoin="round"
       stroke-linecap="round"
       stroke-width="0.0949"
       stroke="currentColor"
       x1="0.047400001"
       y1="0"
       x2="57.2658"
       y2="0"
       id="line36" />
  </g>
  <g
     transform="translate(25.011517,2.5480148)"
     id="g42">
    <rect
       x="0"
       y="-1.7"
       width="0.1802"
       height="3.4000001"
       ry="0.0000"
       fill="currentColor"
       id="rect40" />
  </g>
  <g
     transform="translate(48.034517,4.4046148)"
     id="g46">
    <polygon
       stroke-linejoin="round"
       stroke-linecap="round"
       stroke-width="0.08"
       fill="currentColor"
       stroke="currentColor"
       points="0.04,0.164 0.04,-0.164 1.9907,-0.4771 1.9907,-0.1491 "
       id="polygon44" />
  </g>
  <g
     transform="translate(61.111217,4.4046148)"
     id="g50">
    <polygon
       stroke-linejoin="round"
       stroke-linecap="round"
       stroke-width="0.08"
       fill="currentColor"
       stroke="currentColor"
       points="0.04,0.164 0.04,-0.164 1.9907,-0.4771 1.9907,-0.1491 "
       id="polygon48" />
  </g>
  <a
     style="color:inherit"
     xlink:href="textedit:///Users/tomsegarra/Documents/dev/dummies/lilypond_files/c5fb3b96b32170599c1100cdb6cd4971.ly:18:23:24"
     id="a58"
     transform="translate(-2.9010828,-3.2781852)">
    <g
       transform="translate(20.1704,4.9225)"
       id="g56">
      <text
         font-family="sans-serif"
         font-size="2.224px"
         text-anchor="start"
         fill="currentColor"
         id="text54"><tspan
           id="tspan52">F</tspan></text>
    </g>
  </a>
  <g
     color="#ff0000"
     id="g66"
     transform="translate(-2.9010828,-3.2781852)">
    <a
       style="color:inherit"
       xlink:href="textedit:///Users/tomsegarra/Documents/dev/dummies/lilypond_files/c5fb3b96b32170599c1100cdb6cd4971.ly:25:4:5"
       id="a64">
      <g
         transform="translate(32.281,6.2512)"
         id="g62">
        <path
           transform="scale(0.0034,-0.0034)"
           d="m 215,137 c 67,0 111,-37 111,-92 0,-90 -111,-182 -215,-182 -67,0 -111,37 -111,92 0,90 111,182 215,182 z"
           fill="currentColor"
           id="path60" />
      </g>
    </a>
  </g>
  <g
     transform="translate(22.567317,3.3980148)"
     id="g70">
    <path
       transform="scale(0.0034,-0.0034)"
       d="m 208,-469 c 37,0 129,18 129,195 0,22 0,44 -2,66 -3,-1 -34,-5 -67,-5 C 113,-213 2,-68 2,90 c 0,144 99,253 189,367 -31,96 -43,143 -43,289 0,92 41,179 113,237 7,6 17,6 23,0 55,-66 108,-201 108,-295 0,-114 -62,-207 -133,-297 18,-59 34,-118 48,-178 2,0 3,1 5,1 126,0 207,-105 207,-213 0,-92 -60,-170 -141,-198 2,-26 3,-53 3,-79 0,-17 -1,-33 -2,-50 -6,-100 -77,-187 -174,-187 -88,0 -158,72 -158,161 0,46 42,83 90,83 43,0 76,-38 76,-83 0,-42 -34,-76 -76,-76 h -9 c 19,-25 47,-41 80,-41 z m 166,315 c 43,18 80,65 80,124 0,67 -48,134 -125,146 16,-76 36,-186 45,-270 z M 64,17 c 0,-115 115,-186 207,-186 1,0 34,0 60,4 -6,51 -21,160 -47,282 -59,-7 -93,-48 -93,-92 0,-34 20,-69 63,-93 5,-5 7,-11 7,-16 0,-12 -10,-23 -22,-23 -15,0 -105,52 -105,153 0,72 47,142 129,162 -11,47 -24,94 -38,141 C 144,248 64,146 64,17 Z M 317,857 C 241,814 195,734 195,647 c 0,-35 11,-82 30,-146 58,79 105,161 105,260 0,24 0,48 -13,96 z"
       fill="currentColor"
       id="path68" />
  </g>
  <a
     style="color:inherit"
     xlink:href="textedit:///Users/tomsegarra/Documents/dev/dummies/lilypond_files/c5fb3b96b32170599c1100cdb6cd4971.ly:22:1:9"
     id="a72"
     transform="translate(-2.9010828,-3.2781852)" />
  <g
     transform="translate(25.941717,2.5480148)"
     id="g76">
    <path
       transform="scale(0.0034,-0.0034)"
       d="m 358,29 c -30,0 -74,23 -74,73 0,38 27,76 71,76 4,0 7,0 11,-1 -27,36 -69,59 -116,59 -106,0 -113,-74 -113,-188 0,-15 1,-31 1,-48 0,-17 -1,-33 -1,-48 0,-114 7,-188 113,-188 79,0 136,70 155,150 2,7 7,10 13,10 7,0 14,-5 14,-13 0,-21 -50,-175 -182,-175 C 191,-264 0,-244 0,0 0,63 18,264 250,264 365,264 424,155 424,99 424,60 394,29 358,29 Z"
       fill="currentColor"
       id="path74" />
  </g>
  <g
     transform="translate(30.866417,2.9730148)"
     id="g80">
    <path
       transform="scale(0.0034,-0.0034)"
       d="M 0,0 C 0,31 25,56 56,56 87,56 111,31 111,0 111,-31 87,-56 56,-56 25,-56 0,-31 0,0 Z"
       fill="currentColor"
       id="path78" />
  </g>
  <g
     color="#ff0000"
     id="g86"
     transform="translate(-2.9010828,-3.2781852)">
    <g
       transform="translate(33.3267,5.8262)"
       id="g84">
      <rect
         x="-0.061700001"
         y="-2.55"
         width="0.1233"
         height="2.8225"
         ry="0.039999999"
         fill="currentColor"
         id="rect82" />
    </g>
  </g>
  <g
     color="#000000"
     id="g92"
     transform="translate(-2.9010828,-3.2781852)">
    <g
       transform="translate(80.0948,5.8262)"
       id="g90">
      <rect
         x="-0.061700001"
         y="-1.1224999"
         width="0.1233"
         height="2.8225"
         ry="0.039999999"
         fill="currentColor"
         id="rect88" />
    </g>
  </g>
  <g
     color="#ff0000"
     id="g100"
     transform="translate(-2.9010828,-3.2781852)">
    <a
       style="color:inherit"
       xlink:href="textedit:///Users/tomsegarra/Documents/dev/dummies/lilypond_files/c5fb3b96b32170599c1100cdb6cd4971.ly:25:9:10"
       id="a98">
      <g
         transform="translate(35.88,5.4012)"
         id="g96">
        <path
           transform="scale(0.0034,-0.0034)"
           d="m 215,137 c 67,0 111,-37 111,-92 0,-90 -111,-182 -215,-182 -67,0 -111,37 -111,92 0,90 111,182 215,182 z"
           fill="currentColor"
           id="path94" />
      </g>
    </a>
  </g>
  <g
     color="#ff0000"
     id="g106"
     transform="translate(-2.9010828,-3.2781852)">
    <g
       transform="translate(35.9417,5.8262)"
       id="g104">
      <rect
         x="-0.061700001"
         y="-0.27250001"
         width="0.1233"
         height="2.8225"
         ry="0.039999999"
         fill="currentColor"
         id="rect102" />
    </g>
  </g>
  <g
     color="#ff0000"
     id="g112"
     transform="translate(-2.9010828,-3.2781852)">
    <g
       transform="translate(36.0033,8.3362)"
       id="g110">
      <path
         transform="scale(0.0034,-0.0034)"
         d="M 0,0 H -18 V 250 H 0 Z m 0,0 v 250 c 96,59 222,149 222,259 0,57 -15,111 -40,162 -3,17 10,29 24,29 8,0 16,-5 21,-13 25,-56 40,-116 40,-178 C 267,306 0,203 0,0 Z"
         fill="currentColor"
         id="path108" />
    </g>
  </g>
  <a
     style="color:inherit"
     xlink:href="textedit:///Users/tomsegarra/Documents/dev/dummies/lilypond_files/c5fb3b96b32170599c1100cdb6cd4971.ly:18:14:15"
     id="a120"
     transform="translate(-2.9010828,-3.2781852)">
    <g
       transform="translate(2.7762,4.9225)"
       id="g118">
      <text
         font-family="sans-serif"
         font-size="2.224px"
         text-anchor="start"
         fill="currentColor"
         id="text116"><tspan
           id="tspan114">C</tspan></text>
    </g>
  </a>
  <g
     color="#000000"
     id="g128"
     transform="translate(-2.9010828,-3.2781852)">
    <a
       style="color:inherit"
       xlink:href="textedit:///Users/tomsegarra/Documents/dev/dummies/lilypond_files/c5fb3b96b32170599c1100cdb6cd4971.ly:34:12:13"
       id="a126">
      <g
         transform="translate(80.0332,4.5512)"
         id="g124">
        <path
           transform="scale(0.0034,-0.0034)"
           d="m 215,137 c 67,0 111,-37 111,-92 0,-90 -111,-182 -215,-182 -67,0 -111,37 -111,92 0,90 111,182 215,182 z"
           fill="currentColor"
           id="path122" />
      </g>
    </a>
  </g>
  <g
     color="#ff0000"
     id="g136"
     transform="translate(-2.9010828,-3.2781852)">
    <a
       style="color:inherit"
       xlink:href="textedit:///Users/tomsegarra/Documents/dev/dummies/lilypond_files/c5fb3b96b32170599c1100cdb6cd4971.ly:25:12:13"
       id="a134">
      <g
         transform="translate(37.7874,4.9762)"
         id="g132">
        <path
           transform="scale(0.0034,-0.0034)"
           d="m 215,137 c 67,0 111,-37 111,-92 0,-90 -111,-182 -215,-182 -67,0 -111,37 -111,92 0,90 111,182 215,182 z"
           fill="currentColor"
           id="path130" />
      </g>
    </a>
  </g>
  <g
     color="#ff0000"
     id="g142"
     transform="translate(-2.9010828,-3.2781852)">
    <g
       transform="translate(37.849,5.8262)"
       id="g140">
      <rect
         x="-0.061700001"
         y="-0.69749999"
         width="0.1233"
         height="2.5446"
         ry="0.039999999"
         fill="currentColor"
         id="rect138" />
    </g>
  </g>
  <g
     color="#ff0000"
     id="g150"
     transform="translate(-2.9010828,-3.2781852)">
    <a
       style="color:inherit"
       xlink:href="textedit:///Users/tomsegarra/Documents/dev/dummies/lilypond_files/c5fb3b96b32170599c1100cdb6cd4971.ly:25:14:15"
       id="a148">
      <g
         transform="translate(39.6948,4.5512)"
         id="g146">
        <path
           transform="scale(0.0034,-0.0034)"
           d="m 215,137 c 67,0 111,-37 111,-92 0,-90 -111,-182 -215,-182 -67,0 -111,37 -111,92 0,90 111,182 215,182 z"
           fill="currentColor"
           id="path144" />
      </g>
    </a>
  </g>
  <g
     color="#ff0000"
     id="g156"
     transform="translate(-2.9010828,-3.2781852)">
    <g
       transform="translate(39.7564,5.8262)"
       id="g154">
      <rect
         x="-0.061700001"
         y="-1.1224999"
         width="0.1233"
         height="2.6754999"
         ry="0.039999999"
         fill="currentColor"
         id="rect152" />
    </g>
  </g>
  <g
     color="#ff0000"
     id="g164"
     transform="translate(-2.9010828,-3.2781852)">
    <a
       style="color:inherit"
       xlink:href="textedit:///Users/tomsegarra/Documents/dev/dummies/lilypond_files/c5fb3b96b32170599c1100cdb6cd4971.ly:25:18:19"
       id="a162">
      <g
         transform="translate(41.6022,4.9762)"
         id="g160">
        <path
           transform="scale(0.0034,-0.0034)"
           d="m 215,137 c 67,0 111,-37 111,-92 0,-90 -111,-182 -215,-182 -67,0 -111,37 -111,92 0,90 111,182 215,182 z"
           fill="currentColor"
           id="path158" />
      </g>
    </a>
  </g>
  <g
     color="#ff0000"
     id="g170"
     transform="translate(-2.9010828,-3.2781852)">
    <g
       transform="translate(41.6638,5.8262)"
       id="g168">
      <rect
         x="-0.061700001"
         y="-0.69749999"
         width="0.1233"
         height="2.8225"
         ry="0.039999999"
         fill="currentColor"
         id="rect166" />
    </g>
  </g>
  <g
     color="#000000"
     id="g176"
     transform="translate(-2.9010828,-3.2781852)">
    <g
       transform="translate(77.2894,5.8262)"
       id="g174">
      <rect
         x="-0.061700001"
         y="-0.69749999"
         width="0.1233"
         height="2.8225"
         ry="0.039999999"
         fill="currentColor"
         id="rect172" />
    </g>
  </g>
  <g
     color="#000000"
     id="g184"
     transform="translate(-2.9010828,-3.2781852)">
    <a
       style="color:inherit"
       xlink:href="textedit:///Users/tomsegarra/Documents/dev/dummies/lilypond_files/c5fb3b96b32170599c1100cdb6cd4971.ly:34:10:11"
       id="a182">
      <g
         transform="translate(77.2277,4.9762)"
         id="g180">
        <path
           transform="scale(0.0034,-0.0034)"
           d="m 215,137 c 67,0 111,-37 111,-92 0,-90 -111,-182 -215,-182 -67,0 -111,37 -111,92 0,90 111,182 215,182 z"
           fill="currentColor"
           id="path178" />
      </g>
    </a>
  </g>
  <g
     color="#000000"
     id="g192"
     transform="translate(-2.9010828,-3.2781852)">
    <a
       style="color:inherit"
       xlink:href="textedit:///Users/tomsegarra/Documents/dev/dummies/lilypond_files/c5fb3b96b32170599c1100cdb6cd4971.ly:28:4:5"
       id="a190">
      <g
         transform="translate(45.2863,7.1012)"
         id="g188">
        <path
           transform="scale(0.0034,-0.0034)"
           d="m 215,137 c 67,0 111,-37 111,-92 0,-90 -111,-182 -215,-182 -67,0 -111,37 -111,92 0,90 111,182 215,182 z"
           fill="currentColor"
           id="path186" />
      </g>
    </a>
  </g>
  <g
     transform="translate(43.871717,3.8230148)"
     id="g196">
    <path
       transform="scale(0.0034,-0.0034)"
       d="M 0,0 C 0,31 25,56 56,56 87,56 111,31 111,0 111,-31 87,-56 56,-56 25,-56 0,-31 0,0 Z"
       fill="currentColor"
       id="path194" />
  </g>
  <g
     color="#000000"
     id="g202"
     transform="translate(-2.9010828,-3.2781852)">
    <g
       transform="translate(46.3321,5.8262)"
       id="g200">
      <rect
         x="-0.061700001"
         y="-1.7"
         width="0.1233"
         height="2.8225"
         ry="0.039999999"
         fill="currentColor"
         id="rect198" />
    </g>
  </g>
  <a
     style="color:inherit"
     xlink:href="textedit:///Users/tomsegarra/Documents/dev/dummies/lilypond_files/c5fb3b96b32170599c1100cdb6cd4971.ly:18:17:18"
     id="a210"
     transform="translate(-2.9010828,-3.2781852)">
    <g
       transform="translate(8.5743,4.9225)"
       id="g208">
      <text
         font-family="sans-serif"
         font-size="2.224px"
         text-anchor="start"
         fill="currentColor"
         id="text206"><tspan
           id="tspan204">D</tspan></text>
    </g>
  </a>
  <g
     color="#000000"
     id="g218"
     transform="translate(-2.9010828,-3.2781852)">
    <a
       style="color:inherit"
       xlink:href="textedit:///Users/tomsegarra/Documents/dev/dummies/lilypond_files/c5fb3b96b32170599c1100cdb6cd4971.ly:28:9:10"
       id="a216">
      <g
         transform="translate(49.0282,5.4012)"
         id="g214">
        <path
           transform="scale(0.0034,-0.0034)"
           d="m 215,137 c 67,0 111,-37 111,-92 0,-90 -111,-182 -215,-182 -67,0 -111,37 -111,92 0,90 111,182 215,182 z"
           fill="currentColor"
           id="path212" />
      </g>
    </a>
  </g>
  <g
     color="#000000"
     id="g224"
     transform="translate(-2.9010828,-3.2781852)">
    <g
       transform="translate(49.0899,5.8262)"
       id="g222">
      <rect
         x="-0.061700001"
         y="-0.27250001"
         width="0.1233"
         height="2.8225"
         ry="0.039999999"
         fill="currentColor"
         id="rect220" />
    </g>
  </g>
  <g
     color="#000000"
     id="g230"
     transform="translate(-2.9010828,-3.2781852)">
    <g
       transform="translate(49.1515,8.3362)"
       id="g228">
      <path
         transform="scale(0.0034,-0.0034)"
         d="M 0,0 H -18 V 250 H 0 Z m 0,0 v 250 c 96,59 222,149 222,259 0,57 -15,111 -40,162 -3,17 10,29 24,29 8,0 16,-5 21,-13 25,-56 40,-116 40,-178 C 267,306 0,203 0,0 Z"
         fill="currentColor"
         id="path226" />
    </g>
  </g>
  <g
     color="#000000"
     id="g238"
     transform="translate(-2.9010828,-3.2781852)">
    <a
       style="color:inherit"
       xlink:href="textedit:///Users/tomsegarra/Documents/dev/dummies/lilypond_files/c5fb3b96b32170599c1100cdb6cd4971.ly:28:13:14"
       id="a236">
      <g
         transform="translate(50.9356,4.9762)"
         id="g234">
        <path
           transform="scale(0.0034,-0.0034)"
           d="m 215,137 c 67,0 111,-37 111,-92 0,-90 -111,-182 -215,-182 -67,0 -111,37 -111,92 0,90 111,182 215,182 z"
           fill="currentColor"
           id="path232" />
      </g>
    </a>
  </g>
  <g
     color="#000000"
     id="g244"
     transform="translate(-2.9010828,-3.2781852)">
    <g
       transform="translate(50.9972,5.8262)"
       id="g242">
      <rect
         x="-0.061700001"
         y="-0.69749999"
         width="0.1233"
         height="2.5446"
         ry="0.039999999"
         fill="currentColor"
         id="rect240" />
    </g>
  </g>
  <g
     color="#000000"
     id="g252"
     transform="translate(-2.9010828,-3.2781852)">
    <a
       style="color:inherit"
       xlink:href="textedit:///Users/tomsegarra/Documents/dev/dummies/lilypond_files/c5fb3b96b32170599c1100cdb6cd4971.ly:28:15:16"
       id="a250">
      <g
         transform="translate(52.843,4.5512)"
         id="g248">
        <path
           transform="scale(0.0034,-0.0034)"
           d="m 215,137 c 67,0 111,-37 111,-92 0,-90 -111,-182 -215,-182 -67,0 -111,37 -111,92 0,90 111,182 215,182 z"
           fill="currentColor"
           id="path246" />
      </g>
    </a>
  </g>
  <g
     color="#000000"
     id="g258"
     transform="translate(-2.9010828,-3.2781852)">
    <g
       transform="translate(52.9046,5.8262)"
       id="g256">
      <rect
         x="-0.061700001"
         y="-1.1224999"
         width="0.1233"
         height="2.6754999"
         ry="0.039999999"
         fill="currentColor"
         id="rect254" />
    </g>
  </g>
  <g
     transform="translate(34.886317,4.4046148)"
     id="g262">
    <polygon
       stroke-linejoin="round"
       stroke-linecap="round"
       stroke-width="0.08"
       fill="currentColor"
       stroke="currentColor"
       points="0.04,0.164 0.04,-0.164 1.9907,-0.4771 1.9907,-0.1491 "
       id="polygon260" />
  </g>
  <g
     color="#000000"
     id="g270"
     transform="translate(-2.9010828,-3.2781852)">
    <a
       style="color:inherit"
       xlink:href="textedit:///Users/tomsegarra/Documents/dev/dummies/lilypond_files/c5fb3b96b32170599c1100cdb6cd4971.ly:28:19:20"
       id="a268">
      <g
         transform="translate(54.7504,4.9762)"
         id="g266">
        <path
           transform="scale(0.0034,-0.0034)"
           d="m 215,137 c 67,0 111,-37 111,-92 0,-90 -111,-182 -215,-182 -67,0 -111,37 -111,92 0,90 111,182 215,182 z"
           fill="currentColor"
           id="path264" />
      </g>
    </a>
  </g>
  <g
     color="#000000"
     id="g276"
     transform="translate(-2.9010828,-3.2781852)">
    <g
       transform="translate(54.812,5.8262)"
       id="g274">
      <rect
         x="-0.061700001"
         y="-0.69749999"
         width="0.1233"
         height="2.8225"
         ry="0.039999999"
         fill="currentColor"
         id="rect272" />
    </g>
  </g>
  <g
     color="#000000"
     id="g282"
     transform="translate(-2.9010828,-3.2781852)">
    <g
       transform="translate(74.484,5.8262)"
       id="g280">
      <rect
         x="-0.061700001"
         y="-0.27250001"
         width="0.1233"
         height="2.8225"
         ry="0.039999999"
         fill="currentColor"
         id="rect278" />
    </g>
  </g>
  <g
     color="#000000"
     id="g290"
     transform="translate(-2.9010828,-3.2781852)">
    <a
       style="color:inherit"
       xlink:href="textedit:///Users/tomsegarra/Documents/dev/dummies/lilypond_files/c5fb3b96b32170599c1100cdb6cd4971.ly:28:24:25"
       id="a288">
      <g
         transform="translate(58.4345,6.6762)"
         id="g286">
        <path
           transform="scale(0.0034,-0.0034)"
           d="m 215,137 c 67,0 111,-37 111,-92 0,-90 -111,-182 -215,-182 -67,0 -111,37 -111,92 0,90 111,182 215,182 z"
           fill="currentColor"
           id="path284" />
      </g>
    </a>
  </g>
  <g
     transform="translate(57.019917,2.9730148)"
     id="g294">
    <path
       transform="scale(0.0034,-0.0034)"
       d="M 0,0 C 0,31 25,56 56,56 87,56 111,31 111,0 111,-31 87,-56 56,-56 25,-56 0,-31 0,0 Z"
       fill="currentColor"
       id="path292" />
  </g>
  <g
     color="#000000"
     id="g300"
     transform="translate(-2.9010828,-3.2781852)">
    <g
       transform="translate(59.4803,5.8262)"
       id="g298">
      <rect
         x="-0.061700001"
         y="-2.125"
         width="0.1233"
         height="2.8225"
         ry="0.039999999"
         fill="currentColor"
         id="rect296" />
    </g>
  </g>
  <g
     color="#000000"
     id="g308"
     transform="translate(-2.9010828,-3.2781852)">
    <a
       style="color:inherit"
       xlink:href="textedit:///Users/tomsegarra/Documents/dev/dummies/lilypond_files/c5fb3b96b32170599c1100cdb6cd4971.ly:34:8:9"
       id="a306">
      <g
         transform="translate(74.4223,5.4012)"
         id="g304">
        <path
           transform="scale(0.0034,-0.0034)"
           d="m 215,137 c 67,0 111,-37 111,-92 0,-90 -111,-182 -215,-182 -67,0 -111,37 -111,92 0,90 111,182 215,182 z"
           fill="currentColor"
           id="path302" />
      </g>
    </a>
  </g>
  <g
     color="#ff0000"
     id="g316"
     transform="translate(-2.9010828,-3.2781852)">
    <a
       style="color:inherit"
       xlink:href="textedit:///Users/tomsegarra/Documents/dev/dummies/lilypond_files/c5fb3b96b32170599c1100cdb6cd4971.ly:31:4:5"
       id="a314">
      <g
         transform="translate(62.105,5.4012)"
         id="g312">
        <path
           transform="scale(0.0034,-0.0034)"
           d="m 215,137 c 67,0 111,-37 111,-92 0,-90 -111,-182 -215,-182 -67,0 -111,37 -111,92 0,90 111,182 215,182 z"
           fill="currentColor"
           id="path310" />
      </g>
    </a>
  </g>
  <g
     color="#ff0000"
     id="g322"
     transform="translate(-2.9010828,-3.2781852)">
    <g
       transform="translate(62.1666,5.8262)"
       id="g320">
      <rect
         x="-0.061700001"
         y="-0.27250001"
         width="0.1233"
         height="2.8225"
         ry="0.039999999"
         fill="currentColor"
         id="rect318" />
    </g>
  </g>
  <g
     color="#ff0000"
     id="g328"
     transform="translate(-2.9010828,-3.2781852)">
    <g
       transform="translate(62.2283,8.3362)"
       id="g326">
      <path
         transform="scale(0.0034,-0.0034)"
         d="M 0,0 H -18 V 250 H 0 Z m 0,0 v 250 c 96,59 222,149 222,259 0,57 -15,111 -40,162 -3,17 10,29 24,29 8,0 16,-5 21,-13 25,-56 40,-116 40,-178 C 267,306 0,203 0,0 Z"
         fill="currentColor"
         id="path324" />
    </g>
  </g>
  <g
     color="#ff0000"
     id="g336"
     transform="translate(-2.9010828,-3.2781852)">
    <a
       style="color:inherit"
       xlink:href="textedit:///Users/tomsegarra/Documents/dev/dummies/lilypond_files/c5fb3b96b32170599c1100cdb6cd4971.ly:31:7:8"
       id="a334">
      <g
         transform="translate(64.0123,4.9762)"
         id="g332">
        <path
           transform="scale(0.0034,-0.0034)"
           d="m 215,137 c 67,0 111,-37 111,-92 0,-90 -111,-182 -215,-182 -67,0 -111,37 -111,92 0,90 111,182 215,182 z"
           fill="currentColor"
           id="path330" />
      </g>
    </a>
  </g>
  <g
     color="#ff0000"
     id="g342"
     transform="translate(-2.9010828,-3.2781852)">
    <g
       transform="translate(64.074,5.8262)"
       id="g340">
      <rect
         x="-0.061700001"
         y="-0.69749999"
         width="0.1233"
         height="2.5446"
         ry="0.039999999"
         fill="currentColor"
         id="rect338" />
    </g>
  </g>
  <g
     color="#ff0000"
     id="g350"
     transform="translate(-2.9010828,-3.2781852)">
    <a
       style="color:inherit"
       xlink:href="textedit:///Users/tomsegarra/Documents/dev/dummies/lilypond_files/c5fb3b96b32170599c1100cdb6cd4971.ly:31:9:10"
       id="a348">
      <g
         transform="translate(65.9197,4.5512)"
         id="g346">
        <path
           transform="scale(0.0034,-0.0034)"
           d="m 215,137 c 67,0 111,-37 111,-92 0,-90 -111,-182 -215,-182 -67,0 -111,37 -111,92 0,90 111,182 215,182 z"
           fill="currentColor"
           id="path344" />
      </g>
    </a>
  </g>
  <g
     color="#ff0000"
     id="g356"
     transform="translate(-2.9010828,-3.2781852)">
    <g
       transform="translate(65.9814,5.8262)"
       id="g354">
      <rect
         x="-0.061700001"
         y="-1.1224999"
         width="0.1233"
         height="2.6754999"
         ry="0.039999999"
         fill="currentColor"
         id="rect352" />
    </g>
  </g>
  <a
     style="color:inherit"
     xlink:href="textedit:///Users/tomsegarra/Documents/dev/dummies/lilypond_files/c5fb3b96b32170599c1100cdb6cd4971.ly:18:20:21"
     id="a364"
     transform="translate(-2.9010828,-3.2781852)">
    <g
       transform="translate(14.3723,4.9225)"
       id="g362">
      <text
         font-family="sans-serif"
         font-size="2.224px"
         text-anchor="start"
         fill="currentColor"
         id="text360"><tspan
           id="tspan358">E</tspan></text>
    </g>
  </a>
  <g
     color="#ff0000"
     id="g372"
     transform="translate(-2.9010828,-3.2781852)">
    <a
       style="color:inherit"
       xlink:href="textedit:///Users/tomsegarra/Documents/dev/dummies/lilypond_files/c5fb3b96b32170599c1100cdb6cd4971.ly:31:13:14"
       id="a370">
      <g
         transform="translate(67.8271,4.9762)"
         id="g368">
        <path
           transform="scale(0.0034,-0.0034)"
           d="m 215,137 c 67,0 111,-37 111,-92 0,-90 -111,-182 -215,-182 -67,0 -111,37 -111,92 0,90 111,182 215,182 z"
           fill="currentColor"
           id="path366" />
      </g>
    </a>
  </g>
  <g
     color="#ff0000"
     id="g378"
     transform="translate(-2.9010828,-3.2781852)">
    <g
       transform="translate(67.8888,5.8262)"
       id="g376">
      <rect
         x="-0.061700001"
         y="-0.69749999"
         width="0.1233"
         height="2.8225"
         ry="0.039999999"
         fill="currentColor"
         id="rect374" />
    </g>
  </g>
  <g
     color="#000000"
     id="g386"
     transform="translate(-2.9010828,-3.2781852)">
    <a
       style="color:inherit"
       xlink:href="textedit:///Users/tomsegarra/Documents/dev/dummies/lilypond_files/c5fb3b96b32170599c1100cdb6cd4971.ly:34:4:5"
       id="a384">
      <g
         transform="translate(71.6169,5.8262)"
         id="g382">
        <path
           transform="scale(0.0034,-0.0034)"
           d="m 215,137 c 67,0 111,-37 111,-92 0,-90 -111,-182 -215,-182 -67,0 -111,37 -111,92 0,90 111,182 215,182 z"
           fill="currentColor"
           id="path380" />
      </g>
    </a>
  </g>
  <g
     color="#000000"
     id="g392"
     transform="translate(-2.9010828,-3.2781852)">
    <g
       transform="translate(71.6785,5.8262)"
       id="g390">
      <rect
         x="-0.061700001"
         y="0.1525"
         width="0.1233"
         height="2.6809001"
         ry="0.039999999"
         fill="currentColor"
         id="rect388" />
    </g>
  </g>
</svg>
