<svg xmlns="http://www.w3.org/2000/svg" xmlns:xlink="http://www.w3.org/1999/xlink" version="1.2" width="211.77mm" height="297.00mm" viewBox="0 0 120.5061 169.0094">
<style type="text/css">
<![CDATA[
tspan { white-space: pre; }
]]>
</style>
<!-- Page: 1/1 -->
<g transform="translate(25.2434, 7.9725)">
<rect x="0.0000" y="-1.7000" width="0.1802" height="3.4000" ry="0.0000" fill="currentColor"/>
</g>
<g transform="translate(2.2762, 10.5225)">
<rect x="101.4400" y="-0.0899" width="1.6611" height="0.1799" ry="0.0899" fill="currentColor"/>
</g>
<g transform="translate(2.2762, 10.5225)">
<rect x="95.7415" y="-0.0899" width="1.6611" height="0.1799" ry="0.0899" fill="currentColor"/>
</g>
<g transform="translate(2.2762, 10.5225)">
<rect x="91.2822" y="-0.0899" width="1.6611" height="0.1799" ry="0.0899" fill="currentColor"/>
</g>
<g transform="translate(2.2762, 11.3725)">
<rect x="91.2822" y="-0.0899" width="1.6611" height="0.1799" ry="0.0899" fill="currentColor"/>
</g>
<g transform="translate(2.2762, 10.5225)">
<rect x="79.8081" y="-0.0899" width="1.6611" height="0.1799" ry="0.0899" fill="currentColor"/>
</g>
<g transform="translate(2.2762, 10.5225)">
<rect x="75.3488" y="-0.0899" width="1.6611" height="0.1799" ry="0.0899" fill="currentColor"/>
</g>
<g transform="translate(2.2762, 11.3725)">
<rect x="75.3488" y="-0.0899" width="1.6611" height="0.1799" ry="0.0899" fill="currentColor"/>
</g>
<g transform="translate(2.2762, 12.2225)">
<rect x="75.3488" y="-0.0899" width="1.6611" height="0.1799" ry="0.0899" fill="currentColor"/>
</g>
<g transform="translate(2.2762, 10.5225)">
<rect x="63.8747" y="-0.0899" width="1.6611" height="0.1799" ry="0.0899" fill="currentColor"/>
</g>
<g transform="translate(2.2762, 10.5225)">
<rect x="59.4154" y="-0.0899" width="1.6611" height="0.1799" ry="0.0899" fill="currentColor"/>
</g>
<g transform="translate(2.2762, 11.3725)">
<rect x="59.4154" y="-0.0899" width="1.6611" height="0.1799" ry="0.0899" fill="currentColor"/>
</g>
<g transform="translate(2.2762, 10.5225)">
<rect x="47.9413" y="-0.0899" width="1.6611" height="0.1799" ry="0.0899" fill="currentColor"/>
</g>
<g transform="translate(2.2762, 10.5225)">
<rect x="43.4820" y="-0.0899" width="1.6611" height="0.1799" ry="0.0899" fill="currentColor"/>
</g>
<g transform="translate(2.2762, 11.3725)">
<rect x="43.4820" y="-0.0899" width="1.6611" height="0.1799" ry="0.0899" fill="currentColor"/>
</g>
<g transform="translate(2.2762, 12.2225)">
<rect x="43.4820" y="-0.0899" width="1.6611" height="0.1799" ry="0.0899" fill="currentColor"/>
</g>
<g transform="translate(2.2762, 9.6725)">
<line stroke-linejoin="round" stroke-linecap="round" stroke-width="0.0949" stroke="currentColor" x1="0.0474" y1="0" x2="115.9536" y2="0"/>
</g>
<g transform="translate(2.2762, 8.8225)">
<line stroke-linejoin="round" stroke-linecap="round" stroke-width="0.0949" stroke="currentColor" x1="0.0474" y1="0" x2="115.9536" y2="0"/>
</g>
<g transform="translate(2.2762, 7.9725)">
<line stroke-linejoin="round" stroke-linecap="round" stroke-width="0.0949" stroke="currentColor" x1="0.0474" y1="0" x2="115.9536" y2="0"/>
</g>
<g transform="translate(2.2762, 7.1225)">
<line stroke-linejoin="round" stroke-linecap="round" stroke-width="0.0949" stroke="currentColor" x1="0.0474" y1="0" x2="115.9536" y2="0"/>
</g>
<g transform="translate(2.2762, 6.2725)">
<line stroke-linejoin="round" stroke-linecap="round" stroke-width="0.0949" stroke="currentColor" x1="0.0474" y1="0" x2="115.9536" y2="0"/>
</g>
<g transform="translate(114.6773, 7.9725)">
<rect x="0.0000" y="-1.7000" width="0.1802" height="3.4000" ry="0.0000" fill="currentColor"/>
</g>
<g transform="translate(101.2128, 7.9725)">
<rect x="0.0000" y="-1.7000" width="0.1802" height="3.4000" ry="0.0000" fill="currentColor"/>
</g>
<g transform="translate(87.1903, 7.9725)">
<rect x="0.0000" y="-1.7000" width="0.1802" height="3.4000" ry="0.0000" fill="currentColor"/>
</g>
<g transform="translate(71.2569, 7.9725)">
<rect x="0.0000" y="-1.7000" width="0.1802" height="3.4000" ry="0.0000" fill="currentColor"/>
</g>
<g transform="translate(55.3235, 7.9725)">
<rect x="0.0000" y="-1.7000" width="0.1802" height="3.4000" ry="0.0000" fill="currentColor"/>
</g>
<g transform="translate(40.9955, 7.9725)">
<rect x="0.0000" y="-1.7000" width="0.1802" height="3.4000" ry="0.0000" fill="currentColor"/>
</g>
<a style="color:inherit;" xlink:href="textedit:///Users/tomsegarra/Documents/dev/dummies/lilypond_files/c68201b05776427c56e6cde3ed652fc0.ly:19:12:13">
<g transform="translate(10.7144, 4.9225)">
<text font-family="sans-serif" font-size="2.2240" text-anchor="start" fill="currentColor">
<tspan>A</tspan>
</text>
</g>
<g transform="translate(12.2508, 4.9225)">
<text font-family="sans-serif" font-size="2.2240" text-anchor="start" fill="currentColor">
<tspan>m</tspan>
</text>
</g>
</a>
<a style="color:inherit;" xlink:href="textedit:///Users/tomsegarra/Documents/dev/dummies/lilypond_files/c68201b05776427c56e6cde3ed652fc0.ly:23:4:5">
<g transform="translate(10.7144, 8.3975)">
<path transform="scale(0.0034, -0.0034)" d="M215 137c67 0 111 -37 111 -92c0 -90 -111 -182 -215 -182c-67 0 -111 37 -111 92c0 90 111 182 215 182z" fill="currentColor"/>
</g>
</a>
<g transform="translate(3.0762, 8.8225)">
<path transform="scale(0.0034, -0.0034)" d="M646 2c0 -113 -74 -213 -180 -247c3 -34 5 -68 5 -102c0 -20 -1 -40 -2 -60c-7 -121 -91 -228 -209 -228c-108 0 -196 87 -196 196c0 58 53 104 112 104c54 0 95 -48 95 -104c0 -52 -43 -95 -95 -95c-10 0 -20 2 -29 6c26 -38 68 -63 116 -63h3c93 2 153 92 159 190
c1 19 2 37 2 56c0 30 -2 60 -4 90c-5 -1 -43 -8 -88 -8c-194 0 -333 180 -333 375c0 177 130 307 246 442c-31 98 -53 170 -53 347c0 115 55 223 148 290c7 5 16 4 22 -1c68 -80 134 -243 134 -357c0 -143 -85 -255 -178 -364c21 -68 40 -137 57 -206c1 0 5 1 11 1
c156 0 257 -129 257 -262zM462 -202c66 24 111 88 111 162c0 89 -65 178 -170 190c28 -135 50 -272 59 -352zM75 26c0 -145 141 -245 263 -245c1 0 46 0 81 6c-7 65 -27 206 -61 363c-79 -8 -124 -61 -124 -119c0 -43 25 -89 80 -121c5 -5 7 -11 7 -16
c0 -12 -10 -23 -22 -23c-16 0 -127 63 -127 188c0 89 58 175 161 198c-14 58 -29 116 -46 173c-106 -122 -212 -244 -212 -404zM406 1042c-99 -47 -162 -148 -162 -257c0 -49 13 -111 38 -191c79 97 144 199 144 324c0 33 0 63 -20 124z" fill="currentColor"/>
</g>
<a style="color:inherit;" xlink:href="textedit:///Users/tomsegarra/Documents/dev/dummies/lilypond_files/c68201b05776427c56e6cde3ed652fc0.ly:22:1:9">
</a>
<g transform="translate(7.2762, 7.9725)">
<path transform="scale(0.0034, -0.0034)" d="M358 29c-30 0 -74 23 -74 73c0 38 27 76 71 76c4 0 7 0 11 -1c-27 36 -69 59 -116 59c-106 0 -113 -74 -113 -188c0 -15 1 -31 1 -48s-1 -33 -1 -48c0 -114 7 -188 113 -188c79 0 136 70 155 150c2 7 7 10 13 10c7 0 14 -5 14 -13c0 -21 -50 -175 -182 -175
c-59 0 -250 20 -250 264c0 63 18 264 250 264c115 0 174 -109 174 -165c0 -39 -30 -70 -66 -70z" fill="currentColor"/>
</g>
<g transform="translate(12.2009, 8.3975)">
<path transform="scale(0.0034, -0.0034)" d="M0 0c0 31 25 56 56 56s55 -25 55 -56s-24 -56 -55 -56s-56 25 -56 56z" fill="currentColor"/>
</g>
<g transform="translate(11.7601, 7.9725)">
<rect x="-0.0617" y="-2.5500" width="0.1233" height="2.8225" ry="0.0400" fill="currentColor"/>
</g>
<g color="black">
<g transform="translate(33.1365, 7.9725)">
<rect x="-0.0617" y="-0.6975" width="0.1233" height="2.5462" ry="0.0400" fill="currentColor"/>
</g>
</g>
<g color="red">
<g transform="translate(17.3227, 9.8291)">
<polygon stroke-linejoin="round" stroke-linecap="round" stroke-width="0.0800" fill="currentColor" stroke="currentColor" points="2.3907 -0.4771 2.3907 -0.1491 0.0400 0.1640 0.0400 -0.1640"/>
</g>
</g>
<g color="black">
<a style="color:inherit;" xlink:href="textedit:///Users/tomsegarra/Documents/dev/dummies/lilypond_files/c68201b05776427c56e6cde3ed652fc0.ly:31:15:16">
<g transform="translate(35.3822, 6.6975)">
<path transform="scale(0.0034, -0.0034)" d="M215 137c67 0 111 -37 111 -92c0 -90 -111 -182 -215 -182c-67 0 -111 37 -111 92c0 90 111 182 215 182z" fill="currentColor"/>
</g>
</a>
</g>
<g color="black">
<g transform="translate(35.4439, 7.9725)">
<rect x="-0.0617" y="-1.1225" width="0.1233" height="2.6739" ry="0.0400" fill="currentColor"/>
</g>
</g>
<g color="black">
<g transform="translate(33.0748, 9.8291)">
<polygon stroke-linejoin="round" stroke-linecap="round" stroke-width="0.0800" fill="currentColor" stroke="currentColor" points="2.3907 -0.4771 2.3907 -0.1491 0.0400 0.1640 0.0400 -0.1640"/>
</g>
</g>
<g color="black">
<a style="color:inherit;" xlink:href="textedit:///Users/tomsegarra/Documents/dev/dummies/lilypond_files/c68201b05776427c56e6cde3ed652fc0.ly:31:19:20">
<g transform="translate(37.6896, 7.1225)">
<path transform="scale(0.0034, -0.0034)" d="M215 137c67 0 111 -37 111 -92c0 -90 -111 -182 -215 -182c-67 0 -111 37 -111 92c0 90 111 182 215 182z" fill="currentColor"/>
</g>
</a>
</g>
<g color="black">
<g transform="translate(37.7512, 7.9725)">
<rect x="-0.0617" y="-0.6975" width="0.1233" height="2.8225" ry="0.0400" fill="currentColor"/>
</g>
</g>
<g color="red">
<g transform="translate(51.4785, 7.9725)">
<polygon stroke-linejoin="round" stroke-linecap="round" stroke-width="0.0800" fill="currentColor" stroke="currentColor" points="2.3907 -0.3206 2.3907 0.0074 0.0400 0.1640 0.0400 -0.1640"/>
</g>
</g>
<g color="red">
<g transform="translate(67.4119, 7.9725)">
<polygon stroke-linejoin="round" stroke-linecap="round" stroke-width="0.0800" fill="currentColor" stroke="currentColor" points="2.3907 -0.3206 2.3907 0.0074 0.0400 0.1640 0.0400 -0.1640"/>
</g>
</g>
<a style="color:inherit;" xlink:href="textedit:///Users/tomsegarra/Documents/dev/dummies/lilypond_files/c68201b05776427c56e6cde3ed652fc0.ly:19:19:20">
<g transform="translate(42.0757, 4.9225)">
<text font-family="sans-serif" font-size="2.2240" text-anchor="start" fill="currentColor">
<tspan>C</tspan>
</text>
</g>
</a>
<g color="black">
<a style="color:inherit;" xlink:href="textedit:///Users/tomsegarra/Documents/dev/dummies/lilypond_files/c68201b05776427c56e6cde3ed652fc0.ly:31:24:25">
<g transform="translate(42.0757, 8.8225)">
<path transform="scale(0.0034, -0.0034)" d="M215 137c67 0 111 -37 111 -92c0 -90 -111 -182 -215 -182c-67 0 -111 37 -111 92c0 90 111 182 215 182z" fill="currentColor"/>
</g>
</a>
</g>
<g transform="translate(43.5622, 8.3975)">
<path transform="scale(0.0034, -0.0034)" d="M0 0c0 31 25 56 56 56s55 -25 55 -56s-24 -56 -55 -56s-56 25 -56 56z" fill="currentColor"/>
</g>
<g color="black">
<g transform="translate(43.1215, 7.9725)">
<rect x="-0.0617" y="-2.1250" width="0.1233" height="2.8225" ry="0.0400" fill="currentColor"/>
</g>
</g>
<g color="black">
<g transform="translate(83.3453, 7.9725)">
<polygon stroke-linejoin="round" stroke-linecap="round" stroke-width="0.0800" fill="currentColor" stroke="currentColor" points="2.3907 -0.3206 2.3907 0.0074 0.0400 0.1640 0.0400 -0.1640"/>
</g>
</g>
<g color="black">
<a style="color:inherit;" xlink:href="textedit:///Users/tomsegarra/Documents/dev/dummies/lilypond_files/c68201b05776427c56e6cde3ed652fc0.ly:31:13:14">
<g transform="translate(33.0748, 7.1225)">
<path transform="scale(0.0034, -0.0034)" d="M215 137c67 0 111 -37 111 -92c0 -90 -111 -182 -215 -182c-67 0 -111 37 -111 92c0 90 111 182 215 182z" fill="currentColor"/>
</g>
</a>
</g>
<g color="red">
<a style="color:inherit;" xlink:href="textedit:///Users/tomsegarra/Documents/dev/dummies/lilypond_files/c68201b05776427c56e6cde3ed652fc0.ly:35:4:5">
<g transform="translate(46.0351, 12.2225)">
<path transform="scale(0.0034, -0.0034)" d="M215 137c67 0 111 -37 111 -92c0 -90 -111 -182 -215 -182c-67 0 -111 37 -111 92c0 90 111 182 215 182z" fill="currentColor"/>
</g>
</a>
</g>
<g transform="translate(47.5215, 11.7975)">
<path transform="scale(0.0034, -0.0034)" d="M0 0c0 31 25 56 56 56s55 -25 55 -56s-24 -56 -55 -56s-56 25 -56 56z" fill="currentColor"/>
</g>
<g color="red">
<g transform="translate(47.0808, 7.9725)">
<rect x="-0.0617" y="-0.0000" width="0.1233" height="4.0975" ry="0.0400" fill="currentColor"/>
</g>
</g>
<g color="red">
<a style="color:inherit;" xlink:href="textedit:///Users/tomsegarra/Documents/dev/dummies/lilypond_files/c68201b05776427c56e6cde3ed652fc0.ly:35:9:10">
<g transform="translate(50.4944, 10.5225)">
<path transform="scale(0.0034, -0.0034)" d="M215 137c67 0 111 -37 111 -92c0 -90 -111 -182 -215 -182c-67 0 -111 37 -111 92c0 90 111 182 215 182z" fill="currentColor"/>
</g>
</a>
</g>
<g color="red">
<g transform="translate(51.5401, 7.9725)">
<rect x="-0.0617" y="-0.0040" width="0.1233" height="2.4015" ry="0.0400" fill="currentColor"/>
</g>
</g>
<g color="red">
<a style="color:inherit;" xlink:href="textedit:///Users/tomsegarra/Documents/dev/dummies/lilypond_files/c68201b05776427c56e6cde3ed652fc0.ly:35:13:14">
<g transform="translate(52.8018, 10.0975)">
<path transform="scale(0.0034, -0.0034)" d="M215 137c67 0 111 -37 111 -92c0 -90 -111 -182 -215 -182c-67 0 -111 37 -111 92c0 90 111 182 215 182z" fill="currentColor"/>
</g>
</a>
</g>
<g color="red">
<g transform="translate(53.8475, 7.9725)">
<rect x="-0.0617" y="-0.1526" width="0.1233" height="2.1251" ry="0.0400" fill="currentColor"/>
</g>
</g>
<g color="black">
<g transform="translate(30.8908, 10.4825)">
<path transform="scale(0.0034, -0.0034)" d="M0 0h-18v250h18v-250zM0 0v250c96 59 222 149 222 259c0 57 -15 111 -40 162c-3 17 10 29 24 29c8 0 16 -5 21 -13c25 -56 40 -116 40 -178c0 -203 -267 -306 -267 -509z" fill="currentColor"/>
</g>
</g>
<g color="black">
<g transform="translate(30.8291, 7.9725)">
<rect x="-0.0617" y="-0.2725" width="0.1233" height="2.8225" ry="0.0400" fill="currentColor"/>
</g>
</g>
<a style="color:inherit;" xlink:href="textedit:///Users/tomsegarra/Documents/dev/dummies/lilypond_files/c68201b05776427c56e6cde3ed652fc0.ly:19:21:22">
<g transform="translate(56.4037, 4.9225)">
<text font-family="sans-serif" font-size="2.2240" text-anchor="start" fill="currentColor">
<tspan>G</tspan>
</text>
</g>
</a>
<g color="red">
<a style="color:inherit;" xlink:href="textedit:///Users/tomsegarra/Documents/dev/dummies/lilypond_files/c68201b05776427c56e6cde3ed652fc0.ly:35:15:16">
<g transform="translate(56.4037, 9.6725)">
<path transform="scale(0.0034, -0.0034)" d="M215 137c67 0 111 -37 111 -92c0 -90 -111 -182 -215 -182c-67 0 -111 37 -111 92c0 90 111 182 215 182z" fill="currentColor"/>
</g>
</a>
</g>
<g color="red">
<g transform="translate(57.4494, 7.9725)">
<rect x="-0.0617" y="-1.2750" width="0.1233" height="2.8225" ry="0.0400" fill="currentColor"/>
</g>
</g>
<g color="red">
<g transform="translate(57.5111, 6.7375)">
<path transform="scale(0.0034, -0.0034)" d="M0 0c0 -197 207 -335 207 -532c0 -71 -15 -141 -41 -207c-5 -8 -13 -12 -21 -12c-14 0 -27 11 -24 28c26 60 42 125 42 191c0 103 -93 207 -163 282h-18v250h18z" fill="currentColor"/>
</g>
</g>
<g color="black">
<a style="color:inherit;" xlink:href="textedit:///Users/tomsegarra/Documents/dev/dummies/lilypond_files/c68201b05776427c56e6cde3ed652fc0.ly:31:9:10">
<g transform="translate(30.7674, 7.5475)">
<path transform="scale(0.0034, -0.0034)" d="M215 137c67 0 111 -37 111 -92c0 -90 -111 -182 -215 -182c-67 0 -111 37 -111 92c0 90 111 182 215 182z" fill="currentColor"/>
</g>
</a>
</g>
<g color="red">
<a style="color:inherit;" xlink:href="textedit:///Users/tomsegarra/Documents/dev/dummies/lilypond_files/c68201b05776427c56e6cde3ed652fc0.ly:35:19:20">
<g transform="translate(58.7111, 10.0975)">
<path transform="scale(0.0034, -0.0034)" d="M215 137c67 0 111 -37 111 -92c0 -90 -111 -182 -215 -182c-67 0 -111 37 -111 92c0 90 111 182 215 182z" fill="currentColor"/>
</g>
</a>
</g>
<g color="red">
<g transform="translate(59.7568, 7.9725)">
<rect x="-0.0617" y="-0.8500" width="0.1233" height="2.8225" ry="0.0400" fill="currentColor"/>
</g>
</g>
<g color="red">
<a style="color:inherit;" xlink:href="textedit:///Users/tomsegarra/Documents/dev/dummies/lilypond_files/c68201b05776427c56e6cde3ed652fc0.ly:35:24:25">
<g transform="translate(61.9685, 11.7975)">
<path transform="scale(0.0034, -0.0034)" d="M215 137c67 0 111 -37 111 -92c0 -90 -111 -182 -215 -182c-67 0 -111 37 -111 92c0 90 111 182 215 182z" fill="currentColor"/>
</g>
</a>
</g>
<g transform="translate(63.4549, 11.7975)">
<path transform="scale(0.0034, -0.0034)" d="M0 0c0 31 25 56 56 56s55 -25 55 -56s-24 -56 -55 -56s-56 25 -56 56z" fill="currentColor"/>
</g>
<g color="red">
<g transform="translate(63.0142, 7.9725)">
<rect x="-0.0617" y="-0.0000" width="0.1233" height="3.6725" ry="0.0400" fill="currentColor"/>
</g>
</g>
<g color="red">
<a style="color:inherit;" xlink:href="textedit:///Users/tomsegarra/Documents/dev/dummies/lilypond_files/c68201b05776427c56e6cde3ed652fc0.ly:36:4:5">
<g transform="translate(66.4278, 10.5225)">
<path transform="scale(0.0034, -0.0034)" d="M215 137c67 0 111 -37 111 -92c0 -90 -111 -182 -215 -182c-67 0 -111 37 -111 92c0 90 111 182 215 182z" fill="currentColor"/>
</g>
</a>
</g>
<g color="red">
<g transform="translate(67.4735, 7.9725)">
<rect x="-0.0617" y="-0.0040" width="0.1233" height="2.4015" ry="0.0400" fill="currentColor"/>
</g>
</g>
<g color="red">
<a style="color:inherit;" xlink:href="textedit:///Users/tomsegarra/Documents/dev/dummies/lilypond_files/c68201b05776427c56e6cde3ed652fc0.ly:36:7:8">
<g transform="translate(68.7352, 10.0975)">
<path transform="scale(0.0034, -0.0034)" d="M215 137c67 0 111 -37 111 -92c0 -90 -111 -182 -215 -182c-67 0 -111 37 -111 92c0 90 111 182 215 182z" fill="currentColor"/>
</g>
</a>
</g>
<g color="red">
<g transform="translate(69.7809, 7.9725)">
<rect x="-0.0617" y="-0.1526" width="0.1233" height="2.1251" ry="0.0400" fill="currentColor"/>
</g>
</g>
<g color="red">
<a style="color:inherit;" xlink:href="textedit:///Users/tomsegarra/Documents/dev/dummies/lilypond_files/c68201b05776427c56e6cde3ed652fc0.ly:36:9:10">
<g transform="translate(72.3371, 9.6725)">
<path transform="scale(0.0034, -0.0034)" d="M215 137c67 0 111 -37 111 -92c0 -90 -111 -182 -215 -182c-67 0 -111 37 -111 92c0 90 111 182 215 182z" fill="currentColor"/>
</g>
</a>
</g>
<g color="red">
<g transform="translate(73.3828, 7.9725)">
<rect x="-0.0617" y="-1.2750" width="0.1233" height="2.8225" ry="0.0400" fill="currentColor"/>
</g>
</g>
<g color="red">
<g transform="translate(73.4445, 6.7375)">
<path transform="scale(0.0034, -0.0034)" d="M0 0c0 -197 207 -335 207 -532c0 -71 -15 -141 -41 -207c-5 -8 -13 -12 -21 -12c-14 0 -27 11 -24 28c26 60 42 125 42 191c0 103 -93 207 -163 282h-18v250h18z" fill="currentColor"/>
</g>
</g>
<g color="red">
<a style="color:inherit;" xlink:href="textedit:///Users/tomsegarra/Documents/dev/dummies/lilypond_files/c68201b05776427c56e6cde3ed652fc0.ly:36:13:14">
<g transform="translate(74.6445, 10.0975)">
<path transform="scale(0.0034, -0.0034)" d="M215 137c67 0 111 -37 111 -92c0 -90 -111 -182 -215 -182c-67 0 -111 37 -111 92c0 90 111 182 215 182z" fill="currentColor"/>
</g>
</a>
</g>
<g color="red">
<g transform="translate(75.6902, 7.9725)">
<rect x="-0.0617" y="-0.8500" width="0.1233" height="2.8225" ry="0.0400" fill="currentColor"/>
</g>
</g>
<g color="black">
<a style="color:inherit;" xlink:href="textedit:///Users/tomsegarra/Documents/dev/dummies/lilypond_files/c68201b05776427c56e6cde3ed652fc0.ly:40:4:5">
<g transform="translate(77.9019, 12.2225)">
<path transform="scale(0.0034, -0.0034)" d="M215 137c67 0 111 -37 111 -92c0 -90 -111 -182 -215 -182c-67 0 -111 37 -111 92c0 90 111 182 215 182z" fill="currentColor"/>
</g>
</a>
</g>
<g transform="translate(79.3883, 11.7975)">
<path transform="scale(0.0034, -0.0034)" d="M0 0c0 31 25 56 56 56s55 -25 55 -56s-24 -56 -55 -56s-56 25 -56 56z" fill="currentColor"/>
</g>
<g color="black">
<g transform="translate(78.9476, 7.9725)">
<rect x="-0.0617" y="-0.0000" width="0.1233" height="4.0975" ry="0.0400" fill="currentColor"/>
</g>
</g>
<g color="black">
<a style="color:inherit;" xlink:href="textedit:///Users/tomsegarra/Documents/dev/dummies/lilypond_files/c68201b05776427c56e6cde3ed652fc0.ly:40:9:10">
<g transform="translate(82.3612, 10.5225)">
<path transform="scale(0.0034, -0.0034)" d="M215 137c67 0 111 -37 111 -92c0 -90 -111 -182 -215 -182c-67 0 -111 37 -111 92c0 90 111 182 215 182z" fill="currentColor"/>
</g>
</a>
</g>
<g color="black">
<g transform="translate(83.4069, 7.9725)">
<rect x="-0.0617" y="-0.0040" width="0.1233" height="2.4015" ry="0.0400" fill="currentColor"/>
</g>
</g>
<g color="black">
<a style="color:inherit;" xlink:href="textedit:///Users/tomsegarra/Documents/dev/dummies/lilypond_files/c68201b05776427c56e6cde3ed652fc0.ly:40:13:14">
<g transform="translate(84.6686, 10.0975)">
<path transform="scale(0.0034, -0.0034)" d="M215 137c67 0 111 -37 111 -92c0 -90 -111 -182 -215 -182c-67 0 -111 37 -111 92c0 90 111 182 215 182z" fill="currentColor"/>
</g>
</a>
</g>
<g color="black">
<g transform="translate(85.7143, 7.9725)">
<rect x="-0.0617" y="-0.1526" width="0.1233" height="2.1251" ry="0.0400" fill="currentColor"/>
</g>
</g>
<g color="black">
<a style="color:inherit;" xlink:href="textedit:///Users/tomsegarra/Documents/dev/dummies/lilypond_files/c68201b05776427c56e6cde3ed652fc0.ly:40:15:16">
<g transform="translate(88.2705, 9.6725)">
<path transform="scale(0.0034, -0.0034)" d="M215 137c67 0 111 -37 111 -92c0 -90 -111 -182 -215 -182c-67 0 -111 37 -111 92c0 90 111 182 215 182z" fill="currentColor"/>
</g>
</a>
</g>
<g color="black">
<g transform="translate(89.3162, 7.9725)">
<rect x="-0.0617" y="-1.2750" width="0.1233" height="2.8225" ry="0.0400" fill="currentColor"/>
</g>
</g>
<g color="black">
<g transform="translate(89.3779, 6.7375)">
<path transform="scale(0.0034, -0.0034)" d="M0 0c0 -197 207 -335 207 -532c0 -71 -15 -141 -41 -207c-5 -8 -13 -12 -21 -12c-14 0 -27 11 -24 28c26 60 42 125 42 191c0 103 -93 207 -163 282h-18v250h18z" fill="currentColor"/>
</g>
</g>
<g color="black">
<a style="color:inherit;" xlink:href="textedit:///Users/tomsegarra/Documents/dev/dummies/lilypond_files/c68201b05776427c56e6cde3ed652fc0.ly:40:19:20">
<g transform="translate(90.5779, 10.0975)">
<path transform="scale(0.0034, -0.0034)" d="M215 137c67 0 111 -37 111 -92c0 -90 -111 -182 -215 -182c-67 0 -111 37 -111 92c0 90 111 182 215 182z" fill="currentColor"/>
</g>
</a>
</g>
<g color="black">
<g transform="translate(91.6236, 7.9725)">
<rect x="-0.0617" y="-0.8500" width="0.1233" height="2.8225" ry="0.0400" fill="currentColor"/>
</g>
</g>
<g color="black">
<a style="color:inherit;" xlink:href="textedit:///Users/tomsegarra/Documents/dev/dummies/lilypond_files/c68201b05776427c56e6cde3ed652fc0.ly:40:24:25">
<g transform="translate(93.8353, 11.7975)">
<path transform="scale(0.0034, -0.0034)" d="M215 137c67 0 111 -37 111 -92c0 -90 -111 -182 -215 -182c-67 0 -111 37 -111 92c0 90 111 182 215 182z" fill="currentColor"/>
</g>
</a>
</g>
<g transform="translate(95.3217, 11.7975)">
<path transform="scale(0.0034, -0.0034)" d="M0 0c0 31 25 56 56 56s55 -25 55 -56s-24 -56 -55 -56s-56 25 -56 56z" fill="currentColor"/>
</g>
<g color="black">
<g transform="translate(94.8810, 7.9725)">
<rect x="-0.0617" y="-0.0000" width="0.1233" height="3.6725" ry="0.0400" fill="currentColor"/>
</g>
</g>
<g color="black">
<a style="color:inherit;" xlink:href="textedit:///Users/tomsegarra/Documents/dev/dummies/lilypond_files/c68201b05776427c56e6cde3ed652fc0.ly:41:4:5">
<g transform="translate(98.2946, 10.9475)">
<path transform="scale(0.0034, -0.0034)" d="M215 137c67 0 111 -37 111 -92c0 -90 -111 -182 -215 -182c-67 0 -111 37 -111 92c0 90 111 182 215 182z" fill="currentColor"/>
</g>
</a>
</g>
<g transform="translate(99.7811, 10.9475)">
<path transform="scale(0.0034, -0.0034)" d="M0 0c0 31 25 56 56 56s55 -25 55 -56s-24 -56 -55 -56s-56 25 -56 56z" fill="currentColor"/>
</g>
<g color="black">
<g transform="translate(99.3403, 7.9725)">
<rect x="-0.0617" y="-0.0000" width="0.1233" height="2.8225" ry="0.0400" fill="currentColor"/>
</g>
</g>
<g color="black">
<g transform="translate(27.3694, 7.9725)">
<rect x="-0.0617" y="-1.7000" width="0.1233" height="2.8225" ry="0.0400" fill="currentColor"/>
</g>
</g>
<g transform="translate(27.8101, 9.2475)">
<path transform="scale(0.0034, -0.0034)" d="M0 0c0 31 25 56 56 56s55 -25 55 -56s-24 -56 -55 -56s-56 25 -56 56z" fill="currentColor"/>
</g>
<g color="black">
<a style="color:inherit;" xlink:href="textedit:///Users/tomsegarra/Documents/dev/dummies/lilypond_files/c68201b05776427c56e6cde3ed652fc0.ly:41:8:9">
<g transform="translate(103.9930, 10.5225)">
<path transform="scale(0.0034, -0.0034)" d="M215 137c67 0 111 -37 111 -92c0 -90 -111 -182 -215 -182c-67 0 -111 37 -111 92c0 90 111 182 215 182z" fill="currentColor"/>
</g>
</a>
</g>
<g transform="translate(105.4795, 10.0975)">
<path transform="scale(0.0034, -0.0034)" d="M0 0c0 31 25 56 56 56s55 -25 55 -56s-24 -56 -55 -56s-56 25 -56 56z" fill="currentColor"/>
</g>
<g color="black">
<g transform="translate(105.0388, 7.9725)">
<rect x="-0.0617" y="-0.4250" width="0.1233" height="2.8225" ry="0.0400" fill="currentColor"/>
</g>
</g>
<g color="black">
<a style="color:inherit;" xlink:href="textedit:///Users/tomsegarra/Documents/dev/dummies/lilypond_files/c68201b05776427c56e6cde3ed652fc0.ly:41:10:11">
<g transform="translate(108.2024, 10.0975)">
<path transform="scale(0.0034, -0.0034)" d="M215 137c67 0 111 -37 111 -92c0 -90 -111 -182 -215 -182c-67 0 -111 37 -111 92c0 90 111 182 215 182z" fill="currentColor"/>
</g>
</a>
</g>
<g transform="translate(109.6888, 10.0975)">
<path transform="scale(0.0034, -0.0034)" d="M0 0c0 31 25 56 56 56s55 -25 55 -56s-24 -56 -55 -56s-56 25 -56 56z" fill="currentColor"/>
</g>
<g color="black">
<g transform="translate(109.2481, 7.9725)">
<rect x="-0.0617" y="-0.8500" width="0.1233" height="2.8225" ry="0.0400" fill="currentColor"/>
</g>
</g>
<g color="black">
<a style="color:inherit;" xlink:href="textedit:///Users/tomsegarra/Documents/dev/dummies/lilypond_files/c68201b05776427c56e6cde3ed652fc0.ly:31:4:5">
<g transform="translate(26.3236, 9.2475)">
<path transform="scale(0.0034, -0.0034)" d="M215 137c67 0 111 -37 111 -92c0 -90 -111 -182 -215 -182c-67 0 -111 37 -111 92c0 90 111 182 215 182z" fill="currentColor"/>
</g>
</a>
</g>
<g color="black">
<a style="color:inherit;" xlink:href="textedit:///Users/tomsegarra/Documents/dev/dummies/lilypond_files/c68201b05776427c56e6cde3ed652fc0.ly:41:12:13">
<g transform="translate(112.4117, 9.6725)">
<path transform="scale(0.0034, -0.0034)" d="M215 137c67 0 111 -37 111 -92c0 -90 -111 -182 -215 -182c-67 0 -111 37 -111 92c0 90 111 182 215 182z" fill="currentColor"/>
</g>
</a>
</g>
<g transform="translate(113.8982, 9.2475)">
<path transform="scale(0.0034, -0.0034)" d="M0 0c0 31 25 56 56 56s55 -25 55 -56s-24 -56 -55 -56s-56 25 -56 56z" fill="currentColor"/>
</g>
<g color="black">
<g transform="translate(113.4574, 7.9725)">
<rect x="-0.0617" y="-1.2750" width="0.1233" height="2.8225" ry="0.0400" fill="currentColor"/>
</g>
</g>
<a style="color:inherit;" xlink:href="textedit:///Users/tomsegarra/Documents/dev/dummies/lilypond_files/c68201b05776427c56e6cde3ed652fc0.ly:19:17:18">
<g transform="translate(26.3236, 4.9225)">
<text font-family="sans-serif" font-size="2.2240" text-anchor="start" fill="currentColor">
<tspan>F</tspan>
</text>
</g>
</a>
<g color="red">
<a style="color:inherit;" xlink:href="textedit:///Users/tomsegarra/Documents/dev/dummies/lilypond_files/c68201b05776427c56e6cde3ed652fc0.ly:27:4:5">
<g transform="translate(15.0153, 7.5475)">
<path transform="scale(0.0034, -0.0034)" d="M215 137c67 0 111 -37 111 -92c0 -90 -111 -182 -215 -182c-67 0 -111 37 -111 92c0 90 111 182 215 182z" fill="currentColor"/>
</g>
</a>
</g>
<g color="red">
<g transform="translate(15.0770, 7.9725)">
<rect x="-0.0617" y="-0.2725" width="0.1233" height="2.8225" ry="0.0400" fill="currentColor"/>
</g>
</g>
<g color="red">
<g transform="translate(15.1386, 10.4825)">
<path transform="scale(0.0034, -0.0034)" d="M0 0h-18v250h18v-250zM0 0v250c96 59 222 149 222 259c0 57 -15 111 -40 162c-3 17 10 29 24 29c8 0 16 -5 21 -13c25 -56 40 -116 40 -178c0 -203 -267 -306 -267 -509z" fill="currentColor"/>
</g>
</g>
<g color="red">
<a style="color:inherit;" xlink:href="textedit:///Users/tomsegarra/Documents/dev/dummies/lilypond_files/c68201b05776427c56e6cde3ed652fc0.ly:27:7:8">
<g transform="translate(17.3227, 7.1225)">
<path transform="scale(0.0034, -0.0034)" d="M215 137c67 0 111 -37 111 -92c0 -90 -111 -182 -215 -182c-67 0 -111 37 -111 92c0 90 111 182 215 182z" fill="currentColor"/>
</g>
</a>
</g>
<g color="red">
<g transform="translate(17.3844, 7.9725)">
<rect x="-0.0617" y="-0.6975" width="0.1233" height="2.5462" ry="0.0400" fill="currentColor"/>
</g>
</g>
<g color="red">
<g transform="translate(21.9991, 7.9725)">
<rect x="-0.0617" y="-0.6975" width="0.1233" height="2.8225" ry="0.0400" fill="currentColor"/>
</g>
</g>
<g color="red">
<a style="color:inherit;" xlink:href="textedit:///Users/tomsegarra/Documents/dev/dummies/lilypond_files/c68201b05776427c56e6cde3ed652fc0.ly:27:9:10">
<g transform="translate(19.6301, 6.6975)">
<path transform="scale(0.0034, -0.0034)" d="M215 137c67 0 111 -37 111 -92c0 -90 -111 -182 -215 -182c-67 0 -111 37 -111 92c0 90 111 182 215 182z" fill="currentColor"/>
</g>
</a>
</g>
<g color="red">
<g transform="translate(19.6918, 7.9725)">
<rect x="-0.0617" y="-1.1225" width="0.1233" height="2.6739" ry="0.0400" fill="currentColor"/>
</g>
</g>
<g color="red">
<a style="color:inherit;" xlink:href="textedit:///Users/tomsegarra/Documents/dev/dummies/lilypond_files/c68201b05776427c56e6cde3ed652fc0.ly:27:13:14">
<g transform="translate(21.9375, 7.1225)">
<path transform="scale(0.0034, -0.0034)" d="M215 137c67 0 111 -37 111 -92c0 -90 -111 -182 -215 -182c-67 0 -111 37 -111 92c0 90 111 182 215 182z" fill="currentColor"/>
</g>
</a>
</g>
</svg>
