<?xml version="1.0" encoding="UTF-8" standalone="no"?>
<svg
   version="1.2"
   width="203.84857mm"
   height="16.539837mm"
   viewBox="0 0 115.99847 9.4120805"
   id="svg694"
   sodipodi:docname="c68201b05776427c56e6cde3ed652fc0.svg"
   xmlns:inkscape="http://www.inkscape.org/namespaces/inkscape"
   xmlns:sodipodi="http://sodipodi.sourceforge.net/DTD/sodipodi-0.dtd"
   xmlns:xlink="http://www.w3.org/1999/xlink"
   xmlns="http://www.w3.org/2000/svg"
   xmlns:svg="http://www.w3.org/2000/svg">
  <defs
     id="defs698" />
  <sodipodi:namedview
     id="namedview696"
     pagecolor="#ffffff"
     bordercolor="#000000"
     borderopacity="0.25"
     inkscape:showpageshadow="2"
     inkscape:pageopacity="0.0"
     inkscape:pagecheckerboard="0"
     inkscape:deskcolor="#d1d1d1"
     inkscape:document-units="mm" />
  <style
     type="text/css"
     id="style2"><![CDATA[
tspan { white-space: pre; }
]]></style>
  <!-- Page: 1/1 -->
  <g
     transform="translate(22.965885,4.6962812)"
     id="g6">
    <rect
       x="0"
       y="-1.7"
       width="0.1802"
       height="3.4000001"
       ry="0.0000"
       fill="currentColor"
       id="rect4" />
  </g>
  <g
     transform="translate(-0.00131452,7.2462812)"
     id="g10">
    <rect
       x="101.44"
       y="-0.089900002"
       width="1.6611"
       height="0.17990001"
       ry="0.089900002"
       fill="currentColor"
       id="rect8" />
  </g>
  <g
     transform="translate(-0.00131452,7.2462812)"
     id="g14">
    <rect
       x="95.741501"
       y="-0.089900002"
       width="1.6611"
       height="0.17990001"
       ry="0.089900002"
       fill="currentColor"
       id="rect12" />
  </g>
  <g
     transform="translate(-0.00131452,7.2462812)"
     id="g18">
    <rect
       x="91.282204"
       y="-0.089900002"
       width="1.6611"
       height="0.17990001"
       ry="0.089900002"
       fill="currentColor"
       id="rect16" />
  </g>
  <g
     transform="translate(-0.00131452,8.0962812)"
     id="g22">
    <rect
       x="91.282204"
       y="-0.089900002"
       width="1.6611"
       height="0.17990001"
       ry="0.089900002"
       fill="currentColor"
       id="rect20" />
  </g>
  <g
     transform="translate(-0.00131452,7.2462812)"
     id="g26">
    <rect
       x="79.808098"
       y="-0.089900002"
       width="1.6611"
       height="0.17990001"
       ry="0.089900002"
       fill="currentColor"
       id="rect24" />
  </g>
  <g
     transform="translate(-0.00131452,7.2462812)"
     id="g30">
    <rect
       x="75.348801"
       y="-0.089900002"
       width="1.6611"
       height="0.17990001"
       ry="0.089900002"
       fill="currentColor"
       id="rect28" />
  </g>
  <g
     transform="translate(-0.00131452,8.0962812)"
     id="g34">
    <rect
       x="75.348801"
       y="-0.089900002"
       width="1.6611"
       height="0.17990001"
       ry="0.089900002"
       fill="currentColor"
       id="rect32" />
  </g>
  <g
     transform="translate(-0.00131452,8.9462812)"
     id="g38">
    <rect
       x="75.348801"
       y="-0.089900002"
       width="1.6611"
       height="0.17990001"
       ry="0.089900002"
       fill="currentColor"
       id="rect36" />
  </g>
  <g
     transform="translate(-0.00131452,7.2462812)"
     id="g42">
    <rect
       x="63.874699"
       y="-0.089900002"
       width="1.6611"
       height="0.17990001"
       ry="0.089900002"
       fill="currentColor"
       id="rect40" />
  </g>
  <g
     transform="translate(-0.00131452,7.2462812)"
     id="g46">
    <rect
       x="59.415401"
       y="-0.089900002"
       width="1.6611"
       height="0.17990001"
       ry="0.089900002"
       fill="currentColor"
       id="rect44" />
  </g>
  <g
     transform="translate(-0.00131452,8.0962812)"
     id="g50">
    <rect
       x="59.415401"
       y="-0.089900002"
       width="1.6611"
       height="0.17990001"
       ry="0.089900002"
       fill="currentColor"
       id="rect48" />
  </g>
  <g
     transform="translate(-0.00131452,7.2462812)"
     id="g54">
    <rect
       x="47.941299"
       y="-0.089900002"
       width="1.6611"
       height="0.17990001"
       ry="0.089900002"
       fill="currentColor"
       id="rect52" />
  </g>
  <g
     transform="translate(-0.00131452,7.2462812)"
     id="g58">
    <rect
       x="43.481998"
       y="-0.089900002"
       width="1.6611"
       height="0.17990001"
       ry="0.089900002"
       fill="currentColor"
       id="rect56" />
  </g>
  <g
     transform="translate(-0.00131452,8.0962812)"
     id="g62">
    <rect
       x="43.481998"
       y="-0.089900002"
       width="1.6611"
       height="0.17990001"
       ry="0.089900002"
       fill="currentColor"
       id="rect60" />
  </g>
  <g
     transform="translate(-0.00131452,8.9462812)"
     id="g66">
    <rect
       x="43.481998"
       y="-0.089900002"
       width="1.6611"
       height="0.17990001"
       ry="0.089900002"
       fill="currentColor"
       id="rect64" />
  </g>
  <g
     transform="translate(-0.00131452,6.3962812)"
     id="g70">
    <line
       stroke-linejoin="round"
       stroke-linecap="round"
       stroke-width="0.0949"
       stroke="currentColor"
       x1="0.047400001"
       y1="0"
       x2="115.9536"
       y2="0"
       id="line68" />
  </g>
  <g
     transform="translate(-0.00131452,5.5462812)"
     id="g74">
    <line
       stroke-linejoin="round"
       stroke-linecap="round"
       stroke-width="0.0949"
       stroke="currentColor"
       x1="0.047400001"
       y1="0"
       x2="115.9536"
       y2="0"
       id="line72" />
  </g>
  <g
     transform="translate(-0.00131452,4.6962812)"
     id="g78">
    <line
       stroke-linejoin="round"
       stroke-linecap="round"
       stroke-width="0.0949"
       stroke="currentColor"
       x1="0.047400001"
       y1="0"
       x2="115.9536"
       y2="0"
       id="line76" />
  </g>
  <g
     transform="translate(-0.00131452,3.8462812)"
     id="g82">
    <line
       stroke-linejoin="round"
       stroke-linecap="round"
       stroke-width="0.0949"
       stroke="currentColor"
       x1="0.047400001"
       y1="0"
       x2="115.9536"
       y2="0"
       id="line80" />
  </g>
  <g
     transform="translate(-0.00131452,2.9962812)"
     id="g86">
    <line
       stroke-linejoin="round"
       stroke-linecap="round"
       stroke-width="0.0949"
       stroke="currentColor"
       x1="0.047400001"
       y1="0"
       x2="115.9536"
       y2="0"
       id="line84" />
  </g>
  <g
     transform="translate(112.39979,4.6962812)"
     id="g90">
    <rect
       x="0"
       y="-1.7"
       width="0.1802"
       height="3.4000001"
       ry="0.0000"
       fill="currentColor"
       id="rect88" />
  </g>
  <g
     transform="translate(98.935285,4.6962812)"
     id="g94">
    <rect
       x="0"
       y="-1.7"
       width="0.1802"
       height="3.4000001"
       ry="0.0000"
       fill="currentColor"
       id="rect92" />
  </g>
  <g
     transform="translate(84.912785,4.6962812)"
     id="g98">
    <rect
       x="0"
       y="-1.7"
       width="0.1802"
       height="3.4000001"
       ry="0.0000"
       fill="currentColor"
       id="rect96" />
  </g>
  <g
     transform="translate(68.979385,4.6962812)"
     id="g102">
    <rect
       x="0"
       y="-1.7"
       width="0.1802"
       height="3.4000001"
       ry="0.0000"
       fill="currentColor"
       id="rect100" />
  </g>
  <g
     transform="translate(53.045985,4.6962812)"
     id="g106">
    <rect
       x="0"
       y="-1.7"
       width="0.1802"
       height="3.4000001"
       ry="0.0000"
       fill="currentColor"
       id="rect104" />
  </g>
  <g
     transform="translate(38.717985,4.6962812)"
     id="g110">
    <rect
       x="0"
       y="-1.7"
       width="0.1802"
       height="3.4000001"
       ry="0.0000"
       fill="currentColor"
       id="rect108" />
  </g>
  <a
     style="color:inherit"
     xlink:href="textedit:///Users/tomsegarra/Documents/dev/dummies/lilypond_files/c68201b05776427c56e6cde3ed652fc0.ly:19:12:13"
     id="a124"
     transform="translate(-2.2775145,-3.2762188)">
    <g
       transform="translate(10.7144,4.9225)"
       id="g116">
      <text
         font-family="sans-serif"
         font-size="2.224px"
         text-anchor="start"
         fill="currentColor"
         id="text114"><tspan
           id="tspan112">A</tspan></text>
    </g>
    <g
       transform="translate(12.2508,4.9225)"
       id="g122">
      <text
         font-family="sans-serif"
         font-size="2.224px"
         text-anchor="start"
         fill="currentColor"
         id="text120"><tspan
           id="tspan118">m</tspan></text>
    </g>
  </a>
  <a
     style="color:inherit"
     xlink:href="textedit:///Users/tomsegarra/Documents/dev/dummies/lilypond_files/c68201b05776427c56e6cde3ed652fc0.ly:23:4:5"
     id="a130"
     transform="translate(-2.2775145,-3.2762188)">
    <g
       transform="translate(10.7144,8.3975)"
       id="g128">
      <path
         transform="scale(0.0034,-0.0034)"
         d="m 215,137 c 67,0 111,-37 111,-92 0,-90 -111,-182 -215,-182 -67,0 -111,37 -111,92 0,90 111,182 215,182 z"
         fill="currentColor"
         id="path126" />
    </g>
  </a>
  <g
     transform="translate(0.79868548,5.5462812)"
     id="g134">
    <path
       transform="scale(0.0034,-0.0034)"
       d="m 646,2 c 0,-113 -74,-213 -180,-247 3,-34 5,-68 5,-102 0,-20 -1,-40 -2,-60 -7,-121 -91,-228 -209,-228 -108,0 -196,87 -196,196 0,58 53,104 112,104 54,0 95,-48 95,-104 0,-52 -43,-95 -95,-95 -10,0 -20,2 -29,6 26,-38 68,-63 116,-63 h 3 c 93,2 153,92 159,190 1,19 2,37 2,56 0,30 -2,60 -4,90 -5,-1 -43,-8 -88,-8 -194,0 -333,180 -333,375 0,177 130,307 246,442 -31,98 -53,170 -53,347 0,115 55,223 148,290 7,5 16,4 22,-1 68,-80 134,-243 134,-357 0,-143 -85,-255 -178,-364 21,-68 40,-137 57,-206 1,0 5,1 11,1 C 545,264 646,135 646,2 Z M 462,-202 c 66,24 111,88 111,162 0,89 -65,178 -170,190 28,-135 50,-272 59,-352 z M 75,26 c 0,-145 141,-245 263,-245 1,0 46,0 81,6 -7,65 -27,206 -61,363 -79,-8 -124,-61 -124,-119 0,-43 25,-89 80,-121 5,-5 7,-11 7,-16 0,-12 -10,-23 -22,-23 -16,0 -127,63 -127,188 0,89 58,175 161,198 -14,58 -29,116 -46,173 C 181,308 75,186 75,26 Z M 406,1042 C 307,995 244,894 244,785 c 0,-49 13,-111 38,-191 79,97 144,199 144,324 0,33 0,63 -20,124 z"
       fill="currentColor"
       id="path132" />
  </g>
  <a
     style="color:inherit"
     xlink:href="textedit:///Users/tomsegarra/Documents/dev/dummies/lilypond_files/c68201b05776427c56e6cde3ed652fc0.ly:22:1:9"
     id="a136"
     transform="translate(-2.2775145,-3.2762188)" />
  <g
     transform="translate(4.9986855,4.6962812)"
     id="g140">
    <path
       transform="scale(0.0034,-0.0034)"
       d="m 358,29 c -30,0 -74,23 -74,73 0,38 27,76 71,76 4,0 7,0 11,-1 -27,36 -69,59 -116,59 -106,0 -113,-74 -113,-188 0,-15 1,-31 1,-48 0,-17 -1,-33 -1,-48 0,-114 7,-188 113,-188 79,0 136,70 155,150 2,7 7,10 13,10 7,0 14,-5 14,-13 0,-21 -50,-175 -182,-175 C 191,-264 0,-244 0,0 0,63 18,264 250,264 365,264 424,155 424,99 424,60 394,29 358,29 Z"
       fill="currentColor"
       id="path138" />
  </g>
  <g
     transform="translate(9.9233855,5.1212812)"
     id="g144">
    <path
       transform="scale(0.0034,-0.0034)"
       d="M 0,0 C 0,31 25,56 56,56 87,56 111,31 111,0 111,-31 87,-56 56,-56 25,-56 0,-31 0,0 Z"
       fill="currentColor"
       id="path142" />
  </g>
  <g
     transform="translate(9.4825855,4.6962812)"
     id="g148">
    <rect
       x="-0.061700001"
       y="-2.55"
       width="0.1233"
       height="2.8225"
       ry="0.039999999"
       fill="currentColor"
       id="rect146" />
  </g>
  <g
     color="#000000"
     id="g154"
     transform="translate(-2.2775145,-3.2762188)">
    <g
       transform="translate(33.1365,7.9725)"
       id="g152">
      <rect
         x="-0.061700001"
         y="-0.69749999"
         width="0.1233"
         height="2.5462"
         ry="0.039999999"
         fill="currentColor"
         id="rect150" />
    </g>
  </g>
  <g
     color="#ff0000"
     id="g160"
     transform="translate(-2.2775145,-3.2762188)">
    <g
       transform="translate(17.3227,9.8291)"
       id="g158">
      <polygon
         stroke-linejoin="round"
         stroke-linecap="round"
         stroke-width="0.08"
         fill="currentColor"
         stroke="currentColor"
         points="0.04,0.164 0.04,-0.164 2.3907,-0.4771 2.3907,-0.1491 "
         id="polygon156" />
    </g>
  </g>
  <g
     color="#000000"
     id="g168"
     transform="translate(-2.2775145,-3.2762188)">
    <a
       style="color:inherit"
       xlink:href="textedit:///Users/tomsegarra/Documents/dev/dummies/lilypond_files/c68201b05776427c56e6cde3ed652fc0.ly:31:15:16"
       id="a166">
      <g
         transform="translate(35.3822,6.6975)"
         id="g164">
        <path
           transform="scale(0.0034,-0.0034)"
           d="m 215,137 c 67,0 111,-37 111,-92 0,-90 -111,-182 -215,-182 -67,0 -111,37 -111,92 0,90 111,182 215,182 z"
           fill="currentColor"
           id="path162" />
      </g>
    </a>
  </g>
  <g
     color="#000000"
     id="g174"
     transform="translate(-2.2775145,-3.2762188)">
    <g
       transform="translate(35.4439,7.9725)"
       id="g172">
      <rect
         x="-0.061700001"
         y="-1.1224999"
         width="0.1233"
         height="2.6738999"
         ry="0.039999999"
         fill="currentColor"
         id="rect170" />
    </g>
  </g>
  <g
     color="#000000"
     id="g180"
     transform="translate(-2.2775145,-3.2762188)">
    <g
       transform="translate(33.0748,9.8291)"
       id="g178">
      <polygon
         stroke-linejoin="round"
         stroke-linecap="round"
         stroke-width="0.08"
         fill="currentColor"
         stroke="currentColor"
         points="0.04,0.164 0.04,-0.164 2.3907,-0.4771 2.3907,-0.1491 "
         id="polygon176" />
    </g>
  </g>
  <g
     color="#000000"
     id="g188"
     transform="translate(-2.2775145,-3.2762188)">
    <a
       style="color:inherit"
       xlink:href="textedit:///Users/tomsegarra/Documents/dev/dummies/lilypond_files/c68201b05776427c56e6cde3ed652fc0.ly:31:19:20"
       id="a186">
      <g
         transform="translate(37.6896,7.1225)"
         id="g184">
        <path
           transform="scale(0.0034,-0.0034)"
           d="m 215,137 c 67,0 111,-37 111,-92 0,-90 -111,-182 -215,-182 -67,0 -111,37 -111,92 0,90 111,182 215,182 z"
           fill="currentColor"
           id="path182" />
      </g>
    </a>
  </g>
  <g
     color="#000000"
     id="g194"
     transform="translate(-2.2775145,-3.2762188)">
    <g
       transform="translate(37.7512,7.9725)"
       id="g192">
      <rect
         x="-0.061700001"
         y="-0.69749999"
         width="0.1233"
         height="2.8225"
         ry="0.039999999"
         fill="currentColor"
         id="rect190" />
    </g>
  </g>
  <g
     color="#ff0000"
     id="g200"
     transform="translate(-2.2775145,-3.2762188)">
    <g
       transform="translate(51.4785,7.9725)"
       id="g198">
      <polygon
         stroke-linejoin="round"
         stroke-linecap="round"
         stroke-width="0.08"
         fill="currentColor"
         stroke="currentColor"
         points="0.04,0.164 0.04,-0.164 2.3907,-0.3206 2.3907,0.0074 "
         id="polygon196" />
    </g>
  </g>
  <g
     color="#ff0000"
     id="g206"
     transform="translate(-2.2775145,-3.2762188)">
    <g
       transform="translate(67.4119,7.9725)"
       id="g204">
      <polygon
         stroke-linejoin="round"
         stroke-linecap="round"
         stroke-width="0.08"
         fill="currentColor"
         stroke="currentColor"
         points="0.04,0.164 0.04,-0.164 2.3907,-0.3206 2.3907,0.0074 "
         id="polygon202" />
    </g>
  </g>
  <a
     style="color:inherit"
     xlink:href="textedit:///Users/tomsegarra/Documents/dev/dummies/lilypond_files/c68201b05776427c56e6cde3ed652fc0.ly:19:19:20"
     id="a214"
     transform="translate(-2.2775145,-3.2762188)">
    <g
       transform="translate(42.0757,4.9225)"
       id="g212">
      <text
         font-family="sans-serif"
         font-size="2.224px"
         text-anchor="start"
         fill="currentColor"
         id="text210"><tspan
           id="tspan208">C</tspan></text>
    </g>
  </a>
  <g
     color="#000000"
     id="g222"
     transform="translate(-2.2775145,-3.2762188)">
    <a
       style="color:inherit"
       xlink:href="textedit:///Users/tomsegarra/Documents/dev/dummies/lilypond_files/c68201b05776427c56e6cde3ed652fc0.ly:31:24:25"
       id="a220">
      <g
         transform="translate(42.0757,8.8225)"
         id="g218">
        <path
           transform="scale(0.0034,-0.0034)"
           d="m 215,137 c 67,0 111,-37 111,-92 0,-90 -111,-182 -215,-182 -67,0 -111,37 -111,92 0,90 111,182 215,182 z"
           fill="currentColor"
           id="path216" />
      </g>
    </a>
  </g>
  <g
     transform="translate(41.284685,5.1212812)"
     id="g226">
    <path
       transform="scale(0.0034,-0.0034)"
       d="M 0,0 C 0,31 25,56 56,56 87,56 111,31 111,0 111,-31 87,-56 56,-56 25,-56 0,-31 0,0 Z"
       fill="currentColor"
       id="path224" />
  </g>
  <g
     color="#000000"
     id="g232"
     transform="translate(-2.2775145,-3.2762188)">
    <g
       transform="translate(43.1215,7.9725)"
       id="g230">
      <rect
         x="-0.061700001"
         y="-2.125"
         width="0.1233"
         height="2.8225"
         ry="0.039999999"
         fill="currentColor"
         id="rect228" />
    </g>
  </g>
  <g
     color="#000000"
     id="g238"
     transform="translate(-2.2775145,-3.2762188)">
    <g
       transform="translate(83.3453,7.9725)"
       id="g236">
      <polygon
         stroke-linejoin="round"
         stroke-linecap="round"
         stroke-width="0.08"
         fill="currentColor"
         stroke="currentColor"
         points="0.04,0.164 0.04,-0.164 2.3907,-0.3206 2.3907,0.0074 "
         id="polygon234" />
    </g>
  </g>
  <g
     color="#000000"
     id="g246"
     transform="translate(-2.2775145,-3.2762188)">
    <a
       style="color:inherit"
       xlink:href="textedit:///Users/tomsegarra/Documents/dev/dummies/lilypond_files/c68201b05776427c56e6cde3ed652fc0.ly:31:13:14"
       id="a244">
      <g
         transform="translate(33.0748,7.1225)"
         id="g242">
        <path
           transform="scale(0.0034,-0.0034)"
           d="m 215,137 c 67,0 111,-37 111,-92 0,-90 -111,-182 -215,-182 -67,0 -111,37 -111,92 0,90 111,182 215,182 z"
           fill="currentColor"
           id="path240" />
      </g>
    </a>
  </g>
  <g
     color="#ff0000"
     id="g254"
     transform="translate(-2.2775145,-3.2762188)">
    <a
       style="color:inherit"
       xlink:href="textedit:///Users/tomsegarra/Documents/dev/dummies/lilypond_files/c68201b05776427c56e6cde3ed652fc0.ly:35:4:5"
       id="a252">
      <g
         transform="translate(46.0351,12.2225)"
         id="g250">
        <path
           transform="scale(0.0034,-0.0034)"
           d="m 215,137 c 67,0 111,-37 111,-92 0,-90 -111,-182 -215,-182 -67,0 -111,37 -111,92 0,90 111,182 215,182 z"
           fill="currentColor"
           id="path248" />
      </g>
    </a>
  </g>
  <g
     transform="translate(45.243985,8.5212812)"
     id="g258">
    <path
       transform="scale(0.0034,-0.0034)"
       d="M 0,0 C 0,31 25,56 56,56 87,56 111,31 111,0 111,-31 87,-56 56,-56 25,-56 0,-31 0,0 Z"
       fill="currentColor"
       id="path256" />
  </g>
  <g
     color="#ff0000"
     id="g264"
     transform="translate(-2.2775145,-3.2762188)">
    <g
       transform="translate(47.0808,7.9725)"
       id="g262">
      <rect
         x="-0.061700001"
         y="0"
         width="0.1233"
         height="4.0974998"
         ry="0.039999999"
         fill="currentColor"
         id="rect260" />
    </g>
  </g>
  <g
     color="#ff0000"
     id="g272"
     transform="translate(-2.2775145,-3.2762188)">
    <a
       style="color:inherit"
       xlink:href="textedit:///Users/tomsegarra/Documents/dev/dummies/lilypond_files/c68201b05776427c56e6cde3ed652fc0.ly:35:9:10"
       id="a270">
      <g
         transform="translate(50.4944,10.5225)"
         id="g268">
        <path
           transform="scale(0.0034,-0.0034)"
           d="m 215,137 c 67,0 111,-37 111,-92 0,-90 -111,-182 -215,-182 -67,0 -111,37 -111,92 0,90 111,182 215,182 z"
           fill="currentColor"
           id="path266" />
      </g>
    </a>
  </g>
  <g
     color="#ff0000"
     id="g278"
     transform="translate(-2.2775145,-3.2762188)">
    <g
       transform="translate(51.5401,7.9725)"
       id="g276">
      <rect
         x="-0.061700001"
         y="-0.0040000002"
         width="0.1233"
         height="2.4015"
         ry="0.039999999"
         fill="currentColor"
         id="rect274" />
    </g>
  </g>
  <g
     color="#ff0000"
     id="g286"
     transform="translate(-2.2775145,-3.2762188)">
    <a
       style="color:inherit"
       xlink:href="textedit:///Users/tomsegarra/Documents/dev/dummies/lilypond_files/c68201b05776427c56e6cde3ed652fc0.ly:35:13:14"
       id="a284">
      <g
         transform="translate(52.8018,10.0975)"
         id="g282">
        <path
           transform="scale(0.0034,-0.0034)"
           d="m 215,137 c 67,0 111,-37 111,-92 0,-90 -111,-182 -215,-182 -67,0 -111,37 -111,92 0,90 111,182 215,182 z"
           fill="currentColor"
           id="path280" />
      </g>
    </a>
  </g>
  <g
     color="#ff0000"
     id="g292"
     transform="translate(-2.2775145,-3.2762188)">
    <g
       transform="translate(53.8475,7.9725)"
       id="g290">
      <rect
         x="-0.061700001"
         y="-0.15260001"
         width="0.1233"
         height="2.1250999"
         ry="0.039999999"
         fill="currentColor"
         id="rect288" />
    </g>
  </g>
  <g
     color="#000000"
     id="g298"
     transform="translate(-2.2775145,-3.2762188)">
    <g
       transform="translate(30.8908,10.4825)"
       id="g296">
      <path
         transform="scale(0.0034,-0.0034)"
         d="M 0,0 H -18 V 250 H 0 Z m 0,0 v 250 c 96,59 222,149 222,259 0,57 -15,111 -40,162 -3,17 10,29 24,29 8,0 16,-5 21,-13 25,-56 40,-116 40,-178 C 267,306 0,203 0,0 Z"
         fill="currentColor"
         id="path294" />
    </g>
  </g>
  <g
     color="#000000"
     id="g304"
     transform="translate(-2.2775145,-3.2762188)">
    <g
       transform="translate(30.8291,7.9725)"
       id="g302">
      <rect
         x="-0.061700001"
         y="-0.27250001"
         width="0.1233"
         height="2.8225"
         ry="0.039999999"
         fill="currentColor"
         id="rect300" />
    </g>
  </g>
  <a
     style="color:inherit"
     xlink:href="textedit:///Users/tomsegarra/Documents/dev/dummies/lilypond_files/c68201b05776427c56e6cde3ed652fc0.ly:19:21:22"
     id="a312"
     transform="translate(-2.2775145,-3.2762188)">
    <g
       transform="translate(56.4037,4.9225)"
       id="g310">
      <text
         font-family="sans-serif"
         font-size="2.224px"
         text-anchor="start"
         fill="currentColor"
         id="text308"><tspan
           id="tspan306">G</tspan></text>
    </g>
  </a>
  <g
     color="#ff0000"
     id="g320"
     transform="translate(-2.2775145,-3.2762188)">
    <a
       style="color:inherit"
       xlink:href="textedit:///Users/tomsegarra/Documents/dev/dummies/lilypond_files/c68201b05776427c56e6cde3ed652fc0.ly:35:15:16"
       id="a318">
      <g
         transform="translate(56.4037,9.6725)"
         id="g316">
        <path
           transform="scale(0.0034,-0.0034)"
           d="m 215,137 c 67,0 111,-37 111,-92 0,-90 -111,-182 -215,-182 -67,0 -111,37 -111,92 0,90 111,182 215,182 z"
           fill="currentColor"
           id="path314" />
      </g>
    </a>
  </g>
  <g
     color="#ff0000"
     id="g326"
     transform="translate(-2.2775145,-3.2762188)">
    <g
       transform="translate(57.4494,7.9725)"
       id="g324">
      <rect
         x="-0.061700001"
         y="-1.275"
         width="0.1233"
         height="2.8225"
         ry="0.039999999"
         fill="currentColor"
         id="rect322" />
    </g>
  </g>
  <g
     color="#ff0000"
     id="g332"
     transform="translate(-2.2775145,-3.2762188)">
    <g
       transform="translate(57.5111,6.7375)"
       id="g330">
      <path
         transform="scale(0.0034,-0.0034)"
         d="m 0,0 c 0,-197 207,-335 207,-532 0,-71 -15,-141 -41,-207 -5,-8 -13,-12 -21,-12 -14,0 -27,11 -24,28 26,60 42,125 42,191 0,103 -93,207 -163,282 H -18 V 0 Z"
         fill="currentColor"
         id="path328" />
    </g>
  </g>
  <g
     color="#000000"
     id="g340"
     transform="translate(-2.2775145,-3.2762188)">
    <a
       style="color:inherit"
       xlink:href="textedit:///Users/tomsegarra/Documents/dev/dummies/lilypond_files/c68201b05776427c56e6cde3ed652fc0.ly:31:9:10"
       id="a338">
      <g
         transform="translate(30.7674,7.5475)"
         id="g336">
        <path
           transform="scale(0.0034,-0.0034)"
           d="m 215,137 c 67,0 111,-37 111,-92 0,-90 -111,-182 -215,-182 -67,0 -111,37 -111,92 0,90 111,182 215,182 z"
           fill="currentColor"
           id="path334" />
      </g>
    </a>
  </g>
  <g
     color="#ff0000"
     id="g348"
     transform="translate(-2.2775145,-3.2762188)">
    <a
       style="color:inherit"
       xlink:href="textedit:///Users/tomsegarra/Documents/dev/dummies/lilypond_files/c68201b05776427c56e6cde3ed652fc0.ly:35:19:20"
       id="a346">
      <g
         transform="translate(58.7111,10.0975)"
         id="g344">
        <path
           transform="scale(0.0034,-0.0034)"
           d="m 215,137 c 67,0 111,-37 111,-92 0,-90 -111,-182 -215,-182 -67,0 -111,37 -111,92 0,90 111,182 215,182 z"
           fill="currentColor"
           id="path342" />
      </g>
    </a>
  </g>
  <g
     color="#ff0000"
     id="g354"
     transform="translate(-2.2775145,-3.2762188)">
    <g
       transform="translate(59.7568,7.9725)"
       id="g352">
      <rect
         x="-0.061700001"
         y="-0.85000002"
         width="0.1233"
         height="2.8225"
         ry="0.039999999"
         fill="currentColor"
         id="rect350" />
    </g>
  </g>
  <g
     color="#ff0000"
     id="g362"
     transform="translate(-2.2775145,-3.2762188)">
    <a
       style="color:inherit"
       xlink:href="textedit:///Users/tomsegarra/Documents/dev/dummies/lilypond_files/c68201b05776427c56e6cde3ed652fc0.ly:35:24:25"
       id="a360">
      <g
         transform="translate(61.9685,11.7975)"
         id="g358">
        <path
           transform="scale(0.0034,-0.0034)"
           d="m 215,137 c 67,0 111,-37 111,-92 0,-90 -111,-182 -215,-182 -67,0 -111,37 -111,92 0,90 111,182 215,182 z"
           fill="currentColor"
           id="path356" />
      </g>
    </a>
  </g>
  <g
     transform="translate(61.177385,8.5212812)"
     id="g366">
    <path
       transform="scale(0.0034,-0.0034)"
       d="M 0,0 C 0,31 25,56 56,56 87,56 111,31 111,0 111,-31 87,-56 56,-56 25,-56 0,-31 0,0 Z"
       fill="currentColor"
       id="path364" />
  </g>
  <g
     color="#ff0000"
     id="g372"
     transform="translate(-2.2775145,-3.2762188)">
    <g
       transform="translate(63.0142,7.9725)"
       id="g370">
      <rect
         x="-0.061700001"
         y="0"
         width="0.1233"
         height="3.6724999"
         ry="0.039999999"
         fill="currentColor"
         id="rect368" />
    </g>
  </g>
  <g
     color="#ff0000"
     id="g380"
     transform="translate(-2.2775145,-3.2762188)">
    <a
       style="color:inherit"
       xlink:href="textedit:///Users/tomsegarra/Documents/dev/dummies/lilypond_files/c68201b05776427c56e6cde3ed652fc0.ly:36:4:5"
       id="a378">
      <g
         transform="translate(66.4278,10.5225)"
         id="g376">
        <path
           transform="scale(0.0034,-0.0034)"
           d="m 215,137 c 67,0 111,-37 111,-92 0,-90 -111,-182 -215,-182 -67,0 -111,37 -111,92 0,90 111,182 215,182 z"
           fill="currentColor"
           id="path374" />
      </g>
    </a>
  </g>
  <g
     color="#ff0000"
     id="g386"
     transform="translate(-2.2775145,-3.2762188)">
    <g
       transform="translate(67.4735,7.9725)"
       id="g384">
      <rect
         x="-0.061700001"
         y="-0.0040000002"
         width="0.1233"
         height="2.4015"
         ry="0.039999999"
         fill="currentColor"
         id="rect382" />
    </g>
  </g>
  <g
     color="#ff0000"
     id="g394"
     transform="translate(-2.2775145,-3.2762188)">
    <a
       style="color:inherit"
       xlink:href="textedit:///Users/tomsegarra/Documents/dev/dummies/lilypond_files/c68201b05776427c56e6cde3ed652fc0.ly:36:7:8"
       id="a392">
      <g
         transform="translate(68.7352,10.0975)"
         id="g390">
        <path
           transform="scale(0.0034,-0.0034)"
           d="m 215,137 c 67,0 111,-37 111,-92 0,-90 -111,-182 -215,-182 -67,0 -111,37 -111,92 0,90 111,182 215,182 z"
           fill="currentColor"
           id="path388" />
      </g>
    </a>
  </g>
  <g
     color="#ff0000"
     id="g400"
     transform="translate(-2.2775145,-3.2762188)">
    <g
       transform="translate(69.7809,7.9725)"
       id="g398">
      <rect
         x="-0.061700001"
         y="-0.15260001"
         width="0.1233"
         height="2.1250999"
         ry="0.039999999"
         fill="currentColor"
         id="rect396" />
    </g>
  </g>
  <g
     color="#ff0000"
     id="g408"
     transform="translate(-2.2775145,-3.2762188)">
    <a
       style="color:inherit"
       xlink:href="textedit:///Users/tomsegarra/Documents/dev/dummies/lilypond_files/c68201b05776427c56e6cde3ed652fc0.ly:36:9:10"
       id="a406">
      <g
         transform="translate(72.3371,9.6725)"
         id="g404">
        <path
           transform="scale(0.0034,-0.0034)"
           d="m 215,137 c 67,0 111,-37 111,-92 0,-90 -111,-182 -215,-182 -67,0 -111,37 -111,92 0,90 111,182 215,182 z"
           fill="currentColor"
           id="path402" />
      </g>
    </a>
  </g>
  <g
     color="#ff0000"
     id="g414"
     transform="translate(-2.2775145,-3.2762188)">
    <g
       transform="translate(73.3828,7.9725)"
       id="g412">
      <rect
         x="-0.061700001"
         y="-1.275"
         width="0.1233"
         height="2.8225"
         ry="0.039999999"
         fill="currentColor"
         id="rect410" />
    </g>
  </g>
  <g
     color="#ff0000"
     id="g420"
     transform="translate(-2.2775145,-3.2762188)">
    <g
       transform="translate(73.4445,6.7375)"
       id="g418">
      <path
         transform="scale(0.0034,-0.0034)"
         d="m 0,0 c 0,-197 207,-335 207,-532 0,-71 -15,-141 -41,-207 -5,-8 -13,-12 -21,-12 -14,0 -27,11 -24,28 26,60 42,125 42,191 0,103 -93,207 -163,282 H -18 V 0 Z"
         fill="currentColor"
         id="path416" />
    </g>
  </g>
  <g
     color="#ff0000"
     id="g428"
     transform="translate(-2.2775145,-3.2762188)">
    <a
       style="color:inherit"
       xlink:href="textedit:///Users/tomsegarra/Documents/dev/dummies/lilypond_files/c68201b05776427c56e6cde3ed652fc0.ly:36:13:14"
       id="a426">
      <g
         transform="translate(74.6445,10.0975)"
         id="g424">
        <path
           transform="scale(0.0034,-0.0034)"
           d="m 215,137 c 67,0 111,-37 111,-92 0,-90 -111,-182 -215,-182 -67,0 -111,37 -111,92 0,90 111,182 215,182 z"
           fill="currentColor"
           id="path422" />
      </g>
    </a>
  </g>
  <g
     color="#ff0000"
     id="g434"
     transform="translate(-2.2775145,-3.2762188)">
    <g
       transform="translate(75.6902,7.9725)"
       id="g432">
      <rect
         x="-0.061700001"
         y="-0.85000002"
         width="0.1233"
         height="2.8225"
         ry="0.039999999"
         fill="currentColor"
         id="rect430" />
    </g>
  </g>
  <g
     color="#000000"
     id="g442"
     transform="translate(-2.2775145,-3.2762188)">
    <a
       style="color:inherit"
       xlink:href="textedit:///Users/tomsegarra/Documents/dev/dummies/lilypond_files/c68201b05776427c56e6cde3ed652fc0.ly:40:4:5"
       id="a440">
      <g
         transform="translate(77.9019,12.2225)"
         id="g438">
        <path
           transform="scale(0.0034,-0.0034)"
           d="m 215,137 c 67,0 111,-37 111,-92 0,-90 -111,-182 -215,-182 -67,0 -111,37 -111,92 0,90 111,182 215,182 z"
           fill="currentColor"
           id="path436" />
      </g>
    </a>
  </g>
  <g
     transform="translate(77.110785,8.5212812)"
     id="g446">
    <path
       transform="scale(0.0034,-0.0034)"
       d="M 0,0 C 0,31 25,56 56,56 87,56 111,31 111,0 111,-31 87,-56 56,-56 25,-56 0,-31 0,0 Z"
       fill="currentColor"
       id="path444" />
  </g>
  <g
     color="#000000"
     id="g452"
     transform="translate(-2.2775145,-3.2762188)">
    <g
       transform="translate(78.9476,7.9725)"
       id="g450">
      <rect
         x="-0.061700001"
         y="0"
         width="0.1233"
         height="4.0974998"
         ry="0.039999999"
         fill="currentColor"
         id="rect448" />
    </g>
  </g>
  <g
     color="#000000"
     id="g460"
     transform="translate(-2.2775145,-3.2762188)">
    <a
       style="color:inherit"
       xlink:href="textedit:///Users/tomsegarra/Documents/dev/dummies/lilypond_files/c68201b05776427c56e6cde3ed652fc0.ly:40:9:10"
       id="a458">
      <g
         transform="translate(82.3612,10.5225)"
         id="g456">
        <path
           transform="scale(0.0034,-0.0034)"
           d="m 215,137 c 67,0 111,-37 111,-92 0,-90 -111,-182 -215,-182 -67,0 -111,37 -111,92 0,90 111,182 215,182 z"
           fill="currentColor"
           id="path454" />
      </g>
    </a>
  </g>
  <g
     color="#000000"
     id="g466"
     transform="translate(-2.2775145,-3.2762188)">
    <g
       transform="translate(83.4069,7.9725)"
       id="g464">
      <rect
         x="-0.061700001"
         y="-0.0040000002"
         width="0.1233"
         height="2.4015"
         ry="0.039999999"
         fill="currentColor"
         id="rect462" />
    </g>
  </g>
  <g
     color="#000000"
     id="g474"
     transform="translate(-2.2775145,-3.2762188)">
    <a
       style="color:inherit"
       xlink:href="textedit:///Users/tomsegarra/Documents/dev/dummies/lilypond_files/c68201b05776427c56e6cde3ed652fc0.ly:40:13:14"
       id="a472">
      <g
         transform="translate(84.6686,10.0975)"
         id="g470">
        <path
           transform="scale(0.0034,-0.0034)"
           d="m 215,137 c 67,0 111,-37 111,-92 0,-90 -111,-182 -215,-182 -67,0 -111,37 -111,92 0,90 111,182 215,182 z"
           fill="currentColor"
           id="path468" />
      </g>
    </a>
  </g>
  <g
     color="#000000"
     id="g480"
     transform="translate(-2.2775145,-3.2762188)">
    <g
       transform="translate(85.7143,7.9725)"
       id="g478">
      <rect
         x="-0.061700001"
         y="-0.15260001"
         width="0.1233"
         height="2.1250999"
         ry="0.039999999"
         fill="currentColor"
         id="rect476" />
    </g>
  </g>
  <g
     color="#000000"
     id="g488"
     transform="translate(-2.2775145,-3.2762188)">
    <a
       style="color:inherit"
       xlink:href="textedit:///Users/tomsegarra/Documents/dev/dummies/lilypond_files/c68201b05776427c56e6cde3ed652fc0.ly:40:15:16"
       id="a486">
      <g
         transform="translate(88.2705,9.6725)"
         id="g484">
        <path
           transform="scale(0.0034,-0.0034)"
           d="m 215,137 c 67,0 111,-37 111,-92 0,-90 -111,-182 -215,-182 -67,0 -111,37 -111,92 0,90 111,182 215,182 z"
           fill="currentColor"
           id="path482" />
      </g>
    </a>
  </g>
  <g
     color="#000000"
     id="g494"
     transform="translate(-2.2775145,-3.2762188)">
    <g
       transform="translate(89.3162,7.9725)"
       id="g492">
      <rect
         x="-0.061700001"
         y="-1.275"
         width="0.1233"
         height="2.8225"
         ry="0.039999999"
         fill="currentColor"
         id="rect490" />
    </g>
  </g>
  <g
     color="#000000"
     id="g500"
     transform="translate(-2.2775145,-3.2762188)">
    <g
       transform="translate(89.3779,6.7375)"
       id="g498">
      <path
         transform="scale(0.0034,-0.0034)"
         d="m 0,0 c 0,-197 207,-335 207,-532 0,-71 -15,-141 -41,-207 -5,-8 -13,-12 -21,-12 -14,0 -27,11 -24,28 26,60 42,125 42,191 0,103 -93,207 -163,282 H -18 V 0 Z"
         fill="currentColor"
         id="path496" />
    </g>
  </g>
  <g
     color="#000000"
     id="g508"
     transform="translate(-2.2775145,-3.2762188)">
    <a
       style="color:inherit"
       xlink:href="textedit:///Users/tomsegarra/Documents/dev/dummies/lilypond_files/c68201b05776427c56e6cde3ed652fc0.ly:40:19:20"
       id="a506">
      <g
         transform="translate(90.5779,10.0975)"
         id="g504">
        <path
           transform="scale(0.0034,-0.0034)"
           d="m 215,137 c 67,0 111,-37 111,-92 0,-90 -111,-182 -215,-182 -67,0 -111,37 -111,92 0,90 111,182 215,182 z"
           fill="currentColor"
           id="path502" />
      </g>
    </a>
  </g>
  <g
     color="#000000"
     id="g514"
     transform="translate(-2.2775145,-3.2762188)">
    <g
       transform="translate(91.6236,7.9725)"
       id="g512">
      <rect
         x="-0.061700001"
         y="-0.85000002"
         width="0.1233"
         height="2.8225"
         ry="0.039999999"
         fill="currentColor"
         id="rect510" />
    </g>
  </g>
  <g
     color="#000000"
     id="g522"
     transform="translate(-2.2775145,-3.2762188)">
    <a
       style="color:inherit"
       xlink:href="textedit:///Users/tomsegarra/Documents/dev/dummies/lilypond_files/c68201b05776427c56e6cde3ed652fc0.ly:40:24:25"
       id="a520">
      <g
         transform="translate(93.8353,11.7975)"
         id="g518">
        <path
           transform="scale(0.0034,-0.0034)"
           d="m 215,137 c 67,0 111,-37 111,-92 0,-90 -111,-182 -215,-182 -67,0 -111,37 -111,92 0,90 111,182 215,182 z"
           fill="currentColor"
           id="path516" />
      </g>
    </a>
  </g>
  <g
     transform="translate(93.044185,8.5212812)"
     id="g526">
    <path
       transform="scale(0.0034,-0.0034)"
       d="M 0,0 C 0,31 25,56 56,56 87,56 111,31 111,0 111,-31 87,-56 56,-56 25,-56 0,-31 0,0 Z"
       fill="currentColor"
       id="path524" />
  </g>
  <g
     color="#000000"
     id="g532"
     transform="translate(-2.2775145,-3.2762188)">
    <g
       transform="translate(94.881,7.9725)"
       id="g530">
      <rect
         x="-0.061700001"
         y="0"
         width="0.1233"
         height="3.6724999"
         ry="0.039999999"
         fill="currentColor"
         id="rect528" />
    </g>
  </g>
  <g
     color="#000000"
     id="g540"
     transform="translate(-2.2775145,-3.2762188)">
    <a
       style="color:inherit"
       xlink:href="textedit:///Users/tomsegarra/Documents/dev/dummies/lilypond_files/c68201b05776427c56e6cde3ed652fc0.ly:41:4:5"
       id="a538">
      <g
         transform="translate(98.2946,10.9475)"
         id="g536">
        <path
           transform="scale(0.0034,-0.0034)"
           d="m 215,137 c 67,0 111,-37 111,-92 0,-90 -111,-182 -215,-182 -67,0 -111,37 -111,92 0,90 111,182 215,182 z"
           fill="currentColor"
           id="path534" />
      </g>
    </a>
  </g>
  <g
     transform="translate(97.503585,7.6712812)"
     id="g544">
    <path
       transform="scale(0.0034,-0.0034)"
       d="M 0,0 C 0,31 25,56 56,56 87,56 111,31 111,0 111,-31 87,-56 56,-56 25,-56 0,-31 0,0 Z"
       fill="currentColor"
       id="path542" />
  </g>
  <g
     color="#000000"
     id="g550"
     transform="translate(-2.2775145,-3.2762188)">
    <g
       transform="translate(99.3403,7.9725)"
       id="g548">
      <rect
         x="-0.061700001"
         y="0"
         width="0.1233"
         height="2.8225"
         ry="0.039999999"
         fill="currentColor"
         id="rect546" />
    </g>
  </g>
  <g
     color="#000000"
     id="g556"
     transform="translate(-2.2775145,-3.2762188)">
    <g
       transform="translate(27.3694,7.9725)"
       id="g554">
      <rect
         x="-0.061700001"
         y="-1.7"
         width="0.1233"
         height="2.8225"
         ry="0.039999999"
         fill="currentColor"
         id="rect552" />
    </g>
  </g>
  <g
     transform="translate(25.532585,5.9712812)"
     id="g560">
    <path
       transform="scale(0.0034,-0.0034)"
       d="M 0,0 C 0,31 25,56 56,56 87,56 111,31 111,0 111,-31 87,-56 56,-56 25,-56 0,-31 0,0 Z"
       fill="currentColor"
       id="path558" />
  </g>
  <g
     color="#000000"
     id="g568"
     transform="translate(-2.2775145,-3.2762188)">
    <a
       style="color:inherit"
       xlink:href="textedit:///Users/tomsegarra/Documents/dev/dummies/lilypond_files/c68201b05776427c56e6cde3ed652fc0.ly:41:8:9"
       id="a566">
      <g
         transform="translate(103.993,10.5225)"
         id="g564">
        <path
           transform="scale(0.0034,-0.0034)"
           d="m 215,137 c 67,0 111,-37 111,-92 0,-90 -111,-182 -215,-182 -67,0 -111,37 -111,92 0,90 111,182 215,182 z"
           fill="currentColor"
           id="path562" />
      </g>
    </a>
  </g>
  <g
     transform="translate(103.20199,6.8212812)"
     id="g572">
    <path
       transform="scale(0.0034,-0.0034)"
       d="M 0,0 C 0,31 25,56 56,56 87,56 111,31 111,0 111,-31 87,-56 56,-56 25,-56 0,-31 0,0 Z"
       fill="currentColor"
       id="path570" />
  </g>
  <g
     color="#000000"
     id="g578"
     transform="translate(-2.2775145,-3.2762188)">
    <g
       transform="translate(105.0388,7.9725)"
       id="g576">
      <rect
         x="-0.061700001"
         y="-0.42500001"
         width="0.1233"
         height="2.8225"
         ry="0.039999999"
         fill="currentColor"
         id="rect574" />
    </g>
  </g>
  <g
     color="#000000"
     id="g586"
     transform="translate(-2.2775145,-3.2762188)">
    <a
       style="color:inherit"
       xlink:href="textedit:///Users/tomsegarra/Documents/dev/dummies/lilypond_files/c68201b05776427c56e6cde3ed652fc0.ly:41:10:11"
       id="a584">
      <g
         transform="translate(108.2024,10.0975)"
         id="g582">
        <path
           transform="scale(0.0034,-0.0034)"
           d="m 215,137 c 67,0 111,-37 111,-92 0,-90 -111,-182 -215,-182 -67,0 -111,37 -111,92 0,90 111,182 215,182 z"
           fill="currentColor"
           id="path580" />
      </g>
    </a>
  </g>
  <g
     transform="translate(107.41129,6.8212812)"
     id="g590">
    <path
       transform="scale(0.0034,-0.0034)"
       d="M 0,0 C 0,31 25,56 56,56 87,56 111,31 111,0 111,-31 87,-56 56,-56 25,-56 0,-31 0,0 Z"
       fill="currentColor"
       id="path588" />
  </g>
  <g
     color="#000000"
     id="g596"
     transform="translate(-2.2775145,-3.2762188)">
    <g
       transform="translate(109.2481,7.9725)"
       id="g594">
      <rect
         x="-0.061700001"
         y="-0.85000002"
         width="0.1233"
         height="2.8225"
         ry="0.039999999"
         fill="currentColor"
         id="rect592" />
    </g>
  </g>
  <g
     color="#000000"
     id="g604"
     transform="translate(-2.2775145,-3.2762188)">
    <a
       style="color:inherit"
       xlink:href="textedit:///Users/tomsegarra/Documents/dev/dummies/lilypond_files/c68201b05776427c56e6cde3ed652fc0.ly:31:4:5"
       id="a602">
      <g
         transform="translate(26.3236,9.2475)"
         id="g600">
        <path
           transform="scale(0.0034,-0.0034)"
           d="m 215,137 c 67,0 111,-37 111,-92 0,-90 -111,-182 -215,-182 -67,0 -111,37 -111,92 0,90 111,182 215,182 z"
           fill="currentColor"
           id="path598" />
      </g>
    </a>
  </g>
  <g
     color="#000000"
     id="g612"
     transform="translate(-2.2775145,-3.2762188)">
    <a
       style="color:inherit"
       xlink:href="textedit:///Users/tomsegarra/Documents/dev/dummies/lilypond_files/c68201b05776427c56e6cde3ed652fc0.ly:41:12:13"
       id="a610">
      <g
         transform="translate(112.4117,9.6725)"
         id="g608">
        <path
           transform="scale(0.0034,-0.0034)"
           d="m 215,137 c 67,0 111,-37 111,-92 0,-90 -111,-182 -215,-182 -67,0 -111,37 -111,92 0,90 111,182 215,182 z"
           fill="currentColor"
           id="path606" />
      </g>
    </a>
  </g>
  <g
     transform="translate(111.62069,5.9712812)"
     id="g616">
    <path
       transform="scale(0.0034,-0.0034)"
       d="M 0,0 C 0,31 25,56 56,56 87,56 111,31 111,0 111,-31 87,-56 56,-56 25,-56 0,-31 0,0 Z"
       fill="currentColor"
       id="path614" />
  </g>
  <g
     color="#000000"
     id="g622"
     transform="translate(-2.2775145,-3.2762188)">
    <g
       transform="translate(113.4574,7.9725)"
       id="g620">
      <rect
         x="-0.061700001"
         y="-1.275"
         width="0.1233"
         height="2.8225"
         ry="0.039999999"
         fill="currentColor"
         id="rect618" />
    </g>
  </g>
  <a
     style="color:inherit"
     xlink:href="textedit:///Users/tomsegarra/Documents/dev/dummies/lilypond_files/c68201b05776427c56e6cde3ed652fc0.ly:19:17:18"
     id="a630"
     transform="translate(-2.2775145,-3.2762188)">
    <g
       transform="translate(26.3236,4.9225)"
       id="g628">
      <text
         font-family="sans-serif"
         font-size="2.224px"
         text-anchor="start"
         fill="currentColor"
         id="text626"><tspan
           id="tspan624">F</tspan></text>
    </g>
  </a>
  <g
     color="#ff0000"
     id="g638"
     transform="translate(-2.2775145,-3.2762188)">
    <a
       style="color:inherit"
       xlink:href="textedit:///Users/tomsegarra/Documents/dev/dummies/lilypond_files/c68201b05776427c56e6cde3ed652fc0.ly:27:4:5"
       id="a636">
      <g
         transform="translate(15.0153,7.5475)"
         id="g634">
        <path
           transform="scale(0.0034,-0.0034)"
           d="m 215,137 c 67,0 111,-37 111,-92 0,-90 -111,-182 -215,-182 -67,0 -111,37 -111,92 0,90 111,182 215,182 z"
           fill="currentColor"
           id="path632" />
      </g>
    </a>
  </g>
  <g
     color="#ff0000"
     id="g644"
     transform="translate(-2.2775145,-3.2762188)">
    <g
       transform="translate(15.077,7.9725)"
       id="g642">
      <rect
         x="-0.061700001"
         y="-0.27250001"
         width="0.1233"
         height="2.8225"
         ry="0.039999999"
         fill="currentColor"
         id="rect640" />
    </g>
  </g>
  <g
     color="#ff0000"
     id="g650"
     transform="translate(-2.2775145,-3.2762188)">
    <g
       transform="translate(15.1386,10.4825)"
       id="g648">
      <path
         transform="scale(0.0034,-0.0034)"
         d="M 0,0 H -18 V 250 H 0 Z m 0,0 v 250 c 96,59 222,149 222,259 0,57 -15,111 -40,162 -3,17 10,29 24,29 8,0 16,-5 21,-13 25,-56 40,-116 40,-178 C 267,306 0,203 0,0 Z"
         fill="currentColor"
         id="path646" />
    </g>
  </g>
  <g
     color="#ff0000"
     id="g658"
     transform="translate(-2.2775145,-3.2762188)">
    <a
       style="color:inherit"
       xlink:href="textedit:///Users/tomsegarra/Documents/dev/dummies/lilypond_files/c68201b05776427c56e6cde3ed652fc0.ly:27:7:8"
       id="a656">
      <g
         transform="translate(17.3227,7.1225)"
         id="g654">
        <path
           transform="scale(0.0034,-0.0034)"
           d="m 215,137 c 67,0 111,-37 111,-92 0,-90 -111,-182 -215,-182 -67,0 -111,37 -111,92 0,90 111,182 215,182 z"
           fill="currentColor"
           id="path652" />
      </g>
    </a>
  </g>
  <g
     color="#ff0000"
     id="g664"
     transform="translate(-2.2775145,-3.2762188)">
    <g
       transform="translate(17.3844,7.9725)"
       id="g662">
      <rect
         x="-0.061700001"
         y="-0.69749999"
         width="0.1233"
         height="2.5462"
         ry="0.039999999"
         fill="currentColor"
         id="rect660" />
    </g>
  </g>
  <g
     color="#ff0000"
     id="g670"
     transform="translate(-2.2775145,-3.2762188)">
    <g
       transform="translate(21.9991,7.9725)"
       id="g668">
      <rect
         x="-0.061700001"
         y="-0.69749999"
         width="0.1233"
         height="2.8225"
         ry="0.039999999"
         fill="currentColor"
         id="rect666" />
    </g>
  </g>
  <g
     color="#ff0000"
     id="g678"
     transform="translate(-2.2775145,-3.2762188)">
    <a
       style="color:inherit"
       xlink:href="textedit:///Users/tomsegarra/Documents/dev/dummies/lilypond_files/c68201b05776427c56e6cde3ed652fc0.ly:27:9:10"
       id="a676">
      <g
         transform="translate(19.6301,6.6975)"
         id="g674">
        <path
           transform="scale(0.0034,-0.0034)"
           d="m 215,137 c 67,0 111,-37 111,-92 0,-90 -111,-182 -215,-182 -67,0 -111,37 -111,92 0,90 111,182 215,182 z"
           fill="currentColor"
           id="path672" />
      </g>
    </a>
  </g>
  <g
     color="#ff0000"
     id="g684"
     transform="translate(-2.2775145,-3.2762188)">
    <g
       transform="translate(19.6918,7.9725)"
       id="g682">
      <rect
         x="-0.061700001"
         y="-1.1224999"
         width="0.1233"
         height="2.6738999"
         ry="0.039999999"
         fill="currentColor"
         id="rect680" />
    </g>
  </g>
  <g
     color="#ff0000"
     id="g692"
     transform="translate(-2.2775145,-3.2762188)">
    <a
       style="color:inherit"
       xlink:href="textedit:///Users/tomsegarra/Documents/dev/dummies/lilypond_files/c68201b05776427c56e6cde3ed652fc0.ly:27:13:14"
       id="a690">
      <g
         transform="translate(21.9375,7.1225)"
         id="g688">
        <path
           transform="scale(0.0034,-0.0034)"
           d="m 215,137 c 67,0 111,-37 111,-92 0,-90 -111,-182 -215,-182 -67,0 -111,37 -111,92 0,90 111,182 215,182 z"
           fill="currentColor"
           id="path686" />
      </g>
    </a>
  </g>
</svg>
