<?xml version="1.0" encoding="UTF-8" standalone="no"?>
<svg
   version="1.2"
   width="82.172516mm"
   height="20.327mm"
   viewBox="0 0 46.760168 11.567185"
   id="svg358"
   sodipodi:docname="caa1ee4dd7aaad2115c4eee7f5ac0584.svg"
   xmlns:inkscape="http://www.inkscape.org/namespaces/inkscape"
   xmlns:sodipodi="http://sodipodi.sourceforge.net/DTD/sodipodi-0.dtd"
   xmlns:xlink="http://www.w3.org/1999/xlink"
   xmlns="http://www.w3.org/2000/svg"
   xmlns:svg="http://www.w3.org/2000/svg">
  <defs
     id="defs362" />
  <sodipodi:namedview
     id="namedview360"
     pagecolor="#ffffff"
     bordercolor="#000000"
     borderopacity="0.25"
     inkscape:showpageshadow="2"
     inkscape:pageopacity="0.0"
     inkscape:pagecheckerboard="0"
     inkscape:deskcolor="#d1d1d1"
     inkscape:document-units="mm" />
  <style
     type="text/css"
     id="style2"><![CDATA[
tspan { white-space: pre; }
]]></style>
  <!-- Page: 1/1 -->
  <g
     transform="translate(30.305258,5.6142)"
     id="g6">
    <rect
       x="0"
       y="-1.7"
       width="0.1802"
       height="3.4000001"
       ry="0.0000"
       fill="currentColor"
       id="rect4" />
  </g>
  <g
     transform="translate(-2.4169294e-4,7.3142)"
     id="g10">
    <line
       stroke-linejoin="round"
       stroke-linecap="round"
       stroke-width="0.0949"
       stroke="currentColor"
       x1="0.047400001"
       y1="0"
       x2="46.7132"
       y2="0"
       id="line8" />
  </g>
  <g
     transform="translate(-2.4169294e-4,6.4642)"
     id="g14">
    <line
       stroke-linejoin="round"
       stroke-linecap="round"
       stroke-width="0.0949"
       stroke="currentColor"
       x1="0.047400001"
       y1="0"
       x2="46.7132"
       y2="0"
       id="line12" />
  </g>
  <g
     transform="translate(-2.4169294e-4,5.6142)"
     id="g18">
    <line
       stroke-linejoin="round"
       stroke-linecap="round"
       stroke-width="0.0949"
       stroke="currentColor"
       x1="0.047400001"
       y1="0"
       x2="46.7132"
       y2="0"
       id="line16" />
  </g>
  <g
     transform="translate(-2.4169294e-4,4.7642)"
     id="g22">
    <line
       stroke-linejoin="round"
       stroke-linecap="round"
       stroke-width="0.0949"
       stroke="currentColor"
       x1="0.047400001"
       y1="0"
       x2="46.7132"
       y2="0"
       id="line20" />
  </g>
  <g
     transform="translate(-2.4169294e-4,3.9142)"
     id="g26">
    <line
       stroke-linejoin="round"
       stroke-linecap="round"
       stroke-width="0.0949"
       stroke="currentColor"
       x1="0.047400001"
       y1="0"
       x2="46.7132"
       y2="0"
       id="line24" />
  </g>
  <a
     style="color:inherit"
     xlink:href="textedit:///Users/tomsegarra/Documents/dev/dummies/lilypond_files/caa1ee4dd7aaad2115c4eee7f5ac0584.ly:20:12:13"
     id="a38"
     transform="translate(-2.2764417,-3.324)">
    <g
       transform="translate(10.7144,5.2872)"
       id="g32">
      <text
         font-family="sans-serif"
         font-size="2.224px"
         text-anchor="start"
         fill="currentColor"
         id="text30"><tspan
           id="tspan28">D</tspan></text>
    </g>
    <g
       transform="translate(12.633,4.9872)"
       id="g36">
      <path
         transform="scale(0.0036,-0.0036)"
         d="m 29,39 -2,-64 v -11 c 0,-22 2,-43 5,-65 44,38 91,80 91,138 0,33 -13,66 -42,66 C 50,103 30,72 29,39 Z m -57,415 c 9,5 18,8 28,8 10,0 19,-3 28,-8 L 21,111 c 25,23 58,36 92,36 51,0 87,-49 87,-103 0,-79 -84,-117 -144,-169 -16,-14 -25,-41 -47,-41 -14,0 -25,13 -25,27 z"
         fill="currentColor"
         id="path34" />
    </g>
  </a>
  <a
     style="color:inherit"
     xlink:href="textedit:///Users/tomsegarra/Documents/dev/dummies/lilypond_files/caa1ee4dd7aaad2115c4eee7f5ac0584.ly:25:4:5"
     id="a44"
     transform="translate(-2.2764417,-3.324)">
    <g
       transform="translate(10.7144,8.9382)"
       id="g42">
      <path
         transform="scale(0.0034,-0.0034)"
         d="m 70,205 c 80,0 46,-97 90,-97 15,0 52,45 59,59 6,13 26,13 31,0 L 129,-250 c -9,-7 -19,-11 -30,-11 -11,0 -21,4 -30,11 L 187,76 C 154,64 119,54 84,54 37,54 -3,88 -3,133 c 0,40 33,72 73,72 z"
         fill="currentColor"
         id="path40" />
    </g>
  </a>
  <g
     transform="translate(0.79975831,6.4642)"
     id="g48">
    <path
       transform="scale(0.0034,-0.0034)"
       d="m 646,2 c 0,-113 -74,-213 -180,-247 3,-34 5,-68 5,-102 0,-20 -1,-40 -2,-60 -7,-121 -91,-228 -209,-228 -108,0 -196,87 -196,196 0,58 53,104 112,104 54,0 95,-48 95,-104 0,-52 -43,-95 -95,-95 -10,0 -20,2 -29,6 26,-38 68,-63 116,-63 h 3 c 93,2 153,92 159,190 1,19 2,37 2,56 0,30 -2,60 -4,90 -5,-1 -43,-8 -88,-8 -194,0 -333,180 -333,375 0,177 130,307 246,442 -31,98 -53,170 -53,347 0,115 55,223 148,290 7,5 16,4 22,-1 68,-80 134,-243 134,-357 0,-143 -85,-255 -178,-364 21,-68 40,-137 57,-206 1,0 5,1 11,1 C 545,264 646,135 646,2 Z M 462,-202 c 66,24 111,88 111,162 0,89 -65,178 -170,190 28,-135 50,-272 59,-352 z M 75,26 c 0,-145 141,-245 263,-245 1,0 46,0 81,6 -7,65 -27,206 -61,363 -79,-8 -124,-61 -124,-119 0,-43 25,-89 80,-121 5,-5 7,-11 7,-16 0,-12 -10,-23 -22,-23 -16,0 -127,63 -127,188 0,89 58,175 161,198 -14,58 -29,116 -46,173 C 181,308 75,186 75,26 Z M 406,1042 C 307,995 244,894 244,785 c 0,-49 13,-111 38,-191 79,97 144,199 144,324 0,33 0,63 -20,124 z"
       fill="currentColor"
       id="path46" />
  </g>
  <a
     style="color:inherit"
     xlink:href="textedit:///Users/tomsegarra/Documents/dev/dummies/lilypond_files/caa1ee4dd7aaad2115c4eee7f5ac0584.ly:22:1:9"
     id="a50"
     transform="translate(-2.2764417,-3.324)" />
  <g
     transform="translate(4.9997583,5.6142)"
     id="g54">
    <path
       transform="scale(0.0034,-0.0034)"
       d="m 358,29 c -30,0 -74,23 -74,73 0,38 27,76 71,76 4,0 7,0 11,-1 -27,36 -69,59 -116,59 -106,0 -113,-74 -113,-188 0,-15 1,-31 1,-48 0,-17 -1,-33 -1,-48 0,-114 7,-188 113,-188 79,0 136,70 155,150 2,7 7,10 13,10 7,0 14,-5 14,-13 0,-21 -50,-175 -182,-175 C 191,-264 0,-244 0,0 0,63 18,264 250,264 365,264 424,155 424,99 424,60 394,29 358,29 Z"
       fill="currentColor"
       id="path52" />
  </g>
  <a
     style="color:inherit"
     xlink:href="textedit:///Users/tomsegarra/Documents/dev/dummies/lilypond_files/caa1ee4dd7aaad2115c4eee7f5ac0584.ly:20:19:20"
     id="a66"
     transform="translate(-2.2764417,-3.324)">
    <g
       transform="translate(33.662,5.2872)"
       id="g60">
      <text
         font-family="sans-serif"
         font-size="2.224px"
         text-anchor="start"
         fill="currentColor"
         id="text58"><tspan
           id="tspan56">A</tspan></text>
    </g>
    <g
       transform="translate(35.4099,4.9872)"
       id="g64">
      <path
         transform="scale(0.0036,-0.0036)"
         d="m 29,39 -2,-64 v -11 c 0,-22 2,-43 5,-65 44,38 91,80 91,138 0,33 -13,66 -42,66 C 50,103 30,72 29,39 Z m -57,415 c 9,5 18,8 28,8 10,0 19,-3 28,-8 L 21,111 c 25,23 58,36 92,36 51,0 87,-49 87,-103 0,-79 -84,-117 -144,-169 -16,-14 -25,-41 -47,-41 -14,0 -25,13 -25,27 z"
         fill="currentColor"
         id="path62" />
    </g>
  </a>
  <g
     color="#000000"
     id="g74"
     transform="translate(-2.2764417,-3.324)">
    <a
       style="color:inherit"
       xlink:href="textedit:///Users/tomsegarra/Documents/dev/dummies/lilypond_files/caa1ee4dd7aaad2115c4eee7f5ac0584.ly:25:23:24"
       id="a72">
      <g
         transform="translate(33.662,9.3632)"
         id="g70">
        <path
           transform="scale(0.0034,-0.0034)"
           d="m 215,137 c 67,0 111,-37 111,-92 0,-90 -111,-182 -215,-182 -67,0 -111,37 -111,92 0,90 111,182 215,182 z"
           fill="currentColor"
           id="path68" />
      </g>
    </a>
  </g>
  <a
     style="color:inherit"
     xlink:href="textedit:///Users/tomsegarra/Documents/dev/dummies/lilypond_files/caa1ee4dd7aaad2115c4eee7f5ac0584.ly:30:45:46"
     id="a82"
     transform="translate(-2.2764417,-3.324)">
    <g
       transform="translate(33.106,14.4382)"
       id="g80">
      <text
         font-family="serif"
         font-size="2.0989px"
         text-anchor="start"
         fill="currentColor"
         id="text78"><tspan
           id="tspan76">jin</tspan></text>
    </g>
  </a>
  <g
     color="#000000"
     id="g88"
     transform="translate(-2.2764417,-3.324)">
    <g
       transform="translate(34.7077,8.9382)"
       id="g86">
      <rect
         x="-0.061700001"
         y="-1.8556"
         width="0.1233"
         height="2.1282001"
         ry="0.039999999"
         fill="currentColor"
         id="rect84" />
    </g>
  </g>
  <g
     transform="translate(10.487958,8.0076)"
     id="g92">
    <polygon
       stroke-linejoin="round"
       stroke-linecap="round"
       stroke-width="0.08"
       fill="currentColor"
       stroke="currentColor"
       points="0.04,0.164 0.04,-0.164 6.4804,-0.0074 6.4804,0.3206 "
       id="polygon90" />
  </g>
  <g
     color="#000000"
     id="g100"
     transform="translate(-2.2764417,-3.324)">
    <a
       style="color:inherit"
       xlink:href="textedit:///Users/tomsegarra/Documents/dev/dummies/lilypond_files/caa1ee4dd7aaad2115c4eee7f5ac0584.ly:25:25:26"
       id="a98">
      <g
         transform="translate(36.5617,9.7882)"
         id="g96">
        <path
           transform="scale(0.0034,-0.0034)"
           d="m 215,137 c 67,0 111,-37 111,-92 0,-90 -111,-182 -215,-182 -67,0 -111,37 -111,92 0,90 111,182 215,182 z"
           fill="currentColor"
           id="path94" />
      </g>
    </a>
  </g>
  <a
     style="color:inherit"
     xlink:href="textedit:///Users/tomsegarra/Documents/dev/dummies/lilypond_files/caa1ee4dd7aaad2115c4eee7f5ac0584.ly:30:52:53"
     id="a108"
     transform="translate(-2.2764417,-3.324)">
    <g
       transform="translate(35.4253,14.4382)"
       id="g106">
      <text
         font-family="serif"
         font-size="2.0989px"
         text-anchor="start"
         fill="currentColor"
         id="text104"><tspan
           id="tspan102">gles</tspan></text>
    </g>
  </a>
  <g
     color="#000000"
     id="g114"
     transform="translate(-2.2764417,-3.324)">
    <g
       transform="translate(37.6074,8.9382)"
       id="g112">
      <rect
         x="-0.061700001"
         y="-1.8115"
         width="0.1233"
         height="2.5091"
         ry="0.039999999"
         fill="currentColor"
         id="rect110" />
    </g>
  </g>
  <g
     color="#ff0000"
     id="g122"
     transform="translate(-2.2764417,-3.324)">
    <a
       style="color:inherit"
       xlink:href="textedit:///Users/tomsegarra/Documents/dev/dummies/lilypond_files/caa1ee4dd7aaad2115c4eee7f5ac0584.ly:28:4:5"
       id="a120">
      <g
         transform="translate(40.6309,9.7882)"
         id="g118">
        <path
           transform="scale(0.0034,-0.0034)"
           d="m 215,137 c 67,0 111,-37 111,-92 0,-90 -111,-182 -215,-182 -67,0 -111,37 -111,92 0,90 111,182 215,182 z"
           fill="currentColor"
           id="path116" />
      </g>
    </a>
  </g>
  <a
     style="color:inherit"
     xlink:href="textedit:///Users/tomsegarra/Documents/dev/dummies/lilypond_files/caa1ee4dd7aaad2115c4eee7f5ac0584.ly:30:57:58"
     id="a130"
     transform="translate(-2.2764417,-3.324)">
    <g
       transform="translate(39.2555,14.4382)"
       id="g128">
      <text
         font-family="serif"
         font-size="2.0989px"
         text-anchor="start"
         fill="currentColor"
         id="text126"><tspan
           id="tspan124">used</tspan></text>
    </g>
  </a>
  <g
     color="#ff0000"
     id="g136"
     transform="translate(-2.2764417,-3.324)">
    <g
       transform="translate(41.6766,8.9382)"
       id="g134">
      <rect
         x="-0.061700001"
         y="-1.7496001"
         width="0.1233"
         height="2.4470999"
         ry="0.039999999"
         fill="currentColor"
         id="rect132" />
    </g>
  </g>
  <g
     transform="translate(20.871258,2.9076)"
     id="g140">
    <polygon
       stroke-linejoin="round"
       stroke-linecap="round"
       stroke-width="0.08"
       fill="currentColor"
       stroke="currentColor"
       points="0.04,0.164 0.04,-0.164 3.8366,0.1491 3.8366,0.4771 "
       id="polygon138" />
  </g>
  <g
     color="#ff0000"
     id="g148"
     transform="translate(-2.2764417,-3.324)">
    <a
       style="color:inherit"
       xlink:href="textedit:///Users/tomsegarra/Documents/dev/dummies/lilypond_files/caa1ee4dd7aaad2115c4eee7f5ac0584.ly:28:6:7"
       id="a146">
      <g
         transform="translate(43.8294,9.7882)"
         id="g144">
        <path
           transform="scale(0.0034,-0.0034)"
           d="m 215,137 c 67,0 111,-37 111,-92 0,-90 -111,-182 -215,-182 -67,0 -111,37 -111,92 0,90 111,182 215,182 z"
           fill="currentColor"
           id="path142" />
      </g>
    </a>
  </g>
  <a
     style="color:inherit"
     xlink:href="textedit:///Users/tomsegarra/Documents/dev/dummies/lilypond_files/caa1ee4dd7aaad2115c4eee7f5ac0584.ly:30:62:63"
     id="a156"
     transform="translate(-2.2764417,-3.324)">
    <g
       transform="translate(43.5637,14.4382)"
       id="g154">
      <text
         font-family="serif"
         font-size="2.0989px"
         text-anchor="start"
         fill="currentColor"
         id="text152"><tspan
           id="tspan150">to</tspan></text>
    </g>
  </a>
  <g
     color="#ff0000"
     id="g162"
     transform="translate(-2.2764417,-3.324)">
    <g
       transform="translate(44.8752,8.9382)"
       id="g160">
      <rect
         x="-0.061700001"
         y="-1.7009"
         width="0.1233"
         height="2.3985"
         ry="0.039999999"
         fill="currentColor"
         id="rect158" />
    </g>
  </g>
  <g
     color="#ff0000"
     id="g170"
     transform="translate(-2.2764417,-3.324)">
    <a
       style="color:inherit"
       xlink:href="textedit:///Users/tomsegarra/Documents/dev/dummies/lilypond_files/caa1ee4dd7aaad2115c4eee7f5ac0584.ly:28:8:9"
       id="a168">
      <g
         transform="translate(46.7294,9.7882)"
         id="g166">
        <path
           transform="scale(0.0034,-0.0034)"
           d="m 215,137 c 67,0 111,-37 111,-92 0,-90 -111,-182 -215,-182 -67,0 -111,37 -111,92 0,90 111,182 215,182 z"
           fill="currentColor"
           id="path164" />
      </g>
    </a>
  </g>
  <a
     style="color:inherit"
     xlink:href="textedit:///Users/tomsegarra/Documents/dev/dummies/lilypond_files/caa1ee4dd7aaad2115c4eee7f5ac0584.ly:30:65:66"
     id="a178"
     transform="translate(-2.2764417,-3.324)">
    <g
       transform="translate(46.2247,14.4382)"
       id="g176">
      <text
         font-family="serif"
         font-size="2.0989px"
         text-anchor="start"
         fill="currentColor"
         id="text174"><tspan
           id="tspan172">go</tspan></text>
    </g>
  </a>
  <g
     color="#ff0000"
     id="g184"
     transform="translate(-2.2764417,-3.324)">
    <g
       transform="translate(47.7752,8.9382)"
       id="g182">
      <rect
         x="-0.061700001"
         y="-2.125"
         width="0.1233"
         height="2.8225"
         ry="0.039999999"
         fill="currentColor"
         id="rect180" />
    </g>
  </g>
  <g
     color="#ff0000"
     id="g190"
     transform="translate(-2.2764417,-3.324)">
    <g
       transform="translate(47.8368,6.8532)"
       id="g188">
      <path
         transform="scale(0.0034,-0.0034)"
         d="m 0,0 c 0,-197 207,-335 207,-532 0,-71 -15,-141 -41,-207 -5,-8 -13,-12 -21,-12 -14,0 -27,11 -24,28 26,60 42,125 42,191 0,103 -93,207 -163,282 H -18 V 0 Z"
         fill="currentColor"
         id="path186" />
    </g>
  </g>
  <g
     color="#000000"
     id="g198"
     transform="translate(-2.2764417,-3.324)">
    <a
       style="color:inherit"
       xlink:href="textedit:///Users/tomsegarra/Documents/dev/dummies/lilypond_files/caa1ee4dd7aaad2115c4eee7f5ac0584.ly:25:7:8"
       id="a196">
      <g
         transform="translate(12.7644,8.5132)"
         id="g194">
        <path
           transform="scale(0.0034,-0.0034)"
           d="m 215,137 c 67,0 111,-37 111,-92 0,-90 -111,-182 -215,-182 -67,0 -111,37 -111,92 0,90 111,182 215,182 z"
           fill="currentColor"
           id="path192" />
      </g>
    </a>
  </g>
  <a
     style="color:inherit"
     xlink:href="textedit:///Users/tomsegarra/Documents/dev/dummies/lilypond_files/caa1ee4dd7aaad2115c4eee7f5ac0584.ly:30:15:16"
     id="a206"
     transform="translate(-2.2764417,-3.324)">
    <g
       transform="translate(11.7987,14.4382)"
       id="g204">
      <text
         font-family="serif"
         font-size="2.0989px"
         text-anchor="start"
         fill="currentColor"
         id="text202"><tspan
           id="tspan200">and</tspan></text>
    </g>
  </a>
  <g
     color="#000000"
     id="g212"
     transform="translate(-2.2764417,-3.324)">
    <g
       transform="translate(12.826,8.9382)"
       id="g210">
      <rect
         x="-0.061700001"
         y="-0.27250001"
         width="0.1233"
         height="2.6675"
         ry="0.039999999"
         fill="currentColor"
         id="rect208" />
    </g>
  </g>
  <g
     color="#000000"
     id="g220"
     transform="translate(-2.2764417,-3.324)">
    <a
       style="color:inherit"
       xlink:href="textedit:///Users/tomsegarra/Documents/dev/dummies/lilypond_files/caa1ee4dd7aaad2115c4eee7f5ac0584.ly:25:11:12"
       id="a218">
      <g
         transform="translate(16.3214,8.5132)"
         id="g216">
        <path
           transform="scale(0.0034,-0.0034)"
           d="m 215,137 c 67,0 111,-37 111,-92 0,-90 -111,-182 -215,-182 -67,0 -111,37 -111,92 0,90 111,182 215,182 z"
           fill="currentColor"
           id="path214" />
      </g>
    </a>
  </g>
  <a
     style="color:inherit"
     xlink:href="textedit:///Users/tomsegarra/Documents/dev/dummies/lilypond_files/caa1ee4dd7aaad2115c4eee7f5ac0584.ly:30:19:20"
     id="a228"
     transform="translate(-2.2764417,-3.324)">
    <g
       transform="translate(15.2875,14.4382)"
       id="g226">
      <text
         font-family="serif"
         font-size="2.0989px"
         text-anchor="start"
         fill="currentColor"
         id="text224"><tspan
           id="tspan222">you</tspan></text>
    </g>
  </a>
  <g
     color="#000000"
     id="g234"
     transform="translate(-2.2764417,-3.324)">
    <g
       transform="translate(16.3831,8.9382)"
       id="g232">
      <rect
         x="-0.061700001"
         y="-0.27250001"
         width="0.1233"
         height="2.7528999"
         ry="0.039999999"
         fill="currentColor"
         id="rect230" />
    </g>
  </g>
  <g
     transform="translate(32.369558,3.7576)"
     id="g238">
    <polygon
       stroke-linejoin="round"
       stroke-linecap="round"
       stroke-width="0.08"
       fill="currentColor"
       stroke="currentColor"
       points="0.04,0.164 0.04,-0.164 10.2508,-0.0074 10.2508,0.3206 "
       id="polygon236" />
  </g>
  <g
     color="#000000"
     id="g246"
     transform="translate(-2.2764417,-3.324)">
    <a
       style="color:inherit"
       xlink:href="textedit:///Users/tomsegarra/Documents/dev/dummies/lilypond_files/caa1ee4dd7aaad2115c4eee7f5ac0584.ly:25:13:14"
       id="a244">
      <g
         transform="translate(19.1615,8.9382)"
         id="g242">
        <path
           transform="scale(0.0034,-0.0034)"
           d="m 215,137 c 67,0 111,-37 111,-92 0,-90 -111,-182 -215,-182 -67,0 -111,37 -111,92 0,90 111,182 215,182 z"
           fill="currentColor"
           id="path240" />
      </g>
    </a>
  </g>
  <a
     style="color:inherit"
     xlink:href="textedit:///Users/tomsegarra/Documents/dev/dummies/lilypond_files/caa1ee4dd7aaad2115c4eee7f5ac0584.ly:30:23:24"
     id="a254"
     transform="translate(-2.2764417,-3.324)">
    <g
       transform="translate(18.9128,14.4382)"
       id="g252">
      <text
         font-family="serif"
         font-size="2.0989px"
         text-anchor="start"
         fill="currentColor"
         id="text250"><tspan
           id="tspan248">re</tspan></text>
    </g>
  </a>
  <g
     color="#000000"
     id="g260"
     transform="translate(-2.2764417,-3.324)">
    <g
       transform="translate(19.2231,8.9382)"
       id="g258">
      <rect
         x="-0.061700001"
         y="0.1525"
         width="0.1233"
         height="2.3961"
         ry="0.039999999"
         fill="currentColor"
         id="rect256" />
    </g>
  </g>
  <g
     color="#000000"
     id="g266"
     transform="translate(-2.2764417,-3.324)">
    <g
       transform="translate(31.3817,6.4282)"
       id="g264">
      <path
         transform="scale(0.0034,-0.0034)"
         d="m 0,0 c 0,-197 207,-335 207,-532 0,-71 -15,-141 -41,-207 -5,-8 -13,-12 -21,-12 -14,0 -27,11 -24,28 26,60 42,125 42,191 0,103 -93,207 -163,282 H -18 V 0 Z"
         fill="currentColor"
         id="path262" />
    </g>
  </g>
  <a
     style="color:inherit"
     xlink:href="textedit:///Users/tomsegarra/Documents/dev/dummies/lilypond_files/caa1ee4dd7aaad2115c4eee7f5ac0584.ly:20:15:16"
     id="a284"
     transform="translate(-2.2764417,-3.324)">
    <g
       transform="translate(22.1636,5.2872)"
       id="g272">
      <text
         font-family="sans-serif"
         font-size="2.224px"
         text-anchor="start"
         fill="currentColor"
         id="text270"><tspan
           id="tspan268">E</tspan></text>
    </g>
    <g
       transform="translate(23.775,4.9872)"
       id="g276">
      <path
         transform="scale(0.0036,-0.0036)"
         d="m 29,39 -2,-64 v -11 c 0,-22 2,-43 5,-65 44,38 91,80 91,138 0,33 -13,66 -42,66 C 50,103 30,72 29,39 Z m -57,415 c 9,5 18,8 28,8 10,0 19,-3 28,-8 L 21,111 c 25,23 58,36 92,36 51,0 87,-49 87,-103 0,-79 -84,-117 -144,-169 -16,-14 -25,-41 -47,-41 -14,0 -25,13 -25,27 z"
         fill="currentColor"
         id="path274" />
    </g>
    <g
       transform="translate(24.4954,5.2872)"
       id="g282">
      <text
         font-family="sans-serif"
         font-size="2.224px"
         text-anchor="start"
         fill="currentColor"
         id="text280"><tspan
           id="tspan278">m</tspan></text>
    </g>
  </a>
  <g
     color="#000000"
     id="g292"
     transform="translate(-2.2764417,-3.324)">
    <a
       style="color:inherit"
       xlink:href="textedit:///Users/tomsegarra/Documents/dev/dummies/lilypond_files/caa1ee4dd7aaad2115c4eee7f5ac0584.ly:25:15:16"
       id="a290">
      <g
         transform="translate(22.1636,8.9382)"
         id="g288">
        <path
           transform="scale(0.0034,-0.0034)"
           d="m 215,137 c 67,0 111,-37 111,-92 0,-90 -111,-182 -215,-182 -67,0 -111,37 -111,92 0,90 111,182 215,182 z"
           fill="currentColor"
           id="path286" />
      </g>
    </a>
  </g>
  <a
     style="color:inherit"
     xlink:href="textedit:///Users/tomsegarra/Documents/dev/dummies/lilypond_files/caa1ee4dd7aaad2115c4eee7f5ac0584.ly:30:29:30"
     id="a300"
     transform="translate(-2.2764417,-3.324)">
    <g
       transform="translate(20.6175,14.4382)"
       id="g298">
      <text
         font-family="serif"
         font-size="2.0989px"
         text-anchor="start"
         fill="currentColor"
         id="text296"><tspan
           id="tspan294">mem</tspan></text>
    </g>
  </a>
  <g
     color="#000000"
     id="g306"
     transform="translate(-2.2764417,-3.324)">
    <g
       transform="translate(23.2094,8.9382)"
       id="g304">
      <rect
         x="-0.061700001"
         y="-2.7016001"
         width="0.1233"
         height="2.5490999"
         ry="0.039999999"
         fill="currentColor"
         id="rect302" />
    </g>
  </g>
  <g
     color="#000000"
     id="g314"
     transform="translate(-2.2764417,-3.324)">
    <a
       style="color:inherit"
       xlink:href="textedit:///Users/tomsegarra/Documents/dev/dummies/lilypond_files/caa1ee4dd7aaad2115c4eee7f5ac0584.ly:25:17:18"
       id="a312">
      <g
         transform="translate(25.917,9.3632)"
         id="g310">
        <path
           transform="scale(0.0034,-0.0034)"
           d="m 215,137 c 67,0 111,-37 111,-92 0,-90 -111,-182 -215,-182 -67,0 -111,37 -111,92 0,90 111,182 215,182 z"
           fill="currentColor"
           id="path308" />
      </g>
    </a>
  </g>
  <a
     style="color:inherit"
     xlink:href="textedit:///Users/tomsegarra/Documents/dev/dummies/lilypond_files/caa1ee4dd7aaad2115c4eee7f5ac0584.ly:30:36:37"
     id="a322"
     transform="translate(-2.2764417,-3.324)">
    <g
       transform="translate(24.9171,14.4382)"
       id="g320">
      <text
         font-family="serif"
         font-size="2.0989px"
         text-anchor="start"
         fill="currentColor"
         id="text318"><tspan
           id="tspan316">ber,</tspan></text>
    </g>
  </a>
  <g
     color="#000000"
     id="g328"
     transform="translate(-2.2764417,-3.324)">
    <g
       transform="translate(26.9627,8.9382)"
       id="g326">
      <rect
         x="-0.061700001"
         y="-2.3984001"
         width="0.1233"
         height="2.671"
         ry="0.039999999"
         fill="currentColor"
         id="rect324" />
    </g>
  </g>
  <g
     color="#000000"
     id="g334"
     transform="translate(-2.2764417,-3.324)">
    <g
       transform="translate(31.3201,8.9382)"
       id="g332">
      <rect
         x="-0.061700001"
         y="-2.55"
         width="0.1233"
         height="2.8225"
         ry="0.039999999"
         fill="currentColor"
         id="rect330" />
    </g>
  </g>
  <a
     style="color:inherit"
     xlink:href="textedit:///Users/tomsegarra/Documents/dev/dummies/lilypond_files/caa1ee4dd7aaad2115c4eee7f5ac0584.ly:25:19:20"
     id="a340"
     transform="translate(-2.2764417,-3.324)">
    <g
       transform="translate(28.2244,8.9382)"
       id="g338">
      <path
         transform="scale(0.0034,-0.0034)"
         d="m 70,205 c 80,0 46,-97 90,-97 15,0 52,45 59,59 6,13 26,13 31,0 L 129,-250 c -9,-7 -19,-11 -30,-11 -11,0 -21,4 -30,11 L 187,76 C 154,64 119,54 84,54 37,54 -3,88 -3,133 c 0,40 33,72 73,72 z"
         fill="currentColor"
         id="path336" />
    </g>
  </a>
  <a
     style="color:inherit"
     xlink:href="textedit:///Users/tomsegarra/Documents/dev/dummies/lilypond_files/caa1ee4dd7aaad2115c4eee7f5ac0584.ly:30:41:42"
     id="a348"
     transform="translate(-2.2764417,-3.324)">
    <g
       transform="translate(29.5477,14.4382)"
       id="g346">
      <text
         font-family="serif"
         font-size="2.0989px"
         text-anchor="start"
         fill="currentColor"
         id="text344"><tspan
           id="tspan342">the</tspan></text>
    </g>
  </a>
  <g
     color="#000000"
     id="g356"
     transform="translate(-2.2764417,-3.324)">
    <a
       style="color:inherit"
       xlink:href="textedit:///Users/tomsegarra/Documents/dev/dummies/lilypond_files/caa1ee4dd7aaad2115c4eee7f5ac0584.ly:25:21:22"
       id="a354">
      <g
         transform="translate(30.2744,9.3632)"
         id="g352">
        <path
           transform="scale(0.0034,-0.0034)"
           d="m 215,137 c 67,0 111,-37 111,-92 0,-90 -111,-182 -215,-182 -67,0 -111,37 -111,92 0,90 111,182 215,182 z"
           fill="currentColor"
           id="path350" />
      </g>
    </a>
  </g>
</svg>
