<?xml version="1.0" encoding="UTF-8" standalone="no"?>
<svg
   version="1.2"
   width="51.450268mm"
   height="18.912472mm"
   viewBox="0 0 29.278101 10.762241"
   id="svg206"
   sodipodi:docname="cc94b52a7fc7a350d9cb16e2707e3deb.svg"
   xmlns:inkscape="http://www.inkscape.org/namespaces/inkscape"
   xmlns:sodipodi="http://sodipodi.sourceforge.net/DTD/sodipodi-0.dtd"
   xmlns:xlink="http://www.w3.org/1999/xlink"
   xmlns="http://www.w3.org/2000/svg"
   xmlns:svg="http://www.w3.org/2000/svg">
  <defs
     id="defs210" />
  <sodipodi:namedview
     id="namedview208"
     pagecolor="#ffffff"
     bordercolor="#000000"
     borderopacity="0.25"
     inkscape:showpageshadow="2"
     inkscape:pageopacity="0.0"
     inkscape:pagecheckerboard="0"
     inkscape:deskcolor="#d1d1d1"
     inkscape:document-units="mm" />
  <style
     type="text/css"
     id="style2"><![CDATA[
tspan { white-space: pre; }
]]></style>
  <!-- Page: 1/1 -->
  <g
     transform="translate(4.9997121e-5,5.7604124)"
     id="g6">
    <rect
       x="22.106001"
       y="-0.089900002"
       width="1.6611"
       height="0.17990001"
       ry="0.089900002"
       fill="currentColor"
       id="rect4" />
  </g>
  <g
     transform="translate(4.9997121e-5,6.6104124)"
     id="g10">
    <rect
       x="22.106001"
       y="-0.089900002"
       width="1.6611"
       height="0.17990001"
       ry="0.089900002"
       fill="currentColor"
       id="rect8" />
  </g>
  <g
     transform="translate(4.9997121e-5,7.4604124)"
     id="g14">
    <rect
       x="22.106001"
       y="-0.089900002"
       width="1.6611"
       height="0.17990001"
       ry="0.089900002"
       fill="currentColor"
       id="rect12" />
  </g>
  <g
     transform="translate(4.9997121e-5,5.7604124)"
     id="g18">
    <rect
       x="18.8563"
       y="-0.089900002"
       width="1.6611"
       height="0.17990001"
       ry="0.089900002"
       fill="currentColor"
       id="rect16" />
  </g>
  <g
     transform="translate(4.9997121e-5,6.6104124)"
     id="g22">
    <rect
       x="18.8563"
       y="-0.089900002"
       width="1.6611"
       height="0.17990001"
       ry="0.089900002"
       fill="currentColor"
       id="rect20" />
  </g>
  <g
     transform="translate(4.9997121e-5,7.4604124)"
     id="g26">
    <rect
       x="18.8563"
       y="-0.089900002"
       width="1.6611"
       height="0.17990001"
       ry="0.089900002"
       fill="currentColor"
       id="rect24" />
  </g>
  <g
     transform="translate(4.9997121e-5,5.7604124)"
     id="g30">
    <rect
       x="16.067499"
       y="-0.089900002"
       width="1.6611"
       height="0.17990001"
       ry="0.089900002"
       fill="currentColor"
       id="rect28" />
  </g>
  <g
     transform="translate(4.9997121e-5,6.6104124)"
     id="g34">
    <rect
       x="16.067499"
       y="-0.089900002"
       width="1.6611"
       height="0.17990001"
       ry="0.089900002"
       fill="currentColor"
       id="rect32" />
  </g>
  <g
     transform="translate(4.9997121e-5,7.4604124)"
     id="g38">
    <rect
       x="16.067499"
       y="-0.089900002"
       width="1.6611"
       height="0.17990001"
       ry="0.089900002"
       fill="currentColor"
       id="rect36" />
  </g>
  <g
     transform="translate(4.9997121e-5,5.7604124)"
     id="g42">
    <rect
       x="13.5518"
       y="-0.089900002"
       width="1.6611"
       height="0.17990001"
       ry="0.089900002"
       fill="currentColor"
       id="rect40" />
  </g>
  <g
     transform="translate(4.9997121e-5,6.6104124)"
     id="g46">
    <rect
       x="13.5518"
       y="-0.089900002"
       width="1.6611"
       height="0.17990001"
       ry="0.089900002"
       fill="currentColor"
       id="rect44" />
  </g>
  <g
     transform="translate(4.9997121e-5,7.4604124)"
     id="g50">
    <rect
       x="13.5518"
       y="-0.089900002"
       width="1.6611"
       height="0.17990001"
       ry="0.089900002"
       fill="currentColor"
       id="rect48" />
  </g>
  <g
     transform="translate(4.9997121e-5,5.7604124)"
     id="g54">
    <rect
       x="10.4813"
       y="-0.089900002"
       width="1.6611"
       height="0.17990001"
       ry="0.089900002"
       fill="currentColor"
       id="rect52" />
  </g>
  <g
     transform="translate(4.9997121e-5,6.6104124)"
     id="g58">
    <rect
       x="10.4813"
       y="-0.089900002"
       width="1.6611"
       height="0.17990001"
       ry="0.089900002"
       fill="currentColor"
       id="rect56" />
  </g>
  <g
     transform="translate(4.9997121e-5,7.4604124)"
     id="g62">
    <rect
       x="10.4813"
       y="-0.089900002"
       width="1.6611"
       height="0.17990001"
       ry="0.089900002"
       fill="currentColor"
       id="rect60" />
  </g>
  <g
     transform="translate(4.9997121e-5,4.9104124)"
     id="g66">
    <line
       stroke-linejoin="round"
       stroke-linecap="round"
       stroke-width="0.0949"
       stroke="currentColor"
       x1="0.047400001"
       y1="0"
       x2="29.2306"
       y2="0"
       id="line64" />
  </g>
  <g
     transform="translate(4.9997121e-5,4.0604124)"
     id="g70">
    <line
       stroke-linejoin="round"
       stroke-linecap="round"
       stroke-width="0.0949"
       stroke="currentColor"
       x1="0.047400001"
       y1="0"
       x2="29.2306"
       y2="0"
       id="line68" />
  </g>
  <g
     transform="translate(4.9997121e-5,3.2104124)"
     id="g74">
    <line
       stroke-linejoin="round"
       stroke-linecap="round"
       stroke-width="0.0949"
       stroke="currentColor"
       x1="0.047400001"
       y1="0"
       x2="29.2306"
       y2="0"
       id="line72" />
  </g>
  <g
     transform="translate(4.9997121e-5,2.3604124)"
     id="g78">
    <line
       stroke-linejoin="round"
       stroke-linecap="round"
       stroke-width="0.0949"
       stroke="currentColor"
       x1="0.047400001"
       y1="0"
       x2="29.2306"
       y2="0"
       id="line76" />
  </g>
  <g
     transform="translate(4.9997121e-5,1.5104124)"
     id="g82">
    <line
       stroke-linejoin="round"
       stroke-linecap="round"
       stroke-width="0.0949"
       stroke="currentColor"
       x1="0.047400001"
       y1="0"
       x2="29.2306"
       y2="0"
       id="line80" />
  </g>
  <g
     transform="translate(29.09785,3.2104124)"
     id="g86">
    <rect
       x="0"
       y="-1.7"
       width="0.1802"
       height="3.4000001"
       ry="0.0000"
       fill="currentColor"
       id="rect84" />
  </g>
  <g
     transform="translate(17.39015,3.2104124)"
     id="g90">
    <rect
       x="-0.061700001"
       y="0"
       width="0.1233"
       height="4.0974998"
       ry="0.039999999"
       fill="currentColor"
       id="rect88" />
  </g>
  <a
     style="color:inherit"
     xlink:href="textedit:///Users/tomsegarra/Documents/dev/dummies/lilypond_files/cc94b52a7fc7a350d9cb16e2707e3deb.ly:20:4:5"
     id="a96"
     transform="translate(-2.27615,-3.2762876)">
    <g
       transform="translate(13.0344,11.1617)"
       id="g94">
      <path
         transform="scale(0.0034,-0.0034)"
         d="m 215,137 c 67,0 111,-37 111,-92 0,-90 -111,-182 -215,-182 -67,0 -111,37 -111,92 0,90 111,182 215,182 z"
         fill="currentColor"
         id="path92" />
    </g>
  </a>
  <g
     transform="translate(0.80005,4.0604124)"
     id="g100">
    <path
       transform="scale(0.0034,-0.0034)"
       d="m 646,2 c 0,-113 -74,-213 -180,-247 3,-34 5,-68 5,-102 0,-20 -1,-40 -2,-60 -7,-121 -91,-228 -209,-228 -108,0 -196,87 -196,196 0,58 53,104 112,104 54,0 95,-48 95,-104 0,-52 -43,-95 -95,-95 -10,0 -20,2 -29,6 26,-38 68,-63 116,-63 h 3 c 93,2 153,92 159,190 1,19 2,37 2,56 0,30 -2,60 -4,90 -5,-1 -43,-8 -88,-8 -194,0 -333,180 -333,375 0,177 130,307 246,442 -31,98 -53,170 -53,347 0,115 55,223 148,290 7,5 16,4 22,-1 68,-80 134,-243 134,-357 0,-143 -85,-255 -178,-364 21,-68 40,-137 57,-206 1,0 5,1 11,1 C 545,264 646,135 646,2 Z M 462,-202 c 66,24 111,88 111,162 0,89 -65,178 -170,190 28,-135 50,-272 59,-352 z M 75,26 c 0,-145 141,-245 263,-245 1,0 46,0 81,6 -7,65 -27,206 -61,363 -79,-8 -124,-61 -124,-119 0,-43 25,-89 80,-121 5,-5 7,-11 7,-16 0,-12 -10,-23 -22,-23 -16,0 -127,63 -127,188 0,89 58,175 161,198 -14,58 -29,116 -46,173 C 181,308 75,186 75,26 Z M 406,1042 C 307,995 244,894 244,785 c 0,-49 13,-111 38,-191 79,97 144,199 144,324 0,33 0,63 -20,124 z"
       fill="currentColor"
       id="path98" />
  </g>
  <a
     style="color:inherit"
     xlink:href="textedit:///Users/tomsegarra/Documents/dev/dummies/lilypond_files/cc94b52a7fc7a350d9cb16e2707e3deb.ly:19:4:5"
     id="a110"
     transform="translate(-2.27615,-3.2762876)">
    <g
       transform="translate(6.5762,4.7867)"
       id="g104">
      <path
         transform="scale(0.0034,-0.0034)"
         d="m 217,-311 c 0,-11 -8,-19 -19,-19 -11,0 -20,8 -20,19 v 142 l -81,-30 v -156 c 0,-11 -9,-20 -20,-20 -11,0 -19,9 -19,20 v 142 l -28,-11 c -3,-1 -5,-1 -8,-1 -12,0 -22,10 -22,23 v 57 c 0,9 6,18 15,21 l 43,16 V 49 L 30,39 C 27,38 25,38 22,38 10,38 0,47 0,60 v 57 c 0,9 6,18 15,21 l 43,16 v 157 c 0,11 8,19 19,19 11,0 20,-8 20,-19 V 169 l 81,30 v 156 c 0,11 9,20 20,20 11,0 19,-9 19,-20 V 213 l 28,11 c 3,1 5,1 8,1 12,0 22,-10 22,-23 v -57 c 0,-9 -6,-18 -15,-21 L 217,108 V -49 l 28,10 c 3,1 5,1 8,1 12,0 22,-9 22,-22 v -57 c 0,-9 -6,-18 -15,-21 l -43,-16 z M 97,64 V -94 l 81,30 V 94 Z"
         fill="currentColor"
         id="path102" />
    </g>
    <g
       transform="translate(7.5112,6.0617)"
       id="g108">
      <path
         transform="scale(0.0034,-0.0034)"
         d="m 217,-311 c 0,-11 -8,-19 -19,-19 -11,0 -20,8 -20,19 v 142 l -81,-30 v -156 c 0,-11 -9,-20 -20,-20 -11,0 -19,9 -19,20 v 142 l -28,-11 c -3,-1 -5,-1 -8,-1 -12,0 -22,10 -22,23 v 57 c 0,9 6,18 15,21 l 43,16 V 49 L 30,39 C 27,38 25,38 22,38 10,38 0,47 0,60 v 57 c 0,9 6,18 15,21 l 43,16 v 157 c 0,11 8,19 19,19 11,0 20,-8 20,-19 V 169 l 81,30 v 156 c 0,11 9,20 20,20 11,0 19,-9 19,-20 V 213 l 28,11 c 3,1 5,1 8,1 12,0 22,-10 22,-23 v -57 c 0,-9 -6,-18 -15,-21 L 217,108 V -49 l 28,10 c 3,1 5,1 8,1 12,0 22,-9 22,-22 v -57 c 0,-9 -6,-18 -15,-21 l -43,-16 z M 97,64 V -94 l 81,30 V 94 Z"
         fill="currentColor"
         id="path106" />
    </g>
  </a>
  <g
     transform="translate(7.32005,3.2104124)"
     id="g114">
    <path
       transform="scale(0.0034,-0.0034)"
       d="m 358,29 c -30,0 -74,23 -74,73 0,38 27,76 71,76 4,0 7,0 11,-1 -27,36 -69,59 -116,59 -106,0 -113,-74 -113,-188 0,-15 1,-31 1,-48 0,-17 -1,-33 -1,-48 0,-114 7,-188 113,-188 79,0 136,70 155,150 2,7 7,10 13,10 7,0 14,-5 14,-13 0,-21 -50,-175 -182,-175 C 191,-264 0,-244 0,0 0,63 18,264 250,264 365,264 424,155 424,99 424,60 394,29 358,29 Z"
       fill="currentColor"
       id="path112" />
  </g>
  <a
     style="color:inherit"
     xlink:href="textedit:///Users/tomsegarra/Documents/dev/dummies/lilypond_files/cc94b52a7fc7a350d9cb16e2707e3deb.ly:23:4:5"
     id="a122"
     transform="translate(-2.27615,-3.2762876)">
    <g
       transform="translate(11.6248,13.5854)"
       id="g120">
      <text
         font-family="serif"
         font-size="2.0989px"
         text-anchor="start"
         fill="currentColor"
         id="text118"><tspan
           id="tspan116">Wait</tspan></text>
    </g>
  </a>
  <g
     transform="translate(11.80395,3.2104124)"
     id="g126">
    <rect
       x="-0.061700001"
       y="0"
       width="0.1233"
       height="4.5225"
       ry="0.039999999"
       fill="currentColor"
       id="rect124" />
  </g>
  <a
     style="color:inherit"
     xlink:href="textedit:///Users/tomsegarra/Documents/dev/dummies/lilypond_files/cc94b52a7fc7a350d9cb16e2707e3deb.ly:20:7:8"
     id="a132"
     transform="translate(-2.27615,-3.2762876)">
    <g
       transform="translate(16.1049,10.7367)"
       id="g130">
      <path
         transform="scale(0.0034,-0.0034)"
         d="m 215,137 c 67,0 111,-37 111,-92 0,-90 -111,-182 -215,-182 -67,0 -111,37 -111,92 0,90 111,182 215,182 z"
         fill="currentColor"
         id="path128" />
    </g>
  </a>
  <a
     style="color:inherit"
     xlink:href="textedit:///Users/tomsegarra/Documents/dev/dummies/lilypond_files/cc94b52a7fc7a350d9cb16e2707e3deb.ly:23:12:13"
     id="a140"
     transform="translate(-2.27615,-3.2762876)">
    <g
       transform="translate(15.6513,13.5854)"
       id="g138">
      <text
         font-family="serif"
         font-size="2.0989px"
         text-anchor="start"
         fill="currentColor"
         id="text136"><tspan
           id="tspan134">in'</tspan></text>
    </g>
  </a>
  <g
     transform="translate(14.87445,3.2104124)"
     id="g144">
    <rect
       x="-0.061700001"
       y="0"
       width="0.1233"
       height="4.0974998"
       ry="0.039999999"
       fill="currentColor"
       id="rect142" />
  </g>
  <g
     transform="translate(11.74235,3.2104124)"
     id="g148">
    <polygon
       stroke-linejoin="round"
       stroke-linecap="round"
       stroke-width="0.08"
       fill="currentColor"
       stroke="currentColor"
       points="0.04,0.164 0.04,-0.164 8.4583,-0.164 8.4583,0.164 "
       id="polygon146" />
  </g>
  <a
     style="color:inherit"
     xlink:href="textedit:///Users/tomsegarra/Documents/dev/dummies/lilypond_files/cc94b52a7fc7a350d9cb16e2707e3deb.ly:20:11:12"
     id="a154"
     transform="translate(-2.27615,-3.2762876)">
    <g
       transform="translate(18.6205,10.7367)"
       id="g152">
      <path
         transform="scale(0.0034,-0.0034)"
         d="m 215,137 c 67,0 111,-37 111,-92 0,-90 -111,-182 -215,-182 -67,0 -111,37 -111,92 0,90 111,182 215,182 z"
         fill="currentColor"
         id="path150" />
    </g>
  </a>
  <a
     style="color:inherit"
     xlink:href="textedit:///Users/tomsegarra/Documents/dev/dummies/lilypond_files/cc94b52a7fc7a350d9cb16e2707e3deb.ly:23:16:17"
     id="a162"
     transform="translate(-2.27615,-3.2762876)">
    <g
       transform="translate(18.1158,13.5854)"
       id="g160">
      <text
         font-family="serif"
         font-size="2.0989px"
         text-anchor="start"
         fill="currentColor"
         id="text158"><tspan
           id="tspan156">on</tspan></text>
    </g>
  </a>
  <a
     style="color:inherit"
     xlink:href="textedit:///Users/tomsegarra/Documents/dev/dummies/lilypond_files/cc94b52a7fc7a350d9cb16e2707e3deb.ly:20:22:23"
     id="a168"
     transform="translate(-2.27615,-3.2762876)">
    <g
       transform="translate(28.1665,6.4867)"
       id="g166">
      <path
         transform="scale(0.0034,-0.0034)"
         d="m -8,78 c 0,59 125,83 125,182 0,25 -9,49 -26,69 l -33,40 c -3,4 -4,7 -4,11 0,9 9,17 18,17 4,0 8,-2 12,-6 L 234,212 c 7,-9 11,-18 11,-26 0,-59 -125,-83 -125,-182 0,-25 8,-49 25,-69 l 82,-97 c 3,-4 4,-7 4,-11 0,-9 -8,-17 -17,-17 -10,0 -42,42 -106,42 -19,0 -54,-1 -54,-66 0,-34 10,-73 27,-93 7,-9 -5,-20 -12,-11 -45,53 -93,147 -93,201 0,42 27,42 43,42 31,0 74,-11 113,-27 L 3,52 C -4,61 -8,70 -8,78 Z"
         fill="currentColor"
         id="path164" />
    </g>
  </a>
  <a
     style="color:inherit"
     xlink:href="textedit:///Users/tomsegarra/Documents/dev/dummies/lilypond_files/cc94b52a7fc7a350d9cb16e2707e3deb.ly:20:15:16"
     id="a174"
     transform="translate(-2.27615,-3.2762876)">
    <g
       transform="translate(21.4093,11.1617)"
       id="g172">
      <path
         transform="scale(0.0034,-0.0034)"
         d="m 215,137 c 67,0 111,-37 111,-92 0,-90 -111,-182 -215,-182 -67,0 -111,37 -111,92 0,90 111,182 215,182 z"
         fill="currentColor"
         id="path170" />
    </g>
  </a>
  <a
     style="color:inherit"
     xlink:href="textedit:///Users/tomsegarra/Documents/dev/dummies/lilypond_files/cc94b52a7fc7a350d9cb16e2707e3deb.ly:23:19:20"
     id="a182"
     transform="translate(-2.27615,-3.2762876)">
    <g
       transform="translate(20.6827,13.5854)"
       id="g180">
      <text
         font-family="serif"
         font-size="2.0989px"
         text-anchor="start"
         fill="currentColor"
         id="text178"><tspan
           id="tspan176">the</tspan></text>
    </g>
  </a>
  <g
     transform="translate(20.17895,3.2104124)"
     id="g186">
    <rect
       x="-0.061700001"
       y="0"
       width="0.1233"
       height="4.5225"
       ry="0.039999999"
       fill="currentColor"
       id="rect184" />
  </g>
  <a
     style="color:inherit"
     xlink:href="textedit:///Users/tomsegarra/Documents/dev/dummies/lilypond_files/cc94b52a7fc7a350d9cb16e2707e3deb.ly:20:17:18"
     id="a192"
     transform="translate(-2.27615,-3.2762876)">
    <g
       transform="translate(24.6591,10.7367)"
       id="g190">
      <path
         transform="scale(0.0034,-0.0034)"
         d="m 215,137 c 67,0 111,-37 111,-92 0,-90 -111,-182 -215,-182 -67,0 -111,37 -111,92 0,90 111,182 215,182 z"
         fill="currentColor"
         id="path188" />
    </g>
  </a>
  <a
     style="color:inherit"
     xlink:href="textedit:///Users/tomsegarra/Documents/dev/dummies/lilypond_files/cc94b52a7fc7a350d9cb16e2707e3deb.ly:23:23:24"
     id="a200"
     transform="translate(-2.27615,-3.2762876)">
    <g
       transform="translate(23.6934,13.5854)"
       id="g198">
      <text
         font-family="serif"
         font-size="2.0989px"
         text-anchor="start"
         fill="currentColor"
         id="text196"><tspan
           id="tspan194">day</tspan></text>
    </g>
  </a>
  <g
     transform="translate(23.42865,3.2104124)"
     id="g204">
    <rect
       x="-0.061700001"
       y="0"
       width="0.1233"
       height="4.0974998"
       ry="0.039999999"
       fill="currentColor"
       id="rect202" />
  </g>
</svg>
