<?xml version="1.0" encoding="UTF-8" standalone="no"?>
<svg
   version="1.2"
   width="79.198814mm"
   height="16.613285mm"
   viewBox="0 0 45.066051 9.4538766"
   id="svg316"
   sodipodi:docname="ce79bd9979a7b7e1ff801d4544d762a9.svg"
   xmlns:inkscape="http://www.inkscape.org/namespaces/inkscape"
   xmlns:sodipodi="http://sodipodi.sourceforge.net/DTD/sodipodi-0.dtd"
   xmlns:xlink="http://www.w3.org/1999/xlink"
   xmlns="http://www.w3.org/2000/svg"
   xmlns:svg="http://www.w3.org/2000/svg">
  <defs
     id="defs320" />
  <sodipodi:namedview
     id="namedview318"
     pagecolor="#ffffff"
     bordercolor="#000000"
     borderopacity="0.25"
     inkscape:showpageshadow="2"
     inkscape:pageopacity="0.0"
     inkscape:pagecheckerboard="0"
     inkscape:deskcolor="#d1d1d1"
     inkscape:document-units="mm" />
  <style
     type="text/css"
     id="style2"><![CDATA[
tspan { white-space: pre; }
]]></style>
  <!-- Page: 1/1 -->
  <g
     transform="translate(28.955502,3.9251812)"
     id="g6">
    <rect
       x="0"
       y="-1.7"
       width="0.1802"
       height="3.4000001"
       ry="0.0000"
       fill="currentColor"
       id="rect4" />
  </g>
  <g
     transform="translate(-0.00129754,5.6251812)"
     id="g10">
    <line
       stroke-linejoin="round"
       stroke-linecap="round"
       stroke-width="0.0949"
       stroke="currentColor"
       x1="0.047400001"
       y1="0"
       x2="45.021"
       y2="0"
       id="line8" />
  </g>
  <g
     transform="translate(-0.00129754,4.7751812)"
     id="g14">
    <line
       stroke-linejoin="round"
       stroke-linecap="round"
       stroke-width="0.0949"
       stroke="currentColor"
       x1="0.047400001"
       y1="0"
       x2="45.021"
       y2="0"
       id="line12" />
  </g>
  <g
     transform="translate(-0.00129754,3.9251812)"
     id="g18">
    <line
       stroke-linejoin="round"
       stroke-linecap="round"
       stroke-width="0.0949"
       stroke="currentColor"
       x1="0.047400001"
       y1="0"
       x2="45.021"
       y2="0"
       id="line16" />
  </g>
  <g
     transform="translate(-0.00129754,3.0751812)"
     id="g22">
    <line
       stroke-linejoin="round"
       stroke-linecap="round"
       stroke-width="0.0949"
       stroke="currentColor"
       x1="0.047400001"
       y1="0"
       x2="45.021"
       y2="0"
       id="line20" />
  </g>
  <g
     transform="translate(-0.00129754,2.2251812)"
     id="g26">
    <line
       stroke-linejoin="round"
       stroke-linecap="round"
       stroke-width="0.0949"
       stroke="currentColor"
       x1="0.047400001"
       y1="0"
       x2="45.021"
       y2="0"
       id="line24" />
  </g>
  <a
     style="color:inherit"
     xlink:href="textedit:///Users/tomsegarra/Documents/dev/dummies/lilypond_files/ce79bd9979a7b7e1ff801d4544d762a9.ly:30:18:19"
     id="a32"
     transform="translate(-2.2774975,-3.2762188)">
    <g
       transform="translate(16.6332,12.7014)"
       id="g30">
      <rect
         x="0"
         y="-0.54329997"
         width="0.30000001"
         height="0.1233"
         ry="0.037900001"
         fill="currentColor"
         id="rect28" />
    </g>
  </a>
  <a
     style="color:inherit"
     xlink:href="textedit:///Users/tomsegarra/Documents/dev/dummies/lilypond_files/ce79bd9979a7b7e1ff801d4544d762a9.ly:20:12:13"
     id="a40"
     transform="translate(-2.2774975,-3.2762188)">
    <g
       transform="translate(13.0344,4.9225)"
       id="g38">
      <text
         font-family="sans-serif"
         font-size="2.224px"
         text-anchor="start"
         fill="currentColor"
         id="text36"><tspan
           id="tspan34">G</tspan></text>
    </g>
  </a>
  <a
     style="color:inherit"
     xlink:href="textedit:///Users/tomsegarra/Documents/dev/dummies/lilypond_files/ce79bd9979a7b7e1ff801d4544d762a9.ly:24:4:5"
     id="a46"
     transform="translate(-2.2774975,-3.2762188)">
    <g
       transform="translate(13.0344,7.2014)"
       id="g44">
      <path
         transform="scale(0.0034,-0.0034)"
         d="m 70,205 c 80,0 46,-97 90,-97 15,0 52,45 59,59 6,13 26,13 31,0 L 129,-250 c -9,-7 -19,-11 -30,-11 -11,0 -21,4 -30,11 L 187,76 C 154,64 119,54 84,54 37,54 -3,88 -3,133 c 0,40 33,72 73,72 z"
         fill="currentColor"
         id="path42" />
    </g>
  </a>
  <g
     transform="translate(0.79870246,4.7751812)"
     id="g50">
    <path
       transform="scale(0.0034,-0.0034)"
       d="m 646,2 c 0,-113 -74,-213 -180,-247 3,-34 5,-68 5,-102 0,-20 -1,-40 -2,-60 -7,-121 -91,-228 -209,-228 -108,0 -196,87 -196,196 0,58 53,104 112,104 54,0 95,-48 95,-104 0,-52 -43,-95 -95,-95 -10,0 -20,2 -29,6 26,-38 68,-63 116,-63 h 3 c 93,2 153,92 159,190 1,19 2,37 2,56 0,30 -2,60 -4,90 -5,-1 -43,-8 -88,-8 -194,0 -333,180 -333,375 0,177 130,307 246,442 -31,98 -53,170 -53,347 0,115 55,223 148,290 7,5 16,4 22,-1 68,-80 134,-243 134,-357 0,-143 -85,-255 -178,-364 21,-68 40,-137 57,-206 1,0 5,1 11,1 C 545,264 646,135 646,2 Z M 462,-202 c 66,24 111,88 111,162 0,89 -65,178 -170,190 28,-135 50,-272 59,-352 z M 75,26 c 0,-145 141,-245 263,-245 1,0 46,0 81,6 -7,65 -27,206 -61,363 -79,-8 -124,-61 -124,-119 0,-43 25,-89 80,-121 5,-5 7,-11 7,-16 0,-12 -10,-23 -22,-23 -16,0 -127,63 -127,188 0,89 58,175 161,198 -14,58 -29,116 -46,173 C 181,308 75,186 75,26 Z M 406,1042 C 307,995 244,894 244,785 c 0,-49 13,-111 38,-191 79,97 144,199 144,324 0,33 0,63 -20,124 z"
       fill="currentColor"
       id="path48" />
  </g>
  <a
     style="color:inherit"
     xlink:href="textedit:///Users/tomsegarra/Documents/dev/dummies/lilypond_files/ce79bd9979a7b7e1ff801d4544d762a9.ly:23:1:9"
     id="a60"
     transform="translate(-2.2774975,-3.2762188)">
    <g
       transform="translate(6.5762,5.5014)"
       id="g54">
      <path
         transform="scale(0.0034,-0.0034)"
         d="m 217,-311 c 0,-11 -8,-19 -19,-19 -11,0 -20,8 -20,19 v 142 l -81,-30 v -156 c 0,-11 -9,-20 -20,-20 -11,0 -19,9 -19,20 v 142 l -28,-11 c -3,-1 -5,-1 -8,-1 -12,0 -22,10 -22,23 v 57 c 0,9 6,18 15,21 l 43,16 V 49 L 30,39 C 27,38 25,38 22,38 10,38 0,47 0,60 v 57 c 0,9 6,18 15,21 l 43,16 v 157 c 0,11 8,19 19,19 11,0 20,-8 20,-19 V 169 l 81,30 v 156 c 0,11 9,20 20,20 11,0 19,-9 19,-20 V 213 l 28,11 c 3,1 5,1 8,1 12,0 22,-10 22,-23 v -57 c 0,-9 -6,-18 -15,-21 L 217,108 V -49 l 28,10 c 3,1 5,1 8,1 12,0 22,-9 22,-22 v -57 c 0,-9 -6,-18 -15,-21 l -43,-16 z M 97,64 V -94 l 81,30 V 94 Z"
         fill="currentColor"
         id="path52" />
    </g>
    <g
       transform="translate(7.5112,6.7764)"
       id="g58">
      <path
         transform="scale(0.0034,-0.0034)"
         d="m 217,-311 c 0,-11 -8,-19 -19,-19 -11,0 -20,8 -20,19 v 142 l -81,-30 v -156 c 0,-11 -9,-20 -20,-20 -11,0 -19,9 -19,20 v 142 l -28,-11 c -3,-1 -5,-1 -8,-1 -12,0 -22,10 -22,23 v 57 c 0,9 6,18 15,21 l 43,16 V 49 L 30,39 C 27,38 25,38 22,38 10,38 0,47 0,60 v 57 c 0,9 6,18 15,21 l 43,16 v 157 c 0,11 8,19 19,19 11,0 20,-8 20,-19 V 169 l 81,30 v 156 c 0,11 9,20 20,20 11,0 19,-9 19,-20 V 213 l 28,11 c 3,1 5,1 8,1 12,0 22,-10 22,-23 v -57 c 0,-9 -6,-18 -15,-21 L 217,108 V -49 l 28,10 c 3,1 5,1 8,1 12,0 22,-9 22,-22 v -57 c 0,-9 -6,-18 -15,-21 l -43,-16 z M 97,64 V -94 l 81,30 V 94 Z"
         fill="currentColor"
         id="path56" />
    </g>
  </a>
  <g
     transform="translate(7.3187025,3.9251812)"
     id="g64">
    <path
       transform="scale(0.0034,-0.0034)"
       d="m 358,29 c -30,0 -74,23 -74,73 0,38 27,76 71,76 4,0 7,0 11,-1 -27,36 -69,59 -116,59 -106,0 -113,-74 -113,-188 0,-15 1,-31 1,-48 0,-17 -1,-33 -1,-48 0,-114 7,-188 113,-188 79,0 136,70 155,150 2,7 7,10 13,10 7,0 14,-5 14,-13 0,-21 -50,-175 -182,-175 C 191,-264 0,-244 0,0 0,63 18,264 250,264 365,264 424,155 424,99 424,60 394,29 358,29 Z"
       fill="currentColor"
       id="path62" />
  </g>
  <a
     style="color:inherit"
     xlink:href="textedit:///Users/tomsegarra/Documents/dev/dummies/lilypond_files/ce79bd9979a7b7e1ff801d4544d762a9.ly:25:4:5"
     id="a70"
     transform="translate(-2.2774975,-3.2762188)">
    <g
       transform="translate(32.3133,7.2014)"
       id="g68">
      <path
         transform="scale(0.0034,-0.0034)"
         d="m 215,137 c 67,0 111,-37 111,-92 0,-90 -111,-182 -215,-182 -67,0 -111,37 -111,92 0,90 111,182 215,182 z"
         fill="currentColor"
         id="path66" />
    </g>
  </a>
  <a
     style="color:inherit"
     xlink:href="textedit:///Users/tomsegarra/Documents/dev/dummies/lilypond_files/ce79bd9979a7b7e1ff801d4544d762a9.ly:30:45:46"
     id="a78"
     transform="translate(-2.2774975,-3.2762188)">
    <g
       transform="translate(31.4842,12.7014)"
       id="g76">
      <text
         font-family="serif"
         font-size="2.0989px"
         text-anchor="start"
         fill="currentColor"
         id="text74"><tspan
           id="tspan72">felt</tspan></text>
    </g>
  </a>
  <g
     transform="translate(31.081502,3.9251812)"
     id="g82">
    <rect
       x="-0.061700001"
       y="-2.5486"
       width="0.1233"
       height="2.3961999"
       ry="0.039999999"
       fill="currentColor"
       id="rect80" />
  </g>
  <a
     style="color:inherit"
     xlink:href="textedit:///Users/tomsegarra/Documents/dev/dummies/lilypond_files/ce79bd9979a7b7e1ff801d4544d762a9.ly:25:6:7"
     id="a88"
     transform="translate(-2.2774975,-3.2762188)">
    <g
       transform="translate(34.6998,7.6264)"
       id="g86">
      <path
         transform="scale(0.0034,-0.0034)"
         d="m 215,137 c 67,0 111,-37 111,-92 0,-90 -111,-182 -215,-182 -67,0 -111,37 -111,92 0,90 111,182 215,182 z"
         fill="currentColor"
         id="path84" />
    </g>
  </a>
  <a
     style="color:inherit"
     xlink:href="textedit:///Users/tomsegarra/Documents/dev/dummies/lilypond_files/ce79bd9979a7b7e1ff801d4544d762a9.ly:30:50:51"
     id="a96"
     transform="translate(-2.2774975,-3.2762188)">
    <g
       transform="translate(34.6998,12.7014)"
       id="g94">
      <text
         font-family="serif"
         font-size="2.0989px"
         text-anchor="start"
         fill="currentColor"
         id="text92"><tspan
           id="tspan90">like</tspan></text>
    </g>
  </a>
  <g
     transform="translate(33.468002,3.9251812)"
     id="g100">
    <rect
       x="-0.061700001"
       y="-2.4962001"
       width="0.1233"
       height="2.7686999"
       ry="0.039999999"
       fill="currentColor"
       id="rect98" />
  </g>
  <a
     style="color:inherit"
     xlink:href="textedit:///Users/tomsegarra/Documents/dev/dummies/lilypond_files/ce79bd9979a7b7e1ff801d4544d762a9.ly:25:9:10"
     id="a106"
     transform="translate(-2.2774975,-3.2762188)">
    <g
       transform="translate(37.0072,7.6264)"
       id="g104">
      <path
         transform="scale(0.0034,-0.0034)"
         d="m 215,137 c 67,0 111,-37 111,-92 0,-90 -111,-182 -215,-182 -67,0 -111,37 -111,92 0,90 111,182 215,182 z"
         fill="currentColor"
         id="path102" />
    </g>
  </a>
  <g
     transform="translate(35.775402,3.9251812)"
     id="g110">
    <rect
       x="-0.061700001"
       y="-2.4454999"
       width="0.1233"
       height="2.7179999"
       ry="0.039999999"
       fill="currentColor"
       id="rect108" />
  </g>
  <g
     transform="translate(12.806902,5.6251812)"
     id="g114">
    <polygon
       stroke-linejoin="round"
       stroke-linecap="round"
       stroke-width="0.08"
       fill="currentColor"
       stroke="currentColor"
       points="0.04,0.164 0.04,-0.164 4.6981,-0.164 4.6981,0.164 "
       id="polygon112" />
  </g>
  <g
     color="#ff0000"
     id="g122"
     transform="translate(-2.2774975,-3.2762188)">
    <a
       style="color:inherit"
       xlink:href="textedit:///Users/tomsegarra/Documents/dev/dummies/lilypond_files/ce79bd9979a7b7e1ff801d4544d762a9.ly:28:4:5"
       id="a120">
      <g
         transform="translate(39.3145,7.6264)"
         id="g118">
        <path
           transform="scale(0.0034,-0.0034)"
           d="m 215,137 c 67,0 111,-37 111,-92 0,-90 -111,-182 -215,-182 -67,0 -111,37 -111,92 0,90 111,182 215,182 z"
           fill="currentColor"
           id="path116" />
      </g>
    </a>
  </g>
  <a
     style="color:inherit"
     xlink:href="textedit:///Users/tomsegarra/Documents/dev/dummies/lilypond_files/ce79bd9979a7b7e1ff801d4544d762a9.ly:30:55:56"
     id="a130"
     transform="translate(-2.2774975,-3.2762188)">
    <g
       transform="translate(38.3489,12.7014)"
       id="g128">
      <text
         font-family="serif"
         font-size="2.0989px"
         text-anchor="start"
         fill="currentColor"
         id="text126"><tspan
           id="tspan124">this</tspan></text>
    </g>
  </a>
  <g
     color="#ff0000"
     id="g136"
     transform="translate(-2.2774975,-3.2762188)">
    <g
       transform="translate(40.3603,7.2014)"
       id="g134">
      <rect
         x="-0.061700001"
         y="-2.3947999"
         width="0.1233"
         height="2.6673"
         ry="0.039999999"
         fill="currentColor"
         id="rect132" />
    </g>
  </g>
  <g
     color="#ff0000"
     id="g144"
     transform="translate(-2.2774975,-3.2762188)">
    <a
       style="color:inherit"
       xlink:href="textedit:///Users/tomsegarra/Documents/dev/dummies/lilypond_files/ce79bd9979a7b7e1ff801d4544d762a9.ly:28:6:7"
       id="a142">
      <g
         transform="translate(42.2741,8.4764)"
         id="g140">
        <path
           transform="scale(0.0034,-0.0034)"
           d="m 215,137 c 67,0 111,-37 111,-92 0,-90 -111,-182 -215,-182 -67,0 -111,37 -111,92 0,90 111,182 215,182 z"
           fill="currentColor"
           id="path138" />
      </g>
    </a>
  </g>
  <a
     style="color:inherit"
     xlink:href="textedit:///Users/tomsegarra/Documents/dev/dummies/lilypond_files/ce79bd9979a7b7e1ff801d4544d762a9.ly:30:60:61"
     id="a152"
     transform="translate(-2.2774975,-3.2762188)">
    <g
       transform="translate(41.8376,12.7014)"
       id="g150">
      <text
         font-family="serif"
         font-size="2.0989px"
         text-anchor="start"
         fill="currentColor"
         id="text148"><tspan
           id="tspan146">be</tspan></text>
    </g>
  </a>
  <g
     color="#ff0000"
     id="g158"
     transform="translate(-2.2774975,-3.2762188)">
    <g
       transform="translate(43.3198,7.2014)"
       id="g156">
      <rect
         x="-0.061700001"
         y="-1.7"
         width="0.1233"
         height="2.8225"
         ry="0.039999999"
         fill="currentColor"
         id="rect154" />
    </g>
  </g>
  <g
     color="#ff0000"
     id="g164"
     transform="translate(-2.2774975,-3.2762188)">
    <g
       transform="translate(43.3815,5.5414)"
       id="g162">
      <path
         transform="scale(0.0034,-0.0034)"
         d="m 0,0 c 0,-197 207,-335 207,-532 0,-71 -15,-141 -41,-207 -5,-8 -13,-12 -21,-12 -14,0 -27,11 -24,28 26,60 42,125 42,191 0,103 -93,207 -163,282 H -18 V 0 Z"
         fill="currentColor"
         id="path160" />
    </g>
  </g>
  <g
     color="#ff0000"
     id="g172"
     transform="translate(-2.2774975,-3.2762188)">
    <a
       style="color:inherit"
       xlink:href="textedit:///Users/tomsegarra/Documents/dev/dummies/lilypond_files/ce79bd9979a7b7e1ff801d4544d762a9.ly:28:8:9"
       id="a170">
      <g
         transform="translate(45.0373,7.2014)"
         id="g168">
        <path
           transform="scale(0.0034,-0.0034)"
           d="m 215,137 c 67,0 111,-37 111,-92 0,-90 -111,-182 -215,-182 -67,0 -111,37 -111,92 0,90 111,182 215,182 z"
           fill="currentColor"
           id="path166" />
      </g>
    </a>
  </g>
  <a
     style="color:inherit"
     xlink:href="textedit:///Users/tomsegarra/Documents/dev/dummies/lilypond_files/ce79bd9979a7b7e1ff801d4544d762a9.ly:30:66:67"
     id="a180"
     transform="translate(-2.2774975,-3.2762188)">
    <g
       transform="translate(43.9179,12.7014)"
       id="g178">
      <text
         font-family="serif"
         font-size="2.0989px"
         text-anchor="start"
         fill="currentColor"
         id="text176"><tspan
           id="tspan174">fore</tspan></text>
    </g>
  </a>
  <g
     color="#ff0000"
     id="g186"
     transform="translate(-2.2774975,-3.2762188)">
    <g
       transform="translate(45.0989,7.2014)"
       id="g184">
      <rect
         x="-0.061700001"
         y="0.1525"
         width="0.1233"
         height="2.7163"
         ry="0.039999999"
         fill="currentColor"
         id="rect182" />
    </g>
  </g>
  <g
     color="#ff0000"
     id="g192"
     transform="translate(-2.2774975,-3.2762188)">
    <g
       transform="translate(45.1606,10.0302)"
       id="g190">
      <path
         transform="scale(0.0034,-0.0034)"
         d="M 0,0 H -18 V 250 H 0 Z m 0,0 v 250 c 96,59 222,149 222,259 0,57 -15,111 -40,162 -3,17 10,29 24,29 8,0 16,-5 21,-13 25,-56 40,-116 40,-178 C 267,306 0,203 0,0 Z"
         fill="currentColor"
         id="path188" />
    </g>
  </g>
  <g
     transform="translate(24.356502,6.3185812)"
     id="g196">
    <polygon
       stroke-linejoin="round"
       stroke-linecap="round"
       stroke-width="0.08"
       fill="currentColor"
       stroke="currentColor"
       points="0.04,0.164 0.04,-0.164 2.5051,0.1491 2.5051,0.4771 "
       id="polygon194" />
  </g>
  <a
     style="color:inherit"
     xlink:href="textedit:///Users/tomsegarra/Documents/dev/dummies/lilypond_files/ce79bd9979a7b7e1ff801d4544d762a9.ly:24:7:8"
     id="a202"
     transform="translate(-2.2774975,-3.2762188)">
    <g
       transform="translate(15.0844,6.3514)"
       id="g200">
      <path
         transform="scale(0.0034,-0.0034)"
         d="m 215,137 c 67,0 111,-37 111,-92 0,-90 -111,-182 -215,-182 -67,0 -111,37 -111,92 0,90 111,182 215,182 z"
         fill="currentColor"
         id="path198" />
    </g>
  </a>
  <a
     style="color:inherit"
     xlink:href="textedit:///Users/tomsegarra/Documents/dev/dummies/lilypond_files/ce79bd9979a7b7e1ff801d4544d762a9.ly:30:15:16"
     id="a210"
     transform="translate(-2.2774975,-3.2762188)">
    <g
       transform="translate(14.6479,12.7014)"
       id="g208">
      <text
         font-family="serif"
         font-size="2.0989px"
         text-anchor="start"
         fill="currentColor"
         id="text206"><tspan
           id="tspan204">be</tspan></text>
    </g>
  </a>
  <g
     transform="translate(12.868602,3.9251812)"
     id="g214">
    <rect
       x="-0.061700001"
       y="-0.69749999"
       width="0.1233"
       height="2.3975"
       ry="0.039999999"
       fill="currentColor"
       id="rect212" />
  </g>
  <a
     style="color:inherit"
     xlink:href="textedit:///Users/tomsegarra/Documents/dev/dummies/lilypond_files/ce79bd9979a7b7e1ff801d4544d762a9.ly:25:7:8"
     id="a220"
     transform="translate(-2.2774975,-3.2762188)">
    <g
       transform="translate(34.6998,7.2014)"
       id="g218">
      <path
         stroke-width="0.0759"
         stroke-linejoin="round"
         stroke-linecap="round"
         stroke="currentColor"
         fill="currentColor"
         d="m 0.7537,1.0413 c 0.4705,0.5561 1.4368,0.5561 1.9074,0 v 0 c -0.4706,0.4423 -1.4369,0.4423 -1.9074,0 z"
         id="path216" />
    </g>
  </a>
  <a
     style="color:inherit"
     xlink:href="textedit:///Users/tomsegarra/Documents/dev/dummies/lilypond_files/ce79bd9979a7b7e1ff801d4544d762a9.ly:24:12:13"
     id="a226"
     transform="translate(-2.2774975,-3.2762188)">
    <g
       transform="translate(17.3918,6.3514)"
       id="g224">
      <path
         transform="scale(0.0034,-0.0034)"
         d="m 215,137 c 67,0 111,-37 111,-92 0,-90 -111,-182 -215,-182 -67,0 -111,37 -111,92 0,90 111,182 215,182 z"
         fill="currentColor"
         id="path222" />
    </g>
  </a>
  <a
     style="color:inherit"
     xlink:href="textedit:///Users/tomsegarra/Documents/dev/dummies/lilypond_files/ce79bd9979a7b7e1ff801d4544d762a9.ly:30:21:22"
     id="a234"
     transform="translate(-2.2774975,-3.2762188)">
    <g
       transform="translate(16.9382,12.7014)"
       id="g232">
      <text
         font-family="serif"
         font-size="2.0989px"
         text-anchor="start"
         fill="currentColor"
         id="text230"><tspan
           id="tspan228">in'</tspan></text>
    </g>
  </a>
  <g
     transform="translate(15.175902,3.9251812)"
     id="g238">
    <rect
       x="-0.061700001"
       y="-0.69749999"
       width="0.1233"
       height="2.3975"
       ry="0.039999999"
       fill="currentColor"
       id="rect236" />
  </g>
  <a
     style="color:inherit"
     xlink:href="textedit:///Users/tomsegarra/Documents/dev/dummies/lilypond_files/ce79bd9979a7b7e1ff801d4544d762a9.ly:24:14:15"
     id="a244"
     transform="translate(-2.2774975,-3.2762188)">
    <g
       transform="translate(19.6992,6.3514)"
       id="g242">
      <path
         transform="scale(0.0034,-0.0034)"
         d="m 215,137 c 67,0 111,-37 111,-92 0,-90 -111,-182 -215,-182 -67,0 -111,37 -111,92 0,90 111,182 215,182 z"
         fill="currentColor"
         id="path240" />
    </g>
  </a>
  <a
     style="color:inherit"
     xlink:href="textedit:///Users/tomsegarra/Documents/dev/dummies/lilypond_files/ce79bd9979a7b7e1ff801d4544d762a9.ly:30:25:26"
     id="a252"
     transform="translate(-2.2774975,-3.2762188)">
    <g
       transform="translate(19.7919,12.7014)"
       id="g250">
      <text
         font-family="serif"
         font-size="2.0989px"
         text-anchor="start"
         fill="currentColor"
         id="text248"><tspan
           id="tspan246">a</tspan></text>
    </g>
  </a>
  <g
     transform="translate(17.483302,3.9251812)"
     id="g256">
    <rect
       x="-0.061700001"
       y="-0.69749999"
       width="0.1233"
       height="2.3975"
       ry="0.039999999"
       fill="currentColor"
       id="rect254" />
  </g>
  <a
     style="color:inherit"
     xlink:href="textedit:///Users/tomsegarra/Documents/dev/dummies/lilypond_files/ce79bd9979a7b7e1ff801d4544d762a9.ly:24:17:18"
     id="a262"
     transform="translate(-2.2774975,-3.2762188)">
    <g
       transform="translate(22.4623,6.3514)"
       id="g260">
      <path
         transform="scale(0.0034,-0.0034)"
         d="m 215,137 c 67,0 111,-37 111,-92 0,-90 -111,-182 -215,-182 -67,0 -111,37 -111,92 0,90 111,182 215,182 z"
         fill="currentColor"
         id="path258" />
    </g>
  </a>
  <a
     style="color:inherit"
     xlink:href="textedit:///Users/tomsegarra/Documents/dev/dummies/lilypond_files/ce79bd9979a7b7e1ff801d4544d762a9.ly:30:30:31"
     id="a270"
     transform="translate(-2.2774975,-3.2762188)">
    <g
       transform="translate(20.8138,12.7014)"
       id="g268">
      <text
         font-family="serif"
         font-size="2.0989px"
         text-anchor="start"
         fill="currentColor"
         id="text266"><tspan
           id="tspan264">wake</tspan></text>
    </g>
  </a>
  <g
     transform="translate(20.246502,3.9251812)"
     id="g274">
    <rect
       x="-0.061700001"
       y="-0.69749999"
       width="0.1233"
       height="2.8225"
       ry="0.039999999"
       fill="currentColor"
       id="rect272" />
  </g>
  <a
     style="color:inherit"
     xlink:href="textedit:///Users/tomsegarra/Documents/dev/dummies/lilypond_files/ce79bd9979a7b7e1ff801d4544d762a9.ly:24:21:22"
     id="a280"
     transform="translate(-2.2774975,-3.2762188)">
    <g
       transform="translate(26.634,6.7764)"
       id="g278">
      <path
         transform="scale(0.0034,-0.0034)"
         d="m 215,137 c 67,0 111,-37 111,-92 0,-90 -111,-182 -215,-182 -67,0 -111,37 -111,92 0,90 111,182 215,182 z"
         fill="currentColor"
         id="path276" />
    </g>
  </a>
  <a
     style="color:inherit"
     xlink:href="textedit:///Users/tomsegarra/Documents/dev/dummies/lilypond_files/ce79bd9979a7b7e1ff801d4544d762a9.ly:30:35:36"
     id="a288"
     transform="translate(-2.2774975,-3.2762188)">
    <g
       transform="translate(25.6683,12.7014)"
       id="g286">
      <text
         font-family="serif"
         font-size="2.0989px"
         text-anchor="start"
         fill="currentColor"
         id="text284"><tspan
           id="tspan282">nev</tspan></text>
    </g>
  </a>
  <g
     transform="translate(24.418102,3.9251812)"
     id="g292">
    <rect
       x="-0.061700001"
       y="-0.27250001"
       width="0.1233"
       height="2.6736"
       ry="0.039999999"
       fill="currentColor"
       id="rect290" />
  </g>
  <a
     style="color:inherit"
     xlink:href="textedit:///Users/tomsegarra/Documents/dev/dummies/lilypond_files/ce79bd9979a7b7e1ff801d4544d762a9.ly:24:24:25"
     id="a298"
     transform="translate(-2.2774975,-3.2762188)">
    <g
       transform="translate(29.0557,7.2014)"
       id="g296">
      <path
         transform="scale(0.0034,-0.0034)"
         d="m 215,137 c 67,0 111,-37 111,-92 0,-90 -111,-182 -215,-182 -67,0 -111,37 -111,92 0,90 111,182 215,182 z"
         fill="currentColor"
         id="path294" />
    </g>
  </a>
  <a
     style="color:inherit"
     xlink:href="textedit:///Users/tomsegarra/Documents/dev/dummies/lilypond_files/ce79bd9979a7b7e1ff801d4544d762a9.ly:30:42:43"
     id="a306"
     transform="translate(-2.2774975,-3.2762188)">
    <g
       transform="translate(28.807,12.7014)"
       id="g304">
      <text
         font-family="serif"
         font-size="2.0989px"
         text-anchor="start"
         fill="currentColor"
         id="text302"><tspan
           id="tspan300">er</tspan></text>
    </g>
  </a>
  <g
     transform="translate(26.839902,3.9251812)"
     id="g310">
    <rect
       x="-0.061700001"
       y="0.1525"
       width="0.1233"
       height="2.5465"
       ry="0.039999999"
       fill="currentColor"
       id="rect308" />
  </g>
  <g
     transform="translate(31.019802,1.3751812)"
     id="g314">
    <polygon
       stroke-linejoin="round"
       stroke-linecap="round"
       stroke-width="0.08"
       fill="currentColor"
       stroke="currentColor"
       points="0.04,0.164 0.04,-0.164 7.0846,-0.0074 7.0846,0.3206 "
       id="polygon312" />
  </g>
</svg>
