<?xml version="1.0" encoding="UTF-8" standalone="no"?>
<svg
   version="1.2"
   width="146.27017mm"
   height="13.62363mm"
   viewBox="0 0 83.236705 7.7525975"
   id="svg576"
   sodipodi:docname="d3b4932cb234155139e5df6a8e7b83a9.svg"
   xmlns:inkscape="http://www.inkscape.org/namespaces/inkscape"
   xmlns:sodipodi="http://sodipodi.sourceforge.net/DTD/sodipodi-0.dtd"
   xmlns:xlink="http://www.w3.org/1999/xlink"
   xmlns="http://www.w3.org/2000/svg"
   xmlns:svg="http://www.w3.org/2000/svg">
  <defs
     id="defs580" />
  <sodipodi:namedview
     id="namedview578"
     pagecolor="#ffffff"
     bordercolor="#000000"
     borderopacity="0.25"
     inkscape:showpageshadow="2"
     inkscape:pageopacity="0.0"
     inkscape:pagecheckerboard="0"
     inkscape:deskcolor="#d1d1d1"
     inkscape:document-units="mm" />
  <style
     type="text/css"
     id="style2"><![CDATA[
tspan { white-space: pre; }
]]></style>
  <!-- Page: 1/1 -->
  <g
     transform="translate(26.63995,4.7427725)"
     id="g6">
    <rect
       x="0"
       y="-1.7"
       width="0.1802"
       height="3.4000001"
       ry="0.0000"
       fill="currentColor"
       id="rect4" />
  </g>
  <g
     transform="translate(4.9997121e-5,6.4427725)"
     id="g10">
    <line
       stroke-linejoin="round"
       stroke-linecap="round"
       stroke-width="0.0949"
       stroke="currentColor"
       x1="0.047400001"
       y1="0"
       x2="83.189201"
       y2="0"
       id="line8" />
  </g>
  <g
     transform="translate(4.9997121e-5,5.5927725)"
     id="g14">
    <line
       stroke-linejoin="round"
       stroke-linecap="round"
       stroke-width="0.0949"
       stroke="currentColor"
       x1="0.047400001"
       y1="0"
       x2="83.189201"
       y2="0"
       id="line12" />
  </g>
  <g
     transform="translate(4.9997121e-5,4.7427725)"
     id="g18">
    <line
       stroke-linejoin="round"
       stroke-linecap="round"
       stroke-width="0.0949"
       stroke="currentColor"
       x1="0.047400001"
       y1="0"
       x2="83.189201"
       y2="0"
       id="line16" />
  </g>
  <g
     transform="translate(4.9997121e-5,3.8927725)"
     id="g22">
    <line
       stroke-linejoin="round"
       stroke-linecap="round"
       stroke-width="0.0949"
       stroke="currentColor"
       x1="0.047400001"
       y1="0"
       x2="83.189201"
       y2="0"
       id="line20" />
  </g>
  <g
     transform="translate(4.9997121e-5,3.0427725)"
     id="g26">
    <line
       stroke-linejoin="round"
       stroke-linecap="round"
       stroke-width="0.0949"
       stroke="currentColor"
       x1="0.047400001"
       y1="0"
       x2="83.189201"
       y2="0"
       id="line24" />
  </g>
  <g
     transform="translate(83.05645,4.7427725)"
     id="g30">
    <rect
       x="0"
       y="-1.7"
       width="0.1802"
       height="3.4000001"
       ry="0.0000"
       fill="currentColor"
       id="rect28" />
  </g>
  <g
     transform="translate(65.18185,4.7427725)"
     id="g34">
    <rect
       x="0"
       y="-1.7"
       width="0.1802"
       height="3.4000001"
       ry="0.0000"
       fill="currentColor"
       id="rect32" />
  </g>
  <g
     transform="translate(45.77005,4.7427725)"
     id="g38">
    <rect
       x="0"
       y="-1.7"
       width="0.1802"
       height="3.4000001"
       ry="0.0000"
       fill="currentColor"
       id="rect36" />
  </g>
  <g
     transform="translate(8.43825,7.1362725)"
     id="g42">
    <polygon
       stroke-linejoin="round"
       stroke-linecap="round"
       stroke-width="0.08"
       fill="currentColor"
       stroke="currentColor"
       points="0.04,0.164 0.04,-0.164 2.3907,-0.164 2.3907,0.164 "
       id="polygon40" />
  </g>
  <g
     color="#ff0000"
     id="g50"
     transform="translate(-2.27615,-3.2771275)">
    <a
       style="color:inherit"
       xlink:href="textedit:///Users/tomsegarra/Documents/dev/dummies/lilypond_files/d3b4932cb234155139e5df6a8e7b83a9.ly:28:11:12"
       id="a48">
      <g
         transform="translate(19.6865,9.8765)"
         id="g46">
        <polygon
           stroke-linejoin="round"
           stroke-linecap="round"
           stroke-width="0.08"
           fill="currentColor"
           stroke="currentColor"
           points="0.04,0.164 0.04,-0.164 2.3907,-0.4771 2.3907,-0.1491 "
           id="polygon44" />
      </g>
    </a>
  </g>
  <a
     style="color:inherit"
     xlink:href="textedit:///Users/tomsegarra/Documents/dev/dummies/lilypond_files/d3b4932cb234155139e5df6a8e7b83a9.ly:19:12:13"
     id="a64"
     transform="translate(-2.27615,-3.2771275)">
    <g
       transform="translate(10.7144,4.9225)"
       id="g56">
      <text
         font-family="sans-serif"
         font-size="2.224px"
         text-anchor="start"
         fill="currentColor"
         id="text54"><tspan
           id="tspan52">A</tspan></text>
    </g>
    <g
       transform="translate(12.2508,4.9225)"
       id="g62">
      <text
         font-family="sans-serif"
         font-size="2.224px"
         text-anchor="start"
         fill="currentColor"
         id="text60"><tspan
           id="tspan58">m</tspan></text>
    </g>
  </a>
  <a
     style="color:inherit"
     xlink:href="textedit:///Users/tomsegarra/Documents/dev/dummies/lilypond_files/d3b4932cb234155139e5df6a8e7b83a9.ly:23:4:5"
     id="a70"
     transform="translate(-2.27615,-3.2771275)">
    <g
       transform="translate(10.7144,7.5949)"
       id="g68">
      <path
         transform="scale(0.0034,-0.0034)"
         d="m 215,137 c 67,0 111,-37 111,-92 0,-90 -111,-182 -215,-182 -67,0 -111,37 -111,92 0,90 111,182 215,182 z"
         fill="currentColor"
         id="path66" />
    </g>
  </a>
  <g
     transform="translate(0.80005,5.5927725)"
     id="g74">
    <path
       transform="scale(0.0034,-0.0034)"
       d="m 646,2 c 0,-113 -74,-213 -180,-247 3,-34 5,-68 5,-102 0,-20 -1,-40 -2,-60 -7,-121 -91,-228 -209,-228 -108,0 -196,87 -196,196 0,58 53,104 112,104 54,0 95,-48 95,-104 0,-52 -43,-95 -95,-95 -10,0 -20,2 -29,6 26,-38 68,-63 116,-63 h 3 c 93,2 153,92 159,190 1,19 2,37 2,56 0,30 -2,60 -4,90 -5,-1 -43,-8 -88,-8 -194,0 -333,180 -333,375 0,177 130,307 246,442 -31,98 -53,170 -53,347 0,115 55,223 148,290 7,5 16,4 22,-1 68,-80 134,-243 134,-357 0,-143 -85,-255 -178,-364 21,-68 40,-137 57,-206 1,0 5,1 11,1 C 545,264 646,135 646,2 Z M 462,-202 c 66,24 111,88 111,162 0,89 -65,178 -170,190 28,-135 50,-272 59,-352 z M 75,26 c 0,-145 141,-245 263,-245 1,0 46,0 81,6 -7,65 -27,206 -61,363 -79,-8 -124,-61 -124,-119 0,-43 25,-89 80,-121 5,-5 7,-11 7,-16 0,-12 -10,-23 -22,-23 -16,0 -127,63 -127,188 0,89 58,175 161,198 -14,58 -29,116 -46,173 C 181,308 75,186 75,26 Z M 406,1042 C 307,995 244,894 244,785 c 0,-49 13,-111 38,-191 79,97 144,199 144,324 0,33 0,63 -20,124 z"
       fill="currentColor"
       id="path72" />
  </g>
  <a
     style="color:inherit"
     xlink:href="textedit:///Users/tomsegarra/Documents/dev/dummies/lilypond_files/d3b4932cb234155139e5df6a8e7b83a9.ly:22:1:9"
     id="a76"
     transform="translate(-2.27615,-3.2771275)" />
  <g
     transform="translate(5.00005,4.7427725)"
     id="g80">
    <path
       transform="scale(0.0034,-0.0034)"
       d="m 358,29 c -30,0 -74,23 -74,73 0,38 27,76 71,76 4,0 7,0 11,-1 -27,36 -69,59 -116,59 -106,0 -113,-74 -113,-188 0,-15 1,-31 1,-48 0,-17 -1,-33 -1,-48 0,-114 7,-188 113,-188 79,0 136,70 155,150 2,7 7,10 13,10 7,0 14,-5 14,-13 0,-21 -50,-175 -182,-175 C 191,-264 0,-244 0,0 0,63 18,264 250,264 365,264 424,155 424,99 424,60 394,29 358,29 Z"
       fill="currentColor"
       id="path78" />
  </g>
  <g
     transform="translate(8.49985,4.7427725)"
     id="g84">
    <rect
       x="-0.061700001"
       y="-0.27250001"
       width="0.1233"
       height="2.6659999"
       ry="0.039999999"
       fill="currentColor"
       id="rect82" />
  </g>
  <g
     color="#000000"
     id="g90"
     transform="translate(-2.27615,-3.2771275)">
    <g
       transform="translate(30.1019,10.5699)"
       id="g88">
      <polygon
         stroke-linejoin="round"
         stroke-linecap="round"
         stroke-width="0.08"
         fill="currentColor"
         stroke="currentColor"
         points="0.04,0.164 0.04,-0.164 2.3907,-0.164 2.3907,0.164 "
         id="polygon86" />
    </g>
  </g>
  <a
     style="color:inherit"
     xlink:href="textedit:///Users/tomsegarra/Documents/dev/dummies/lilypond_files/d3b4932cb234155139e5df6a8e7b83a9.ly:32:33:34"
     id="a96"
     transform="translate(-2.27615,-3.2771275)">
    <g
       transform="translate(43.6888,8.0199)"
       id="g94">
      <path
         transform="scale(0.0034,-0.0034)"
         d="m 70,205 c 80,0 46,-97 90,-97 15,0 52,45 59,59 6,13 26,13 31,0 L 129,-250 c -9,-7 -19,-11 -30,-11 -11,0 -21,4 -30,11 L 187,76 C 154,64 119,54 84,54 37,54 -3,88 -3,133 c 0,40 33,72 73,72 z"
         fill="currentColor"
         id="path92" />
    </g>
  </a>
  <g
     color="#000000"
     id="g102"
     transform="translate(-2.27615,-3.2771275)">
    <g
       transform="translate(39.074,10.5699)"
       id="g100">
      <polygon
         stroke-linejoin="round"
         stroke-linecap="round"
         stroke-width="0.08"
         fill="currentColor"
         stroke="currentColor"
         points="0.04,0.164 0.04,-0.164 2.3907,-0.164 2.3907,0.164 "
         id="polygon98" />
    </g>
  </g>
  <g
     color="#000000"
     id="g110"
     transform="translate(-2.27615,-3.2771275)">
    <a
       style="color:inherit"
       xlink:href="textedit:///Users/tomsegarra/Documents/dev/dummies/lilypond_files/d3b4932cb234155139e5df6a8e7b83a9.ly:32:35:36"
       id="a108">
      <g
         transform="translate(45.7388,8.0199)"
         id="g106">
        <path
           transform="scale(0.0034,-0.0034)"
           d="m 215,137 c 67,0 111,-37 111,-92 0,-90 -111,-182 -215,-182 -67,0 -111,37 -111,92 0,90 111,182 215,182 z"
           fill="currentColor"
           id="path104" />
      </g>
    </a>
  </g>
  <g
     color="#000000"
     id="g116"
     transform="translate(-2.27615,-3.2771275)">
    <g
       transform="translate(45.8005,8.0199)"
       id="g114">
      <rect
         x="-0.061700001"
         y="0.1525"
         width="0.1233"
         height="2.7163"
         ry="0.039999999"
         fill="currentColor"
         id="rect112" />
    </g>
  </g>
  <g
     color="#000000"
     id="g122"
     transform="translate(-2.27615,-3.2771275)">
    <g
       transform="translate(45.8621,10.8487)"
       id="g120">
      <path
         transform="scale(0.0034,-0.0034)"
         d="M 0,0 H -18 V 250 H 0 Z m 0,0 v 250 c 96,59 222,149 222,259 0,57 -15,111 -40,162 -3,17 10,29 24,29 8,0 16,-5 21,-13 25,-56 40,-116 40,-178 C 267,306 0,203 0,0 Z"
         fill="currentColor"
         id="path118" />
    </g>
  </g>
  <g
     color="#000000"
     id="g128"
     transform="translate(-2.27615,-3.2771275)">
    <g
       transform="translate(49.2563,10.4134)"
       id="g126">
      <polygon
         stroke-linejoin="round"
         stroke-linecap="round"
         stroke-width="0.08"
         fill="currentColor"
         stroke="currentColor"
         points="0.04,0.164 0.04,-0.164 2.3907,-0.164 2.3907,0.164 "
         id="polygon124" />
    </g>
  </g>
  <g
     color="#ff0000"
     id="g136"
     transform="translate(-2.27615,-3.2771275)">
    <a
       style="color:inherit"
       xlink:href="textedit:///Users/tomsegarra/Documents/dev/dummies/lilypond_files/d3b4932cb234155139e5df6a8e7b83a9.ly:37:11:12"
       id="a134">
      <g
         transform="translate(58.2284,9.8765)"
         id="g132">
        <polygon
           stroke-linejoin="round"
           stroke-linecap="round"
           stroke-width="0.08"
           fill="currentColor"
           stroke="currentColor"
           points="0.04,0.164 0.04,-0.164 2.3907,-0.4771 2.3907,-0.1491 "
           id="polygon130" />
      </g>
    </a>
  </g>
  <a
     style="color:inherit"
     xlink:href="textedit:///Users/tomsegarra/Documents/dev/dummies/lilypond_files/d3b4932cb234155139e5df6a8e7b83a9.ly:19:19:20"
     id="a150"
     transform="translate(-2.27615,-3.2771275)">
    <g
       transform="translate(49.2563,4.9225)"
       id="g142">
      <text
         font-family="sans-serif"
         font-size="2.224px"
         text-anchor="start"
         fill="currentColor"
         id="text140"><tspan
           id="tspan138">A</tspan></text>
    </g>
    <g
       transform="translate(50.7927,4.9225)"
       id="g148">
      <text
         font-family="sans-serif"
         font-size="2.224px"
         text-anchor="start"
         fill="currentColor"
         id="text146"><tspan
           id="tspan144">m</tspan></text>
    </g>
  </a>
  <g
     color="#000000"
     id="g158"
     transform="translate(-2.27615,-3.2771275)">
    <a
       style="color:inherit"
       xlink:href="textedit:///Users/tomsegarra/Documents/dev/dummies/lilypond_files/d3b4932cb234155139e5df6a8e7b83a9.ly:32:40:41"
       id="a156">
      <g
         transform="translate(49.2563,7.5949)"
         id="g154">
        <path
           transform="scale(0.0034,-0.0034)"
           d="m 215,137 c 67,0 111,-37 111,-92 0,-90 -111,-182 -215,-182 -67,0 -111,37 -111,92 0,90 111,182 215,182 z"
           fill="currentColor"
           id="path152" />
      </g>
    </a>
  </g>
  <g
     color="#000000"
     id="g164"
     transform="translate(-2.27615,-3.2771275)">
    <g
       transform="translate(49.3179,8.0199)"
       id="g162">
      <rect
         x="-0.061700001"
         y="-0.27250001"
         width="0.1233"
         height="2.6659999"
         ry="0.039999999"
         fill="currentColor"
         id="rect160" />
    </g>
  </g>
  <g
     color="#000000"
     id="g170"
     transform="translate(-2.27615,-3.2771275)">
    <g
       transform="translate(69.5223,5.6265)"
       id="g168">
      <polygon
         stroke-linejoin="round"
         stroke-linecap="round"
         stroke-width="0.08"
         fill="currentColor"
         stroke="currentColor"
         points="0.04,0.164 0.04,-0.164 2.3907,-0.164 2.3907,0.164 "
         id="polygon166" />
    </g>
  </g>
  <g
     color="#000000"
     id="g178"
     transform="translate(-2.27615,-3.2771275)">
    <a
       style="color:inherit"
       xlink:href="textedit:///Users/tomsegarra/Documents/dev/dummies/lilypond_files/d3b4932cb234155139e5df6a8e7b83a9.ly:32:44:45"
       id="a176">
      <g
         transform="translate(51.5637,7.5949)"
         id="g174">
        <path
           transform="scale(0.0034,-0.0034)"
           d="m 215,137 c 67,0 111,-37 111,-92 0,-90 -111,-182 -215,-182 -67,0 -111,37 -111,92 0,90 111,182 215,182 z"
           fill="currentColor"
           id="path172" />
      </g>
    </a>
  </g>
  <g
     color="#000000"
     id="g184"
     transform="translate(-2.27615,-3.2771275)">
    <g
       transform="translate(51.6253,8.0199)"
       id="g182">
      <rect
         x="-0.061700001"
         y="-0.27250001"
         width="0.1233"
         height="2.6659999"
         ry="0.039999999"
         fill="currentColor"
         id="rect180" />
    </g>
  </g>
  <g
     color="#000000"
     id="g190"
     transform="translate(-2.27615,-3.2771275)">
    <g
       transform="translate(78.4944,5.6265)"
       id="g188">
      <polygon
         stroke-linejoin="round"
         stroke-linecap="round"
         stroke-width="0.08"
         fill="currentColor"
         stroke="currentColor"
         points="0.04,0.164 0.04,-0.164 2.3907,-0.164 2.3907,0.164 "
         id="polygon186" />
    </g>
  </g>
  <a
     style="color:inherit"
     xlink:href="textedit:///Users/tomsegarra/Documents/dev/dummies/lilypond_files/d3b4932cb234155139e5df6a8e7b83a9.ly:32:48:49"
     id="a196"
     transform="translate(-2.27615,-3.2771275)">
    <g
       transform="translate(53.871,8.0199)"
       id="g194">
      <path
         transform="scale(0.0034,-0.0034)"
         d="m 70,205 c 80,0 46,-97 90,-97 15,0 52,45 59,59 6,13 26,13 31,0 L 129,-250 c -9,-7 -19,-11 -30,-11 -11,0 -21,4 -30,11 L 187,76 C 154,64 119,54 84,54 37,54 -3,88 -3,133 c 0,40 33,72 73,72 z"
         fill="currentColor"
         id="path192" />
    </g>
  </a>
  <g
     color="#ff0000"
     id="g204"
     transform="translate(-2.27615,-3.2771275)">
    <a
       style="color:inherit"
       xlink:href="textedit:///Users/tomsegarra/Documents/dev/dummies/lilypond_files/d3b4932cb234155139e5df6a8e7b83a9.ly:37:4:5"
       id="a202">
      <g
         transform="translate(55.921,7.5949)"
         id="g200">
        <path
           transform="scale(0.0034,-0.0034)"
           d="m 215,137 c 67,0 111,-37 111,-92 0,-90 -111,-182 -215,-182 -67,0 -111,37 -111,92 0,90 111,182 215,182 z"
           fill="currentColor"
           id="path198" />
      </g>
    </a>
  </g>
  <g
     color="#ff0000"
     id="g210"
     transform="translate(-2.27615,-3.2771275)">
    <g
       transform="translate(55.9827,8.0199)"
       id="g208">
      <rect
         x="-0.061700001"
         y="-0.27250001"
         width="0.1233"
         height="2.8225"
         ry="0.039999999"
         fill="currentColor"
         id="rect206" />
    </g>
  </g>
  <g
     color="#ff0000"
     id="g216"
     transform="translate(-2.27615,-3.2771275)">
    <g
       transform="translate(56.0444,10.5299)"
       id="g214">
      <path
         transform="scale(0.0034,-0.0034)"
         d="M 0,0 H -18 V 250 H 0 Z m 0,0 v 250 c 96,59 222,149 222,259 0,57 -15,111 -40,162 -3,17 10,29 24,29 8,0 16,-5 21,-13 25,-56 40,-116 40,-178 C 267,306 0,203 0,0 Z"
         fill="currentColor"
         id="path212" />
    </g>
  </g>
  <g
     color="#ff0000"
     id="g224"
     transform="translate(-2.27615,-3.2771275)">
    <a
       style="color:inherit"
       xlink:href="textedit:///Users/tomsegarra/Documents/dev/dummies/lilypond_files/d3b4932cb234155139e5df6a8e7b83a9.ly:37:8:9"
       id="a222">
      <g
         transform="translate(58.2284,7.1699)"
         id="g220">
        <path
           transform="scale(0.0034,-0.0034)"
           d="m 215,137 c 67,0 111,-37 111,-92 0,-90 -111,-182 -215,-182 -67,0 -111,37 -111,92 0,90 111,182 215,182 z"
           fill="currentColor"
           id="path218" />
      </g>
    </a>
  </g>
  <g
     color="#ff0000"
     id="g230"
     transform="translate(-2.27615,-3.2771275)">
    <g
       transform="translate(58.2901,8.0199)"
       id="g228">
      <rect
         x="-0.061700001"
         y="-0.69749999"
         width="0.1233"
         height="2.5462"
         ry="0.039999999"
         fill="currentColor"
         id="rect226" />
    </g>
  </g>
  <g
     color="#ff0000"
     id="g238"
     transform="translate(-2.27615,-3.2771275)">
    <a
       style="color:inherit"
       xlink:href="textedit:///Users/tomsegarra/Documents/dev/dummies/lilypond_files/d3b4932cb234155139e5df6a8e7b83a9.ly:37:13:14"
       id="a236">
      <g
         transform="translate(60.5358,6.7449)"
         id="g234">
        <path
           transform="scale(0.0034,-0.0034)"
           d="m 215,137 c 67,0 111,-37 111,-92 0,-90 -111,-182 -215,-182 -67,0 -111,37 -111,92 0,90 111,182 215,182 z"
           fill="currentColor"
           id="path232" />
      </g>
    </a>
  </g>
  <g
     color="#ff0000"
     id="g244"
     transform="translate(-2.27615,-3.2771275)">
    <g
       transform="translate(60.5975,8.0199)"
       id="g242">
      <rect
         x="-0.061700001"
         y="-1.1224999"
         width="0.1233"
         height="2.6738999"
         ry="0.039999999"
         fill="currentColor"
         id="rect240" />
    </g>
  </g>
  <g
     color="#000000"
     id="g250"
     transform="translate(-2.27615,-3.2771275)">
    <g
       transform="translate(41.4431,8.0199)"
       id="g248">
      <rect
         x="-0.061700001"
         y="0.1525"
         width="0.1233"
         height="2.3975"
         ry="0.039999999"
         fill="currentColor"
         id="rect246" />
    </g>
  </g>
  <g
     color="#ff0000"
     id="g258"
     transform="translate(-2.27615,-3.2771275)">
    <a
       style="color:inherit"
       xlink:href="textedit:///Users/tomsegarra/Documents/dev/dummies/lilypond_files/d3b4932cb234155139e5df6a8e7b83a9.ly:37:16:17"
       id="a256">
      <g
         transform="translate(62.8432,7.1699)"
         id="g254">
        <path
           transform="scale(0.0034,-0.0034)"
           d="m 215,137 c 67,0 111,-37 111,-92 0,-90 -111,-182 -215,-182 -67,0 -111,37 -111,92 0,90 111,182 215,182 z"
           fill="currentColor"
           id="path252" />
      </g>
    </a>
  </g>
  <g
     color="#ff0000"
     id="g264"
     transform="translate(-2.27615,-3.2771275)">
    <g
       transform="translate(62.9049,8.0199)"
       id="g262">
      <rect
         x="-0.061700001"
         y="-0.69749999"
         width="0.1233"
         height="2.8225"
         ry="0.039999999"
         fill="currentColor"
         id="rect260" />
    </g>
  </g>
  <g
     color="#ff0000"
     id="g270"
     transform="translate(-2.27615,-3.2771275)">
    <g
       transform="translate(62.9665,10.1049)"
       id="g268">
      <path
         transform="scale(0.0034,-0.0034)"
         d="M 0,0 H -18 V 250 H 0 Z m 0,0 v 250 c 96,59 222,149 222,259 0,57 -15,111 -40,162 -3,17 10,29 24,29 8,0 16,-5 21,-13 25,-56 40,-116 40,-178 C 267,306 0,203 0,0 Z"
         fill="currentColor"
         id="path266" />
    </g>
  </g>
  <g
     color="#000000"
     id="g278"
     transform="translate(-2.27615,-3.2771275)">
    <a
       style="color:inherit"
       xlink:href="textedit:///Users/tomsegarra/Documents/dev/dummies/lilypond_files/d3b4932cb234155139e5df6a8e7b83a9.ly:32:31:32"
       id="a276">
      <g
         transform="translate(41.3814,8.0199)"
         id="g274">
        <path
           transform="scale(0.0034,-0.0034)"
           d="m 215,137 c 67,0 111,-37 111,-92 0,-90 -111,-182 -215,-182 -67,0 -111,37 -111,92 0,90 111,182 215,182 z"
           fill="currentColor"
           id="path272" />
      </g>
    </a>
  </g>
  <g
     color="#000000"
     id="g286"
     transform="translate(-2.27615,-3.2771275)">
    <a
       style="color:inherit"
       xlink:href="textedit:///Users/tomsegarra/Documents/dev/dummies/lilypond_files/d3b4932cb234155139e5df6a8e7b83a9.ly:41:4:5"
       id="a284">
      <g
         transform="translate(65.1506,6.7449)"
         id="g282">
        <path
           transform="scale(0.0034,-0.0034)"
           d="m 215,137 c 67,0 111,-37 111,-92 0,-90 -111,-182 -215,-182 -67,0 -111,37 -111,92 0,90 111,182 215,182 z"
           fill="currentColor"
           id="path280" />
      </g>
    </a>
  </g>
  <g
     color="#000000"
     id="g292"
     transform="translate(-2.27615,-3.2771275)">
    <g
       transform="translate(65.2122,8.0199)"
       id="g290">
      <rect
         x="-0.061700001"
         y="-1.1224999"
         width="0.1233"
         height="2.8225"
         ry="0.039999999"
         fill="currentColor"
         id="rect288" />
    </g>
  </g>
  <g
     color="#000000"
     id="g298"
     transform="translate(-2.27615,-3.2771275)">
    <g
       transform="translate(65.2739,9.6799)"
       id="g296">
      <path
         transform="scale(0.0034,-0.0034)"
         d="M 0,0 H -18 V 250 H 0 Z m 0,0 v 250 c 96,59 222,149 222,259 0,57 -15,111 -40,162 -3,17 10,29 24,29 8,0 16,-5 21,-13 25,-56 40,-116 40,-178 C 267,306 0,203 0,0 Z"
         fill="currentColor"
         id="path294" />
    </g>
  </g>
  <a
     style="color:inherit"
     xlink:href="textedit:///Users/tomsegarra/Documents/dev/dummies/lilypond_files/d3b4932cb234155139e5df6a8e7b83a9.ly:19:23:24"
     id="a306"
     transform="translate(-2.27615,-3.2771275)">
    <g
       transform="translate(68.5382,4.9225)"
       id="g304">
      <text
         font-family="sans-serif"
         font-size="2.224px"
         text-anchor="start"
         fill="currentColor"
         id="text302"><tspan
           id="tspan300">F</tspan></text>
    </g>
  </a>
  <g
     color="#000000"
     id="g314"
     transform="translate(-2.27615,-3.2771275)">
    <a
       style="color:inherit"
       xlink:href="textedit:///Users/tomsegarra/Documents/dev/dummies/lilypond_files/d3b4932cb234155139e5df6a8e7b83a9.ly:41:21:22"
       id="a312">
      <g
         transform="translate(68.5382,8.4449)"
         id="g310">
        <path
           transform="scale(0.0034,-0.0034)"
           d="m 215,137 c 67,0 111,-37 111,-92 0,-90 -111,-182 -215,-182 -67,0 -111,37 -111,92 0,90 111,182 215,182 z"
           fill="currentColor"
           id="path308" />
      </g>
    </a>
  </g>
  <g
     color="#000000"
     id="g320"
     transform="translate(-2.27615,-3.2771275)">
    <g
       transform="translate(69.5839,8.0199)"
       id="g318">
      <rect
         x="-0.061700001"
         y="-2.3934"
         width="0.1233"
         height="2.6659999"
         ry="0.039999999"
         fill="currentColor"
         id="rect316" />
    </g>
  </g>
  <g
     color="#000000"
     id="g328"
     transform="translate(-2.27615,-3.2771275)">
    <a
       style="color:inherit"
       xlink:href="textedit:///Users/tomsegarra/Documents/dev/dummies/lilypond_files/d3b4932cb234155139e5df6a8e7b83a9.ly:41:24:25"
       id="a326">
      <g
         transform="translate(70.8456,8.4449)"
         id="g324">
        <path
           transform="scale(0.0034,-0.0034)"
           d="m 215,137 c 67,0 111,-37 111,-92 0,-90 -111,-182 -215,-182 -67,0 -111,37 -111,92 0,90 111,182 215,182 z"
           fill="currentColor"
           id="path322" />
      </g>
    </a>
  </g>
  <g
     color="#000000"
     id="g334"
     transform="translate(-2.27615,-3.2771275)">
    <g
       transform="translate(71.8913,8.0199)"
       id="g332">
      <rect
         x="-0.061700001"
         y="-2.3934"
         width="0.1233"
         height="2.6659999"
         ry="0.039999999"
         fill="currentColor"
         id="rect330" />
    </g>
  </g>
  <a
     style="color:inherit"
     xlink:href="textedit:///Users/tomsegarra/Documents/dev/dummies/lilypond_files/d3b4932cb234155139e5df6a8e7b83a9.ly:41:26:27"
     id="a340"
     transform="translate(-2.27615,-3.2771275)">
    <g
       transform="translate(73.153,8.0199)"
       id="g338">
      <path
         transform="scale(0.0034,-0.0034)"
         d="m 70,205 c 80,0 46,-97 90,-97 15,0 52,45 59,59 6,13 26,13 31,0 L 129,-250 c -9,-7 -19,-11 -30,-11 -11,0 -21,4 -30,11 L 187,76 C 154,64 119,54 84,54 37,54 -3,88 -3,133 c 0,40 33,72 73,72 z"
         fill="currentColor"
         id="path336" />
    </g>
  </a>
  <g
     color="#000000"
     id="g346"
     transform="translate(-2.27615,-3.2771275)">
    <g
       transform="translate(39.1357,8.0199)"
       id="g344">
      <rect
         x="-0.061700001"
         y="0.1525"
         width="0.1233"
         height="2.3975"
         ry="0.039999999"
         fill="currentColor"
         id="rect342" />
    </g>
  </g>
  <g
     color="#000000"
     id="g354"
     transform="translate(-2.27615,-3.2771275)">
    <a
       style="color:inherit"
       xlink:href="textedit:///Users/tomsegarra/Documents/dev/dummies/lilypond_files/d3b4932cb234155139e5df6a8e7b83a9.ly:41:28:29"
       id="a352">
      <g
         transform="translate(75.203,8.4449)"
         id="g350">
        <path
           transform="scale(0.0034,-0.0034)"
           d="m 215,137 c 67,0 111,-37 111,-92 0,-90 -111,-182 -215,-182 -67,0 -111,37 -111,92 0,90 111,182 215,182 z"
           fill="currentColor"
           id="path348" />
      </g>
    </a>
  </g>
  <g
     color="#000000"
     id="g360"
     transform="translate(-2.27615,-3.2771275)">
    <g
       transform="translate(76.2487,8.0199)"
       id="g358">
      <rect
         x="-0.061700001"
         y="-2.55"
         width="0.1233"
         height="2.8225"
         ry="0.039999999"
         fill="currentColor"
         id="rect356" />
    </g>
  </g>
  <g
     color="#000000"
     id="g366"
     transform="translate(-2.27615,-3.2771275)">
    <g
       transform="translate(76.3104,5.5099)"
       id="g364">
      <path
         transform="scale(0.0034,-0.0034)"
         d="m 0,0 c 0,-197 207,-335 207,-532 0,-71 -15,-141 -41,-207 -5,-8 -13,-12 -21,-12 -14,0 -27,11 -24,28 26,60 42,125 42,191 0,103 -93,207 -163,282 H -18 V 0 Z"
         fill="currentColor"
         id="path362" />
    </g>
  </g>
  <g
     color="#000000"
     id="g374"
     transform="translate(-2.27615,-3.2771275)">
    <a
       style="color:inherit"
       xlink:href="textedit:///Users/tomsegarra/Documents/dev/dummies/lilypond_files/d3b4932cb234155139e5df6a8e7b83a9.ly:32:29:30"
       id="a372">
      <g
         transform="translate(39.074,8.0199)"
         id="g370">
        <path
           transform="scale(0.0034,-0.0034)"
           d="m 215,137 c 67,0 111,-37 111,-92 0,-90 -111,-182 -215,-182 -67,0 -111,37 -111,92 0,90 111,182 215,182 z"
           fill="currentColor"
           id="path368" />
      </g>
    </a>
  </g>
  <g
     color="#000000"
     id="g382"
     transform="translate(-2.27615,-3.2771275)">
    <a
       style="color:inherit"
       xlink:href="textedit:///Users/tomsegarra/Documents/dev/dummies/lilypond_files/d3b4932cb234155139e5df6a8e7b83a9.ly:41:30:31"
       id="a380">
      <g
         transform="translate(77.5104,8.4449)"
         id="g378">
        <path
           transform="scale(0.0034,-0.0034)"
           d="m 215,137 c 67,0 111,-37 111,-92 0,-90 -111,-182 -215,-182 -67,0 -111,37 -111,92 0,90 111,182 215,182 z"
           fill="currentColor"
           id="path376" />
      </g>
    </a>
  </g>
  <g
     color="#000000"
     id="g388"
     transform="translate(-2.27615,-3.2771275)">
    <g
       transform="translate(78.5561,8.0199)"
       id="g386">
      <rect
         x="-0.061700001"
         y="-2.3934"
         width="0.1233"
         height="2.6659999"
         ry="0.039999999"
         fill="currentColor"
         id="rect384" />
    </g>
  </g>
  <g
     color="#000000"
     id="g396"
     transform="translate(-2.27615,-3.2771275)">
    <a
       style="color:inherit"
       xlink:href="textedit:///Users/tomsegarra/Documents/dev/dummies/lilypond_files/d3b4932cb234155139e5df6a8e7b83a9.ly:41:32:33"
       id="a394">
      <g
         transform="translate(79.8177,8.4449)"
         id="g392">
        <path
           transform="scale(0.0034,-0.0034)"
           d="m 215,137 c 67,0 111,-37 111,-92 0,-90 -111,-182 -215,-182 -67,0 -111,37 -111,92 0,90 111,182 215,182 z"
           fill="currentColor"
           id="path390" />
      </g>
    </a>
  </g>
  <g
     color="#000000"
     id="g402"
     transform="translate(-2.27615,-3.2771275)">
    <g
       transform="translate(80.8635,8.0199)"
       id="g400">
      <rect
         x="-0.061700001"
         y="-2.3934"
         width="0.1233"
         height="2.6659999"
         ry="0.039999999"
         fill="currentColor"
         id="rect398" />
    </g>
  </g>
  <a
     style="color:inherit"
     xlink:href="textedit:///Users/tomsegarra/Documents/dev/dummies/lilypond_files/d3b4932cb234155139e5df6a8e7b83a9.ly:41:34:35"
     id="a408"
     transform="translate(-2.27615,-3.2771275)">
    <g
       transform="translate(82.1251,8.0199)"
       id="g406">
      <path
         transform="scale(0.0034,-0.0034)"
         d="m -8,78 c 0,59 125,83 125,182 0,25 -9,49 -26,69 l -33,40 c -3,4 -4,7 -4,11 0,9 9,17 18,17 4,0 8,-2 12,-6 L 234,212 c 7,-9 11,-18 11,-26 0,-59 -125,-83 -125,-182 0,-25 8,-49 25,-69 l 82,-97 c 3,-4 4,-7 4,-11 0,-9 -8,-17 -17,-17 -10,0 -42,42 -106,42 -19,0 -54,-1 -54,-66 0,-34 10,-73 27,-93 7,-9 -5,-20 -12,-11 -45,53 -93,147 -93,201 0,42 27,42 43,42 31,0 74,-11 113,-27 L 3,52 C -4,61 -8,70 -8,78 Z"
         fill="currentColor"
         id="path404" />
    </g>
  </a>
  <g
     color="#000000"
     id="g414"
     transform="translate(-2.27615,-3.2771275)">
    <g
       transform="translate(36.89,10.8487)"
       id="g412">
      <path
         transform="scale(0.0034,-0.0034)"
         d="M 0,0 H -18 V 250 H 0 Z m 0,0 v 250 c 96,59 222,149 222,259 0,57 -15,111 -40,162 -3,17 10,29 24,29 8,0 16,-5 21,-13 25,-56 40,-116 40,-178 C 267,306 0,203 0,0 Z"
         fill="currentColor"
         id="path410" />
    </g>
  </g>
  <g
     color="#000000"
     id="g420"
     transform="translate(-2.27615,-3.2771275)">
    <g
       transform="translate(36.8283,8.0199)"
       id="g418">
      <rect
         x="-0.061700001"
         y="0.1525"
         width="0.1233"
         height="2.7163"
         ry="0.039999999"
         fill="currentColor"
         id="rect416" />
    </g>
  </g>
  <a
     style="color:inherit"
     xlink:href="textedit:///Users/tomsegarra/Documents/dev/dummies/lilypond_files/d3b4932cb234155139e5df6a8e7b83a9.ly:23:11:12"
     id="a426"
     transform="translate(-2.27615,-3.2771275)">
    <g
       transform="translate(13.0218,7.5949)"
       id="g424">
      <path
         transform="scale(0.0034,-0.0034)"
         d="m 215,137 c 67,0 111,-37 111,-92 0,-90 -111,-182 -215,-182 -67,0 -111,37 -111,92 0,90 111,182 215,182 z"
         fill="currentColor"
         id="path422" />
    </g>
  </a>
  <g
     transform="translate(10.80725,4.7427725)"
     id="g430">
    <rect
       x="-0.061700001"
       y="-0.27250001"
       width="0.1233"
       height="2.6659999"
       ry="0.039999999"
       fill="currentColor"
       id="rect428" />
  </g>
  <g
     color="#000000"
     id="g438"
     transform="translate(-2.27615,-3.2771275)">
    <a
       style="color:inherit"
       xlink:href="textedit:///Users/tomsegarra/Documents/dev/dummies/lilypond_files/d3b4932cb234155139e5df6a8e7b83a9.ly:32:27:28"
       id="a436">
      <g
         transform="translate(36.7667,8.0199)"
         id="g434">
        <path
           transform="scale(0.0034,-0.0034)"
           d="m 215,137 c 67,0 111,-37 111,-92 0,-90 -111,-182 -215,-182 -67,0 -111,37 -111,92 0,90 111,182 215,182 z"
           fill="currentColor"
           id="path432" />
      </g>
    </a>
  </g>
  <a
     style="color:inherit"
     xlink:href="textedit:///Users/tomsegarra/Documents/dev/dummies/lilypond_files/d3b4932cb234155139e5df6a8e7b83a9.ly:23:15:16"
     id="a444"
     transform="translate(-2.27615,-3.2771275)">
    <g
       transform="translate(15.3292,8.0199)"
       id="g442">
      <path
         transform="scale(0.0034,-0.0034)"
         d="m 70,205 c 80,0 46,-97 90,-97 15,0 52,45 59,59 6,13 26,13 31,0 L 129,-250 c -9,-7 -19,-11 -30,-11 -11,0 -21,4 -30,11 L 187,76 C 154,64 119,54 84,54 37,54 -3,88 -3,133 c 0,40 33,72 73,72 z"
         fill="currentColor"
         id="path440" />
    </g>
  </a>
  <g
     color="#ff0000"
     id="g452"
     transform="translate(-2.27615,-3.2771275)">
    <a
       style="color:inherit"
       xlink:href="textedit:///Users/tomsegarra/Documents/dev/dummies/lilypond_files/d3b4932cb234155139e5df6a8e7b83a9.ly:28:4:5"
       id="a450">
      <g
         transform="translate(17.3792,7.5949)"
         id="g448">
        <path
           transform="scale(0.0034,-0.0034)"
           d="m 215,137 c 67,0 111,-37 111,-92 0,-90 -111,-182 -215,-182 -67,0 -111,37 -111,92 0,90 111,182 215,182 z"
           fill="currentColor"
           id="path446" />
      </g>
    </a>
  </g>
  <g
     color="#ff0000"
     id="g458"
     transform="translate(-2.27615,-3.2771275)">
    <g
       transform="translate(17.4408,8.0199)"
       id="g456">
      <rect
         x="-0.061700001"
         y="-0.27250001"
         width="0.1233"
         height="2.8225"
         ry="0.039999999"
         fill="currentColor"
         id="rect454" />
    </g>
  </g>
  <g
     color="#ff0000"
     id="g464"
     transform="translate(-2.27615,-3.2771275)">
    <g
       transform="translate(17.5025,10.5299)"
       id="g462">
      <path
         transform="scale(0.0034,-0.0034)"
         d="M 0,0 H -18 V 250 H 0 Z m 0,0 v 250 c 96,59 222,149 222,259 0,57 -15,111 -40,162 -3,17 10,29 24,29 8,0 16,-5 21,-13 25,-56 40,-116 40,-178 C 267,306 0,203 0,0 Z"
         fill="currentColor"
         id="path460" />
    </g>
  </g>
  <g
     color="#ff0000"
     id="g472"
     transform="translate(-2.27615,-3.2771275)">
    <a
       style="color:inherit"
       xlink:href="textedit:///Users/tomsegarra/Documents/dev/dummies/lilypond_files/d3b4932cb234155139e5df6a8e7b83a9.ly:28:8:9"
       id="a470">
      <g
         transform="translate(19.6865,7.1699)"
         id="g468">
        <path
           transform="scale(0.0034,-0.0034)"
           d="m 215,137 c 67,0 111,-37 111,-92 0,-90 -111,-182 -215,-182 -67,0 -111,37 -111,92 0,90 111,182 215,182 z"
           fill="currentColor"
           id="path466" />
      </g>
    </a>
  </g>
  <g
     color="#ff0000"
     id="g478"
     transform="translate(-2.27615,-3.2771275)">
    <g
       transform="translate(19.7482,8.0199)"
       id="g476">
      <rect
         x="-0.061700001"
         y="-0.69749999"
         width="0.1233"
         height="2.5462"
         ry="0.039999999"
         fill="currentColor"
         id="rect474" />
    </g>
  </g>
  <g
     color="#ff0000"
     id="g486"
     transform="translate(-2.27615,-3.2771275)">
    <a
       style="color:inherit"
       xlink:href="textedit:///Users/tomsegarra/Documents/dev/dummies/lilypond_files/d3b4932cb234155139e5df6a8e7b83a9.ly:28:13:14"
       id="a484">
      <g
         transform="translate(21.9939,6.7449)"
         id="g482">
        <path
           transform="scale(0.0034,-0.0034)"
           d="m 215,137 c 67,0 111,-37 111,-92 0,-90 -111,-182 -215,-182 -67,0 -111,37 -111,92 0,90 111,182 215,182 z"
           fill="currentColor"
           id="path480" />
      </g>
    </a>
  </g>
  <g
     color="#ff0000"
     id="g492"
     transform="translate(-2.27615,-3.2771275)">
    <g
       transform="translate(22.0556,8.0199)"
       id="g490">
      <rect
         x="-0.061700001"
         y="-1.1224999"
         width="0.1233"
         height="2.6738999"
         ry="0.039999999"
         fill="currentColor"
         id="rect488" />
    </g>
  </g>
  <g
     color="#ff0000"
     id="g500"
     transform="translate(-2.27615,-3.2771275)">
    <a
       style="color:inherit"
       xlink:href="textedit:///Users/tomsegarra/Documents/dev/dummies/lilypond_files/d3b4932cb234155139e5df6a8e7b83a9.ly:28:16:17"
       id="a498">
      <g
         transform="translate(24.3013,7.1699)"
         id="g496">
        <path
           transform="scale(0.0034,-0.0034)"
           d="m 215,137 c 67,0 111,-37 111,-92 0,-90 -111,-182 -215,-182 -67,0 -111,37 -111,92 0,90 111,182 215,182 z"
           fill="currentColor"
           id="path494" />
      </g>
    </a>
  </g>
  <g
     color="#ff0000"
     id="g506"
     transform="translate(-2.27615,-3.2771275)">
    <g
       transform="translate(24.363,8.0199)"
       id="g504">
      <rect
         x="-0.061700001"
         y="-0.69749999"
         width="0.1233"
         height="2.8225"
         ry="0.039999999"
         fill="currentColor"
         id="rect502" />
    </g>
  </g>
  <g
     color="#ff0000"
     id="g512"
     transform="translate(-2.27615,-3.2771275)">
    <g
       transform="translate(24.4246,10.1049)"
       id="g510">
      <path
         transform="scale(0.0034,-0.0034)"
         d="M 0,0 H -18 V 250 H 0 Z m 0,0 v 250 c 96,59 222,149 222,259 0,57 -15,111 -40,162 -3,17 10,29 24,29 8,0 16,-5 21,-13 25,-56 40,-116 40,-178 C 267,306 0,203 0,0 Z"
         fill="currentColor"
         id="path508" />
    </g>
  </g>
  <a
     style="color:inherit"
     xlink:href="textedit:///Users/tomsegarra/Documents/dev/dummies/lilypond_files/d3b4932cb234155139e5df6a8e7b83a9.ly:32:25:26"
     id="a518"
     transform="translate(-2.27615,-3.2771275)">
    <g
       transform="translate(34.7167,8.0199)"
       id="g516">
      <path
         transform="scale(0.0034,-0.0034)"
         d="m 70,205 c 80,0 46,-97 90,-97 15,0 52,45 59,59 6,13 26,13 31,0 L 129,-250 c -9,-7 -19,-11 -30,-11 -11,0 -21,4 -30,11 L 187,76 C 154,64 119,54 84,54 37,54 -3,88 -3,133 c 0,40 33,72 73,72 z"
         fill="currentColor"
         id="path514" />
    </g>
  </a>
  <g
     color="#000000"
     id="g526"
     transform="translate(-2.27615,-3.2771275)">
    <a
       style="color:inherit"
       xlink:href="textedit:///Users/tomsegarra/Documents/dev/dummies/lilypond_files/d3b4932cb234155139e5df6a8e7b83a9.ly:32:4:5"
       id="a524">
      <g
         transform="translate(26.6087,6.7449)"
         id="g522">
        <path
           transform="scale(0.0034,-0.0034)"
           d="m 215,137 c 67,0 111,-37 111,-92 0,-90 -111,-182 -215,-182 -67,0 -111,37 -111,92 0,90 111,182 215,182 z"
           fill="currentColor"
           id="path520" />
      </g>
    </a>
  </g>
  <g
     color="#000000"
     id="g532"
     transform="translate(-2.27615,-3.2771275)">
    <g
       transform="translate(26.6704,8.0199)"
       id="g530">
      <rect
         x="-0.061700001"
         y="-1.1224999"
         width="0.1233"
         height="2.8225"
         ry="0.039999999"
         fill="currentColor"
         id="rect528" />
    </g>
  </g>
  <g
     color="#000000"
     id="g538"
     transform="translate(-2.27615,-3.2771275)">
    <g
       transform="translate(26.732,9.6799)"
       id="g536">
      <path
         transform="scale(0.0034,-0.0034)"
         d="M 0,0 H -18 V 250 H 0 Z m 0,0 v 250 c 96,59 222,149 222,259 0,57 -15,111 -40,162 -3,17 10,29 24,29 8,0 16,-5 21,-13 25,-56 40,-116 40,-178 C 267,306 0,203 0,0 Z"
         fill="currentColor"
         id="path534" />
    </g>
  </g>
  <a
     style="color:inherit"
     xlink:href="textedit:///Users/tomsegarra/Documents/dev/dummies/lilypond_files/d3b4932cb234155139e5df6a8e7b83a9.ly:19:17:18"
     id="a546"
     transform="translate(-2.27615,-3.2771275)">
    <g
       transform="translate(30.1019,4.9225)"
       id="g544">
      <text
         font-family="sans-serif"
         font-size="2.224px"
         text-anchor="start"
         fill="currentColor"
         id="text542"><tspan
           id="tspan540">G</tspan></text>
    </g>
  </a>
  <g
     color="#000000"
     id="g554"
     transform="translate(-2.27615,-3.2771275)">
    <a
       style="color:inherit"
       xlink:href="textedit:///Users/tomsegarra/Documents/dev/dummies/lilypond_files/d3b4932cb234155139e5df6a8e7b83a9.ly:32:21:22"
       id="a552">
      <g
         transform="translate(30.1019,8.0199)"
         id="g550">
        <path
           transform="scale(0.0034,-0.0034)"
           d="m 215,137 c 67,0 111,-37 111,-92 0,-90 -111,-182 -215,-182 -67,0 -111,37 -111,92 0,90 111,182 215,182 z"
           fill="currentColor"
           id="path548" />
      </g>
    </a>
  </g>
  <g
     color="#000000"
     id="g560"
     transform="translate(-2.27615,-3.2771275)">
    <g
       transform="translate(30.1635,8.0199)"
       id="g558">
      <rect
         x="-0.061700001"
         y="0.1525"
         width="0.1233"
         height="2.3975"
         ry="0.039999999"
         fill="currentColor"
         id="rect556" />
    </g>
  </g>
  <g
     color="#000000"
     id="g568"
     transform="translate(-2.27615,-3.2771275)">
    <a
       style="color:inherit"
       xlink:href="textedit:///Users/tomsegarra/Documents/dev/dummies/lilypond_files/d3b4932cb234155139e5df6a8e7b83a9.ly:32:23:24"
       id="a566">
      <g
         transform="translate(32.4093,8.0199)"
         id="g564">
        <path
           transform="scale(0.0034,-0.0034)"
           d="m 215,137 c 67,0 111,-37 111,-92 0,-90 -111,-182 -215,-182 -67,0 -111,37 -111,92 0,90 111,182 215,182 z"
           fill="currentColor"
           id="path562" />
      </g>
    </a>
  </g>
  <g
     color="#000000"
     id="g574"
     transform="translate(-2.27615,-3.2771275)">
    <g
       transform="translate(32.4709,8.0199)"
       id="g572">
      <rect
         x="-0.061700001"
         y="0.1525"
         width="0.1233"
         height="2.3975"
         ry="0.039999999"
         fill="currentColor"
         id="rect570" />
    </g>
  </g>
</svg>
