<?xml version="1.0" encoding="UTF-8" standalone="no"?>
<svg
   version="1.2"
   width="95.599152mm"
   height="16.103115mm"
   viewBox="0 0 54.400716 9.1635617"
   id="svg332"
   sodipodi:docname="d7d54ff9920edbf69e824b5ea141fc2d.svg"
   xmlns:inkscape="http://www.inkscape.org/namespaces/inkscape"
   xmlns:sodipodi="http://sodipodi.sourceforge.net/DTD/sodipodi-0.dtd"
   xmlns:xlink="http://www.w3.org/1999/xlink"
   xmlns="http://www.w3.org/2000/svg"
   xmlns:svg="http://www.w3.org/2000/svg">
  <defs
     id="defs336" />
  <sodipodi:namedview
     id="namedview334"
     pagecolor="#ffffff"
     bordercolor="#000000"
     borderopacity="0.25"
     inkscape:showpageshadow="2"
     inkscape:pageopacity="0.0"
     inkscape:pagecheckerboard="0"
     inkscape:deskcolor="#d1d1d1"
     inkscape:document-units="mm" />
  <style
     type="text/css"
     id="style2"><![CDATA[
tspan { white-space: pre; }
]]></style>
  <!-- Page: 1/1 -->
  <g
     transform="translate(24.124389,3.2105767)"
     id="g6">
    <rect
       x="0"
       y="-1.7"
       width="0.1802"
       height="3.4000001"
       ry="0.0000"
       fill="currentColor"
       id="rect4" />
  </g>
  <g
     transform="translate(-2.1090117e-4,4.9105767)"
     id="g10">
    <line
       stroke-linejoin="round"
       stroke-linecap="round"
       stroke-width="0.0949"
       stroke="currentColor"
       x1="0.047400001"
       y1="0"
       x2="54.353699"
       y2="0"
       id="line8" />
  </g>
  <g
     transform="translate(-2.1090117e-4,4.0605767)"
     id="g14">
    <line
       stroke-linejoin="round"
       stroke-linecap="round"
       stroke-width="0.0949"
       stroke="currentColor"
       x1="0.047400001"
       y1="0"
       x2="54.353699"
       y2="0"
       id="line12" />
  </g>
  <g
     transform="translate(-2.1090117e-4,3.2105767)"
     id="g18">
    <line
       stroke-linejoin="round"
       stroke-linecap="round"
       stroke-width="0.0949"
       stroke="currentColor"
       x1="0.047400001"
       y1="0"
       x2="54.353699"
       y2="0"
       id="line16" />
  </g>
  <g
     transform="translate(-2.1090117e-4,2.3605767)"
     id="g22">
    <line
       stroke-linejoin="round"
       stroke-linecap="round"
       stroke-width="0.0949"
       stroke="currentColor"
       x1="0.047400001"
       y1="0"
       x2="54.353699"
       y2="0"
       id="line20" />
  </g>
  <g
     transform="translate(-2.1090117e-4,1.5105767)"
     id="g26">
    <line
       stroke-linejoin="round"
       stroke-linecap="round"
       stroke-width="0.0949"
       stroke="currentColor"
       x1="0.047400001"
       y1="0"
       x2="54.353699"
       y2="0"
       id="line24" />
  </g>
  <g
     transform="translate(54.220689,3.2105767)"
     id="g30">
    <rect
       x="0"
       y="-1.7"
       width="0.1802"
       height="3.4000001"
       ry="0.0000"
       fill="currentColor"
       id="rect28" />
  </g>
  <a
     style="color:inherit"
     xlink:href="textedit:///Users/tomsegarra/Documents/dev/dummies/lilypond_files/d7d54ff9920edbf69e824b5ea141fc2d.ly:24:17:18"
     id="a36"
     transform="translate(-2.2764109,-3.2761233)">
    <g
       transform="translate(13.0344,5.6367)"
       id="g34">
      <path
         transform="scale(0.0034,-0.0034)"
         d="m 215,137 c 67,0 111,-37 111,-92 0,-90 -111,-182 -215,-182 -67,0 -111,37 -111,92 0,90 111,182 215,182 z"
         fill="currentColor"
         id="path32" />
    </g>
  </a>
  <g
     transform="translate(0.7997891,4.0605767)"
     id="g40">
    <path
       transform="scale(0.0034,-0.0034)"
       d="m 646,2 c 0,-113 -74,-213 -180,-247 3,-34 5,-68 5,-102 0,-20 -1,-40 -2,-60 -7,-121 -91,-228 -209,-228 -108,0 -196,87 -196,196 0,58 53,104 112,104 54,0 95,-48 95,-104 0,-52 -43,-95 -95,-95 -10,0 -20,2 -29,6 26,-38 68,-63 116,-63 h 3 c 93,2 153,92 159,190 1,19 2,37 2,56 0,30 -2,60 -4,90 -5,-1 -43,-8 -88,-8 -194,0 -333,180 -333,375 0,177 130,307 246,442 -31,98 -53,170 -53,347 0,115 55,223 148,290 7,5 16,4 22,-1 68,-80 134,-243 134,-357 0,-143 -85,-255 -178,-364 21,-68 40,-137 57,-206 1,0 5,1 11,1 C 545,264 646,135 646,2 Z M 462,-202 c 66,24 111,88 111,162 0,89 -65,178 -170,190 28,-135 50,-272 59,-352 z M 75,26 c 0,-145 141,-245 263,-245 1,0 46,0 81,6 -7,65 -27,206 -61,363 -79,-8 -124,-61 -124,-119 0,-43 25,-89 80,-121 5,-5 7,-11 7,-16 0,-12 -10,-23 -22,-23 -16,0 -127,63 -127,188 0,89 58,175 161,198 -14,58 -29,116 -46,173 C 181,308 75,186 75,26 Z M 406,1042 C 307,995 244,894 244,785 c 0,-49 13,-111 38,-191 79,97 144,199 144,324 0,33 0,63 -20,124 z"
       fill="currentColor"
       id="path38" />
  </g>
  <a
     style="color:inherit"
     xlink:href="textedit:///Users/tomsegarra/Documents/dev/dummies/lilypond_files/d7d54ff9920edbf69e824b5ea141fc2d.ly:23:1:9"
     id="a50"
     transform="translate(-2.2764109,-3.2761233)">
    <g
       transform="translate(6.5762,4.7867)"
       id="g44">
      <path
         transform="scale(0.0034,-0.0034)"
         d="m 217,-311 c 0,-11 -8,-19 -19,-19 -11,0 -20,8 -20,19 v 142 l -81,-30 v -156 c 0,-11 -9,-20 -20,-20 -11,0 -19,9 -19,20 v 142 l -28,-11 c -3,-1 -5,-1 -8,-1 -12,0 -22,10 -22,23 v 57 c 0,9 6,18 15,21 l 43,16 V 49 L 30,39 C 27,38 25,38 22,38 10,38 0,47 0,60 v 57 c 0,9 6,18 15,21 l 43,16 v 157 c 0,11 8,19 19,19 11,0 20,-8 20,-19 V 169 l 81,30 v 156 c 0,11 9,20 20,20 11,0 19,-9 19,-20 V 213 l 28,11 c 3,1 5,1 8,1 12,0 22,-10 22,-23 v -57 c 0,-9 -6,-18 -15,-21 L 217,108 V -49 l 28,10 c 3,1 5,1 8,1 12,0 22,-9 22,-22 v -57 c 0,-9 -6,-18 -15,-21 l -43,-16 z M 97,64 V -94 l 81,30 V 94 Z"
         fill="currentColor"
         id="path42" />
    </g>
    <g
       transform="translate(7.5112,6.0617)"
       id="g48">
      <path
         transform="scale(0.0034,-0.0034)"
         d="m 217,-311 c 0,-11 -8,-19 -19,-19 -11,0 -20,8 -20,19 v 142 l -81,-30 v -156 c 0,-11 -9,-20 -20,-20 -11,0 -19,9 -19,20 v 142 l -28,-11 c -3,-1 -5,-1 -8,-1 -12,0 -22,10 -22,23 v 57 c 0,9 6,18 15,21 l 43,16 V 49 L 30,39 C 27,38 25,38 22,38 10,38 0,47 0,60 v 57 c 0,9 6,18 15,21 l 43,16 v 157 c 0,11 8,19 19,19 11,0 20,-8 20,-19 V 169 l 81,30 v 156 c 0,11 9,20 20,20 11,0 19,-9 19,-20 V 213 l 28,11 c 3,1 5,1 8,1 12,0 22,-10 22,-23 v -57 c 0,-9 -6,-18 -15,-21 L 217,108 V -49 l 28,10 c 3,1 5,1 8,1 12,0 22,-9 22,-22 v -57 c 0,-9 -6,-18 -15,-21 l -43,-16 z M 97,64 V -94 l 81,30 V 94 Z"
         fill="currentColor"
         id="path46" />
    </g>
  </a>
  <g
     transform="translate(7.3197891,3.2105767)"
     id="g54">
    <path
       transform="scale(0.0034,-0.0034)"
       d="m 358,29 c -30,0 -74,23 -74,73 0,38 27,76 71,76 4,0 7,0 11,-1 -27,36 -69,59 -116,59 -106,0 -113,-74 -113,-188 0,-15 1,-31 1,-48 0,-17 -1,-33 -1,-48 0,-114 7,-188 113,-188 79,0 136,70 155,150 2,7 7,10 13,10 7,0 14,-5 14,-13 0,-21 -50,-175 -182,-175 C 191,-264 0,-244 0,0 0,63 18,264 250,264 365,264 424,155 424,99 424,60 394,29 358,29 Z"
       fill="currentColor"
       id="path52" />
  </g>
  <a
     style="color:inherit"
     xlink:href="textedit:///Users/tomsegarra/Documents/dev/dummies/lilypond_files/d7d54ff9920edbf69e824b5ea141fc2d.ly:31:15:16"
     id="a62"
     transform="translate(-2.2764109,-3.2761233)">
    <g
       transform="translate(11.0615,11.9867)"
       id="g60">
      <text
         font-family="serif"
         font-size="2.0989px"
         text-anchor="start"
         fill="currentColor"
         id="text58"><tspan
           id="tspan56">they'd</tspan></text>
    </g>
  </a>
  <g
     transform="translate(10.819689,3.2105767)"
     id="g66">
    <rect
       x="-0.061700001"
       y="-0.69749999"
       width="0.1233"
       height="2.8225"
       ry="0.039999999"
       fill="currentColor"
       id="rect64" />
  </g>
  <g
     transform="translate(10.881289,5.2955767)"
     id="g70">
    <path
       transform="scale(0.0034,-0.0034)"
       d="M 0,0 H -18 V 250 H 0 Z m 0,0 v 250 c 96,59 222,149 222,259 0,57 -15,111 -40,162 -3,17 10,29 24,29 8,0 16,-5 21,-13 25,-56 40,-116 40,-178 C 267,306 0,203 0,0 Z"
       fill="currentColor"
       id="path68" />
  </g>
  <a
     style="color:inherit"
     xlink:href="textedit:///Users/tomsegarra/Documents/dev/dummies/lilypond_files/d7d54ff9920edbf69e824b5ea141fc2d.ly:25:17:18"
     id="a76"
     transform="translate(-2.2764109,-3.2761233)">
    <g
       transform="translate(36.082,6.4867)"
       id="g74">
      <path
         transform="scale(0.0034,-0.0034)"
         d="m 215,137 c 67,0 111,-37 111,-92 0,-90 -111,-182 -215,-182 -67,0 -111,37 -111,92 0,90 111,182 215,182 z"
         fill="currentColor"
         id="path72" />
    </g>
  </a>
  <g
     transform="translate(34.851289,3.2105767)"
     id="g80">
    <rect
       x="-0.061700001"
       y="-2.5483999"
       width="0.1233"
       height="2.3959999"
       ry="0.039999999"
       fill="currentColor"
       id="rect78" />
  </g>
  <a
     style="color:inherit"
     xlink:href="textedit:///Users/tomsegarra/Documents/dev/dummies/lilypond_files/d7d54ff9920edbf69e824b5ea141fc2d.ly:25:19:20"
     id="a86"
     transform="translate(-2.2764109,-3.2761233)">
    <g
       transform="translate(38.5226,6.9117)"
       id="g84">
      <path
         transform="scale(0.0034,-0.0034)"
         d="m 215,137 c 67,0 111,-37 111,-92 0,-90 -111,-182 -215,-182 -67,0 -111,37 -111,92 0,90 111,182 215,182 z"
         fill="currentColor"
         id="path82" />
    </g>
  </a>
  <a
     style="color:inherit"
     xlink:href="textedit:///Users/tomsegarra/Documents/dev/dummies/lilypond_files/d7d54ff9920edbf69e824b5ea141fc2d.ly:31:42:43"
     id="a94"
     transform="translate(-2.2764109,-3.2761233)">
    <g
       transform="translate(37.2667,11.9867)"
       id="g92">
      <text
         font-family="serif"
         font-size="2.0989px"
         text-anchor="start"
         fill="currentColor"
         id="text90"><tspan
           id="tspan88">kept</tspan></text>
    </g>
  </a>
  <g
     transform="translate(37.291889,3.2105767)"
     id="g98">
    <rect
       x="-0.061700001"
       y="-2.4869001"
       width="0.1233"
       height="2.7593999"
       ry="0.039999999"
       fill="currentColor"
       id="rect96" />
  </g>
  <a
     style="color:inherit"
     xlink:href="textedit:///Users/tomsegarra/Documents/dev/dummies/lilypond_files/d7d54ff9920edbf69e824b5ea141fc2d.ly:24:31:32"
     id="a104"
     transform="translate(-2.2764109,-3.2761233)">
    <g
       transform="translate(24.2592,6.4867)"
       id="g102">
      <path
         stroke-width="0.0759"
         stroke-linejoin="round"
         stroke-linecap="round"
         stroke="currentColor"
         fill="currentColor"
         d="m 0.7537,-1.0413 c 0.6451,-0.691 2.3066,-0.691 2.9517,0 v 0 c -0.6451,-0.5771 -2.3066,-0.5771 -2.9517,0 z"
         id="path100" />
    </g>
  </a>
  <g
     color="#ff0000"
     id="g112"
     transform="translate(-2.2764109,-3.2761233)">
    <a
       style="color:inherit"
       xlink:href="textedit:///Users/tomsegarra/Documents/dev/dummies/lilypond_files/d7d54ff9920edbf69e824b5ea141fc2d.ly:29:4:5"
       id="a110">
      <g
         transform="translate(42.165,6.9117)"
         id="g108">
        <path
           transform="scale(0.0034,-0.0034)"
           d="m 215,137 c 67,0 111,-37 111,-92 0,-90 -111,-182 -215,-182 -67,0 -111,37 -111,92 0,90 111,182 215,182 z"
           fill="currentColor"
           id="path106" />
      </g>
    </a>
  </g>
  <a
     style="color:inherit"
     xlink:href="textedit:///Users/tomsegarra/Documents/dev/dummies/lilypond_files/d7d54ff9920edbf69e824b5ea141fc2d.ly:31:47:48"
     id="a120"
     transform="translate(-2.2764109,-3.2761233)">
    <g
       transform="translate(41.3359,11.9867)"
       id="g118">
      <text
         font-family="serif"
         font-size="2.0989px"
         text-anchor="start"
         fill="currentColor"
         id="text116"><tspan
           id="tspan114">fall</tspan></text>
    </g>
  </a>
  <g
     color="#ff0000"
     id="g126"
     transform="translate(-2.2764109,-3.2761233)">
    <g
       transform="translate(43.2107,6.4867)"
       id="g124">
      <rect
         x="-0.061700001"
         y="-2.395"
         width="0.1233"
         height="2.6675"
         ry="0.039999999"
         fill="currentColor"
         id="rect122" />
    </g>
  </g>
  <g
     color="#ff0000"
     id="g134"
     transform="translate(-2.2764109,-3.2761233)">
    <a
       style="color:inherit"
       xlink:href="textedit:///Users/tomsegarra/Documents/dev/dummies/lilypond_files/d7d54ff9920edbf69e824b5ea141fc2d.ly:29:11:12"
       id="a132">
      <g
         transform="translate(44.655,7.7617)"
         id="g130">
        <path
           transform="scale(0.0034,-0.0034)"
           d="m 215,137 c 67,0 111,-37 111,-92 0,-90 -111,-182 -215,-182 -67,0 -111,37 -111,92 0,90 111,182 215,182 z"
           fill="currentColor"
           id="path128" />
      </g>
    </a>
  </g>
  <a
     style="color:inherit"
     xlink:href="textedit:///Users/tomsegarra/Documents/dev/dummies/lilypond_files/d7d54ff9920edbf69e824b5ea141fc2d.ly:31:55:56"
     id="a142"
     transform="translate(-2.2764109,-3.2761233)">
    <g
       transform="translate(44.2015,11.9867)"
       id="g140">
      <text
         font-family="serif"
         font-size="2.0989px"
         text-anchor="start"
         fill="currentColor"
         id="text138"><tspan
           id="tspan136">in'</tspan></text>
    </g>
  </a>
  <g
     color="#ff0000"
     id="g148"
     transform="translate(-2.2764109,-3.2761233)">
    <g
       transform="translate(45.7008,6.4867)"
       id="g146">
      <rect
         x="-0.061700001"
         y="-1.8676"
         width="0.1233"
         height="2.9900999"
         ry="0.039999999"
         fill="currentColor"
         id="rect144" />
    </g>
  </g>
  <g
     transform="translate(19.391489,5.0023767)"
     id="g152">
    <polygon
       stroke-linejoin="round"
       stroke-linecap="round"
       stroke-width="0.08"
       fill="currentColor"
       stroke="currentColor"
       points="0.04,0.164 0.04,-0.164 2.6747,-0.0992 2.6747,0.2288 "
       id="polygon150" />
  </g>
  <g
     transform="translate(15.544189,5.6039767)"
     id="g156">
    <polygon
       stroke-linejoin="round"
       stroke-linecap="round"
       stroke-width="0.08"
       fill="currentColor"
       stroke="currentColor"
       points="0.04,0.164 0.04,-0.164 6.5219,-0.0074 6.5219,0.3206 "
       id="polygon154" />
  </g>
  <g
     color="#ff0000"
     id="g164"
     transform="translate(-2.2764109,-3.2761233)">
    <a
       style="color:inherit"
       xlink:href="textedit:///Users/tomsegarra/Documents/dev/dummies/lilypond_files/d7d54ff9920edbf69e824b5ea141fc2d.ly:29:14:15"
       id="a162">
      <g
         transform="translate(48.4124,6.4867)"
         id="g160">
        <path
           transform="scale(0.0034,-0.0034)"
           d="m 215,137 c 67,0 111,-37 111,-92 0,-90 -111,-182 -215,-182 -67,0 -111,37 -111,92 0,90 111,182 215,182 z"
           fill="currentColor"
           id="path158" />
      </g>
    </a>
  </g>
  <a
     style="color:inherit"
     xlink:href="textedit:///Users/tomsegarra/Documents/dev/dummies/lilypond_files/d7d54ff9920edbf69e824b5ea141fc2d.ly:31:59:60"
     id="a172"
     transform="translate(-2.2764109,-3.2761233)">
    <g
       transform="translate(48.4124,11.9867)"
       id="g170">
      <text
         font-family="serif"
         font-size="2.0989px"
         text-anchor="start"
         fill="currentColor"
         id="text168"><tspan
           id="tspan166">down</tspan></text>
    </g>
  </a>
  <g
     color="#ff0000"
     id="g178"
     transform="translate(-2.2764109,-3.2761233)">
    <g
       transform="translate(49.4582,6.4867)"
       id="g176">
      <rect
         x="-0.061700001"
         y="-2.539"
         width="0.1233"
         height="2.3864999"
         ry="0.039999999"
         fill="currentColor"
         id="rect174" />
    </g>
  </g>
  <g
     color="#ff0000"
     id="g186"
     transform="translate(-2.2764109,-3.2761233)">
    <a
       style="color:inherit"
       xlink:href="textedit:///Users/tomsegarra/Documents/dev/dummies/lilypond_files/d7d54ff9920edbf69e824b5ea141fc2d.ly:29:20:21"
       id="a184">
      <g
         transform="translate(51.9198,6.4867)"
         id="g182">
        <path
           transform="scale(0.0034,-0.0034)"
           d="m 215,137 c 67,0 111,-37 111,-92 0,-90 -111,-182 -215,-182 -67,0 -111,37 -111,92 0,90 111,182 215,182 z"
           fill="currentColor"
           id="path180" />
      </g>
    </a>
  </g>
  <g
     color="#ff0000"
     id="g192"
     transform="translate(-2.2764109,-3.2761233)">
    <g
       transform="translate(51.9815,6.4867)"
       id="g190">
      <rect
         x="-0.061700001"
         y="0.1525"
         width="0.1233"
         height="2.6809001"
         ry="0.039999999"
         fill="currentColor"
         id="rect188" />
    </g>
  </g>
  <a
     style="color:inherit"
     xlink:href="textedit:///Users/tomsegarra/Documents/dev/dummies/lilypond_files/d7d54ff9920edbf69e824b5ea141fc2d.ly:25:12:13"
     id="a198"
     transform="translate(-2.2764109,-3.2761233)">
    <g
       transform="translate(33.6414,6.4867)"
       id="g196">
      <path
         stroke-width="0.0759"
         stroke-linejoin="round"
         stroke-linecap="round"
         stroke="currentColor"
         fill="currentColor"
         d="m 1.3074,-0.2086 c 0.2616,-0.3461 0.6716,-0.3461 0.9332,0 v 0 c -0.2616,-0.2322 -0.6716,-0.2322 -0.9332,0 z"
         id="path194" />
    </g>
  </a>
  <a
     style="color:inherit"
     xlink:href="textedit:///Users/tomsegarra/Documents/dev/dummies/lilypond_files/d7d54ff9920edbf69e824b5ea141fc2d.ly:24:24:25"
     id="a204"
     transform="translate(-2.2764109,-3.2761233)">
    <g
       transform="translate(17.8206,5.6367)"
       id="g202">
      <path
         transform="scale(0.0034,-0.0034)"
         d="m 215,137 c 67,0 111,-37 111,-92 0,-90 -111,-182 -215,-182 -67,0 -111,37 -111,92 0,90 111,182 215,182 z"
         fill="currentColor"
         id="path200" />
    </g>
  </a>
  <a
     style="color:inherit"
     xlink:href="textedit:///Users/tomsegarra/Documents/dev/dummies/lilypond_files/d7d54ff9920edbf69e824b5ea141fc2d.ly:31:22:23"
     id="a212"
     transform="translate(-2.2764109,-3.2761233)">
    <g
       transform="translate(16.5647,11.9867)"
       id="g210">
      <text
         font-family="serif"
         font-size="2.0989px"
         text-anchor="start"
         fill="currentColor"
         id="text208"><tspan
           id="tspan206">pick</tspan></text>
    </g>
  </a>
  <g
     transform="translate(15.605889,3.2105767)"
     id="g216">
    <rect
       x="-0.061700001"
       y="-0.69749999"
       width="0.1233"
       height="3.0924001"
       ry="0.039999999"
       fill="currentColor"
       id="rect214" />
  </g>
  <a
     style="color:inherit"
     xlink:href="textedit:///Users/tomsegarra/Documents/dev/dummies/lilypond_files/d7d54ff9920edbf69e824b5ea141fc2d.ly:24:26:27"
     id="a222"
     transform="translate(-2.2764109,-3.2761233)">
    <g
       transform="translate(21.6679,6.0617)"
       id="g220">
      <path
         transform="scale(0.0034,-0.0034)"
         d="m 215,137 c 67,0 111,-37 111,-92 0,-90 -111,-182 -215,-182 -67,0 -111,37 -111,92 0,90 111,182 215,182 z"
         fill="currentColor"
         id="path218" />
    </g>
  </a>
  <a
     style="color:inherit"
     xlink:href="textedit:///Users/tomsegarra/Documents/dev/dummies/lilypond_files/d7d54ff9920edbf69e824b5ea141fc2d.ly:31:27:28"
     id="a230"
     transform="translate(-2.2764109,-3.2761233)">
    <g
       transform="translate(20.6339,11.9867)"
       id="g228">
      <text
         font-family="serif"
         font-size="2.0989px"
         text-anchor="start"
         fill="currentColor"
         id="text226"><tspan
           id="tspan224">you</tspan></text>
    </g>
  </a>
  <g
     transform="translate(19.453089,3.2105767)"
     id="g234">
    <rect
       x="-0.061700001"
       y="-0.27250001"
       width="0.1233"
       height="2.7592001"
       ry="0.039999999"
       fill="currentColor"
       id="rect232" />
  </g>
  <g
     transform="translate(28.841889,5.3766767)"
     id="g238">
    <polygon
       stroke-linejoin="round"
       stroke-linecap="round"
       stroke-width="0.08"
       fill="currentColor"
       stroke="currentColor"
       points="0.04,0.164 0.04,-0.164 2.6064,-0.0486 2.6064,0.2794 "
       id="polygon236" />
  </g>
  <g
     transform="translate(25.334489,5.9170767)"
     id="g242">
    <polygon
       stroke-linejoin="round"
       stroke-linecap="round"
       stroke-width="0.08"
       fill="currentColor"
       stroke="currentColor"
       points="0.04,0.164 0.04,-0.164 6.1138,0.1044 6.1138,0.4324 "
       id="polygon240" />
  </g>
  <a
     style="color:inherit"
     xlink:href="textedit:///Users/tomsegarra/Documents/dev/dummies/lilypond_files/d7d54ff9920edbf69e824b5ea141fc2d.ly:24:30:31"
     id="a248"
     transform="translate(-2.2764109,-3.2761233)">
    <g
       transform="translate(24.2592,6.0617)"
       id="g246">
      <path
         transform="scale(0.0034,-0.0034)"
         d="m 215,137 c 67,0 111,-37 111,-92 0,-90 -111,-182 -215,-182 -67,0 -111,37 -111,92 0,90 111,182 215,182 z"
         fill="currentColor"
         id="path244" />
    </g>
  </a>
  <a
     style="color:inherit"
     xlink:href="textedit:///Users/tomsegarra/Documents/dev/dummies/lilypond_files/d7d54ff9920edbf69e824b5ea141fc2d.ly:31:31:32"
     id="a256"
     transform="translate(-2.2764109,-3.2761233)">
    <g
       transform="translate(24.2592,11.9867)"
       id="g254">
      <text
         font-family="serif"
         font-size="2.0989px"
         text-anchor="start"
         fill="currentColor"
         id="text252"><tspan
           id="tspan250">up</tspan></text>
    </g>
  </a>
  <g
     transform="translate(22.044489,3.2105767)"
     id="g260">
    <rect
       x="-0.061700001"
       y="-0.27250001"
       width="0.1233"
       height="2.8211"
       ry="0.039999999"
       fill="currentColor"
       id="rect258" />
  </g>
  <a
     style="color:inherit"
     xlink:href="textedit:///Users/tomsegarra/Documents/dev/dummies/lilypond_files/d7d54ff9920edbf69e824b5ea141fc2d.ly:25:4:5"
     id="a266"
     transform="translate(-2.2764109,-3.2761233)">
    <g
       transform="translate(27.6109,6.0617)"
       id="g264">
      <path
         transform="scale(0.0034,-0.0034)"
         d="m 215,137 c 67,0 111,-37 111,-92 0,-90 -111,-182 -215,-182 -67,0 -111,37 -111,92 0,90 111,182 215,182 z"
         fill="currentColor"
         id="path262" />
    </g>
  </a>
  <g
     transform="translate(25.396189,3.2105767)"
     id="g270">
    <rect
       x="-0.061700001"
       y="-0.27250001"
       width="0.1233"
       height="2.9818001"
       ry="0.039999999"
       fill="currentColor"
       id="rect268" />
  </g>
  <a
     style="color:inherit"
     xlink:href="textedit:///Users/tomsegarra/Documents/dev/dummies/lilypond_files/d7d54ff9920edbf69e824b5ea141fc2d.ly:25:7:8"
     id="a276"
     transform="translate(-2.2764109,-3.2761233)">
    <g
       transform="translate(31.1183,6.4867)"
       id="g274">
      <path
         transform="scale(0.0034,-0.0034)"
         d="m 215,137 c 67,0 111,-37 111,-92 0,-90 -111,-182 -215,-182 -67,0 -111,37 -111,92 0,90 111,182 215,182 z"
         fill="currentColor"
         id="path272" />
    </g>
  </a>
  <a
     style="color:inherit"
     xlink:href="textedit:///Users/tomsegarra/Documents/dev/dummies/lilypond_files/d7d54ff9920edbf69e824b5ea141fc2d.ly:31:34:35"
     id="a284"
     transform="translate(-2.2764109,-3.2761233)">
    <g
       transform="translate(30.1526,11.9867)"
       id="g282">
      <text
         font-family="serif"
         font-size="2.0989px"
         text-anchor="start"
         fill="currentColor"
         id="text280"><tspan
           id="tspan278">and</tspan></text>
    </g>
  </a>
  <g
     transform="translate(28.903589,3.2105767)"
     id="g288">
    <rect
       x="-0.061700001"
       y="0.1525"
       width="0.1233"
       height="2.7098"
       ry="0.039999999"
       fill="currentColor"
       id="rect286" />
  </g>
  <g
     transform="translate(34.789689,0.66057666)"
     id="g292">
    <polygon
       stroke-linejoin="round"
       stroke-linecap="round"
       stroke-width="0.08"
       fill="currentColor"
       stroke="currentColor"
       points="0.04,0.164 0.04,-0.164 6.1663,-0.0074 6.1663,0.3206 "
       id="polygon290" />
  </g>
  <g
     transform="translate(39.834289,1.4812767)"
     id="g296">
    <polygon
       stroke-linejoin="round"
       stroke-linecap="round"
       stroke-width="0.08"
       fill="currentColor"
       stroke="currentColor"
       points="0.04,0.164 0.04,-0.164 1.1217,-0.1347 1.1217,0.1933 "
       id="polygon294" />
  </g>
  <g
     transform="translate(34.789689,1.3539767)"
     id="g300">
    <polygon
       stroke-linejoin="round"
       stroke-linecap="round"
       stroke-width="0.08"
       fill="currentColor"
       stroke="currentColor"
       points="0.04,0.164 0.04,-0.164 1.1217,-0.1347 1.1217,0.1933 "
       id="polygon298" />
  </g>
  <a
     style="color:inherit"
     xlink:href="textedit:///Users/tomsegarra/Documents/dev/dummies/lilypond_files/d7d54ff9920edbf69e824b5ea141fc2d.ly:25:11:12"
     id="a306"
     transform="translate(-2.2764109,-3.2761233)">
    <g
       transform="translate(33.6414,6.4867)"
       id="g304">
      <path
         transform="scale(0.0034,-0.0034)"
         d="m 215,137 c 67,0 111,-37 111,-92 0,-90 -111,-182 -215,-182 -67,0 -111,37 -111,92 0,90 111,182 215,182 z"
         fill="currentColor"
         id="path302" />
    </g>
  </a>
  <a
     style="color:inherit"
     xlink:href="textedit:///Users/tomsegarra/Documents/dev/dummies/lilypond_files/d7d54ff9920edbf69e824b5ea141fc2d.ly:31:38:39"
     id="a314"
     transform="translate(-2.2764109,-3.2761233)">
    <g
       transform="translate(33.6414,11.9867)"
       id="g312">
      <text
         font-family="serif"
         font-size="2.0989px"
         text-anchor="start"
         fill="currentColor"
         id="text310"><tspan
           id="tspan308">you</tspan></text>
    </g>
  </a>
  <g
     transform="translate(31.426589,3.2105767)"
     id="g318">
    <rect
       x="-0.061700001"
       y="0.1525"
       width="0.1233"
       height="2.8199"
       ry="0.039999999"
       fill="currentColor"
       id="rect316" />
  </g>
  <g
     color="#ff0000"
     id="g324"
     transform="translate(-2.2764109,-3.2761233)">
    <g
       transform="translate(45.6391,4.6301)"
       id="g322">
      <polygon
         stroke-linejoin="round"
         stroke-linecap="round"
         stroke-width="0.08"
         fill="currentColor"
         stroke="currentColor"
         points="0.04,0.164 0.04,-0.164 3.8407,-0.8574 3.8407,-0.5294 "
         id="polygon320" />
    </g>
  </g>
  <a
     style="color:inherit"
     xlink:href="textedit:///Users/tomsegarra/Documents/dev/dummies/lilypond_files/d7d54ff9920edbf69e824b5ea141fc2d.ly:29:16:17"
     id="a330"
     transform="translate(-2.2764109,-3.2761233)">
    <g
       transform="translate(48.4124,6.4867)"
       id="g328">
      <path
         stroke-width="0.0759"
         stroke-linejoin="round"
         stroke-linecap="round"
         stroke="currentColor"
         fill="currentColor"
         d="m 1.4382,-0.1864 c 0.4633,-0.5498 1.4059,-0.5498 1.8692,0 v 0 c -0.4633,-0.4359 -1.4059,-0.4359 -1.8692,0 z"
         id="path326" />
    </g>
  </a>
</svg>
