<?xml version="1.0" encoding="UTF-8" standalone="no"?>
<svg
   version="1.2"
   width="116.37907mm"
   height="20.021053mm"
   viewBox="0 0 66.224049 11.393085"
   id="svg578"
   sodipodi:docname="dcb4d2f50714c01239b10d0d80975f56.svg"
   xmlns:inkscape="http://www.inkscape.org/namespaces/inkscape"
   xmlns:sodipodi="http://sodipodi.sourceforge.net/DTD/sodipodi-0.dtd"
   xmlns:xlink="http://www.w3.org/1999/xlink"
   xmlns="http://www.w3.org/2000/svg"
   xmlns:svg="http://www.w3.org/2000/svg">
  <defs
     id="defs582" />
  <sodipodi:namedview
     id="namedview580"
     pagecolor="#ffffff"
     bordercolor="#000000"
     borderopacity="0.25"
     inkscape:showpageshadow="2"
     inkscape:pageopacity="0.0"
     inkscape:pagecheckerboard="0"
     inkscape:deskcolor="#d1d1d1"
     inkscape:document-units="mm" />
  <style
     type="text/css"
     id="style2"><![CDATA[
tspan { white-space: pre; }
]]></style>
  <!-- Page: 1/1 -->
  <g
     transform="translate(66.031844,5.4401)"
     id="g6">
    <rect
       x="0"
       y="-1.7"
       width="0.1802"
       height="3.4000001"
       ry="0.0000"
       fill="currentColor"
       id="rect4" />
  </g>
  <g
     transform="translate(-0.00105579,2.8901)"
     id="g10">
    <rect
       x="63.521702"
       y="-0.089900002"
       width="1.6611"
       height="0.17990001"
       ry="0.089900002"
       fill="currentColor"
       id="rect8" />
  </g>
  <g
     transform="translate(-0.00105579,2.8901)"
     id="g14">
    <rect
       x="54.922401"
       y="-0.089900002"
       width="1.6611"
       height="0.17990001"
       ry="0.089900002"
       fill="currentColor"
       id="rect12" />
  </g>
  <g
     transform="translate(-0.00105579,2.8901)"
     id="g18">
    <rect
       x="51.525799"
       y="-0.089900002"
       width="1.6611"
       height="0.17990001"
       ry="0.089900002"
       fill="currentColor"
       id="rect16" />
  </g>
  <g
     transform="translate(-0.00105579,2.8901)"
     id="g22">
    <rect
       x="48.129101"
       y="-0.089900002"
       width="1.6611"
       height="0.17990001"
       ry="0.089900002"
       fill="currentColor"
       id="rect20" />
  </g>
  <g
     transform="translate(-0.00105579,2.0401)"
     id="g26">
    <rect
       x="46.0718"
       y="-0.089900002"
       width="1.6611"
       height="0.17990001"
       ry="0.089900002"
       fill="currentColor"
       id="rect24" />
  </g>
  <g
     transform="translate(-0.00105579,2.8901)"
     id="g30">
    <rect
       x="46.0718"
       y="-0.089900002"
       width="1.6611"
       height="0.17990001"
       ry="0.089900002"
       fill="currentColor"
       id="rect28" />
  </g>
  <g
     transform="translate(-0.00105579,2.0401)"
     id="g34">
    <rect
       x="43.7644"
       y="-0.089900002"
       width="1.6611"
       height="0.17990001"
       ry="0.089900002"
       fill="currentColor"
       id="rect32" />
  </g>
  <g
     transform="translate(-0.00105579,2.8901)"
     id="g38">
    <rect
       x="43.7644"
       y="-0.089900002"
       width="1.6611"
       height="0.17990001"
       ry="0.089900002"
       fill="currentColor"
       id="rect36" />
  </g>
  <g
     transform="translate(-0.00105579,2.0401)"
     id="g42">
    <rect
       x="41.457001"
       y="-0.089900002"
       width="1.6611"
       height="0.17990001"
       ry="0.089900002"
       fill="currentColor"
       id="rect40" />
  </g>
  <g
     transform="translate(-0.00105579,2.8901)"
     id="g46">
    <rect
       x="41.457001"
       y="-0.089900002"
       width="1.6611"
       height="0.17990001"
       ry="0.089900002"
       fill="currentColor"
       id="rect44" />
  </g>
  <g
     transform="translate(-0.00105579,2.0401)"
     id="g50">
    <rect
       x="38.630798"
       y="-0.089900002"
       width="1.6611"
       height="0.17990001"
       ry="0.089900002"
       fill="currentColor"
       id="rect48" />
  </g>
  <g
     transform="translate(-0.00105579,2.8901)"
     id="g54">
    <rect
       x="38.630798"
       y="-0.089900002"
       width="1.6611"
       height="0.17990001"
       ry="0.089900002"
       fill="currentColor"
       id="rect52" />
  </g>
  <g
     transform="translate(-0.00105579,1.1901)"
     id="g58">
    <rect
       x="36.1077"
       y="-0.089900002"
       width="1.6611"
       height="0.17990001"
       ry="0.089900002"
       fill="currentColor"
       id="rect56" />
  </g>
  <g
     transform="translate(-0.00105579,2.0401)"
     id="g62">
    <rect
       x="36.1077"
       y="-0.089900002"
       width="1.6611"
       height="0.17990001"
       ry="0.089900002"
       fill="currentColor"
       id="rect60" />
  </g>
  <g
     transform="translate(-0.00105579,2.8901)"
     id="g66">
    <rect
       x="36.1077"
       y="-0.089900002"
       width="1.6611"
       height="0.17990001"
       ry="0.089900002"
       fill="currentColor"
       id="rect64" />
  </g>
  <g
     transform="translate(-0.00105579,1.1901)"
     id="g70">
    <rect
       x="33.248901"
       y="-0.089900002"
       width="1.6611"
       height="0.17990001"
       ry="0.089900002"
       fill="currentColor"
       id="rect68" />
  </g>
  <g
     transform="translate(-0.00105579,2.0401)"
     id="g74">
    <rect
       x="33.248901"
       y="-0.089900002"
       width="1.6611"
       height="0.17990001"
       ry="0.089900002"
       fill="currentColor"
       id="rect72" />
  </g>
  <g
     transform="translate(-0.00105579,2.8901)"
     id="g78">
    <rect
       x="33.248901"
       y="-0.089900002"
       width="1.6611"
       height="0.17990001"
       ry="0.089900002"
       fill="currentColor"
       id="rect76" />
  </g>
  <g
     transform="translate(-0.00105579,1.1901)"
     id="g82">
    <rect
       x="30.389999"
       y="-0.089900002"
       width="1.6611"
       height="0.17990001"
       ry="0.089900002"
       fill="currentColor"
       id="rect80" />
  </g>
  <g
     transform="translate(-0.00105579,2.0401)"
     id="g86">
    <rect
       x="30.389999"
       y="-0.089900002"
       width="1.6611"
       height="0.17990001"
       ry="0.089900002"
       fill="currentColor"
       id="rect84" />
  </g>
  <g
     transform="translate(-0.00105579,2.8901)"
     id="g90">
    <rect
       x="30.389999"
       y="-0.089900002"
       width="1.6611"
       height="0.17990001"
       ry="0.089900002"
       fill="currentColor"
       id="rect88" />
  </g>
  <g
     transform="translate(-0.00105579,2.0401)"
     id="g94">
    <rect
       x="28.0826"
       y="-0.089900002"
       width="1.6611"
       height="0.17990001"
       ry="0.089900002"
       fill="currentColor"
       id="rect92" />
  </g>
  <g
     transform="translate(-0.00105579,2.8901)"
     id="g98">
    <rect
       x="28.0826"
       y="-0.089900002"
       width="1.6611"
       height="0.17990001"
       ry="0.089900002"
       fill="currentColor"
       id="rect96" />
  </g>
  <g
     transform="translate(-0.00105579,2.0401)"
     id="g102">
    <rect
       x="25.7752"
       y="-0.089900002"
       width="1.6611"
       height="0.17990001"
       ry="0.089900002"
       fill="currentColor"
       id="rect100" />
  </g>
  <g
     transform="translate(-0.00105579,2.8901)"
     id="g106">
    <rect
       x="25.7752"
       y="-0.089900002"
       width="1.6611"
       height="0.17990001"
       ry="0.089900002"
       fill="currentColor"
       id="rect104" />
  </g>
  <g
     transform="translate(-0.00105579,2.0401)"
     id="g110">
    <rect
       x="23.4678"
       y="-0.089900002"
       width="1.6611"
       height="0.17990001"
       ry="0.089900002"
       fill="currentColor"
       id="rect108" />
  </g>
  <g
     transform="translate(-0.00105579,2.8901)"
     id="g114">
    <rect
       x="23.4678"
       y="-0.089900002"
       width="1.6611"
       height="0.17990001"
       ry="0.089900002"
       fill="currentColor"
       id="rect112" />
  </g>
  <g
     transform="translate(-0.00105579,2.0401)"
     id="g118">
    <rect
       x="20.440001"
       y="-0.089900002"
       width="1.6611"
       height="0.17990001"
       ry="0.089900002"
       fill="currentColor"
       id="rect116" />
  </g>
  <g
     transform="translate(-0.00105579,2.8901)"
     id="g122">
    <rect
       x="20.440001"
       y="-0.089900002"
       width="1.6611"
       height="0.17990001"
       ry="0.089900002"
       fill="currentColor"
       id="rect120" />
  </g>
  <g
     transform="translate(-0.00105579,2.0401)"
     id="g126">
    <rect
       x="17.361"
       y="-0.089900002"
       width="1.6611"
       height="0.17990001"
       ry="0.089900002"
       fill="currentColor"
       id="rect124" />
  </g>
  <g
     transform="translate(-0.00105579,2.8901)"
     id="g130">
    <rect
       x="17.361"
       y="-0.089900002"
       width="1.6611"
       height="0.17990001"
       ry="0.089900002"
       fill="currentColor"
       id="rect128" />
  </g>
  <g
     transform="translate(-0.00105579,2.0401)"
     id="g134">
    <rect
       x="13.9832"
       y="-0.089900002"
       width="1.6611"
       height="0.17990001"
       ry="0.089900002"
       fill="currentColor"
       id="rect132" />
  </g>
  <g
     transform="translate(-0.00105579,2.8901)"
     id="g138">
    <rect
       x="13.9832"
       y="-0.089900002"
       width="1.6611"
       height="0.17990001"
       ry="0.089900002"
       fill="currentColor"
       id="rect136" />
  </g>
  <g
     transform="translate(-0.00105579,2.0401)"
     id="g142">
    <rect
       x="10.4813"
       y="-0.089900002"
       width="1.6611"
       height="0.17990001"
       ry="0.089900002"
       fill="currentColor"
       id="rect140" />
  </g>
  <g
     transform="translate(-0.00105579,2.8901)"
     id="g146">
    <rect
       x="10.4813"
       y="-0.089900002"
       width="1.6611"
       height="0.17990001"
       ry="0.089900002"
       fill="currentColor"
       id="rect144" />
  </g>
  <g
     transform="translate(-0.00105579,7.1401)"
     id="g150">
    <line
       stroke-linejoin="round"
       stroke-linecap="round"
       stroke-width="0.0949"
       stroke="currentColor"
       x1="0.047400001"
       y1="0"
       x2="66.165604"
       y2="0"
       id="line148" />
  </g>
  <g
     transform="translate(-0.00105579,6.2901)"
     id="g154">
    <line
       stroke-linejoin="round"
       stroke-linecap="round"
       stroke-width="0.0949"
       stroke="currentColor"
       x1="0.047400001"
       y1="0"
       x2="66.165604"
       y2="0"
       id="line152" />
  </g>
  <g
     transform="translate(-0.00105579,5.4401)"
     id="g158">
    <line
       stroke-linejoin="round"
       stroke-linecap="round"
       stroke-width="0.0949"
       stroke="currentColor"
       x1="0.047400001"
       y1="0"
       x2="66.165604"
       y2="0"
       id="line156" />
  </g>
  <g
     transform="translate(-0.00105579,4.5901)"
     id="g162">
    <line
       stroke-linejoin="round"
       stroke-linecap="round"
       stroke-width="0.0949"
       stroke="currentColor"
       x1="0.047400001"
       y1="0"
       x2="66.165604"
       y2="0"
       id="line160" />
  </g>
  <g
     transform="translate(-0.00105579,3.7401)"
     id="g166">
    <line
       stroke-linejoin="round"
       stroke-linecap="round"
       stroke-width="0.0949"
       stroke="currentColor"
       x1="0.047400001"
       y1="0"
       x2="66.165604"
       y2="0"
       id="line164" />
  </g>
  <g
     transform="translate(40.514044,5.4401)"
     id="g170">
    <rect
       x="0"
       y="-1.7"
       width="0.1802"
       height="3.4000001"
       ry="0.0000"
       fill="currentColor"
       id="rect168" />
  </g>
  <g
     transform="translate(13.064544,5.4401)"
     id="g174">
    <rect
       x="0"
       y="-1.7"
       width="0.1802"
       height="3.4000001"
       ry="0.0000"
       fill="currentColor"
       id="rect172" />
  </g>
  <a
     style="color:inherit"
     xlink:href="textedit:///Users/tomsegarra/Documents/dev/dummies/lilypond_files/dcb4d2f50714c01239b10d0d80975f56.ly:24:15:16"
     id="a180"
     transform="translate(-2.2772558,-3.2741)">
    <g
       transform="translate(13.0344,5.3142)"
       id="g178">
      <path
         transform="scale(0.0034,-0.0034)"
         d="m 215,137 c 67,0 111,-37 111,-92 0,-90 -111,-182 -215,-182 -67,0 -111,37 -111,92 0,90 111,182 215,182 z"
         fill="currentColor"
         id="path176" />
    </g>
  </a>
  <g
     transform="translate(0.79894421,6.2901)"
     id="g184">
    <path
       transform="scale(0.0034,-0.0034)"
       d="m 646,2 c 0,-113 -74,-213 -180,-247 3,-34 5,-68 5,-102 0,-20 -1,-40 -2,-60 -7,-121 -91,-228 -209,-228 -108,0 -196,87 -196,196 0,58 53,104 112,104 54,0 95,-48 95,-104 0,-52 -43,-95 -95,-95 -10,0 -20,2 -29,6 26,-38 68,-63 116,-63 h 3 c 93,2 153,92 159,190 1,19 2,37 2,56 0,30 -2,60 -4,90 -5,-1 -43,-8 -88,-8 -194,0 -333,180 -333,375 0,177 130,307 246,442 -31,98 -53,170 -53,347 0,115 55,223 148,290 7,5 16,4 22,-1 68,-80 134,-243 134,-357 0,-143 -85,-255 -178,-364 21,-68 40,-137 57,-206 1,0 5,1 11,1 C 545,264 646,135 646,2 Z M 462,-202 c 66,24 111,88 111,162 0,89 -65,178 -170,190 28,-135 50,-272 59,-352 z M 75,26 c 0,-145 141,-245 263,-245 1,0 46,0 81,6 -7,65 -27,206 -61,363 -79,-8 -124,-61 -124,-119 0,-43 25,-89 80,-121 5,-5 7,-11 7,-16 0,-12 -10,-23 -22,-23 -16,0 -127,63 -127,188 0,89 58,175 161,198 -14,58 -29,116 -46,173 C 181,308 75,186 75,26 Z M 406,1042 C 307,995 244,894 244,785 c 0,-49 13,-111 38,-191 79,97 144,199 144,324 0,33 0,63 -20,124 z"
       fill="currentColor"
       id="path182" />
  </g>
  <a
     style="color:inherit"
     xlink:href="textedit:///Users/tomsegarra/Documents/dev/dummies/lilypond_files/dcb4d2f50714c01239b10d0d80975f56.ly:23:1:9"
     id="a194"
     transform="translate(-2.2772558,-3.2741)">
    <g
       transform="translate(6.5762,7.0142)"
       id="g188">
      <path
         transform="scale(0.0034,-0.0034)"
         d="m 217,-311 c 0,-11 -8,-19 -19,-19 -11,0 -20,8 -20,19 v 142 l -81,-30 v -156 c 0,-11 -9,-20 -20,-20 -11,0 -19,9 -19,20 v 142 l -28,-11 c -3,-1 -5,-1 -8,-1 -12,0 -22,10 -22,23 v 57 c 0,9 6,18 15,21 l 43,16 V 49 L 30,39 C 27,38 25,38 22,38 10,38 0,47 0,60 v 57 c 0,9 6,18 15,21 l 43,16 v 157 c 0,11 8,19 19,19 11,0 20,-8 20,-19 V 169 l 81,30 v 156 c 0,11 9,20 20,20 11,0 19,-9 19,-20 V 213 l 28,11 c 3,1 5,1 8,1 12,0 22,-10 22,-23 v -57 c 0,-9 -6,-18 -15,-21 L 217,108 V -49 l 28,10 c 3,1 5,1 8,1 12,0 22,-9 22,-22 v -57 c 0,-9 -6,-18 -15,-21 l -43,-16 z M 97,64 V -94 l 81,30 V 94 Z"
         fill="currentColor"
         id="path186" />
    </g>
    <g
       transform="translate(7.5112,8.2892)"
       id="g192">
      <path
         transform="scale(0.0034,-0.0034)"
         d="m 217,-311 c 0,-11 -8,-19 -19,-19 -11,0 -20,8 -20,19 v 142 l -81,-30 v -156 c 0,-11 -9,-20 -20,-20 -11,0 -19,9 -19,20 v 142 l -28,-11 c -3,-1 -5,-1 -8,-1 -12,0 -22,10 -22,23 v 57 c 0,9 6,18 15,21 l 43,16 V 49 L 30,39 C 27,38 25,38 22,38 10,38 0,47 0,60 v 57 c 0,9 6,18 15,21 l 43,16 v 157 c 0,11 8,19 19,19 11,0 20,-8 20,-19 V 169 l 81,30 v 156 c 0,11 9,20 20,20 11,0 19,-9 19,-20 V 213 l 28,11 c 3,1 5,1 8,1 12,0 22,-10 22,-23 v -57 c 0,-9 -6,-18 -15,-21 L 217,108 V -49 l 28,10 c 3,1 5,1 8,1 12,0 22,-9 22,-22 v -57 c 0,-9 -6,-18 -15,-21 l -43,-16 z M 97,64 V -94 l 81,30 V 94 Z"
         fill="currentColor"
         id="path190" />
    </g>
  </a>
  <g
     transform="translate(7.3189442,5.4401)"
     id="g198">
    <path
       transform="scale(0.0034,-0.0034)"
       d="m 358,29 c -30,0 -74,23 -74,73 0,38 27,76 71,76 4,0 7,0 11,-1 -27,36 -69,59 -116,59 -106,0 -113,-74 -113,-188 0,-15 1,-31 1,-48 0,-17 -1,-33 -1,-48 0,-114 7,-188 113,-188 79,0 136,70 155,150 2,7 7,10 13,10 7,0 14,-5 14,-13 0,-21 -50,-175 -182,-175 C 191,-264 0,-244 0,0 0,63 18,264 250,264 365,264 424,155 424,99 424,60 394,29 358,29 Z"
       fill="currentColor"
       id="path196" />
  </g>
  <a
     style="color:inherit"
     xlink:href="textedit:///Users/tomsegarra/Documents/dev/dummies/lilypond_files/dcb4d2f50714c01239b10d0d80975f56.ly:31:15:16"
     id="a206"
     transform="translate(-2.2772558,-3.2741)">
    <g
       transform="translate(12.5979,14.2142)"
       id="g204">
      <text
         font-family="serif"
         font-size="2.0989px"
         text-anchor="start"
         fill="currentColor"
         id="text202"><tspan
           id="tspan200">he</tspan></text>
    </g>
  </a>
  <g
     transform="translate(10.818844,5.4401)"
     id="g210">
    <rect
       x="-0.061700001"
       y="-3.2474999"
       width="0.1233"
       height="3.2474999"
       ry="0.039999999"
       fill="currentColor"
       id="rect208" />
  </g>
  <g
     transform="translate(10.880444,5.4001)"
     id="g214">
    <path
       transform="scale(0.0034,-0.0034)"
       d="M 0,0 H -18 V 250 H 0 Z m 0,0 v 250 c 96,59 222,149 222,259 0,57 -15,111 -40,162 -3,17 10,29 24,29 8,0 16,-5 21,-13 25,-56 40,-116 40,-178 C 267,306 0,203 0,0 Z"
       fill="currentColor"
       id="path212" />
  </g>
  <a
     style="color:inherit"
     xlink:href="textedit:///Users/tomsegarra/Documents/dev/dummies/lilypond_files/dcb4d2f50714c01239b10d0d80975f56.ly:25:4:5"
     id="a220"
     transform="translate(-2.2772558,-3.2741)">
    <g
       transform="translate(16.5363,4.8892)"
       id="g218">
      <path
         transform="scale(0.0034,-0.0034)"
         d="m 215,137 c 67,0 111,-37 111,-92 0,-90 -111,-182 -215,-182 -67,0 -111,37 -111,92 0,90 111,182 215,182 z"
         fill="currentColor"
         id="path216" />
    </g>
  </a>
  <a
     style="color:inherit"
     xlink:href="textedit:///Users/tomsegarra/Documents/dev/dummies/lilypond_files/dcb4d2f50714c01239b10d0d80975f56.ly:31:18:19"
     id="a228"
     transform="translate(-2.2772558,-3.2741)">
    <g
       transform="translate(15.0926,14.2142)"
       id="g226">
      <text
         font-family="serif"
         font-size="2.0989px"
         text-anchor="start"
         fill="currentColor"
         id="text224"><tspan
           id="tspan222">shou</tspan></text>
    </g>
  </a>
  <g
     transform="translate(14.320744,5.4401)"
     id="g232">
    <rect
       x="-0.061700001"
       y="-3.6724999"
       width="0.1233"
       height="3.6724999"
       ry="0.039999999"
       fill="currentColor"
       id="rect230" />
  </g>
  <g
     transform="translate(19.677444,4.7467)"
     id="g236">
    <polygon
       stroke-linejoin="round"
       stroke-linecap="round"
       stroke-width="0.08"
       fill="currentColor"
       stroke="currentColor"
       points="0.04,0.164 0.04,-0.164 1.1217,-0.164 1.1217,0.164 "
       id="polygon234" />
  </g>
  <g
     transform="translate(14.259044,4.7467)"
     id="g240">
    <polygon
       stroke-linejoin="round"
       stroke-linecap="round"
       stroke-width="0.08"
       fill="currentColor"
       stroke="currentColor"
       points="0.04,0.164 0.04,-0.164 1.1217,-0.164 1.1217,0.164 "
       id="polygon238" />
  </g>
  <g
     transform="translate(14.259044,5.4401)"
     id="g244">
    <polygon
       stroke-linejoin="round"
       stroke-linecap="round"
       stroke-width="0.08"
       fill="currentColor"
       stroke="currentColor"
       points="0.04,0.164 0.04,-0.164 6.5401,-0.164 6.5401,0.164 "
       id="polygon242" />
  </g>
  <a
     style="color:inherit"
     xlink:href="textedit:///Users/tomsegarra/Documents/dev/dummies/lilypond_files/dcb4d2f50714c01239b10d0d80975f56.ly:25:41:42"
     id="a250"
     transform="translate(-2.2772558,-3.2741)">
    <g
       transform="translate(41.1839,4.8892)"
       id="g248">
      <path
         transform="scale(0.0034,-0.0034)"
         d="m 215,137 c 67,0 111,-37 111,-92 0,-90 -111,-182 -215,-182 -67,0 -111,37 -111,92 0,90 111,182 215,182 z"
         fill="currentColor"
         id="path246" />
    </g>
  </a>
  <a
     style="color:inherit"
     xlink:href="textedit:///Users/tomsegarra/Documents/dev/dummies/lilypond_files/dcb4d2f50714c01239b10d0d80975f56.ly:31:52:53"
     id="a258"
     transform="translate(-2.2772558,-3.2741)">
    <g
       transform="translate(41.1839,14.2142)"
       id="g256">
      <text
         font-family="serif"
         font-size="2.0989px"
         text-anchor="start"
         fill="currentColor"
         id="text254"><tspan
           id="tspan252">he</tspan></text>
    </g>
  </a>
  <g
     transform="translate(38.968244,5.4401)"
     id="g262">
    <rect
       x="-0.061700001"
       y="-3.6724999"
       width="0.1233"
       height="3.6724999"
       ry="0.039999999"
       fill="currentColor"
       id="rect260" />
  </g>
  <a
     style="color:inherit"
     xlink:href="textedit:///Users/tomsegarra/Documents/dev/dummies/lilypond_files/dcb4d2f50714c01239b10d0d80975f56.ly:25:22:23"
     id="a268"
     transform="translate(-2.2772558,-3.2741)">
    <g
       transform="translate(28.3283,8.7142)"
       id="g266">
      <path
         stroke-width="0.0759"
         stroke-linejoin="round"
         stroke-linecap="round"
         stroke="currentColor"
         fill="currentColor"
         d="m 0.7537,-4.675 c 0.4705,-0.5562 1.4368,-0.5562 1.9074,0 v 0 c -0.4706,-0.4424 -1.4369,-0.4424 -1.9074,0 z"
         id="path264" />
    </g>
  </a>
  <a
     style="color:inherit"
     xlink:href="textedit:///Users/tomsegarra/Documents/dev/dummies/lilypond_files/dcb4d2f50714c01239b10d0d80975f56.ly:26:4:5"
     id="a274"
     transform="translate(-2.2772558,-3.2741)">
    <g
       transform="translate(44.0101,4.8892)"
       id="g272">
      <path
         transform="scale(0.0034,-0.0034)"
         d="m 215,137 c 67,0 111,-37 111,-92 0,-90 -111,-182 -215,-182 -67,0 -111,37 -111,92 0,90 111,182 215,182 z"
         fill="currentColor"
         id="path270" />
    </g>
  </a>
  <g
     transform="translate(41.794444,5.4401)"
     id="g278">
    <rect
       x="-0.061700001"
       y="-3.6724999"
       width="0.1233"
       height="3.674"
       ry="0.039999999"
       fill="currentColor"
       id="rect276" />
  </g>
  <a
     style="color:inherit"
     xlink:href="textedit:///Users/tomsegarra/Documents/dev/dummies/lilypond_files/dcb4d2f50714c01239b10d0d80975f56.ly:26:7:8"
     id="a284"
     transform="translate(-2.2772558,-3.2741)">
    <g
       transform="translate(46.3174,5.3142)"
       id="g282">
      <path
         transform="scale(0.0034,-0.0034)"
         d="m 215,137 c 67,0 111,-37 111,-92 0,-90 -111,-182 -215,-182 -67,0 -111,37 -111,92 0,90 111,182 215,182 z"
         fill="currentColor"
         id="path280" />
    </g>
  </a>
  <a
     style="color:inherit"
     xlink:href="textedit:///Users/tomsegarra/Documents/dev/dummies/lilypond_files/dcb4d2f50714c01239b10d0d80975f56.ly:31:55:56"
     id="a292"
     transform="translate(-2.2772558,-3.2741)">
    <g
       transform="translate(46.3174,14.2142)"
       id="g290">
      <text
         font-family="serif"
         font-size="2.0989px"
         text-anchor="start"
         fill="currentColor"
         id="text288"><tspan
           id="tspan286">stum</tspan></text>
    </g>
  </a>
  <g
     transform="translate(44.101844,5.4401)"
     id="g296">
    <rect
       x="-0.061700001"
       y="-3.2474999"
       width="0.1233"
       height="3.3020999"
       ry="0.039999999"
       fill="currentColor"
       id="rect294" />
  </g>
  <g
     transform="translate(23.743644,5.4401)"
     id="g300">
    <polygon
       stroke-linejoin="round"
       stroke-linecap="round"
       stroke-width="0.08"
       fill="currentColor"
       stroke="currentColor"
       points="0.04,0.164 0.04,-0.164 2.3907,-0.164 2.3907,0.164 "
       id="polygon298" />
  </g>
  <a
     style="color:inherit"
     xlink:href="textedit:///Users/tomsegarra/Documents/dev/dummies/lilypond_files/dcb4d2f50714c01239b10d0d80975f56.ly:26:14:15"
     id="a306"
     transform="translate(-2.2772558,-3.2741)">
    <g
       transform="translate(48.6248,5.3142)"
       id="g304">
      <path
         transform="scale(0.0034,-0.0034)"
         d="m 215,137 c 67,0 111,-37 111,-92 0,-90 -111,-182 -215,-182 -67,0 -111,37 -111,92 0,90 111,182 215,182 z"
         fill="currentColor"
         id="path302" />
    </g>
  </a>
  <g
     transform="translate(46.409244,5.4401)"
     id="g310">
    <rect
       x="-0.061700001"
       y="-3.2474999"
       width="0.1233"
       height="3.3552999"
       ry="0.039999999"
       fill="currentColor"
       id="rect308" />
  </g>
  <a
     style="color:inherit"
     xlink:href="textedit:///Users/tomsegarra/Documents/dev/dummies/lilypond_files/dcb4d2f50714c01239b10d0d80975f56.ly:26:16:17"
     id="a316"
     transform="translate(-2.2772558,-3.2741)">
    <g
       transform="translate(50.6822,6.1642)"
       id="g314">
      <path
         transform="scale(0.0034,-0.0034)"
         d="m 215,137 c 67,0 111,-37 111,-92 0,-90 -111,-182 -215,-182 -67,0 -111,37 -111,92 0,90 111,182 215,182 z"
         fill="currentColor"
         id="path312" />
    </g>
  </a>
  <a
     style="color:inherit"
     xlink:href="textedit:///Users/tomsegarra/Documents/dev/dummies/lilypond_files/dcb4d2f50714c01239b10d0d80975f56.ly:31:63:64"
     id="a324"
     transform="translate(-2.2772558,-3.2741)">
    <g
       transform="translate(50.6822,14.2142)"
       id="g322">
      <text
         font-family="serif"
         font-size="2.0989px"
         text-anchor="start"
         fill="currentColor"
         id="text320"><tspan
           id="tspan318">bled</tspan></text>
    </g>
  </a>
  <g
     transform="translate(48.466644,5.4401)"
     id="g328">
    <rect
       x="-0.061700001"
       y="-2.3975"
       width="0.1233"
       height="2.5527"
       ry="0.039999999"
       fill="currentColor"
       id="rect326" />
  </g>
  <a
     style="color:inherit"
     xlink:href="textedit:///Users/tomsegarra/Documents/dev/dummies/lilypond_files/dcb4d2f50714c01239b10d0d80975f56.ly:25:30:31"
     id="a334"
     transform="translate(-2.2772558,-3.2741)">
    <g
       transform="translate(32.9431,8.7142)"
       id="g332">
      <path
         stroke-width="0.0759"
         stroke-linejoin="round"
         stroke-linecap="round"
         stroke="currentColor"
         fill="currentColor"
         d="m 0.7537,-4.925 c 0.5679,-0.6362 1.8909,-0.6362 2.4589,0 v 0 c -0.568,-0.5224 -1.891,-0.5224 -2.4589,0 z"
         id="path330" />
    </g>
  </a>
  <a
     style="color:inherit"
     xlink:href="textedit:///Users/tomsegarra/Documents/dev/dummies/lilypond_files/dcb4d2f50714c01239b10d0d80975f56.ly:26:22:23"
     id="a340"
     transform="translate(-2.2772558,-3.2741)">
    <g
       transform="translate(54.0788,6.1642)"
       id="g338">
      <path
         transform="scale(0.0034,-0.0034)"
         d="m 215,137 c 67,0 111,-37 111,-92 0,-90 -111,-182 -215,-182 -67,0 -111,37 -111,92 0,90 111,182 215,182 z"
         fill="currentColor"
         id="path336" />
    </g>
  </a>
  <g
     transform="translate(51.863244,5.4401)"
     id="g344">
    <rect
       x="-0.061700001"
       y="-2.3975"
       width="0.1233"
       height="3.0910001"
       ry="0.039999999"
       fill="currentColor"
       id="rect342" />
  </g>
  <g
     color="#ff0000"
     id="g352"
     transform="translate(-2.2772558,-3.2741)">
    <a
       style="color:inherit"
       xlink:href="textedit:///Users/tomsegarra/Documents/dev/dummies/lilypond_files/dcb4d2f50714c01239b10d0d80975f56.ly:29:4:5"
       id="a350">
      <g
         transform="translate(57.4755,6.1642)"
         id="g348">
        <path
           transform="scale(0.0034,-0.0034)"
           d="m 215,137 c 67,0 111,-37 111,-92 0,-90 -111,-182 -215,-182 -67,0 -111,37 -111,92 0,90 111,182 215,182 z"
           fill="currentColor"
           id="path346" />
      </g>
    </a>
  </g>
  <a
     style="color:inherit"
     xlink:href="textedit:///Users/tomsegarra/Documents/dev/dummies/lilypond_files/dcb4d2f50714c01239b10d0d80975f56.ly:31:68:69"
     id="a360"
     transform="translate(-2.2772558,-3.2741)">
    <g
       transform="translate(54.7514,14.2142)"
       id="g358">
      <text
         font-family="serif"
         font-size="2.0989px"
         text-anchor="start"
         fill="currentColor"
         id="text356"><tspan
           id="tspan354">through</tspan></text>
    </g>
  </a>
  <g
     color="#ff0000"
     id="g366"
     transform="translate(-2.2772558,-3.2741)">
    <g
       transform="translate(57.5371,8.7142)"
       id="g364">
      <rect
         x="-0.061700001"
         y="-2.3975"
         width="0.1233"
         height="3.0910001"
         ry="0.039999999"
         fill="currentColor"
         id="rect362" />
    </g>
  </g>
  <g
     color="#ff0000"
     id="g374"
     transform="translate(-2.2772558,-3.2741)">
    <a
       style="color:inherit"
       xlink:href="textedit:///Users/tomsegarra/Documents/dev/dummies/lilypond_files/dcb4d2f50714c01239b10d0d80975f56.ly:29:6:7"
       id="a372">
      <g
         transform="translate(62.4836,7.0142)"
         id="g370">
        <path
           transform="scale(0.0034,-0.0034)"
           d="m 215,137 c 67,0 111,-37 111,-92 0,-90 -111,-182 -215,-182 -67,0 -111,37 -111,92 0,90 111,182 215,182 z"
           fill="currentColor"
           id="path368" />
      </g>
    </a>
  </g>
  <a
     style="color:inherit"
     xlink:href="textedit:///Users/tomsegarra/Documents/dev/dummies/lilypond_files/dcb4d2f50714c01239b10d0d80975f56.ly:31:76:77"
     id="a382"
     transform="translate(-2.2772558,-3.2741)">
    <g
       transform="translate(61.7569,14.2142)"
       id="g380">
      <text
         font-family="serif"
         font-size="2.0989px"
         text-anchor="start"
         fill="currentColor"
         id="text378"><tspan
           id="tspan376">the</tspan></text>
    </g>
  </a>
  <g
     color="#ff0000"
     id="g388"
     transform="translate(-2.2772558,-3.2741)">
    <g
       transform="translate(62.5453,8.7142)"
       id="g386">
      <rect
         x="-0.061700001"
         y="-1.5475"
         width="0.1233"
         height="2.2409999"
         ry="0.039999999"
         fill="currentColor"
         id="rect384" />
    </g>
  </g>
  <g
     transform="translate(28.358444,5.5967)"
     id="g392">
    <polygon
       stroke-linejoin="round"
       stroke-linecap="round"
       stroke-width="0.08"
       fill="currentColor"
       stroke="currentColor"
       points="0.04,0.164 0.04,-0.164 2.3907,-0.3206 2.3907,0.0074 "
       id="polygon390" />
  </g>
  <g
     color="#ff0000"
     id="g400"
     transform="translate(-2.2772558,-3.2741)">
    <a
       style="color:inherit"
       xlink:href="textedit:///Users/tomsegarra/Documents/dev/dummies/lilypond_files/dcb4d2f50714c01239b10d0d80975f56.ly:29:8:9"
       id="a398">
      <g
         transform="translate(66.0748,5.7392)"
         id="g396">
        <path
           transform="scale(0.0034,-0.0034)"
           d="m 215,137 c 67,0 111,-37 111,-92 0,-90 -111,-182 -215,-182 -67,0 -111,37 -111,92 0,90 111,182 215,182 z"
           fill="currentColor"
           id="path394" />
      </g>
    </a>
  </g>
  <a
     style="color:inherit"
     xlink:href="textedit:///Users/tomsegarra/Documents/dev/dummies/lilypond_files/dcb4d2f50714c01239b10d0d80975f56.ly:31:80:81"
     id="a408"
     transform="translate(-2.2772558,-3.2741)">
    <g
       transform="translate(64.7677,14.2142)"
       id="g406">
      <text
         font-family="serif"
         font-size="2.0989px"
         text-anchor="start"
         fill="currentColor"
         id="text404"><tspan
           id="tspan402">yard</tspan></text>
    </g>
  </a>
  <g
     color="#ff0000"
     id="g414"
     transform="translate(-2.2772558,-3.2741)">
    <g
       transform="translate(66.1364,8.7142)"
       id="g412">
      <rect
         x="-0.061700001"
         y="-2.8225"
         width="0.1233"
         height="3.516"
         ry="0.039999999"
         fill="currentColor"
         id="rect410" />
    </g>
  </g>
  <a
     style="color:inherit"
     xlink:href="textedit:///Users/tomsegarra/Documents/dev/dummies/lilypond_files/dcb4d2f50714c01239b10d0d80975f56.ly:25:42:43"
     id="a420"
     transform="translate(-2.2772558,-3.2741)">
    <g
       transform="translate(41.1839,8.7142)"
       id="g418">
      <path
         stroke-width="0.0759"
         stroke-linejoin="round"
         stroke-linecap="round"
         stroke="currentColor"
         fill="currentColor"
         d="m 0.7537,-4.675 c 0.5625,-0.6321 1.8637,-0.6321 2.4262,0 v 0 c -0.5625,-0.5182 -1.8637,-0.5182 -2.4262,0 z"
         id="path416" />
    </g>
  </a>
  <a
     style="color:inherit"
     xlink:href="textedit:///Users/tomsegarra/Documents/dev/dummies/lilypond_files/dcb4d2f50714c01239b10d0d80975f56.ly:25:8:9"
     id="a426"
     transform="translate(-2.2772558,-3.2741)">
    <g
       transform="translate(19.9141,4.8892)"
       id="g424">
      <path
         transform="scale(0.0034,-0.0034)"
         d="m 215,137 c 67,0 111,-37 111,-92 0,-90 -111,-182 -215,-182 -67,0 -111,37 -111,92 0,90 111,182 215,182 z"
         fill="currentColor"
         id="path422" />
    </g>
  </a>
  <a
     style="color:inherit"
     xlink:href="textedit:///Users/tomsegarra/Documents/dev/dummies/lilypond_files/dcb4d2f50714c01239b10d0d80975f56.ly:31:26:27"
     id="a434"
     transform="translate(-2.2772558,-3.2741)">
    <g
       transform="translate(19.1874,14.2142)"
       id="g432">
      <text
         font-family="serif"
         font-size="2.0989px"
         text-anchor="start"
         fill="currentColor"
         id="text430"><tspan
           id="tspan428">ted</tspan></text>
    </g>
  </a>
  <g
     transform="translate(17.698444,5.4401)"
     id="g438">
    <rect
       x="-0.061700001"
       y="-3.6724999"
       width="0.1233"
       height="3.6724999"
       ry="0.039999999"
       fill="currentColor"
       id="rect436" />
  </g>
  <a
     style="color:inherit"
     xlink:href="textedit:///Users/tomsegarra/Documents/dev/dummies/lilypond_files/dcb4d2f50714c01239b10d0d80975f56.ly:25:11:12"
     id="a444"
     transform="translate(-2.2772558,-3.2741)">
    <g
       transform="translate(22.9931,4.8892)"
       id="g442">
      <path
         transform="scale(0.0034,-0.0034)"
         d="m 215,137 c 67,0 111,-37 111,-92 0,-90 -111,-182 -215,-182 -67,0 -111,37 -111,92 0,90 111,182 215,182 z"
         fill="currentColor"
         id="path440" />
    </g>
  </a>
  <a
     style="color:inherit"
     xlink:href="textedit:///Users/tomsegarra/Documents/dev/dummies/lilypond_files/dcb4d2f50714c01239b10d0d80975f56.ly:31:30:31"
     id="a452"
     transform="translate(-2.2772558,-3.2741)">
    <g
       transform="translate(22.1981,14.2142)"
       id="g450">
      <text
         font-family="serif"
         font-size="2.0989px"
         text-anchor="start"
         fill="currentColor"
         id="text448"><tspan
           id="tspan446">out</tspan></text>
    </g>
  </a>
  <g
     transform="translate(20.777444,5.4401)"
     id="g456">
    <rect
       x="-0.061700001"
       y="-3.6724999"
       width="0.1233"
       height="3.6724999"
       ry="0.039999999"
       fill="currentColor"
       id="rect454" />
  </g>
  <g
     transform="translate(36.383544,4.7467)"
     id="g460">
    <polygon
       stroke-linejoin="round"
       stroke-linecap="round"
       stroke-width="0.08"
       fill="currentColor"
       stroke="currentColor"
       points="0.04,0.164 0.04,-0.164 2.6064,-0.164 2.6064,0.164 "
       id="polygon458" />
  </g>
  <g
     transform="translate(33.524644,5.4401)"
     id="g464">
    <polygon
       stroke-linejoin="round"
       stroke-linecap="round"
       stroke-width="0.08"
       fill="currentColor"
       stroke="currentColor"
       points="0.04,0.164 0.04,-0.164 5.4653,-0.164 5.4653,0.164 "
       id="polygon462" />
  </g>
  <a
     style="color:inherit"
     xlink:href="textedit:///Users/tomsegarra/Documents/dev/dummies/lilypond_files/dcb4d2f50714c01239b10d0d80975f56.ly:25:18:19"
     id="a470"
     transform="translate(-2.2772558,-3.2741)">
    <g
       transform="translate(26.0209,4.8892)"
       id="g468">
      <path
         transform="scale(0.0034,-0.0034)"
         d="m 215,137 c 67,0 111,-37 111,-92 0,-90 -111,-182 -215,-182 -67,0 -111,37 -111,92 0,90 111,182 215,182 z"
         fill="currentColor"
         id="path466" />
    </g>
  </a>
  <a
     style="color:inherit"
     xlink:href="textedit:///Users/tomsegarra/Documents/dev/dummies/lilypond_files/dcb4d2f50714c01239b10d0d80975f56.ly:31:34:35"
     id="a478"
     transform="translate(-2.2772558,-3.2741)">
    <g
       transform="translate(25.3454,14.2142)"
       id="g476">
      <text
         font-family="serif"
         font-size="2.0989px"
         text-anchor="start"
         fill="currentColor"
         id="text474"><tspan
           id="tspan472">his</tspan></text>
    </g>
  </a>
  <g
     transform="translate(23.805344,5.4401)"
     id="g482">
    <rect
       x="-0.061700001"
       y="-3.6724999"
       width="0.1233"
       height="3.6724999"
       ry="0.039999999"
       fill="currentColor"
       id="rect480" />
  </g>
  <a
     style="color:inherit"
     xlink:href="textedit:///Users/tomsegarra/Documents/dev/dummies/lilypond_files/dcb4d2f50714c01239b10d0d80975f56.ly:25:21:22"
     id="a488"
     transform="translate(-2.2772558,-3.2741)">
    <g
       transform="translate(28.3283,4.8892)"
       id="g486">
      <path
         transform="scale(0.0034,-0.0034)"
         d="m 215,137 c 67,0 111,-37 111,-92 0,-90 -111,-182 -215,-182 -67,0 -111,37 -111,92 0,90 111,182 215,182 z"
         fill="currentColor"
         id="path484" />
    </g>
  </a>
  <a
     style="color:inherit"
     xlink:href="textedit:///Users/tomsegarra/Documents/dev/dummies/lilypond_files/dcb4d2f50714c01239b10d0d80975f56.ly:31:38:39"
     id="a496"
     transform="translate(-2.2772558,-3.2741)">
    <g
       transform="translate(28.3283,14.2142)"
       id="g494">
      <text
         font-family="serif"
         font-size="2.0989px"
         text-anchor="start"
         fill="currentColor"
         id="text492"><tspan
           id="tspan490">last</tspan></text>
    </g>
  </a>
  <g
     transform="translate(26.112644,5.4401)"
     id="g500">
    <rect
       x="-0.061700001"
       y="-3.6724999"
       width="0.1233"
       height="3.6724999"
       ry="0.039999999"
       fill="currentColor"
       id="rect498" />
  </g>
  <a
     style="color:inherit"
     xlink:href="textedit:///Users/tomsegarra/Documents/dev/dummies/lilypond_files/dcb4d2f50714c01239b10d0d80975f56.ly:25:27:28"
     id="a506"
     transform="translate(-2.2772558,-3.2741)">
    <g
       transform="translate(30.6357,4.8892)"
       id="g504">
      <path
         transform="scale(0.0034,-0.0034)"
         d="m 215,137 c 67,0 111,-37 111,-92 0,-90 -111,-182 -215,-182 -67,0 -111,37 -111,92 0,90 111,182 215,182 z"
         fill="currentColor"
         id="path502" />
    </g>
  </a>
  <g
     transform="translate(28.420044,5.4401)"
     id="g510">
    <rect
       x="-0.061700001"
       y="-3.6724999"
       width="0.1233"
       height="3.8250999"
       ry="0.039999999"
       fill="currentColor"
       id="rect508" />
  </g>
  <a
     style="color:inherit"
     xlink:href="textedit:///Users/tomsegarra/Documents/dev/dummies/lilypond_files/dcb4d2f50714c01239b10d0d80975f56.ly:26:9:10"
     id="a516"
     transform="translate(-2.2772558,-3.2741)">
    <g
       transform="translate(46.3174,8.7142)"
       id="g514">
      <path
         stroke-width="0.0759"
         stroke-linejoin="round"
         stroke-linecap="round"
         stroke="currentColor"
         fill="currentColor"
         d="m 0.7537,-4.075 c 0.4705,-0.5562 1.4368,-0.5562 1.9074,0 v 0 c -0.4706,-0.4424 -1.4369,-0.4424 -1.9074,0 z"
         id="path512" />
    </g>
  </a>
  <a
     style="color:inherit"
     xlink:href="textedit:///Users/tomsegarra/Documents/dev/dummies/lilypond_files/dcb4d2f50714c01239b10d0d80975f56.ly:25:29:30"
     id="a522"
     transform="translate(-2.2772558,-3.2741)">
    <g
       transform="translate(32.9431,4.4642)"
       id="g520">
      <path
         transform="scale(0.0034,-0.0034)"
         d="m 215,137 c 67,0 111,-37 111,-92 0,-90 -111,-182 -215,-182 -67,0 -111,37 -111,92 0,90 111,182 215,182 z"
         fill="currentColor"
         id="path518" />
    </g>
  </a>
  <a
     style="color:inherit"
     xlink:href="textedit:///Users/tomsegarra/Documents/dev/dummies/lilypond_files/dcb4d2f50714c01239b10d0d80975f56.ly:31:43:44"
     id="a530"
     transform="translate(-2.2772558,-3.2741)">
    <g
       transform="translate(32.9431,14.2142)"
       id="g528">
      <text
         font-family="serif"
         font-size="2.0989px"
         text-anchor="start"
         fill="currentColor"
         id="text526"><tspan
           id="tspan524">word</tspan></text>
    </g>
  </a>
  <g
     transform="translate(30.727444,5.4401)"
     id="g534">
    <rect
       x="-0.061700001"
       y="-4.0974998"
       width="0.1233"
       height="4.1015"
       ry="0.039999999"
       fill="currentColor"
       id="rect532" />
  </g>
  <a
     style="color:inherit"
     xlink:href="textedit:///Users/tomsegarra/Documents/dev/dummies/lilypond_files/dcb4d2f50714c01239b10d0d80975f56.ly:25:34:35"
     id="a540"
     transform="translate(-2.2772558,-3.2741)">
    <g
       transform="translate(35.8019,4.4642)"
       id="g538">
      <path
         transform="scale(0.0034,-0.0034)"
         d="m 215,137 c 67,0 111,-37 111,-92 0,-90 -111,-182 -215,-182 -67,0 -111,37 -111,92 0,90 111,182 215,182 z"
         fill="currentColor"
         id="path536" />
    </g>
  </a>
  <g
     transform="translate(33.586344,5.4401)"
     id="g544">
    <rect
       x="-0.061700001"
       y="-4.0974998"
       width="0.1233"
       height="4.0974998"
       ry="0.039999999"
       fill="currentColor"
       id="rect542" />
  </g>
  <a
     style="color:inherit"
     xlink:href="textedit:///Users/tomsegarra/Documents/dev/dummies/lilypond_files/dcb4d2f50714c01239b10d0d80975f56.ly:26:17:18"
     id="a550"
     transform="translate(-2.2772558,-3.2741)">
    <g
       transform="translate(50.6822,8.7142)"
       id="g548">
      <path
         stroke-width="0.0759"
         stroke-linejoin="round"
         stroke-linecap="round"
         stroke="currentColor"
         fill="currentColor"
         d="m 0.7537,-3.225 c 0.6517,-0.6954 2.3449,-0.6954 2.9966,0 v 0 c -0.6517,-0.5816 -2.3449,-0.5816 -2.9966,0 z"
         id="path546" />
    </g>
  </a>
  <a
     style="color:inherit"
     xlink:href="textedit:///Users/tomsegarra/Documents/dev/dummies/lilypond_files/dcb4d2f50714c01239b10d0d80975f56.ly:25:37:38"
     id="a556"
     transform="translate(-2.2772558,-3.2741)">
    <g
       transform="translate(38.6608,4.4642)"
       id="g554">
      <path
         transform="scale(0.0034,-0.0034)"
         d="m 215,137 c 67,0 111,-37 111,-92 0,-90 -111,-182 -215,-182 -67,0 -111,37 -111,92 0,90 111,182 215,182 z"
         fill="currentColor"
         id="path552" />
    </g>
  </a>
  <a
     style="color:inherit"
     xlink:href="textedit:///Users/tomsegarra/Documents/dev/dummies/lilypond_files/dcb4d2f50714c01239b10d0d80975f56.ly:31:48:49"
     id="a564"
     transform="translate(-2.2772558,-3.2741)">
    <g
       transform="translate(37.6951,14.2142)"
       id="g562">
      <text
         font-family="serif"
         font-size="2.0989px"
         text-anchor="start"
         fill="currentColor"
         id="text560"><tspan
           id="tspan558">and</tspan></text>
    </g>
  </a>
  <g
     transform="translate(36.445244,5.4401)"
     id="g568">
    <rect
       x="-0.061700001"
       y="-4.0974998"
       width="0.1233"
       height="4.0974998"
       ry="0.039999999"
       fill="currentColor"
       id="rect566" />
  </g>
  <g
     transform="translate(51.801544,6.1335)"
     id="g572">
    <polygon
       stroke-linejoin="round"
       stroke-linecap="round"
       stroke-width="0.08"
       fill="currentColor"
       stroke="currentColor"
       points="0.04,0.164 0.04,-0.164 12.0793,-0.164 12.0793,0.164 "
       id="polygon570" />
  </g>
  <g
     transform="translate(41.732844,5.4401)"
     id="g576">
    <polygon
       stroke-linejoin="round"
       stroke-linecap="round"
       stroke-width="0.08"
       fill="currentColor"
       stroke="currentColor"
       points="0.04,0.164 0.04,-0.164 6.7555,-0.0074 6.7555,0.3206 "
       id="polygon574" />
  </g>
</svg>
