<?xml version="1.0" encoding="UTF-8" standalone="no"?>
<svg
   version="1.2"
   width="79.198814mm"
   height="15.357512mm"
   viewBox="0 0 45.066051 8.7392721"
   id="svg308"
   sodipodi:docname="e0f3f9bd7667d53e23760d415b9ef44f.svg"
   xmlns:inkscape="http://www.inkscape.org/namespaces/inkscape"
   xmlns:sodipodi="http://sodipodi.sourceforge.net/DTD/sodipodi-0.dtd"
   xmlns:xlink="http://www.w3.org/1999/xlink"
   xmlns="http://www.w3.org/2000/svg"
   xmlns:svg="http://www.w3.org/2000/svg">
  <defs
     id="defs312" />
  <sodipodi:namedview
     id="namedview310"
     pagecolor="#ffffff"
     bordercolor="#000000"
     borderopacity="0.25"
     inkscape:showpageshadow="2"
     inkscape:pageopacity="0.0"
     inkscape:pagecheckerboard="0"
     inkscape:deskcolor="#d1d1d1"
     inkscape:document-units="mm" />
  <style
     type="text/css"
     id="style2"><![CDATA[
tspan { white-space: pre; }
]]></style>
  <!-- Page: 1/1 -->
  <g
     transform="translate(28.955502,3.2105767)"
     id="g6">
    <rect
       x="0"
       y="-1.7"
       width="0.1802"
       height="3.4000001"
       ry="0.0000"
       fill="currentColor"
       id="rect4" />
  </g>
  <g
     transform="translate(-0.00129754,4.9105767)"
     id="g10">
    <line
       stroke-linejoin="round"
       stroke-linecap="round"
       stroke-width="0.0949"
       stroke="currentColor"
       x1="0.047400001"
       y1="0"
       x2="45.021"
       y2="0"
       id="line8" />
  </g>
  <g
     transform="translate(-0.00129754,4.0605767)"
     id="g14">
    <line
       stroke-linejoin="round"
       stroke-linecap="round"
       stroke-width="0.0949"
       stroke="currentColor"
       x1="0.047400001"
       y1="0"
       x2="45.021"
       y2="0"
       id="line12" />
  </g>
  <g
     transform="translate(-0.00129754,3.2105767)"
     id="g18">
    <line
       stroke-linejoin="round"
       stroke-linecap="round"
       stroke-width="0.0949"
       stroke="currentColor"
       x1="0.047400001"
       y1="0"
       x2="45.021"
       y2="0"
       id="line16" />
  </g>
  <g
     transform="translate(-0.00129754,2.3605767)"
     id="g22">
    <line
       stroke-linejoin="round"
       stroke-linecap="round"
       stroke-width="0.0949"
       stroke="currentColor"
       x1="0.047400001"
       y1="0"
       x2="45.021"
       y2="0"
       id="line20" />
  </g>
  <g
     transform="translate(-0.00129754,1.5105767)"
     id="g26">
    <line
       stroke-linejoin="round"
       stroke-linecap="round"
       stroke-width="0.0949"
       stroke="currentColor"
       x1="0.047400001"
       y1="0"
       x2="45.021"
       y2="0"
       id="line24" />
  </g>
  <a
     style="color:inherit"
     xlink:href="textedit:///Users/tomsegarra/Documents/dev/dummies/lilypond_files/e0f3f9bd7667d53e23760d415b9ef44f.ly:30:18:19"
     id="a32"
     transform="translate(-2.2774975,-3.2761233)">
    <g
       transform="translate(16.6332,11.9867)"
       id="g30">
      <rect
         x="0"
         y="-0.54329997"
         width="0.30000001"
         height="0.1233"
         ry="0.037900001"
         fill="currentColor"
         id="rect28" />
    </g>
  </a>
  <a
     style="color:inherit"
     xlink:href="textedit:///Users/tomsegarra/Documents/dev/dummies/lilypond_files/e0f3f9bd7667d53e23760d415b9ef44f.ly:24:4:5"
     id="a38"
     transform="translate(-2.2774975,-3.2761233)">
    <g
       transform="translate(13.0344,6.4867)"
       id="g36">
      <path
         transform="scale(0.0034,-0.0034)"
         d="m 70,205 c 80,0 46,-97 90,-97 15,0 52,45 59,59 6,13 26,13 31,0 L 129,-250 c -9,-7 -19,-11 -30,-11 -11,0 -21,4 -30,11 L 187,76 C 154,64 119,54 84,54 37,54 -3,88 -3,133 c 0,40 33,72 73,72 z"
         fill="currentColor"
         id="path34" />
    </g>
  </a>
  <g
     transform="translate(0.79870246,4.0605767)"
     id="g42">
    <path
       transform="scale(0.0034,-0.0034)"
       d="m 646,2 c 0,-113 -74,-213 -180,-247 3,-34 5,-68 5,-102 0,-20 -1,-40 -2,-60 -7,-121 -91,-228 -209,-228 -108,0 -196,87 -196,196 0,58 53,104 112,104 54,0 95,-48 95,-104 0,-52 -43,-95 -95,-95 -10,0 -20,2 -29,6 26,-38 68,-63 116,-63 h 3 c 93,2 153,92 159,190 1,19 2,37 2,56 0,30 -2,60 -4,90 -5,-1 -43,-8 -88,-8 -194,0 -333,180 -333,375 0,177 130,307 246,442 -31,98 -53,170 -53,347 0,115 55,223 148,290 7,5 16,4 22,-1 68,-80 134,-243 134,-357 0,-143 -85,-255 -178,-364 21,-68 40,-137 57,-206 1,0 5,1 11,1 C 545,264 646,135 646,2 Z M 462,-202 c 66,24 111,88 111,162 0,89 -65,178 -170,190 28,-135 50,-272 59,-352 z M 75,26 c 0,-145 141,-245 263,-245 1,0 46,0 81,6 -7,65 -27,206 -61,363 -79,-8 -124,-61 -124,-119 0,-43 25,-89 80,-121 5,-5 7,-11 7,-16 0,-12 -10,-23 -22,-23 -16,0 -127,63 -127,188 0,89 58,175 161,198 -14,58 -29,116 -46,173 C 181,308 75,186 75,26 Z M 406,1042 C 307,995 244,894 244,785 c 0,-49 13,-111 38,-191 79,97 144,199 144,324 0,33 0,63 -20,124 z"
       fill="currentColor"
       id="path40" />
  </g>
  <a
     style="color:inherit"
     xlink:href="textedit:///Users/tomsegarra/Documents/dev/dummies/lilypond_files/e0f3f9bd7667d53e23760d415b9ef44f.ly:23:1:9"
     id="a52"
     transform="translate(-2.2774975,-3.2761233)">
    <g
       transform="translate(6.5762,4.7867)"
       id="g46">
      <path
         transform="scale(0.0034,-0.0034)"
         d="m 217,-311 c 0,-11 -8,-19 -19,-19 -11,0 -20,8 -20,19 v 142 l -81,-30 v -156 c 0,-11 -9,-20 -20,-20 -11,0 -19,9 -19,20 v 142 l -28,-11 c -3,-1 -5,-1 -8,-1 -12,0 -22,10 -22,23 v 57 c 0,9 6,18 15,21 l 43,16 V 49 L 30,39 C 27,38 25,38 22,38 10,38 0,47 0,60 v 57 c 0,9 6,18 15,21 l 43,16 v 157 c 0,11 8,19 19,19 11,0 20,-8 20,-19 V 169 l 81,30 v 156 c 0,11 9,20 20,20 11,0 19,-9 19,-20 V 213 l 28,11 c 3,1 5,1 8,1 12,0 22,-10 22,-23 v -57 c 0,-9 -6,-18 -15,-21 L 217,108 V -49 l 28,10 c 3,1 5,1 8,1 12,0 22,-9 22,-22 v -57 c 0,-9 -6,-18 -15,-21 l -43,-16 z M 97,64 V -94 l 81,30 V 94 Z"
         fill="currentColor"
         id="path44" />
    </g>
    <g
       transform="translate(7.5112,6.0617)"
       id="g50">
      <path
         transform="scale(0.0034,-0.0034)"
         d="m 217,-311 c 0,-11 -8,-19 -19,-19 -11,0 -20,8 -20,19 v 142 l -81,-30 v -156 c 0,-11 -9,-20 -20,-20 -11,0 -19,9 -19,20 v 142 l -28,-11 c -3,-1 -5,-1 -8,-1 -12,0 -22,10 -22,23 v 57 c 0,9 6,18 15,21 l 43,16 V 49 L 30,39 C 27,38 25,38 22,38 10,38 0,47 0,60 v 57 c 0,9 6,18 15,21 l 43,16 v 157 c 0,11 8,19 19,19 11,0 20,-8 20,-19 V 169 l 81,30 v 156 c 0,11 9,20 20,20 11,0 19,-9 19,-20 V 213 l 28,11 c 3,1 5,1 8,1 12,0 22,-10 22,-23 v -57 c 0,-9 -6,-18 -15,-21 L 217,108 V -49 l 28,10 c 3,1 5,1 8,1 12,0 22,-9 22,-22 v -57 c 0,-9 -6,-18 -15,-21 l -43,-16 z M 97,64 V -94 l 81,30 V 94 Z"
         fill="currentColor"
         id="path48" />
    </g>
  </a>
  <g
     transform="translate(7.3187025,3.2105767)"
     id="g56">
    <path
       transform="scale(0.0034,-0.0034)"
       d="m 358,29 c -30,0 -74,23 -74,73 0,38 27,76 71,76 4,0 7,0 11,-1 -27,36 -69,59 -116,59 -106,0 -113,-74 -113,-188 0,-15 1,-31 1,-48 0,-17 -1,-33 -1,-48 0,-114 7,-188 113,-188 79,0 136,70 155,150 2,7 7,10 13,10 7,0 14,-5 14,-13 0,-21 -50,-175 -182,-175 C 191,-264 0,-244 0,0 0,63 18,264 250,264 365,264 424,155 424,99 424,60 394,29 358,29 Z"
       fill="currentColor"
       id="path54" />
  </g>
  <a
     style="color:inherit"
     xlink:href="textedit:///Users/tomsegarra/Documents/dev/dummies/lilypond_files/e0f3f9bd7667d53e23760d415b9ef44f.ly:25:4:5"
     id="a62"
     transform="translate(-2.2774975,-3.2761233)">
    <g
       transform="translate(32.3133,6.4867)"
       id="g60">
      <path
         transform="scale(0.0034,-0.0034)"
         d="m 215,137 c 67,0 111,-37 111,-92 0,-90 -111,-182 -215,-182 -67,0 -111,37 -111,92 0,90 111,182 215,182 z"
         fill="currentColor"
         id="path58" />
    </g>
  </a>
  <a
     style="color:inherit"
     xlink:href="textedit:///Users/tomsegarra/Documents/dev/dummies/lilypond_files/e0f3f9bd7667d53e23760d415b9ef44f.ly:30:45:46"
     id="a70"
     transform="translate(-2.2774975,-3.2761233)">
    <g
       transform="translate(31.4842,11.9867)"
       id="g68">
      <text
         font-family="serif"
         font-size="2.0989px"
         text-anchor="start"
         fill="currentColor"
         id="text66"><tspan
           id="tspan64">felt</tspan></text>
    </g>
  </a>
  <g
     transform="translate(31.081502,3.2105767)"
     id="g74">
    <rect
       x="-0.061700001"
       y="-2.5486"
       width="0.1233"
       height="2.3961999"
       ry="0.039999999"
       fill="currentColor"
       id="rect72" />
  </g>
  <a
     style="color:inherit"
     xlink:href="textedit:///Users/tomsegarra/Documents/dev/dummies/lilypond_files/e0f3f9bd7667d53e23760d415b9ef44f.ly:25:6:7"
     id="a80"
     transform="translate(-2.2774975,-3.2761233)">
    <g
       transform="translate(34.6998,6.9117)"
       id="g78">
      <path
         transform="scale(0.0034,-0.0034)"
         d="m 215,137 c 67,0 111,-37 111,-92 0,-90 -111,-182 -215,-182 -67,0 -111,37 -111,92 0,90 111,182 215,182 z"
         fill="currentColor"
         id="path76" />
    </g>
  </a>
  <a
     style="color:inherit"
     xlink:href="textedit:///Users/tomsegarra/Documents/dev/dummies/lilypond_files/e0f3f9bd7667d53e23760d415b9ef44f.ly:30:50:51"
     id="a88"
     transform="translate(-2.2774975,-3.2761233)">
    <g
       transform="translate(34.6998,11.9867)"
       id="g86">
      <text
         font-family="serif"
         font-size="2.0989px"
         text-anchor="start"
         fill="currentColor"
         id="text84"><tspan
           id="tspan82">like</tspan></text>
    </g>
  </a>
  <g
     transform="translate(33.468002,3.2105767)"
     id="g92">
    <rect
       x="-0.061700001"
       y="-2.4962001"
       width="0.1233"
       height="2.7686999"
       ry="0.039999999"
       fill="currentColor"
       id="rect90" />
  </g>
  <a
     style="color:inherit"
     xlink:href="textedit:///Users/tomsegarra/Documents/dev/dummies/lilypond_files/e0f3f9bd7667d53e23760d415b9ef44f.ly:25:9:10"
     id="a98"
     transform="translate(-2.2774975,-3.2761233)">
    <g
       transform="translate(37.0072,6.9117)"
       id="g96">
      <path
         transform="scale(0.0034,-0.0034)"
         d="m 215,137 c 67,0 111,-37 111,-92 0,-90 -111,-182 -215,-182 -67,0 -111,37 -111,92 0,90 111,182 215,182 z"
         fill="currentColor"
         id="path94" />
    </g>
  </a>
  <g
     transform="translate(35.775402,3.2105767)"
     id="g102">
    <rect
       x="-0.061700001"
       y="-2.4454999"
       width="0.1233"
       height="2.7179999"
       ry="0.039999999"
       fill="currentColor"
       id="rect100" />
  </g>
  <g
     transform="translate(12.806902,4.9105767)"
     id="g106">
    <polygon
       stroke-linejoin="round"
       stroke-linecap="round"
       stroke-width="0.08"
       fill="currentColor"
       stroke="currentColor"
       points="0.04,0.164 0.04,-0.164 4.6981,-0.164 4.6981,0.164 "
       id="polygon104" />
  </g>
  <g
     color="#ff0000"
     id="g114"
     transform="translate(-2.2774975,-3.2761233)">
    <a
       style="color:inherit"
       xlink:href="textedit:///Users/tomsegarra/Documents/dev/dummies/lilypond_files/e0f3f9bd7667d53e23760d415b9ef44f.ly:28:4:5"
       id="a112">
      <g
         transform="translate(39.3145,6.9117)"
         id="g110">
        <path
           transform="scale(0.0034,-0.0034)"
           d="m 215,137 c 67,0 111,-37 111,-92 0,-90 -111,-182 -215,-182 -67,0 -111,37 -111,92 0,90 111,182 215,182 z"
           fill="currentColor"
           id="path108" />
      </g>
    </a>
  </g>
  <a
     style="color:inherit"
     xlink:href="textedit:///Users/tomsegarra/Documents/dev/dummies/lilypond_files/e0f3f9bd7667d53e23760d415b9ef44f.ly:30:55:56"
     id="a122"
     transform="translate(-2.2774975,-3.2761233)">
    <g
       transform="translate(38.3489,11.9867)"
       id="g120">
      <text
         font-family="serif"
         font-size="2.0989px"
         text-anchor="start"
         fill="currentColor"
         id="text118"><tspan
           id="tspan116">this</tspan></text>
    </g>
  </a>
  <g
     color="#ff0000"
     id="g128"
     transform="translate(-2.2774975,-3.2761233)">
    <g
       transform="translate(40.3603,6.4867)"
       id="g126">
      <rect
         x="-0.061700001"
         y="-2.3947999"
         width="0.1233"
         height="2.6673"
         ry="0.039999999"
         fill="currentColor"
         id="rect124" />
    </g>
  </g>
  <g
     color="#ff0000"
     id="g136"
     transform="translate(-2.2774975,-3.2761233)">
    <a
       style="color:inherit"
       xlink:href="textedit:///Users/tomsegarra/Documents/dev/dummies/lilypond_files/e0f3f9bd7667d53e23760d415b9ef44f.ly:28:6:7"
       id="a134">
      <g
         transform="translate(42.2741,7.7617)"
         id="g132">
        <path
           transform="scale(0.0034,-0.0034)"
           d="m 215,137 c 67,0 111,-37 111,-92 0,-90 -111,-182 -215,-182 -67,0 -111,37 -111,92 0,90 111,182 215,182 z"
           fill="currentColor"
           id="path130" />
      </g>
    </a>
  </g>
  <a
     style="color:inherit"
     xlink:href="textedit:///Users/tomsegarra/Documents/dev/dummies/lilypond_files/e0f3f9bd7667d53e23760d415b9ef44f.ly:30:60:61"
     id="a144"
     transform="translate(-2.2774975,-3.2761233)">
    <g
       transform="translate(41.8376,11.9867)"
       id="g142">
      <text
         font-family="serif"
         font-size="2.0989px"
         text-anchor="start"
         fill="currentColor"
         id="text140"><tspan
           id="tspan138">be</tspan></text>
    </g>
  </a>
  <g
     color="#ff0000"
     id="g150"
     transform="translate(-2.2774975,-3.2761233)">
    <g
       transform="translate(43.3198,6.4867)"
       id="g148">
      <rect
         x="-0.061700001"
         y="-1.7"
         width="0.1233"
         height="2.8225"
         ry="0.039999999"
         fill="currentColor"
         id="rect146" />
    </g>
  </g>
  <g
     color="#ff0000"
     id="g156"
     transform="translate(-2.2774975,-3.2761233)">
    <g
       transform="translate(43.3815,4.8267)"
       id="g154">
      <path
         transform="scale(0.0034,-0.0034)"
         d="m 0,0 c 0,-197 207,-335 207,-532 0,-71 -15,-141 -41,-207 -5,-8 -13,-12 -21,-12 -14,0 -27,11 -24,28 26,60 42,125 42,191 0,103 -93,207 -163,282 H -18 V 0 Z"
         fill="currentColor"
         id="path152" />
    </g>
  </g>
  <g
     color="#ff0000"
     id="g164"
     transform="translate(-2.2774975,-3.2761233)">
    <a
       style="color:inherit"
       xlink:href="textedit:///Users/tomsegarra/Documents/dev/dummies/lilypond_files/e0f3f9bd7667d53e23760d415b9ef44f.ly:28:8:9"
       id="a162">
      <g
         transform="translate(45.0373,6.4867)"
         id="g160">
        <path
           transform="scale(0.0034,-0.0034)"
           d="m 215,137 c 67,0 111,-37 111,-92 0,-90 -111,-182 -215,-182 -67,0 -111,37 -111,92 0,90 111,182 215,182 z"
           fill="currentColor"
           id="path158" />
      </g>
    </a>
  </g>
  <a
     style="color:inherit"
     xlink:href="textedit:///Users/tomsegarra/Documents/dev/dummies/lilypond_files/e0f3f9bd7667d53e23760d415b9ef44f.ly:30:66:67"
     id="a172"
     transform="translate(-2.2774975,-3.2761233)">
    <g
       transform="translate(43.9179,11.9867)"
       id="g170">
      <text
         font-family="serif"
         font-size="2.0989px"
         text-anchor="start"
         fill="currentColor"
         id="text168"><tspan
           id="tspan166">fore</tspan></text>
    </g>
  </a>
  <g
     color="#ff0000"
     id="g178"
     transform="translate(-2.2774975,-3.2761233)">
    <g
       transform="translate(45.0989,6.4867)"
       id="g176">
      <rect
         x="-0.061700001"
         y="0.1525"
         width="0.1233"
         height="2.7163"
         ry="0.039999999"
         fill="currentColor"
         id="rect174" />
    </g>
  </g>
  <g
     color="#ff0000"
     id="g184"
     transform="translate(-2.2774975,-3.2761233)">
    <g
       transform="translate(45.1606,9.3154)"
       id="g182">
      <path
         transform="scale(0.0034,-0.0034)"
         d="M 0,0 H -18 V 250 H 0 Z m 0,0 v 250 c 96,59 222,149 222,259 0,57 -15,111 -40,162 -3,17 10,29 24,29 8,0 16,-5 21,-13 25,-56 40,-116 40,-178 C 267,306 0,203 0,0 Z"
         fill="currentColor"
         id="path180" />
    </g>
  </g>
  <g
     transform="translate(24.356502,5.6039767)"
     id="g188">
    <polygon
       stroke-linejoin="round"
       stroke-linecap="round"
       stroke-width="0.08"
       fill="currentColor"
       stroke="currentColor"
       points="0.04,0.164 0.04,-0.164 2.5051,0.1491 2.5051,0.4771 "
       id="polygon186" />
  </g>
  <a
     style="color:inherit"
     xlink:href="textedit:///Users/tomsegarra/Documents/dev/dummies/lilypond_files/e0f3f9bd7667d53e23760d415b9ef44f.ly:24:7:8"
     id="a194"
     transform="translate(-2.2774975,-3.2761233)">
    <g
       transform="translate(15.0844,5.6367)"
       id="g192">
      <path
         transform="scale(0.0034,-0.0034)"
         d="m 215,137 c 67,0 111,-37 111,-92 0,-90 -111,-182 -215,-182 -67,0 -111,37 -111,92 0,90 111,182 215,182 z"
         fill="currentColor"
         id="path190" />
    </g>
  </a>
  <a
     style="color:inherit"
     xlink:href="textedit:///Users/tomsegarra/Documents/dev/dummies/lilypond_files/e0f3f9bd7667d53e23760d415b9ef44f.ly:30:15:16"
     id="a202"
     transform="translate(-2.2774975,-3.2761233)">
    <g
       transform="translate(14.6479,11.9867)"
       id="g200">
      <text
         font-family="serif"
         font-size="2.0989px"
         text-anchor="start"
         fill="currentColor"
         id="text198"><tspan
           id="tspan196">be</tspan></text>
    </g>
  </a>
  <g
     transform="translate(12.868602,3.2105767)"
     id="g206">
    <rect
       x="-0.061700001"
       y="-0.69749999"
       width="0.1233"
       height="2.3975"
       ry="0.039999999"
       fill="currentColor"
       id="rect204" />
  </g>
  <a
     style="color:inherit"
     xlink:href="textedit:///Users/tomsegarra/Documents/dev/dummies/lilypond_files/e0f3f9bd7667d53e23760d415b9ef44f.ly:25:7:8"
     id="a212"
     transform="translate(-2.2774975,-3.2761233)">
    <g
       transform="translate(34.6998,6.4867)"
       id="g210">
      <path
         stroke-width="0.0759"
         stroke-linejoin="round"
         stroke-linecap="round"
         stroke="currentColor"
         fill="currentColor"
         d="m 0.7537,1.0413 c 0.4705,0.5561 1.4368,0.5561 1.9074,0 v 0 c -0.4706,0.4423 -1.4369,0.4423 -1.9074,0 z"
         id="path208" />
    </g>
  </a>
  <a
     style="color:inherit"
     xlink:href="textedit:///Users/tomsegarra/Documents/dev/dummies/lilypond_files/e0f3f9bd7667d53e23760d415b9ef44f.ly:24:12:13"
     id="a218"
     transform="translate(-2.2774975,-3.2761233)">
    <g
       transform="translate(17.3918,5.6367)"
       id="g216">
      <path
         transform="scale(0.0034,-0.0034)"
         d="m 215,137 c 67,0 111,-37 111,-92 0,-90 -111,-182 -215,-182 -67,0 -111,37 -111,92 0,90 111,182 215,182 z"
         fill="currentColor"
         id="path214" />
    </g>
  </a>
  <a
     style="color:inherit"
     xlink:href="textedit:///Users/tomsegarra/Documents/dev/dummies/lilypond_files/e0f3f9bd7667d53e23760d415b9ef44f.ly:30:21:22"
     id="a226"
     transform="translate(-2.2774975,-3.2761233)">
    <g
       transform="translate(16.9382,11.9867)"
       id="g224">
      <text
         font-family="serif"
         font-size="2.0989px"
         text-anchor="start"
         fill="currentColor"
         id="text222"><tspan
           id="tspan220">in'</tspan></text>
    </g>
  </a>
  <g
     transform="translate(15.175902,3.2105767)"
     id="g230">
    <rect
       x="-0.061700001"
       y="-0.69749999"
       width="0.1233"
       height="2.3975"
       ry="0.039999999"
       fill="currentColor"
       id="rect228" />
  </g>
  <a
     style="color:inherit"
     xlink:href="textedit:///Users/tomsegarra/Documents/dev/dummies/lilypond_files/e0f3f9bd7667d53e23760d415b9ef44f.ly:24:14:15"
     id="a236"
     transform="translate(-2.2774975,-3.2761233)">
    <g
       transform="translate(19.6992,5.6367)"
       id="g234">
      <path
         transform="scale(0.0034,-0.0034)"
         d="m 215,137 c 67,0 111,-37 111,-92 0,-90 -111,-182 -215,-182 -67,0 -111,37 -111,92 0,90 111,182 215,182 z"
         fill="currentColor"
         id="path232" />
    </g>
  </a>
  <a
     style="color:inherit"
     xlink:href="textedit:///Users/tomsegarra/Documents/dev/dummies/lilypond_files/e0f3f9bd7667d53e23760d415b9ef44f.ly:30:25:26"
     id="a244"
     transform="translate(-2.2774975,-3.2761233)">
    <g
       transform="translate(19.7919,11.9867)"
       id="g242">
      <text
         font-family="serif"
         font-size="2.0989px"
         text-anchor="start"
         fill="currentColor"
         id="text240"><tspan
           id="tspan238">a</tspan></text>
    </g>
  </a>
  <g
     transform="translate(17.483302,3.2105767)"
     id="g248">
    <rect
       x="-0.061700001"
       y="-0.69749999"
       width="0.1233"
       height="2.3975"
       ry="0.039999999"
       fill="currentColor"
       id="rect246" />
  </g>
  <a
     style="color:inherit"
     xlink:href="textedit:///Users/tomsegarra/Documents/dev/dummies/lilypond_files/e0f3f9bd7667d53e23760d415b9ef44f.ly:24:17:18"
     id="a254"
     transform="translate(-2.2774975,-3.2761233)">
    <g
       transform="translate(22.4623,5.6367)"
       id="g252">
      <path
         transform="scale(0.0034,-0.0034)"
         d="m 215,137 c 67,0 111,-37 111,-92 0,-90 -111,-182 -215,-182 -67,0 -111,37 -111,92 0,90 111,182 215,182 z"
         fill="currentColor"
         id="path250" />
    </g>
  </a>
  <a
     style="color:inherit"
     xlink:href="textedit:///Users/tomsegarra/Documents/dev/dummies/lilypond_files/e0f3f9bd7667d53e23760d415b9ef44f.ly:30:30:31"
     id="a262"
     transform="translate(-2.2774975,-3.2761233)">
    <g
       transform="translate(20.8138,11.9867)"
       id="g260">
      <text
         font-family="serif"
         font-size="2.0989px"
         text-anchor="start"
         fill="currentColor"
         id="text258"><tspan
           id="tspan256">wake</tspan></text>
    </g>
  </a>
  <g
     transform="translate(20.246502,3.2105767)"
     id="g266">
    <rect
       x="-0.061700001"
       y="-0.69749999"
       width="0.1233"
       height="2.8225"
       ry="0.039999999"
       fill="currentColor"
       id="rect264" />
  </g>
  <a
     style="color:inherit"
     xlink:href="textedit:///Users/tomsegarra/Documents/dev/dummies/lilypond_files/e0f3f9bd7667d53e23760d415b9ef44f.ly:24:21:22"
     id="a272"
     transform="translate(-2.2774975,-3.2761233)">
    <g
       transform="translate(26.634,6.0617)"
       id="g270">
      <path
         transform="scale(0.0034,-0.0034)"
         d="m 215,137 c 67,0 111,-37 111,-92 0,-90 -111,-182 -215,-182 -67,0 -111,37 -111,92 0,90 111,182 215,182 z"
         fill="currentColor"
         id="path268" />
    </g>
  </a>
  <a
     style="color:inherit"
     xlink:href="textedit:///Users/tomsegarra/Documents/dev/dummies/lilypond_files/e0f3f9bd7667d53e23760d415b9ef44f.ly:30:35:36"
     id="a280"
     transform="translate(-2.2774975,-3.2761233)">
    <g
       transform="translate(25.6683,11.9867)"
       id="g278">
      <text
         font-family="serif"
         font-size="2.0989px"
         text-anchor="start"
         fill="currentColor"
         id="text276"><tspan
           id="tspan274">nev</tspan></text>
    </g>
  </a>
  <g
     transform="translate(24.418102,3.2105767)"
     id="g284">
    <rect
       x="-0.061700001"
       y="-0.27250001"
       width="0.1233"
       height="2.6736"
       ry="0.039999999"
       fill="currentColor"
       id="rect282" />
  </g>
  <a
     style="color:inherit"
     xlink:href="textedit:///Users/tomsegarra/Documents/dev/dummies/lilypond_files/e0f3f9bd7667d53e23760d415b9ef44f.ly:24:24:25"
     id="a290"
     transform="translate(-2.2774975,-3.2761233)">
    <g
       transform="translate(29.0557,6.4867)"
       id="g288">
      <path
         transform="scale(0.0034,-0.0034)"
         d="m 215,137 c 67,0 111,-37 111,-92 0,-90 -111,-182 -215,-182 -67,0 -111,37 -111,92 0,90 111,182 215,182 z"
         fill="currentColor"
         id="path286" />
    </g>
  </a>
  <a
     style="color:inherit"
     xlink:href="textedit:///Users/tomsegarra/Documents/dev/dummies/lilypond_files/e0f3f9bd7667d53e23760d415b9ef44f.ly:30:42:43"
     id="a298"
     transform="translate(-2.2774975,-3.2761233)">
    <g
       transform="translate(28.807,11.9867)"
       id="g296">
      <text
         font-family="serif"
         font-size="2.0989px"
         text-anchor="start"
         fill="currentColor"
         id="text294"><tspan
           id="tspan292">er</tspan></text>
    </g>
  </a>
  <g
     transform="translate(26.839902,3.2105767)"
     id="g302">
    <rect
       x="-0.061700001"
       y="0.1525"
       width="0.1233"
       height="2.5465"
       ry="0.039999999"
       fill="currentColor"
       id="rect300" />
  </g>
  <g
     transform="translate(31.019802,0.66057666)"
     id="g306">
    <polygon
       stroke-linejoin="round"
       stroke-linecap="round"
       stroke-width="0.08"
       fill="currentColor"
       stroke="currentColor"
       points="0.04,0.164 0.04,-0.164 7.0846,-0.0074 7.0846,0.3206 "
       id="polygon304" />
  </g>
</svg>
