<?xml version="1.0" encoding="UTF-8" standalone="no"?>
<svg
   version="1.2"
   width="126.44051mm"
   height="10.929295mm"
   viewBox="0 0 71.953999 6.2193721"
   id="svg284"
   sodipodi:docname="e5f6f9796dab932e4b5065b06f828020.svg"
   xmlns:inkscape="http://www.inkscape.org/namespaces/inkscape"
   xmlns:sodipodi="http://sodipodi.sourceforge.net/DTD/sodipodi-0.dtd"
   xmlns:xlink="http://www.w3.org/1999/xlink"
   xmlns="http://www.w3.org/2000/svg"
   xmlns:svg="http://www.w3.org/2000/svg">
  <defs
     id="defs288" />
  <sodipodi:namedview
     id="namedview286"
     pagecolor="#ffffff"
     bordercolor="#000000"
     borderopacity="0.25"
     inkscape:showpageshadow="2"
     inkscape:pageopacity="0.0"
     inkscape:pagecheckerboard="0"
     inkscape:deskcolor="#d1d1d1"
     inkscape:document-units="mm" />
  <style
     type="text/css"
     id="style2"><![CDATA[
tspan { white-space: pre; }
]]></style>
  <!-- Page: 1/1 -->
  <g
     transform="translate(4.9997121e-5,4.9078003)"
     id="g6">
    <line
       stroke-linejoin="round"
       stroke-linecap="round"
       stroke-width="0.0949"
       stroke="currentColor"
       x1="0.047400001"
       y1="0"
       x2="71.906502"
       y2="0"
       id="line4" />
  </g>
  <g
     transform="translate(4.9997121e-5,4.0578003)"
     id="g10">
    <line
       stroke-linejoin="round"
       stroke-linecap="round"
       stroke-width="0.0949"
       stroke="currentColor"
       x1="0.047400001"
       y1="0"
       x2="71.906502"
       y2="0"
       id="line8" />
  </g>
  <g
     transform="translate(4.9997121e-5,3.2078003)"
     id="g14">
    <line
       stroke-linejoin="round"
       stroke-linecap="round"
       stroke-width="0.0949"
       stroke="currentColor"
       x1="0.047400001"
       y1="0"
       x2="71.906502"
       y2="0"
       id="line12" />
  </g>
  <g
     transform="translate(4.9997121e-5,2.3578003)"
     id="g18">
    <line
       stroke-linejoin="round"
       stroke-linecap="round"
       stroke-width="0.0949"
       stroke="currentColor"
       x1="0.047400001"
       y1="0"
       x2="71.906502"
       y2="0"
       id="line16" />
  </g>
  <g
     transform="translate(4.9997121e-5,1.5078003)"
     id="g22">
    <line
       stroke-linejoin="round"
       stroke-linecap="round"
       stroke-width="0.0949"
       stroke="currentColor"
       x1="0.047400001"
       y1="0"
       x2="71.906502"
       y2="0"
       id="line20" />
  </g>
  <g
     transform="translate(25.40995,3.2078003)"
     id="g26">
    <rect
       x="0"
       y="-1.7"
       width="0.1802"
       height="3.4000001"
       ry="0.0000"
       fill="currentColor"
       id="rect24" />
  </g>
  <g
     transform="translate(71.77375,3.2078003)"
     id="g30">
    <rect
       x="0"
       y="-1.7"
       width="0.1802"
       height="3.4000001"
       ry="0.0000"
       fill="currentColor"
       id="rect28" />
  </g>
  <g
     transform="translate(56.77125,3.2078003)"
     id="g34">
    <rect
       x="0"
       y="-1.7"
       width="0.1802"
       height="3.4000001"
       ry="0.0000"
       fill="currentColor"
       id="rect32" />
  </g>
  <g
     transform="translate(41.12635,3.2078003)"
     id="g38">
    <rect
       x="0"
       y="-1.7"
       width="0.1802"
       height="3.4000001"
       ry="0.0000"
       fill="currentColor"
       id="rect36" />
  </g>
  <a
     style="color:inherit"
     xlink:href="textedit:///Users/tomsegarra/Documents/dev/dummies/lilypond_files/e5f6f9796dab932e4b5065b06f828020.ly:20:35:36"
     id="a44"
     transform="translate(-2.27615,-3.2788997)">
    <g
       transform="translate(37.8249,4.7867)"
       id="g42">
      <path
         transform="scale(0.0034,-0.0034)"
         d="m 215,137 c 67,0 111,-37 111,-92 0,-90 -111,-182 -215,-182 -67,0 -111,37 -111,92 0,90 111,182 215,182 z"
         fill="currentColor"
         id="path40" />
    </g>
  </a>
  <a
     style="color:inherit"
     xlink:href="textedit:///Users/tomsegarra/Documents/dev/dummies/lilypond_files/e5f6f9796dab932e4b5065b06f828020.ly:20:4:5"
     id="a50"
     transform="translate(-2.27615,-3.2788997)">
    <g
       transform="translate(13.0344,6.4867)"
       id="g48">
      <path
         transform="scale(0.0034,-0.0034)"
         d="m 215,137 c 67,0 111,-37 111,-92 0,-90 -111,-182 -215,-182 -67,0 -111,37 -111,92 0,90 111,182 215,182 z"
         fill="currentColor"
         id="path46" />
    </g>
  </a>
  <g
     transform="translate(0.80005,4.0578003)"
     id="g54">
    <path
       transform="scale(0.0034,-0.0034)"
       d="m 646,2 c 0,-113 -74,-213 -180,-247 3,-34 5,-68 5,-102 0,-20 -1,-40 -2,-60 -7,-121 -91,-228 -209,-228 -108,0 -196,87 -196,196 0,58 53,104 112,104 54,0 95,-48 95,-104 0,-52 -43,-95 -95,-95 -10,0 -20,2 -29,6 26,-38 68,-63 116,-63 h 3 c 93,2 153,92 159,190 1,19 2,37 2,56 0,30 -2,60 -4,90 -5,-1 -43,-8 -88,-8 -194,0 -333,180 -333,375 0,177 130,307 246,442 -31,98 -53,170 -53,347 0,115 55,223 148,290 7,5 16,4 22,-1 68,-80 134,-243 134,-357 0,-143 -85,-255 -178,-364 21,-68 40,-137 57,-206 1,0 5,1 11,1 C 545,264 646,135 646,2 Z M 462,-202 c 66,24 111,88 111,162 0,89 -65,178 -170,190 28,-135 50,-272 59,-352 z M 75,26 c 0,-145 141,-245 263,-245 1,0 46,0 81,6 -7,65 -27,206 -61,363 -79,-8 -124,-61 -124,-119 0,-43 25,-89 80,-121 5,-5 7,-11 7,-16 0,-12 -10,-23 -22,-23 -16,0 -127,63 -127,188 0,89 58,175 161,198 -14,58 -29,116 -46,173 C 181,308 75,186 75,26 Z M 406,1042 C 307,995 244,894 244,785 c 0,-49 13,-111 38,-191 79,97 144,199 144,324 0,33 0,63 -20,124 z"
       fill="currentColor"
       id="path52" />
  </g>
  <a
     style="color:inherit"
     xlink:href="textedit:///Users/tomsegarra/Documents/dev/dummies/lilypond_files/e5f6f9796dab932e4b5065b06f828020.ly:19:1:9"
     id="a64"
     transform="translate(-2.27615,-3.2788997)">
    <g
       transform="translate(6.5762,4.7867)"
       id="g58">
      <path
         transform="scale(0.0034,-0.0034)"
         d="m 217,-311 c 0,-11 -8,-19 -19,-19 -11,0 -20,8 -20,19 v 142 l -81,-30 v -156 c 0,-11 -9,-20 -20,-20 -11,0 -19,9 -19,20 v 142 l -28,-11 c -3,-1 -5,-1 -8,-1 -12,0 -22,10 -22,23 v 57 c 0,9 6,18 15,21 l 43,16 V 49 L 30,39 C 27,38 25,38 22,38 10,38 0,47 0,60 v 57 c 0,9 6,18 15,21 l 43,16 v 157 c 0,11 8,19 19,19 11,0 20,-8 20,-19 V 169 l 81,30 v 156 c 0,11 9,20 20,20 11,0 19,-9 19,-20 V 213 l 28,11 c 3,1 5,1 8,1 12,0 22,-10 22,-23 v -57 c 0,-9 -6,-18 -15,-21 L 217,108 V -49 l 28,10 c 3,1 5,1 8,1 12,0 22,-9 22,-22 v -57 c 0,-9 -6,-18 -15,-21 l -43,-16 z M 97,64 V -94 l 81,30 V 94 Z"
         fill="currentColor"
         id="path56" />
    </g>
    <g
       transform="translate(7.5112,6.0617)"
       id="g62">
      <path
         transform="scale(0.0034,-0.0034)"
         d="m 217,-311 c 0,-11 -8,-19 -19,-19 -11,0 -20,8 -20,19 v 142 l -81,-30 v -156 c 0,-11 -9,-20 -20,-20 -11,0 -19,9 -19,20 v 142 l -28,-11 c -3,-1 -5,-1 -8,-1 -12,0 -22,10 -22,23 v 57 c 0,9 6,18 15,21 l 43,16 V 49 L 30,39 C 27,38 25,38 22,38 10,38 0,47 0,60 v 57 c 0,9 6,18 15,21 l 43,16 v 157 c 0,11 8,19 19,19 11,0 20,-8 20,-19 V 169 l 81,30 v 156 c 0,11 9,20 20,20 11,0 19,-9 19,-20 V 213 l 28,11 c 3,1 5,1 8,1 12,0 22,-10 22,-23 v -57 c 0,-9 -6,-18 -15,-21 L 217,108 V -49 l 28,10 c 3,1 5,1 8,1 12,0 22,-9 22,-22 v -57 c 0,-9 -6,-18 -15,-21 l -43,-16 z M 97,64 V -94 l 81,30 V 94 Z"
         fill="currentColor"
         id="path60" />
    </g>
  </a>
  <g
     transform="translate(7.32005,3.2078003)"
     id="g68">
    <path
       transform="scale(0.0034,-0.0034)"
       d="m 358,29 c -30,0 -74,23 -74,73 0,38 27,76 71,76 4,0 7,0 11,-1 -27,36 -69,59 -116,59 -106,0 -113,-74 -113,-188 0,-15 1,-31 1,-48 0,-17 -1,-33 -1,-48 0,-114 7,-188 113,-188 79,0 136,70 155,150 2,7 7,10 13,10 7,0 14,-5 14,-13 0,-21 -50,-175 -182,-175 C 191,-264 0,-244 0,0 0,63 18,264 250,264 365,264 424,155 424,99 424,60 394,29 358,29 Z"
       fill="currentColor"
       id="path66" />
  </g>
  <g
     transform="translate(12.24475,2.7828003)"
     id="g72">
    <path
       transform="scale(0.0034,-0.0034)"
       d="M 0,0 C 0,31 25,56 56,56 87,56 111,31 111,0 111,-31 87,-56 56,-56 25,-56 0,-31 0,0 Z"
       fill="currentColor"
       id="path70" />
  </g>
  <g
     transform="translate(10.81995,3.2078003)"
     id="g76">
    <rect
       x="-0.061700001"
       y="0.1525"
       width="0.1233"
       height="2.6809001"
       ry="0.039999999"
       fill="currentColor"
       id="rect74" />
  </g>
  <g
     transform="translate(31.05725,5.2928003)"
     id="g80">
    <path
       transform="scale(0.0034,-0.0034)"
       d="M 0,0 H -18 V 250 H 0 Z m 0,0 v 250 c 96,59 222,149 222,259 0,57 -15,111 -40,162 -3,17 10,29 24,29 8,0 16,-5 21,-13 25,-56 40,-116 40,-178 C 267,306 0,203 0,0 Z"
       fill="currentColor"
       id="path78" />
  </g>
  <g
     transform="translate(33.24135,4.2143003)"
     id="g84">
    <polygon
       stroke-linejoin="round"
       stroke-linecap="round"
       stroke-width="0.08"
       fill="currentColor"
       stroke="currentColor"
       points="0.04,0.164 0.04,-0.164 2.3907,-0.3206 2.3907,0.0074 "
       id="polygon82" />
  </g>
  <a
     style="color:inherit"
     xlink:href="textedit:///Users/tomsegarra/Documents/dev/dummies/lilypond_files/e5f6f9796dab932e4b5065b06f828020.ly:20:33:34"
     id="a90"
     transform="translate(-2.27615,-3.2788997)">
    <g
       transform="translate(35.5175,5.2117)"
       id="g88">
      <path
         transform="scale(0.0034,-0.0034)"
         d="m 215,137 c 67,0 111,-37 111,-92 0,-90 -111,-182 -215,-182 -67,0 -111,37 -111,92 0,90 111,182 215,182 z"
         fill="currentColor"
         id="path86" />
    </g>
  </a>
  <g
     transform="translate(33.30305,3.2078003)"
     id="g94">
    <rect
       x="-0.061700001"
       y="-1.1224999"
       width="0.1233"
       height="2.1250999"
       ry="0.039999999"
       fill="currentColor"
       id="rect92" />
  </g>
  <g
     transform="translate(48.88635,4.2143003)"
     id="g98">
    <polygon
       stroke-linejoin="round"
       stroke-linecap="round"
       stroke-width="0.08"
       fill="currentColor"
       stroke="currentColor"
       points="0.04,0.164 0.04,-0.164 2.3907,-0.3206 2.3907,0.0074 "
       id="polygon96" />
  </g>
  <g
     transform="translate(35.61045,3.2078003)"
     id="g102">
    <rect
       x="-0.061700001"
       y="-1.5475"
       width="0.1233"
       height="2.4015"
       ry="0.039999999"
       fill="currentColor"
       id="rect100" />
  </g>
  <g
     transform="translate(30.99565,3.2078003)"
     id="g106">
    <rect
       x="-0.061700001"
       y="-0.69749999"
       width="0.1233"
       height="2.8225"
       ry="0.039999999"
       fill="currentColor"
       id="rect104" />
  </g>
  <a
     style="color:inherit"
     xlink:href="textedit:///Users/tomsegarra/Documents/dev/dummies/lilypond_files/e5f6f9796dab932e4b5065b06f828020.ly:20:39:40"
     id="a112"
     transform="translate(-2.27615,-3.2788997)">
    <g
       transform="translate(40.1323,5.2117)"
       id="g110">
      <path
         transform="scale(0.0034,-0.0034)"
         d="m 215,137 c 67,0 111,-37 111,-92 0,-90 -111,-182 -215,-182 -67,0 -111,37 -111,92 0,90 111,182 215,182 z"
         fill="currentColor"
         id="path108" />
    </g>
  </a>
  <g
     transform="translate(37.91775,3.2078003)"
     id="g116">
    <rect
       x="-0.061700001"
       y="-1.1224999"
       width="0.1233"
       height="2.8225"
       ry="0.039999999"
       fill="currentColor"
       id="rect114" />
  </g>
  <a
     style="color:inherit"
     xlink:href="textedit:///Users/tomsegarra/Documents/dev/dummies/lilypond_files/e5f6f9796dab932e4b5065b06f828020.ly:20:29:30"
     id="a122"
     transform="translate(-2.27615,-3.2788997)">
    <g
       transform="translate(33.2101,5.6367)"
       id="g120">
      <path
         transform="scale(0.0034,-0.0034)"
         d="m 215,137 c 67,0 111,-37 111,-92 0,-90 -111,-182 -215,-182 -67,0 -111,37 -111,92 0,90 111,182 215,182 z"
         fill="currentColor"
         id="path118" />
    </g>
  </a>
  <a
     style="color:inherit"
     xlink:href="textedit:///Users/tomsegarra/Documents/dev/dummies/lilypond_files/e5f6f9796dab932e4b5065b06f828020.ly:20:44:45"
     id="a128"
     transform="translate(-2.27615,-3.2788997)">
    <g
       transform="translate(44.4827,6.9117)"
       id="g126">
      <path
         transform="scale(0.0034,-0.0034)"
         d="m 215,137 c 67,0 111,-37 111,-92 0,-90 -111,-182 -215,-182 -67,0 -111,37 -111,92 0,90 111,182 215,182 z"
         fill="currentColor"
         id="path124" />
    </g>
  </a>
  <g
     transform="translate(43.69305,3.6328003)"
     id="g132">
    <path
       transform="scale(0.0034,-0.0034)"
       d="M 0,0 C 0,31 25,56 56,56 87,56 111,31 111,0 111,-31 87,-56 56,-56 25,-56 0,-31 0,0 Z"
       fill="currentColor"
       id="path130" />
  </g>
  <g
     transform="translate(43.25225,3.2078003)"
     id="g136">
    <rect
       x="-0.061700001"
       y="-2.55"
       width="0.1233"
       height="2.8225"
       ry="0.039999999"
       fill="currentColor"
       id="rect134" />
  </g>
  <a
     style="color:inherit"
     xlink:href="textedit:///Users/tomsegarra/Documents/dev/dummies/lilypond_files/e5f6f9796dab932e4b5065b06f828020.ly:20:49:50"
     id="a142"
     transform="translate(-2.27615,-3.2788997)">
    <g
       transform="translate(48.8551,5.6367)"
       id="g140">
      <path
         transform="scale(0.0034,-0.0034)"
         d="m 215,137 c 67,0 111,-37 111,-92 0,-90 -111,-182 -215,-182 -67,0 -111,37 -111,92 0,90 111,182 215,182 z"
         fill="currentColor"
         id="path138" />
    </g>
  </a>
  <g
     transform="translate(46.64055,3.2078003)"
     id="g146">
    <rect
       x="-0.061700001"
       y="-0.69749999"
       width="0.1233"
       height="2.8225"
       ry="0.039999999"
       fill="currentColor"
       id="rect144" />
  </g>
  <g
     transform="translate(46.70225,5.2928003)"
     id="g150">
    <path
       transform="scale(0.0034,-0.0034)"
       d="M 0,0 H -18 V 250 H 0 Z m 0,0 v 250 c 96,59 222,149 222,259 0,57 -15,111 -40,162 -3,17 10,29 24,29 8,0 16,-5 21,-13 25,-56 40,-116 40,-178 C 267,306 0,203 0,0 Z"
       fill="currentColor"
       id="path148" />
  </g>
  <a
     style="color:inherit"
     xlink:href="textedit:///Users/tomsegarra/Documents/dev/dummies/lilypond_files/e5f6f9796dab932e4b5065b06f828020.ly:20:52:53"
     id="a156"
     transform="translate(-2.27615,-3.2788997)">
    <g
       transform="translate(51.1625,5.2117)"
       id="g154">
      <path
         transform="scale(0.0034,-0.0034)"
         d="m 215,137 c 67,0 111,-37 111,-92 0,-90 -111,-182 -215,-182 -67,0 -111,37 -111,92 0,90 111,182 215,182 z"
         fill="currentColor"
         id="path152" />
    </g>
  </a>
  <g
     transform="translate(48.94795,3.2078003)"
     id="g160">
    <rect
       x="-0.061700001"
       y="-1.1224999"
       width="0.1233"
       height="2.1250999"
       ry="0.039999999"
       fill="currentColor"
       id="rect158" />
  </g>
  <a
     style="color:inherit"
     xlink:href="textedit:///Users/tomsegarra/Documents/dev/dummies/lilypond_files/e5f6f9796dab932e4b5065b06f828020.ly:20:54:55"
     id="a166"
     transform="translate(-2.27615,-3.2788997)">
    <g
       transform="translate(53.4699,4.7867)"
       id="g164">
      <path
         transform="scale(0.0034,-0.0034)"
         d="m 215,137 c 67,0 111,-37 111,-92 0,-90 -111,-182 -215,-182 -67,0 -111,37 -111,92 0,90 111,182 215,182 z"
         fill="currentColor"
         id="path162" />
    </g>
  </a>
  <g
     transform="translate(51.25535,3.2078003)"
     id="g170">
    <rect
       x="-0.061700001"
       y="-1.5475"
       width="0.1233"
       height="2.4015"
       ry="0.039999999"
       fill="currentColor"
       id="rect168" />
  </g>
  <a
     style="color:inherit"
     xlink:href="textedit:///Users/tomsegarra/Documents/dev/dummies/lilypond_files/e5f6f9796dab932e4b5065b06f828020.ly:20:58:59"
     id="a176"
     transform="translate(-2.27615,-3.2788997)">
    <g
       transform="translate(55.7772,5.2117)"
       id="g174">
      <path
         transform="scale(0.0034,-0.0034)"
         d="m 215,137 c 67,0 111,-37 111,-92 0,-90 -111,-182 -215,-182 -67,0 -111,37 -111,92 0,90 111,182 215,182 z"
         fill="currentColor"
         id="path172" />
    </g>
  </a>
  <g
     transform="translate(53.56275,3.2078003)"
     id="g180">
    <rect
       x="-0.061700001"
       y="-1.1224999"
       width="0.1233"
       height="2.8225"
       ry="0.039999999"
       fill="currentColor"
       id="rect178" />
  </g>
  <a
     style="color:inherit"
     xlink:href="textedit:///Users/tomsegarra/Documents/dev/dummies/lilypond_files/e5f6f9796dab932e4b5065b06f828020.ly:20:63:64"
     id="a186"
     transform="translate(-2.27615,-3.2788997)">
    <g
       transform="translate(60.2575,6.0617)"
       id="g184">
      <path
         transform="scale(0.0034,-0.0034)"
         d="m 215,137 c 67,0 111,-37 111,-92 0,-90 -111,-182 -215,-182 -67,0 -111,37 -111,92 0,90 111,182 215,182 z"
         fill="currentColor"
         id="path182" />
    </g>
  </a>
  <g
     transform="translate(58.04305,3.2078003)"
     id="g190">
    <rect
       x="-0.061700001"
       y="-0.27250001"
       width="0.1233"
       height="2.8225"
       ry="0.039999999"
       fill="currentColor"
       id="rect188" />
  </g>
  <g
     transform="translate(17.52495,4.2143003)"
     id="g194">
    <polygon
       stroke-linejoin="round"
       stroke-linecap="round"
       stroke-width="0.08"
       fill="currentColor"
       stroke="currentColor"
       points="0.04,0.164 0.04,-0.164 2.3907,-0.3206 2.3907,0.0074 "
       id="polygon192" />
  </g>
  <a
     style="color:inherit"
     xlink:href="textedit:///Users/tomsegarra/Documents/dev/dummies/lilypond_files/e5f6f9796dab932e4b5065b06f828020.ly:20:67:68"
     id="a200"
     transform="translate(-2.27615,-3.2788997)">
    <g
       transform="translate(63.7649,5.6367)"
       id="g198">
      <path
         transform="scale(0.0034,-0.0034)"
         d="m 215,137 c 67,0 111,-37 111,-92 0,-90 -111,-182 -215,-182 -67,0 -111,37 -111,92 0,90 111,182 215,182 z"
         fill="currentColor"
         id="path196" />
    </g>
  </a>
  <g
     transform="translate(61.55045,3.2078003)"
     id="g204">
    <rect
       x="-0.061700001"
       y="-0.69749999"
       width="0.1233"
       height="2.8225"
       ry="0.039999999"
       fill="currentColor"
       id="rect202" />
  </g>
  <a
     style="color:inherit"
     xlink:href="textedit:///Users/tomsegarra/Documents/dev/dummies/lilypond_files/e5f6f9796dab932e4b5065b06f828020.ly:20:69:70"
     id="a210"
     transform="translate(-2.27615,-3.2788997)">
    <g
       transform="translate(67.2723,5.2117)"
       id="g208">
      <path
         transform="scale(0.0034,-0.0034)"
         d="m 215,137 c 67,0 111,-37 111,-92 0,-90 -111,-182 -215,-182 -67,0 -111,37 -111,92 0,90 111,182 215,182 z"
         fill="currentColor"
         id="path206" />
    </g>
  </a>
  <g
     transform="translate(65.05775,3.2078003)"
     id="g214">
    <rect
       x="-0.061700001"
       y="-1.1224999"
       width="0.1233"
       height="2.8225"
       ry="0.039999999"
       fill="currentColor"
       id="rect212" />
  </g>
  <a
     style="color:inherit"
     xlink:href="textedit:///Users/tomsegarra/Documents/dev/dummies/lilypond_files/e5f6f9796dab932e4b5065b06f828020.ly:20:71:72"
     id="a220"
     transform="translate(-2.27615,-3.2788997)">
    <g
       transform="translate(70.7797,4.7867)"
       id="g218">
      <path
         transform="scale(0.0034,-0.0034)"
         d="m 215,137 c 67,0 111,-37 111,-92 0,-90 -111,-182 -215,-182 -67,0 -111,37 -111,92 0,90 111,182 215,182 z"
         fill="currentColor"
         id="path216" />
    </g>
  </a>
  <g
     transform="translate(68.56515,3.2078003)"
     id="g224">
    <rect
       x="-0.061700001"
       y="-1.5475"
       width="0.1233"
       height="2.8225"
       ry="0.039999999"
       fill="currentColor"
       id="rect222" />
  </g>
  <a
     style="color:inherit"
     xlink:href="textedit:///Users/tomsegarra/Documents/dev/dummies/lilypond_files/e5f6f9796dab932e4b5065b06f828020.ly:20:9:10"
     id="a230"
     transform="translate(-2.27615,-3.2788997)">
    <g
       transform="translate(17.4937,5.6367)"
       id="g228">
      <path
         transform="scale(0.0034,-0.0034)"
         d="m 215,137 c 67,0 111,-37 111,-92 0,-90 -111,-182 -215,-182 -67,0 -111,37 -111,92 0,90 111,182 215,182 z"
         fill="currentColor"
         id="path226" />
    </g>
  </a>
  <g
     transform="translate(15.27925,3.2078003)"
     id="g234">
    <rect
       x="-0.061700001"
       y="-0.69749999"
       width="0.1233"
       height="2.8225"
       ry="0.039999999"
       fill="currentColor"
       id="rect232" />
  </g>
  <g
     transform="translate(15.34085,5.2928003)"
     id="g238">
    <path
       transform="scale(0.0034,-0.0034)"
       d="M 0,0 H -18 V 250 H 0 Z m 0,0 v 250 c 96,59 222,149 222,259 0,57 -15,111 -40,162 -3,17 10,29 24,29 8,0 16,-5 21,-13 25,-56 40,-116 40,-178 C 267,306 0,203 0,0 Z"
       fill="currentColor"
       id="path236" />
  </g>
  <a
     style="color:inherit"
     xlink:href="textedit:///Users/tomsegarra/Documents/dev/dummies/lilypond_files/e5f6f9796dab932e4b5065b06f828020.ly:20:12:13"
     id="a244"
     transform="translate(-2.27615,-3.2788997)">
    <g
       transform="translate(19.8011,5.2117)"
       id="g242">
      <path
         transform="scale(0.0034,-0.0034)"
         d="m 215,137 c 67,0 111,-37 111,-92 0,-90 -111,-182 -215,-182 -67,0 -111,37 -111,92 0,90 111,182 215,182 z"
         fill="currentColor"
         id="path240" />
    </g>
  </a>
  <g
     transform="translate(17.58665,3.2078003)"
     id="g248">
    <rect
       x="-0.061700001"
       y="-1.1224999"
       width="0.1233"
       height="2.1250999"
       ry="0.039999999"
       fill="currentColor"
       id="rect246" />
  </g>
  <a
     style="color:inherit"
     xlink:href="textedit:///Users/tomsegarra/Documents/dev/dummies/lilypond_files/e5f6f9796dab932e4b5065b06f828020.ly:20:14:15"
     id="a254"
     transform="translate(-2.27615,-3.2788997)">
    <g
       transform="translate(22.1085,4.7867)"
       id="g252">
      <path
         transform="scale(0.0034,-0.0034)"
         d="m 215,137 c 67,0 111,-37 111,-92 0,-90 -111,-182 -215,-182 -67,0 -111,37 -111,92 0,90 111,182 215,182 z"
         fill="currentColor"
         id="path250" />
    </g>
  </a>
  <g
     transform="translate(19.89405,3.2078003)"
     id="g258">
    <rect
       x="-0.061700001"
       y="-1.5475"
       width="0.1233"
       height="2.4015"
       ry="0.039999999"
       fill="currentColor"
       id="rect256" />
  </g>
  <g
     transform="translate(27.53585,3.2078003)"
     id="g262">
    <rect
       x="-0.061700001"
       y="-2.125"
       width="0.1233"
       height="2.8225"
       ry="0.039999999"
       fill="currentColor"
       id="rect260" />
  </g>
  <a
     style="color:inherit"
     xlink:href="textedit:///Users/tomsegarra/Documents/dev/dummies/lilypond_files/e5f6f9796dab932e4b5065b06f828020.ly:20:18:19"
     id="a268"
     transform="translate(-2.27615,-3.2788997)">
    <g
       transform="translate(24.4159,5.2117)"
       id="g266">
      <path
         transform="scale(0.0034,-0.0034)"
         d="m 215,137 c 67,0 111,-37 111,-92 0,-90 -111,-182 -215,-182 -67,0 -111,37 -111,92 0,90 111,182 215,182 z"
         fill="currentColor"
         id="path264" />
    </g>
  </a>
  <g
     transform="translate(22.20135,3.2078003)"
     id="g272">
    <rect
       x="-0.061700001"
       y="-1.1224999"
       width="0.1233"
       height="2.8225"
       ry="0.039999999"
       fill="currentColor"
       id="rect270" />
  </g>
  <g
     transform="translate(27.97665,3.6328003)"
     id="g276">
    <path
       transform="scale(0.0034,-0.0034)"
       d="M 0,0 C 0,31 25,56 56,56 87,56 111,31 111,0 111,-31 87,-56 56,-56 25,-56 0,-31 0,0 Z"
       fill="currentColor"
       id="path274" />
  </g>
  <a
     style="color:inherit"
     xlink:href="textedit:///Users/tomsegarra/Documents/dev/dummies/lilypond_files/e5f6f9796dab932e4b5065b06f828020.ly:20:24:25"
     id="a282"
     transform="translate(-2.27615,-3.2788997)">
    <g
       transform="translate(28.7663,7.3367)"
       id="g280">
      <path
         transform="scale(0.0034,-0.0034)"
         d="m 215,137 c 67,0 111,-37 111,-92 0,-90 -111,-182 -215,-182 -67,0 -111,37 -111,92 0,90 111,182 215,182 z"
         fill="currentColor"
         id="path278" />
    </g>
  </a>
</svg>
