<?xml version="1.0" encoding="UTF-8" standalone="no"?>
<svg
   version="1.2"
   width="72.151932mm"
   height="10.605452mm"
   viewBox="0 0 41.059198 6.0350876"
   id="svg162"
   sodipodi:docname="ea31f5def48ec87247207276c1d8ab00.svg"
   xmlns:inkscape="http://www.inkscape.org/namespaces/inkscape"
   xmlns:sodipodi="http://sodipodi.sourceforge.net/DTD/sodipodi-0.dtd"
   xmlns:xlink="http://www.w3.org/1999/xlink"
   xmlns="http://www.w3.org/2000/svg"
   xmlns:svg="http://www.w3.org/2000/svg">
  <defs
     id="defs166" />
  <sodipodi:namedview
     id="namedview164"
     pagecolor="#ffffff"
     bordercolor="#000000"
     borderopacity="0.25"
     inkscape:showpageshadow="2"
     inkscape:pageopacity="0.0"
     inkscape:pagecheckerboard="0"
     inkscape:deskcolor="#d1d1d1"
     inkscape:document-units="mm" />
  <style
     type="text/css"
     id="style2"><![CDATA[
tspan { white-space: pre; }
]]></style>
  <!-- Page: 1/1 -->
  <g
     transform="translate(-5.0000846e-5,4.798428)"
     id="g6">
    <line
       stroke-linejoin="round"
       stroke-linecap="round"
       stroke-width="0.0931"
       stroke="currentColor"
       x1="0.046599999"
       y1="0"
       x2="41.012699"
       y2="0"
       id="line4" />
  </g>
  <g
     transform="translate(-5.0000846e-5,3.998428)"
     id="g10">
    <line
       stroke-linejoin="round"
       stroke-linecap="round"
       stroke-width="0.0931"
       stroke="currentColor"
       x1="0.046599999"
       y1="0"
       x2="41.012699"
       y2="0"
       id="line8" />
  </g>
  <g
     transform="translate(-5.0000846e-5,3.198428)"
     id="g14">
    <line
       stroke-linejoin="round"
       stroke-linecap="round"
       stroke-width="0.0931"
       stroke="currentColor"
       x1="0.046599999"
       y1="0"
       x2="41.012699"
       y2="0"
       id="line12" />
  </g>
  <g
     transform="translate(-5.0000846e-5,2.398428)"
     id="g18">
    <line
       stroke-linejoin="round"
       stroke-linecap="round"
       stroke-width="0.0931"
       stroke="currentColor"
       x1="0.046599999"
       y1="0"
       x2="41.012699"
       y2="0"
       id="line16" />
  </g>
  <g
     transform="translate(-5.0000846e-5,1.598428)"
     id="g22">
    <line
       stroke-linejoin="round"
       stroke-linecap="round"
       stroke-width="0.0931"
       stroke="currentColor"
       x1="0.046599999"
       y1="0"
       x2="41.012699"
       y2="0"
       id="line20" />
  </g>
  <g
     transform="translate(37.13705,3.198428)"
     id="g26">
    <rect
       x="0"
       y="-1.6"
       width="0.177"
       height="3.2"
       ry="0.0000"
       fill="currentColor"
       id="rect24" />
  </g>
  <g
     transform="translate(23.23415,3.198428)"
     id="g30">
    <rect
       x="0"
       y="-1.6"
       width="0.177"
       height="3.2"
       ry="0.0000"
       fill="currentColor"
       id="rect28" />
  </g>
  <g
     transform="translate(27.20205,4.943828)"
     id="g34">
    <polygon
       stroke-linejoin="round"
       stroke-linecap="round"
       stroke-width="0.08"
       fill="currentColor"
       stroke="currentColor"
       points="0.04,0.152 0.04,-0.152 1.9218,-0.2974 1.9218,0.0066 "
       id="polygon32" />
  </g>
  <a
     style="color:inherit"
     xlink:href="textedit:///Users/tomsegarra/Downloads/dummies/lilypond_files/ea31f5def48ec87247207276c1d8ab00.ly:22:6:14"
     id="a40"
     transform="translate(-2.27625,-3.277772)">
    <g
       transform="translate(20.1993,5.6762)"
       id="g38">
      <path
         transform="scale(0.0032,-0.0032)"
         d="m 212,138 c 68,0 113,-38 113,-95 0,-90 -109,-181 -212,-181 -68,0 -113,38 -113,95 0,90 109,181 212,181 z"
         fill="currentColor"
         id="path36" />
    </g>
  </a>
  <g
     transform="translate(17.98365,3.198428)"
     id="g44">
    <rect
       x="-0.0605"
       y="-0.66289997"
       width="0.1211"
       height="2.6629"
       ry="0.039999999"
       fill="currentColor"
       id="rect42" />
  </g>
  <g
     transform="translate(30.88335,4.943828)"
     id="g48">
    <polygon
       stroke-linejoin="round"
       stroke-linecap="round"
       stroke-width="0.08"
       fill="currentColor"
       stroke="currentColor"
       points="0.04,0.152 0.04,-0.152 1.9218,-0.2974 1.9218,0.0066 "
       id="polygon46" />
  </g>
  <a
     style="color:inherit"
     xlink:href="textedit:///Users/tomsegarra/Downloads/dummies/lilypond_files/ea31f5def48ec87247207276c1d8ab00.ly:22:8:16"
     id="a54"
     transform="translate(-2.27625,-3.277772)">
    <g
       transform="translate(22.938,6.0762)"
       id="g52">
      <path
         transform="scale(0.0032,-0.0032)"
         d="m 212,138 c 68,0 113,-38 113,-95 0,-90 -109,-181 -212,-181 -68,0 -113,38 -113,95 0,90 109,181 212,181 z"
         fill="currentColor"
         id="path50" />
    </g>
  </a>
  <g
     transform="translate(20.72235,3.198428)"
     id="g58">
    <rect
       x="-0.0605"
       y="-0.26289999"
       width="0.1211"
       height="2.6629"
       ry="0.039999999"
       fill="currentColor"
       id="rect56" />
  </g>
  <a
     style="color:inherit"
     xlink:href="textedit:///Users/tomsegarra/Downloads/dummies/lilypond_files/ea31f5def48ec87247207276c1d8ab00.ly:22:12:20"
     id="a64"
     transform="translate(-2.27625,-3.277772)">
    <g
       transform="translate(26.7395,5.6762)"
       id="g62">
      <path
         transform="scale(0.0032,-0.0032)"
         d="m 212,138 c 68,0 113,-38 113,-95 0,-90 -109,-181 -212,-181 -68,0 -113,38 -113,95 0,90 109,181 212,181 z"
         fill="currentColor"
         id="path60" />
    </g>
  </a>
  <g
     transform="translate(24.52385,3.198428)"
     id="g68">
    <rect
       x="-0.0605"
       y="-0.66289997"
       width="0.1211"
       height="2.6629"
       ry="0.039999999"
       fill="currentColor"
       id="rect66" />
  </g>
  <a
     style="color:inherit"
     xlink:href="textedit:///Users/tomsegarra/Downloads/dummies/lilypond_files/ea31f5def48ec87247207276c1d8ab00.ly:22:14:22"
     id="a74"
     transform="translate(-2.27625,-3.277772)">
    <g
       transform="translate(29.4783,6.0762)"
       id="g72">
      <path
         transform="scale(0.0032,-0.0032)"
         d="m 212,138 c 68,0 113,-38 113,-95 0,-90 -109,-181 -212,-181 -68,0 -113,38 -113,95 0,90 109,181 212,181 z"
         fill="currentColor"
         id="path70" />
    </g>
  </a>
  <g
     transform="translate(27.26255,3.198428)"
     id="g78">
    <rect
       x="-0.0605"
       y="-0.26289999"
       width="0.1211"
       height="2.0039001"
       ry="0.039999999"
       fill="currentColor"
       id="rect76" />
  </g>
  <a
     style="color:inherit"
     xlink:href="textedit:///Users/tomsegarra/Downloads/dummies/lilypond_files/ea31f5def48ec87247207276c1d8ab00.ly:22:19:27"
     id="a84"
     transform="translate(-2.27625,-3.277772)">
    <g
       transform="translate(31.3189,5.6762)"
       id="g82">
      <path
         transform="scale(0.0032,-0.0032)"
         d="m 212,138 c 68,0 113,-38 113,-95 0,-90 -109,-181 -212,-181 -68,0 -113,38 -113,95 0,90 109,181 212,181 z"
         fill="currentColor"
         id="path80" />
    </g>
  </a>
  <g
     transform="translate(29.10325,3.198428)"
     id="g88">
    <rect
       x="-0.0605"
       y="-0.66289997"
       width="0.1211"
       height="2.2674"
       ry="0.039999999"
       fill="currentColor"
       id="rect86" />
  </g>
  <a
     style="color:inherit"
     xlink:href="textedit:///Users/tomsegarra/Downloads/dummies/lilypond_files/ea31f5def48ec87247207276c1d8ab00.ly:22:21:29"
     id="a94"
     transform="translate(-2.27625,-3.277772)">
    <g
       transform="translate(33.1596,6.0762)"
       id="g92">
      <path
         transform="scale(0.0032,-0.0032)"
         d="m 212,138 c 68,0 113,-38 113,-95 0,-90 -109,-181 -212,-181 -68,0 -113,38 -113,95 0,90 109,181 212,181 z"
         fill="currentColor"
         id="path90" />
    </g>
  </a>
  <g
     transform="translate(30.94385,3.198428)"
     id="g98">
    <rect
       x="-0.0605"
       y="-0.26289999"
       width="0.1211"
       height="2.0039001"
       ry="0.039999999"
       fill="currentColor"
       id="rect96" />
  </g>
  <g
     transform="translate(15.24485,3.198428)"
     id="g102">
    <rect
       x="-0.0605"
       y="-1.0628999"
       width="0.1211"
       height="2.6629"
       ry="0.039999999"
       fill="currentColor"
       id="rect100" />
  </g>
  <a
     style="color:inherit"
     xlink:href="textedit:///Users/tomsegarra/Downloads/dummies/lilypond_files/ea31f5def48ec87247207276c1d8ab00.ly:22:25:33"
     id="a108"
     transform="translate(-2.27625,-3.277772)">
    <g
       transform="translate(35.0003,5.6762)"
       id="g106">
      <path
         transform="scale(0.0032,-0.0032)"
         d="m 212,138 c 68,0 113,-38 113,-95 0,-90 -109,-181 -212,-181 -68,0 -113,38 -113,95 0,90 109,181 212,181 z"
         fill="currentColor"
         id="path104" />
    </g>
  </a>
  <g
     transform="translate(32.78455,3.198428)"
     id="g112">
    <rect
       x="-0.0605"
       y="-0.66289997"
       width="0.1211"
       height="2.2674"
       ry="0.039999999"
       fill="currentColor"
       id="rect110" />
  </g>
  <a
     style="color:inherit"
     xlink:href="textedit:///Users/tomsegarra/Downloads/dummies/lilypond_files/ea31f5def48ec87247207276c1d8ab00.ly:21:1:9"
     id="a126"
     transform="translate(-2.27625,-3.277772)">
    <g
       transform="translate(12.3206,4.8762)"
       id="g116">
      <path
         transform="scale(0.0032,-0.0032)"
         d="m 198,-329 c -12,0 -21,9 -21,21 v 138 l -79,-30 v -154 c 0,-12 -9,-21 -21,-21 -12,0 -21,9 -21,21 v 138 l -22,-8 c -3,-1 -6,-2 -9,-2 -13,0 -25,11 -25,25 v 54 c 0,10 6,20 16,24 l 40,15 V 47 L 34,38 C 31,37 28,37 25,37 12,37 0,48 0,62 v 54 c 0,10 6,19 16,23 l 40,15 v 154 c 0,12 9,21 21,21 12,0 21,-9 21,-21 V 170 l 79,30 v 154 c 0,12 9,21 21,21 12,0 21,-9 21,-21 V 216 l 22,8 c 3,1 6,2 9,2 13,0 25,-11 25,-25 v -54 c 0,-10 -6,-20 -16,-24 L 219,108 V -47 l 22,9 c 3,1 6,1 9,1 13,0 25,-11 25,-25 v -54 c 0,-10 -6,-19 -16,-23 l -40,-15 v -154 c 0,-12 -9,-21 -21,-21 z M 98,62 V -92 l 79,30 V 92 Z"
         fill="currentColor"
         id="path114" />
    </g>
    <g
       transform="translate(13.2006,6.0762)"
       id="g120">
      <path
         transform="scale(0.0032,-0.0032)"
         d="m 198,-329 c -12,0 -21,9 -21,21 v 138 l -79,-30 v -154 c 0,-12 -9,-21 -21,-21 -12,0 -21,9 -21,21 v 138 l -22,-8 c -3,-1 -6,-2 -9,-2 -13,0 -25,11 -25,25 v 54 c 0,10 6,20 16,24 l 40,15 V 47 L 34,38 C 31,37 28,37 25,37 12,37 0,48 0,62 v 54 c 0,10 6,19 16,23 l 40,15 v 154 c 0,12 9,21 21,21 12,0 21,-9 21,-21 V 170 l 79,30 v 154 c 0,12 9,21 21,21 12,0 21,-9 21,-21 V 216 l 22,8 c 3,1 6,2 9,2 13,0 25,-11 25,-25 v -54 c 0,-10 -6,-20 -16,-24 L 219,108 V -47 l 22,9 c 3,1 6,1 9,1 13,0 25,-11 25,-25 v -54 c 0,-10 -6,-19 -16,-23 l -40,-15 v -154 c 0,-12 -9,-21 -21,-21 z M 98,62 V -92 l 79,30 V 92 Z"
         fill="currentColor"
         id="path118" />
    </g>
    <g
       transform="translate(14.0806,4.4762)"
       id="g124">
      <path
         transform="scale(0.0032,-0.0032)"
         d="m 198,-329 c -12,0 -21,9 -21,21 v 138 l -79,-30 v -154 c 0,-12 -9,-21 -21,-21 -12,0 -21,9 -21,21 v 138 l -22,-8 c -3,-1 -6,-2 -9,-2 -13,0 -25,11 -25,25 v 54 c 0,10 6,20 16,24 l 40,15 V 47 L 34,38 C 31,37 28,37 25,37 12,37 0,48 0,62 v 54 c 0,10 6,19 16,23 l 40,15 v 154 c 0,12 9,21 21,21 12,0 21,-9 21,-21 V 170 l 79,30 v 154 c 0,12 9,21 21,21 12,0 21,-9 21,-21 V 216 l 22,8 c 3,1 6,2 9,2 13,0 25,-11 25,-25 v -54 c 0,-10 -6,-20 -16,-24 L 219,108 V -47 l 22,9 c 3,1 6,1 9,1 13,0 25,-11 25,-25 v -54 c 0,-10 -6,-19 -16,-23 l -40,-15 v -154 c 0,-12 -9,-21 -21,-21 z M 98,62 V -92 l 79,30 V 92 Z"
         fill="currentColor"
         id="path122" />
    </g>
  </a>
  <a
     style="color:inherit"
     xlink:href="textedit:///Users/tomsegarra/Downloads/dummies/lilypond_files/ea31f5def48ec87247207276c1d8ab00.ly:22:27:35"
     id="a132"
     transform="translate(-2.27625,-3.277772)">
    <g
       transform="translate(36.8409,6.0762)"
       id="g130">
      <path
         transform="scale(0.0032,-0.0032)"
         d="m 212,138 c 68,0 113,-38 113,-95 0,-90 -109,-181 -212,-181 -68,0 -113,38 -113,95 0,90 109,181 212,181 z"
         fill="currentColor"
         id="path128" />
    </g>
  </a>
  <g
     transform="translate(34.62525,3.198428)"
     id="g136">
    <rect
       x="-0.0605"
       y="-0.26289999"
       width="0.1211"
       height="2.6629"
       ry="0.039999999"
       fill="currentColor"
       id="rect134" />
  </g>
  <a
     style="color:inherit"
     xlink:href="textedit:///Users/tomsegarra/Downloads/dummies/lilypond_files/ea31f5def48ec87247207276c1d8ab00.ly:22:1:9"
     id="a142"
     transform="translate(-2.27625,-3.277772)">
    <g
       transform="translate(17.4606,5.2762)"
       id="g140">
      <path
         transform="scale(0.0032,-0.0032)"
         d="m 212,138 c 68,0 113,-38 113,-95 0,-90 -109,-181 -212,-181 -68,0 -113,38 -113,95 0,90 109,181 212,181 z"
         fill="currentColor"
         id="path138" />
    </g>
  </a>
  <a
     style="color:inherit"
     xlink:href="textedit:///Users/tomsegarra/Downloads/dummies/lilypond_files/ea31f5def48ec87247207276c1d8ab00.ly:22:32:40"
     id="a148"
     transform="translate(-2.27625,-3.277772)">
    <g
       transform="translate(40.5967,6.4762)"
       id="g146">
      <path
         transform="scale(0.0032,-0.0032)"
         d="m 212,138 c 68,0 113,-38 113,-95 0,-90 -109,-181 -212,-181 -68,0 -113,38 -113,95 0,90 109,181 212,181 z"
         fill="currentColor"
         id="path144" />
    </g>
  </a>
  <g
     transform="translate(38.38105,3.198428)"
     id="g152">
    <rect
       x="-0.0605"
       y="0.1371"
       width="0.1211"
       height="2.5295999"
       ry="0.039999999"
       fill="currentColor"
       id="rect150" />
  </g>
  <g
     transform="translate(0.79995,3.998428)"
     id="g156">
    <path
       transform="scale(0.0032,-0.0032)"
       d="m 647,2 c 0,-114 -75,-214 -180,-248 3,-33 4,-66 4,-99 0,-21 0,-41 -1,-62 -7,-122 -92,-229 -211,-229 -108,0 -196,88 -196,197 0,58 54,103 113,103 54,0 95,-47 95,-103 0,-52 -43,-95 -95,-95 -9,0 -18,1 -27,4 25,-37 66,-61 113,-61 93,0 156,91 162,191 1,19 2,38 2,57 0,29 -1,58 -3,87 -5,-1 -44,-8 -88,-8 -194,0 -333,181 -333,376 0,177 129,308 244,443 -34,103 -55,171 -55,347 0,114 54,221 147,288 8,6 18,5 25,-1 68,-79 135,-242 135,-356 0,-142 -84,-255 -176,-364 21,-68 40,-136 57,-205 1,0 5,1 10,1 C 546,265 647,136 647,2 Z M 463,-201 c 64,24 110,88 110,161 0,88 -64,175 -167,188 28,-133 49,-269 57,-349 z M 77,25 c 0,-144 141,-243 261,-243 1,0 46,-1 81,5 -7,66 -27,208 -60,362 -79,-8 -124,-60 -124,-118 0,-43 25,-88 80,-120 5,-5 7,-11 7,-17 0,-12 -10,-23 -23,-23 -16,0 -128,62 -128,188 0,89 60,177 163,200 -14,57 -30,113 -47,169 C 182,306 77,185 77,25 Z M 403,1038 C 304,992 242,893 242,784 c 0,-39 10,-95 39,-188 78,97 142,199 142,324 0,33 0,61 -20,118 z"
       fill="currentColor"
       id="path154" />
  </g>
  <g
     transform="translate(4.99995,3.198428)"
     id="g160">
    <path
       transform="scale(0.0032,-0.0032)"
       d="m 250,265 c 114,0 172,-112 172,-166 0,-38 -30,-69 -66,-69 -30,0 -72,23 -72,72 0,37 26,75 70,75 3,0 6,-1 9,-1 -26,36 -67,59 -113,59 -107,0 -113,-74 -113,-189 0,-15 1,-30 1,-46 0,-16 -1,-31 -1,-46 0,-115 6,-189 113,-189 78,0 133,70 151,149 2,8 8,11 14,11 7,0 15,-5 15,-14 0,-21 -49,-176 -180,-176 C 105,-265 0,-177 0,0 0,63 18,265 250,265 Z"
       fill="currentColor"
       id="path158" />
  </g>
</svg>
