<?xml version="1.0" encoding="UTF-8" standalone="no"?>
<svg
   version="1.2"
   width="97.066681mm"
   height="21.653818mm"
   viewBox="0 0 55.234424 12.322218"
   id="svg396"
   sodipodi:docname="fbb8b59253c216d56fb95dcb083fc91d.svg"
   xmlns:inkscape="http://www.inkscape.org/namespaces/inkscape"
   xmlns:sodipodi="http://sodipodi.sourceforge.net/DTD/sodipodi-0.dtd"
   xmlns:xlink="http://www.w3.org/1999/xlink"
   xmlns="http://www.w3.org/2000/svg"
   xmlns:svg="http://www.w3.org/2000/svg">
  <defs
     id="defs400" />
  <sodipodi:namedview
     id="namedview398"
     pagecolor="#ffffff"
     bordercolor="#000000"
     borderopacity="0.25"
     inkscape:showpageshadow="2"
     inkscape:pageopacity="0.0"
     inkscape:pagecheckerboard="0"
     inkscape:deskcolor="#d1d1d1"
     inkscape:document-units="mm" />
  <style
     type="text/css"
     id="style2"><![CDATA[
tspan { white-space: pre; }
]]></style>
  <!-- Page: 1/1 -->
  <g
     transform="translate(25.010133,6.3692328)"
     id="g6">
    <rect
       x="0"
       y="-1.7"
       width="0.1802"
       height="3.4000001"
       ry="0.0000"
       fill="currentColor"
       id="rect4" />
  </g>
  <g
     transform="translate(-9.6670145e-4,3.8192328)"
     id="g10">
    <rect
       x="16.202499"
       y="-0.089900002"
       width="1.6611"
       height="0.17990001"
       ry="0.089900002"
       fill="currentColor"
       id="rect8" />
  </g>
  <g
     transform="translate(-9.6670145e-4,3.8192328)"
     id="g14">
    <rect
       x="11.4163"
       y="-0.089900002"
       width="1.6611"
       height="0.17990001"
       ry="0.089900002"
       fill="currentColor"
       id="rect12" />
  </g>
  <g
     transform="translate(-9.6670145e-4,8.0692328)"
     id="g18">
    <line
       stroke-linejoin="round"
       stroke-linecap="round"
       stroke-width="0.0949"
       stroke="currentColor"
       x1="0.047400001"
       y1="0"
       x2="55.188801"
       y2="0"
       id="line16" />
  </g>
  <g
     transform="translate(-9.6670145e-4,7.2192328)"
     id="g22">
    <line
       stroke-linejoin="round"
       stroke-linecap="round"
       stroke-width="0.0949"
       stroke="currentColor"
       x1="0.047400001"
       y1="0"
       x2="55.188801"
       y2="0"
       id="line20" />
  </g>
  <g
     transform="translate(-9.6670145e-4,6.3692328)"
     id="g26">
    <line
       stroke-linejoin="round"
       stroke-linecap="round"
       stroke-width="0.0949"
       stroke="currentColor"
       x1="0.047400001"
       y1="0"
       x2="55.188801"
       y2="0"
       id="line24" />
  </g>
  <g
     transform="translate(-9.6670145e-4,5.5192328)"
     id="g30">
    <line
       stroke-linejoin="round"
       stroke-linecap="round"
       stroke-width="0.0949"
       stroke="currentColor"
       x1="0.047400001"
       y1="0"
       x2="55.188801"
       y2="0"
       id="line28" />
  </g>
  <g
     transform="translate(-9.6670145e-4,4.6692328)"
     id="g34">
    <line
       stroke-linejoin="round"
       stroke-linecap="round"
       stroke-width="0.0949"
       stroke="currentColor"
       x1="0.047400001"
       y1="0"
       x2="55.188801"
       y2="0"
       id="line32" />
  </g>
  <g
     transform="translate(55.055033,6.3692328)"
     id="g38">
    <rect
       x="0"
       y="-1.7"
       width="0.1802"
       height="3.4000001"
       ry="0.0000"
       fill="currentColor"
       id="rect36" />
  </g>
  <a
     style="color:inherit"
     xlink:href="textedit:///Users/tomsegarra/Documents/dev/dummies/lilypond_files/fbb8b59253c216d56fb95dcb083fc91d.ly:20:12:13"
     id="a52"
     transform="translate(-2.2771667,-3.2762672)">
    <g
       transform="translate(13.9694,5.6089)"
       id="g44">
      <text
         font-family="sans-serif"
         font-size="2.224px"
         text-anchor="start"
         fill="currentColor"
         id="text42"><tspan
           id="tspan40">E</tspan></text>
    </g>
    <g
       transform="translate(15.3693,4.4197)"
       id="g50">
      <text
         font-family="sans-serif"
         font-size="1.5727px"
         text-anchor="start"
         fill="currentColor"
         id="text48"><tspan
           id="tspan46">7</tspan></text>
    </g>
  </a>
  <a
     style="color:inherit"
     xlink:href="textedit:///Users/tomsegarra/Documents/dev/dummies/lilypond_files/fbb8b59253c216d56fb95dcb083fc91d.ly:24:17:18"
     id="a58"
     transform="translate(-2.2771667,-3.2762672)">
    <g
       transform="translate(13.9694,7.0955)"
       id="g56">
      <path
         transform="scale(0.0034,-0.0034)"
         d="m 215,137 c 67,0 111,-37 111,-92 0,-90 -111,-182 -215,-182 -67,0 -111,37 -111,92 0,90 111,182 215,182 z"
         fill="currentColor"
         id="path54" />
    </g>
  </a>
  <g
     transform="translate(0.7990333,7.2192328)"
     id="g62">
    <path
       transform="scale(0.0034,-0.0034)"
       d="m 646,2 c 0,-113 -74,-213 -180,-247 3,-34 5,-68 5,-102 0,-20 -1,-40 -2,-60 -7,-121 -91,-228 -209,-228 -108,0 -196,87 -196,196 0,58 53,104 112,104 54,0 95,-48 95,-104 0,-52 -43,-95 -95,-95 -10,0 -20,2 -29,6 26,-38 68,-63 116,-63 h 3 c 93,2 153,92 159,190 1,19 2,37 2,56 0,30 -2,60 -4,90 -5,-1 -43,-8 -88,-8 -194,0 -333,180 -333,375 0,177 130,307 246,442 -31,98 -53,170 -53,347 0,115 55,223 148,290 7,5 16,4 22,-1 68,-80 134,-243 134,-357 0,-143 -85,-255 -178,-364 21,-68 40,-137 57,-206 1,0 5,1 11,1 C 545,264 646,135 646,2 Z M 462,-202 c 66,24 111,88 111,162 0,89 -65,178 -170,190 28,-135 50,-272 59,-352 z M 75,26 c 0,-145 141,-245 263,-245 1,0 46,0 81,6 -7,65 -27,206 -61,363 -79,-8 -124,-61 -124,-119 0,-43 25,-89 80,-121 5,-5 7,-11 7,-16 0,-12 -10,-23 -22,-23 -16,0 -127,63 -127,188 0,89 58,175 161,198 -14,58 -29,116 -46,173 C 181,308 75,186 75,26 Z M 406,1042 C 307,995 244,894 244,785 c 0,-49 13,-111 38,-191 79,97 144,199 144,324 0,33 0,63 -20,124 z"
       fill="currentColor"
       id="path60" />
  </g>
  <a
     style="color:inherit"
     xlink:href="textedit:///Users/tomsegarra/Documents/dev/dummies/lilypond_files/fbb8b59253c216d56fb95dcb083fc91d.ly:23:1:9"
     id="a76"
     transform="translate(-2.2771667,-3.2762672)">
    <g
       transform="translate(6.5762,7.9455)"
       id="g66">
      <path
         transform="scale(0.0034,-0.0034)"
         d="m 217,-311 c 0,-11 -8,-19 -19,-19 -11,0 -20,8 -20,19 v 142 l -81,-30 v -156 c 0,-11 -9,-20 -20,-20 -11,0 -19,9 -19,20 v 142 l -28,-11 c -3,-1 -5,-1 -8,-1 -12,0 -22,10 -22,23 v 57 c 0,9 6,18 15,21 l 43,16 V 49 L 30,39 C 27,38 25,38 22,38 10,38 0,47 0,60 v 57 c 0,9 6,18 15,21 l 43,16 v 157 c 0,11 8,19 19,19 11,0 20,-8 20,-19 V 169 l 81,30 v 156 c 0,11 9,20 20,20 11,0 19,-9 19,-20 V 213 l 28,11 c 3,1 5,1 8,1 12,0 22,-10 22,-23 v -57 c 0,-9 -6,-18 -15,-21 L 217,108 V -49 l 28,10 c 3,1 5,1 8,1 12,0 22,-9 22,-22 v -57 c 0,-9 -6,-18 -15,-21 l -43,-16 z M 97,64 V -94 l 81,30 V 94 Z"
         fill="currentColor"
         id="path64" />
    </g>
    <g
       transform="translate(7.5112,9.2205)"
       id="g70">
      <path
         transform="scale(0.0034,-0.0034)"
         d="m 217,-311 c 0,-11 -8,-19 -19,-19 -11,0 -20,8 -20,19 v 142 l -81,-30 v -156 c 0,-11 -9,-20 -20,-20 -11,0 -19,9 -19,20 v 142 l -28,-11 c -3,-1 -5,-1 -8,-1 -12,0 -22,10 -22,23 v 57 c 0,9 6,18 15,21 l 43,16 V 49 L 30,39 C 27,38 25,38 22,38 10,38 0,47 0,60 v 57 c 0,9 6,18 15,21 l 43,16 v 157 c 0,11 8,19 19,19 11,0 20,-8 20,-19 V 169 l 81,30 v 156 c 0,11 9,20 20,20 11,0 19,-9 19,-20 V 213 l 28,11 c 3,1 5,1 8,1 12,0 22,-10 22,-23 v -57 c 0,-9 -6,-18 -15,-21 L 217,108 V -49 l 28,10 c 3,1 5,1 8,1 12,0 22,-9 22,-22 v -57 c 0,-9 -6,-18 -15,-21 l -43,-16 z M 97,64 V -94 l 81,30 V 94 Z"
         fill="currentColor"
         id="path68" />
    </g>
    <g
       transform="translate(8.4462,7.5205)"
       id="g74">
      <path
         transform="scale(0.0034,-0.0034)"
         d="m 217,-311 c 0,-11 -8,-19 -19,-19 -11,0 -20,8 -20,19 v 142 l -81,-30 v -156 c 0,-11 -9,-20 -20,-20 -11,0 -19,9 -19,20 v 142 l -28,-11 c -3,-1 -5,-1 -8,-1 -12,0 -22,10 -22,23 v 57 c 0,9 6,18 15,21 l 43,16 V 49 L 30,39 C 27,38 25,38 22,38 10,38 0,47 0,60 v 57 c 0,9 6,18 15,21 l 43,16 v 157 c 0,11 8,19 19,19 11,0 20,-8 20,-19 V 169 l 81,30 v 156 c 0,11 9,20 20,20 11,0 19,-9 19,-20 V 213 l 28,11 c 3,1 5,1 8,1 12,0 22,-10 22,-23 v -57 c 0,-9 -6,-18 -15,-21 L 217,108 V -49 l 28,10 c 3,1 5,1 8,1 12,0 22,-9 22,-22 v -57 c 0,-9 -6,-18 -15,-21 l -43,-16 z M 97,64 V -94 l 81,30 V 94 Z"
         fill="currentColor"
         id="path72" />
    </g>
  </a>
  <g
     transform="translate(8.2540333,6.3692328)"
     id="g80">
    <path
       transform="scale(0.0034,-0.0034)"
       d="m 358,29 c -30,0 -74,23 -74,73 0,38 27,76 71,76 4,0 7,0 11,-1 -27,36 -69,59 -116,59 -106,0 -113,-74 -113,-188 0,-15 1,-31 1,-48 0,-17 -1,-33 -1,-48 0,-114 7,-188 113,-188 79,0 136,70 155,150 2,7 7,10 13,10 7,0 14,-5 14,-13 0,-21 -50,-175 -182,-175 C 191,-264 0,-244 0,0 0,63 18,264 250,264 365,264 424,155 424,99 424,60 394,29 358,29 Z"
       fill="currentColor"
       id="path78" />
  </g>
  <a
     style="color:inherit"
     xlink:href="textedit:///Users/tomsegarra/Documents/dev/dummies/lilypond_files/fbb8b59253c216d56fb95dcb083fc91d.ly:31:15:16"
     id="a88"
     transform="translate(-2.2771667,-3.2762672)">
    <g
       transform="translate(11.9965,15.1455)"
       id="g86">
      <text
         font-family="serif"
         font-size="2.0989px"
         text-anchor="start"
         fill="currentColor"
         id="text84"><tspan
           id="tspan82">they'd</tspan></text>
    </g>
  </a>
  <g
     transform="translate(11.753933,6.3692328)"
     id="g92">
    <rect
       x="-0.061700001"
       y="-2.3975"
       width="0.1233"
       height="2.8225"
       ry="0.039999999"
       fill="currentColor"
       id="rect90" />
  </g>
  <g
     transform="translate(11.815533,6.7542328)"
     id="g96">
    <path
       transform="scale(0.0034,-0.0034)"
       d="M 0,0 H -18 V 250 H 0 Z m 0,0 v 250 c 96,59 222,149 222,259 0,57 -15,111 -40,162 -3,17 10,29 24,29 8,0 16,-5 21,-13 25,-56 40,-116 40,-178 C 267,306 0,203 0,0 Z"
       fill="currentColor"
       id="path94" />
  </g>
  <g
     transform="translate(34.808633,6.3692328)"
     id="g100">
    <rect
       x="-0.061700001"
       y="-1.5475"
       width="0.1233"
       height="3.0925"
       ry="0.039999999"
       fill="currentColor"
       id="rect98" />
  </g>
  <a
     style="color:inherit"
     xlink:href="textedit:///Users/tomsegarra/Documents/dev/dummies/lilypond_files/fbb8b59253c216d56fb95dcb083fc91d.ly:24:31:32"
     id="a106"
     transform="translate(-2.2771667,-3.2762672)">
    <g
       transform="translate(25.1942,9.6455)"
       id="g104">
      <path
         stroke-width="0.0759"
         stroke-linejoin="round"
         stroke-linecap="round"
         stroke="currentColor"
         fill="currentColor"
         d="m 0.7537,-2.975 c 0.6461,-0.6917 2.3128,-0.6917 2.9589,0 v 0 c -0.6461,-0.5779 -2.3128,-0.5779 -2.9589,0 z"
         id="path102" />
    </g>
  </a>
  <a
     style="color:inherit"
     xlink:href="textedit:///Users/tomsegarra/Documents/dev/dummies/lilypond_files/fbb8b59253c216d56fb95dcb083fc91d.ly:25:19:20"
     id="a112"
     transform="translate(-2.2771667,-3.2762672)">
    <g
       transform="translate(39.4648,8.3705)"
       id="g110">
      <path
         transform="scale(0.0034,-0.0034)"
         d="m 215,137 c 67,0 111,-37 111,-92 0,-90 -111,-182 -215,-182 -67,0 -111,37 -111,92 0,90 111,182 215,182 z"
         fill="currentColor"
         id="path108" />
    </g>
  </a>
  <a
     style="color:inherit"
     xlink:href="textedit:///Users/tomsegarra/Documents/dev/dummies/lilypond_files/fbb8b59253c216d56fb95dcb083fc91d.ly:31:42:43"
     id="a120"
     transform="translate(-2.2771667,-3.2762672)">
    <g
       transform="translate(38.2089,15.1455)"
       id="g118">
      <text
         font-family="serif"
         font-size="2.0989px"
         text-anchor="start"
         fill="currentColor"
         id="text116"><tspan
           id="tspan114">kept</tspan></text>
    </g>
  </a>
  <g
     transform="translate(37.249333,6.3692328)"
     id="g124">
    <rect
       x="-0.061700001"
       y="-1.1224999"
       width="0.1233"
       height="2.7291"
       ry="0.039999999"
       fill="currentColor"
       id="rect122" />
  </g>
  <g
     color="#ff0000"
     id="g132"
     transform="translate(-2.2771667,-3.2762672)">
    <a
       style="color:inherit"
       xlink:href="textedit:///Users/tomsegarra/Documents/dev/dummies/lilypond_files/fbb8b59253c216d56fb95dcb083fc91d.ly:29:4:5"
       id="a130">
      <g
         transform="translate(43.1072,8.3705)"
         id="g128">
        <path
           transform="scale(0.0034,-0.0034)"
           d="m 215,137 c 67,0 111,-37 111,-92 0,-90 -111,-182 -215,-182 -67,0 -111,37 -111,92 0,90 111,182 215,182 z"
           fill="currentColor"
           id="path126" />
      </g>
    </a>
  </g>
  <a
     style="color:inherit"
     xlink:href="textedit:///Users/tomsegarra/Documents/dev/dummies/lilypond_files/fbb8b59253c216d56fb95dcb083fc91d.ly:31:47:48"
     id="a140"
     transform="translate(-2.2771667,-3.2762672)">
    <g
       transform="translate(42.2781,15.1455)"
       id="g138">
      <text
         font-family="serif"
         font-size="2.0989px"
         text-anchor="start"
         fill="currentColor"
         id="text136"><tspan
           id="tspan134">fall</tspan></text>
    </g>
  </a>
  <g
     color="#ff0000"
     id="g146"
     transform="translate(-2.2771667,-3.2762672)">
    <g
       transform="translate(43.1689,9.6455)"
       id="g144">
      <rect
         x="-0.061700001"
         y="-1.1224999"
         width="0.1233"
         height="2.8210001"
         ry="0.039999999"
         fill="currentColor"
         id="rect142" />
    </g>
  </g>
  <g
     transform="translate(20.325733,6.4610328)"
     id="g150">
    <polygon
       stroke-linejoin="round"
       stroke-linecap="round"
       stroke-width="0.08"
       fill="currentColor"
       stroke="currentColor"
       points="0.04,0.164 0.04,-0.164 2.6747,-0.0992 2.6747,0.2288 "
       id="polygon148" />
  </g>
  <g
     transform="translate(16.478433,7.0626328)"
     id="g154">
    <polygon
       stroke-linejoin="round"
       stroke-linecap="round"
       stroke-width="0.08"
       fill="currentColor"
       stroke="currentColor"
       points="0.04,0.164 0.04,-0.164 6.5219,-0.0074 6.5219,0.3206 "
       id="polygon152" />
  </g>
  <a
     style="color:inherit"
     xlink:href="textedit:///Users/tomsegarra/Documents/dev/dummies/lilypond_files/fbb8b59253c216d56fb95dcb083fc91d.ly:20:23:24"
     id="a178"
     transform="translate(-2.2771667,-3.2762672)">
    <g
       transform="translate(45.5972,5.6089)"
       id="g160">
      <text
         font-family="sans-serif"
         font-size="2.224px"
         text-anchor="start"
         fill="currentColor"
         id="text158"><tspan
           id="tspan156">A</tspan></text>
    </g>
    <g
       transform="translate(47.1337,5.6089)"
       id="g166">
      <text
         font-family="sans-serif"
         font-size="2.224px"
         text-anchor="start"
         fill="currentColor"
         id="text164"><tspan
           id="tspan162">/</tspan></text>
    </g>
    <g
       transform="translate(48.158,5.6089)"
       id="g172">
      <text
         font-family="sans-serif"
         font-size="2.224px"
         text-anchor="start"
         fill="currentColor"
         id="text170"><tspan
           id="tspan168">C</tspan></text>
    </g>
    <g
       transform="translate(49.6944,5.0089)"
       id="g176">
      <path
         transform="scale(0.0036,-0.0036)"
         d="m 217,-311 c 0,-11 -8,-19 -19,-19 -11,0 -20,8 -20,19 v 142 l -81,-30 v -156 c 0,-11 -9,-20 -20,-20 -11,0 -19,9 -19,20 v 142 l -28,-11 c -3,-1 -5,-1 -8,-1 -12,0 -22,10 -22,23 v 57 c 0,9 6,18 15,21 l 43,16 V 49 L 30,39 C 27,38 25,38 22,38 10,38 0,47 0,60 v 57 c 0,9 6,18 15,21 l 43,16 v 157 c 0,11 8,19 19,19 11,0 20,-8 20,-19 V 169 l 81,30 v 156 c 0,11 9,20 20,20 11,0 19,-9 19,-20 V 213 l 28,11 c 3,1 5,1 8,1 12,0 22,-10 22,-23 v -57 c 0,-9 -6,-18 -15,-21 L 217,108 V -49 l 28,10 c 3,1 5,1 8,1 12,0 22,-9 22,-22 v -57 c 0,-9 -6,-18 -15,-21 l -43,-16 z M 97,64 V -94 l 81,30 V 94 Z"
         fill="currentColor"
         id="path174" />
    </g>
  </a>
  <g
     color="#ff0000"
     id="g186"
     transform="translate(-2.2771667,-3.2762672)">
    <a
       style="color:inherit"
       xlink:href="textedit:///Users/tomsegarra/Documents/dev/dummies/lilypond_files/fbb8b59253c216d56fb95dcb083fc91d.ly:29:11:12"
       id="a184">
      <g
         transform="translate(45.5972,9.2205)"
         id="g182">
        <path
           transform="scale(0.0034,-0.0034)"
           d="m 215,137 c 67,0 111,-37 111,-92 0,-90 -111,-182 -215,-182 -67,0 -111,37 -111,92 0,90 111,182 215,182 z"
           fill="currentColor"
           id="path180" />
      </g>
    </a>
  </g>
  <a
     style="color:inherit"
     xlink:href="textedit:///Users/tomsegarra/Documents/dev/dummies/lilypond_files/fbb8b59253c216d56fb95dcb083fc91d.ly:31:55:56"
     id="a194"
     transform="translate(-2.2771667,-3.2762672)">
    <g
       transform="translate(45.1437,15.1455)"
       id="g192">
      <text
         font-family="serif"
         font-size="2.0989px"
         text-anchor="start"
         fill="currentColor"
         id="text190"><tspan
           id="tspan188">in'</tspan></text>
    </g>
  </a>
  <g
     color="#ff0000"
     id="g200"
     transform="translate(-2.2771667,-3.2762672)">
    <g
       transform="translate(45.6589,9.6455)"
       id="g198">
      <rect
         x="-0.061700001"
         y="-0.27250001"
         width="0.1233"
         height="1.9615"
         ry="0.039999999"
         fill="currentColor"
         id="rect196" />
    </g>
  </g>
  <g
     color="#ff0000"
     id="g208"
     transform="translate(-2.2771667,-3.2762672)">
    <a
       style="color:inherit"
       xlink:href="textedit:///Users/tomsegarra/Documents/dev/dummies/lilypond_files/fbb8b59253c216d56fb95dcb083fc91d.ly:29:14:15"
       id="a206">
      <g
         transform="translate(49.3546,7.9455)"
         id="g204">
        <path
           transform="scale(0.0034,-0.0034)"
           d="m 215,137 c 67,0 111,-37 111,-92 0,-90 -111,-182 -215,-182 -67,0 -111,37 -111,92 0,90 111,182 215,182 z"
           fill="currentColor"
           id="path202" />
      </g>
    </a>
  </g>
  <a
     style="color:inherit"
     xlink:href="textedit:///Users/tomsegarra/Documents/dev/dummies/lilypond_files/fbb8b59253c216d56fb95dcb083fc91d.ly:31:59:60"
     id="a216"
     transform="translate(-2.2771667,-3.2762672)">
    <g
       transform="translate(49.3546,15.1455)"
       id="g214">
      <text
         font-family="serif"
         font-size="2.0989px"
         text-anchor="start"
         fill="currentColor"
         id="text212"><tspan
           id="tspan210">down</tspan></text>
    </g>
  </a>
  <g
     color="#ff0000"
     id="g222"
     transform="translate(-2.2771667,-3.2762672)">
    <g
       transform="translate(49.4163,9.6455)"
       id="g220">
      <rect
         x="-0.061700001"
         y="-1.5475"
         width="0.1233"
         height="2.5651"
         ry="0.039999999"
         fill="currentColor"
         id="rect218" />
    </g>
  </g>
  <g
     color="#ff0000"
     id="g230"
     transform="translate(-2.2771667,-3.2762672)">
    <a
       style="color:inherit"
       xlink:href="textedit:///Users/tomsegarra/Documents/dev/dummies/lilypond_files/fbb8b59253c216d56fb95dcb083fc91d.ly:29:20:21"
       id="a228">
      <g
         transform="translate(52.862,7.9455)"
         id="g226">
        <path
           transform="scale(0.0034,-0.0034)"
           d="m 215,137 c 67,0 111,-37 111,-92 0,-90 -111,-182 -215,-182 -67,0 -111,37 -111,92 0,90 111,182 215,182 z"
           fill="currentColor"
           id="path224" />
      </g>
    </a>
  </g>
  <g
     color="#ff0000"
     id="g236"
     transform="translate(-2.2771667,-3.2762672)">
    <g
       transform="translate(52.9237,9.6455)"
       id="g234">
      <rect
         x="-0.061700001"
         y="-1.5475"
         width="0.1233"
         height="2.8225"
         ry="0.039999999"
         fill="currentColor"
         id="rect232" />
    </g>
  </g>
  <a
     style="color:inherit"
     xlink:href="textedit:///Users/tomsegarra/Documents/dev/dummies/lilypond_files/fbb8b59253c216d56fb95dcb083fc91d.ly:25:12:13"
     id="a242"
     transform="translate(-2.2771667,-3.2762672)">
    <g
       transform="translate(34.5836,9.6455)"
       id="g240">
      <path
         stroke-width="0.0759"
         stroke-linejoin="round"
         stroke-linecap="round"
         stroke="currentColor"
         fill="currentColor"
         d="m 0.7537,-2.375 c 0.4953,-0.5777 1.5453,-0.5777 2.0406,0 v 0 c -0.4953,-0.4638 -1.5453,-0.4638 -2.0406,0 z"
         id="path238" />
    </g>
  </a>
  <a
     style="color:inherit"
     xlink:href="textedit:///Users/tomsegarra/Documents/dev/dummies/lilypond_files/fbb8b59253c216d56fb95dcb083fc91d.ly:24:24:25"
     id="a248"
     transform="translate(-2.2771667,-3.2762672)">
    <g
       transform="translate(18.7556,7.0955)"
       id="g246">
      <path
         transform="scale(0.0034,-0.0034)"
         d="m 215,137 c 67,0 111,-37 111,-92 0,-90 -111,-182 -215,-182 -67,0 -111,37 -111,92 0,90 111,182 215,182 z"
         fill="currentColor"
         id="path244" />
    </g>
  </a>
  <a
     style="color:inherit"
     xlink:href="textedit:///Users/tomsegarra/Documents/dev/dummies/lilypond_files/fbb8b59253c216d56fb95dcb083fc91d.ly:31:22:23"
     id="a256"
     transform="translate(-2.2771667,-3.2762672)">
    <g
       transform="translate(17.4997,15.1455)"
       id="g254">
      <text
         font-family="serif"
         font-size="2.0989px"
         text-anchor="start"
         fill="currentColor"
         id="text252"><tspan
           id="tspan250">pick</tspan></text>
    </g>
  </a>
  <g
     transform="translate(16.540133,6.3692328)"
     id="g260">
    <rect
       x="-0.061700001"
       y="-2.3975"
       width="0.1233"
       height="3.0924001"
       ry="0.039999999"
       fill="currentColor"
       id="rect258" />
  </g>
  <a
     style="color:inherit"
     xlink:href="textedit:///Users/tomsegarra/Documents/dev/dummies/lilypond_files/fbb8b59253c216d56fb95dcb083fc91d.ly:24:26:27"
     id="a266"
     transform="translate(-2.2771667,-3.2762672)">
    <g
       transform="translate(22.6029,7.5205)"
       id="g264">
      <path
         transform="scale(0.0034,-0.0034)"
         d="m 215,137 c 67,0 111,-37 111,-92 0,-90 -111,-182 -215,-182 -67,0 -111,37 -111,92 0,90 111,182 215,182 z"
         fill="currentColor"
         id="path262" />
    </g>
  </a>
  <a
     style="color:inherit"
     xlink:href="textedit:///Users/tomsegarra/Documents/dev/dummies/lilypond_files/fbb8b59253c216d56fb95dcb083fc91d.ly:31:27:28"
     id="a274"
     transform="translate(-2.2771667,-3.2762672)">
    <g
       transform="translate(21.5689,15.1455)"
       id="g272">
      <text
         font-family="serif"
         font-size="2.0989px"
         text-anchor="start"
         fill="currentColor"
         id="text270"><tspan
           id="tspan268">you</tspan></text>
    </g>
  </a>
  <g
     transform="translate(20.387333,6.3692328)"
     id="g278">
    <rect
       x="-0.061700001"
       y="-1.9725"
       width="0.1233"
       height="2.7592001"
       ry="0.039999999"
       fill="currentColor"
       id="rect276" />
  </g>
  <g
     transform="translate(29.783333,6.4585328)"
     id="g282">
    <polygon
       stroke-linejoin="round"
       stroke-linecap="round"
       stroke-width="0.08"
       fill="currentColor"
       stroke="currentColor"
       points="0.04,0.164 0.04,-0.164 2.6064,-0.0967 2.6064,0.2313 "
       id="polygon280" />
  </g>
  <g
     transform="translate(26.275933,7.0626328)"
     id="g286">
    <polygon
       stroke-linejoin="round"
       stroke-linecap="round"
       stroke-width="0.08"
       fill="currentColor"
       stroke="currentColor"
       points="0.04,0.164 0.04,-0.164 6.1138,-0.0074 6.1138,0.3206 "
       id="polygon284" />
  </g>
  <a
     style="color:inherit"
     xlink:href="textedit:///Users/tomsegarra/Documents/dev/dummies/lilypond_files/fbb8b59253c216d56fb95dcb083fc91d.ly:24:30:31"
     id="a292"
     transform="translate(-2.2771667,-3.2762672)">
    <g
       transform="translate(25.1942,7.5205)"
       id="g290">
      <path
         transform="scale(0.0034,-0.0034)"
         d="m 215,137 c 67,0 111,-37 111,-92 0,-90 -111,-182 -215,-182 -67,0 -111,37 -111,92 0,90 111,182 215,182 z"
         fill="currentColor"
         id="path288" />
    </g>
  </a>
  <a
     style="color:inherit"
     xlink:href="textedit:///Users/tomsegarra/Documents/dev/dummies/lilypond_files/fbb8b59253c216d56fb95dcb083fc91d.ly:31:31:32"
     id="a300"
     transform="translate(-2.2771667,-3.2762672)">
    <g
       transform="translate(25.1942,15.1455)"
       id="g298">
      <text
         font-family="serif"
         font-size="2.0989px"
         text-anchor="start"
         fill="currentColor"
         id="text296"><tspan
           id="tspan294">up</tspan></text>
    </g>
  </a>
  <g
     transform="translate(22.978733,6.3692328)"
     id="g304">
    <rect
       x="-0.061700001"
       y="-1.9725"
       width="0.1233"
       height="2.8211"
       ry="0.039999999"
       fill="currentColor"
       id="rect302" />
  </g>
  <a
     style="color:inherit"
     xlink:href="textedit:///Users/tomsegarra/Documents/dev/dummies/lilypond_files/fbb8b59253c216d56fb95dcb083fc91d.ly:20:18:19"
     id="a318"
     transform="translate(-2.2771667,-3.2762672)">
    <g
       transform="translate(28.5531,5.6089)"
       id="g310">
      <text
         font-family="sans-serif"
         font-size="2.224px"
         text-anchor="start"
         fill="currentColor"
         id="text308"><tspan
           id="tspan306">E</tspan></text>
    </g>
    <g
       transform="translate(29.953,4.4197)"
       id="g316">
      <text
         font-family="sans-serif"
         font-size="1.5727px"
         text-anchor="start"
         fill="currentColor"
         id="text314"><tspan
           id="tspan312">7</tspan></text>
    </g>
  </a>
  <a
     style="color:inherit"
     xlink:href="textedit:///Users/tomsegarra/Documents/dev/dummies/lilypond_files/fbb8b59253c216d56fb95dcb083fc91d.ly:25:4:5"
     id="a324"
     transform="translate(-2.2771667,-3.2762672)">
    <g
       transform="translate(28.5531,7.5205)"
       id="g322">
      <path
         transform="scale(0.0034,-0.0034)"
         d="m 215,137 c 67,0 111,-37 111,-92 0,-90 -111,-182 -215,-182 -67,0 -111,37 -111,92 0,90 111,182 215,182 z"
         fill="currentColor"
         id="path320" />
    </g>
  </a>
  <g
     transform="translate(26.337633,6.3692328)"
     id="g328">
    <rect
       x="-0.061700001"
       y="-1.9725"
       width="0.1233"
       height="2.6675"
       ry="0.039999999"
       fill="currentColor"
       id="rect326" />
  </g>
  <a
     style="color:inherit"
     xlink:href="textedit:///Users/tomsegarra/Documents/dev/dummies/lilypond_files/fbb8b59253c216d56fb95dcb083fc91d.ly:25:7:8"
     id="a334"
     transform="translate(-2.2771667,-3.2762672)">
    <g
       transform="translate(32.0605,7.9455)"
       id="g332">
      <path
         transform="scale(0.0034,-0.0034)"
         d="m 215,137 c 67,0 111,-37 111,-92 0,-90 -111,-182 -215,-182 -67,0 -111,37 -111,92 0,90 111,182 215,182 z"
         fill="currentColor"
         id="path330" />
    </g>
  </a>
  <a
     style="color:inherit"
     xlink:href="textedit:///Users/tomsegarra/Documents/dev/dummies/lilypond_files/fbb8b59253c216d56fb95dcb083fc91d.ly:31:34:35"
     id="a342"
     transform="translate(-2.2771667,-3.2762672)">
    <g
       transform="translate(31.0948,15.1455)"
       id="g340">
      <text
         font-family="serif"
         font-size="2.0989px"
         text-anchor="start"
         fill="currentColor"
         id="text338"><tspan
           id="tspan336">and</tspan></text>
    </g>
  </a>
  <g
     transform="translate(29.845033,6.3692328)"
     id="g346">
    <rect
       x="-0.061700001"
       y="-1.5475"
       width="0.1233"
       height="2.3318"
       ry="0.039999999"
       fill="currentColor"
       id="rect344" />
  </g>
  <g
     transform="translate(39.791733,7.3465328)"
     id="g350">
    <polygon
       stroke-linejoin="round"
       stroke-linecap="round"
       stroke-width="0.08"
       fill="currentColor"
       stroke="currentColor"
       points="0.04,0.164 0.04,-0.164 1.1217,-0.1347 1.1217,0.1933 "
       id="polygon348" />
  </g>
  <g
     transform="translate(34.747033,7.2192328)"
     id="g354">
    <polygon
       stroke-linejoin="round"
       stroke-linecap="round"
       stroke-width="0.08"
       fill="currentColor"
       stroke="currentColor"
       points="0.04,0.164 0.04,-0.164 1.1217,-0.1347 1.1217,0.1933 "
       id="polygon352" />
  </g>
  <g
     transform="translate(34.747033,7.9126328)"
     id="g358">
    <polygon
       stroke-linejoin="round"
       stroke-linecap="round"
       stroke-width="0.08"
       fill="currentColor"
       stroke="currentColor"
       points="0.04,0.164 0.04,-0.164 6.1663,-0.0074 6.1663,0.3206 "
       id="polygon356" />
  </g>
  <a
     style="color:inherit"
     xlink:href="textedit:///Users/tomsegarra/Documents/dev/dummies/lilypond_files/fbb8b59253c216d56fb95dcb083fc91d.ly:25:11:12"
     id="a364"
     transform="translate(-2.2771667,-3.2762672)">
    <g
       transform="translate(34.5836,7.9455)"
       id="g362">
      <path
         transform="scale(0.0034,-0.0034)"
         d="m 215,137 c 67,0 111,-37 111,-92 0,-90 -111,-182 -215,-182 -67,0 -111,37 -111,92 0,90 111,182 215,182 z"
         fill="currentColor"
         id="path360" />
    </g>
  </a>
  <a
     style="color:inherit"
     xlink:href="textedit:///Users/tomsegarra/Documents/dev/dummies/lilypond_files/fbb8b59253c216d56fb95dcb083fc91d.ly:31:38:39"
     id="a372"
     transform="translate(-2.2771667,-3.2762672)">
    <g
       transform="translate(34.5836,15.1455)"
       id="g370">
      <text
         font-family="serif"
         font-size="2.0989px"
         text-anchor="start"
         fill="currentColor"
         id="text368"><tspan
           id="tspan366">you</tspan></text>
    </g>
  </a>
  <g
     transform="translate(32.368033,6.3692328)"
     id="g376">
    <rect
       x="-0.061700001"
       y="-1.5475"
       width="0.1233"
       height="2.3959999"
       ry="0.039999999"
       fill="currentColor"
       id="rect374" />
  </g>
  <a
     style="color:inherit"
     xlink:href="textedit:///Users/tomsegarra/Documents/dev/dummies/lilypond_files/fbb8b59253c216d56fb95dcb083fc91d.ly:25:17:18"
     id="a382"
     transform="translate(-2.2771667,-3.2762672)">
    <g
       transform="translate(37.0242,7.9455)"
       id="g380">
      <path
         transform="scale(0.0034,-0.0034)"
         d="m 215,137 c 67,0 111,-37 111,-92 0,-90 -111,-182 -215,-182 -67,0 -111,37 -111,92 0,90 111,182 215,182 z"
         fill="currentColor"
         id="path378" />
    </g>
  </a>
  <g
     color="#ff0000"
     id="g388"
     transform="translate(-2.2771667,-3.2762672)">
    <g
       transform="translate(45.5972,11.3455)"
       id="g386">
      <polygon
         stroke-linejoin="round"
         stroke-linecap="round"
         stroke-width="0.08"
         fill="currentColor"
         stroke="currentColor"
         points="0.04,0.164 0.04,-0.164 3.8407,-0.8574 3.8407,-0.5294 "
         id="polygon384" />
    </g>
  </g>
  <a
     style="color:inherit"
     xlink:href="textedit:///Users/tomsegarra/Documents/dev/dummies/lilypond_files/fbb8b59253c216d56fb95dcb083fc91d.ly:29:16:17"
     id="a394"
     transform="translate(-2.2771667,-3.2762672)">
    <g
       transform="translate(49.3546,9.6455)"
       id="g392">
      <path
         stroke-width="0.0759"
         stroke-linejoin="round"
         stroke-linecap="round"
         stroke="currentColor"
         fill="currentColor"
         d="m 0.7537,-2.375 c 0.6677,-0.7058 2.4397,-0.7058 3.1074,0 v 0 c -0.6677,-0.592 -2.4397,-0.592 -3.1074,0 z"
         id="path390" />
    </g>
  </a>
</svg>
